G75*
%MOIN*%
%OFA0B0*%
%FSLAX24Y24*%
%IPPOS*%
%LPD*%
%AMOC8*
5,1,8,0,0,1.08239X$1,22.5*
%
%ADD10C,0.0000*%
%ADD11R,0.0394X0.0433*%
%ADD12R,0.1000X0.1000*%
%ADD13R,0.0433X0.0394*%
%ADD14R,0.0551X0.0394*%
%ADD15R,0.0673X0.0157*%
%ADD16R,0.0575X0.0787*%
%ADD17R,0.0984X0.0541*%
%ADD18R,0.1252X0.0962*%
%ADD19R,0.1252X0.0962*%
%ADD20R,0.0544X0.0530*%
%ADD21R,0.0544X0.0530*%
D10*
X000285Y000180D02*
X000285Y019865D01*
X019970Y019865D01*
X019970Y000180D01*
X000285Y000180D01*
X001202Y008174D02*
X001204Y008203D01*
X001210Y008231D01*
X001219Y008259D01*
X001232Y008285D01*
X001249Y008308D01*
X001268Y008330D01*
X001290Y008349D01*
X001315Y008364D01*
X001341Y008377D01*
X001369Y008385D01*
X001397Y008390D01*
X001426Y008391D01*
X001455Y008388D01*
X001483Y008381D01*
X001510Y008371D01*
X001536Y008357D01*
X001559Y008340D01*
X001580Y008320D01*
X001598Y008297D01*
X001613Y008272D01*
X001624Y008245D01*
X001632Y008217D01*
X001636Y008188D01*
X001636Y008160D01*
X001632Y008131D01*
X001624Y008103D01*
X001613Y008076D01*
X001598Y008051D01*
X001580Y008028D01*
X001559Y008008D01*
X001536Y007991D01*
X001510Y007977D01*
X001483Y007967D01*
X001455Y007960D01*
X001426Y007957D01*
X001397Y007958D01*
X001369Y007963D01*
X001341Y007971D01*
X001315Y007984D01*
X001290Y007999D01*
X001268Y008018D01*
X001249Y008040D01*
X001232Y008063D01*
X001219Y008089D01*
X001210Y008117D01*
X001204Y008145D01*
X001202Y008174D01*
X001202Y009174D02*
X001204Y009203D01*
X001210Y009231D01*
X001219Y009259D01*
X001232Y009285D01*
X001249Y009308D01*
X001268Y009330D01*
X001290Y009349D01*
X001315Y009364D01*
X001341Y009377D01*
X001369Y009385D01*
X001397Y009390D01*
X001426Y009391D01*
X001455Y009388D01*
X001483Y009381D01*
X001510Y009371D01*
X001536Y009357D01*
X001559Y009340D01*
X001580Y009320D01*
X001598Y009297D01*
X001613Y009272D01*
X001624Y009245D01*
X001632Y009217D01*
X001636Y009188D01*
X001636Y009160D01*
X001632Y009131D01*
X001624Y009103D01*
X001613Y009076D01*
X001598Y009051D01*
X001580Y009028D01*
X001559Y009008D01*
X001536Y008991D01*
X001510Y008977D01*
X001483Y008967D01*
X001455Y008960D01*
X001426Y008957D01*
X001397Y008958D01*
X001369Y008963D01*
X001341Y008971D01*
X001315Y008984D01*
X001290Y008999D01*
X001268Y009018D01*
X001249Y009040D01*
X001232Y009063D01*
X001219Y009089D01*
X001210Y009117D01*
X001204Y009145D01*
X001202Y009174D01*
X001194Y010500D02*
X001196Y010529D01*
X001202Y010557D01*
X001211Y010585D01*
X001224Y010611D01*
X001241Y010634D01*
X001260Y010656D01*
X001282Y010675D01*
X001307Y010690D01*
X001333Y010703D01*
X001361Y010711D01*
X001389Y010716D01*
X001418Y010717D01*
X001447Y010714D01*
X001475Y010707D01*
X001502Y010697D01*
X001528Y010683D01*
X001551Y010666D01*
X001572Y010646D01*
X001590Y010623D01*
X001605Y010598D01*
X001616Y010571D01*
X001624Y010543D01*
X001628Y010514D01*
X001628Y010486D01*
X001624Y010457D01*
X001616Y010429D01*
X001605Y010402D01*
X001590Y010377D01*
X001572Y010354D01*
X001551Y010334D01*
X001528Y010317D01*
X001502Y010303D01*
X001475Y010293D01*
X001447Y010286D01*
X001418Y010283D01*
X001389Y010284D01*
X001361Y010289D01*
X001333Y010297D01*
X001307Y010310D01*
X001282Y010325D01*
X001260Y010344D01*
X001241Y010366D01*
X001224Y010389D01*
X001211Y010415D01*
X001202Y010443D01*
X001196Y010471D01*
X001194Y010500D01*
X001194Y011500D02*
X001196Y011529D01*
X001202Y011557D01*
X001211Y011585D01*
X001224Y011611D01*
X001241Y011634D01*
X001260Y011656D01*
X001282Y011675D01*
X001307Y011690D01*
X001333Y011703D01*
X001361Y011711D01*
X001389Y011716D01*
X001418Y011717D01*
X001447Y011714D01*
X001475Y011707D01*
X001502Y011697D01*
X001528Y011683D01*
X001551Y011666D01*
X001572Y011646D01*
X001590Y011623D01*
X001605Y011598D01*
X001616Y011571D01*
X001624Y011543D01*
X001628Y011514D01*
X001628Y011486D01*
X001624Y011457D01*
X001616Y011429D01*
X001605Y011402D01*
X001590Y011377D01*
X001572Y011354D01*
X001551Y011334D01*
X001528Y011317D01*
X001502Y011303D01*
X001475Y011293D01*
X001447Y011286D01*
X001418Y011283D01*
X001389Y011284D01*
X001361Y011289D01*
X001333Y011297D01*
X001307Y011310D01*
X001282Y011325D01*
X001260Y011344D01*
X001241Y011366D01*
X001224Y011389D01*
X001211Y011415D01*
X001202Y011443D01*
X001196Y011471D01*
X001194Y011500D01*
X016615Y011539D02*
X016617Y011568D01*
X016623Y011596D01*
X016632Y011624D01*
X016645Y011650D01*
X016662Y011673D01*
X016681Y011695D01*
X016703Y011714D01*
X016728Y011729D01*
X016754Y011742D01*
X016782Y011750D01*
X016810Y011755D01*
X016839Y011756D01*
X016868Y011753D01*
X016896Y011746D01*
X016923Y011736D01*
X016949Y011722D01*
X016972Y011705D01*
X016993Y011685D01*
X017011Y011662D01*
X017026Y011637D01*
X017037Y011610D01*
X017045Y011582D01*
X017049Y011553D01*
X017049Y011525D01*
X017045Y011496D01*
X017037Y011468D01*
X017026Y011441D01*
X017011Y011416D01*
X016993Y011393D01*
X016972Y011373D01*
X016949Y011356D01*
X016923Y011342D01*
X016896Y011332D01*
X016868Y011325D01*
X016839Y011322D01*
X016810Y011323D01*
X016782Y011328D01*
X016754Y011336D01*
X016728Y011349D01*
X016703Y011364D01*
X016681Y011383D01*
X016662Y011405D01*
X016645Y011428D01*
X016632Y011454D01*
X016623Y011482D01*
X016617Y011510D01*
X016615Y011539D01*
X017615Y011539D02*
X017617Y011568D01*
X017623Y011596D01*
X017632Y011624D01*
X017645Y011650D01*
X017662Y011673D01*
X017681Y011695D01*
X017703Y011714D01*
X017728Y011729D01*
X017754Y011742D01*
X017782Y011750D01*
X017810Y011755D01*
X017839Y011756D01*
X017868Y011753D01*
X017896Y011746D01*
X017923Y011736D01*
X017949Y011722D01*
X017972Y011705D01*
X017993Y011685D01*
X018011Y011662D01*
X018026Y011637D01*
X018037Y011610D01*
X018045Y011582D01*
X018049Y011553D01*
X018049Y011525D01*
X018045Y011496D01*
X018037Y011468D01*
X018026Y011441D01*
X018011Y011416D01*
X017993Y011393D01*
X017972Y011373D01*
X017949Y011356D01*
X017923Y011342D01*
X017896Y011332D01*
X017868Y011325D01*
X017839Y011322D01*
X017810Y011323D01*
X017782Y011328D01*
X017754Y011336D01*
X017728Y011349D01*
X017703Y011364D01*
X017681Y011383D01*
X017662Y011405D01*
X017645Y011428D01*
X017632Y011454D01*
X017623Y011482D01*
X017617Y011510D01*
X017615Y011539D01*
D11*
X006489Y016572D03*
X005819Y016572D03*
D12*
X005715Y003599D03*
X003865Y003599D03*
D13*
X003357Y005956D03*
X003357Y006625D03*
D14*
X002537Y004326D03*
X002537Y003578D03*
X001671Y003952D03*
D15*
X002533Y014212D03*
X002533Y014468D03*
X002533Y014724D03*
X002533Y014980D03*
X002533Y015236D03*
D16*
X002584Y015866D03*
X002584Y013582D03*
D17*
X000946Y014355D03*
X000946Y015093D03*
D18*
X001568Y013431D03*
D19*
X001568Y016012D03*
D20*
X000669Y013214D03*
D21*
X000669Y016226D03*
M02*
