%
M48
M72
T01C0.0197
T02C0.0320
T03C0.0360
T04C0.0400
T05C0.0433
T06C0.0590
T07C0.0630
T08C0.1260
%
T01
X11084Y11098
X12816Y8534
X1595Y4511
X8381Y13114
X7842Y2408
X9279Y3322
X8720Y3849
X8158Y11591
X7466Y11591
X6508Y10536
X2610Y4807
X9681Y12477
X1122Y7437
X1329Y6778
X16926Y14596
X16918Y15799
X8673Y13445
X8538Y12625
X9101Y13299
X8358Y11060
X7845Y13263
X4075Y13267
X7818Y7611
X1834Y3842
X2988Y3881
X720Y7437
X6286Y2741
X2684Y6056
X6929Y7082
X7472Y17573
X12941Y10955
X12573Y7573
X6572Y11109
X6626Y13126
X6543Y16434
X12297Y10239
X7214Y18608
X8304Y18805
X16735Y11998
X15921Y10932
X12326Y9468
T02
X16317Y4805
X15317Y4805
X14317Y4805
X13317Y4805
X12317Y4805
X11317Y4805
X10317Y4805
X9317Y4805
X8317Y4805
X7317Y4805
X6317Y4805
X5317Y4805
X4317Y4805
X3317Y4805
X3317Y1805
X4317Y1805
X5317Y1805
X6317Y1805
X7317Y1805
X8317Y1805
X9317Y1805
X10317Y1805
X11317Y1805
X12317Y1805
X13317Y1805
X14317Y1805
X15317Y1805
X16317Y1805
X5153Y7106
X5153Y6116
X18157Y12502
X19157Y12502
T03
X6916Y14063
X7916Y14063
X5021Y14070
X4021Y14070
T04
X17168Y18666
X7280Y9422
X18753Y15208
X18753Y16988
X18753Y3397
X18753Y5177
X3804Y15589
X4804Y15589
X5804Y15589
X6804Y15589
X7804Y15589
X8804Y15589
X14277Y6729
X5350Y10143
T05
X18568Y8027
X18568Y9011
X18568Y9996
X2476Y10670
X2476Y11670
X1476Y10670
X1476Y11670
X2484Y8344
X2484Y9344
X1484Y8344
X1484Y9344
T06
X17773Y14718
X17773Y17478
X17773Y2907
X17773Y5667
T07
X17268Y10980
X17268Y7043
T08
X1201Y19175
X19182Y19177
X1200Y1200
X19179Y1212
M30
