G75*
%MOIN*%
%OFA0B0*%
%FSLAX25Y25*%
%IPPOS*%
%LPD*%
%AMOC8*
5,1,8,0,0,1.08239X$1,22.5*
%
%ADD10C,0.01600*%
%ADD11R,0.05512X0.06299*%
%ADD12R,0.04331X0.03937*%
%ADD13R,0.03937X0.04331*%
%ADD14R,0.02165X0.04724*%
%ADD15R,0.07480X0.05118*%
%ADD16R,0.02200X0.05000*%
%ADD17R,0.05000X0.02200*%
%ADD18R,0.01575X0.06732*%
%ADD19R,0.07874X0.05748*%
%ADD20R,0.05413X0.09843*%
%ADD21R,0.09616X0.12522*%
%ADD22R,0.09616X0.12522*%
%ADD23R,0.05304X0.05436*%
%ADD24R,0.05304X0.05436*%
%ADD25R,0.01121X0.02756*%
%ADD26R,0.03150X0.03150*%
%ADD27R,0.05512X0.03937*%
%ADD28R,0.03937X0.05512*%
D10*
X0001800Y0005000D02*
X0349300Y0005000D01*
X0349300Y0225000D01*
X0001800Y0225000D01*
X0001800Y0005000D01*
D11*
X0313332Y0097154D03*
X0324356Y0097154D03*
D12*
X0327108Y0085946D03*
X0320415Y0085946D03*
X0320381Y0077321D03*
X0327073Y0077321D03*
X0291800Y0084154D03*
X0291800Y0090846D03*
X0265919Y0133183D03*
X0259226Y0133183D03*
X0259468Y0161705D03*
X0266161Y0161705D03*
X0295954Y0190000D03*
X0302646Y0190000D03*
X0221800Y0186654D03*
X0221800Y0193346D03*
X0206800Y0193346D03*
X0206800Y0186654D03*
X0194300Y0186654D03*
X0194300Y0193346D03*
X0138269Y0150262D03*
X0131576Y0150262D03*
X0131251Y0129552D03*
X0137944Y0129552D03*
X0199376Y0124552D03*
X0206069Y0124552D03*
X0171800Y0073346D03*
X0171800Y0066654D03*
X0141800Y0058346D03*
X0141800Y0051654D03*
X0096800Y0071654D03*
X0096800Y0078346D03*
X0086800Y0058346D03*
X0086800Y0051654D03*
D13*
X0118454Y0075000D03*
X0125146Y0075000D03*
X0110146Y0100000D03*
X0103454Y0100000D03*
X0128454Y0042500D03*
X0135146Y0042500D03*
X0296690Y0130435D03*
X0303383Y0130435D03*
X0302646Y0142500D03*
X0295954Y0142500D03*
X0295954Y0170000D03*
X0302646Y0170000D03*
X0319799Y0212375D03*
X0326492Y0212375D03*
X0149410Y0169366D03*
X0142717Y0169366D03*
X0308454Y0022500D03*
X0315146Y0022500D03*
D14*
X0266742Y0142310D03*
X0259262Y0142310D03*
X0259262Y0152547D03*
X0263002Y0152547D03*
X0266742Y0152547D03*
D15*
X0181550Y0169881D03*
X0168952Y0169881D03*
X0168952Y0191535D03*
X0181550Y0191535D03*
D16*
X0177824Y0156900D03*
X0174674Y0156900D03*
X0171524Y0156900D03*
X0168375Y0156900D03*
X0165225Y0156900D03*
X0162076Y0156900D03*
X0158926Y0156900D03*
X0155776Y0156900D03*
X0155776Y0123100D03*
X0158926Y0123100D03*
X0162076Y0123100D03*
X0165225Y0123100D03*
X0168375Y0123100D03*
X0171524Y0123100D03*
X0174674Y0123100D03*
X0177824Y0123100D03*
D17*
X0183700Y0128976D03*
X0183700Y0132126D03*
X0183700Y0135276D03*
X0183700Y0138425D03*
X0183700Y0141575D03*
X0183700Y0144724D03*
X0183700Y0147874D03*
X0183700Y0151024D03*
X0149900Y0151024D03*
X0149900Y0147874D03*
X0149900Y0144724D03*
X0149900Y0141575D03*
X0149900Y0138425D03*
X0149900Y0135276D03*
X0149900Y0132126D03*
X0149900Y0128976D03*
D18*
X0120580Y0029449D03*
X0118020Y0029449D03*
X0115461Y0029449D03*
X0112902Y0029449D03*
X0110343Y0029449D03*
D19*
X0104044Y0029961D03*
X0126879Y0029961D03*
D20*
X0119152Y0013583D03*
X0111770Y0013583D03*
D21*
X0128393Y0019801D03*
D22*
X0102586Y0019801D03*
D23*
X0130560Y0010807D03*
D24*
X0100445Y0010807D03*
D25*
X0119661Y0047919D03*
X0120733Y0047919D03*
X0121798Y0047921D03*
X0122882Y0047921D03*
X0123957Y0047921D03*
X0121800Y0049796D03*
X0121800Y0051752D03*
X0119831Y0051752D03*
X0118743Y0051752D03*
X0117668Y0051752D03*
X0116584Y0051752D03*
X0115519Y0051750D03*
X0114447Y0051750D03*
X0114488Y0058240D03*
X0115559Y0058240D03*
X0116624Y0058243D03*
X0117708Y0058243D03*
X0118783Y0058243D03*
X0119831Y0058248D03*
X0121800Y0058248D03*
X0123769Y0058248D03*
X0124827Y0058233D03*
X0125898Y0058233D03*
X0126964Y0058235D03*
X0128048Y0058235D03*
X0129122Y0058235D03*
X0123957Y0062076D03*
X0122882Y0062076D03*
X0121798Y0062076D03*
X0120733Y0062074D03*
X0119661Y0062074D03*
X0121798Y0060445D03*
X0123769Y0051752D03*
X0124838Y0051751D03*
X0125910Y0051751D03*
X0126975Y0051753D03*
X0128059Y0051753D03*
X0129133Y0051753D03*
D26*
X0069300Y0052047D03*
X0069300Y0057953D03*
D27*
X0081131Y0071260D03*
X0072469Y0075000D03*
X0081131Y0078740D03*
D28*
X0173060Y0054331D03*
X0180540Y0054331D03*
X0176800Y0045669D03*
M02*
