%
M48
M72
T01C0.01969
T02C0.03150
T03C0.03200
T04C0.03937
T05C0.04000
T06C0.04700
T07C0.05118
%
T01
X145009Y151161
X166662Y151654
X321190Y91122
X203572Y129016
X223749Y108839
X266072Y126555
X332017Y77343
X133690Y30098
X97272Y30591
X85954Y74882
X177981Y137382
X284280Y96043
X284280Y129508
X196682Y129016
X240973Y76850
X285757Y76850
X188808Y129016
X199635Y139843
X221288Y139843
X284280Y84232
X223257Y135906
X268532Y99980
X123847Y35512
X176997Y59134
X117942Y69961
X132213Y55689
X132706Y98504
X292154Y61102
X141564Y133937
X137135Y55197
X305442Y161496
X159772Y167402
X154851Y162480
X149438Y164449
X280835Y204803
X145009Y141811
X139103Y176752
X149438Y176752
X217843Y169862
X151898Y154606
X267056Y166909
X151898Y192992
X141564Y182657
X145009Y146732
X138119Y108346
X138119Y90630
X168631Y108346
X168631Y118189
X287233Y92598
X330540Y207756
X155835Y114744
X155835Y73898
X144024Y161496
X315284Y73406
X146977Y158543
X151406Y112776
X174044Y150177
X159280Y118189
X135166Y48799
X189792Y144764
X174536Y112283
X100225Y65531
X182902Y154606
X159772Y131476
X73650Y56181
X80048Y49783
X171583Y87677
X154851Y131476
X162824Y190000
X162824Y195000
X167233Y200000
X163217Y200000
X172233Y200000
X177233Y200000
X182233Y200000
X187233Y200000
X187627Y195000
X188020Y190000
X187233Y185000
X187233Y180000
X187233Y175000
X188020Y170000
X187233Y165000
X181800Y164449
X163217Y185000
X163217Y180000
X163217Y175000
X162824Y170000
X163217Y165000
X167233Y164449
T02
X75028Y116378
X75028Y163622
X228572Y163622
X228572Y136063
T03
X329350Y19016
X339250Y19016
T04
X241800Y215000
X231800Y25000
X251800Y215000
X261800Y215000
X271800Y215000
X281800Y215000
X231800Y215000
X221800Y215000
X211800Y215000
X195800Y215000
X185800Y215000
X175800Y215000
X165800Y215000
X155800Y215000
X145800Y215000
X135800Y215000
X125800Y215000
X241800Y25000
X251800Y25000
X261800Y25000
X271800Y25000
X281800Y25000
X211800Y25000
X201800Y25000
X191800Y25000
X181800Y25000
X171800Y25000
X161800Y25000
X115800Y215000
X105800Y215000
X151800Y25000
X141800Y25000
T05
X341800Y50000
X326800Y190000
X326800Y180000
X326800Y170000
X326800Y160000
X326800Y150000
X326800Y140000
X326800Y130000
X316800Y190000
X316800Y180000
X316800Y170000
X316800Y160000
X316800Y150000
X316800Y140000
X316800Y130000
X46800Y12500
X46800Y22500
X46800Y32500
X56800Y12500
X56800Y22500
X56800Y32500
X301800Y215000
T06
X31800Y185551
X31800Y205236
X31800Y140157
X31800Y159843
T07
X39300Y54921
X9300Y54921
X39300Y114921
X9300Y104921
M30
