G04 #@! TF.GenerationSoftware,KiCad,Pcbnew,5.0.0*
G04 #@! TF.CreationDate,2019-05-31T14:30:27+01:00*
G04 #@! TF.ProjectId,RRAT,525241542E6B696361645F7063620000,rev?*
G04 #@! TF.SameCoordinates,Original*
G04 #@! TF.FileFunction,Soldermask,Top*
G04 #@! TF.FilePolarity,Negative*
%FSLAX46Y46*%
G04 Gerber Fmt 4.6, Leading zero omitted, Abs format (unit mm)*
G04 Created by KiCad (PCBNEW 5.0.0) date Fri May 31 14:30:27 2019*
%MOMM*%
%LPD*%
G01*
G04 APERTURE LIST*
%ADD10C,0.150000*%
%ADD11C,0.100000*%
%ADD12C,1.650000*%
%ADD13C,3.100000*%
%ADD14R,2.100000X2.100000*%
%ADD15O,2.100000X2.100000*%
%ADD16R,1.371600X0.660400*%
%ADD17R,0.660400X1.371600*%
%ADD18R,2.101600X1.401600*%
%ADD19R,1.201600X1.101600*%
%ADD20R,2.200000X1.400000*%
%ADD21R,1.101600X1.201600*%
%ADD22R,1.050000X0.800000*%
%ADD23C,0.800000*%
G04 APERTURE END LIST*
D10*
G04 #@! TO.C,JP1*
X161925000Y-107315000D02*
X161925000Y-107061000D01*
X160147000Y-107315000D02*
X160147000Y-107061000D01*
X161925000Y-107188000D02*
X160147000Y-107188000D01*
X161353500Y-106299000D02*
X160655000Y-106299000D01*
X160337500Y-106553000D02*
X161734500Y-106553000D01*
X161798000Y-106680000D02*
X160274000Y-106680000D01*
X160210500Y-106807000D02*
X161861500Y-106807000D01*
X161861500Y-106934000D02*
X160210500Y-106934000D01*
X160147000Y-107061000D02*
X161925000Y-107061000D01*
X161925000Y-107061000D02*
G75*
G03X161036000Y-106172000I-889000J0D01*
G01*
X161036000Y-106172000D02*
G75*
G03X160147000Y-107061000I0J-889000D01*
G01*
X160655000Y-108077000D02*
X161417000Y-108077000D01*
X161734500Y-107823000D02*
X160337500Y-107823000D01*
X160274000Y-107696000D02*
X161798000Y-107696000D01*
X161861500Y-107569000D02*
X160210500Y-107569000D01*
X160210500Y-107442000D02*
X161861500Y-107442000D01*
X160147000Y-107315000D02*
X161925000Y-107315000D01*
X161036000Y-108204000D02*
G75*
G03X161925000Y-107315000I0J889000D01*
G01*
X160147000Y-107315000D02*
G75*
G03X161036000Y-108204000I889000J0D01*
G01*
G04 #@! TD*
D11*
G04 #@! TO.C,C6*
G36*
X146069346Y-106368589D02*
X146101380Y-106373341D01*
X146132794Y-106381210D01*
X146163286Y-106392120D01*
X146192561Y-106405966D01*
X146220338Y-106422615D01*
X146246350Y-106441907D01*
X146270345Y-106463655D01*
X146292093Y-106487650D01*
X146311385Y-106513662D01*
X146328034Y-106541439D01*
X146341880Y-106570714D01*
X146352790Y-106601206D01*
X146360659Y-106632620D01*
X146365411Y-106664654D01*
X146367000Y-106697000D01*
X146367000Y-108187000D01*
X146365411Y-108219346D01*
X146360659Y-108251380D01*
X146352790Y-108282794D01*
X146341880Y-108313286D01*
X146328034Y-108342561D01*
X146311385Y-108370338D01*
X146292093Y-108396350D01*
X146270345Y-108420345D01*
X146246350Y-108442093D01*
X146220338Y-108461385D01*
X146192561Y-108478034D01*
X146163286Y-108491880D01*
X146132794Y-108502790D01*
X146101380Y-108510659D01*
X146069346Y-108515411D01*
X146037000Y-108517000D01*
X145047000Y-108517000D01*
X145014654Y-108515411D01*
X144982620Y-108510659D01*
X144951206Y-108502790D01*
X144920714Y-108491880D01*
X144891439Y-108478034D01*
X144863662Y-108461385D01*
X144837650Y-108442093D01*
X144813655Y-108420345D01*
X144791907Y-108396350D01*
X144772615Y-108370338D01*
X144755966Y-108342561D01*
X144742120Y-108313286D01*
X144731210Y-108282794D01*
X144723341Y-108251380D01*
X144718589Y-108219346D01*
X144717000Y-108187000D01*
X144717000Y-106697000D01*
X144718589Y-106664654D01*
X144723341Y-106632620D01*
X144731210Y-106601206D01*
X144742120Y-106570714D01*
X144755966Y-106541439D01*
X144772615Y-106513662D01*
X144791907Y-106487650D01*
X144813655Y-106463655D01*
X144837650Y-106441907D01*
X144863662Y-106422615D01*
X144891439Y-106405966D01*
X144920714Y-106392120D01*
X144951206Y-106381210D01*
X144982620Y-106373341D01*
X145014654Y-106368589D01*
X145047000Y-106367000D01*
X146037000Y-106367000D01*
X146069346Y-106368589D01*
X146069346Y-106368589D01*
G37*
D12*
X145542000Y-107442000D03*
D11*
G36*
X143269346Y-106368589D02*
X143301380Y-106373341D01*
X143332794Y-106381210D01*
X143363286Y-106392120D01*
X143392561Y-106405966D01*
X143420338Y-106422615D01*
X143446350Y-106441907D01*
X143470345Y-106463655D01*
X143492093Y-106487650D01*
X143511385Y-106513662D01*
X143528034Y-106541439D01*
X143541880Y-106570714D01*
X143552790Y-106601206D01*
X143560659Y-106632620D01*
X143565411Y-106664654D01*
X143567000Y-106697000D01*
X143567000Y-108187000D01*
X143565411Y-108219346D01*
X143560659Y-108251380D01*
X143552790Y-108282794D01*
X143541880Y-108313286D01*
X143528034Y-108342561D01*
X143511385Y-108370338D01*
X143492093Y-108396350D01*
X143470345Y-108420345D01*
X143446350Y-108442093D01*
X143420338Y-108461385D01*
X143392561Y-108478034D01*
X143363286Y-108491880D01*
X143332794Y-108502790D01*
X143301380Y-108510659D01*
X143269346Y-108515411D01*
X143237000Y-108517000D01*
X142247000Y-108517000D01*
X142214654Y-108515411D01*
X142182620Y-108510659D01*
X142151206Y-108502790D01*
X142120714Y-108491880D01*
X142091439Y-108478034D01*
X142063662Y-108461385D01*
X142037650Y-108442093D01*
X142013655Y-108420345D01*
X141991907Y-108396350D01*
X141972615Y-108370338D01*
X141955966Y-108342561D01*
X141942120Y-108313286D01*
X141931210Y-108282794D01*
X141923341Y-108251380D01*
X141918589Y-108219346D01*
X141917000Y-108187000D01*
X141917000Y-106697000D01*
X141918589Y-106664654D01*
X141923341Y-106632620D01*
X141931210Y-106601206D01*
X141942120Y-106570714D01*
X141955966Y-106541439D01*
X141972615Y-106513662D01*
X141991907Y-106487650D01*
X142013655Y-106463655D01*
X142037650Y-106441907D01*
X142063662Y-106422615D01*
X142091439Y-106405966D01*
X142120714Y-106392120D01*
X142151206Y-106381210D01*
X142182620Y-106373341D01*
X142214654Y-106368589D01*
X142247000Y-106367000D01*
X143237000Y-106367000D01*
X143269346Y-106368589D01*
X143269346Y-106368589D01*
G37*
D12*
X142742000Y-107442000D03*
G04 #@! TD*
D13*
G04 #@! TO.C,REF\002A\002A*
X173550000Y-78650000D03*
G04 #@! TD*
G04 #@! TO.C,REF\002A\002A*
X115550000Y-78650000D03*
G04 #@! TD*
G04 #@! TO.C,REF\002A\002A*
X173550000Y-127650000D03*
G04 #@! TD*
G04 #@! TO.C,REF\002A\002A*
X115550000Y-127650000D03*
G04 #@! TD*
D14*
G04 #@! TO.C,J3*
X168680000Y-126355000D03*
D15*
X168680000Y-128895000D03*
X166140000Y-126355000D03*
X166140000Y-128895000D03*
X163600000Y-126355000D03*
X163600000Y-128895000D03*
X161060000Y-126355000D03*
X161060000Y-128895000D03*
X158520000Y-126355000D03*
X158520000Y-128895000D03*
X155980000Y-126355000D03*
X155980000Y-128895000D03*
X153440000Y-126355000D03*
X153440000Y-128895000D03*
X150900000Y-126355000D03*
X150900000Y-128895000D03*
X148360000Y-126355000D03*
X148360000Y-128895000D03*
X145820000Y-126355000D03*
X145820000Y-128895000D03*
X143280000Y-126355000D03*
X143280000Y-128895000D03*
X140740000Y-126355000D03*
X140740000Y-128895000D03*
X138200000Y-126355000D03*
X138200000Y-128895000D03*
X135660000Y-126355000D03*
X135660000Y-128895000D03*
X133120000Y-126355000D03*
X133120000Y-128895000D03*
X130580000Y-126355000D03*
X130580000Y-128895000D03*
X128040000Y-126355000D03*
X128040000Y-128895000D03*
X125500000Y-126355000D03*
X125500000Y-128895000D03*
X122960000Y-126355000D03*
X122960000Y-128895000D03*
X120420000Y-126355000D03*
X120420000Y-128895000D03*
G04 #@! TD*
D16*
G04 #@! TO.C,IC1*
X127407598Y-112256534D03*
X127407598Y-111456534D03*
X127407598Y-110656534D03*
X127407598Y-109856534D03*
X127407598Y-109056534D03*
X127407598Y-108256534D03*
X127407598Y-107456534D03*
X127407598Y-106656534D03*
D17*
X125914998Y-105163934D03*
X125114998Y-105163934D03*
X124314998Y-105163934D03*
X123514998Y-105163934D03*
X122714998Y-105163934D03*
X121914998Y-105163934D03*
X121114998Y-105163934D03*
X120314998Y-105163934D03*
D16*
X118822398Y-106656534D03*
X118822398Y-107456534D03*
X118822398Y-108256534D03*
X118822398Y-109056534D03*
X118822398Y-109856534D03*
X118822398Y-110656534D03*
X118822398Y-111456534D03*
X118822398Y-112256534D03*
D17*
X120314998Y-113749134D03*
X121114998Y-113749134D03*
X121914998Y-113749134D03*
X122714998Y-113749134D03*
X123514998Y-113749134D03*
X124314998Y-113749134D03*
X125114998Y-113749134D03*
X125914998Y-113749134D03*
G04 #@! TD*
D18*
G04 #@! TO.C,U1*
X125692398Y-83286434D03*
X125692398Y-85286434D03*
X125692398Y-87286434D03*
X125692398Y-89286434D03*
X125692398Y-91286434D03*
X125692398Y-93286434D03*
X125692398Y-95286434D03*
X125692398Y-97286434D03*
X141692398Y-97286434D03*
X141692398Y-95286434D03*
X141692398Y-93286434D03*
X141692398Y-91286434D03*
X141692398Y-89286434D03*
X141692398Y-87286434D03*
X141692398Y-85286434D03*
X141692398Y-83286434D03*
G04 #@! TD*
D19*
G04 #@! TO.C,C4*
X115394000Y-109220000D03*
X117094000Y-109220000D03*
G04 #@! TD*
G04 #@! TO.C,C2*
X131064000Y-109982000D03*
X129364000Y-109982000D03*
G04 #@! TD*
G04 #@! TO.C,C3*
X117094000Y-107188000D03*
X115394000Y-107188000D03*
G04 #@! TD*
G04 #@! TO.C,C5*
X123371998Y-91262734D03*
X121671998Y-91262734D03*
G04 #@! TD*
D20*
G04 #@! TO.C,Q1*
X132829318Y-107432694D03*
X132829318Y-104932694D03*
G04 #@! TD*
D14*
G04 #@! TO.C,J1*
X155448000Y-100330000D03*
D15*
X157988000Y-100330000D03*
X160528000Y-100330000D03*
X163068000Y-100330000D03*
X165608000Y-100330000D03*
X168148000Y-100330000D03*
G04 #@! TD*
D14*
G04 #@! TO.C,J4*
X140448798Y-113349634D03*
D15*
X142988798Y-113349634D03*
X145528798Y-113349634D03*
X148068798Y-113349634D03*
X150608798Y-113349634D03*
X153148798Y-113349634D03*
X155688798Y-113349634D03*
X158228798Y-113349634D03*
X160768798Y-113349634D03*
X163308798Y-113349634D03*
X165848798Y-113349634D03*
X168388798Y-113349634D03*
G04 #@! TD*
D14*
G04 #@! TO.C,J2*
X149352000Y-103632000D03*
D15*
X146812000Y-103632000D03*
X149352000Y-101092000D03*
X146812000Y-101092000D03*
X149352000Y-98552000D03*
X146812000Y-98552000D03*
G04 #@! TD*
D21*
G04 #@! TO.C,R4*
X150290000Y-87122000D03*
X148590000Y-87122000D03*
G04 #@! TD*
D19*
G04 #@! TO.C,R5*
X162560000Y-120650000D03*
X162560000Y-122350000D03*
G04 #@! TD*
D22*
G04 #@! TO.C,U2*
X167960000Y-121270000D03*
X167960000Y-122570000D03*
X169860000Y-121920000D03*
X167960000Y-121920000D03*
X169860000Y-122570000D03*
X169860000Y-121270000D03*
G04 #@! TD*
D19*
G04 #@! TO.C,R15*
X148590000Y-120650000D03*
X148590000Y-122350000D03*
G04 #@! TD*
D21*
G04 #@! TO.C,C1*
X168910000Y-104990000D03*
X168910000Y-103290000D03*
G04 #@! TD*
D19*
G04 #@! TO.C,C7*
X145464000Y-89408000D03*
X143764000Y-89408000D03*
G04 #@! TD*
G04 #@! TO.C,C8*
X143764000Y-91186000D03*
X145464000Y-91186000D03*
G04 #@! TD*
G04 #@! TO.C,C9*
X143842000Y-87122000D03*
X145542000Y-87122000D03*
G04 #@! TD*
G04 #@! TO.C,C10*
X145464000Y-85324214D03*
X143764000Y-85324214D03*
G04 #@! TD*
G04 #@! TO.C,R1*
X166370000Y-104990000D03*
X166370000Y-103290000D03*
G04 #@! TD*
G04 #@! TO.C,R2*
X163068000Y-103290000D03*
X163068000Y-104990000D03*
G04 #@! TD*
G04 #@! TO.C,C11*
X132412000Y-102997000D03*
X134112000Y-102997000D03*
G04 #@! TD*
G04 #@! TO.C,C12*
X134415000Y-109220000D03*
X132715000Y-109220000D03*
G04 #@! TD*
D21*
G04 #@! TO.C,R9*
X148590000Y-85344000D03*
X150290000Y-85344000D03*
G04 #@! TD*
D19*
G04 #@! TO.C,R10*
X155956000Y-120650000D03*
X155956000Y-122350000D03*
G04 #@! TD*
G04 #@! TO.C,R12*
X159258000Y-120650000D03*
X159258000Y-122350000D03*
G04 #@! TD*
G04 #@! TO.C,R13*
X152400000Y-120650000D03*
X152400000Y-122350000D03*
G04 #@! TD*
G04 #@! TO.C,R14*
X142240000Y-122350000D03*
X142240000Y-120650000D03*
G04 #@! TD*
G04 #@! TO.C,R16*
X127762000Y-122096000D03*
X127762000Y-120396000D03*
G04 #@! TD*
G04 #@! TO.C,R17*
X121920000Y-122096000D03*
X121920000Y-120396000D03*
G04 #@! TD*
G04 #@! TO.C,R18*
X116586000Y-104570000D03*
X116586000Y-102870000D03*
G04 #@! TD*
D23*
G04 #@! TO.C,JP1*
X161036000Y-107688000D03*
D11*
G36*
X160367954Y-107288000D02*
X161704046Y-107288000D01*
X161570712Y-108088000D01*
X160501288Y-108088000D01*
X160367954Y-107288000D01*
X160367954Y-107288000D01*
G37*
D23*
X161036000Y-106688000D03*
D11*
G36*
X161704046Y-107088000D02*
X160367954Y-107088000D01*
X160501288Y-106288000D01*
X161570712Y-106288000D01*
X161704046Y-107088000D01*
X161704046Y-107088000D01*
G37*
G04 #@! TD*
D19*
G04 #@! TO.C,R3*
X157734000Y-104824000D03*
X157734000Y-103124000D03*
G04 #@! TD*
G04 #@! TO.C,C13*
X169760000Y-119380000D03*
X168060000Y-119380000D03*
G04 #@! TD*
G04 #@! TO.C,C14*
X171528000Y-122682000D03*
X173228000Y-122682000D03*
G04 #@! TD*
M02*
