M48
;DRILL file {KiCad 5.0.0} date Fri May 31 14:30:51 2019
;FORMAT={-:-/ absolute / metric / decimal}
FMAT,2
METRIC,TZ
T1C0.400
T2C0.500
T3C1.000
%
G90
G05
M71
T1
X114.3Y-107.188
X114.3Y-109.22
X115.57Y-87.63
X115.57Y-91.44
X115.57Y-96.52
X115.57Y-99.06
X118.11Y-87.63
X118.11Y-91.44
X118.11Y-96.52
X118.11Y-99.06
X118.364Y-115.062
X119.634Y-117.094
X119.634Y-119.888
X120.015Y-109.855
X120.396Y-91.186
X122.936Y-115.824
X123.444Y-111.252
X123.829Y-101.446
X123.952Y-85.598
X124.206Y-99.568
X124.814Y-101.823
X125.136Y-100.123
X126.238Y-109.093
X126.238Y-110.617
X126.389Y-102.261
X126.487Y-100.081
X127.503Y-102.865
X127.508Y-114.046
X128.016Y-99.314
X128.27Y-105.156
X128.524Y-102.87
X129.032Y-99.06
X129.54Y-102.87
X129.54Y-120.65
X129.588Y-116.347
X130.048Y-99.06
X130.539Y-121.157
X130.588Y-116.347
X131.539Y-121.191
X131.588Y-116.348
X132.08Y-110.744
X132.588Y-116.332
X132.588Y-120.142
X135.191Y-103.161
X135.509Y-109.22
X135.89Y-122.682
X136.144Y-100.33
X139.954Y-118.364
X141.224Y-107.442
X142.24Y-100.33
X143.51Y-83.82
X146.05Y-118.364
X146.554Y-91.173
X146.558Y-85.344
X146.558Y-87.122
X146.558Y-89.408
X149.606Y-107.188
X150.876Y-118.364
X151.13Y-117.348
X151.892Y-107.95
X151.892Y-111.506
X153.101Y-117.202
X153.67Y-118.618
X156.21Y-87.63
X156.21Y-90.17
X156.21Y-95.25
X157.226Y-107.442
X157.226Y-109.982
X157.734Y-105.918
X157.734Y-117.856
X158.242Y-107.95
X158.242Y-109.982
X158.75Y-87.63
X158.75Y-90.17
X158.75Y-95.25
X159.258Y-107.95
X159.258Y-109.982
X162.814Y-117.856
X163.83Y-87.63
X163.83Y-90.17
X163.83Y-95.25
X166.37Y-87.63
X166.37Y-90.17
X166.37Y-95.25
X166.624Y-118.364
X166.878Y-122.12
X167.894Y-117.094
X169.672Y-118.364
X170.936Y-121.583
T2
X128.053Y-80.499
T3
X155.448Y-100.33
X157.988Y-100.33
X160.528Y-100.33
X163.068Y-100.33
X165.608Y-100.33
X168.148Y-100.33
X140.449Y-113.35
X142.989Y-113.35
X145.529Y-113.35
X148.069Y-113.35
X150.609Y-113.35
X153.149Y-113.35
X155.689Y-113.35
X158.229Y-113.35
X160.769Y-113.35
X163.309Y-113.35
X165.849Y-113.35
X168.389Y-113.35
X120.42Y-126.355
X120.42Y-128.895
X122.96Y-126.355
X122.96Y-128.895
X125.5Y-126.355
X125.5Y-128.895
X128.04Y-126.355
X128.04Y-128.895
X130.58Y-126.355
X130.58Y-128.895
X133.12Y-126.355
X133.12Y-128.895
X135.66Y-126.355
X135.66Y-128.895
X138.2Y-126.355
X138.2Y-128.895
X140.74Y-126.355
X140.74Y-128.895
X143.28Y-126.355
X143.28Y-128.895
X145.82Y-126.355
X145.82Y-128.895
X148.36Y-126.355
X148.36Y-128.895
X150.9Y-126.355
X150.9Y-128.895
X153.44Y-126.355
X153.44Y-128.895
X155.98Y-126.355
X155.98Y-128.895
X158.52Y-126.355
X158.52Y-128.895
X161.06Y-126.355
X161.06Y-128.895
X163.6Y-126.355
X163.6Y-128.895
X166.14Y-126.355
X166.14Y-128.895
X168.68Y-126.355
X168.68Y-128.895
X146.812Y-98.552
X146.812Y-101.092
X146.812Y-103.632
X149.352Y-98.552
X149.352Y-101.092
X149.352Y-103.632
T0
M30
