G04 #@! TF.GenerationSoftware,KiCad,Pcbnew,5.0.0*
G04 #@! TF.CreationDate,2019-05-31T14:30:27+01:00*
G04 #@! TF.ProjectId,RRAT,525241542E6B696361645F7063620000,rev?*
G04 #@! TF.SameCoordinates,Original*
G04 #@! TF.FileFunction,Legend,Top*
G04 #@! TF.FilePolarity,Positive*
%FSLAX46Y46*%
G04 Gerber Fmt 4.6, Leading zero omitted, Abs format (unit mm)*
G04 Created by KiCad (PCBNEW 5.0.0) date Fri May 31 14:30:27 2019*
%MOMM*%
%LPD*%
G01*
G04 APERTURE LIST*
%ADD10C,0.076000*%
%ADD11C,0.080000*%
%ADD12C,0.150000*%
%ADD13C,0.250000*%
%ADD14C,0.120000*%
%ADD15C,0.152400*%
%ADD16C,0.203200*%
%ADD17C,0.127000*%
G04 APERTURE END LIST*
D10*
X145273904Y-78644333D02*
X145726285Y-78644333D01*
X145183428Y-78915761D02*
X145500095Y-77965761D01*
X145816761Y-78915761D01*
X146133428Y-78915761D02*
X146133428Y-77965761D01*
X146676285Y-78915761D01*
X146676285Y-77965761D01*
X146992952Y-77965761D02*
X147535809Y-77965761D01*
X147264380Y-78915761D02*
X147264380Y-77965761D01*
X148350095Y-78915761D02*
X147807238Y-78915761D01*
X148078666Y-78915761D02*
X148078666Y-77965761D01*
X147988190Y-78101476D01*
X147897714Y-78191952D01*
X147807238Y-78237190D01*
D11*
X140655931Y-116690729D02*
X140655931Y-116238348D01*
X140927359Y-116781205D02*
X139977359Y-116464538D01*
X140927359Y-116147872D01*
X140927359Y-115333586D02*
X140927359Y-115876443D01*
X140927359Y-115605014D02*
X139977359Y-115605014D01*
X140113074Y-115695491D01*
X140203550Y-115785967D01*
X140248788Y-115876443D01*
X157908571Y-119681219D02*
X157908571Y-119895505D01*
X157458571Y-119895505D01*
X157672857Y-119531219D02*
X157672857Y-119381219D01*
X157908571Y-119316934D02*
X157908571Y-119531219D01*
X157458571Y-119531219D01*
X157458571Y-119316934D01*
X157908571Y-119124076D02*
X157458571Y-119124076D01*
X157458571Y-119016934D01*
X157480000Y-118952648D01*
X157522857Y-118909791D01*
X157565714Y-118888362D01*
X157651428Y-118866934D01*
X157715714Y-118866934D01*
X157801428Y-118888362D01*
X157844285Y-118909791D01*
X157887142Y-118952648D01*
X157908571Y-119016934D01*
X157908571Y-119124076D01*
X157951428Y-118781219D02*
X157951428Y-118438362D01*
X157908571Y-118331219D02*
X157458571Y-118331219D01*
X157672857Y-118331219D02*
X157672857Y-118074076D01*
X157908571Y-118074076D02*
X157458571Y-118074076D01*
X157672857Y-117859791D02*
X157672857Y-117709791D01*
X157908571Y-117645505D02*
X157908571Y-117859791D01*
X157458571Y-117859791D01*
X157458571Y-117645505D01*
X157780000Y-117474076D02*
X157780000Y-117259791D01*
X157908571Y-117516934D02*
X157458571Y-117366934D01*
X157908571Y-117216934D01*
X157458571Y-117131219D02*
X157458571Y-116874076D01*
X157908571Y-117002648D02*
X157458571Y-117002648D01*
X157865714Y-116466934D02*
X157887142Y-116488362D01*
X157908571Y-116552648D01*
X157908571Y-116595505D01*
X157887142Y-116659791D01*
X157844285Y-116702648D01*
X157801428Y-116724076D01*
X157715714Y-116745505D01*
X157651428Y-116745505D01*
X157565714Y-116724076D01*
X157522857Y-116702648D01*
X157480000Y-116659791D01*
X157458571Y-116595505D01*
X157458571Y-116552648D01*
X157480000Y-116488362D01*
X157501428Y-116466934D01*
X157780000Y-116295505D02*
X157780000Y-116081219D01*
X157908571Y-116338362D02*
X157458571Y-116188362D01*
X157908571Y-116038362D01*
X157908571Y-115674076D02*
X157908571Y-115888362D01*
X157458571Y-115888362D01*
X157908571Y-115309791D02*
X157908571Y-115524076D01*
X157458571Y-115524076D01*
D12*
X128524000Y-79756000D02*
X128948198Y-78334134D01*
X129286000Y-80518000D02*
X127601998Y-79210434D01*
D13*
X130199142Y-78691276D02*
X130151523Y-78738895D01*
X130008666Y-78786514D01*
X129913428Y-78786514D01*
X129770571Y-78738895D01*
X129675333Y-78643657D01*
X129627714Y-78548419D01*
X129580095Y-78357943D01*
X129580095Y-78215086D01*
X129627714Y-78024610D01*
X129675333Y-77929372D01*
X129770571Y-77834134D01*
X129913428Y-77786514D01*
X130008666Y-77786514D01*
X130151523Y-77834134D01*
X130199142Y-77881753D01*
X131056285Y-78119848D02*
X131056285Y-78786514D01*
X130627714Y-78119848D02*
X130627714Y-78643657D01*
X130675333Y-78738895D01*
X130770571Y-78786514D01*
X130913428Y-78786514D01*
X131008666Y-78738895D01*
X131056285Y-78691276D01*
X131389619Y-78119848D02*
X131770571Y-78119848D01*
X131532476Y-77786514D02*
X131532476Y-78643657D01*
X131580095Y-78738895D01*
X131675333Y-78786514D01*
X131770571Y-78786514D01*
X132865809Y-78786514D02*
X132865809Y-78119848D01*
X132865809Y-78215086D02*
X132913428Y-78167467D01*
X133008666Y-78119848D01*
X133151523Y-78119848D01*
X133246761Y-78167467D01*
X133294380Y-78262705D01*
X133294380Y-78786514D01*
X133294380Y-78262705D02*
X133342000Y-78167467D01*
X133437238Y-78119848D01*
X133580095Y-78119848D01*
X133675333Y-78167467D01*
X133722952Y-78262705D01*
X133722952Y-78786514D01*
X134627714Y-78786514D02*
X134627714Y-78262705D01*
X134580095Y-78167467D01*
X134484857Y-78119848D01*
X134294380Y-78119848D01*
X134199142Y-78167467D01*
X134627714Y-78738895D02*
X134532476Y-78786514D01*
X134294380Y-78786514D01*
X134199142Y-78738895D01*
X134151523Y-78643657D01*
X134151523Y-78548419D01*
X134199142Y-78453181D01*
X134294380Y-78405562D01*
X134532476Y-78405562D01*
X134627714Y-78357943D01*
X135103904Y-78786514D02*
X135103904Y-78119848D01*
X135103904Y-78310324D02*
X135151523Y-78215086D01*
X135199142Y-78167467D01*
X135294380Y-78119848D01*
X135389619Y-78119848D01*
X135722952Y-78786514D02*
X135722952Y-77786514D01*
X135818190Y-78405562D02*
X136103904Y-78786514D01*
X136103904Y-78119848D02*
X135722952Y-78500800D01*
D11*
X144400000Y-99314000D02*
X144466666Y-99347333D01*
X144566666Y-99347333D01*
X144666666Y-99314000D01*
X144733333Y-99247333D01*
X144766666Y-99180666D01*
X144800000Y-99047333D01*
X144800000Y-98947333D01*
X144766666Y-98814000D01*
X144733333Y-98747333D01*
X144666666Y-98680666D01*
X144566666Y-98647333D01*
X144500000Y-98647333D01*
X144400000Y-98680666D01*
X144366666Y-98714000D01*
X144366666Y-98947333D01*
X144500000Y-98947333D01*
X144066666Y-98647333D02*
X144066666Y-99347333D01*
X143666666Y-98647333D01*
X143666666Y-99347333D01*
X143333333Y-98647333D02*
X143333333Y-99347333D01*
X143166666Y-99347333D01*
X143066666Y-99314000D01*
X143000000Y-99247333D01*
X142966666Y-99180666D01*
X142933333Y-99047333D01*
X142933333Y-98947333D01*
X142966666Y-98814000D01*
X143000000Y-98747333D01*
X143066666Y-98680666D01*
X143166666Y-98647333D01*
X143333333Y-98647333D01*
X154964571Y-96885238D02*
X155281238Y-97337619D01*
X155507428Y-96885238D02*
X155507428Y-97835238D01*
X155145523Y-97835238D01*
X155055047Y-97790000D01*
X155009809Y-97744761D01*
X154964571Y-97654285D01*
X154964571Y-97518571D01*
X155009809Y-97428095D01*
X155055047Y-97382857D01*
X155145523Y-97337619D01*
X155507428Y-97337619D01*
X154557428Y-97382857D02*
X154240761Y-97382857D01*
X154105047Y-96885238D02*
X154557428Y-96885238D01*
X154557428Y-97835238D01*
X154105047Y-97835238D01*
X153743142Y-96930476D02*
X153607428Y-96885238D01*
X153381238Y-96885238D01*
X153290761Y-96930476D01*
X153245523Y-96975714D01*
X153200285Y-97066190D01*
X153200285Y-97156666D01*
X153245523Y-97247142D01*
X153290761Y-97292380D01*
X153381238Y-97337619D01*
X153562190Y-97382857D01*
X153652666Y-97428095D01*
X153697904Y-97473333D01*
X153743142Y-97563809D01*
X153743142Y-97654285D01*
X153697904Y-97744761D01*
X153652666Y-97790000D01*
X153562190Y-97835238D01*
X153336000Y-97835238D01*
X153200285Y-97790000D01*
X152793142Y-97382857D02*
X152476476Y-97382857D01*
X152340761Y-96885238D02*
X152793142Y-96885238D01*
X152793142Y-97835238D01*
X152340761Y-97835238D01*
X152069333Y-97835238D02*
X151526476Y-97835238D01*
X151797904Y-96885238D02*
X151797904Y-97835238D01*
X153297809Y-100740476D02*
X153162095Y-100695238D01*
X152935904Y-100695238D01*
X152845428Y-100740476D01*
X152800190Y-100785714D01*
X152754952Y-100876190D01*
X152754952Y-100966666D01*
X152800190Y-101057142D01*
X152845428Y-101102380D01*
X152935904Y-101147619D01*
X153116857Y-101192857D01*
X153207333Y-101238095D01*
X153252571Y-101283333D01*
X153297809Y-101373809D01*
X153297809Y-101464285D01*
X153252571Y-101554761D01*
X153207333Y-101600000D01*
X153116857Y-101645238D01*
X152890666Y-101645238D01*
X152754952Y-101600000D01*
X151804952Y-100785714D02*
X151850190Y-100740476D01*
X151985904Y-100695238D01*
X152076380Y-100695238D01*
X152212095Y-100740476D01*
X152302571Y-100830952D01*
X152347809Y-100921428D01*
X152393047Y-101102380D01*
X152393047Y-101238095D01*
X152347809Y-101419047D01*
X152302571Y-101509523D01*
X152212095Y-101600000D01*
X152076380Y-101645238D01*
X151985904Y-101645238D01*
X151850190Y-101600000D01*
X151804952Y-101554761D01*
X151397809Y-100695238D02*
X151397809Y-101645238D01*
X150854952Y-100695238D02*
X151262095Y-101238095D01*
X150854952Y-101645238D02*
X151397809Y-101102380D01*
X154647904Y-103235238D02*
X154647904Y-104185238D01*
X154331238Y-103506666D01*
X154014571Y-104185238D01*
X154014571Y-103235238D01*
X153562190Y-103235238D02*
X153562190Y-104185238D01*
X153155047Y-103280476D02*
X153019333Y-103235238D01*
X152793142Y-103235238D01*
X152702666Y-103280476D01*
X152657428Y-103325714D01*
X152612190Y-103416190D01*
X152612190Y-103506666D01*
X152657428Y-103597142D01*
X152702666Y-103642380D01*
X152793142Y-103687619D01*
X152974095Y-103732857D01*
X153064571Y-103778095D01*
X153109809Y-103823333D01*
X153155047Y-103913809D01*
X153155047Y-104004285D01*
X153109809Y-104094761D01*
X153064571Y-104140000D01*
X152974095Y-104185238D01*
X152747904Y-104185238D01*
X152612190Y-104140000D01*
X152024095Y-104185238D02*
X151843142Y-104185238D01*
X151752666Y-104140000D01*
X151662190Y-104049523D01*
X151616952Y-103868571D01*
X151616952Y-103551904D01*
X151662190Y-103370952D01*
X151752666Y-103280476D01*
X151843142Y-103235238D01*
X152024095Y-103235238D01*
X152114571Y-103280476D01*
X152205047Y-103370952D01*
X152250285Y-103551904D01*
X152250285Y-103868571D01*
X152205047Y-104049523D01*
X152114571Y-104140000D01*
X152024095Y-104185238D01*
X144660380Y-100711047D02*
X144660380Y-101111047D01*
X144527047Y-100825333D01*
X144393714Y-101111047D01*
X144393714Y-100711047D01*
X144127047Y-101111047D02*
X144050857Y-101111047D01*
X144012761Y-101092000D01*
X143974666Y-101053904D01*
X143955619Y-100977714D01*
X143955619Y-100844380D01*
X143974666Y-100768190D01*
X144012761Y-100730095D01*
X144050857Y-100711047D01*
X144127047Y-100711047D01*
X144165142Y-100730095D01*
X144203238Y-100768190D01*
X144222285Y-100844380D01*
X144222285Y-100977714D01*
X144203238Y-101053904D01*
X144165142Y-101092000D01*
X144127047Y-101111047D01*
X143803238Y-100730095D02*
X143746095Y-100711047D01*
X143650857Y-100711047D01*
X143612761Y-100730095D01*
X143593714Y-100749142D01*
X143574666Y-100787238D01*
X143574666Y-100825333D01*
X143593714Y-100863428D01*
X143612761Y-100882476D01*
X143650857Y-100901523D01*
X143727047Y-100920571D01*
X143765142Y-100939619D01*
X143784190Y-100958666D01*
X143803238Y-100996761D01*
X143803238Y-101034857D01*
X143784190Y-101072952D01*
X143765142Y-101092000D01*
X143727047Y-101111047D01*
X143631809Y-101111047D01*
X143574666Y-101092000D01*
X143403238Y-100711047D02*
X143403238Y-101111047D01*
X143221331Y-116855829D02*
X143221331Y-116403448D01*
X143492759Y-116946305D02*
X142542759Y-116629638D01*
X143492759Y-116312972D01*
X142633236Y-116041543D02*
X142587998Y-115996305D01*
X142542759Y-115905829D01*
X142542759Y-115679638D01*
X142587998Y-115589162D01*
X142633236Y-115543924D01*
X142723712Y-115498686D01*
X142814188Y-115498686D01*
X142949902Y-115543924D01*
X143492759Y-116086781D01*
X143492759Y-115498686D01*
X145608931Y-116855829D02*
X145608931Y-116403448D01*
X145880359Y-116946305D02*
X144930359Y-116629638D01*
X145880359Y-116312972D01*
X144930359Y-116086781D02*
X144930359Y-115498686D01*
X145292264Y-115815353D01*
X145292264Y-115679638D01*
X145337502Y-115589162D01*
X145382740Y-115543924D01*
X145473217Y-115498686D01*
X145699407Y-115498686D01*
X145789883Y-115543924D01*
X145835121Y-115589162D01*
X145880359Y-115679638D01*
X145880359Y-115951067D01*
X145835121Y-116041543D01*
X145789883Y-116086781D01*
X150688931Y-116855829D02*
X150688931Y-116403448D01*
X150960359Y-116946305D02*
X150010359Y-116629638D01*
X150960359Y-116312972D01*
X150010359Y-116086781D02*
X150010359Y-115453448D01*
X150960359Y-115860591D01*
X148136231Y-116855829D02*
X148136231Y-116403448D01*
X148407659Y-116946305D02*
X147457659Y-116629638D01*
X148407659Y-116312972D01*
X147457659Y-115589162D02*
X147457659Y-115770114D01*
X147502898Y-115860591D01*
X147548136Y-115905829D01*
X147683850Y-115996305D01*
X147864802Y-116041543D01*
X148226707Y-116041543D01*
X148317183Y-115996305D01*
X148362421Y-115951067D01*
X148407659Y-115860591D01*
X148407659Y-115679638D01*
X148362421Y-115589162D01*
X148317183Y-115543924D01*
X148226707Y-115498686D01*
X148000517Y-115498686D01*
X147910040Y-115543924D01*
X147864802Y-115589162D01*
X147819564Y-115679638D01*
X147819564Y-115860591D01*
X147864802Y-115951067D01*
X147910040Y-115996305D01*
X148000517Y-116041543D01*
X153474959Y-116946305D02*
X152524959Y-116946305D01*
X152524959Y-116720114D01*
X152570198Y-116584400D01*
X152660674Y-116493924D01*
X152751150Y-116448686D01*
X152932102Y-116403448D01*
X153067817Y-116403448D01*
X153248769Y-116448686D01*
X153339245Y-116493924D01*
X153429721Y-116584400D01*
X153474959Y-116720114D01*
X153474959Y-116946305D01*
X152524959Y-116086781D02*
X152524959Y-115498686D01*
X152886864Y-115815353D01*
X152886864Y-115679638D01*
X152932102Y-115589162D01*
X152977340Y-115543924D01*
X153067817Y-115498686D01*
X153294007Y-115498686D01*
X153384483Y-115543924D01*
X153429721Y-115589162D01*
X153474959Y-115679638D01*
X153474959Y-115951067D01*
X153429721Y-116041543D01*
X153384483Y-116086781D01*
X161260059Y-117060605D02*
X160310059Y-117060605D01*
X160310059Y-116834414D01*
X160355298Y-116698700D01*
X160445774Y-116608224D01*
X160536250Y-116562986D01*
X160717202Y-116517748D01*
X160852917Y-116517748D01*
X161033869Y-116562986D01*
X161124345Y-116608224D01*
X161214821Y-116698700D01*
X161260059Y-116834414D01*
X161260059Y-117060605D01*
X160310059Y-116201081D02*
X160310059Y-115567748D01*
X161260059Y-115974891D01*
X156307059Y-116895505D02*
X155357059Y-116895505D01*
X155357059Y-116669314D01*
X155402298Y-116533600D01*
X155492774Y-116443124D01*
X155583250Y-116397886D01*
X155764202Y-116352648D01*
X155899917Y-116352648D01*
X156080869Y-116397886D01*
X156171345Y-116443124D01*
X156261821Y-116533600D01*
X156307059Y-116669314D01*
X156307059Y-116895505D01*
X155357059Y-115493124D02*
X155357059Y-115945505D01*
X155809440Y-115990743D01*
X155764202Y-115945505D01*
X155718964Y-115855029D01*
X155718964Y-115628838D01*
X155764202Y-115538362D01*
X155809440Y-115493124D01*
X155899917Y-115447886D01*
X156126107Y-115447886D01*
X156216583Y-115493124D01*
X156261821Y-115538362D01*
X156307059Y-115628838D01*
X156307059Y-115855029D01*
X156261821Y-115945505D01*
X156216583Y-115990743D01*
X165390059Y-118055843D02*
X166340059Y-117739176D01*
X165390059Y-117422510D01*
X166249583Y-116562986D02*
X166294821Y-116608224D01*
X166340059Y-116743938D01*
X166340059Y-116834414D01*
X166294821Y-116970129D01*
X166204345Y-117060605D01*
X166113869Y-117105843D01*
X165932917Y-117151081D01*
X165797202Y-117151081D01*
X165616250Y-117105843D01*
X165525774Y-117060605D01*
X165435298Y-116970129D01*
X165390059Y-116834414D01*
X165390059Y-116743938D01*
X165435298Y-116608224D01*
X165480536Y-116562986D01*
X166249583Y-115612986D02*
X166294821Y-115658224D01*
X166340059Y-115793938D01*
X166340059Y-115884414D01*
X166294821Y-116020129D01*
X166204345Y-116110605D01*
X166113869Y-116155843D01*
X165932917Y-116201081D01*
X165797202Y-116201081D01*
X165616250Y-116155843D01*
X165525774Y-116110605D01*
X165435298Y-116020129D01*
X165390059Y-115884414D01*
X165390059Y-115793938D01*
X165435298Y-115658224D01*
X165480536Y-115612986D01*
X163787359Y-117060605D02*
X162837359Y-117060605D01*
X162837359Y-116834414D01*
X162882598Y-116698700D01*
X162973074Y-116608224D01*
X163063550Y-116562986D01*
X163244502Y-116517748D01*
X163380217Y-116517748D01*
X163561169Y-116562986D01*
X163651645Y-116608224D01*
X163742121Y-116698700D01*
X163787359Y-116834414D01*
X163787359Y-117060605D01*
X162927836Y-116155843D02*
X162882598Y-116110605D01*
X162837359Y-116020129D01*
X162837359Y-115793938D01*
X162882598Y-115703462D01*
X162927836Y-115658224D01*
X163018312Y-115612986D01*
X163108788Y-115612986D01*
X163244502Y-115658224D01*
X163787359Y-116201081D01*
X163787359Y-115612986D01*
X168656000Y-117285428D02*
X168610761Y-117375904D01*
X168610761Y-117511619D01*
X168656000Y-117647333D01*
X168746476Y-117737809D01*
X168836952Y-117783047D01*
X169017904Y-117828285D01*
X169153619Y-117828285D01*
X169334571Y-117783047D01*
X169425047Y-117737809D01*
X169515523Y-117647333D01*
X169560761Y-117511619D01*
X169560761Y-117421142D01*
X169515523Y-117285428D01*
X169470285Y-117240190D01*
X169153619Y-117240190D01*
X169153619Y-117421142D01*
X169560761Y-116833047D02*
X168610761Y-116833047D01*
X169560761Y-116290190D01*
X168610761Y-116290190D01*
X169560761Y-115837809D02*
X168610761Y-115837809D01*
X168610761Y-115611619D01*
X168656000Y-115475904D01*
X168746476Y-115385428D01*
X168836952Y-115340190D01*
X169017904Y-115294952D01*
X169153619Y-115294952D01*
X169334571Y-115340190D01*
X169425047Y-115385428D01*
X169515523Y-115475904D01*
X169560761Y-115611619D01*
X169560761Y-115837809D01*
X155300698Y-110186662D02*
X155255459Y-110277138D01*
X155255459Y-110412853D01*
X155300698Y-110548567D01*
X155391174Y-110639043D01*
X155481650Y-110684281D01*
X155662602Y-110729519D01*
X155798317Y-110729519D01*
X155979269Y-110684281D01*
X156069745Y-110639043D01*
X156160221Y-110548567D01*
X156205459Y-110412853D01*
X156205459Y-110322376D01*
X156160221Y-110186662D01*
X156114983Y-110141424D01*
X155798317Y-110141424D01*
X155798317Y-110322376D01*
X156205459Y-109734281D02*
X155255459Y-109734281D01*
X156205459Y-109191424D01*
X155255459Y-109191424D01*
X156205459Y-108739043D02*
X155255459Y-108739043D01*
X155255459Y-108512853D01*
X155300698Y-108377138D01*
X155391174Y-108286662D01*
X155481650Y-108241424D01*
X155662602Y-108196186D01*
X155798317Y-108196186D01*
X155979269Y-108241424D01*
X156069745Y-108286662D01*
X156160221Y-108377138D01*
X156205459Y-108512853D01*
X156205459Y-108739043D01*
X160204761Y-98125809D02*
X161154761Y-97809142D01*
X160204761Y-97492476D01*
X161064285Y-96632952D02*
X161109523Y-96678190D01*
X161154761Y-96813904D01*
X161154761Y-96904380D01*
X161109523Y-97040095D01*
X161019047Y-97130571D01*
X160928571Y-97175809D01*
X160747619Y-97221047D01*
X160611904Y-97221047D01*
X160430952Y-97175809D01*
X160340476Y-97130571D01*
X160250000Y-97040095D01*
X160204761Y-96904380D01*
X160204761Y-96813904D01*
X160250000Y-96678190D01*
X160295238Y-96632952D01*
X161064285Y-95682952D02*
X161109523Y-95728190D01*
X161154761Y-95863904D01*
X161154761Y-95954380D01*
X161109523Y-96090095D01*
X161019047Y-96180571D01*
X160928571Y-96225809D01*
X160747619Y-96271047D01*
X160611904Y-96271047D01*
X160430952Y-96225809D01*
X160340476Y-96180571D01*
X160250000Y-96090095D01*
X160204761Y-95954380D01*
X160204761Y-95863904D01*
X160250000Y-95728190D01*
X160295238Y-95682952D01*
X162629761Y-98165095D02*
X162629761Y-97622238D01*
X163579761Y-97893666D02*
X162629761Y-97893666D01*
X162629761Y-97396047D02*
X163579761Y-96762714D01*
X162629761Y-96762714D02*
X163579761Y-97396047D01*
X166279761Y-97587714D02*
X165827380Y-97904380D01*
X166279761Y-98130571D02*
X165329761Y-98130571D01*
X165329761Y-97768666D01*
X165375000Y-97678190D01*
X165420238Y-97632952D01*
X165510714Y-97587714D01*
X165646428Y-97587714D01*
X165736904Y-97632952D01*
X165782142Y-97678190D01*
X165827380Y-97768666D01*
X165827380Y-98130571D01*
X165329761Y-97271047D02*
X166279761Y-96637714D01*
X165329761Y-96637714D02*
X166279761Y-97271047D01*
X168636904Y-97748428D02*
X168255952Y-98015095D01*
X168636904Y-98205571D02*
X167836904Y-98205571D01*
X167836904Y-97900809D01*
X167875000Y-97824619D01*
X167913095Y-97786523D01*
X167989285Y-97748428D01*
X168103571Y-97748428D01*
X168179761Y-97786523D01*
X168217857Y-97824619D01*
X168255952Y-97900809D01*
X168255952Y-98205571D01*
X168217857Y-97405571D02*
X168217857Y-97138904D01*
X168636904Y-97024619D02*
X168636904Y-97405571D01*
X167836904Y-97405571D01*
X167836904Y-97024619D01*
X168598809Y-96719857D02*
X168636904Y-96605571D01*
X168636904Y-96415095D01*
X168598809Y-96338904D01*
X168560714Y-96300809D01*
X168484523Y-96262714D01*
X168408333Y-96262714D01*
X168332142Y-96300809D01*
X168294047Y-96338904D01*
X168255952Y-96415095D01*
X168217857Y-96567476D01*
X168179761Y-96643666D01*
X168141666Y-96681761D01*
X168065476Y-96719857D01*
X167989285Y-96719857D01*
X167913095Y-96681761D01*
X167875000Y-96643666D01*
X167836904Y-96567476D01*
X167836904Y-96377000D01*
X167875000Y-96262714D01*
X168217857Y-95919857D02*
X168217857Y-95653190D01*
X168636904Y-95538904D02*
X168636904Y-95919857D01*
X167836904Y-95919857D01*
X167836904Y-95538904D01*
X167836904Y-95310333D02*
X167836904Y-94853190D01*
X168636904Y-95081761D02*
X167836904Y-95081761D01*
X157990857Y-87421238D02*
X158036095Y-87376000D01*
X158126571Y-87330761D01*
X158352761Y-87330761D01*
X158443238Y-87376000D01*
X158488476Y-87421238D01*
X158533714Y-87511714D01*
X158533714Y-87602190D01*
X158488476Y-87737904D01*
X157945619Y-88280761D01*
X158533714Y-88280761D01*
X159121809Y-87330761D02*
X159212285Y-87330761D01*
X159302761Y-87376000D01*
X159348000Y-87421238D01*
X159393238Y-87511714D01*
X159438476Y-87692666D01*
X159438476Y-87918857D01*
X159393238Y-88099809D01*
X159348000Y-88190285D01*
X159302761Y-88235523D01*
X159212285Y-88280761D01*
X159121809Y-88280761D01*
X159031333Y-88235523D01*
X158986095Y-88190285D01*
X158940857Y-88099809D01*
X158895619Y-87918857D01*
X158895619Y-87692666D01*
X158940857Y-87511714D01*
X158986095Y-87421238D01*
X159031333Y-87376000D01*
X159121809Y-87330761D01*
X160343238Y-88280761D02*
X159800380Y-88280761D01*
X160071809Y-88280761D02*
X160071809Y-87330761D01*
X159981333Y-87466476D01*
X159890857Y-87556952D01*
X159800380Y-87602190D01*
X160795619Y-88280761D02*
X160976571Y-88280761D01*
X161067047Y-88235523D01*
X161112285Y-88190285D01*
X161202761Y-88054571D01*
X161248000Y-87873619D01*
X161248000Y-87511714D01*
X161202761Y-87421238D01*
X161157523Y-87376000D01*
X161067047Y-87330761D01*
X160886095Y-87330761D01*
X160795619Y-87376000D01*
X160750380Y-87421238D01*
X160705142Y-87511714D01*
X160705142Y-87737904D01*
X160750380Y-87828380D01*
X160795619Y-87873619D01*
X160886095Y-87918857D01*
X161067047Y-87918857D01*
X161157523Y-87873619D01*
X161202761Y-87828380D01*
X161248000Y-87737904D01*
X161836095Y-87330761D02*
X161926571Y-87330761D01*
X162017047Y-87376000D01*
X162062285Y-87421238D01*
X162107523Y-87511714D01*
X162152761Y-87692666D01*
X162152761Y-87918857D01*
X162107523Y-88099809D01*
X162062285Y-88190285D01*
X162017047Y-88235523D01*
X161926571Y-88280761D01*
X161836095Y-88280761D01*
X161745619Y-88235523D01*
X161700380Y-88190285D01*
X161655142Y-88099809D01*
X161609904Y-87918857D01*
X161609904Y-87692666D01*
X161655142Y-87511714D01*
X161700380Y-87421238D01*
X161745619Y-87376000D01*
X161836095Y-87330761D01*
X163012285Y-87330761D02*
X162559904Y-87330761D01*
X162514666Y-87783142D01*
X162559904Y-87737904D01*
X162650380Y-87692666D01*
X162876571Y-87692666D01*
X162967047Y-87737904D01*
X163012285Y-87783142D01*
X163057523Y-87873619D01*
X163057523Y-88099809D01*
X163012285Y-88190285D01*
X162967047Y-88235523D01*
X162876571Y-88280761D01*
X162650380Y-88280761D01*
X162559904Y-88235523D01*
X162514666Y-88190285D01*
X163374190Y-87330761D02*
X163962285Y-87330761D01*
X163645619Y-87692666D01*
X163781333Y-87692666D01*
X163871809Y-87737904D01*
X163917047Y-87783142D01*
X163962285Y-87873619D01*
X163962285Y-88099809D01*
X163917047Y-88190285D01*
X163871809Y-88235523D01*
X163781333Y-88280761D01*
X163509904Y-88280761D01*
X163419428Y-88235523D01*
X163374190Y-88190285D01*
X164550380Y-87330761D02*
X164640857Y-87330761D01*
X164731333Y-87376000D01*
X164776571Y-87421238D01*
X164821809Y-87511714D01*
X164867047Y-87692666D01*
X164867047Y-87918857D01*
X164821809Y-88099809D01*
X164776571Y-88190285D01*
X164731333Y-88235523D01*
X164640857Y-88280761D01*
X164550380Y-88280761D01*
X164459904Y-88235523D01*
X164414666Y-88190285D01*
X164369428Y-88099809D01*
X164324190Y-87918857D01*
X164324190Y-87692666D01*
X164369428Y-87511714D01*
X164414666Y-87421238D01*
X164459904Y-87376000D01*
X164550380Y-87330761D01*
X158555047Y-84211285D02*
X158509809Y-84256523D01*
X158374095Y-84301761D01*
X158283619Y-84301761D01*
X158147904Y-84256523D01*
X158057428Y-84166047D01*
X158012190Y-84075571D01*
X157966952Y-83894619D01*
X157966952Y-83758904D01*
X158012190Y-83577952D01*
X158057428Y-83487476D01*
X158147904Y-83397000D01*
X158283619Y-83351761D01*
X158374095Y-83351761D01*
X158509809Y-83397000D01*
X158555047Y-83442238D01*
X159097904Y-84301761D02*
X159007428Y-84256523D01*
X158962190Y-84211285D01*
X158916952Y-84120809D01*
X158916952Y-83849380D01*
X158962190Y-83758904D01*
X159007428Y-83713666D01*
X159097904Y-83668428D01*
X159233619Y-83668428D01*
X159324095Y-83713666D01*
X159369333Y-83758904D01*
X159414571Y-83849380D01*
X159414571Y-84120809D01*
X159369333Y-84211285D01*
X159324095Y-84256523D01*
X159233619Y-84301761D01*
X159097904Y-84301761D01*
X159821714Y-83668428D02*
X159821714Y-84618428D01*
X159821714Y-83713666D02*
X159912190Y-83668428D01*
X160093142Y-83668428D01*
X160183619Y-83713666D01*
X160228857Y-83758904D01*
X160274095Y-83849380D01*
X160274095Y-84120809D01*
X160228857Y-84211285D01*
X160183619Y-84256523D01*
X160093142Y-84301761D01*
X159912190Y-84301761D01*
X159821714Y-84256523D01*
X160590761Y-83668428D02*
X160816952Y-84301761D01*
X161043142Y-83668428D02*
X160816952Y-84301761D01*
X160726476Y-84527952D01*
X160681238Y-84573190D01*
X160590761Y-84618428D01*
X161405047Y-84301761D02*
X161405047Y-83668428D01*
X161405047Y-83849380D02*
X161450285Y-83758904D01*
X161495523Y-83713666D01*
X161586000Y-83668428D01*
X161676476Y-83668428D01*
X161993142Y-84301761D02*
X161993142Y-83668428D01*
X161993142Y-83351761D02*
X161947904Y-83397000D01*
X161993142Y-83442238D01*
X162038380Y-83397000D01*
X161993142Y-83351761D01*
X161993142Y-83442238D01*
X162852666Y-83668428D02*
X162852666Y-84437476D01*
X162807428Y-84527952D01*
X162762190Y-84573190D01*
X162671714Y-84618428D01*
X162536000Y-84618428D01*
X162445523Y-84573190D01*
X162852666Y-84256523D02*
X162762190Y-84301761D01*
X162581238Y-84301761D01*
X162490761Y-84256523D01*
X162445523Y-84211285D01*
X162400285Y-84120809D01*
X162400285Y-83849380D01*
X162445523Y-83758904D01*
X162490761Y-83713666D01*
X162581238Y-83668428D01*
X162762190Y-83668428D01*
X162852666Y-83713666D01*
X163305047Y-84301761D02*
X163305047Y-83351761D01*
X163712190Y-84301761D02*
X163712190Y-83804142D01*
X163666952Y-83713666D01*
X163576476Y-83668428D01*
X163440761Y-83668428D01*
X163350285Y-83713666D01*
X163305047Y-83758904D01*
X164028857Y-83668428D02*
X164390761Y-83668428D01*
X164164571Y-83351761D02*
X164164571Y-84166047D01*
X164209809Y-84256523D01*
X164300285Y-84301761D01*
X164390761Y-84301761D01*
X165386000Y-83442238D02*
X165431238Y-83397000D01*
X165521714Y-83351761D01*
X165747904Y-83351761D01*
X165838380Y-83397000D01*
X165883619Y-83442238D01*
X165928857Y-83532714D01*
X165928857Y-83623190D01*
X165883619Y-83758904D01*
X165340761Y-84301761D01*
X165928857Y-84301761D01*
X166516952Y-83351761D02*
X166607428Y-83351761D01*
X166697904Y-83397000D01*
X166743142Y-83442238D01*
X166788380Y-83532714D01*
X166833619Y-83713666D01*
X166833619Y-83939857D01*
X166788380Y-84120809D01*
X166743142Y-84211285D01*
X166697904Y-84256523D01*
X166607428Y-84301761D01*
X166516952Y-84301761D01*
X166426476Y-84256523D01*
X166381238Y-84211285D01*
X166336000Y-84120809D01*
X166290761Y-83939857D01*
X166290761Y-83713666D01*
X166336000Y-83532714D01*
X166381238Y-83442238D01*
X166426476Y-83397000D01*
X166516952Y-83351761D01*
X167738380Y-84301761D02*
X167195523Y-84301761D01*
X167466952Y-84301761D02*
X167466952Y-83351761D01*
X167376476Y-83487476D01*
X167286000Y-83577952D01*
X167195523Y-83623190D01*
X168190761Y-84301761D02*
X168371714Y-84301761D01*
X168462190Y-84256523D01*
X168507428Y-84211285D01*
X168597904Y-84075571D01*
X168643142Y-83894619D01*
X168643142Y-83532714D01*
X168597904Y-83442238D01*
X168552666Y-83397000D01*
X168462190Y-83351761D01*
X168281238Y-83351761D01*
X168190761Y-83397000D01*
X168145523Y-83442238D01*
X168100285Y-83532714D01*
X168100285Y-83758904D01*
X168145523Y-83849380D01*
X168190761Y-83894619D01*
X168281238Y-83939857D01*
X168462190Y-83939857D01*
X168552666Y-83894619D01*
X168597904Y-83849380D01*
X168643142Y-83758904D01*
X158193142Y-84856761D02*
X158374095Y-84856761D01*
X158464571Y-84902000D01*
X158555047Y-84992476D01*
X158600285Y-85173428D01*
X158600285Y-85490095D01*
X158555047Y-85671047D01*
X158464571Y-85761523D01*
X158374095Y-85806761D01*
X158193142Y-85806761D01*
X158102666Y-85761523D01*
X158012190Y-85671047D01*
X157966952Y-85490095D01*
X157966952Y-85173428D01*
X158012190Y-84992476D01*
X158102666Y-84902000D01*
X158193142Y-84856761D01*
X159007428Y-85173428D02*
X159007428Y-86123428D01*
X159007428Y-85218666D02*
X159097904Y-85173428D01*
X159278857Y-85173428D01*
X159369333Y-85218666D01*
X159414571Y-85263904D01*
X159459809Y-85354380D01*
X159459809Y-85625809D01*
X159414571Y-85716285D01*
X159369333Y-85761523D01*
X159278857Y-85806761D01*
X159097904Y-85806761D01*
X159007428Y-85761523D01*
X160228857Y-85761523D02*
X160138380Y-85806761D01*
X159957428Y-85806761D01*
X159866952Y-85761523D01*
X159821714Y-85671047D01*
X159821714Y-85309142D01*
X159866952Y-85218666D01*
X159957428Y-85173428D01*
X160138380Y-85173428D01*
X160228857Y-85218666D01*
X160274095Y-85309142D01*
X160274095Y-85399619D01*
X159821714Y-85490095D01*
X160681238Y-85173428D02*
X160681238Y-85806761D01*
X160681238Y-85263904D02*
X160726476Y-85218666D01*
X160816952Y-85173428D01*
X160952666Y-85173428D01*
X161043142Y-85218666D01*
X161088380Y-85309142D01*
X161088380Y-85806761D01*
X161405047Y-84856761D02*
X161947904Y-84856761D01*
X161676476Y-85806761D02*
X161676476Y-84856761D01*
X162807428Y-85806761D02*
X162490761Y-85354380D01*
X162264571Y-85806761D02*
X162264571Y-84856761D01*
X162626476Y-84856761D01*
X162716952Y-84902000D01*
X162762190Y-84947238D01*
X162807428Y-85037714D01*
X162807428Y-85173428D01*
X162762190Y-85263904D01*
X162716952Y-85309142D01*
X162626476Y-85354380D01*
X162264571Y-85354380D01*
X163078857Y-84856761D02*
X163395523Y-85806761D01*
X163712190Y-84856761D01*
X164028857Y-85716285D02*
X164074095Y-85761523D01*
X164028857Y-85806761D01*
X163983619Y-85761523D01*
X164028857Y-85716285D01*
X164028857Y-85806761D01*
X164616952Y-85806761D02*
X164526476Y-85761523D01*
X164481238Y-85716285D01*
X164436000Y-85625809D01*
X164436000Y-85354380D01*
X164481238Y-85263904D01*
X164526476Y-85218666D01*
X164616952Y-85173428D01*
X164752666Y-85173428D01*
X164843142Y-85218666D01*
X164888380Y-85263904D01*
X164933619Y-85354380D01*
X164933619Y-85625809D01*
X164888380Y-85716285D01*
X164843142Y-85761523D01*
X164752666Y-85806761D01*
X164616952Y-85806761D01*
X165340761Y-85806761D02*
X165340761Y-85173428D01*
X165340761Y-85354380D02*
X165386000Y-85263904D01*
X165431238Y-85218666D01*
X165521714Y-85173428D01*
X165612190Y-85173428D01*
X166336000Y-85173428D02*
X166336000Y-85942476D01*
X166290761Y-86032952D01*
X166245523Y-86078190D01*
X166155047Y-86123428D01*
X166019333Y-86123428D01*
X165928857Y-86078190D01*
X166336000Y-85761523D02*
X166245523Y-85806761D01*
X166064571Y-85806761D01*
X165974095Y-85761523D01*
X165928857Y-85716285D01*
X165883619Y-85625809D01*
X165883619Y-85354380D01*
X165928857Y-85263904D01*
X165974095Y-85218666D01*
X166064571Y-85173428D01*
X166245523Y-85173428D01*
X166336000Y-85218666D01*
X166788380Y-85716285D02*
X166833619Y-85761523D01*
X166788380Y-85806761D01*
X166743142Y-85761523D01*
X166788380Y-85716285D01*
X166788380Y-85806761D01*
X167647904Y-85173428D02*
X167647904Y-85806761D01*
X167240761Y-85173428D02*
X167240761Y-85671047D01*
X167286000Y-85761523D01*
X167376476Y-85806761D01*
X167512190Y-85806761D01*
X167602666Y-85761523D01*
X167647904Y-85716285D01*
X168100285Y-85806761D02*
X168100285Y-84856761D01*
X168190761Y-85444857D02*
X168462190Y-85806761D01*
X168462190Y-85173428D02*
X168100285Y-85535333D01*
D14*
G04 #@! TO.C,C6*
X144744064Y-108352000D02*
X143539936Y-108352000D01*
X144744064Y-106532000D02*
X143539936Y-106532000D01*
G04 #@! TO.C,J3*
X119090000Y-125025000D02*
X119090000Y-130225000D01*
X167410000Y-125025000D02*
X119090000Y-125025000D01*
X170010000Y-130225000D02*
X119090000Y-130225000D01*
X167410000Y-125025000D02*
X167410000Y-127625000D01*
X167410000Y-127625000D02*
X170010000Y-127625000D01*
X170010000Y-127625000D02*
X170010000Y-130225000D01*
X168680000Y-125025000D02*
X170010000Y-125025000D01*
X170010000Y-125025000D02*
X170010000Y-126355000D01*
D15*
G04 #@! TO.C,IC1*
X119609998Y-112961534D02*
X119609998Y-105951534D01*
X119609998Y-105951534D02*
X126619998Y-105951534D01*
X126619998Y-105951534D02*
X126619998Y-112606534D01*
X126264998Y-112961534D02*
X119609998Y-112961534D01*
X126264998Y-112961534D02*
X126619998Y-112606534D01*
X126217398Y-112199734D02*
G75*
G03X126217398Y-112199734I-359200J0D01*
G01*
D16*
G04 #@! TO.C,U1*
X125692398Y-82286434D02*
X141692398Y-82286434D01*
X141692398Y-98286434D02*
X125692398Y-98286434D01*
D17*
X128612398Y-83301434D02*
G75*
G03X128612398Y-83301434I-635000J0D01*
G01*
D14*
G04 #@! TO.C,Q1*
X135059318Y-104150694D02*
X130599318Y-104150694D01*
X130599318Y-104150694D02*
X130599318Y-108214694D01*
X135059318Y-104150694D02*
X135059318Y-108214694D01*
X135059318Y-108214694D02*
X130599318Y-108214694D01*
G04 #@! TO.C,J1*
X169478000Y-101660000D02*
X169478000Y-99000000D01*
X156718000Y-101660000D02*
X169478000Y-101660000D01*
X156718000Y-99000000D02*
X169478000Y-99000000D01*
X156718000Y-101660000D02*
X156718000Y-99000000D01*
X155448000Y-101660000D02*
X154118000Y-101660000D01*
X154118000Y-101660000D02*
X154118000Y-100330000D01*
G04 #@! TO.C,J4*
X169718798Y-114679634D02*
X169718798Y-112019634D01*
X141718798Y-114679634D02*
X169718798Y-114679634D01*
X141718798Y-112019634D02*
X169718798Y-112019634D01*
X141718798Y-114679634D02*
X141718798Y-112019634D01*
X140448798Y-114679634D02*
X139118798Y-114679634D01*
X139118798Y-114679634D02*
X139118798Y-113349634D01*
G04 #@! TO.C,J2*
X150682000Y-97222000D02*
X145482000Y-97222000D01*
X150682000Y-102362000D02*
X150682000Y-97222000D01*
X145482000Y-104962000D02*
X145482000Y-97222000D01*
X150682000Y-102362000D02*
X148082000Y-102362000D01*
X148082000Y-102362000D02*
X148082000Y-104962000D01*
X148082000Y-104962000D02*
X145482000Y-104962000D01*
X150682000Y-103632000D02*
X150682000Y-104962000D01*
X150682000Y-104962000D02*
X149352000Y-104962000D01*
G04 #@! TO.C,U2*
X169610000Y-120760000D02*
X167710000Y-120760000D01*
X168210000Y-123080000D02*
X169610000Y-123080000D01*
G04 #@! TO.C,C6*
D12*
X143975333Y-109619142D02*
X143927714Y-109666761D01*
X143784857Y-109714380D01*
X143689619Y-109714380D01*
X143546761Y-109666761D01*
X143451523Y-109571523D01*
X143403904Y-109476285D01*
X143356285Y-109285809D01*
X143356285Y-109142952D01*
X143403904Y-108952476D01*
X143451523Y-108857238D01*
X143546761Y-108762000D01*
X143689619Y-108714380D01*
X143784857Y-108714380D01*
X143927714Y-108762000D01*
X143975333Y-108809619D01*
X144832476Y-108714380D02*
X144642000Y-108714380D01*
X144546761Y-108762000D01*
X144499142Y-108809619D01*
X144403904Y-108952476D01*
X144356285Y-109142952D01*
X144356285Y-109523904D01*
X144403904Y-109619142D01*
X144451523Y-109666761D01*
X144546761Y-109714380D01*
X144737238Y-109714380D01*
X144832476Y-109666761D01*
X144880095Y-109619142D01*
X144927714Y-109523904D01*
X144927714Y-109285809D01*
X144880095Y-109190571D01*
X144832476Y-109142952D01*
X144737238Y-109095333D01*
X144546761Y-109095333D01*
X144451523Y-109142952D01*
X144403904Y-109190571D01*
X144356285Y-109285809D01*
G04 #@! TO.C,J3*
X134540666Y-122896380D02*
X134540666Y-123610666D01*
X134493047Y-123753523D01*
X134397809Y-123848761D01*
X134254952Y-123896380D01*
X134159714Y-123896380D01*
X134921619Y-122896380D02*
X135540666Y-122896380D01*
X135207333Y-123277333D01*
X135350190Y-123277333D01*
X135445428Y-123324952D01*
X135493047Y-123372571D01*
X135540666Y-123467809D01*
X135540666Y-123705904D01*
X135493047Y-123801142D01*
X135445428Y-123848761D01*
X135350190Y-123896380D01*
X135064476Y-123896380D01*
X134969238Y-123848761D01*
X134921619Y-123801142D01*
G04 #@! TO.C,IC1*
D10*
X124481590Y-116032761D02*
X124481590Y-115082761D01*
X125476828Y-115942285D02*
X125431590Y-115987523D01*
X125295876Y-116032761D01*
X125205400Y-116032761D01*
X125069685Y-115987523D01*
X124979209Y-115897047D01*
X124933971Y-115806571D01*
X124888733Y-115625619D01*
X124888733Y-115489904D01*
X124933971Y-115308952D01*
X124979209Y-115218476D01*
X125069685Y-115128000D01*
X125205400Y-115082761D01*
X125295876Y-115082761D01*
X125431590Y-115128000D01*
X125476828Y-115173238D01*
X126381590Y-116032761D02*
X125838733Y-116032761D01*
X126110161Y-116032761D02*
X126110161Y-115082761D01*
X126019685Y-115218476D01*
X125929209Y-115308952D01*
X125838733Y-115354190D01*
G04 #@! TO.C,U1*
X133239188Y-85161195D02*
X133239188Y-85930243D01*
X133284426Y-86020719D01*
X133329664Y-86065957D01*
X133420140Y-86111195D01*
X133601093Y-86111195D01*
X133691569Y-86065957D01*
X133736807Y-86020719D01*
X133782045Y-85930243D01*
X133782045Y-85161195D01*
X134732045Y-86111195D02*
X134189188Y-86111195D01*
X134460617Y-86111195D02*
X134460617Y-85161195D01*
X134370140Y-85296910D01*
X134279664Y-85387386D01*
X134189188Y-85432624D01*
G04 #@! TO.C,C4*
X115958885Y-111050285D02*
X115913647Y-111095523D01*
X115777933Y-111140761D01*
X115687457Y-111140761D01*
X115551742Y-111095523D01*
X115461266Y-111005047D01*
X115416028Y-110914571D01*
X115370790Y-110733619D01*
X115370790Y-110597904D01*
X115416028Y-110416952D01*
X115461266Y-110326476D01*
X115551742Y-110236000D01*
X115687457Y-110190761D01*
X115777933Y-110190761D01*
X115913647Y-110236000D01*
X115958885Y-110281238D01*
X116773171Y-110507428D02*
X116773171Y-111140761D01*
X116546980Y-110145523D02*
X116320790Y-110824095D01*
X116908885Y-110824095D01*
G04 #@! TO.C,C2*
X129674885Y-111812285D02*
X129629647Y-111857523D01*
X129493933Y-111902761D01*
X129403457Y-111902761D01*
X129267742Y-111857523D01*
X129177266Y-111767047D01*
X129132028Y-111676571D01*
X129086790Y-111495619D01*
X129086790Y-111359904D01*
X129132028Y-111178952D01*
X129177266Y-111088476D01*
X129267742Y-110998000D01*
X129403457Y-110952761D01*
X129493933Y-110952761D01*
X129629647Y-110998000D01*
X129674885Y-111043238D01*
X130036790Y-111043238D02*
X130082028Y-110998000D01*
X130172504Y-110952761D01*
X130398695Y-110952761D01*
X130489171Y-110998000D01*
X130534409Y-111043238D01*
X130579647Y-111133714D01*
X130579647Y-111224190D01*
X130534409Y-111359904D01*
X129991552Y-111902761D01*
X130579647Y-111902761D01*
G04 #@! TO.C,C3*
X114434885Y-106224285D02*
X114389647Y-106269523D01*
X114253933Y-106314761D01*
X114163457Y-106314761D01*
X114027742Y-106269523D01*
X113937266Y-106179047D01*
X113892028Y-106088571D01*
X113846790Y-105907619D01*
X113846790Y-105771904D01*
X113892028Y-105590952D01*
X113937266Y-105500476D01*
X114027742Y-105410000D01*
X114163457Y-105364761D01*
X114253933Y-105364761D01*
X114389647Y-105410000D01*
X114434885Y-105455238D01*
X114751552Y-105364761D02*
X115339647Y-105364761D01*
X115022980Y-105726666D01*
X115158695Y-105726666D01*
X115249171Y-105771904D01*
X115294409Y-105817142D01*
X115339647Y-105907619D01*
X115339647Y-106133809D01*
X115294409Y-106224285D01*
X115249171Y-106269523D01*
X115158695Y-106314761D01*
X114887266Y-106314761D01*
X114796790Y-106269523D01*
X114751552Y-106224285D01*
G04 #@! TO.C,C5*
X122054885Y-89968285D02*
X122009647Y-90013523D01*
X121873933Y-90058761D01*
X121783457Y-90058761D01*
X121647742Y-90013523D01*
X121557266Y-89923047D01*
X121512028Y-89832571D01*
X121466790Y-89651619D01*
X121466790Y-89515904D01*
X121512028Y-89334952D01*
X121557266Y-89244476D01*
X121647742Y-89154000D01*
X121783457Y-89108761D01*
X121873933Y-89108761D01*
X122009647Y-89154000D01*
X122054885Y-89199238D01*
X122914409Y-89108761D02*
X122462028Y-89108761D01*
X122416790Y-89561142D01*
X122462028Y-89515904D01*
X122552504Y-89470666D01*
X122778695Y-89470666D01*
X122869171Y-89515904D01*
X122914409Y-89561142D01*
X122959647Y-89651619D01*
X122959647Y-89877809D01*
X122914409Y-89968285D01*
X122869171Y-90013523D01*
X122778695Y-90058761D01*
X122552504Y-90058761D01*
X122462028Y-90013523D01*
X122416790Y-89968285D01*
G04 #@! TO.C,Q1*
D12*
X130214619Y-102965238D02*
X130167000Y-103060476D01*
X130071761Y-103155714D01*
X129928904Y-103298571D01*
X129881285Y-103393809D01*
X129881285Y-103489047D01*
X130119380Y-103441428D02*
X130071761Y-103536666D01*
X129976523Y-103631904D01*
X129786047Y-103679523D01*
X129452714Y-103679523D01*
X129262238Y-103631904D01*
X129167000Y-103536666D01*
X129119380Y-103441428D01*
X129119380Y-103250952D01*
X129167000Y-103155714D01*
X129262238Y-103060476D01*
X129452714Y-103012857D01*
X129786047Y-103012857D01*
X129976523Y-103060476D01*
X130071761Y-103155714D01*
X130119380Y-103250952D01*
X130119380Y-103441428D01*
X130119380Y-102060476D02*
X130119380Y-102631904D01*
X130119380Y-102346190D02*
X129119380Y-102346190D01*
X129262238Y-102441428D01*
X129357476Y-102536666D01*
X129405095Y-102631904D01*
G04 #@! TO.C,J1*
X160448666Y-102322380D02*
X160448666Y-103036666D01*
X160401047Y-103179523D01*
X160305809Y-103274761D01*
X160162952Y-103322380D01*
X160067714Y-103322380D01*
X161448666Y-103322380D02*
X160877238Y-103322380D01*
X161162952Y-103322380D02*
X161162952Y-102322380D01*
X161067714Y-102465238D01*
X160972476Y-102560476D01*
X160877238Y-102608095D01*
G04 #@! TO.C,J4*
X137120380Y-113682967D02*
X137834666Y-113682967D01*
X137977523Y-113730586D01*
X138072761Y-113825824D01*
X138120380Y-113968681D01*
X138120380Y-114063919D01*
X137453714Y-112778205D02*
X138120380Y-112778205D01*
X137072761Y-113016300D02*
X137787047Y-113254395D01*
X137787047Y-112635348D01*
G04 #@! TO.C,J2*
X147748666Y-95845380D02*
X147748666Y-96559666D01*
X147701047Y-96702523D01*
X147605809Y-96797761D01*
X147462952Y-96845380D01*
X147367714Y-96845380D01*
X148177238Y-95940619D02*
X148224857Y-95893000D01*
X148320095Y-95845380D01*
X148558190Y-95845380D01*
X148653428Y-95893000D01*
X148701047Y-95940619D01*
X148748666Y-96035857D01*
X148748666Y-96131095D01*
X148701047Y-96273952D01*
X148129619Y-96845380D01*
X148748666Y-96845380D01*
G04 #@! TO.C,R4*
D10*
X152456447Y-87584761D02*
X152139780Y-87132380D01*
X151913590Y-87584761D02*
X151913590Y-86634761D01*
X152275495Y-86634761D01*
X152365971Y-86680000D01*
X152411209Y-86725238D01*
X152456447Y-86815714D01*
X152456447Y-86951428D01*
X152411209Y-87041904D01*
X152365971Y-87087142D01*
X152275495Y-87132380D01*
X151913590Y-87132380D01*
X153270733Y-86951428D02*
X153270733Y-87584761D01*
X153044542Y-86589523D02*
X152818352Y-87268095D01*
X153406447Y-87268095D01*
G04 #@! TO.C,R5*
X161498761Y-121609552D02*
X161046380Y-121926219D01*
X161498761Y-122152409D02*
X160548761Y-122152409D01*
X160548761Y-121790504D01*
X160594000Y-121700028D01*
X160639238Y-121654790D01*
X160729714Y-121609552D01*
X160865428Y-121609552D01*
X160955904Y-121654790D01*
X161001142Y-121700028D01*
X161046380Y-121790504D01*
X161046380Y-122152409D01*
X160548761Y-120750028D02*
X160548761Y-121202409D01*
X161001142Y-121247647D01*
X160955904Y-121202409D01*
X160910666Y-121111933D01*
X160910666Y-120885742D01*
X160955904Y-120795266D01*
X161001142Y-120750028D01*
X161091619Y-120704790D01*
X161317809Y-120704790D01*
X161408285Y-120750028D01*
X161453523Y-120795266D01*
X161498761Y-120885742D01*
X161498761Y-121111933D01*
X161453523Y-121202409D01*
X161408285Y-121247647D01*
G04 #@! TO.C,U2*
D12*
X165354095Y-121372380D02*
X165354095Y-122181904D01*
X165401714Y-122277142D01*
X165449333Y-122324761D01*
X165544571Y-122372380D01*
X165735047Y-122372380D01*
X165830285Y-122324761D01*
X165877904Y-122277142D01*
X165925523Y-122181904D01*
X165925523Y-121372380D01*
X166354095Y-121467619D02*
X166401714Y-121420000D01*
X166496952Y-121372380D01*
X166735047Y-121372380D01*
X166830285Y-121420000D01*
X166877904Y-121467619D01*
X166925523Y-121562857D01*
X166925523Y-121658095D01*
X166877904Y-121800952D01*
X166306476Y-122372380D01*
X166925523Y-122372380D01*
G04 #@! TO.C,R15*
D10*
X147528761Y-122117552D02*
X147076380Y-122434219D01*
X147528761Y-122660409D02*
X146578761Y-122660409D01*
X146578761Y-122298504D01*
X146624000Y-122208028D01*
X146669238Y-122162790D01*
X146759714Y-122117552D01*
X146895428Y-122117552D01*
X146985904Y-122162790D01*
X147031142Y-122208028D01*
X147076380Y-122298504D01*
X147076380Y-122660409D01*
X147528761Y-121212790D02*
X147528761Y-121755647D01*
X147528761Y-121484219D02*
X146578761Y-121484219D01*
X146714476Y-121574695D01*
X146804952Y-121665171D01*
X146850190Y-121755647D01*
X146578761Y-120353266D02*
X146578761Y-120805647D01*
X147031142Y-120850885D01*
X146985904Y-120805647D01*
X146940666Y-120715171D01*
X146940666Y-120488980D01*
X146985904Y-120398504D01*
X147031142Y-120353266D01*
X147121619Y-120308028D01*
X147347809Y-120308028D01*
X147438285Y-120353266D01*
X147483523Y-120398504D01*
X147528761Y-120488980D01*
X147528761Y-120715171D01*
X147483523Y-120805647D01*
X147438285Y-120850885D01*
G04 #@! TO.C,C1*
X168095714Y-106814885D02*
X168050476Y-106769647D01*
X168005238Y-106633933D01*
X168005238Y-106543457D01*
X168050476Y-106407742D01*
X168140952Y-106317266D01*
X168231428Y-106272028D01*
X168412380Y-106226790D01*
X168548095Y-106226790D01*
X168729047Y-106272028D01*
X168819523Y-106317266D01*
X168910000Y-106407742D01*
X168955238Y-106543457D01*
X168955238Y-106633933D01*
X168910000Y-106769647D01*
X168864761Y-106814885D01*
X168005238Y-107719647D02*
X168005238Y-107176790D01*
X168005238Y-107448219D02*
X168955238Y-107448219D01*
X168819523Y-107357742D01*
X168729047Y-107267266D01*
X168683809Y-107176790D01*
G04 #@! TO.C,C7*
X147962885Y-89968285D02*
X147917647Y-90013523D01*
X147781933Y-90058761D01*
X147691457Y-90058761D01*
X147555742Y-90013523D01*
X147465266Y-89923047D01*
X147420028Y-89832571D01*
X147374790Y-89651619D01*
X147374790Y-89515904D01*
X147420028Y-89334952D01*
X147465266Y-89244476D01*
X147555742Y-89154000D01*
X147691457Y-89108761D01*
X147781933Y-89108761D01*
X147917647Y-89154000D01*
X147962885Y-89199238D01*
X148279552Y-89108761D02*
X148912885Y-89108761D01*
X148505742Y-90058761D01*
G04 #@! TO.C,C8*
X147962885Y-91746285D02*
X147917647Y-91791523D01*
X147781933Y-91836761D01*
X147691457Y-91836761D01*
X147555742Y-91791523D01*
X147465266Y-91701047D01*
X147420028Y-91610571D01*
X147374790Y-91429619D01*
X147374790Y-91293904D01*
X147420028Y-91112952D01*
X147465266Y-91022476D01*
X147555742Y-90932000D01*
X147691457Y-90886761D01*
X147781933Y-90886761D01*
X147917647Y-90932000D01*
X147962885Y-90977238D01*
X148505742Y-91293904D02*
X148415266Y-91248666D01*
X148370028Y-91203428D01*
X148324790Y-91112952D01*
X148324790Y-91067714D01*
X148370028Y-90977238D01*
X148415266Y-90932000D01*
X148505742Y-90886761D01*
X148686695Y-90886761D01*
X148777171Y-90932000D01*
X148822409Y-90977238D01*
X148867647Y-91067714D01*
X148867647Y-91112952D01*
X148822409Y-91203428D01*
X148777171Y-91248666D01*
X148686695Y-91293904D01*
X148505742Y-91293904D01*
X148415266Y-91339142D01*
X148370028Y-91384380D01*
X148324790Y-91474857D01*
X148324790Y-91655809D01*
X148370028Y-91746285D01*
X148415266Y-91791523D01*
X148505742Y-91836761D01*
X148686695Y-91836761D01*
X148777171Y-91791523D01*
X148822409Y-91746285D01*
X148867647Y-91655809D01*
X148867647Y-91474857D01*
X148822409Y-91384380D01*
X148777171Y-91339142D01*
X148686695Y-91293904D01*
G04 #@! TO.C,C9*
X147120487Y-87427751D02*
X147075249Y-87472989D01*
X146939535Y-87518227D01*
X146849059Y-87518227D01*
X146713344Y-87472989D01*
X146622868Y-87382513D01*
X146577630Y-87292037D01*
X146532392Y-87111085D01*
X146532392Y-86975370D01*
X146577630Y-86794418D01*
X146622868Y-86703942D01*
X146713344Y-86613466D01*
X146849059Y-86568227D01*
X146939535Y-86568227D01*
X147075249Y-86613466D01*
X147120487Y-86658704D01*
X147572868Y-87518227D02*
X147753821Y-87518227D01*
X147844297Y-87472989D01*
X147889535Y-87427751D01*
X147980011Y-87292037D01*
X148025249Y-87111085D01*
X148025249Y-86749180D01*
X147980011Y-86658704D01*
X147934773Y-86613466D01*
X147844297Y-86568227D01*
X147663344Y-86568227D01*
X147572868Y-86613466D01*
X147527630Y-86658704D01*
X147482392Y-86749180D01*
X147482392Y-86975370D01*
X147527630Y-87065846D01*
X147572868Y-87111085D01*
X147663344Y-87156323D01*
X147844297Y-87156323D01*
X147934773Y-87111085D01*
X147980011Y-87065846D01*
X148025249Y-86975370D01*
G04 #@! TO.C,C10*
X144010123Y-83872285D02*
X143964885Y-83917523D01*
X143829171Y-83962761D01*
X143738695Y-83962761D01*
X143602980Y-83917523D01*
X143512504Y-83827047D01*
X143467266Y-83736571D01*
X143422028Y-83555619D01*
X143422028Y-83419904D01*
X143467266Y-83238952D01*
X143512504Y-83148476D01*
X143602980Y-83058000D01*
X143738695Y-83012761D01*
X143829171Y-83012761D01*
X143964885Y-83058000D01*
X144010123Y-83103238D01*
X144914885Y-83962761D02*
X144372028Y-83962761D01*
X144643457Y-83962761D02*
X144643457Y-83012761D01*
X144552980Y-83148476D01*
X144462504Y-83238952D01*
X144372028Y-83284190D01*
X145502980Y-83012761D02*
X145593457Y-83012761D01*
X145683933Y-83058000D01*
X145729171Y-83103238D01*
X145774409Y-83193714D01*
X145819647Y-83374666D01*
X145819647Y-83600857D01*
X145774409Y-83781809D01*
X145729171Y-83872285D01*
X145683933Y-83917523D01*
X145593457Y-83962761D01*
X145502980Y-83962761D01*
X145412504Y-83917523D01*
X145367266Y-83872285D01*
X145322028Y-83781809D01*
X145276790Y-83600857D01*
X145276790Y-83374666D01*
X145322028Y-83193714D01*
X145367266Y-83103238D01*
X145412504Y-83058000D01*
X145502980Y-83012761D01*
G04 #@! TO.C,R1*
X165816761Y-104591552D02*
X165364380Y-104908219D01*
X165816761Y-105134409D02*
X164866761Y-105134409D01*
X164866761Y-104772504D01*
X164912000Y-104682028D01*
X164957238Y-104636790D01*
X165047714Y-104591552D01*
X165183428Y-104591552D01*
X165273904Y-104636790D01*
X165319142Y-104682028D01*
X165364380Y-104772504D01*
X165364380Y-105134409D01*
X165816761Y-103686790D02*
X165816761Y-104229647D01*
X165816761Y-103958219D02*
X164866761Y-103958219D01*
X165002476Y-104048695D01*
X165092952Y-104139171D01*
X165138190Y-104229647D01*
G04 #@! TO.C,R2*
X162859238Y-106228447D02*
X163311619Y-105911780D01*
X162859238Y-105685590D02*
X163809238Y-105685590D01*
X163809238Y-106047495D01*
X163764000Y-106137971D01*
X163718761Y-106183209D01*
X163628285Y-106228447D01*
X163492571Y-106228447D01*
X163402095Y-106183209D01*
X163356857Y-106137971D01*
X163311619Y-106047495D01*
X163311619Y-105685590D01*
X163718761Y-106590352D02*
X163764000Y-106635590D01*
X163809238Y-106726066D01*
X163809238Y-106952257D01*
X163764000Y-107042733D01*
X163718761Y-107087971D01*
X163628285Y-107133209D01*
X163537809Y-107133209D01*
X163402095Y-107087971D01*
X162859238Y-106545114D01*
X162859238Y-107133209D01*
G04 #@! TO.C,C11*
X132398125Y-101606031D02*
X132352887Y-101651269D01*
X132217173Y-101696507D01*
X132126697Y-101696507D01*
X131990982Y-101651269D01*
X131900506Y-101560793D01*
X131855268Y-101470317D01*
X131810030Y-101289365D01*
X131810030Y-101153650D01*
X131855268Y-100972698D01*
X131900506Y-100882222D01*
X131990982Y-100791746D01*
X132126697Y-100746507D01*
X132217173Y-100746507D01*
X132352887Y-100791746D01*
X132398125Y-100836984D01*
X133302887Y-101696507D02*
X132760030Y-101696507D01*
X133031459Y-101696507D02*
X133031459Y-100746507D01*
X132940982Y-100882222D01*
X132850506Y-100972698D01*
X132760030Y-101017936D01*
X134207649Y-101696507D02*
X133664792Y-101696507D01*
X133936221Y-101696507D02*
X133936221Y-100746507D01*
X133845744Y-100882222D01*
X133755268Y-100972698D01*
X133664792Y-101017936D01*
G04 #@! TO.C,C12*
X133977123Y-111304285D02*
X133931885Y-111349523D01*
X133796171Y-111394761D01*
X133705695Y-111394761D01*
X133569980Y-111349523D01*
X133479504Y-111259047D01*
X133434266Y-111168571D01*
X133389028Y-110987619D01*
X133389028Y-110851904D01*
X133434266Y-110670952D01*
X133479504Y-110580476D01*
X133569980Y-110490000D01*
X133705695Y-110444761D01*
X133796171Y-110444761D01*
X133931885Y-110490000D01*
X133977123Y-110535238D01*
X134881885Y-111394761D02*
X134339028Y-111394761D01*
X134610457Y-111394761D02*
X134610457Y-110444761D01*
X134519980Y-110580476D01*
X134429504Y-110670952D01*
X134339028Y-110716190D01*
X135243790Y-110535238D02*
X135289028Y-110490000D01*
X135379504Y-110444761D01*
X135605695Y-110444761D01*
X135696171Y-110490000D01*
X135741409Y-110535238D01*
X135786647Y-110625714D01*
X135786647Y-110716190D01*
X135741409Y-110851904D01*
X135198552Y-111394761D01*
X135786647Y-111394761D01*
G04 #@! TO.C,R9*
X149408447Y-84028761D02*
X149091780Y-83576380D01*
X148865590Y-84028761D02*
X148865590Y-83078761D01*
X149227495Y-83078761D01*
X149317971Y-83124000D01*
X149363209Y-83169238D01*
X149408447Y-83259714D01*
X149408447Y-83395428D01*
X149363209Y-83485904D01*
X149317971Y-83531142D01*
X149227495Y-83576380D01*
X148865590Y-83576380D01*
X149860828Y-84028761D02*
X150041780Y-84028761D01*
X150132257Y-83983523D01*
X150177495Y-83938285D01*
X150267971Y-83802571D01*
X150313209Y-83621619D01*
X150313209Y-83259714D01*
X150267971Y-83169238D01*
X150222733Y-83124000D01*
X150132257Y-83078761D01*
X149951304Y-83078761D01*
X149860828Y-83124000D01*
X149815590Y-83169238D01*
X149770352Y-83259714D01*
X149770352Y-83485904D01*
X149815590Y-83576380D01*
X149860828Y-83621619D01*
X149951304Y-83666857D01*
X150132257Y-83666857D01*
X150222733Y-83621619D01*
X150267971Y-83576380D01*
X150313209Y-83485904D01*
G04 #@! TO.C,R10*
X154894761Y-122117552D02*
X154442380Y-122434219D01*
X154894761Y-122660409D02*
X153944761Y-122660409D01*
X153944761Y-122298504D01*
X153990000Y-122208028D01*
X154035238Y-122162790D01*
X154125714Y-122117552D01*
X154261428Y-122117552D01*
X154351904Y-122162790D01*
X154397142Y-122208028D01*
X154442380Y-122298504D01*
X154442380Y-122660409D01*
X154894761Y-121212790D02*
X154894761Y-121755647D01*
X154894761Y-121484219D02*
X153944761Y-121484219D01*
X154080476Y-121574695D01*
X154170952Y-121665171D01*
X154216190Y-121755647D01*
X153944761Y-120624695D02*
X153944761Y-120534219D01*
X153990000Y-120443742D01*
X154035238Y-120398504D01*
X154125714Y-120353266D01*
X154306666Y-120308028D01*
X154532857Y-120308028D01*
X154713809Y-120353266D01*
X154804285Y-120398504D01*
X154849523Y-120443742D01*
X154894761Y-120534219D01*
X154894761Y-120624695D01*
X154849523Y-120715171D01*
X154804285Y-120760409D01*
X154713809Y-120805647D01*
X154532857Y-120850885D01*
X154306666Y-120850885D01*
X154125714Y-120805647D01*
X154035238Y-120760409D01*
X153990000Y-120715171D01*
X153944761Y-120624695D01*
G04 #@! TO.C,R12*
X158196761Y-122117552D02*
X157744380Y-122434219D01*
X158196761Y-122660409D02*
X157246761Y-122660409D01*
X157246761Y-122298504D01*
X157292000Y-122208028D01*
X157337238Y-122162790D01*
X157427714Y-122117552D01*
X157563428Y-122117552D01*
X157653904Y-122162790D01*
X157699142Y-122208028D01*
X157744380Y-122298504D01*
X157744380Y-122660409D01*
X158196761Y-121212790D02*
X158196761Y-121755647D01*
X158196761Y-121484219D02*
X157246761Y-121484219D01*
X157382476Y-121574695D01*
X157472952Y-121665171D01*
X157518190Y-121755647D01*
X157337238Y-120850885D02*
X157292000Y-120805647D01*
X157246761Y-120715171D01*
X157246761Y-120488980D01*
X157292000Y-120398504D01*
X157337238Y-120353266D01*
X157427714Y-120308028D01*
X157518190Y-120308028D01*
X157653904Y-120353266D01*
X158196761Y-120896123D01*
X158196761Y-120308028D01*
G04 #@! TO.C,R13*
X151338761Y-122181876D02*
X150886380Y-122498542D01*
X151338761Y-122724733D02*
X150388761Y-122724733D01*
X150388761Y-122362828D01*
X150434000Y-122272352D01*
X150479238Y-122227114D01*
X150569714Y-122181876D01*
X150705428Y-122181876D01*
X150795904Y-122227114D01*
X150841142Y-122272352D01*
X150886380Y-122362828D01*
X150886380Y-122724733D01*
X151338761Y-121277114D02*
X151338761Y-121819971D01*
X151338761Y-121548542D02*
X150388761Y-121548542D01*
X150524476Y-121639019D01*
X150614952Y-121729495D01*
X150660190Y-121819971D01*
X150388761Y-120960447D02*
X150388761Y-120372352D01*
X150750666Y-120689019D01*
X150750666Y-120553304D01*
X150795904Y-120462828D01*
X150841142Y-120417590D01*
X150931619Y-120372352D01*
X151157809Y-120372352D01*
X151248285Y-120417590D01*
X151293523Y-120462828D01*
X151338761Y-120553304D01*
X151338761Y-120824733D01*
X151293523Y-120915209D01*
X151248285Y-120960447D01*
G04 #@! TO.C,R14*
X141305761Y-122129352D02*
X140853380Y-122446019D01*
X141305761Y-122672209D02*
X140355761Y-122672209D01*
X140355761Y-122310304D01*
X140401000Y-122219828D01*
X140446238Y-122174590D01*
X140536714Y-122129352D01*
X140672428Y-122129352D01*
X140762904Y-122174590D01*
X140808142Y-122219828D01*
X140853380Y-122310304D01*
X140853380Y-122672209D01*
X141305761Y-121224590D02*
X141305761Y-121767447D01*
X141305761Y-121496019D02*
X140355761Y-121496019D01*
X140491476Y-121586495D01*
X140581952Y-121676971D01*
X140627190Y-121767447D01*
X140672428Y-120410304D02*
X141305761Y-120410304D01*
X140310523Y-120636495D02*
X140989095Y-120862685D01*
X140989095Y-120274590D01*
G04 #@! TO.C,R16*
X126700761Y-121863552D02*
X126248380Y-122180219D01*
X126700761Y-122406409D02*
X125750761Y-122406409D01*
X125750761Y-122044504D01*
X125796000Y-121954028D01*
X125841238Y-121908790D01*
X125931714Y-121863552D01*
X126067428Y-121863552D01*
X126157904Y-121908790D01*
X126203142Y-121954028D01*
X126248380Y-122044504D01*
X126248380Y-122406409D01*
X126700761Y-120958790D02*
X126700761Y-121501647D01*
X126700761Y-121230219D02*
X125750761Y-121230219D01*
X125886476Y-121320695D01*
X125976952Y-121411171D01*
X126022190Y-121501647D01*
X125750761Y-120144504D02*
X125750761Y-120325457D01*
X125796000Y-120415933D01*
X125841238Y-120461171D01*
X125976952Y-120551647D01*
X126157904Y-120596885D01*
X126519809Y-120596885D01*
X126610285Y-120551647D01*
X126655523Y-120506409D01*
X126700761Y-120415933D01*
X126700761Y-120234980D01*
X126655523Y-120144504D01*
X126610285Y-120099266D01*
X126519809Y-120054028D01*
X126293619Y-120054028D01*
X126203142Y-120099266D01*
X126157904Y-120144504D01*
X126112666Y-120234980D01*
X126112666Y-120415933D01*
X126157904Y-120506409D01*
X126203142Y-120551647D01*
X126293619Y-120596885D01*
G04 #@! TO.C,R17*
X119864640Y-120666913D02*
X120317021Y-120350246D01*
X119864640Y-120124056D02*
X120814640Y-120124056D01*
X120814640Y-120485961D01*
X120769402Y-120576437D01*
X120724163Y-120621675D01*
X120633687Y-120666913D01*
X120497973Y-120666913D01*
X120407497Y-120621675D01*
X120362259Y-120576437D01*
X120317021Y-120485961D01*
X120317021Y-120124056D01*
X119864640Y-121571675D02*
X119864640Y-121028818D01*
X119864640Y-121300246D02*
X120814640Y-121300246D01*
X120678925Y-121209770D01*
X120588449Y-121119294D01*
X120543211Y-121028818D01*
X120814640Y-121888342D02*
X120814640Y-122521675D01*
X119864640Y-122114532D01*
G04 #@! TO.C,R18*
X118514359Y-104362586D02*
X118061978Y-104679253D01*
X118514359Y-104905443D02*
X117564359Y-104905443D01*
X117564359Y-104543538D01*
X117609598Y-104453062D01*
X117654836Y-104407824D01*
X117745312Y-104362586D01*
X117881026Y-104362586D01*
X117971502Y-104407824D01*
X118016740Y-104453062D01*
X118061978Y-104543538D01*
X118061978Y-104905443D01*
X118514359Y-103457824D02*
X118514359Y-104000681D01*
X118514359Y-103729253D02*
X117564359Y-103729253D01*
X117700074Y-103819729D01*
X117790550Y-103910205D01*
X117835788Y-104000681D01*
X117971502Y-102914967D02*
X117926264Y-103005443D01*
X117881026Y-103050681D01*
X117790550Y-103095919D01*
X117745312Y-103095919D01*
X117654836Y-103050681D01*
X117609598Y-103005443D01*
X117564359Y-102914967D01*
X117564359Y-102734014D01*
X117609598Y-102643538D01*
X117654836Y-102598300D01*
X117745312Y-102553062D01*
X117790550Y-102553062D01*
X117881026Y-102598300D01*
X117926264Y-102643538D01*
X117971502Y-102734014D01*
X117971502Y-102914967D01*
X118016740Y-103005443D01*
X118061978Y-103050681D01*
X118152455Y-103095919D01*
X118333407Y-103095919D01*
X118423883Y-103050681D01*
X118469121Y-103005443D01*
X118514359Y-102914967D01*
X118514359Y-102734014D01*
X118469121Y-102643538D01*
X118423883Y-102598300D01*
X118333407Y-102553062D01*
X118152455Y-102553062D01*
X118061978Y-102598300D01*
X118016740Y-102643538D01*
X117971502Y-102734014D01*
G04 #@! TO.C,R3*
X156672761Y-104083552D02*
X156220380Y-104400219D01*
X156672761Y-104626409D02*
X155722761Y-104626409D01*
X155722761Y-104264504D01*
X155768000Y-104174028D01*
X155813238Y-104128790D01*
X155903714Y-104083552D01*
X156039428Y-104083552D01*
X156129904Y-104128790D01*
X156175142Y-104174028D01*
X156220380Y-104264504D01*
X156220380Y-104626409D01*
X155722761Y-103766885D02*
X155722761Y-103178790D01*
X156084666Y-103495457D01*
X156084666Y-103359742D01*
X156129904Y-103269266D01*
X156175142Y-103224028D01*
X156265619Y-103178790D01*
X156491809Y-103178790D01*
X156582285Y-103224028D01*
X156627523Y-103269266D01*
X156672761Y-103359742D01*
X156672761Y-103631171D01*
X156627523Y-103721647D01*
X156582285Y-103766885D01*
G04 #@! TO.C,C13*
X171442123Y-119940285D02*
X171396885Y-119985523D01*
X171261171Y-120030761D01*
X171170695Y-120030761D01*
X171034980Y-119985523D01*
X170944504Y-119895047D01*
X170899266Y-119804571D01*
X170854028Y-119623619D01*
X170854028Y-119487904D01*
X170899266Y-119306952D01*
X170944504Y-119216476D01*
X171034980Y-119126000D01*
X171170695Y-119080761D01*
X171261171Y-119080761D01*
X171396885Y-119126000D01*
X171442123Y-119171238D01*
X172346885Y-120030761D02*
X171804028Y-120030761D01*
X172075457Y-120030761D02*
X172075457Y-119080761D01*
X171984980Y-119216476D01*
X171894504Y-119306952D01*
X171804028Y-119352190D01*
X172663552Y-119080761D02*
X173251647Y-119080761D01*
X172934980Y-119442666D01*
X173070695Y-119442666D01*
X173161171Y-119487904D01*
X173206409Y-119533142D01*
X173251647Y-119623619D01*
X173251647Y-119849809D01*
X173206409Y-119940285D01*
X173161171Y-119985523D01*
X173070695Y-120030761D01*
X172799266Y-120030761D01*
X172708790Y-119985523D01*
X172663552Y-119940285D01*
G04 #@! TO.C,C14*
X174744123Y-123115285D02*
X174698885Y-123160523D01*
X174563171Y-123205761D01*
X174472695Y-123205761D01*
X174336980Y-123160523D01*
X174246504Y-123070047D01*
X174201266Y-122979571D01*
X174156028Y-122798619D01*
X174156028Y-122662904D01*
X174201266Y-122481952D01*
X174246504Y-122391476D01*
X174336980Y-122301000D01*
X174472695Y-122255761D01*
X174563171Y-122255761D01*
X174698885Y-122301000D01*
X174744123Y-122346238D01*
X175648885Y-123205761D02*
X175106028Y-123205761D01*
X175377457Y-123205761D02*
X175377457Y-122255761D01*
X175286980Y-122391476D01*
X175196504Y-122481952D01*
X175106028Y-122527190D01*
X176463171Y-122572428D02*
X176463171Y-123205761D01*
X176236980Y-122210523D02*
X176010790Y-122889095D01*
X176598885Y-122889095D01*
G04 #@! TD*
M02*
