G75*
%MOIN*%
%OFA0B0*%
%FSLAX24Y24*%
%IPPOS*%
%LPD*%
%AMOC8*
5,1,8,0,0,1.08239X$1,22.5*
%
%ADD10C,0.0000*%
%ADD11C,0.0040*%
%ADD12C,0.0080*%
%ADD13C,0.0050*%
%ADD14C,0.0060*%
%ADD15C,0.0030*%
D10*
X000350Y000350D02*
X000350Y020035D01*
X020035Y020035D01*
X020035Y000350D01*
X000350Y000350D01*
X001267Y008344D02*
X001269Y008373D01*
X001275Y008401D01*
X001284Y008429D01*
X001297Y008455D01*
X001314Y008478D01*
X001333Y008500D01*
X001355Y008519D01*
X001380Y008534D01*
X001406Y008547D01*
X001434Y008555D01*
X001462Y008560D01*
X001491Y008561D01*
X001520Y008558D01*
X001548Y008551D01*
X001575Y008541D01*
X001601Y008527D01*
X001624Y008510D01*
X001645Y008490D01*
X001663Y008467D01*
X001678Y008442D01*
X001689Y008415D01*
X001697Y008387D01*
X001701Y008358D01*
X001701Y008330D01*
X001697Y008301D01*
X001689Y008273D01*
X001678Y008246D01*
X001663Y008221D01*
X001645Y008198D01*
X001624Y008178D01*
X001601Y008161D01*
X001575Y008147D01*
X001548Y008137D01*
X001520Y008130D01*
X001491Y008127D01*
X001462Y008128D01*
X001434Y008133D01*
X001406Y008141D01*
X001380Y008154D01*
X001355Y008169D01*
X001333Y008188D01*
X001314Y008210D01*
X001297Y008233D01*
X001284Y008259D01*
X001275Y008287D01*
X001269Y008315D01*
X001267Y008344D01*
X001267Y009344D02*
X001269Y009373D01*
X001275Y009401D01*
X001284Y009429D01*
X001297Y009455D01*
X001314Y009478D01*
X001333Y009500D01*
X001355Y009519D01*
X001380Y009534D01*
X001406Y009547D01*
X001434Y009555D01*
X001462Y009560D01*
X001491Y009561D01*
X001520Y009558D01*
X001548Y009551D01*
X001575Y009541D01*
X001601Y009527D01*
X001624Y009510D01*
X001645Y009490D01*
X001663Y009467D01*
X001678Y009442D01*
X001689Y009415D01*
X001697Y009387D01*
X001701Y009358D01*
X001701Y009330D01*
X001697Y009301D01*
X001689Y009273D01*
X001678Y009246D01*
X001663Y009221D01*
X001645Y009198D01*
X001624Y009178D01*
X001601Y009161D01*
X001575Y009147D01*
X001548Y009137D01*
X001520Y009130D01*
X001491Y009127D01*
X001462Y009128D01*
X001434Y009133D01*
X001406Y009141D01*
X001380Y009154D01*
X001355Y009169D01*
X001333Y009188D01*
X001314Y009210D01*
X001297Y009233D01*
X001284Y009259D01*
X001275Y009287D01*
X001269Y009315D01*
X001267Y009344D01*
X001259Y010670D02*
X001261Y010699D01*
X001267Y010727D01*
X001276Y010755D01*
X001289Y010781D01*
X001306Y010804D01*
X001325Y010826D01*
X001347Y010845D01*
X001372Y010860D01*
X001398Y010873D01*
X001426Y010881D01*
X001454Y010886D01*
X001483Y010887D01*
X001512Y010884D01*
X001540Y010877D01*
X001567Y010867D01*
X001593Y010853D01*
X001616Y010836D01*
X001637Y010816D01*
X001655Y010793D01*
X001670Y010768D01*
X001681Y010741D01*
X001689Y010713D01*
X001693Y010684D01*
X001693Y010656D01*
X001689Y010627D01*
X001681Y010599D01*
X001670Y010572D01*
X001655Y010547D01*
X001637Y010524D01*
X001616Y010504D01*
X001593Y010487D01*
X001567Y010473D01*
X001540Y010463D01*
X001512Y010456D01*
X001483Y010453D01*
X001454Y010454D01*
X001426Y010459D01*
X001398Y010467D01*
X001372Y010480D01*
X001347Y010495D01*
X001325Y010514D01*
X001306Y010536D01*
X001289Y010559D01*
X001276Y010585D01*
X001267Y010613D01*
X001261Y010641D01*
X001259Y010670D01*
X001259Y011670D02*
X001261Y011699D01*
X001267Y011727D01*
X001276Y011755D01*
X001289Y011781D01*
X001306Y011804D01*
X001325Y011826D01*
X001347Y011845D01*
X001372Y011860D01*
X001398Y011873D01*
X001426Y011881D01*
X001454Y011886D01*
X001483Y011887D01*
X001512Y011884D01*
X001540Y011877D01*
X001567Y011867D01*
X001593Y011853D01*
X001616Y011836D01*
X001637Y011816D01*
X001655Y011793D01*
X001670Y011768D01*
X001681Y011741D01*
X001689Y011713D01*
X001693Y011684D01*
X001693Y011656D01*
X001689Y011627D01*
X001681Y011599D01*
X001670Y011572D01*
X001655Y011547D01*
X001637Y011524D01*
X001616Y011504D01*
X001593Y011487D01*
X001567Y011473D01*
X001540Y011463D01*
X001512Y011456D01*
X001483Y011453D01*
X001454Y011454D01*
X001426Y011459D01*
X001398Y011467D01*
X001372Y011480D01*
X001347Y011495D01*
X001325Y011514D01*
X001306Y011536D01*
X001289Y011559D01*
X001276Y011585D01*
X001267Y011613D01*
X001261Y011641D01*
X001259Y011670D01*
D11*
X004323Y012230D02*
X004323Y012348D01*
X004382Y012407D01*
X004323Y012533D02*
X004323Y012769D01*
X004323Y012651D02*
X004677Y012651D01*
X004559Y012533D01*
X004618Y012407D02*
X004677Y012348D01*
X004677Y012230D01*
X004618Y012171D01*
X004382Y012171D01*
X004323Y012230D01*
X006434Y012312D02*
X006434Y012430D01*
X006493Y012489D01*
X006788Y012489D01*
X006670Y012616D02*
X006788Y012734D01*
X006434Y012734D01*
X006434Y012616D02*
X006434Y012852D01*
X006434Y012312D02*
X006493Y012253D01*
X006788Y012253D01*
X008371Y012234D02*
X008371Y012352D01*
X008430Y012411D01*
X008371Y012537D02*
X008607Y012773D01*
X008666Y012773D01*
X008725Y012714D01*
X008725Y012596D01*
X008666Y012537D01*
X008666Y012411D02*
X008725Y012352D01*
X008725Y012234D01*
X008666Y012175D01*
X008430Y012175D01*
X008371Y012234D01*
X008371Y012537D02*
X008371Y012773D01*
X009604Y012086D02*
X009604Y011968D01*
X009663Y011909D01*
X009722Y011909D01*
X009781Y011968D01*
X009781Y012086D01*
X009722Y012145D01*
X009663Y012145D01*
X009604Y012086D01*
X009781Y012086D02*
X009840Y012145D01*
X009899Y012145D01*
X009958Y012086D01*
X009958Y011968D01*
X009899Y011909D01*
X009840Y011909D01*
X009781Y011968D01*
X009663Y011783D02*
X009604Y011724D01*
X009604Y011606D01*
X009663Y011547D01*
X009899Y011547D01*
X009958Y011606D01*
X009958Y011724D01*
X009899Y011783D01*
X012500Y011808D02*
X012559Y011867D01*
X012500Y011808D02*
X012500Y011690D01*
X012559Y011631D01*
X012795Y011631D01*
X012854Y011690D01*
X012854Y011808D01*
X012795Y011867D01*
X012677Y011993D02*
X012677Y012229D01*
X012500Y012170D02*
X012854Y012170D01*
X012677Y011993D01*
X014137Y011958D02*
X014196Y011958D01*
X014432Y012194D01*
X014491Y012194D01*
X014491Y011958D01*
X014432Y011832D02*
X014491Y011773D01*
X014491Y011655D01*
X014432Y011596D01*
X014196Y011596D01*
X014137Y011655D01*
X014137Y011773D01*
X014196Y011832D01*
X015099Y010354D02*
X014863Y010118D01*
X014804Y010118D01*
X014804Y009991D02*
X014922Y009873D01*
X014922Y009932D02*
X014922Y009755D01*
X014804Y009755D02*
X015158Y009755D01*
X015158Y009932D01*
X015099Y009991D01*
X014981Y009991D01*
X014922Y009932D01*
X015158Y010118D02*
X015158Y010354D01*
X015099Y010354D01*
X020307Y011402D02*
X020383Y011478D01*
X020383Y011632D01*
X020537Y011632D02*
X020537Y011478D01*
X020460Y011402D01*
X020690Y011402D02*
X020767Y011402D01*
X020844Y011325D01*
X020921Y011402D01*
X020997Y011325D01*
X020997Y011095D01*
X020844Y011095D02*
X020844Y011325D01*
X020690Y011402D02*
X020690Y011095D01*
X021151Y011095D02*
X021304Y011095D01*
X021227Y011095D02*
X021227Y011402D01*
X021151Y011402D01*
X021227Y011555D02*
X021227Y011632D01*
X021151Y011845D02*
X021074Y011921D01*
X021074Y012075D01*
X021151Y012152D01*
X021304Y012152D01*
X021381Y012075D01*
X021381Y011998D01*
X021074Y011998D01*
X021151Y011845D02*
X021304Y011845D01*
X021534Y011845D02*
X021765Y011845D01*
X021841Y011921D01*
X021841Y012075D01*
X021765Y012152D01*
X021534Y012152D01*
X021534Y011691D01*
X021995Y011845D02*
X022148Y011845D01*
X022071Y011845D02*
X022071Y012305D01*
X021995Y012305D01*
X022378Y012152D02*
X022532Y012152D01*
X022609Y012075D01*
X022609Y011845D01*
X022378Y011845D01*
X022302Y011921D01*
X022378Y011998D01*
X022609Y011998D01*
X022762Y011921D02*
X022839Y011845D01*
X023069Y011845D01*
X023222Y011921D02*
X023222Y012075D01*
X023299Y012152D01*
X023453Y012152D01*
X023529Y012075D01*
X023529Y011998D01*
X023222Y011998D01*
X023222Y011921D02*
X023299Y011845D01*
X023453Y011845D01*
X023069Y012152D02*
X022839Y012152D01*
X022762Y012075D01*
X022762Y011921D01*
X022609Y011555D02*
X022455Y011555D01*
X022378Y011478D01*
X022609Y011555D02*
X022685Y011478D01*
X022685Y011402D01*
X022378Y011095D01*
X022685Y011095D01*
X022839Y011095D02*
X022916Y011095D01*
X022916Y011171D01*
X022839Y011171D01*
X022839Y011095D01*
X023069Y011095D02*
X023376Y011095D01*
X023529Y011095D02*
X023529Y011402D01*
X023606Y011402D01*
X023683Y011325D01*
X023760Y011402D01*
X023836Y011325D01*
X023836Y011095D01*
X023683Y011095D02*
X023683Y011325D01*
X023990Y011402D02*
X023990Y011095D01*
X024143Y011095D02*
X024143Y011325D01*
X024220Y011402D01*
X024297Y011325D01*
X024297Y011095D01*
X024143Y011325D02*
X024067Y011402D01*
X023990Y011402D01*
X023222Y011555D02*
X023222Y011095D01*
X023069Y011402D02*
X023222Y011555D01*
X024143Y011845D02*
X024143Y012152D01*
X024220Y012152D01*
X024297Y012075D01*
X024373Y012152D01*
X024450Y012075D01*
X024450Y011845D01*
X024297Y011845D02*
X024297Y012075D01*
X024604Y012152D02*
X024680Y012152D01*
X024680Y011845D01*
X024604Y011845D02*
X024757Y011845D01*
X024911Y011845D02*
X025064Y011845D01*
X024987Y011845D02*
X024987Y012305D01*
X024911Y012305D01*
X024680Y012305D02*
X024680Y012382D01*
X025217Y012305D02*
X025294Y012305D01*
X025294Y011845D01*
X025217Y011845D02*
X025371Y011845D01*
X025524Y011845D02*
X025678Y011845D01*
X025601Y011845D02*
X025601Y012152D01*
X025524Y012152D01*
X025601Y012305D02*
X025601Y012382D01*
X025831Y012152D02*
X026062Y012152D01*
X026138Y012075D01*
X026138Y011845D01*
X026292Y011921D02*
X026368Y011845D01*
X026599Y011845D01*
X026599Y011768D02*
X026599Y012152D01*
X026368Y012152D01*
X026292Y012075D01*
X026292Y011921D01*
X026445Y011691D02*
X026522Y011691D01*
X026599Y011768D01*
X026599Y011555D02*
X026752Y011555D01*
X026829Y011478D01*
X026829Y011402D01*
X026752Y011325D01*
X026599Y011325D01*
X026522Y011402D01*
X026522Y011478D01*
X026599Y011555D01*
X026599Y011325D02*
X026522Y011248D01*
X026522Y011171D01*
X026599Y011095D01*
X026752Y011095D01*
X026829Y011171D01*
X026829Y011248D01*
X026752Y011325D01*
X026982Y011402D02*
X027059Y011402D01*
X027136Y011325D01*
X027213Y011402D01*
X027289Y011325D01*
X027289Y011095D01*
X027136Y011095D02*
X027136Y011325D01*
X026982Y011402D02*
X026982Y011095D01*
X027443Y011095D02*
X027443Y011402D01*
X027519Y011402D01*
X027596Y011325D01*
X027673Y011402D01*
X027750Y011325D01*
X027750Y011095D01*
X027596Y011095D02*
X027596Y011325D01*
X027903Y011402D02*
X027980Y011478D01*
X027980Y011632D01*
X028133Y011632D02*
X028133Y011478D01*
X028057Y011402D01*
X028133Y011845D02*
X028057Y011921D01*
X028057Y012228D01*
X028133Y012152D02*
X027980Y012152D01*
X027750Y012152D02*
X027750Y011845D01*
X027826Y011845D02*
X027673Y011845D01*
X027519Y011921D02*
X027519Y012152D01*
X027673Y012152D02*
X027750Y012152D01*
X027750Y012305D02*
X027750Y012382D01*
X027213Y012152D02*
X027213Y011921D01*
X027289Y011845D01*
X027366Y011921D01*
X027443Y011845D01*
X027519Y011921D01*
X028287Y011845D02*
X028287Y012305D01*
X028364Y012152D02*
X028517Y012152D01*
X028594Y012075D01*
X028594Y011845D01*
X028287Y012075D02*
X028364Y012152D01*
X029208Y012075D02*
X029284Y011998D01*
X029438Y011998D01*
X029514Y011921D01*
X029438Y011845D01*
X029208Y011845D01*
X029208Y012075D02*
X029284Y012152D01*
X029514Y012152D01*
X029668Y012305D02*
X029745Y012305D01*
X029745Y011845D01*
X029821Y011845D02*
X029668Y011845D01*
X029975Y011921D02*
X029975Y012075D01*
X030052Y012152D01*
X030205Y012152D01*
X030282Y012075D01*
X030282Y011921D01*
X030205Y011845D01*
X030052Y011845D01*
X029975Y011921D01*
X030435Y012152D02*
X030589Y012152D01*
X030512Y012228D02*
X030512Y011921D01*
X030589Y011845D01*
X031203Y011921D02*
X031203Y012075D01*
X031279Y012152D01*
X031510Y012152D01*
X031663Y012152D02*
X031663Y011845D01*
X031663Y011998D02*
X031816Y012152D01*
X031893Y012152D01*
X032047Y012152D02*
X032123Y012152D01*
X032123Y011845D01*
X032047Y011845D02*
X032200Y011845D01*
X032354Y011845D02*
X032507Y011845D01*
X032430Y011845D02*
X032430Y012305D01*
X032354Y012305D01*
X032123Y012305D02*
X032123Y012382D01*
X032661Y012305D02*
X032737Y012305D01*
X032737Y011845D01*
X032661Y011845D02*
X032814Y011845D01*
X032967Y011845D02*
X033121Y011845D01*
X033044Y011845D02*
X033044Y012152D01*
X032967Y012152D01*
X033044Y012305D02*
X033044Y012382D01*
X033274Y012152D02*
X033505Y012152D01*
X033581Y012075D01*
X033581Y011845D01*
X033735Y011921D02*
X033811Y011845D01*
X034042Y011845D01*
X034042Y011768D02*
X034042Y012152D01*
X033811Y012152D01*
X033735Y012075D01*
X033735Y011921D01*
X033888Y011691D02*
X033965Y011691D01*
X034042Y011768D01*
X034656Y011845D02*
X034809Y011845D01*
X034732Y011845D02*
X034732Y012152D01*
X034656Y012152D01*
X034732Y012305D02*
X034732Y012382D01*
X035039Y012228D02*
X035116Y012305D01*
X035039Y012228D02*
X035039Y011845D01*
X034962Y012075D02*
X035116Y012075D01*
X035730Y012152D02*
X035730Y011845D01*
X035730Y011998D02*
X035883Y012152D01*
X035960Y012152D01*
X036113Y012075D02*
X036113Y011921D01*
X036190Y011845D01*
X036420Y011845D01*
X036420Y011691D02*
X036420Y012152D01*
X036190Y012152D01*
X036113Y012075D01*
X036574Y012075D02*
X036574Y011921D01*
X036651Y011845D01*
X036881Y011845D01*
X036881Y012305D01*
X036881Y012152D02*
X036651Y012152D01*
X036574Y012075D01*
X037034Y012152D02*
X037111Y012228D01*
X037111Y012382D01*
X037264Y012382D02*
X037264Y012228D01*
X037188Y012152D01*
X033274Y012152D02*
X033274Y011845D01*
X031510Y011845D02*
X031279Y011845D01*
X031203Y011921D01*
X031510Y011845D02*
X031510Y012305D01*
X026368Y011171D02*
X026368Y011095D01*
X026292Y011095D01*
X026292Y011171D01*
X026368Y011171D01*
X026138Y011095D02*
X025831Y011095D01*
X025985Y011095D02*
X025985Y011555D01*
X025831Y011402D01*
X025217Y011402D02*
X024911Y011095D01*
X025217Y011095D02*
X024911Y011402D01*
X025831Y011845D02*
X025831Y012152D01*
X021765Y011325D02*
X021765Y011095D01*
X021765Y011325D02*
X021688Y011402D01*
X021458Y011402D01*
X021458Y011095D01*
X020690Y011845D02*
X020690Y012152D01*
X020690Y011998D02*
X020844Y012152D01*
X020921Y012152D01*
X020537Y012228D02*
X020537Y012382D01*
X020537Y012228D02*
X020460Y012152D01*
X020383Y012228D02*
X020307Y012152D01*
X020383Y012228D02*
X020383Y012382D01*
X007997Y017152D02*
X007997Y017329D01*
X007938Y017388D01*
X007820Y017388D01*
X007761Y017329D01*
X007761Y017152D01*
X007761Y017270D02*
X007643Y017388D01*
X007643Y017515D02*
X007879Y017751D01*
X007938Y017751D01*
X007997Y017692D01*
X007997Y017574D01*
X007938Y017515D01*
X007643Y017515D02*
X007643Y017751D01*
X007036Y017621D02*
X006918Y017503D01*
X007036Y017621D02*
X006682Y017621D01*
X006682Y017503D02*
X006682Y017739D01*
X006682Y017377D02*
X006682Y017141D01*
X006682Y017259D02*
X007036Y017259D01*
X006918Y017141D01*
X006977Y017014D02*
X007036Y016955D01*
X007036Y016837D01*
X006977Y016778D01*
X006741Y016778D01*
X006682Y016837D01*
X006682Y016955D01*
X006741Y017014D01*
X006001Y017133D02*
X006001Y017310D01*
X005942Y017369D01*
X005824Y017369D01*
X005765Y017310D01*
X005765Y017133D01*
X005765Y017251D02*
X005647Y017369D01*
X005824Y017495D02*
X005824Y017731D01*
X006001Y017672D02*
X005824Y017495D01*
X005647Y017672D02*
X006001Y017672D01*
X006001Y017133D02*
X005647Y017133D01*
X004992Y017135D02*
X004992Y017312D01*
X004933Y017371D01*
X004815Y017371D01*
X004756Y017312D01*
X004756Y017135D01*
X004756Y017253D02*
X004638Y017371D01*
X004697Y017497D02*
X004638Y017556D01*
X004638Y017674D01*
X004697Y017733D01*
X004815Y017733D01*
X004874Y017674D01*
X004874Y017615D01*
X004815Y017497D01*
X004992Y017497D01*
X004992Y017733D01*
X004992Y017135D02*
X004638Y017135D01*
X004015Y017253D02*
X003661Y017253D01*
X003661Y017135D02*
X003661Y017371D01*
X003720Y017497D02*
X003661Y017556D01*
X003661Y017674D01*
X003720Y017733D01*
X003779Y017733D01*
X003838Y017674D01*
X003838Y017615D01*
X003838Y017674D02*
X003897Y017733D01*
X003956Y017733D01*
X004015Y017674D01*
X004015Y017556D01*
X003956Y017497D01*
X004015Y017253D02*
X003897Y017135D01*
X003956Y017008D02*
X004015Y016949D01*
X004015Y016831D01*
X003956Y016772D01*
X003720Y016772D01*
X003661Y016831D01*
X003661Y016949D01*
X003720Y017008D01*
X007643Y017152D02*
X007997Y017152D01*
X007369Y007033D02*
X007192Y007033D01*
X007133Y006974D01*
X007133Y006856D01*
X007192Y006797D01*
X007369Y006797D01*
X007251Y006797D02*
X007133Y006679D01*
X007007Y006679D02*
X006771Y006679D01*
X006889Y006679D02*
X006889Y007033D01*
X007007Y006915D01*
X007369Y007033D02*
X007369Y006679D01*
X003076Y006025D02*
X003076Y005907D01*
X003017Y005848D01*
X002958Y005848D01*
X002899Y005907D01*
X002899Y006025D01*
X002840Y006084D01*
X002781Y006084D01*
X002722Y006025D01*
X002722Y005907D01*
X002781Y005848D01*
X002840Y005848D01*
X002899Y005907D01*
X002899Y006025D02*
X002958Y006084D01*
X003017Y006084D01*
X003076Y006025D01*
X003017Y005721D02*
X002899Y005721D01*
X002840Y005662D01*
X002840Y005485D01*
X002722Y005485D02*
X003076Y005485D01*
X003076Y005662D01*
X003017Y005721D01*
X002840Y005603D02*
X002722Y005721D01*
X001690Y005164D02*
X001336Y005164D01*
X001336Y005282D02*
X001336Y005046D01*
X001336Y004920D02*
X001454Y004802D01*
X001336Y004684D01*
X001690Y004684D01*
X001690Y004557D02*
X001336Y004557D01*
X001336Y004380D01*
X001395Y004321D01*
X001513Y004321D01*
X001572Y004380D01*
X001572Y004557D01*
X001804Y004592D02*
X001804Y005026D01*
X001904Y005026D02*
X001904Y004592D01*
X002604Y004592D02*
X002604Y005026D01*
X001690Y004920D02*
X001336Y004920D01*
X001454Y004195D02*
X001336Y004077D01*
X001690Y004077D01*
X001690Y004195D02*
X001690Y003959D01*
X006294Y002931D02*
X006294Y002695D01*
X006353Y002636D01*
X006471Y002636D01*
X006530Y002695D01*
X006294Y002931D01*
X006353Y002990D01*
X006471Y002990D01*
X006530Y002931D01*
X006530Y002695D01*
X006656Y002636D02*
X006892Y002636D01*
X006774Y002636D02*
X006774Y002990D01*
X006892Y002872D01*
X007019Y002931D02*
X007078Y002990D01*
X007196Y002990D01*
X007255Y002931D01*
X007255Y002695D01*
X007196Y002636D01*
X007078Y002636D01*
X007019Y002695D01*
X006939Y000993D02*
X006821Y000993D01*
X006762Y000934D01*
X006762Y000875D01*
X006821Y000816D01*
X006762Y000757D01*
X006762Y000698D01*
X006821Y000639D01*
X006939Y000639D01*
X006998Y000698D01*
X006880Y000816D02*
X006821Y000816D01*
X006635Y000816D02*
X006635Y000698D01*
X006576Y000639D01*
X006399Y000639D01*
X006399Y000993D01*
X006399Y000875D02*
X006576Y000875D01*
X006635Y000816D01*
X006939Y000993D02*
X006998Y000934D01*
X007124Y000993D02*
X007360Y000639D01*
X007484Y000639D02*
X007602Y000639D01*
X007543Y000639D02*
X007543Y000993D01*
X007602Y000993D01*
X007728Y000875D02*
X007905Y000875D01*
X007964Y000816D01*
X007964Y000698D01*
X007905Y000639D01*
X007728Y000639D01*
X007728Y000580D02*
X007728Y000875D01*
X008087Y000698D02*
X008087Y000639D01*
X008146Y000639D01*
X008146Y000698D01*
X008087Y000698D01*
X008272Y000698D02*
X008272Y000816D01*
X008331Y000875D01*
X008449Y000875D01*
X008508Y000816D01*
X008508Y000698D01*
X008449Y000639D01*
X008331Y000639D01*
X008272Y000698D01*
X008635Y000698D02*
X008635Y000816D01*
X008694Y000875D01*
X008812Y000875D01*
X008871Y000816D01*
X008871Y000698D01*
X008812Y000639D01*
X008694Y000639D01*
X008635Y000698D01*
X008997Y000639D02*
X009174Y000639D01*
X009233Y000698D01*
X009233Y000816D01*
X009174Y000875D01*
X008997Y000875D01*
X008997Y000580D01*
X009056Y000521D01*
X009115Y000521D01*
X009596Y000639D02*
X009360Y000993D01*
X009722Y000993D02*
X009958Y000639D01*
X010080Y000639D02*
X010139Y000639D01*
X010139Y000698D01*
X010080Y000698D01*
X010080Y000639D01*
X010080Y000816D02*
X010139Y000816D01*
X010139Y000875D01*
X010080Y000875D01*
X010080Y000816D01*
X010266Y000816D02*
X010266Y000698D01*
X010325Y000639D01*
X010502Y000639D01*
X010502Y000521D02*
X010502Y000875D01*
X010325Y000875D01*
X010266Y000816D01*
X010626Y000875D02*
X010744Y000875D01*
X010685Y000934D02*
X010685Y000698D01*
X010626Y000639D01*
X010867Y000639D02*
X010926Y000698D01*
X010926Y000934D01*
X010985Y000875D02*
X010867Y000875D01*
X011112Y000816D02*
X011112Y000639D01*
X011112Y000816D02*
X011171Y000875D01*
X011289Y000875D01*
X011348Y000816D01*
X011348Y000993D02*
X011348Y000639D01*
X011832Y000639D02*
X011891Y000639D01*
X011891Y000698D01*
X011832Y000698D01*
X011832Y000639D01*
X011832Y000816D02*
X011891Y000816D01*
X011891Y000875D01*
X011832Y000875D01*
X011832Y000816D01*
X012018Y000816D02*
X012018Y000757D01*
X012254Y000757D01*
X012254Y000698D02*
X012254Y000816D01*
X012195Y000875D01*
X012077Y000875D01*
X012018Y000816D01*
X012077Y000639D02*
X012195Y000639D01*
X012254Y000698D01*
X012381Y000698D02*
X012440Y000757D01*
X012558Y000757D01*
X012617Y000816D01*
X012558Y000875D01*
X012381Y000875D01*
X012381Y000698D02*
X012440Y000639D01*
X012617Y000639D01*
X012743Y000639D02*
X012743Y000816D01*
X012802Y000875D01*
X012979Y000875D01*
X012979Y000639D01*
X013106Y000757D02*
X013342Y000757D01*
X013342Y000698D02*
X013342Y000816D01*
X013283Y000875D01*
X013165Y000875D01*
X013106Y000816D01*
X013106Y000757D01*
X013165Y000639D02*
X013283Y000639D01*
X013342Y000698D01*
X013468Y000639D02*
X013645Y000639D01*
X013704Y000698D01*
X013704Y000816D01*
X013645Y000875D01*
X013468Y000875D01*
X013887Y000875D02*
X013887Y000639D01*
X013946Y000639D02*
X013828Y000639D01*
X013887Y000875D02*
X013946Y000875D01*
X013887Y000993D02*
X013887Y001052D01*
X014308Y000993D02*
X014308Y000639D01*
X014072Y000639D01*
X011272Y002673D02*
X011213Y002614D01*
X011095Y002614D01*
X011036Y002673D01*
X010910Y002614D02*
X010674Y002614D01*
X010792Y002614D02*
X010792Y002968D01*
X010910Y002850D01*
X011036Y002909D02*
X011095Y002968D01*
X011213Y002968D01*
X011272Y002909D01*
X011272Y002673D01*
X010547Y002614D02*
X010311Y002850D01*
X010311Y002909D01*
X010370Y002968D01*
X010488Y002968D01*
X010547Y002909D01*
X010547Y002614D02*
X010311Y002614D01*
X011731Y003692D02*
X011790Y003633D01*
X011908Y003633D01*
X011967Y003692D01*
X012094Y003692D02*
X012153Y003633D01*
X012271Y003633D01*
X012330Y003692D01*
X012330Y003928D01*
X012271Y003987D01*
X012153Y003987D01*
X012094Y003928D01*
X011967Y003928D02*
X011967Y003869D01*
X011908Y003810D01*
X011731Y003810D01*
X011731Y003692D02*
X011731Y003928D01*
X011790Y003987D01*
X011908Y003987D01*
X011967Y003928D01*
X006273Y000993D02*
X006037Y000993D01*
X006037Y000934D01*
X006273Y000698D01*
X006273Y000639D01*
X005910Y000639D02*
X005674Y000639D01*
X005792Y000639D02*
X005792Y000993D01*
X005910Y000875D01*
X005547Y000993D02*
X005547Y000698D01*
X005488Y000639D01*
X005370Y000639D01*
X005311Y000698D01*
X005311Y000993D01*
X005067Y000993D02*
X004949Y000993D01*
X005008Y000993D02*
X005008Y000698D01*
X005067Y000639D01*
X005126Y000639D01*
X005185Y000698D01*
X007728Y000580D02*
X007787Y000521D01*
X007846Y000521D01*
D12*
X008096Y006414D02*
X008096Y007595D01*
X008135Y007202D02*
X008162Y007200D01*
X008188Y007195D01*
X008213Y007186D01*
X008237Y007173D01*
X008259Y007158D01*
X008279Y007139D01*
X008296Y007119D01*
X008310Y007096D01*
X008321Y007071D01*
X008328Y007045D01*
X008332Y007018D01*
X008332Y006992D01*
X008328Y006965D01*
X008321Y006939D01*
X008310Y006914D01*
X008296Y006891D01*
X008279Y006871D01*
X008259Y006852D01*
X008237Y006837D01*
X008213Y006824D01*
X008188Y006815D01*
X008162Y006810D01*
X008135Y006808D01*
X009080Y006414D02*
X010183Y006414D01*
X011167Y006414D02*
X011167Y007595D01*
X010183Y007595D02*
X009080Y007595D01*
X010169Y011378D02*
X010760Y011378D01*
X010169Y011378D02*
X010169Y012323D01*
X010760Y012323D01*
X011547Y012323D02*
X011980Y012323D01*
X012138Y012166D01*
X012138Y011536D01*
X011980Y011378D01*
X011547Y011378D01*
X009959Y012657D02*
X016259Y012657D01*
X014093Y013838D02*
X014093Y015216D01*
X012715Y015216D01*
X012715Y013838D01*
X014093Y013838D01*
X012322Y014488D02*
X011062Y014488D01*
X011062Y016456D01*
X012322Y016456D01*
X012322Y014488D01*
X006926Y012576D02*
X006926Y012365D01*
X006776Y011910D02*
X006438Y011910D01*
X006438Y013030D02*
X006776Y013030D01*
X009959Y018956D02*
X016259Y018956D01*
D13*
X011824Y016290D02*
X011559Y016290D01*
X011559Y016246D02*
X011559Y016334D01*
X011559Y016133D02*
X011559Y016000D01*
X011603Y015956D01*
X011648Y016000D01*
X011648Y016133D01*
X011692Y016133D02*
X011559Y016133D01*
X011692Y016133D02*
X011736Y016088D01*
X011736Y016000D01*
X011736Y015851D02*
X011736Y015762D01*
X011780Y015807D02*
X011603Y015807D01*
X011559Y015851D01*
X011603Y015649D02*
X011648Y015605D01*
X011648Y015517D01*
X011692Y015472D01*
X011736Y015517D01*
X011736Y015649D01*
X011603Y015649D02*
X011559Y015605D01*
X011559Y015472D01*
X011559Y015359D02*
X011559Y015227D01*
X011603Y015182D01*
X011736Y015182D01*
X011736Y015073D02*
X011736Y015029D01*
X011648Y014941D01*
X011736Y014941D02*
X011559Y014941D01*
X011603Y014827D02*
X011559Y014783D01*
X011559Y014695D01*
X011603Y014651D01*
X011780Y014651D01*
X011824Y014695D01*
X011824Y014783D01*
X011780Y014827D01*
X011471Y015271D02*
X011471Y015315D01*
X011515Y015359D01*
X011736Y015359D01*
X011824Y016246D02*
X011824Y016290D01*
X013230Y014680D02*
X013319Y014680D01*
X013363Y014635D01*
X013363Y014459D01*
X013319Y014414D01*
X013230Y014414D01*
X013186Y014459D01*
X013186Y014635D02*
X013230Y014680D01*
X013468Y014680D02*
X013556Y014680D01*
X013512Y014680D02*
X013512Y014414D01*
X013556Y014414D02*
X013468Y014414D01*
X011303Y012251D02*
X011303Y011451D01*
X009423Y007429D02*
X009423Y007129D01*
X009423Y007279D02*
X009873Y007279D01*
X009723Y007129D01*
X009798Y006969D02*
X009498Y006969D01*
X009423Y006894D01*
X009423Y006744D01*
X009498Y006669D01*
X009798Y006669D01*
X009873Y006744D01*
X009873Y006894D01*
X009798Y006969D01*
X009573Y006819D02*
X009423Y006969D01*
D14*
X011467Y017975D02*
X011817Y017975D01*
X011817Y018675D01*
X011467Y018675D01*
X011350Y018558D01*
X011350Y018442D01*
X011467Y018325D01*
X011817Y018325D01*
X012050Y018442D02*
X012050Y018558D01*
X012167Y018675D01*
X012400Y018675D01*
X012517Y018558D01*
X012750Y018558D02*
X012866Y018675D01*
X013100Y018675D01*
X013217Y018558D01*
X013450Y018675D02*
X013450Y017975D01*
X013217Y017975D02*
X012750Y018442D01*
X012750Y018558D01*
X012750Y017975D02*
X013217Y017975D01*
X013917Y017975D02*
X013917Y018675D01*
X013683Y018442D01*
X013450Y018675D01*
X014149Y018675D02*
X014616Y018675D01*
X014616Y017975D01*
X014849Y017975D02*
X015083Y018208D01*
X014966Y018208D02*
X015316Y018208D01*
X015316Y017975D02*
X015316Y018675D01*
X014966Y018675D01*
X014849Y018558D01*
X014849Y018325D01*
X014966Y018208D01*
X014616Y018325D02*
X014383Y018325D01*
X012517Y017975D02*
X012050Y018442D01*
X011467Y018325D02*
X011350Y018208D01*
X011350Y018091D01*
X011467Y017975D01*
X012050Y017975D02*
X012517Y017975D01*
D15*
X009011Y017686D02*
X008950Y017747D01*
X008708Y017504D01*
X008647Y017565D01*
X008647Y017686D01*
X008708Y017747D01*
X008950Y017747D01*
X009011Y017686D02*
X009011Y017565D01*
X008950Y017504D01*
X008708Y017504D01*
X008647Y017384D02*
X008647Y017142D01*
X008647Y017022D02*
X008768Y016900D01*
X008768Y016961D02*
X008768Y016779D01*
X008647Y016779D02*
X009011Y016779D01*
X009011Y016961D01*
X008950Y017022D01*
X008829Y017022D01*
X008768Y016961D01*
X008890Y017142D02*
X009011Y017263D01*
X008647Y017263D01*
X013248Y007645D02*
X013491Y007645D01*
X013552Y007584D01*
X013552Y007463D01*
X013491Y007402D01*
X013430Y007402D01*
X013370Y007463D01*
X013370Y007645D01*
X013248Y007645D02*
X013188Y007584D01*
X013188Y007463D01*
X013248Y007402D01*
X013188Y007282D02*
X013309Y007161D01*
X013309Y007222D02*
X013309Y007040D01*
X013188Y007040D02*
X013552Y007040D01*
X013552Y007222D01*
X013491Y007282D01*
X013370Y007282D01*
X013309Y007222D01*
X002214Y006102D02*
X002154Y005981D01*
X002032Y005860D01*
X002032Y006042D01*
X001972Y006102D01*
X001911Y006102D01*
X001850Y006042D01*
X001850Y005920D01*
X001911Y005860D01*
X002032Y005860D01*
X002032Y005740D02*
X001972Y005679D01*
X001972Y005497D01*
X001972Y005619D02*
X001850Y005740D01*
X002032Y005740D02*
X002154Y005740D01*
X002214Y005679D01*
X002214Y005497D01*
X001850Y005497D01*
M02*
