G75*
%MOIN*%
%OFA0B0*%
%FSLAX24Y24*%
%IPPOS*%
%LPD*%
%AMOC8*
5,1,8,0,0,1.08239X$1,22.5*
%
%ADD10C,0.0000*%
%ADD11OC8,0.0850*%
%ADD12C,0.0520*%
%ADD13C,0.0560*%
%ADD14C,0.0104*%
%ADD15OC8,0.0660*%
%ADD16OC8,0.0700*%
%ADD17C,0.0885*%
%ADD18C,0.0660*%
%ADD19R,0.1102X0.1102*%
%ADD20C,0.0600*%
%ADD21C,0.0650*%
%ADD22R,0.0112X0.0276*%
%ADD23C,0.0160*%
%ADD24C,0.0317*%
%ADD25C,0.0110*%
%ADD26C,0.0500*%
%ADD27C,0.0100*%
%ADD28C,0.0080*%
%ADD29C,0.1660*%
D10*
X000350Y000350D02*
X000350Y020035D01*
X020035Y020035D01*
X020035Y000350D01*
X000350Y000350D01*
X001267Y008344D02*
X001269Y008373D01*
X001275Y008401D01*
X001284Y008429D01*
X001297Y008455D01*
X001314Y008478D01*
X001333Y008500D01*
X001355Y008519D01*
X001380Y008534D01*
X001406Y008547D01*
X001434Y008555D01*
X001462Y008560D01*
X001491Y008561D01*
X001520Y008558D01*
X001548Y008551D01*
X001575Y008541D01*
X001601Y008527D01*
X001624Y008510D01*
X001645Y008490D01*
X001663Y008467D01*
X001678Y008442D01*
X001689Y008415D01*
X001697Y008387D01*
X001701Y008358D01*
X001701Y008330D01*
X001697Y008301D01*
X001689Y008273D01*
X001678Y008246D01*
X001663Y008221D01*
X001645Y008198D01*
X001624Y008178D01*
X001601Y008161D01*
X001575Y008147D01*
X001548Y008137D01*
X001520Y008130D01*
X001491Y008127D01*
X001462Y008128D01*
X001434Y008133D01*
X001406Y008141D01*
X001380Y008154D01*
X001355Y008169D01*
X001333Y008188D01*
X001314Y008210D01*
X001297Y008233D01*
X001284Y008259D01*
X001275Y008287D01*
X001269Y008315D01*
X001267Y008344D01*
X001267Y009344D02*
X001269Y009373D01*
X001275Y009401D01*
X001284Y009429D01*
X001297Y009455D01*
X001314Y009478D01*
X001333Y009500D01*
X001355Y009519D01*
X001380Y009534D01*
X001406Y009547D01*
X001434Y009555D01*
X001462Y009560D01*
X001491Y009561D01*
X001520Y009558D01*
X001548Y009551D01*
X001575Y009541D01*
X001601Y009527D01*
X001624Y009510D01*
X001645Y009490D01*
X001663Y009467D01*
X001678Y009442D01*
X001689Y009415D01*
X001697Y009387D01*
X001701Y009358D01*
X001701Y009330D01*
X001697Y009301D01*
X001689Y009273D01*
X001678Y009246D01*
X001663Y009221D01*
X001645Y009198D01*
X001624Y009178D01*
X001601Y009161D01*
X001575Y009147D01*
X001548Y009137D01*
X001520Y009130D01*
X001491Y009127D01*
X001462Y009128D01*
X001434Y009133D01*
X001406Y009141D01*
X001380Y009154D01*
X001355Y009169D01*
X001333Y009188D01*
X001314Y009210D01*
X001297Y009233D01*
X001284Y009259D01*
X001275Y009287D01*
X001269Y009315D01*
X001267Y009344D01*
X001259Y010670D02*
X001261Y010699D01*
X001267Y010727D01*
X001276Y010755D01*
X001289Y010781D01*
X001306Y010804D01*
X001325Y010826D01*
X001347Y010845D01*
X001372Y010860D01*
X001398Y010873D01*
X001426Y010881D01*
X001454Y010886D01*
X001483Y010887D01*
X001512Y010884D01*
X001540Y010877D01*
X001567Y010867D01*
X001593Y010853D01*
X001616Y010836D01*
X001637Y010816D01*
X001655Y010793D01*
X001670Y010768D01*
X001681Y010741D01*
X001689Y010713D01*
X001693Y010684D01*
X001693Y010656D01*
X001689Y010627D01*
X001681Y010599D01*
X001670Y010572D01*
X001655Y010547D01*
X001637Y010524D01*
X001616Y010504D01*
X001593Y010487D01*
X001567Y010473D01*
X001540Y010463D01*
X001512Y010456D01*
X001483Y010453D01*
X001454Y010454D01*
X001426Y010459D01*
X001398Y010467D01*
X001372Y010480D01*
X001347Y010495D01*
X001325Y010514D01*
X001306Y010536D01*
X001289Y010559D01*
X001276Y010585D01*
X001267Y010613D01*
X001261Y010641D01*
X001259Y010670D01*
X001259Y011670D02*
X001261Y011699D01*
X001267Y011727D01*
X001276Y011755D01*
X001289Y011781D01*
X001306Y011804D01*
X001325Y011826D01*
X001347Y011845D01*
X001372Y011860D01*
X001398Y011873D01*
X001426Y011881D01*
X001454Y011886D01*
X001483Y011887D01*
X001512Y011884D01*
X001540Y011877D01*
X001567Y011867D01*
X001593Y011853D01*
X001616Y011836D01*
X001637Y011816D01*
X001655Y011793D01*
X001670Y011768D01*
X001681Y011741D01*
X001689Y011713D01*
X001693Y011684D01*
X001693Y011656D01*
X001689Y011627D01*
X001681Y011599D01*
X001670Y011572D01*
X001655Y011547D01*
X001637Y011524D01*
X001616Y011504D01*
X001593Y011487D01*
X001567Y011473D01*
X001540Y011463D01*
X001512Y011456D01*
X001483Y011453D01*
X001454Y011454D01*
X001426Y011459D01*
X001398Y011467D01*
X001372Y011480D01*
X001347Y011495D01*
X001325Y011514D01*
X001306Y011536D01*
X001289Y011559D01*
X001276Y011585D01*
X001267Y011613D01*
X001261Y011641D01*
X001259Y011670D01*
D11*
X005350Y010143D03*
X007280Y009422D03*
X014277Y006729D03*
X017168Y018666D03*
D12*
X016317Y005065D02*
X016317Y004545D01*
X015317Y004545D02*
X015317Y005065D01*
X014317Y005065D02*
X014317Y004545D01*
X013317Y004545D02*
X013317Y005065D01*
X012317Y005065D02*
X012317Y004545D01*
X011317Y004545D02*
X011317Y005065D01*
X010317Y005065D02*
X010317Y004545D01*
X009317Y004545D02*
X009317Y005065D01*
X008317Y005065D02*
X008317Y004545D01*
X007317Y004545D02*
X007317Y005065D01*
X006317Y005065D02*
X006317Y004545D01*
X005317Y004545D02*
X005317Y005065D01*
X004317Y005065D02*
X004317Y004545D01*
X003317Y004545D02*
X003317Y005065D01*
X003317Y002065D02*
X003317Y001545D01*
X004317Y001545D02*
X004317Y002065D01*
X005317Y002065D02*
X005317Y001545D01*
X006317Y001545D02*
X006317Y002065D01*
X007317Y002065D02*
X007317Y001545D01*
X008317Y001545D02*
X008317Y002065D01*
X009317Y002065D02*
X009317Y001545D01*
X010317Y001545D02*
X010317Y002065D01*
X011317Y002065D02*
X011317Y001545D01*
X012317Y001545D02*
X012317Y002065D01*
X013317Y002065D02*
X013317Y001545D01*
X014317Y001545D02*
X014317Y002065D01*
X015317Y002065D02*
X015317Y001545D01*
X016317Y001545D02*
X016317Y002065D01*
D13*
X007916Y013783D02*
X007916Y014343D01*
X006916Y014343D02*
X006916Y013783D01*
X005021Y013790D02*
X005021Y014350D01*
X004021Y014350D02*
X004021Y013790D01*
D14*
X004998Y007072D02*
X004946Y007020D01*
X004946Y007192D01*
X005067Y007313D01*
X005239Y007313D01*
X005360Y007192D01*
X005360Y007020D01*
X005239Y006899D01*
X005067Y006899D01*
X004946Y007020D01*
X005024Y007052D01*
X005024Y007160D01*
X005099Y007235D01*
X005207Y007235D01*
X005282Y007160D01*
X005282Y007052D01*
X005207Y006977D01*
X005099Y006977D01*
X005024Y007052D01*
X005102Y007085D01*
X005102Y007127D01*
X005132Y007157D01*
X005174Y007157D01*
X005204Y007127D01*
X005204Y007085D01*
X005174Y007055D01*
X005132Y007055D01*
X005102Y007085D01*
X004998Y006082D02*
X004946Y006030D01*
X004946Y006202D01*
X005067Y006323D01*
X005239Y006323D01*
X005360Y006202D01*
X005360Y006030D01*
X005239Y005909D01*
X005067Y005909D01*
X004946Y006030D01*
X005024Y006062D01*
X005024Y006170D01*
X005099Y006245D01*
X005207Y006245D01*
X005282Y006170D01*
X005282Y006062D01*
X005207Y005987D01*
X005099Y005987D01*
X005024Y006062D01*
X005102Y006095D01*
X005102Y006137D01*
X005132Y006167D01*
X005174Y006167D01*
X005204Y006137D01*
X005204Y006095D01*
X005174Y006065D01*
X005132Y006065D01*
X005102Y006095D01*
D15*
X018157Y012502D03*
X019157Y012502D03*
D16*
X018753Y015208D03*
X018753Y016988D03*
X018753Y005177D03*
X018753Y003397D03*
D17*
X017773Y002907D03*
X017773Y005667D03*
X017773Y014718D03*
X017773Y017478D03*
D18*
X018568Y009996D03*
X018568Y009011D03*
X018568Y008027D03*
D19*
X017268Y007043D03*
X017268Y010980D03*
D20*
X008804Y015289D02*
X008804Y015889D01*
X007804Y015889D02*
X007804Y015289D01*
X006804Y015289D02*
X006804Y015889D01*
X005804Y015889D02*
X005804Y015289D01*
X004804Y015289D02*
X004804Y015889D01*
X003804Y015889D02*
X003804Y015289D01*
D21*
X002801Y011670D02*
X002151Y011670D01*
X002151Y010670D02*
X002801Y010670D01*
X002809Y009344D02*
X002160Y009344D01*
X002160Y008344D02*
X002809Y008344D01*
D22*
X001804Y006336D03*
X001696Y006336D03*
X001588Y006336D03*
X001481Y006336D03*
X001374Y006336D03*
X001588Y006148D03*
X001588Y005953D03*
X001785Y005953D03*
X001892Y005953D03*
X001999Y005953D03*
X002105Y005953D03*
X002214Y005953D03*
X002321Y005953D03*
X002320Y005304D03*
X002213Y005304D03*
X002104Y005304D03*
X001998Y005305D03*
X001891Y005305D03*
X001785Y005303D03*
X001588Y005303D03*
X001391Y005303D03*
X001286Y005304D03*
X001179Y005304D03*
X001070Y005304D03*
X000964Y005304D03*
X000857Y005304D03*
X001374Y004920D03*
X001481Y004920D03*
X001588Y004920D03*
X001696Y004920D03*
X001804Y004920D03*
X001588Y005083D03*
X001391Y005953D03*
X001282Y005953D03*
X001175Y005953D03*
X001066Y005953D03*
X000960Y005953D03*
X000853Y005953D03*
D23*
X000728Y005602D02*
X000633Y005507D01*
X000633Y005019D01*
X001460Y004193D01*
X001728Y004193D01*
X002476Y004941D01*
X002610Y004807D01*
X002476Y004941D02*
X003295Y005759D01*
X003295Y008547D01*
X002492Y009350D01*
X002484Y009344D01*
X006508Y010536D02*
X007466Y011591D01*
X008158Y011591D02*
X008159Y012774D01*
X008372Y013073D01*
X009111Y012837D01*
X009681Y012477D01*
X008372Y013073D02*
X008381Y013114D01*
X007917Y014059D02*
X007916Y014063D01*
X007917Y014059D02*
X009909Y014068D01*
X011082Y012923D01*
X011084Y011098D01*
X011079Y010769D01*
X011153Y010736D01*
X011358Y010736D01*
X011476Y010618D01*
X011550Y010584D01*
X011553Y010274D01*
X011553Y009691D01*
X012816Y008534D01*
X016385Y008690D02*
X016376Y008165D01*
X007830Y008130D01*
X007071Y007370D01*
X007071Y007137D01*
X006929Y007137D01*
X006929Y007082D01*
X005193Y006114D02*
X005153Y006116D01*
X005193Y006114D02*
X004319Y005240D01*
X004319Y004807D01*
X004317Y004805D01*
X008090Y002437D02*
X008145Y002492D01*
X009626Y002492D01*
X010311Y001807D01*
X010317Y001805D01*
X008090Y002437D02*
X007842Y002408D01*
X008720Y003849D02*
X009279Y003322D01*
X017973Y008690D02*
X018229Y008268D01*
X018568Y008027D01*
X017973Y008690D02*
X016385Y008690D01*
X004075Y013267D02*
X004011Y013200D01*
X003176Y012352D01*
X002476Y011670D01*
X004075Y013267D02*
X004074Y014004D01*
X004021Y014070D01*
D24*
X004075Y013267D03*
X006626Y013126D03*
X007845Y013263D03*
X008381Y013114D03*
X008673Y013445D03*
X009101Y013299D03*
X008538Y012625D03*
X009681Y012477D03*
X008158Y011591D03*
X008358Y011060D03*
X007466Y011591D03*
X006572Y011109D03*
X006508Y010536D03*
X011084Y011098D03*
X012297Y010239D03*
X012941Y010955D03*
X012326Y009468D03*
X012816Y008534D03*
X012573Y007573D03*
X007818Y007611D03*
X006929Y007082D03*
X002684Y006056D03*
X001329Y006778D03*
X001122Y007437D03*
X000720Y007437D03*
X002610Y004807D03*
X001595Y004511D03*
X002988Y003881D03*
X001834Y003842D03*
X006286Y002741D03*
X007842Y002408D03*
X009279Y003322D03*
X008720Y003849D03*
X015921Y010932D03*
X016735Y011998D03*
X016926Y014596D03*
X016918Y015799D03*
X008304Y018805D03*
X007214Y018608D03*
X007472Y017573D03*
X006543Y016434D03*
D25*
X002684Y006056D02*
X002561Y005957D01*
X002561Y005953D01*
X001785Y005953D01*
X001588Y005953D02*
X001588Y005626D01*
X001389Y005627D01*
X001334Y005602D01*
X000728Y005602D01*
X001389Y005627D02*
X001390Y005336D01*
X001588Y005303D02*
X001592Y005303D01*
X001597Y004851D01*
X001595Y004511D01*
D26*
X001138Y004338D02*
X000700Y004338D01*
X001107Y004414D02*
X001107Y004527D01*
X001038Y004596D01*
X000988Y004717D01*
X000988Y004836D01*
X000949Y004836D01*
X000948Y004836D01*
X000735Y004836D01*
X000700Y004851D01*
X000700Y002251D01*
X000752Y002281D01*
X001047Y002360D01*
X001353Y002360D01*
X001648Y002281D01*
X001912Y002128D01*
X002128Y001912D01*
X002281Y001648D01*
X002360Y001353D01*
X002360Y001047D01*
X002281Y000752D01*
X002251Y000700D01*
X018136Y000700D01*
X018099Y000765D01*
X018019Y001060D01*
X018019Y001365D01*
X018099Y001660D01*
X018251Y001924D01*
X018467Y002140D01*
X018732Y002293D01*
X019027Y002372D01*
X019332Y002372D01*
X019627Y002293D01*
X019685Y002260D01*
X019685Y012096D01*
X019430Y011842D01*
X018884Y011842D01*
X018657Y012068D01*
X018430Y011842D01*
X017932Y011842D01*
X018007Y011811D01*
X018099Y011718D01*
X018150Y011597D01*
X018150Y010532D01*
X018189Y010562D01*
X018266Y010607D01*
X018349Y010641D01*
X018435Y010664D01*
X018523Y010676D01*
X018568Y010676D01*
X018568Y009996D01*
X018568Y009996D01*
X019248Y009996D01*
X019248Y010040D01*
X019236Y010129D01*
X019213Y010215D01*
X019179Y010297D01*
X019134Y010374D01*
X019080Y010445D01*
X019017Y010508D01*
X018946Y010562D01*
X018869Y010607D01*
X018787Y010641D01*
X018701Y010664D01*
X018612Y010676D01*
X018568Y010676D01*
X018568Y009996D01*
X018568Y009996D01*
X019248Y009996D01*
X019248Y009951D01*
X019236Y009863D01*
X019213Y009777D01*
X019179Y009694D01*
X019134Y009617D01*
X019080Y009546D01*
X019023Y009489D01*
X019127Y009385D01*
X019228Y009143D01*
X019228Y008880D01*
X019227Y008878D01*
X019333Y008772D01*
X019389Y008636D01*
X019389Y007839D01*
X019391Y006423D01*
X019391Y006423D01*
X019391Y006349D01*
X019391Y006276D01*
X019391Y006276D01*
X019391Y006276D01*
X019362Y006208D01*
X019334Y006140D01*
X019334Y006140D01*
X019334Y006140D01*
X019282Y006088D01*
X019230Y006036D01*
X019230Y006036D01*
X019230Y006036D01*
X019163Y006008D01*
X019095Y005979D01*
X019094Y005979D01*
X019094Y005979D01*
X019021Y005979D01*
X018947Y005979D01*
X018947Y005979D01*
X018480Y005979D01*
X018531Y005857D01*
X019035Y005857D01*
X019433Y005459D01*
X019433Y004895D01*
X019035Y004497D01*
X018472Y004497D01*
X018073Y004895D01*
X018073Y004955D01*
X017927Y004895D01*
X017620Y004895D01*
X017336Y005012D01*
X017118Y005229D01*
X017001Y005513D01*
X017001Y005821D01*
X017046Y005931D01*
X016303Y005841D01*
X016303Y005655D01*
X016435Y005655D01*
X016651Y005565D01*
X016817Y005399D01*
X016907Y005183D01*
X016907Y004428D01*
X016817Y004211D01*
X016651Y004045D01*
X016435Y003955D01*
X016200Y003955D01*
X015983Y004045D01*
X015933Y004095D01*
X015790Y003951D01*
X015790Y003951D01*
X015686Y003847D01*
X015550Y003791D01*
X015023Y003791D01*
X013724Y002492D01*
X013817Y002400D01*
X013983Y002565D01*
X014200Y002655D01*
X014435Y002655D01*
X014651Y002565D01*
X014817Y002400D01*
X014983Y002565D01*
X015200Y002655D01*
X015435Y002655D01*
X015651Y002565D01*
X015817Y002400D01*
X015983Y002565D01*
X016200Y002655D01*
X016435Y002655D01*
X016651Y002565D01*
X016817Y002399D01*
X016907Y002183D01*
X016907Y001428D01*
X016817Y001211D01*
X016651Y001045D01*
X016435Y000955D01*
X016200Y000955D01*
X015983Y001045D01*
X015933Y001095D01*
X015790Y000951D01*
X015686Y000847D01*
X015550Y000791D01*
X007087Y000791D01*
X006951Y000847D01*
X006703Y001096D01*
X006651Y001045D01*
X006435Y000955D01*
X006200Y000955D01*
X005983Y001045D01*
X005817Y001211D01*
X005651Y001045D01*
X005435Y000955D01*
X005200Y000955D01*
X004983Y001045D01*
X004817Y001211D01*
X004651Y001045D01*
X004435Y000955D01*
X004200Y000955D01*
X003983Y001045D01*
X003817Y001211D01*
X003651Y001045D01*
X003435Y000955D01*
X003200Y000955D01*
X002983Y001045D01*
X002817Y001211D01*
X002727Y001428D01*
X002727Y002183D01*
X002817Y002399D01*
X002983Y002565D01*
X003200Y002655D01*
X003334Y002655D01*
X003334Y003537D01*
X003265Y003467D01*
X003085Y003393D01*
X002891Y003393D01*
X002711Y003467D01*
X002678Y003500D01*
X002166Y003483D01*
X002111Y003428D01*
X001931Y003353D01*
X001737Y003353D01*
X001557Y003428D01*
X001420Y003565D01*
X001346Y003744D01*
X001346Y003939D01*
X001398Y004064D01*
X001318Y004097D01*
X001181Y004234D01*
X001107Y004414D01*
X000734Y004837D02*
X000700Y004837D01*
X002083Y004540D02*
X002083Y004414D01*
X002032Y004289D01*
X002111Y004256D01*
X002144Y004222D01*
X002656Y004240D01*
X002711Y004295D01*
X002772Y004320D01*
X002727Y004428D01*
X002727Y005044D01*
X002706Y005016D01*
X002681Y005001D01*
X002661Y004981D01*
X002654Y004978D01*
X002563Y004887D01*
X002442Y004837D01*
X002226Y004837D01*
X002226Y004837D01*
X002190Y004837D01*
X002190Y004717D01*
X002139Y004595D01*
X002083Y004540D01*
X002052Y004338D02*
X002765Y004338D01*
X002727Y004837D02*
X002190Y004837D01*
X001346Y003840D02*
X000700Y003840D01*
X000700Y003341D02*
X003334Y003341D01*
X003334Y002843D02*
X000700Y002843D01*
X000700Y002344D02*
X000988Y002344D01*
X001412Y002344D02*
X002794Y002344D01*
X002727Y001846D02*
X002167Y001846D01*
X002360Y001347D02*
X002761Y001347D01*
X002307Y000849D02*
X006950Y000849D01*
X007817Y002400D02*
X007651Y002565D01*
X007435Y002655D01*
X007307Y002655D01*
X007317Y003695D01*
X007323Y003750D01*
X007318Y003768D01*
X007318Y003787D01*
X007297Y003838D01*
X007281Y003892D01*
X007270Y003906D01*
X007263Y003923D01*
X007231Y003955D01*
X007435Y003955D01*
X007651Y004045D01*
X007817Y004211D01*
X007983Y004045D01*
X008200Y003955D01*
X008435Y003955D01*
X008651Y004045D01*
X008811Y004204D01*
X008852Y004148D01*
X008920Y004080D01*
X008998Y004024D01*
X009083Y003980D01*
X009174Y003950D01*
X009269Y003935D01*
X009317Y003935D01*
X009317Y004805D01*
X008907Y004805D01*
X008907Y004805D01*
X009317Y004805D01*
X009317Y004805D01*
X009317Y004805D01*
X009317Y003935D01*
X009365Y003935D01*
X009460Y003950D01*
X009551Y003980D01*
X009637Y004024D01*
X009715Y004080D01*
X009717Y004082D01*
X010941Y002858D01*
X010941Y002523D01*
X010824Y002406D01*
X010783Y002463D01*
X010715Y002531D01*
X010637Y002587D01*
X010551Y002631D01*
X010460Y002660D01*
X010365Y002675D01*
X010317Y002675D01*
X010269Y002675D01*
X010174Y002660D01*
X010083Y002631D01*
X009998Y002587D01*
X009920Y002531D01*
X009852Y002463D01*
X009811Y002406D01*
X009651Y002565D01*
X009435Y002655D01*
X009200Y002655D01*
X008983Y002565D01*
X008817Y002400D01*
X008651Y002565D01*
X008435Y002655D01*
X008200Y002655D01*
X007983Y002565D01*
X007817Y002400D01*
X007309Y002843D02*
X010941Y002843D01*
X010317Y002675D02*
X010317Y001805D01*
X010317Y002675D01*
X010317Y002344D02*
X010317Y002344D01*
X010317Y001846D02*
X010317Y001846D01*
X010317Y001805D02*
X010317Y001805D01*
X010458Y003341D02*
X007314Y003341D01*
X007297Y003840D02*
X009959Y003840D01*
X009317Y004338D02*
X009317Y004338D01*
X009334Y004805D02*
X009317Y004805D01*
X009317Y005675D01*
X009269Y005675D01*
X009174Y005660D01*
X009083Y005631D01*
X008998Y005587D01*
X008920Y005531D01*
X008852Y005463D01*
X008811Y005406D01*
X008651Y005565D01*
X008435Y005655D01*
X008200Y005655D01*
X007983Y005565D01*
X007817Y005400D01*
X007651Y005565D01*
X007435Y005655D01*
X007200Y005655D01*
X006983Y005565D01*
X006964Y005546D01*
X006964Y006594D01*
X007027Y006594D01*
X007206Y006668D01*
X007344Y006806D01*
X007361Y006848D01*
X007418Y006905D01*
X007481Y007056D01*
X007481Y007201D01*
X007509Y007229D01*
X007541Y007197D01*
X007721Y007123D01*
X007915Y007123D01*
X008095Y007197D01*
X008232Y007334D01*
X008271Y007429D01*
X009197Y007429D01*
X009334Y007291D01*
X009334Y005675D01*
X009317Y005675D01*
X009317Y004805D01*
X009317Y004805D01*
X009317Y004805D01*
X009334Y004805D01*
X009334Y004805D01*
X009317Y004837D02*
X009317Y004837D01*
X009317Y005335D02*
X009317Y005335D01*
X009334Y005834D02*
X006964Y005834D01*
X006964Y006332D02*
X009334Y006332D01*
X009334Y006831D02*
X007354Y006831D01*
X008227Y007329D02*
X009297Y007329D01*
X012724Y009175D02*
X012740Y009191D01*
X012815Y009371D01*
X012815Y009488D01*
X017374Y014047D01*
X017620Y013946D01*
X017927Y013946D01*
X018211Y014063D01*
X018428Y014280D01*
X018523Y014508D01*
X018753Y014508D01*
X018753Y015208D01*
X018753Y015208D01*
X018753Y015908D01*
X018589Y015908D01*
X018989Y016308D01*
X019035Y016308D01*
X019433Y016706D01*
X019433Y017270D01*
X019035Y017668D01*
X018531Y017668D01*
X018428Y017916D01*
X018211Y018133D01*
X017942Y018244D01*
X017915Y019685D01*
X018136Y019685D01*
X018101Y019624D01*
X018022Y019329D01*
X018022Y019024D01*
X018101Y018729D01*
X018253Y018464D01*
X018469Y018248D01*
X018734Y018096D01*
X019029Y018017D01*
X019334Y018017D01*
X019629Y018096D01*
X019685Y018128D01*
X019685Y012907D01*
X019430Y013162D01*
X018884Y013162D01*
X018657Y012935D01*
X018430Y013162D01*
X017884Y013162D01*
X017497Y012775D01*
X017497Y012228D01*
X017864Y011861D01*
X017207Y011861D01*
X017223Y011901D01*
X017223Y012095D01*
X017149Y012275D01*
X017011Y012412D01*
X016832Y012486D01*
X016637Y012486D01*
X016458Y012412D01*
X016321Y012275D01*
X016293Y012208D01*
X015775Y011980D01*
X015710Y011953D01*
X015707Y011951D01*
X015704Y011949D01*
X015655Y011899D01*
X015606Y011849D01*
X015605Y011846D01*
X015602Y011843D01*
X015576Y011778D01*
X015550Y011713D01*
X015550Y011709D01*
X015548Y011705D01*
X015550Y011636D01*
X015550Y011546D01*
X015550Y011473D01*
X015550Y011400D01*
X015550Y011399D01*
X015550Y011252D01*
X015507Y011208D01*
X015432Y011029D01*
X015432Y010835D01*
X015507Y010655D01*
X015644Y010518D01*
X015824Y010443D01*
X016018Y010443D01*
X016197Y010518D01*
X016335Y010655D01*
X016387Y010782D01*
X016387Y010363D01*
X016437Y010242D01*
X016530Y010149D01*
X016652Y010099D01*
X017885Y010099D01*
X017896Y010103D01*
X017888Y010040D01*
X017888Y009996D01*
X018568Y009996D01*
X018568Y009996D01*
X017888Y009996D01*
X017888Y009951D01*
X017899Y009863D01*
X017922Y009777D01*
X017956Y009694D01*
X018001Y009617D01*
X018055Y009546D01*
X018112Y009489D01*
X018008Y009385D01*
X017908Y009143D01*
X017908Y009100D01*
X016388Y009100D01*
X016311Y009102D01*
X016307Y009100D01*
X016303Y009100D01*
X016231Y009071D01*
X016159Y009042D01*
X016156Y009039D01*
X016153Y009038D01*
X016098Y008983D01*
X016041Y008929D01*
X016040Y008925D01*
X016037Y008923D01*
X016007Y008851D01*
X015976Y008779D01*
X015976Y008775D01*
X015975Y008772D01*
X015975Y008694D01*
X015973Y008573D01*
X013305Y008562D01*
X013305Y008631D01*
X013230Y008810D01*
X013093Y008948D01*
X012914Y009022D01*
X012890Y009022D01*
X012724Y009175D01*
X012795Y009323D02*
X017982Y009323D01*
X017910Y009822D02*
X013148Y009822D01*
X013646Y010320D02*
X016405Y010320D01*
X015439Y010819D02*
X014145Y010819D01*
X014643Y011317D02*
X015550Y011317D01*
X015550Y011546D02*
X015550Y011546D01*
X015591Y011816D02*
X015142Y011816D01*
X015640Y012314D02*
X016360Y012314D01*
X016139Y012813D02*
X017535Y012813D01*
X017497Y012314D02*
X017109Y012314D01*
X017995Y011816D02*
X019685Y011816D01*
X019685Y011317D02*
X018150Y011317D01*
X018150Y010819D02*
X019685Y010819D01*
X019685Y010320D02*
X019166Y010320D01*
X018568Y010320D02*
X018568Y010320D01*
X019225Y009822D02*
X019685Y009822D01*
X019685Y009323D02*
X019153Y009323D01*
X019281Y008825D02*
X019685Y008825D01*
X019685Y008326D02*
X019389Y008326D01*
X019389Y007828D02*
X019685Y007828D01*
X019685Y007329D02*
X019390Y007329D01*
X019390Y006831D02*
X019685Y006831D01*
X019685Y006332D02*
X019391Y006332D01*
X019685Y005834D02*
X019059Y005834D01*
X019433Y005335D02*
X019685Y005335D01*
X019685Y004837D02*
X019375Y004837D01*
X019685Y004338D02*
X016870Y004338D01*
X016907Y004837D02*
X018132Y004837D01*
X018463Y004097D02*
X018053Y003687D01*
X018053Y003627D01*
X017927Y003680D01*
X017620Y003680D01*
X017336Y003562D01*
X017118Y003345D01*
X017001Y003061D01*
X017001Y002753D01*
X017118Y002469D01*
X017336Y002252D01*
X017620Y002135D01*
X017927Y002135D01*
X018211Y002252D01*
X018428Y002469D01*
X018523Y002697D01*
X018753Y002697D01*
X018753Y003397D01*
X018753Y004097D01*
X018463Y004097D01*
X018753Y004097D02*
X018753Y003397D01*
X018753Y003397D01*
X018753Y003397D01*
X018753Y002697D01*
X019043Y002697D01*
X019453Y003107D01*
X019453Y003397D01*
X018753Y003397D01*
X019453Y003397D01*
X019453Y003687D01*
X019043Y004097D01*
X018753Y004097D01*
X018753Y003840D02*
X018753Y003840D01*
X018206Y003840D02*
X015667Y003840D01*
X014573Y003341D02*
X017117Y003341D01*
X017001Y002843D02*
X014074Y002843D01*
X016840Y002344D02*
X017244Y002344D01*
X016907Y001846D02*
X018206Y001846D01*
X018303Y002344D02*
X018921Y002344D01*
X019437Y002344D02*
X019685Y002344D01*
X019685Y002843D02*
X019189Y002843D01*
X018753Y002843D02*
X018753Y002843D01*
X018753Y003341D02*
X018753Y003341D01*
X018753Y003397D02*
X018753Y003397D01*
X019453Y003341D02*
X019685Y003341D01*
X019685Y003840D02*
X019301Y003840D01*
X017075Y005335D02*
X016844Y005335D01*
X017006Y005834D02*
X016303Y005834D01*
X015996Y008825D02*
X013216Y008825D01*
X013401Y011121D02*
X013356Y011232D01*
X013218Y011370D01*
X013121Y011410D01*
X013057Y011530D01*
X013048Y011684D01*
X013048Y012543D01*
X013048Y012543D01*
X013048Y012617D01*
X013048Y012690D01*
X013048Y012691D01*
X013020Y012758D01*
X012992Y012826D01*
X012992Y012827D01*
X012940Y012878D01*
X012888Y012931D01*
X012888Y012931D01*
X007888Y017926D01*
X007857Y017966D01*
X007836Y017978D01*
X007819Y017994D01*
X007773Y018014D01*
X007729Y018039D01*
X007705Y018042D01*
X007683Y018051D01*
X007633Y018051D01*
X007583Y018057D01*
X007581Y018057D01*
X007580Y018057D01*
X007582Y018285D01*
X007628Y018331D01*
X007702Y018511D01*
X007702Y018528D01*
X007927Y018491D01*
X008027Y018391D01*
X008207Y018317D01*
X008401Y018317D01*
X008581Y018391D01*
X008718Y018529D01*
X008792Y018708D01*
X008792Y018903D01*
X008718Y019082D01*
X008581Y019219D01*
X008401Y019294D01*
X008207Y019294D01*
X008037Y019223D01*
X007566Y019299D01*
X007530Y019313D01*
X007494Y019311D01*
X007457Y019317D01*
X007421Y019308D01*
X007414Y019308D01*
X007090Y019308D01*
X007066Y019314D01*
X007017Y019308D01*
X006966Y019308D01*
X006944Y019299D01*
X006920Y019296D01*
X006877Y019271D01*
X006830Y019252D01*
X006813Y019235D01*
X006793Y019223D01*
X006762Y019183D01*
X006726Y019148D01*
X006717Y019125D01*
X005946Y018131D01*
X005910Y018095D01*
X005901Y018073D01*
X005886Y018054D01*
X005873Y018005D01*
X005854Y017959D01*
X005854Y017935D01*
X005848Y017912D01*
X005854Y017862D01*
X005854Y016519D01*
X005679Y016519D01*
X005447Y016423D01*
X005315Y016291D01*
X005294Y016319D01*
X005233Y016379D01*
X005166Y016431D01*
X005092Y016473D01*
X005013Y016506D01*
X004931Y016528D01*
X004847Y016539D01*
X004804Y016539D01*
X004804Y015589D01*
X004154Y015589D01*
X003804Y015589D01*
X003804Y015589D01*
X003154Y015589D01*
X003154Y015246D01*
X003165Y015162D01*
X003187Y015080D01*
X003220Y015001D01*
X003262Y014927D01*
X003314Y014860D01*
X003374Y014799D01*
X003442Y014747D01*
X003514Y014706D01*
X003504Y014695D01*
X003411Y014471D01*
X003411Y013669D01*
X003504Y013444D01*
X003587Y013361D01*
X003587Y013353D01*
X002887Y012642D01*
X002561Y012325D01*
X002021Y012325D01*
X001781Y012225D01*
X001732Y012177D01*
X001589Y012237D01*
X001364Y012237D01*
X001155Y012151D01*
X000996Y011991D01*
X000910Y011783D01*
X000910Y011558D01*
X000996Y011349D01*
X001155Y011190D01*
X001203Y011170D01*
X001155Y011151D01*
X000996Y010991D01*
X000910Y010783D01*
X000910Y010558D01*
X000996Y010349D01*
X001155Y010190D01*
X001364Y010104D01*
X001589Y010104D01*
X001732Y010163D01*
X001781Y010115D01*
X002021Y010016D01*
X002091Y010016D01*
X002028Y010007D01*
X001942Y009984D01*
X001861Y009950D01*
X001784Y009906D01*
X001722Y009859D01*
X001597Y009910D01*
X001372Y009910D01*
X001164Y009824D01*
X001004Y009665D01*
X000918Y009457D01*
X000918Y009231D01*
X001004Y009023D01*
X001164Y008864D01*
X001211Y008844D01*
X001164Y008824D01*
X001164Y008825D02*
X000700Y008825D01*
X001004Y008665D02*
X000918Y008457D01*
X000918Y008231D01*
X000976Y008090D01*
X000930Y008090D01*
X000794Y008034D01*
X000700Y007940D01*
X000700Y018125D01*
X000753Y018094D01*
X001048Y018015D01*
X001353Y018015D01*
X001648Y018094D01*
X001913Y018247D01*
X002129Y018463D01*
X002282Y018727D01*
X002361Y019022D01*
X002361Y019328D01*
X002282Y019623D01*
X002246Y019685D01*
X015311Y019685D01*
X015298Y017775D01*
X017055Y017763D01*
X017001Y017632D01*
X017001Y017324D01*
X017118Y017040D01*
X017336Y016823D01*
X017620Y016706D01*
X017927Y016706D01*
X018073Y016766D01*
X018073Y016706D01*
X018207Y016573D01*
X017407Y015773D01*
X017407Y015896D01*
X017333Y016076D01*
X017195Y016213D01*
X017016Y016288D01*
X016821Y016288D01*
X016642Y016213D01*
X016504Y016076D01*
X016430Y015896D01*
X016430Y015702D01*
X016504Y015522D01*
X016550Y015476D01*
X016554Y014915D01*
X016512Y014873D01*
X016437Y014693D01*
X016437Y014499D01*
X016512Y014320D01*
X016556Y014276D01*
X013401Y011121D01*
X013271Y011317D02*
X013597Y011317D01*
X014095Y011816D02*
X013048Y011816D01*
X013048Y012314D02*
X014594Y012314D01*
X015092Y012813D02*
X012998Y012813D01*
X012992Y012827D02*
X012992Y012827D01*
X013048Y012691D02*
X013048Y012691D01*
X012507Y013311D02*
X015591Y013311D01*
X016089Y013810D02*
X012008Y013810D01*
X011509Y014308D02*
X016523Y014308D01*
X016484Y014807D02*
X011010Y014807D01*
X010511Y015305D02*
X016551Y015305D01*
X016430Y015804D02*
X010012Y015804D01*
X009513Y016302D02*
X017936Y016302D01*
X017438Y015804D02*
X017407Y015804D01*
X018753Y015804D02*
X018753Y015804D01*
X018753Y015908D02*
X018753Y015208D01*
X018753Y015208D01*
X018753Y014508D01*
X019043Y014508D01*
X019453Y014918D01*
X019453Y015208D01*
X018753Y015208D01*
X018753Y015208D01*
X019453Y015208D01*
X019453Y015498D01*
X019043Y015908D01*
X018753Y015908D01*
X019148Y015804D02*
X019685Y015804D01*
X019685Y016302D02*
X018983Y016302D01*
X019433Y016801D02*
X019685Y016801D01*
X019685Y017299D02*
X019404Y017299D01*
X019685Y017798D02*
X018477Y017798D01*
X018422Y018296D02*
X017941Y018296D01*
X017932Y018795D02*
X018083Y018795D01*
X018022Y019293D02*
X017922Y019293D01*
X015308Y019293D02*
X008403Y019293D01*
X008205Y019293D02*
X007606Y019293D01*
X006915Y019293D02*
X002361Y019293D01*
X002300Y018795D02*
X006461Y018795D01*
X006074Y018296D02*
X001962Y018296D01*
X000700Y017798D02*
X005854Y017798D01*
X005854Y017299D02*
X000700Y017299D01*
X000700Y016801D02*
X005854Y016801D01*
X005326Y016302D02*
X005306Y016302D01*
X004804Y016302D02*
X004804Y016302D01*
X004677Y016528D02*
X004595Y016506D01*
X004516Y016473D01*
X004442Y016431D01*
X004374Y016379D01*
X004314Y016319D01*
X004304Y016305D01*
X004294Y016319D01*
X004233Y016379D01*
X004166Y016431D01*
X004092Y016473D01*
X004013Y016506D01*
X003931Y016528D01*
X003847Y016539D01*
X003804Y016539D01*
X003804Y015589D01*
X003804Y015589D01*
X004804Y015589D01*
X004804Y015589D01*
X004804Y015589D01*
X004804Y016539D01*
X004761Y016539D01*
X004677Y016528D01*
X003804Y016539D02*
X003761Y016539D01*
X003677Y016528D01*
X003595Y016506D01*
X003516Y016473D01*
X003442Y016431D01*
X003374Y016379D01*
X003314Y016319D01*
X003262Y016251D01*
X003220Y016177D01*
X003187Y016098D01*
X003165Y016016D01*
X003154Y015932D01*
X003154Y015589D01*
X003804Y015589D01*
X003804Y015589D01*
X003804Y016539D01*
X003804Y016302D02*
X003804Y016302D01*
X003804Y015804D02*
X003804Y015804D01*
X003154Y015804D02*
X000700Y015804D01*
X000700Y016302D02*
X003302Y016302D01*
X003154Y015305D02*
X000700Y015305D01*
X000700Y014807D02*
X003367Y014807D01*
X003411Y014308D02*
X000700Y014308D01*
X000700Y013810D02*
X003411Y013810D01*
X003545Y013311D02*
X000700Y013311D01*
X000700Y012813D02*
X003054Y012813D01*
X003714Y012314D02*
X005854Y012314D01*
X005854Y012813D02*
X004254Y012813D01*
X004172Y012779D02*
X004352Y012853D01*
X004489Y012990D01*
X004563Y013170D01*
X004563Y013364D01*
X004549Y013399D01*
X004675Y013273D01*
X004899Y013180D01*
X005142Y013180D01*
X005366Y013273D01*
X005538Y013444D01*
X005631Y013669D01*
X005631Y014471D01*
X005538Y014695D01*
X005500Y014733D01*
X005679Y014659D01*
X005854Y014659D01*
X005854Y010735D01*
X005671Y010918D01*
X005350Y010918D01*
X005350Y010143D01*
X005350Y010143D01*
X004575Y010143D01*
X004575Y009822D01*
X005029Y009368D01*
X005128Y009368D01*
X003495Y007735D01*
X003391Y007630D01*
X003334Y007494D01*
X003334Y006323D01*
X003297Y006361D01*
X003281Y006379D01*
X003278Y006386D01*
X003231Y006433D01*
X003187Y006481D01*
X003180Y006485D01*
X001937Y007728D01*
X002029Y007689D01*
X002939Y007689D01*
X003180Y007789D01*
X003364Y007973D01*
X003464Y008214D01*
X003464Y008474D01*
X003364Y008715D01*
X003249Y008831D01*
X003255Y008836D01*
X003318Y008898D01*
X003372Y008968D01*
X003416Y009045D01*
X003450Y009127D01*
X003472Y009212D01*
X003484Y009300D01*
X003484Y009344D01*
X003484Y009388D01*
X003472Y009476D01*
X003450Y009561D01*
X003416Y009643D01*
X003372Y009720D01*
X003318Y009790D01*
X003255Y009852D01*
X003185Y009906D01*
X003108Y009950D01*
X003027Y009984D01*
X002941Y010007D01*
X002878Y010016D01*
X002931Y010016D01*
X003172Y010115D01*
X003356Y010299D01*
X003456Y010540D01*
X003456Y010801D01*
X003356Y011041D01*
X003227Y011170D01*
X003356Y011299D01*
X003456Y011540D01*
X003456Y011801D01*
X003382Y011980D01*
X003407Y012004D01*
X003411Y012006D01*
X003465Y012061D01*
X003520Y012115D01*
X003522Y012119D01*
X004172Y012779D01*
X004172Y012779D01*
X004563Y013311D02*
X004637Y013311D01*
X005405Y013311D02*
X005854Y013311D01*
X005854Y013810D02*
X005631Y013810D01*
X005631Y014308D02*
X005854Y014308D01*
X007114Y013205D02*
X007262Y013266D01*
X007356Y013360D01*
X007356Y013166D01*
X007431Y012987D01*
X007476Y012941D01*
X007482Y011563D01*
X007479Y011458D01*
X007359Y011309D01*
X007059Y011008D01*
X007061Y011012D01*
X007061Y011206D01*
X006994Y011366D01*
X006994Y011700D01*
X006995Y012805D01*
X007040Y012849D01*
X007114Y013029D01*
X007114Y013205D01*
X007307Y013311D02*
X007356Y013311D01*
X007477Y012813D02*
X007003Y012813D01*
X006995Y012314D02*
X007479Y012314D01*
X007481Y011816D02*
X006994Y011816D01*
X007015Y011317D02*
X007365Y011317D01*
X005854Y011317D02*
X003363Y011317D01*
X003448Y010819D02*
X004929Y010819D01*
X005029Y010918D02*
X004575Y010464D01*
X004575Y010143D01*
X005350Y010143D01*
X005350Y010143D01*
X005350Y010918D01*
X005029Y010918D01*
X005350Y010819D02*
X005350Y010819D01*
X005770Y010819D02*
X005854Y010819D01*
X005350Y010320D02*
X005350Y010320D01*
X004575Y010320D02*
X003365Y010320D01*
X003286Y009822D02*
X004575Y009822D01*
X005083Y009323D02*
X003484Y009323D01*
X003484Y009344D02*
X002484Y009344D01*
X003484Y009344D01*
X003255Y008825D02*
X004585Y008825D01*
X004086Y008326D02*
X003464Y008326D01*
X003588Y007828D02*
X003219Y007828D01*
X003334Y007329D02*
X002335Y007329D01*
X002834Y006831D02*
X003334Y006831D01*
X003325Y006332D02*
X003334Y006332D01*
X000918Y008326D02*
X000700Y008326D01*
X001004Y008665D02*
X001164Y008824D01*
X000918Y009323D02*
X000700Y009323D01*
X000700Y009822D02*
X001161Y009822D01*
X001025Y010320D02*
X000700Y010320D01*
X000700Y010819D02*
X000924Y010819D01*
X001028Y011317D02*
X000700Y011317D01*
X000700Y011816D02*
X000923Y011816D01*
X000700Y012314D02*
X001994Y012314D01*
X003450Y011816D02*
X005854Y011816D01*
X008983Y012423D02*
X009027Y012528D01*
X009027Y012722D01*
X008987Y012818D01*
X009004Y012811D01*
X009198Y012811D01*
X009377Y012885D01*
X009515Y013023D01*
X009589Y013202D01*
X009589Y013359D01*
X010372Y012617D01*
X010068Y012428D01*
X009105Y012431D01*
X009060Y012438D01*
X009032Y012432D01*
X009004Y012432D01*
X008983Y012423D01*
X008989Y012813D02*
X009000Y012813D01*
X009202Y012813D02*
X010166Y012813D01*
X009640Y013311D02*
X009589Y013311D01*
X004804Y015804D02*
X004804Y015804D01*
X008016Y017798D02*
X015298Y017798D01*
X015301Y018296D02*
X007593Y018296D01*
X008792Y018795D02*
X015305Y018795D01*
X017011Y017299D02*
X008515Y017299D01*
X009014Y016801D02*
X017390Y016801D01*
X018753Y015305D02*
X018753Y015305D01*
X019453Y015305D02*
X019685Y015305D01*
X019685Y014807D02*
X019342Y014807D01*
X018753Y014807D02*
X018753Y014807D01*
X018440Y014308D02*
X019685Y014308D01*
X019685Y013810D02*
X017136Y013810D01*
X016637Y013311D02*
X019685Y013311D01*
X002484Y009344D02*
X002484Y009344D01*
X016874Y001347D02*
X018019Y001347D01*
X018076Y000849D02*
X015687Y000849D01*
D27*
X002590Y005496D02*
X002590Y005679D01*
X002590Y005496D02*
X002446Y005303D01*
X001785Y005303D01*
X001391Y005303D02*
X001390Y005336D01*
X001588Y005953D02*
X001586Y005953D01*
D28*
X002590Y005679D02*
X002923Y005850D01*
X003026Y005899D01*
X003029Y006107D01*
X002964Y006177D01*
X001421Y007720D01*
X001004Y007720D01*
X000720Y007437D01*
X001122Y007437D02*
X001329Y006778D01*
X003704Y007421D02*
X003704Y002193D01*
X003319Y001807D01*
X003317Y001805D01*
X004317Y001805D02*
X004319Y001807D01*
X004704Y002193D01*
X004704Y004996D01*
X005578Y005870D01*
X005568Y008984D01*
X007634Y011062D01*
X007846Y011323D01*
X007852Y011559D01*
X007845Y013263D01*
X008673Y013445D02*
X008978Y013737D01*
X009731Y013735D01*
X010804Y012717D01*
X010802Y012449D01*
X010173Y012058D01*
X009076Y012062D01*
X008839Y011888D01*
X008839Y009510D01*
X006594Y007185D01*
X006594Y005326D01*
X006726Y005215D01*
X006730Y004988D01*
X006730Y004047D01*
X006720Y003841D01*
X006947Y003717D01*
X006933Y002185D01*
X007311Y001807D01*
X007317Y001805D01*
X006704Y001618D02*
X006704Y002216D01*
X006286Y002741D01*
X005933Y002185D02*
X006311Y001807D01*
X006317Y001805D01*
X006704Y001618D02*
X007161Y001161D01*
X015476Y001161D01*
X016114Y001799D01*
X016311Y001799D01*
X016317Y001805D01*
X014870Y004161D02*
X012515Y001807D01*
X012319Y001807D01*
X012317Y001805D01*
X011317Y001805D02*
X011311Y001807D01*
X011311Y003011D01*
X009704Y004618D01*
X009704Y007444D01*
X009350Y007799D01*
X007901Y007799D01*
X007818Y007611D01*
X006319Y008460D02*
X007279Y009421D01*
X007280Y009422D01*
X006484Y009397D02*
X006484Y008854D01*
X005933Y008303D01*
X005933Y002185D01*
X005744Y002232D02*
X005319Y001807D01*
X005317Y001805D01*
X005744Y002232D02*
X005764Y008911D01*
X006130Y009286D01*
X006157Y009314D01*
X006443Y009605D01*
X007995Y011194D01*
X008538Y011470D01*
X008538Y012625D01*
X006626Y013126D02*
X006624Y011700D01*
X006624Y011109D01*
X006572Y011109D01*
X007878Y010822D02*
X008021Y010982D01*
X008358Y011060D01*
X007878Y010822D02*
X006484Y009397D01*
X006224Y009941D02*
X003704Y007421D01*
X006319Y008460D02*
X006319Y004807D01*
X006317Y004805D01*
X002988Y003881D02*
X001834Y003842D01*
X012326Y009468D02*
X012311Y009507D01*
X017208Y014405D01*
X017208Y015051D01*
X018752Y016594D01*
X018753Y016988D01*
X016918Y015799D02*
X016926Y014596D01*
X012678Y012617D02*
X007610Y017681D01*
X007472Y017573D01*
X007209Y017737D02*
X007209Y017815D01*
X007214Y018608D01*
X007040Y018938D02*
X006224Y017885D01*
X006224Y009941D01*
X009914Y014734D02*
X012293Y012337D01*
X012293Y010901D01*
X012295Y010901D01*
X012297Y010239D01*
X012941Y010955D02*
X012693Y011429D01*
X012678Y011673D01*
X012678Y012617D01*
X015920Y011640D02*
X015920Y011473D01*
X015921Y010932D01*
X015920Y011640D02*
X016735Y011998D01*
X018568Y009011D02*
X018570Y009011D01*
X019019Y008563D01*
X019019Y007838D01*
X019021Y006349D01*
X017429Y006349D01*
X015933Y006169D01*
X015933Y004618D01*
X015476Y004161D01*
X014870Y004161D01*
X015311Y004807D02*
X015317Y004805D01*
X015311Y004807D02*
X012573Y007573D01*
X009914Y014734D02*
X007752Y014744D01*
X007381Y015114D01*
X007381Y015909D01*
X006901Y016389D01*
X006543Y016434D01*
X007113Y017200D02*
X007113Y017737D01*
X007209Y017737D01*
X007193Y017200D02*
X007113Y017200D01*
X007193Y017200D02*
X008799Y015594D01*
X008804Y015589D01*
X008304Y018805D02*
X007471Y018940D01*
X007421Y018938D01*
X007040Y018938D01*
D29*
X001201Y019175D03*
X019182Y019177D03*
X019179Y001212D03*
X001200Y001200D03*
M02*
