G75*
%MOIN*%
%OFA0B0*%
%FSLAX25Y25*%
%IPPOS*%
%LPD*%
%AMOC8*
5,1,8,0,0,1.08239X$1,22.5*
%
%ADD10C,0.01600*%
%ADD11R,0.03937X0.04331*%
%ADD12R,0.04331X0.03937*%
%ADD13R,0.05118X0.07480*%
%ADD14R,0.03150X0.03150*%
%ADD15R,0.05000X0.02200*%
%ADD16R,0.02200X0.05000*%
D10*
X0001800Y0005476D02*
X0198650Y0005476D01*
X0198650Y0202327D01*
X0001800Y0202327D01*
X0001800Y0005476D01*
D11*
X0077108Y0026047D03*
X0083801Y0026047D03*
X0128454Y0022976D03*
X0135146Y0022976D03*
X0051800Y0157130D03*
X0051800Y0163823D03*
X0105954Y0160476D03*
X0112646Y0160476D03*
D12*
X0091800Y0157130D03*
X0091800Y0163823D03*
X0081800Y0163823D03*
X0081800Y0157130D03*
X0070776Y0157130D03*
X0070776Y0163823D03*
X0061800Y0163823D03*
X0061800Y0157130D03*
X0079076Y0107715D03*
X0085769Y0107715D03*
X0119934Y0117866D03*
X0119934Y0124559D03*
X0156249Y0088901D03*
X0162942Y0088901D03*
X0162349Y0073424D03*
X0155656Y0073424D03*
D13*
X0081919Y0070726D03*
X0081919Y0083325D03*
X0060265Y0083325D03*
X0060265Y0070726D03*
D14*
X0097331Y0026047D03*
X0103237Y0026047D03*
D15*
X0104900Y0074453D03*
X0104900Y0077602D03*
X0104900Y0080752D03*
X0104900Y0083901D03*
X0104900Y0087051D03*
X0104900Y0090201D03*
X0104900Y0093350D03*
X0104900Y0096500D03*
X0138700Y0096500D03*
X0138700Y0093350D03*
X0138700Y0090201D03*
X0138700Y0087051D03*
X0138700Y0083901D03*
X0138700Y0080752D03*
X0138700Y0077602D03*
X0138700Y0074453D03*
D16*
X0132824Y0068576D03*
X0129674Y0068576D03*
X0126524Y0068576D03*
X0123375Y0068576D03*
X0120225Y0068576D03*
X0117076Y0068576D03*
X0113926Y0068576D03*
X0110776Y0068576D03*
X0110776Y0102376D03*
X0113926Y0102376D03*
X0117076Y0102376D03*
X0120225Y0102376D03*
X0123375Y0102376D03*
X0126524Y0102376D03*
X0129674Y0102376D03*
X0132824Y0102376D03*
M02*
