G75*
%MOIN*%
%OFA0B0*%
%FSLAX25Y25*%
%IPPOS*%
%LPD*%
%AMOC8*
5,1,8,0,0,1.08239X$1,22.5*
%
%ADD10C,0.00300*%
%ADD11C,0.01600*%
%ADD12C,0.00787*%
%ADD13C,0.00800*%
%ADD14C,0.01000*%
%ADD15R,0.01181X0.00591*%
%ADD16R,0.01181X0.01181*%
%ADD17C,0.00600*%
D10*
X0066672Y0025416D02*
X0066672Y0027236D01*
X0067279Y0027842D01*
X0068492Y0027842D01*
X0069099Y0027236D01*
X0069099Y0025416D01*
X0069099Y0026629D02*
X0070312Y0027842D01*
X0070312Y0029041D02*
X0069705Y0029041D01*
X0067279Y0031467D01*
X0066672Y0031467D01*
X0066672Y0029041D01*
X0066672Y0025416D02*
X0070312Y0025416D01*
X0080197Y0012552D02*
X0079590Y0011945D01*
X0079590Y0009518D01*
X0080197Y0008912D01*
X0081410Y0008912D01*
X0082017Y0009518D01*
X0082017Y0011945D01*
X0081410Y0012552D01*
X0080197Y0012552D01*
X0083215Y0011339D02*
X0085035Y0011339D01*
X0085642Y0010732D01*
X0085642Y0009518D01*
X0085035Y0008912D01*
X0083215Y0008912D01*
X0083215Y0007698D02*
X0083215Y0011339D01*
X0086840Y0010732D02*
X0086840Y0009518D01*
X0087447Y0008912D01*
X0088660Y0008912D01*
X0089267Y0010125D02*
X0086840Y0010125D01*
X0086840Y0010732D02*
X0087447Y0011339D01*
X0088660Y0011339D01*
X0089267Y0010732D01*
X0089267Y0010125D01*
X0090465Y0008912D02*
X0090465Y0011339D01*
X0092286Y0011339D01*
X0092892Y0010732D01*
X0092892Y0008912D01*
X0095304Y0008912D02*
X0095304Y0012552D01*
X0094091Y0012552D02*
X0096517Y0012552D01*
X0097716Y0012552D02*
X0099536Y0012552D01*
X0100142Y0011945D01*
X0100142Y0010732D01*
X0099536Y0010125D01*
X0097716Y0010125D01*
X0098929Y0010125D02*
X0100142Y0008912D01*
X0101341Y0010125D02*
X0102554Y0008912D01*
X0103768Y0010125D01*
X0103768Y0012552D01*
X0101341Y0012552D02*
X0101341Y0010125D01*
X0104966Y0009518D02*
X0105573Y0009518D01*
X0105573Y0008912D01*
X0104966Y0008912D01*
X0104966Y0009518D01*
X0106779Y0009518D02*
X0106779Y0010732D01*
X0107385Y0011339D01*
X0108599Y0011339D01*
X0109205Y0010732D01*
X0109205Y0009518D01*
X0108599Y0008912D01*
X0107385Y0008912D01*
X0106779Y0009518D01*
X0110404Y0008912D02*
X0110404Y0011339D01*
X0111617Y0011339D02*
X0112224Y0011339D01*
X0111617Y0011339D02*
X0110404Y0010125D01*
X0113425Y0010732D02*
X0113425Y0009518D01*
X0114031Y0008912D01*
X0115851Y0008912D01*
X0115851Y0008305D02*
X0115851Y0011339D01*
X0114031Y0011339D01*
X0113425Y0010732D01*
X0115851Y0008305D02*
X0115245Y0007698D01*
X0114638Y0007698D01*
X0117050Y0008912D02*
X0117656Y0008912D01*
X0117656Y0009518D01*
X0117050Y0009518D01*
X0117050Y0008912D01*
X0118862Y0009518D02*
X0118862Y0011339D01*
X0118862Y0009518D02*
X0119469Y0008912D01*
X0121289Y0008912D01*
X0121289Y0011339D01*
X0122487Y0012552D02*
X0122487Y0008912D01*
X0122487Y0010125D02*
X0124308Y0011339D01*
X0122487Y0010125D02*
X0124308Y0008912D01*
X0125700Y0013189D02*
X0125700Y0016829D01*
X0127520Y0016829D01*
X0128126Y0016223D01*
X0128126Y0015009D01*
X0127520Y0014403D01*
X0125700Y0014403D01*
X0126913Y0014403D02*
X0128126Y0013189D01*
X0129325Y0013796D02*
X0129325Y0015009D01*
X0131145Y0015009D01*
X0131752Y0014403D01*
X0131752Y0013796D01*
X0131145Y0013189D01*
X0129932Y0013189D01*
X0129325Y0013796D01*
X0129325Y0015009D02*
X0130538Y0016223D01*
X0131752Y0016829D01*
X0106876Y0018489D02*
X0106269Y0017882D01*
X0104449Y0017882D01*
X0104449Y0021523D01*
X0106269Y0021523D01*
X0106876Y0020916D01*
X0106876Y0018489D01*
X0103251Y0017882D02*
X0100824Y0017882D01*
X0100824Y0021523D01*
X0103251Y0021523D01*
X0102037Y0019703D02*
X0100824Y0019703D01*
X0099626Y0017882D02*
X0097199Y0017882D01*
X0097199Y0021523D01*
X0097716Y0012552D02*
X0097716Y0008912D01*
X0153329Y0064792D02*
X0153329Y0067218D01*
X0153935Y0067825D01*
X0155149Y0067825D01*
X0155755Y0067218D01*
X0156954Y0066612D02*
X0158167Y0067825D01*
X0158167Y0064185D01*
X0156954Y0064185D02*
X0159380Y0064185D01*
X0160579Y0064792D02*
X0160579Y0067218D01*
X0161186Y0067825D01*
X0162399Y0067825D01*
X0163006Y0067218D01*
X0160579Y0064792D01*
X0161186Y0064185D01*
X0162399Y0064185D01*
X0163006Y0064792D01*
X0163006Y0067218D01*
X0155755Y0064792D02*
X0155149Y0064185D01*
X0153935Y0064185D01*
X0153329Y0064792D01*
X0153729Y0080185D02*
X0154943Y0080185D01*
X0155549Y0080792D01*
X0156748Y0080185D02*
X0159175Y0080185D01*
X0160373Y0080185D02*
X0162800Y0082612D01*
X0162800Y0083219D01*
X0162193Y0083825D01*
X0160980Y0083825D01*
X0160373Y0083219D01*
X0160373Y0080185D02*
X0162800Y0080185D01*
X0157961Y0080185D02*
X0157961Y0083825D01*
X0156748Y0082612D01*
X0155549Y0083219D02*
X0154943Y0083825D01*
X0153729Y0083825D01*
X0153123Y0083219D01*
X0153123Y0080792D01*
X0153729Y0080185D01*
X0127019Y0083126D02*
X0124592Y0083126D01*
X0127019Y0085553D01*
X0127019Y0086160D01*
X0126412Y0086766D01*
X0125199Y0086766D01*
X0124592Y0086160D01*
X0123393Y0086160D02*
X0122787Y0086766D01*
X0121573Y0086766D01*
X0120967Y0086160D01*
X0120967Y0083733D01*
X0121573Y0083126D01*
X0122787Y0083126D01*
X0123393Y0083733D01*
X0119763Y0083126D02*
X0118550Y0083126D01*
X0119157Y0083126D02*
X0119157Y0086766D01*
X0119763Y0086766D02*
X0118550Y0086766D01*
X0083005Y0113862D02*
X0083005Y0116289D01*
X0082399Y0116896D01*
X0081185Y0116896D01*
X0080579Y0116289D01*
X0080579Y0115682D01*
X0081185Y0115076D01*
X0083005Y0115076D01*
X0083005Y0113862D02*
X0082399Y0113256D01*
X0081185Y0113256D01*
X0080579Y0113862D01*
X0079380Y0113862D02*
X0078774Y0113256D01*
X0077560Y0113256D01*
X0076954Y0113862D01*
X0076954Y0116289D01*
X0077560Y0116896D01*
X0078774Y0116896D01*
X0079380Y0116289D01*
X0079447Y0145876D02*
X0079447Y0147696D01*
X0080054Y0148303D01*
X0081267Y0148303D01*
X0081874Y0147696D01*
X0081874Y0145876D01*
X0083087Y0145876D02*
X0079447Y0145876D01*
X0081874Y0147089D02*
X0083087Y0148303D01*
X0082480Y0149501D02*
X0083087Y0150108D01*
X0083087Y0151321D01*
X0082480Y0151928D01*
X0081874Y0151928D01*
X0081267Y0151321D01*
X0081267Y0150714D01*
X0081267Y0151321D02*
X0080660Y0151928D01*
X0080054Y0151928D01*
X0079447Y0151321D01*
X0079447Y0150108D01*
X0080054Y0149501D01*
X0072611Y0150108D02*
X0072611Y0151321D01*
X0072004Y0151928D01*
X0069577Y0151928D01*
X0068971Y0151321D01*
X0068971Y0150108D01*
X0069577Y0149501D01*
X0070184Y0149501D01*
X0070791Y0150108D01*
X0070791Y0151928D01*
X0072611Y0150108D02*
X0072004Y0149501D01*
X0072611Y0148303D02*
X0071397Y0147089D01*
X0071397Y0147696D02*
X0071397Y0145876D01*
X0072611Y0145876D02*
X0068971Y0145876D01*
X0068971Y0147696D01*
X0069577Y0148303D01*
X0070791Y0148303D01*
X0071397Y0147696D01*
X0063087Y0148303D02*
X0061874Y0147089D01*
X0061874Y0147696D02*
X0061874Y0145876D01*
X0063087Y0145876D02*
X0059447Y0145876D01*
X0059447Y0147696D01*
X0060054Y0148303D01*
X0061267Y0148303D01*
X0061874Y0147696D01*
X0063087Y0149501D02*
X0063087Y0151928D01*
X0063087Y0150714D02*
X0059447Y0150714D01*
X0060660Y0149501D01*
X0053087Y0150108D02*
X0052480Y0149501D01*
X0053087Y0150108D02*
X0053087Y0151321D01*
X0052480Y0151928D01*
X0051267Y0151928D01*
X0050660Y0151321D01*
X0050660Y0150714D01*
X0051267Y0149501D01*
X0049447Y0149501D01*
X0049447Y0151928D01*
X0050054Y0148303D02*
X0049447Y0147696D01*
X0049447Y0146483D01*
X0050054Y0145876D01*
X0052480Y0145876D01*
X0053087Y0146483D01*
X0053087Y0147696D01*
X0052480Y0148303D01*
X0037247Y0169622D02*
X0036034Y0169622D01*
X0036641Y0169622D02*
X0036641Y0173262D01*
X0037247Y0173262D02*
X0036034Y0173262D01*
X0034836Y0172656D02*
X0034229Y0173262D01*
X0032409Y0173262D01*
X0032409Y0169622D01*
X0034229Y0169622D01*
X0034836Y0170229D01*
X0034836Y0172656D01*
X0031211Y0173262D02*
X0028784Y0173262D01*
X0027585Y0173262D02*
X0025159Y0173262D01*
X0025159Y0169622D01*
X0025159Y0171442D02*
X0026372Y0171442D01*
X0029997Y0169622D02*
X0029997Y0173262D01*
X0016211Y0172656D02*
X0016211Y0170229D01*
X0015604Y0169622D01*
X0014390Y0169622D01*
X0013784Y0170229D01*
X0013784Y0172656D01*
X0014390Y0173262D01*
X0015604Y0173262D01*
X0016211Y0172656D01*
X0014997Y0170836D02*
X0016211Y0169622D01*
X0012585Y0170229D02*
X0012585Y0172656D01*
X0011979Y0173262D01*
X0010159Y0173262D01*
X0010159Y0169622D01*
X0011979Y0169622D01*
X0012585Y0170229D01*
X0089510Y0152571D02*
X0091330Y0150751D01*
X0091330Y0153178D01*
X0093150Y0152571D02*
X0089510Y0152571D01*
X0090117Y0149553D02*
X0091330Y0149553D01*
X0091937Y0148946D01*
X0091937Y0147126D01*
X0093150Y0147126D02*
X0089510Y0147126D01*
X0089510Y0148946D01*
X0090117Y0149553D01*
X0091937Y0148340D02*
X0093150Y0149553D01*
X0115700Y0158189D02*
X0115700Y0161829D01*
X0117520Y0161829D01*
X0118126Y0161223D01*
X0118126Y0160009D01*
X0117520Y0159403D01*
X0115700Y0159403D01*
X0116913Y0159403D02*
X0118126Y0158189D01*
X0119325Y0158796D02*
X0119325Y0159403D01*
X0119932Y0160009D01*
X0121145Y0160009D01*
X0121752Y0159403D01*
X0121752Y0158796D01*
X0121145Y0158189D01*
X0119932Y0158189D01*
X0119325Y0158796D01*
X0119932Y0160009D02*
X0119325Y0160616D01*
X0119325Y0161223D01*
X0119932Y0161829D01*
X0121145Y0161829D01*
X0121752Y0161223D01*
X0121752Y0160616D01*
X0121145Y0160009D01*
X0131514Y0163835D02*
X0131514Y0165655D01*
X0132121Y0166262D01*
X0133334Y0166262D01*
X0133941Y0165655D01*
X0133941Y0163835D01*
X0135154Y0163835D02*
X0131514Y0163835D01*
X0133941Y0165048D02*
X0135154Y0166262D01*
X0135154Y0167460D02*
X0131514Y0169887D01*
X0131514Y0167460D02*
X0135154Y0169887D01*
X0136514Y0169887D02*
X0140154Y0167460D01*
X0140154Y0169887D02*
X0136514Y0167460D01*
X0136514Y0166262D02*
X0136514Y0163835D01*
X0136514Y0165048D02*
X0140154Y0165048D01*
X0146514Y0164442D02*
X0147121Y0163835D01*
X0149547Y0163835D01*
X0150154Y0164442D01*
X0150154Y0165655D01*
X0149547Y0166262D01*
X0148334Y0166262D01*
X0148334Y0165048D01*
X0147121Y0166262D02*
X0146514Y0165655D01*
X0146514Y0164442D01*
X0146514Y0167460D02*
X0150154Y0169887D01*
X0146514Y0169887D01*
X0146514Y0171085D02*
X0146514Y0172905D01*
X0147121Y0173512D01*
X0149547Y0173512D01*
X0150154Y0172905D01*
X0150154Y0171085D01*
X0146514Y0171085D01*
X0146514Y0167460D02*
X0150154Y0167460D01*
X0151514Y0167460D02*
X0155154Y0169887D01*
X0151514Y0169887D01*
X0151514Y0171085D02*
X0151514Y0172905D01*
X0152121Y0173512D01*
X0154547Y0173512D01*
X0155154Y0172905D01*
X0155154Y0171085D01*
X0151514Y0171085D01*
X0151514Y0167460D02*
X0155154Y0167460D01*
X0154547Y0166262D02*
X0153334Y0166262D01*
X0153334Y0165048D01*
X0152121Y0163835D02*
X0154547Y0163835D01*
X0155154Y0164442D01*
X0155154Y0165655D01*
X0154547Y0166262D01*
X0152121Y0166262D02*
X0151514Y0165655D01*
X0151514Y0164442D01*
X0152121Y0163835D01*
X0161514Y0164442D02*
X0162121Y0163835D01*
X0164547Y0163835D01*
X0165154Y0164442D01*
X0165154Y0165655D01*
X0164547Y0166262D01*
X0163334Y0166262D01*
X0163334Y0165048D01*
X0162121Y0166262D02*
X0161514Y0165655D01*
X0161514Y0164442D01*
X0161514Y0167460D02*
X0165154Y0169887D01*
X0161514Y0169887D01*
X0161514Y0171085D02*
X0161514Y0172905D01*
X0162121Y0173512D01*
X0164547Y0173512D01*
X0165154Y0172905D01*
X0165154Y0171085D01*
X0161514Y0171085D01*
X0161514Y0167460D02*
X0165154Y0167460D01*
X0166514Y0166262D02*
X0170154Y0166262D01*
X0169547Y0167460D02*
X0168334Y0167460D01*
X0167727Y0168067D01*
X0167727Y0169280D01*
X0168334Y0169887D01*
X0169547Y0169887D01*
X0170154Y0169280D01*
X0170154Y0168067D01*
X0169547Y0167460D01*
X0171514Y0168067D02*
X0172121Y0167460D01*
X0174547Y0167460D01*
X0175154Y0168067D01*
X0175154Y0169280D01*
X0174547Y0169887D01*
X0174547Y0171085D02*
X0175154Y0171692D01*
X0175154Y0172905D01*
X0174547Y0173512D01*
X0172121Y0173512D02*
X0171514Y0172905D01*
X0171514Y0171692D01*
X0172121Y0171085D01*
X0174547Y0171085D01*
X0172121Y0169887D02*
X0171514Y0169280D01*
X0171514Y0168067D01*
X0171514Y0166262D02*
X0173941Y0166262D01*
X0175154Y0165048D01*
X0173941Y0163835D01*
X0171514Y0163835D01*
X0170154Y0163835D02*
X0166514Y0163835D01*
X0167727Y0165048D01*
X0166514Y0166262D01*
X0168334Y0171085D02*
X0167727Y0171692D01*
X0167727Y0173512D01*
X0167727Y0174710D02*
X0167727Y0175317D01*
X0170154Y0175317D01*
X0170154Y0174710D02*
X0170154Y0175924D01*
X0169547Y0173512D02*
X0168941Y0172905D01*
X0168941Y0171692D01*
X0168334Y0171085D01*
X0170154Y0171085D02*
X0170154Y0172905D01*
X0169547Y0173512D01*
X0166514Y0175317D02*
X0165907Y0175317D01*
X0165154Y0186335D02*
X0161514Y0186335D01*
X0161514Y0188155D01*
X0162121Y0188762D01*
X0163334Y0188762D01*
X0163941Y0188155D01*
X0163941Y0186335D01*
X0163941Y0187548D02*
X0165154Y0188762D01*
X0164547Y0189960D02*
X0165154Y0190567D01*
X0165154Y0191780D01*
X0164547Y0192387D01*
X0163941Y0192387D01*
X0163334Y0191780D01*
X0163334Y0190567D01*
X0162727Y0189960D01*
X0162121Y0189960D01*
X0161514Y0190567D01*
X0161514Y0191780D01*
X0162121Y0192387D01*
X0161514Y0193585D02*
X0161514Y0196012D01*
X0161514Y0194799D02*
X0165154Y0194799D01*
X0166514Y0196012D02*
X0168941Y0193585D01*
X0168334Y0194192D02*
X0170154Y0196012D01*
X0170154Y0193585D02*
X0166514Y0193585D01*
X0167121Y0192387D02*
X0166514Y0191780D01*
X0166514Y0190567D01*
X0167121Y0189960D01*
X0169547Y0189960D01*
X0170154Y0190567D01*
X0170154Y0191780D01*
X0169547Y0192387D01*
X0170907Y0190567D02*
X0171514Y0190567D01*
X0172727Y0190567D02*
X0175154Y0190567D01*
X0175154Y0191173D02*
X0175154Y0189960D01*
X0175154Y0188762D02*
X0171514Y0188762D01*
X0172727Y0187548D01*
X0171514Y0186335D01*
X0175154Y0186335D01*
X0172727Y0189960D02*
X0172727Y0190567D01*
X0173334Y0192377D02*
X0172727Y0192983D01*
X0172727Y0194804D01*
X0173334Y0196002D02*
X0174547Y0196002D01*
X0175154Y0196609D01*
X0175154Y0197822D01*
X0174547Y0198429D01*
X0173334Y0198429D01*
X0172727Y0197822D01*
X0172727Y0196609D01*
X0173334Y0196002D01*
X0174547Y0194804D02*
X0173941Y0194197D01*
X0173941Y0192983D01*
X0173334Y0192377D01*
X0175154Y0192377D02*
X0175154Y0194197D01*
X0174547Y0194804D01*
X0169547Y0188762D02*
X0170154Y0188155D01*
X0170154Y0186942D01*
X0169547Y0186335D01*
X0168334Y0186942D02*
X0168334Y0188155D01*
X0168941Y0188762D01*
X0169547Y0188762D01*
X0168334Y0186942D02*
X0167727Y0186335D01*
X0167121Y0186335D01*
X0166514Y0186942D01*
X0166514Y0188155D01*
X0167121Y0188762D01*
X0155154Y0188155D02*
X0155154Y0186942D01*
X0154547Y0186335D01*
X0153334Y0186942D02*
X0153334Y0188155D01*
X0153941Y0188762D01*
X0154547Y0188762D01*
X0155154Y0188155D01*
X0154547Y0189960D02*
X0155154Y0190567D01*
X0155154Y0191780D01*
X0154547Y0192387D01*
X0155154Y0193585D02*
X0155154Y0196012D01*
X0155154Y0193585D02*
X0151514Y0193585D01*
X0152121Y0192387D02*
X0151514Y0191780D01*
X0151514Y0190567D01*
X0152121Y0189960D01*
X0154547Y0189960D01*
X0152121Y0188762D02*
X0151514Y0188155D01*
X0151514Y0186942D01*
X0152121Y0186335D01*
X0152727Y0186335D01*
X0153334Y0186942D01*
X0150154Y0186942D02*
X0149547Y0186335D01*
X0150154Y0186942D02*
X0150154Y0188155D01*
X0149547Y0188762D01*
X0148941Y0188762D01*
X0148334Y0188155D01*
X0148334Y0186942D01*
X0147727Y0186335D01*
X0147121Y0186335D01*
X0146514Y0186942D01*
X0146514Y0188155D01*
X0147121Y0188762D01*
X0146514Y0189960D02*
X0146514Y0191780D01*
X0147121Y0192387D01*
X0149547Y0192387D01*
X0150154Y0191780D01*
X0150154Y0189960D01*
X0146514Y0189960D01*
X0145154Y0188752D02*
X0141514Y0188752D01*
X0141514Y0190572D01*
X0142121Y0191178D01*
X0143334Y0191178D01*
X0143941Y0190572D01*
X0143941Y0188752D01*
X0143941Y0189965D02*
X0145154Y0191178D01*
X0144547Y0192377D02*
X0145154Y0192983D01*
X0145154Y0194197D01*
X0144547Y0194804D01*
X0142121Y0194804D01*
X0141514Y0194197D01*
X0141514Y0192983D01*
X0142121Y0192377D01*
X0144547Y0192377D01*
X0143941Y0193590D02*
X0145154Y0194804D01*
X0146514Y0194799D02*
X0147727Y0193585D01*
X0150154Y0193585D01*
X0148334Y0193585D02*
X0148334Y0196012D01*
X0147727Y0196012D02*
X0150154Y0196012D01*
X0147727Y0196012D02*
X0146514Y0194799D01*
X0140154Y0195405D02*
X0140154Y0194192D01*
X0139547Y0193585D01*
X0139547Y0192387D02*
X0140154Y0191780D01*
X0140154Y0190567D01*
X0139547Y0189960D01*
X0140154Y0188762D02*
X0136514Y0188762D01*
X0137121Y0189960D02*
X0137727Y0189960D01*
X0138334Y0190567D01*
X0138334Y0191780D01*
X0138941Y0192387D01*
X0139547Y0192387D01*
X0138334Y0194192D02*
X0138334Y0195405D01*
X0138941Y0196012D01*
X0139547Y0196012D01*
X0140154Y0195405D01*
X0138334Y0194192D02*
X0137727Y0193585D01*
X0137121Y0193585D01*
X0136514Y0194192D01*
X0136514Y0195405D01*
X0137121Y0196012D01*
X0137121Y0192387D02*
X0136514Y0191780D01*
X0136514Y0190567D01*
X0137121Y0189960D01*
X0135154Y0190567D02*
X0134547Y0189960D01*
X0132121Y0189960D01*
X0131514Y0190567D01*
X0131514Y0191780D01*
X0132121Y0192387D01*
X0134547Y0192387D01*
X0135154Y0191780D01*
X0135154Y0190567D01*
X0133941Y0191173D02*
X0135154Y0192387D01*
X0134547Y0188762D02*
X0132121Y0188762D01*
X0131514Y0188155D01*
X0131514Y0186335D01*
X0135154Y0186335D01*
X0135154Y0188155D01*
X0134547Y0188762D01*
X0136514Y0186335D02*
X0140154Y0188762D01*
X0141514Y0187548D02*
X0141514Y0186335D01*
X0141514Y0186942D02*
X0145154Y0186942D01*
X0145154Y0187548D02*
X0145154Y0186335D01*
X0140154Y0186335D02*
X0136514Y0186335D01*
X0121630Y0133859D02*
X0121630Y0131433D01*
X0119203Y0133859D01*
X0118596Y0133859D01*
X0117990Y0133253D01*
X0117990Y0132039D01*
X0118596Y0131433D01*
X0118596Y0130234D02*
X0117990Y0129627D01*
X0117990Y0127807D01*
X0121630Y0127807D01*
X0120417Y0127807D02*
X0120417Y0129627D01*
X0119810Y0130234D01*
X0118596Y0130234D01*
X0120417Y0129021D02*
X0121630Y0130234D01*
X0072484Y0080178D02*
X0072484Y0077752D01*
X0072484Y0076553D02*
X0071271Y0075340D01*
X0071878Y0076553D02*
X0069451Y0076553D01*
X0068844Y0075947D01*
X0068844Y0074733D01*
X0069451Y0074126D01*
X0071878Y0074126D01*
X0072484Y0074733D01*
X0072484Y0075947D01*
X0071878Y0076553D01*
X0070058Y0077752D02*
X0068844Y0078965D01*
X0072484Y0078965D01*
X0157236Y0035152D02*
X0157236Y0031512D01*
X0157236Y0032726D02*
X0159056Y0032726D01*
X0159662Y0033332D01*
X0159662Y0034546D01*
X0159056Y0035152D01*
X0157236Y0035152D01*
X0160861Y0035152D02*
X0160861Y0031512D01*
X0160861Y0033332D02*
X0163288Y0033332D01*
X0163288Y0035152D02*
X0163288Y0031512D01*
X0165699Y0031512D02*
X0165699Y0035152D01*
X0164486Y0035152D02*
X0166913Y0035152D01*
X0189432Y0034148D02*
X0193072Y0034148D01*
X0193072Y0032935D02*
X0193072Y0035361D01*
X0192465Y0036560D02*
X0193072Y0037166D01*
X0193072Y0038380D01*
X0192465Y0038986D01*
X0191859Y0038986D01*
X0191252Y0038380D01*
X0191252Y0036560D01*
X0192465Y0036560D01*
X0191252Y0036560D02*
X0190039Y0037773D01*
X0189432Y0038986D01*
X0190039Y0040185D02*
X0189432Y0040791D01*
X0189432Y0042005D01*
X0190039Y0042612D01*
X0192465Y0040185D01*
X0193072Y0040791D01*
X0193072Y0042005D01*
X0192465Y0042612D01*
X0190039Y0042612D01*
X0190039Y0043810D02*
X0189432Y0044417D01*
X0189432Y0045630D01*
X0190039Y0046237D01*
X0190645Y0046237D01*
X0193072Y0043810D01*
X0193072Y0046237D01*
X0193072Y0047435D02*
X0190645Y0049862D01*
X0190039Y0049862D01*
X0189432Y0049255D01*
X0189432Y0048042D01*
X0190039Y0047435D01*
X0193072Y0047435D02*
X0193072Y0049862D01*
X0192465Y0051060D02*
X0193072Y0051667D01*
X0193072Y0052880D01*
X0192465Y0053487D01*
X0190039Y0053487D01*
X0189432Y0052880D01*
X0189432Y0051667D01*
X0190039Y0051060D01*
X0190645Y0051060D01*
X0191252Y0051667D01*
X0191252Y0053487D01*
X0192465Y0040185D02*
X0190039Y0040185D01*
X0189432Y0034148D02*
X0190645Y0032935D01*
X0190039Y0031736D02*
X0192465Y0029309D01*
X0193072Y0029916D01*
X0193072Y0031129D01*
X0192465Y0031736D01*
X0190039Y0031736D01*
X0189432Y0031129D01*
X0189432Y0029916D01*
X0190039Y0029309D01*
X0192465Y0029309D01*
X0193072Y0028111D02*
X0193072Y0025684D01*
X0190645Y0028111D01*
X0190039Y0028111D01*
X0189432Y0027504D01*
X0189432Y0026291D01*
X0190039Y0025684D01*
D11*
X0198650Y0005476D02*
X0001800Y0005476D01*
X0001800Y0202327D01*
X0198650Y0202327D01*
X0198650Y0005476D01*
X0062233Y0171876D02*
X0062235Y0171938D01*
X0062241Y0172001D01*
X0062251Y0172062D01*
X0062265Y0172123D01*
X0062282Y0172183D01*
X0062303Y0172242D01*
X0062329Y0172299D01*
X0062357Y0172354D01*
X0062389Y0172408D01*
X0062425Y0172459D01*
X0062463Y0172509D01*
X0062505Y0172555D01*
X0062549Y0172599D01*
X0062597Y0172640D01*
X0062646Y0172678D01*
X0062698Y0172712D01*
X0062752Y0172743D01*
X0062808Y0172771D01*
X0062866Y0172795D01*
X0062925Y0172816D01*
X0062985Y0172832D01*
X0063046Y0172845D01*
X0063108Y0172854D01*
X0063170Y0172859D01*
X0063233Y0172860D01*
X0063295Y0172857D01*
X0063357Y0172850D01*
X0063419Y0172839D01*
X0063479Y0172824D01*
X0063539Y0172806D01*
X0063597Y0172784D01*
X0063654Y0172758D01*
X0063709Y0172728D01*
X0063762Y0172695D01*
X0063813Y0172659D01*
X0063861Y0172620D01*
X0063907Y0172577D01*
X0063950Y0172532D01*
X0063990Y0172484D01*
X0064027Y0172434D01*
X0064061Y0172381D01*
X0064092Y0172327D01*
X0064118Y0172271D01*
X0064142Y0172213D01*
X0064161Y0172153D01*
X0064177Y0172093D01*
X0064189Y0172031D01*
X0064197Y0171970D01*
X0064201Y0171907D01*
X0064201Y0171845D01*
X0064197Y0171782D01*
X0064189Y0171721D01*
X0064177Y0171659D01*
X0064161Y0171599D01*
X0064142Y0171539D01*
X0064118Y0171481D01*
X0064092Y0171425D01*
X0064061Y0171371D01*
X0064027Y0171318D01*
X0063990Y0171268D01*
X0063950Y0171220D01*
X0063907Y0171175D01*
X0063861Y0171132D01*
X0063813Y0171093D01*
X0063762Y0171057D01*
X0063709Y0171024D01*
X0063654Y0170994D01*
X0063597Y0170968D01*
X0063539Y0170946D01*
X0063479Y0170928D01*
X0063419Y0170913D01*
X0063357Y0170902D01*
X0063295Y0170895D01*
X0063233Y0170892D01*
X0063170Y0170893D01*
X0063108Y0170898D01*
X0063046Y0170907D01*
X0062985Y0170920D01*
X0062925Y0170936D01*
X0062866Y0170957D01*
X0062808Y0170981D01*
X0062752Y0171009D01*
X0062698Y0171040D01*
X0062646Y0171074D01*
X0062597Y0171112D01*
X0062549Y0171153D01*
X0062505Y0171197D01*
X0062463Y0171243D01*
X0062425Y0171293D01*
X0062389Y0171344D01*
X0062357Y0171398D01*
X0062329Y0171453D01*
X0062303Y0171510D01*
X0062282Y0171569D01*
X0062265Y0171629D01*
X0062251Y0171690D01*
X0062241Y0171751D01*
X0062235Y0171814D01*
X0062233Y0171876D01*
X0125816Y0190476D02*
X0125818Y0190538D01*
X0125824Y0190601D01*
X0125834Y0190662D01*
X0125848Y0190723D01*
X0125865Y0190783D01*
X0125886Y0190842D01*
X0125912Y0190899D01*
X0125940Y0190954D01*
X0125972Y0191008D01*
X0126008Y0191059D01*
X0126046Y0191109D01*
X0126088Y0191155D01*
X0126132Y0191199D01*
X0126180Y0191240D01*
X0126229Y0191278D01*
X0126281Y0191312D01*
X0126335Y0191343D01*
X0126391Y0191371D01*
X0126449Y0191395D01*
X0126508Y0191416D01*
X0126568Y0191432D01*
X0126629Y0191445D01*
X0126691Y0191454D01*
X0126753Y0191459D01*
X0126816Y0191460D01*
X0126878Y0191457D01*
X0126940Y0191450D01*
X0127002Y0191439D01*
X0127062Y0191424D01*
X0127122Y0191406D01*
X0127180Y0191384D01*
X0127237Y0191358D01*
X0127292Y0191328D01*
X0127345Y0191295D01*
X0127396Y0191259D01*
X0127444Y0191220D01*
X0127490Y0191177D01*
X0127533Y0191132D01*
X0127573Y0191084D01*
X0127610Y0191034D01*
X0127644Y0190981D01*
X0127675Y0190927D01*
X0127701Y0190871D01*
X0127725Y0190813D01*
X0127744Y0190753D01*
X0127760Y0190693D01*
X0127772Y0190631D01*
X0127780Y0190570D01*
X0127784Y0190507D01*
X0127784Y0190445D01*
X0127780Y0190382D01*
X0127772Y0190321D01*
X0127760Y0190259D01*
X0127744Y0190199D01*
X0127725Y0190139D01*
X0127701Y0190081D01*
X0127675Y0190025D01*
X0127644Y0189971D01*
X0127610Y0189918D01*
X0127573Y0189868D01*
X0127533Y0189820D01*
X0127490Y0189775D01*
X0127444Y0189732D01*
X0127396Y0189693D01*
X0127345Y0189657D01*
X0127292Y0189624D01*
X0127237Y0189594D01*
X0127180Y0189568D01*
X0127122Y0189546D01*
X0127062Y0189528D01*
X0127002Y0189513D01*
X0126940Y0189502D01*
X0126878Y0189495D01*
X0126816Y0189492D01*
X0126753Y0189493D01*
X0126691Y0189498D01*
X0126629Y0189507D01*
X0126568Y0189520D01*
X0126508Y0189536D01*
X0126449Y0189557D01*
X0126391Y0189581D01*
X0126335Y0189609D01*
X0126281Y0189640D01*
X0126229Y0189674D01*
X0126180Y0189712D01*
X0126132Y0189753D01*
X0126088Y0189797D01*
X0126046Y0189843D01*
X0126008Y0189893D01*
X0125972Y0189944D01*
X0125940Y0189998D01*
X0125912Y0190053D01*
X0125886Y0190110D01*
X0125865Y0190169D01*
X0125848Y0190229D01*
X0125834Y0190290D01*
X0125824Y0190351D01*
X0125818Y0190414D01*
X0125816Y0190476D01*
X0129300Y0180476D02*
X0176800Y0180476D01*
X0180816Y0185476D02*
X0180818Y0185538D01*
X0180824Y0185601D01*
X0180834Y0185662D01*
X0180848Y0185723D01*
X0180865Y0185783D01*
X0180886Y0185842D01*
X0180912Y0185899D01*
X0180940Y0185954D01*
X0180972Y0186008D01*
X0181008Y0186059D01*
X0181046Y0186109D01*
X0181088Y0186155D01*
X0181132Y0186199D01*
X0181180Y0186240D01*
X0181229Y0186278D01*
X0181281Y0186312D01*
X0181335Y0186343D01*
X0181391Y0186371D01*
X0181449Y0186395D01*
X0181508Y0186416D01*
X0181568Y0186432D01*
X0181629Y0186445D01*
X0181691Y0186454D01*
X0181753Y0186459D01*
X0181816Y0186460D01*
X0181878Y0186457D01*
X0181940Y0186450D01*
X0182002Y0186439D01*
X0182062Y0186424D01*
X0182122Y0186406D01*
X0182180Y0186384D01*
X0182237Y0186358D01*
X0182292Y0186328D01*
X0182345Y0186295D01*
X0182396Y0186259D01*
X0182444Y0186220D01*
X0182490Y0186177D01*
X0182533Y0186132D01*
X0182573Y0186084D01*
X0182610Y0186034D01*
X0182644Y0185981D01*
X0182675Y0185927D01*
X0182701Y0185871D01*
X0182725Y0185813D01*
X0182744Y0185753D01*
X0182760Y0185693D01*
X0182772Y0185631D01*
X0182780Y0185570D01*
X0182784Y0185507D01*
X0182784Y0185445D01*
X0182780Y0185382D01*
X0182772Y0185321D01*
X0182760Y0185259D01*
X0182744Y0185199D01*
X0182725Y0185139D01*
X0182701Y0185081D01*
X0182675Y0185025D01*
X0182644Y0184971D01*
X0182610Y0184918D01*
X0182573Y0184868D01*
X0182533Y0184820D01*
X0182490Y0184775D01*
X0182444Y0184732D01*
X0182396Y0184693D01*
X0182345Y0184657D01*
X0182292Y0184624D01*
X0182237Y0184594D01*
X0182180Y0184568D01*
X0182122Y0184546D01*
X0182062Y0184528D01*
X0182002Y0184513D01*
X0181940Y0184502D01*
X0181878Y0184495D01*
X0181816Y0184492D01*
X0181753Y0184493D01*
X0181691Y0184498D01*
X0181629Y0184507D01*
X0181568Y0184520D01*
X0181508Y0184536D01*
X0181449Y0184557D01*
X0181391Y0184581D01*
X0181335Y0184609D01*
X0181281Y0184640D01*
X0181229Y0184674D01*
X0181180Y0184712D01*
X0181132Y0184753D01*
X0181088Y0184797D01*
X0181046Y0184843D01*
X0181008Y0184893D01*
X0180972Y0184944D01*
X0180940Y0184998D01*
X0180912Y0185053D01*
X0180886Y0185110D01*
X0180865Y0185169D01*
X0180848Y0185229D01*
X0180834Y0185290D01*
X0180824Y0185351D01*
X0180818Y0185414D01*
X0180816Y0185476D01*
D12*
X0193631Y0154717D02*
X0140087Y0101174D01*
X0160067Y0111606D02*
X0160187Y0111593D01*
X0160305Y0111576D01*
X0160423Y0111557D01*
X0160541Y0111534D01*
X0160658Y0111508D01*
X0170599Y0111607D01*
X0171879Y0111902D02*
X0171881Y0111976D01*
X0171887Y0112050D01*
X0171897Y0112123D01*
X0171911Y0112196D01*
X0171928Y0112268D01*
X0171950Y0112338D01*
X0171975Y0112408D01*
X0172004Y0112476D01*
X0172037Y0112542D01*
X0172073Y0112607D01*
X0172113Y0112669D01*
X0172155Y0112730D01*
X0172201Y0112788D01*
X0172250Y0112843D01*
X0172302Y0112896D01*
X0172357Y0112946D01*
X0172414Y0112992D01*
X0172474Y0113036D01*
X0172536Y0113076D01*
X0172600Y0113113D01*
X0172666Y0113147D01*
X0172734Y0113177D01*
X0172803Y0113203D01*
X0172874Y0113226D01*
X0172945Y0113244D01*
X0173018Y0113259D01*
X0173091Y0113270D01*
X0173165Y0113277D01*
X0173239Y0113280D01*
X0173312Y0113279D01*
X0173386Y0113274D01*
X0173460Y0113265D01*
X0173533Y0113252D01*
X0173605Y0113235D01*
X0173676Y0113215D01*
X0173746Y0113190D01*
X0173814Y0113162D01*
X0173881Y0113131D01*
X0173946Y0113095D01*
X0174009Y0113057D01*
X0174070Y0113015D01*
X0174129Y0112969D01*
X0174185Y0112921D01*
X0174238Y0112870D01*
X0174288Y0112816D01*
X0174336Y0112759D01*
X0174380Y0112700D01*
X0174422Y0112638D01*
X0174460Y0112575D01*
X0174494Y0112509D01*
X0174525Y0112442D01*
X0174552Y0112373D01*
X0174575Y0112303D01*
X0174595Y0112232D01*
X0174611Y0112159D01*
X0174623Y0112086D01*
X0174631Y0112013D01*
X0174635Y0111939D01*
X0174635Y0111865D01*
X0174631Y0111791D01*
X0174623Y0111718D01*
X0174611Y0111645D01*
X0174595Y0111572D01*
X0174575Y0111501D01*
X0174552Y0111431D01*
X0174525Y0111362D01*
X0174494Y0111295D01*
X0174460Y0111229D01*
X0174422Y0111166D01*
X0174380Y0111104D01*
X0174336Y0111045D01*
X0174288Y0110988D01*
X0174238Y0110934D01*
X0174185Y0110883D01*
X0174129Y0110835D01*
X0174070Y0110789D01*
X0174009Y0110747D01*
X0173946Y0110709D01*
X0173881Y0110673D01*
X0173814Y0110642D01*
X0173746Y0110614D01*
X0173676Y0110589D01*
X0173605Y0110569D01*
X0173533Y0110552D01*
X0173460Y0110539D01*
X0173386Y0110530D01*
X0173312Y0110525D01*
X0173239Y0110524D01*
X0173165Y0110527D01*
X0173091Y0110534D01*
X0173018Y0110545D01*
X0172945Y0110560D01*
X0172874Y0110578D01*
X0172803Y0110601D01*
X0172734Y0110627D01*
X0172666Y0110657D01*
X0172600Y0110691D01*
X0172536Y0110728D01*
X0172474Y0110768D01*
X0172414Y0110812D01*
X0172357Y0110858D01*
X0172302Y0110908D01*
X0172250Y0110961D01*
X0172201Y0111016D01*
X0172155Y0111074D01*
X0172113Y0111135D01*
X0172073Y0111197D01*
X0172037Y0111262D01*
X0172004Y0111328D01*
X0171975Y0111396D01*
X0171950Y0111466D01*
X0171928Y0111536D01*
X0171911Y0111608D01*
X0171897Y0111681D01*
X0171887Y0111754D01*
X0171881Y0111828D01*
X0171879Y0111902D01*
X0170698Y0111902D02*
X0170700Y0112003D01*
X0170706Y0112104D01*
X0170716Y0112205D01*
X0170730Y0112305D01*
X0170748Y0112404D01*
X0170770Y0112503D01*
X0170795Y0112601D01*
X0170825Y0112698D01*
X0170858Y0112793D01*
X0170895Y0112887D01*
X0170936Y0112980D01*
X0170980Y0113071D01*
X0171028Y0113160D01*
X0171080Y0113247D01*
X0171135Y0113332D01*
X0171193Y0113414D01*
X0171254Y0113495D01*
X0171319Y0113573D01*
X0171386Y0113648D01*
X0171456Y0113720D01*
X0171530Y0113790D01*
X0171606Y0113857D01*
X0171684Y0113921D01*
X0171765Y0113981D01*
X0171848Y0114038D01*
X0171934Y0114092D01*
X0172022Y0114143D01*
X0172111Y0114190D01*
X0172202Y0114234D01*
X0172295Y0114273D01*
X0172390Y0114310D01*
X0172485Y0114342D01*
X0172582Y0114371D01*
X0172681Y0114395D01*
X0172779Y0114416D01*
X0172879Y0114433D01*
X0172979Y0114446D01*
X0173080Y0114455D01*
X0173181Y0114460D01*
X0173282Y0114461D01*
X0173383Y0114458D01*
X0173484Y0114451D01*
X0173585Y0114440D01*
X0173685Y0114425D01*
X0173784Y0114406D01*
X0173883Y0114383D01*
X0173980Y0114357D01*
X0174077Y0114326D01*
X0174172Y0114292D01*
X0174265Y0114254D01*
X0174358Y0114212D01*
X0174448Y0114167D01*
X0174537Y0114118D01*
X0174623Y0114066D01*
X0174707Y0114010D01*
X0174790Y0113951D01*
X0174869Y0113889D01*
X0174947Y0113824D01*
X0175021Y0113756D01*
X0175093Y0113684D01*
X0175162Y0113611D01*
X0175228Y0113534D01*
X0175291Y0113455D01*
X0175351Y0113373D01*
X0175407Y0113289D01*
X0175460Y0113203D01*
X0175510Y0113115D01*
X0175556Y0113025D01*
X0175599Y0112934D01*
X0175638Y0112840D01*
X0175673Y0112745D01*
X0175704Y0112649D01*
X0175732Y0112552D01*
X0175756Y0112454D01*
X0175776Y0112355D01*
X0175792Y0112255D01*
X0175804Y0112154D01*
X0175812Y0112054D01*
X0175816Y0111953D01*
X0175816Y0111851D01*
X0175812Y0111750D01*
X0175804Y0111650D01*
X0175792Y0111549D01*
X0175776Y0111449D01*
X0175756Y0111350D01*
X0175732Y0111252D01*
X0175704Y0111155D01*
X0175673Y0111059D01*
X0175638Y0110964D01*
X0175599Y0110870D01*
X0175556Y0110779D01*
X0175510Y0110689D01*
X0175460Y0110601D01*
X0175407Y0110515D01*
X0175351Y0110431D01*
X0175291Y0110349D01*
X0175228Y0110270D01*
X0175162Y0110193D01*
X0175093Y0110120D01*
X0175021Y0110048D01*
X0174947Y0109980D01*
X0174869Y0109915D01*
X0174790Y0109853D01*
X0174707Y0109794D01*
X0174623Y0109738D01*
X0174536Y0109686D01*
X0174448Y0109637D01*
X0174358Y0109592D01*
X0174265Y0109550D01*
X0174172Y0109512D01*
X0174077Y0109478D01*
X0173980Y0109447D01*
X0173883Y0109421D01*
X0173784Y0109398D01*
X0173685Y0109379D01*
X0173585Y0109364D01*
X0173484Y0109353D01*
X0173383Y0109346D01*
X0173282Y0109343D01*
X0173181Y0109344D01*
X0173080Y0109349D01*
X0172979Y0109358D01*
X0172879Y0109371D01*
X0172779Y0109388D01*
X0172681Y0109409D01*
X0172582Y0109433D01*
X0172485Y0109462D01*
X0172390Y0109494D01*
X0172295Y0109531D01*
X0172202Y0109570D01*
X0172111Y0109614D01*
X0172022Y0109661D01*
X0171934Y0109712D01*
X0171848Y0109766D01*
X0171765Y0109823D01*
X0171684Y0109883D01*
X0171606Y0109947D01*
X0171530Y0110014D01*
X0171456Y0110084D01*
X0171386Y0110156D01*
X0171319Y0110231D01*
X0171254Y0110309D01*
X0171193Y0110390D01*
X0171135Y0110472D01*
X0171080Y0110557D01*
X0171028Y0110644D01*
X0170980Y0110733D01*
X0170936Y0110824D01*
X0170895Y0110917D01*
X0170858Y0111011D01*
X0170825Y0111106D01*
X0170795Y0111203D01*
X0170770Y0111301D01*
X0170748Y0111400D01*
X0170730Y0111499D01*
X0170716Y0111599D01*
X0170706Y0111700D01*
X0170700Y0111801D01*
X0170698Y0111902D01*
X0174536Y0114166D02*
X0177292Y0141331D01*
X0177883Y0141429D02*
X0173158Y0141429D01*
X0165087Y0141429D01*
X0156623Y0141429D01*
X0155048Y0141429D01*
X0155022Y0141431D01*
X0154997Y0141436D01*
X0154973Y0141444D01*
X0154950Y0141455D01*
X0154928Y0141470D01*
X0154909Y0141487D01*
X0154892Y0141506D01*
X0154877Y0141528D01*
X0154866Y0141551D01*
X0154858Y0141575D01*
X0154853Y0141600D01*
X0154851Y0141626D01*
X0154851Y0141922D01*
X0154851Y0142118D01*
X0154853Y0142151D01*
X0154858Y0142184D01*
X0154868Y0142215D01*
X0154880Y0142246D01*
X0154896Y0142275D01*
X0154915Y0142302D01*
X0154937Y0142327D01*
X0154962Y0142349D01*
X0154989Y0142368D01*
X0155018Y0142384D01*
X0155049Y0142396D01*
X0155080Y0142406D01*
X0155113Y0142411D01*
X0155146Y0142413D01*
X0155146Y0142414D02*
X0155245Y0142414D01*
X0155343Y0142414D01*
X0178769Y0142414D01*
X0178769Y0142315D01*
X0178767Y0142257D01*
X0178761Y0142199D01*
X0178752Y0142142D01*
X0178739Y0142086D01*
X0178722Y0142030D01*
X0178702Y0141976D01*
X0178678Y0141923D01*
X0178650Y0141872D01*
X0178620Y0141823D01*
X0178586Y0141776D01*
X0178549Y0141731D01*
X0178509Y0141689D01*
X0178467Y0141649D01*
X0178422Y0141612D01*
X0178375Y0141578D01*
X0178326Y0141548D01*
X0178275Y0141520D01*
X0178222Y0141496D01*
X0178168Y0141476D01*
X0178112Y0141459D01*
X0178056Y0141446D01*
X0177999Y0141437D01*
X0177941Y0141431D01*
X0177883Y0141429D01*
X0177686Y0139658D02*
X0177630Y0139648D01*
X0177574Y0139642D01*
X0177517Y0139638D01*
X0177461Y0139638D01*
X0177404Y0139642D01*
X0177348Y0139648D01*
X0177292Y0139658D01*
X0177686Y0139658D02*
X0177744Y0139668D01*
X0177803Y0139674D01*
X0177863Y0139676D01*
X0177922Y0139674D01*
X0177981Y0139669D01*
X0178039Y0139659D01*
X0178097Y0139646D01*
X0178154Y0139629D01*
X0178209Y0139608D01*
X0178263Y0139584D01*
X0178316Y0139556D01*
X0178366Y0139524D01*
X0178414Y0139490D01*
X0178460Y0139453D01*
X0178503Y0139412D01*
X0178544Y0139369D01*
X0178582Y0139323D01*
X0178616Y0139275D01*
X0178647Y0139225D01*
X0178675Y0139172D01*
X0178700Y0139119D01*
X0178721Y0139063D01*
X0178738Y0139006D01*
X0178752Y0138949D01*
X0178761Y0138890D01*
X0178767Y0138831D01*
X0178769Y0138772D01*
X0178769Y0138181D01*
X0178768Y0138181D02*
X0178766Y0138119D01*
X0178760Y0138058D01*
X0178751Y0137997D01*
X0178737Y0137936D01*
X0178720Y0137877D01*
X0178699Y0137819D01*
X0178674Y0137762D01*
X0178646Y0137707D01*
X0178615Y0137654D01*
X0178580Y0137603D01*
X0178542Y0137554D01*
X0178501Y0137507D01*
X0178458Y0137464D01*
X0178411Y0137423D01*
X0178362Y0137385D01*
X0178311Y0137350D01*
X0178258Y0137319D01*
X0178203Y0137291D01*
X0178146Y0137266D01*
X0178088Y0137245D01*
X0178029Y0137228D01*
X0177968Y0137214D01*
X0177907Y0137205D01*
X0177846Y0137199D01*
X0177784Y0137197D01*
X0177095Y0137197D01*
X0176998Y0143300D02*
X0176929Y0143347D01*
X0176859Y0143391D01*
X0176788Y0143433D01*
X0176714Y0143471D01*
X0176639Y0143507D01*
X0176563Y0143539D01*
X0176486Y0143569D01*
X0176407Y0143595D01*
X0176996Y0143299D02*
X0177031Y0143272D01*
X0177063Y0143241D01*
X0177093Y0143209D01*
X0177120Y0143173D01*
X0177144Y0143136D01*
X0177165Y0143097D01*
X0177182Y0143056D01*
X0177196Y0143014D01*
X0177207Y0142971D01*
X0177214Y0142928D01*
X0177217Y0142884D01*
X0177216Y0142839D01*
X0177212Y0142795D01*
X0177204Y0142752D01*
X0177193Y0142709D01*
X0176898Y0142709D02*
X0156524Y0142709D01*
X0156425Y0142709D02*
X0156415Y0142765D01*
X0156409Y0142821D01*
X0156406Y0142877D01*
X0156407Y0142934D01*
X0156411Y0142990D01*
X0156419Y0143046D01*
X0156431Y0143102D01*
X0156446Y0143156D01*
X0156465Y0143210D01*
X0156487Y0143262D01*
X0156512Y0143313D01*
X0156541Y0143361D01*
X0156572Y0143408D01*
X0156607Y0143453D01*
X0156644Y0143496D01*
X0156684Y0143536D01*
X0156727Y0143573D01*
X0156771Y0143608D01*
X0156818Y0143640D01*
X0156867Y0143668D01*
X0156918Y0143694D01*
X0158591Y0143890D02*
X0158690Y0142906D01*
X0158591Y0144481D02*
X0158596Y0144511D01*
X0158605Y0144540D01*
X0158617Y0144567D01*
X0158632Y0144594D01*
X0158650Y0144618D01*
X0158671Y0144639D01*
X0158695Y0144658D01*
X0158721Y0144674D01*
X0158748Y0144686D01*
X0158777Y0144696D01*
X0158807Y0144701D01*
X0158837Y0144703D01*
X0158867Y0144701D01*
X0158897Y0144696D01*
X0158926Y0144686D01*
X0158953Y0144674D01*
X0158979Y0144658D01*
X0159003Y0144639D01*
X0159024Y0144618D01*
X0159042Y0144594D01*
X0159057Y0144567D01*
X0159069Y0144540D01*
X0159078Y0144511D01*
X0159083Y0144481D01*
X0158592Y0144480D02*
X0158584Y0144382D01*
X0158579Y0144284D01*
X0158577Y0144185D01*
X0158579Y0144086D01*
X0158584Y0143988D01*
X0158592Y0143890D01*
X0156426Y0141331D02*
X0159280Y0112394D01*
X0159288Y0112337D01*
X0159299Y0112280D01*
X0159314Y0112225D01*
X0159332Y0112171D01*
X0159354Y0112118D01*
X0159380Y0112066D01*
X0159408Y0112016D01*
X0159440Y0111969D01*
X0159475Y0111923D01*
X0159513Y0111880D01*
X0159554Y0111839D01*
X0159597Y0111801D01*
X0159643Y0111766D01*
X0159690Y0111734D01*
X0159740Y0111706D01*
X0159792Y0111680D01*
X0159845Y0111658D01*
X0159899Y0111640D01*
X0159954Y0111625D01*
X0160011Y0111614D01*
X0160068Y0111606D01*
X0160363Y0111311D02*
X0160363Y0110032D01*
X0160365Y0109986D01*
X0160370Y0109940D01*
X0160379Y0109894D01*
X0160392Y0109849D01*
X0160408Y0109806D01*
X0160427Y0109764D01*
X0160450Y0109723D01*
X0160476Y0109685D01*
X0160505Y0109648D01*
X0160536Y0109614D01*
X0160570Y0109583D01*
X0160607Y0109554D01*
X0160645Y0109528D01*
X0160686Y0109505D01*
X0160728Y0109486D01*
X0160771Y0109470D01*
X0160816Y0109457D01*
X0160862Y0109448D01*
X0160908Y0109443D01*
X0160954Y0109441D01*
X0161150Y0109441D01*
X0161193Y0109443D01*
X0161235Y0109448D01*
X0161277Y0109458D01*
X0161318Y0109471D01*
X0161358Y0109487D01*
X0161396Y0109507D01*
X0161432Y0109530D01*
X0161466Y0109556D01*
X0161498Y0109585D01*
X0161527Y0109617D01*
X0161553Y0109651D01*
X0161576Y0109687D01*
X0161596Y0109725D01*
X0161612Y0109765D01*
X0161625Y0109806D01*
X0161635Y0109848D01*
X0161640Y0109890D01*
X0161642Y0109933D01*
X0161643Y0109933D02*
X0161643Y0111311D01*
X0159281Y0144284D02*
X0160262Y0144390D01*
X0161245Y0144473D01*
X0162230Y0144532D01*
X0163215Y0144567D01*
X0164202Y0144579D01*
X0164694Y0144579D01*
X0164694Y0144874D02*
X0164694Y0144087D01*
X0169221Y0144087D01*
X0169221Y0144874D01*
X0164694Y0144874D01*
X0169320Y0144579D02*
X0171190Y0144481D01*
X0176702Y0142414D02*
X0176704Y0142476D01*
X0176710Y0142539D01*
X0176720Y0142600D01*
X0176734Y0142661D01*
X0176751Y0142721D01*
X0176772Y0142780D01*
X0176798Y0142837D01*
X0176826Y0142892D01*
X0176858Y0142946D01*
X0176894Y0142997D01*
X0176932Y0143047D01*
X0176974Y0143093D01*
X0177018Y0143137D01*
X0177066Y0143178D01*
X0177115Y0143216D01*
X0177167Y0143250D01*
X0177221Y0143281D01*
X0177277Y0143309D01*
X0177335Y0143333D01*
X0177394Y0143354D01*
X0177454Y0143370D01*
X0177515Y0143383D01*
X0177577Y0143392D01*
X0177639Y0143397D01*
X0177702Y0143398D01*
X0177764Y0143395D01*
X0177826Y0143388D01*
X0177888Y0143377D01*
X0177948Y0143362D01*
X0178008Y0143344D01*
X0178066Y0143322D01*
X0178123Y0143296D01*
X0178178Y0143266D01*
X0178231Y0143233D01*
X0178282Y0143197D01*
X0178330Y0143158D01*
X0178376Y0143115D01*
X0178419Y0143070D01*
X0178459Y0143022D01*
X0178496Y0142972D01*
X0178530Y0142919D01*
X0178561Y0142865D01*
X0178587Y0142809D01*
X0178611Y0142751D01*
X0178630Y0142691D01*
X0178646Y0142631D01*
X0178658Y0142569D01*
X0178666Y0142508D01*
X0178670Y0142445D01*
X0178670Y0142383D01*
X0178666Y0142320D01*
X0178658Y0142259D01*
X0178646Y0142197D01*
X0178630Y0142137D01*
X0178611Y0142077D01*
X0178587Y0142019D01*
X0178561Y0141963D01*
X0178530Y0141909D01*
X0178496Y0141856D01*
X0178459Y0141806D01*
X0178419Y0141758D01*
X0178376Y0141713D01*
X0178330Y0141670D01*
X0178282Y0141631D01*
X0178231Y0141595D01*
X0178178Y0141562D01*
X0178123Y0141532D01*
X0178066Y0141506D01*
X0178008Y0141484D01*
X0177948Y0141466D01*
X0177888Y0141451D01*
X0177826Y0141440D01*
X0177764Y0141433D01*
X0177702Y0141430D01*
X0177639Y0141431D01*
X0177577Y0141436D01*
X0177515Y0141445D01*
X0177454Y0141458D01*
X0177394Y0141474D01*
X0177335Y0141495D01*
X0177277Y0141519D01*
X0177221Y0141547D01*
X0177167Y0141578D01*
X0177115Y0141612D01*
X0177066Y0141650D01*
X0177018Y0141691D01*
X0176974Y0141735D01*
X0176932Y0141781D01*
X0176894Y0141831D01*
X0176858Y0141882D01*
X0176826Y0141936D01*
X0176798Y0141991D01*
X0176772Y0142048D01*
X0176751Y0142107D01*
X0176734Y0142167D01*
X0176720Y0142228D01*
X0176710Y0142289D01*
X0176704Y0142352D01*
X0176702Y0142414D01*
X0170796Y0133851D02*
X0170796Y0133162D01*
X0170794Y0133123D01*
X0170788Y0133085D01*
X0170779Y0133048D01*
X0170766Y0133011D01*
X0170749Y0132976D01*
X0170730Y0132943D01*
X0170707Y0132912D01*
X0170681Y0132883D01*
X0170652Y0132857D01*
X0170621Y0132834D01*
X0170588Y0132815D01*
X0170553Y0132798D01*
X0170516Y0132785D01*
X0170479Y0132776D01*
X0170441Y0132770D01*
X0170402Y0132768D01*
X0165776Y0132768D01*
X0165730Y0132770D01*
X0165684Y0132775D01*
X0165638Y0132784D01*
X0165593Y0132797D01*
X0165550Y0132813D01*
X0165508Y0132832D01*
X0165467Y0132855D01*
X0165429Y0132881D01*
X0165392Y0132910D01*
X0165358Y0132941D01*
X0165327Y0132975D01*
X0165298Y0133012D01*
X0165272Y0133050D01*
X0165249Y0133091D01*
X0165230Y0133133D01*
X0165214Y0133176D01*
X0165201Y0133221D01*
X0165192Y0133267D01*
X0165187Y0133313D01*
X0165185Y0133359D01*
X0165186Y0133359D02*
X0165186Y0133654D01*
X0165186Y0133949D01*
X0159280Y0144283D02*
X0158983Y0144244D01*
X0158687Y0144198D01*
X0158392Y0144146D01*
X0158099Y0144086D01*
X0155343Y0142414D02*
X0155245Y0142414D01*
X0159083Y0143004D02*
X0159098Y0143167D01*
X0159109Y0143331D01*
X0159116Y0143496D01*
X0159120Y0143660D01*
X0159120Y0143824D01*
X0159116Y0143988D01*
X0159109Y0144153D01*
X0159098Y0144317D01*
X0159083Y0144480D01*
X0158100Y0144086D02*
X0157964Y0144056D01*
X0157830Y0144022D01*
X0157697Y0143985D01*
X0157564Y0143944D01*
X0157433Y0143900D01*
X0157302Y0143853D01*
X0157173Y0143803D01*
X0157045Y0143749D01*
X0156919Y0143693D01*
X0140284Y0154520D02*
X0193434Y0101370D01*
X0174437Y0144087D02*
X0173900Y0144183D01*
X0173361Y0144267D01*
X0172820Y0144339D01*
X0172278Y0144399D01*
X0171734Y0144446D01*
X0171189Y0144481D01*
X0174438Y0144087D02*
X0174836Y0144006D01*
X0175232Y0143917D01*
X0175626Y0143818D01*
X0176017Y0143711D01*
X0176407Y0143595D01*
D13*
X0086446Y0082931D02*
X0086446Y0071120D01*
X0086052Y0075056D02*
X0085965Y0075058D01*
X0085878Y0075064D01*
X0085791Y0075073D01*
X0085705Y0075087D01*
X0085620Y0075104D01*
X0085535Y0075125D01*
X0085452Y0075150D01*
X0085369Y0075178D01*
X0085288Y0075210D01*
X0085209Y0075246D01*
X0085131Y0075285D01*
X0085055Y0075327D01*
X0084981Y0075373D01*
X0084909Y0075422D01*
X0084839Y0075474D01*
X0084772Y0075529D01*
X0084707Y0075587D01*
X0084644Y0075648D01*
X0084585Y0075712D01*
X0084528Y0075778D01*
X0084475Y0075847D01*
X0084424Y0075918D01*
X0084377Y0075991D01*
X0084332Y0076066D01*
X0084292Y0076143D01*
X0084254Y0076221D01*
X0084221Y0076302D01*
X0084190Y0076383D01*
X0084164Y0076466D01*
X0084141Y0076551D01*
X0084122Y0076636D01*
X0084107Y0076721D01*
X0084095Y0076808D01*
X0084087Y0076894D01*
X0084083Y0076981D01*
X0084083Y0077069D01*
X0084087Y0077156D01*
X0084095Y0077242D01*
X0084107Y0077329D01*
X0084122Y0077414D01*
X0084141Y0077499D01*
X0084164Y0077584D01*
X0084190Y0077667D01*
X0084221Y0077748D01*
X0084254Y0077829D01*
X0084292Y0077907D01*
X0084332Y0077984D01*
X0084377Y0078059D01*
X0084424Y0078132D01*
X0084475Y0078203D01*
X0084528Y0078272D01*
X0084585Y0078338D01*
X0084644Y0078402D01*
X0084707Y0078463D01*
X0084772Y0078521D01*
X0084839Y0078576D01*
X0084909Y0078628D01*
X0084981Y0078677D01*
X0085055Y0078723D01*
X0085131Y0078765D01*
X0085209Y0078804D01*
X0085288Y0078840D01*
X0085369Y0078872D01*
X0085452Y0078900D01*
X0085535Y0078925D01*
X0085620Y0078946D01*
X0085705Y0078963D01*
X0085791Y0078977D01*
X0085878Y0078986D01*
X0085965Y0078992D01*
X0086052Y0078994D01*
X0076604Y0082931D02*
X0065580Y0082931D01*
X0055737Y0082931D02*
X0055737Y0071120D01*
X0065580Y0071120D02*
X0076604Y0071120D01*
D14*
X0037672Y0108571D02*
X0039572Y0110471D01*
X0037872Y0112871D01*
X0038872Y0115571D02*
X0041872Y0116071D01*
X0041872Y0118671D01*
X0038872Y0119271D01*
X0037772Y0121771D02*
X0039572Y0124371D01*
X0037672Y0126171D01*
X0035072Y0124371D01*
X0032572Y0125371D02*
X0032072Y0128571D01*
X0029372Y0128571D01*
X0028872Y0125371D01*
X0026372Y0124371D02*
X0023772Y0126171D01*
X0021872Y0124371D01*
X0023672Y0121771D01*
X0022572Y0119271D02*
X0019572Y0118671D01*
X0019572Y0116071D01*
X0022572Y0115571D01*
X0023572Y0112871D02*
X0021972Y0110471D01*
X0023772Y0108571D01*
X0026172Y0110271D01*
X0027172Y0109671D01*
X0029172Y0114171D01*
X0032372Y0114171D02*
X0034272Y0109671D01*
X0035272Y0110271D01*
X0037672Y0108571D01*
X0037873Y0112866D02*
X0037969Y0113032D01*
X0038062Y0113199D01*
X0038150Y0113369D01*
X0038234Y0113541D01*
X0038314Y0113714D01*
X0038390Y0113890D01*
X0038462Y0114067D01*
X0038529Y0114246D01*
X0038593Y0114427D01*
X0038652Y0114609D01*
X0038706Y0114792D01*
X0038757Y0114977D01*
X0038803Y0115162D01*
X0038844Y0115349D01*
X0038881Y0115537D01*
X0038862Y0119272D02*
X0038812Y0119460D01*
X0038757Y0119647D01*
X0038698Y0119833D01*
X0038634Y0120017D01*
X0038566Y0120200D01*
X0038493Y0120381D01*
X0038416Y0120560D01*
X0038335Y0120737D01*
X0038249Y0120913D01*
X0038160Y0121086D01*
X0038066Y0121257D01*
X0037968Y0121425D01*
X0037866Y0121592D01*
X0037761Y0121755D01*
X0032372Y0114271D02*
X0032479Y0114326D01*
X0032585Y0114383D01*
X0032688Y0114445D01*
X0032790Y0114509D01*
X0032889Y0114577D01*
X0032986Y0114648D01*
X0033081Y0114722D01*
X0033173Y0114799D01*
X0033263Y0114880D01*
X0033350Y0114963D01*
X0033434Y0115049D01*
X0033515Y0115137D01*
X0033593Y0115229D01*
X0033669Y0115323D01*
X0033741Y0115419D01*
X0033810Y0115517D01*
X0033876Y0115618D01*
X0033938Y0115721D01*
X0033997Y0115826D01*
X0034053Y0115932D01*
X0034105Y0116041D01*
X0034153Y0116151D01*
X0034198Y0116263D01*
X0034239Y0116376D01*
X0034276Y0116490D01*
X0034310Y0116606D01*
X0034339Y0116722D01*
X0034365Y0116840D01*
X0034387Y0116958D01*
X0034406Y0117077D01*
X0034420Y0117196D01*
X0034430Y0117316D01*
X0034437Y0117436D01*
X0034439Y0117557D01*
X0034437Y0117677D01*
X0034432Y0117797D01*
X0034423Y0117917D01*
X0034409Y0118037D01*
X0034392Y0118156D01*
X0034371Y0118274D01*
X0034346Y0118392D01*
X0034317Y0118509D01*
X0034284Y0118624D01*
X0034248Y0118739D01*
X0034208Y0118852D01*
X0034164Y0118964D01*
X0034116Y0119075D01*
X0034065Y0119184D01*
X0034011Y0119291D01*
X0033952Y0119396D01*
X0033891Y0119500D01*
X0033826Y0119601D01*
X0033758Y0119700D01*
X0033686Y0119797D01*
X0033612Y0119891D01*
X0033534Y0119983D01*
X0033454Y0120072D01*
X0033370Y0120159D01*
X0033284Y0120243D01*
X0033195Y0120324D01*
X0033103Y0120402D01*
X0033009Y0120477D01*
X0032913Y0120548D01*
X0032814Y0120617D01*
X0032713Y0120682D01*
X0032610Y0120744D01*
X0032505Y0120803D01*
X0032398Y0120858D01*
X0032289Y0120910D01*
X0032179Y0120957D01*
X0032067Y0121002D01*
X0031954Y0121042D01*
X0031839Y0121079D01*
X0031723Y0121112D01*
X0031607Y0121142D01*
X0031489Y0121167D01*
X0031371Y0121189D01*
X0031252Y0121206D01*
X0031132Y0121220D01*
X0031012Y0121230D01*
X0030892Y0121236D01*
X0030772Y0121238D01*
X0030652Y0121236D01*
X0030532Y0121230D01*
X0030412Y0121220D01*
X0030292Y0121206D01*
X0030173Y0121189D01*
X0030055Y0121167D01*
X0029937Y0121142D01*
X0029821Y0121112D01*
X0029705Y0121079D01*
X0029590Y0121042D01*
X0029477Y0121002D01*
X0029365Y0120957D01*
X0029255Y0120910D01*
X0029146Y0120858D01*
X0029039Y0120803D01*
X0028934Y0120744D01*
X0028831Y0120682D01*
X0028730Y0120617D01*
X0028631Y0120548D01*
X0028535Y0120477D01*
X0028441Y0120402D01*
X0028349Y0120324D01*
X0028260Y0120243D01*
X0028174Y0120159D01*
X0028090Y0120072D01*
X0028010Y0119983D01*
X0027932Y0119891D01*
X0027858Y0119797D01*
X0027786Y0119700D01*
X0027718Y0119601D01*
X0027653Y0119500D01*
X0027592Y0119396D01*
X0027533Y0119291D01*
X0027479Y0119184D01*
X0027428Y0119075D01*
X0027380Y0118964D01*
X0027336Y0118852D01*
X0027296Y0118739D01*
X0027260Y0118624D01*
X0027227Y0118509D01*
X0027198Y0118392D01*
X0027173Y0118274D01*
X0027152Y0118156D01*
X0027135Y0118037D01*
X0027121Y0117917D01*
X0027112Y0117797D01*
X0027107Y0117677D01*
X0027105Y0117557D01*
X0027107Y0117436D01*
X0027114Y0117316D01*
X0027124Y0117196D01*
X0027138Y0117077D01*
X0027157Y0116958D01*
X0027179Y0116840D01*
X0027205Y0116722D01*
X0027234Y0116606D01*
X0027268Y0116490D01*
X0027305Y0116376D01*
X0027346Y0116263D01*
X0027391Y0116151D01*
X0027439Y0116041D01*
X0027491Y0115932D01*
X0027547Y0115826D01*
X0027606Y0115721D01*
X0027668Y0115618D01*
X0027734Y0115517D01*
X0027803Y0115419D01*
X0027875Y0115323D01*
X0027951Y0115229D01*
X0028029Y0115137D01*
X0028110Y0115049D01*
X0028194Y0114963D01*
X0028281Y0114880D01*
X0028371Y0114799D01*
X0028463Y0114722D01*
X0028558Y0114648D01*
X0028655Y0114577D01*
X0028754Y0114509D01*
X0028856Y0114445D01*
X0028959Y0114383D01*
X0029065Y0114326D01*
X0029172Y0114271D01*
X0023606Y0112903D02*
X0023503Y0113079D01*
X0023404Y0113258D01*
X0023310Y0113439D01*
X0023220Y0113622D01*
X0023135Y0113808D01*
X0023054Y0113995D01*
X0022978Y0114185D01*
X0022907Y0114376D01*
X0022840Y0114569D01*
X0022779Y0114764D01*
X0022721Y0114960D01*
X0022669Y0115157D01*
X0022622Y0115355D01*
X0022579Y0115555D01*
X0026406Y0124408D02*
X0026578Y0124508D01*
X0026753Y0124605D01*
X0026929Y0124697D01*
X0027108Y0124785D01*
X0027289Y0124869D01*
X0027472Y0124948D01*
X0027656Y0125023D01*
X0027843Y0125094D01*
X0028031Y0125160D01*
X0028220Y0125221D01*
X0028411Y0125278D01*
X0028604Y0125331D01*
X0028797Y0125378D01*
X0023681Y0121717D02*
X0023581Y0121555D01*
X0023484Y0121390D01*
X0023391Y0121223D01*
X0023303Y0121054D01*
X0023218Y0120884D01*
X0023137Y0120711D01*
X0023060Y0120536D01*
X0022987Y0120360D01*
X0022918Y0120182D01*
X0022853Y0120002D01*
X0022792Y0119822D01*
X0022736Y0119639D01*
X0022683Y0119456D01*
X0022635Y0119271D01*
X0032625Y0125396D02*
X0032812Y0125351D01*
X0032998Y0125302D01*
X0033183Y0125248D01*
X0033366Y0125190D01*
X0033548Y0125128D01*
X0033729Y0125062D01*
X0033908Y0124992D01*
X0034085Y0124918D01*
X0034261Y0124839D01*
X0034434Y0124757D01*
X0034606Y0124670D01*
X0034776Y0124580D01*
X0034944Y0124486D01*
X0035109Y0124388D01*
D15*
X0099694Y0027523D03*
X0099694Y0024571D03*
D16*
X0099694Y0026047D03*
D17*
X0108001Y0071677D02*
X0108001Y0097878D01*
X0109398Y0099275D01*
X0135599Y0099275D01*
X0135599Y0071677D01*
X0108001Y0071677D01*
X0109586Y0096276D02*
X0109588Y0096351D01*
X0109594Y0096425D01*
X0109604Y0096499D01*
X0109617Y0096572D01*
X0109635Y0096645D01*
X0109656Y0096716D01*
X0109681Y0096787D01*
X0109710Y0096856D01*
X0109743Y0096923D01*
X0109779Y0096988D01*
X0109818Y0097052D01*
X0109860Y0097113D01*
X0109906Y0097172D01*
X0109955Y0097229D01*
X0110007Y0097282D01*
X0110061Y0097333D01*
X0110118Y0097382D01*
X0110178Y0097426D01*
X0110240Y0097468D01*
X0110304Y0097507D01*
X0110370Y0097542D01*
X0110437Y0097573D01*
X0110507Y0097601D01*
X0110577Y0097625D01*
X0110649Y0097646D01*
X0110722Y0097662D01*
X0110795Y0097675D01*
X0110870Y0097684D01*
X0110944Y0097689D01*
X0111019Y0097690D01*
X0111093Y0097687D01*
X0111168Y0097680D01*
X0111241Y0097669D01*
X0111315Y0097655D01*
X0111387Y0097636D01*
X0111458Y0097614D01*
X0111528Y0097588D01*
X0111597Y0097558D01*
X0111663Y0097525D01*
X0111728Y0097488D01*
X0111791Y0097448D01*
X0111852Y0097404D01*
X0111910Y0097358D01*
X0111966Y0097308D01*
X0112019Y0097256D01*
X0112070Y0097201D01*
X0112117Y0097143D01*
X0112161Y0097083D01*
X0112202Y0097020D01*
X0112240Y0096956D01*
X0112274Y0096890D01*
X0112305Y0096821D01*
X0112332Y0096752D01*
X0112355Y0096681D01*
X0112374Y0096609D01*
X0112390Y0096536D01*
X0112402Y0096462D01*
X0112410Y0096388D01*
X0112414Y0096313D01*
X0112414Y0096239D01*
X0112410Y0096164D01*
X0112402Y0096090D01*
X0112390Y0096016D01*
X0112374Y0095943D01*
X0112355Y0095871D01*
X0112332Y0095800D01*
X0112305Y0095731D01*
X0112274Y0095662D01*
X0112240Y0095596D01*
X0112202Y0095532D01*
X0112161Y0095469D01*
X0112117Y0095409D01*
X0112070Y0095351D01*
X0112019Y0095296D01*
X0111966Y0095244D01*
X0111910Y0095194D01*
X0111852Y0095148D01*
X0111791Y0095104D01*
X0111728Y0095064D01*
X0111663Y0095027D01*
X0111597Y0094994D01*
X0111528Y0094964D01*
X0111458Y0094938D01*
X0111387Y0094916D01*
X0111315Y0094897D01*
X0111241Y0094883D01*
X0111168Y0094872D01*
X0111093Y0094865D01*
X0111019Y0094862D01*
X0110944Y0094863D01*
X0110870Y0094868D01*
X0110795Y0094877D01*
X0110722Y0094890D01*
X0110649Y0094906D01*
X0110577Y0094927D01*
X0110507Y0094951D01*
X0110437Y0094979D01*
X0110370Y0095010D01*
X0110304Y0095045D01*
X0110240Y0095084D01*
X0110178Y0095126D01*
X0110118Y0095170D01*
X0110061Y0095219D01*
X0110007Y0095270D01*
X0109955Y0095323D01*
X0109906Y0095380D01*
X0109860Y0095439D01*
X0109818Y0095500D01*
X0109779Y0095564D01*
X0109743Y0095629D01*
X0109710Y0095696D01*
X0109681Y0095765D01*
X0109656Y0095836D01*
X0109635Y0095907D01*
X0109617Y0095980D01*
X0109604Y0096053D01*
X0109594Y0096127D01*
X0109588Y0096201D01*
X0109586Y0096276D01*
X0150971Y0019031D02*
X0150974Y0019298D01*
X0150984Y0019566D01*
X0151001Y0019833D01*
X0151023Y0020099D01*
X0151053Y0020365D01*
X0151089Y0020630D01*
X0151131Y0020894D01*
X0151180Y0021157D01*
X0151236Y0021419D01*
X0151298Y0021679D01*
X0151366Y0021938D01*
X0151440Y0022195D01*
X0151521Y0022450D01*
X0151608Y0022703D01*
X0151701Y0022954D01*
X0151801Y0023202D01*
X0151906Y0023448D01*
X0152018Y0023691D01*
X0152135Y0023932D01*
X0152258Y0024169D01*
X0152387Y0024404D01*
X0152522Y0024635D01*
X0152662Y0024862D01*
X0152808Y0025087D01*
X0152959Y0025307D01*
X0153116Y0025524D01*
X0153278Y0025737D01*
X0153445Y0025946D01*
X0153617Y0026151D01*
X0153795Y0026351D01*
X0153977Y0026547D01*
X0154164Y0026738D01*
X0154355Y0026925D01*
X0154551Y0027107D01*
X0154751Y0027285D01*
X0154956Y0027457D01*
X0155165Y0027624D01*
X0155378Y0027786D01*
X0155595Y0027943D01*
X0155815Y0028094D01*
X0156040Y0028240D01*
X0156267Y0028380D01*
X0156498Y0028515D01*
X0156733Y0028644D01*
X0156970Y0028767D01*
X0157211Y0028884D01*
X0157454Y0028996D01*
X0157700Y0029101D01*
X0157948Y0029201D01*
X0158199Y0029294D01*
X0158452Y0029381D01*
X0158707Y0029462D01*
X0158964Y0029536D01*
X0159223Y0029604D01*
X0159483Y0029666D01*
X0159745Y0029722D01*
X0160008Y0029771D01*
X0160272Y0029813D01*
X0160537Y0029849D01*
X0160803Y0029879D01*
X0161069Y0029901D01*
X0161336Y0029918D01*
X0161604Y0029928D01*
X0161871Y0029931D01*
X0162138Y0029928D01*
X0162406Y0029918D01*
X0162673Y0029901D01*
X0162939Y0029879D01*
X0163205Y0029849D01*
X0163470Y0029813D01*
X0163734Y0029771D01*
X0163997Y0029722D01*
X0164259Y0029666D01*
X0164519Y0029604D01*
X0164778Y0029536D01*
X0165035Y0029462D01*
X0165290Y0029381D01*
X0165543Y0029294D01*
X0165794Y0029201D01*
X0166042Y0029101D01*
X0166288Y0028996D01*
X0166531Y0028884D01*
X0166772Y0028767D01*
X0167009Y0028644D01*
X0167244Y0028515D01*
X0167475Y0028380D01*
X0167702Y0028240D01*
X0167927Y0028094D01*
X0168147Y0027943D01*
X0168364Y0027786D01*
X0168577Y0027624D01*
X0168786Y0027457D01*
X0168991Y0027285D01*
X0169191Y0027107D01*
X0169387Y0026925D01*
X0169578Y0026738D01*
X0169765Y0026547D01*
X0169947Y0026351D01*
X0170125Y0026151D01*
X0170297Y0025946D01*
X0170464Y0025737D01*
X0170626Y0025524D01*
X0170783Y0025307D01*
X0170934Y0025087D01*
X0171080Y0024862D01*
X0171220Y0024635D01*
X0171355Y0024404D01*
X0171484Y0024169D01*
X0171607Y0023932D01*
X0171724Y0023691D01*
X0171836Y0023448D01*
X0171941Y0023202D01*
X0172041Y0022954D01*
X0172134Y0022703D01*
X0172221Y0022450D01*
X0172302Y0022195D01*
X0172376Y0021938D01*
X0172444Y0021679D01*
X0172506Y0021419D01*
X0172562Y0021157D01*
X0172611Y0020894D01*
X0172653Y0020630D01*
X0172689Y0020365D01*
X0172719Y0020099D01*
X0172741Y0019833D01*
X0172758Y0019566D01*
X0172768Y0019298D01*
X0172771Y0019031D01*
X0172768Y0018764D01*
X0172758Y0018496D01*
X0172741Y0018229D01*
X0172719Y0017963D01*
X0172689Y0017697D01*
X0172653Y0017432D01*
X0172611Y0017168D01*
X0172562Y0016905D01*
X0172506Y0016643D01*
X0172444Y0016383D01*
X0172376Y0016124D01*
X0172302Y0015867D01*
X0172221Y0015612D01*
X0172134Y0015359D01*
X0172041Y0015108D01*
X0171941Y0014860D01*
X0171836Y0014614D01*
X0171724Y0014371D01*
X0171607Y0014130D01*
X0171484Y0013893D01*
X0171355Y0013658D01*
X0171220Y0013427D01*
X0171080Y0013200D01*
X0170934Y0012975D01*
X0170783Y0012755D01*
X0170626Y0012538D01*
X0170464Y0012325D01*
X0170297Y0012116D01*
X0170125Y0011911D01*
X0169947Y0011711D01*
X0169765Y0011515D01*
X0169578Y0011324D01*
X0169387Y0011137D01*
X0169191Y0010955D01*
X0168991Y0010777D01*
X0168786Y0010605D01*
X0168577Y0010438D01*
X0168364Y0010276D01*
X0168147Y0010119D01*
X0167927Y0009968D01*
X0167702Y0009822D01*
X0167475Y0009682D01*
X0167244Y0009547D01*
X0167009Y0009418D01*
X0166772Y0009295D01*
X0166531Y0009178D01*
X0166288Y0009066D01*
X0166042Y0008961D01*
X0165794Y0008861D01*
X0165543Y0008768D01*
X0165290Y0008681D01*
X0165035Y0008600D01*
X0164778Y0008526D01*
X0164519Y0008458D01*
X0164259Y0008396D01*
X0163997Y0008340D01*
X0163734Y0008291D01*
X0163470Y0008249D01*
X0163205Y0008213D01*
X0162939Y0008183D01*
X0162673Y0008161D01*
X0162406Y0008144D01*
X0162138Y0008134D01*
X0161871Y0008131D01*
X0161604Y0008134D01*
X0161336Y0008144D01*
X0161069Y0008161D01*
X0160803Y0008183D01*
X0160537Y0008213D01*
X0160272Y0008249D01*
X0160008Y0008291D01*
X0159745Y0008340D01*
X0159483Y0008396D01*
X0159223Y0008458D01*
X0158964Y0008526D01*
X0158707Y0008600D01*
X0158452Y0008681D01*
X0158199Y0008768D01*
X0157948Y0008861D01*
X0157700Y0008961D01*
X0157454Y0009066D01*
X0157211Y0009178D01*
X0156970Y0009295D01*
X0156733Y0009418D01*
X0156498Y0009547D01*
X0156267Y0009682D01*
X0156040Y0009822D01*
X0155815Y0009968D01*
X0155595Y0010119D01*
X0155378Y0010276D01*
X0155165Y0010438D01*
X0154956Y0010605D01*
X0154751Y0010777D01*
X0154551Y0010955D01*
X0154355Y0011137D01*
X0154164Y0011324D01*
X0153977Y0011515D01*
X0153795Y0011711D01*
X0153617Y0011911D01*
X0153445Y0012116D01*
X0153278Y0012325D01*
X0153116Y0012538D01*
X0152959Y0012755D01*
X0152808Y0012975D01*
X0152662Y0013200D01*
X0152522Y0013427D01*
X0152387Y0013658D01*
X0152258Y0013893D01*
X0152135Y0014130D01*
X0152018Y0014371D01*
X0151906Y0014614D01*
X0151801Y0014860D01*
X0151701Y0015108D01*
X0151608Y0015359D01*
X0151521Y0015612D01*
X0151440Y0015867D01*
X0151366Y0016124D01*
X0151298Y0016383D01*
X0151236Y0016643D01*
X0151180Y0016905D01*
X0151131Y0017168D01*
X0151089Y0017432D01*
X0151053Y0017697D01*
X0151023Y0017963D01*
X0151001Y0018229D01*
X0150984Y0018496D01*
X0150974Y0018764D01*
X0150971Y0019031D01*
X0156497Y0024263D02*
X0156626Y0024390D01*
X0156759Y0024513D01*
X0156895Y0024634D01*
X0157033Y0024750D01*
X0157175Y0024864D01*
X0157319Y0024974D01*
X0157465Y0025080D01*
X0157614Y0025183D01*
X0157766Y0025283D01*
X0157920Y0025378D01*
X0158076Y0025470D01*
X0158235Y0025558D01*
X0158395Y0025643D01*
X0158558Y0025723D01*
X0158722Y0025799D01*
X0158888Y0025872D01*
X0159056Y0025940D01*
X0159225Y0026004D01*
X0159396Y0026064D01*
X0159569Y0026120D01*
X0159742Y0026172D01*
X0159917Y0026220D01*
X0160093Y0026263D01*
X0160270Y0026302D01*
X0160448Y0026337D01*
X0160627Y0026368D01*
X0160806Y0026394D01*
X0160986Y0026416D01*
X0161166Y0026433D01*
X0161347Y0026446D01*
X0161528Y0026455D01*
X0161709Y0026459D01*
X0161891Y0026459D01*
X0162072Y0026455D01*
X0162253Y0026446D01*
X0162434Y0026433D01*
X0162614Y0026416D01*
X0162794Y0026394D01*
X0162973Y0026368D01*
X0163152Y0026337D01*
X0163330Y0026302D01*
X0163507Y0026263D01*
X0163683Y0026220D01*
X0163858Y0026172D01*
X0164031Y0026120D01*
X0164204Y0026064D01*
X0164375Y0026004D01*
X0164544Y0025940D01*
X0164712Y0025872D01*
X0164878Y0025799D01*
X0165042Y0025723D01*
X0165205Y0025643D01*
X0165365Y0025558D01*
X0165524Y0025470D01*
X0165680Y0025378D01*
X0165834Y0025283D01*
X0165986Y0025183D01*
X0166135Y0025080D01*
X0166281Y0024974D01*
X0166425Y0024864D01*
X0166567Y0024750D01*
X0166705Y0024634D01*
X0166841Y0024513D01*
X0166974Y0024390D01*
X0167103Y0024263D01*
X0153300Y0018961D02*
X0153303Y0019170D01*
X0153310Y0019378D01*
X0153323Y0019586D01*
X0153341Y0019794D01*
X0153364Y0020001D01*
X0153392Y0020208D01*
X0153425Y0020414D01*
X0153463Y0020619D01*
X0153507Y0020823D01*
X0153555Y0021026D01*
X0153608Y0021228D01*
X0153666Y0021428D01*
X0153729Y0021627D01*
X0153797Y0021825D01*
X0153870Y0022020D01*
X0153947Y0022214D01*
X0154029Y0022406D01*
X0154116Y0022595D01*
X0154208Y0022783D01*
X0154304Y0022968D01*
X0154404Y0023151D01*
X0154509Y0023331D01*
X0154619Y0023508D01*
X0154733Y0023683D01*
X0154851Y0023855D01*
X0154973Y0024024D01*
X0155099Y0024190D01*
X0155229Y0024353D01*
X0155364Y0024513D01*
X0155502Y0024669D01*
X0155644Y0024822D01*
X0155790Y0024971D01*
X0155939Y0025117D01*
X0156092Y0025259D01*
X0156248Y0025397D01*
X0156408Y0025532D01*
X0156571Y0025662D01*
X0156737Y0025788D01*
X0156906Y0025910D01*
X0157078Y0026028D01*
X0157253Y0026142D01*
X0157430Y0026252D01*
X0157610Y0026357D01*
X0157793Y0026457D01*
X0157978Y0026553D01*
X0158166Y0026645D01*
X0158355Y0026732D01*
X0158547Y0026814D01*
X0158741Y0026891D01*
X0158936Y0026964D01*
X0159134Y0027032D01*
X0159333Y0027095D01*
X0159533Y0027153D01*
X0159735Y0027206D01*
X0159938Y0027254D01*
X0160142Y0027298D01*
X0160347Y0027336D01*
X0160553Y0027369D01*
X0160760Y0027397D01*
X0160967Y0027420D01*
X0161175Y0027438D01*
X0161383Y0027451D01*
X0161591Y0027458D01*
X0161800Y0027461D01*
X0162009Y0027458D01*
X0162217Y0027451D01*
X0162425Y0027438D01*
X0162633Y0027420D01*
X0162840Y0027397D01*
X0163047Y0027369D01*
X0163253Y0027336D01*
X0163458Y0027298D01*
X0163662Y0027254D01*
X0163865Y0027206D01*
X0164067Y0027153D01*
X0164267Y0027095D01*
X0164466Y0027032D01*
X0164664Y0026964D01*
X0164859Y0026891D01*
X0165053Y0026814D01*
X0165245Y0026732D01*
X0165434Y0026645D01*
X0165622Y0026553D01*
X0165807Y0026457D01*
X0165990Y0026357D01*
X0166170Y0026252D01*
X0166347Y0026142D01*
X0166522Y0026028D01*
X0166694Y0025910D01*
X0166863Y0025788D01*
X0167029Y0025662D01*
X0167192Y0025532D01*
X0167352Y0025397D01*
X0167508Y0025259D01*
X0167661Y0025117D01*
X0167810Y0024971D01*
X0167956Y0024822D01*
X0168098Y0024669D01*
X0168236Y0024513D01*
X0168371Y0024353D01*
X0168501Y0024190D01*
X0168627Y0024024D01*
X0168749Y0023855D01*
X0168867Y0023683D01*
X0168981Y0023508D01*
X0169091Y0023331D01*
X0169196Y0023151D01*
X0169296Y0022968D01*
X0169392Y0022783D01*
X0169484Y0022595D01*
X0169571Y0022406D01*
X0169653Y0022214D01*
X0169730Y0022020D01*
X0169803Y0021825D01*
X0169871Y0021627D01*
X0169934Y0021428D01*
X0169992Y0021228D01*
X0170045Y0021026D01*
X0170093Y0020823D01*
X0170137Y0020619D01*
X0170175Y0020414D01*
X0170208Y0020208D01*
X0170236Y0020001D01*
X0170259Y0019794D01*
X0170277Y0019586D01*
X0170290Y0019378D01*
X0170297Y0019170D01*
X0170300Y0018961D01*
X0170297Y0018752D01*
X0170290Y0018544D01*
X0170277Y0018336D01*
X0170259Y0018128D01*
X0170236Y0017921D01*
X0170208Y0017714D01*
X0170175Y0017508D01*
X0170137Y0017303D01*
X0170093Y0017099D01*
X0170045Y0016896D01*
X0169992Y0016694D01*
X0169934Y0016494D01*
X0169871Y0016295D01*
X0169803Y0016097D01*
X0169730Y0015902D01*
X0169653Y0015708D01*
X0169571Y0015516D01*
X0169484Y0015327D01*
X0169392Y0015139D01*
X0169296Y0014954D01*
X0169196Y0014771D01*
X0169091Y0014591D01*
X0168981Y0014414D01*
X0168867Y0014239D01*
X0168749Y0014067D01*
X0168627Y0013898D01*
X0168501Y0013732D01*
X0168371Y0013569D01*
X0168236Y0013409D01*
X0168098Y0013253D01*
X0167956Y0013100D01*
X0167810Y0012951D01*
X0167661Y0012805D01*
X0167508Y0012663D01*
X0167352Y0012525D01*
X0167192Y0012390D01*
X0167029Y0012260D01*
X0166863Y0012134D01*
X0166694Y0012012D01*
X0166522Y0011894D01*
X0166347Y0011780D01*
X0166170Y0011670D01*
X0165990Y0011565D01*
X0165807Y0011465D01*
X0165622Y0011369D01*
X0165434Y0011277D01*
X0165245Y0011190D01*
X0165053Y0011108D01*
X0164859Y0011031D01*
X0164664Y0010958D01*
X0164466Y0010890D01*
X0164267Y0010827D01*
X0164067Y0010769D01*
X0163865Y0010716D01*
X0163662Y0010668D01*
X0163458Y0010624D01*
X0163253Y0010586D01*
X0163047Y0010553D01*
X0162840Y0010525D01*
X0162633Y0010502D01*
X0162425Y0010484D01*
X0162217Y0010471D01*
X0162009Y0010464D01*
X0161800Y0010461D01*
X0161591Y0010464D01*
X0161383Y0010471D01*
X0161175Y0010484D01*
X0160967Y0010502D01*
X0160760Y0010525D01*
X0160553Y0010553D01*
X0160347Y0010586D01*
X0160142Y0010624D01*
X0159938Y0010668D01*
X0159735Y0010716D01*
X0159533Y0010769D01*
X0159333Y0010827D01*
X0159134Y0010890D01*
X0158936Y0010958D01*
X0158741Y0011031D01*
X0158547Y0011108D01*
X0158355Y0011190D01*
X0158166Y0011277D01*
X0157978Y0011369D01*
X0157793Y0011465D01*
X0157610Y0011565D01*
X0157430Y0011670D01*
X0157253Y0011780D01*
X0157078Y0011894D01*
X0156906Y0012012D01*
X0156737Y0012134D01*
X0156571Y0012260D01*
X0156408Y0012390D01*
X0156248Y0012525D01*
X0156092Y0012663D01*
X0155939Y0012805D01*
X0155790Y0012951D01*
X0155644Y0013100D01*
X0155502Y0013253D01*
X0155364Y0013409D01*
X0155229Y0013569D01*
X0155099Y0013732D01*
X0154973Y0013898D01*
X0154851Y0014067D01*
X0154733Y0014239D01*
X0154619Y0014414D01*
X0154509Y0014591D01*
X0154404Y0014771D01*
X0154304Y0014954D01*
X0154208Y0015139D01*
X0154116Y0015327D01*
X0154029Y0015516D01*
X0153947Y0015708D01*
X0153870Y0015902D01*
X0153797Y0016097D01*
X0153729Y0016295D01*
X0153666Y0016494D01*
X0153608Y0016694D01*
X0153555Y0016896D01*
X0153507Y0017099D01*
X0153463Y0017303D01*
X0153425Y0017508D01*
X0153392Y0017714D01*
X0153364Y0017921D01*
X0153341Y0018128D01*
X0153323Y0018336D01*
X0153310Y0018544D01*
X0153303Y0018752D01*
X0153300Y0018961D01*
X0158264Y0022496D02*
X0158365Y0022593D01*
X0158468Y0022688D01*
X0158574Y0022780D01*
X0158683Y0022869D01*
X0158793Y0022955D01*
X0158907Y0023038D01*
X0159022Y0023117D01*
X0159140Y0023194D01*
X0159260Y0023267D01*
X0159381Y0023336D01*
X0159505Y0023402D01*
X0159631Y0023465D01*
X0159758Y0023524D01*
X0159887Y0023579D01*
X0160017Y0023631D01*
X0160149Y0023679D01*
X0160282Y0023724D01*
X0160416Y0023765D01*
X0160551Y0023802D01*
X0160687Y0023835D01*
X0160825Y0023864D01*
X0160962Y0023889D01*
X0161101Y0023911D01*
X0161240Y0023929D01*
X0161380Y0023942D01*
X0161520Y0023952D01*
X0161660Y0023958D01*
X0161800Y0023960D01*
X0161940Y0023958D01*
X0162080Y0023952D01*
X0162220Y0023942D01*
X0162360Y0023929D01*
X0162499Y0023911D01*
X0162638Y0023889D01*
X0162775Y0023864D01*
X0162913Y0023835D01*
X0163049Y0023802D01*
X0163184Y0023765D01*
X0163318Y0023724D01*
X0163451Y0023679D01*
X0163583Y0023631D01*
X0163713Y0023579D01*
X0163842Y0023524D01*
X0163969Y0023465D01*
X0164095Y0023402D01*
X0164219Y0023336D01*
X0164340Y0023267D01*
X0164460Y0023194D01*
X0164578Y0023117D01*
X0164693Y0023038D01*
X0164807Y0022955D01*
X0164917Y0022869D01*
X0165026Y0022780D01*
X0165132Y0022688D01*
X0165235Y0022593D01*
X0165336Y0022496D01*
X0165336Y0015424D02*
X0165235Y0015327D01*
X0165132Y0015232D01*
X0165026Y0015140D01*
X0164917Y0015051D01*
X0164807Y0014965D01*
X0164693Y0014882D01*
X0164578Y0014803D01*
X0164460Y0014726D01*
X0164340Y0014653D01*
X0164219Y0014584D01*
X0164095Y0014518D01*
X0163969Y0014455D01*
X0163842Y0014396D01*
X0163713Y0014341D01*
X0163583Y0014289D01*
X0163451Y0014241D01*
X0163318Y0014196D01*
X0163184Y0014155D01*
X0163049Y0014118D01*
X0162913Y0014085D01*
X0162775Y0014056D01*
X0162638Y0014031D01*
X0162499Y0014009D01*
X0162360Y0013991D01*
X0162220Y0013978D01*
X0162080Y0013968D01*
X0161940Y0013962D01*
X0161800Y0013960D01*
X0161660Y0013962D01*
X0161520Y0013968D01*
X0161380Y0013978D01*
X0161240Y0013991D01*
X0161101Y0014009D01*
X0160962Y0014031D01*
X0160825Y0014056D01*
X0160687Y0014085D01*
X0160551Y0014118D01*
X0160416Y0014155D01*
X0160282Y0014196D01*
X0160149Y0014241D01*
X0160017Y0014289D01*
X0159887Y0014341D01*
X0159758Y0014396D01*
X0159631Y0014455D01*
X0159505Y0014518D01*
X0159381Y0014584D01*
X0159260Y0014653D01*
X0159140Y0014726D01*
X0159022Y0014803D01*
X0158907Y0014882D01*
X0158793Y0014965D01*
X0158683Y0015051D01*
X0158574Y0015140D01*
X0158468Y0015232D01*
X0158365Y0015327D01*
X0158264Y0015424D01*
X0156497Y0013657D02*
X0156626Y0013530D01*
X0156759Y0013407D01*
X0156895Y0013286D01*
X0157033Y0013170D01*
X0157175Y0013056D01*
X0157319Y0012946D01*
X0157465Y0012840D01*
X0157614Y0012737D01*
X0157766Y0012637D01*
X0157920Y0012542D01*
X0158076Y0012450D01*
X0158235Y0012362D01*
X0158395Y0012277D01*
X0158558Y0012197D01*
X0158722Y0012121D01*
X0158888Y0012048D01*
X0159056Y0011980D01*
X0159225Y0011916D01*
X0159396Y0011856D01*
X0159569Y0011800D01*
X0159742Y0011748D01*
X0159917Y0011700D01*
X0160093Y0011657D01*
X0160270Y0011618D01*
X0160448Y0011583D01*
X0160627Y0011552D01*
X0160806Y0011526D01*
X0160986Y0011504D01*
X0161166Y0011487D01*
X0161347Y0011474D01*
X0161528Y0011465D01*
X0161709Y0011461D01*
X0161891Y0011461D01*
X0162072Y0011465D01*
X0162253Y0011474D01*
X0162434Y0011487D01*
X0162614Y0011504D01*
X0162794Y0011526D01*
X0162973Y0011552D01*
X0163152Y0011583D01*
X0163330Y0011618D01*
X0163507Y0011657D01*
X0163683Y0011700D01*
X0163858Y0011748D01*
X0164031Y0011800D01*
X0164204Y0011856D01*
X0164375Y0011916D01*
X0164544Y0011980D01*
X0164712Y0012048D01*
X0164878Y0012121D01*
X0165042Y0012197D01*
X0165205Y0012277D01*
X0165365Y0012362D01*
X0165524Y0012450D01*
X0165680Y0012542D01*
X0165834Y0012637D01*
X0165986Y0012737D01*
X0166135Y0012840D01*
X0166281Y0012946D01*
X0166425Y0013056D01*
X0166567Y0013170D01*
X0166705Y0013286D01*
X0166841Y0013407D01*
X0166974Y0013530D01*
X0167103Y0013657D01*
X0170710Y0012738D02*
X0173043Y0010405D01*
X0170427Y0007788D01*
X0168164Y0010051D01*
X0120363Y0176205D02*
X0115363Y0176205D01*
X0112863Y0178705D01*
X0112863Y0193705D01*
X0110363Y0196205D01*
X0105363Y0196205D01*
X0102863Y0193705D01*
X0102863Y0178705D01*
X0100363Y0176205D01*
X0095363Y0176205D01*
X0092863Y0178705D01*
X0092863Y0193705D01*
X0090363Y0196205D01*
X0085363Y0196205D01*
X0082863Y0193705D01*
X0082863Y0178705D01*
X0080363Y0176205D01*
X0075363Y0176205D01*
X0072863Y0178705D01*
X0072863Y0193705D01*
X0070363Y0196205D01*
X0065363Y0196205D01*
X0062863Y0193705D01*
X0062863Y0178705D01*
X0060363Y0176205D01*
X0055363Y0176205D01*
X0052863Y0178705D01*
X0052863Y0193705D01*
X0055363Y0196205D01*
X0060363Y0196205D01*
X0062863Y0193705D01*
X0072863Y0193705D02*
X0075363Y0196205D01*
X0080363Y0196205D01*
X0082863Y0193705D01*
X0092863Y0193705D02*
X0095363Y0196205D01*
X0100363Y0196205D01*
X0102863Y0193705D01*
X0112863Y0193705D02*
X0115363Y0196205D01*
X0120363Y0196205D01*
X0122863Y0193705D01*
X0122863Y0178705D01*
X0120363Y0176205D01*
X0112863Y0178705D02*
X0110363Y0176205D01*
X0105363Y0176205D01*
X0102863Y0178705D01*
X0092863Y0178705D02*
X0090363Y0176205D01*
X0085363Y0176205D01*
X0082863Y0178705D01*
X0072863Y0178705D02*
X0070363Y0176205D01*
X0065363Y0176205D01*
X0062863Y0178705D01*
X0052863Y0178705D02*
X0050363Y0176205D01*
X0045363Y0176205D01*
X0042863Y0178705D01*
X0042863Y0193705D01*
X0045363Y0196205D01*
X0050363Y0196205D01*
X0052863Y0193705D01*
X0042863Y0193705D02*
X0040363Y0196205D01*
X0035363Y0196205D01*
X0032863Y0193705D01*
X0030363Y0196205D01*
X0025363Y0196205D01*
X0022863Y0193705D01*
X0022863Y0178705D01*
X0025363Y0176205D01*
X0030363Y0176205D01*
X0032863Y0178705D01*
X0032863Y0193705D01*
X0021300Y0184976D02*
X0021300Y0182976D01*
X0021300Y0184976D02*
X0019300Y0184976D01*
X0014300Y0184976D02*
X0012300Y0184976D01*
X0012300Y0182976D01*
X0012300Y0177976D02*
X0012300Y0175976D01*
X0014300Y0175976D01*
X0019300Y0175976D02*
X0021300Y0175976D01*
X0021300Y0177976D01*
X0032863Y0178705D02*
X0035363Y0176205D01*
X0040363Y0176205D01*
X0042863Y0178705D01*
M02*
