G75*
%MOIN*%
%OFA0B0*%
%FSLAX25Y25*%
%IPPOS*%
%LPD*%
%AMOC8*
5,1,8,0,0,1.08239X$1,22.5*
%
%ADD10C,0.00300*%
%ADD11C,0.01600*%
D10*
X0053673Y0009602D02*
X0053673Y0012635D01*
X0054280Y0012635D02*
X0053066Y0012635D01*
X0053673Y0009602D02*
X0054280Y0008995D01*
X0054886Y0008995D01*
X0055493Y0009602D01*
X0056691Y0009602D02*
X0056691Y0012635D01*
X0059118Y0012635D02*
X0059118Y0009602D01*
X0058511Y0008995D01*
X0057298Y0008995D01*
X0056691Y0009602D01*
X0060317Y0008995D02*
X0062743Y0008995D01*
X0061530Y0008995D02*
X0061530Y0012635D01*
X0062743Y0011422D01*
X0063942Y0012028D02*
X0066368Y0009602D01*
X0066368Y0008995D01*
X0067567Y0008995D02*
X0069387Y0008995D01*
X0069994Y0009602D01*
X0069994Y0010815D01*
X0069387Y0011422D01*
X0067567Y0011422D01*
X0067567Y0012635D02*
X0067567Y0008995D01*
X0071192Y0009602D02*
X0071799Y0008995D01*
X0073012Y0008995D01*
X0073619Y0009602D01*
X0072405Y0010815D02*
X0071799Y0010815D01*
X0071192Y0010208D01*
X0071192Y0009602D01*
X0071799Y0010815D02*
X0071192Y0011422D01*
X0071192Y0012028D01*
X0071799Y0012635D01*
X0073012Y0012635D01*
X0073619Y0012028D01*
X0074817Y0012635D02*
X0077244Y0008995D01*
X0078447Y0008995D02*
X0079661Y0008995D01*
X0079054Y0008995D02*
X0079054Y0012635D01*
X0079661Y0012635D01*
X0080859Y0011422D02*
X0082679Y0011422D01*
X0083286Y0010815D01*
X0083286Y0009602D01*
X0082679Y0008995D01*
X0080859Y0008995D01*
X0080859Y0008388D02*
X0080859Y0011422D01*
X0080859Y0008388D02*
X0081466Y0007781D01*
X0082072Y0007781D01*
X0084492Y0008995D02*
X0085098Y0008995D01*
X0085098Y0009602D01*
X0084492Y0009602D01*
X0084492Y0008995D01*
X0086297Y0009602D02*
X0086297Y0010815D01*
X0086903Y0011422D01*
X0088117Y0011422D01*
X0088723Y0010815D01*
X0088723Y0009602D01*
X0088117Y0008995D01*
X0086903Y0008995D01*
X0086297Y0009602D01*
X0089922Y0009602D02*
X0089922Y0010815D01*
X0090529Y0011422D01*
X0091742Y0011422D01*
X0092349Y0010815D01*
X0092349Y0009602D01*
X0091742Y0008995D01*
X0090529Y0008995D01*
X0089922Y0009602D01*
X0093547Y0008995D02*
X0095367Y0008995D01*
X0095974Y0009602D01*
X0095974Y0010815D01*
X0095367Y0011422D01*
X0093547Y0011422D01*
X0093547Y0008388D01*
X0094154Y0007781D01*
X0094760Y0007781D01*
X0099599Y0008995D02*
X0097172Y0012635D01*
X0100797Y0012635D02*
X0103224Y0008995D01*
X0104430Y0008995D02*
X0105037Y0008995D01*
X0105037Y0009602D01*
X0104430Y0009602D01*
X0104430Y0008995D01*
X0104430Y0010815D02*
X0105037Y0010815D01*
X0105037Y0011422D01*
X0104430Y0011422D01*
X0104430Y0010815D01*
X0106235Y0010815D02*
X0106235Y0009602D01*
X0106842Y0008995D01*
X0108662Y0008995D01*
X0109865Y0008995D02*
X0110472Y0009602D01*
X0110472Y0012028D01*
X0111078Y0011422D02*
X0109865Y0011422D01*
X0108662Y0011422D02*
X0106842Y0011422D01*
X0106235Y0010815D01*
X0108662Y0011422D02*
X0108662Y0007781D01*
X0112282Y0008995D02*
X0112888Y0009602D01*
X0112888Y0012028D01*
X0113495Y0011422D02*
X0112282Y0011422D01*
X0114694Y0010815D02*
X0114694Y0008995D01*
X0114694Y0010815D02*
X0115300Y0011422D01*
X0116514Y0011422D01*
X0117120Y0010815D01*
X0117120Y0012635D02*
X0117120Y0008995D01*
X0121951Y0008995D02*
X0122558Y0008995D01*
X0122558Y0009602D01*
X0121951Y0009602D01*
X0121951Y0008995D01*
X0121951Y0010815D02*
X0122558Y0010815D01*
X0122558Y0011422D01*
X0121951Y0011422D01*
X0121951Y0010815D01*
X0123756Y0010815D02*
X0123756Y0010208D01*
X0126183Y0010208D01*
X0126183Y0009602D02*
X0126183Y0010815D01*
X0125576Y0011422D01*
X0124363Y0011422D01*
X0123756Y0010815D01*
X0124363Y0008995D02*
X0125576Y0008995D01*
X0126183Y0009602D01*
X0127382Y0009602D02*
X0127988Y0010208D01*
X0129202Y0010208D01*
X0129808Y0010815D01*
X0129202Y0011422D01*
X0127382Y0011422D01*
X0127382Y0009602D02*
X0127988Y0008995D01*
X0129808Y0008995D01*
X0131007Y0008995D02*
X0131007Y0010815D01*
X0131613Y0011422D01*
X0133433Y0011422D01*
X0133433Y0008995D01*
X0134632Y0010208D02*
X0137059Y0010208D01*
X0137059Y0009602D02*
X0137059Y0010815D01*
X0136452Y0011422D01*
X0135238Y0011422D01*
X0134632Y0010815D01*
X0134632Y0010208D01*
X0135238Y0008995D02*
X0136452Y0008995D01*
X0137059Y0009602D01*
X0138257Y0008995D02*
X0140077Y0008995D01*
X0140684Y0009602D01*
X0140684Y0010815D01*
X0140077Y0011422D01*
X0138257Y0011422D01*
X0141887Y0008995D02*
X0143100Y0008995D01*
X0142494Y0008995D02*
X0142494Y0011422D01*
X0143100Y0011422D01*
X0142494Y0012635D02*
X0142494Y0013242D01*
X0146726Y0012635D02*
X0146726Y0008995D01*
X0144299Y0008995D01*
X0066368Y0012635D02*
X0063942Y0012635D01*
X0063942Y0012028D01*
D11*
X0001800Y0005476D02*
X0198650Y0005476D01*
X0198650Y0202327D01*
X0001800Y0202327D01*
X0001800Y0005476D01*
M02*
