G75*
%MOIN*%
%OFA0B0*%
%FSLAX25Y25*%
%IPPOS*%
%LPD*%
%AMOC8*
5,1,8,0,0,1.08239X$1,22.5*
%
%ADD10C,0.01600*%
%ADD11R,0.03937X0.04331*%
%ADD12R,0.04331X0.03937*%
%ADD13R,0.05118X0.07480*%
%ADD14R,0.03150X0.03150*%
%ADD15R,0.06000X0.06000*%
%ADD16OC8,0.06000*%
%ADD17R,0.05000X0.02200*%
%ADD18R,0.02200X0.05000*%
%ADD19C,0.01040*%
%ADD20OC8,0.08500*%
%ADD21C,0.16598*%
%ADD22C,0.03169*%
%ADD23C,0.00800*%
D10*
X0001800Y0005476D02*
X0198650Y0005476D01*
X0198650Y0202327D01*
X0001800Y0202327D01*
X0001800Y0005476D01*
X0004400Y0008076D02*
X0004400Y0199727D01*
X0024022Y0199727D01*
X0019372Y0195076D01*
X0018200Y0193905D01*
X0018200Y0190705D01*
X0016172Y0188676D01*
X0015000Y0187505D01*
X0015000Y0186326D01*
X0014377Y0186326D01*
X0010950Y0182899D01*
X0010950Y0178053D01*
X0014377Y0174626D01*
X0019223Y0174626D01*
X0019722Y0175125D01*
X0045772Y0149076D01*
X0065816Y0149076D01*
X0065901Y0148873D01*
X0066796Y0147977D01*
X0067967Y0147492D01*
X0069233Y0147492D01*
X0070404Y0147977D01*
X0071299Y0148873D01*
X0071784Y0150043D01*
X0071784Y0151310D01*
X0071748Y0151396D01*
X0072600Y0152248D01*
X0072600Y0153561D01*
X0073604Y0153561D01*
X0074542Y0154499D01*
X0074542Y0155431D01*
X0075196Y0154777D01*
X0076367Y0154292D01*
X0077633Y0154292D01*
X0078063Y0154470D01*
X0078972Y0153561D01*
X0084628Y0153561D01*
X0085565Y0154499D01*
X0085565Y0159761D01*
X0084850Y0160476D01*
X0085447Y0161073D01*
X0086367Y0160692D01*
X0087633Y0160692D01*
X0088270Y0160956D01*
X0088750Y0160476D01*
X0088035Y0159761D01*
X0088035Y0154499D01*
X0088972Y0153561D01*
X0094628Y0153561D01*
X0095565Y0154499D01*
X0095565Y0154676D01*
X0096200Y0154676D01*
X0096200Y0139399D01*
X0096565Y0138517D01*
X0097241Y0137842D01*
X0110806Y0124276D01*
X0096806Y0110276D01*
X0089534Y0110276D01*
X0089534Y0110346D01*
X0088597Y0111283D01*
X0082941Y0111283D01*
X0082564Y0110906D01*
X0082346Y0111123D01*
X0081936Y0111360D01*
X0081478Y0111483D01*
X0079260Y0111483D01*
X0079260Y0107899D01*
X0078892Y0107899D01*
X0078892Y0111483D01*
X0076674Y0111483D01*
X0076216Y0111360D01*
X0075805Y0111123D01*
X0075470Y0110788D01*
X0075233Y0110378D01*
X0075110Y0109920D01*
X0075110Y0107899D01*
X0078892Y0107899D01*
X0078892Y0107530D01*
X0079260Y0107530D01*
X0079260Y0103946D01*
X0081478Y0103946D01*
X0081936Y0104069D01*
X0082346Y0104306D01*
X0082564Y0104523D01*
X0082941Y0104146D01*
X0088597Y0104146D01*
X0089534Y0105083D01*
X0089534Y0105476D01*
X0095400Y0105476D01*
X0095400Y0080999D01*
X0095765Y0080117D01*
X0096406Y0079476D01*
X0092972Y0079476D01*
X0090572Y0077076D01*
X0086628Y0077076D01*
X0085430Y0078274D01*
X0086078Y0078922D01*
X0086078Y0087728D01*
X0085140Y0088665D01*
X0078697Y0088665D01*
X0077759Y0087728D01*
X0077759Y0078922D01*
X0078697Y0077984D01*
X0081000Y0077984D01*
X0081000Y0077048D01*
X0081981Y0076066D01*
X0078697Y0076066D01*
X0077759Y0075129D01*
X0077759Y0066323D01*
X0078697Y0065386D01*
X0085140Y0065386D01*
X0086078Y0066323D01*
X0086078Y0071076D01*
X0087828Y0071076D01*
X0088228Y0071476D01*
X0093028Y0071476D01*
X0094200Y0072648D01*
X0094628Y0073076D01*
X0100572Y0073076D01*
X0100800Y0072848D01*
X0100800Y0072690D01*
X0101737Y0071753D01*
X0108063Y0071753D01*
X0109000Y0072690D01*
X0109000Y0076082D01*
X0109641Y0075442D01*
X0110523Y0075076D01*
X0120216Y0075076D01*
X0119816Y0074110D01*
X0119816Y0072843D01*
X0119885Y0072676D01*
X0109014Y0072676D01*
X0108076Y0071739D01*
X0108076Y0065414D01*
X0109014Y0064476D01*
X0115216Y0064476D01*
X0115365Y0064117D01*
X0116216Y0063266D01*
X0116216Y0062843D01*
X0116701Y0061673D01*
X0117596Y0060777D01*
X0118767Y0060292D01*
X0120033Y0060292D01*
X0121204Y0060777D01*
X0122099Y0061673D01*
X0122584Y0062843D01*
X0122584Y0064110D01*
X0122432Y0064476D01*
X0125572Y0064476D01*
X0126216Y0063832D01*
X0126216Y0062843D01*
X0126701Y0061673D01*
X0127596Y0060777D01*
X0128767Y0060292D01*
X0130033Y0060292D01*
X0131204Y0060777D01*
X0132099Y0061673D01*
X0132584Y0062843D01*
X0132584Y0064110D01*
X0132432Y0064476D01*
X0134586Y0064476D01*
X0135524Y0065414D01*
X0135524Y0066676D01*
X0136228Y0066676D01*
X0136244Y0066692D01*
X0137233Y0066692D01*
X0138404Y0067177D01*
X0139299Y0068073D01*
X0139784Y0069243D01*
X0139784Y0070510D01*
X0139299Y0071680D01*
X0139227Y0071753D01*
X0141863Y0071753D01*
X0142800Y0072690D01*
X0142800Y0073082D01*
X0144406Y0071476D01*
X0102152Y0029222D01*
X0100999Y0029222D01*
X0100284Y0028507D01*
X0099569Y0029222D01*
X0095094Y0029222D01*
X0094157Y0028285D01*
X0094157Y0028276D01*
X0087369Y0028276D01*
X0087369Y0028875D01*
X0086432Y0029812D01*
X0081169Y0029812D01*
X0080454Y0029097D01*
X0080269Y0029282D01*
X0080584Y0030043D01*
X0080584Y0031310D01*
X0080099Y0032480D01*
X0079204Y0033376D01*
X0078033Y0033860D01*
X0076767Y0033860D01*
X0075596Y0033376D01*
X0074701Y0032480D01*
X0074216Y0031310D01*
X0074216Y0030043D01*
X0074360Y0029696D01*
X0073539Y0028875D01*
X0073539Y0023219D01*
X0074476Y0022282D01*
X0079739Y0022282D01*
X0080454Y0022997D01*
X0081169Y0022282D01*
X0086432Y0022282D01*
X0087369Y0023219D01*
X0087369Y0024276D01*
X0094157Y0024276D01*
X0094157Y0023810D01*
X0095094Y0022872D01*
X0099569Y0022872D01*
X0100284Y0023588D01*
X0100999Y0022872D01*
X0105475Y0022872D01*
X0106412Y0023810D01*
X0106412Y0026694D01*
X0149159Y0069442D01*
X0149835Y0070117D01*
X0150794Y0071076D01*
X0151891Y0071076D01*
X0151891Y0070793D01*
X0152828Y0069855D01*
X0158484Y0069855D01*
X0158861Y0070232D01*
X0159078Y0070015D01*
X0159489Y0069778D01*
X0159946Y0069655D01*
X0162164Y0069655D01*
X0162164Y0073240D01*
X0162533Y0073240D01*
X0162533Y0073608D01*
X0166314Y0073608D01*
X0166314Y0075629D01*
X0166191Y0076087D01*
X0165954Y0076498D01*
X0165619Y0076833D01*
X0165209Y0077070D01*
X0164751Y0077192D01*
X0162533Y0077192D01*
X0162533Y0073608D01*
X0162164Y0073608D01*
X0162164Y0077192D01*
X0159946Y0077192D01*
X0159489Y0077070D01*
X0159078Y0076833D01*
X0158861Y0076615D01*
X0158484Y0076992D01*
X0152828Y0076992D01*
X0151891Y0076055D01*
X0151891Y0075876D01*
X0149323Y0075876D01*
X0148441Y0075511D01*
X0147800Y0074870D01*
X0143159Y0079511D01*
X0142800Y0079660D01*
X0142800Y0080276D01*
X0144277Y0080276D01*
X0145159Y0080642D01*
X0145835Y0081317D01*
X0151194Y0086676D01*
X0152483Y0086676D01*
X0152483Y0086270D01*
X0153421Y0085333D01*
X0159077Y0085333D01*
X0159454Y0085710D01*
X0159671Y0085493D01*
X0160082Y0085256D01*
X0160539Y0085133D01*
X0162757Y0085133D01*
X0162757Y0088717D01*
X0163126Y0088717D01*
X0163126Y0085133D01*
X0165344Y0085133D01*
X0165802Y0085256D01*
X0166212Y0085493D01*
X0166547Y0085828D01*
X0166784Y0086238D01*
X0166907Y0086696D01*
X0166907Y0088717D01*
X0163126Y0088717D01*
X0163126Y0089086D01*
X0162757Y0089086D01*
X0162757Y0092670D01*
X0160539Y0092670D01*
X0160082Y0092547D01*
X0159671Y0092310D01*
X0159454Y0092093D01*
X0159077Y0092470D01*
X0153421Y0092470D01*
X0152483Y0091533D01*
X0152483Y0091476D01*
X0149723Y0091476D01*
X0148841Y0091111D01*
X0143334Y0085604D01*
X0143000Y0085743D01*
X0143000Y0087051D01*
X0138700Y0087051D01*
X0138700Y0087051D01*
X0134400Y0087051D01*
X0134400Y0085714D01*
X0134523Y0085256D01*
X0134600Y0085122D01*
X0134600Y0079876D01*
X0114200Y0079876D01*
X0114200Y0086754D01*
X0113835Y0087636D01*
X0113159Y0088311D01*
X0112759Y0088711D01*
X0111877Y0089076D01*
X0110923Y0089076D01*
X0110400Y0088860D01*
X0109877Y0089076D01*
X0109200Y0089076D01*
X0109200Y0090201D01*
X0109200Y0091538D01*
X0109077Y0091995D01*
X0109000Y0092129D01*
X0109000Y0098263D01*
X0108063Y0099200D01*
X0104166Y0099200D01*
X0104184Y0099243D01*
X0104184Y0100510D01*
X0103699Y0101680D01*
X0102804Y0102576D01*
X0101633Y0103060D01*
X0100367Y0103060D01*
X0100200Y0102991D01*
X0100200Y0106882D01*
X0104151Y0110833D01*
X0104301Y0110473D01*
X0105196Y0109577D01*
X0106367Y0109092D01*
X0107356Y0109092D01*
X0109400Y0107048D01*
X0109400Y0106705D01*
X0109172Y0106476D01*
X0109014Y0106476D01*
X0108076Y0105539D01*
X0108076Y0099214D01*
X0109014Y0098276D01*
X0134586Y0098276D01*
X0135524Y0099214D01*
X0135524Y0105539D01*
X0134586Y0106476D01*
X0130032Y0106476D01*
X0130184Y0106843D01*
X0130184Y0108110D01*
X0129699Y0109280D01*
X0128804Y0110176D01*
X0127800Y0110591D01*
X0127800Y0129105D01*
X0126628Y0130276D01*
X0115000Y0141905D01*
X0115000Y0156711D01*
X0115278Y0156711D01*
X0116215Y0157648D01*
X0116215Y0163304D01*
X0115278Y0164242D01*
X0115000Y0164242D01*
X0115000Y0164248D01*
X0126600Y0175848D01*
X0126600Y0196705D01*
X0125428Y0197876D01*
X0123578Y0199727D01*
X0196050Y0199727D01*
X0196050Y0008076D01*
X0004400Y0008076D01*
X0004400Y0008673D02*
X0196050Y0008673D01*
X0196050Y0010272D02*
X0004400Y0010272D01*
X0004400Y0011870D02*
X0196050Y0011870D01*
X0196050Y0013469D02*
X0004400Y0013469D01*
X0004400Y0015067D02*
X0154804Y0015067D01*
X0155111Y0014761D02*
X0158590Y0014761D01*
X0161050Y0017221D01*
X0161050Y0020700D01*
X0160674Y0021076D01*
X0161772Y0021076D01*
X0161972Y0020876D01*
X0162550Y0020298D01*
X0162550Y0017221D01*
X0165010Y0014761D01*
X0168489Y0014761D01*
X0170950Y0017221D01*
X0170950Y0020700D01*
X0168489Y0023160D01*
X0165344Y0023160D01*
X0165228Y0023276D01*
X0171000Y0029048D01*
X0171000Y0093505D01*
X0169828Y0094676D01*
X0167428Y0097076D01*
X0152172Y0097076D01*
X0151000Y0095905D01*
X0150572Y0095476D01*
X0142800Y0095476D01*
X0142800Y0098263D01*
X0141863Y0099200D01*
X0135537Y0099200D01*
X0134600Y0098263D01*
X0134600Y0088980D01*
X0134523Y0088846D01*
X0134400Y0088388D01*
X0134400Y0087051D01*
X0138700Y0087051D01*
X0138700Y0087051D01*
X0143000Y0087051D01*
X0143000Y0088388D01*
X0142877Y0088846D01*
X0142800Y0088980D01*
X0142800Y0091476D01*
X0152228Y0091476D01*
X0153828Y0093076D01*
X0165772Y0093076D01*
X0167000Y0091848D01*
X0167000Y0030705D01*
X0161372Y0025076D01*
X0138715Y0025076D01*
X0138715Y0025804D01*
X0137778Y0026742D01*
X0132515Y0026742D01*
X0131920Y0026147D01*
X0131862Y0026247D01*
X0131527Y0026582D01*
X0131117Y0026819D01*
X0130659Y0026942D01*
X0128638Y0026942D01*
X0128638Y0023161D01*
X0128269Y0023161D01*
X0128269Y0026942D01*
X0126248Y0026942D01*
X0125790Y0026819D01*
X0125380Y0026582D01*
X0125045Y0026247D01*
X0124808Y0025836D01*
X0124685Y0025379D01*
X0124685Y0023161D01*
X0128269Y0023161D01*
X0128269Y0022792D01*
X0124685Y0022792D01*
X0124685Y0020574D01*
X0124808Y0020116D01*
X0125045Y0019706D01*
X0125380Y0019371D01*
X0125790Y0019134D01*
X0126248Y0019011D01*
X0128269Y0019011D01*
X0128269Y0022792D01*
X0128638Y0022792D01*
X0128638Y0019011D01*
X0130659Y0019011D01*
X0131117Y0019134D01*
X0131527Y0019371D01*
X0131862Y0019706D01*
X0131920Y0019806D01*
X0132515Y0019211D01*
X0137778Y0019211D01*
X0138715Y0020148D01*
X0138715Y0021076D01*
X0153026Y0021076D01*
X0152650Y0020700D01*
X0152650Y0017221D01*
X0155111Y0014761D01*
X0153205Y0016666D02*
X0004400Y0016666D01*
X0004400Y0018264D02*
X0152650Y0018264D01*
X0152650Y0019863D02*
X0138430Y0019863D01*
X0138262Y0026257D02*
X0162552Y0026257D01*
X0164151Y0027855D02*
X0107573Y0027855D01*
X0106412Y0026257D02*
X0125055Y0026257D01*
X0124685Y0024658D02*
X0106412Y0024658D01*
X0105662Y0023060D02*
X0128269Y0023060D01*
X0128269Y0024658D02*
X0128638Y0024658D01*
X0128638Y0026257D02*
X0128269Y0026257D01*
X0131852Y0026257D02*
X0132031Y0026257D01*
X0128638Y0021461D02*
X0128269Y0021461D01*
X0128269Y0019863D02*
X0128638Y0019863D01*
X0124954Y0019863D02*
X0004400Y0019863D01*
X0004400Y0021461D02*
X0124685Y0021461D01*
X0112369Y0032651D02*
X0167000Y0032651D01*
X0167000Y0034249D02*
X0113967Y0034249D01*
X0115566Y0035848D02*
X0167000Y0035848D01*
X0167000Y0037446D02*
X0117164Y0037446D01*
X0118763Y0039045D02*
X0167000Y0039045D01*
X0167000Y0040644D02*
X0120361Y0040644D01*
X0121960Y0042242D02*
X0167000Y0042242D01*
X0167000Y0043841D02*
X0123558Y0043841D01*
X0125157Y0045439D02*
X0167000Y0045439D01*
X0167000Y0047038D02*
X0126755Y0047038D01*
X0128354Y0048636D02*
X0167000Y0048636D01*
X0167000Y0050235D02*
X0129952Y0050235D01*
X0131551Y0051833D02*
X0167000Y0051833D01*
X0167000Y0053432D02*
X0133149Y0053432D01*
X0134748Y0055030D02*
X0167000Y0055030D01*
X0167000Y0056629D02*
X0136346Y0056629D01*
X0137945Y0058227D02*
X0167000Y0058227D01*
X0167000Y0059826D02*
X0139543Y0059826D01*
X0141142Y0061424D02*
X0167000Y0061424D01*
X0167000Y0063023D02*
X0142741Y0063023D01*
X0144339Y0064621D02*
X0167000Y0064621D01*
X0167000Y0066220D02*
X0145938Y0066220D01*
X0147536Y0067818D02*
X0167000Y0067818D01*
X0167000Y0069417D02*
X0149135Y0069417D01*
X0150733Y0071015D02*
X0151891Y0071015D01*
X0149800Y0073476D02*
X0155400Y0073476D01*
X0155656Y0073424D01*
X0149800Y0073476D02*
X0147800Y0071476D01*
X0141800Y0077476D01*
X0139000Y0077476D01*
X0138700Y0077602D01*
X0138200Y0077476D01*
X0111000Y0077476D01*
X0110600Y0077876D01*
X0111800Y0079076D01*
X0111800Y0086276D01*
X0111400Y0086676D01*
X0111000Y0086276D01*
X0109800Y0086276D01*
X0109400Y0086676D01*
X0107800Y0086676D01*
X0107400Y0087076D01*
X0105000Y0087076D01*
X0104900Y0087051D01*
X0104900Y0083902D02*
X0104900Y0083901D01*
X0100600Y0083901D01*
X0100600Y0082777D01*
X0100441Y0082711D01*
X0100200Y0082470D01*
X0100200Y0082470D01*
X0100200Y0093048D01*
X0100600Y0092648D01*
X0100800Y0092448D01*
X0100800Y0092129D01*
X0100723Y0091995D01*
X0100600Y0091538D01*
X0100600Y0090201D01*
X0104900Y0090201D01*
X0104900Y0090201D01*
X0109200Y0090201D01*
X0104900Y0090201D01*
X0104900Y0090201D01*
X0100600Y0090201D01*
X0100600Y0088864D01*
X0100723Y0088406D01*
X0100800Y0088272D01*
X0100800Y0085830D01*
X0100723Y0085696D01*
X0100600Y0085238D01*
X0100600Y0083902D01*
X0104900Y0083902D01*
X0109200Y0083902D01*
X0109200Y0083927D01*
X0109323Y0083876D01*
X0109400Y0083876D01*
X0109400Y0082470D01*
X0109200Y0082670D01*
X0109200Y0083901D01*
X0104900Y0083901D01*
X0104900Y0083902D01*
X0104900Y0080752D02*
X0104200Y0080676D01*
X0101800Y0080676D01*
X0100600Y0079476D01*
X0099800Y0079476D01*
X0097800Y0081476D01*
X0097800Y0107876D01*
X0114200Y0124276D01*
X0098600Y0139876D01*
X0098600Y0156676D01*
X0098200Y0157076D01*
X0100600Y0159476D01*
X0099800Y0160276D01*
X0099800Y0165876D01*
X0100600Y0166676D01*
X0104200Y0166676D01*
X0117800Y0180276D01*
X0117800Y0181076D01*
X0117863Y0181205D01*
X0121063Y0184510D02*
X0122600Y0184510D01*
X0122463Y0183110D02*
X0119768Y0185805D01*
X0115958Y0185805D01*
X0113263Y0183110D01*
X0113263Y0179299D01*
X0113346Y0179216D01*
X0103206Y0169076D01*
X0100123Y0169076D01*
X0100032Y0169039D01*
X0097159Y0171911D01*
X0096277Y0172276D01*
X0090584Y0172276D01*
X0090984Y0173243D01*
X0090984Y0174510D01*
X0090714Y0175162D01*
X0093028Y0177476D01*
X0093916Y0178364D01*
X0095875Y0176405D01*
X0097663Y0176405D01*
X0097663Y0181005D01*
X0098063Y0181005D01*
X0098063Y0181405D01*
X0097663Y0181405D01*
X0097663Y0186005D01*
X0095875Y0186005D01*
X0093987Y0184117D01*
X0093828Y0184276D01*
X0093828Y0184276D01*
X0095000Y0185448D01*
X0095000Y0185848D01*
X0095857Y0186705D01*
X0095958Y0186605D01*
X0099768Y0186605D01*
X0102463Y0189299D01*
X0102463Y0193110D01*
X0099768Y0195805D01*
X0095958Y0195805D01*
X0093263Y0193110D01*
X0093263Y0189768D01*
X0091000Y0187505D01*
X0091000Y0187105D01*
X0089700Y0185805D01*
X0085958Y0185805D01*
X0083263Y0183110D01*
X0083263Y0179299D01*
X0085958Y0176605D01*
X0086066Y0176605D01*
X0085996Y0176576D01*
X0085697Y0176276D01*
X0062172Y0176276D01*
X0053483Y0167588D01*
X0049169Y0167588D01*
X0048231Y0166651D01*
X0048231Y0165876D01*
X0045828Y0165876D01*
X0043013Y0168692D01*
X0043633Y0168692D01*
X0044804Y0169177D01*
X0045699Y0170073D01*
X0046184Y0171243D01*
X0046184Y0172510D01*
X0045699Y0173680D01*
X0045000Y0174379D01*
X0045000Y0177505D01*
X0044028Y0178476D01*
X0044057Y0178505D01*
X0045958Y0176605D01*
X0049768Y0176605D01*
X0052463Y0179299D01*
X0052463Y0183110D01*
X0049768Y0185805D01*
X0045958Y0185805D01*
X0044129Y0183976D01*
X0044028Y0184076D01*
X0046557Y0186605D01*
X0049768Y0186605D01*
X0052463Y0189299D01*
X0052463Y0193110D01*
X0049768Y0195805D01*
X0045958Y0195805D01*
X0043263Y0193110D01*
X0043263Y0189299D01*
X0043429Y0189133D01*
X0039934Y0185639D01*
X0039768Y0185805D01*
X0035958Y0185805D01*
X0033263Y0183110D01*
X0033263Y0179299D01*
X0035958Y0176605D01*
X0039768Y0176605D01*
X0040006Y0176842D01*
X0040572Y0176276D01*
X0041000Y0175848D01*
X0041000Y0174379D01*
X0040301Y0173680D01*
X0039816Y0172510D01*
X0039816Y0171889D01*
X0032434Y0179270D01*
X0032463Y0179299D01*
X0032463Y0183110D01*
X0029768Y0185805D01*
X0025958Y0185805D01*
X0023263Y0183110D01*
X0023263Y0179299D01*
X0025958Y0176605D01*
X0029443Y0176605D01*
X0044172Y0161876D01*
X0048231Y0161876D01*
X0048231Y0160995D01*
X0048750Y0160476D01*
X0048231Y0159958D01*
X0048231Y0154302D01*
X0049169Y0153364D01*
X0054431Y0153364D01*
X0055368Y0154302D01*
X0055368Y0155905D01*
X0056367Y0155492D01*
X0057356Y0155492D01*
X0057372Y0155476D01*
X0058035Y0155476D01*
X0058035Y0154499D01*
X0058972Y0153561D01*
X0064628Y0153561D01*
X0065565Y0154499D01*
X0065565Y0157493D01*
X0065567Y0157492D01*
X0066833Y0157492D01*
X0067011Y0157566D01*
X0067011Y0154499D01*
X0067742Y0153767D01*
X0066796Y0153376D01*
X0066497Y0153076D01*
X0047428Y0153076D01*
X0022551Y0177954D01*
X0022650Y0178053D01*
X0022650Y0182899D01*
X0019351Y0186199D01*
X0022200Y0189048D01*
X0022200Y0192248D01*
X0027828Y0197876D01*
X0028572Y0197876D01*
X0033300Y0193147D01*
X0033263Y0193110D01*
X0033263Y0189299D01*
X0035958Y0186605D01*
X0039768Y0186605D01*
X0042463Y0189299D01*
X0042463Y0193110D01*
X0039768Y0195805D01*
X0036300Y0195805D01*
X0032378Y0199727D01*
X0082822Y0199727D01*
X0078900Y0195805D01*
X0075958Y0195805D01*
X0073263Y0193110D01*
X0073263Y0189299D01*
X0075958Y0186605D01*
X0079768Y0186605D01*
X0082463Y0189299D01*
X0082463Y0193110D01*
X0082163Y0193410D01*
X0086628Y0197876D01*
X0119772Y0197876D01*
X0122600Y0195048D01*
X0122600Y0177505D01*
X0112172Y0167076D01*
X0111000Y0165905D01*
X0111000Y0164242D01*
X0110015Y0164242D01*
X0109300Y0163526D01*
X0108585Y0164242D01*
X0103322Y0164242D01*
X0102385Y0163304D01*
X0102385Y0162676D01*
X0102200Y0162676D01*
X0102200Y0164276D01*
X0104677Y0164276D01*
X0105559Y0164642D01*
X0106235Y0165317D01*
X0117522Y0176605D01*
X0119768Y0176605D01*
X0122463Y0179299D01*
X0122463Y0183110D01*
X0122463Y0182911D02*
X0122600Y0182911D01*
X0122600Y0181312D02*
X0122463Y0181312D01*
X0122463Y0179714D02*
X0122600Y0179714D01*
X0122600Y0178115D02*
X0121279Y0178115D01*
X0121612Y0176517D02*
X0117435Y0176517D01*
X0115836Y0174918D02*
X0120014Y0174918D01*
X0118415Y0173320D02*
X0114238Y0173320D01*
X0112639Y0171721D02*
X0116817Y0171721D01*
X0115218Y0170123D02*
X0111041Y0170123D01*
X0109442Y0168524D02*
X0113620Y0168524D01*
X0112021Y0166926D02*
X0107844Y0166926D01*
X0106245Y0165327D02*
X0111000Y0165327D01*
X0109502Y0163729D02*
X0109098Y0163729D01*
X0105954Y0160476D02*
X0105800Y0160276D01*
X0101400Y0160276D01*
X0100600Y0159476D01*
X0102385Y0157867D02*
X0101959Y0157442D01*
X0101959Y0157442D01*
X0101000Y0156482D01*
X0101000Y0140870D01*
X0114794Y0127076D01*
X0116169Y0127076D01*
X0116169Y0127191D01*
X0117106Y0128128D01*
X0122762Y0128128D01*
X0123699Y0127191D01*
X0123699Y0121928D01*
X0122984Y0121213D01*
X0123699Y0120498D01*
X0123699Y0115235D01*
X0122762Y0114298D01*
X0121800Y0114298D01*
X0121800Y0106476D01*
X0122200Y0106476D01*
X0122200Y0109505D01*
X0123372Y0110676D01*
X0123800Y0111105D01*
X0123800Y0127448D01*
X0111000Y0140248D01*
X0111000Y0156711D01*
X0110015Y0156711D01*
X0109300Y0157426D01*
X0108585Y0156711D01*
X0103322Y0156711D01*
X0102385Y0157648D01*
X0102385Y0157867D01*
X0102698Y0157335D02*
X0101853Y0157335D01*
X0101000Y0155736D02*
X0111000Y0155736D01*
X0111000Y0154138D02*
X0101000Y0154138D01*
X0101000Y0152539D02*
X0111000Y0152539D01*
X0111000Y0150941D02*
X0101000Y0150941D01*
X0101000Y0149342D02*
X0111000Y0149342D01*
X0111000Y0147744D02*
X0101000Y0147744D01*
X0101000Y0146145D02*
X0111000Y0146145D01*
X0111000Y0144547D02*
X0101000Y0144547D01*
X0101000Y0142948D02*
X0111000Y0142948D01*
X0111000Y0141350D02*
X0101000Y0141350D01*
X0102119Y0139751D02*
X0111497Y0139751D01*
X0113095Y0138153D02*
X0103718Y0138153D01*
X0105316Y0136554D02*
X0114694Y0136554D01*
X0116292Y0134956D02*
X0106915Y0134956D01*
X0108513Y0133357D02*
X0117891Y0133357D01*
X0119489Y0131759D02*
X0110112Y0131759D01*
X0111710Y0130160D02*
X0121088Y0130160D01*
X0122686Y0128562D02*
X0113309Y0128562D01*
X0114600Y0124676D02*
X0119800Y0124676D01*
X0119934Y0124559D01*
X0123699Y0123766D02*
X0123800Y0123766D01*
X0123800Y0122168D02*
X0123699Y0122168D01*
X0123628Y0120569D02*
X0123800Y0120569D01*
X0123800Y0118971D02*
X0123699Y0118971D01*
X0123699Y0117372D02*
X0123800Y0117372D01*
X0123800Y0115774D02*
X0123699Y0115774D01*
X0123800Y0114175D02*
X0121800Y0114175D01*
X0121800Y0112577D02*
X0123800Y0112577D01*
X0123673Y0110978D02*
X0121800Y0110978D01*
X0121800Y0109379D02*
X0122200Y0109379D01*
X0122200Y0107781D02*
X0121800Y0107781D01*
X0127800Y0110978D02*
X0196050Y0110978D01*
X0196050Y0109379D02*
X0129600Y0109379D01*
X0130184Y0107781D02*
X0196050Y0107781D01*
X0196050Y0106182D02*
X0134880Y0106182D01*
X0135524Y0104584D02*
X0196050Y0104584D01*
X0196050Y0102985D02*
X0135524Y0102985D01*
X0135524Y0101387D02*
X0196050Y0101387D01*
X0196050Y0099788D02*
X0135524Y0099788D01*
X0134600Y0098190D02*
X0109000Y0098190D01*
X0109000Y0096591D02*
X0134600Y0096591D01*
X0134600Y0094993D02*
X0109000Y0094993D01*
X0109000Y0093394D02*
X0134600Y0093394D01*
X0134600Y0091796D02*
X0109131Y0091796D01*
X0109200Y0090197D02*
X0134600Y0090197D01*
X0134456Y0088599D02*
X0112872Y0088599D01*
X0114098Y0087000D02*
X0134400Y0087000D01*
X0134484Y0085402D02*
X0114200Y0085402D01*
X0114200Y0083803D02*
X0134600Y0083803D01*
X0134600Y0082205D02*
X0114200Y0082205D01*
X0114200Y0080606D02*
X0134600Y0080606D01*
X0138700Y0083901D02*
X0139000Y0083876D01*
X0139400Y0083476D01*
X0142200Y0083476D01*
X0143000Y0082676D01*
X0143800Y0082676D01*
X0150200Y0089076D01*
X0156200Y0089076D01*
X0156249Y0088901D01*
X0152747Y0091796D02*
X0152548Y0091796D01*
X0151687Y0096591D02*
X0142800Y0096591D01*
X0142800Y0098190D02*
X0196050Y0098190D01*
X0196050Y0096591D02*
X0167913Y0096591D01*
X0169512Y0094993D02*
X0196050Y0094993D01*
X0196050Y0093394D02*
X0171000Y0093394D01*
X0171000Y0091796D02*
X0196050Y0091796D01*
X0196050Y0090197D02*
X0171000Y0090197D01*
X0171000Y0088599D02*
X0196050Y0088599D01*
X0196050Y0087000D02*
X0171000Y0087000D01*
X0171000Y0085402D02*
X0196050Y0085402D01*
X0196050Y0083803D02*
X0171000Y0083803D01*
X0171000Y0082205D02*
X0196050Y0082205D01*
X0196050Y0080606D02*
X0171000Y0080606D01*
X0171000Y0079008D02*
X0196050Y0079008D01*
X0196050Y0077409D02*
X0171000Y0077409D01*
X0171000Y0075811D02*
X0196050Y0075811D01*
X0196050Y0074212D02*
X0171000Y0074212D01*
X0171000Y0072614D02*
X0196050Y0072614D01*
X0196050Y0071015D02*
X0171000Y0071015D01*
X0171000Y0069417D02*
X0196050Y0069417D01*
X0196050Y0067818D02*
X0171000Y0067818D01*
X0171000Y0066220D02*
X0196050Y0066220D01*
X0196050Y0064621D02*
X0171000Y0064621D01*
X0171000Y0063023D02*
X0196050Y0063023D01*
X0196050Y0061424D02*
X0171000Y0061424D01*
X0171000Y0059826D02*
X0196050Y0059826D01*
X0196050Y0058227D02*
X0171000Y0058227D01*
X0171000Y0056629D02*
X0196050Y0056629D01*
X0196050Y0055030D02*
X0171000Y0055030D01*
X0171000Y0053432D02*
X0196050Y0053432D01*
X0196050Y0051833D02*
X0171000Y0051833D01*
X0171000Y0050235D02*
X0196050Y0050235D01*
X0196050Y0048636D02*
X0171000Y0048636D01*
X0171000Y0047038D02*
X0196050Y0047038D01*
X0196050Y0045439D02*
X0171000Y0045439D01*
X0171000Y0043841D02*
X0196050Y0043841D01*
X0196050Y0042242D02*
X0171000Y0042242D01*
X0171000Y0040644D02*
X0196050Y0040644D01*
X0196050Y0039045D02*
X0171000Y0039045D01*
X0171000Y0037446D02*
X0196050Y0037446D01*
X0196050Y0035848D02*
X0171000Y0035848D01*
X0171000Y0034249D02*
X0196050Y0034249D01*
X0196050Y0032651D02*
X0171000Y0032651D01*
X0171000Y0031052D02*
X0196050Y0031052D01*
X0196050Y0029454D02*
X0171000Y0029454D01*
X0169808Y0027855D02*
X0196050Y0027855D01*
X0196050Y0026257D02*
X0168209Y0026257D01*
X0166611Y0024658D02*
X0196050Y0024658D01*
X0196050Y0023060D02*
X0168590Y0023060D01*
X0170189Y0021461D02*
X0196050Y0021461D01*
X0196050Y0019863D02*
X0170950Y0019863D01*
X0170950Y0018264D02*
X0196050Y0018264D01*
X0196050Y0016666D02*
X0170395Y0016666D01*
X0168796Y0015067D02*
X0196050Y0015067D01*
X0167000Y0031052D02*
X0110770Y0031052D01*
X0109172Y0029454D02*
X0165749Y0029454D01*
X0162550Y0019863D02*
X0161050Y0019863D01*
X0161050Y0018264D02*
X0162550Y0018264D01*
X0163105Y0016666D02*
X0160495Y0016666D01*
X0158897Y0015067D02*
X0164703Y0015067D01*
X0126361Y0053432D02*
X0004400Y0053432D01*
X0004400Y0055030D02*
X0127960Y0055030D01*
X0129558Y0056629D02*
X0004400Y0056629D01*
X0004400Y0058227D02*
X0131157Y0058227D01*
X0132755Y0059826D02*
X0004400Y0059826D01*
X0004400Y0061424D02*
X0116949Y0061424D01*
X0116216Y0063023D02*
X0004400Y0063023D01*
X0004400Y0064621D02*
X0108869Y0064621D01*
X0108076Y0066220D02*
X0085974Y0066220D01*
X0086078Y0067818D02*
X0108076Y0067818D01*
X0108076Y0069417D02*
X0086078Y0069417D01*
X0086078Y0071015D02*
X0108076Y0071015D01*
X0108924Y0072614D02*
X0108951Y0072614D01*
X0109000Y0074212D02*
X0119858Y0074212D01*
X0117076Y0068576D02*
X0117400Y0068276D01*
X0117400Y0065476D01*
X0119400Y0063476D01*
X0121851Y0061424D02*
X0126949Y0061424D01*
X0126216Y0063023D02*
X0122584Y0063023D01*
X0131851Y0061424D02*
X0134354Y0061424D01*
X0135952Y0063023D02*
X0132584Y0063023D01*
X0134731Y0064621D02*
X0137551Y0064621D01*
X0139149Y0066220D02*
X0135524Y0066220D01*
X0139045Y0067818D02*
X0140748Y0067818D01*
X0139784Y0069417D02*
X0142346Y0069417D01*
X0143945Y0071015D02*
X0139575Y0071015D01*
X0142724Y0072614D02*
X0143268Y0072614D01*
X0147800Y0071476D02*
X0103400Y0027076D01*
X0103400Y0026276D01*
X0103237Y0026047D01*
X0100812Y0023060D02*
X0099757Y0023060D01*
X0094906Y0023060D02*
X0087210Y0023060D01*
X0086790Y0029454D02*
X0102384Y0029454D01*
X0103982Y0031052D02*
X0080584Y0031052D01*
X0080811Y0029454D02*
X0080340Y0029454D01*
X0079929Y0032651D02*
X0105581Y0032651D01*
X0107179Y0034249D02*
X0004400Y0034249D01*
X0004400Y0032651D02*
X0074871Y0032651D01*
X0074216Y0031052D02*
X0004400Y0031052D01*
X0004400Y0029454D02*
X0074118Y0029454D01*
X0073539Y0027855D02*
X0004400Y0027855D01*
X0004400Y0026257D02*
X0073539Y0026257D01*
X0073539Y0024658D02*
X0004400Y0024658D01*
X0004400Y0023060D02*
X0073698Y0023060D01*
X0108778Y0035848D02*
X0004400Y0035848D01*
X0004400Y0037446D02*
X0110376Y0037446D01*
X0111975Y0039045D02*
X0004400Y0039045D01*
X0004400Y0040644D02*
X0113573Y0040644D01*
X0115172Y0042242D02*
X0004400Y0042242D01*
X0004400Y0043841D02*
X0116770Y0043841D01*
X0118369Y0045439D02*
X0004400Y0045439D01*
X0004400Y0047038D02*
X0119967Y0047038D01*
X0121566Y0048636D02*
X0004400Y0048636D01*
X0004400Y0050235D02*
X0123164Y0050235D01*
X0124763Y0051833D02*
X0004400Y0051833D01*
X0004400Y0066220D02*
X0056210Y0066220D01*
X0056106Y0066323D02*
X0057043Y0065386D01*
X0063487Y0065386D01*
X0064424Y0066323D01*
X0064424Y0075129D01*
X0063487Y0076066D01*
X0057043Y0076066D01*
X0056106Y0075129D01*
X0056106Y0066323D01*
X0056106Y0067818D02*
X0004400Y0067818D01*
X0004400Y0069417D02*
X0056106Y0069417D01*
X0056106Y0071015D02*
X0004400Y0071015D01*
X0004400Y0072614D02*
X0056106Y0072614D01*
X0056106Y0074212D02*
X0004400Y0074212D01*
X0004400Y0075811D02*
X0056788Y0075811D01*
X0057043Y0077984D02*
X0056106Y0078922D01*
X0056106Y0087728D01*
X0057043Y0088665D01*
X0063487Y0088665D01*
X0064424Y0087728D01*
X0064424Y0078922D01*
X0063487Y0077984D01*
X0057043Y0077984D01*
X0056106Y0079008D02*
X0004400Y0079008D01*
X0004400Y0080606D02*
X0056106Y0080606D01*
X0056106Y0082205D02*
X0004400Y0082205D01*
X0004400Y0083803D02*
X0056106Y0083803D01*
X0056106Y0085402D02*
X0004400Y0085402D01*
X0004400Y0087000D02*
X0056106Y0087000D01*
X0056977Y0088599D02*
X0004400Y0088599D01*
X0004400Y0090197D02*
X0095400Y0090197D01*
X0095400Y0088599D02*
X0085206Y0088599D01*
X0086078Y0087000D02*
X0095400Y0087000D01*
X0095400Y0085402D02*
X0086078Y0085402D01*
X0086078Y0083803D02*
X0095400Y0083803D01*
X0095400Y0082205D02*
X0086078Y0082205D01*
X0086078Y0080606D02*
X0095563Y0080606D01*
X0092503Y0079008D02*
X0086078Y0079008D01*
X0086295Y0077409D02*
X0090905Y0077409D01*
X0094166Y0072614D02*
X0100876Y0072614D01*
X0109000Y0075811D02*
X0109271Y0075811D01*
X0110600Y0077876D02*
X0107800Y0080676D01*
X0105000Y0080676D01*
X0104900Y0080752D01*
X0109200Y0083803D02*
X0109400Y0083803D01*
X0100600Y0083803D02*
X0100200Y0083803D01*
X0100200Y0085402D02*
X0100644Y0085402D01*
X0100800Y0087000D02*
X0100200Y0087000D01*
X0100200Y0088599D02*
X0100671Y0088599D01*
X0100600Y0090197D02*
X0100200Y0090197D01*
X0100200Y0091796D02*
X0100669Y0091796D01*
X0095400Y0091796D02*
X0004400Y0091796D01*
X0004400Y0093394D02*
X0095400Y0093394D01*
X0095400Y0094993D02*
X0004400Y0094993D01*
X0004400Y0096591D02*
X0095400Y0096591D01*
X0095400Y0098190D02*
X0004400Y0098190D01*
X0004400Y0099788D02*
X0095400Y0099788D01*
X0095400Y0101387D02*
X0004400Y0101387D01*
X0004400Y0102985D02*
X0095400Y0102985D01*
X0095400Y0104584D02*
X0089035Y0104584D01*
X0085769Y0107715D02*
X0085800Y0107876D01*
X0097800Y0107876D01*
X0100200Y0106182D02*
X0108720Y0106182D01*
X0108667Y0107781D02*
X0101099Y0107781D01*
X0102697Y0109379D02*
X0105673Y0109379D01*
X0108076Y0104584D02*
X0100200Y0104584D01*
X0101815Y0102985D02*
X0108076Y0102985D01*
X0108076Y0101387D02*
X0103821Y0101387D01*
X0104184Y0099788D02*
X0108076Y0099788D01*
X0097508Y0110978D02*
X0088902Y0110978D01*
X0082636Y0110978D02*
X0082492Y0110978D01*
X0079260Y0110978D02*
X0078892Y0110978D01*
X0078892Y0109379D02*
X0079260Y0109379D01*
X0078892Y0107781D02*
X0004400Y0107781D01*
X0004400Y0109379D02*
X0075110Y0109379D01*
X0075660Y0110978D02*
X0004400Y0110978D01*
X0004400Y0112577D02*
X0099106Y0112577D01*
X0100705Y0114175D02*
X0004400Y0114175D01*
X0004400Y0115774D02*
X0102303Y0115774D01*
X0103902Y0117372D02*
X0004400Y0117372D01*
X0004400Y0118971D02*
X0105500Y0118971D01*
X0107099Y0120569D02*
X0004400Y0120569D01*
X0004400Y0122168D02*
X0108697Y0122168D01*
X0110296Y0123766D02*
X0004400Y0123766D01*
X0004400Y0125365D02*
X0109718Y0125365D01*
X0108119Y0126963D02*
X0004400Y0126963D01*
X0004400Y0128562D02*
X0106521Y0128562D01*
X0104922Y0130160D02*
X0004400Y0130160D01*
X0004400Y0131759D02*
X0103323Y0131759D01*
X0101725Y0133357D02*
X0004400Y0133357D01*
X0004400Y0134956D02*
X0100126Y0134956D01*
X0098528Y0136554D02*
X0004400Y0136554D01*
X0004400Y0138153D02*
X0096929Y0138153D01*
X0096200Y0139751D02*
X0004400Y0139751D01*
X0004400Y0141350D02*
X0096200Y0141350D01*
X0096200Y0142948D02*
X0004400Y0142948D01*
X0004400Y0144547D02*
X0096200Y0144547D01*
X0096200Y0146145D02*
X0004400Y0146145D01*
X0004400Y0147744D02*
X0067359Y0147744D01*
X0069841Y0147744D02*
X0096200Y0147744D01*
X0096200Y0149342D02*
X0071494Y0149342D01*
X0071784Y0150941D02*
X0096200Y0150941D01*
X0096200Y0152539D02*
X0072600Y0152539D01*
X0074181Y0154138D02*
X0078395Y0154138D01*
X0085205Y0154138D02*
X0088395Y0154138D01*
X0088035Y0155736D02*
X0085565Y0155736D01*
X0085565Y0157335D02*
X0088035Y0157335D01*
X0088035Y0158933D02*
X0085565Y0158933D01*
X0084906Y0160532D02*
X0088694Y0160532D01*
X0091800Y0157130D02*
X0091800Y0157076D01*
X0098200Y0157076D01*
X0096200Y0154138D02*
X0095205Y0154138D01*
X0102200Y0163729D02*
X0102810Y0163729D01*
X0099800Y0165876D02*
X0095800Y0169876D01*
X0072600Y0169876D01*
X0071000Y0168276D01*
X0071000Y0163876D01*
X0070776Y0163823D01*
X0067011Y0163787D02*
X0066833Y0163860D01*
X0065844Y0163860D01*
X0065565Y0164139D01*
X0065565Y0166454D01*
X0064628Y0167391D01*
X0058972Y0167391D01*
X0058035Y0166454D01*
X0058035Y0161694D01*
X0057633Y0161860D01*
X0057000Y0161860D01*
X0057000Y0165448D01*
X0063828Y0172276D01*
X0085016Y0172276D01*
X0072123Y0172276D01*
X0071241Y0171911D01*
X0070565Y0171236D01*
X0068965Y0169636D01*
X0068600Y0168754D01*
X0068600Y0167391D01*
X0067948Y0167391D01*
X0067011Y0166454D01*
X0067011Y0163787D01*
X0067011Y0165327D02*
X0065565Y0165327D01*
X0065093Y0166926D02*
X0067483Y0166926D01*
X0068600Y0168524D02*
X0060077Y0168524D01*
X0058507Y0166926D02*
X0058478Y0166926D01*
X0058035Y0165327D02*
X0057000Y0165327D01*
X0057000Y0163729D02*
X0058035Y0163729D01*
X0058035Y0162130D02*
X0057000Y0162130D01*
X0055777Y0155736D02*
X0055368Y0155736D01*
X0055205Y0154138D02*
X0058395Y0154138D01*
X0065205Y0154138D02*
X0067372Y0154138D01*
X0067011Y0155736D02*
X0065565Y0155736D01*
X0065565Y0157335D02*
X0067011Y0157335D01*
X0069453Y0170123D02*
X0061675Y0170123D01*
X0063274Y0171721D02*
X0071051Y0171721D01*
X0069851Y0176405D02*
X0068063Y0176405D01*
X0068063Y0181005D01*
X0068063Y0181405D01*
X0067663Y0181405D01*
X0067663Y0186005D01*
X0065875Y0186005D01*
X0063063Y0183193D01*
X0063063Y0181405D01*
X0067663Y0181405D01*
X0067663Y0181005D01*
X0063063Y0181005D01*
X0063063Y0179216D01*
X0065875Y0176405D01*
X0067663Y0176405D01*
X0067663Y0181005D01*
X0068063Y0181005D01*
X0072663Y0181005D01*
X0072663Y0179216D01*
X0069851Y0176405D01*
X0069964Y0176517D02*
X0075762Y0176517D01*
X0075875Y0176405D02*
X0077663Y0176405D01*
X0077663Y0181005D01*
X0073063Y0181005D01*
X0073063Y0179216D01*
X0075875Y0176405D01*
X0077663Y0176517D02*
X0078063Y0176517D01*
X0078063Y0176405D02*
X0079851Y0176405D01*
X0082663Y0179216D01*
X0082663Y0181005D01*
X0078063Y0181005D01*
X0078063Y0181405D01*
X0077663Y0181405D01*
X0077663Y0186005D01*
X0075875Y0186005D01*
X0073063Y0183193D01*
X0073063Y0181405D01*
X0077663Y0181405D01*
X0077663Y0181005D01*
X0078063Y0181005D01*
X0078063Y0176405D01*
X0078063Y0178115D02*
X0077663Y0178115D01*
X0077663Y0179714D02*
X0078063Y0179714D01*
X0078063Y0181312D02*
X0083263Y0181312D01*
X0082663Y0181405D02*
X0082663Y0183193D01*
X0079851Y0186005D01*
X0078063Y0186005D01*
X0078063Y0181405D01*
X0082663Y0181405D01*
X0082663Y0182911D02*
X0083263Y0182911D01*
X0084663Y0184510D02*
X0081346Y0184510D01*
X0080870Y0187707D02*
X0084856Y0187707D01*
X0085958Y0186605D02*
X0089768Y0186605D01*
X0092463Y0189299D01*
X0092463Y0193110D01*
X0089768Y0195805D01*
X0085958Y0195805D01*
X0083263Y0193110D01*
X0083263Y0189299D01*
X0085958Y0186605D01*
X0083263Y0189305D02*
X0082463Y0189305D01*
X0082463Y0190904D02*
X0083263Y0190904D01*
X0083263Y0192502D02*
X0082463Y0192502D01*
X0082853Y0194101D02*
X0084254Y0194101D01*
X0084451Y0195699D02*
X0085852Y0195699D01*
X0086050Y0197298D02*
X0120350Y0197298D01*
X0121526Y0195805D02*
X0114200Y0195805D01*
X0113263Y0194867D01*
X0113263Y0187542D01*
X0114200Y0186605D01*
X0121526Y0186605D01*
X0122463Y0187542D01*
X0122463Y0194867D01*
X0121526Y0195805D01*
X0121631Y0195699D02*
X0121949Y0195699D01*
X0122463Y0194101D02*
X0122600Y0194101D01*
X0122600Y0192502D02*
X0122463Y0192502D01*
X0122463Y0190904D02*
X0122600Y0190904D01*
X0122600Y0189305D02*
X0122463Y0189305D01*
X0122463Y0187707D02*
X0122600Y0187707D01*
X0122600Y0186108D02*
X0095260Y0186108D01*
X0094380Y0184510D02*
X0094062Y0184510D01*
X0091202Y0187707D02*
X0090870Y0187707D01*
X0090003Y0186108D02*
X0046060Y0186108D01*
X0044663Y0184510D02*
X0044462Y0184510D01*
X0042002Y0187707D02*
X0040870Y0187707D01*
X0040403Y0186108D02*
X0019441Y0186108D01*
X0020859Y0187707D02*
X0024856Y0187707D01*
X0025958Y0186605D02*
X0029768Y0186605D01*
X0032463Y0189299D01*
X0032463Y0193110D01*
X0029768Y0195805D01*
X0025958Y0195805D01*
X0023263Y0193110D01*
X0023263Y0189299D01*
X0025958Y0186605D01*
X0024663Y0184510D02*
X0021040Y0184510D01*
X0022638Y0182911D02*
X0023263Y0182911D01*
X0023263Y0181312D02*
X0022650Y0181312D01*
X0022650Y0179714D02*
X0023263Y0179714D01*
X0022650Y0178115D02*
X0024447Y0178115D01*
X0023988Y0176517D02*
X0029531Y0176517D01*
X0031129Y0174918D02*
X0025586Y0174918D01*
X0027185Y0173320D02*
X0032728Y0173320D01*
X0034326Y0171721D02*
X0028783Y0171721D01*
X0030382Y0170123D02*
X0035925Y0170123D01*
X0037523Y0168524D02*
X0031980Y0168524D01*
X0033579Y0166926D02*
X0039122Y0166926D01*
X0040720Y0165327D02*
X0035177Y0165327D01*
X0036776Y0163729D02*
X0042319Y0163729D01*
X0043917Y0162130D02*
X0038374Y0162130D01*
X0039973Y0160532D02*
X0048694Y0160532D01*
X0048231Y0158933D02*
X0041571Y0158933D01*
X0043170Y0157335D02*
X0048231Y0157335D01*
X0048231Y0155736D02*
X0044768Y0155736D01*
X0046367Y0154138D02*
X0048395Y0154138D01*
X0045506Y0149342D02*
X0004400Y0149342D01*
X0004400Y0150941D02*
X0043907Y0150941D01*
X0042309Y0152539D02*
X0004400Y0152539D01*
X0004400Y0154138D02*
X0040710Y0154138D01*
X0039112Y0155736D02*
X0004400Y0155736D01*
X0004400Y0157335D02*
X0037513Y0157335D01*
X0035914Y0158933D02*
X0004400Y0158933D01*
X0004400Y0160532D02*
X0034316Y0160532D01*
X0032717Y0162130D02*
X0004400Y0162130D01*
X0004400Y0163729D02*
X0031119Y0163729D01*
X0029520Y0165327D02*
X0004400Y0165327D01*
X0004400Y0166926D02*
X0027922Y0166926D01*
X0026323Y0168524D02*
X0004400Y0168524D01*
X0004400Y0170123D02*
X0024725Y0170123D01*
X0023126Y0171721D02*
X0004400Y0171721D01*
X0004400Y0173320D02*
X0021528Y0173320D01*
X0019929Y0174918D02*
X0019515Y0174918D01*
X0014085Y0174918D02*
X0004400Y0174918D01*
X0004400Y0176517D02*
X0012486Y0176517D01*
X0010950Y0178115D02*
X0004400Y0178115D01*
X0004400Y0179714D02*
X0010950Y0179714D01*
X0010950Y0181312D02*
X0004400Y0181312D01*
X0004400Y0182911D02*
X0010962Y0182911D01*
X0012560Y0184510D02*
X0004400Y0184510D01*
X0004400Y0186108D02*
X0014159Y0186108D01*
X0015202Y0187707D02*
X0004400Y0187707D01*
X0004400Y0189305D02*
X0016800Y0189305D01*
X0018200Y0190904D02*
X0004400Y0190904D01*
X0004400Y0192502D02*
X0018200Y0192502D01*
X0018396Y0194101D02*
X0004400Y0194101D01*
X0004400Y0195699D02*
X0019994Y0195699D01*
X0021593Y0197298D02*
X0004400Y0197298D01*
X0004400Y0198896D02*
X0023191Y0198896D01*
X0025651Y0195699D02*
X0025852Y0195699D01*
X0027250Y0197298D02*
X0029150Y0197298D01*
X0029874Y0195699D02*
X0030749Y0195699D01*
X0031472Y0194101D02*
X0032347Y0194101D01*
X0032463Y0192502D02*
X0033263Y0192502D01*
X0033263Y0190904D02*
X0032463Y0190904D01*
X0032463Y0189305D02*
X0033263Y0189305D01*
X0034856Y0187707D02*
X0030870Y0187707D01*
X0031063Y0184510D02*
X0034663Y0184510D01*
X0033263Y0182911D02*
X0032463Y0182911D01*
X0032463Y0181312D02*
X0033263Y0181312D01*
X0033263Y0179714D02*
X0032463Y0179714D01*
X0033589Y0178115D02*
X0034447Y0178115D01*
X0035188Y0176517D02*
X0040331Y0176517D01*
X0041000Y0174918D02*
X0036786Y0174918D01*
X0038385Y0173320D02*
X0040151Y0173320D01*
X0045000Y0174918D02*
X0060814Y0174918D01*
X0059768Y0176605D02*
X0062463Y0179299D01*
X0062463Y0183110D01*
X0059768Y0185805D01*
X0055958Y0185805D01*
X0053263Y0183110D01*
X0053263Y0179299D01*
X0055958Y0176605D01*
X0059768Y0176605D01*
X0061279Y0178115D02*
X0064164Y0178115D01*
X0063063Y0179714D02*
X0062463Y0179714D01*
X0062463Y0181312D02*
X0067663Y0181312D01*
X0068063Y0181312D02*
X0077663Y0181312D01*
X0077663Y0182911D02*
X0078063Y0182911D01*
X0078063Y0184510D02*
X0077663Y0184510D01*
X0074380Y0184510D02*
X0071346Y0184510D01*
X0072663Y0183193D02*
X0069851Y0186005D01*
X0068063Y0186005D01*
X0068063Y0181405D01*
X0072663Y0181405D01*
X0072663Y0183193D01*
X0072663Y0182911D02*
X0073063Y0182911D01*
X0073063Y0179714D02*
X0072663Y0179714D01*
X0071562Y0178115D02*
X0074164Y0178115D01*
X0079964Y0176517D02*
X0085938Y0176517D01*
X0084447Y0178115D02*
X0081562Y0178115D01*
X0082663Y0179714D02*
X0083263Y0179714D01*
X0085016Y0172276D02*
X0085016Y0172276D01*
X0090984Y0173320D02*
X0107450Y0173320D01*
X0109048Y0174918D02*
X0090815Y0174918D01*
X0092069Y0176517D02*
X0095762Y0176517D01*
X0097663Y0176517D02*
X0098063Y0176517D01*
X0098063Y0176405D02*
X0099851Y0176405D01*
X0102663Y0179216D01*
X0102663Y0181005D01*
X0098063Y0181005D01*
X0098063Y0176405D01*
X0098063Y0178115D02*
X0097663Y0178115D01*
X0097663Y0179714D02*
X0098063Y0179714D01*
X0098063Y0181312D02*
X0103263Y0181312D01*
X0102663Y0181405D02*
X0102663Y0183193D01*
X0099851Y0186005D01*
X0098063Y0186005D01*
X0098063Y0181405D01*
X0102663Y0181405D01*
X0102663Y0182911D02*
X0103263Y0182911D01*
X0103263Y0183110D02*
X0103263Y0179299D01*
X0105958Y0176605D01*
X0109768Y0176605D01*
X0112463Y0179299D01*
X0112463Y0183110D01*
X0109768Y0185805D01*
X0105958Y0185805D01*
X0103263Y0183110D01*
X0104663Y0184510D02*
X0101346Y0184510D01*
X0100870Y0187707D02*
X0104856Y0187707D01*
X0105958Y0186605D02*
X0109768Y0186605D01*
X0112463Y0189299D01*
X0112463Y0193110D01*
X0109768Y0195805D01*
X0105958Y0195805D01*
X0103263Y0193110D01*
X0103263Y0189299D01*
X0105958Y0186605D01*
X0103263Y0189305D02*
X0102463Y0189305D01*
X0102463Y0190904D02*
X0103263Y0190904D01*
X0103263Y0192502D02*
X0102463Y0192502D01*
X0101472Y0194101D02*
X0104254Y0194101D01*
X0105852Y0195699D02*
X0099874Y0195699D01*
X0095852Y0195699D02*
X0089874Y0195699D01*
X0091472Y0194101D02*
X0094254Y0194101D01*
X0093263Y0192502D02*
X0092463Y0192502D01*
X0092463Y0190904D02*
X0093263Y0190904D01*
X0092800Y0189305D02*
X0092463Y0189305D01*
X0097663Y0184510D02*
X0098063Y0184510D01*
X0098063Y0182911D02*
X0097663Y0182911D01*
X0094164Y0178115D02*
X0093668Y0178115D01*
X0093028Y0177476D02*
X0093028Y0177476D01*
X0097349Y0171721D02*
X0105851Y0171721D01*
X0104253Y0170123D02*
X0098947Y0170123D01*
X0099964Y0176517D02*
X0110647Y0176517D01*
X0111279Y0178115D02*
X0112245Y0178115D01*
X0112463Y0179714D02*
X0113263Y0179714D01*
X0113263Y0181312D02*
X0112463Y0181312D01*
X0112463Y0182911D02*
X0113263Y0182911D01*
X0114663Y0184510D02*
X0111063Y0184510D01*
X0110870Y0187707D02*
X0113263Y0187707D01*
X0113263Y0189305D02*
X0112463Y0189305D01*
X0112463Y0190904D02*
X0113263Y0190904D01*
X0113263Y0192502D02*
X0112463Y0192502D01*
X0113263Y0194101D02*
X0111472Y0194101D01*
X0109874Y0195699D02*
X0114095Y0195699D01*
X0124409Y0198896D02*
X0196050Y0198896D01*
X0196050Y0197298D02*
X0126007Y0197298D01*
X0126600Y0195699D02*
X0196050Y0195699D01*
X0196050Y0194101D02*
X0126600Y0194101D01*
X0126600Y0192502D02*
X0196050Y0192502D01*
X0196050Y0190904D02*
X0126600Y0190904D01*
X0126600Y0189305D02*
X0196050Y0189305D01*
X0196050Y0187707D02*
X0126600Y0187707D01*
X0126600Y0186108D02*
X0196050Y0186108D01*
X0196050Y0184510D02*
X0126600Y0184510D01*
X0126600Y0182911D02*
X0196050Y0182911D01*
X0196050Y0181312D02*
X0126600Y0181312D01*
X0126600Y0179714D02*
X0196050Y0179714D01*
X0196050Y0178115D02*
X0126600Y0178115D01*
X0126600Y0176517D02*
X0196050Y0176517D01*
X0196050Y0174918D02*
X0125671Y0174918D01*
X0124072Y0173320D02*
X0196050Y0173320D01*
X0196050Y0171721D02*
X0122474Y0171721D01*
X0120875Y0170123D02*
X0196050Y0170123D01*
X0196050Y0168524D02*
X0119277Y0168524D01*
X0117678Y0166926D02*
X0196050Y0166926D01*
X0196050Y0165327D02*
X0116080Y0165327D01*
X0115790Y0163729D02*
X0196050Y0163729D01*
X0196050Y0162130D02*
X0116215Y0162130D01*
X0116215Y0160532D02*
X0196050Y0160532D01*
X0196050Y0158933D02*
X0116215Y0158933D01*
X0115902Y0157335D02*
X0196050Y0157335D01*
X0196050Y0155736D02*
X0115000Y0155736D01*
X0115000Y0154138D02*
X0196050Y0154138D01*
X0196050Y0152539D02*
X0115000Y0152539D01*
X0115000Y0150941D02*
X0196050Y0150941D01*
X0196050Y0149342D02*
X0115000Y0149342D01*
X0115000Y0147744D02*
X0196050Y0147744D01*
X0196050Y0146145D02*
X0115000Y0146145D01*
X0115000Y0144547D02*
X0196050Y0144547D01*
X0196050Y0142948D02*
X0115000Y0142948D01*
X0115555Y0141350D02*
X0196050Y0141350D01*
X0196050Y0139751D02*
X0117153Y0139751D01*
X0118752Y0138153D02*
X0196050Y0138153D01*
X0196050Y0136554D02*
X0120350Y0136554D01*
X0121949Y0134956D02*
X0196050Y0134956D01*
X0196050Y0133357D02*
X0123548Y0133357D01*
X0125146Y0131759D02*
X0196050Y0131759D01*
X0196050Y0130160D02*
X0126745Y0130160D01*
X0127800Y0128562D02*
X0196050Y0128562D01*
X0196050Y0126963D02*
X0127800Y0126963D01*
X0127800Y0125365D02*
X0196050Y0125365D01*
X0196050Y0123766D02*
X0127800Y0123766D01*
X0127800Y0122168D02*
X0196050Y0122168D01*
X0196050Y0120569D02*
X0127800Y0120569D01*
X0127800Y0118971D02*
X0196050Y0118971D01*
X0196050Y0117372D02*
X0127800Y0117372D01*
X0127800Y0115774D02*
X0196050Y0115774D01*
X0196050Y0114175D02*
X0127800Y0114175D01*
X0127800Y0112577D02*
X0196050Y0112577D01*
X0167000Y0091796D02*
X0166651Y0091796D01*
X0166547Y0091975D02*
X0166784Y0091565D01*
X0166907Y0091107D01*
X0166907Y0089086D01*
X0163126Y0089086D01*
X0163126Y0092670D01*
X0165344Y0092670D01*
X0165802Y0092547D01*
X0166212Y0092310D01*
X0166547Y0091975D01*
X0166907Y0090197D02*
X0167000Y0090197D01*
X0167000Y0088599D02*
X0166907Y0088599D01*
X0166907Y0087000D02*
X0167000Y0087000D01*
X0167000Y0085402D02*
X0166055Y0085402D01*
X0167000Y0083803D02*
X0148321Y0083803D01*
X0146723Y0082205D02*
X0167000Y0082205D01*
X0167000Y0080606D02*
X0145074Y0080606D01*
X0143663Y0079008D02*
X0167000Y0079008D01*
X0167000Y0077409D02*
X0145261Y0077409D01*
X0146860Y0075811D02*
X0149165Y0075811D01*
X0149920Y0085402D02*
X0153352Y0085402D01*
X0159146Y0085402D02*
X0159828Y0085402D01*
X0162757Y0085402D02*
X0163126Y0085402D01*
X0163126Y0087000D02*
X0162757Y0087000D01*
X0162757Y0088599D02*
X0163126Y0088599D01*
X0163126Y0090197D02*
X0162757Y0090197D01*
X0162757Y0091796D02*
X0163126Y0091796D01*
X0162533Y0075811D02*
X0162164Y0075811D01*
X0162164Y0074212D02*
X0162533Y0074212D01*
X0162533Y0073240D02*
X0166314Y0073240D01*
X0166314Y0071218D01*
X0166191Y0070761D01*
X0165954Y0070350D01*
X0165619Y0070015D01*
X0165209Y0069778D01*
X0164751Y0069655D01*
X0162533Y0069655D01*
X0162533Y0073240D01*
X0162533Y0072614D02*
X0162164Y0072614D01*
X0162164Y0071015D02*
X0162533Y0071015D01*
X0166260Y0071015D02*
X0167000Y0071015D01*
X0167000Y0072614D02*
X0166314Y0072614D01*
X0166314Y0074212D02*
X0167000Y0074212D01*
X0167000Y0075811D02*
X0166266Y0075811D01*
X0147927Y0090197D02*
X0142800Y0090197D01*
X0142944Y0088599D02*
X0146328Y0088599D01*
X0144730Y0087000D02*
X0143000Y0087000D01*
X0114200Y0124276D02*
X0114600Y0124676D01*
X0123699Y0125365D02*
X0123800Y0125365D01*
X0123800Y0126963D02*
X0123699Y0126963D01*
X0109391Y0157335D02*
X0109209Y0157335D01*
X0104447Y0178115D02*
X0101562Y0178115D01*
X0102663Y0179714D02*
X0103263Y0179714D01*
X0081991Y0198896D02*
X0033209Y0198896D01*
X0034807Y0197298D02*
X0080393Y0197298D01*
X0075852Y0195699D02*
X0069874Y0195699D01*
X0069768Y0195805D02*
X0065958Y0195805D01*
X0063263Y0193110D01*
X0063263Y0189299D01*
X0065958Y0186605D01*
X0069768Y0186605D01*
X0072463Y0189299D01*
X0072463Y0193110D01*
X0069768Y0195805D01*
X0071472Y0194101D02*
X0074254Y0194101D01*
X0073263Y0192502D02*
X0072463Y0192502D01*
X0072463Y0190904D02*
X0073263Y0190904D01*
X0073263Y0189305D02*
X0072463Y0189305D01*
X0070870Y0187707D02*
X0074856Y0187707D01*
X0068063Y0184510D02*
X0067663Y0184510D01*
X0067663Y0182911D02*
X0068063Y0182911D01*
X0068063Y0179714D02*
X0067663Y0179714D01*
X0067663Y0178115D02*
X0068063Y0178115D01*
X0068063Y0176517D02*
X0067663Y0176517D01*
X0065762Y0176517D02*
X0045000Y0176517D01*
X0044447Y0178115D02*
X0044389Y0178115D01*
X0045849Y0173320D02*
X0059215Y0173320D01*
X0057617Y0171721D02*
X0046184Y0171721D01*
X0045720Y0170123D02*
X0056018Y0170123D01*
X0054420Y0168524D02*
X0043180Y0168524D01*
X0044779Y0166926D02*
X0048507Y0166926D01*
X0051279Y0178115D02*
X0054447Y0178115D01*
X0053263Y0179714D02*
X0052463Y0179714D01*
X0052463Y0181312D02*
X0053263Y0181312D01*
X0053263Y0182911D02*
X0052463Y0182911D01*
X0051063Y0184510D02*
X0054663Y0184510D01*
X0055958Y0186605D02*
X0059768Y0186605D01*
X0062463Y0189299D01*
X0062463Y0193110D01*
X0059768Y0195805D01*
X0055958Y0195805D01*
X0053263Y0193110D01*
X0053263Y0189299D01*
X0055958Y0186605D01*
X0054856Y0187707D02*
X0050870Y0187707D01*
X0052463Y0189305D02*
X0053263Y0189305D01*
X0053263Y0190904D02*
X0052463Y0190904D01*
X0052463Y0192502D02*
X0053263Y0192502D01*
X0054254Y0194101D02*
X0051472Y0194101D01*
X0049874Y0195699D02*
X0055852Y0195699D01*
X0059874Y0195699D02*
X0065852Y0195699D01*
X0064254Y0194101D02*
X0061472Y0194101D01*
X0062463Y0192502D02*
X0063263Y0192502D01*
X0063263Y0190904D02*
X0062463Y0190904D01*
X0062463Y0189305D02*
X0063263Y0189305D01*
X0064856Y0187707D02*
X0060870Y0187707D01*
X0061063Y0184510D02*
X0064380Y0184510D01*
X0063063Y0182911D02*
X0062463Y0182911D01*
X0045852Y0195699D02*
X0039874Y0195699D01*
X0041472Y0194101D02*
X0044254Y0194101D01*
X0043263Y0192502D02*
X0042463Y0192502D01*
X0042463Y0190904D02*
X0043263Y0190904D01*
X0043263Y0189305D02*
X0042463Y0189305D01*
X0024254Y0194101D02*
X0024053Y0194101D01*
X0023263Y0192502D02*
X0022454Y0192502D01*
X0022200Y0190904D02*
X0023263Y0190904D01*
X0023263Y0189305D02*
X0022200Y0189305D01*
X0004400Y0106182D02*
X0075110Y0106182D01*
X0075110Y0105509D02*
X0075110Y0107530D01*
X0078892Y0107530D01*
X0078892Y0103946D01*
X0076674Y0103946D01*
X0076216Y0104069D01*
X0075805Y0104306D01*
X0075470Y0104641D01*
X0075233Y0105051D01*
X0075110Y0105509D01*
X0075527Y0104584D02*
X0004400Y0104584D01*
X0004400Y0077409D02*
X0081000Y0077409D01*
X0078441Y0075811D02*
X0063742Y0075811D01*
X0064424Y0074212D02*
X0077759Y0074212D01*
X0077759Y0072614D02*
X0064424Y0072614D01*
X0064424Y0071015D02*
X0077759Y0071015D01*
X0077759Y0069417D02*
X0064424Y0069417D01*
X0064424Y0067818D02*
X0077759Y0067818D01*
X0077863Y0066220D02*
X0064320Y0066220D01*
X0064424Y0079008D02*
X0077759Y0079008D01*
X0077759Y0080606D02*
X0064424Y0080606D01*
X0064424Y0082205D02*
X0077759Y0082205D01*
X0077759Y0083803D02*
X0064424Y0083803D01*
X0064424Y0085402D02*
X0077759Y0085402D01*
X0077759Y0087000D02*
X0064424Y0087000D01*
X0063553Y0088599D02*
X0078631Y0088599D01*
X0078892Y0104584D02*
X0079260Y0104584D01*
X0079260Y0106182D02*
X0078892Y0106182D01*
D11*
X0051800Y0157130D03*
X0051800Y0163823D03*
X0105954Y0160476D03*
X0112646Y0160476D03*
X0083801Y0026047D03*
X0077108Y0026047D03*
X0128454Y0022976D03*
X0135146Y0022976D03*
D12*
X0155656Y0073424D03*
X0162349Y0073424D03*
X0162942Y0088901D03*
X0156249Y0088901D03*
X0119934Y0117866D03*
X0119934Y0124559D03*
X0091800Y0157130D03*
X0091800Y0163823D03*
X0081800Y0163823D03*
X0081800Y0157130D03*
X0070776Y0157130D03*
X0070776Y0163823D03*
X0061800Y0163823D03*
X0061800Y0157130D03*
X0079076Y0107715D03*
X0085769Y0107715D03*
D13*
X0081919Y0083325D03*
X0081919Y0070726D03*
X0060265Y0070726D03*
X0060265Y0083325D03*
D14*
X0097331Y0026047D03*
X0103237Y0026047D03*
D15*
X0117863Y0191205D03*
D16*
X0107863Y0191205D03*
X0097863Y0191205D03*
X0087863Y0191205D03*
X0077863Y0191205D03*
X0067863Y0191205D03*
X0057863Y0191205D03*
X0047863Y0191205D03*
X0037863Y0191205D03*
X0027863Y0191205D03*
X0027863Y0181205D03*
X0037863Y0181205D03*
X0047863Y0181205D03*
X0057863Y0181205D03*
X0067863Y0181205D03*
X0077863Y0181205D03*
X0087863Y0181205D03*
X0097863Y0181205D03*
X0107863Y0181205D03*
X0117863Y0181205D03*
D17*
X0104900Y0096500D03*
X0104900Y0093350D03*
X0104900Y0090201D03*
X0104900Y0087051D03*
X0104900Y0083901D03*
X0104900Y0080752D03*
X0104900Y0077602D03*
X0104900Y0074453D03*
X0138700Y0074453D03*
X0138700Y0077602D03*
X0138700Y0080752D03*
X0138700Y0083901D03*
X0138700Y0087051D03*
X0138700Y0090201D03*
X0138700Y0093350D03*
X0138700Y0096500D03*
D18*
X0132824Y0102376D03*
X0129674Y0102376D03*
X0126524Y0102376D03*
X0123375Y0102376D03*
X0120225Y0102376D03*
X0117076Y0102376D03*
X0113926Y0102376D03*
X0110776Y0102376D03*
X0110776Y0068576D03*
X0113926Y0068576D03*
X0117076Y0068576D03*
X0120225Y0068576D03*
X0123375Y0068576D03*
X0126524Y0068576D03*
X0129674Y0068576D03*
X0132824Y0068576D03*
D19*
X0156509Y0020520D02*
X0155989Y0021040D01*
X0157711Y0021040D01*
X0158929Y0019822D01*
X0158929Y0018100D01*
X0157711Y0016882D01*
X0155989Y0016882D01*
X0154771Y0018100D01*
X0154771Y0019822D01*
X0155989Y0021040D01*
X0156312Y0020260D01*
X0157388Y0020260D01*
X0158149Y0019499D01*
X0158149Y0018423D01*
X0157388Y0017662D01*
X0156312Y0017662D01*
X0155551Y0018423D01*
X0155551Y0019499D01*
X0156312Y0020260D01*
X0156635Y0019480D01*
X0157065Y0019480D01*
X0157369Y0019176D01*
X0157369Y0018746D01*
X0157065Y0018442D01*
X0156635Y0018442D01*
X0156331Y0018746D01*
X0156331Y0019176D01*
X0156635Y0019480D01*
X0166409Y0020520D02*
X0165889Y0021040D01*
X0167611Y0021040D01*
X0168829Y0019822D01*
X0168829Y0018100D01*
X0167611Y0016882D01*
X0165889Y0016882D01*
X0164671Y0018100D01*
X0164671Y0019822D01*
X0165889Y0021040D01*
X0166212Y0020260D01*
X0167288Y0020260D01*
X0168049Y0019499D01*
X0168049Y0018423D01*
X0167288Y0017662D01*
X0166212Y0017662D01*
X0165451Y0018423D01*
X0165451Y0019499D01*
X0166212Y0020260D01*
X0166535Y0019480D01*
X0166965Y0019480D01*
X0167269Y0019176D01*
X0167269Y0018746D01*
X0166965Y0018442D01*
X0166535Y0018442D01*
X0166231Y0018746D01*
X0166231Y0019176D01*
X0166535Y0019480D01*
D20*
X0016800Y0180476D03*
D21*
X0010308Y0193724D03*
X0010116Y0013742D03*
X0190116Y0013742D03*
X0190116Y0193742D03*
D22*
X0115000Y0119876D03*
X0113000Y0110276D03*
X0116200Y0107476D03*
X0107000Y0112276D03*
X0101000Y0099876D03*
X0086800Y0090476D03*
X0081800Y0090476D03*
X0076800Y0090476D03*
X0071800Y0090476D03*
X0066800Y0090476D03*
X0061800Y0090476D03*
X0056800Y0090476D03*
X0051800Y0090476D03*
X0051800Y0085476D03*
X0051800Y0080476D03*
X0051800Y0075476D03*
X0051800Y0070476D03*
X0051800Y0065476D03*
X0056800Y0062976D03*
X0061800Y0062976D03*
X0066800Y0062976D03*
X0071800Y0062976D03*
X0076800Y0062976D03*
X0081800Y0062976D03*
X0086800Y0062976D03*
X0089300Y0067976D03*
X0089300Y0080476D03*
X0089300Y0085476D03*
X0119400Y0063476D03*
X0123000Y0073476D03*
X0129800Y0073476D03*
X0133800Y0074276D03*
X0136600Y0069876D03*
X0129400Y0063476D03*
X0127000Y0107476D03*
X0106800Y0145476D03*
X0087000Y0163876D03*
X0087800Y0173876D03*
X0077000Y0161876D03*
X0077000Y0157476D03*
X0068600Y0150676D03*
X0066200Y0160676D03*
X0057000Y0158676D03*
X0066800Y0170476D03*
X0043000Y0171876D03*
X0077400Y0030676D03*
D23*
X0077400Y0026276D01*
X0077108Y0026047D01*
X0083801Y0026047D02*
X0084200Y0026276D01*
X0097000Y0026276D01*
X0097331Y0026047D01*
X0135146Y0022976D02*
X0135800Y0023076D01*
X0162600Y0023076D01*
X0162800Y0022876D01*
X0163000Y0023076D01*
X0163000Y0023876D01*
X0169000Y0029876D01*
X0169000Y0092676D01*
X0166600Y0095076D01*
X0153000Y0095076D01*
X0151400Y0093476D01*
X0139000Y0093476D01*
X0138700Y0093350D01*
X0126524Y0102376D02*
X0126600Y0102676D01*
X0126600Y0107076D01*
X0127000Y0107476D01*
X0124200Y0108676D02*
X0124200Y0103476D01*
X0123400Y0102676D01*
X0123375Y0102376D01*
X0120225Y0102376D02*
X0120200Y0102676D01*
X0119800Y0103076D01*
X0119800Y0117476D01*
X0119934Y0117866D01*
X0119400Y0117476D01*
X0117400Y0117476D01*
X0115000Y0119876D01*
X0113000Y0110276D02*
X0113000Y0105476D01*
X0113800Y0104676D01*
X0113800Y0102676D01*
X0113926Y0102376D01*
X0111000Y0102676D02*
X0111000Y0105476D01*
X0111400Y0105876D01*
X0111400Y0107876D01*
X0107000Y0112276D01*
X0116200Y0107476D02*
X0116200Y0105476D01*
X0117000Y0104676D01*
X0117000Y0102676D01*
X0117076Y0102376D01*
X0111000Y0102676D02*
X0110776Y0102376D01*
X0101000Y0099876D02*
X0101000Y0095076D01*
X0102600Y0093476D01*
X0104600Y0093476D01*
X0104900Y0093350D01*
X0104900Y0077602D02*
X0104600Y0077476D01*
X0093800Y0077476D01*
X0091400Y0075076D01*
X0085800Y0075076D01*
X0083000Y0077876D01*
X0083000Y0082276D01*
X0082200Y0083076D01*
X0081919Y0083325D01*
X0084200Y0073076D02*
X0082200Y0071076D01*
X0081919Y0070726D01*
X0084200Y0073076D02*
X0087000Y0073076D01*
X0087400Y0073476D01*
X0092200Y0073476D01*
X0093800Y0075076D01*
X0101400Y0075076D01*
X0101800Y0074676D01*
X0104600Y0074676D01*
X0104900Y0074453D01*
X0123000Y0073476D02*
X0123000Y0068676D01*
X0123375Y0068576D01*
X0126524Y0068576D02*
X0126600Y0068276D01*
X0126600Y0066276D01*
X0129400Y0063476D01*
X0129674Y0068576D02*
X0129800Y0068676D01*
X0129800Y0073476D01*
X0133800Y0074276D02*
X0134600Y0075076D01*
X0135400Y0075076D01*
X0135800Y0074676D01*
X0138600Y0074676D01*
X0138700Y0074453D01*
X0136600Y0069876D02*
X0135400Y0068676D01*
X0133000Y0068676D01*
X0132824Y0068576D01*
X0124200Y0108676D02*
X0125800Y0110276D01*
X0125800Y0128276D01*
X0113000Y0141076D01*
X0113000Y0160276D01*
X0112646Y0160476D01*
X0113000Y0160676D01*
X0113000Y0165076D01*
X0124600Y0176676D01*
X0124600Y0195876D01*
X0120600Y0199876D01*
X0085800Y0199876D01*
X0078200Y0192276D01*
X0078200Y0191476D01*
X0077863Y0191205D01*
X0091000Y0184276D02*
X0092200Y0183076D01*
X0092200Y0179476D01*
X0087200Y0174476D01*
X0087800Y0173876D01*
X0087200Y0174476D02*
X0087000Y0174276D01*
X0063000Y0174276D01*
X0055000Y0166276D01*
X0055000Y0160676D01*
X0051800Y0157476D01*
X0051800Y0157130D01*
X0046600Y0151076D02*
X0017000Y0180676D01*
X0016800Y0180476D01*
X0017000Y0180676D02*
X0017000Y0186676D01*
X0020200Y0189876D01*
X0020200Y0193076D01*
X0027000Y0199876D01*
X0029400Y0199876D01*
X0037800Y0191476D01*
X0037863Y0191205D01*
X0041400Y0184276D02*
X0048200Y0191076D01*
X0047863Y0191205D01*
X0041400Y0184276D02*
X0041400Y0183876D01*
X0042200Y0183076D01*
X0042200Y0179476D01*
X0041400Y0178676D01*
X0041400Y0178276D01*
X0043000Y0176676D01*
X0043000Y0171876D01*
X0045000Y0163876D02*
X0027800Y0181076D01*
X0027863Y0181205D01*
X0045000Y0163876D02*
X0051800Y0163876D01*
X0051800Y0163823D01*
X0057000Y0158676D02*
X0058200Y0157476D01*
X0061800Y0157476D01*
X0061800Y0157130D01*
X0066200Y0160676D02*
X0063400Y0163476D01*
X0061800Y0163476D01*
X0061800Y0163823D01*
X0070600Y0157076D02*
X0070776Y0157130D01*
X0070600Y0157076D02*
X0070600Y0153076D01*
X0068600Y0151076D01*
X0068600Y0150676D01*
X0068600Y0151076D02*
X0046600Y0151076D01*
X0077000Y0157476D02*
X0081800Y0157476D01*
X0081800Y0157130D01*
X0077000Y0161876D02*
X0078600Y0163476D01*
X0081800Y0163476D01*
X0081800Y0163823D01*
X0087000Y0163876D02*
X0091800Y0163876D01*
X0091800Y0163823D01*
X0091000Y0184276D02*
X0093000Y0186276D01*
X0093000Y0186676D01*
X0097800Y0191476D01*
X0097863Y0191205D01*
X0135400Y0023076D02*
X0135146Y0022976D01*
X0162800Y0022876D02*
X0166600Y0019076D01*
X0166750Y0018961D01*
M02*
