G75*
%MOIN*%
%OFA0B0*%
%FSLAX24Y24*%
%IPPOS*%
%LPD*%
%AMOC8*
5,1,8,0,0,1.08239X$1,22.5*
%
%ADD10C,0.0000*%
%ADD11R,0.0630X0.0551*%
%ADD12R,0.0433X0.0394*%
%ADD13R,0.0787X0.0512*%
%ADD14OC8,0.0850*%
%ADD15C,0.0600*%
%ADD16R,0.0394X0.0433*%
%ADD17R,0.0217X0.0472*%
%ADD18C,0.0520*%
%ADD19R,0.0748X0.0512*%
%ADD20R,0.0112X0.0276*%
%ADD21R,0.0673X0.0157*%
%ADD22R,0.0575X0.0787*%
%ADD23R,0.0984X0.0541*%
%ADD24C,0.0160*%
%ADD25R,0.0500X0.0500*%
%ADD26C,0.0705*%
%ADD27C,0.0560*%
%ADD28C,0.0240*%
%ADD29C,0.0280*%
%ADD30C,0.0120*%
%ADD31C,0.0080*%
%ADD32C,0.0860*%
%ADD33C,0.1660*%
%ADD34C,0.0100*%
D10*
X000180Y000180D02*
X000180Y019865D01*
X019865Y019865D01*
X019865Y000180D01*
X000180Y000180D01*
D11*
X018288Y013535D03*
X018288Y014638D03*
D12*
X018144Y016072D03*
X018813Y016072D03*
X018813Y016885D03*
X018144Y016885D03*
X013462Y008930D03*
X012792Y008930D03*
X011834Y008940D03*
X011164Y008940D03*
X011462Y007907D03*
X010792Y007907D03*
X007434Y003765D03*
X007434Y003095D03*
X003091Y010120D03*
X002421Y010120D03*
X003629Y012451D03*
X004298Y012451D03*
X008679Y014262D03*
X009349Y014262D03*
X009754Y013006D03*
X009754Y012337D03*
X008886Y012337D03*
X008886Y013006D03*
X009898Y016937D03*
X009898Y017606D03*
X016309Y005890D03*
X016309Y005220D03*
D13*
X017163Y012763D03*
X017163Y013550D03*
X017163Y014337D03*
X017163Y015125D03*
X017163Y015912D03*
X017163Y016700D03*
X017163Y017487D03*
X017163Y018274D03*
X010864Y018274D03*
X010864Y017487D03*
X010864Y016700D03*
X010864Y015912D03*
X010864Y015125D03*
X010864Y014337D03*
X010864Y013550D03*
X010864Y012763D03*
D14*
X009817Y010961D03*
X008817Y010961D03*
X007817Y010961D03*
X006816Y010961D03*
X005796Y010961D03*
X008358Y005838D03*
X009358Y005838D03*
X004943Y005805D03*
X018642Y002490D03*
X018645Y003674D03*
X017192Y019270D03*
D15*
X001480Y011006D02*
X000880Y011006D01*
X000880Y010006D02*
X001480Y010006D01*
X001480Y009006D02*
X000880Y009006D01*
X000880Y008006D02*
X001480Y008006D01*
X001480Y007006D02*
X000880Y007006D01*
X000880Y006006D02*
X001480Y006006D01*
X002625Y002301D02*
X002625Y001701D01*
X003625Y001701D02*
X003625Y002301D01*
X004625Y002301D02*
X004625Y001701D01*
X005615Y001728D02*
X005615Y002328D01*
X006615Y002328D02*
X006615Y001728D01*
X007615Y001728D02*
X007615Y002328D01*
X008615Y002328D02*
X008615Y001728D01*
X009615Y001728D02*
X009615Y002328D01*
X010615Y002328D02*
X010615Y001728D01*
X011615Y001728D02*
X011615Y002328D01*
X012615Y002328D02*
X012615Y001728D01*
D16*
X011184Y004323D03*
X011184Y004992D03*
X014434Y004992D03*
X014434Y004323D03*
X017309Y005220D03*
X017309Y005890D03*
X004519Y003111D03*
X003849Y003111D03*
X003075Y003111D03*
X002405Y003111D03*
X002421Y008317D03*
X003091Y008317D03*
X003091Y009218D03*
X002421Y009218D03*
X002421Y011005D03*
X003091Y011005D03*
D17*
X003605Y013211D03*
X003979Y013211D03*
X004353Y013211D03*
X004353Y014235D03*
X003605Y014235D03*
D18*
X004752Y010190D02*
X004752Y009670D01*
X005752Y009670D02*
X005752Y010190D01*
X006752Y010190D02*
X006752Y009670D01*
X007752Y009670D02*
X007752Y010190D01*
X008752Y010190D02*
X008752Y009670D01*
X009752Y009670D02*
X009752Y010190D01*
X010752Y010190D02*
X010752Y009670D01*
X011752Y009670D02*
X011752Y010190D01*
X012752Y010190D02*
X012752Y009670D01*
X013752Y009670D02*
X013752Y010190D01*
X014752Y010190D02*
X014752Y009670D01*
X015752Y009670D02*
X015752Y010190D01*
X016752Y010190D02*
X016752Y009670D01*
X017752Y009670D02*
X017752Y010190D01*
X017752Y007190D02*
X017752Y006670D01*
X016752Y006670D02*
X016752Y007190D01*
X015752Y007190D02*
X015752Y006670D01*
X014752Y006670D02*
X014752Y007190D01*
X013752Y007190D02*
X013752Y006670D01*
X012752Y006670D02*
X012752Y007190D01*
X011752Y007190D02*
X011752Y006670D01*
X010752Y006670D02*
X010752Y007190D01*
X009752Y007190D02*
X009752Y006670D01*
X008752Y006670D02*
X008752Y007190D01*
X007752Y007190D02*
X007752Y006670D01*
X006752Y006670D02*
X006752Y007190D01*
X005752Y007190D02*
X005752Y006670D01*
X004752Y006670D02*
X004752Y007190D01*
D19*
X012179Y005763D03*
X013439Y005763D03*
X013439Y003597D03*
X012179Y003597D03*
D20*
X005868Y013230D03*
X005671Y013230D03*
X005475Y013230D03*
X005475Y013880D03*
X005671Y013880D03*
X005868Y013880D03*
D21*
X002556Y014244D03*
X002556Y014500D03*
X002556Y014756D03*
X002556Y015012D03*
X002556Y015268D03*
D22*
X002607Y015898D03*
X002607Y013614D03*
D23*
X000970Y014387D03*
X000970Y015125D03*
D24*
X001025Y015079D02*
X002080Y015079D01*
X002080Y015103D02*
X002080Y014437D01*
X002075Y014433D01*
X002052Y014392D01*
X002040Y014346D01*
X002040Y014244D01*
X002040Y014142D01*
X002052Y014096D01*
X002059Y014084D01*
X001639Y014084D01*
X001642Y014092D01*
X001642Y014331D01*
X001025Y014331D01*
X001025Y014442D01*
X001642Y014442D01*
X001642Y014681D01*
X001629Y014727D01*
X001613Y014756D01*
X001629Y014785D01*
X001642Y014831D01*
X001642Y015070D01*
X001025Y015070D01*
X001025Y015180D01*
X001642Y015180D01*
X001642Y015419D01*
X001641Y015421D01*
X002068Y015421D01*
X002060Y015413D01*
X002060Y015123D01*
X002080Y015103D01*
X002060Y015238D02*
X001642Y015238D01*
X001642Y015396D02*
X002060Y015396D01*
X002137Y015641D02*
X001027Y015641D01*
X001027Y016062D01*
X000495Y016062D01*
X000497Y016457D01*
X001127Y016457D01*
X001125Y016458D01*
X002137Y016458D01*
X002137Y015641D01*
X002137Y015713D02*
X001027Y015713D01*
X001027Y015872D02*
X002137Y015872D01*
X002137Y016030D02*
X001027Y016030D01*
X000496Y016189D02*
X002137Y016189D01*
X002137Y016347D02*
X000496Y016347D01*
X000360Y016631D02*
X000360Y018304D01*
X000482Y018183D01*
X000838Y018035D01*
X001224Y018035D01*
X001580Y018183D01*
X001853Y018455D01*
X002001Y018812D01*
X002001Y019198D01*
X001853Y019554D01*
X001722Y019685D01*
X016789Y019685D01*
X016777Y019677D01*
X016734Y019611D01*
X016627Y019504D01*
X016627Y019418D01*
X016600Y019353D01*
X016600Y018370D01*
X016585Y018218D01*
X016600Y018168D01*
X016600Y018167D01*
X016602Y018163D01*
X016630Y018070D01*
X016630Y017961D01*
X016687Y017903D01*
X016659Y017887D01*
X016626Y017854D01*
X016602Y017812D01*
X016590Y017767D01*
X016590Y017535D01*
X017115Y017535D01*
X017115Y017439D01*
X016590Y017439D01*
X016590Y017207D01*
X016602Y017162D01*
X016626Y017121D01*
X016659Y017087D01*
X016687Y017071D01*
X016630Y017014D01*
X016630Y016512D01*
X015950Y015833D01*
X015950Y014948D01*
X015930Y014927D01*
X015890Y014832D01*
X015890Y014728D01*
X015930Y014633D01*
X016003Y014560D01*
X016008Y014557D01*
X015904Y014454D01*
X015837Y014520D01*
X015742Y014560D01*
X015734Y014560D01*
X012292Y018681D01*
X012292Y018732D01*
X012252Y018827D01*
X012179Y018900D01*
X012084Y018940D01*
X011980Y018940D01*
X011885Y018900D01*
X011811Y018827D01*
X011772Y018732D01*
X011772Y018628D01*
X011811Y018533D01*
X011885Y018460D01*
X011980Y018420D01*
X011988Y018420D01*
X015430Y014299D01*
X015430Y014248D01*
X015470Y014153D01*
X015537Y014086D01*
X014329Y012879D01*
X014257Y012950D01*
X014162Y012990D01*
X014133Y012990D01*
X011398Y015725D01*
X011398Y016226D01*
X011318Y016306D01*
X011398Y016386D01*
X011398Y017014D01*
X011340Y017071D01*
X011368Y017087D01*
X011402Y017121D01*
X011426Y017162D01*
X011438Y017207D01*
X011438Y017439D01*
X010912Y017439D01*
X010912Y017535D01*
X010816Y017535D01*
X010816Y017439D01*
X010291Y017439D01*
X010291Y017207D01*
X010303Y017162D01*
X010321Y017130D01*
X010254Y017130D01*
X010254Y017192D01*
X010175Y017271D01*
X010254Y017351D01*
X010254Y017861D01*
X010172Y017943D01*
X010100Y017943D01*
X010100Y018498D01*
X010135Y018533D01*
X010175Y018628D01*
X010175Y018732D01*
X010135Y018827D01*
X010062Y018900D01*
X009967Y018940D01*
X009863Y018940D01*
X009768Y018900D01*
X009694Y018827D01*
X009655Y018732D01*
X009655Y018628D01*
X009694Y018533D01*
X009700Y018527D01*
X009700Y017943D01*
X009623Y017943D01*
X009541Y017861D01*
X009541Y017351D01*
X009621Y017271D01*
X009541Y017192D01*
X009541Y016682D01*
X009623Y016600D01*
X010172Y016600D01*
X010254Y016682D01*
X010254Y016730D01*
X010331Y016730D01*
X010331Y016386D01*
X010410Y016306D01*
X010331Y016226D01*
X010331Y015598D01*
X010410Y015519D01*
X010331Y015439D01*
X010331Y014811D01*
X010410Y014731D01*
X010331Y014651D01*
X010331Y014024D01*
X010410Y013944D01*
X010331Y013864D01*
X010331Y013236D01*
X010388Y013179D01*
X010360Y013163D01*
X010326Y013129D01*
X010303Y013088D01*
X010291Y013042D01*
X010291Y012811D01*
X010816Y012811D01*
X010816Y013154D01*
X010912Y013154D01*
X010912Y012811D01*
X010816Y012811D01*
X010816Y012715D01*
X010365Y012715D01*
X010130Y012949D01*
X010130Y013269D01*
X010055Y013345D01*
X010064Y013450D01*
X010068Y013460D01*
X010068Y013497D01*
X010071Y013534D01*
X010068Y013545D01*
X010068Y014334D01*
X010083Y014348D01*
X010128Y014458D01*
X010128Y014577D01*
X010083Y014688D01*
X009998Y014772D01*
X009888Y014818D01*
X009769Y014818D01*
X009658Y014772D01*
X009574Y014688D01*
X009554Y014639D01*
X009367Y014639D01*
X009367Y014281D01*
X009330Y014281D01*
X009330Y014639D01*
X009108Y014639D01*
X009063Y014627D01*
X009022Y014603D01*
X009000Y014582D01*
X008962Y014619D01*
X008920Y014619D01*
X008920Y014962D01*
X008925Y014981D01*
X008920Y015009D01*
X008920Y015038D01*
X008913Y015056D01*
X008909Y015080D01*
X009216Y015080D01*
X009230Y015066D01*
X009340Y015020D01*
X009460Y015020D01*
X009570Y015066D01*
X009654Y015150D01*
X009700Y015260D01*
X009700Y015380D01*
X009654Y015490D01*
X009570Y015574D01*
X009460Y015620D01*
X009340Y015620D01*
X009230Y015574D01*
X009216Y015560D01*
X007190Y015560D01*
X006706Y016043D01*
X006785Y016069D01*
X006860Y016107D01*
X006928Y016156D01*
X006987Y016215D01*
X007036Y016283D01*
X007074Y016358D01*
X007100Y016438D01*
X007113Y016520D01*
X007113Y016877D01*
X006618Y016877D01*
X006618Y016952D01*
X007113Y016952D01*
X007113Y017251D01*
X007450Y016800D01*
X007457Y016784D01*
X007478Y016763D01*
X007496Y016738D01*
X007512Y016729D01*
X007524Y016717D01*
X007552Y016705D01*
X007579Y016689D01*
X007596Y016687D01*
X007612Y016680D01*
X007643Y016680D01*
X007673Y016676D01*
X007690Y016680D01*
X008037Y016680D01*
X008037Y016460D01*
X008115Y016272D01*
X008259Y016128D01*
X008447Y016050D01*
X008651Y016050D01*
X008840Y016128D01*
X008984Y016272D01*
X009062Y016460D01*
X009062Y017369D01*
X008984Y017558D01*
X008840Y017702D01*
X008651Y017780D01*
X008447Y017780D01*
X008259Y017702D01*
X008115Y017558D01*
X008037Y017369D01*
X008037Y017160D01*
X007780Y017160D01*
X007135Y018024D01*
X007128Y018040D01*
X007107Y018062D01*
X007088Y018086D01*
X007073Y018095D01*
X007061Y018108D01*
X007032Y018120D01*
X007006Y018135D01*
X006989Y018138D01*
X006972Y018144D01*
X006942Y018144D01*
X006912Y018149D01*
X006895Y018144D01*
X004584Y018144D01*
X004570Y018159D01*
X004460Y018204D01*
X004340Y018204D01*
X004230Y018159D01*
X004146Y018074D01*
X004100Y017964D01*
X004100Y017845D01*
X004146Y017735D01*
X004230Y017650D01*
X004259Y017638D01*
X004178Y017558D01*
X004100Y017369D01*
X004100Y016460D01*
X004178Y016272D01*
X004322Y016128D01*
X004510Y016050D01*
X004714Y016050D01*
X004903Y016128D01*
X005047Y016272D01*
X005125Y016460D01*
X005125Y016650D01*
X005421Y016650D01*
X006758Y015313D01*
X005679Y015314D01*
X005654Y015376D01*
X005586Y015443D01*
X005316Y015713D01*
X005228Y015750D01*
X004532Y015750D01*
X004444Y015713D01*
X003420Y015713D01*
X003420Y015555D02*
X004285Y015555D01*
X004377Y015646D02*
X004157Y015426D01*
X004120Y015338D01*
X004120Y015042D01*
X004045Y015118D01*
X003934Y015163D01*
X003815Y015163D01*
X003705Y015118D01*
X003620Y015033D01*
X003575Y014923D01*
X003575Y014804D01*
X003620Y014693D01*
X003636Y014678D01*
X003636Y014611D01*
X003439Y014611D01*
X003357Y014529D01*
X003357Y013941D01*
X003439Y013859D01*
X003466Y013859D01*
X003460Y013841D01*
X003447Y013822D01*
X003443Y013797D01*
X003434Y013774D01*
X003434Y013750D01*
X003404Y013581D01*
X003386Y013563D01*
X003346Y013580D01*
X003234Y013580D01*
X003132Y013537D01*
X003075Y013481D01*
X003075Y013550D01*
X002671Y013550D01*
X002671Y013053D01*
X002640Y013040D01*
X002357Y013040D01*
X002357Y013040D01*
X002544Y013040D01*
X002544Y013550D01*
X002671Y013550D01*
X002671Y013678D01*
X002544Y013678D01*
X002544Y013985D01*
X002556Y013985D01*
X002556Y014244D01*
X002556Y014244D01*
X002040Y014244D01*
X002556Y014244D01*
X002556Y014244D01*
X002556Y013985D01*
X002671Y013985D01*
X002671Y013678D01*
X003075Y013678D01*
X003075Y014031D01*
X003062Y014077D01*
X003056Y014088D01*
X003060Y014096D01*
X003073Y014142D01*
X003073Y014244D01*
X003073Y014346D01*
X003060Y014392D01*
X003037Y014433D01*
X003033Y014437D01*
X003033Y014984D01*
X003074Y014967D01*
X003193Y014967D01*
X003304Y015013D01*
X003388Y015097D01*
X003434Y015208D01*
X003434Y015327D01*
X003418Y015366D01*
X003420Y015372D01*
X003420Y015405D01*
X003424Y015438D01*
X003420Y015452D01*
X003420Y016500D01*
X003434Y016515D01*
X003480Y016625D01*
X003480Y016744D01*
X003434Y016854D01*
X003350Y016939D01*
X003240Y016984D01*
X003120Y016984D01*
X003010Y016939D01*
X002926Y016854D01*
X002880Y016744D01*
X002880Y016625D01*
X002926Y016515D01*
X002940Y016500D01*
X002940Y016465D01*
X002918Y016471D01*
X002671Y016471D01*
X002671Y015961D01*
X002544Y015961D01*
X002544Y016471D01*
X002357Y016471D01*
X002357Y016549D01*
X002228Y016678D01*
X001181Y016678D01*
X001150Y016694D01*
X001093Y016678D01*
X001034Y016678D01*
X001033Y016677D01*
X000497Y016677D01*
X000407Y016677D01*
X000406Y016677D01*
X000360Y016631D01*
X000360Y016664D02*
X000393Y016664D01*
X000406Y016677D02*
X000406Y016677D01*
X000360Y016823D02*
X002913Y016823D01*
X002880Y016664D02*
X002242Y016664D01*
X002357Y016506D02*
X002935Y016506D01*
X003180Y016684D02*
X003180Y015420D01*
X003170Y015340D01*
X003134Y015267D01*
X002584Y015267D01*
X002556Y015268D01*
X002080Y014921D02*
X001642Y014921D01*
X001616Y014762D02*
X002080Y014762D01*
X002080Y014604D02*
X001642Y014604D01*
X001642Y014445D02*
X002080Y014445D01*
X002040Y014287D02*
X001642Y014287D01*
X001642Y014128D02*
X002043Y014128D01*
X002137Y013864D02*
X001027Y013864D01*
X001027Y013443D01*
X000495Y013443D01*
X000493Y013046D01*
X001123Y013046D01*
X001125Y013047D01*
X002137Y013047D01*
X002137Y013864D01*
X002137Y013811D02*
X001027Y013811D01*
X001027Y013653D02*
X002137Y013653D01*
X002137Y013494D02*
X001027Y013494D01*
X000495Y013336D02*
X002137Y013336D01*
X002137Y013177D02*
X000494Y013177D01*
X001627Y012068D02*
X003104Y012068D01*
X003119Y012103D02*
X003073Y011992D01*
X003073Y011972D01*
X002482Y011381D01*
X002158Y011381D01*
X002064Y011288D01*
X002064Y010974D01*
X001857Y010767D01*
X001920Y010918D01*
X001920Y011093D01*
X001853Y011255D01*
X001729Y011379D01*
X001568Y011446D01*
X001005Y011446D01*
X002120Y012560D01*
X002634Y012560D01*
X002733Y012519D01*
X002845Y012519D01*
X002948Y012561D01*
X003026Y012640D01*
X003069Y012743D01*
X003069Y012854D01*
X003026Y012957D01*
X002948Y013036D01*
X002930Y013043D01*
X002964Y013053D01*
X003005Y013076D01*
X003039Y013110D01*
X003055Y013139D01*
X003132Y013063D01*
X003234Y013020D01*
X003337Y013020D01*
X003337Y012909D01*
X003419Y012828D01*
X003389Y012828D01*
X003343Y012815D01*
X003302Y012792D01*
X003268Y012758D01*
X003245Y012717D01*
X003232Y012671D01*
X003232Y012469D01*
X003611Y012469D01*
X003611Y012432D01*
X003647Y012432D01*
X003647Y012074D01*
X003869Y012074D01*
X003915Y012086D01*
X003956Y012110D01*
X003978Y012132D01*
X004015Y012094D01*
X004165Y012094D01*
X004123Y011992D01*
X004123Y011873D01*
X004169Y011763D01*
X004253Y011678D01*
X004363Y011633D01*
X004483Y011633D01*
X004593Y011678D01*
X004677Y011763D01*
X004723Y011873D01*
X004723Y011893D01*
X005039Y012210D01*
X005074Y012244D01*
X005092Y012287D01*
X005110Y012332D01*
X005110Y012332D01*
X005110Y012332D01*
X005110Y012380D01*
X005110Y013330D01*
X005195Y013295D01*
X005278Y013295D01*
X005278Y013034D01*
X005360Y012952D01*
X005501Y012952D01*
X005505Y012948D01*
X005546Y012924D01*
X005592Y012912D01*
X005671Y012912D01*
X005671Y013230D01*
X005671Y013548D01*
X005592Y013548D01*
X005546Y013535D01*
X005531Y013527D01*
X005531Y013562D01*
X005554Y013562D01*
X005600Y013574D01*
X005613Y013582D01*
X005794Y013582D01*
X005814Y013602D01*
X005817Y013602D01*
X005796Y013580D01*
X005761Y013545D01*
X005751Y013548D01*
X005671Y013548D01*
X005671Y013230D01*
X005671Y013230D01*
X005671Y013230D01*
X005671Y012912D01*
X005729Y012912D01*
X005731Y012909D01*
X005742Y011526D01*
X005562Y011526D01*
X005231Y011195D01*
X005231Y010726D01*
X005267Y010691D01*
X005042Y010466D01*
X004979Y010529D01*
X004832Y010590D01*
X004672Y010590D01*
X004525Y010529D01*
X004413Y010417D01*
X004352Y010270D01*
X004352Y009590D01*
X004413Y009443D01*
X004525Y009331D01*
X004672Y009270D01*
X004832Y009270D01*
X004979Y009331D01*
X005091Y009443D01*
X005152Y009590D01*
X005152Y010067D01*
X005352Y010267D01*
X005352Y009590D01*
X005413Y009443D01*
X005525Y009331D01*
X005672Y009270D01*
X005832Y009270D01*
X005979Y009331D01*
X006091Y009443D01*
X006152Y009590D01*
X006152Y010039D01*
X006352Y010239D01*
X006352Y009590D01*
X006413Y009443D01*
X006525Y009331D01*
X006672Y009270D01*
X006832Y009270D01*
X006979Y009331D01*
X007091Y009443D01*
X007152Y009590D01*
X007152Y010019D01*
X007352Y010219D01*
X007352Y009590D01*
X007413Y009443D01*
X007525Y009331D01*
X007672Y009270D01*
X007832Y009270D01*
X007979Y009331D01*
X008091Y009443D01*
X008152Y009590D01*
X008152Y010019D01*
X008352Y010219D01*
X008352Y009590D01*
X008413Y009443D01*
X008525Y009331D01*
X008672Y009270D01*
X008832Y009270D01*
X008979Y009331D01*
X009091Y009443D01*
X009152Y009590D01*
X009152Y010019D01*
X009352Y010219D01*
X009352Y009590D01*
X009413Y009443D01*
X009525Y009331D01*
X009550Y009321D01*
X009550Y008843D01*
X008101Y007393D01*
X008091Y007417D01*
X007979Y007529D01*
X007832Y007590D01*
X007672Y007590D01*
X007525Y007529D01*
X007413Y007417D01*
X007352Y007270D01*
X007352Y006985D01*
X007152Y006785D01*
X007152Y007270D01*
X007091Y007417D01*
X006979Y007529D01*
X006832Y007590D01*
X006672Y007590D01*
X006525Y007529D01*
X006480Y007483D01*
X005973Y007990D01*
X004567Y007990D01*
X004570Y007998D01*
X004570Y008102D01*
X004531Y008197D01*
X004510Y008218D01*
X004510Y008703D01*
X004393Y008820D01*
X003398Y009815D01*
X003447Y009865D01*
X003447Y010375D01*
X003365Y010457D01*
X003290Y010457D01*
X003290Y010648D01*
X003345Y010648D01*
X003427Y010730D01*
X003427Y011279D01*
X003345Y011361D01*
X003141Y011361D01*
X003412Y011633D01*
X003433Y011633D01*
X003543Y011678D01*
X003627Y011763D01*
X003673Y011873D01*
X003673Y011992D01*
X003627Y012103D01*
X003611Y012119D01*
X003611Y012432D01*
X003232Y012432D01*
X003232Y012230D01*
X003240Y012202D01*
X003203Y012187D01*
X003119Y012103D01*
X003234Y012226D02*
X001786Y012226D01*
X001944Y012385D02*
X003232Y012385D01*
X003232Y012543D02*
X002903Y012543D01*
X003052Y012702D02*
X003241Y012702D01*
X003264Y012812D02*
X002484Y013592D01*
X002544Y013550D02*
X002357Y013550D01*
X002357Y013678D01*
X002544Y013678D01*
X002544Y013550D01*
X002544Y013494D02*
X002671Y013494D01*
X002671Y013336D02*
X002544Y013336D01*
X002544Y013177D02*
X002671Y013177D01*
X002965Y013019D02*
X003337Y013019D01*
X003386Y012860D02*
X003067Y012860D01*
X003264Y012812D02*
X003361Y012779D01*
X003850Y012779D01*
X003950Y012795D02*
X003979Y012795D01*
X003979Y013211D01*
X003979Y013211D01*
X003979Y012795D01*
X004003Y012795D01*
X003978Y012770D01*
X003956Y012792D01*
X003950Y012795D01*
X003979Y012860D02*
X003979Y012860D01*
X003979Y012939D02*
X003752Y012595D01*
X003629Y012451D01*
X003611Y012385D02*
X003647Y012385D01*
X003647Y012226D02*
X003611Y012226D01*
X003642Y012068D02*
X004154Y012068D01*
X004123Y011909D02*
X003673Y011909D01*
X003615Y011751D02*
X004181Y011751D01*
X004423Y011933D02*
X004870Y012380D01*
X004870Y013575D01*
X005251Y013575D02*
X005250Y013650D01*
X005250Y014080D01*
X005350Y014180D01*
X005673Y014181D01*
X006230Y014180D01*
X006770Y013640D01*
X007500Y013640D01*
X007580Y013609D01*
X007580Y013600D01*
X008170Y013010D01*
X008810Y013010D01*
X008886Y013006D01*
X008890Y013010D01*
X009750Y013010D01*
X009754Y013006D01*
X009800Y012940D01*
X011620Y011120D01*
X011620Y011050D01*
X011819Y011275D02*
X012531Y011275D01*
X012560Y011304D02*
X012476Y011220D01*
X012430Y011110D01*
X012430Y010990D01*
X012476Y010880D01*
X012560Y010796D01*
X012560Y010565D01*
X012514Y010546D01*
X012396Y010428D01*
X012332Y010274D01*
X012332Y009586D01*
X012396Y009432D01*
X012514Y009314D01*
X012550Y009299D01*
X012550Y009287D01*
X012510Y009287D01*
X012416Y009193D01*
X012416Y008925D01*
X012311Y008820D01*
X012210Y008820D01*
X012210Y009203D01*
X012117Y009297D01*
X012070Y009297D01*
X012070Y009394D01*
X012108Y009432D01*
X012172Y009586D01*
X012172Y010274D01*
X012108Y010428D01*
X011990Y010546D01*
X011836Y010610D01*
X011668Y010610D01*
X011514Y010546D01*
X011396Y010428D01*
X011332Y010274D01*
X011332Y009586D01*
X011396Y009432D01*
X011514Y009314D01*
X011556Y009297D01*
X011551Y009297D01*
X011513Y009259D01*
X011491Y009281D01*
X011450Y009304D01*
X011405Y009317D01*
X011183Y009317D01*
X011183Y008958D01*
X011146Y008958D01*
X011146Y008921D01*
X010768Y008921D01*
X010768Y008719D01*
X010780Y008674D01*
X010804Y008632D01*
X010837Y008599D01*
X010878Y008575D01*
X010924Y008563D01*
X011134Y008563D01*
X010835Y008264D01*
X010510Y008264D01*
X010416Y008170D01*
X010416Y007644D01*
X010510Y007551D01*
X010525Y007551D01*
X010514Y007546D01*
X010396Y007428D01*
X010332Y007274D01*
X010332Y006586D01*
X010396Y006432D01*
X010514Y006314D01*
X010668Y006250D01*
X010836Y006250D01*
X010990Y006314D01*
X011108Y006432D01*
X011172Y006586D01*
X011172Y007274D01*
X011108Y007428D01*
X011030Y007506D01*
X011030Y007551D01*
X011075Y007551D01*
X011113Y007588D01*
X011135Y007566D01*
X011176Y007543D01*
X011221Y007531D01*
X011443Y007531D01*
X011443Y007889D01*
X011480Y007889D01*
X011480Y007536D01*
X011465Y007526D01*
X011416Y007477D01*
X011376Y007421D01*
X011344Y007359D01*
X011323Y007293D01*
X011312Y007225D01*
X011312Y006930D01*
X011752Y006930D01*
X011752Y006930D01*
X011312Y006930D01*
X011312Y006635D01*
X011323Y006567D01*
X011344Y006501D01*
X011376Y006439D01*
X011416Y006383D01*
X011465Y006334D01*
X011521Y006294D01*
X011568Y006270D01*
X009817Y004520D01*
X009625Y004520D01*
X009625Y004626D01*
X009543Y004708D01*
X008927Y004708D01*
X008845Y004626D01*
X008845Y003970D01*
X007791Y003970D01*
X007791Y004019D01*
X007709Y004101D01*
X007160Y004101D01*
X007078Y004019D01*
X007078Y003510D01*
X007157Y003430D01*
X007078Y003350D01*
X005283Y003350D01*
X005125Y003192D02*
X007078Y003192D01*
X007078Y003350D02*
X007078Y002841D01*
X007160Y002759D01*
X007402Y002759D01*
X007364Y002739D01*
X007303Y002695D01*
X007249Y002641D01*
X007205Y002580D01*
X007170Y002513D01*
X007147Y002441D01*
X007135Y002366D01*
X007135Y002048D01*
X007595Y002048D01*
X007595Y002008D01*
X007135Y002008D01*
X007135Y001894D01*
X007075Y001954D01*
X007075Y002420D01*
X007005Y002589D01*
X006876Y002718D01*
X006707Y002788D01*
X006524Y002788D01*
X006355Y002718D01*
X006225Y002589D01*
X006155Y002420D01*
X006155Y001637D01*
X006225Y001468D01*
X006355Y001338D01*
X006524Y001268D01*
X006707Y001268D01*
X006876Y001338D01*
X006944Y001407D01*
X007447Y000904D01*
X007514Y000837D01*
X007602Y000800D01*
X016098Y000800D01*
X016113Y000796D01*
X016145Y000800D01*
X016178Y000800D01*
X016192Y000806D01*
X016208Y000808D01*
X016236Y000824D01*
X016266Y000837D01*
X016270Y000840D01*
X016558Y000840D01*
X016646Y000877D01*
X016714Y000944D01*
X017754Y001984D01*
X017790Y002072D01*
X017790Y002131D01*
X018037Y002377D01*
X018037Y002240D01*
X018391Y001885D01*
X018510Y001885D01*
X018460Y001865D01*
X018187Y001592D01*
X018040Y001235D01*
X018040Y000849D01*
X018187Y000493D01*
X018320Y000360D01*
X001732Y000360D01*
X001852Y000481D01*
X002000Y000837D01*
X002000Y001223D01*
X001852Y001579D01*
X001580Y001852D01*
X001223Y002000D01*
X000837Y002000D01*
X000481Y001852D01*
X000360Y001732D01*
X000360Y002778D01*
X000366Y002763D01*
X000490Y002639D01*
X000652Y002572D01*
X001387Y002572D01*
X001549Y002639D01*
X001672Y002763D01*
X001739Y002925D01*
X001739Y003100D01*
X001672Y003261D01*
X001592Y003342D01*
X001876Y003627D01*
X001944Y003694D01*
X001980Y003782D01*
X001980Y004538D01*
X001944Y004626D01*
X001044Y005526D01*
X001160Y005526D01*
X001160Y005986D01*
X001200Y005986D01*
X001200Y005526D01*
X001518Y005526D01*
X001578Y005535D01*
X001570Y005527D01*
X001530Y005432D01*
X001530Y005328D01*
X001570Y005233D01*
X001643Y005160D01*
X001738Y005120D01*
X001842Y005120D01*
X001937Y005160D01*
X002011Y005233D01*
X002050Y005328D01*
X002050Y005432D01*
X002011Y005527D01*
X001990Y005548D01*
X001990Y005607D01*
X002003Y005620D01*
X002120Y005737D01*
X002120Y007343D01*
X001780Y007683D01*
X001853Y007757D01*
X001894Y007856D01*
X002790Y006961D01*
X002790Y003466D01*
X002726Y003402D01*
X002660Y003467D01*
X002151Y003467D01*
X002069Y003385D01*
X002069Y002836D01*
X002151Y002754D01*
X002172Y002754D01*
X002097Y002680D01*
X001980Y002563D01*
X001980Y001437D01*
X002240Y001177D01*
X002357Y001060D01*
X002963Y001060D01*
X003303Y001400D01*
X003376Y001328D01*
X003538Y001261D01*
X003713Y001261D01*
X003874Y001328D01*
X003998Y001452D01*
X004065Y001613D01*
X004065Y002388D01*
X003998Y002550D01*
X003874Y002674D01*
X003777Y002714D01*
X003831Y002714D01*
X003831Y003092D01*
X003868Y003092D01*
X003868Y002714D01*
X004070Y002714D01*
X004116Y002726D01*
X004157Y002750D01*
X004190Y002784D01*
X004206Y002812D01*
X004264Y002754D01*
X004467Y002754D01*
X004441Y002746D01*
X004373Y002711D01*
X004312Y002667D01*
X004259Y002614D01*
X004215Y002552D01*
X004180Y002485D01*
X004157Y002413D01*
X004145Y002339D01*
X004145Y002021D01*
X004605Y002021D01*
X004605Y001981D01*
X004145Y001981D01*
X004145Y001663D01*
X004157Y001588D01*
X004180Y001517D01*
X004215Y001449D01*
X004259Y001388D01*
X004312Y001335D01*
X004373Y001290D01*
X004441Y001256D01*
X004513Y001233D01*
X004587Y001221D01*
X004605Y001221D01*
X004605Y001981D01*
X004645Y001981D01*
X004645Y002021D01*
X005105Y002021D01*
X005105Y002242D01*
X005175Y002172D01*
X005175Y001641D01*
X005242Y001479D01*
X005366Y001355D01*
X005528Y001288D01*
X005703Y001288D01*
X005864Y001355D01*
X005988Y001479D01*
X006055Y001641D01*
X006055Y002416D01*
X005988Y002578D01*
X005864Y002701D01*
X005703Y002768D01*
X005528Y002768D01*
X005366Y002701D01*
X005289Y002624D01*
X004923Y002990D01*
X007793Y005860D01*
X007793Y005604D01*
X008124Y005273D01*
X008592Y005273D01*
X008858Y005539D01*
X009124Y005273D01*
X009592Y005273D01*
X009923Y005604D01*
X009923Y006072D01*
X009899Y006096D01*
X009950Y006147D01*
X009950Y006319D01*
X009979Y006331D01*
X010091Y006443D01*
X010152Y006590D01*
X010152Y007270D01*
X010091Y007417D01*
X009979Y007529D01*
X009832Y007590D01*
X009672Y007590D01*
X009525Y007529D01*
X009413Y007417D01*
X009352Y007270D01*
X009352Y006590D01*
X009413Y006443D01*
X009453Y006403D01*
X009124Y006403D01*
X008950Y006229D01*
X008950Y006319D01*
X008979Y006331D01*
X009091Y006443D01*
X009152Y006590D01*
X009152Y007270D01*
X009091Y007417D01*
X008979Y007529D01*
X008854Y007581D01*
X009950Y008677D01*
X009950Y009319D01*
X009979Y009331D01*
X010091Y009443D01*
X010152Y009590D01*
X010152Y010270D01*
X010091Y010417D01*
X010082Y010426D01*
X010382Y010726D01*
X010382Y011195D01*
X010051Y011526D01*
X009583Y011526D01*
X009317Y011260D01*
X009051Y011526D01*
X008979Y011526D01*
X009466Y012013D01*
X009479Y012000D01*
X010028Y012000D01*
X010110Y012082D01*
X010110Y012290D01*
X011320Y011081D01*
X011320Y010990D01*
X011366Y010880D01*
X011450Y010796D01*
X011560Y010750D01*
X011680Y010750D01*
X011790Y010796D01*
X011874Y010880D01*
X011920Y010990D01*
X011920Y011110D01*
X011874Y011220D01*
X011790Y011304D01*
X011765Y011315D01*
X011756Y011323D01*
X010753Y012327D01*
X010816Y012327D01*
X010816Y012715D01*
X010912Y012715D01*
X010912Y012811D01*
X011438Y012811D01*
X011438Y012969D01*
X012780Y011627D01*
X012780Y011598D01*
X012820Y011503D01*
X012887Y011436D01*
X012798Y011347D01*
X012790Y011350D01*
X012670Y011350D01*
X012560Y011304D01*
X012433Y011117D02*
X011917Y011117D01*
X011907Y010958D02*
X012444Y010958D01*
X012556Y010800D02*
X011794Y010800D01*
X011446Y010800D02*
X010382Y010800D01*
X010382Y010958D02*
X011334Y010958D01*
X011284Y011117D02*
X010382Y011117D01*
X010301Y011275D02*
X011126Y011275D01*
X010967Y011434D02*
X010143Y011434D01*
X010492Y011909D02*
X009362Y011909D01*
X009204Y011751D02*
X010650Y011751D01*
X010809Y011592D02*
X009045Y011592D01*
X009143Y011434D02*
X009491Y011434D01*
X009332Y011275D02*
X009301Y011275D01*
X010096Y012068D02*
X010333Y012068D01*
X010175Y012226D02*
X010110Y012226D01*
X010816Y012385D02*
X010912Y012385D01*
X010912Y012327D02*
X011282Y012327D01*
X011327Y012339D01*
X011368Y012363D01*
X011402Y012396D01*
X011426Y012437D01*
X011438Y012483D01*
X011438Y012715D01*
X010912Y012715D01*
X010912Y012327D01*
X010854Y012226D02*
X012181Y012226D01*
X012023Y012385D02*
X011390Y012385D01*
X011438Y012543D02*
X011864Y012543D01*
X011706Y012702D02*
X011438Y012702D01*
X011438Y012860D02*
X011547Y012860D01*
X010912Y012860D02*
X010816Y012860D01*
X010816Y012702D02*
X010912Y012702D01*
X010912Y012543D02*
X010816Y012543D01*
X010816Y013019D02*
X010912Y013019D01*
X010385Y013177D02*
X010130Y013177D01*
X010130Y013019D02*
X010291Y013019D01*
X010291Y012860D02*
X010220Y012860D01*
X009790Y013080D02*
X009754Y013006D01*
X009790Y013080D02*
X009828Y013508D01*
X009828Y014518D01*
X010117Y014604D02*
X010331Y014604D01*
X010331Y014445D02*
X010123Y014445D01*
X010068Y014287D02*
X010331Y014287D01*
X010331Y014128D02*
X010068Y014128D01*
X010068Y013970D02*
X010385Y013970D01*
X010331Y013811D02*
X010068Y013811D01*
X010068Y013653D02*
X010331Y013653D01*
X010331Y013494D02*
X010068Y013494D01*
X010064Y013336D02*
X010331Y013336D01*
X009574Y013363D02*
X009471Y013363D01*
X009377Y013269D01*
X009377Y013250D01*
X009263Y013250D01*
X009263Y013269D01*
X009169Y013363D01*
X008860Y013363D01*
X008880Y013412D01*
X008880Y013906D01*
X008962Y013906D01*
X009000Y013943D01*
X009022Y013921D01*
X009063Y013898D01*
X009108Y013886D01*
X009330Y013886D01*
X009330Y014244D01*
X009367Y014244D01*
X009367Y013886D01*
X009588Y013886D01*
X009588Y013518D01*
X009574Y013363D01*
X009586Y013494D02*
X008880Y013494D01*
X008880Y013653D02*
X009588Y013653D01*
X009588Y013811D02*
X008880Y013811D01*
X008640Y013460D02*
X008470Y013290D01*
X008640Y013460D02*
X008640Y014190D01*
X008679Y014262D01*
X008680Y014270D01*
X008680Y014990D01*
X008667Y015070D01*
X005464Y015075D01*
X005450Y015150D01*
X005450Y015240D01*
X005180Y015510D01*
X004580Y015510D01*
X004360Y015290D01*
X004360Y014200D01*
X004353Y014235D01*
X004150Y013738D02*
X003880Y013738D01*
X003875Y014863D01*
X004083Y015079D02*
X004120Y015079D01*
X004120Y015238D02*
X003434Y015238D01*
X003420Y015396D02*
X004144Y015396D01*
X004377Y015646D02*
X004444Y015713D01*
X004261Y016189D02*
X003420Y016189D01*
X003420Y016347D02*
X004147Y016347D01*
X004100Y016506D02*
X003425Y016506D01*
X003480Y016664D02*
X004100Y016664D01*
X004100Y016823D02*
X003448Y016823D01*
X003248Y016981D02*
X004100Y016981D01*
X004100Y017140D02*
X000360Y017140D01*
X000360Y017298D02*
X004100Y017298D01*
X004136Y017457D02*
X000360Y017457D01*
X000360Y017615D02*
X004235Y017615D01*
X004130Y017774D02*
X000360Y017774D01*
X000360Y017932D02*
X004100Y017932D01*
X004162Y018091D02*
X001358Y018091D01*
X001647Y018249D02*
X009700Y018249D01*
X009700Y018091D02*
X007081Y018091D01*
X007204Y017932D02*
X009613Y017932D01*
X009541Y017774D02*
X008666Y017774D01*
X008433Y017774D02*
X007322Y017774D01*
X007440Y017615D02*
X008172Y017615D01*
X008073Y017457D02*
X007559Y017457D01*
X007677Y017298D02*
X008037Y017298D01*
X007660Y016920D02*
X006925Y017904D01*
X004400Y017904D01*
X004940Y017664D02*
X006225Y017664D01*
X006175Y017614D01*
X006125Y017546D01*
X006087Y017472D01*
X006061Y017392D01*
X006048Y017309D01*
X006048Y016952D01*
X006543Y016952D01*
X006543Y016877D01*
X006048Y016877D01*
X006048Y016701D01*
X005656Y017093D01*
X005568Y017130D01*
X005125Y017130D01*
X005125Y017369D01*
X005047Y017558D01*
X004940Y017664D01*
X004989Y017615D02*
X006176Y017615D01*
X006082Y017457D02*
X005089Y017457D01*
X005125Y017298D02*
X006048Y017298D01*
X006048Y017140D02*
X005125Y017140D01*
X005520Y016890D02*
X004700Y016890D01*
X004612Y016915D01*
X004620Y016910D01*
X005125Y016506D02*
X005565Y016506D01*
X005724Y016347D02*
X005078Y016347D01*
X004963Y016189D02*
X005882Y016189D01*
X006041Y016030D02*
X003420Y016030D01*
X003420Y015872D02*
X006199Y015872D01*
X006358Y015713D02*
X005317Y015713D01*
X005475Y015555D02*
X006516Y015555D01*
X006675Y015396D02*
X005634Y015396D01*
X005450Y015150D02*
X005450Y015110D01*
X006720Y016030D02*
X010331Y016030D01*
X010331Y015872D02*
X006878Y015872D01*
X007037Y015713D02*
X010331Y015713D01*
X010374Y015555D02*
X009590Y015555D01*
X009693Y015396D02*
X010331Y015396D01*
X010331Y015238D02*
X009691Y015238D01*
X009583Y015079D02*
X010331Y015079D01*
X010331Y014921D02*
X008920Y014921D01*
X008909Y015079D02*
X009217Y015079D01*
X009400Y015320D02*
X007090Y015320D01*
X005520Y016890D01*
X005769Y016981D02*
X006048Y016981D01*
X006048Y016823D02*
X005927Y016823D01*
X006960Y016189D02*
X008198Y016189D01*
X008084Y016347D02*
X007069Y016347D01*
X007111Y016506D02*
X008037Y016506D01*
X008037Y016664D02*
X007113Y016664D01*
X007113Y016823D02*
X007433Y016823D01*
X007315Y016981D02*
X007113Y016981D01*
X007113Y017140D02*
X007197Y017140D01*
X007660Y016920D02*
X008540Y016920D01*
X008549Y016915D01*
X009062Y016981D02*
X009541Y016981D01*
X009541Y016823D02*
X009062Y016823D01*
X009062Y016664D02*
X009559Y016664D01*
X009541Y017140D02*
X009062Y017140D01*
X009062Y017298D02*
X009595Y017298D01*
X009541Y017457D02*
X009026Y017457D01*
X008926Y017615D02*
X009541Y017615D01*
X010183Y017932D02*
X010313Y017932D01*
X010303Y017949D02*
X010326Y017908D01*
X010354Y017881D01*
X010326Y017854D01*
X010303Y017812D01*
X010291Y017767D01*
X010291Y017535D01*
X010816Y017535D01*
X010816Y018227D01*
X010291Y018227D01*
X010291Y017995D01*
X010303Y017949D01*
X010291Y018091D02*
X010100Y018091D01*
X010100Y018249D02*
X010816Y018249D01*
X010816Y018227D02*
X010816Y018322D01*
X010291Y018322D01*
X010291Y018554D01*
X010303Y018600D01*
X010326Y018641D01*
X010360Y018674D01*
X010401Y018698D01*
X010447Y018710D01*
X010816Y018710D01*
X010816Y018322D01*
X010912Y018322D01*
X011438Y018322D01*
X011438Y018554D01*
X011426Y018600D01*
X011402Y018641D01*
X011368Y018674D01*
X011327Y018698D01*
X011282Y018710D01*
X010912Y018710D01*
X010912Y018322D01*
X010912Y018227D01*
X011438Y018227D01*
X011438Y017995D01*
X011426Y017949D01*
X011402Y017908D01*
X011375Y017881D01*
X011402Y017854D01*
X011426Y017812D01*
X011438Y017767D01*
X011438Y017535D01*
X010912Y017535D01*
X010912Y017839D01*
X010912Y018227D01*
X010816Y018227D01*
X010912Y018249D02*
X012131Y018249D01*
X011999Y018408D02*
X011438Y018408D01*
X011435Y018566D02*
X011798Y018566D01*
X011772Y018725D02*
X010175Y018725D01*
X010149Y018566D02*
X010294Y018566D01*
X010291Y018408D02*
X010100Y018408D01*
X009700Y018408D02*
X001805Y018408D01*
X001899Y018566D02*
X009681Y018566D01*
X009655Y018725D02*
X001965Y018725D01*
X002001Y018883D02*
X009750Y018883D01*
X010080Y018883D02*
X011867Y018883D01*
X012197Y018883D02*
X016600Y018883D01*
X016600Y018725D02*
X012292Y018725D01*
X012388Y018566D02*
X016600Y018566D01*
X016600Y018408D02*
X012520Y018408D01*
X012652Y018249D02*
X016588Y018249D01*
X016624Y018091D02*
X012785Y018091D01*
X012917Y017932D02*
X016658Y017932D01*
X016592Y017774D02*
X013050Y017774D01*
X013182Y017615D02*
X016590Y017615D01*
X016590Y017298D02*
X013447Y017298D01*
X013579Y017140D02*
X016615Y017140D01*
X016630Y016981D02*
X013711Y016981D01*
X013844Y016823D02*
X016630Y016823D01*
X016630Y016664D02*
X013976Y016664D01*
X014109Y016506D02*
X016623Y016506D01*
X016464Y016347D02*
X014241Y016347D01*
X014373Y016189D02*
X016306Y016189D01*
X016147Y016030D02*
X014506Y016030D01*
X014638Y015872D02*
X015989Y015872D01*
X015950Y015713D02*
X014771Y015713D01*
X014903Y015555D02*
X015950Y015555D01*
X015950Y015396D02*
X015035Y015396D01*
X015168Y015238D02*
X015950Y015238D01*
X015950Y015079D02*
X015300Y015079D01*
X015432Y014921D02*
X015927Y014921D01*
X015890Y014762D02*
X015565Y014762D01*
X015697Y014604D02*
X015959Y014604D01*
X016346Y014216D02*
X016413Y014150D01*
X016508Y014110D01*
X016612Y014110D01*
X016630Y014117D01*
X016630Y014024D01*
X016710Y013944D01*
X016630Y013864D01*
X016630Y013236D01*
X016710Y013156D01*
X016630Y013077D01*
X016630Y012449D01*
X016712Y012367D01*
X017615Y012367D01*
X017697Y012449D01*
X017697Y013050D01*
X017720Y013027D01*
X017837Y012910D01*
X018650Y012910D01*
X018722Y012902D01*
X018731Y012910D01*
X018743Y012910D01*
X018794Y012961D01*
X019393Y013446D01*
X019448Y013446D01*
X019544Y013485D01*
X019617Y013558D01*
X019656Y013654D01*
X019656Y013757D01*
X019617Y013853D01*
X019544Y013926D01*
X019448Y013966D01*
X019345Y013966D01*
X019249Y013926D01*
X019176Y013853D01*
X019136Y013757D01*
X019136Y013753D01*
X018763Y013451D01*
X018763Y013877D01*
X018670Y013971D01*
X018469Y013971D01*
X018231Y014209D01*
X018231Y014580D01*
X018346Y014580D01*
X018346Y014182D01*
X018627Y014182D01*
X018673Y014194D01*
X018714Y014218D01*
X018747Y014252D01*
X018771Y014293D01*
X018783Y014338D01*
X018783Y014580D01*
X018346Y014580D01*
X018346Y014695D01*
X018783Y014695D01*
X018783Y014937D01*
X018771Y014983D01*
X018747Y015024D01*
X018714Y015057D01*
X018673Y015081D01*
X018627Y015093D01*
X018346Y015093D01*
X018346Y014695D01*
X018231Y014695D01*
X018231Y015093D01*
X017950Y015093D01*
X017904Y015081D01*
X017863Y015057D01*
X017829Y015024D01*
X017806Y014983D01*
X017793Y014937D01*
X017793Y014926D01*
X017717Y015002D01*
X017717Y015248D01*
X018184Y015715D01*
X018427Y015715D01*
X018464Y015753D01*
X018486Y015731D01*
X018527Y015707D01*
X018573Y015695D01*
X018795Y015695D01*
X018795Y016053D01*
X018831Y016053D01*
X018831Y015695D01*
X019053Y015695D01*
X019099Y015707D01*
X019140Y015731D01*
X019174Y015764D01*
X019197Y015805D01*
X019210Y015851D01*
X019210Y016053D01*
X018831Y016053D01*
X018831Y016090D01*
X018795Y016090D01*
X018795Y016449D01*
X018573Y016449D01*
X018527Y016436D01*
X018486Y016413D01*
X018464Y016391D01*
X018427Y016429D01*
X018390Y016429D01*
X018390Y016528D01*
X018427Y016528D01*
X018464Y016566D01*
X018486Y016544D01*
X018527Y016520D01*
X018573Y016508D01*
X018795Y016508D01*
X018795Y016866D01*
X018831Y016866D01*
X018831Y016508D01*
X019053Y016508D01*
X019099Y016520D01*
X019140Y016544D01*
X019174Y016577D01*
X019197Y016618D01*
X019210Y016664D01*
X019210Y016866D01*
X018831Y016866D01*
X018831Y016903D01*
X019210Y016903D01*
X019210Y017028D01*
X019226Y017028D01*
X019249Y017005D01*
X019345Y016966D01*
X019448Y016966D01*
X019544Y017005D01*
X019617Y017078D01*
X019656Y017174D01*
X019656Y017277D01*
X019617Y017373D01*
X019544Y017446D01*
X019448Y017486D01*
X019345Y017486D01*
X019249Y017446D01*
X019231Y017428D01*
X019164Y017429D01*
X019163Y017430D01*
X019081Y017430D01*
X019000Y017431D01*
X018999Y017430D01*
X017787Y017430D01*
X017737Y017380D01*
X017737Y017439D01*
X017211Y017439D01*
X017211Y017096D01*
X017115Y017096D01*
X017115Y017439D01*
X017211Y017439D01*
X017211Y017535D01*
X017211Y017697D01*
X017115Y017706D01*
X017115Y017535D01*
X017211Y017535D01*
X017737Y017535D01*
X017737Y017767D01*
X017725Y017812D01*
X017701Y017854D01*
X017668Y017887D01*
X017640Y017903D01*
X017697Y017961D01*
X017697Y018057D01*
X017726Y018111D01*
X017729Y018140D01*
X017740Y018167D01*
X017740Y018252D01*
X017749Y018336D01*
X017740Y018364D01*
X017740Y019019D01*
X017757Y019036D01*
X017757Y019139D01*
X017760Y019147D01*
X017760Y019207D01*
X017773Y019275D01*
X017760Y019337D01*
X017760Y019373D01*
X017757Y019381D01*
X017757Y019504D01*
X017648Y019613D01*
X017599Y019684D01*
X017598Y019685D01*
X018319Y019685D01*
X018190Y019556D01*
X018042Y019199D01*
X018042Y018814D01*
X018190Y018457D01*
X018462Y018184D01*
X018819Y018037D01*
X019205Y018037D01*
X019561Y018184D01*
X019685Y018308D01*
X019685Y001738D01*
X019559Y001865D01*
X019202Y002012D01*
X019019Y002012D01*
X019247Y002240D01*
X019247Y002470D01*
X018662Y002470D01*
X018662Y002510D01*
X019247Y002510D01*
X019247Y002741D01*
X018893Y003095D01*
X019230Y003432D01*
X019230Y003916D01*
X018887Y004259D01*
X018402Y004259D01*
X018401Y004258D01*
X017666Y004994D01*
X017666Y005503D01*
X017628Y005541D01*
X017650Y005563D01*
X017674Y005604D01*
X017686Y005649D01*
X017686Y005871D01*
X017328Y005871D01*
X017328Y005908D01*
X017686Y005908D01*
X017686Y006130D01*
X017674Y006176D01*
X017650Y006217D01*
X017616Y006250D01*
X017575Y006274D01*
X017530Y006286D01*
X017328Y006286D01*
X017328Y005908D01*
X017291Y005908D01*
X017291Y006286D01*
X017089Y006286D01*
X017043Y006274D01*
X017002Y006250D01*
X016968Y006217D01*
X016945Y006176D01*
X016932Y006130D01*
X016932Y005908D01*
X017291Y005908D01*
X017291Y005871D01*
X016932Y005871D01*
X016932Y005649D01*
X016945Y005604D01*
X016968Y005563D01*
X016990Y005541D01*
X016952Y005503D01*
X016952Y005460D01*
X016686Y005460D01*
X016686Y005483D01*
X016614Y005555D01*
X016686Y005627D01*
X016686Y006153D01*
X016592Y006246D01*
X016550Y006246D01*
X016550Y006299D01*
X016668Y006250D01*
X016836Y006250D01*
X016990Y006314D01*
X017108Y006432D01*
X017172Y006586D01*
X017172Y007055D01*
X017352Y006875D01*
X017352Y006590D01*
X017413Y006443D01*
X017525Y006331D01*
X017672Y006270D01*
X017832Y006270D01*
X017979Y006331D01*
X018091Y006443D01*
X018152Y006590D01*
X018152Y007270D01*
X018091Y007417D01*
X017979Y007529D01*
X017832Y007590D01*
X017672Y007590D01*
X017525Y007529D01*
X017413Y007417D01*
X017402Y007391D01*
X017120Y007673D01*
X017003Y007790D01*
X015497Y007790D01*
X015267Y007560D01*
X015150Y007443D01*
X015150Y007274D01*
X015091Y007417D01*
X014979Y007529D01*
X014832Y007590D01*
X014672Y007590D01*
X014525Y007529D01*
X014413Y007417D01*
X014352Y007270D01*
X014352Y006590D01*
X014413Y006443D01*
X014525Y006331D01*
X014560Y006317D01*
X014560Y005349D01*
X014179Y005349D01*
X014157Y005326D01*
X013953Y005530D01*
X013953Y006077D01*
X013950Y006079D01*
X013950Y006319D01*
X013979Y006331D01*
X014091Y006443D01*
X014152Y006590D01*
X014152Y007270D01*
X014091Y007417D01*
X013979Y007529D01*
X013832Y007590D01*
X013672Y007590D01*
X013525Y007529D01*
X013413Y007417D01*
X013352Y007270D01*
X013352Y006590D01*
X013413Y006443D01*
X013525Y006331D01*
X013550Y006321D01*
X013550Y006163D01*
X013546Y006159D01*
X013007Y006159D01*
X012925Y006077D01*
X012925Y005449D01*
X013007Y005367D01*
X013551Y005367D01*
X014097Y004820D01*
X014097Y004717D01*
X014130Y004685D01*
X014127Y004683D01*
X014093Y004650D01*
X014070Y004609D01*
X014057Y004563D01*
X014057Y004341D01*
X014416Y004341D01*
X014416Y004304D01*
X014057Y004304D01*
X014057Y004082D01*
X014070Y004037D01*
X014093Y003996D01*
X014127Y003962D01*
X014168Y003938D01*
X014214Y003926D01*
X014374Y003926D01*
X013953Y003506D01*
X013953Y003911D01*
X013871Y003993D01*
X013007Y003993D01*
X012925Y003911D01*
X012925Y003283D01*
X013007Y003201D01*
X013649Y003201D01*
X013417Y002970D01*
X011277Y002970D01*
X010937Y002629D01*
X010864Y002701D01*
X010703Y002768D01*
X010528Y002768D01*
X010366Y002701D01*
X010242Y002578D01*
X010175Y002416D01*
X010175Y001641D01*
X010242Y001479D01*
X010366Y001355D01*
X010528Y001288D01*
X010703Y001288D01*
X010864Y001355D01*
X010988Y001479D01*
X011055Y001641D01*
X011055Y002182D01*
X011135Y002262D01*
X011135Y002048D01*
X011595Y002048D01*
X011595Y002008D01*
X011135Y002008D01*
X011135Y001691D01*
X011147Y001616D01*
X011170Y001544D01*
X011205Y001477D01*
X011249Y001416D01*
X011303Y001362D01*
X011364Y001318D01*
X011431Y001284D01*
X011442Y001280D01*
X009788Y001280D01*
X009799Y001284D01*
X009867Y001318D01*
X009928Y001362D01*
X009981Y001416D01*
X010026Y001477D01*
X010060Y001544D01*
X010083Y001616D01*
X010095Y001691D01*
X010095Y002008D01*
X009635Y002008D01*
X009635Y002048D01*
X010095Y002048D01*
X010095Y002366D01*
X010083Y002441D01*
X010060Y002513D01*
X010026Y002580D01*
X009981Y002641D01*
X009928Y002695D01*
X009867Y002739D01*
X009799Y002773D01*
X009728Y002797D01*
X009653Y002808D01*
X009635Y002808D01*
X009635Y002048D01*
X009595Y002048D01*
X009595Y002008D01*
X009135Y002008D01*
X009135Y001691D01*
X009147Y001616D01*
X009170Y001544D01*
X009205Y001477D01*
X009249Y001416D01*
X009303Y001362D01*
X009364Y001318D01*
X009431Y001284D01*
X009442Y001280D01*
X007788Y001280D01*
X007799Y001284D01*
X007867Y001318D01*
X007928Y001362D01*
X007981Y001416D01*
X008026Y001477D01*
X008060Y001544D01*
X008083Y001616D01*
X008095Y001691D01*
X008095Y002008D01*
X007635Y002008D01*
X007635Y002048D01*
X008095Y002048D01*
X008095Y002262D01*
X008175Y002182D01*
X008175Y001641D01*
X008242Y001479D01*
X008366Y001355D01*
X008528Y001288D01*
X008703Y001288D01*
X008864Y001355D01*
X008988Y001479D01*
X009055Y001641D01*
X009055Y002416D01*
X008988Y002578D01*
X008864Y002701D01*
X008703Y002768D01*
X008528Y002768D01*
X008366Y002701D01*
X008294Y002629D01*
X007791Y003132D01*
X007791Y003350D01*
X011665Y003350D01*
X011665Y003283D02*
X011747Y003201D01*
X012611Y003201D01*
X012693Y003283D01*
X012693Y003911D01*
X012611Y003993D01*
X011747Y003993D01*
X011665Y003911D01*
X011665Y003283D01*
X011665Y003509D02*
X009624Y003509D01*
X009625Y003510D02*
X009625Y004120D01*
X009983Y004120D01*
X010847Y004984D01*
X010847Y004717D01*
X010880Y004685D01*
X010877Y004683D01*
X010843Y004650D01*
X010820Y004609D01*
X010807Y004563D01*
X010807Y004341D01*
X011166Y004341D01*
X011166Y004304D01*
X011203Y004304D01*
X011203Y004341D01*
X011561Y004341D01*
X011561Y004563D01*
X011549Y004609D01*
X011525Y004650D01*
X011491Y004683D01*
X011488Y004685D01*
X011521Y004717D01*
X011521Y004828D01*
X012060Y005367D01*
X012611Y005367D01*
X012693Y005449D01*
X012693Y005980D01*
X012950Y006237D01*
X012950Y006319D01*
X012979Y006331D01*
X013091Y006443D01*
X013152Y006590D01*
X013152Y007270D01*
X013091Y007417D01*
X012979Y007529D01*
X012852Y007582D01*
X013240Y007973D01*
X013267Y007973D01*
X013363Y008013D01*
X013436Y008086D01*
X013476Y008181D01*
X013476Y008285D01*
X013436Y008380D01*
X013363Y008453D01*
X013267Y008493D01*
X013164Y008493D01*
X013068Y008453D01*
X012995Y008380D01*
X012956Y008285D01*
X012956Y008255D01*
X012208Y007501D01*
X012150Y007443D01*
X012150Y007442D01*
X012150Y007378D01*
X012128Y007421D01*
X012088Y007477D01*
X012039Y007526D01*
X011983Y007566D01*
X011921Y007598D01*
X011855Y007619D01*
X011835Y007622D01*
X011846Y007641D01*
X011858Y007687D01*
X011858Y007889D01*
X011480Y007889D01*
X011480Y007926D01*
X011858Y007926D01*
X011858Y008128D01*
X011846Y008174D01*
X011822Y008215D01*
X011789Y008248D01*
X011748Y008272D01*
X011702Y008284D01*
X011534Y008284D01*
X011590Y008340D01*
X012458Y008340D01*
X012546Y008377D01*
X012743Y008573D01*
X013075Y008573D01*
X013113Y008611D01*
X013135Y008589D01*
X013176Y008565D01*
X013221Y008553D01*
X013443Y008553D01*
X013443Y008912D01*
X013480Y008912D01*
X013480Y008553D01*
X013622Y008553D01*
X013624Y008402D01*
X013606Y008384D01*
X013567Y008288D01*
X013567Y008185D01*
X013606Y008089D01*
X013679Y008016D01*
X013775Y007977D01*
X013878Y007977D01*
X013974Y008016D01*
X014047Y008089D01*
X014087Y008185D01*
X014087Y008288D01*
X014047Y008384D01*
X014024Y008407D01*
X014020Y008671D01*
X014020Y009372D01*
X014091Y009443D01*
X014152Y009590D01*
X014152Y010255D01*
X014352Y010055D01*
X014352Y009590D01*
X014413Y009443D01*
X014525Y009331D01*
X014672Y009270D01*
X014832Y009270D01*
X014979Y009331D01*
X015091Y009443D01*
X015152Y009590D01*
X015152Y010245D01*
X015352Y010045D01*
X015352Y009590D01*
X015413Y009443D01*
X015525Y009331D01*
X015672Y009270D01*
X015832Y009270D01*
X015979Y009331D01*
X016091Y009443D01*
X016152Y009590D01*
X016152Y010245D01*
X016352Y010045D01*
X016352Y009590D01*
X016413Y009443D01*
X016525Y009331D01*
X016672Y009270D01*
X016832Y009270D01*
X016979Y009331D01*
X017091Y009443D01*
X017152Y009590D01*
X017152Y010245D01*
X017352Y010045D01*
X017352Y009590D01*
X017413Y009443D01*
X017525Y009331D01*
X017672Y009270D01*
X017832Y009270D01*
X017979Y009331D01*
X018091Y009443D01*
X018152Y009590D01*
X018152Y010270D01*
X018091Y010417D01*
X017979Y010529D01*
X017832Y010590D01*
X017672Y010590D01*
X017525Y010529D01*
X017480Y010483D01*
X016290Y011673D01*
X016290Y013732D01*
X016311Y013753D01*
X016350Y013848D01*
X016350Y013952D01*
X016311Y014047D01*
X016244Y014114D01*
X016346Y014216D01*
X016258Y014128D02*
X016465Y014128D01*
X016343Y013970D02*
X016684Y013970D01*
X016630Y013811D02*
X016335Y013811D01*
X016290Y013653D02*
X016630Y013653D01*
X016630Y013494D02*
X016290Y013494D01*
X016290Y013336D02*
X016630Y013336D01*
X016689Y013177D02*
X016290Y013177D01*
X016290Y013019D02*
X016630Y013019D01*
X016630Y012860D02*
X016290Y012860D01*
X016290Y012702D02*
X016630Y012702D01*
X016630Y012543D02*
X016290Y012543D01*
X016290Y012385D02*
X016694Y012385D01*
X016290Y012226D02*
X019685Y012226D01*
X019685Y012068D02*
X016290Y012068D01*
X016290Y011909D02*
X019685Y011909D01*
X019685Y011751D02*
X016290Y011751D01*
X016371Y011592D02*
X019685Y011592D01*
X019685Y011434D02*
X016529Y011434D01*
X016688Y011275D02*
X019685Y011275D01*
X019685Y011117D02*
X016846Y011117D01*
X017005Y010958D02*
X019685Y010958D01*
X019685Y010800D02*
X017163Y010800D01*
X017322Y010641D02*
X019685Y010641D01*
X019685Y010483D02*
X018025Y010483D01*
X018129Y010324D02*
X019685Y010324D01*
X019685Y010166D02*
X018152Y010166D01*
X018152Y010007D02*
X019685Y010007D01*
X019685Y009849D02*
X018152Y009849D01*
X018152Y009690D02*
X019685Y009690D01*
X019685Y009532D02*
X018128Y009532D01*
X018021Y009373D02*
X019685Y009373D01*
X019685Y009215D02*
X014020Y009215D01*
X014021Y009373D02*
X014483Y009373D01*
X014376Y009532D02*
X014128Y009532D01*
X014152Y009690D02*
X014352Y009690D01*
X014352Y009849D02*
X014152Y009849D01*
X014152Y010007D02*
X014352Y010007D01*
X014242Y010166D02*
X014152Y010166D01*
X013817Y010590D02*
X013672Y010590D01*
X013525Y010529D01*
X013413Y010417D01*
X013352Y010270D01*
X013352Y009590D01*
X013413Y009443D01*
X013525Y009331D01*
X013583Y009307D01*
X013480Y009307D01*
X013480Y008948D01*
X013443Y008948D01*
X013443Y009307D01*
X013221Y009307D01*
X013176Y009295D01*
X013135Y009271D01*
X013113Y009249D01*
X013075Y009287D01*
X013030Y009287D01*
X013030Y009354D01*
X013108Y009432D01*
X013172Y009586D01*
X013172Y010274D01*
X013108Y010428D01*
X013040Y010496D01*
X013040Y010911D01*
X013226Y011096D01*
X013293Y011030D01*
X013388Y010990D01*
X013417Y010990D01*
X013817Y010590D01*
X013766Y010641D02*
X013040Y010641D01*
X013040Y010800D02*
X013608Y010800D01*
X013449Y010958D02*
X013088Y010958D01*
X012800Y011010D02*
X012730Y011050D01*
X012800Y011010D02*
X012800Y010000D01*
X012752Y009930D01*
X012760Y009930D01*
X012790Y009900D01*
X012790Y008930D01*
X012792Y008930D01*
X012720Y008890D01*
X012410Y008580D01*
X011490Y008580D01*
X010860Y007950D01*
X010792Y007907D01*
X010790Y007900D01*
X010790Y006960D01*
X010760Y006930D01*
X010752Y006930D01*
X010332Y006996D02*
X010152Y006996D01*
X010152Y007154D02*
X010332Y007154D01*
X010348Y007313D02*
X010134Y007313D01*
X010037Y007471D02*
X010439Y007471D01*
X010431Y007630D02*
X008903Y007630D01*
X009037Y007471D02*
X009467Y007471D01*
X009370Y007313D02*
X009134Y007313D01*
X009152Y007154D02*
X009352Y007154D01*
X009352Y006996D02*
X009152Y006996D01*
X009152Y006837D02*
X009352Y006837D01*
X009352Y006679D02*
X009152Y006679D01*
X009123Y006520D02*
X009381Y006520D01*
X009082Y006362D02*
X009009Y006362D01*
X008987Y005411D02*
X008729Y005411D01*
X008845Y004618D02*
X006551Y004618D01*
X006393Y004460D02*
X008845Y004460D01*
X008845Y004301D02*
X006234Y004301D01*
X006076Y004143D02*
X008845Y004143D01*
X008845Y003984D02*
X007791Y003984D01*
X007791Y003570D02*
X008845Y003570D01*
X008845Y003510D01*
X008927Y003428D01*
X009543Y003428D01*
X009625Y003510D01*
X009625Y003667D02*
X011665Y003667D01*
X011665Y003826D02*
X009625Y003826D01*
X009625Y003984D02*
X010855Y003984D01*
X010843Y003996D02*
X010877Y003962D01*
X010918Y003938D01*
X010964Y003926D01*
X011166Y003926D01*
X011166Y004304D01*
X010807Y004304D01*
X010807Y004082D01*
X010820Y004037D01*
X010843Y003996D01*
X010807Y004143D02*
X010006Y004143D01*
X010164Y004301D02*
X010807Y004301D01*
X010807Y004460D02*
X010323Y004460D01*
X010481Y004618D02*
X010825Y004618D01*
X010847Y004777D02*
X010640Y004777D01*
X010798Y004935D02*
X010847Y004935D01*
X010549Y005252D02*
X007185Y005252D01*
X007027Y005094D02*
X010391Y005094D01*
X010232Y004935D02*
X006868Y004935D01*
X006710Y004777D02*
X010074Y004777D01*
X009915Y004618D02*
X009625Y004618D01*
X009729Y005411D02*
X010708Y005411D01*
X010866Y005569D02*
X009888Y005569D01*
X009923Y005728D02*
X011025Y005728D01*
X011183Y005886D02*
X009923Y005886D01*
X009923Y006045D02*
X011342Y006045D01*
X011500Y006203D02*
X009950Y006203D01*
X010009Y006362D02*
X010467Y006362D01*
X010360Y006520D02*
X010123Y006520D01*
X010152Y006679D02*
X010332Y006679D01*
X010332Y006837D02*
X010152Y006837D01*
X010416Y007788D02*
X009061Y007788D01*
X009220Y007947D02*
X010416Y007947D01*
X010416Y008105D02*
X009378Y008105D01*
X009537Y008264D02*
X010509Y008264D01*
X010869Y008581D02*
X009854Y008581D01*
X009950Y008739D02*
X010768Y008739D01*
X010768Y008898D02*
X009950Y008898D01*
X009950Y009056D02*
X010768Y009056D01*
X010768Y008958D02*
X010768Y009160D01*
X010780Y009206D01*
X010795Y009231D01*
X010787Y009230D01*
X010752Y009230D01*
X010752Y009930D01*
X010752Y009930D01*
X010312Y009930D01*
X010312Y010225D01*
X010323Y010293D01*
X010344Y010359D01*
X010376Y010421D01*
X010416Y010477D01*
X010465Y010526D01*
X010521Y010566D01*
X010583Y010598D01*
X010649Y010619D01*
X010717Y010630D01*
X010752Y010630D01*
X010752Y009930D01*
X010312Y009930D01*
X010312Y009635D01*
X010323Y009567D01*
X010344Y009501D01*
X010376Y009439D01*
X010416Y009383D01*
X010465Y009334D01*
X010521Y009294D01*
X010583Y009262D01*
X010649Y009241D01*
X010717Y009230D01*
X010752Y009230D01*
X010752Y009930D01*
X010752Y009930D01*
X010752Y009930D01*
X010752Y010630D01*
X010787Y010630D01*
X010855Y010619D01*
X010921Y010598D01*
X010983Y010566D01*
X011039Y010526D01*
X011088Y010477D01*
X011128Y010421D01*
X011160Y010359D01*
X011181Y010293D01*
X011192Y010225D01*
X011192Y009930D01*
X010752Y009930D01*
X010752Y009930D01*
X011192Y009930D01*
X011192Y009635D01*
X011181Y009567D01*
X011160Y009501D01*
X011128Y009439D01*
X011088Y009383D01*
X011039Y009334D01*
X011014Y009317D01*
X011146Y009317D01*
X011146Y008958D01*
X010768Y008958D01*
X010785Y009215D02*
X009950Y009215D01*
X010021Y009373D02*
X010427Y009373D01*
X010334Y009532D02*
X010128Y009532D01*
X010152Y009690D02*
X010312Y009690D01*
X010312Y009849D02*
X010152Y009849D01*
X010152Y010007D02*
X010312Y010007D01*
X010312Y010166D02*
X010152Y010166D01*
X010129Y010324D02*
X010333Y010324D01*
X010422Y010483D02*
X010138Y010483D01*
X010297Y010641D02*
X012560Y010641D01*
X012451Y010483D02*
X012053Y010483D01*
X012151Y010324D02*
X012353Y010324D01*
X012332Y010166D02*
X012172Y010166D01*
X012172Y010007D02*
X012332Y010007D01*
X012332Y009849D02*
X012172Y009849D01*
X012172Y009690D02*
X012332Y009690D01*
X012355Y009532D02*
X012149Y009532D01*
X012070Y009373D02*
X012455Y009373D01*
X012437Y009215D02*
X012199Y009215D01*
X012210Y009056D02*
X012416Y009056D01*
X012388Y008898D02*
X012210Y008898D01*
X011834Y008940D02*
X011830Y008940D01*
X011830Y009860D01*
X011760Y009930D01*
X011752Y009930D01*
X011332Y010007D02*
X011192Y010007D01*
X011192Y009849D02*
X011332Y009849D01*
X011332Y009690D02*
X011192Y009690D01*
X011170Y009532D02*
X011355Y009532D01*
X011455Y009373D02*
X011077Y009373D01*
X011146Y009215D02*
X011183Y009215D01*
X011183Y009056D02*
X011146Y009056D01*
X010752Y009373D02*
X010752Y009373D01*
X010752Y009532D02*
X010752Y009532D01*
X010752Y009690D02*
X010752Y009690D01*
X010752Y009849D02*
X010752Y009849D01*
X010752Y010007D02*
X010752Y010007D01*
X010752Y010166D02*
X010752Y010166D01*
X010752Y010324D02*
X010752Y010324D01*
X010752Y010483D02*
X010752Y010483D01*
X011082Y010483D02*
X011451Y010483D01*
X011353Y010324D02*
X011171Y010324D01*
X011192Y010166D02*
X011332Y010166D01*
X011646Y011434D02*
X012884Y011434D01*
X012783Y011592D02*
X011488Y011592D01*
X011329Y011751D02*
X012657Y011751D01*
X012498Y011909D02*
X011171Y011909D01*
X011012Y012068D02*
X012340Y012068D01*
X012800Y011010D02*
X016870Y015080D01*
X017090Y015080D01*
X017163Y015125D01*
X017310Y015180D01*
X018120Y015990D01*
X018144Y016072D01*
X018150Y016080D01*
X018150Y016880D01*
X018144Y016885D01*
X018390Y016506D02*
X019685Y016506D01*
X019685Y016664D02*
X019210Y016664D01*
X019210Y016823D02*
X019685Y016823D01*
X019685Y016981D02*
X019485Y016981D01*
X019308Y016981D02*
X019210Y016981D01*
X018831Y016823D02*
X018795Y016823D01*
X018795Y016664D02*
X018831Y016664D01*
X018831Y016449D02*
X018831Y016090D01*
X019210Y016090D01*
X019210Y016292D01*
X019197Y016338D01*
X019174Y016379D01*
X019140Y016413D01*
X019099Y016436D01*
X019053Y016449D01*
X018831Y016449D01*
X018831Y016347D02*
X018795Y016347D01*
X018795Y016189D02*
X018831Y016189D01*
X018831Y016030D02*
X018795Y016030D01*
X018795Y015872D02*
X018831Y015872D01*
X018831Y015713D02*
X018795Y015713D01*
X018517Y015713D02*
X018183Y015713D01*
X018024Y015555D02*
X019685Y015555D01*
X019685Y015713D02*
X019109Y015713D01*
X019210Y015872D02*
X019685Y015872D01*
X019685Y016030D02*
X019210Y016030D01*
X019210Y016189D02*
X019685Y016189D01*
X019685Y016347D02*
X019192Y016347D01*
X019642Y017140D02*
X019685Y017140D01*
X019685Y017298D02*
X019648Y017298D01*
X019685Y017457D02*
X019519Y017457D01*
X019685Y017615D02*
X017737Y017615D01*
X017735Y017774D02*
X019685Y017774D01*
X019685Y017932D02*
X017669Y017932D01*
X017715Y018091D02*
X018689Y018091D01*
X018398Y018249D02*
X017740Y018249D01*
X017740Y018408D02*
X018239Y018408D01*
X018144Y018566D02*
X017740Y018566D01*
X017740Y018725D02*
X018079Y018725D01*
X018042Y018883D02*
X017740Y018883D01*
X017757Y019042D02*
X018042Y019042D01*
X018042Y019200D02*
X017760Y019200D01*
X017760Y019359D02*
X018108Y019359D01*
X018173Y019517D02*
X017744Y019517D01*
X017605Y019676D02*
X018309Y019676D01*
X016776Y019676D02*
X001732Y019676D01*
X001869Y019517D02*
X016640Y019517D01*
X016602Y019359D02*
X001934Y019359D01*
X002000Y019200D02*
X016600Y019200D01*
X016600Y019042D02*
X002001Y019042D01*
X000704Y018091D02*
X000360Y018091D01*
X000360Y018249D02*
X000415Y018249D01*
X000360Y016981D02*
X003112Y016981D01*
X002671Y016347D02*
X002544Y016347D01*
X002544Y016189D02*
X002671Y016189D01*
X002671Y016030D02*
X002544Y016030D01*
X003370Y015079D02*
X003666Y015079D01*
X003575Y014921D02*
X003033Y014921D01*
X003033Y014762D02*
X003592Y014762D01*
X003431Y014604D02*
X003033Y014604D01*
X003033Y014445D02*
X003357Y014445D01*
X003357Y014287D02*
X003073Y014287D01*
X003073Y014244D02*
X002556Y014244D01*
X002556Y014244D01*
X003073Y014244D01*
X003069Y014128D02*
X003357Y014128D01*
X003357Y013970D02*
X003075Y013970D01*
X003075Y013811D02*
X003445Y013811D01*
X003417Y013653D02*
X002671Y013653D01*
X002544Y013653D02*
X002357Y013653D01*
X002544Y013811D02*
X002671Y013811D01*
X002671Y013970D02*
X002544Y013970D01*
X002556Y014128D02*
X002556Y014128D01*
X003075Y013494D02*
X003088Y013494D01*
X003290Y013300D02*
X003540Y013300D01*
X003605Y013211D01*
X003610Y013170D01*
X003610Y013370D01*
X003675Y013732D01*
X003880Y013738D01*
X004150Y013738D02*
X004320Y013400D01*
X004320Y013240D01*
X004353Y013211D01*
X004350Y013160D01*
X004300Y013110D01*
X004300Y012460D01*
X004298Y012451D01*
X003979Y013019D02*
X003979Y013019D01*
X003979Y013177D02*
X003979Y013177D01*
X004897Y012068D02*
X005738Y012068D01*
X005736Y012226D02*
X005056Y012226D01*
X005074Y012244D02*
X005074Y012244D01*
X005074Y012244D01*
X005110Y012385D02*
X005735Y012385D01*
X005734Y012543D02*
X005110Y012543D01*
X005110Y012702D02*
X005733Y012702D01*
X005732Y012860D02*
X005110Y012860D01*
X005110Y013019D02*
X005294Y013019D01*
X005278Y013177D02*
X005110Y013177D01*
X005671Y013177D02*
X005671Y013177D01*
X005671Y013019D02*
X005671Y013019D01*
X005671Y013336D02*
X005671Y013336D01*
X005671Y013494D02*
X005671Y013494D01*
X005739Y011909D02*
X004739Y011909D01*
X004665Y011751D02*
X005740Y011751D01*
X005741Y011592D02*
X003372Y011592D01*
X003213Y011434D02*
X005470Y011434D01*
X005312Y011275D02*
X003427Y011275D01*
X003427Y011117D02*
X005231Y011117D01*
X005231Y010958D02*
X003427Y010958D01*
X003427Y010800D02*
X005231Y010800D01*
X005217Y010641D02*
X003290Y010641D01*
X003290Y010483D02*
X004479Y010483D01*
X004375Y010324D02*
X003447Y010324D01*
X003447Y010166D02*
X004352Y010166D01*
X004352Y010007D02*
X003447Y010007D01*
X003431Y009849D02*
X004352Y009849D01*
X004352Y009690D02*
X003523Y009690D01*
X003681Y009532D02*
X004376Y009532D01*
X004483Y009373D02*
X003840Y009373D01*
X003998Y009215D02*
X009550Y009215D01*
X009550Y009056D02*
X004157Y009056D01*
X004315Y008898D02*
X009550Y008898D01*
X009446Y008739D02*
X004474Y008739D01*
X004393Y008820D02*
X004393Y008820D01*
X004510Y008581D02*
X009288Y008581D01*
X009129Y008422D02*
X004510Y008422D01*
X004510Y008264D02*
X008971Y008264D01*
X008812Y008105D02*
X004569Y008105D01*
X003946Y007471D02*
X002959Y007471D01*
X003117Y007313D02*
X004370Y007313D01*
X004352Y007270D02*
X004352Y006590D01*
X004413Y006443D01*
X004525Y006331D01*
X004588Y006305D01*
X004338Y006055D01*
X004338Y005825D01*
X004923Y005825D01*
X004923Y005785D01*
X004338Y005785D01*
X004338Y005554D01*
X004693Y005200D01*
X004923Y005200D01*
X004923Y005785D01*
X004963Y005785D01*
X004963Y005825D01*
X005548Y005825D01*
X005548Y006055D01*
X005194Y006410D01*
X005058Y006410D01*
X005091Y006443D01*
X005152Y006590D01*
X005152Y007245D01*
X005352Y007045D01*
X005352Y006590D01*
X005413Y006443D01*
X005525Y006331D01*
X005672Y006270D01*
X005832Y006270D01*
X005979Y006331D01*
X006091Y006443D01*
X006152Y006590D01*
X006152Y007245D01*
X006352Y007045D01*
X006352Y006590D01*
X006413Y006443D01*
X006525Y006331D01*
X006648Y006280D01*
X004037Y003670D01*
X003507Y003670D01*
X003427Y003590D01*
X003325Y003487D01*
X003270Y003487D01*
X003270Y007108D01*
X003234Y007196D01*
X002469Y007960D01*
X002676Y007960D01*
X002756Y008040D01*
X002836Y007960D01*
X003345Y007960D01*
X003401Y008016D01*
X003910Y007507D01*
X004027Y007390D01*
X004402Y007390D01*
X004352Y007270D01*
X004352Y007154D02*
X003251Y007154D01*
X003270Y006996D02*
X004352Y006996D01*
X004352Y006837D02*
X003270Y006837D01*
X003270Y006679D02*
X004352Y006679D01*
X004381Y006520D02*
X003270Y006520D01*
X003270Y006362D02*
X004495Y006362D01*
X004486Y006203D02*
X003270Y006203D01*
X003270Y006045D02*
X004338Y006045D01*
X004338Y005886D02*
X003270Y005886D01*
X003270Y005728D02*
X004338Y005728D01*
X004338Y005569D02*
X003270Y005569D01*
X003270Y005411D02*
X004482Y005411D01*
X004640Y005252D02*
X003270Y005252D01*
X003270Y005094D02*
X005461Y005094D01*
X005619Y005252D02*
X005246Y005252D01*
X005194Y005200D02*
X005548Y005554D01*
X005548Y005785D01*
X004963Y005785D01*
X004963Y005200D01*
X005194Y005200D01*
X004963Y005252D02*
X004923Y005252D01*
X004923Y005411D02*
X004963Y005411D01*
X004963Y005569D02*
X004923Y005569D01*
X004923Y005728D02*
X004963Y005728D01*
X005404Y005411D02*
X005778Y005411D01*
X005936Y005569D02*
X005548Y005569D01*
X005548Y005728D02*
X006095Y005728D01*
X006253Y005886D02*
X005548Y005886D01*
X005548Y006045D02*
X006412Y006045D01*
X006570Y006203D02*
X005401Y006203D01*
X005495Y006362D02*
X005242Y006362D01*
X005123Y006520D02*
X005381Y006520D01*
X005352Y006679D02*
X005152Y006679D01*
X005152Y006837D02*
X005352Y006837D01*
X005352Y006996D02*
X005152Y006996D01*
X005152Y007154D02*
X005243Y007154D01*
X006152Y007154D02*
X006243Y007154D01*
X006152Y006996D02*
X006352Y006996D01*
X006352Y006837D02*
X006152Y006837D01*
X006152Y006679D02*
X006352Y006679D01*
X006381Y006520D02*
X006123Y006520D01*
X006009Y006362D02*
X006495Y006362D01*
X007152Y006837D02*
X007204Y006837D01*
X007152Y006996D02*
X007352Y006996D01*
X007352Y007154D02*
X007152Y007154D01*
X007134Y007313D02*
X007370Y007313D01*
X007467Y007471D02*
X007037Y007471D01*
X006333Y007630D02*
X008337Y007630D01*
X008495Y007788D02*
X006175Y007788D01*
X006016Y007947D02*
X008654Y007947D01*
X008178Y007471D02*
X008037Y007471D01*
X009695Y008422D02*
X010993Y008422D01*
X011443Y007788D02*
X011480Y007788D01*
X011480Y007630D02*
X011443Y007630D01*
X011412Y007471D02*
X011065Y007471D01*
X011156Y007313D02*
X011329Y007313D01*
X011312Y007154D02*
X011172Y007154D01*
X011172Y006996D02*
X011312Y006996D01*
X011312Y006837D02*
X011172Y006837D01*
X011172Y006679D02*
X011312Y006679D01*
X011338Y006520D02*
X011144Y006520D01*
X011037Y006362D02*
X011438Y006362D01*
X011752Y006455D02*
X011752Y006930D01*
X011752Y007545D01*
X011752Y007545D01*
X011752Y006930D01*
X011752Y006930D01*
X011752Y006930D01*
X011752Y006455D01*
X011752Y006455D01*
X011752Y006520D02*
X011752Y006520D01*
X011752Y006679D02*
X011752Y006679D01*
X011752Y006837D02*
X011752Y006837D01*
X011752Y006930D02*
X012150Y006930D01*
X012150Y006930D01*
X011752Y006930D01*
X011752Y006930D01*
X011752Y006996D02*
X011752Y006996D01*
X011752Y007154D02*
X011752Y007154D01*
X011752Y007313D02*
X011752Y007313D01*
X011752Y007471D02*
X011752Y007471D01*
X011839Y007630D02*
X012336Y007630D01*
X012493Y007788D02*
X011858Y007788D01*
X011858Y007947D02*
X012650Y007947D01*
X012807Y008105D02*
X011858Y008105D01*
X011762Y008264D02*
X012956Y008264D01*
X013037Y008422D02*
X012592Y008422D01*
X013083Y008581D02*
X013149Y008581D01*
X013394Y008422D02*
X013624Y008422D01*
X013567Y008264D02*
X013476Y008264D01*
X013444Y008105D02*
X013600Y008105D01*
X013213Y007947D02*
X019685Y007947D01*
X019685Y008105D02*
X014053Y008105D01*
X014087Y008264D02*
X019685Y008264D01*
X019685Y008422D02*
X014024Y008422D01*
X014022Y008581D02*
X019685Y008581D01*
X019685Y008739D02*
X014020Y008739D01*
X014020Y008898D02*
X019685Y008898D01*
X019685Y009056D02*
X014020Y009056D01*
X013480Y009056D02*
X013443Y009056D01*
X013443Y008898D02*
X013480Y008898D01*
X013480Y008739D02*
X013443Y008739D01*
X013443Y008581D02*
X013480Y008581D01*
X013480Y009215D02*
X013443Y009215D01*
X013483Y009373D02*
X013049Y009373D01*
X013149Y009532D02*
X013376Y009532D01*
X013352Y009690D02*
X013172Y009690D01*
X013172Y009849D02*
X013352Y009849D01*
X013352Y010007D02*
X013172Y010007D01*
X013172Y010166D02*
X013352Y010166D01*
X013375Y010324D02*
X013151Y010324D01*
X013053Y010483D02*
X013479Y010483D01*
X015021Y009373D02*
X015483Y009373D01*
X015376Y009532D02*
X015128Y009532D01*
X015152Y009690D02*
X015352Y009690D01*
X015352Y009849D02*
X015152Y009849D01*
X015152Y010007D02*
X015352Y010007D01*
X015232Y010166D02*
X015152Y010166D01*
X016021Y009373D02*
X016483Y009373D01*
X016376Y009532D02*
X016128Y009532D01*
X016152Y009690D02*
X016352Y009690D01*
X016352Y009849D02*
X016152Y009849D01*
X016152Y010007D02*
X016352Y010007D01*
X016232Y010166D02*
X016152Y010166D01*
X017021Y009373D02*
X017483Y009373D01*
X017376Y009532D02*
X017128Y009532D01*
X017152Y009690D02*
X017352Y009690D01*
X017352Y009849D02*
X017152Y009849D01*
X017152Y010007D02*
X017352Y010007D01*
X017232Y010166D02*
X017152Y010166D01*
X017633Y012385D02*
X019685Y012385D01*
X019685Y012543D02*
X017697Y012543D01*
X017697Y012702D02*
X019685Y012702D01*
X019685Y012860D02*
X017697Y012860D01*
X017697Y013019D02*
X017729Y013019D01*
X018280Y013540D02*
X018288Y013535D01*
X018280Y013540D02*
X018280Y013820D01*
X017720Y014380D01*
X017720Y014660D01*
X017260Y015120D01*
X017170Y015120D01*
X017163Y015125D01*
X017717Y015079D02*
X017901Y015079D01*
X017717Y015238D02*
X019685Y015238D01*
X019685Y015396D02*
X017866Y015396D01*
X018231Y015079D02*
X018346Y015079D01*
X018346Y014921D02*
X018231Y014921D01*
X018231Y014762D02*
X018346Y014762D01*
X018346Y014604D02*
X019685Y014604D01*
X019685Y014762D02*
X018783Y014762D01*
X018783Y014921D02*
X019685Y014921D01*
X019685Y015079D02*
X018676Y015079D01*
X018783Y014445D02*
X019685Y014445D01*
X019685Y014287D02*
X018768Y014287D01*
X018671Y013970D02*
X019685Y013970D01*
X019685Y014128D02*
X018312Y014128D01*
X018346Y014287D02*
X018231Y014287D01*
X018231Y014445D02*
X018346Y014445D01*
X018763Y013811D02*
X019158Y013811D01*
X019013Y013653D02*
X018763Y013653D01*
X018763Y013494D02*
X018817Y013494D01*
X019061Y013177D02*
X019685Y013177D01*
X019685Y013019D02*
X018865Y013019D01*
X019257Y013336D02*
X019685Y013336D01*
X019685Y013494D02*
X019552Y013494D01*
X019656Y013653D02*
X019685Y013653D01*
X019685Y013811D02*
X019634Y013811D01*
X017211Y017140D02*
X017115Y017140D01*
X017115Y017298D02*
X017211Y017298D01*
X017211Y017457D02*
X019274Y017457D01*
X019335Y018091D02*
X019685Y018091D01*
X019685Y018249D02*
X019626Y018249D01*
X017211Y017615D02*
X017115Y017615D01*
X017115Y017457D02*
X013314Y017457D01*
X013058Y017140D02*
X011413Y017140D01*
X011398Y016981D02*
X013190Y016981D01*
X013323Y016823D02*
X011398Y016823D01*
X011398Y016664D02*
X013455Y016664D01*
X013587Y016506D02*
X011398Y016506D01*
X011359Y016347D02*
X013720Y016347D01*
X013852Y016189D02*
X011398Y016189D01*
X011398Y016030D02*
X013985Y016030D01*
X014117Y015872D02*
X011398Y015872D01*
X011410Y015713D02*
X014249Y015713D01*
X014382Y015555D02*
X011568Y015555D01*
X011727Y015396D02*
X014514Y015396D01*
X014647Y015238D02*
X011885Y015238D01*
X012044Y015079D02*
X014779Y015079D01*
X014911Y014921D02*
X012202Y014921D01*
X012361Y014762D02*
X015044Y014762D01*
X015176Y014604D02*
X012519Y014604D01*
X012678Y014445D02*
X015308Y014445D01*
X015430Y014287D02*
X012836Y014287D01*
X012995Y014128D02*
X015494Y014128D01*
X015420Y013970D02*
X013153Y013970D01*
X013312Y013811D02*
X015262Y013811D01*
X015103Y013653D02*
X013470Y013653D01*
X013629Y013494D02*
X014945Y013494D01*
X014786Y013336D02*
X013787Y013336D01*
X013946Y013177D02*
X014628Y013177D01*
X014469Y013019D02*
X014104Y013019D01*
X010379Y014762D02*
X010008Y014762D01*
X009648Y014762D02*
X008920Y014762D01*
X008978Y014604D02*
X009022Y014604D01*
X009330Y014604D02*
X009367Y014604D01*
X009367Y014445D02*
X009330Y014445D01*
X009330Y014287D02*
X009367Y014287D01*
X009367Y014128D02*
X009330Y014128D01*
X009330Y013970D02*
X009367Y013970D01*
X009444Y013336D02*
X009196Y013336D01*
X008900Y016189D02*
X010331Y016189D01*
X010369Y016347D02*
X009015Y016347D01*
X009062Y016506D02*
X010331Y016506D01*
X010331Y016664D02*
X010237Y016664D01*
X010254Y017140D02*
X010316Y017140D01*
X010291Y017298D02*
X010201Y017298D01*
X010254Y017457D02*
X010816Y017457D01*
X010912Y017457D02*
X012793Y017457D01*
X012661Y017615D02*
X011438Y017615D01*
X011436Y017774D02*
X012528Y017774D01*
X012396Y017932D02*
X011416Y017932D01*
X011438Y018091D02*
X012264Y018091D01*
X012926Y017298D02*
X011438Y017298D01*
X010912Y017615D02*
X010816Y017615D01*
X010816Y017774D02*
X010912Y017774D01*
X010912Y017932D02*
X010816Y017932D01*
X010816Y018091D02*
X010912Y018091D01*
X010912Y018408D02*
X010816Y018408D01*
X010816Y018566D02*
X010912Y018566D01*
X010292Y017774D02*
X010254Y017774D01*
X010254Y017615D02*
X010291Y017615D01*
X005058Y010483D02*
X005025Y010483D01*
X005250Y010166D02*
X005352Y010166D01*
X005352Y010007D02*
X005152Y010007D01*
X005152Y009849D02*
X005352Y009849D01*
X005352Y009690D02*
X005152Y009690D01*
X005128Y009532D02*
X005376Y009532D01*
X005483Y009373D02*
X005021Y009373D01*
X006021Y009373D02*
X006483Y009373D01*
X006376Y009532D02*
X006128Y009532D01*
X006152Y009690D02*
X006352Y009690D01*
X006352Y009849D02*
X006152Y009849D01*
X006152Y010007D02*
X006352Y010007D01*
X006352Y010166D02*
X006279Y010166D01*
X007152Y010007D02*
X007352Y010007D01*
X007352Y009849D02*
X007152Y009849D01*
X007152Y009690D02*
X007352Y009690D01*
X007376Y009532D02*
X007128Y009532D01*
X007021Y009373D02*
X007483Y009373D01*
X008021Y009373D02*
X008483Y009373D01*
X008376Y009532D02*
X008128Y009532D01*
X008152Y009690D02*
X008352Y009690D01*
X008352Y009849D02*
X008152Y009849D01*
X008152Y010007D02*
X008352Y010007D01*
X008352Y010166D02*
X008299Y010166D01*
X009152Y010007D02*
X009352Y010007D01*
X009352Y009849D02*
X009152Y009849D01*
X009152Y009690D02*
X009352Y009690D01*
X009376Y009532D02*
X009128Y009532D01*
X009021Y009373D02*
X009483Y009373D01*
X009352Y010166D02*
X009299Y010166D01*
X007352Y010166D02*
X007299Y010166D01*
X003788Y007630D02*
X002800Y007630D01*
X002642Y007788D02*
X003629Y007788D01*
X003471Y007947D02*
X002483Y007947D01*
X002020Y008070D02*
X002020Y010590D01*
X002370Y010940D01*
X002421Y011005D01*
X002430Y011010D01*
X002450Y011010D01*
X003373Y011933D01*
X003010Y011909D02*
X001469Y011909D01*
X001310Y011751D02*
X002851Y011751D01*
X002693Y011592D02*
X001152Y011592D01*
X001597Y011434D02*
X002534Y011434D01*
X002064Y011275D02*
X001833Y011275D01*
X001911Y011117D02*
X002064Y011117D01*
X002049Y010958D02*
X001920Y010958D01*
X001890Y010800D02*
X001871Y010800D01*
X000420Y011200D02*
X002020Y012800D01*
X002790Y012800D01*
X002789Y012799D01*
X002675Y012543D02*
X002103Y012543D01*
X000420Y011200D02*
X000420Y005810D01*
X001740Y004490D01*
X001740Y003830D01*
X001020Y003110D01*
X001020Y003020D01*
X001019Y003012D01*
X001600Y003350D02*
X002069Y003350D01*
X002069Y003192D02*
X001701Y003192D01*
X001739Y003033D02*
X002069Y003033D01*
X002069Y002875D02*
X001719Y002875D01*
X001625Y002716D02*
X002133Y002716D01*
X001980Y002558D02*
X000360Y002558D01*
X000360Y002716D02*
X000413Y002716D01*
X000360Y002399D02*
X001980Y002399D01*
X001980Y002241D02*
X000360Y002241D01*
X000360Y002082D02*
X001980Y002082D01*
X001980Y001924D02*
X001408Y001924D01*
X001667Y001765D02*
X001980Y001765D01*
X001980Y001607D02*
X001825Y001607D01*
X001907Y001448D02*
X001980Y001448D01*
X001973Y001290D02*
X002128Y001290D01*
X002000Y001131D02*
X002286Y001131D01*
X002000Y000973D02*
X007378Y000973D01*
X007220Y001131D02*
X003034Y001131D01*
X003193Y001290D02*
X003468Y001290D01*
X003782Y001290D02*
X004375Y001290D01*
X004215Y001448D02*
X003994Y001448D01*
X004062Y001607D02*
X004154Y001607D01*
X004145Y001765D02*
X004065Y001765D01*
X004065Y001924D02*
X004145Y001924D01*
X004145Y002082D02*
X004065Y002082D01*
X004065Y002241D02*
X004145Y002241D01*
X004155Y002399D02*
X004061Y002399D01*
X003991Y002558D02*
X004218Y002558D01*
X004077Y002716D02*
X004383Y002716D01*
X003868Y002716D02*
X003831Y002716D01*
X003831Y002875D02*
X003868Y002875D01*
X003868Y003033D02*
X003831Y003033D01*
X003346Y003509D02*
X003270Y003509D01*
X003270Y003667D02*
X003504Y003667D01*
X003270Y003826D02*
X004193Y003826D01*
X004351Y003984D02*
X003270Y003984D01*
X003270Y004143D02*
X004510Y004143D01*
X004668Y004301D02*
X003270Y004301D01*
X003270Y004460D02*
X004827Y004460D01*
X004985Y004618D02*
X003270Y004618D01*
X003270Y004777D02*
X005144Y004777D01*
X005302Y004935D02*
X003270Y004935D01*
X002790Y004935D02*
X001635Y004935D01*
X001793Y004777D02*
X002790Y004777D01*
X002790Y004618D02*
X001947Y004618D01*
X001980Y004460D02*
X002790Y004460D01*
X002790Y004301D02*
X001980Y004301D01*
X001980Y004143D02*
X002790Y004143D01*
X002790Y003984D02*
X001980Y003984D01*
X001980Y003826D02*
X002790Y003826D01*
X002790Y003667D02*
X001917Y003667D01*
X001758Y003509D02*
X002790Y003509D01*
X003030Y003180D02*
X003075Y003111D01*
X003070Y003110D01*
X003070Y002450D01*
X002630Y002010D01*
X002625Y002001D01*
X001991Y000814D02*
X007569Y000814D01*
X007650Y001040D02*
X016130Y001040D01*
X016200Y001080D01*
X016510Y001080D01*
X017550Y002120D01*
X017550Y002230D01*
X018610Y003290D01*
X018610Y003600D01*
X018645Y003674D01*
X018640Y003680D01*
X017370Y004950D01*
X017370Y005070D01*
X017309Y005220D01*
X017350Y005150D01*
X017309Y005220D02*
X017300Y005220D01*
X016310Y005220D01*
X016309Y005220D01*
X016628Y005569D02*
X016965Y005569D01*
X016932Y005728D02*
X016686Y005728D01*
X016686Y005886D02*
X017291Y005886D01*
X017328Y005886D02*
X019685Y005886D01*
X019685Y005728D02*
X017686Y005728D01*
X017654Y005569D02*
X019685Y005569D01*
X019685Y005411D02*
X017666Y005411D01*
X017666Y005252D02*
X019685Y005252D01*
X019685Y005094D02*
X017666Y005094D01*
X017725Y004935D02*
X019685Y004935D01*
X019685Y004777D02*
X017883Y004777D01*
X018042Y004618D02*
X019685Y004618D01*
X019685Y004460D02*
X018200Y004460D01*
X018359Y004301D02*
X019685Y004301D01*
X019685Y004143D02*
X019004Y004143D01*
X019162Y003984D02*
X019685Y003984D01*
X019685Y003826D02*
X019230Y003826D01*
X019230Y003667D02*
X019685Y003667D01*
X019685Y003509D02*
X019230Y003509D01*
X019148Y003350D02*
X019685Y003350D01*
X019685Y003192D02*
X018989Y003192D01*
X018955Y003033D02*
X019685Y003033D01*
X019685Y002875D02*
X019113Y002875D01*
X019247Y002716D02*
X019685Y002716D01*
X019685Y002558D02*
X019247Y002558D01*
X019247Y002399D02*
X019685Y002399D01*
X019685Y002241D02*
X019247Y002241D01*
X019089Y002082D02*
X019685Y002082D01*
X019685Y001924D02*
X019417Y001924D01*
X019659Y001765D02*
X019685Y001765D01*
X018361Y001765D02*
X017535Y001765D01*
X017693Y001924D02*
X018353Y001924D01*
X018195Y002082D02*
X017790Y002082D01*
X017900Y002241D02*
X018037Y002241D01*
X017697Y002716D02*
X017521Y002716D01*
X017533Y002744D02*
X017533Y003644D01*
X017458Y003825D01*
X017319Y003964D01*
X017138Y004039D01*
X016942Y004039D01*
X016761Y003964D01*
X016660Y003863D01*
X016010Y004513D01*
X016010Y004880D01*
X016026Y004864D01*
X016592Y004864D01*
X016686Y004957D01*
X016686Y004980D01*
X016952Y004980D01*
X016952Y004938D01*
X017046Y004844D01*
X017154Y004844D01*
X017167Y004814D01*
X018062Y003919D01*
X018060Y003916D01*
X018060Y003432D01*
X018236Y003255D01*
X017347Y002366D01*
X017310Y002278D01*
X017310Y002219D01*
X016411Y001320D01*
X016232Y001320D01*
X016217Y001324D01*
X016185Y001320D01*
X016152Y001320D01*
X016138Y001314D01*
X016123Y001312D01*
X016094Y001296D01*
X016064Y001283D01*
X016061Y001280D01*
X011788Y001280D01*
X011799Y001284D01*
X011867Y001318D01*
X011928Y001362D01*
X011981Y001416D01*
X012026Y001477D01*
X012060Y001544D01*
X012083Y001616D01*
X012095Y001691D01*
X012095Y002008D01*
X011635Y002008D01*
X011635Y002048D01*
X012095Y002048D01*
X012095Y002366D01*
X012083Y002441D01*
X012060Y002513D01*
X012031Y002570D01*
X012239Y002570D01*
X012175Y002416D01*
X012175Y001641D01*
X012242Y001479D01*
X012366Y001355D01*
X012528Y001288D01*
X012703Y001288D01*
X012864Y001355D01*
X012988Y001479D01*
X013055Y001641D01*
X013055Y001870D01*
X015083Y001870D01*
X015200Y001987D01*
X015770Y002557D01*
X015770Y003833D01*
X015653Y003950D01*
X015550Y004053D01*
X015550Y006321D01*
X015610Y006296D01*
X015610Y004347D01*
X016548Y003410D01*
X016548Y002744D01*
X016623Y002563D01*
X016761Y002424D01*
X016942Y002349D01*
X017138Y002349D01*
X017319Y002424D01*
X017458Y002563D01*
X017533Y002744D01*
X017533Y002875D02*
X017855Y002875D01*
X018014Y003033D02*
X017533Y003033D01*
X017533Y003192D02*
X018172Y003192D01*
X018142Y003350D02*
X017533Y003350D01*
X017533Y003509D02*
X018060Y003509D01*
X018060Y003667D02*
X017523Y003667D01*
X017458Y003826D02*
X018060Y003826D01*
X017997Y003984D02*
X017271Y003984D01*
X017680Y004301D02*
X016222Y004301D01*
X016380Y004143D02*
X017838Y004143D01*
X017521Y004460D02*
X016063Y004460D01*
X016010Y004618D02*
X017363Y004618D01*
X017204Y004777D02*
X016010Y004777D01*
X015610Y004777D02*
X015550Y004777D01*
X015550Y004935D02*
X015610Y004935D01*
X015610Y005094D02*
X015550Y005094D01*
X015550Y005252D02*
X015610Y005252D01*
X015610Y005411D02*
X015550Y005411D01*
X015550Y005569D02*
X015610Y005569D01*
X015610Y005728D02*
X015550Y005728D01*
X015550Y005886D02*
X015610Y005886D01*
X015610Y006045D02*
X015550Y006045D01*
X015550Y006203D02*
X015610Y006203D01*
X015150Y006203D02*
X014960Y006203D01*
X014960Y006323D02*
X014979Y006331D01*
X015091Y006443D01*
X015150Y006586D01*
X015150Y004073D01*
X015114Y004079D01*
X015109Y004079D01*
X015109Y003232D01*
X015034Y003232D01*
X015034Y004079D01*
X015030Y004079D01*
X014980Y004071D01*
X014980Y005343D01*
X014960Y005363D01*
X014960Y006323D01*
X015009Y006362D02*
X015150Y006362D01*
X015150Y006520D02*
X015123Y006520D01*
X015150Y006045D02*
X014960Y006045D01*
X014960Y005886D02*
X015150Y005886D01*
X015150Y005728D02*
X014960Y005728D01*
X014960Y005569D02*
X015150Y005569D01*
X015150Y005411D02*
X014960Y005411D01*
X014980Y005252D02*
X015150Y005252D01*
X015150Y005094D02*
X014980Y005094D01*
X014980Y004935D02*
X015150Y004935D01*
X015150Y004777D02*
X014980Y004777D01*
X014980Y004618D02*
X015150Y004618D01*
X015150Y004460D02*
X014980Y004460D01*
X014980Y004301D02*
X015150Y004301D01*
X015150Y004143D02*
X014980Y004143D01*
X015034Y003984D02*
X015109Y003984D01*
X015109Y003826D02*
X015034Y003826D01*
X015034Y003667D02*
X015109Y003667D01*
X015109Y003509D02*
X015034Y003509D01*
X015034Y003350D02*
X015109Y003350D01*
X015034Y003231D02*
X015034Y003156D01*
X014539Y003156D01*
X014539Y002800D01*
X014552Y002717D01*
X014578Y002637D01*
X014616Y002562D01*
X014666Y002495D01*
X014725Y002435D01*
X014793Y002386D01*
X014867Y002348D01*
X014947Y002322D01*
X014966Y002319D01*
X014917Y002270D01*
X013055Y002270D01*
X013055Y002416D01*
X012991Y002570D01*
X013583Y002570D01*
X013700Y002687D01*
X014539Y003526D01*
X014539Y003231D01*
X015034Y003231D01*
X015034Y003192D02*
X014205Y003192D01*
X014363Y003350D02*
X014539Y003350D01*
X014522Y003509D02*
X014539Y003509D01*
X014273Y003826D02*
X013953Y003826D01*
X013953Y003667D02*
X014114Y003667D01*
X013956Y003509D02*
X013953Y003509D01*
X013639Y003192D02*
X007791Y003192D01*
X007791Y003350D02*
X007711Y003430D01*
X007791Y003510D01*
X007791Y003570D01*
X007789Y003509D02*
X008847Y003509D01*
X009503Y002797D02*
X009577Y002808D01*
X009595Y002808D01*
X009595Y002048D01*
X009135Y002048D01*
X009135Y002366D01*
X009147Y002441D01*
X009170Y002513D01*
X009205Y002580D01*
X009249Y002641D01*
X009303Y002695D01*
X009364Y002739D01*
X009431Y002773D01*
X009503Y002797D01*
X009595Y002716D02*
X009635Y002716D01*
X009635Y002558D02*
X009595Y002558D01*
X009595Y002399D02*
X009635Y002399D01*
X009635Y002241D02*
X009595Y002241D01*
X009595Y002082D02*
X009635Y002082D01*
X010095Y002082D02*
X010175Y002082D01*
X010175Y001924D02*
X010095Y001924D01*
X010095Y001765D02*
X010175Y001765D01*
X010189Y001607D02*
X010080Y001607D01*
X010005Y001448D02*
X010273Y001448D01*
X010525Y001290D02*
X009811Y001290D01*
X009419Y001290D02*
X008705Y001290D01*
X008525Y001290D02*
X007811Y001290D01*
X008005Y001448D02*
X008273Y001448D01*
X008189Y001607D02*
X008080Y001607D01*
X008095Y001765D02*
X008175Y001765D01*
X008175Y001924D02*
X008095Y001924D01*
X008095Y002082D02*
X008175Y002082D01*
X008117Y002241D02*
X008095Y002241D01*
X008207Y002716D02*
X008401Y002716D01*
X008049Y002875D02*
X011182Y002875D01*
X011023Y002716D02*
X010829Y002716D01*
X011114Y002241D02*
X011135Y002241D01*
X011135Y002082D02*
X011055Y002082D01*
X011055Y001924D02*
X011135Y001924D01*
X011135Y001765D02*
X011055Y001765D01*
X011041Y001607D02*
X011150Y001607D01*
X011226Y001448D02*
X010957Y001448D01*
X010705Y001290D02*
X011419Y001290D01*
X011811Y001290D02*
X012525Y001290D01*
X012705Y001290D02*
X016079Y001290D01*
X016539Y001448D02*
X012957Y001448D01*
X013041Y001607D02*
X016697Y001607D01*
X016856Y001765D02*
X013055Y001765D01*
X013055Y002399D02*
X014775Y002399D01*
X014620Y002558D02*
X012997Y002558D01*
X013480Y003033D02*
X007890Y003033D01*
X007332Y002716D02*
X006878Y002716D01*
X007018Y002558D02*
X007193Y002558D01*
X007140Y002399D02*
X007075Y002399D01*
X007075Y002241D02*
X007135Y002241D01*
X007135Y002082D02*
X007075Y002082D01*
X007106Y001924D02*
X007135Y001924D01*
X006670Y002020D02*
X007650Y001040D01*
X007061Y001290D02*
X006758Y001290D01*
X006473Y001290D02*
X005705Y001290D01*
X005525Y001290D02*
X004875Y001290D01*
X004877Y001290D02*
X004938Y001335D01*
X004991Y001388D01*
X005036Y001449D01*
X005070Y001517D01*
X005093Y001588D01*
X005105Y001663D01*
X005105Y001981D01*
X004645Y001981D01*
X004645Y001221D01*
X004663Y001221D01*
X004737Y001233D01*
X004809Y001256D01*
X004877Y001290D01*
X005035Y001448D02*
X005273Y001448D01*
X005189Y001607D02*
X005096Y001607D01*
X005105Y001765D02*
X005175Y001765D01*
X005175Y001924D02*
X005105Y001924D01*
X005105Y002082D02*
X005175Y002082D01*
X005107Y002241D02*
X005105Y002241D01*
X005197Y002716D02*
X005401Y002716D01*
X005039Y002875D02*
X007078Y002875D01*
X007078Y003033D02*
X004966Y003033D01*
X005442Y003509D02*
X007079Y003509D01*
X007078Y003667D02*
X005600Y003667D01*
X005759Y003826D02*
X007078Y003826D01*
X007078Y003984D02*
X005917Y003984D01*
X005829Y002716D02*
X006352Y002716D01*
X006212Y002558D02*
X005997Y002558D01*
X006055Y002399D02*
X006155Y002399D01*
X006155Y002241D02*
X006055Y002241D01*
X006055Y002082D02*
X006155Y002082D01*
X006155Y001924D02*
X006055Y001924D01*
X006055Y001765D02*
X006155Y001765D01*
X006168Y001607D02*
X006041Y001607D01*
X005957Y001448D02*
X006245Y001448D01*
X006620Y002020D02*
X006615Y002028D01*
X006620Y002020D02*
X006670Y002020D01*
X004645Y001924D02*
X004605Y001924D01*
X004605Y001765D02*
X004645Y001765D01*
X004645Y001607D02*
X004605Y001607D01*
X004605Y001448D02*
X004645Y001448D01*
X004645Y001290D02*
X004605Y001290D01*
X003030Y003180D02*
X003030Y007060D01*
X002020Y008070D01*
X001963Y007788D02*
X001866Y007788D01*
X001833Y007630D02*
X002121Y007630D01*
X001992Y007471D02*
X002280Y007471D01*
X002438Y007313D02*
X002120Y007313D01*
X002120Y007154D02*
X002597Y007154D01*
X002755Y006996D02*
X002120Y006996D01*
X002120Y006837D02*
X002790Y006837D01*
X002790Y006679D02*
X002120Y006679D01*
X002120Y006520D02*
X002790Y006520D01*
X002790Y006362D02*
X002120Y006362D01*
X002120Y006203D02*
X002790Y006203D01*
X002790Y006045D02*
X002120Y006045D01*
X002120Y005886D02*
X002790Y005886D01*
X002790Y005728D02*
X002111Y005728D01*
X001990Y005569D02*
X002790Y005569D01*
X002790Y005411D02*
X002050Y005411D01*
X002019Y005252D02*
X002790Y005252D01*
X002790Y005094D02*
X001476Y005094D01*
X001562Y005252D02*
X001318Y005252D01*
X001159Y005411D02*
X001530Y005411D01*
X001200Y005569D02*
X001160Y005569D01*
X001160Y005728D02*
X001200Y005728D01*
X001200Y005886D02*
X001160Y005886D01*
X001160Y006026D02*
X001160Y006486D01*
X000842Y006486D01*
X000768Y006474D01*
X000696Y006451D01*
X000660Y006432D01*
X000660Y006579D01*
X000696Y006561D01*
X000768Y006538D01*
X000842Y006526D01*
X001160Y006526D01*
X001160Y006986D01*
X001200Y006986D01*
X001200Y006526D01*
X001518Y006526D01*
X001593Y006538D01*
X001664Y006561D01*
X001720Y006589D01*
X001720Y006422D01*
X001664Y006451D01*
X001593Y006474D01*
X001518Y006486D01*
X001200Y006486D01*
X001200Y006026D01*
X001160Y006026D01*
X001160Y006045D02*
X001200Y006045D01*
X001200Y006203D02*
X001160Y006203D01*
X001160Y006362D02*
X001200Y006362D01*
X001200Y006679D02*
X001160Y006679D01*
X001160Y006837D02*
X001200Y006837D01*
X001200Y007026D02*
X001160Y007026D01*
X001160Y007486D01*
X000842Y007486D01*
X000768Y007474D01*
X000696Y007451D01*
X000660Y007432D01*
X000660Y007621D01*
X000793Y007566D01*
X001332Y007566D01*
X001412Y007486D01*
X001200Y007486D01*
X001200Y007026D01*
X001200Y007154D02*
X001160Y007154D01*
X001160Y007313D02*
X001200Y007313D01*
X001200Y007471D02*
X001160Y007471D01*
X000759Y007471D02*
X000660Y007471D01*
X000660Y006520D02*
X001720Y006520D01*
X000653Y001924D02*
X000360Y001924D01*
X000360Y001765D02*
X000393Y001765D01*
X001925Y000656D02*
X018120Y000656D01*
X018054Y000814D02*
X016218Y000814D01*
X016714Y000944D02*
X016714Y000944D01*
X016742Y000973D02*
X018040Y000973D01*
X018040Y001131D02*
X016901Y001131D01*
X017059Y001290D02*
X018062Y001290D01*
X018128Y001448D02*
X017218Y001448D01*
X017376Y001607D02*
X018202Y001607D01*
X017310Y002241D02*
X015454Y002241D01*
X015612Y002399D02*
X016822Y002399D01*
X016628Y002558D02*
X015770Y002558D01*
X015770Y002716D02*
X016559Y002716D01*
X016548Y002875D02*
X015770Y002875D01*
X015770Y003033D02*
X016548Y003033D01*
X016548Y003192D02*
X015770Y003192D01*
X015770Y003350D02*
X016548Y003350D01*
X016449Y003509D02*
X015770Y003509D01*
X015770Y003667D02*
X016290Y003667D01*
X016132Y003826D02*
X015770Y003826D01*
X015619Y003984D02*
X015973Y003984D01*
X015815Y004143D02*
X015550Y004143D01*
X015550Y004301D02*
X015656Y004301D01*
X015610Y004460D02*
X015550Y004460D01*
X015550Y004618D02*
X015610Y004618D01*
X016539Y003984D02*
X016810Y003984D01*
X016955Y004935D02*
X016663Y004935D01*
X016310Y005890D02*
X016309Y005890D01*
X016310Y005890D02*
X016310Y006490D01*
X016750Y006930D01*
X016752Y006930D01*
X017172Y006996D02*
X017232Y006996D01*
X017172Y006837D02*
X017352Y006837D01*
X017352Y006679D02*
X017172Y006679D01*
X017144Y006520D02*
X017381Y006520D01*
X017495Y006362D02*
X017037Y006362D01*
X016960Y006203D02*
X016635Y006203D01*
X016686Y006045D02*
X016932Y006045D01*
X017291Y006045D02*
X017328Y006045D01*
X017328Y006203D02*
X017291Y006203D01*
X017658Y006203D02*
X019685Y006203D01*
X019685Y006045D02*
X017686Y006045D01*
X018009Y006362D02*
X019685Y006362D01*
X019685Y006520D02*
X018123Y006520D01*
X018152Y006679D02*
X019685Y006679D01*
X019685Y006837D02*
X018152Y006837D01*
X018152Y006996D02*
X019685Y006996D01*
X019685Y007154D02*
X018152Y007154D01*
X018134Y007313D02*
X019685Y007313D01*
X019685Y007471D02*
X018037Y007471D01*
X017467Y007471D02*
X017322Y007471D01*
X017163Y007630D02*
X019685Y007630D01*
X019685Y007788D02*
X017005Y007788D01*
X015495Y007788D02*
X013056Y007788D01*
X012899Y007630D02*
X015337Y007630D01*
X015178Y007471D02*
X015037Y007471D01*
X015134Y007313D02*
X015150Y007313D01*
X014467Y007471D02*
X014037Y007471D01*
X014134Y007313D02*
X014370Y007313D01*
X014352Y007154D02*
X014152Y007154D01*
X014152Y006996D02*
X014352Y006996D01*
X014352Y006837D02*
X014152Y006837D01*
X014152Y006679D02*
X014352Y006679D01*
X014381Y006520D02*
X014123Y006520D01*
X014009Y006362D02*
X014495Y006362D01*
X014560Y006203D02*
X013950Y006203D01*
X013953Y006045D02*
X014560Y006045D01*
X014560Y005886D02*
X013953Y005886D01*
X013953Y005728D02*
X014560Y005728D01*
X014560Y005569D02*
X013953Y005569D01*
X014072Y005411D02*
X014560Y005411D01*
X013982Y004935D02*
X011628Y004935D01*
X011521Y004777D02*
X014097Y004777D01*
X014075Y004618D02*
X011543Y004618D01*
X011561Y004460D02*
X014057Y004460D01*
X014057Y004301D02*
X011561Y004301D01*
X011561Y004304D02*
X011203Y004304D01*
X011203Y003926D01*
X011405Y003926D01*
X011450Y003938D01*
X011491Y003962D01*
X011525Y003996D01*
X011549Y004037D01*
X011561Y004082D01*
X011561Y004304D01*
X011561Y004143D02*
X014057Y004143D01*
X014105Y003984D02*
X013880Y003984D01*
X014046Y003033D02*
X014539Y003033D01*
X014539Y002875D02*
X013888Y002875D01*
X013729Y002716D02*
X014553Y002716D01*
X015295Y002082D02*
X017173Y002082D01*
X017014Y001924D02*
X015137Y001924D01*
X017259Y002399D02*
X017380Y002399D01*
X017453Y002558D02*
X017538Y002558D01*
X018186Y000497D02*
X001859Y000497D01*
X007344Y005411D02*
X007987Y005411D01*
X007829Y005569D02*
X007502Y005569D01*
X007661Y005728D02*
X007793Y005728D01*
X008829Y002716D02*
X009332Y002716D01*
X009193Y002558D02*
X008997Y002558D01*
X009055Y002399D02*
X009140Y002399D01*
X009135Y002241D02*
X009055Y002241D01*
X009055Y002082D02*
X009135Y002082D01*
X009135Y001924D02*
X009055Y001924D01*
X009055Y001765D02*
X009135Y001765D01*
X009150Y001607D02*
X009041Y001607D01*
X008957Y001448D02*
X009226Y001448D01*
X010095Y002241D02*
X010175Y002241D01*
X010175Y002399D02*
X010090Y002399D01*
X010037Y002558D02*
X010234Y002558D01*
X010401Y002716D02*
X009898Y002716D01*
X011166Y003984D02*
X011203Y003984D01*
X011203Y004143D02*
X011166Y004143D01*
X011166Y004301D02*
X011203Y004301D01*
X011513Y003984D02*
X011738Y003984D01*
X012620Y003984D02*
X012998Y003984D01*
X012925Y003826D02*
X012693Y003826D01*
X012693Y003667D02*
X012925Y003667D01*
X012925Y003509D02*
X012693Y003509D01*
X012693Y003350D02*
X012925Y003350D01*
X012234Y002558D02*
X012037Y002558D01*
X012090Y002399D02*
X012175Y002399D01*
X012175Y002241D02*
X012095Y002241D01*
X012095Y002082D02*
X012175Y002082D01*
X012175Y001924D02*
X012095Y001924D01*
X012095Y001765D02*
X012175Y001765D01*
X012189Y001607D02*
X012080Y001607D01*
X012005Y001448D02*
X012273Y001448D01*
X011787Y005094D02*
X013824Y005094D01*
X013665Y005252D02*
X011945Y005252D01*
X012655Y005411D02*
X012963Y005411D01*
X012925Y005569D02*
X012693Y005569D01*
X012693Y005728D02*
X012925Y005728D01*
X012925Y005886D02*
X012693Y005886D01*
X012758Y006045D02*
X012925Y006045D01*
X012916Y006203D02*
X013550Y006203D01*
X013495Y006362D02*
X013009Y006362D01*
X013123Y006520D02*
X013381Y006520D01*
X013352Y006679D02*
X013152Y006679D01*
X013152Y006837D02*
X013352Y006837D01*
X013352Y006996D02*
X013152Y006996D01*
X013152Y007154D02*
X013352Y007154D01*
X013370Y007313D02*
X013134Y007313D01*
X013037Y007471D02*
X013467Y007471D01*
X012178Y007471D02*
X012092Y007471D01*
X012150Y007442D02*
X012150Y007442D01*
X001025Y014442D02*
X000914Y014442D01*
X000914Y014837D01*
X000914Y015070D01*
X001025Y015070D01*
X001025Y014442D01*
X001025Y014445D02*
X000914Y014445D01*
X000914Y014604D02*
X001025Y014604D01*
X001025Y014762D02*
X000914Y014762D01*
X000914Y014921D02*
X001025Y014921D01*
D25*
X009235Y004318D03*
X009235Y003818D03*
D26*
X015072Y003546D02*
X015072Y002841D01*
X017040Y002841D02*
X017040Y003546D01*
X008549Y016562D02*
X008549Y017267D01*
X006581Y017267D02*
X006581Y016562D01*
X004612Y016562D02*
X004612Y017267D01*
D27*
X007300Y013609D02*
X007860Y013609D01*
X007860Y012609D02*
X007300Y012609D01*
X001299Y004012D02*
X000739Y004012D01*
X000739Y003012D02*
X001299Y003012D01*
D28*
X001790Y005380D03*
X004310Y008050D03*
X002300Y008740D03*
X002300Y009640D03*
X002350Y010520D03*
X002789Y012799D03*
X003290Y013300D03*
X004870Y013575D03*
X005251Y013575D03*
X006131Y013315D03*
X006131Y013875D03*
X008470Y013290D03*
X013010Y012670D03*
X013270Y011880D03*
X013040Y011650D03*
X013440Y011250D03*
X014160Y011520D03*
X014530Y012310D03*
X014110Y012730D03*
X015690Y014300D03*
X016090Y013900D03*
X016560Y014370D03*
X016150Y014780D03*
X019396Y013706D03*
X019396Y017226D03*
X012032Y018680D03*
X009915Y018680D03*
X013216Y008233D03*
X013827Y008237D03*
D29*
X012730Y011050D03*
X011620Y011050D03*
X009828Y014518D03*
X009400Y015320D03*
X004423Y011933D03*
X003373Y011933D03*
X003875Y014863D03*
X003134Y015267D03*
X003180Y016684D03*
X004400Y017904D03*
D30*
X005673Y014181D02*
X005673Y013881D01*
X005671Y013880D01*
X005916Y013874D02*
X006131Y013875D01*
X006131Y013315D02*
X006131Y011436D01*
X006810Y010970D01*
X006816Y010961D01*
X006860Y011000D01*
X007390Y011530D01*
X008700Y011530D01*
X009500Y012330D01*
X009750Y012330D01*
X009754Y012337D01*
X010864Y013550D02*
X010870Y013550D01*
X011140Y013550D01*
X013040Y011650D01*
X013270Y011880D02*
X013270Y012780D01*
X010930Y015120D01*
X010870Y015120D01*
X010864Y015125D01*
X010870Y015910D02*
X010864Y015912D01*
X010870Y015910D02*
X010930Y015910D01*
X014110Y012730D01*
X014530Y012310D02*
X014530Y012150D01*
X016750Y009930D01*
X016752Y009930D01*
X017750Y009930D02*
X017752Y009930D01*
X017750Y009930D02*
X016090Y011590D01*
X016090Y013900D01*
X015690Y014300D02*
X012032Y018680D01*
X010530Y016930D02*
X010740Y016720D01*
X010864Y016700D01*
X010860Y016690D01*
X010790Y016690D01*
X010530Y016930D02*
X009900Y016930D01*
X009898Y016937D01*
X009898Y017606D02*
X009900Y017610D01*
X009900Y018630D01*
X009915Y018680D01*
X010864Y014337D02*
X010870Y014330D01*
X011350Y014330D01*
X013010Y012670D01*
X014160Y011520D02*
X015750Y009930D01*
X015752Y009930D01*
X014760Y009930D02*
X014752Y009930D01*
X014760Y009930D02*
X013440Y011250D01*
X013752Y009930D02*
X013760Y009930D01*
X013820Y009870D01*
X013820Y008670D01*
X013827Y008237D01*
X013216Y008233D02*
X012350Y007360D01*
X012350Y006700D01*
X011920Y006270D01*
X011850Y006270D01*
X009900Y004320D01*
X009240Y004320D01*
X009235Y004318D01*
X009235Y003818D02*
X009230Y003810D01*
X009190Y003770D01*
X007440Y003770D01*
X007434Y003765D01*
X007434Y003095D02*
X007440Y003090D01*
X007550Y003090D01*
X008610Y002030D01*
X008615Y002028D01*
X010615Y002028D02*
X010620Y002030D01*
X011360Y002770D01*
X013500Y002770D01*
X014780Y004050D01*
X014780Y005260D01*
X014760Y005280D01*
X014760Y006930D01*
X014752Y006930D01*
X015350Y007360D02*
X015350Y003970D01*
X015570Y003750D01*
X015570Y002640D01*
X015000Y002070D01*
X012670Y002070D01*
X012615Y002028D01*
X012620Y002030D01*
X011410Y005000D02*
X011190Y005000D01*
X011184Y004992D01*
X011410Y005000D02*
X012170Y005760D01*
X012179Y005763D01*
X012230Y005800D01*
X012750Y006320D01*
X012750Y006930D01*
X012752Y006930D01*
X013750Y006930D02*
X013750Y006080D01*
X013480Y005810D01*
X013439Y005763D01*
X013440Y005760D01*
X014200Y005000D01*
X014430Y005000D01*
X014434Y004992D01*
X015810Y004430D02*
X017040Y003200D01*
X017040Y003194D01*
X015810Y004430D02*
X015810Y006820D01*
X015752Y006930D01*
X015790Y006880D01*
X015760Y006930D02*
X015752Y006930D01*
X015350Y007360D02*
X015580Y007590D01*
X016920Y007590D01*
X017580Y006930D01*
X017752Y006930D01*
X013752Y006930D02*
X013750Y006930D01*
X009752Y006930D02*
X009750Y006930D01*
X009750Y006230D01*
X009360Y005840D01*
X009358Y005838D01*
X008750Y006230D02*
X008360Y005840D01*
X008358Y005838D01*
X008750Y006230D02*
X008750Y006930D01*
X008752Y006930D01*
X008160Y007170D02*
X008160Y006510D01*
X004680Y003030D01*
X004519Y003111D01*
X004520Y003110D01*
X005610Y002020D01*
X005615Y002028D01*
X004120Y003470D02*
X003590Y003470D01*
X003510Y003390D01*
X003510Y001970D01*
X003625Y002001D01*
X003620Y002000D01*
X002880Y001260D01*
X002440Y001260D01*
X002180Y001520D01*
X002180Y002480D01*
X002400Y002700D01*
X002400Y003110D01*
X002405Y003111D01*
X004120Y003470D02*
X007580Y006930D01*
X007752Y006930D01*
X008160Y007170D02*
X009750Y008760D01*
X009750Y009930D01*
X009752Y009930D01*
X008780Y009930D02*
X009810Y010960D01*
X009817Y010961D01*
X008817Y010961D02*
X008810Y010960D01*
X007780Y009930D01*
X007752Y009930D01*
X006780Y009930D02*
X007810Y010960D01*
X007817Y010961D01*
X006816Y010961D02*
X006770Y010940D01*
X005760Y009930D01*
X005752Y009930D01*
X006752Y009930D02*
X006780Y009930D01*
X008752Y009930D02*
X008780Y009930D01*
X005890Y007790D02*
X006750Y006930D01*
X006752Y006930D01*
X005890Y007790D02*
X004200Y007790D01*
X004050Y007940D01*
X004050Y007970D01*
X003100Y008920D01*
X003100Y009210D01*
X003091Y009218D01*
X003110Y009820D02*
X004310Y008620D01*
X004310Y008050D01*
X004110Y007590D02*
X005090Y007590D01*
X005750Y006930D01*
X005752Y006930D01*
X004110Y007590D02*
X003390Y008310D01*
X003100Y008310D01*
X003091Y008317D01*
X002421Y008317D02*
X002420Y008320D01*
X002420Y008620D01*
X002300Y008740D01*
X002421Y009218D02*
X002420Y009220D01*
X002420Y009520D01*
X002300Y009640D01*
X002420Y010120D02*
X002421Y010120D01*
X002420Y010120D02*
X002420Y010450D01*
X002350Y010520D01*
X003090Y010120D02*
X003091Y010120D01*
X003110Y010060D01*
X003110Y009820D01*
X003090Y010120D02*
X003090Y011000D01*
X003091Y011005D01*
X001180Y008006D02*
X001180Y008000D01*
X001920Y007260D01*
X001920Y005820D01*
X001790Y005690D01*
X001790Y005380D01*
X016150Y014780D02*
X016150Y015750D01*
X017090Y016690D01*
X017160Y016690D01*
X017163Y016700D01*
X017700Y016380D02*
X017240Y015920D01*
X017170Y015920D01*
X017163Y015912D01*
X017700Y016380D02*
X017700Y017060D01*
X017870Y017230D01*
X019080Y017230D01*
X019396Y017226D01*
X017160Y014340D02*
X017163Y014337D01*
X017160Y014340D02*
X016590Y014340D01*
X016560Y014370D01*
X017163Y013550D02*
X017170Y013550D01*
X017480Y013550D01*
X017920Y013110D01*
X018660Y013110D01*
X019396Y013706D01*
D31*
X008886Y012337D02*
X008880Y012330D01*
X008150Y012330D01*
X008020Y012200D01*
X007140Y012200D01*
X006380Y012960D01*
X006380Y013410D01*
X006230Y013560D01*
X006030Y013560D01*
X005870Y013400D01*
X005870Y013270D01*
X005868Y013230D01*
X005871Y013225D01*
X005871Y013025D01*
X005911Y012985D01*
X005922Y011496D01*
X005800Y010970D01*
X005796Y010961D01*
X005770Y010940D01*
X004760Y009930D01*
X004752Y009930D01*
X003850Y012779D02*
X003931Y012877D01*
X003930Y013020D01*
X003940Y013020D01*
X003979Y013211D01*
X003980Y013160D01*
X003980Y013020D01*
X003979Y012939D01*
X002607Y013614D02*
X002380Y013560D01*
X002370Y013593D02*
X002370Y013763D01*
X002460Y013870D01*
X002460Y014280D01*
X002413Y014284D01*
X002413Y013894D01*
X002410Y013840D01*
X002420Y013840D01*
X002369Y013755D01*
X002369Y014175D01*
X002527Y014165D01*
X002532Y013815D01*
X002410Y013850D01*
X002364Y013680D01*
X002364Y013660D01*
X002460Y013660D01*
X002460Y013600D01*
X002398Y013487D01*
X002398Y013637D01*
X002470Y013860D01*
X002544Y013860D01*
X002484Y013592D02*
X002370Y013593D01*
X005480Y013690D02*
X005660Y013510D01*
X005660Y013270D01*
X005671Y013230D01*
X005671Y013225D01*
X005671Y012885D01*
X005480Y013690D02*
X005480Y013870D01*
X005475Y013880D01*
D32*
X017163Y018274D02*
X017170Y018280D01*
X017170Y019240D01*
X017190Y019260D01*
X017192Y019270D01*
D33*
X019012Y019007D03*
X019010Y001042D03*
X001030Y001030D03*
X001031Y019005D03*
D34*
X005868Y013880D02*
X005916Y013874D01*
M02*
