G75*
%MOIN*%
%OFA0B0*%
%FSLAX24Y24*%
%IPPOS*%
%LPD*%
%AMOC8*
5,1,8,0,0,1.08239X$1,22.5*
%
%ADD10C,0.0000*%
%ADD11R,0.0630X0.0551*%
%ADD12R,0.0433X0.0394*%
%ADD13R,0.0787X0.0512*%
%ADD14R,0.0394X0.0433*%
%ADD15R,0.0217X0.0472*%
%ADD16R,0.0748X0.0512*%
%ADD17R,0.0112X0.0276*%
%ADD18R,0.0673X0.0157*%
%ADD19R,0.0575X0.0787*%
%ADD20R,0.0984X0.0541*%
%ADD21R,0.1252X0.0962*%
%ADD22R,0.1252X0.0962*%
%ADD23R,0.0544X0.0530*%
%ADD24R,0.0544X0.0530*%
%ADD25R,0.0500X0.0500*%
D10*
X000180Y000180D02*
X000180Y019865D01*
X019865Y019865D01*
X019865Y000180D01*
X000180Y000180D01*
D11*
X018288Y013535D03*
X018288Y014638D03*
D12*
X018144Y016072D03*
X018813Y016072D03*
X018813Y016885D03*
X018144Y016885D03*
X013462Y008930D03*
X012792Y008930D03*
X011834Y008940D03*
X011164Y008940D03*
X011462Y007907D03*
X010792Y007907D03*
X007434Y003765D03*
X007434Y003095D03*
X003091Y010120D03*
X002421Y010120D03*
X003629Y012451D03*
X004298Y012451D03*
X008679Y014262D03*
X009349Y014262D03*
X009754Y013006D03*
X009754Y012337D03*
X008886Y012337D03*
X008886Y013006D03*
X009898Y016937D03*
X009898Y017606D03*
X016309Y005890D03*
X016309Y005220D03*
D13*
X017163Y012763D03*
X017163Y013550D03*
X017163Y014337D03*
X017163Y015125D03*
X017163Y015912D03*
X017163Y016700D03*
X017163Y017487D03*
X017163Y018274D03*
X010864Y018274D03*
X010864Y017487D03*
X010864Y016700D03*
X010864Y015912D03*
X010864Y015125D03*
X010864Y014337D03*
X010864Y013550D03*
X010864Y012763D03*
D14*
X017309Y005890D03*
X017309Y005220D03*
X014434Y004992D03*
X014434Y004323D03*
X011184Y004323D03*
X011184Y004992D03*
X004519Y003111D03*
X003849Y003111D03*
X003075Y003111D03*
X002405Y003111D03*
X002421Y008317D03*
X003091Y008317D03*
X003091Y009218D03*
X002421Y009218D03*
X002421Y011005D03*
X003091Y011005D03*
D15*
X003605Y013211D03*
X003979Y013211D03*
X004353Y013211D03*
X004353Y014235D03*
X003605Y014235D03*
D16*
X012179Y005763D03*
X013439Y005763D03*
X013439Y003597D03*
X012179Y003597D03*
D17*
X005868Y013230D03*
X005671Y013230D03*
X005475Y013230D03*
X005475Y013880D03*
X005671Y013880D03*
X005868Y013880D03*
D18*
X002556Y014244D03*
X002556Y014500D03*
X002556Y014756D03*
X002556Y015012D03*
X002556Y015268D03*
D19*
X002607Y015898D03*
X002607Y013614D03*
D20*
X000970Y014387D03*
X000970Y015125D03*
D21*
X001591Y013463D03*
D22*
X001591Y016043D03*
D23*
X000692Y013246D03*
D24*
X000692Y016257D03*
D25*
X009235Y004318D03*
X009235Y003818D03*
M02*
