G75*
%MOIN*%
%OFA0B0*%
%FSLAX25Y25*%
%IPPOS*%
%LPD*%
%AMOC8*
5,1,8,0,0,1.08239X$1,22.5*
%
%ADD10C,0.01600*%
%ADD11R,0.06400X0.06400*%
%ADD12OC8,0.06400*%
%ADD13R,0.05912X0.06699*%
%ADD14R,0.04731X0.04337*%
%ADD15R,0.08274X0.05518*%
%ADD16OC8,0.08900*%
%ADD17C,0.16998*%
D10*
X0001800Y0001800D02*
X0198650Y0001800D01*
X0198650Y0198650D01*
X0001800Y0198650D01*
X0001800Y0001800D01*
D11*
X0117863Y0187528D03*
D12*
X0117863Y0177528D03*
X0107863Y0177528D03*
X0097863Y0177528D03*
X0087863Y0177528D03*
X0077863Y0177528D03*
X0067863Y0177528D03*
X0057863Y0177528D03*
X0047863Y0177528D03*
X0037863Y0177528D03*
X0027863Y0177528D03*
X0027863Y0187528D03*
X0037863Y0187528D03*
X0047863Y0187528D03*
X0057863Y0187528D03*
X0067863Y0187528D03*
X0077863Y0187528D03*
X0087863Y0187528D03*
X0097863Y0187528D03*
X0107863Y0187528D03*
D13*
X0176288Y0091800D03*
X0187312Y0091800D03*
D14*
X0185146Y0106800D03*
X0178454Y0106800D03*
X0178454Y0116800D03*
X0185146Y0116800D03*
X0087863Y0153454D03*
X0087863Y0160146D03*
D15*
X0100304Y0129359D03*
X0100304Y0121485D03*
X0100304Y0113611D03*
X0100304Y0105737D03*
X0100304Y0097863D03*
X0100304Y0089989D03*
X0100304Y0082115D03*
X0100304Y0074241D03*
X0163296Y0074241D03*
X0163296Y0082115D03*
X0163296Y0089989D03*
X0163296Y0097863D03*
X0163296Y0105737D03*
X0163296Y0113611D03*
X0163296Y0121485D03*
X0163296Y0129359D03*
D16*
X0191800Y0074300D03*
D17*
X0190116Y0010066D03*
X0010116Y0010066D03*
X0010308Y0190048D03*
X0190116Y0190066D03*
M02*
