%
M48
M72
T01C0.0197
T02C0.0320
T03C0.0360
T04C0.0400
T05C0.0433
T06C0.0590
T07C0.0630
T08C0.1260
%
T01
X8761Y3204
X9200Y3834
X10094Y10586
X9594Y12366
X1600Y4600
X1600Y5100
X4790Y17030
X5350Y11030
X2350Y7600
X11850Y3350
X10350Y3350
X9600Y7100
X9600Y6100
X10783Y13169
X9996Y8716
X8799Y4135
X8716Y13834
X9405Y13736
X8519Y16787
X4673Y13350
X8030Y5550
X1334Y6157
X3303Y6551
X2122Y4090
X2122Y6649
X6354Y3992
X17279Y3795
X8322Y18756
X5862Y17082
X9700Y7929
X9700Y10767
X9072Y12395
X7830Y16492
X6354Y19149
X1039Y4090
T02
X5153Y6930
X5853Y6230
X7351Y7170
X7351Y6170
T03
X6916Y14063
X7916Y14063
X5021Y14070
X4021Y14070
X18157Y12502
X19157Y12502
X16350Y4850
X15350Y4850
X14350Y4850
X13350Y4850
X12350Y4850
X11350Y4850
X10350Y4850
X9350Y4850
X8350Y4850
X7350Y4850
X6350Y4850
X5350Y4850
X4350Y4850
X3350Y4850
X3350Y1850
X4350Y1850
X5350Y1850
X6350Y1850
X7350Y1850
X8350Y1850
X9350Y1850
X10350Y1850
X11350Y1850
X12350Y1850
X13350Y1850
X14350Y1850
X15350Y1850
X16350Y1850
T04
X7280Y9422
X18753Y15208
X18753Y16988
X18753Y3397
X18753Y5177
X3804Y15589
X4804Y15589
X5804Y15589
X6804Y15589
X7804Y15589
X8804Y15589
X14380Y6269
X5350Y10143
X17371Y1258
X1413Y2712
X17600Y19350
T05
X18568Y8027
X18568Y9011
X18568Y9996
X2476Y10670
X2476Y11670
X1476Y10670
X1476Y11670
X2484Y8344
X2484Y9344
X1484Y8344
X1484Y9344
T06
X17773Y14718
X17773Y17478
X17773Y2907
X17773Y5667
T07
X17268Y10626
X17268Y7397
T08
X1201Y19175
X19182Y19177
X1200Y1200
X19179Y1212
M30
