%
M48
M72
T01C0.0120
T02C0.0157
T03C0.0160
T04C0.0320
T05C0.0360
T06C0.0400
T07C0.0433
T08C0.0590
T09C0.0630
T10C0.1260
%
T01
X11082Y11767
X12980Y8413
X1595Y4578
X8381Y13114
X9358Y12925
X7948Y2437
X2854Y5161
X622Y5306
X16854Y14397
X16854Y15641
X8673Y13279
X8429Y12689
X8350Y11263
X8027Y13185
X7783Y7681
X2696Y5680
X6177Y2744
X2684Y6056
X6838Y7082
X7507Y17681
X13618Y11161
X12271Y7846
X6657Y16389
X12295Y9846
X7193Y18507
X8208Y18752
X12326Y9468
T02
X1122Y7437
X1329Y6778
X1762Y3887
X2618Y3887
X16975Y11646
X15921Y10932
T03
X9279Y3322
X8720Y3849
T04
X16317Y4805
X15317Y4805
X14317Y4805
X13317Y4805
X12317Y4805
X11317Y4805
X10317Y4805
X9317Y4805
X8317Y4805
X7317Y4805
X6317Y4805
X5317Y4805
X4317Y4805
X3317Y4805
X3317Y1805
X4317Y1805
X5317Y1805
X6317Y1805
X7317Y1805
X8317Y1805
X9317Y1805
X10317Y1805
X11317Y1805
X12317Y1805
X13317Y1805
X14317Y1805
X15317Y1805
X16317Y1805
X5196Y7106
X5196Y6116
X17763Y12502
X18763Y12502
T05
X6916Y14063
X7916Y14063
X5021Y14070
X4021Y14070
T06
X17168Y18666
X7280Y9422
X5382Y10210
X18753Y14814
X18753Y16594
X18753Y3791
X18753Y5571
X3804Y15589
X4804Y15589
X5804Y15589
X6804Y15589
X7804Y15589
X8804Y15589
X14277Y6729
T07
X18568Y8027
X18568Y9011
X18568Y9996
X2476Y10670
X2476Y11670
X1476Y10670
X1476Y11670
X2484Y8344
X2484Y9344
X1484Y8344
X1484Y9344
T08
X17773Y14324
X17773Y17084
X17773Y3301
X17773Y6061
T09
X17268Y10626
X17268Y7397
T10
X1201Y19175
X19182Y19177
X1200Y1200
X19179Y1212
M30
