G75*
%MOIN*%
%OFA0B0*%
%FSLAX24Y24*%
%IPPOS*%
%LPD*%
%AMOC8*
5,1,8,0,0,1.08239X$1,22.5*
%
%ADD10C,0.0000*%
%ADD11OC8,0.0850*%
%ADD12C,0.0520*%
%ADD13C,0.0560*%
%ADD14C,0.0104*%
%ADD15OC8,0.0660*%
%ADD16OC8,0.0700*%
%ADD17C,0.0885*%
%ADD18C,0.0660*%
%ADD19R,0.1102X0.1102*%
%ADD20C,0.0600*%
%ADD21C,0.0650*%
%ADD22R,0.0112X0.0276*%
%ADD23C,0.0160*%
%ADD24C,0.0240*%
%ADD25C,0.0100*%
%ADD26C,0.0500*%
%ADD27C,0.0280*%
%ADD28C,0.0080*%
%ADD29C,0.0277*%
%ADD30C,0.1660*%
%ADD31C,0.0120*%
D10*
X000350Y000350D02*
X000350Y020035D01*
X020035Y020035D01*
X020035Y000350D01*
X000350Y000350D01*
X001267Y008344D02*
X001269Y008373D01*
X001275Y008401D01*
X001284Y008429D01*
X001297Y008455D01*
X001314Y008478D01*
X001333Y008500D01*
X001355Y008519D01*
X001380Y008534D01*
X001406Y008547D01*
X001434Y008555D01*
X001462Y008560D01*
X001491Y008561D01*
X001520Y008558D01*
X001548Y008551D01*
X001575Y008541D01*
X001601Y008527D01*
X001624Y008510D01*
X001645Y008490D01*
X001663Y008467D01*
X001678Y008442D01*
X001689Y008415D01*
X001697Y008387D01*
X001701Y008358D01*
X001701Y008330D01*
X001697Y008301D01*
X001689Y008273D01*
X001678Y008246D01*
X001663Y008221D01*
X001645Y008198D01*
X001624Y008178D01*
X001601Y008161D01*
X001575Y008147D01*
X001548Y008137D01*
X001520Y008130D01*
X001491Y008127D01*
X001462Y008128D01*
X001434Y008133D01*
X001406Y008141D01*
X001380Y008154D01*
X001355Y008169D01*
X001333Y008188D01*
X001314Y008210D01*
X001297Y008233D01*
X001284Y008259D01*
X001275Y008287D01*
X001269Y008315D01*
X001267Y008344D01*
X001267Y009344D02*
X001269Y009373D01*
X001275Y009401D01*
X001284Y009429D01*
X001297Y009455D01*
X001314Y009478D01*
X001333Y009500D01*
X001355Y009519D01*
X001380Y009534D01*
X001406Y009547D01*
X001434Y009555D01*
X001462Y009560D01*
X001491Y009561D01*
X001520Y009558D01*
X001548Y009551D01*
X001575Y009541D01*
X001601Y009527D01*
X001624Y009510D01*
X001645Y009490D01*
X001663Y009467D01*
X001678Y009442D01*
X001689Y009415D01*
X001697Y009387D01*
X001701Y009358D01*
X001701Y009330D01*
X001697Y009301D01*
X001689Y009273D01*
X001678Y009246D01*
X001663Y009221D01*
X001645Y009198D01*
X001624Y009178D01*
X001601Y009161D01*
X001575Y009147D01*
X001548Y009137D01*
X001520Y009130D01*
X001491Y009127D01*
X001462Y009128D01*
X001434Y009133D01*
X001406Y009141D01*
X001380Y009154D01*
X001355Y009169D01*
X001333Y009188D01*
X001314Y009210D01*
X001297Y009233D01*
X001284Y009259D01*
X001275Y009287D01*
X001269Y009315D01*
X001267Y009344D01*
X001259Y010670D02*
X001261Y010699D01*
X001267Y010727D01*
X001276Y010755D01*
X001289Y010781D01*
X001306Y010804D01*
X001325Y010826D01*
X001347Y010845D01*
X001372Y010860D01*
X001398Y010873D01*
X001426Y010881D01*
X001454Y010886D01*
X001483Y010887D01*
X001512Y010884D01*
X001540Y010877D01*
X001567Y010867D01*
X001593Y010853D01*
X001616Y010836D01*
X001637Y010816D01*
X001655Y010793D01*
X001670Y010768D01*
X001681Y010741D01*
X001689Y010713D01*
X001693Y010684D01*
X001693Y010656D01*
X001689Y010627D01*
X001681Y010599D01*
X001670Y010572D01*
X001655Y010547D01*
X001637Y010524D01*
X001616Y010504D01*
X001593Y010487D01*
X001567Y010473D01*
X001540Y010463D01*
X001512Y010456D01*
X001483Y010453D01*
X001454Y010454D01*
X001426Y010459D01*
X001398Y010467D01*
X001372Y010480D01*
X001347Y010495D01*
X001325Y010514D01*
X001306Y010536D01*
X001289Y010559D01*
X001276Y010585D01*
X001267Y010613D01*
X001261Y010641D01*
X001259Y010670D01*
X001259Y011670D02*
X001261Y011699D01*
X001267Y011727D01*
X001276Y011755D01*
X001289Y011781D01*
X001306Y011804D01*
X001325Y011826D01*
X001347Y011845D01*
X001372Y011860D01*
X001398Y011873D01*
X001426Y011881D01*
X001454Y011886D01*
X001483Y011887D01*
X001512Y011884D01*
X001540Y011877D01*
X001567Y011867D01*
X001593Y011853D01*
X001616Y011836D01*
X001637Y011816D01*
X001655Y011793D01*
X001670Y011768D01*
X001681Y011741D01*
X001689Y011713D01*
X001693Y011684D01*
X001693Y011656D01*
X001689Y011627D01*
X001681Y011599D01*
X001670Y011572D01*
X001655Y011547D01*
X001637Y011524D01*
X001616Y011504D01*
X001593Y011487D01*
X001567Y011473D01*
X001540Y011463D01*
X001512Y011456D01*
X001483Y011453D01*
X001454Y011454D01*
X001426Y011459D01*
X001398Y011467D01*
X001372Y011480D01*
X001347Y011495D01*
X001325Y011514D01*
X001306Y011536D01*
X001289Y011559D01*
X001276Y011585D01*
X001267Y011613D01*
X001261Y011641D01*
X001259Y011670D01*
D11*
X005382Y010210D03*
X007280Y009422D03*
X014277Y006729D03*
X017168Y018666D03*
D12*
X016317Y005065D02*
X016317Y004545D01*
X015317Y004545D02*
X015317Y005065D01*
X014317Y005065D02*
X014317Y004545D01*
X013317Y004545D02*
X013317Y005065D01*
X012317Y005065D02*
X012317Y004545D01*
X011317Y004545D02*
X011317Y005065D01*
X010317Y005065D02*
X010317Y004545D01*
X009317Y004545D02*
X009317Y005065D01*
X008317Y005065D02*
X008317Y004545D01*
X007317Y004545D02*
X007317Y005065D01*
X006317Y005065D02*
X006317Y004545D01*
X005317Y004545D02*
X005317Y005065D01*
X004317Y005065D02*
X004317Y004545D01*
X003317Y004545D02*
X003317Y005065D01*
X003317Y002065D02*
X003317Y001545D01*
X004317Y001545D02*
X004317Y002065D01*
X005317Y002065D02*
X005317Y001545D01*
X006317Y001545D02*
X006317Y002065D01*
X007317Y002065D02*
X007317Y001545D01*
X008317Y001545D02*
X008317Y002065D01*
X009317Y002065D02*
X009317Y001545D01*
X010317Y001545D02*
X010317Y002065D01*
X011317Y002065D02*
X011317Y001545D01*
X012317Y001545D02*
X012317Y002065D01*
X013317Y002065D02*
X013317Y001545D01*
X014317Y001545D02*
X014317Y002065D01*
X015317Y002065D02*
X015317Y001545D01*
X016317Y001545D02*
X016317Y002065D01*
D13*
X007916Y013783D02*
X007916Y014343D01*
X006916Y014343D02*
X006916Y013783D01*
X005021Y013790D02*
X005021Y014350D01*
X004021Y014350D02*
X004021Y013790D01*
D14*
X005041Y007072D02*
X004989Y007020D01*
X004989Y007192D01*
X005110Y007313D01*
X005282Y007313D01*
X005403Y007192D01*
X005403Y007020D01*
X005282Y006899D01*
X005110Y006899D01*
X004989Y007020D01*
X005067Y007052D01*
X005067Y007160D01*
X005142Y007235D01*
X005250Y007235D01*
X005325Y007160D01*
X005325Y007052D01*
X005250Y006977D01*
X005142Y006977D01*
X005067Y007052D01*
X005145Y007085D01*
X005145Y007127D01*
X005175Y007157D01*
X005217Y007157D01*
X005247Y007127D01*
X005247Y007085D01*
X005217Y007055D01*
X005175Y007055D01*
X005145Y007085D01*
X005041Y006082D02*
X004989Y006030D01*
X004989Y006202D01*
X005110Y006323D01*
X005282Y006323D01*
X005403Y006202D01*
X005403Y006030D01*
X005282Y005909D01*
X005110Y005909D01*
X004989Y006030D01*
X005067Y006062D01*
X005067Y006170D01*
X005142Y006245D01*
X005250Y006245D01*
X005325Y006170D01*
X005325Y006062D01*
X005250Y005987D01*
X005142Y005987D01*
X005067Y006062D01*
X005145Y006095D01*
X005145Y006137D01*
X005175Y006167D01*
X005217Y006167D01*
X005247Y006137D01*
X005247Y006095D01*
X005217Y006065D01*
X005175Y006065D01*
X005145Y006095D01*
D15*
X017763Y012502D03*
X018763Y012502D03*
D16*
X018753Y014814D03*
X018753Y016594D03*
X018753Y005571D03*
X018753Y003791D03*
D17*
X017773Y003301D03*
X017773Y006061D03*
X017773Y014324D03*
X017773Y017084D03*
D18*
X018568Y009996D03*
X018568Y009011D03*
X018568Y008027D03*
D19*
X017268Y007397D03*
X017268Y010626D03*
D20*
X008804Y015289D02*
X008804Y015889D01*
X007804Y015889D02*
X007804Y015289D01*
X006804Y015289D02*
X006804Y015889D01*
X005804Y015889D02*
X005804Y015289D01*
X004804Y015289D02*
X004804Y015889D01*
X003804Y015889D02*
X003804Y015289D01*
D21*
X002801Y011670D02*
X002151Y011670D01*
X002151Y010670D02*
X002801Y010670D01*
X002809Y009344D02*
X002160Y009344D01*
X002160Y008344D02*
X002809Y008344D01*
D22*
X001804Y006336D03*
X001696Y006336D03*
X001588Y006336D03*
X001481Y006336D03*
X001374Y006336D03*
X001588Y006148D03*
X001588Y005953D03*
X001785Y005953D03*
X001892Y005953D03*
X001999Y005953D03*
X002105Y005953D03*
X002214Y005953D03*
X002321Y005953D03*
X002320Y005304D03*
X002213Y005304D03*
X002104Y005304D03*
X001998Y005305D03*
X001891Y005305D03*
X001785Y005303D03*
X001588Y005303D03*
X001391Y005303D03*
X001286Y005304D03*
X001179Y005304D03*
X001070Y005304D03*
X000964Y005304D03*
X000857Y005304D03*
X001374Y004920D03*
X001481Y004920D03*
X001588Y004920D03*
X001696Y004920D03*
X001804Y004920D03*
X001588Y005083D03*
X001391Y005953D03*
X001282Y005953D03*
X001175Y005953D03*
X001066Y005953D03*
X000960Y005953D03*
X000853Y005953D03*
D23*
X000622Y005306D02*
X000633Y005240D01*
X000633Y005106D01*
X001444Y004295D01*
X001988Y004295D01*
X002854Y005161D01*
X002885Y005240D01*
X002885Y005468D01*
X003295Y005878D01*
X003295Y008547D01*
X002492Y009350D01*
X002484Y009344D01*
X006838Y007137D02*
X006838Y007082D01*
X006838Y007137D02*
X007830Y008130D01*
X017988Y008130D01*
X018090Y008027D01*
X018568Y008027D01*
X012980Y008413D02*
X012011Y009381D01*
X012011Y009964D01*
X012090Y010043D01*
X012090Y010822D01*
X011177Y011736D01*
X011161Y011736D01*
X011082Y011767D01*
X011082Y011830D01*
X008854Y014059D01*
X007917Y014059D01*
X007916Y014063D01*
X008555Y013563D02*
X008791Y013563D01*
X009358Y012996D01*
X009358Y012925D01*
X008381Y013114D02*
X008381Y013389D01*
X008555Y013563D01*
X005196Y006116D02*
X005193Y006114D01*
X004319Y005240D01*
X004319Y004807D01*
X004317Y004805D01*
X007948Y002437D02*
X008090Y002437D01*
X008145Y002492D01*
X009626Y002492D01*
X010311Y001807D01*
X010317Y001805D01*
X009279Y003322D02*
X008720Y003849D01*
D24*
X007948Y002437D03*
X006177Y002744D03*
X002854Y005161D03*
X002696Y005680D03*
X002684Y006056D03*
X001595Y004578D03*
X000622Y005306D03*
X006838Y007082D03*
X007783Y007681D03*
X012271Y007846D03*
X012980Y008413D03*
X012326Y009468D03*
X012295Y009846D03*
X013618Y011161D03*
X011082Y011767D03*
X009358Y012925D03*
X008673Y013279D03*
X008381Y013114D03*
X008027Y013185D03*
X008429Y012689D03*
X008350Y011263D03*
X006657Y016389D03*
X007507Y017681D03*
X007193Y018507D03*
X008208Y018752D03*
X016854Y015641D03*
X016854Y014397D03*
D25*
X002684Y006056D02*
X001785Y005953D01*
X001588Y005953D02*
X001588Y005626D01*
X001389Y005588D01*
X001390Y005336D01*
X001391Y005303D01*
X000622Y005306D01*
X001588Y005303D02*
X001592Y005303D01*
X001597Y004851D01*
X001595Y004578D01*
X001785Y005303D02*
X002365Y005303D01*
X002563Y005601D01*
X001588Y005953D02*
X001586Y005953D01*
D26*
X002190Y006420D02*
X002190Y006539D01*
X002139Y006660D01*
X002047Y006753D01*
X001925Y006804D01*
X001798Y006804D01*
X001798Y006871D01*
X001727Y007043D01*
X001595Y007175D01*
X001592Y007176D01*
X001561Y007273D01*
X001590Y007343D01*
X001590Y007530D01*
X001519Y007702D01*
X001444Y007777D01*
X001597Y007777D01*
X001741Y007837D01*
X001789Y007789D01*
X002029Y007689D01*
X002939Y007689D01*
X003180Y007789D01*
X003364Y007973D01*
X003464Y008214D01*
X003464Y008474D01*
X003364Y008715D01*
X003249Y008831D01*
X003255Y008836D01*
X003318Y008898D01*
X003372Y008968D01*
X003416Y009045D01*
X003450Y009127D01*
X003472Y009212D01*
X003484Y009300D01*
X003484Y009344D01*
X003484Y009388D01*
X003472Y009476D01*
X003450Y009561D01*
X003416Y009643D01*
X003372Y009720D01*
X003318Y009790D01*
X003255Y009852D01*
X003185Y009906D01*
X003108Y009950D01*
X003027Y009984D01*
X002941Y010007D01*
X002878Y010016D01*
X002931Y010016D01*
X003172Y010115D01*
X003356Y010299D01*
X003456Y010540D01*
X003456Y010801D01*
X003356Y011041D01*
X003227Y011170D01*
X003356Y011299D01*
X003456Y011540D01*
X003456Y011801D01*
X003356Y012041D01*
X003172Y012225D01*
X002931Y012325D01*
X002021Y012325D01*
X001781Y012225D01*
X001732Y012177D01*
X001589Y012237D01*
X001364Y012237D01*
X001155Y012151D01*
X000996Y011991D01*
X000910Y011783D01*
X000910Y011558D01*
X000996Y011349D01*
X001155Y011190D01*
X001203Y011170D01*
X001155Y011151D01*
X000996Y010991D01*
X000910Y010783D01*
X000910Y010558D01*
X000996Y010349D01*
X001155Y010190D01*
X001364Y010104D01*
X001589Y010104D01*
X001732Y010163D01*
X001781Y010115D01*
X002021Y010016D01*
X002091Y010016D01*
X002028Y010007D01*
X001942Y009984D01*
X001861Y009950D01*
X001784Y009906D01*
X001722Y009859D01*
X001597Y009910D01*
X001372Y009910D01*
X001164Y009824D01*
X001004Y009665D01*
X000918Y009457D01*
X000918Y009231D01*
X001004Y009023D01*
X001164Y008864D01*
X001211Y008844D01*
X001164Y008824D01*
X001164Y008825D02*
X000700Y008825D01*
X001004Y008665D02*
X000918Y008457D01*
X000918Y008231D01*
X001004Y008023D01*
X001122Y007905D01*
X001028Y007905D01*
X000856Y007834D01*
X000724Y007702D01*
X000700Y007644D01*
X000700Y018125D01*
X000753Y018094D01*
X001048Y018015D01*
X001353Y018015D01*
X001648Y018094D01*
X001913Y018247D01*
X002129Y018463D01*
X002282Y018727D01*
X002361Y019022D01*
X002361Y019328D01*
X002282Y019623D01*
X002246Y019685D01*
X015311Y019685D01*
X015298Y017775D01*
X017388Y017761D01*
X017336Y017739D01*
X017118Y017522D01*
X017001Y017238D01*
X017001Y016931D01*
X017118Y016647D01*
X017336Y016429D01*
X017620Y016312D01*
X017927Y016312D01*
X017959Y016325D01*
X017304Y015670D01*
X017304Y015731D01*
X017235Y015896D01*
X017109Y016023D01*
X016943Y016091D01*
X016764Y016091D01*
X016599Y016023D01*
X016472Y015896D01*
X016404Y015731D01*
X016404Y015552D01*
X016472Y015386D01*
X016484Y015375D01*
X016484Y014664D01*
X016472Y014652D01*
X016404Y014487D01*
X016404Y014308D01*
X011506Y014308D01*
X011007Y014807D02*
X016484Y014807D01*
X016404Y014308D02*
X016458Y014178D01*
X013988Y011708D01*
X013988Y011746D01*
X013931Y011882D01*
X013827Y011987D01*
X007924Y017890D01*
X007897Y017917D01*
X007889Y017936D01*
X007762Y018062D01*
X007597Y018131D01*
X007563Y018131D01*
X007563Y018241D01*
X007574Y018253D01*
X007627Y018382D01*
X007942Y018382D01*
X007953Y018370D01*
X008119Y018302D01*
X008298Y018302D01*
X008463Y018370D01*
X008590Y018497D01*
X008658Y018662D01*
X008658Y018841D01*
X008590Y019006D01*
X008463Y019133D01*
X008298Y019202D01*
X008119Y019202D01*
X007953Y019133D01*
X007942Y019122D01*
X007017Y019122D01*
X006881Y019065D01*
X006014Y018199D01*
X005910Y018095D01*
X005854Y017959D01*
X005854Y016519D01*
X005679Y016519D01*
X005447Y016423D01*
X005315Y016291D01*
X005294Y016319D01*
X005233Y016379D01*
X005166Y016431D01*
X005092Y016473D01*
X005013Y016506D01*
X004931Y016528D01*
X004847Y016539D01*
X004804Y016539D01*
X004804Y015589D01*
X004154Y015589D01*
X003804Y015589D01*
X003804Y015589D01*
X003154Y015589D01*
X003154Y015246D01*
X003165Y015162D01*
X003187Y015080D01*
X003220Y015001D01*
X003262Y014927D01*
X003314Y014860D01*
X003374Y014799D01*
X003442Y014747D01*
X003514Y014706D01*
X003504Y014695D01*
X003411Y014471D01*
X003411Y013669D01*
X003504Y013444D01*
X003675Y013273D01*
X003899Y013180D01*
X004142Y013180D01*
X004366Y013273D01*
X004521Y013427D01*
X004675Y013273D01*
X004899Y013180D01*
X005142Y013180D01*
X005366Y013273D01*
X005538Y013444D01*
X005631Y013669D01*
X005631Y014471D01*
X005538Y014695D01*
X005500Y014733D01*
X005679Y014659D01*
X005854Y014659D01*
X005854Y010833D01*
X005703Y010985D01*
X005382Y010985D01*
X005382Y010210D01*
X005382Y010210D01*
X005382Y010985D01*
X005061Y010985D01*
X004607Y010531D01*
X004607Y010210D01*
X005382Y010210D01*
X005382Y010210D01*
X004607Y010210D01*
X004607Y009889D01*
X005061Y009435D01*
X005195Y009435D01*
X003391Y007630D01*
X003334Y007494D01*
X003334Y005655D01*
X003200Y005655D01*
X003146Y005633D01*
X003146Y005769D01*
X003100Y005882D01*
X003134Y005966D01*
X003134Y006145D01*
X003066Y006311D01*
X002939Y006437D01*
X002774Y006506D01*
X002595Y006506D01*
X002430Y006437D01*
X002413Y006420D01*
X002190Y006420D01*
X001798Y006831D02*
X003334Y006831D01*
X003334Y007329D02*
X001584Y007329D01*
X001718Y007828D02*
X001750Y007828D01*
X000850Y007828D02*
X000700Y007828D01*
X000700Y008326D02*
X000918Y008326D01*
X001004Y008665D02*
X001164Y008824D01*
X000918Y009323D02*
X000700Y009323D01*
X000700Y009822D02*
X001161Y009822D01*
X001025Y010320D02*
X000700Y010320D01*
X000700Y010819D02*
X000924Y010819D01*
X001028Y011317D02*
X000700Y011317D01*
X000700Y011816D02*
X000923Y011816D01*
X000700Y012314D02*
X001994Y012314D01*
X002958Y012314D02*
X005854Y012314D01*
X005854Y012813D02*
X000700Y012813D01*
X000700Y013311D02*
X003637Y013311D01*
X003411Y013810D02*
X000700Y013810D01*
X000700Y014308D02*
X003411Y014308D01*
X003367Y014807D02*
X000700Y014807D01*
X000700Y015305D02*
X003154Y015305D01*
X003154Y015589D02*
X003804Y015589D01*
X003804Y015589D01*
X004804Y015589D01*
X004804Y015589D01*
X004804Y015589D01*
X004804Y016539D01*
X004761Y016539D01*
X004677Y016528D01*
X004595Y016506D01*
X004516Y016473D01*
X004442Y016431D01*
X004374Y016379D01*
X004314Y016319D01*
X004304Y016305D01*
X004294Y016319D01*
X004233Y016379D01*
X004166Y016431D01*
X004092Y016473D01*
X004013Y016506D01*
X003931Y016528D01*
X003847Y016539D01*
X003804Y016539D01*
X003804Y015589D01*
X003804Y015589D01*
X003804Y016539D01*
X003761Y016539D01*
X003677Y016528D01*
X003595Y016506D01*
X003516Y016473D01*
X003442Y016431D01*
X003374Y016379D01*
X003314Y016319D01*
X003262Y016251D01*
X003220Y016177D01*
X003187Y016098D01*
X003165Y016016D01*
X003154Y015932D01*
X003154Y015589D01*
X003154Y015804D02*
X000700Y015804D01*
X000700Y016302D02*
X003302Y016302D01*
X003804Y016302D02*
X003804Y016302D01*
X003804Y015804D02*
X003804Y015804D01*
X004804Y015804D02*
X004804Y015804D01*
X004804Y016302D02*
X004804Y016302D01*
X005306Y016302D02*
X005326Y016302D01*
X005854Y016801D02*
X000700Y016801D01*
X000700Y017299D02*
X005854Y017299D01*
X005854Y017798D02*
X000700Y017798D01*
X001962Y018296D02*
X006111Y018296D01*
X006610Y018795D02*
X002300Y018795D01*
X002361Y019293D02*
X015308Y019293D01*
X015305Y018795D02*
X008658Y018795D01*
X007592Y018296D02*
X015301Y018296D01*
X015298Y017798D02*
X008016Y017798D01*
X007924Y017890D02*
X007924Y017890D01*
X008515Y017299D02*
X017026Y017299D01*
X017055Y016801D02*
X009013Y016801D01*
X009512Y016302D02*
X017936Y016302D01*
X017438Y015804D02*
X017274Y015804D01*
X017986Y015305D02*
X018254Y015305D01*
X018053Y015104D02*
X018053Y015044D01*
X017927Y015097D01*
X017778Y015097D01*
X018595Y015914D01*
X019035Y015914D01*
X019433Y016313D01*
X019433Y016876D01*
X019035Y017274D01*
X018531Y017274D01*
X018428Y017522D01*
X018211Y017739D01*
X017949Y017848D01*
X017915Y019685D01*
X018136Y019685D01*
X018101Y019624D01*
X018022Y019329D01*
X018022Y019024D01*
X018101Y018729D01*
X018253Y018464D01*
X018469Y018248D01*
X018734Y018096D01*
X019029Y018017D01*
X019334Y018017D01*
X019629Y018096D01*
X019685Y018128D01*
X019685Y002260D01*
X019627Y002293D01*
X019332Y002372D01*
X019027Y002372D01*
X018732Y002293D01*
X018467Y002140D01*
X018251Y001924D01*
X018099Y001660D01*
X018019Y001365D01*
X018019Y001060D01*
X018099Y000765D01*
X018136Y000700D01*
X002251Y000700D01*
X002281Y000752D01*
X002360Y001047D01*
X002360Y001353D01*
X002281Y001648D01*
X002128Y001912D01*
X001912Y002128D01*
X001648Y002281D01*
X001353Y002360D01*
X001047Y002360D01*
X000752Y002281D01*
X000700Y002251D01*
X000700Y004851D01*
X000735Y004836D01*
X000948Y004836D01*
X000949Y004836D01*
X000988Y004836D01*
X000988Y004717D01*
X001038Y004596D01*
X001131Y004503D01*
X001145Y004497D01*
X001145Y004489D01*
X001214Y004323D01*
X001341Y004197D01*
X001389Y004177D01*
X001365Y004153D01*
X001293Y003980D01*
X001293Y003794D01*
X001365Y003622D01*
X001497Y003490D01*
X001669Y003418D01*
X001855Y003418D01*
X002028Y003490D01*
X002055Y003517D01*
X002325Y003517D01*
X002352Y003490D01*
X002524Y003418D01*
X002711Y003418D01*
X002883Y003490D01*
X003015Y003622D01*
X003086Y003794D01*
X003086Y003980D01*
X003075Y004007D01*
X003200Y003955D01*
X003334Y003955D01*
X003334Y002655D01*
X003200Y002655D01*
X002983Y002565D01*
X002817Y002399D01*
X002727Y002183D01*
X002727Y001428D01*
X002817Y001211D01*
X002983Y001045D01*
X003200Y000955D01*
X003435Y000955D01*
X003651Y001045D01*
X003817Y001211D01*
X003983Y001045D01*
X004200Y000955D01*
X004435Y000955D01*
X004651Y001045D01*
X004817Y001211D01*
X004983Y001045D01*
X005200Y000955D01*
X005435Y000955D01*
X005651Y001045D01*
X005817Y001211D01*
X005983Y001045D01*
X006200Y000955D01*
X006435Y000955D01*
X006651Y001045D01*
X006703Y001096D01*
X006951Y000847D01*
X007087Y000791D01*
X015550Y000791D01*
X015686Y000847D01*
X015790Y000951D01*
X015933Y001095D01*
X015983Y001045D01*
X016200Y000955D01*
X016435Y000955D01*
X016651Y001045D01*
X016817Y001211D01*
X016907Y001428D01*
X016907Y002183D01*
X016817Y002399D01*
X016651Y002565D01*
X016435Y002655D01*
X016200Y002655D01*
X015983Y002565D01*
X015817Y002400D01*
X015651Y002565D01*
X015435Y002655D01*
X015200Y002655D01*
X014983Y002565D01*
X014817Y002400D01*
X014651Y002565D01*
X014435Y002655D01*
X014200Y002655D01*
X013983Y002565D01*
X013817Y002400D01*
X013724Y002492D01*
X015023Y003791D01*
X015550Y003791D01*
X015686Y003847D01*
X015933Y004095D01*
X015983Y004045D01*
X016200Y003955D01*
X016435Y003955D01*
X016651Y004045D01*
X016817Y004211D01*
X016907Y004428D01*
X016907Y005183D01*
X016817Y005399D01*
X016724Y005492D01*
X017041Y005809D01*
X017118Y005623D01*
X017336Y005406D01*
X017620Y005288D01*
X017927Y005288D01*
X018073Y005349D01*
X018073Y005289D01*
X018472Y004891D01*
X019035Y004891D01*
X019433Y005289D01*
X019433Y005852D01*
X019035Y006251D01*
X018531Y006251D01*
X018428Y006498D01*
X018315Y006611D01*
X019229Y007525D01*
X019333Y007629D01*
X019389Y007765D01*
X019389Y008636D01*
X019333Y008772D01*
X019227Y008878D01*
X019228Y008880D01*
X019228Y009143D01*
X019127Y009385D01*
X019023Y009489D01*
X019080Y009546D01*
X019134Y009617D01*
X019179Y009694D01*
X019213Y009777D01*
X019236Y009863D01*
X019248Y009951D01*
X019248Y009996D01*
X019248Y010040D01*
X019236Y010129D01*
X019213Y010215D01*
X019179Y010297D01*
X019134Y010374D01*
X019080Y010445D01*
X019017Y010508D01*
X018946Y010562D01*
X018869Y010607D01*
X018787Y010641D01*
X018701Y010664D01*
X018612Y010676D01*
X018568Y010676D01*
X018568Y009996D01*
X018568Y009996D01*
X019248Y009996D01*
X018568Y009996D01*
X018568Y009996D01*
X018568Y010676D01*
X018523Y010676D01*
X018435Y010664D01*
X018349Y010641D01*
X018266Y010607D01*
X018189Y010562D01*
X018150Y010532D01*
X018150Y011242D01*
X018099Y011364D01*
X018007Y011457D01*
X017885Y011507D01*
X017425Y011507D01*
X017444Y011553D01*
X017444Y011739D01*
X017373Y011911D01*
X017241Y012043D01*
X017069Y012115D01*
X016882Y012115D01*
X016710Y012043D01*
X016681Y012014D01*
X015919Y012010D01*
X015846Y012010D01*
X015845Y012009D01*
X015844Y012009D01*
X015777Y011981D01*
X015710Y011953D01*
X015709Y011953D01*
X015708Y011952D01*
X015658Y011901D01*
X015606Y011849D01*
X015606Y011848D01*
X015605Y011848D01*
X015578Y011781D01*
X015550Y011713D01*
X015550Y011712D01*
X015549Y011711D01*
X015550Y011639D01*
X015550Y011546D01*
X015550Y011473D01*
X015550Y011400D01*
X015550Y011399D01*
X015550Y011224D01*
X015523Y011197D01*
X015452Y011025D01*
X015452Y010839D01*
X015523Y010666D01*
X015655Y010534D01*
X015828Y010463D01*
X016014Y010463D01*
X016186Y010534D01*
X016318Y010666D01*
X016387Y010833D01*
X016387Y010009D01*
X016437Y009887D01*
X016530Y009795D01*
X016652Y009744D01*
X017885Y009744D01*
X017928Y009762D01*
X017956Y009694D01*
X018001Y009617D01*
X018055Y009546D01*
X018112Y009489D01*
X018008Y009385D01*
X017908Y009143D01*
X017908Y008880D01*
X018008Y008638D01*
X018126Y008519D01*
X018124Y008517D01*
X018069Y008540D01*
X013415Y008540D01*
X013361Y008668D01*
X013235Y008794D01*
X013138Y008834D01*
X012723Y009250D01*
X012776Y009379D01*
X012776Y009450D01*
X017166Y013839D01*
X017336Y013669D01*
X017620Y013552D01*
X017927Y013552D01*
X018211Y013669D01*
X018428Y013887D01*
X018523Y014114D01*
X018753Y014114D01*
X018753Y014814D01*
X018753Y014814D01*
X018753Y014114D01*
X019043Y014114D01*
X019453Y014524D01*
X019453Y014814D01*
X018753Y014814D01*
X018753Y015514D01*
X018463Y015514D01*
X018053Y015104D01*
X018753Y015305D02*
X018753Y015305D01*
X018753Y015514D02*
X018753Y014814D01*
X018753Y014814D01*
X018753Y014814D01*
X019453Y014814D01*
X019453Y015104D01*
X019043Y015514D01*
X018753Y015514D01*
X018484Y015804D02*
X019685Y015804D01*
X019685Y016302D02*
X019423Y016302D01*
X019433Y016801D02*
X019685Y016801D01*
X019685Y017299D02*
X018521Y017299D01*
X018070Y017798D02*
X019685Y017798D01*
X018422Y018296D02*
X017941Y018296D01*
X017932Y018795D02*
X018083Y018795D01*
X018022Y019293D02*
X017922Y019293D01*
X016434Y015804D02*
X010010Y015804D01*
X010509Y015305D02*
X016484Y015305D01*
X018753Y014807D02*
X018753Y014807D01*
X018753Y014308D02*
X018753Y014308D01*
X019237Y014308D02*
X019685Y014308D01*
X019685Y014807D02*
X019453Y014807D01*
X019253Y015305D02*
X019685Y015305D01*
X019685Y013810D02*
X018351Y013810D01*
X018490Y013162D02*
X018263Y012935D01*
X018037Y013162D01*
X017490Y013162D01*
X017103Y012775D01*
X017103Y012228D01*
X017490Y011842D01*
X018037Y011842D01*
X018263Y012068D01*
X018490Y011842D01*
X019037Y011842D01*
X019423Y012228D01*
X019423Y012775D01*
X019037Y013162D01*
X018490Y013162D01*
X019386Y012813D02*
X019685Y012813D01*
X019685Y012314D02*
X019423Y012314D01*
X019685Y011816D02*
X017412Y011816D01*
X018119Y011317D02*
X019685Y011317D01*
X019685Y010819D02*
X018150Y010819D01*
X018568Y010320D02*
X018568Y010320D01*
X019166Y010320D02*
X019685Y010320D01*
X019685Y009822D02*
X019225Y009822D01*
X019153Y009323D02*
X019685Y009323D01*
X019685Y008825D02*
X019281Y008825D01*
X019389Y008326D02*
X019685Y008326D01*
X019685Y007828D02*
X019389Y007828D01*
X019685Y007329D02*
X019033Y007329D01*
X018535Y006831D02*
X019685Y006831D01*
X019685Y006332D02*
X018497Y006332D01*
X019433Y005834D02*
X019685Y005834D01*
X019685Y005335D02*
X019433Y005335D01*
X019685Y004837D02*
X016907Y004837D01*
X016870Y004338D02*
X018311Y004338D01*
X018463Y004491D02*
X018053Y004081D01*
X018053Y004021D01*
X017927Y004073D01*
X017620Y004073D01*
X017336Y003956D01*
X017118Y003738D01*
X017001Y003454D01*
X017001Y003147D01*
X017118Y002863D01*
X017336Y002646D01*
X017620Y002528D01*
X017927Y002528D01*
X018211Y002646D01*
X018428Y002863D01*
X018523Y003091D01*
X018753Y003091D01*
X018753Y003791D01*
X018753Y004491D01*
X018463Y004491D01*
X018753Y004491D02*
X018753Y003791D01*
X018753Y003791D01*
X018753Y003791D01*
X019453Y003791D01*
X019453Y004081D01*
X019043Y004491D01*
X018753Y004491D01*
X018753Y004338D02*
X018753Y004338D01*
X019196Y004338D02*
X019685Y004338D01*
X019685Y003840D02*
X019453Y003840D01*
X019453Y003791D02*
X018753Y003791D01*
X018753Y003791D01*
X018753Y003091D01*
X019043Y003091D01*
X019453Y003501D01*
X019453Y003791D01*
X019294Y003341D02*
X019685Y003341D01*
X019685Y002843D02*
X018408Y002843D01*
X018921Y002344D02*
X016840Y002344D01*
X016907Y001846D02*
X018206Y001846D01*
X018019Y001347D02*
X016874Y001347D01*
X015687Y000849D02*
X018076Y000849D01*
X019437Y002344D02*
X019685Y002344D01*
X018753Y003341D02*
X018753Y003341D01*
X018753Y003840D02*
X018753Y003840D01*
X017220Y003840D02*
X015667Y003840D01*
X014573Y003341D02*
X017001Y003341D01*
X017139Y002843D02*
X014074Y002843D01*
X010941Y002843D02*
X007309Y002843D01*
X007307Y002655D02*
X007317Y003695D01*
X007323Y003750D01*
X007318Y003768D01*
X007318Y003787D01*
X007297Y003838D01*
X007281Y003892D01*
X007270Y003906D01*
X007263Y003923D01*
X007231Y003955D01*
X007435Y003955D01*
X007651Y004045D01*
X007817Y004211D01*
X007983Y004045D01*
X008200Y003955D01*
X008435Y003955D01*
X008651Y004045D01*
X008811Y004204D01*
X008852Y004148D01*
X008920Y004080D01*
X008998Y004024D01*
X009083Y003980D01*
X009174Y003950D01*
X009269Y003935D01*
X009317Y003935D01*
X009317Y004805D01*
X008907Y004805D01*
X008907Y004805D01*
X009317Y004805D01*
X009317Y004805D01*
X009317Y004805D01*
X009317Y003935D01*
X009365Y003935D01*
X009460Y003950D01*
X009551Y003980D01*
X009637Y004024D01*
X009715Y004080D01*
X009717Y004082D01*
X010941Y002858D01*
X010941Y002523D01*
X010824Y002406D01*
X010783Y002463D01*
X010715Y002531D01*
X010637Y002587D01*
X010551Y002631D01*
X010460Y002660D01*
X010365Y002675D01*
X010317Y002675D01*
X010269Y002675D01*
X010174Y002660D01*
X010083Y002631D01*
X009998Y002587D01*
X009920Y002531D01*
X009852Y002463D01*
X009811Y002406D01*
X009651Y002565D01*
X009435Y002655D01*
X009200Y002655D01*
X008983Y002565D01*
X008817Y002400D01*
X008651Y002565D01*
X008435Y002655D01*
X008200Y002655D01*
X007983Y002565D01*
X007817Y002400D01*
X007651Y002565D01*
X007435Y002655D01*
X007307Y002655D01*
X007314Y003341D02*
X010458Y003341D01*
X009959Y003840D02*
X007297Y003840D01*
X009317Y004338D02*
X009317Y004338D01*
X009334Y004805D02*
X009317Y004805D01*
X009317Y005675D01*
X009269Y005675D01*
X009174Y005660D01*
X009083Y005631D01*
X008998Y005587D01*
X008920Y005531D01*
X008852Y005463D01*
X008811Y005406D01*
X008651Y005565D01*
X008435Y005655D01*
X008200Y005655D01*
X007983Y005565D01*
X007817Y005400D01*
X007651Y005565D01*
X007435Y005655D01*
X007200Y005655D01*
X006983Y005565D01*
X006964Y005546D01*
X006964Y006647D01*
X007093Y006701D01*
X007220Y006827D01*
X007288Y006993D01*
X007288Y007008D01*
X007565Y007284D01*
X007694Y007231D01*
X007873Y007231D01*
X008038Y007299D01*
X008165Y007426D01*
X008166Y007429D01*
X009197Y007429D01*
X009334Y007291D01*
X009334Y005675D01*
X009317Y005675D01*
X009317Y004805D01*
X009317Y004805D01*
X009317Y004805D01*
X009334Y004805D01*
X009334Y004805D01*
X009317Y004837D02*
X009317Y004837D01*
X009317Y005335D02*
X009317Y005335D01*
X009334Y005834D02*
X006964Y005834D01*
X006964Y006332D02*
X009334Y006332D01*
X009334Y006831D02*
X007221Y006831D01*
X008068Y007329D02*
X009297Y007329D01*
X008472Y008540D02*
X008987Y009054D01*
X009043Y009190D01*
X009043Y013013D01*
X009054Y013024D01*
X009123Y013190D01*
X009123Y013210D01*
X010632Y011700D01*
X010632Y011678D01*
X010701Y011512D01*
X010827Y011386D01*
X010993Y011317D01*
X011015Y011317D01*
X011680Y010653D01*
X011680Y010213D01*
X011664Y010196D01*
X011601Y010046D01*
X011601Y009300D01*
X011664Y009149D01*
X012274Y008540D01*
X008472Y008540D01*
X008757Y008825D02*
X011989Y008825D01*
X011601Y009323D02*
X009043Y009323D01*
X009043Y009822D02*
X011601Y009822D01*
X011680Y010320D02*
X009043Y010320D01*
X009043Y010819D02*
X011514Y010819D01*
X011016Y011317D02*
X009043Y011317D01*
X009043Y011816D02*
X010517Y011816D01*
X010019Y012314D02*
X009043Y012314D01*
X009043Y012813D02*
X009520Y012813D01*
X012004Y013810D02*
X016089Y013810D01*
X015591Y013311D02*
X012503Y013311D01*
X013001Y012813D02*
X015092Y012813D01*
X014594Y012314D02*
X013500Y012314D01*
X013827Y011987D02*
X013827Y011987D01*
X013959Y011816D02*
X014095Y011816D01*
X014643Y011317D02*
X015550Y011317D01*
X015550Y011546D02*
X015550Y011546D01*
X015592Y011816D02*
X015142Y011816D01*
X015640Y012314D02*
X017103Y012314D01*
X017141Y012813D02*
X016139Y012813D01*
X016637Y013311D02*
X019685Y013311D01*
X017196Y013810D02*
X017136Y013810D01*
X016387Y010819D02*
X016381Y010819D01*
X016387Y010320D02*
X013646Y010320D01*
X013148Y009822D02*
X016503Y009822D01*
X015460Y010819D02*
X014145Y010819D01*
X012753Y009323D02*
X017982Y009323D01*
X017931Y008825D02*
X013162Y008825D01*
X016844Y005335D02*
X017507Y005335D01*
X018040Y005335D02*
X018073Y005335D01*
X010317Y002675D02*
X010317Y001805D01*
X010317Y002675D01*
X010317Y002344D02*
X010317Y002344D01*
X010317Y001846D02*
X010317Y001846D01*
X010317Y001805D02*
X010317Y001805D01*
X006950Y000849D02*
X002307Y000849D01*
X002360Y001347D02*
X002761Y001347D01*
X002727Y001846D02*
X002167Y001846D01*
X002794Y002344D02*
X001412Y002344D01*
X000988Y002344D02*
X000700Y002344D01*
X000700Y002843D02*
X003334Y002843D01*
X003334Y003341D02*
X000700Y003341D01*
X000700Y003840D02*
X001293Y003840D01*
X001208Y004338D02*
X000700Y004338D01*
X000700Y004837D02*
X000734Y004837D01*
X003086Y003840D02*
X003334Y003840D01*
X003334Y005834D02*
X003120Y005834D01*
X003045Y006332D02*
X003334Y006332D01*
X003219Y007828D02*
X003588Y007828D01*
X003464Y008326D02*
X004086Y008326D01*
X004585Y008825D02*
X003255Y008825D01*
X003484Y009323D02*
X005083Y009323D01*
X004674Y009822D02*
X003286Y009822D01*
X003365Y010320D02*
X004607Y010320D01*
X005382Y010320D02*
X005382Y010320D01*
X005382Y010819D02*
X005382Y010819D01*
X004895Y010819D02*
X003448Y010819D01*
X003363Y011317D02*
X005854Y011317D01*
X005854Y011816D02*
X003450Y011816D01*
X004405Y013311D02*
X004637Y013311D01*
X005405Y013311D02*
X005854Y013311D01*
X005854Y013810D02*
X005631Y013810D01*
X005631Y014308D02*
X005854Y014308D01*
X003484Y009344D02*
X002484Y009344D01*
X002484Y009344D01*
X003484Y009344D01*
D27*
X008720Y003849D03*
X009279Y003322D03*
D28*
X009704Y004618D02*
X009704Y007444D01*
X009350Y007799D01*
X007901Y007799D01*
X007783Y007681D01*
X006594Y007185D02*
X006594Y005326D01*
X006726Y005215D01*
X006730Y004988D01*
X006730Y004047D01*
X006720Y003841D01*
X006947Y003717D01*
X006933Y002185D01*
X007311Y001807D01*
X007317Y001805D01*
X006704Y001618D02*
X006704Y002216D01*
X006177Y002744D01*
X005933Y002185D02*
X006311Y001807D01*
X006317Y001805D01*
X006704Y001618D02*
X007161Y001161D01*
X015476Y001161D01*
X016114Y001799D01*
X016311Y001799D01*
X016317Y001805D01*
X015476Y004161D02*
X014870Y004161D01*
X012515Y001807D01*
X012319Y001807D01*
X012317Y001805D01*
X011317Y001805D02*
X011311Y001807D01*
X011311Y003011D01*
X009704Y004618D01*
X006319Y004807D02*
X006317Y004805D01*
X006319Y004807D02*
X006319Y008460D01*
X007279Y009421D01*
X007280Y009422D01*
X006484Y009397D02*
X006484Y008854D01*
X005933Y008303D01*
X005933Y002185D01*
X005744Y002232D02*
X005319Y001807D01*
X005317Y001805D01*
X005744Y002232D02*
X005744Y009004D01*
X008429Y011689D01*
X008429Y012689D01*
X008027Y013185D02*
X008027Y011515D01*
X005578Y009067D01*
X005578Y005870D01*
X004704Y004996D01*
X004704Y002193D01*
X004319Y001807D01*
X004317Y001805D01*
X003704Y002193D02*
X003319Y001807D01*
X003317Y001805D01*
X003704Y002193D02*
X003704Y007421D01*
X006224Y009941D01*
X006224Y017885D01*
X007090Y018752D01*
X008208Y018752D01*
X007193Y018507D02*
X007193Y017200D01*
X008799Y015594D01*
X008804Y015589D01*
X008452Y014744D02*
X007752Y014744D01*
X007381Y015114D01*
X007381Y015909D01*
X006901Y016389D01*
X006657Y016389D01*
X007507Y017681D02*
X007610Y017681D01*
X013618Y011673D01*
X013618Y011161D01*
X012295Y010901D02*
X012295Y009846D01*
X012311Y009507D02*
X012326Y009468D01*
X012311Y009507D02*
X017208Y014405D01*
X017208Y015051D01*
X018752Y016594D01*
X018753Y016594D01*
X016854Y015641D02*
X016854Y014397D01*
X016975Y011646D02*
X015920Y011640D01*
X015920Y011473D01*
X015921Y010932D01*
X018568Y009011D02*
X018570Y009011D01*
X019019Y008563D01*
X019019Y007838D01*
X017901Y006720D01*
X017429Y006720D01*
X015933Y005224D01*
X015933Y004618D01*
X015476Y004161D01*
X015317Y004805D02*
X015311Y004807D01*
X012271Y007846D01*
X008673Y009263D02*
X006594Y007185D01*
X008673Y009263D02*
X008673Y013279D01*
X008452Y014744D02*
X012295Y010901D01*
X008350Y011263D02*
X006484Y009397D01*
X001122Y007437D02*
X001329Y006778D01*
X001762Y003887D02*
X002618Y003887D01*
D29*
X002618Y003887D03*
X001762Y003887D03*
X001329Y006778D03*
X001122Y007437D03*
X015921Y010932D03*
X016975Y011646D03*
D30*
X019182Y019177D03*
X001201Y019175D03*
X001200Y001200D03*
X019179Y001212D03*
D31*
X002696Y005680D02*
X002563Y005601D01*
M02*
