G75*
%MOIN*%
%OFA0B0*%
%FSLAX24Y24*%
%IPPOS*%
%LPD*%
%AMOC8*
5,1,8,0,0,1.08239X$1,22.5*
%
%ADD10C,0.0000*%
%ADD11C,0.0040*%
%ADD12C,0.0080*%
%ADD13C,0.0050*%
%ADD14C,0.0060*%
%ADD15C,0.0079*%
%ADD16C,0.0030*%
D10*
X000350Y000350D02*
X000350Y020035D01*
X020035Y020035D01*
X020035Y000350D01*
X000350Y000350D01*
X001267Y008344D02*
X001269Y008373D01*
X001275Y008401D01*
X001284Y008429D01*
X001297Y008455D01*
X001314Y008478D01*
X001333Y008500D01*
X001355Y008519D01*
X001380Y008534D01*
X001406Y008547D01*
X001434Y008555D01*
X001462Y008560D01*
X001491Y008561D01*
X001520Y008558D01*
X001548Y008551D01*
X001575Y008541D01*
X001601Y008527D01*
X001624Y008510D01*
X001645Y008490D01*
X001663Y008467D01*
X001678Y008442D01*
X001689Y008415D01*
X001697Y008387D01*
X001701Y008358D01*
X001701Y008330D01*
X001697Y008301D01*
X001689Y008273D01*
X001678Y008246D01*
X001663Y008221D01*
X001645Y008198D01*
X001624Y008178D01*
X001601Y008161D01*
X001575Y008147D01*
X001548Y008137D01*
X001520Y008130D01*
X001491Y008127D01*
X001462Y008128D01*
X001434Y008133D01*
X001406Y008141D01*
X001380Y008154D01*
X001355Y008169D01*
X001333Y008188D01*
X001314Y008210D01*
X001297Y008233D01*
X001284Y008259D01*
X001275Y008287D01*
X001269Y008315D01*
X001267Y008344D01*
X001267Y009344D02*
X001269Y009373D01*
X001275Y009401D01*
X001284Y009429D01*
X001297Y009455D01*
X001314Y009478D01*
X001333Y009500D01*
X001355Y009519D01*
X001380Y009534D01*
X001406Y009547D01*
X001434Y009555D01*
X001462Y009560D01*
X001491Y009561D01*
X001520Y009558D01*
X001548Y009551D01*
X001575Y009541D01*
X001601Y009527D01*
X001624Y009510D01*
X001645Y009490D01*
X001663Y009467D01*
X001678Y009442D01*
X001689Y009415D01*
X001697Y009387D01*
X001701Y009358D01*
X001701Y009330D01*
X001697Y009301D01*
X001689Y009273D01*
X001678Y009246D01*
X001663Y009221D01*
X001645Y009198D01*
X001624Y009178D01*
X001601Y009161D01*
X001575Y009147D01*
X001548Y009137D01*
X001520Y009130D01*
X001491Y009127D01*
X001462Y009128D01*
X001434Y009133D01*
X001406Y009141D01*
X001380Y009154D01*
X001355Y009169D01*
X001333Y009188D01*
X001314Y009210D01*
X001297Y009233D01*
X001284Y009259D01*
X001275Y009287D01*
X001269Y009315D01*
X001267Y009344D01*
X001259Y010670D02*
X001261Y010699D01*
X001267Y010727D01*
X001276Y010755D01*
X001289Y010781D01*
X001306Y010804D01*
X001325Y010826D01*
X001347Y010845D01*
X001372Y010860D01*
X001398Y010873D01*
X001426Y010881D01*
X001454Y010886D01*
X001483Y010887D01*
X001512Y010884D01*
X001540Y010877D01*
X001567Y010867D01*
X001593Y010853D01*
X001616Y010836D01*
X001637Y010816D01*
X001655Y010793D01*
X001670Y010768D01*
X001681Y010741D01*
X001689Y010713D01*
X001693Y010684D01*
X001693Y010656D01*
X001689Y010627D01*
X001681Y010599D01*
X001670Y010572D01*
X001655Y010547D01*
X001637Y010524D01*
X001616Y010504D01*
X001593Y010487D01*
X001567Y010473D01*
X001540Y010463D01*
X001512Y010456D01*
X001483Y010453D01*
X001454Y010454D01*
X001426Y010459D01*
X001398Y010467D01*
X001372Y010480D01*
X001347Y010495D01*
X001325Y010514D01*
X001306Y010536D01*
X001289Y010559D01*
X001276Y010585D01*
X001267Y010613D01*
X001261Y010641D01*
X001259Y010670D01*
X001259Y011670D02*
X001261Y011699D01*
X001267Y011727D01*
X001276Y011755D01*
X001289Y011781D01*
X001306Y011804D01*
X001325Y011826D01*
X001347Y011845D01*
X001372Y011860D01*
X001398Y011873D01*
X001426Y011881D01*
X001454Y011886D01*
X001483Y011887D01*
X001512Y011884D01*
X001540Y011877D01*
X001567Y011867D01*
X001593Y011853D01*
X001616Y011836D01*
X001637Y011816D01*
X001655Y011793D01*
X001670Y011768D01*
X001681Y011741D01*
X001689Y011713D01*
X001693Y011684D01*
X001693Y011656D01*
X001689Y011627D01*
X001681Y011599D01*
X001670Y011572D01*
X001655Y011547D01*
X001637Y011524D01*
X001616Y011504D01*
X001593Y011487D01*
X001567Y011473D01*
X001540Y011463D01*
X001512Y011456D01*
X001483Y011453D01*
X001454Y011454D01*
X001426Y011459D01*
X001398Y011467D01*
X001372Y011480D01*
X001347Y011495D01*
X001325Y011514D01*
X001306Y011536D01*
X001289Y011559D01*
X001276Y011585D01*
X001267Y011613D01*
X001261Y011641D01*
X001259Y011670D01*
D11*
X004323Y012230D02*
X004323Y012348D01*
X004382Y012407D01*
X004323Y012533D02*
X004323Y012769D01*
X004323Y012651D02*
X004677Y012651D01*
X004559Y012533D01*
X004618Y012407D02*
X004677Y012348D01*
X004677Y012230D01*
X004618Y012171D01*
X004382Y012171D01*
X004323Y012230D01*
X006434Y012312D02*
X006434Y012430D01*
X006493Y012489D01*
X006788Y012489D01*
X006670Y012616D02*
X006788Y012734D01*
X006434Y012734D01*
X006434Y012616D02*
X006434Y012852D01*
X006434Y012312D02*
X006493Y012253D01*
X006788Y012253D01*
X008371Y012234D02*
X008371Y012352D01*
X008430Y012411D01*
X008371Y012537D02*
X008607Y012773D01*
X008666Y012773D01*
X008725Y012714D01*
X008725Y012596D01*
X008666Y012537D01*
X008666Y012411D02*
X008725Y012352D01*
X008725Y012234D01*
X008666Y012175D01*
X008430Y012175D01*
X008371Y012234D01*
X008371Y012537D02*
X008371Y012773D01*
X009604Y012086D02*
X009604Y011968D01*
X009663Y011909D01*
X009722Y011909D01*
X009781Y011968D01*
X009781Y012086D01*
X009722Y012145D01*
X009663Y012145D01*
X009604Y012086D01*
X009781Y012086D02*
X009840Y012145D01*
X009899Y012145D01*
X009958Y012086D01*
X009958Y011968D01*
X009899Y011909D01*
X009840Y011909D01*
X009781Y011968D01*
X009663Y011783D02*
X009604Y011724D01*
X009604Y011606D01*
X009663Y011547D01*
X009899Y011547D01*
X009958Y011606D01*
X009958Y011724D01*
X009899Y011783D01*
X012500Y011808D02*
X012559Y011867D01*
X012500Y011808D02*
X012500Y011690D01*
X012559Y011631D01*
X012795Y011631D01*
X012854Y011690D01*
X012854Y011808D01*
X012795Y011867D01*
X012677Y011993D02*
X012677Y012229D01*
X012500Y012170D02*
X012854Y012170D01*
X012677Y011993D01*
X014137Y011958D02*
X014196Y011958D01*
X014432Y012194D01*
X014491Y012194D01*
X014491Y011958D01*
X014432Y011832D02*
X014491Y011773D01*
X014491Y011655D01*
X014432Y011596D01*
X014196Y011596D01*
X014137Y011655D01*
X014137Y011773D01*
X014196Y011832D01*
X015099Y010354D02*
X014863Y010118D01*
X014804Y010118D01*
X014804Y009991D02*
X014922Y009873D01*
X014922Y009932D02*
X014922Y009755D01*
X014804Y009755D02*
X015158Y009755D01*
X015158Y009932D01*
X015099Y009991D01*
X014981Y009991D01*
X014922Y009932D01*
X015158Y010118D02*
X015158Y010354D01*
X015099Y010354D01*
X007369Y007033D02*
X007369Y006679D01*
X007369Y006797D02*
X007192Y006797D01*
X007133Y006856D01*
X007133Y006974D01*
X007192Y007033D01*
X007369Y007033D01*
X007251Y006797D02*
X007133Y006679D01*
X007007Y006679D02*
X006771Y006679D01*
X006889Y006679D02*
X006889Y007033D01*
X007007Y006915D01*
X003076Y006025D02*
X003076Y005907D01*
X003017Y005848D01*
X002958Y005848D01*
X002899Y005907D01*
X002899Y006025D01*
X002840Y006084D01*
X002781Y006084D01*
X002722Y006025D01*
X002722Y005907D01*
X002781Y005848D01*
X002840Y005848D01*
X002899Y005907D01*
X002899Y006025D02*
X002958Y006084D01*
X003017Y006084D01*
X003076Y006025D01*
X003017Y005721D02*
X002899Y005721D01*
X002840Y005662D01*
X002840Y005485D01*
X002722Y005485D02*
X003076Y005485D01*
X003076Y005662D01*
X003017Y005721D01*
X002840Y005603D02*
X002722Y005721D01*
X001690Y005164D02*
X001336Y005164D01*
X001336Y005282D02*
X001336Y005046D01*
X001336Y004920D02*
X001454Y004802D01*
X001336Y004684D01*
X001690Y004684D01*
X001690Y004557D02*
X001336Y004557D01*
X001336Y004380D01*
X001395Y004321D01*
X001513Y004321D01*
X001572Y004380D01*
X001572Y004557D01*
X001804Y004592D02*
X001804Y005026D01*
X001904Y005026D02*
X001904Y004592D01*
X001690Y004920D02*
X001336Y004920D01*
X002604Y005026D02*
X002604Y004592D01*
X006294Y002931D02*
X006294Y002695D01*
X006353Y002636D01*
X006471Y002636D01*
X006530Y002695D01*
X006294Y002931D01*
X006353Y002990D01*
X006471Y002990D01*
X006530Y002931D01*
X006530Y002695D01*
X006656Y002636D02*
X006892Y002636D01*
X006774Y002636D02*
X006774Y002990D01*
X006892Y002872D01*
X007019Y002931D02*
X007078Y002990D01*
X007196Y002990D01*
X007255Y002931D01*
X007255Y002695D01*
X007196Y002636D01*
X007078Y002636D01*
X007019Y002695D01*
X006939Y000993D02*
X006821Y000993D01*
X006762Y000934D01*
X006762Y000875D01*
X006821Y000816D01*
X006762Y000757D01*
X006762Y000698D01*
X006821Y000639D01*
X006939Y000639D01*
X006998Y000698D01*
X006880Y000816D02*
X006821Y000816D01*
X006635Y000816D02*
X006635Y000698D01*
X006576Y000639D01*
X006399Y000639D01*
X006399Y000993D01*
X006399Y000875D02*
X006576Y000875D01*
X006635Y000816D01*
X006939Y000993D02*
X006998Y000934D01*
X007124Y000993D02*
X007360Y000639D01*
X007484Y000639D02*
X007602Y000639D01*
X007543Y000639D02*
X007543Y000993D01*
X007602Y000993D01*
X007728Y000875D02*
X007905Y000875D01*
X007964Y000816D01*
X007964Y000698D01*
X007905Y000639D01*
X007728Y000639D01*
X007728Y000580D02*
X007728Y000875D01*
X008087Y000698D02*
X008087Y000639D01*
X008146Y000639D01*
X008146Y000698D01*
X008087Y000698D01*
X008272Y000698D02*
X008272Y000816D01*
X008331Y000875D01*
X008449Y000875D01*
X008508Y000816D01*
X008508Y000698D01*
X008449Y000639D01*
X008331Y000639D01*
X008272Y000698D01*
X007846Y000521D02*
X007787Y000521D01*
X007728Y000580D01*
X008635Y000698D02*
X008635Y000816D01*
X008694Y000875D01*
X008812Y000875D01*
X008871Y000816D01*
X008871Y000698D01*
X008812Y000639D01*
X008694Y000639D01*
X008635Y000698D01*
X008997Y000639D02*
X009174Y000639D01*
X009233Y000698D01*
X009233Y000816D01*
X009174Y000875D01*
X008997Y000875D01*
X008997Y000580D01*
X009056Y000521D01*
X009115Y000521D01*
X009596Y000639D02*
X009360Y000993D01*
X009722Y000993D02*
X009958Y000639D01*
X010080Y000639D02*
X010139Y000639D01*
X010139Y000698D01*
X010080Y000698D01*
X010080Y000639D01*
X010080Y000816D02*
X010139Y000816D01*
X010139Y000875D01*
X010080Y000875D01*
X010080Y000816D01*
X010266Y000816D02*
X010266Y000698D01*
X010325Y000639D01*
X010502Y000639D01*
X010502Y000521D02*
X010502Y000875D01*
X010325Y000875D01*
X010266Y000816D01*
X010626Y000875D02*
X010744Y000875D01*
X010685Y000934D02*
X010685Y000698D01*
X010626Y000639D01*
X010867Y000639D02*
X010926Y000698D01*
X010926Y000934D01*
X010985Y000875D02*
X010867Y000875D01*
X011112Y000816D02*
X011112Y000639D01*
X011112Y000816D02*
X011171Y000875D01*
X011289Y000875D01*
X011348Y000816D01*
X011348Y000993D02*
X011348Y000639D01*
X011832Y000639D02*
X011891Y000639D01*
X011891Y000698D01*
X011832Y000698D01*
X011832Y000639D01*
X011832Y000816D02*
X011891Y000816D01*
X011891Y000875D01*
X011832Y000875D01*
X011832Y000816D01*
X012018Y000816D02*
X012018Y000757D01*
X012254Y000757D01*
X012254Y000698D02*
X012254Y000816D01*
X012195Y000875D01*
X012077Y000875D01*
X012018Y000816D01*
X012077Y000639D02*
X012195Y000639D01*
X012254Y000698D01*
X012381Y000698D02*
X012440Y000757D01*
X012558Y000757D01*
X012617Y000816D01*
X012558Y000875D01*
X012381Y000875D01*
X012381Y000698D02*
X012440Y000639D01*
X012617Y000639D01*
X012743Y000639D02*
X012743Y000816D01*
X012802Y000875D01*
X012979Y000875D01*
X012979Y000639D01*
X013106Y000757D02*
X013106Y000816D01*
X013165Y000875D01*
X013283Y000875D01*
X013342Y000816D01*
X013342Y000698D01*
X013283Y000639D01*
X013165Y000639D01*
X013106Y000757D02*
X013342Y000757D01*
X013468Y000639D02*
X013645Y000639D01*
X013704Y000698D01*
X013704Y000816D01*
X013645Y000875D01*
X013468Y000875D01*
X013887Y000875D02*
X013887Y000639D01*
X013946Y000639D02*
X013828Y000639D01*
X013887Y000875D02*
X013946Y000875D01*
X013887Y000993D02*
X013887Y001052D01*
X014308Y000993D02*
X014308Y000639D01*
X014072Y000639D01*
X011272Y002673D02*
X011213Y002614D01*
X011095Y002614D01*
X011036Y002673D01*
X010910Y002614D02*
X010674Y002614D01*
X010792Y002614D02*
X010792Y002968D01*
X010910Y002850D01*
X011036Y002909D02*
X011095Y002968D01*
X011213Y002968D01*
X011272Y002909D01*
X011272Y002673D01*
X010547Y002614D02*
X010311Y002850D01*
X010311Y002909D01*
X010370Y002968D01*
X010488Y002968D01*
X010547Y002909D01*
X010547Y002614D02*
X010311Y002614D01*
X011731Y003692D02*
X011790Y003633D01*
X011908Y003633D01*
X011967Y003692D01*
X012094Y003692D02*
X012153Y003633D01*
X012271Y003633D01*
X012330Y003692D01*
X012330Y003928D01*
X012271Y003987D01*
X012153Y003987D01*
X012094Y003928D01*
X011967Y003928D02*
X011967Y003869D01*
X011908Y003810D01*
X011731Y003810D01*
X011731Y003692D02*
X011731Y003928D01*
X011790Y003987D01*
X011908Y003987D01*
X011967Y003928D01*
X006273Y000993D02*
X006037Y000993D01*
X006037Y000934D01*
X006273Y000698D01*
X006273Y000639D01*
X005910Y000639D02*
X005674Y000639D01*
X005792Y000639D02*
X005792Y000993D01*
X005910Y000875D01*
X005547Y000993D02*
X005547Y000698D01*
X005488Y000639D01*
X005370Y000639D01*
X005311Y000698D01*
X005311Y000993D01*
X005067Y000993D02*
X004949Y000993D01*
X005008Y000993D02*
X005008Y000698D01*
X005067Y000639D01*
X005126Y000639D01*
X005185Y000698D01*
X003956Y016772D02*
X003720Y016772D01*
X003661Y016831D01*
X003661Y016949D01*
X003720Y017008D01*
X003661Y017135D02*
X003661Y017371D01*
X003661Y017253D02*
X004015Y017253D01*
X003897Y017135D01*
X003956Y017008D02*
X004015Y016949D01*
X004015Y016831D01*
X003956Y016772D01*
X004638Y017135D02*
X004992Y017135D01*
X004992Y017312D01*
X004933Y017371D01*
X004815Y017371D01*
X004756Y017312D01*
X004756Y017135D01*
X004756Y017253D02*
X004638Y017371D01*
X004697Y017497D02*
X004638Y017556D01*
X004638Y017674D01*
X004697Y017733D01*
X004815Y017733D01*
X004874Y017674D01*
X004874Y017615D01*
X004815Y017497D01*
X004992Y017497D01*
X004992Y017733D01*
X005647Y017672D02*
X006001Y017672D01*
X005824Y017495D01*
X005824Y017731D01*
X005824Y017369D02*
X005765Y017310D01*
X005765Y017133D01*
X005765Y017251D02*
X005647Y017369D01*
X005824Y017369D02*
X005942Y017369D01*
X006001Y017310D01*
X006001Y017133D01*
X005647Y017133D01*
X006682Y017141D02*
X006682Y017377D01*
X006682Y017259D02*
X007036Y017259D01*
X006918Y017141D01*
X006977Y017014D02*
X007036Y016955D01*
X007036Y016837D01*
X006977Y016778D01*
X006741Y016778D01*
X006682Y016837D01*
X006682Y016955D01*
X006741Y017014D01*
X006682Y017503D02*
X006682Y017739D01*
X006682Y017621D02*
X007036Y017621D01*
X006918Y017503D01*
X007643Y017515D02*
X007643Y017751D01*
X007879Y017751D02*
X007938Y017751D01*
X007997Y017692D01*
X007997Y017574D01*
X007938Y017515D01*
X007938Y017388D02*
X007820Y017388D01*
X007761Y017329D01*
X007761Y017152D01*
X007761Y017270D02*
X007643Y017388D01*
X007643Y017515D02*
X007879Y017751D01*
X007938Y017388D02*
X007997Y017329D01*
X007997Y017152D01*
X007643Y017152D01*
X004015Y017556D02*
X003956Y017497D01*
X004015Y017556D02*
X004015Y017674D01*
X003956Y017733D01*
X003897Y017733D01*
X003838Y017674D01*
X003779Y017733D01*
X003720Y017733D01*
X003661Y017674D01*
X003661Y017556D01*
X003720Y017497D01*
X003838Y017615D02*
X003838Y017674D01*
D12*
X009959Y018956D02*
X016259Y018956D01*
X012322Y016456D02*
X011062Y016456D01*
X011062Y014488D01*
X012322Y014488D01*
X012322Y016456D01*
X012715Y015216D02*
X012715Y013838D01*
X014093Y013838D01*
X014093Y015216D01*
X012715Y015216D01*
X009959Y012657D02*
X016259Y012657D01*
X012138Y012166D02*
X012138Y011536D01*
X011980Y011378D01*
X011547Y011378D01*
X010760Y011378D02*
X010169Y011378D01*
X010169Y012323D01*
X010760Y012323D01*
X011547Y012323D02*
X011980Y012323D01*
X012138Y012166D01*
X006926Y012365D02*
X006926Y012576D01*
X006776Y013030D02*
X006438Y013030D01*
X006438Y011910D02*
X006776Y011910D01*
X008096Y007595D02*
X008096Y006414D01*
X008135Y006808D02*
X008162Y006810D01*
X008188Y006815D01*
X008213Y006824D01*
X008237Y006837D01*
X008259Y006852D01*
X008279Y006871D01*
X008296Y006891D01*
X008310Y006914D01*
X008321Y006939D01*
X008328Y006965D01*
X008332Y006992D01*
X008332Y007018D01*
X008328Y007045D01*
X008321Y007071D01*
X008310Y007096D01*
X008296Y007119D01*
X008279Y007139D01*
X008259Y007158D01*
X008237Y007173D01*
X008213Y007186D01*
X008188Y007195D01*
X008162Y007200D01*
X008135Y007202D01*
X009080Y007595D02*
X010183Y007595D01*
X011167Y007595D02*
X011167Y006414D01*
X010183Y006414D02*
X009080Y006414D01*
D13*
X009423Y006744D02*
X009498Y006669D01*
X009798Y006669D01*
X009873Y006744D01*
X009873Y006894D01*
X009798Y006969D01*
X009498Y006969D01*
X009423Y006894D01*
X009423Y006744D01*
X009573Y006819D02*
X009423Y006969D01*
X009423Y007129D02*
X009423Y007429D01*
X009423Y007279D02*
X009873Y007279D01*
X009723Y007129D01*
X011303Y011451D02*
X011303Y012251D01*
X013230Y014414D02*
X013186Y014459D01*
X013230Y014414D02*
X013319Y014414D01*
X013363Y014459D01*
X013363Y014635D01*
X013319Y014680D01*
X013230Y014680D01*
X013186Y014635D01*
X013468Y014680D02*
X013556Y014680D01*
X013512Y014680D02*
X013512Y014414D01*
X013556Y014414D02*
X013468Y014414D01*
X011824Y014695D02*
X011780Y014651D01*
X011603Y014651D01*
X011559Y014695D01*
X011559Y014783D01*
X011603Y014827D01*
X011559Y014941D02*
X011736Y014941D01*
X011736Y015029D02*
X011736Y015073D01*
X011736Y015029D02*
X011648Y014941D01*
X011780Y014827D02*
X011824Y014783D01*
X011824Y014695D01*
X011736Y015182D02*
X011603Y015182D01*
X011559Y015227D01*
X011559Y015359D01*
X011515Y015359D02*
X011471Y015315D01*
X011471Y015271D01*
X011515Y015359D02*
X011736Y015359D01*
X011692Y015472D02*
X011736Y015517D01*
X011736Y015649D01*
X011648Y015605D02*
X011648Y015517D01*
X011692Y015472D01*
X011559Y015472D02*
X011559Y015605D01*
X011603Y015649D01*
X011648Y015605D01*
X011736Y015762D02*
X011736Y015851D01*
X011780Y015807D02*
X011603Y015807D01*
X011559Y015851D01*
X011603Y015956D02*
X011648Y016000D01*
X011648Y016133D01*
X011692Y016133D02*
X011559Y016133D01*
X011559Y016000D01*
X011603Y015956D01*
X011736Y016000D02*
X011736Y016088D01*
X011692Y016133D01*
X011824Y016246D02*
X011824Y016290D01*
X011559Y016290D01*
X011559Y016246D02*
X011559Y016334D01*
D14*
X011467Y017975D02*
X011817Y017975D01*
X011817Y018675D01*
X011467Y018675D01*
X011350Y018558D01*
X011350Y018442D01*
X011467Y018325D01*
X011817Y018325D01*
X012050Y018442D02*
X012050Y018558D01*
X012167Y018675D01*
X012400Y018675D01*
X012517Y018558D01*
X012750Y018558D02*
X012866Y018675D01*
X013100Y018675D01*
X013217Y018558D01*
X013450Y018675D02*
X013450Y017975D01*
X013217Y017975D02*
X012750Y018442D01*
X012750Y018558D01*
X012750Y017975D02*
X013217Y017975D01*
X013683Y018442D02*
X013450Y018675D01*
X013683Y018442D02*
X013917Y018675D01*
X013917Y017975D01*
X014383Y018325D02*
X014616Y018325D01*
X014849Y018325D02*
X014849Y018558D01*
X014966Y018675D01*
X015316Y018675D01*
X015316Y017975D01*
X015316Y018208D02*
X014966Y018208D01*
X014849Y018325D01*
X015083Y018208D02*
X014849Y017975D01*
X014616Y017975D02*
X014616Y018675D01*
X014149Y018675D01*
X012517Y017975D02*
X012050Y018442D01*
X012050Y017975D02*
X012517Y017975D01*
X011467Y017975D02*
X011350Y018091D01*
X011350Y018208D01*
X011467Y018325D01*
D15*
X010448Y018493D02*
X015803Y013138D01*
X013805Y014182D02*
X013775Y014178D01*
X013746Y014172D01*
X012752Y014182D01*
X012348Y014211D02*
X012350Y014234D01*
X012356Y014257D01*
X012366Y014278D01*
X012379Y014298D01*
X012395Y014315D01*
X012414Y014329D01*
X012435Y014339D01*
X012457Y014346D01*
X012480Y014349D01*
X012504Y014348D01*
X012526Y014343D01*
X012548Y014334D01*
X012568Y014322D01*
X012586Y014306D01*
X012600Y014288D01*
X012612Y014268D01*
X012620Y014246D01*
X012624Y014223D01*
X012624Y014199D01*
X012620Y014176D01*
X012612Y014154D01*
X012600Y014134D01*
X012586Y014116D01*
X012568Y014100D01*
X012548Y014088D01*
X012526Y014079D01*
X012504Y014074D01*
X012480Y014073D01*
X012457Y014076D01*
X012435Y014083D01*
X012414Y014093D01*
X012395Y014107D01*
X012379Y014124D01*
X012366Y014144D01*
X012356Y014165D01*
X012350Y014188D01*
X012348Y014211D01*
X012230Y014211D02*
X012232Y014242D01*
X012238Y014273D01*
X012247Y014303D01*
X012260Y014332D01*
X012277Y014359D01*
X012297Y014383D01*
X012319Y014405D01*
X012345Y014424D01*
X012372Y014440D01*
X012401Y014452D01*
X012431Y014461D01*
X012462Y014466D01*
X012494Y014467D01*
X012525Y014464D01*
X012556Y014457D01*
X012586Y014447D01*
X012614Y014433D01*
X012640Y014415D01*
X012664Y014395D01*
X012685Y014371D01*
X012704Y014346D01*
X012719Y014318D01*
X012730Y014289D01*
X012738Y014258D01*
X012742Y014227D01*
X012742Y014195D01*
X012738Y014164D01*
X012730Y014133D01*
X012719Y014104D01*
X012704Y014076D01*
X012685Y014051D01*
X012664Y014027D01*
X012640Y014007D01*
X012614Y013989D01*
X012586Y013975D01*
X012556Y013965D01*
X012525Y013958D01*
X012494Y013955D01*
X012462Y013956D01*
X012431Y013961D01*
X012401Y013970D01*
X012372Y013982D01*
X012345Y013998D01*
X012319Y014017D01*
X012297Y014039D01*
X012277Y014063D01*
X012260Y014090D01*
X012247Y014119D01*
X012238Y014149D01*
X012232Y014180D01*
X012230Y014211D01*
X012358Y014437D02*
X012082Y017154D01*
X012023Y017164D02*
X012496Y017164D01*
X013303Y017164D01*
X014149Y017164D01*
X014307Y017164D01*
X014315Y017166D01*
X014321Y017170D01*
X014325Y017176D01*
X014327Y017184D01*
X014326Y017184D02*
X014326Y017213D01*
X014326Y017233D01*
X014327Y017233D02*
X014326Y017242D01*
X014321Y017251D01*
X014315Y017257D01*
X014306Y017262D01*
X014297Y017263D01*
X014297Y017262D02*
X014287Y017262D01*
X014277Y017262D01*
X011935Y017262D01*
X011935Y017252D01*
X011934Y017252D02*
X011936Y017235D01*
X011941Y017218D01*
X011949Y017203D01*
X011960Y017189D01*
X011974Y017178D01*
X011989Y017170D01*
X012006Y017165D01*
X012023Y017163D01*
X012043Y016987D02*
X012056Y016985D01*
X012070Y016985D01*
X012083Y016987D01*
X012043Y016986D02*
X012025Y016988D01*
X012008Y016986D01*
X011991Y016981D01*
X011975Y016973D01*
X011961Y016962D01*
X011950Y016948D01*
X011942Y016932D01*
X011937Y016916D01*
X011935Y016898D01*
X011935Y016839D01*
X011936Y016822D01*
X011941Y016805D01*
X011948Y016790D01*
X011958Y016776D01*
X011970Y016764D01*
X011984Y016754D01*
X011999Y016747D01*
X012016Y016742D01*
X012033Y016741D01*
X012102Y016741D01*
X012111Y017350D02*
X012130Y017362D01*
X012150Y017372D01*
X012170Y017380D01*
X012112Y017351D02*
X012102Y017342D01*
X012095Y017331D01*
X012091Y017318D01*
X012090Y017305D01*
X012092Y017292D01*
X012122Y017292D02*
X014159Y017292D01*
X014169Y017292D02*
X014171Y017308D01*
X014170Y017325D01*
X014165Y017342D01*
X014158Y017357D01*
X014147Y017370D01*
X014135Y017381D01*
X014120Y017390D01*
X013952Y017410D02*
X013943Y017312D01*
X013953Y017470D02*
X013950Y017478D01*
X013945Y017486D01*
X013937Y017490D01*
X013928Y017492D01*
X013919Y017490D01*
X013911Y017486D01*
X013906Y017478D01*
X013903Y017470D01*
X013953Y017469D02*
X013954Y017439D01*
X013953Y017409D01*
X014169Y017154D02*
X013883Y014260D01*
X013884Y014260D02*
X013880Y014243D01*
X013874Y014228D01*
X013864Y014213D01*
X013852Y014201D01*
X013837Y014191D01*
X013822Y014185D01*
X013805Y014181D01*
X013775Y014152D02*
X013775Y014024D01*
X013774Y014011D01*
X013769Y013998D01*
X013762Y013987D01*
X013753Y013978D01*
X013742Y013971D01*
X013729Y013966D01*
X013716Y013965D01*
X013696Y013965D01*
X013683Y013967D01*
X013672Y013972D01*
X013661Y013979D01*
X013654Y013990D01*
X013649Y014001D01*
X013647Y014014D01*
X013647Y014152D01*
X013883Y017449D02*
X013760Y017462D01*
X013638Y017472D01*
X013514Y017477D01*
X013391Y017479D01*
X013342Y017479D01*
X013342Y017508D02*
X013342Y017430D01*
X012889Y017430D01*
X012889Y017508D01*
X013342Y017508D01*
X012880Y017479D02*
X012693Y017469D01*
X011945Y017262D02*
X011947Y017281D01*
X011952Y017300D01*
X011962Y017316D01*
X011974Y017331D01*
X011989Y017343D01*
X012005Y017353D01*
X012024Y017358D01*
X012043Y017360D01*
X012062Y017358D01*
X012081Y017353D01*
X012097Y017343D01*
X012112Y017331D01*
X012124Y017316D01*
X012134Y017300D01*
X012139Y017281D01*
X012141Y017262D01*
X012139Y017243D01*
X012134Y017224D01*
X012124Y017208D01*
X012112Y017193D01*
X012097Y017181D01*
X012081Y017171D01*
X012062Y017166D01*
X012043Y017164D01*
X012024Y017166D01*
X012005Y017171D01*
X011989Y017181D01*
X011974Y017193D01*
X011962Y017208D01*
X011952Y017224D01*
X011947Y017243D01*
X011945Y017262D01*
X012732Y016406D02*
X012732Y016337D01*
X012733Y016327D01*
X012737Y016318D01*
X012743Y016309D01*
X012752Y016303D01*
X012761Y016299D01*
X012771Y016298D01*
X013234Y016298D01*
X013247Y016299D01*
X013260Y016304D01*
X013271Y016311D01*
X013280Y016320D01*
X013287Y016331D01*
X013292Y016344D01*
X013293Y016357D01*
X013293Y016386D01*
X013293Y016416D01*
X013883Y017449D02*
X013942Y017440D01*
X014001Y017429D01*
X014277Y017262D02*
X014287Y017262D01*
X013903Y017321D02*
X013899Y017370D01*
X013899Y017420D01*
X013903Y017469D01*
X014002Y017430D02*
X014042Y017419D01*
X014082Y017406D01*
X014120Y017390D01*
X015783Y018473D02*
X010468Y013158D01*
X012368Y017429D02*
X012448Y017443D01*
X012529Y017455D01*
X012611Y017463D01*
X012693Y017469D01*
X012368Y017430D02*
X012302Y017416D01*
X012236Y017400D01*
X012171Y017381D01*
D16*
X009011Y017263D02*
X008647Y017263D01*
X008647Y017142D02*
X008647Y017384D01*
X008708Y017504D02*
X008950Y017747D01*
X008708Y017747D01*
X008647Y017686D01*
X008647Y017565D01*
X008708Y017504D01*
X008950Y017504D01*
X009011Y017565D01*
X009011Y017686D01*
X008950Y017747D01*
X009011Y017263D02*
X008890Y017142D01*
X008950Y017022D02*
X008829Y017022D01*
X008768Y016961D01*
X008768Y016779D01*
X008647Y016779D02*
X009011Y016779D01*
X009011Y016961D01*
X008950Y017022D01*
X008768Y016900D02*
X008647Y017022D01*
X013248Y007645D02*
X013491Y007645D01*
X013552Y007584D01*
X013552Y007463D01*
X013491Y007402D01*
X013430Y007402D01*
X013370Y007463D01*
X013370Y007645D01*
X013248Y007645D02*
X013188Y007584D01*
X013188Y007463D01*
X013248Y007402D01*
X013188Y007282D02*
X013309Y007161D01*
X013309Y007222D02*
X013309Y007040D01*
X013188Y007040D02*
X013552Y007040D01*
X013552Y007222D01*
X013491Y007282D01*
X013370Y007282D01*
X013309Y007222D01*
X002214Y006102D02*
X002154Y005981D01*
X002032Y005860D01*
X002032Y006042D01*
X001972Y006102D01*
X001911Y006102D01*
X001850Y006042D01*
X001850Y005920D01*
X001911Y005860D01*
X002032Y005860D01*
X002032Y005740D02*
X001972Y005679D01*
X001972Y005497D01*
X001972Y005619D02*
X001850Y005740D01*
X002032Y005740D02*
X002154Y005740D01*
X002214Y005679D01*
X002214Y005497D01*
X001850Y005497D01*
M02*
