G75*
%MOIN*%
%OFA0B0*%
%FSLAX24Y24*%
%IPPOS*%
%LPD*%
%AMOC8*
5,1,8,0,0,1.08239X$1,22.5*
%
%ADD10C,0.0000*%
%ADD11R,0.0473X0.0434*%
%ADD12R,0.0257X0.0512*%
%ADD13R,0.0788X0.0552*%
%ADD14C,0.0640*%
%ADD15R,0.0434X0.0473*%
%ADD16OC8,0.0890*%
%ADD17C,0.0594*%
%ADD18C,0.0827*%
%ADD19C,0.1700*%
D10*
X000180Y000180D02*
X000180Y019865D01*
X019865Y019865D01*
X019865Y000180D01*
X000180Y000180D01*
X000528Y007048D02*
X000530Y007087D01*
X000536Y007126D01*
X000546Y007164D01*
X000559Y007201D01*
X000576Y007236D01*
X000596Y007270D01*
X000620Y007301D01*
X000647Y007330D01*
X000676Y007356D01*
X000708Y007379D01*
X000742Y007399D01*
X000778Y007415D01*
X000815Y007427D01*
X000854Y007436D01*
X000893Y007441D01*
X000932Y007442D01*
X000971Y007439D01*
X001010Y007432D01*
X001047Y007421D01*
X001084Y007407D01*
X001119Y007389D01*
X001152Y007368D01*
X001183Y007343D01*
X001211Y007316D01*
X001236Y007286D01*
X001258Y007253D01*
X001277Y007219D01*
X001292Y007183D01*
X001304Y007145D01*
X001312Y007107D01*
X001316Y007068D01*
X001316Y007028D01*
X001312Y006989D01*
X001304Y006951D01*
X001292Y006913D01*
X001277Y006877D01*
X001258Y006843D01*
X001236Y006810D01*
X001211Y006780D01*
X001183Y006753D01*
X001152Y006728D01*
X001119Y006707D01*
X001084Y006689D01*
X001047Y006675D01*
X001010Y006664D01*
X000971Y006657D01*
X000932Y006654D01*
X000893Y006655D01*
X000854Y006660D01*
X000815Y006669D01*
X000778Y006681D01*
X000742Y006697D01*
X000708Y006717D01*
X000676Y006740D01*
X000647Y006766D01*
X000620Y006795D01*
X000596Y006826D01*
X000576Y006860D01*
X000559Y006895D01*
X000546Y006932D01*
X000536Y006970D01*
X000530Y007009D01*
X000528Y007048D01*
X000530Y007087D01*
X000536Y007126D01*
X000546Y007164D01*
X000559Y007201D01*
X000576Y007236D01*
X000596Y007270D01*
X000620Y007301D01*
X000647Y007330D01*
X000676Y007356D01*
X000708Y007379D01*
X000742Y007399D01*
X000778Y007415D01*
X000815Y007427D01*
X000854Y007436D01*
X000893Y007441D01*
X000932Y007442D01*
X000971Y007439D01*
X001010Y007432D01*
X001047Y007421D01*
X001084Y007407D01*
X001119Y007389D01*
X001152Y007368D01*
X001183Y007343D01*
X001211Y007316D01*
X001236Y007286D01*
X001258Y007253D01*
X001277Y007219D01*
X001292Y007183D01*
X001304Y007145D01*
X001312Y007107D01*
X001316Y007068D01*
X001316Y007028D01*
X001312Y006989D01*
X001304Y006951D01*
X001292Y006913D01*
X001277Y006877D01*
X001258Y006843D01*
X001236Y006810D01*
X001211Y006780D01*
X001183Y006753D01*
X001152Y006728D01*
X001119Y006707D01*
X001084Y006689D01*
X001047Y006675D01*
X001010Y006664D01*
X000971Y006657D01*
X000932Y006654D01*
X000893Y006655D01*
X000854Y006660D01*
X000815Y006669D01*
X000778Y006681D01*
X000742Y006697D01*
X000708Y006717D01*
X000676Y006740D01*
X000647Y006766D01*
X000620Y006795D01*
X000596Y006826D01*
X000576Y006860D01*
X000559Y006895D01*
X000546Y006932D01*
X000536Y006970D01*
X000530Y007009D01*
X000528Y007048D01*
X018630Y007048D02*
X018632Y007087D01*
X018638Y007126D01*
X018648Y007164D01*
X018661Y007201D01*
X018678Y007236D01*
X018698Y007270D01*
X018722Y007301D01*
X018749Y007330D01*
X018778Y007356D01*
X018810Y007379D01*
X018844Y007399D01*
X018880Y007415D01*
X018917Y007427D01*
X018956Y007436D01*
X018995Y007441D01*
X019034Y007442D01*
X019073Y007439D01*
X019112Y007432D01*
X019149Y007421D01*
X019186Y007407D01*
X019221Y007389D01*
X019254Y007368D01*
X019285Y007343D01*
X019313Y007316D01*
X019338Y007286D01*
X019360Y007253D01*
X019379Y007219D01*
X019394Y007183D01*
X019406Y007145D01*
X019414Y007107D01*
X019418Y007068D01*
X019418Y007028D01*
X019414Y006989D01*
X019406Y006951D01*
X019394Y006913D01*
X019379Y006877D01*
X019360Y006843D01*
X019338Y006810D01*
X019313Y006780D01*
X019285Y006753D01*
X019254Y006728D01*
X019221Y006707D01*
X019186Y006689D01*
X019149Y006675D01*
X019112Y006664D01*
X019073Y006657D01*
X019034Y006654D01*
X018995Y006655D01*
X018956Y006660D01*
X018917Y006669D01*
X018880Y006681D01*
X018844Y006697D01*
X018810Y006717D01*
X018778Y006740D01*
X018749Y006766D01*
X018722Y006795D01*
X018698Y006826D01*
X018678Y006860D01*
X018661Y006895D01*
X018648Y006932D01*
X018638Y006970D01*
X018632Y007009D01*
X018630Y007048D01*
X018632Y007087D01*
X018638Y007126D01*
X018648Y007164D01*
X018661Y007201D01*
X018678Y007236D01*
X018698Y007270D01*
X018722Y007301D01*
X018749Y007330D01*
X018778Y007356D01*
X018810Y007379D01*
X018844Y007399D01*
X018880Y007415D01*
X018917Y007427D01*
X018956Y007436D01*
X018995Y007441D01*
X019034Y007442D01*
X019073Y007439D01*
X019112Y007432D01*
X019149Y007421D01*
X019186Y007407D01*
X019221Y007389D01*
X019254Y007368D01*
X019285Y007343D01*
X019313Y007316D01*
X019338Y007286D01*
X019360Y007253D01*
X019379Y007219D01*
X019394Y007183D01*
X019406Y007145D01*
X019414Y007107D01*
X019418Y007068D01*
X019418Y007028D01*
X019414Y006989D01*
X019406Y006951D01*
X019394Y006913D01*
X019379Y006877D01*
X019360Y006843D01*
X019338Y006810D01*
X019313Y006780D01*
X019285Y006753D01*
X019254Y006728D01*
X019221Y006707D01*
X019186Y006689D01*
X019149Y006675D01*
X019112Y006664D01*
X019073Y006657D01*
X019034Y006654D01*
X018995Y006655D01*
X018956Y006660D01*
X018917Y006669D01*
X018880Y006681D01*
X018844Y006697D01*
X018810Y006717D01*
X018778Y006740D01*
X018749Y006766D01*
X018722Y006795D01*
X018698Y006826D01*
X018678Y006860D01*
X018661Y006895D01*
X018648Y006932D01*
X018638Y006970D01*
X018632Y007009D01*
X018630Y007048D01*
D11*
X012631Y007574D03*
X011962Y007574D03*
X011134Y007594D03*
X010464Y007594D03*
X010393Y006254D03*
X011062Y006254D03*
X010162Y002764D03*
X010162Y002095D03*
X005544Y002097D03*
X005544Y002766D03*
X004288Y002756D03*
X004288Y002086D03*
X004146Y011319D03*
X004146Y011989D03*
X005238Y011984D03*
X005238Y011315D03*
X003752Y013494D03*
X003082Y013494D03*
X003135Y017171D03*
X003805Y017171D03*
D12*
X003833Y015790D03*
X003085Y015790D03*
X003085Y014766D03*
X003459Y014766D03*
X003833Y014766D03*
D13*
X012054Y002812D03*
X013314Y002812D03*
X013314Y000646D03*
X012054Y000646D03*
D14*
X001523Y011750D02*
X000923Y011750D01*
X000923Y012750D02*
X001523Y012750D01*
X001523Y013750D02*
X000923Y013750D01*
X000923Y014750D02*
X001523Y014750D01*
X001523Y015750D02*
X000923Y015750D01*
X000923Y016750D02*
X001523Y016750D01*
D15*
X002757Y002850D03*
X002757Y002180D03*
D16*
X019119Y013299D03*
X019147Y015215D03*
X019138Y016479D03*
X016099Y018983D03*
X014721Y019001D03*
X013374Y018976D03*
X012073Y018981D03*
X010739Y018970D03*
X009422Y018962D03*
D17*
X009162Y010326D02*
X009162Y009771D01*
X009162Y009326D02*
X009162Y008771D01*
X008162Y008771D02*
X008162Y009326D01*
X008162Y009771D02*
X008162Y010326D01*
X007162Y010326D02*
X007162Y009771D01*
X007162Y009326D02*
X007162Y008771D01*
X006162Y008771D02*
X006162Y009326D01*
X006162Y009771D02*
X006162Y010326D01*
X005162Y010326D02*
X005162Y009771D01*
X005162Y009326D02*
X005162Y008771D01*
X004162Y008771D02*
X004162Y009326D01*
X004162Y009771D02*
X004162Y010326D01*
X004162Y005326D02*
X004162Y004771D01*
X004162Y004326D02*
X004162Y003771D01*
X005162Y003771D02*
X005162Y004326D01*
X005162Y004771D02*
X005162Y005326D01*
X006162Y005326D02*
X006162Y004771D01*
X006162Y004326D02*
X006162Y003771D01*
X007162Y003771D02*
X007162Y004326D01*
X007162Y004771D02*
X007162Y005326D01*
X008162Y005326D02*
X008162Y004771D01*
X008162Y004326D02*
X008162Y003771D01*
X009162Y003771D02*
X009162Y004326D01*
X009162Y004771D02*
X009162Y005326D01*
X010162Y005326D02*
X010162Y004771D01*
X010162Y004326D02*
X010162Y003771D01*
X011162Y003771D02*
X011162Y004326D01*
X011162Y004771D02*
X011162Y005326D01*
X012162Y005326D02*
X012162Y004771D01*
X012162Y004326D02*
X012162Y003771D01*
X013162Y003771D02*
X013162Y004326D01*
X013162Y004771D02*
X013162Y005326D01*
X014162Y005326D02*
X014162Y004771D01*
X014162Y004326D02*
X014162Y003771D01*
X015162Y003771D02*
X015162Y004326D01*
X015162Y004771D02*
X015162Y005326D01*
X016162Y005326D02*
X016162Y004771D01*
X016162Y004326D02*
X016162Y003771D01*
X017162Y003771D02*
X017162Y004326D01*
X017162Y004771D02*
X017162Y005326D01*
X017162Y008771D02*
X017162Y009326D01*
X017162Y009771D02*
X017162Y010326D01*
X016162Y010326D02*
X016162Y009771D01*
X016162Y009326D02*
X016162Y008771D01*
X015162Y008771D02*
X015162Y009326D01*
X015162Y009771D02*
X015162Y010326D01*
X014162Y010326D02*
X014162Y009771D01*
X014162Y009326D02*
X014162Y008771D01*
X013162Y008771D02*
X013162Y009326D01*
X013162Y009771D02*
X013162Y010326D01*
X012162Y010326D02*
X012162Y009771D01*
X012162Y009326D02*
X012162Y008771D01*
X011162Y008771D02*
X011162Y009326D01*
X011162Y009771D02*
X011162Y010326D01*
X010162Y010326D02*
X010162Y009771D01*
X010162Y009326D02*
X010162Y008771D01*
D18*
X019024Y007048D03*
X019024Y007048D03*
X000922Y007048D03*
X000922Y007048D03*
D19*
X001030Y001030D03*
X001031Y019005D03*
X019012Y019007D03*
X019009Y001042D03*
M02*
