%
M48
M72
T01C0.01969
T02C0.03200
T03C0.04000
T04C0.11024
%
T01
X259182Y139103
X235560Y105146
X235068Y84477
X210461Y144024
X210461Y129753
X240973Y107115
X164694Y163217
X196682Y131229
X199635Y150422
X199635Y123847
X120402Y145009
X164694Y169123
X138119Y181918
X212430Y169123
X244910Y8690
X120894Y174536
X229162Y66269
X131721Y150422
X184871Y71682
X146977Y163217
X181918Y80540
X141072Y157312
X239989Y56426
X237528Y27391
X148454Y189300
X155835Y186347
X237036Y53473
X207509Y123847
X130737Y175520
X247371Y71682
X128769Y140087
X141564Y173060
X133198Y124339
X128276Y178965
X154851Y176013
X130245Y127292
X221288Y166170
X145009Y152391
X237036Y39694
X145009Y186347
X195206Y187824
X176013Y162725
X157863Y101800
X162863Y101800
X167863Y101800
X172863Y101800
X177863Y101800
X177863Y106800
X177863Y111800
X177863Y116800
X177863Y121800
X177863Y126800
X177863Y131800
X177863Y136800
X172863Y136800
X172863Y141800
X167863Y141800
X152194Y131800
X152863Y126800
X152863Y121800
X152863Y116800
X152194Y111800
X152194Y106800
X152863Y101800
X157863Y136800
X152863Y136800
T02
X268646Y197800
X261646Y190800
T03
X257863Y116800
X267863Y116800
X257863Y106800
X267863Y106800
X257863Y96800
X267863Y96800
X257863Y86800
X267863Y86800
X257863Y76800
X267863Y76800
X257863Y66800
X267863Y66800
X257863Y56800
X267863Y56800
X117863Y121800
X117863Y111800
X117863Y101800
X117863Y91800
X117863Y81800
X117863Y71800
X117863Y61800
X117863Y51800
X117863Y41800
X117863Y31800
X117863Y21800
X117863Y11800
X26209Y173060
X76603Y173060
T04
X52981Y106131
X143532Y27391
X273454Y163217
X273454Y27391
X143532Y133690
M30
