G75*
%MOIN*%
%OFA0B0*%
%FSLAX25Y25*%
%IPPOS*%
%LPD*%
%AMOC8*
5,1,8,0,0,1.08239X$1,22.5*
%
%ADD10C,0.00300*%
%ADD11C,0.01600*%
%ADD12C,0.00000*%
%ADD13C,0.00800*%
%ADD14C,0.00500*%
%ADD15C,0.00787*%
%ADD16C,0.01000*%
%ADD17R,0.00984X0.00984*%
%ADD18C,0.00600*%
D10*
X0129938Y0008920D02*
X0130544Y0008313D01*
X0131151Y0008313D01*
X0131758Y0008920D01*
X0131758Y0011953D01*
X0132364Y0011953D02*
X0131151Y0011953D01*
X0133563Y0011953D02*
X0135383Y0011953D01*
X0135989Y0011346D01*
X0135989Y0010133D01*
X0135383Y0009526D01*
X0133563Y0009526D01*
X0133563Y0008313D02*
X0133563Y0011953D01*
X0137188Y0010740D02*
X0138401Y0011953D01*
X0138401Y0008313D01*
X0137188Y0008313D02*
X0139615Y0008313D01*
X0161954Y0012834D02*
X0162561Y0012227D01*
X0163774Y0012227D01*
X0164381Y0012834D01*
X0164381Y0015261D01*
X0163774Y0015868D01*
X0162561Y0015868D01*
X0161954Y0015261D01*
X0161954Y0012834D01*
X0165580Y0012227D02*
X0167400Y0012227D01*
X0168006Y0012834D01*
X0168006Y0014047D01*
X0167400Y0014654D01*
X0165580Y0014654D01*
X0165580Y0011014D01*
X0169205Y0012834D02*
X0169205Y0014047D01*
X0169811Y0014654D01*
X0171025Y0014654D01*
X0171631Y0014047D01*
X0171631Y0013441D01*
X0169205Y0013441D01*
X0169205Y0012834D02*
X0169811Y0012227D01*
X0171025Y0012227D01*
X0172830Y0012227D02*
X0172830Y0014654D01*
X0174650Y0014654D01*
X0175257Y0014047D01*
X0175257Y0012227D01*
X0177668Y0012227D02*
X0177668Y0015868D01*
X0176455Y0015868D02*
X0178882Y0015868D01*
X0180080Y0015868D02*
X0181900Y0015868D01*
X0182507Y0015261D01*
X0182507Y0014047D01*
X0181900Y0013441D01*
X0180080Y0013441D01*
X0181293Y0013441D02*
X0182507Y0012227D01*
X0183705Y0013441D02*
X0184919Y0012227D01*
X0186132Y0013441D01*
X0186132Y0015868D01*
X0183705Y0015868D02*
X0183705Y0013441D01*
X0187330Y0012834D02*
X0187330Y0012227D01*
X0187937Y0012227D01*
X0187937Y0012834D01*
X0187330Y0012834D01*
X0189143Y0012834D02*
X0189750Y0012227D01*
X0190963Y0012227D01*
X0191570Y0012834D01*
X0191570Y0014047D01*
X0190963Y0014654D01*
X0189750Y0014654D01*
X0189143Y0014047D01*
X0189143Y0012834D01*
X0192768Y0012227D02*
X0192768Y0014654D01*
X0192768Y0013441D02*
X0193981Y0014654D01*
X0194588Y0014654D01*
X0195789Y0014047D02*
X0195789Y0012834D01*
X0196396Y0012227D01*
X0198216Y0012227D01*
X0198216Y0011621D02*
X0198216Y0014654D01*
X0196396Y0014654D01*
X0195789Y0014047D01*
X0197002Y0011014D02*
X0197609Y0011014D01*
X0198216Y0011621D01*
X0199414Y0012227D02*
X0200021Y0012227D01*
X0200021Y0012834D01*
X0199414Y0012834D01*
X0199414Y0012227D01*
X0201227Y0012834D02*
X0201833Y0012227D01*
X0203653Y0012227D01*
X0203653Y0014654D01*
X0204852Y0013441D02*
X0206672Y0014654D01*
X0204852Y0013441D02*
X0206672Y0012227D01*
X0204852Y0012227D02*
X0204852Y0015868D01*
X0201227Y0014654D02*
X0201227Y0012834D01*
X0220176Y0014830D02*
X0220176Y0018470D01*
X0221996Y0018470D01*
X0222603Y0017863D01*
X0222603Y0016650D01*
X0221996Y0016043D01*
X0220176Y0016043D01*
X0221390Y0016043D02*
X0222603Y0014830D01*
X0223801Y0015437D02*
X0224408Y0014830D01*
X0225621Y0014830D01*
X0226228Y0015437D01*
X0226228Y0016650D01*
X0225621Y0017257D01*
X0225015Y0017257D01*
X0223801Y0016650D01*
X0223801Y0018470D01*
X0226228Y0018470D01*
X0225621Y0030470D02*
X0225621Y0034110D01*
X0223801Y0032290D01*
X0226228Y0032290D01*
X0222603Y0032290D02*
X0221996Y0031684D01*
X0220176Y0031684D01*
X0221390Y0031684D02*
X0222603Y0030470D01*
X0222603Y0032290D02*
X0222603Y0033504D01*
X0221996Y0034110D01*
X0220176Y0034110D01*
X0220176Y0030470D01*
X0220335Y0043563D02*
X0220335Y0047203D01*
X0219122Y0045990D01*
X0217923Y0046597D02*
X0217923Y0045383D01*
X0217317Y0044777D01*
X0215497Y0044777D01*
X0216710Y0044777D02*
X0217923Y0043563D01*
X0219122Y0043563D02*
X0221548Y0043563D01*
X0222747Y0044170D02*
X0225174Y0046597D01*
X0225174Y0044170D01*
X0224567Y0043563D01*
X0223354Y0043563D01*
X0222747Y0044170D01*
X0222747Y0046597D01*
X0223354Y0047203D01*
X0224567Y0047203D01*
X0225174Y0046597D01*
X0217923Y0046597D02*
X0217317Y0047203D01*
X0215497Y0047203D01*
X0215497Y0043563D01*
X0215420Y0059888D02*
X0216026Y0060495D01*
X0215420Y0059888D02*
X0214206Y0059888D01*
X0213600Y0060495D01*
X0213600Y0062922D01*
X0214206Y0063528D01*
X0215420Y0063528D01*
X0216026Y0062922D01*
X0217225Y0062315D02*
X0218438Y0063528D01*
X0218438Y0059888D01*
X0217225Y0059888D02*
X0219651Y0059888D01*
X0220850Y0059888D02*
X0223277Y0059888D01*
X0222063Y0059888D02*
X0222063Y0063528D01*
X0220850Y0062315D01*
X0219958Y0070450D02*
X0220565Y0071057D01*
X0220565Y0073483D01*
X0219958Y0074090D01*
X0218745Y0074090D01*
X0218138Y0073483D01*
X0218138Y0072877D01*
X0218745Y0072270D01*
X0220565Y0072270D01*
X0219958Y0070450D02*
X0218745Y0070450D01*
X0218138Y0071057D01*
X0216940Y0070450D02*
X0215726Y0071663D01*
X0216333Y0071663D02*
X0214513Y0071663D01*
X0214513Y0070450D02*
X0214513Y0074090D01*
X0216333Y0074090D01*
X0216940Y0073483D01*
X0216940Y0072270D01*
X0216333Y0071663D01*
X0228223Y0083524D02*
X0227616Y0084130D01*
X0227616Y0086557D01*
X0228223Y0087164D01*
X0229436Y0087164D01*
X0230043Y0086557D01*
X0231241Y0086557D02*
X0231241Y0085950D01*
X0231848Y0085344D01*
X0233061Y0085344D01*
X0233668Y0084737D01*
X0233668Y0084130D01*
X0233061Y0083524D01*
X0231848Y0083524D01*
X0231241Y0084130D01*
X0231241Y0084737D01*
X0231848Y0085344D01*
X0233061Y0085344D02*
X0233668Y0085950D01*
X0233668Y0086557D01*
X0233061Y0087164D01*
X0231848Y0087164D01*
X0231241Y0086557D01*
X0230043Y0084130D02*
X0229436Y0083524D01*
X0228223Y0083524D01*
X0218131Y0088899D02*
X0215704Y0088899D01*
X0217524Y0090719D01*
X0217524Y0087079D01*
X0214506Y0087686D02*
X0213899Y0087079D01*
X0212686Y0087079D01*
X0212079Y0087686D01*
X0212079Y0090112D01*
X0212686Y0090719D01*
X0213899Y0090719D01*
X0214506Y0090112D01*
X0202429Y0090036D02*
X0200002Y0087610D01*
X0200002Y0087003D01*
X0198804Y0087610D02*
X0198197Y0087003D01*
X0196984Y0087003D01*
X0196377Y0087610D01*
X0196377Y0090036D01*
X0196984Y0090643D01*
X0198197Y0090643D01*
X0198804Y0090036D01*
X0200002Y0090643D02*
X0202429Y0090643D01*
X0202429Y0090036D01*
X0185267Y0066668D02*
X0185874Y0066061D01*
X0183447Y0063635D01*
X0184054Y0063028D01*
X0185267Y0063028D01*
X0185874Y0063635D01*
X0185874Y0066061D01*
X0185267Y0066668D02*
X0184054Y0066668D01*
X0183447Y0066061D01*
X0183447Y0063635D01*
X0182249Y0063028D02*
X0179822Y0063028D01*
X0178623Y0063028D02*
X0176197Y0063028D01*
X0174998Y0063028D02*
X0172572Y0063028D01*
X0173785Y0063028D02*
X0173785Y0066668D01*
X0172572Y0065455D01*
X0171373Y0064848D02*
X0171373Y0063635D01*
X0170766Y0063028D01*
X0169553Y0063028D01*
X0168946Y0063635D01*
X0168946Y0064848D02*
X0170160Y0065455D01*
X0170766Y0065455D01*
X0171373Y0064848D01*
X0171373Y0066668D02*
X0168946Y0066668D01*
X0168946Y0064848D01*
X0167748Y0063028D02*
X0165321Y0063028D01*
X0166535Y0063028D02*
X0166535Y0066668D01*
X0165321Y0065455D01*
X0164123Y0066061D02*
X0161696Y0063635D01*
X0162303Y0063028D01*
X0163516Y0063028D01*
X0164123Y0063635D01*
X0164123Y0066061D01*
X0163516Y0066668D01*
X0162303Y0066668D01*
X0161696Y0066061D01*
X0161696Y0063635D01*
X0160498Y0063028D02*
X0158071Y0063028D01*
X0160498Y0065455D01*
X0160498Y0066061D01*
X0159891Y0066668D01*
X0158678Y0066668D01*
X0158071Y0066061D01*
X0176197Y0065455D02*
X0177410Y0066668D01*
X0177410Y0063028D01*
X0179822Y0065455D02*
X0181035Y0066668D01*
X0181035Y0063028D01*
X0246573Y0071950D02*
X0246573Y0073163D01*
X0246573Y0072557D02*
X0250213Y0072557D01*
X0250213Y0073163D02*
X0250213Y0071950D01*
X0250213Y0074367D02*
X0247786Y0076793D01*
X0247180Y0076793D01*
X0246573Y0076187D01*
X0246573Y0074973D01*
X0247180Y0074367D01*
X0250213Y0074367D02*
X0250213Y0076793D01*
X0249606Y0077992D02*
X0250213Y0078599D01*
X0250213Y0079812D01*
X0249606Y0080419D01*
X0250820Y0081617D02*
X0250820Y0084044D01*
X0250213Y0085242D02*
X0246573Y0085242D01*
X0246573Y0087669D01*
X0246573Y0088867D02*
X0250213Y0091294D01*
X0250213Y0093706D02*
X0246573Y0093706D01*
X0246573Y0094919D02*
X0246573Y0092492D01*
X0246573Y0091294D02*
X0250213Y0088867D01*
X0250213Y0087669D02*
X0250213Y0085242D01*
X0248393Y0085242D02*
X0248393Y0086456D01*
X0247180Y0080419D02*
X0246573Y0079812D01*
X0246573Y0078599D01*
X0247180Y0077992D01*
X0249606Y0077992D01*
X0275602Y0094323D02*
X0278028Y0096750D01*
X0276815Y0096750D02*
X0276815Y0094323D01*
X0278028Y0094323D02*
X0275602Y0096750D01*
X0275602Y0095537D02*
X0278028Y0095537D01*
X0272992Y0131043D02*
X0272992Y0131650D01*
X0275419Y0134077D01*
X0275419Y0134683D01*
X0272992Y0134683D01*
X0271793Y0134077D02*
X0271793Y0132863D01*
X0271187Y0132257D01*
X0269367Y0132257D01*
X0270580Y0132257D02*
X0271793Y0131043D01*
X0269367Y0131043D02*
X0269367Y0134683D01*
X0271187Y0134683D01*
X0271793Y0134077D01*
X0267939Y0137313D02*
X0267939Y0139740D01*
X0267332Y0140346D01*
X0265512Y0140346D01*
X0265512Y0136706D01*
X0267332Y0136706D01*
X0267939Y0137313D01*
X0264314Y0136706D02*
X0261887Y0136706D01*
X0261887Y0140346D01*
X0264314Y0140346D01*
X0263100Y0138526D02*
X0261887Y0138526D01*
X0260689Y0136706D02*
X0258262Y0136706D01*
X0258262Y0140346D01*
X0250469Y0140854D02*
X0249256Y0139641D01*
X0249256Y0140248D02*
X0249256Y0138427D01*
X0250469Y0138427D02*
X0246829Y0138427D01*
X0246829Y0140248D01*
X0247435Y0140854D01*
X0248649Y0140854D01*
X0249256Y0140248D01*
X0248649Y0142053D02*
X0248649Y0143266D01*
X0250469Y0142053D02*
X0246829Y0142053D01*
X0246829Y0144479D01*
X0246829Y0145678D02*
X0248042Y0146891D01*
X0246829Y0148104D01*
X0250469Y0148104D01*
X0250469Y0149303D02*
X0248042Y0151730D01*
X0247435Y0151730D01*
X0246829Y0151123D01*
X0246829Y0149910D01*
X0247435Y0149303D01*
X0250469Y0149303D02*
X0250469Y0151730D01*
X0249862Y0152928D02*
X0250469Y0153535D01*
X0250469Y0154748D01*
X0249862Y0155355D01*
X0249256Y0155355D01*
X0248649Y0154748D01*
X0248649Y0154141D01*
X0248649Y0154748D02*
X0248042Y0155355D01*
X0247435Y0155355D01*
X0246829Y0154748D01*
X0246829Y0153535D01*
X0247435Y0152928D01*
X0246829Y0156553D02*
X0246829Y0158373D01*
X0247435Y0158980D01*
X0248042Y0158980D01*
X0248649Y0158373D01*
X0248649Y0156553D01*
X0250469Y0156553D02*
X0246829Y0156553D01*
X0248649Y0158373D02*
X0249256Y0158980D01*
X0249862Y0158980D01*
X0250469Y0158373D01*
X0250469Y0156553D01*
X0250469Y0145678D02*
X0246829Y0145678D01*
X0258296Y0175513D02*
X0258296Y0179153D01*
X0260116Y0179153D01*
X0260723Y0178546D01*
X0260723Y0177333D01*
X0260116Y0176726D01*
X0258296Y0176726D01*
X0261921Y0177333D02*
X0264348Y0177333D01*
X0264348Y0179153D02*
X0264348Y0175513D01*
X0266760Y0175513D02*
X0266760Y0179153D01*
X0267973Y0179153D02*
X0265546Y0179153D01*
X0261921Y0179153D02*
X0261921Y0175513D01*
X0269171Y0175513D02*
X0271598Y0175513D01*
X0270385Y0175513D02*
X0270385Y0179153D01*
X0269171Y0177940D01*
X0194213Y0188450D02*
X0190573Y0188450D01*
X0190573Y0190270D01*
X0191180Y0190877D01*
X0192393Y0190877D01*
X0193000Y0190270D01*
X0193000Y0188450D01*
X0193000Y0189663D02*
X0194213Y0190877D01*
X0194213Y0192075D02*
X0194213Y0194502D01*
X0194213Y0193288D02*
X0190573Y0193288D01*
X0191786Y0192075D01*
X0180944Y0192495D02*
X0180337Y0191888D01*
X0179123Y0191888D01*
X0178517Y0192495D01*
X0180944Y0194922D01*
X0180944Y0192495D01*
X0180944Y0194922D02*
X0180337Y0195528D01*
X0179123Y0195528D01*
X0178517Y0194922D01*
X0178517Y0192495D01*
X0177318Y0191888D02*
X0174892Y0191888D01*
X0176105Y0191888D02*
X0176105Y0195528D01*
X0174892Y0194315D01*
X0173693Y0194922D02*
X0173087Y0195528D01*
X0171873Y0195528D01*
X0171266Y0194922D01*
X0171266Y0192495D01*
X0171873Y0191888D01*
X0173087Y0191888D01*
X0173693Y0192495D01*
X0137674Y0191888D02*
X0135248Y0191888D01*
X0137674Y0194315D01*
X0137674Y0194922D01*
X0137068Y0195528D01*
X0135854Y0195528D01*
X0135248Y0194922D01*
X0132836Y0195528D02*
X0132836Y0191888D01*
X0134049Y0191888D02*
X0131622Y0191888D01*
X0130424Y0192495D02*
X0129817Y0191888D01*
X0128604Y0191888D01*
X0127997Y0192495D01*
X0127997Y0194922D01*
X0128604Y0195528D01*
X0129817Y0195528D01*
X0130424Y0194922D01*
X0131622Y0194315D02*
X0132836Y0195528D01*
X0123065Y0188267D02*
X0121851Y0187661D01*
X0120638Y0186447D01*
X0122458Y0186447D01*
X0123065Y0185841D01*
X0123065Y0185234D01*
X0122458Y0184627D01*
X0121245Y0184627D01*
X0120638Y0185234D01*
X0120638Y0186447D01*
X0119440Y0186447D02*
X0118833Y0185841D01*
X0117013Y0185841D01*
X0118226Y0185841D02*
X0119440Y0184627D01*
X0119440Y0186447D02*
X0119440Y0187661D01*
X0118833Y0188267D01*
X0117013Y0188267D01*
X0117013Y0184627D01*
X0112854Y0174252D02*
X0112248Y0174252D01*
X0111641Y0173645D01*
X0111641Y0172432D01*
X0111034Y0171825D01*
X0110428Y0171825D01*
X0109821Y0172432D01*
X0109821Y0173645D01*
X0110428Y0174252D01*
X0111034Y0174252D01*
X0111641Y0173645D01*
X0111641Y0172432D02*
X0112248Y0171825D01*
X0112854Y0171825D01*
X0113461Y0172432D01*
X0113461Y0173645D01*
X0112854Y0174252D01*
X0113461Y0170626D02*
X0112248Y0169413D01*
X0112248Y0170020D02*
X0112248Y0168200D01*
X0113461Y0168200D02*
X0109821Y0168200D01*
X0109821Y0170020D01*
X0110428Y0170626D01*
X0111641Y0170626D01*
X0112248Y0170020D01*
X0113461Y0161807D02*
X0113461Y0159380D01*
X0111034Y0161807D01*
X0110428Y0161807D01*
X0109821Y0161200D01*
X0109821Y0159987D01*
X0110428Y0159380D01*
X0110428Y0158182D02*
X0111641Y0158182D01*
X0112248Y0157575D01*
X0112248Y0155755D01*
X0113461Y0155755D02*
X0109821Y0155755D01*
X0109821Y0157575D01*
X0110428Y0158182D01*
X0112248Y0156969D02*
X0113461Y0158182D01*
X0114513Y0144090D02*
X0116333Y0144090D01*
X0116940Y0143483D01*
X0116940Y0142270D01*
X0116333Y0141663D01*
X0114513Y0141663D01*
X0114513Y0140450D02*
X0114513Y0144090D01*
X0115726Y0141663D02*
X0116940Y0140450D01*
X0118138Y0140450D02*
X0120565Y0140450D01*
X0121763Y0140450D02*
X0124190Y0142877D01*
X0124190Y0143483D01*
X0123583Y0144090D01*
X0122370Y0144090D01*
X0121763Y0143483D01*
X0119351Y0144090D02*
X0119351Y0140450D01*
X0121763Y0140450D02*
X0124190Y0140450D01*
X0119351Y0144090D02*
X0118138Y0142877D01*
X0151573Y0161050D02*
X0151573Y0162263D01*
X0151573Y0161657D02*
X0155213Y0161657D01*
X0155213Y0162263D02*
X0155213Y0161050D01*
X0154606Y0163467D02*
X0152180Y0163467D01*
X0151573Y0164073D01*
X0151573Y0165287D01*
X0152180Y0165893D01*
X0152180Y0167092D02*
X0151573Y0167699D01*
X0151573Y0168912D01*
X0152180Y0169519D01*
X0152786Y0169519D01*
X0155213Y0167092D01*
X0155213Y0169519D01*
X0154606Y0165893D02*
X0155213Y0165287D01*
X0155213Y0164073D01*
X0154606Y0163467D01*
X0161741Y0122538D02*
X0161134Y0121932D01*
X0161134Y0119505D01*
X0161741Y0118898D01*
X0162955Y0118898D01*
X0163561Y0119505D01*
X0163561Y0121932D01*
X0162955Y0122538D01*
X0161741Y0122538D01*
X0162348Y0120112D02*
X0163561Y0118898D01*
X0164760Y0118898D02*
X0167186Y0118898D01*
X0165973Y0118898D02*
X0165973Y0122538D01*
X0164760Y0121325D01*
X0135556Y0115917D02*
X0135556Y0113490D01*
X0134949Y0112884D01*
X0133736Y0112884D01*
X0133129Y0113490D01*
X0131931Y0113490D02*
X0131324Y0112884D01*
X0130110Y0112884D01*
X0129504Y0113490D01*
X0129504Y0115917D01*
X0130110Y0116524D01*
X0131324Y0116524D01*
X0131931Y0115917D01*
X0133129Y0115917D02*
X0133129Y0115310D01*
X0133736Y0114704D01*
X0135556Y0114704D01*
X0135556Y0115917D02*
X0134949Y0116524D01*
X0133736Y0116524D01*
X0133129Y0115917D01*
X0020036Y0131980D02*
X0017609Y0131980D01*
X0016396Y0133193D01*
X0017609Y0134407D01*
X0020036Y0134407D01*
X0020036Y0135605D02*
X0016396Y0135605D01*
X0020036Y0138032D01*
X0016396Y0138032D01*
X0016396Y0139230D02*
X0016396Y0141657D01*
X0016396Y0140444D02*
X0020036Y0140444D01*
X0018216Y0134407D02*
X0018216Y0131980D01*
X0180080Y0015868D02*
X0180080Y0012227D01*
D11*
X0281328Y0001800D02*
X0001800Y0001800D01*
X0001800Y0210461D01*
X0281328Y0210461D01*
X0281328Y0001800D01*
X0108099Y0001800D02*
X0108099Y0210461D01*
D12*
X0138020Y0133690D02*
X0138022Y0133838D01*
X0138028Y0133986D01*
X0138038Y0134134D01*
X0138052Y0134281D01*
X0138070Y0134428D01*
X0138091Y0134574D01*
X0138117Y0134720D01*
X0138147Y0134865D01*
X0138180Y0135009D01*
X0138218Y0135152D01*
X0138259Y0135294D01*
X0138304Y0135435D01*
X0138352Y0135575D01*
X0138405Y0135714D01*
X0138461Y0135851D01*
X0138521Y0135986D01*
X0138584Y0136120D01*
X0138651Y0136252D01*
X0138722Y0136382D01*
X0138796Y0136510D01*
X0138873Y0136636D01*
X0138954Y0136760D01*
X0139038Y0136882D01*
X0139125Y0137001D01*
X0139216Y0137118D01*
X0139310Y0137233D01*
X0139406Y0137345D01*
X0139506Y0137455D01*
X0139608Y0137561D01*
X0139714Y0137665D01*
X0139822Y0137766D01*
X0139933Y0137864D01*
X0140046Y0137960D01*
X0140162Y0138052D01*
X0140280Y0138141D01*
X0140401Y0138226D01*
X0140524Y0138309D01*
X0140649Y0138388D01*
X0140776Y0138464D01*
X0140905Y0138536D01*
X0141036Y0138605D01*
X0141169Y0138670D01*
X0141304Y0138731D01*
X0141440Y0138789D01*
X0141577Y0138844D01*
X0141716Y0138894D01*
X0141857Y0138941D01*
X0141998Y0138984D01*
X0142141Y0139024D01*
X0142285Y0139059D01*
X0142429Y0139091D01*
X0142575Y0139118D01*
X0142721Y0139142D01*
X0142868Y0139162D01*
X0143015Y0139178D01*
X0143162Y0139190D01*
X0143310Y0139198D01*
X0143458Y0139202D01*
X0143606Y0139202D01*
X0143754Y0139198D01*
X0143902Y0139190D01*
X0144049Y0139178D01*
X0144196Y0139162D01*
X0144343Y0139142D01*
X0144489Y0139118D01*
X0144635Y0139091D01*
X0144779Y0139059D01*
X0144923Y0139024D01*
X0145066Y0138984D01*
X0145207Y0138941D01*
X0145348Y0138894D01*
X0145487Y0138844D01*
X0145624Y0138789D01*
X0145760Y0138731D01*
X0145895Y0138670D01*
X0146028Y0138605D01*
X0146159Y0138536D01*
X0146288Y0138464D01*
X0146415Y0138388D01*
X0146540Y0138309D01*
X0146663Y0138226D01*
X0146784Y0138141D01*
X0146902Y0138052D01*
X0147018Y0137960D01*
X0147131Y0137864D01*
X0147242Y0137766D01*
X0147350Y0137665D01*
X0147456Y0137561D01*
X0147558Y0137455D01*
X0147658Y0137345D01*
X0147754Y0137233D01*
X0147848Y0137118D01*
X0147939Y0137001D01*
X0148026Y0136882D01*
X0148110Y0136760D01*
X0148191Y0136636D01*
X0148268Y0136510D01*
X0148342Y0136382D01*
X0148413Y0136252D01*
X0148480Y0136120D01*
X0148543Y0135986D01*
X0148603Y0135851D01*
X0148659Y0135714D01*
X0148712Y0135575D01*
X0148760Y0135435D01*
X0148805Y0135294D01*
X0148846Y0135152D01*
X0148884Y0135009D01*
X0148917Y0134865D01*
X0148947Y0134720D01*
X0148973Y0134574D01*
X0148994Y0134428D01*
X0149012Y0134281D01*
X0149026Y0134134D01*
X0149036Y0133986D01*
X0149042Y0133838D01*
X0149044Y0133690D01*
X0149042Y0133542D01*
X0149036Y0133394D01*
X0149026Y0133246D01*
X0149012Y0133099D01*
X0148994Y0132952D01*
X0148973Y0132806D01*
X0148947Y0132660D01*
X0148917Y0132515D01*
X0148884Y0132371D01*
X0148846Y0132228D01*
X0148805Y0132086D01*
X0148760Y0131945D01*
X0148712Y0131805D01*
X0148659Y0131666D01*
X0148603Y0131529D01*
X0148543Y0131394D01*
X0148480Y0131260D01*
X0148413Y0131128D01*
X0148342Y0130998D01*
X0148268Y0130870D01*
X0148191Y0130744D01*
X0148110Y0130620D01*
X0148026Y0130498D01*
X0147939Y0130379D01*
X0147848Y0130262D01*
X0147754Y0130147D01*
X0147658Y0130035D01*
X0147558Y0129925D01*
X0147456Y0129819D01*
X0147350Y0129715D01*
X0147242Y0129614D01*
X0147131Y0129516D01*
X0147018Y0129420D01*
X0146902Y0129328D01*
X0146784Y0129239D01*
X0146663Y0129154D01*
X0146540Y0129071D01*
X0146415Y0128992D01*
X0146288Y0128916D01*
X0146159Y0128844D01*
X0146028Y0128775D01*
X0145895Y0128710D01*
X0145760Y0128649D01*
X0145624Y0128591D01*
X0145487Y0128536D01*
X0145348Y0128486D01*
X0145207Y0128439D01*
X0145066Y0128396D01*
X0144923Y0128356D01*
X0144779Y0128321D01*
X0144635Y0128289D01*
X0144489Y0128262D01*
X0144343Y0128238D01*
X0144196Y0128218D01*
X0144049Y0128202D01*
X0143902Y0128190D01*
X0143754Y0128182D01*
X0143606Y0128178D01*
X0143458Y0128178D01*
X0143310Y0128182D01*
X0143162Y0128190D01*
X0143015Y0128202D01*
X0142868Y0128218D01*
X0142721Y0128238D01*
X0142575Y0128262D01*
X0142429Y0128289D01*
X0142285Y0128321D01*
X0142141Y0128356D01*
X0141998Y0128396D01*
X0141857Y0128439D01*
X0141716Y0128486D01*
X0141577Y0128536D01*
X0141440Y0128591D01*
X0141304Y0128649D01*
X0141169Y0128710D01*
X0141036Y0128775D01*
X0140905Y0128844D01*
X0140776Y0128916D01*
X0140649Y0128992D01*
X0140524Y0129071D01*
X0140401Y0129154D01*
X0140280Y0129239D01*
X0140162Y0129328D01*
X0140046Y0129420D01*
X0139933Y0129516D01*
X0139822Y0129614D01*
X0139714Y0129715D01*
X0139608Y0129819D01*
X0139506Y0129925D01*
X0139406Y0130035D01*
X0139310Y0130147D01*
X0139216Y0130262D01*
X0139125Y0130379D01*
X0139038Y0130498D01*
X0138954Y0130620D01*
X0138873Y0130744D01*
X0138796Y0130870D01*
X0138722Y0130998D01*
X0138651Y0131128D01*
X0138584Y0131260D01*
X0138521Y0131394D01*
X0138461Y0131529D01*
X0138405Y0131666D01*
X0138352Y0131805D01*
X0138304Y0131945D01*
X0138259Y0132086D01*
X0138218Y0132228D01*
X0138180Y0132371D01*
X0138147Y0132515D01*
X0138117Y0132660D01*
X0138091Y0132806D01*
X0138070Y0132952D01*
X0138052Y0133099D01*
X0138038Y0133246D01*
X0138028Y0133394D01*
X0138022Y0133542D01*
X0138020Y0133690D01*
X0047469Y0106131D02*
X0047471Y0106279D01*
X0047477Y0106427D01*
X0047487Y0106575D01*
X0047501Y0106722D01*
X0047519Y0106869D01*
X0047540Y0107015D01*
X0047566Y0107161D01*
X0047596Y0107306D01*
X0047629Y0107450D01*
X0047667Y0107593D01*
X0047708Y0107735D01*
X0047753Y0107876D01*
X0047801Y0108016D01*
X0047854Y0108155D01*
X0047910Y0108292D01*
X0047970Y0108427D01*
X0048033Y0108561D01*
X0048100Y0108693D01*
X0048171Y0108823D01*
X0048245Y0108951D01*
X0048322Y0109077D01*
X0048403Y0109201D01*
X0048487Y0109323D01*
X0048574Y0109442D01*
X0048665Y0109559D01*
X0048759Y0109674D01*
X0048855Y0109786D01*
X0048955Y0109896D01*
X0049057Y0110002D01*
X0049163Y0110106D01*
X0049271Y0110207D01*
X0049382Y0110305D01*
X0049495Y0110401D01*
X0049611Y0110493D01*
X0049729Y0110582D01*
X0049850Y0110667D01*
X0049973Y0110750D01*
X0050098Y0110829D01*
X0050225Y0110905D01*
X0050354Y0110977D01*
X0050485Y0111046D01*
X0050618Y0111111D01*
X0050753Y0111172D01*
X0050889Y0111230D01*
X0051026Y0111285D01*
X0051165Y0111335D01*
X0051306Y0111382D01*
X0051447Y0111425D01*
X0051590Y0111465D01*
X0051734Y0111500D01*
X0051878Y0111532D01*
X0052024Y0111559D01*
X0052170Y0111583D01*
X0052317Y0111603D01*
X0052464Y0111619D01*
X0052611Y0111631D01*
X0052759Y0111639D01*
X0052907Y0111643D01*
X0053055Y0111643D01*
X0053203Y0111639D01*
X0053351Y0111631D01*
X0053498Y0111619D01*
X0053645Y0111603D01*
X0053792Y0111583D01*
X0053938Y0111559D01*
X0054084Y0111532D01*
X0054228Y0111500D01*
X0054372Y0111465D01*
X0054515Y0111425D01*
X0054656Y0111382D01*
X0054797Y0111335D01*
X0054936Y0111285D01*
X0055073Y0111230D01*
X0055209Y0111172D01*
X0055344Y0111111D01*
X0055477Y0111046D01*
X0055608Y0110977D01*
X0055737Y0110905D01*
X0055864Y0110829D01*
X0055989Y0110750D01*
X0056112Y0110667D01*
X0056233Y0110582D01*
X0056351Y0110493D01*
X0056467Y0110401D01*
X0056580Y0110305D01*
X0056691Y0110207D01*
X0056799Y0110106D01*
X0056905Y0110002D01*
X0057007Y0109896D01*
X0057107Y0109786D01*
X0057203Y0109674D01*
X0057297Y0109559D01*
X0057388Y0109442D01*
X0057475Y0109323D01*
X0057559Y0109201D01*
X0057640Y0109077D01*
X0057717Y0108951D01*
X0057791Y0108823D01*
X0057862Y0108693D01*
X0057929Y0108561D01*
X0057992Y0108427D01*
X0058052Y0108292D01*
X0058108Y0108155D01*
X0058161Y0108016D01*
X0058209Y0107876D01*
X0058254Y0107735D01*
X0058295Y0107593D01*
X0058333Y0107450D01*
X0058366Y0107306D01*
X0058396Y0107161D01*
X0058422Y0107015D01*
X0058443Y0106869D01*
X0058461Y0106722D01*
X0058475Y0106575D01*
X0058485Y0106427D01*
X0058491Y0106279D01*
X0058493Y0106131D01*
X0058491Y0105983D01*
X0058485Y0105835D01*
X0058475Y0105687D01*
X0058461Y0105540D01*
X0058443Y0105393D01*
X0058422Y0105247D01*
X0058396Y0105101D01*
X0058366Y0104956D01*
X0058333Y0104812D01*
X0058295Y0104669D01*
X0058254Y0104527D01*
X0058209Y0104386D01*
X0058161Y0104246D01*
X0058108Y0104107D01*
X0058052Y0103970D01*
X0057992Y0103835D01*
X0057929Y0103701D01*
X0057862Y0103569D01*
X0057791Y0103439D01*
X0057717Y0103311D01*
X0057640Y0103185D01*
X0057559Y0103061D01*
X0057475Y0102939D01*
X0057388Y0102820D01*
X0057297Y0102703D01*
X0057203Y0102588D01*
X0057107Y0102476D01*
X0057007Y0102366D01*
X0056905Y0102260D01*
X0056799Y0102156D01*
X0056691Y0102055D01*
X0056580Y0101957D01*
X0056467Y0101861D01*
X0056351Y0101769D01*
X0056233Y0101680D01*
X0056112Y0101595D01*
X0055989Y0101512D01*
X0055864Y0101433D01*
X0055737Y0101357D01*
X0055608Y0101285D01*
X0055477Y0101216D01*
X0055344Y0101151D01*
X0055209Y0101090D01*
X0055073Y0101032D01*
X0054936Y0100977D01*
X0054797Y0100927D01*
X0054656Y0100880D01*
X0054515Y0100837D01*
X0054372Y0100797D01*
X0054228Y0100762D01*
X0054084Y0100730D01*
X0053938Y0100703D01*
X0053792Y0100679D01*
X0053645Y0100659D01*
X0053498Y0100643D01*
X0053351Y0100631D01*
X0053203Y0100623D01*
X0053055Y0100619D01*
X0052907Y0100619D01*
X0052759Y0100623D01*
X0052611Y0100631D01*
X0052464Y0100643D01*
X0052317Y0100659D01*
X0052170Y0100679D01*
X0052024Y0100703D01*
X0051878Y0100730D01*
X0051734Y0100762D01*
X0051590Y0100797D01*
X0051447Y0100837D01*
X0051306Y0100880D01*
X0051165Y0100927D01*
X0051026Y0100977D01*
X0050889Y0101032D01*
X0050753Y0101090D01*
X0050618Y0101151D01*
X0050485Y0101216D01*
X0050354Y0101285D01*
X0050225Y0101357D01*
X0050098Y0101433D01*
X0049973Y0101512D01*
X0049850Y0101595D01*
X0049729Y0101680D01*
X0049611Y0101769D01*
X0049495Y0101861D01*
X0049382Y0101957D01*
X0049271Y0102055D01*
X0049163Y0102156D01*
X0049057Y0102260D01*
X0048955Y0102366D01*
X0048855Y0102476D01*
X0048759Y0102588D01*
X0048665Y0102703D01*
X0048574Y0102820D01*
X0048487Y0102939D01*
X0048403Y0103061D01*
X0048322Y0103185D01*
X0048245Y0103311D01*
X0048171Y0103439D01*
X0048100Y0103569D01*
X0048033Y0103701D01*
X0047970Y0103835D01*
X0047910Y0103970D01*
X0047854Y0104107D01*
X0047801Y0104246D01*
X0047753Y0104386D01*
X0047708Y0104527D01*
X0047667Y0104669D01*
X0047629Y0104812D01*
X0047596Y0104956D01*
X0047566Y0105101D01*
X0047540Y0105247D01*
X0047519Y0105393D01*
X0047501Y0105540D01*
X0047487Y0105687D01*
X0047477Y0105835D01*
X0047471Y0105983D01*
X0047469Y0106131D01*
X0138020Y0027391D02*
X0138022Y0027539D01*
X0138028Y0027687D01*
X0138038Y0027835D01*
X0138052Y0027982D01*
X0138070Y0028129D01*
X0138091Y0028275D01*
X0138117Y0028421D01*
X0138147Y0028566D01*
X0138180Y0028710D01*
X0138218Y0028853D01*
X0138259Y0028995D01*
X0138304Y0029136D01*
X0138352Y0029276D01*
X0138405Y0029415D01*
X0138461Y0029552D01*
X0138521Y0029687D01*
X0138584Y0029821D01*
X0138651Y0029953D01*
X0138722Y0030083D01*
X0138796Y0030211D01*
X0138873Y0030337D01*
X0138954Y0030461D01*
X0139038Y0030583D01*
X0139125Y0030702D01*
X0139216Y0030819D01*
X0139310Y0030934D01*
X0139406Y0031046D01*
X0139506Y0031156D01*
X0139608Y0031262D01*
X0139714Y0031366D01*
X0139822Y0031467D01*
X0139933Y0031565D01*
X0140046Y0031661D01*
X0140162Y0031753D01*
X0140280Y0031842D01*
X0140401Y0031927D01*
X0140524Y0032010D01*
X0140649Y0032089D01*
X0140776Y0032165D01*
X0140905Y0032237D01*
X0141036Y0032306D01*
X0141169Y0032371D01*
X0141304Y0032432D01*
X0141440Y0032490D01*
X0141577Y0032545D01*
X0141716Y0032595D01*
X0141857Y0032642D01*
X0141998Y0032685D01*
X0142141Y0032725D01*
X0142285Y0032760D01*
X0142429Y0032792D01*
X0142575Y0032819D01*
X0142721Y0032843D01*
X0142868Y0032863D01*
X0143015Y0032879D01*
X0143162Y0032891D01*
X0143310Y0032899D01*
X0143458Y0032903D01*
X0143606Y0032903D01*
X0143754Y0032899D01*
X0143902Y0032891D01*
X0144049Y0032879D01*
X0144196Y0032863D01*
X0144343Y0032843D01*
X0144489Y0032819D01*
X0144635Y0032792D01*
X0144779Y0032760D01*
X0144923Y0032725D01*
X0145066Y0032685D01*
X0145207Y0032642D01*
X0145348Y0032595D01*
X0145487Y0032545D01*
X0145624Y0032490D01*
X0145760Y0032432D01*
X0145895Y0032371D01*
X0146028Y0032306D01*
X0146159Y0032237D01*
X0146288Y0032165D01*
X0146415Y0032089D01*
X0146540Y0032010D01*
X0146663Y0031927D01*
X0146784Y0031842D01*
X0146902Y0031753D01*
X0147018Y0031661D01*
X0147131Y0031565D01*
X0147242Y0031467D01*
X0147350Y0031366D01*
X0147456Y0031262D01*
X0147558Y0031156D01*
X0147658Y0031046D01*
X0147754Y0030934D01*
X0147848Y0030819D01*
X0147939Y0030702D01*
X0148026Y0030583D01*
X0148110Y0030461D01*
X0148191Y0030337D01*
X0148268Y0030211D01*
X0148342Y0030083D01*
X0148413Y0029953D01*
X0148480Y0029821D01*
X0148543Y0029687D01*
X0148603Y0029552D01*
X0148659Y0029415D01*
X0148712Y0029276D01*
X0148760Y0029136D01*
X0148805Y0028995D01*
X0148846Y0028853D01*
X0148884Y0028710D01*
X0148917Y0028566D01*
X0148947Y0028421D01*
X0148973Y0028275D01*
X0148994Y0028129D01*
X0149012Y0027982D01*
X0149026Y0027835D01*
X0149036Y0027687D01*
X0149042Y0027539D01*
X0149044Y0027391D01*
X0149042Y0027243D01*
X0149036Y0027095D01*
X0149026Y0026947D01*
X0149012Y0026800D01*
X0148994Y0026653D01*
X0148973Y0026507D01*
X0148947Y0026361D01*
X0148917Y0026216D01*
X0148884Y0026072D01*
X0148846Y0025929D01*
X0148805Y0025787D01*
X0148760Y0025646D01*
X0148712Y0025506D01*
X0148659Y0025367D01*
X0148603Y0025230D01*
X0148543Y0025095D01*
X0148480Y0024961D01*
X0148413Y0024829D01*
X0148342Y0024699D01*
X0148268Y0024571D01*
X0148191Y0024445D01*
X0148110Y0024321D01*
X0148026Y0024199D01*
X0147939Y0024080D01*
X0147848Y0023963D01*
X0147754Y0023848D01*
X0147658Y0023736D01*
X0147558Y0023626D01*
X0147456Y0023520D01*
X0147350Y0023416D01*
X0147242Y0023315D01*
X0147131Y0023217D01*
X0147018Y0023121D01*
X0146902Y0023029D01*
X0146784Y0022940D01*
X0146663Y0022855D01*
X0146540Y0022772D01*
X0146415Y0022693D01*
X0146288Y0022617D01*
X0146159Y0022545D01*
X0146028Y0022476D01*
X0145895Y0022411D01*
X0145760Y0022350D01*
X0145624Y0022292D01*
X0145487Y0022237D01*
X0145348Y0022187D01*
X0145207Y0022140D01*
X0145066Y0022097D01*
X0144923Y0022057D01*
X0144779Y0022022D01*
X0144635Y0021990D01*
X0144489Y0021963D01*
X0144343Y0021939D01*
X0144196Y0021919D01*
X0144049Y0021903D01*
X0143902Y0021891D01*
X0143754Y0021883D01*
X0143606Y0021879D01*
X0143458Y0021879D01*
X0143310Y0021883D01*
X0143162Y0021891D01*
X0143015Y0021903D01*
X0142868Y0021919D01*
X0142721Y0021939D01*
X0142575Y0021963D01*
X0142429Y0021990D01*
X0142285Y0022022D01*
X0142141Y0022057D01*
X0141998Y0022097D01*
X0141857Y0022140D01*
X0141716Y0022187D01*
X0141577Y0022237D01*
X0141440Y0022292D01*
X0141304Y0022350D01*
X0141169Y0022411D01*
X0141036Y0022476D01*
X0140905Y0022545D01*
X0140776Y0022617D01*
X0140649Y0022693D01*
X0140524Y0022772D01*
X0140401Y0022855D01*
X0140280Y0022940D01*
X0140162Y0023029D01*
X0140046Y0023121D01*
X0139933Y0023217D01*
X0139822Y0023315D01*
X0139714Y0023416D01*
X0139608Y0023520D01*
X0139506Y0023626D01*
X0139406Y0023736D01*
X0139310Y0023848D01*
X0139216Y0023963D01*
X0139125Y0024080D01*
X0139038Y0024199D01*
X0138954Y0024321D01*
X0138873Y0024445D01*
X0138796Y0024571D01*
X0138722Y0024699D01*
X0138651Y0024829D01*
X0138584Y0024961D01*
X0138521Y0025095D01*
X0138461Y0025230D01*
X0138405Y0025367D01*
X0138352Y0025506D01*
X0138304Y0025646D01*
X0138259Y0025787D01*
X0138218Y0025929D01*
X0138180Y0026072D01*
X0138147Y0026216D01*
X0138117Y0026361D01*
X0138091Y0026507D01*
X0138070Y0026653D01*
X0138052Y0026800D01*
X0138038Y0026947D01*
X0138028Y0027095D01*
X0138022Y0027243D01*
X0138020Y0027391D01*
X0267942Y0027391D02*
X0267944Y0027539D01*
X0267950Y0027687D01*
X0267960Y0027835D01*
X0267974Y0027982D01*
X0267992Y0028129D01*
X0268013Y0028275D01*
X0268039Y0028421D01*
X0268069Y0028566D01*
X0268102Y0028710D01*
X0268140Y0028853D01*
X0268181Y0028995D01*
X0268226Y0029136D01*
X0268274Y0029276D01*
X0268327Y0029415D01*
X0268383Y0029552D01*
X0268443Y0029687D01*
X0268506Y0029821D01*
X0268573Y0029953D01*
X0268644Y0030083D01*
X0268718Y0030211D01*
X0268795Y0030337D01*
X0268876Y0030461D01*
X0268960Y0030583D01*
X0269047Y0030702D01*
X0269138Y0030819D01*
X0269232Y0030934D01*
X0269328Y0031046D01*
X0269428Y0031156D01*
X0269530Y0031262D01*
X0269636Y0031366D01*
X0269744Y0031467D01*
X0269855Y0031565D01*
X0269968Y0031661D01*
X0270084Y0031753D01*
X0270202Y0031842D01*
X0270323Y0031927D01*
X0270446Y0032010D01*
X0270571Y0032089D01*
X0270698Y0032165D01*
X0270827Y0032237D01*
X0270958Y0032306D01*
X0271091Y0032371D01*
X0271226Y0032432D01*
X0271362Y0032490D01*
X0271499Y0032545D01*
X0271638Y0032595D01*
X0271779Y0032642D01*
X0271920Y0032685D01*
X0272063Y0032725D01*
X0272207Y0032760D01*
X0272351Y0032792D01*
X0272497Y0032819D01*
X0272643Y0032843D01*
X0272790Y0032863D01*
X0272937Y0032879D01*
X0273084Y0032891D01*
X0273232Y0032899D01*
X0273380Y0032903D01*
X0273528Y0032903D01*
X0273676Y0032899D01*
X0273824Y0032891D01*
X0273971Y0032879D01*
X0274118Y0032863D01*
X0274265Y0032843D01*
X0274411Y0032819D01*
X0274557Y0032792D01*
X0274701Y0032760D01*
X0274845Y0032725D01*
X0274988Y0032685D01*
X0275129Y0032642D01*
X0275270Y0032595D01*
X0275409Y0032545D01*
X0275546Y0032490D01*
X0275682Y0032432D01*
X0275817Y0032371D01*
X0275950Y0032306D01*
X0276081Y0032237D01*
X0276210Y0032165D01*
X0276337Y0032089D01*
X0276462Y0032010D01*
X0276585Y0031927D01*
X0276706Y0031842D01*
X0276824Y0031753D01*
X0276940Y0031661D01*
X0277053Y0031565D01*
X0277164Y0031467D01*
X0277272Y0031366D01*
X0277378Y0031262D01*
X0277480Y0031156D01*
X0277580Y0031046D01*
X0277676Y0030934D01*
X0277770Y0030819D01*
X0277861Y0030702D01*
X0277948Y0030583D01*
X0278032Y0030461D01*
X0278113Y0030337D01*
X0278190Y0030211D01*
X0278264Y0030083D01*
X0278335Y0029953D01*
X0278402Y0029821D01*
X0278465Y0029687D01*
X0278525Y0029552D01*
X0278581Y0029415D01*
X0278634Y0029276D01*
X0278682Y0029136D01*
X0278727Y0028995D01*
X0278768Y0028853D01*
X0278806Y0028710D01*
X0278839Y0028566D01*
X0278869Y0028421D01*
X0278895Y0028275D01*
X0278916Y0028129D01*
X0278934Y0027982D01*
X0278948Y0027835D01*
X0278958Y0027687D01*
X0278964Y0027539D01*
X0278966Y0027391D01*
X0278964Y0027243D01*
X0278958Y0027095D01*
X0278948Y0026947D01*
X0278934Y0026800D01*
X0278916Y0026653D01*
X0278895Y0026507D01*
X0278869Y0026361D01*
X0278839Y0026216D01*
X0278806Y0026072D01*
X0278768Y0025929D01*
X0278727Y0025787D01*
X0278682Y0025646D01*
X0278634Y0025506D01*
X0278581Y0025367D01*
X0278525Y0025230D01*
X0278465Y0025095D01*
X0278402Y0024961D01*
X0278335Y0024829D01*
X0278264Y0024699D01*
X0278190Y0024571D01*
X0278113Y0024445D01*
X0278032Y0024321D01*
X0277948Y0024199D01*
X0277861Y0024080D01*
X0277770Y0023963D01*
X0277676Y0023848D01*
X0277580Y0023736D01*
X0277480Y0023626D01*
X0277378Y0023520D01*
X0277272Y0023416D01*
X0277164Y0023315D01*
X0277053Y0023217D01*
X0276940Y0023121D01*
X0276824Y0023029D01*
X0276706Y0022940D01*
X0276585Y0022855D01*
X0276462Y0022772D01*
X0276337Y0022693D01*
X0276210Y0022617D01*
X0276081Y0022545D01*
X0275950Y0022476D01*
X0275817Y0022411D01*
X0275682Y0022350D01*
X0275546Y0022292D01*
X0275409Y0022237D01*
X0275270Y0022187D01*
X0275129Y0022140D01*
X0274988Y0022097D01*
X0274845Y0022057D01*
X0274701Y0022022D01*
X0274557Y0021990D01*
X0274411Y0021963D01*
X0274265Y0021939D01*
X0274118Y0021919D01*
X0273971Y0021903D01*
X0273824Y0021891D01*
X0273676Y0021883D01*
X0273528Y0021879D01*
X0273380Y0021879D01*
X0273232Y0021883D01*
X0273084Y0021891D01*
X0272937Y0021903D01*
X0272790Y0021919D01*
X0272643Y0021939D01*
X0272497Y0021963D01*
X0272351Y0021990D01*
X0272207Y0022022D01*
X0272063Y0022057D01*
X0271920Y0022097D01*
X0271779Y0022140D01*
X0271638Y0022187D01*
X0271499Y0022237D01*
X0271362Y0022292D01*
X0271226Y0022350D01*
X0271091Y0022411D01*
X0270958Y0022476D01*
X0270827Y0022545D01*
X0270698Y0022617D01*
X0270571Y0022693D01*
X0270446Y0022772D01*
X0270323Y0022855D01*
X0270202Y0022940D01*
X0270084Y0023029D01*
X0269968Y0023121D01*
X0269855Y0023217D01*
X0269744Y0023315D01*
X0269636Y0023416D01*
X0269530Y0023520D01*
X0269428Y0023626D01*
X0269328Y0023736D01*
X0269232Y0023848D01*
X0269138Y0023963D01*
X0269047Y0024080D01*
X0268960Y0024199D01*
X0268876Y0024321D01*
X0268795Y0024445D01*
X0268718Y0024571D01*
X0268644Y0024699D01*
X0268573Y0024829D01*
X0268506Y0024961D01*
X0268443Y0025095D01*
X0268383Y0025230D01*
X0268327Y0025367D01*
X0268274Y0025506D01*
X0268226Y0025646D01*
X0268181Y0025787D01*
X0268140Y0025929D01*
X0268102Y0026072D01*
X0268069Y0026216D01*
X0268039Y0026361D01*
X0268013Y0026507D01*
X0267992Y0026653D01*
X0267974Y0026800D01*
X0267960Y0026947D01*
X0267950Y0027095D01*
X0267944Y0027243D01*
X0267942Y0027391D01*
X0267942Y0163217D02*
X0267944Y0163365D01*
X0267950Y0163513D01*
X0267960Y0163661D01*
X0267974Y0163808D01*
X0267992Y0163955D01*
X0268013Y0164101D01*
X0268039Y0164247D01*
X0268069Y0164392D01*
X0268102Y0164536D01*
X0268140Y0164679D01*
X0268181Y0164821D01*
X0268226Y0164962D01*
X0268274Y0165102D01*
X0268327Y0165241D01*
X0268383Y0165378D01*
X0268443Y0165513D01*
X0268506Y0165647D01*
X0268573Y0165779D01*
X0268644Y0165909D01*
X0268718Y0166037D01*
X0268795Y0166163D01*
X0268876Y0166287D01*
X0268960Y0166409D01*
X0269047Y0166528D01*
X0269138Y0166645D01*
X0269232Y0166760D01*
X0269328Y0166872D01*
X0269428Y0166982D01*
X0269530Y0167088D01*
X0269636Y0167192D01*
X0269744Y0167293D01*
X0269855Y0167391D01*
X0269968Y0167487D01*
X0270084Y0167579D01*
X0270202Y0167668D01*
X0270323Y0167753D01*
X0270446Y0167836D01*
X0270571Y0167915D01*
X0270698Y0167991D01*
X0270827Y0168063D01*
X0270958Y0168132D01*
X0271091Y0168197D01*
X0271226Y0168258D01*
X0271362Y0168316D01*
X0271499Y0168371D01*
X0271638Y0168421D01*
X0271779Y0168468D01*
X0271920Y0168511D01*
X0272063Y0168551D01*
X0272207Y0168586D01*
X0272351Y0168618D01*
X0272497Y0168645D01*
X0272643Y0168669D01*
X0272790Y0168689D01*
X0272937Y0168705D01*
X0273084Y0168717D01*
X0273232Y0168725D01*
X0273380Y0168729D01*
X0273528Y0168729D01*
X0273676Y0168725D01*
X0273824Y0168717D01*
X0273971Y0168705D01*
X0274118Y0168689D01*
X0274265Y0168669D01*
X0274411Y0168645D01*
X0274557Y0168618D01*
X0274701Y0168586D01*
X0274845Y0168551D01*
X0274988Y0168511D01*
X0275129Y0168468D01*
X0275270Y0168421D01*
X0275409Y0168371D01*
X0275546Y0168316D01*
X0275682Y0168258D01*
X0275817Y0168197D01*
X0275950Y0168132D01*
X0276081Y0168063D01*
X0276210Y0167991D01*
X0276337Y0167915D01*
X0276462Y0167836D01*
X0276585Y0167753D01*
X0276706Y0167668D01*
X0276824Y0167579D01*
X0276940Y0167487D01*
X0277053Y0167391D01*
X0277164Y0167293D01*
X0277272Y0167192D01*
X0277378Y0167088D01*
X0277480Y0166982D01*
X0277580Y0166872D01*
X0277676Y0166760D01*
X0277770Y0166645D01*
X0277861Y0166528D01*
X0277948Y0166409D01*
X0278032Y0166287D01*
X0278113Y0166163D01*
X0278190Y0166037D01*
X0278264Y0165909D01*
X0278335Y0165779D01*
X0278402Y0165647D01*
X0278465Y0165513D01*
X0278525Y0165378D01*
X0278581Y0165241D01*
X0278634Y0165102D01*
X0278682Y0164962D01*
X0278727Y0164821D01*
X0278768Y0164679D01*
X0278806Y0164536D01*
X0278839Y0164392D01*
X0278869Y0164247D01*
X0278895Y0164101D01*
X0278916Y0163955D01*
X0278934Y0163808D01*
X0278948Y0163661D01*
X0278958Y0163513D01*
X0278964Y0163365D01*
X0278966Y0163217D01*
X0278964Y0163069D01*
X0278958Y0162921D01*
X0278948Y0162773D01*
X0278934Y0162626D01*
X0278916Y0162479D01*
X0278895Y0162333D01*
X0278869Y0162187D01*
X0278839Y0162042D01*
X0278806Y0161898D01*
X0278768Y0161755D01*
X0278727Y0161613D01*
X0278682Y0161472D01*
X0278634Y0161332D01*
X0278581Y0161193D01*
X0278525Y0161056D01*
X0278465Y0160921D01*
X0278402Y0160787D01*
X0278335Y0160655D01*
X0278264Y0160525D01*
X0278190Y0160397D01*
X0278113Y0160271D01*
X0278032Y0160147D01*
X0277948Y0160025D01*
X0277861Y0159906D01*
X0277770Y0159789D01*
X0277676Y0159674D01*
X0277580Y0159562D01*
X0277480Y0159452D01*
X0277378Y0159346D01*
X0277272Y0159242D01*
X0277164Y0159141D01*
X0277053Y0159043D01*
X0276940Y0158947D01*
X0276824Y0158855D01*
X0276706Y0158766D01*
X0276585Y0158681D01*
X0276462Y0158598D01*
X0276337Y0158519D01*
X0276210Y0158443D01*
X0276081Y0158371D01*
X0275950Y0158302D01*
X0275817Y0158237D01*
X0275682Y0158176D01*
X0275546Y0158118D01*
X0275409Y0158063D01*
X0275270Y0158013D01*
X0275129Y0157966D01*
X0274988Y0157923D01*
X0274845Y0157883D01*
X0274701Y0157848D01*
X0274557Y0157816D01*
X0274411Y0157789D01*
X0274265Y0157765D01*
X0274118Y0157745D01*
X0273971Y0157729D01*
X0273824Y0157717D01*
X0273676Y0157709D01*
X0273528Y0157705D01*
X0273380Y0157705D01*
X0273232Y0157709D01*
X0273084Y0157717D01*
X0272937Y0157729D01*
X0272790Y0157745D01*
X0272643Y0157765D01*
X0272497Y0157789D01*
X0272351Y0157816D01*
X0272207Y0157848D01*
X0272063Y0157883D01*
X0271920Y0157923D01*
X0271779Y0157966D01*
X0271638Y0158013D01*
X0271499Y0158063D01*
X0271362Y0158118D01*
X0271226Y0158176D01*
X0271091Y0158237D01*
X0270958Y0158302D01*
X0270827Y0158371D01*
X0270698Y0158443D01*
X0270571Y0158519D01*
X0270446Y0158598D01*
X0270323Y0158681D01*
X0270202Y0158766D01*
X0270084Y0158855D01*
X0269968Y0158947D01*
X0269855Y0159043D01*
X0269744Y0159141D01*
X0269636Y0159242D01*
X0269530Y0159346D01*
X0269428Y0159452D01*
X0269328Y0159562D01*
X0269232Y0159674D01*
X0269138Y0159789D01*
X0269047Y0159906D01*
X0268960Y0160025D01*
X0268876Y0160147D01*
X0268795Y0160271D01*
X0268718Y0160397D01*
X0268644Y0160525D01*
X0268573Y0160655D01*
X0268506Y0160787D01*
X0268443Y0160921D01*
X0268383Y0161056D01*
X0268327Y0161193D01*
X0268274Y0161332D01*
X0268226Y0161472D01*
X0268181Y0161613D01*
X0268140Y0161755D01*
X0268102Y0161898D01*
X0268069Y0162042D01*
X0268039Y0162187D01*
X0268013Y0162333D01*
X0267992Y0162479D01*
X0267974Y0162626D01*
X0267960Y0162773D01*
X0267950Y0162921D01*
X0267944Y0163069D01*
X0267942Y0163217D01*
D13*
X0251800Y0180402D02*
X0251800Y0117410D01*
X0234742Y0108024D02*
X0233167Y0109599D01*
X0226868Y0109599D01*
X0225293Y0108024D01*
X0225293Y0103693D01*
X0234742Y0103693D02*
X0234742Y0108024D01*
X0234742Y0095819D02*
X0234742Y0089913D01*
X0225293Y0089913D01*
X0225293Y0095819D01*
X0188808Y0117410D02*
X0188808Y0180402D01*
X0200619Y0158749D02*
X0214398Y0158749D01*
X0214398Y0144969D01*
X0200619Y0144969D01*
X0200619Y0158749D01*
X0207115Y0141032D02*
X0207115Y0128434D01*
X0226800Y0128434D01*
X0226800Y0141032D01*
X0207115Y0141032D01*
X0171091Y0136052D02*
X0159280Y0136052D01*
X0163217Y0135658D02*
X0163219Y0135571D01*
X0163225Y0135484D01*
X0163234Y0135397D01*
X0163248Y0135311D01*
X0163265Y0135226D01*
X0163286Y0135141D01*
X0163311Y0135058D01*
X0163339Y0134975D01*
X0163371Y0134894D01*
X0163407Y0134815D01*
X0163446Y0134737D01*
X0163488Y0134661D01*
X0163534Y0134587D01*
X0163583Y0134515D01*
X0163635Y0134445D01*
X0163690Y0134378D01*
X0163748Y0134313D01*
X0163809Y0134250D01*
X0163873Y0134191D01*
X0163939Y0134134D01*
X0164008Y0134081D01*
X0164079Y0134030D01*
X0164152Y0133983D01*
X0164227Y0133938D01*
X0164304Y0133898D01*
X0164382Y0133860D01*
X0164463Y0133827D01*
X0164544Y0133796D01*
X0164627Y0133770D01*
X0164712Y0133747D01*
X0164797Y0133728D01*
X0164882Y0133713D01*
X0164969Y0133701D01*
X0165055Y0133693D01*
X0165142Y0133689D01*
X0165230Y0133689D01*
X0165317Y0133693D01*
X0165403Y0133701D01*
X0165490Y0133713D01*
X0165575Y0133728D01*
X0165660Y0133747D01*
X0165745Y0133770D01*
X0165828Y0133796D01*
X0165909Y0133827D01*
X0165990Y0133860D01*
X0166068Y0133898D01*
X0166145Y0133938D01*
X0166220Y0133983D01*
X0166293Y0134030D01*
X0166364Y0134081D01*
X0166433Y0134134D01*
X0166499Y0134191D01*
X0166563Y0134250D01*
X0166624Y0134313D01*
X0166682Y0134378D01*
X0166737Y0134445D01*
X0166789Y0134515D01*
X0166838Y0134587D01*
X0166884Y0134661D01*
X0166926Y0134737D01*
X0166965Y0134815D01*
X0167001Y0134894D01*
X0167033Y0134975D01*
X0167061Y0135058D01*
X0167086Y0135141D01*
X0167107Y0135226D01*
X0167124Y0135311D01*
X0167138Y0135397D01*
X0167147Y0135484D01*
X0167153Y0135571D01*
X0167155Y0135658D01*
X0171091Y0126209D02*
X0171091Y0115186D01*
X0159280Y0115186D02*
X0159280Y0126209D01*
X0159280Y0105343D02*
X0171091Y0105343D01*
D14*
X0208743Y0133850D02*
X0209185Y0133408D01*
X0210069Y0133408D01*
X0210511Y0133850D01*
X0211643Y0133408D02*
X0211643Y0135176D01*
X0211643Y0134292D02*
X0212527Y0135176D01*
X0212969Y0135176D01*
X0214060Y0135176D02*
X0214060Y0133850D01*
X0214502Y0133408D01*
X0215828Y0133408D01*
X0215828Y0132966D02*
X0215386Y0132524D01*
X0214944Y0132524D01*
X0215828Y0132966D02*
X0215828Y0135176D01*
X0216960Y0134734D02*
X0217402Y0135176D01*
X0218728Y0135176D01*
X0218286Y0134292D02*
X0217402Y0134292D01*
X0216960Y0134734D01*
X0216960Y0133408D02*
X0218286Y0133408D01*
X0218728Y0133850D01*
X0218286Y0134292D01*
X0219860Y0135176D02*
X0220744Y0135176D01*
X0220302Y0135618D02*
X0220302Y0133850D01*
X0220744Y0133408D01*
X0221793Y0133850D02*
X0222235Y0134292D01*
X0223561Y0134292D01*
X0223561Y0134734D02*
X0223561Y0133408D01*
X0222235Y0133408D01*
X0221793Y0133850D01*
X0222235Y0135176D02*
X0223119Y0135176D01*
X0223561Y0134734D01*
X0224694Y0133408D02*
X0225577Y0133408D01*
X0225135Y0133408D02*
X0225135Y0136060D01*
X0224694Y0136060D01*
X0210511Y0135618D02*
X0210069Y0136060D01*
X0209185Y0136060D01*
X0208743Y0135618D01*
X0208743Y0133850D01*
X0209030Y0149047D02*
X0209030Y0149931D01*
X0209030Y0149489D02*
X0206378Y0149489D01*
X0206378Y0149047D02*
X0206378Y0149931D01*
X0206820Y0150981D02*
X0208588Y0150981D01*
X0209030Y0151423D01*
X0209030Y0152307D01*
X0208588Y0152748D01*
X0206820Y0152748D02*
X0206378Y0152307D01*
X0206378Y0151423D01*
X0206820Y0150981D01*
X0245304Y0171406D02*
X0245306Y0171505D01*
X0245312Y0171605D01*
X0245322Y0171704D01*
X0245336Y0171802D01*
X0245353Y0171900D01*
X0245375Y0171997D01*
X0245400Y0172093D01*
X0245429Y0172188D01*
X0245462Y0172282D01*
X0245499Y0172374D01*
X0245539Y0172465D01*
X0245583Y0172554D01*
X0245631Y0172642D01*
X0245682Y0172727D01*
X0245736Y0172810D01*
X0245793Y0172892D01*
X0245854Y0172970D01*
X0245918Y0173047D01*
X0245984Y0173120D01*
X0246054Y0173191D01*
X0246126Y0173259D01*
X0246201Y0173325D01*
X0246279Y0173387D01*
X0246359Y0173446D01*
X0246441Y0173502D01*
X0246525Y0173554D01*
X0246612Y0173603D01*
X0246700Y0173649D01*
X0246790Y0173691D01*
X0246882Y0173730D01*
X0246975Y0173765D01*
X0247069Y0173796D01*
X0247165Y0173823D01*
X0247262Y0173846D01*
X0247359Y0173866D01*
X0247457Y0173882D01*
X0247556Y0173894D01*
X0247655Y0173902D01*
X0247754Y0173906D01*
X0247854Y0173906D01*
X0247953Y0173902D01*
X0248052Y0173894D01*
X0248151Y0173882D01*
X0248249Y0173866D01*
X0248346Y0173846D01*
X0248443Y0173823D01*
X0248539Y0173796D01*
X0248633Y0173765D01*
X0248726Y0173730D01*
X0248818Y0173691D01*
X0248908Y0173649D01*
X0248996Y0173603D01*
X0249083Y0173554D01*
X0249167Y0173502D01*
X0249249Y0173446D01*
X0249329Y0173387D01*
X0249407Y0173325D01*
X0249482Y0173259D01*
X0249554Y0173191D01*
X0249624Y0173120D01*
X0249690Y0173047D01*
X0249754Y0172970D01*
X0249815Y0172892D01*
X0249872Y0172810D01*
X0249926Y0172727D01*
X0249977Y0172642D01*
X0250025Y0172554D01*
X0250069Y0172465D01*
X0250109Y0172374D01*
X0250146Y0172282D01*
X0250179Y0172188D01*
X0250208Y0172093D01*
X0250233Y0171997D01*
X0250255Y0171900D01*
X0250272Y0171802D01*
X0250286Y0171704D01*
X0250296Y0171605D01*
X0250302Y0171505D01*
X0250304Y0171406D01*
X0250302Y0171307D01*
X0250296Y0171207D01*
X0250286Y0171108D01*
X0250272Y0171010D01*
X0250255Y0170912D01*
X0250233Y0170815D01*
X0250208Y0170719D01*
X0250179Y0170624D01*
X0250146Y0170530D01*
X0250109Y0170438D01*
X0250069Y0170347D01*
X0250025Y0170258D01*
X0249977Y0170170D01*
X0249926Y0170085D01*
X0249872Y0170002D01*
X0249815Y0169920D01*
X0249754Y0169842D01*
X0249690Y0169765D01*
X0249624Y0169692D01*
X0249554Y0169621D01*
X0249482Y0169553D01*
X0249407Y0169487D01*
X0249329Y0169425D01*
X0249249Y0169366D01*
X0249167Y0169310D01*
X0249083Y0169258D01*
X0248996Y0169209D01*
X0248908Y0169163D01*
X0248818Y0169121D01*
X0248726Y0169082D01*
X0248633Y0169047D01*
X0248539Y0169016D01*
X0248443Y0168989D01*
X0248346Y0168966D01*
X0248249Y0168946D01*
X0248151Y0168930D01*
X0248052Y0168918D01*
X0247953Y0168910D01*
X0247854Y0168906D01*
X0247754Y0168906D01*
X0247655Y0168910D01*
X0247556Y0168918D01*
X0247457Y0168930D01*
X0247359Y0168946D01*
X0247262Y0168966D01*
X0247165Y0168989D01*
X0247069Y0169016D01*
X0246975Y0169047D01*
X0246882Y0169082D01*
X0246790Y0169121D01*
X0246700Y0169163D01*
X0246612Y0169209D01*
X0246525Y0169258D01*
X0246441Y0169310D01*
X0246359Y0169366D01*
X0246279Y0169425D01*
X0246201Y0169487D01*
X0246126Y0169553D01*
X0246054Y0169621D01*
X0245984Y0169692D01*
X0245918Y0169765D01*
X0245854Y0169842D01*
X0245793Y0169920D01*
X0245736Y0170002D01*
X0245682Y0170085D01*
X0245631Y0170170D01*
X0245583Y0170258D01*
X0245539Y0170347D01*
X0245499Y0170438D01*
X0245462Y0170530D01*
X0245429Y0170624D01*
X0245400Y0170719D01*
X0245375Y0170815D01*
X0245353Y0170912D01*
X0245336Y0171010D01*
X0245322Y0171108D01*
X0245312Y0171207D01*
X0245306Y0171307D01*
X0245304Y0171406D01*
X0234017Y0101256D02*
X0226017Y0101256D01*
X0249674Y0018198D02*
X0257548Y0018198D01*
X0256667Y0007048D02*
X0256669Y0007087D01*
X0256675Y0007126D01*
X0256685Y0007164D01*
X0256698Y0007201D01*
X0256715Y0007236D01*
X0256735Y0007270D01*
X0256759Y0007301D01*
X0256786Y0007330D01*
X0256815Y0007356D01*
X0256847Y0007379D01*
X0256881Y0007399D01*
X0256917Y0007415D01*
X0256954Y0007427D01*
X0256993Y0007436D01*
X0257032Y0007441D01*
X0257071Y0007442D01*
X0257110Y0007439D01*
X0257149Y0007432D01*
X0257186Y0007421D01*
X0257223Y0007407D01*
X0257258Y0007389D01*
X0257291Y0007368D01*
X0257322Y0007343D01*
X0257350Y0007316D01*
X0257375Y0007286D01*
X0257397Y0007253D01*
X0257416Y0007219D01*
X0257431Y0007183D01*
X0257443Y0007145D01*
X0257451Y0007107D01*
X0257455Y0007068D01*
X0257455Y0007028D01*
X0257451Y0006989D01*
X0257443Y0006951D01*
X0257431Y0006913D01*
X0257416Y0006877D01*
X0257397Y0006843D01*
X0257375Y0006810D01*
X0257350Y0006780D01*
X0257322Y0006753D01*
X0257291Y0006728D01*
X0257258Y0006707D01*
X0257223Y0006689D01*
X0257186Y0006675D01*
X0257149Y0006664D01*
X0257110Y0006657D01*
X0257071Y0006654D01*
X0257032Y0006655D01*
X0256993Y0006660D01*
X0256954Y0006669D01*
X0256917Y0006681D01*
X0256881Y0006697D01*
X0256847Y0006717D01*
X0256815Y0006740D01*
X0256786Y0006766D01*
X0256759Y0006795D01*
X0256735Y0006826D01*
X0256715Y0006860D01*
X0256698Y0006895D01*
X0256685Y0006932D01*
X0256675Y0006970D01*
X0256669Y0007009D01*
X0256667Y0007048D01*
X0257548Y0006898D02*
X0249674Y0006898D01*
X0073854Y0179560D02*
X0073854Y0182563D01*
X0072353Y0181062D02*
X0075356Y0181062D01*
X0024962Y0181062D02*
X0021959Y0181062D01*
D15*
X0296347Y0058344D02*
X0349497Y0005194D01*
X0327942Y0015726D02*
X0327944Y0015800D01*
X0327950Y0015874D01*
X0327960Y0015947D01*
X0327974Y0016020D01*
X0327991Y0016092D01*
X0328013Y0016162D01*
X0328038Y0016232D01*
X0328067Y0016300D01*
X0328100Y0016366D01*
X0328136Y0016431D01*
X0328176Y0016493D01*
X0328218Y0016554D01*
X0328264Y0016612D01*
X0328313Y0016667D01*
X0328365Y0016720D01*
X0328420Y0016770D01*
X0328477Y0016816D01*
X0328537Y0016860D01*
X0328599Y0016900D01*
X0328663Y0016937D01*
X0328729Y0016971D01*
X0328797Y0017001D01*
X0328866Y0017027D01*
X0328937Y0017050D01*
X0329008Y0017068D01*
X0329081Y0017083D01*
X0329154Y0017094D01*
X0329228Y0017101D01*
X0329302Y0017104D01*
X0329375Y0017103D01*
X0329449Y0017098D01*
X0329523Y0017089D01*
X0329596Y0017076D01*
X0329668Y0017059D01*
X0329739Y0017039D01*
X0329809Y0017014D01*
X0329877Y0016986D01*
X0329944Y0016955D01*
X0330009Y0016919D01*
X0330072Y0016881D01*
X0330133Y0016839D01*
X0330192Y0016793D01*
X0330248Y0016745D01*
X0330301Y0016694D01*
X0330351Y0016640D01*
X0330399Y0016583D01*
X0330443Y0016524D01*
X0330485Y0016462D01*
X0330523Y0016399D01*
X0330557Y0016333D01*
X0330588Y0016266D01*
X0330615Y0016197D01*
X0330638Y0016127D01*
X0330658Y0016056D01*
X0330674Y0015983D01*
X0330686Y0015910D01*
X0330694Y0015837D01*
X0330698Y0015763D01*
X0330698Y0015689D01*
X0330694Y0015615D01*
X0330686Y0015542D01*
X0330674Y0015469D01*
X0330658Y0015396D01*
X0330638Y0015325D01*
X0330615Y0015255D01*
X0330588Y0015186D01*
X0330557Y0015119D01*
X0330523Y0015053D01*
X0330485Y0014990D01*
X0330443Y0014928D01*
X0330399Y0014869D01*
X0330351Y0014812D01*
X0330301Y0014758D01*
X0330248Y0014707D01*
X0330192Y0014659D01*
X0330133Y0014613D01*
X0330072Y0014571D01*
X0330009Y0014533D01*
X0329944Y0014497D01*
X0329877Y0014466D01*
X0329809Y0014438D01*
X0329739Y0014413D01*
X0329668Y0014393D01*
X0329596Y0014376D01*
X0329523Y0014363D01*
X0329449Y0014354D01*
X0329375Y0014349D01*
X0329302Y0014348D01*
X0329228Y0014351D01*
X0329154Y0014358D01*
X0329081Y0014369D01*
X0329008Y0014384D01*
X0328937Y0014402D01*
X0328866Y0014425D01*
X0328797Y0014451D01*
X0328729Y0014481D01*
X0328663Y0014515D01*
X0328599Y0014552D01*
X0328537Y0014592D01*
X0328477Y0014636D01*
X0328420Y0014682D01*
X0328365Y0014732D01*
X0328313Y0014785D01*
X0328264Y0014840D01*
X0328218Y0014898D01*
X0328176Y0014959D01*
X0328136Y0015021D01*
X0328100Y0015086D01*
X0328067Y0015152D01*
X0328038Y0015220D01*
X0328013Y0015290D01*
X0327991Y0015360D01*
X0327974Y0015432D01*
X0327960Y0015505D01*
X0327950Y0015578D01*
X0327944Y0015652D01*
X0327942Y0015726D01*
X0326662Y0015430D02*
X0316721Y0015332D01*
X0316426Y0015135D02*
X0316426Y0013856D01*
X0316428Y0013810D01*
X0316433Y0013764D01*
X0316442Y0013718D01*
X0316455Y0013673D01*
X0316471Y0013630D01*
X0316490Y0013588D01*
X0316513Y0013547D01*
X0316539Y0013509D01*
X0316568Y0013472D01*
X0316599Y0013438D01*
X0316633Y0013407D01*
X0316670Y0013378D01*
X0316708Y0013352D01*
X0316749Y0013329D01*
X0316791Y0013310D01*
X0316834Y0013294D01*
X0316879Y0013281D01*
X0316925Y0013272D01*
X0316971Y0013267D01*
X0317017Y0013265D01*
X0317213Y0013265D01*
X0317256Y0013267D01*
X0317298Y0013272D01*
X0317340Y0013282D01*
X0317381Y0013295D01*
X0317421Y0013311D01*
X0317459Y0013331D01*
X0317495Y0013354D01*
X0317529Y0013380D01*
X0317561Y0013409D01*
X0317590Y0013441D01*
X0317616Y0013475D01*
X0317639Y0013511D01*
X0317659Y0013549D01*
X0317675Y0013589D01*
X0317688Y0013630D01*
X0317698Y0013672D01*
X0317703Y0013714D01*
X0317705Y0013757D01*
X0317706Y0013757D02*
X0317706Y0015135D01*
X0316131Y0015430D02*
X0316074Y0015438D01*
X0316017Y0015449D01*
X0315962Y0015464D01*
X0315908Y0015482D01*
X0315855Y0015504D01*
X0315803Y0015530D01*
X0315753Y0015558D01*
X0315706Y0015590D01*
X0315660Y0015625D01*
X0315617Y0015663D01*
X0315576Y0015704D01*
X0315538Y0015747D01*
X0315503Y0015793D01*
X0315471Y0015840D01*
X0315443Y0015890D01*
X0315417Y0015942D01*
X0315395Y0015995D01*
X0315377Y0016049D01*
X0315362Y0016104D01*
X0315351Y0016161D01*
X0315343Y0016218D01*
X0312489Y0045155D01*
X0312686Y0045253D02*
X0311111Y0045253D01*
X0311085Y0045255D01*
X0311060Y0045260D01*
X0311036Y0045268D01*
X0311013Y0045279D01*
X0310991Y0045294D01*
X0310972Y0045311D01*
X0310955Y0045330D01*
X0310940Y0045352D01*
X0310929Y0045375D01*
X0310921Y0045399D01*
X0310916Y0045424D01*
X0310914Y0045450D01*
X0310914Y0045745D01*
X0310914Y0045942D01*
X0310916Y0045975D01*
X0310921Y0046008D01*
X0310931Y0046039D01*
X0310943Y0046070D01*
X0310959Y0046099D01*
X0310978Y0046126D01*
X0311000Y0046151D01*
X0311025Y0046173D01*
X0311052Y0046192D01*
X0311081Y0046208D01*
X0311112Y0046220D01*
X0311143Y0046230D01*
X0311176Y0046235D01*
X0311209Y0046237D01*
X0311308Y0046237D01*
X0311406Y0046237D01*
X0334831Y0046237D01*
X0334831Y0046139D01*
X0334832Y0046139D02*
X0334830Y0046081D01*
X0334824Y0046023D01*
X0334815Y0045966D01*
X0334802Y0045910D01*
X0334785Y0045854D01*
X0334765Y0045800D01*
X0334741Y0045747D01*
X0334713Y0045696D01*
X0334683Y0045647D01*
X0334649Y0045600D01*
X0334612Y0045555D01*
X0334572Y0045513D01*
X0334530Y0045473D01*
X0334485Y0045436D01*
X0334438Y0045402D01*
X0334389Y0045372D01*
X0334338Y0045344D01*
X0334285Y0045320D01*
X0334231Y0045300D01*
X0334175Y0045283D01*
X0334119Y0045270D01*
X0334062Y0045261D01*
X0334004Y0045255D01*
X0333946Y0045253D01*
X0329221Y0045253D01*
X0321150Y0045253D01*
X0312686Y0045253D01*
X0312587Y0046533D02*
X0332961Y0046533D01*
X0333256Y0046533D02*
X0333267Y0046576D01*
X0333275Y0046619D01*
X0333279Y0046663D01*
X0333280Y0046708D01*
X0333277Y0046752D01*
X0333270Y0046795D01*
X0333259Y0046838D01*
X0333245Y0046880D01*
X0333228Y0046921D01*
X0333207Y0046960D01*
X0333183Y0046997D01*
X0333156Y0047033D01*
X0333126Y0047065D01*
X0333094Y0047096D01*
X0333059Y0047123D01*
X0332765Y0046237D02*
X0332767Y0046299D01*
X0332773Y0046362D01*
X0332783Y0046423D01*
X0332797Y0046484D01*
X0332814Y0046544D01*
X0332835Y0046603D01*
X0332861Y0046660D01*
X0332889Y0046715D01*
X0332921Y0046769D01*
X0332957Y0046820D01*
X0332995Y0046870D01*
X0333037Y0046916D01*
X0333081Y0046960D01*
X0333129Y0047001D01*
X0333178Y0047039D01*
X0333230Y0047073D01*
X0333284Y0047104D01*
X0333340Y0047132D01*
X0333398Y0047156D01*
X0333457Y0047177D01*
X0333517Y0047193D01*
X0333578Y0047206D01*
X0333640Y0047215D01*
X0333702Y0047220D01*
X0333765Y0047221D01*
X0333827Y0047218D01*
X0333889Y0047211D01*
X0333951Y0047200D01*
X0334011Y0047185D01*
X0334071Y0047167D01*
X0334129Y0047145D01*
X0334186Y0047119D01*
X0334241Y0047089D01*
X0334294Y0047056D01*
X0334345Y0047020D01*
X0334393Y0046981D01*
X0334439Y0046938D01*
X0334482Y0046893D01*
X0334522Y0046845D01*
X0334559Y0046795D01*
X0334593Y0046742D01*
X0334624Y0046688D01*
X0334650Y0046632D01*
X0334674Y0046574D01*
X0334693Y0046514D01*
X0334709Y0046454D01*
X0334721Y0046392D01*
X0334729Y0046331D01*
X0334733Y0046268D01*
X0334733Y0046206D01*
X0334729Y0046143D01*
X0334721Y0046082D01*
X0334709Y0046020D01*
X0334693Y0045960D01*
X0334674Y0045900D01*
X0334650Y0045842D01*
X0334624Y0045786D01*
X0334593Y0045732D01*
X0334559Y0045679D01*
X0334522Y0045629D01*
X0334482Y0045581D01*
X0334439Y0045536D01*
X0334393Y0045493D01*
X0334345Y0045454D01*
X0334294Y0045418D01*
X0334241Y0045385D01*
X0334186Y0045355D01*
X0334129Y0045329D01*
X0334071Y0045307D01*
X0334011Y0045289D01*
X0333951Y0045274D01*
X0333889Y0045263D01*
X0333827Y0045256D01*
X0333765Y0045253D01*
X0333702Y0045254D01*
X0333640Y0045259D01*
X0333578Y0045268D01*
X0333517Y0045281D01*
X0333457Y0045297D01*
X0333398Y0045318D01*
X0333340Y0045342D01*
X0333284Y0045370D01*
X0333230Y0045401D01*
X0333178Y0045435D01*
X0333129Y0045473D01*
X0333081Y0045514D01*
X0333037Y0045558D01*
X0332995Y0045604D01*
X0332957Y0045654D01*
X0332921Y0045705D01*
X0332889Y0045759D01*
X0332861Y0045814D01*
X0332835Y0045871D01*
X0332814Y0045930D01*
X0332797Y0045990D01*
X0332783Y0046051D01*
X0332773Y0046112D01*
X0332767Y0046175D01*
X0332765Y0046237D01*
X0333061Y0047124D02*
X0332992Y0047171D01*
X0332922Y0047215D01*
X0332851Y0047257D01*
X0332777Y0047295D01*
X0332702Y0047331D01*
X0332626Y0047363D01*
X0332549Y0047393D01*
X0332470Y0047419D01*
X0333355Y0045155D02*
X0330599Y0017989D01*
X0326761Y0015726D02*
X0326763Y0015827D01*
X0326769Y0015928D01*
X0326779Y0016029D01*
X0326793Y0016129D01*
X0326811Y0016228D01*
X0326833Y0016327D01*
X0326858Y0016425D01*
X0326888Y0016522D01*
X0326921Y0016617D01*
X0326958Y0016711D01*
X0326999Y0016804D01*
X0327043Y0016895D01*
X0327091Y0016984D01*
X0327143Y0017071D01*
X0327198Y0017156D01*
X0327256Y0017238D01*
X0327317Y0017319D01*
X0327382Y0017397D01*
X0327449Y0017472D01*
X0327519Y0017544D01*
X0327593Y0017614D01*
X0327669Y0017681D01*
X0327747Y0017745D01*
X0327828Y0017805D01*
X0327911Y0017862D01*
X0327997Y0017916D01*
X0328085Y0017967D01*
X0328174Y0018014D01*
X0328265Y0018058D01*
X0328358Y0018097D01*
X0328453Y0018134D01*
X0328548Y0018166D01*
X0328645Y0018195D01*
X0328744Y0018219D01*
X0328842Y0018240D01*
X0328942Y0018257D01*
X0329042Y0018270D01*
X0329143Y0018279D01*
X0329244Y0018284D01*
X0329345Y0018285D01*
X0329446Y0018282D01*
X0329547Y0018275D01*
X0329648Y0018264D01*
X0329748Y0018249D01*
X0329847Y0018230D01*
X0329946Y0018207D01*
X0330043Y0018181D01*
X0330140Y0018150D01*
X0330235Y0018116D01*
X0330328Y0018078D01*
X0330421Y0018036D01*
X0330511Y0017991D01*
X0330600Y0017942D01*
X0330686Y0017890D01*
X0330770Y0017834D01*
X0330853Y0017775D01*
X0330932Y0017713D01*
X0331010Y0017648D01*
X0331084Y0017580D01*
X0331156Y0017508D01*
X0331225Y0017435D01*
X0331291Y0017358D01*
X0331354Y0017279D01*
X0331414Y0017197D01*
X0331470Y0017113D01*
X0331523Y0017027D01*
X0331573Y0016939D01*
X0331619Y0016849D01*
X0331662Y0016758D01*
X0331701Y0016664D01*
X0331736Y0016569D01*
X0331767Y0016473D01*
X0331795Y0016376D01*
X0331819Y0016278D01*
X0331839Y0016179D01*
X0331855Y0016079D01*
X0331867Y0015978D01*
X0331875Y0015878D01*
X0331879Y0015777D01*
X0331879Y0015675D01*
X0331875Y0015574D01*
X0331867Y0015474D01*
X0331855Y0015373D01*
X0331839Y0015273D01*
X0331819Y0015174D01*
X0331795Y0015076D01*
X0331767Y0014979D01*
X0331736Y0014883D01*
X0331701Y0014788D01*
X0331662Y0014694D01*
X0331619Y0014603D01*
X0331573Y0014513D01*
X0331523Y0014425D01*
X0331470Y0014339D01*
X0331414Y0014255D01*
X0331354Y0014173D01*
X0331291Y0014094D01*
X0331225Y0014017D01*
X0331156Y0013944D01*
X0331084Y0013872D01*
X0331010Y0013804D01*
X0330932Y0013739D01*
X0330853Y0013677D01*
X0330770Y0013618D01*
X0330686Y0013562D01*
X0330599Y0013510D01*
X0330511Y0013461D01*
X0330421Y0013416D01*
X0330328Y0013374D01*
X0330235Y0013336D01*
X0330140Y0013302D01*
X0330043Y0013271D01*
X0329946Y0013245D01*
X0329847Y0013222D01*
X0329748Y0013203D01*
X0329648Y0013188D01*
X0329547Y0013177D01*
X0329446Y0013170D01*
X0329345Y0013167D01*
X0329244Y0013168D01*
X0329143Y0013173D01*
X0329042Y0013182D01*
X0328942Y0013195D01*
X0328842Y0013212D01*
X0328744Y0013233D01*
X0328645Y0013257D01*
X0328548Y0013286D01*
X0328453Y0013318D01*
X0328358Y0013355D01*
X0328265Y0013394D01*
X0328174Y0013438D01*
X0328085Y0013485D01*
X0327997Y0013536D01*
X0327911Y0013590D01*
X0327828Y0013647D01*
X0327747Y0013707D01*
X0327669Y0013771D01*
X0327593Y0013838D01*
X0327519Y0013908D01*
X0327449Y0013980D01*
X0327382Y0014055D01*
X0327317Y0014133D01*
X0327256Y0014214D01*
X0327198Y0014296D01*
X0327143Y0014381D01*
X0327091Y0014468D01*
X0327043Y0014557D01*
X0326999Y0014648D01*
X0326958Y0014741D01*
X0326921Y0014835D01*
X0326888Y0014930D01*
X0326858Y0015027D01*
X0326833Y0015125D01*
X0326811Y0015224D01*
X0326793Y0015323D01*
X0326779Y0015423D01*
X0326769Y0015524D01*
X0326763Y0015625D01*
X0326761Y0015726D01*
X0330500Y0047911D02*
X0329963Y0048007D01*
X0329424Y0048091D01*
X0328883Y0048163D01*
X0328341Y0048223D01*
X0327797Y0048270D01*
X0327252Y0048305D01*
X0327253Y0048304D02*
X0325383Y0048403D01*
X0325284Y0048698D02*
X0325284Y0047911D01*
X0320757Y0047911D01*
X0320757Y0048698D01*
X0325284Y0048698D01*
X0320757Y0048403D02*
X0320265Y0048403D01*
X0314655Y0048304D02*
X0314647Y0048206D01*
X0314642Y0048108D01*
X0314640Y0048009D01*
X0314642Y0047910D01*
X0314647Y0047812D01*
X0314655Y0047714D01*
X0314654Y0047714D02*
X0314753Y0046730D01*
X0312981Y0047518D02*
X0312930Y0047492D01*
X0312881Y0047464D01*
X0312834Y0047432D01*
X0312790Y0047397D01*
X0312747Y0047360D01*
X0312707Y0047320D01*
X0312670Y0047277D01*
X0312635Y0047232D01*
X0312604Y0047185D01*
X0312575Y0047137D01*
X0312550Y0047086D01*
X0312528Y0047034D01*
X0312509Y0046980D01*
X0312494Y0046926D01*
X0312482Y0046870D01*
X0312474Y0046814D01*
X0312470Y0046758D01*
X0312469Y0046701D01*
X0312472Y0046645D01*
X0312478Y0046589D01*
X0312488Y0046533D01*
X0311406Y0046237D02*
X0311308Y0046237D01*
X0315146Y0046828D02*
X0315161Y0046991D01*
X0315172Y0047155D01*
X0315179Y0047320D01*
X0315183Y0047484D01*
X0315183Y0047648D01*
X0315179Y0047812D01*
X0315172Y0047977D01*
X0315161Y0048141D01*
X0315146Y0048304D01*
X0315146Y0048305D02*
X0315141Y0048335D01*
X0315132Y0048364D01*
X0315120Y0048391D01*
X0315105Y0048418D01*
X0315087Y0048442D01*
X0315066Y0048463D01*
X0315042Y0048482D01*
X0315016Y0048498D01*
X0314989Y0048510D01*
X0314960Y0048520D01*
X0314930Y0048525D01*
X0314900Y0048527D01*
X0314870Y0048525D01*
X0314840Y0048520D01*
X0314811Y0048510D01*
X0314784Y0048498D01*
X0314758Y0048482D01*
X0314734Y0048463D01*
X0314713Y0048442D01*
X0314695Y0048418D01*
X0314680Y0048391D01*
X0314668Y0048364D01*
X0314659Y0048335D01*
X0314654Y0048305D01*
X0314163Y0047910D02*
X0314027Y0047880D01*
X0313893Y0047846D01*
X0313760Y0047809D01*
X0313627Y0047768D01*
X0313496Y0047724D01*
X0313365Y0047677D01*
X0313236Y0047627D01*
X0313108Y0047573D01*
X0312982Y0047517D01*
X0321249Y0037773D02*
X0321249Y0037478D01*
X0321249Y0037182D01*
X0321248Y0037182D02*
X0321250Y0037136D01*
X0321255Y0037090D01*
X0321264Y0037044D01*
X0321277Y0036999D01*
X0321293Y0036956D01*
X0321312Y0036914D01*
X0321335Y0036873D01*
X0321361Y0036835D01*
X0321390Y0036798D01*
X0321421Y0036764D01*
X0321455Y0036733D01*
X0321492Y0036704D01*
X0321530Y0036678D01*
X0321571Y0036655D01*
X0321613Y0036636D01*
X0321656Y0036620D01*
X0321701Y0036607D01*
X0321747Y0036598D01*
X0321793Y0036593D01*
X0321839Y0036591D01*
X0321839Y0036592D02*
X0326465Y0036592D01*
X0326504Y0036594D01*
X0326542Y0036600D01*
X0326579Y0036609D01*
X0326616Y0036622D01*
X0326651Y0036639D01*
X0326684Y0036658D01*
X0326715Y0036681D01*
X0326744Y0036707D01*
X0326770Y0036736D01*
X0326793Y0036767D01*
X0326812Y0036800D01*
X0326829Y0036835D01*
X0326842Y0036872D01*
X0326851Y0036909D01*
X0326857Y0036947D01*
X0326859Y0036986D01*
X0326859Y0037674D01*
X0333158Y0041021D02*
X0333847Y0041021D01*
X0333909Y0041023D01*
X0333970Y0041029D01*
X0334031Y0041038D01*
X0334092Y0041052D01*
X0334151Y0041069D01*
X0334209Y0041090D01*
X0334266Y0041115D01*
X0334321Y0041143D01*
X0334374Y0041174D01*
X0334425Y0041209D01*
X0334474Y0041247D01*
X0334521Y0041288D01*
X0334564Y0041331D01*
X0334605Y0041378D01*
X0334643Y0041427D01*
X0334678Y0041478D01*
X0334709Y0041531D01*
X0334737Y0041586D01*
X0334762Y0041643D01*
X0334783Y0041701D01*
X0334800Y0041760D01*
X0334814Y0041821D01*
X0334823Y0041882D01*
X0334829Y0041943D01*
X0334831Y0042005D01*
X0334831Y0042596D01*
X0334832Y0042596D02*
X0334830Y0042655D01*
X0334824Y0042714D01*
X0334815Y0042773D01*
X0334801Y0042830D01*
X0334784Y0042887D01*
X0334763Y0042943D01*
X0334738Y0042996D01*
X0334710Y0043049D01*
X0334679Y0043099D01*
X0334645Y0043147D01*
X0334607Y0043193D01*
X0334566Y0043236D01*
X0334523Y0043277D01*
X0334477Y0043314D01*
X0334429Y0043348D01*
X0334379Y0043380D01*
X0334326Y0043408D01*
X0334272Y0043432D01*
X0334217Y0043453D01*
X0334160Y0043470D01*
X0334102Y0043483D01*
X0334044Y0043493D01*
X0333985Y0043498D01*
X0333926Y0043500D01*
X0333866Y0043498D01*
X0333807Y0043492D01*
X0333749Y0043482D01*
X0333693Y0043472D01*
X0333637Y0043466D01*
X0333580Y0043462D01*
X0333524Y0043462D01*
X0333467Y0043466D01*
X0333411Y0043472D01*
X0333355Y0043482D01*
X0315343Y0048107D02*
X0315046Y0048068D01*
X0314750Y0048022D01*
X0314455Y0047970D01*
X0314162Y0047910D01*
X0330501Y0047911D02*
X0330899Y0047830D01*
X0331295Y0047741D01*
X0331689Y0047642D01*
X0332080Y0047535D01*
X0332470Y0047419D01*
X0349694Y0058541D02*
X0296150Y0004997D01*
X0316130Y0015430D02*
X0316250Y0015417D01*
X0316368Y0015400D01*
X0316486Y0015381D01*
X0316604Y0015358D01*
X0316721Y0015332D01*
X0315344Y0048108D02*
X0316325Y0048214D01*
X0317308Y0048297D01*
X0318293Y0048356D01*
X0319278Y0048391D01*
X0320265Y0048403D01*
D16*
X0318735Y0084895D02*
X0316335Y0086595D01*
X0315335Y0085995D01*
X0313435Y0090495D01*
X0318936Y0089190D02*
X0319032Y0089356D01*
X0319125Y0089523D01*
X0319213Y0089693D01*
X0319297Y0089865D01*
X0319377Y0090038D01*
X0319453Y0090214D01*
X0319525Y0090391D01*
X0319592Y0090570D01*
X0319656Y0090751D01*
X0319715Y0090933D01*
X0319769Y0091116D01*
X0319820Y0091301D01*
X0319866Y0091486D01*
X0319907Y0091673D01*
X0319944Y0091861D01*
X0319935Y0091895D02*
X0322935Y0092395D01*
X0322935Y0094995D01*
X0319935Y0095595D01*
X0318835Y0098095D02*
X0320635Y0100695D01*
X0318735Y0102495D01*
X0316135Y0100695D01*
X0313635Y0101695D02*
X0313135Y0104895D01*
X0310435Y0104895D01*
X0309935Y0101695D01*
X0307435Y0100695D02*
X0304835Y0102495D01*
X0302935Y0100695D01*
X0304735Y0098095D01*
X0303635Y0095595D02*
X0300635Y0094995D01*
X0300635Y0092395D01*
X0303635Y0091895D01*
X0304635Y0089195D02*
X0303035Y0086795D01*
X0304835Y0084895D01*
X0307235Y0086595D01*
X0308235Y0085995D01*
X0310235Y0090495D01*
X0304669Y0089227D02*
X0304566Y0089403D01*
X0304467Y0089582D01*
X0304373Y0089763D01*
X0304283Y0089946D01*
X0304198Y0090132D01*
X0304117Y0090319D01*
X0304041Y0090509D01*
X0303970Y0090700D01*
X0303903Y0090893D01*
X0303842Y0091088D01*
X0303784Y0091284D01*
X0303732Y0091481D01*
X0303685Y0091679D01*
X0303642Y0091879D01*
X0307469Y0100731D02*
X0307641Y0100831D01*
X0307816Y0100928D01*
X0307992Y0101020D01*
X0308171Y0101108D01*
X0308352Y0101192D01*
X0308535Y0101271D01*
X0308719Y0101346D01*
X0308906Y0101417D01*
X0309094Y0101483D01*
X0309283Y0101544D01*
X0309474Y0101601D01*
X0309667Y0101654D01*
X0309860Y0101701D01*
X0310235Y0090595D02*
X0310128Y0090650D01*
X0310022Y0090707D01*
X0309919Y0090769D01*
X0309817Y0090833D01*
X0309718Y0090901D01*
X0309621Y0090972D01*
X0309526Y0091046D01*
X0309434Y0091123D01*
X0309344Y0091204D01*
X0309257Y0091287D01*
X0309173Y0091373D01*
X0309092Y0091461D01*
X0309014Y0091553D01*
X0308938Y0091647D01*
X0308866Y0091743D01*
X0308797Y0091841D01*
X0308731Y0091942D01*
X0308669Y0092045D01*
X0308610Y0092150D01*
X0308554Y0092256D01*
X0308502Y0092365D01*
X0308454Y0092475D01*
X0308409Y0092587D01*
X0308368Y0092700D01*
X0308331Y0092814D01*
X0308297Y0092930D01*
X0308268Y0093046D01*
X0308242Y0093164D01*
X0308220Y0093282D01*
X0308201Y0093401D01*
X0308187Y0093520D01*
X0308177Y0093640D01*
X0308170Y0093760D01*
X0308168Y0093881D01*
X0308170Y0094001D01*
X0308175Y0094121D01*
X0308184Y0094241D01*
X0308198Y0094361D01*
X0308215Y0094480D01*
X0308236Y0094598D01*
X0308261Y0094716D01*
X0308290Y0094833D01*
X0308323Y0094948D01*
X0308359Y0095063D01*
X0308399Y0095176D01*
X0308443Y0095288D01*
X0308491Y0095399D01*
X0308542Y0095508D01*
X0308596Y0095615D01*
X0308655Y0095720D01*
X0308716Y0095824D01*
X0308781Y0095925D01*
X0308849Y0096024D01*
X0308921Y0096121D01*
X0308995Y0096215D01*
X0309073Y0096307D01*
X0309153Y0096396D01*
X0309237Y0096483D01*
X0309323Y0096567D01*
X0309412Y0096648D01*
X0309504Y0096726D01*
X0309598Y0096801D01*
X0309694Y0096872D01*
X0309793Y0096941D01*
X0309894Y0097006D01*
X0309997Y0097068D01*
X0310102Y0097127D01*
X0310209Y0097182D01*
X0310318Y0097234D01*
X0310428Y0097281D01*
X0310540Y0097326D01*
X0310653Y0097366D01*
X0310768Y0097403D01*
X0310884Y0097436D01*
X0311000Y0097466D01*
X0311118Y0097491D01*
X0311236Y0097513D01*
X0311355Y0097530D01*
X0311475Y0097544D01*
X0311595Y0097554D01*
X0311715Y0097560D01*
X0311835Y0097562D01*
X0311955Y0097560D01*
X0312075Y0097554D01*
X0312195Y0097544D01*
X0312315Y0097530D01*
X0312434Y0097513D01*
X0312552Y0097491D01*
X0312670Y0097466D01*
X0312786Y0097436D01*
X0312902Y0097403D01*
X0313017Y0097366D01*
X0313130Y0097326D01*
X0313242Y0097281D01*
X0313352Y0097234D01*
X0313461Y0097182D01*
X0313568Y0097127D01*
X0313673Y0097068D01*
X0313776Y0097006D01*
X0313877Y0096941D01*
X0313976Y0096872D01*
X0314072Y0096801D01*
X0314166Y0096726D01*
X0314258Y0096648D01*
X0314347Y0096567D01*
X0314433Y0096483D01*
X0314517Y0096396D01*
X0314597Y0096307D01*
X0314675Y0096215D01*
X0314749Y0096121D01*
X0314821Y0096024D01*
X0314889Y0095925D01*
X0314954Y0095824D01*
X0315015Y0095720D01*
X0315074Y0095615D01*
X0315128Y0095508D01*
X0315179Y0095399D01*
X0315227Y0095288D01*
X0315271Y0095176D01*
X0315311Y0095063D01*
X0315347Y0094948D01*
X0315380Y0094833D01*
X0315409Y0094716D01*
X0315434Y0094598D01*
X0315455Y0094480D01*
X0315472Y0094361D01*
X0315486Y0094241D01*
X0315495Y0094121D01*
X0315500Y0094001D01*
X0315502Y0093881D01*
X0315500Y0093760D01*
X0315493Y0093640D01*
X0315483Y0093520D01*
X0315469Y0093401D01*
X0315450Y0093282D01*
X0315428Y0093164D01*
X0315402Y0093046D01*
X0315373Y0092930D01*
X0315339Y0092814D01*
X0315302Y0092700D01*
X0315261Y0092587D01*
X0315216Y0092475D01*
X0315168Y0092365D01*
X0315116Y0092256D01*
X0315060Y0092150D01*
X0315001Y0092045D01*
X0314939Y0091942D01*
X0314873Y0091841D01*
X0314804Y0091743D01*
X0314732Y0091647D01*
X0314656Y0091553D01*
X0314578Y0091461D01*
X0314497Y0091373D01*
X0314413Y0091287D01*
X0314326Y0091204D01*
X0314236Y0091123D01*
X0314144Y0091046D01*
X0314049Y0090972D01*
X0313952Y0090901D01*
X0313853Y0090833D01*
X0313751Y0090769D01*
X0313648Y0090707D01*
X0313542Y0090650D01*
X0313435Y0090595D01*
X0318935Y0089195D02*
X0320635Y0086795D01*
X0318735Y0084895D01*
X0319925Y0095595D02*
X0319875Y0095783D01*
X0319820Y0095970D01*
X0319761Y0096156D01*
X0319697Y0096340D01*
X0319629Y0096523D01*
X0319556Y0096704D01*
X0319479Y0096883D01*
X0319398Y0097060D01*
X0319312Y0097236D01*
X0319223Y0097409D01*
X0319129Y0097580D01*
X0319031Y0097748D01*
X0318929Y0097915D01*
X0318824Y0098078D01*
X0316172Y0100712D02*
X0316007Y0100810D01*
X0315839Y0100904D01*
X0315669Y0100994D01*
X0315497Y0101081D01*
X0315324Y0101163D01*
X0315148Y0101242D01*
X0314971Y0101316D01*
X0314792Y0101386D01*
X0314611Y0101452D01*
X0314429Y0101514D01*
X0314246Y0101572D01*
X0314061Y0101626D01*
X0313875Y0101675D01*
X0313688Y0101720D01*
X0304744Y0098041D02*
X0304644Y0097879D01*
X0304547Y0097714D01*
X0304454Y0097547D01*
X0304366Y0097378D01*
X0304281Y0097208D01*
X0304200Y0097035D01*
X0304123Y0096860D01*
X0304050Y0096684D01*
X0303981Y0096506D01*
X0303916Y0096326D01*
X0303855Y0096146D01*
X0303799Y0095963D01*
X0303746Y0095780D01*
X0303698Y0095595D01*
D17*
X0262371Y0143729D03*
D18*
X0255363Y0121800D02*
X0270363Y0121800D01*
X0272863Y0119300D01*
X0272863Y0114300D01*
X0270363Y0111800D01*
X0255363Y0111800D01*
X0252863Y0109300D01*
X0252863Y0104300D01*
X0255363Y0101800D01*
X0270363Y0101800D01*
X0272863Y0099300D01*
X0272863Y0094300D01*
X0270363Y0091800D01*
X0255363Y0091800D01*
X0252863Y0089300D01*
X0252863Y0084300D01*
X0255363Y0081800D01*
X0270363Y0081800D01*
X0272863Y0079300D01*
X0272863Y0074300D01*
X0270363Y0071800D01*
X0255363Y0071800D01*
X0252863Y0069300D01*
X0252863Y0064300D01*
X0255363Y0061800D01*
X0252863Y0059300D01*
X0252863Y0054300D01*
X0255363Y0051800D01*
X0270363Y0051800D01*
X0272863Y0054300D01*
X0272863Y0059300D01*
X0270363Y0061800D01*
X0255363Y0061800D01*
X0255363Y0071800D02*
X0252863Y0074300D01*
X0252863Y0079300D01*
X0255363Y0081800D01*
X0255363Y0091800D02*
X0252863Y0094300D01*
X0252863Y0099300D01*
X0255363Y0101800D01*
X0255363Y0111800D02*
X0252863Y0114300D01*
X0252863Y0119300D01*
X0255363Y0121800D01*
X0270363Y0111800D02*
X0272863Y0109300D01*
X0272863Y0104300D01*
X0270363Y0101800D01*
X0270363Y0091800D02*
X0272863Y0089300D01*
X0272863Y0084300D01*
X0270363Y0081800D01*
X0270363Y0071800D02*
X0272863Y0069300D01*
X0272863Y0064300D01*
X0270363Y0061800D01*
X0166662Y0150501D02*
X0140461Y0150501D01*
X0139064Y0151898D01*
X0139064Y0178099D01*
X0166662Y0178099D01*
X0166662Y0150501D01*
X0140649Y0153500D02*
X0140651Y0153575D01*
X0140657Y0153649D01*
X0140667Y0153723D01*
X0140680Y0153796D01*
X0140698Y0153869D01*
X0140719Y0153940D01*
X0140744Y0154011D01*
X0140773Y0154080D01*
X0140806Y0154147D01*
X0140842Y0154212D01*
X0140881Y0154276D01*
X0140923Y0154337D01*
X0140969Y0154396D01*
X0141018Y0154453D01*
X0141070Y0154506D01*
X0141124Y0154557D01*
X0141181Y0154606D01*
X0141241Y0154650D01*
X0141303Y0154692D01*
X0141367Y0154731D01*
X0141433Y0154766D01*
X0141500Y0154797D01*
X0141570Y0154825D01*
X0141640Y0154849D01*
X0141712Y0154870D01*
X0141785Y0154886D01*
X0141858Y0154899D01*
X0141933Y0154908D01*
X0142007Y0154913D01*
X0142082Y0154914D01*
X0142156Y0154911D01*
X0142231Y0154904D01*
X0142304Y0154893D01*
X0142378Y0154879D01*
X0142450Y0154860D01*
X0142521Y0154838D01*
X0142591Y0154812D01*
X0142660Y0154782D01*
X0142726Y0154749D01*
X0142791Y0154712D01*
X0142854Y0154672D01*
X0142915Y0154628D01*
X0142973Y0154582D01*
X0143029Y0154532D01*
X0143082Y0154480D01*
X0143133Y0154425D01*
X0143180Y0154367D01*
X0143224Y0154307D01*
X0143265Y0154244D01*
X0143303Y0154180D01*
X0143337Y0154114D01*
X0143368Y0154045D01*
X0143395Y0153976D01*
X0143418Y0153905D01*
X0143437Y0153833D01*
X0143453Y0153760D01*
X0143465Y0153686D01*
X0143473Y0153612D01*
X0143477Y0153537D01*
X0143477Y0153463D01*
X0143473Y0153388D01*
X0143465Y0153314D01*
X0143453Y0153240D01*
X0143437Y0153167D01*
X0143418Y0153095D01*
X0143395Y0153024D01*
X0143368Y0152955D01*
X0143337Y0152886D01*
X0143303Y0152820D01*
X0143265Y0152756D01*
X0143224Y0152693D01*
X0143180Y0152633D01*
X0143133Y0152575D01*
X0143082Y0152520D01*
X0143029Y0152468D01*
X0142973Y0152418D01*
X0142915Y0152372D01*
X0142854Y0152328D01*
X0142791Y0152288D01*
X0142726Y0152251D01*
X0142660Y0152218D01*
X0142591Y0152188D01*
X0142521Y0152162D01*
X0142450Y0152140D01*
X0142378Y0152121D01*
X0142304Y0152107D01*
X0142231Y0152096D01*
X0142156Y0152089D01*
X0142082Y0152086D01*
X0142007Y0152087D01*
X0141933Y0152092D01*
X0141858Y0152101D01*
X0141785Y0152114D01*
X0141712Y0152130D01*
X0141640Y0152151D01*
X0141570Y0152175D01*
X0141500Y0152203D01*
X0141433Y0152234D01*
X0141367Y0152269D01*
X0141303Y0152308D01*
X0141241Y0152350D01*
X0141181Y0152394D01*
X0141124Y0152443D01*
X0141070Y0152494D01*
X0141018Y0152547D01*
X0140969Y0152604D01*
X0140923Y0152663D01*
X0140881Y0152724D01*
X0140842Y0152788D01*
X0140806Y0152853D01*
X0140773Y0152920D01*
X0140744Y0152989D01*
X0140719Y0153060D01*
X0140698Y0153131D01*
X0140680Y0153204D01*
X0140667Y0153277D01*
X0140657Y0153351D01*
X0140651Y0153425D01*
X0140649Y0153500D01*
X0122863Y0126800D02*
X0112863Y0126800D01*
X0110363Y0124300D01*
X0110363Y0119300D01*
X0112863Y0116800D01*
X0110363Y0114300D01*
X0110363Y0109300D01*
X0112863Y0106800D01*
X0122863Y0106800D01*
X0125363Y0109300D01*
X0125363Y0114300D01*
X0122863Y0116800D01*
X0112863Y0116800D01*
X0122863Y0116800D02*
X0125363Y0119300D01*
X0125363Y0124300D01*
X0122863Y0126800D01*
X0122863Y0106800D02*
X0125363Y0104300D01*
X0125363Y0099300D01*
X0122863Y0096800D01*
X0125363Y0094300D01*
X0125363Y0089300D01*
X0122863Y0086800D01*
X0125363Y0084300D01*
X0125363Y0079300D01*
X0122863Y0076800D01*
X0112863Y0076800D01*
X0110363Y0079300D01*
X0110363Y0084300D01*
X0112863Y0086800D01*
X0110363Y0089300D01*
X0110363Y0094300D01*
X0112863Y0096800D01*
X0110363Y0099300D01*
X0110363Y0104300D01*
X0112863Y0106800D01*
X0112863Y0096800D02*
X0122863Y0096800D01*
X0122863Y0086800D02*
X0112863Y0086800D01*
X0112863Y0076800D02*
X0110363Y0074300D01*
X0110363Y0069300D01*
X0112863Y0066800D01*
X0110363Y0064300D01*
X0110363Y0059300D01*
X0112863Y0056800D01*
X0110363Y0054300D01*
X0110363Y0049300D01*
X0112863Y0046800D01*
X0122863Y0046800D01*
X0125363Y0049300D01*
X0125363Y0054300D01*
X0122863Y0056800D01*
X0112863Y0056800D01*
X0122863Y0056800D02*
X0125363Y0059300D01*
X0125363Y0064300D01*
X0122863Y0066800D01*
X0112863Y0066800D01*
X0122863Y0066800D02*
X0125363Y0069300D01*
X0125363Y0074300D01*
X0122863Y0076800D01*
X0122863Y0046800D02*
X0125363Y0044300D01*
X0125363Y0039300D01*
X0122863Y0036800D01*
X0125363Y0034300D01*
X0125363Y0029300D01*
X0122863Y0026800D01*
X0125363Y0024300D01*
X0125363Y0019300D01*
X0122863Y0016800D01*
X0125363Y0014300D01*
X0125363Y0009300D01*
X0122863Y0006800D01*
X0112863Y0006800D01*
X0110363Y0009300D01*
X0110363Y0014300D01*
X0112863Y0016800D01*
X0110363Y0019300D01*
X0110363Y0024300D01*
X0112863Y0026800D01*
X0110363Y0029300D01*
X0110363Y0034300D01*
X0112863Y0036800D01*
X0110363Y0039300D01*
X0110363Y0044300D01*
X0112863Y0046800D01*
X0112863Y0036800D02*
X0122863Y0036800D01*
X0122863Y0026800D02*
X0112863Y0026800D01*
X0112863Y0016800D02*
X0122863Y0016800D01*
X0081103Y0168560D02*
X0079103Y0168560D01*
X0081103Y0168560D02*
X0081103Y0170560D01*
X0081103Y0175560D02*
X0081103Y0177560D01*
X0079103Y0177560D01*
X0074103Y0177560D02*
X0072103Y0177560D01*
X0072103Y0175560D01*
X0072103Y0170560D02*
X0072103Y0168560D01*
X0074103Y0168560D01*
X0030709Y0168560D02*
X0028709Y0168560D01*
X0030709Y0168560D02*
X0030709Y0170560D01*
X0030709Y0175560D02*
X0030709Y0177560D01*
X0028709Y0177560D01*
X0023709Y0177560D02*
X0021709Y0177560D01*
X0021709Y0175560D01*
X0021709Y0170560D02*
X0021709Y0168560D01*
X0023709Y0168560D01*
X0256646Y0194300D02*
X0256649Y0194509D01*
X0256656Y0194717D01*
X0256669Y0194925D01*
X0256687Y0195133D01*
X0256710Y0195340D01*
X0256738Y0195547D01*
X0256771Y0195753D01*
X0256809Y0195958D01*
X0256853Y0196162D01*
X0256901Y0196365D01*
X0256954Y0196567D01*
X0257012Y0196767D01*
X0257075Y0196966D01*
X0257143Y0197164D01*
X0257216Y0197359D01*
X0257293Y0197553D01*
X0257375Y0197745D01*
X0257462Y0197934D01*
X0257554Y0198122D01*
X0257650Y0198307D01*
X0257750Y0198490D01*
X0257855Y0198670D01*
X0257965Y0198847D01*
X0258079Y0199022D01*
X0258197Y0199194D01*
X0258319Y0199363D01*
X0258445Y0199529D01*
X0258575Y0199692D01*
X0258710Y0199852D01*
X0258848Y0200008D01*
X0258990Y0200161D01*
X0259136Y0200310D01*
X0259285Y0200456D01*
X0259438Y0200598D01*
X0259594Y0200736D01*
X0259754Y0200871D01*
X0259917Y0201001D01*
X0260083Y0201127D01*
X0260252Y0201249D01*
X0260424Y0201367D01*
X0260599Y0201481D01*
X0260776Y0201591D01*
X0260956Y0201696D01*
X0261139Y0201796D01*
X0261324Y0201892D01*
X0261512Y0201984D01*
X0261701Y0202071D01*
X0261893Y0202153D01*
X0262087Y0202230D01*
X0262282Y0202303D01*
X0262480Y0202371D01*
X0262679Y0202434D01*
X0262879Y0202492D01*
X0263081Y0202545D01*
X0263284Y0202593D01*
X0263488Y0202637D01*
X0263693Y0202675D01*
X0263899Y0202708D01*
X0264106Y0202736D01*
X0264313Y0202759D01*
X0264521Y0202777D01*
X0264729Y0202790D01*
X0264937Y0202797D01*
X0265146Y0202800D01*
X0265355Y0202797D01*
X0265563Y0202790D01*
X0265771Y0202777D01*
X0265979Y0202759D01*
X0266186Y0202736D01*
X0266393Y0202708D01*
X0266599Y0202675D01*
X0266804Y0202637D01*
X0267008Y0202593D01*
X0267211Y0202545D01*
X0267413Y0202492D01*
X0267613Y0202434D01*
X0267812Y0202371D01*
X0268010Y0202303D01*
X0268205Y0202230D01*
X0268399Y0202153D01*
X0268591Y0202071D01*
X0268780Y0201984D01*
X0268968Y0201892D01*
X0269153Y0201796D01*
X0269336Y0201696D01*
X0269516Y0201591D01*
X0269693Y0201481D01*
X0269868Y0201367D01*
X0270040Y0201249D01*
X0270209Y0201127D01*
X0270375Y0201001D01*
X0270538Y0200871D01*
X0270698Y0200736D01*
X0270854Y0200598D01*
X0271007Y0200456D01*
X0271156Y0200310D01*
X0271302Y0200161D01*
X0271444Y0200008D01*
X0271582Y0199852D01*
X0271717Y0199692D01*
X0271847Y0199529D01*
X0271973Y0199363D01*
X0272095Y0199194D01*
X0272213Y0199022D01*
X0272327Y0198847D01*
X0272437Y0198670D01*
X0272542Y0198490D01*
X0272642Y0198307D01*
X0272738Y0198122D01*
X0272830Y0197934D01*
X0272917Y0197745D01*
X0272999Y0197553D01*
X0273076Y0197359D01*
X0273149Y0197164D01*
X0273217Y0196966D01*
X0273280Y0196767D01*
X0273338Y0196567D01*
X0273391Y0196365D01*
X0273439Y0196162D01*
X0273483Y0195958D01*
X0273521Y0195753D01*
X0273554Y0195547D01*
X0273582Y0195340D01*
X0273605Y0195133D01*
X0273623Y0194925D01*
X0273636Y0194717D01*
X0273643Y0194509D01*
X0273646Y0194300D01*
X0273643Y0194091D01*
X0273636Y0193883D01*
X0273623Y0193675D01*
X0273605Y0193467D01*
X0273582Y0193260D01*
X0273554Y0193053D01*
X0273521Y0192847D01*
X0273483Y0192642D01*
X0273439Y0192438D01*
X0273391Y0192235D01*
X0273338Y0192033D01*
X0273280Y0191833D01*
X0273217Y0191634D01*
X0273149Y0191436D01*
X0273076Y0191241D01*
X0272999Y0191047D01*
X0272917Y0190855D01*
X0272830Y0190666D01*
X0272738Y0190478D01*
X0272642Y0190293D01*
X0272542Y0190110D01*
X0272437Y0189930D01*
X0272327Y0189753D01*
X0272213Y0189578D01*
X0272095Y0189406D01*
X0271973Y0189237D01*
X0271847Y0189071D01*
X0271717Y0188908D01*
X0271582Y0188748D01*
X0271444Y0188592D01*
X0271302Y0188439D01*
X0271156Y0188290D01*
X0271007Y0188144D01*
X0270854Y0188002D01*
X0270698Y0187864D01*
X0270538Y0187729D01*
X0270375Y0187599D01*
X0270209Y0187473D01*
X0270040Y0187351D01*
X0269868Y0187233D01*
X0269693Y0187119D01*
X0269516Y0187009D01*
X0269336Y0186904D01*
X0269153Y0186804D01*
X0268968Y0186708D01*
X0268780Y0186616D01*
X0268591Y0186529D01*
X0268399Y0186447D01*
X0268205Y0186370D01*
X0268010Y0186297D01*
X0267812Y0186229D01*
X0267613Y0186166D01*
X0267413Y0186108D01*
X0267211Y0186055D01*
X0267008Y0186007D01*
X0266804Y0185963D01*
X0266599Y0185925D01*
X0266393Y0185892D01*
X0266186Y0185864D01*
X0265979Y0185841D01*
X0265771Y0185823D01*
X0265563Y0185810D01*
X0265355Y0185803D01*
X0265146Y0185800D01*
X0264937Y0185803D01*
X0264729Y0185810D01*
X0264521Y0185823D01*
X0264313Y0185841D01*
X0264106Y0185864D01*
X0263899Y0185892D01*
X0263693Y0185925D01*
X0263488Y0185963D01*
X0263284Y0186007D01*
X0263081Y0186055D01*
X0262879Y0186108D01*
X0262679Y0186166D01*
X0262480Y0186229D01*
X0262282Y0186297D01*
X0262087Y0186370D01*
X0261893Y0186447D01*
X0261701Y0186529D01*
X0261512Y0186616D01*
X0261324Y0186708D01*
X0261139Y0186804D01*
X0260956Y0186904D01*
X0260776Y0187009D01*
X0260599Y0187119D01*
X0260424Y0187233D01*
X0260252Y0187351D01*
X0260083Y0187473D01*
X0259917Y0187599D01*
X0259754Y0187729D01*
X0259594Y0187864D01*
X0259438Y0188002D01*
X0259285Y0188144D01*
X0259136Y0188290D01*
X0258990Y0188439D01*
X0258848Y0188592D01*
X0258710Y0188748D01*
X0258575Y0188908D01*
X0258445Y0189071D01*
X0258319Y0189237D01*
X0258197Y0189406D01*
X0258079Y0189578D01*
X0257965Y0189753D01*
X0257855Y0189930D01*
X0257750Y0190110D01*
X0257650Y0190293D01*
X0257554Y0190478D01*
X0257462Y0190666D01*
X0257375Y0190855D01*
X0257293Y0191047D01*
X0257216Y0191241D01*
X0257143Y0191436D01*
X0257075Y0191634D01*
X0257012Y0191833D01*
X0256954Y0192033D01*
X0256901Y0192235D01*
X0256853Y0192438D01*
X0256809Y0192642D01*
X0256771Y0192847D01*
X0256738Y0193053D01*
X0256710Y0193260D01*
X0256687Y0193467D01*
X0256669Y0193675D01*
X0256656Y0193883D01*
X0256649Y0194091D01*
X0256646Y0194300D01*
X0257646Y0194300D02*
X0257648Y0194481D01*
X0257655Y0194662D01*
X0257666Y0194843D01*
X0257681Y0195024D01*
X0257701Y0195204D01*
X0257725Y0195384D01*
X0257753Y0195563D01*
X0257786Y0195741D01*
X0257823Y0195918D01*
X0257864Y0196095D01*
X0257909Y0196270D01*
X0257959Y0196445D01*
X0258013Y0196618D01*
X0258071Y0196789D01*
X0258133Y0196960D01*
X0258200Y0197128D01*
X0258270Y0197295D01*
X0258344Y0197461D01*
X0258423Y0197624D01*
X0258505Y0197785D01*
X0258591Y0197945D01*
X0258681Y0198102D01*
X0258775Y0198257D01*
X0258872Y0198410D01*
X0258974Y0198560D01*
X0259078Y0198708D01*
X0259187Y0198854D01*
X0259298Y0198996D01*
X0259414Y0199136D01*
X0259532Y0199273D01*
X0259654Y0199408D01*
X0259779Y0199539D01*
X0259907Y0199667D01*
X0260038Y0199792D01*
X0260173Y0199914D01*
X0260310Y0200032D01*
X0260450Y0200148D01*
X0260592Y0200259D01*
X0260738Y0200368D01*
X0260886Y0200472D01*
X0261036Y0200574D01*
X0261189Y0200671D01*
X0261344Y0200765D01*
X0261501Y0200855D01*
X0261661Y0200941D01*
X0261822Y0201023D01*
X0261985Y0201102D01*
X0262151Y0201176D01*
X0262318Y0201246D01*
X0262486Y0201313D01*
X0262657Y0201375D01*
X0262828Y0201433D01*
X0263001Y0201487D01*
X0263176Y0201537D01*
X0263351Y0201582D01*
X0263528Y0201623D01*
X0263705Y0201660D01*
X0263883Y0201693D01*
X0264062Y0201721D01*
X0264242Y0201745D01*
X0264422Y0201765D01*
X0264603Y0201780D01*
X0264784Y0201791D01*
X0264965Y0201798D01*
X0265146Y0201800D01*
X0275846Y0196200D02*
X0279146Y0196200D01*
X0279146Y0192500D01*
X0275946Y0192500D01*
X0265146Y0199300D02*
X0265006Y0199298D01*
X0264866Y0199292D01*
X0264726Y0199282D01*
X0264586Y0199269D01*
X0264447Y0199251D01*
X0264308Y0199229D01*
X0264171Y0199204D01*
X0264033Y0199175D01*
X0263897Y0199142D01*
X0263762Y0199105D01*
X0263628Y0199064D01*
X0263495Y0199019D01*
X0263363Y0198971D01*
X0263233Y0198919D01*
X0263104Y0198864D01*
X0262977Y0198805D01*
X0262851Y0198742D01*
X0262727Y0198676D01*
X0262606Y0198607D01*
X0262486Y0198534D01*
X0262368Y0198457D01*
X0262253Y0198378D01*
X0262139Y0198295D01*
X0262029Y0198209D01*
X0261920Y0198120D01*
X0261814Y0198028D01*
X0261711Y0197933D01*
X0261610Y0197836D01*
X0261513Y0197735D01*
X0261418Y0197632D01*
X0261326Y0197526D01*
X0261237Y0197417D01*
X0261151Y0197307D01*
X0261068Y0197193D01*
X0260989Y0197078D01*
X0260912Y0196960D01*
X0260839Y0196840D01*
X0260770Y0196719D01*
X0260704Y0196595D01*
X0260641Y0196469D01*
X0260582Y0196342D01*
X0260527Y0196213D01*
X0260475Y0196083D01*
X0260427Y0195951D01*
X0260382Y0195818D01*
X0260341Y0195684D01*
X0260304Y0195549D01*
X0260271Y0195413D01*
X0260242Y0195275D01*
X0260217Y0195138D01*
X0260195Y0194999D01*
X0260177Y0194860D01*
X0260164Y0194720D01*
X0260154Y0194580D01*
X0260148Y0194440D01*
X0260146Y0194300D01*
X0265146Y0189300D02*
X0265286Y0189302D01*
X0265426Y0189308D01*
X0265566Y0189318D01*
X0265706Y0189331D01*
X0265845Y0189349D01*
X0265984Y0189371D01*
X0266121Y0189396D01*
X0266259Y0189425D01*
X0266395Y0189458D01*
X0266530Y0189495D01*
X0266664Y0189536D01*
X0266797Y0189581D01*
X0266929Y0189629D01*
X0267059Y0189681D01*
X0267188Y0189736D01*
X0267315Y0189795D01*
X0267441Y0189858D01*
X0267565Y0189924D01*
X0267686Y0189993D01*
X0267806Y0190066D01*
X0267924Y0190143D01*
X0268039Y0190222D01*
X0268153Y0190305D01*
X0268263Y0190391D01*
X0268372Y0190480D01*
X0268478Y0190572D01*
X0268581Y0190667D01*
X0268682Y0190764D01*
X0268779Y0190865D01*
X0268874Y0190968D01*
X0268966Y0191074D01*
X0269055Y0191183D01*
X0269141Y0191293D01*
X0269224Y0191407D01*
X0269303Y0191522D01*
X0269380Y0191640D01*
X0269453Y0191760D01*
X0269522Y0191881D01*
X0269588Y0192005D01*
X0269651Y0192131D01*
X0269710Y0192258D01*
X0269765Y0192387D01*
X0269817Y0192517D01*
X0269865Y0192649D01*
X0269910Y0192782D01*
X0269951Y0192916D01*
X0269988Y0193051D01*
X0270021Y0193187D01*
X0270050Y0193325D01*
X0270075Y0193462D01*
X0270097Y0193601D01*
X0270115Y0193740D01*
X0270128Y0193880D01*
X0270138Y0194020D01*
X0270144Y0194160D01*
X0270146Y0194300D01*
X0272646Y0194300D02*
X0272644Y0194119D01*
X0272637Y0193938D01*
X0272626Y0193757D01*
X0272611Y0193576D01*
X0272591Y0193396D01*
X0272567Y0193216D01*
X0272539Y0193037D01*
X0272506Y0192859D01*
X0272469Y0192682D01*
X0272428Y0192505D01*
X0272383Y0192330D01*
X0272333Y0192155D01*
X0272279Y0191982D01*
X0272221Y0191811D01*
X0272159Y0191640D01*
X0272092Y0191472D01*
X0272022Y0191305D01*
X0271948Y0191139D01*
X0271869Y0190976D01*
X0271787Y0190815D01*
X0271701Y0190655D01*
X0271611Y0190498D01*
X0271517Y0190343D01*
X0271420Y0190190D01*
X0271318Y0190040D01*
X0271214Y0189892D01*
X0271105Y0189746D01*
X0270994Y0189604D01*
X0270878Y0189464D01*
X0270760Y0189327D01*
X0270638Y0189192D01*
X0270513Y0189061D01*
X0270385Y0188933D01*
X0270254Y0188808D01*
X0270119Y0188686D01*
X0269982Y0188568D01*
X0269842Y0188452D01*
X0269700Y0188341D01*
X0269554Y0188232D01*
X0269406Y0188128D01*
X0269256Y0188026D01*
X0269103Y0187929D01*
X0268948Y0187835D01*
X0268791Y0187745D01*
X0268631Y0187659D01*
X0268470Y0187577D01*
X0268307Y0187498D01*
X0268141Y0187424D01*
X0267974Y0187354D01*
X0267806Y0187287D01*
X0267635Y0187225D01*
X0267464Y0187167D01*
X0267291Y0187113D01*
X0267116Y0187063D01*
X0266941Y0187018D01*
X0266764Y0186977D01*
X0266587Y0186940D01*
X0266409Y0186907D01*
X0266230Y0186879D01*
X0266050Y0186855D01*
X0265870Y0186835D01*
X0265689Y0186820D01*
X0265508Y0186809D01*
X0265327Y0186802D01*
X0265146Y0186800D01*
X0254246Y0194400D02*
X0254249Y0194667D01*
X0254259Y0194935D01*
X0254276Y0195202D01*
X0254298Y0195468D01*
X0254328Y0195734D01*
X0254364Y0195999D01*
X0254406Y0196263D01*
X0254455Y0196526D01*
X0254511Y0196788D01*
X0254573Y0197048D01*
X0254641Y0197307D01*
X0254715Y0197564D01*
X0254796Y0197819D01*
X0254883Y0198072D01*
X0254976Y0198323D01*
X0255076Y0198571D01*
X0255181Y0198817D01*
X0255293Y0199060D01*
X0255410Y0199301D01*
X0255533Y0199538D01*
X0255662Y0199773D01*
X0255797Y0200004D01*
X0255937Y0200231D01*
X0256083Y0200456D01*
X0256234Y0200676D01*
X0256391Y0200893D01*
X0256553Y0201106D01*
X0256720Y0201315D01*
X0256892Y0201520D01*
X0257070Y0201720D01*
X0257252Y0201916D01*
X0257439Y0202107D01*
X0257630Y0202294D01*
X0257826Y0202476D01*
X0258026Y0202654D01*
X0258231Y0202826D01*
X0258440Y0202993D01*
X0258653Y0203155D01*
X0258870Y0203312D01*
X0259090Y0203463D01*
X0259315Y0203609D01*
X0259542Y0203749D01*
X0259773Y0203884D01*
X0260008Y0204013D01*
X0260245Y0204136D01*
X0260486Y0204253D01*
X0260729Y0204365D01*
X0260975Y0204470D01*
X0261223Y0204570D01*
X0261474Y0204663D01*
X0261727Y0204750D01*
X0261982Y0204831D01*
X0262239Y0204905D01*
X0262498Y0204973D01*
X0262758Y0205035D01*
X0263020Y0205091D01*
X0263283Y0205140D01*
X0263547Y0205182D01*
X0263812Y0205218D01*
X0264078Y0205248D01*
X0264344Y0205270D01*
X0264611Y0205287D01*
X0264879Y0205297D01*
X0265146Y0205300D01*
X0265413Y0205297D01*
X0265681Y0205287D01*
X0265948Y0205270D01*
X0266214Y0205248D01*
X0266480Y0205218D01*
X0266745Y0205182D01*
X0267009Y0205140D01*
X0267272Y0205091D01*
X0267534Y0205035D01*
X0267794Y0204973D01*
X0268053Y0204905D01*
X0268310Y0204831D01*
X0268565Y0204750D01*
X0268818Y0204663D01*
X0269069Y0204570D01*
X0269317Y0204470D01*
X0269563Y0204365D01*
X0269806Y0204253D01*
X0270047Y0204136D01*
X0270284Y0204013D01*
X0270519Y0203884D01*
X0270750Y0203749D01*
X0270977Y0203609D01*
X0271202Y0203463D01*
X0271422Y0203312D01*
X0271639Y0203155D01*
X0271852Y0202993D01*
X0272061Y0202826D01*
X0272266Y0202654D01*
X0272466Y0202476D01*
X0272662Y0202294D01*
X0272853Y0202107D01*
X0273040Y0201916D01*
X0273222Y0201720D01*
X0273400Y0201520D01*
X0273572Y0201315D01*
X0273739Y0201106D01*
X0273901Y0200893D01*
X0274058Y0200676D01*
X0274209Y0200456D01*
X0274355Y0200231D01*
X0274495Y0200004D01*
X0274630Y0199773D01*
X0274759Y0199538D01*
X0274882Y0199301D01*
X0274999Y0199060D01*
X0275111Y0198817D01*
X0275216Y0198571D01*
X0275316Y0198323D01*
X0275409Y0198072D01*
X0275496Y0197819D01*
X0275577Y0197564D01*
X0275651Y0197307D01*
X0275719Y0197048D01*
X0275781Y0196788D01*
X0275837Y0196526D01*
X0275886Y0196263D01*
X0275928Y0195999D01*
X0275964Y0195734D01*
X0275994Y0195468D01*
X0276016Y0195202D01*
X0276033Y0194935D01*
X0276043Y0194667D01*
X0276046Y0194400D01*
X0276043Y0194133D01*
X0276033Y0193865D01*
X0276016Y0193598D01*
X0275994Y0193332D01*
X0275964Y0193066D01*
X0275928Y0192801D01*
X0275886Y0192537D01*
X0275837Y0192274D01*
X0275781Y0192012D01*
X0275719Y0191752D01*
X0275651Y0191493D01*
X0275577Y0191236D01*
X0275496Y0190981D01*
X0275409Y0190728D01*
X0275316Y0190477D01*
X0275216Y0190229D01*
X0275111Y0189983D01*
X0274999Y0189740D01*
X0274882Y0189499D01*
X0274759Y0189262D01*
X0274630Y0189027D01*
X0274495Y0188796D01*
X0274355Y0188569D01*
X0274209Y0188344D01*
X0274058Y0188124D01*
X0273901Y0187907D01*
X0273739Y0187694D01*
X0273572Y0187485D01*
X0273400Y0187280D01*
X0273222Y0187080D01*
X0273040Y0186884D01*
X0272853Y0186693D01*
X0272662Y0186506D01*
X0272466Y0186324D01*
X0272266Y0186146D01*
X0272061Y0185974D01*
X0271852Y0185807D01*
X0271639Y0185645D01*
X0271422Y0185488D01*
X0271202Y0185337D01*
X0270977Y0185191D01*
X0270750Y0185051D01*
X0270519Y0184916D01*
X0270284Y0184787D01*
X0270047Y0184664D01*
X0269806Y0184547D01*
X0269563Y0184435D01*
X0269317Y0184330D01*
X0269069Y0184230D01*
X0268818Y0184137D01*
X0268565Y0184050D01*
X0268310Y0183969D01*
X0268053Y0183895D01*
X0267794Y0183827D01*
X0267534Y0183765D01*
X0267272Y0183709D01*
X0267009Y0183660D01*
X0266745Y0183618D01*
X0266480Y0183582D01*
X0266214Y0183552D01*
X0265948Y0183530D01*
X0265681Y0183513D01*
X0265413Y0183503D01*
X0265146Y0183500D01*
X0264879Y0183503D01*
X0264611Y0183513D01*
X0264344Y0183530D01*
X0264078Y0183552D01*
X0263812Y0183582D01*
X0263547Y0183618D01*
X0263283Y0183660D01*
X0263020Y0183709D01*
X0262758Y0183765D01*
X0262498Y0183827D01*
X0262239Y0183895D01*
X0261982Y0183969D01*
X0261727Y0184050D01*
X0261474Y0184137D01*
X0261223Y0184230D01*
X0260975Y0184330D01*
X0260729Y0184435D01*
X0260486Y0184547D01*
X0260245Y0184664D01*
X0260008Y0184787D01*
X0259773Y0184916D01*
X0259542Y0185051D01*
X0259315Y0185191D01*
X0259090Y0185337D01*
X0258870Y0185488D01*
X0258653Y0185645D01*
X0258440Y0185807D01*
X0258231Y0185974D01*
X0258026Y0186146D01*
X0257826Y0186324D01*
X0257630Y0186506D01*
X0257439Y0186693D01*
X0257252Y0186884D01*
X0257070Y0187080D01*
X0256892Y0187280D01*
X0256720Y0187485D01*
X0256553Y0187694D01*
X0256391Y0187907D01*
X0256234Y0188124D01*
X0256083Y0188344D01*
X0255937Y0188569D01*
X0255797Y0188796D01*
X0255662Y0189027D01*
X0255533Y0189262D01*
X0255410Y0189499D01*
X0255293Y0189740D01*
X0255181Y0189983D01*
X0255076Y0190229D01*
X0254976Y0190477D01*
X0254883Y0190728D01*
X0254796Y0190981D01*
X0254715Y0191236D01*
X0254641Y0191493D01*
X0254573Y0191752D01*
X0254511Y0192012D01*
X0254455Y0192274D01*
X0254406Y0192537D01*
X0254364Y0192801D01*
X0254328Y0193066D01*
X0254298Y0193332D01*
X0254276Y0193598D01*
X0254259Y0193865D01*
X0254249Y0194133D01*
X0254246Y0194400D01*
M02*
