G04 #@! TF.GenerationSoftware,KiCad,Pcbnew,(5.0.0)*
G04 #@! TF.CreationDate,2018-11-21T11:56:39+01:00*
G04 #@! TF.ProjectId,RRAT,525241542E6B696361645F7063620000,rev?*
G04 #@! TF.SameCoordinates,Original*
G04 #@! TF.FileFunction,Legend,Top*
G04 #@! TF.FilePolarity,Positive*
%FSLAX46Y46*%
G04 Gerber Fmt 4.6, Leading zero omitted, Abs format (unit mm)*
G04 Created by KiCad (PCBNEW (5.0.0)) date 11/21/18 11:56:39*
%MOMM*%
%LPD*%
G01*
G04 APERTURE LIST*
%ADD10C,0.080000*%
%ADD11C,0.150000*%
%ADD12C,0.250000*%
%ADD13C,0.203200*%
%ADD14C,0.127000*%
%ADD15C,0.152400*%
%ADD16C,0.120000*%
%ADD17C,0.076000*%
G04 APERTURE END LIST*
D10*
X157908571Y-119681219D02*
X157908571Y-119895505D01*
X157458571Y-119895505D01*
X157672857Y-119531219D02*
X157672857Y-119381219D01*
X157908571Y-119316934D02*
X157908571Y-119531219D01*
X157458571Y-119531219D01*
X157458571Y-119316934D01*
X157908571Y-119124076D02*
X157458571Y-119124076D01*
X157458571Y-119016934D01*
X157480000Y-118952648D01*
X157522857Y-118909791D01*
X157565714Y-118888362D01*
X157651428Y-118866934D01*
X157715714Y-118866934D01*
X157801428Y-118888362D01*
X157844285Y-118909791D01*
X157887142Y-118952648D01*
X157908571Y-119016934D01*
X157908571Y-119124076D01*
X157951428Y-118781219D02*
X157951428Y-118438362D01*
X157908571Y-118331219D02*
X157458571Y-118331219D01*
X157672857Y-118331219D02*
X157672857Y-118074076D01*
X157908571Y-118074076D02*
X157458571Y-118074076D01*
X157672857Y-117859791D02*
X157672857Y-117709791D01*
X157908571Y-117645505D02*
X157908571Y-117859791D01*
X157458571Y-117859791D01*
X157458571Y-117645505D01*
X157780000Y-117474076D02*
X157780000Y-117259791D01*
X157908571Y-117516934D02*
X157458571Y-117366934D01*
X157908571Y-117216934D01*
X157458571Y-117131219D02*
X157458571Y-116874076D01*
X157908571Y-117002648D02*
X157458571Y-117002648D01*
X157865714Y-116466934D02*
X157887142Y-116488362D01*
X157908571Y-116552648D01*
X157908571Y-116595505D01*
X157887142Y-116659791D01*
X157844285Y-116702648D01*
X157801428Y-116724076D01*
X157715714Y-116745505D01*
X157651428Y-116745505D01*
X157565714Y-116724076D01*
X157522857Y-116702648D01*
X157480000Y-116659791D01*
X157458571Y-116595505D01*
X157458571Y-116552648D01*
X157480000Y-116488362D01*
X157501428Y-116466934D01*
X157780000Y-116295505D02*
X157780000Y-116081219D01*
X157908571Y-116338362D02*
X157458571Y-116188362D01*
X157908571Y-116038362D01*
X157908571Y-115674076D02*
X157908571Y-115888362D01*
X157458571Y-115888362D01*
X157908571Y-115309791D02*
X157908571Y-115524076D01*
X157458571Y-115524076D01*
D11*
X128524000Y-79756000D02*
X128948198Y-78334134D01*
X129286000Y-80518000D02*
X127601998Y-79210434D01*
D12*
X129868064Y-78691276D02*
X129820445Y-78738895D01*
X129677588Y-78786514D01*
X129582350Y-78786514D01*
X129439493Y-78738895D01*
X129344255Y-78643657D01*
X129296636Y-78548419D01*
X129249017Y-78357943D01*
X129249017Y-78215086D01*
X129296636Y-78024610D01*
X129344255Y-77929372D01*
X129439493Y-77834134D01*
X129582350Y-77786514D01*
X129677588Y-77786514D01*
X129820445Y-77834134D01*
X129868064Y-77881753D01*
X130725207Y-78119848D02*
X130725207Y-78786514D01*
X130296636Y-78119848D02*
X130296636Y-78643657D01*
X130344255Y-78738895D01*
X130439493Y-78786514D01*
X130582350Y-78786514D01*
X130677588Y-78738895D01*
X130725207Y-78691276D01*
X131058540Y-78119848D02*
X131439493Y-78119848D01*
X131201398Y-77786514D02*
X131201398Y-78643657D01*
X131249017Y-78738895D01*
X131344255Y-78786514D01*
X131439493Y-78786514D01*
X132534731Y-78786514D02*
X132534731Y-77786514D01*
X132963302Y-78786514D02*
X132963302Y-78262705D01*
X132915683Y-78167467D01*
X132820445Y-78119848D01*
X132677588Y-78119848D01*
X132582350Y-78167467D01*
X132534731Y-78215086D01*
X133820445Y-78738895D02*
X133725207Y-78786514D01*
X133534731Y-78786514D01*
X133439493Y-78738895D01*
X133391874Y-78643657D01*
X133391874Y-78262705D01*
X133439493Y-78167467D01*
X133534731Y-78119848D01*
X133725207Y-78119848D01*
X133820445Y-78167467D01*
X133868064Y-78262705D01*
X133868064Y-78357943D01*
X133391874Y-78453181D01*
X134296636Y-78786514D02*
X134296636Y-78119848D01*
X134296636Y-78310324D02*
X134344255Y-78215086D01*
X134391874Y-78167467D01*
X134487112Y-78119848D01*
X134582350Y-78119848D01*
X135296636Y-78738895D02*
X135201398Y-78786514D01*
X135010921Y-78786514D01*
X134915683Y-78738895D01*
X134868064Y-78643657D01*
X134868064Y-78262705D01*
X134915683Y-78167467D01*
X135010921Y-78119848D01*
X135201398Y-78119848D01*
X135296636Y-78167467D01*
X135344255Y-78262705D01*
X135344255Y-78357943D01*
X134868064Y-78453181D01*
X136534731Y-78786514D02*
X136534731Y-78119848D01*
X136534731Y-77786514D02*
X136487112Y-77834134D01*
X136534731Y-77881753D01*
X136582350Y-77834134D01*
X136534731Y-77786514D01*
X136534731Y-77881753D01*
X136868064Y-78119848D02*
X137249017Y-78119848D01*
X137010921Y-78786514D02*
X137010921Y-77929372D01*
X137058540Y-77834134D01*
X137153778Y-77786514D01*
X137249017Y-77786514D01*
X138772826Y-78119848D02*
X138772826Y-78786514D01*
X138344255Y-78119848D02*
X138344255Y-78643657D01*
X138391874Y-78738895D01*
X138487112Y-78786514D01*
X138629969Y-78786514D01*
X138725207Y-78738895D01*
X138772826Y-78691276D01*
X139201398Y-78738895D02*
X139296636Y-78786514D01*
X139487112Y-78786514D01*
X139582350Y-78738895D01*
X139629969Y-78643657D01*
X139629969Y-78596038D01*
X139582350Y-78500800D01*
X139487112Y-78453181D01*
X139344255Y-78453181D01*
X139249017Y-78405562D01*
X139201398Y-78310324D01*
X139201398Y-78262705D01*
X139249017Y-78167467D01*
X139344255Y-78119848D01*
X139487112Y-78119848D01*
X139582350Y-78167467D01*
X140058540Y-78786514D02*
X140058540Y-78119848D01*
X140058540Y-77786514D02*
X140010921Y-77834134D01*
X140058540Y-77881753D01*
X140106159Y-77834134D01*
X140058540Y-77786514D01*
X140058540Y-77881753D01*
X140534731Y-78119848D02*
X140534731Y-78786514D01*
X140534731Y-78215086D02*
X140582350Y-78167467D01*
X140677588Y-78119848D01*
X140820445Y-78119848D01*
X140915683Y-78167467D01*
X140963302Y-78262705D01*
X140963302Y-78786514D01*
X141868064Y-78119848D02*
X141868064Y-78929372D01*
X141820445Y-79024610D01*
X141772826Y-79072229D01*
X141677588Y-79119848D01*
X141534731Y-79119848D01*
X141439493Y-79072229D01*
X141868064Y-78738895D02*
X141772826Y-78786514D01*
X141582350Y-78786514D01*
X141487112Y-78738895D01*
X141439493Y-78691276D01*
X141391874Y-78596038D01*
X141391874Y-78310324D01*
X141439493Y-78215086D01*
X141487112Y-78167467D01*
X141582350Y-78119848D01*
X141772826Y-78119848D01*
X141868064Y-78167467D01*
X143010921Y-78119848D02*
X143201398Y-78786514D01*
X143391874Y-78310324D01*
X143582350Y-78786514D01*
X143772826Y-78119848D01*
X144153778Y-78786514D02*
X144153778Y-78119848D01*
X144153778Y-77786514D02*
X144106159Y-77834134D01*
X144153778Y-77881753D01*
X144201398Y-77834134D01*
X144153778Y-77786514D01*
X144153778Y-77881753D01*
X144629969Y-78786514D02*
X144629969Y-78119848D01*
X144629969Y-78310324D02*
X144677588Y-78215086D01*
X144725207Y-78167467D01*
X144820445Y-78119848D01*
X144915683Y-78119848D01*
X145629969Y-78738895D02*
X145534731Y-78786514D01*
X145344255Y-78786514D01*
X145249017Y-78738895D01*
X145201398Y-78643657D01*
X145201398Y-78262705D01*
X145249017Y-78167467D01*
X145344255Y-78119848D01*
X145534731Y-78119848D01*
X145629969Y-78167467D01*
X145677588Y-78262705D01*
X145677588Y-78357943D01*
X145201398Y-78453181D01*
X146772826Y-78119848D02*
X146963302Y-78786514D01*
X147153778Y-78310324D01*
X147344255Y-78786514D01*
X147534731Y-78119848D01*
X147915683Y-78786514D02*
X147915683Y-77786514D01*
X148344255Y-78786514D02*
X148344255Y-78262705D01*
X148296636Y-78167467D01*
X148201398Y-78119848D01*
X148058540Y-78119848D01*
X147963302Y-78167467D01*
X147915683Y-78215086D01*
X148820445Y-78786514D02*
X148820445Y-78119848D01*
X148820445Y-77786514D02*
X148772826Y-77834134D01*
X148820445Y-77881753D01*
X148868064Y-77834134D01*
X148820445Y-77786514D01*
X148820445Y-77881753D01*
X149296636Y-78119848D02*
X149296636Y-79119848D01*
X149296636Y-78167467D02*
X149391874Y-78119848D01*
X149582350Y-78119848D01*
X149677588Y-78167467D01*
X149725207Y-78215086D01*
X149772826Y-78310324D01*
X149772826Y-78596038D01*
X149725207Y-78691276D01*
X149677588Y-78738895D01*
X149582350Y-78786514D01*
X149391874Y-78786514D01*
X149296636Y-78738895D01*
X151391874Y-78786514D02*
X151391874Y-78262705D01*
X151344255Y-78167467D01*
X151249017Y-78119848D01*
X151058540Y-78119848D01*
X150963302Y-78167467D01*
X151391874Y-78738895D02*
X151296636Y-78786514D01*
X151058540Y-78786514D01*
X150963302Y-78738895D01*
X150915683Y-78643657D01*
X150915683Y-78548419D01*
X150963302Y-78453181D01*
X151058540Y-78405562D01*
X151296636Y-78405562D01*
X151391874Y-78357943D01*
X151868064Y-78119848D02*
X151868064Y-78786514D01*
X151868064Y-78215086D02*
X151915683Y-78167467D01*
X152010921Y-78119848D01*
X152153778Y-78119848D01*
X152249017Y-78167467D01*
X152296636Y-78262705D01*
X152296636Y-78786514D01*
X152629969Y-78119848D02*
X153010921Y-78119848D01*
X152772826Y-77786514D02*
X152772826Y-78643657D01*
X152820445Y-78738895D01*
X152915683Y-78786514D01*
X153010921Y-78786514D01*
X153725207Y-78738895D02*
X153629969Y-78786514D01*
X153439493Y-78786514D01*
X153344255Y-78738895D01*
X153296636Y-78643657D01*
X153296636Y-78262705D01*
X153344255Y-78167467D01*
X153439493Y-78119848D01*
X153629969Y-78119848D01*
X153725207Y-78167467D01*
X153772826Y-78262705D01*
X153772826Y-78357943D01*
X153296636Y-78453181D01*
X154201398Y-78119848D02*
X154201398Y-78786514D01*
X154201398Y-78215086D02*
X154249017Y-78167467D01*
X154344255Y-78119848D01*
X154487112Y-78119848D01*
X154582350Y-78167467D01*
X154629969Y-78262705D01*
X154629969Y-78786514D01*
X155106159Y-78119848D02*
X155106159Y-78786514D01*
X155106159Y-78215086D02*
X155153778Y-78167467D01*
X155249017Y-78119848D01*
X155391874Y-78119848D01*
X155487112Y-78167467D01*
X155534731Y-78262705D01*
X155534731Y-78786514D01*
X156439493Y-78786514D02*
X156439493Y-78262705D01*
X156391874Y-78167467D01*
X156296636Y-78119848D01*
X156106159Y-78119848D01*
X156010921Y-78167467D01*
X156439493Y-78738895D02*
X156344255Y-78786514D01*
X156106159Y-78786514D01*
X156010921Y-78738895D01*
X155963302Y-78643657D01*
X155963302Y-78548419D01*
X156010921Y-78453181D01*
X156106159Y-78405562D01*
X156344255Y-78405562D01*
X156439493Y-78357943D01*
X157963302Y-79167467D02*
X157915683Y-79119848D01*
X157820445Y-78976991D01*
X157772826Y-78881753D01*
X157725207Y-78738895D01*
X157677588Y-78500800D01*
X157677588Y-78310324D01*
X157725207Y-78072229D01*
X157772826Y-77929372D01*
X157820445Y-77834134D01*
X157915683Y-77691276D01*
X157963302Y-77643657D01*
X158487112Y-78215086D02*
X158391874Y-78167467D01*
X158344255Y-78119848D01*
X158296636Y-78024610D01*
X158296636Y-77976991D01*
X158344255Y-77881753D01*
X158391874Y-77834134D01*
X158487112Y-77786514D01*
X158677588Y-77786514D01*
X158772826Y-77834134D01*
X158820445Y-77881753D01*
X158868064Y-77976991D01*
X158868064Y-78024610D01*
X158820445Y-78119848D01*
X158772826Y-78167467D01*
X158677588Y-78215086D01*
X158487112Y-78215086D01*
X158391874Y-78262705D01*
X158344255Y-78310324D01*
X158296636Y-78405562D01*
X158296636Y-78596038D01*
X158344255Y-78691276D01*
X158391874Y-78738895D01*
X158487112Y-78786514D01*
X158677588Y-78786514D01*
X158772826Y-78738895D01*
X158820445Y-78691276D01*
X158868064Y-78596038D01*
X158868064Y-78405562D01*
X158820445Y-78310324D01*
X158772826Y-78262705D01*
X158677588Y-78215086D01*
X159725207Y-77786514D02*
X159534731Y-77786514D01*
X159439493Y-77834134D01*
X159391874Y-77881753D01*
X159296636Y-78024610D01*
X159249017Y-78215086D01*
X159249017Y-78596038D01*
X159296636Y-78691276D01*
X159344255Y-78738895D01*
X159439493Y-78786514D01*
X159629969Y-78786514D01*
X159725207Y-78738895D01*
X159772826Y-78691276D01*
X159820445Y-78596038D01*
X159820445Y-78357943D01*
X159772826Y-78262705D01*
X159725207Y-78215086D01*
X159629969Y-78167467D01*
X159439493Y-78167467D01*
X159344255Y-78215086D01*
X159296636Y-78262705D01*
X159249017Y-78357943D01*
X160249017Y-78786514D02*
X160249017Y-78119848D01*
X160249017Y-78215086D02*
X160296636Y-78167467D01*
X160391874Y-78119848D01*
X160534731Y-78119848D01*
X160629969Y-78167467D01*
X160677588Y-78262705D01*
X160677588Y-78786514D01*
X160677588Y-78262705D02*
X160725207Y-78167467D01*
X160820445Y-78119848D01*
X160963302Y-78119848D01*
X161058540Y-78167467D01*
X161106159Y-78262705D01*
X161106159Y-78786514D01*
X161582350Y-78786514D02*
X161582350Y-78119848D01*
X161582350Y-78215086D02*
X161629969Y-78167467D01*
X161725207Y-78119848D01*
X161868064Y-78119848D01*
X161963302Y-78167467D01*
X162010921Y-78262705D01*
X162010921Y-78786514D01*
X162010921Y-78262705D02*
X162058540Y-78167467D01*
X162153778Y-78119848D01*
X162296636Y-78119848D01*
X162391874Y-78167467D01*
X162439493Y-78262705D01*
X162439493Y-78786514D01*
X163820445Y-78786514D02*
X163725207Y-78738895D01*
X163677588Y-78643657D01*
X163677588Y-77786514D01*
X164344255Y-78786514D02*
X164249017Y-78738895D01*
X164201397Y-78691276D01*
X164153778Y-78596038D01*
X164153778Y-78310324D01*
X164201397Y-78215086D01*
X164249017Y-78167467D01*
X164344255Y-78119848D01*
X164487112Y-78119848D01*
X164582350Y-78167467D01*
X164629969Y-78215086D01*
X164677588Y-78310324D01*
X164677588Y-78596038D01*
X164629969Y-78691276D01*
X164582350Y-78738895D01*
X164487112Y-78786514D01*
X164344255Y-78786514D01*
X165106159Y-78119848D02*
X165106159Y-78786514D01*
X165106159Y-78215086D02*
X165153778Y-78167467D01*
X165249017Y-78119848D01*
X165391874Y-78119848D01*
X165487112Y-78167467D01*
X165534731Y-78262705D01*
X165534731Y-78786514D01*
X166439493Y-78119848D02*
X166439493Y-78929372D01*
X166391874Y-79024610D01*
X166344255Y-79072229D01*
X166249017Y-79119848D01*
X166106159Y-79119848D01*
X166010921Y-79072229D01*
X166439493Y-78738895D02*
X166344255Y-78786514D01*
X166153778Y-78786514D01*
X166058540Y-78738895D01*
X166010921Y-78691276D01*
X165963302Y-78596038D01*
X165963302Y-78310324D01*
X166010921Y-78215086D01*
X166058540Y-78167467D01*
X166153778Y-78119848D01*
X166344255Y-78119848D01*
X166439493Y-78167467D01*
X166820445Y-79167467D02*
X166868064Y-79119848D01*
X166963302Y-78976991D01*
X167010921Y-78881753D01*
X167058540Y-78738895D01*
X167106159Y-78500800D01*
X167106159Y-78310324D01*
X167058540Y-78072229D01*
X167010921Y-77929372D01*
X166963302Y-77834134D01*
X166868064Y-77691276D01*
X166820445Y-77643657D01*
D10*
X141352000Y-101600000D02*
X141418666Y-101633333D01*
X141518666Y-101633333D01*
X141618666Y-101600000D01*
X141685333Y-101533333D01*
X141718666Y-101466666D01*
X141752000Y-101333333D01*
X141752000Y-101233333D01*
X141718666Y-101100000D01*
X141685333Y-101033333D01*
X141618666Y-100966666D01*
X141518666Y-100933333D01*
X141452000Y-100933333D01*
X141352000Y-100966666D01*
X141318666Y-101000000D01*
X141318666Y-101233333D01*
X141452000Y-101233333D01*
X141018666Y-100933333D02*
X141018666Y-101633333D01*
X140618666Y-100933333D01*
X140618666Y-101633333D01*
X140285333Y-100933333D02*
X140285333Y-101633333D01*
X140118666Y-101633333D01*
X140018666Y-101600000D01*
X139952000Y-101533333D01*
X139918666Y-101466666D01*
X139885333Y-101333333D01*
X139885333Y-101233333D01*
X139918666Y-101100000D01*
X139952000Y-101033333D01*
X140018666Y-100966666D01*
X140118666Y-100933333D01*
X140285333Y-100933333D01*
X150816769Y-100810072D02*
X151133436Y-101262453D01*
X151359626Y-100810072D02*
X151359626Y-101760072D01*
X150997721Y-101760072D01*
X150907245Y-101714834D01*
X150862007Y-101669595D01*
X150816769Y-101579119D01*
X150816769Y-101443405D01*
X150862007Y-101352929D01*
X150907245Y-101307691D01*
X150997721Y-101262453D01*
X151359626Y-101262453D01*
X150409626Y-101307691D02*
X150092959Y-101307691D01*
X149957245Y-100810072D02*
X150409626Y-100810072D01*
X150409626Y-101760072D01*
X149957245Y-101760072D01*
X149595340Y-100855310D02*
X149459626Y-100810072D01*
X149233436Y-100810072D01*
X149142959Y-100855310D01*
X149097721Y-100900548D01*
X149052483Y-100991024D01*
X149052483Y-101081500D01*
X149097721Y-101171976D01*
X149142959Y-101217214D01*
X149233436Y-101262453D01*
X149414388Y-101307691D01*
X149504864Y-101352929D01*
X149550102Y-101398167D01*
X149595340Y-101488643D01*
X149595340Y-101579119D01*
X149550102Y-101669595D01*
X149504864Y-101714834D01*
X149414388Y-101760072D01*
X149188198Y-101760072D01*
X149052483Y-101714834D01*
X148645340Y-101307691D02*
X148328674Y-101307691D01*
X148192959Y-100810072D02*
X148645340Y-100810072D01*
X148645340Y-101760072D01*
X148192959Y-101760072D01*
X147921531Y-101760072D02*
X147378674Y-101760072D01*
X147650102Y-100810072D02*
X147650102Y-101760072D01*
X149797707Y-103395310D02*
X149661993Y-103350072D01*
X149435802Y-103350072D01*
X149345326Y-103395310D01*
X149300088Y-103440548D01*
X149254850Y-103531024D01*
X149254850Y-103621500D01*
X149300088Y-103711976D01*
X149345326Y-103757214D01*
X149435802Y-103802453D01*
X149616755Y-103847691D01*
X149707231Y-103892929D01*
X149752469Y-103938167D01*
X149797707Y-104028643D01*
X149797707Y-104119119D01*
X149752469Y-104209595D01*
X149707231Y-104254834D01*
X149616755Y-104300072D01*
X149390564Y-104300072D01*
X149254850Y-104254834D01*
X148304850Y-103440548D02*
X148350088Y-103395310D01*
X148485802Y-103350072D01*
X148576278Y-103350072D01*
X148711993Y-103395310D01*
X148802469Y-103485786D01*
X148847707Y-103576262D01*
X148892945Y-103757214D01*
X148892945Y-103892929D01*
X148847707Y-104073881D01*
X148802469Y-104164357D01*
X148711993Y-104254834D01*
X148576278Y-104300072D01*
X148485802Y-104300072D01*
X148350088Y-104254834D01*
X148304850Y-104209595D01*
X147897707Y-103350072D02*
X147897707Y-104300072D01*
X147354850Y-103350072D02*
X147761993Y-103892929D01*
X147354850Y-104300072D02*
X147897707Y-103757214D01*
X150271502Y-106004372D02*
X150271502Y-106954372D01*
X149954836Y-106275800D01*
X149638169Y-106954372D01*
X149638169Y-106004372D01*
X149185788Y-106004372D02*
X149185788Y-106954372D01*
X148778645Y-106049610D02*
X148642931Y-106004372D01*
X148416740Y-106004372D01*
X148326264Y-106049610D01*
X148281026Y-106094848D01*
X148235788Y-106185324D01*
X148235788Y-106275800D01*
X148281026Y-106366276D01*
X148326264Y-106411514D01*
X148416740Y-106456753D01*
X148597693Y-106501991D01*
X148688169Y-106547229D01*
X148733407Y-106592467D01*
X148778645Y-106682943D01*
X148778645Y-106773419D01*
X148733407Y-106863895D01*
X148688169Y-106909134D01*
X148597693Y-106954372D01*
X148371502Y-106954372D01*
X148235788Y-106909134D01*
X147647693Y-106954372D02*
X147466740Y-106954372D01*
X147376264Y-106909134D01*
X147285788Y-106818657D01*
X147240550Y-106637705D01*
X147240550Y-106321038D01*
X147285788Y-106140086D01*
X147376264Y-106049610D01*
X147466740Y-106004372D01*
X147647693Y-106004372D01*
X147738169Y-106049610D01*
X147828645Y-106140086D01*
X147873883Y-106321038D01*
X147873883Y-106637705D01*
X147828645Y-106818657D01*
X147738169Y-106909134D01*
X147647693Y-106954372D01*
X141612380Y-103759047D02*
X141612380Y-104159047D01*
X141479047Y-103873333D01*
X141345714Y-104159047D01*
X141345714Y-103759047D01*
X141079047Y-104159047D02*
X141002857Y-104159047D01*
X140964761Y-104140000D01*
X140926666Y-104101904D01*
X140907619Y-104025714D01*
X140907619Y-103892380D01*
X140926666Y-103816190D01*
X140964761Y-103778095D01*
X141002857Y-103759047D01*
X141079047Y-103759047D01*
X141117142Y-103778095D01*
X141155238Y-103816190D01*
X141174285Y-103892380D01*
X141174285Y-104025714D01*
X141155238Y-104101904D01*
X141117142Y-104140000D01*
X141079047Y-104159047D01*
X140755238Y-103778095D02*
X140698095Y-103759047D01*
X140602857Y-103759047D01*
X140564761Y-103778095D01*
X140545714Y-103797142D01*
X140526666Y-103835238D01*
X140526666Y-103873333D01*
X140545714Y-103911428D01*
X140564761Y-103930476D01*
X140602857Y-103949523D01*
X140679047Y-103968571D01*
X140717142Y-103987619D01*
X140736190Y-104006666D01*
X140755238Y-104044761D01*
X140755238Y-104082857D01*
X140736190Y-104120952D01*
X140717142Y-104140000D01*
X140679047Y-104159047D01*
X140583809Y-104159047D01*
X140526666Y-104140000D01*
X140355238Y-103759047D02*
X140355238Y-104159047D01*
X143221331Y-116855829D02*
X143221331Y-116403448D01*
X143492759Y-116946305D02*
X142542759Y-116629638D01*
X143492759Y-116312972D01*
X142633236Y-116041543D02*
X142587998Y-115996305D01*
X142542759Y-115905829D01*
X142542759Y-115679638D01*
X142587998Y-115589162D01*
X142633236Y-115543924D01*
X142723712Y-115498686D01*
X142814188Y-115498686D01*
X142949902Y-115543924D01*
X143492759Y-116086781D01*
X143492759Y-115498686D01*
X145608931Y-116855829D02*
X145608931Y-116403448D01*
X145880359Y-116946305D02*
X144930359Y-116629638D01*
X145880359Y-116312972D01*
X144930359Y-116086781D02*
X144930359Y-115498686D01*
X145292264Y-115815353D01*
X145292264Y-115679638D01*
X145337502Y-115589162D01*
X145382740Y-115543924D01*
X145473217Y-115498686D01*
X145699407Y-115498686D01*
X145789883Y-115543924D01*
X145835121Y-115589162D01*
X145880359Y-115679638D01*
X145880359Y-115951067D01*
X145835121Y-116041543D01*
X145789883Y-116086781D01*
X140655931Y-116690729D02*
X140655931Y-116238348D01*
X140927359Y-116781205D02*
X139977359Y-116464538D01*
X140927359Y-116147872D01*
X140927359Y-115333586D02*
X140927359Y-115876443D01*
X140927359Y-115605014D02*
X139977359Y-115605014D01*
X140113074Y-115695491D01*
X140203550Y-115785967D01*
X140248788Y-115876443D01*
X150688931Y-116855829D02*
X150688931Y-116403448D01*
X150960359Y-116946305D02*
X150010359Y-116629638D01*
X150960359Y-116312972D01*
X150010359Y-116086781D02*
X150010359Y-115453448D01*
X150960359Y-115860591D01*
X148136231Y-116855829D02*
X148136231Y-116403448D01*
X148407659Y-116946305D02*
X147457659Y-116629638D01*
X148407659Y-116312972D01*
X147457659Y-115589162D02*
X147457659Y-115770114D01*
X147502898Y-115860591D01*
X147548136Y-115905829D01*
X147683850Y-115996305D01*
X147864802Y-116041543D01*
X148226707Y-116041543D01*
X148317183Y-115996305D01*
X148362421Y-115951067D01*
X148407659Y-115860591D01*
X148407659Y-115679638D01*
X148362421Y-115589162D01*
X148317183Y-115543924D01*
X148226707Y-115498686D01*
X148000517Y-115498686D01*
X147910040Y-115543924D01*
X147864802Y-115589162D01*
X147819564Y-115679638D01*
X147819564Y-115860591D01*
X147864802Y-115951067D01*
X147910040Y-115996305D01*
X148000517Y-116041543D01*
X153474959Y-116946305D02*
X152524959Y-116946305D01*
X152524959Y-116720114D01*
X152570198Y-116584400D01*
X152660674Y-116493924D01*
X152751150Y-116448686D01*
X152932102Y-116403448D01*
X153067817Y-116403448D01*
X153248769Y-116448686D01*
X153339245Y-116493924D01*
X153429721Y-116584400D01*
X153474959Y-116720114D01*
X153474959Y-116946305D01*
X152524959Y-116086781D02*
X152524959Y-115498686D01*
X152886864Y-115815353D01*
X152886864Y-115679638D01*
X152932102Y-115589162D01*
X152977340Y-115543924D01*
X153067817Y-115498686D01*
X153294007Y-115498686D01*
X153384483Y-115543924D01*
X153429721Y-115589162D01*
X153474959Y-115679638D01*
X153474959Y-115951067D01*
X153429721Y-116041543D01*
X153384483Y-116086781D01*
X161260059Y-117060605D02*
X160310059Y-117060605D01*
X160310059Y-116834414D01*
X160355298Y-116698700D01*
X160445774Y-116608224D01*
X160536250Y-116562986D01*
X160717202Y-116517748D01*
X160852917Y-116517748D01*
X161033869Y-116562986D01*
X161124345Y-116608224D01*
X161214821Y-116698700D01*
X161260059Y-116834414D01*
X161260059Y-117060605D01*
X160310059Y-116201081D02*
X160310059Y-115567748D01*
X161260059Y-115974891D01*
X156307059Y-116895505D02*
X155357059Y-116895505D01*
X155357059Y-116669314D01*
X155402298Y-116533600D01*
X155492774Y-116443124D01*
X155583250Y-116397886D01*
X155764202Y-116352648D01*
X155899917Y-116352648D01*
X156080869Y-116397886D01*
X156171345Y-116443124D01*
X156261821Y-116533600D01*
X156307059Y-116669314D01*
X156307059Y-116895505D01*
X155357059Y-115493124D02*
X155357059Y-115945505D01*
X155809440Y-115990743D01*
X155764202Y-115945505D01*
X155718964Y-115855029D01*
X155718964Y-115628838D01*
X155764202Y-115538362D01*
X155809440Y-115493124D01*
X155899917Y-115447886D01*
X156126107Y-115447886D01*
X156216583Y-115493124D01*
X156261821Y-115538362D01*
X156307059Y-115628838D01*
X156307059Y-115855029D01*
X156261821Y-115945505D01*
X156216583Y-115990743D01*
X165390059Y-118055843D02*
X166340059Y-117739176D01*
X165390059Y-117422510D01*
X166249583Y-116562986D02*
X166294821Y-116608224D01*
X166340059Y-116743938D01*
X166340059Y-116834414D01*
X166294821Y-116970129D01*
X166204345Y-117060605D01*
X166113869Y-117105843D01*
X165932917Y-117151081D01*
X165797202Y-117151081D01*
X165616250Y-117105843D01*
X165525774Y-117060605D01*
X165435298Y-116970129D01*
X165390059Y-116834414D01*
X165390059Y-116743938D01*
X165435298Y-116608224D01*
X165480536Y-116562986D01*
X166249583Y-115612986D02*
X166294821Y-115658224D01*
X166340059Y-115793938D01*
X166340059Y-115884414D01*
X166294821Y-116020129D01*
X166204345Y-116110605D01*
X166113869Y-116155843D01*
X165932917Y-116201081D01*
X165797202Y-116201081D01*
X165616250Y-116155843D01*
X165525774Y-116110605D01*
X165435298Y-116020129D01*
X165390059Y-115884414D01*
X165390059Y-115793938D01*
X165435298Y-115658224D01*
X165480536Y-115612986D01*
X163787359Y-117060605D02*
X162837359Y-117060605D01*
X162837359Y-116834414D01*
X162882598Y-116698700D01*
X162973074Y-116608224D01*
X163063550Y-116562986D01*
X163244502Y-116517748D01*
X163380217Y-116517748D01*
X163561169Y-116562986D01*
X163651645Y-116608224D01*
X163742121Y-116698700D01*
X163787359Y-116834414D01*
X163787359Y-117060605D01*
X162927836Y-116155843D02*
X162882598Y-116110605D01*
X162837359Y-116020129D01*
X162837359Y-115793938D01*
X162882598Y-115703462D01*
X162927836Y-115658224D01*
X163018312Y-115612986D01*
X163108788Y-115612986D01*
X163244502Y-115658224D01*
X163787359Y-116201081D01*
X163787359Y-115612986D01*
X167949898Y-117603462D02*
X167904659Y-117693938D01*
X167904659Y-117829653D01*
X167949898Y-117965367D01*
X168040374Y-118055843D01*
X168130850Y-118101081D01*
X168311802Y-118146319D01*
X168447517Y-118146319D01*
X168628469Y-118101081D01*
X168718945Y-118055843D01*
X168809421Y-117965367D01*
X168854659Y-117829653D01*
X168854659Y-117739176D01*
X168809421Y-117603462D01*
X168764183Y-117558224D01*
X168447517Y-117558224D01*
X168447517Y-117739176D01*
X168854659Y-117151081D02*
X167904659Y-117151081D01*
X168854659Y-116608224D01*
X167904659Y-116608224D01*
X168854659Y-116155843D02*
X167904659Y-116155843D01*
X167904659Y-115929653D01*
X167949898Y-115793938D01*
X168040374Y-115703462D01*
X168130850Y-115658224D01*
X168311802Y-115612986D01*
X168447517Y-115612986D01*
X168628469Y-115658224D01*
X168718945Y-115703462D01*
X168809421Y-115793938D01*
X168854659Y-115929653D01*
X168854659Y-116155843D01*
X155300698Y-110186662D02*
X155255459Y-110277138D01*
X155255459Y-110412853D01*
X155300698Y-110548567D01*
X155391174Y-110639043D01*
X155481650Y-110684281D01*
X155662602Y-110729519D01*
X155798317Y-110729519D01*
X155979269Y-110684281D01*
X156069745Y-110639043D01*
X156160221Y-110548567D01*
X156205459Y-110412853D01*
X156205459Y-110322376D01*
X156160221Y-110186662D01*
X156114983Y-110141424D01*
X155798317Y-110141424D01*
X155798317Y-110322376D01*
X156205459Y-109734281D02*
X155255459Y-109734281D01*
X156205459Y-109191424D01*
X155255459Y-109191424D01*
X156205459Y-108739043D02*
X155255459Y-108739043D01*
X155255459Y-108512853D01*
X155300698Y-108377138D01*
X155391174Y-108286662D01*
X155481650Y-108241424D01*
X155662602Y-108196186D01*
X155798317Y-108196186D01*
X155979269Y-108241424D01*
X156069745Y-108286662D01*
X156160221Y-108377138D01*
X156205459Y-108512853D01*
X156205459Y-108739043D01*
X160378639Y-104957063D02*
X161328639Y-104640396D01*
X160378639Y-104323730D01*
X161238163Y-103464206D02*
X161283401Y-103509444D01*
X161328639Y-103645158D01*
X161328639Y-103735634D01*
X161283401Y-103871349D01*
X161192925Y-103961825D01*
X161102449Y-104007063D01*
X160921497Y-104052301D01*
X160785782Y-104052301D01*
X160604830Y-104007063D01*
X160514354Y-103961825D01*
X160423878Y-103871349D01*
X160378639Y-103735634D01*
X160378639Y-103645158D01*
X160423878Y-103509444D01*
X160469116Y-103464206D01*
X161238163Y-102514206D02*
X161283401Y-102559444D01*
X161328639Y-102695158D01*
X161328639Y-102785634D01*
X161283401Y-102921349D01*
X161192925Y-103011825D01*
X161102449Y-103057063D01*
X160921497Y-103102301D01*
X160785782Y-103102301D01*
X160604830Y-103057063D01*
X160514354Y-103011825D01*
X160423878Y-102921349D01*
X160378639Y-102785634D01*
X160378639Y-102695158D01*
X160423878Y-102559444D01*
X160469116Y-102514206D01*
X162735759Y-109718429D02*
X162735759Y-109175572D01*
X163685759Y-109447000D02*
X162735759Y-109447000D01*
X162735759Y-108949381D02*
X163685759Y-108316048D01*
X162735759Y-108316048D02*
X163685759Y-108949381D01*
X166238459Y-109266048D02*
X165786078Y-109582714D01*
X166238459Y-109808905D02*
X165288459Y-109808905D01*
X165288459Y-109447000D01*
X165333698Y-109356524D01*
X165378936Y-109311286D01*
X165469412Y-109266048D01*
X165605126Y-109266048D01*
X165695602Y-109311286D01*
X165740840Y-109356524D01*
X165786078Y-109447000D01*
X165786078Y-109808905D01*
X165288459Y-108949381D02*
X166238459Y-108316048D01*
X165288459Y-108316048D02*
X166238459Y-108949381D01*
X168775302Y-110859662D02*
X168394350Y-111126329D01*
X168775302Y-111316805D02*
X167975302Y-111316805D01*
X167975302Y-111012043D01*
X168013398Y-110935853D01*
X168051493Y-110897757D01*
X168127683Y-110859662D01*
X168241969Y-110859662D01*
X168318159Y-110897757D01*
X168356255Y-110935853D01*
X168394350Y-111012043D01*
X168394350Y-111316805D01*
X168356255Y-110516805D02*
X168356255Y-110250138D01*
X168775302Y-110135853D02*
X168775302Y-110516805D01*
X167975302Y-110516805D01*
X167975302Y-110135853D01*
X168737207Y-109831091D02*
X168775302Y-109716805D01*
X168775302Y-109526329D01*
X168737207Y-109450138D01*
X168699112Y-109412043D01*
X168622921Y-109373948D01*
X168546731Y-109373948D01*
X168470540Y-109412043D01*
X168432445Y-109450138D01*
X168394350Y-109526329D01*
X168356255Y-109678710D01*
X168318159Y-109754900D01*
X168280064Y-109792995D01*
X168203874Y-109831091D01*
X168127683Y-109831091D01*
X168051493Y-109792995D01*
X168013398Y-109754900D01*
X167975302Y-109678710D01*
X167975302Y-109488234D01*
X168013398Y-109373948D01*
X168356255Y-109031091D02*
X168356255Y-108764424D01*
X168775302Y-108650138D02*
X168775302Y-109031091D01*
X167975302Y-109031091D01*
X167975302Y-108650138D01*
X167975302Y-108421567D02*
X167975302Y-107964424D01*
X168775302Y-108192995D02*
X167975302Y-108192995D01*
X164733940Y-85477095D02*
X164688702Y-85522334D01*
X164598226Y-85567572D01*
X164372036Y-85567572D01*
X164281559Y-85522334D01*
X164236321Y-85477095D01*
X164191083Y-85386619D01*
X164191083Y-85296143D01*
X164236321Y-85160429D01*
X164779178Y-84617572D01*
X164191083Y-84617572D01*
X163602988Y-85567572D02*
X163512512Y-85567572D01*
X163422036Y-85522334D01*
X163376798Y-85477095D01*
X163331559Y-85386619D01*
X163286321Y-85205667D01*
X163286321Y-84979476D01*
X163331559Y-84798524D01*
X163376798Y-84708048D01*
X163422036Y-84662810D01*
X163512512Y-84617572D01*
X163602988Y-84617572D01*
X163693464Y-84662810D01*
X163738702Y-84708048D01*
X163783940Y-84798524D01*
X163829178Y-84979476D01*
X163829178Y-85205667D01*
X163783940Y-85386619D01*
X163738702Y-85477095D01*
X163693464Y-85522334D01*
X163602988Y-85567572D01*
X162381559Y-84617572D02*
X162924417Y-84617572D01*
X162652988Y-84617572D02*
X162652988Y-85567572D01*
X162743464Y-85431857D01*
X162833940Y-85341381D01*
X162924417Y-85296143D01*
X161838702Y-85160429D02*
X161929178Y-85205667D01*
X161974417Y-85250905D01*
X162019655Y-85341381D01*
X162019655Y-85386619D01*
X161974417Y-85477095D01*
X161929178Y-85522334D01*
X161838702Y-85567572D01*
X161657750Y-85567572D01*
X161567274Y-85522334D01*
X161522036Y-85477095D01*
X161476798Y-85386619D01*
X161476798Y-85341381D01*
X161522036Y-85250905D01*
X161567274Y-85205667D01*
X161657750Y-85160429D01*
X161838702Y-85160429D01*
X161929178Y-85115191D01*
X161974417Y-85069953D01*
X162019655Y-84979476D01*
X162019655Y-84798524D01*
X161974417Y-84708048D01*
X161929178Y-84662810D01*
X161838702Y-84617572D01*
X161657750Y-84617572D01*
X161567274Y-84662810D01*
X161522036Y-84708048D01*
X161476798Y-84798524D01*
X161476798Y-84979476D01*
X161522036Y-85069953D01*
X161567274Y-85115191D01*
X161657750Y-85160429D01*
X160572036Y-84617572D02*
X161114893Y-84617572D01*
X160843464Y-84617572D02*
X160843464Y-85567572D01*
X160933940Y-85431857D01*
X161024417Y-85341381D01*
X161114893Y-85296143D01*
X159667274Y-84617572D02*
X160210131Y-84617572D01*
X159938702Y-84617572D02*
X159938702Y-85567572D01*
X160029178Y-85431857D01*
X160119655Y-85341381D01*
X160210131Y-85296143D01*
X158762512Y-84617572D02*
X159305369Y-84617572D01*
X159033940Y-84617572D02*
X159033940Y-85567572D01*
X159124417Y-85431857D01*
X159214893Y-85341381D01*
X159305369Y-85296143D01*
X157948226Y-85567572D02*
X158129178Y-85567572D01*
X158219655Y-85522334D01*
X158264893Y-85477095D01*
X158355369Y-85341381D01*
X158400607Y-85160429D01*
X158400607Y-84798524D01*
X158355369Y-84708048D01*
X158310131Y-84662810D01*
X158219655Y-84617572D01*
X158038702Y-84617572D01*
X157948226Y-84662810D01*
X157902988Y-84708048D01*
X157857750Y-84798524D01*
X157857750Y-85024714D01*
X157902988Y-85115191D01*
X157948226Y-85160429D01*
X158038702Y-85205667D01*
X158219655Y-85205667D01*
X158310131Y-85160429D01*
X158355369Y-85115191D01*
X158400607Y-85024714D01*
X171457891Y-101561370D02*
X171457891Y-101380417D01*
X171503130Y-101289941D01*
X171593606Y-101199465D01*
X171774558Y-101154227D01*
X172091225Y-101154227D01*
X172272177Y-101199465D01*
X172362653Y-101289941D01*
X172407891Y-101380417D01*
X172407891Y-101561370D01*
X172362653Y-101651846D01*
X172272177Y-101742322D01*
X172091225Y-101787560D01*
X171774558Y-101787560D01*
X171593606Y-101742322D01*
X171503130Y-101651846D01*
X171457891Y-101561370D01*
X171774558Y-100747084D02*
X172724558Y-100747084D01*
X171819796Y-100747084D02*
X171774558Y-100656608D01*
X171774558Y-100475655D01*
X171819796Y-100385179D01*
X171865034Y-100339941D01*
X171955510Y-100294703D01*
X172226939Y-100294703D01*
X172317415Y-100339941D01*
X172362653Y-100385179D01*
X172407891Y-100475655D01*
X172407891Y-100656608D01*
X172362653Y-100747084D01*
X172362653Y-99525655D02*
X172407891Y-99616132D01*
X172407891Y-99797084D01*
X172362653Y-99887560D01*
X172272177Y-99932798D01*
X171910272Y-99932798D01*
X171819796Y-99887560D01*
X171774558Y-99797084D01*
X171774558Y-99616132D01*
X171819796Y-99525655D01*
X171910272Y-99480417D01*
X172000749Y-99480417D01*
X172091225Y-99932798D01*
X171774558Y-99073274D02*
X172407891Y-99073274D01*
X171865034Y-99073274D02*
X171819796Y-99028036D01*
X171774558Y-98937560D01*
X171774558Y-98801846D01*
X171819796Y-98711370D01*
X171910272Y-98666132D01*
X172407891Y-98666132D01*
X171457891Y-98349465D02*
X171457891Y-97806608D01*
X172407891Y-98078036D02*
X171457891Y-98078036D01*
X172407891Y-96947084D02*
X171955510Y-97263751D01*
X172407891Y-97489941D02*
X171457891Y-97489941D01*
X171457891Y-97128036D01*
X171503130Y-97037560D01*
X171548368Y-96992322D01*
X171638844Y-96947084D01*
X171774558Y-96947084D01*
X171865034Y-96992322D01*
X171910272Y-97037560D01*
X171955510Y-97128036D01*
X171955510Y-97489941D01*
X171457891Y-96675655D02*
X172407891Y-96358989D01*
X171457891Y-96042322D01*
X172317415Y-95725655D02*
X172362653Y-95680417D01*
X172407891Y-95725655D01*
X172362653Y-95770893D01*
X172317415Y-95725655D01*
X172407891Y-95725655D01*
X172407891Y-95137560D02*
X172362653Y-95228036D01*
X172317415Y-95273274D01*
X172226939Y-95318513D01*
X171955510Y-95318513D01*
X171865034Y-95273274D01*
X171819796Y-95228036D01*
X171774558Y-95137560D01*
X171774558Y-95001846D01*
X171819796Y-94911370D01*
X171865034Y-94866132D01*
X171955510Y-94820893D01*
X172226939Y-94820893D01*
X172317415Y-94866132D01*
X172362653Y-94911370D01*
X172407891Y-95001846D01*
X172407891Y-95137560D01*
X172407891Y-94413751D02*
X171774558Y-94413751D01*
X171955510Y-94413751D02*
X171865034Y-94368513D01*
X171819796Y-94323274D01*
X171774558Y-94232798D01*
X171774558Y-94142322D01*
X171774558Y-93418513D02*
X172543606Y-93418513D01*
X172634082Y-93463751D01*
X172679320Y-93508989D01*
X172724558Y-93599465D01*
X172724558Y-93735179D01*
X172679320Y-93825655D01*
X172362653Y-93418513D02*
X172407891Y-93508989D01*
X172407891Y-93689941D01*
X172362653Y-93780417D01*
X172317415Y-93825655D01*
X172226939Y-93870893D01*
X171955510Y-93870893D01*
X171865034Y-93825655D01*
X171819796Y-93780417D01*
X171774558Y-93689941D01*
X171774558Y-93508989D01*
X171819796Y-93418513D01*
X172317415Y-92966132D02*
X172362653Y-92920893D01*
X172407891Y-92966132D01*
X172362653Y-93011370D01*
X172317415Y-92966132D01*
X172407891Y-92966132D01*
X171774558Y-92106608D02*
X172407891Y-92106608D01*
X171774558Y-92513751D02*
X172272177Y-92513751D01*
X172362653Y-92468513D01*
X172407891Y-92378036D01*
X172407891Y-92242322D01*
X172362653Y-92151846D01*
X172317415Y-92106608D01*
X172407891Y-91654227D02*
X171457891Y-91654227D01*
X172045987Y-91563751D02*
X172407891Y-91292322D01*
X171774558Y-91292322D02*
X172136463Y-91654227D01*
D13*
G04 #@! TO.C,C6*
X117965998Y-96272734D02*
X116465998Y-96272734D01*
X116465998Y-96272734D02*
X116465998Y-93872734D01*
X116465998Y-93872734D02*
X117965998Y-93872734D01*
X119965998Y-96272734D02*
X121065998Y-96272734D01*
X121065998Y-96272734D02*
X121465998Y-95872734D01*
X121465998Y-95872734D02*
X121465998Y-94272734D01*
X121465998Y-94272734D02*
X121065998Y-93872734D01*
X121065998Y-93872734D02*
X119965998Y-93872734D01*
D14*
X119346998Y-94056734D02*
X119346998Y-96088734D01*
D15*
G04 #@! TO.C,IC1*
X132821398Y-110167734D02*
G75*
G03X132821398Y-110167734I-359200J0D01*
G01*
X132868998Y-110929534D02*
X133223998Y-110574534D01*
X132868998Y-110929534D02*
X126213998Y-110929534D01*
X133223998Y-103919534D02*
X133223998Y-110574534D01*
X126213998Y-103919534D02*
X133223998Y-103919534D01*
X126213998Y-110929534D02*
X126213998Y-103919534D01*
D16*
G04 #@! TO.C,J1*
X154410118Y-107792094D02*
X154410118Y-106462094D01*
X155740118Y-107792094D02*
X154410118Y-107792094D01*
X157010118Y-107792094D02*
X157010118Y-105132094D01*
X157010118Y-105132094D02*
X169770118Y-105132094D01*
X157010118Y-107792094D02*
X169770118Y-107792094D01*
X169770118Y-107792094D02*
X169770118Y-105132094D01*
G04 #@! TO.C,J2*
X147067598Y-107705734D02*
X145737598Y-107705734D01*
X147067598Y-106375734D02*
X147067598Y-107705734D01*
X144467598Y-107705734D02*
X141867598Y-107705734D01*
X144467598Y-105105734D02*
X144467598Y-107705734D01*
X147067598Y-105105734D02*
X144467598Y-105105734D01*
X141867598Y-107705734D02*
X141867598Y-99965734D01*
X147067598Y-105105734D02*
X147067598Y-99965734D01*
X147067598Y-99965734D02*
X141867598Y-99965734D01*
D14*
G04 #@! TO.C,U1*
X128612398Y-83301434D02*
G75*
G03X128612398Y-83301434I-635000J0D01*
G01*
D13*
X141692398Y-98286434D02*
X125692398Y-98286434D01*
X125692398Y-82286434D02*
X141692398Y-82286434D01*
D16*
G04 #@! TO.C,J4*
X139118798Y-114679634D02*
X139118798Y-113349634D01*
X140448798Y-114679634D02*
X139118798Y-114679634D01*
X141718798Y-114679634D02*
X141718798Y-112019634D01*
X141718798Y-112019634D02*
X169718798Y-112019634D01*
X141718798Y-114679634D02*
X169718798Y-114679634D01*
X169718798Y-114679634D02*
X169718798Y-112019634D01*
G04 #@! TO.C,Q1*
X140012318Y-102880694D02*
X135552318Y-102880694D01*
X135552318Y-102880694D02*
X135552318Y-106944694D01*
X140012318Y-102880694D02*
X140012318Y-106944694D01*
X140012318Y-106944694D02*
X135552318Y-106944694D01*
G04 #@! TO.C,R15*
D17*
X136454447Y-122382761D02*
X136137780Y-121930380D01*
X135911590Y-122382761D02*
X135911590Y-121432761D01*
X136273495Y-121432761D01*
X136363971Y-121478000D01*
X136409209Y-121523238D01*
X136454447Y-121613714D01*
X136454447Y-121749428D01*
X136409209Y-121839904D01*
X136363971Y-121885142D01*
X136273495Y-121930380D01*
X135911590Y-121930380D01*
X137359209Y-122382761D02*
X136816352Y-122382761D01*
X137087780Y-122382761D02*
X137087780Y-121432761D01*
X136997304Y-121568476D01*
X136906828Y-121658952D01*
X136816352Y-121704190D01*
X138218733Y-121432761D02*
X137766352Y-121432761D01*
X137721114Y-121885142D01*
X137766352Y-121839904D01*
X137856828Y-121794666D01*
X138083019Y-121794666D01*
X138173495Y-121839904D01*
X138218733Y-121885142D01*
X138263971Y-121975619D01*
X138263971Y-122201809D01*
X138218733Y-122292285D01*
X138173495Y-122337523D01*
X138083019Y-122382761D01*
X137856828Y-122382761D01*
X137766352Y-122337523D01*
X137721114Y-122292285D01*
G04 #@! TO.C,C6*
X115118447Y-95368285D02*
X115073209Y-95413523D01*
X114937495Y-95458761D01*
X114847019Y-95458761D01*
X114711304Y-95413523D01*
X114620828Y-95323047D01*
X114575590Y-95232571D01*
X114530352Y-95051619D01*
X114530352Y-94915904D01*
X114575590Y-94734952D01*
X114620828Y-94644476D01*
X114711304Y-94554000D01*
X114847019Y-94508761D01*
X114937495Y-94508761D01*
X115073209Y-94554000D01*
X115118447Y-94599238D01*
X115932733Y-94508761D02*
X115751780Y-94508761D01*
X115661304Y-94554000D01*
X115616066Y-94599238D01*
X115525590Y-94734952D01*
X115480352Y-94915904D01*
X115480352Y-95277809D01*
X115525590Y-95368285D01*
X115570828Y-95413523D01*
X115661304Y-95458761D01*
X115842257Y-95458761D01*
X115932733Y-95413523D01*
X115977971Y-95368285D01*
X116023209Y-95277809D01*
X116023209Y-95051619D01*
X115977971Y-94961142D01*
X115932733Y-94915904D01*
X115842257Y-94870666D01*
X115661304Y-94870666D01*
X115570828Y-94915904D01*
X115525590Y-94961142D01*
X115480352Y-95051619D01*
G04 #@! TO.C,IC1*
X129053590Y-107904761D02*
X129053590Y-106954761D01*
X130048828Y-107814285D02*
X130003590Y-107859523D01*
X129867876Y-107904761D01*
X129777400Y-107904761D01*
X129641685Y-107859523D01*
X129551209Y-107769047D01*
X129505971Y-107678571D01*
X129460733Y-107497619D01*
X129460733Y-107361904D01*
X129505971Y-107180952D01*
X129551209Y-107090476D01*
X129641685Y-107000000D01*
X129777400Y-106954761D01*
X129867876Y-106954761D01*
X130003590Y-107000000D01*
X130048828Y-107045238D01*
X130953590Y-107904761D02*
X130410733Y-107904761D01*
X130682161Y-107904761D02*
X130682161Y-106954761D01*
X130591685Y-107090476D01*
X130501209Y-107180952D01*
X130410733Y-107226190D01*
G04 #@! TO.C,J1*
X170274459Y-106832100D02*
X170953031Y-106832100D01*
X171088745Y-106877338D01*
X171179221Y-106967814D01*
X171224459Y-107103529D01*
X171224459Y-107194005D01*
X171224459Y-105882100D02*
X171224459Y-106424957D01*
X171224459Y-106153529D02*
X170274459Y-106153529D01*
X170410174Y-106244005D01*
X170500650Y-106334481D01*
X170545888Y-106424957D01*
G04 #@! TO.C,J2*
X144150931Y-98616495D02*
X144150931Y-99295067D01*
X144105693Y-99430781D01*
X144015217Y-99521257D01*
X143879502Y-99566495D01*
X143789026Y-99566495D01*
X144558074Y-98706972D02*
X144603312Y-98661734D01*
X144693788Y-98616495D01*
X144919978Y-98616495D01*
X145010455Y-98661734D01*
X145055693Y-98706972D01*
X145100931Y-98797448D01*
X145100931Y-98887924D01*
X145055693Y-99023638D01*
X144512836Y-99566495D01*
X145100931Y-99566495D01*
G04 #@! TO.C,R4*
X147884447Y-92410761D02*
X147567780Y-91958380D01*
X147341590Y-92410761D02*
X147341590Y-91460761D01*
X147703495Y-91460761D01*
X147793971Y-91506000D01*
X147839209Y-91551238D01*
X147884447Y-91641714D01*
X147884447Y-91777428D01*
X147839209Y-91867904D01*
X147793971Y-91913142D01*
X147703495Y-91958380D01*
X147341590Y-91958380D01*
X148698733Y-91777428D02*
X148698733Y-92410761D01*
X148472542Y-91415523D02*
X148246352Y-92094095D01*
X148834447Y-92094095D01*
G04 #@! TO.C,R5*
X129077238Y-115626447D02*
X129529619Y-115309780D01*
X129077238Y-115083590D02*
X130027238Y-115083590D01*
X130027238Y-115445495D01*
X129982000Y-115535971D01*
X129936761Y-115581209D01*
X129846285Y-115626447D01*
X129710571Y-115626447D01*
X129620095Y-115581209D01*
X129574857Y-115535971D01*
X129529619Y-115445495D01*
X129529619Y-115083590D01*
X130027238Y-116485971D02*
X130027238Y-116033590D01*
X129574857Y-115988352D01*
X129620095Y-116033590D01*
X129665333Y-116124066D01*
X129665333Y-116350257D01*
X129620095Y-116440733D01*
X129574857Y-116485971D01*
X129484380Y-116531209D01*
X129258190Y-116531209D01*
X129167714Y-116485971D01*
X129122476Y-116440733D01*
X129077238Y-116350257D01*
X129077238Y-116124066D01*
X129122476Y-116033590D01*
X129167714Y-115988352D01*
G04 #@! TO.C,U1*
X133463836Y-87698024D02*
X132694788Y-87698024D01*
X132604312Y-87743262D01*
X132559074Y-87788500D01*
X132513836Y-87878976D01*
X132513836Y-88059929D01*
X132559074Y-88150405D01*
X132604312Y-88195643D01*
X132694788Y-88240881D01*
X133463836Y-88240881D01*
X132513836Y-89190881D02*
X132513836Y-88648024D01*
X132513836Y-88919453D02*
X133463836Y-88919453D01*
X133328121Y-88828976D01*
X133237645Y-88738500D01*
X133192407Y-88648024D01*
G04 #@! TO.C,J4*
X170421761Y-113666300D02*
X171100333Y-113666300D01*
X171236047Y-113711538D01*
X171326523Y-113802014D01*
X171371761Y-113937729D01*
X171371761Y-114028205D01*
X170738428Y-112806776D02*
X171371761Y-112806776D01*
X170376523Y-113032967D02*
X171055095Y-113259157D01*
X171055095Y-112671062D01*
G04 #@! TO.C,C2*
X135262885Y-113082285D02*
X135217647Y-113127523D01*
X135081933Y-113172761D01*
X134991457Y-113172761D01*
X134855742Y-113127523D01*
X134765266Y-113037047D01*
X134720028Y-112946571D01*
X134674790Y-112765619D01*
X134674790Y-112629904D01*
X134720028Y-112448952D01*
X134765266Y-112358476D01*
X134855742Y-112268000D01*
X134991457Y-112222761D01*
X135081933Y-112222761D01*
X135217647Y-112268000D01*
X135262885Y-112313238D01*
X135624790Y-112313238D02*
X135670028Y-112268000D01*
X135760504Y-112222761D01*
X135986695Y-112222761D01*
X136077171Y-112268000D01*
X136122409Y-112313238D01*
X136167647Y-112403714D01*
X136167647Y-112494190D01*
X136122409Y-112629904D01*
X135579552Y-113172761D01*
X136167647Y-113172761D01*
G04 #@! TO.C,C3*
X120956285Y-105021114D02*
X121001523Y-105066352D01*
X121046761Y-105202066D01*
X121046761Y-105292542D01*
X121001523Y-105428257D01*
X120911047Y-105518733D01*
X120820571Y-105563971D01*
X120639619Y-105609209D01*
X120503904Y-105609209D01*
X120322952Y-105563971D01*
X120232476Y-105518733D01*
X120142000Y-105428257D01*
X120096761Y-105292542D01*
X120096761Y-105202066D01*
X120142000Y-105066352D01*
X120187238Y-105021114D01*
X120096761Y-104704447D02*
X120096761Y-104116352D01*
X120458666Y-104433019D01*
X120458666Y-104297304D01*
X120503904Y-104206828D01*
X120549142Y-104161590D01*
X120639619Y-104116352D01*
X120865809Y-104116352D01*
X120956285Y-104161590D01*
X121001523Y-104206828D01*
X121046761Y-104297304D01*
X121046761Y-104568733D01*
X121001523Y-104659209D01*
X120956285Y-104704447D01*
G04 #@! TO.C,Q1*
X137601333Y-105285333D02*
X137534666Y-105252000D01*
X137468000Y-105185333D01*
X137368000Y-105085333D01*
X137301333Y-105052000D01*
X137234666Y-105052000D01*
X137268000Y-105218666D02*
X137201333Y-105185333D01*
X137134666Y-105118666D01*
X137101333Y-104985333D01*
X137101333Y-104752000D01*
X137134666Y-104618666D01*
X137201333Y-104552000D01*
X137268000Y-104518666D01*
X137401333Y-104518666D01*
X137468000Y-104552000D01*
X137534666Y-104618666D01*
X137568000Y-104752000D01*
X137568000Y-104985333D01*
X137534666Y-105118666D01*
X137468000Y-105185333D01*
X137401333Y-105218666D01*
X137268000Y-105218666D01*
X138234666Y-105218666D02*
X137834666Y-105218666D01*
X138034666Y-105218666D02*
X138034666Y-104518666D01*
X137968000Y-104618666D01*
X137901333Y-104685333D01*
X137834666Y-104718666D01*
G04 #@! TO.C,C5*
X122054885Y-90222285D02*
X122009647Y-90267523D01*
X121873933Y-90312761D01*
X121783457Y-90312761D01*
X121647742Y-90267523D01*
X121557266Y-90177047D01*
X121512028Y-90086571D01*
X121466790Y-89905619D01*
X121466790Y-89769904D01*
X121512028Y-89588952D01*
X121557266Y-89498476D01*
X121647742Y-89408000D01*
X121783457Y-89362761D01*
X121873933Y-89362761D01*
X122009647Y-89408000D01*
X122054885Y-89453238D01*
X122914409Y-89362761D02*
X122462028Y-89362761D01*
X122416790Y-89815142D01*
X122462028Y-89769904D01*
X122552504Y-89724666D01*
X122778695Y-89724666D01*
X122869171Y-89769904D01*
X122914409Y-89815142D01*
X122959647Y-89905619D01*
X122959647Y-90131809D01*
X122914409Y-90222285D01*
X122869171Y-90267523D01*
X122778695Y-90312761D01*
X122552504Y-90312761D01*
X122462028Y-90267523D01*
X122416790Y-90222285D01*
G04 #@! TO.C,C4*
X122523483Y-109187248D02*
X122568721Y-109232486D01*
X122613959Y-109368200D01*
X122613959Y-109458676D01*
X122568721Y-109594391D01*
X122478245Y-109684867D01*
X122387769Y-109730105D01*
X122206817Y-109775343D01*
X122071102Y-109775343D01*
X121890150Y-109730105D01*
X121799674Y-109684867D01*
X121709198Y-109594391D01*
X121663959Y-109458676D01*
X121663959Y-109368200D01*
X121709198Y-109232486D01*
X121754436Y-109187248D01*
X121980626Y-108372962D02*
X122613959Y-108372962D01*
X121618721Y-108599153D02*
X122297293Y-108825343D01*
X122297293Y-108237248D01*
G04 #@! TO.C,C1*
X150502885Y-110288285D02*
X150457647Y-110333523D01*
X150321933Y-110378761D01*
X150231457Y-110378761D01*
X150095742Y-110333523D01*
X150005266Y-110243047D01*
X149960028Y-110152571D01*
X149914790Y-109971619D01*
X149914790Y-109835904D01*
X149960028Y-109654952D01*
X150005266Y-109564476D01*
X150095742Y-109474000D01*
X150231457Y-109428761D01*
X150321933Y-109428761D01*
X150457647Y-109474000D01*
X150502885Y-109519238D01*
X151407647Y-110378761D02*
X150864790Y-110378761D01*
X151136219Y-110378761D02*
X151136219Y-109428761D01*
X151045742Y-109564476D01*
X150955266Y-109654952D01*
X150864790Y-109700190D01*
G04 #@! TO.C,C7*
X130757714Y-100210885D02*
X130712476Y-100165647D01*
X130667238Y-100029933D01*
X130667238Y-99939457D01*
X130712476Y-99803742D01*
X130802952Y-99713266D01*
X130893428Y-99668028D01*
X131074380Y-99622790D01*
X131210095Y-99622790D01*
X131391047Y-99668028D01*
X131481523Y-99713266D01*
X131572000Y-99803742D01*
X131617238Y-99939457D01*
X131617238Y-100029933D01*
X131572000Y-100165647D01*
X131526761Y-100210885D01*
X131617238Y-100527552D02*
X131617238Y-101160885D01*
X130667238Y-100753742D01*
G04 #@! TO.C,C8*
X121359714Y-97670885D02*
X121314476Y-97625647D01*
X121269238Y-97489933D01*
X121269238Y-97399457D01*
X121314476Y-97263742D01*
X121404952Y-97173266D01*
X121495428Y-97128028D01*
X121676380Y-97082790D01*
X121812095Y-97082790D01*
X121993047Y-97128028D01*
X122083523Y-97173266D01*
X122174000Y-97263742D01*
X122219238Y-97399457D01*
X122219238Y-97489933D01*
X122174000Y-97625647D01*
X122128761Y-97670885D01*
X121812095Y-98213742D02*
X121857333Y-98123266D01*
X121902571Y-98078028D01*
X121993047Y-98032790D01*
X122038285Y-98032790D01*
X122128761Y-98078028D01*
X122174000Y-98123266D01*
X122219238Y-98213742D01*
X122219238Y-98394695D01*
X122174000Y-98485171D01*
X122128761Y-98530409D01*
X122038285Y-98575647D01*
X121993047Y-98575647D01*
X121902571Y-98530409D01*
X121857333Y-98485171D01*
X121812095Y-98394695D01*
X121812095Y-98213742D01*
X121766857Y-98123266D01*
X121721619Y-98078028D01*
X121631142Y-98032790D01*
X121450190Y-98032790D01*
X121359714Y-98078028D01*
X121314476Y-98123266D01*
X121269238Y-98213742D01*
X121269238Y-98394695D01*
X121314476Y-98485171D01*
X121359714Y-98530409D01*
X121450190Y-98575647D01*
X121631142Y-98575647D01*
X121721619Y-98530409D01*
X121766857Y-98485171D01*
X121812095Y-98394695D01*
G04 #@! TO.C,C9*
X148216885Y-89714285D02*
X148171647Y-89759523D01*
X148035933Y-89804761D01*
X147945457Y-89804761D01*
X147809742Y-89759523D01*
X147719266Y-89669047D01*
X147674028Y-89578571D01*
X147628790Y-89397619D01*
X147628790Y-89261904D01*
X147674028Y-89080952D01*
X147719266Y-88990476D01*
X147809742Y-88900000D01*
X147945457Y-88854761D01*
X148035933Y-88854761D01*
X148171647Y-88900000D01*
X148216885Y-88945238D01*
X148669266Y-89804761D02*
X148850219Y-89804761D01*
X148940695Y-89759523D01*
X148985933Y-89714285D01*
X149076409Y-89578571D01*
X149121647Y-89397619D01*
X149121647Y-89035714D01*
X149076409Y-88945238D01*
X149031171Y-88900000D01*
X148940695Y-88854761D01*
X148759742Y-88854761D01*
X148669266Y-88900000D01*
X148624028Y-88945238D01*
X148578790Y-89035714D01*
X148578790Y-89261904D01*
X148624028Y-89352380D01*
X148669266Y-89397619D01*
X148759742Y-89442857D01*
X148940695Y-89442857D01*
X149031171Y-89397619D01*
X149076409Y-89352380D01*
X149121647Y-89261904D01*
G04 #@! TO.C,C10*
X148537714Y-83812123D02*
X148492476Y-83766885D01*
X148447238Y-83631171D01*
X148447238Y-83540695D01*
X148492476Y-83404980D01*
X148582952Y-83314504D01*
X148673428Y-83269266D01*
X148854380Y-83224028D01*
X148990095Y-83224028D01*
X149171047Y-83269266D01*
X149261523Y-83314504D01*
X149352000Y-83404980D01*
X149397238Y-83540695D01*
X149397238Y-83631171D01*
X149352000Y-83766885D01*
X149306761Y-83812123D01*
X148447238Y-84716885D02*
X148447238Y-84174028D01*
X148447238Y-84445457D02*
X149397238Y-84445457D01*
X149261523Y-84354980D01*
X149171047Y-84264504D01*
X149125809Y-84174028D01*
X149397238Y-85304980D02*
X149397238Y-85395457D01*
X149352000Y-85485933D01*
X149306761Y-85531171D01*
X149216285Y-85576409D01*
X149035333Y-85621647D01*
X148809142Y-85621647D01*
X148628190Y-85576409D01*
X148537714Y-85531171D01*
X148492476Y-85485933D01*
X148447238Y-85395457D01*
X148447238Y-85304980D01*
X148492476Y-85214504D01*
X148537714Y-85169266D01*
X148628190Y-85124028D01*
X148809142Y-85078790D01*
X149035333Y-85078790D01*
X149216285Y-85124028D01*
X149306761Y-85169266D01*
X149352000Y-85214504D01*
X149397238Y-85304980D01*
G04 #@! TO.C,R1*
X151948447Y-106634761D02*
X151631780Y-106182380D01*
X151405590Y-106634761D02*
X151405590Y-105684761D01*
X151767495Y-105684761D01*
X151857971Y-105730000D01*
X151903209Y-105775238D01*
X151948447Y-105865714D01*
X151948447Y-106001428D01*
X151903209Y-106091904D01*
X151857971Y-106137142D01*
X151767495Y-106182380D01*
X151405590Y-106182380D01*
X152853209Y-106634761D02*
X152310352Y-106634761D01*
X152581780Y-106634761D02*
X152581780Y-105684761D01*
X152491304Y-105820476D01*
X152400828Y-105910952D01*
X152310352Y-105956190D01*
G04 #@! TO.C,R2*
X172511238Y-110038447D02*
X172963619Y-109721780D01*
X172511238Y-109495590D02*
X173461238Y-109495590D01*
X173461238Y-109857495D01*
X173416000Y-109947971D01*
X173370761Y-109993209D01*
X173280285Y-110038447D01*
X173144571Y-110038447D01*
X173054095Y-109993209D01*
X173008857Y-109947971D01*
X172963619Y-109857495D01*
X172963619Y-109495590D01*
X173370761Y-110400352D02*
X173416000Y-110445590D01*
X173461238Y-110536066D01*
X173461238Y-110762257D01*
X173416000Y-110852733D01*
X173370761Y-110897971D01*
X173280285Y-110943209D01*
X173189809Y-110943209D01*
X173054095Y-110897971D01*
X172511238Y-110355114D01*
X172511238Y-110943209D01*
G04 #@! TO.C,C11*
X137406123Y-100382285D02*
X137360885Y-100427523D01*
X137225171Y-100472761D01*
X137134695Y-100472761D01*
X136998980Y-100427523D01*
X136908504Y-100337047D01*
X136863266Y-100246571D01*
X136818028Y-100065619D01*
X136818028Y-99929904D01*
X136863266Y-99748952D01*
X136908504Y-99658476D01*
X136998980Y-99568000D01*
X137134695Y-99522761D01*
X137225171Y-99522761D01*
X137360885Y-99568000D01*
X137406123Y-99613238D01*
X138310885Y-100472761D02*
X137768028Y-100472761D01*
X138039457Y-100472761D02*
X138039457Y-99522761D01*
X137948980Y-99658476D01*
X137858504Y-99748952D01*
X137768028Y-99794190D01*
X139215647Y-100472761D02*
X138672790Y-100472761D01*
X138944219Y-100472761D02*
X138944219Y-99522761D01*
X138853742Y-99658476D01*
X138763266Y-99748952D01*
X138672790Y-99794190D01*
G04 #@! TO.C,C12*
X137622041Y-110004339D02*
X137576803Y-110049577D01*
X137441089Y-110094815D01*
X137350613Y-110094815D01*
X137214898Y-110049577D01*
X137124422Y-109959101D01*
X137079184Y-109868625D01*
X137033946Y-109687673D01*
X137033946Y-109551958D01*
X137079184Y-109371006D01*
X137124422Y-109280530D01*
X137214898Y-109190054D01*
X137350613Y-109144815D01*
X137441089Y-109144815D01*
X137576803Y-109190054D01*
X137622041Y-109235292D01*
X138526803Y-110094815D02*
X137983946Y-110094815D01*
X138255375Y-110094815D02*
X138255375Y-109144815D01*
X138164898Y-109280530D01*
X138074422Y-109371006D01*
X137983946Y-109416244D01*
X138888708Y-109235292D02*
X138933946Y-109190054D01*
X139024422Y-109144815D01*
X139250613Y-109144815D01*
X139341089Y-109190054D01*
X139386327Y-109235292D01*
X139431565Y-109325768D01*
X139431565Y-109416244D01*
X139386327Y-109551958D01*
X138843470Y-110094815D01*
X139431565Y-110094815D01*
G04 #@! TO.C,R9*
X145090447Y-83774761D02*
X144773780Y-83322380D01*
X144547590Y-83774761D02*
X144547590Y-82824761D01*
X144909495Y-82824761D01*
X144999971Y-82870000D01*
X145045209Y-82915238D01*
X145090447Y-83005714D01*
X145090447Y-83141428D01*
X145045209Y-83231904D01*
X144999971Y-83277142D01*
X144909495Y-83322380D01*
X144547590Y-83322380D01*
X145542828Y-83774761D02*
X145723780Y-83774761D01*
X145814257Y-83729523D01*
X145859495Y-83684285D01*
X145949971Y-83548571D01*
X145995209Y-83367619D01*
X145995209Y-83005714D01*
X145949971Y-82915238D01*
X145904733Y-82870000D01*
X145814257Y-82824761D01*
X145633304Y-82824761D01*
X145542828Y-82870000D01*
X145497590Y-82915238D01*
X145452352Y-83005714D01*
X145452352Y-83231904D01*
X145497590Y-83322380D01*
X145542828Y-83367619D01*
X145633304Y-83412857D01*
X145814257Y-83412857D01*
X145904733Y-83367619D01*
X145949971Y-83322380D01*
X145995209Y-83231904D01*
G04 #@! TO.C,R10*
X152202447Y-122128761D02*
X151885780Y-121676380D01*
X151659590Y-122128761D02*
X151659590Y-121178761D01*
X152021495Y-121178761D01*
X152111971Y-121224000D01*
X152157209Y-121269238D01*
X152202447Y-121359714D01*
X152202447Y-121495428D01*
X152157209Y-121585904D01*
X152111971Y-121631142D01*
X152021495Y-121676380D01*
X151659590Y-121676380D01*
X153107209Y-122128761D02*
X152564352Y-122128761D01*
X152835780Y-122128761D02*
X152835780Y-121178761D01*
X152745304Y-121314476D01*
X152654828Y-121404952D01*
X152564352Y-121450190D01*
X153695304Y-121178761D02*
X153785780Y-121178761D01*
X153876257Y-121224000D01*
X153921495Y-121269238D01*
X153966733Y-121359714D01*
X154011971Y-121540666D01*
X154011971Y-121766857D01*
X153966733Y-121947809D01*
X153921495Y-122038285D01*
X153876257Y-122083523D01*
X153785780Y-122128761D01*
X153695304Y-122128761D01*
X153604828Y-122083523D01*
X153559590Y-122038285D01*
X153514352Y-121947809D01*
X153469114Y-121766857D01*
X153469114Y-121540666D01*
X153514352Y-121359714D01*
X153559590Y-121269238D01*
X153604828Y-121224000D01*
X153695304Y-121178761D01*
G04 #@! TO.C,R12*
X158552447Y-122167395D02*
X158235780Y-121715014D01*
X158009590Y-122167395D02*
X158009590Y-121217395D01*
X158371495Y-121217395D01*
X158461971Y-121262634D01*
X158507209Y-121307872D01*
X158552447Y-121398348D01*
X158552447Y-121534062D01*
X158507209Y-121624538D01*
X158461971Y-121669776D01*
X158371495Y-121715014D01*
X158009590Y-121715014D01*
X159457209Y-122167395D02*
X158914352Y-122167395D01*
X159185780Y-122167395D02*
X159185780Y-121217395D01*
X159095304Y-121353110D01*
X159004828Y-121443586D01*
X158914352Y-121488824D01*
X159819114Y-121307872D02*
X159864352Y-121262634D01*
X159954828Y-121217395D01*
X160181019Y-121217395D01*
X160271495Y-121262634D01*
X160316733Y-121307872D01*
X160361971Y-121398348D01*
X160361971Y-121488824D01*
X160316733Y-121624538D01*
X159773876Y-122167395D01*
X160361971Y-122167395D01*
G04 #@! TO.C,R13*
X147622759Y-123108686D02*
X147170378Y-123425353D01*
X147622759Y-123651543D02*
X146672759Y-123651543D01*
X146672759Y-123289638D01*
X146717998Y-123199162D01*
X146763236Y-123153924D01*
X146853712Y-123108686D01*
X146989426Y-123108686D01*
X147079902Y-123153924D01*
X147125140Y-123199162D01*
X147170378Y-123289638D01*
X147170378Y-123651543D01*
X147622759Y-122203924D02*
X147622759Y-122746781D01*
X147622759Y-122475353D02*
X146672759Y-122475353D01*
X146808474Y-122565829D01*
X146898950Y-122656305D01*
X146944188Y-122746781D01*
X146672759Y-121887257D02*
X146672759Y-121299162D01*
X147034664Y-121615829D01*
X147034664Y-121480114D01*
X147079902Y-121389638D01*
X147125140Y-121344400D01*
X147215617Y-121299162D01*
X147441807Y-121299162D01*
X147532283Y-121344400D01*
X147577521Y-121389638D01*
X147622759Y-121480114D01*
X147622759Y-121751543D01*
X147577521Y-121842019D01*
X147532283Y-121887257D01*
G04 #@! TO.C,R14*
X143103136Y-122091281D02*
X143555517Y-121774614D01*
X143103136Y-121548424D02*
X144053136Y-121548424D01*
X144053136Y-121910329D01*
X144007898Y-122000805D01*
X143962659Y-122046043D01*
X143872183Y-122091281D01*
X143736469Y-122091281D01*
X143645993Y-122046043D01*
X143600755Y-122000805D01*
X143555517Y-121910329D01*
X143555517Y-121548424D01*
X143103136Y-122996043D02*
X143103136Y-122453186D01*
X143103136Y-122724614D02*
X144053136Y-122724614D01*
X143917421Y-122634138D01*
X143826945Y-122543662D01*
X143781707Y-122453186D01*
X143736469Y-123810329D02*
X143103136Y-123810329D01*
X144098374Y-123584138D02*
X143419802Y-123357948D01*
X143419802Y-123946043D01*
G04 #@! TO.C,R16*
X124505238Y-118674447D02*
X124957619Y-118357780D01*
X124505238Y-118131590D02*
X125455238Y-118131590D01*
X125455238Y-118493495D01*
X125410000Y-118583971D01*
X125364761Y-118629209D01*
X125274285Y-118674447D01*
X125138571Y-118674447D01*
X125048095Y-118629209D01*
X125002857Y-118583971D01*
X124957619Y-118493495D01*
X124957619Y-118131590D01*
X124505238Y-119579209D02*
X124505238Y-119036352D01*
X124505238Y-119307780D02*
X125455238Y-119307780D01*
X125319523Y-119217304D01*
X125229047Y-119126828D01*
X125183809Y-119036352D01*
X125455238Y-120393495D02*
X125455238Y-120212542D01*
X125410000Y-120122066D01*
X125364761Y-120076828D01*
X125229047Y-119986352D01*
X125048095Y-119941114D01*
X124686190Y-119941114D01*
X124595714Y-119986352D01*
X124550476Y-120031590D01*
X124505238Y-120122066D01*
X124505238Y-120303019D01*
X124550476Y-120393495D01*
X124595714Y-120438733D01*
X124686190Y-120483971D01*
X124912380Y-120483971D01*
X125002857Y-120438733D01*
X125048095Y-120393495D01*
X125093333Y-120303019D01*
X125093333Y-120122066D01*
X125048095Y-120031590D01*
X125002857Y-119986352D01*
X124912380Y-119941114D01*
G04 #@! TO.C,R17*
X118663238Y-118674447D02*
X119115619Y-118357780D01*
X118663238Y-118131590D02*
X119613238Y-118131590D01*
X119613238Y-118493495D01*
X119568000Y-118583971D01*
X119522761Y-118629209D01*
X119432285Y-118674447D01*
X119296571Y-118674447D01*
X119206095Y-118629209D01*
X119160857Y-118583971D01*
X119115619Y-118493495D01*
X119115619Y-118131590D01*
X118663238Y-119579209D02*
X118663238Y-119036352D01*
X118663238Y-119307780D02*
X119613238Y-119307780D01*
X119477523Y-119217304D01*
X119387047Y-119126828D01*
X119341809Y-119036352D01*
X119613238Y-119895876D02*
X119613238Y-120529209D01*
X118663238Y-120122066D01*
G04 #@! TO.C,R18*
X120695238Y-100640447D02*
X121147619Y-100323780D01*
X120695238Y-100097590D02*
X121645238Y-100097590D01*
X121645238Y-100459495D01*
X121600000Y-100549971D01*
X121554761Y-100595209D01*
X121464285Y-100640447D01*
X121328571Y-100640447D01*
X121238095Y-100595209D01*
X121192857Y-100549971D01*
X121147619Y-100459495D01*
X121147619Y-100097590D01*
X120695238Y-101545209D02*
X120695238Y-101002352D01*
X120695238Y-101273780D02*
X121645238Y-101273780D01*
X121509523Y-101183304D01*
X121419047Y-101092828D01*
X121373809Y-101002352D01*
X121238095Y-102088066D02*
X121283333Y-101997590D01*
X121328571Y-101952352D01*
X121419047Y-101907114D01*
X121464285Y-101907114D01*
X121554761Y-101952352D01*
X121600000Y-101997590D01*
X121645238Y-102088066D01*
X121645238Y-102269019D01*
X121600000Y-102359495D01*
X121554761Y-102404733D01*
X121464285Y-102449971D01*
X121419047Y-102449971D01*
X121328571Y-102404733D01*
X121283333Y-102359495D01*
X121238095Y-102269019D01*
X121238095Y-102088066D01*
X121192857Y-101997590D01*
X121147619Y-101952352D01*
X121057142Y-101907114D01*
X120876190Y-101907114D01*
X120785714Y-101952352D01*
X120740476Y-101997590D01*
X120695238Y-102088066D01*
X120695238Y-102269019D01*
X120740476Y-102359495D01*
X120785714Y-102404733D01*
X120876190Y-102449971D01*
X121057142Y-102449971D01*
X121147619Y-102404733D01*
X121192857Y-102359495D01*
X121238095Y-102269019D01*
G04 #@! TO.C,R3*
X159822447Y-111206761D02*
X159505780Y-110754380D01*
X159279590Y-111206761D02*
X159279590Y-110256761D01*
X159641495Y-110256761D01*
X159731971Y-110302000D01*
X159777209Y-110347238D01*
X159822447Y-110437714D01*
X159822447Y-110573428D01*
X159777209Y-110663904D01*
X159731971Y-110709142D01*
X159641495Y-110754380D01*
X159279590Y-110754380D01*
X160139114Y-110256761D02*
X160727209Y-110256761D01*
X160410542Y-110618666D01*
X160546257Y-110618666D01*
X160636733Y-110663904D01*
X160681971Y-110709142D01*
X160727209Y-110799619D01*
X160727209Y-111025809D01*
X160681971Y-111116285D01*
X160636733Y-111161523D01*
X160546257Y-111206761D01*
X160274828Y-111206761D01*
X160184352Y-111161523D01*
X160139114Y-111116285D01*
G04 #@! TD*
M02*
