G04 #@! TF.GenerationSoftware,KiCad,Pcbnew,(5.0.0)*
G04 #@! TF.CreationDate,2018-11-21T11:56:39+01:00*
G04 #@! TF.ProjectId,RRAT,525241542E6B696361645F7063620000,rev?*
G04 #@! TF.SameCoordinates,Original*
G04 #@! TF.FileFunction,Legend,Bot*
G04 #@! TF.FilePolarity,Positive*
%FSLAX46Y46*%
G04 Gerber Fmt 4.6, Leading zero omitted, Abs format (unit mm)*
G04 Created by KiCad (PCBNEW (5.0.0)) date 11/21/18 11:56:39*
%MOMM*%
%LPD*%
G01*
G04 APERTURE LIST*
%ADD10C,0.080000*%
%ADD11C,0.120000*%
%ADD12C,0.150000*%
G04 APERTURE END LIST*
D10*
X175753259Y-103423305D02*
X175753259Y-102970924D01*
X174803259Y-102970924D01*
X175753259Y-103739972D02*
X175119926Y-103739972D01*
X174803259Y-103739972D02*
X174848498Y-103694734D01*
X174893736Y-103739972D01*
X174848498Y-103785210D01*
X174803259Y-103739972D01*
X174893736Y-103739972D01*
X175708021Y-104599495D02*
X175753259Y-104509019D01*
X175753259Y-104328067D01*
X175708021Y-104237591D01*
X175662783Y-104192353D01*
X175572307Y-104147114D01*
X175300878Y-104147114D01*
X175210402Y-104192353D01*
X175165164Y-104237591D01*
X175119926Y-104328067D01*
X175119926Y-104509019D01*
X175165164Y-104599495D01*
X175708021Y-105368543D02*
X175753259Y-105278067D01*
X175753259Y-105097114D01*
X175708021Y-105006638D01*
X175617545Y-104961400D01*
X175255640Y-104961400D01*
X175165164Y-105006638D01*
X175119926Y-105097114D01*
X175119926Y-105278067D01*
X175165164Y-105368543D01*
X175255640Y-105413781D01*
X175346117Y-105413781D01*
X175436593Y-104961400D01*
X175119926Y-105820924D02*
X175753259Y-105820924D01*
X175210402Y-105820924D02*
X175165164Y-105866162D01*
X175119926Y-105956638D01*
X175119926Y-106092353D01*
X175165164Y-106182829D01*
X175255640Y-106228067D01*
X175753259Y-106228067D01*
X175708021Y-106635210D02*
X175753259Y-106725686D01*
X175753259Y-106906638D01*
X175708021Y-106997114D01*
X175617545Y-107042353D01*
X175572307Y-107042353D01*
X175481831Y-106997114D01*
X175436593Y-106906638D01*
X175436593Y-106770924D01*
X175391355Y-106680448D01*
X175300878Y-106635210D01*
X175255640Y-106635210D01*
X175165164Y-106680448D01*
X175119926Y-106770924D01*
X175119926Y-106906638D01*
X175165164Y-106997114D01*
X175708021Y-107811400D02*
X175753259Y-107720924D01*
X175753259Y-107539972D01*
X175708021Y-107449495D01*
X175617545Y-107404257D01*
X175255640Y-107404257D01*
X175165164Y-107449495D01*
X175119926Y-107539972D01*
X175119926Y-107720924D01*
X175165164Y-107811400D01*
X175255640Y-107856638D01*
X175346117Y-107856638D01*
X175436593Y-107404257D01*
X175662783Y-108263781D02*
X175708021Y-108309019D01*
X175753259Y-108263781D01*
X175708021Y-108218543D01*
X175662783Y-108263781D01*
X175753259Y-108263781D01*
X175165164Y-108263781D02*
X175210402Y-108309019D01*
X175255640Y-108263781D01*
X175210402Y-108218543D01*
X175165164Y-108263781D01*
X175255640Y-108263781D01*
X175753259Y-109439972D02*
X174803259Y-109439972D01*
X175753259Y-109847114D02*
X175255640Y-109847114D01*
X175165164Y-109801876D01*
X175119926Y-109711400D01*
X175119926Y-109575686D01*
X175165164Y-109485210D01*
X175210402Y-109439972D01*
X175119926Y-110163781D02*
X175119926Y-110525686D01*
X174803259Y-110299495D02*
X175617545Y-110299495D01*
X175708021Y-110344734D01*
X175753259Y-110435210D01*
X175753259Y-110525686D01*
X175119926Y-110706638D02*
X175119926Y-111068543D01*
X174803259Y-110842353D02*
X175617545Y-110842353D01*
X175708021Y-110887591D01*
X175753259Y-110978067D01*
X175753259Y-111068543D01*
X175119926Y-111385210D02*
X176069926Y-111385210D01*
X175165164Y-111385210D02*
X175119926Y-111475686D01*
X175119926Y-111656638D01*
X175165164Y-111747114D01*
X175210402Y-111792353D01*
X175300878Y-111837591D01*
X175572307Y-111837591D01*
X175662783Y-111792353D01*
X175708021Y-111747114D01*
X175753259Y-111656638D01*
X175753259Y-111475686D01*
X175708021Y-111385210D01*
X175662783Y-112244734D02*
X175708021Y-112289972D01*
X175753259Y-112244734D01*
X175708021Y-112199495D01*
X175662783Y-112244734D01*
X175753259Y-112244734D01*
X175165164Y-112244734D02*
X175210402Y-112289972D01*
X175255640Y-112244734D01*
X175210402Y-112199495D01*
X175165164Y-112244734D01*
X175255640Y-112244734D01*
X174758021Y-113375686D02*
X175979450Y-112561400D01*
X174758021Y-114370924D02*
X175979450Y-113556638D01*
X175119926Y-115094734D02*
X175888974Y-115094734D01*
X175979450Y-115049495D01*
X176024688Y-115004257D01*
X176069926Y-114913781D01*
X176069926Y-114778067D01*
X176024688Y-114687591D01*
X175708021Y-115094734D02*
X175753259Y-115004257D01*
X175753259Y-114823305D01*
X175708021Y-114732829D01*
X175662783Y-114687591D01*
X175572307Y-114642353D01*
X175300878Y-114642353D01*
X175210402Y-114687591D01*
X175165164Y-114732829D01*
X175119926Y-114823305D01*
X175119926Y-115004257D01*
X175165164Y-115094734D01*
X175753259Y-115682829D02*
X175708021Y-115592353D01*
X175662783Y-115547114D01*
X175572307Y-115501876D01*
X175300878Y-115501876D01*
X175210402Y-115547114D01*
X175165164Y-115592353D01*
X175119926Y-115682829D01*
X175119926Y-115818543D01*
X175165164Y-115909019D01*
X175210402Y-115954257D01*
X175300878Y-115999495D01*
X175572307Y-115999495D01*
X175662783Y-115954257D01*
X175708021Y-115909019D01*
X175753259Y-115818543D01*
X175753259Y-115682829D01*
X175753259Y-116542353D02*
X175708021Y-116451876D01*
X175662783Y-116406638D01*
X175572307Y-116361400D01*
X175300878Y-116361400D01*
X175210402Y-116406638D01*
X175165164Y-116451876D01*
X175119926Y-116542353D01*
X175119926Y-116678067D01*
X175165164Y-116768543D01*
X175210402Y-116813781D01*
X175300878Y-116859019D01*
X175572307Y-116859019D01*
X175662783Y-116813781D01*
X175708021Y-116768543D01*
X175753259Y-116678067D01*
X175753259Y-116542353D01*
X175662783Y-117266162D02*
X175708021Y-117311400D01*
X175753259Y-117266162D01*
X175708021Y-117220924D01*
X175662783Y-117266162D01*
X175753259Y-117266162D01*
X175119926Y-118125686D02*
X175888974Y-118125686D01*
X175979450Y-118080448D01*
X176024688Y-118035210D01*
X176069926Y-117944734D01*
X176069926Y-117809019D01*
X176024688Y-117718543D01*
X175708021Y-118125686D02*
X175753259Y-118035210D01*
X175753259Y-117854257D01*
X175708021Y-117763781D01*
X175662783Y-117718543D01*
X175572307Y-117673305D01*
X175300878Y-117673305D01*
X175210402Y-117718543D01*
X175165164Y-117763781D01*
X175119926Y-117854257D01*
X175119926Y-118035210D01*
X175165164Y-118125686D01*
X175753259Y-118713781D02*
X175708021Y-118623305D01*
X175617545Y-118578067D01*
X174803259Y-118578067D01*
X174758021Y-119754257D02*
X175979450Y-118939972D01*
X174803259Y-119980448D02*
X174803259Y-120568543D01*
X175165164Y-120251876D01*
X175165164Y-120387591D01*
X175210402Y-120478067D01*
X175255640Y-120523305D01*
X175346117Y-120568543D01*
X175572307Y-120568543D01*
X175662783Y-120523305D01*
X175708021Y-120478067D01*
X175753259Y-120387591D01*
X175753259Y-120116162D01*
X175708021Y-120025686D01*
X175662783Y-119980448D01*
X175753259Y-121382829D02*
X174803259Y-121382829D01*
X175708021Y-121382829D02*
X175753259Y-121292353D01*
X175753259Y-121111400D01*
X175708021Y-121020924D01*
X175662783Y-120975686D01*
X175572307Y-120930448D01*
X175300878Y-120930448D01*
X175210402Y-120975686D01*
X175165164Y-121020924D01*
X175119926Y-121111400D01*
X175119926Y-121292353D01*
X175165164Y-121382829D01*
X174803259Y-121744734D02*
X174803259Y-122378067D01*
X175753259Y-121970924D01*
X175753259Y-123237591D02*
X175753259Y-122694734D01*
X175753259Y-122966162D02*
X174803259Y-122966162D01*
X174938974Y-122875686D01*
X175029450Y-122785210D01*
X175074688Y-122694734D01*
X174803259Y-123644734D02*
X175572307Y-123644734D01*
X175662783Y-123689972D01*
X175708021Y-123735210D01*
X175753259Y-123825686D01*
X175753259Y-124006638D01*
X175708021Y-124097114D01*
X175662783Y-124142353D01*
X175572307Y-124187591D01*
X174803259Y-124187591D01*
X174803259Y-124911400D02*
X175481831Y-124911400D01*
X175617545Y-124866162D01*
X175708021Y-124775686D01*
X175753259Y-124639972D01*
X175753259Y-124549495D01*
D11*
G04 #@! TO.C,J3*
X119103598Y-129761634D02*
X119103598Y-124561634D01*
X167423598Y-129761634D02*
X119103598Y-129761634D01*
X170023598Y-124561634D02*
X119103598Y-124561634D01*
X167423598Y-129761634D02*
X167423598Y-127161634D01*
X167423598Y-127161634D02*
X170023598Y-127161634D01*
X170023598Y-127161634D02*
X170023598Y-124561634D01*
X168693598Y-129761634D02*
X170023598Y-129761634D01*
X170023598Y-129761634D02*
X170023598Y-128431634D01*
D12*
X170475978Y-126828300D02*
X171190264Y-126828300D01*
X171333121Y-126780681D01*
X171428359Y-126685443D01*
X171475978Y-126542586D01*
X171475978Y-126447348D01*
X170475978Y-127209253D02*
X170475978Y-127828300D01*
X170856931Y-127494967D01*
X170856931Y-127637824D01*
X170904550Y-127733062D01*
X170952169Y-127780681D01*
X171047407Y-127828300D01*
X171285502Y-127828300D01*
X171380740Y-127780681D01*
X171428359Y-127733062D01*
X171475978Y-127637824D01*
X171475978Y-127352110D01*
X171428359Y-127256872D01*
X171380740Y-127209253D01*
G04 #@! TD*
M02*
