G04 #@! TF.GenerationSoftware,KiCad,Pcbnew,(5.0.0)*
G04 #@! TF.CreationDate,2018-11-21T11:56:39+01:00*
G04 #@! TF.ProjectId,RRAT,525241542E6B696361645F7063620000,rev?*
G04 #@! TF.SameCoordinates,Original*
G04 #@! TF.FileFunction,Soldermask,Top*
G04 #@! TF.FilePolarity,Negative*
%FSLAX46Y46*%
G04 Gerber Fmt 4.6, Leading zero omitted, Abs format (unit mm)*
G04 Created by KiCad (PCBNEW (5.0.0)) date 11/21/18 11:56:39*
%MOMM*%
%LPD*%
G01*
G04 APERTURE LIST*
%ADD10C,0.150000*%
%ADD11C,6.200000*%
%ADD12R,1.101600X1.201600*%
%ADD13R,1.501600X1.701600*%
%ADD14R,0.660400X1.371600*%
%ADD15R,1.371600X0.660400*%
%ADD16R,1.371600X2.641600*%
%ADD17R,2.100000X2.100000*%
%ADD18O,2.100000X2.100000*%
%ADD19R,1.201600X1.101600*%
%ADD20R,2.101600X1.401600*%
%ADD21R,2.200000X1.400000*%
%ADD22C,0.800000*%
%ADD23C,0.100000*%
G04 APERTURE END LIST*
D10*
G04 #@! TO.C,JP1*
X160677878Y-109997774D02*
X160931878Y-109997774D01*
X160677878Y-108219774D02*
X160931878Y-108219774D01*
X160804878Y-109997774D02*
X160804878Y-108219774D01*
X161693878Y-109426274D02*
X161693878Y-108727774D01*
X161439878Y-108410274D02*
X161439878Y-109807274D01*
X161312878Y-109870774D02*
X161312878Y-108346774D01*
X161185878Y-108283274D02*
X161185878Y-109934274D01*
X161058878Y-109934274D02*
X161058878Y-108283274D01*
X160931878Y-108219774D02*
X160931878Y-109997774D01*
X160931878Y-109997774D02*
G75*
G03X161820878Y-109108774I0J889000D01*
G01*
X161820878Y-109108774D02*
G75*
G03X160931878Y-108219774I-889000J0D01*
G01*
X159915878Y-108727774D02*
X159915878Y-109489774D01*
X160169878Y-109807274D02*
X160169878Y-108410274D01*
X160296878Y-108346774D02*
X160296878Y-109870774D01*
X160423878Y-109934274D02*
X160423878Y-108283274D01*
X160550878Y-108283274D02*
X160550878Y-109934274D01*
X160677878Y-108219774D02*
X160677878Y-109997774D01*
X159788878Y-109108774D02*
G75*
G03X160677878Y-109997774I889000J0D01*
G01*
X160677878Y-108219774D02*
G75*
G03X159788878Y-109108774I0J-889000D01*
G01*
G04 #@! TD*
D11*
G04 #@! TO.C,*
X173563598Y-127161634D03*
G04 #@! TD*
G04 #@! TO.C,*
X173563598Y-78161634D03*
G04 #@! TD*
G04 #@! TO.C,*
X115563598Y-78161634D03*
G04 #@! TD*
G04 #@! TO.C,*
X115563598Y-127161634D03*
G04 #@! TD*
D12*
G04 #@! TO.C,R15*
X136238898Y-123508034D03*
X137938898Y-123508034D03*
G04 #@! TD*
D13*
G04 #@! TO.C,C6*
X117565998Y-95072734D03*
X120365998Y-95072734D03*
G04 #@! TD*
D14*
G04 #@! TO.C,IC1*
X132518998Y-111717134D03*
X131718998Y-111717134D03*
X130918998Y-111717134D03*
X130118998Y-111717134D03*
X129318998Y-111717134D03*
X128518998Y-111717134D03*
X127718998Y-111717134D03*
X126918998Y-111717134D03*
D15*
X125426398Y-110224534D03*
X125426398Y-109424534D03*
X125426398Y-108624534D03*
X125426398Y-107824534D03*
X125426398Y-107024534D03*
X125426398Y-106224534D03*
X125426398Y-105424534D03*
X125426398Y-104624534D03*
D14*
X126918998Y-103131934D03*
X127718998Y-103131934D03*
X128518998Y-103131934D03*
X129318998Y-103131934D03*
X130118998Y-103131934D03*
X130918998Y-103131934D03*
X131718998Y-103131934D03*
X132518998Y-103131934D03*
D15*
X134011598Y-104624534D03*
X134011598Y-105424534D03*
X134011598Y-106224534D03*
X134011598Y-107024534D03*
X134011598Y-107824534D03*
X134011598Y-108624534D03*
X134011598Y-109424534D03*
X134011598Y-110224534D03*
G04 #@! TD*
D16*
G04 #@! TO.C,ANT1*
X174617398Y-116232534D03*
G04 #@! TD*
D17*
G04 #@! TO.C,J3*
X168693598Y-128431634D03*
D18*
X168693598Y-125891634D03*
X166153598Y-128431634D03*
X166153598Y-125891634D03*
X163613598Y-128431634D03*
X163613598Y-125891634D03*
X161073598Y-128431634D03*
X161073598Y-125891634D03*
X158533598Y-128431634D03*
X158533598Y-125891634D03*
X155993598Y-128431634D03*
X155993598Y-125891634D03*
X153453598Y-128431634D03*
X153453598Y-125891634D03*
X150913598Y-128431634D03*
X150913598Y-125891634D03*
X148373598Y-128431634D03*
X148373598Y-125891634D03*
X145833598Y-128431634D03*
X145833598Y-125891634D03*
X143293598Y-128431634D03*
X143293598Y-125891634D03*
X140753598Y-128431634D03*
X140753598Y-125891634D03*
X138213598Y-128431634D03*
X138213598Y-125891634D03*
X135673598Y-128431634D03*
X135673598Y-125891634D03*
X133133598Y-128431634D03*
X133133598Y-125891634D03*
X130593598Y-128431634D03*
X130593598Y-125891634D03*
X128053598Y-128431634D03*
X128053598Y-125891634D03*
X125513598Y-128431634D03*
X125513598Y-125891634D03*
X122973598Y-128431634D03*
X122973598Y-125891634D03*
X120433598Y-128431634D03*
X120433598Y-125891634D03*
G04 #@! TD*
G04 #@! TO.C,J1*
X168440118Y-106462094D03*
X165900118Y-106462094D03*
X163360118Y-106462094D03*
X160820118Y-106462094D03*
X158280118Y-106462094D03*
D17*
X155740118Y-106462094D03*
G04 #@! TD*
D18*
G04 #@! TO.C,J2*
X143197598Y-101295734D03*
X145737598Y-101295734D03*
X143197598Y-103835734D03*
X145737598Y-103835734D03*
X143197598Y-106375734D03*
D17*
X145737598Y-106375734D03*
G04 #@! TD*
D12*
G04 #@! TO.C,R4*
X144491358Y-91892654D03*
X146191358Y-91892654D03*
G04 #@! TD*
D19*
G04 #@! TO.C,R5*
X131005598Y-114853134D03*
X131005598Y-116553134D03*
G04 #@! TD*
D20*
G04 #@! TO.C,U1*
X141692398Y-83286434D03*
X141692398Y-85286434D03*
X141692398Y-87286434D03*
X141692398Y-89286434D03*
X141692398Y-91286434D03*
X141692398Y-93286434D03*
X141692398Y-95286434D03*
X141692398Y-97286434D03*
X125692398Y-97286434D03*
X125692398Y-95286434D03*
X125692398Y-93286434D03*
X125692398Y-91286434D03*
X125692398Y-89286434D03*
X125692398Y-87286434D03*
X125692398Y-85286434D03*
X125692398Y-83286434D03*
G04 #@! TD*
D18*
G04 #@! TO.C,J4*
X168388798Y-113349634D03*
X165848798Y-113349634D03*
X163308798Y-113349634D03*
X160768798Y-113349634D03*
X158228798Y-113349634D03*
X155688798Y-113349634D03*
X153148798Y-113349634D03*
X150608798Y-113349634D03*
X148068798Y-113349634D03*
X145528798Y-113349634D03*
X142988798Y-113349634D03*
D17*
X140448798Y-113349634D03*
G04 #@! TD*
D19*
G04 #@! TO.C,C2*
X135794398Y-111303334D03*
X137494398Y-111303334D03*
G04 #@! TD*
D12*
G04 #@! TO.C,C3*
X122166398Y-103931134D03*
X122166398Y-105631134D03*
G04 #@! TD*
D21*
G04 #@! TO.C,Q1*
X137782318Y-106162694D03*
X137782318Y-103662694D03*
G04 #@! TD*
D19*
G04 #@! TO.C,C5*
X123371998Y-91262734D03*
X121671998Y-91262734D03*
G04 #@! TD*
D12*
G04 #@! TO.C,C4*
X123512598Y-108065734D03*
X123512598Y-109765734D03*
G04 #@! TD*
D19*
G04 #@! TO.C,C1*
X149886318Y-108621094D03*
X151586318Y-108621094D03*
G04 #@! TD*
D12*
G04 #@! TO.C,C7*
X129583198Y-99460734D03*
X129583198Y-101160734D03*
G04 #@! TD*
G04 #@! TO.C,C8*
X123334798Y-98671534D03*
X123334798Y-96971534D03*
G04 #@! TD*
D19*
G04 #@! TO.C,C9*
X144938398Y-89408534D03*
X146638398Y-89408534D03*
G04 #@! TD*
D12*
G04 #@! TO.C,C10*
X147520678Y-83605534D03*
X147520678Y-85305534D03*
G04 #@! TD*
G04 #@! TO.C,R1*
X151059798Y-104496134D03*
X152759798Y-104496134D03*
G04 #@! TD*
D19*
G04 #@! TO.C,R2*
X171244278Y-109142694D03*
X171244278Y-110842694D03*
G04 #@! TD*
G04 #@! TO.C,C11*
X137419998Y-101773254D03*
X139119998Y-101773254D03*
G04 #@! TD*
G04 #@! TO.C,C12*
X137526678Y-108224854D03*
X139226678Y-108224854D03*
G04 #@! TD*
D12*
G04 #@! TO.C,R9*
X144208518Y-85288654D03*
X145908518Y-85288654D03*
G04 #@! TD*
G04 #@! TO.C,R10*
X151897998Y-123012734D03*
X153597998Y-123012734D03*
G04 #@! TD*
G04 #@! TO.C,R12*
X155149198Y-121730034D03*
X156849198Y-121730034D03*
G04 #@! TD*
D19*
G04 #@! TO.C,R13*
X145737598Y-121756334D03*
X145737598Y-123456334D03*
G04 #@! TD*
G04 #@! TO.C,R14*
X142168898Y-121870634D03*
X142168898Y-123570634D03*
G04 #@! TD*
G04 #@! TO.C,R16*
X123499898Y-120103534D03*
X123499898Y-118403534D03*
G04 #@! TD*
G04 #@! TO.C,R17*
X120718598Y-120103534D03*
X120718598Y-118403534D03*
G04 #@! TD*
G04 #@! TO.C,R18*
X122623598Y-100433034D03*
X122623598Y-102133034D03*
G04 #@! TD*
D22*
G04 #@! TO.C,JP1*
X160304878Y-109108774D03*
D23*
G36*
X160704878Y-108440728D02*
X160704878Y-109776820D01*
X159904878Y-109643486D01*
X159904878Y-108574062D01*
X160704878Y-108440728D01*
X160704878Y-108440728D01*
G37*
D22*
X161304878Y-109108774D03*
D23*
G36*
X160904878Y-109776820D02*
X160904878Y-108440728D01*
X161704878Y-108574062D01*
X161704878Y-109643486D01*
X160904878Y-109776820D01*
X160904878Y-109776820D01*
G37*
G04 #@! TD*
D19*
G04 #@! TO.C,R3*
X158285198Y-108497534D03*
X158285198Y-110197534D03*
G04 #@! TD*
M02*
