G75*
%MOIN*%
%OFA0B0*%
%FSLAX25Y25*%
%IPPOS*%
%LPD*%
%AMOC8*
5,1,8,0,0,1.08239X$1,22.5*
%
%ADD10C,0.01600*%
%ADD11R,0.05512X0.06299*%
%ADD12R,0.04331X0.03937*%
%ADD13R,0.03937X0.04331*%
%ADD14R,0.02165X0.04724*%
%ADD15R,0.07480X0.05118*%
%ADD16OC8,0.08500*%
%ADD17OC8,0.06600*%
%ADD18C,0.07050*%
%ADD19OC8,0.06000*%
%ADD20R,0.02200X0.05000*%
%ADD21R,0.05000X0.02200*%
%ADD22R,0.01575X0.06732*%
%ADD23R,0.07874X0.05748*%
%ADD24R,0.05413X0.09843*%
%ADD25C,0.01040*%
%ADD26R,0.01121X0.02756*%
%ADD27R,0.05150X0.05150*%
%ADD28R,0.03150X0.03150*%
%ADD29R,0.05512X0.03937*%
%ADD30R,0.03937X0.05512*%
%ADD31C,0.07677*%
%ADD32C,0.00800*%
%ADD33C,0.03169*%
%ADD34C,0.05000*%
D10*
X0001800Y0005000D02*
X0349300Y0005000D01*
X0349300Y0225000D01*
X0001800Y0225000D01*
X0001800Y0005000D01*
X0046200Y0023000D02*
X0046800Y0022500D01*
X0047000Y0022600D01*
X0051800Y0027400D01*
X0058600Y0027400D01*
X0066200Y0035000D01*
X0076600Y0035000D01*
X0090600Y0049000D01*
X0090600Y0054600D01*
X0091000Y0055000D01*
X0099400Y0055000D01*
X0090600Y0054600D02*
X0087000Y0058200D01*
X0086800Y0058346D01*
X0112200Y0058248D02*
X0112200Y0034600D01*
X0108600Y0034600D01*
X0104200Y0030200D01*
X0104044Y0029961D01*
X0106613Y0025256D02*
X0098444Y0025256D01*
X0098444Y0015138D01*
X0098454Y0015156D01*
X0098454Y0008857D01*
X0102400Y0008839D01*
X0102400Y0014154D01*
X0106613Y0014154D01*
X0106613Y0025256D01*
X0106613Y0024182D02*
X0098444Y0024182D01*
X0098444Y0022584D02*
X0106613Y0022584D01*
X0106613Y0020985D02*
X0098444Y0020985D01*
X0098444Y0019387D02*
X0106613Y0019387D01*
X0106613Y0017788D02*
X0098444Y0017788D01*
X0098444Y0016190D02*
X0106613Y0016190D01*
X0106613Y0014591D02*
X0098454Y0014591D01*
X0098454Y0012993D02*
X0102400Y0012993D01*
X0102400Y0011394D02*
X0098454Y0011394D01*
X0098454Y0009796D02*
X0102400Y0009796D01*
X0124379Y0014154D02*
X0124379Y0025256D01*
X0132548Y0025256D01*
X0132548Y0015138D01*
X0132560Y0015116D01*
X0132560Y0008817D01*
X0128591Y0008839D01*
X0128591Y0014154D01*
X0124379Y0014154D01*
X0124379Y0014591D02*
X0132560Y0014591D01*
X0132560Y0012993D02*
X0128591Y0012993D01*
X0128591Y0011394D02*
X0132560Y0011394D01*
X0132560Y0009796D02*
X0128591Y0009796D01*
X0132548Y0016190D02*
X0124379Y0016190D01*
X0124379Y0017788D02*
X0132548Y0017788D01*
X0132548Y0019387D02*
X0124379Y0019387D01*
X0124379Y0020985D02*
X0132548Y0020985D01*
X0132548Y0022584D02*
X0124379Y0022584D01*
X0124379Y0024182D02*
X0132548Y0024182D01*
X0135000Y0024600D02*
X0135000Y0026200D01*
X0131000Y0030200D01*
X0127800Y0030200D01*
X0126879Y0029961D01*
X0126200Y0029800D01*
X0120600Y0029800D01*
X0120580Y0029449D01*
X0120600Y0030600D01*
X0120600Y0033400D01*
X0119400Y0034600D01*
X0112200Y0034600D01*
X0121800Y0045000D02*
X0128454Y0045000D01*
X0128454Y0042500D01*
X0127000Y0041800D01*
X0127000Y0030200D01*
X0126879Y0029961D01*
X0135000Y0024600D02*
X0148200Y0011400D01*
X0179800Y0011400D01*
X0191800Y0023400D01*
X0191800Y0025000D01*
X0171800Y0025000D02*
X0171800Y0031000D01*
X0145000Y0057800D01*
X0142200Y0057800D01*
X0141800Y0058346D01*
X0141800Y0058600D01*
X0138200Y0058600D01*
X0125000Y0071800D01*
X0117400Y0064200D01*
X0117400Y0062500D01*
X0112200Y0058248D02*
X0112200Y0093000D01*
X0131000Y0111800D01*
X0131000Y0129400D01*
X0131251Y0129552D01*
X0137944Y0129552D02*
X0138200Y0129400D01*
X0143400Y0129400D01*
X0146600Y0126200D01*
X0153000Y0126200D01*
X0155000Y0128200D01*
X0157800Y0128200D01*
X0165400Y0126200D02*
X0165400Y0123400D01*
X0165225Y0123100D01*
X0168200Y0123000D02*
X0168375Y0123100D01*
X0168200Y0123000D02*
X0168200Y0120200D01*
X0167800Y0119800D01*
X0167800Y0118200D01*
X0173800Y0119400D02*
X0173800Y0116200D01*
X0173800Y0119400D02*
X0174600Y0120200D01*
X0174600Y0122600D01*
X0174674Y0123100D01*
X0174600Y0123400D01*
X0174600Y0128200D01*
X0171000Y0131800D02*
X0165400Y0126200D01*
X0163400Y0145000D02*
X0163400Y0152600D01*
X0167000Y0152600D01*
X0168200Y0153800D01*
X0168200Y0156600D01*
X0168375Y0156900D01*
X0165400Y0157000D02*
X0165400Y0159800D01*
X0166600Y0161000D01*
X0170200Y0161000D01*
X0171400Y0159800D01*
X0171400Y0157000D01*
X0171524Y0156900D01*
X0171400Y0156200D01*
X0171400Y0153400D01*
X0166600Y0148600D01*
X0163400Y0152600D02*
X0162200Y0153800D01*
X0162200Y0156600D01*
X0162076Y0156900D01*
X0165225Y0156900D02*
X0165400Y0157000D01*
X0152200Y0159400D02*
X0138600Y0159400D01*
X0138600Y0150600D01*
X0138269Y0150262D01*
X0131800Y0150600D02*
X0131576Y0150262D01*
X0131000Y0149800D01*
X0079400Y0098200D01*
X0079400Y0096200D01*
X0078454Y0095000D01*
X0078600Y0093800D01*
X0078600Y0081400D01*
X0078200Y0081000D01*
X0057400Y0081000D01*
X0033800Y0057400D01*
X0033800Y0052600D01*
X0053800Y0032600D01*
X0056600Y0032600D01*
X0056800Y0032500D01*
X0046200Y0023000D02*
X0014600Y0054600D01*
X0009400Y0054600D01*
X0009300Y0054921D01*
X0078600Y0081400D02*
X0081000Y0079000D01*
X0081131Y0078740D01*
X0078572Y0094567D02*
X0078454Y0095000D01*
X0079064Y0095551D01*
X0125000Y0075000D02*
X0125000Y0071800D01*
X0125000Y0075000D02*
X0125146Y0075000D01*
X0177000Y0059000D02*
X0180600Y0059000D01*
X0180600Y0054600D01*
X0180540Y0054331D01*
X0180600Y0059000D02*
X0180600Y0094200D01*
X0195400Y0109000D01*
X0195400Y0130600D01*
X0200600Y0135800D01*
X0199400Y0124600D02*
X0215400Y0140600D01*
X0247800Y0140600D01*
X0251400Y0137000D01*
X0251000Y0136600D01*
X0251400Y0137000D02*
X0255000Y0133400D01*
X0259000Y0133400D01*
X0259226Y0133183D01*
X0262200Y0129400D02*
X0235000Y0129400D01*
X0229000Y0135400D01*
X0228572Y0136063D01*
X0228200Y0135800D01*
X0217000Y0124600D01*
X0206200Y0124600D01*
X0206069Y0124552D01*
X0199800Y0124200D02*
X0199376Y0124552D01*
X0199400Y0124600D01*
X0199800Y0124200D02*
X0232600Y0091400D01*
X0291400Y0091400D01*
X0291800Y0090846D01*
X0291800Y0091000D01*
X0307000Y0091000D01*
X0313000Y0097000D01*
X0313332Y0097154D01*
X0313800Y0096600D01*
X0315400Y0096600D01*
X0321400Y0090600D01*
X0321400Y0087400D01*
X0320600Y0086600D01*
X0320415Y0085946D01*
X0320600Y0085800D01*
X0320600Y0077800D01*
X0320381Y0077321D01*
X0320200Y0077000D01*
X0308600Y0065400D01*
X0308600Y0022600D01*
X0308454Y0022500D01*
X0335800Y0022600D02*
X0339000Y0019400D01*
X0339250Y0019016D01*
X0335800Y0022600D02*
X0335800Y0147800D01*
X0329000Y0154600D01*
X0325400Y0154600D01*
X0322200Y0157800D01*
X0322200Y0161400D01*
X0319000Y0164600D01*
X0315400Y0164600D01*
X0306200Y0173800D01*
X0225400Y0173800D01*
X0230200Y0165400D02*
X0228600Y0163800D01*
X0228572Y0163622D01*
X0230200Y0165400D02*
X0262600Y0165400D01*
X0265800Y0162200D01*
X0266161Y0161705D01*
X0266200Y0161400D01*
X0266200Y0153000D01*
X0266600Y0152600D01*
X0266742Y0152547D01*
X0266600Y0151800D01*
X0266600Y0150200D01*
X0264600Y0148200D01*
X0261400Y0148200D01*
X0259400Y0150200D01*
X0259400Y0152200D01*
X0259262Y0152547D01*
X0263000Y0152600D02*
X0263000Y0154600D01*
X0259800Y0157800D01*
X0259400Y0157400D01*
X0250600Y0157400D01*
X0238600Y0145400D01*
X0255000Y0140600D02*
X0256600Y0142200D01*
X0259000Y0142200D01*
X0259262Y0142310D01*
X0265919Y0133183D02*
X0266600Y0133000D01*
X0285800Y0133000D01*
X0321400Y0097400D01*
X0323800Y0097400D01*
X0324356Y0097154D01*
X0324600Y0097000D01*
X0324600Y0088600D01*
X0326600Y0086600D01*
X0327108Y0085946D01*
X0327000Y0085800D01*
X0327000Y0077400D01*
X0327073Y0077321D01*
X0265800Y0133000D02*
X0262200Y0129400D01*
X0265800Y0133000D02*
X0265919Y0133183D01*
X0263002Y0152547D02*
X0263000Y0152600D01*
X0259800Y0157800D02*
X0259800Y0161400D01*
X0259468Y0161705D01*
X0196600Y0155400D02*
X0196600Y0154600D01*
X0187000Y0145000D01*
X0183800Y0145000D01*
X0183700Y0144724D01*
X0142600Y0169000D02*
X0142717Y0169366D01*
X0142600Y0169000D02*
X0138600Y0165000D01*
X0138600Y0159400D01*
X0131800Y0150600D02*
X0131800Y0211000D01*
X0135800Y0215000D01*
X0128276Y0042894D02*
X0128454Y0042500D01*
X0127292Y0042402D01*
D11*
X0313332Y0097154D03*
X0324356Y0097154D03*
D12*
X0327108Y0085946D03*
X0320415Y0085946D03*
X0320381Y0077321D03*
X0327073Y0077321D03*
X0291800Y0084154D03*
X0291800Y0090846D03*
X0265919Y0133183D03*
X0259226Y0133183D03*
X0259468Y0161705D03*
X0266161Y0161705D03*
X0295954Y0190000D03*
X0302646Y0190000D03*
X0221800Y0186654D03*
X0221800Y0193346D03*
X0206800Y0193346D03*
X0206800Y0186654D03*
X0194300Y0186654D03*
X0194300Y0193346D03*
X0138269Y0150262D03*
X0131576Y0150262D03*
X0131251Y0129552D03*
X0137944Y0129552D03*
X0199376Y0124552D03*
X0206069Y0124552D03*
X0171800Y0073346D03*
X0171800Y0066654D03*
X0141800Y0058346D03*
X0141800Y0051654D03*
X0096800Y0071654D03*
X0096800Y0078346D03*
X0086800Y0058346D03*
X0086800Y0051654D03*
D13*
X0118454Y0075000D03*
X0125146Y0075000D03*
X0085146Y0095000D03*
X0078454Y0095000D03*
X0128454Y0042500D03*
X0135146Y0042500D03*
X0296690Y0130435D03*
X0303383Y0130435D03*
X0302646Y0142500D03*
X0295954Y0142500D03*
X0295954Y0170000D03*
X0302646Y0170000D03*
X0319799Y0212375D03*
X0326492Y0212375D03*
X0149410Y0169366D03*
X0142717Y0169366D03*
X0308454Y0022500D03*
X0315146Y0022500D03*
D14*
X0266742Y0142310D03*
X0259262Y0142310D03*
X0259262Y0152547D03*
X0263002Y0152547D03*
X0266742Y0152547D03*
D15*
X0181550Y0169488D03*
X0168952Y0169488D03*
X0168952Y0191141D03*
X0181550Y0191141D03*
D16*
X0301800Y0215000D03*
X0341800Y0050000D03*
D17*
X0281800Y0025000D03*
X0271800Y0025000D03*
X0261800Y0025000D03*
X0251800Y0025000D03*
X0241800Y0025000D03*
X0231800Y0025000D03*
X0211800Y0025000D03*
X0201800Y0025000D03*
X0191800Y0025000D03*
X0181800Y0025000D03*
X0171800Y0025000D03*
X0161800Y0025000D03*
X0151800Y0025000D03*
X0141800Y0025000D03*
X0145800Y0215000D03*
X0155800Y0215000D03*
X0165800Y0215000D03*
X0175800Y0215000D03*
X0185800Y0215000D03*
X0195800Y0215000D03*
X0211800Y0215000D03*
X0221800Y0215000D03*
X0231800Y0215000D03*
X0241800Y0215000D03*
X0251800Y0215000D03*
X0261800Y0215000D03*
X0271800Y0215000D03*
X0281800Y0215000D03*
X0135800Y0215000D03*
X0125800Y0215000D03*
X0115800Y0215000D03*
X0105800Y0215000D03*
D18*
X0035325Y0205236D02*
X0028275Y0205236D01*
X0028275Y0185551D02*
X0035325Y0185551D01*
X0035325Y0159843D02*
X0028275Y0159843D01*
X0028275Y0140157D02*
X0035325Y0140157D01*
D19*
X0046800Y0032500D03*
X0056800Y0032500D03*
X0056800Y0022500D03*
X0046800Y0022500D03*
X0046800Y0012500D03*
X0056800Y0012500D03*
X0316800Y0130000D03*
X0326800Y0130000D03*
X0326800Y0140000D03*
X0316800Y0140000D03*
X0316800Y0150000D03*
X0326800Y0150000D03*
X0326800Y0160000D03*
X0316800Y0160000D03*
X0316800Y0170000D03*
X0326800Y0170000D03*
X0326800Y0180000D03*
X0316800Y0180000D03*
X0316800Y0190000D03*
X0326800Y0190000D03*
D20*
X0177824Y0156900D03*
X0174674Y0156900D03*
X0171524Y0156900D03*
X0168375Y0156900D03*
X0165225Y0156900D03*
X0162076Y0156900D03*
X0158926Y0156900D03*
X0155776Y0156900D03*
X0155776Y0123100D03*
X0158926Y0123100D03*
X0162076Y0123100D03*
X0165225Y0123100D03*
X0168375Y0123100D03*
X0171524Y0123100D03*
X0174674Y0123100D03*
X0177824Y0123100D03*
D21*
X0183700Y0128976D03*
X0183700Y0132126D03*
X0183700Y0135276D03*
X0183700Y0138425D03*
X0183700Y0141575D03*
X0183700Y0144724D03*
X0183700Y0147874D03*
X0183700Y0151024D03*
X0149900Y0151024D03*
X0149900Y0147874D03*
X0149900Y0144724D03*
X0149900Y0141575D03*
X0149900Y0138425D03*
X0149900Y0135276D03*
X0149900Y0132126D03*
X0149900Y0128976D03*
D22*
X0120580Y0029449D03*
X0118020Y0029449D03*
X0115461Y0029449D03*
X0112902Y0029449D03*
X0110343Y0029449D03*
D23*
X0104044Y0029961D03*
X0126879Y0029961D03*
D24*
X0119152Y0013583D03*
X0111770Y0013583D03*
D25*
X0329691Y0017457D02*
X0330211Y0016937D01*
X0328489Y0016937D01*
X0327271Y0018155D01*
X0327271Y0019877D01*
X0328489Y0021095D01*
X0330211Y0021095D01*
X0331429Y0019877D01*
X0331429Y0018155D01*
X0330211Y0016937D01*
X0329888Y0017717D01*
X0328812Y0017717D01*
X0328051Y0018478D01*
X0328051Y0019554D01*
X0328812Y0020315D01*
X0329888Y0020315D01*
X0330649Y0019554D01*
X0330649Y0018478D01*
X0329888Y0017717D01*
X0329565Y0018497D01*
X0329135Y0018497D01*
X0328831Y0018801D01*
X0328831Y0019231D01*
X0329135Y0019535D01*
X0329565Y0019535D01*
X0329869Y0019231D01*
X0329869Y0018801D01*
X0329565Y0018497D01*
X0339591Y0017457D02*
X0340111Y0016937D01*
X0338389Y0016937D01*
X0337171Y0018155D01*
X0337171Y0019877D01*
X0338389Y0021095D01*
X0340111Y0021095D01*
X0341329Y0019877D01*
X0341329Y0018155D01*
X0340111Y0016937D01*
X0339788Y0017717D01*
X0338712Y0017717D01*
X0337951Y0018478D01*
X0337951Y0019554D01*
X0338712Y0020315D01*
X0339788Y0020315D01*
X0340549Y0019554D01*
X0340549Y0018478D01*
X0339788Y0017717D01*
X0339465Y0018497D01*
X0339035Y0018497D01*
X0338731Y0018801D01*
X0338731Y0019231D01*
X0339035Y0019535D01*
X0339465Y0019535D01*
X0339769Y0019231D01*
X0339769Y0018801D01*
X0339465Y0018497D01*
D26*
X0129133Y0051753D03*
X0128059Y0051753D03*
X0126975Y0051753D03*
X0125910Y0051751D03*
X0124838Y0051751D03*
X0123769Y0051752D03*
X0121800Y0051752D03*
X0121800Y0049796D03*
X0121798Y0047921D03*
X0120733Y0047919D03*
X0119661Y0047919D03*
X0122882Y0047921D03*
X0123957Y0047921D03*
X0119831Y0051752D03*
X0118743Y0051752D03*
X0117668Y0051752D03*
X0116584Y0051752D03*
X0115519Y0051750D03*
X0114447Y0051750D03*
X0114488Y0058240D03*
X0115559Y0058240D03*
X0116624Y0058243D03*
X0117708Y0058243D03*
X0118783Y0058243D03*
X0119831Y0058248D03*
X0121800Y0058248D03*
X0123769Y0058248D03*
X0124827Y0058233D03*
X0125898Y0058233D03*
X0126964Y0058235D03*
X0128048Y0058235D03*
X0129122Y0058235D03*
X0123957Y0062076D03*
X0122882Y0062076D03*
X0121798Y0062076D03*
X0120733Y0062074D03*
X0119661Y0062074D03*
X0121798Y0060445D03*
D27*
X0075028Y0116378D03*
X0075028Y0163622D03*
X0228572Y0163622D03*
X0228572Y0136063D03*
D28*
X0069300Y0057953D03*
X0069300Y0052047D03*
D29*
X0081131Y0071260D03*
X0072469Y0075000D03*
X0081131Y0078740D03*
D30*
X0173060Y0054331D03*
X0180540Y0054331D03*
X0176800Y0045669D03*
D31*
X0039300Y0054921D03*
X0009300Y0054921D03*
X0009300Y0104921D03*
X0039300Y0114921D03*
D32*
X0085146Y0095000D02*
X0085400Y0094200D01*
X0085400Y0071400D01*
X0096600Y0071400D01*
X0096800Y0071654D01*
X0096800Y0078346D02*
X0097000Y0078600D01*
X0097000Y0109000D01*
X0133800Y0145800D01*
X0141800Y0146200D02*
X0102200Y0106600D01*
X0102200Y0053800D01*
X0081400Y0033000D01*
X0073400Y0033000D01*
X0057400Y0017000D01*
X0051400Y0017000D01*
X0047000Y0012600D01*
X0046800Y0012500D01*
X0042600Y0010600D02*
X0042600Y0014600D01*
X0046200Y0018200D01*
X0050200Y0018200D01*
X0054200Y0022200D01*
X0056600Y0022200D01*
X0056800Y0022500D01*
X0042600Y0010600D02*
X0045000Y0008200D01*
X0085800Y0008200D01*
X0095000Y0017400D01*
X0095000Y0029800D01*
X0109000Y0043800D01*
X0109000Y0058200D01*
X0112036Y0058248D02*
X0112200Y0058248D01*
X0119831Y0058248D01*
X0121800Y0058248D02*
X0121800Y0062500D01*
X0117400Y0062500D01*
X0123769Y0058248D02*
X0131800Y0058248D01*
X0131800Y0058200D01*
X0135000Y0055000D01*
X0144600Y0055000D01*
X0166600Y0033000D01*
X0166600Y0023800D01*
X0170200Y0020200D01*
X0173400Y0020200D01*
X0175600Y0022400D01*
X0177800Y0020200D01*
X0175600Y0022400D02*
X0176600Y0023400D01*
X0176600Y0026600D01*
X0175400Y0027800D01*
X0175400Y0030600D01*
X0127600Y0078400D01*
X0127800Y0078600D01*
X0127800Y0079800D01*
X0127400Y0078600D02*
X0127600Y0078400D01*
X0127400Y0078600D02*
X0122200Y0078600D01*
X0118600Y0075000D01*
X0118454Y0075000D01*
X0115400Y0091400D02*
X0147400Y0091400D01*
X0171800Y0088600D02*
X0180600Y0097400D01*
X0180600Y0126200D01*
X0172200Y0134600D01*
X0158200Y0134600D01*
X0155800Y0132200D01*
X0150200Y0132200D01*
X0149900Y0132126D01*
X0149900Y0135276D02*
X0150200Y0135400D01*
X0155000Y0135400D01*
X0159000Y0137400D02*
X0153800Y0142600D01*
X0153800Y0143000D01*
X0152200Y0144600D01*
X0150200Y0144600D01*
X0149900Y0144724D01*
X0149800Y0141800D02*
X0147400Y0141800D01*
X0145000Y0144200D01*
X0145400Y0143400D01*
X0136600Y0134600D01*
X0141000Y0134600D02*
X0141800Y0134600D01*
X0147400Y0129000D01*
X0149800Y0129000D01*
X0149900Y0128976D01*
X0155776Y0123100D02*
X0155800Y0123000D01*
X0155800Y0065000D01*
X0171000Y0049800D01*
X0217000Y0049800D01*
X0241800Y0025000D01*
X0231400Y0019000D02*
X0329000Y0019000D01*
X0329350Y0019016D01*
X0315400Y0022600D02*
X0315146Y0022500D01*
X0315400Y0022600D02*
X0315400Y0059800D01*
X0330600Y0075000D01*
X0330600Y0126200D01*
X0326800Y0130000D01*
X0328600Y0135800D02*
X0316600Y0135800D01*
X0311400Y0130600D01*
X0303400Y0130600D01*
X0303383Y0130435D01*
X0303000Y0130600D01*
X0297000Y0136600D01*
X0255000Y0136600D01*
X0249000Y0142600D01*
X0214200Y0142600D01*
X0210200Y0138600D01*
X0183800Y0138600D01*
X0183700Y0138425D01*
X0183700Y0141575D02*
X0183800Y0141800D01*
X0187000Y0141800D01*
X0199400Y0154200D01*
X0199400Y0156200D01*
X0221800Y0178600D01*
X0221800Y0186654D01*
X0221800Y0193346D02*
X0221800Y0205000D01*
X0211800Y0215000D01*
X0206600Y0204200D02*
X0195800Y0215000D01*
X0194200Y0206600D02*
X0185800Y0215000D01*
X0180600Y0216200D02*
X0180600Y0213400D01*
X0170200Y0203000D01*
X0162200Y0203000D01*
X0159000Y0199800D01*
X0159000Y0157000D01*
X0158926Y0156900D01*
X0155776Y0156900D02*
X0155400Y0156600D01*
X0149800Y0156600D01*
X0141800Y0148600D01*
X0141800Y0146200D01*
X0149900Y0147874D02*
X0150200Y0147800D01*
X0152600Y0147800D01*
X0160200Y0140200D01*
X0162200Y0142200D02*
X0168200Y0142200D01*
X0167400Y0137400D02*
X0159000Y0137400D01*
X0162200Y0142200D02*
X0153400Y0151000D01*
X0150200Y0151000D01*
X0149900Y0151024D01*
X0149800Y0141800D02*
X0149900Y0141575D01*
X0149900Y0138425D02*
X0149800Y0138200D01*
X0147400Y0138200D01*
X0145000Y0135800D01*
X0158926Y0123100D02*
X0159000Y0123000D01*
X0159000Y0116600D01*
X0177400Y0098200D01*
X0171800Y0088600D02*
X0171800Y0073346D01*
X0171800Y0066654D02*
X0171800Y0055800D01*
X0173000Y0054600D01*
X0173060Y0054331D01*
X0176800Y0045669D02*
X0177000Y0045400D01*
X0177000Y0029800D01*
X0181800Y0025000D01*
X0187000Y0023800D02*
X0187000Y0026600D01*
X0190000Y0029600D01*
X0189000Y0030600D01*
X0190000Y0029600D02*
X0190200Y0029800D01*
X0220600Y0029800D01*
X0231400Y0019000D01*
X0271800Y0025000D02*
X0271800Y0059000D01*
X0288600Y0075800D01*
X0290600Y0075800D01*
X0290600Y0079800D02*
X0271400Y0079800D01*
X0271400Y0083800D02*
X0291800Y0083800D01*
X0291800Y0084154D01*
X0291800Y0084200D01*
X0295000Y0087400D01*
X0296200Y0087400D01*
X0287800Y0071000D02*
X0287800Y0056600D01*
X0281800Y0050600D01*
X0281800Y0025000D01*
X0187000Y0023800D02*
X0180600Y0017400D01*
X0163000Y0017400D01*
X0157000Y0023400D01*
X0157000Y0026200D01*
X0141400Y0041800D01*
X0135800Y0041800D01*
X0135146Y0042500D01*
X0135658Y0041909D01*
X0135400Y0042200D02*
X0135146Y0042500D01*
X0131800Y0039800D02*
X0141800Y0029800D01*
X0143400Y0029800D01*
X0147000Y0026200D01*
X0147000Y0023400D01*
X0155800Y0014600D01*
X0178200Y0014600D01*
X0131800Y0039800D02*
X0131800Y0051400D01*
X0132200Y0051800D01*
X0141800Y0051800D01*
X0141800Y0051654D01*
X0132200Y0051800D02*
X0131800Y0051800D01*
X0131800Y0051752D01*
X0123769Y0051752D01*
X0121800Y0051752D02*
X0121800Y0045000D01*
X0086800Y0051654D02*
X0086600Y0051800D01*
X0069400Y0051800D01*
X0069300Y0052047D01*
X0069000Y0057800D02*
X0069300Y0057953D01*
X0069400Y0058200D01*
X0069400Y0072200D01*
X0072200Y0075000D01*
X0072469Y0075000D01*
X0081131Y0071260D02*
X0081400Y0071400D01*
X0085400Y0071400D01*
X0069000Y0057800D02*
X0042200Y0057800D01*
X0039400Y0055000D01*
X0039300Y0054921D01*
X0085461Y0094567D02*
X0085146Y0095000D01*
X0085461Y0095059D01*
X0161800Y0117800D02*
X0161800Y0123000D01*
X0162076Y0123100D01*
X0171400Y0123000D02*
X0171400Y0117800D01*
X0166600Y0113000D01*
X0177800Y0118200D02*
X0177800Y0123000D01*
X0177824Y0123100D01*
X0171524Y0123100D02*
X0171400Y0123000D01*
X0183800Y0125400D02*
X0192200Y0117000D01*
X0189400Y0123800D02*
X0189400Y0131800D01*
X0186200Y0135000D01*
X0183800Y0135000D01*
X0183700Y0135276D01*
X0183400Y0132200D02*
X0181400Y0132200D01*
X0178600Y0135000D01*
X0183400Y0132200D02*
X0183700Y0132126D01*
X0183700Y0128976D02*
X0183800Y0128600D01*
X0183800Y0125400D01*
X0167400Y0137400D02*
X0175000Y0145000D01*
X0175000Y0149000D02*
X0180200Y0149000D01*
X0181000Y0148200D01*
X0183400Y0148200D01*
X0183700Y0147874D01*
X0183700Y0151024D02*
X0183800Y0151400D01*
X0206600Y0174200D01*
X0206600Y0186600D01*
X0206800Y0186654D01*
X0206800Y0193346D02*
X0206600Y0193400D01*
X0206600Y0204200D01*
X0194200Y0206600D02*
X0194200Y0193400D01*
X0194300Y0193346D01*
X0190200Y0191000D02*
X0190200Y0201000D01*
X0181400Y0209800D01*
X0180600Y0216200D02*
X0185000Y0220600D01*
X0304200Y0220600D01*
X0312200Y0212600D01*
X0319400Y0212600D01*
X0319799Y0212375D01*
X0323000Y0209400D02*
X0323000Y0215400D01*
X0316200Y0222200D01*
X0176600Y0222200D01*
X0170600Y0216200D01*
X0170600Y0213400D01*
X0161800Y0204600D01*
X0161400Y0204600D01*
X0149800Y0193000D01*
X0149800Y0169400D01*
X0149410Y0169366D01*
X0149400Y0169000D01*
X0149400Y0162600D01*
X0168952Y0169488D02*
X0169000Y0169400D01*
X0174600Y0163800D01*
X0174600Y0157000D01*
X0174674Y0156900D01*
X0177824Y0156900D02*
X0178200Y0157000D01*
X0178200Y0166200D01*
X0181400Y0169400D01*
X0181550Y0169488D01*
X0194300Y0186654D02*
X0194200Y0187000D01*
X0190200Y0191000D01*
X0217000Y0169800D02*
X0295800Y0169800D01*
X0295954Y0170000D01*
X0302646Y0170000D02*
X0303000Y0169800D01*
X0303000Y0167800D01*
X0316600Y0154200D01*
X0318600Y0154200D01*
X0321000Y0151800D01*
X0321000Y0145800D01*
X0326800Y0140000D01*
X0331000Y0138200D02*
X0328600Y0135800D01*
X0331000Y0138200D02*
X0331000Y0141800D01*
X0327000Y0145800D01*
X0325000Y0145800D01*
X0322600Y0148200D01*
X0322600Y0154200D01*
X0316800Y0160000D01*
X0316800Y0170000D02*
X0303000Y0183800D01*
X0303000Y0189800D01*
X0302646Y0190000D01*
X0297000Y0190200D02*
X0315800Y0209000D01*
X0322600Y0209000D01*
X0323000Y0209400D01*
X0326492Y0212375D02*
X0326600Y0212600D01*
X0329000Y0215000D01*
X0331000Y0215000D01*
X0297000Y0190200D02*
X0296200Y0190200D01*
X0295954Y0190000D01*
X0295954Y0142500D02*
X0295800Y0142200D01*
X0280600Y0142200D01*
X0296690Y0130435D02*
X0297000Y0130200D01*
X0297000Y0126600D01*
X0301000Y0122600D01*
X0283400Y0119800D02*
X0283400Y0109400D01*
X0271400Y0097400D01*
X0254600Y0097400D01*
X0271400Y0105000D02*
X0271400Y0120200D01*
X0272600Y0121400D01*
X0272600Y0126200D01*
X0271000Y0127800D01*
X0267000Y0128600D02*
X0264600Y0128600D01*
X0262200Y0126200D01*
X0223400Y0126200D01*
X0265800Y0117000D02*
X0269800Y0121000D01*
X0269800Y0122600D01*
X0302646Y0142500D02*
X0303000Y0142200D01*
X0314600Y0142200D01*
X0316800Y0140000D01*
D33*
X0301000Y0122600D03*
X0283400Y0119800D03*
X0269800Y0122600D03*
X0271000Y0127800D03*
X0267000Y0128600D03*
X0251000Y0136600D03*
X0255000Y0140600D03*
X0238600Y0145400D03*
X0223400Y0126200D03*
X0200600Y0135800D03*
X0189400Y0123800D03*
X0192200Y0117000D03*
X0177800Y0118200D03*
X0173800Y0116200D03*
X0167800Y0118200D03*
X0161800Y0117800D03*
X0166600Y0113000D03*
X0177400Y0098200D03*
X0147400Y0091400D03*
X0127800Y0079800D03*
X0115400Y0091400D03*
X0109000Y0058200D03*
X0099400Y0055000D03*
X0132200Y0051800D03*
X0177000Y0059000D03*
X0189000Y0030600D03*
X0177800Y0020200D03*
X0178200Y0014600D03*
X0271400Y0079800D03*
X0271400Y0083800D03*
X0287800Y0071000D03*
X0290600Y0075800D03*
X0290600Y0079800D03*
X0296200Y0087400D03*
X0321400Y0090600D03*
X0271400Y0097400D03*
X0271400Y0105000D03*
X0254600Y0097400D03*
X0265800Y0117000D03*
X0280600Y0142200D03*
X0225400Y0173800D03*
X0217000Y0169800D03*
X0196600Y0155400D03*
X0187233Y0165000D03*
X0187233Y0170000D03*
X0181800Y0165000D03*
X0167233Y0165000D03*
X0163217Y0165000D03*
X0163217Y0170000D03*
X0163217Y0175000D03*
X0163217Y0180000D03*
X0163217Y0185000D03*
X0163217Y0190000D03*
X0163217Y0195000D03*
X0163217Y0200000D03*
X0167233Y0200000D03*
X0172233Y0200000D03*
X0177233Y0200000D03*
X0182233Y0200000D03*
X0187233Y0200000D03*
X0187233Y0195000D03*
X0187233Y0190000D03*
X0187233Y0185000D03*
X0187233Y0180000D03*
X0187233Y0175000D03*
X0152200Y0159400D03*
X0149400Y0162600D03*
X0166600Y0148600D03*
X0163400Y0145000D03*
X0168200Y0142200D03*
X0175000Y0145000D03*
X0175000Y0149000D03*
X0160200Y0140200D03*
X0155000Y0135400D03*
X0157800Y0128200D03*
X0171000Y0131800D03*
X0174600Y0128200D03*
X0178600Y0135000D03*
X0145000Y0135800D03*
X0141000Y0134600D03*
X0136600Y0134600D03*
X0145000Y0144200D03*
X0133800Y0145800D03*
X0181400Y0209800D03*
X0331000Y0215000D03*
D34*
X0086800Y0205000D02*
X0086800Y0163622D01*
X0075028Y0163622D01*
X0054300Y0185551D02*
X0054300Y0116378D01*
X0075028Y0116378D01*
X0039300Y0115000D02*
X0039300Y0114921D01*
X0039300Y0115000D02*
X0031800Y0115000D01*
X0031800Y0140157D01*
X0031800Y0159843D02*
X0009300Y0159843D01*
X0009300Y0104921D01*
X0031800Y0185551D02*
X0054300Y0185551D01*
X0075028Y0205236D02*
X0031800Y0205236D01*
X0075028Y0205236D02*
X0086800Y0205000D01*
M02*
