%
M48
M72
T01C0.01969
T02C0.03150
T03C0.03200
T04C0.03937
T05C0.04000
T06C0.04700
T07C0.05118
%
T01
X321400Y90600
X166600Y148600
X152200Y159400
X255000Y140600
X251000Y136600
X174600Y128200
X173800Y116200
X171000Y131800
X163400Y145000
X238600Y145400
X177800Y118200
X254600Y97400
X271400Y97400
X283400Y119800
X178600Y135000
X271400Y105000
X271000Y127800
X192200Y117000
X269800Y122600
X265800Y117000
X271400Y83800
X189400Y123800
X296200Y87400
X200600Y135800
X99400Y55000
X177000Y59000
X155000Y135400
X127800Y79800
X290600Y75800
X177800Y20200
X145000Y135800
X132200Y51800
X287800Y71000
X178200Y14600
X149400Y162600
X145000Y144200
X136600Y134600
X217000Y169800
X175000Y145000
X280600Y142200
X267000Y128600
X223400Y126200
X160200Y140200
X157800Y128200
X167800Y118200
X301000Y122600
X290600Y79800
X271400Y79800
X331000Y215000
X168200Y142200
X133800Y145800
X175000Y149000
X177400Y98200
X189000Y30600
X196600Y155400
X225400Y173800
X166600Y113000
X147400Y91400
X115400Y91400
X161800Y117800
X109000Y58200
X181400Y209800
X141000Y134600
X163217Y190000
X163217Y195000
X167233Y200000
X163217Y200000
X172233Y200000
X177233Y200000
X182233Y200000
X187233Y200000
X187233Y195000
X187233Y190000
X187233Y185000
X187233Y180000
X187233Y175000
X187233Y170000
X187233Y165000
X181800Y165000
X163217Y185000
X163217Y180000
X163217Y175000
X163217Y170000
X163217Y165000
X167233Y165000
T02
X75028Y116378
X75028Y163622
X228572Y163622
X228572Y136063
T03
X329350Y19016
X339250Y19016
T04
X241800Y215000
X231800Y25000
X251800Y215000
X261800Y215000
X271800Y215000
X281800Y215000
X231800Y215000
X221800Y215000
X211800Y215000
X195800Y215000
X185800Y215000
X175800Y215000
X165800Y215000
X155800Y215000
X145800Y215000
X135800Y215000
X125800Y215000
X241800Y25000
X251800Y25000
X261800Y25000
X271800Y25000
X281800Y25000
X211800Y25000
X201800Y25000
X191800Y25000
X181800Y25000
X171800Y25000
X161800Y25000
X115800Y215000
X105800Y215000
X151800Y25000
X141800Y25000
T05
X341800Y50000
X326800Y190000
X326800Y180000
X326800Y170000
X326800Y160000
X326800Y150000
X326800Y140000
X326800Y130000
X316800Y190000
X316800Y180000
X316800Y170000
X316800Y160000
X316800Y150000
X316800Y140000
X316800Y130000
X46800Y12500
X46800Y22500
X46800Y32500
X56800Y12500
X56800Y22500
X56800Y32500
X301800Y215000
T06
X31800Y185551
X31800Y205236
X31800Y140157
X31800Y159843
T07
X39300Y54921
X9300Y54921
X39300Y114921
X9300Y104921
M30
