G75*
%MOIN*%
%OFA0B0*%
%FSLAX25Y25*%
%IPPOS*%
%LPD*%
%AMOC8*
5,1,8,0,0,1.08239X$1,22.5*
%
%ADD10C,0.00300*%
%ADD11C,0.01600*%
%ADD12C,0.00000*%
%ADD13C,0.00800*%
%ADD14C,0.00500*%
%ADD15C,0.00787*%
%ADD16C,0.01000*%
%ADD17R,0.00591X0.01181*%
%ADD18R,0.01181X0.01181*%
%ADD19C,0.00600*%
%ADD20C,0.00400*%
D10*
X0025943Y0020606D02*
X0025943Y0021819D01*
X0026550Y0022426D01*
X0027763Y0022426D02*
X0027763Y0021212D01*
X0027763Y0022426D02*
X0028976Y0022426D01*
X0029583Y0021819D01*
X0029583Y0020606D01*
X0028976Y0019999D01*
X0026550Y0019999D01*
X0025943Y0020606D01*
X0025943Y0023624D02*
X0029583Y0026051D01*
X0025943Y0026051D01*
X0025943Y0027249D02*
X0025943Y0029069D01*
X0026550Y0029676D01*
X0028976Y0029676D01*
X0029583Y0029069D01*
X0029583Y0027249D01*
X0025943Y0027249D01*
X0025943Y0023624D02*
X0029583Y0023624D01*
X0034014Y0022029D02*
X0035227Y0020815D01*
X0037654Y0020815D01*
X0035834Y0020815D02*
X0035834Y0023242D01*
X0035227Y0023242D02*
X0037654Y0023242D01*
X0037047Y0024440D02*
X0037654Y0025047D01*
X0037654Y0026261D01*
X0037047Y0026867D01*
X0036441Y0026867D01*
X0035834Y0026261D01*
X0035834Y0024440D01*
X0037047Y0024440D01*
X0035834Y0024440D02*
X0034621Y0025654D01*
X0034014Y0026867D01*
X0035227Y0023242D02*
X0034014Y0022029D01*
X0044014Y0023242D02*
X0044014Y0020815D01*
X0045834Y0020815D01*
X0045227Y0022029D01*
X0045227Y0022635D01*
X0045834Y0023242D01*
X0047047Y0023242D01*
X0047654Y0022635D01*
X0047654Y0021422D01*
X0047047Y0020815D01*
X0046441Y0024440D02*
X0047654Y0025654D01*
X0046441Y0026867D01*
X0044014Y0026867D01*
X0044014Y0024440D02*
X0046441Y0024440D01*
X0045943Y0052499D02*
X0048370Y0052499D01*
X0049583Y0053712D01*
X0048370Y0054926D01*
X0045943Y0054926D01*
X0046550Y0056124D02*
X0048976Y0056124D01*
X0049583Y0056731D01*
X0049583Y0057944D01*
X0048976Y0058551D01*
X0048976Y0059749D02*
X0049583Y0060356D01*
X0049583Y0061569D01*
X0048976Y0062176D01*
X0046550Y0062176D02*
X0045943Y0061569D01*
X0045943Y0060356D01*
X0046550Y0059749D01*
X0048976Y0059749D01*
X0046550Y0058551D02*
X0045943Y0057944D01*
X0045943Y0056731D01*
X0046550Y0056124D01*
X0037654Y0056411D02*
X0035227Y0056411D01*
X0034014Y0055198D01*
X0035227Y0053985D01*
X0037654Y0053985D01*
X0035834Y0053985D02*
X0035834Y0056411D01*
X0037047Y0057610D02*
X0034621Y0060037D01*
X0034014Y0060037D01*
X0034014Y0057610D01*
X0037047Y0057610D02*
X0037654Y0057610D01*
X0030878Y0055912D02*
X0028451Y0055912D01*
X0028451Y0052272D01*
X0030878Y0052272D01*
X0029664Y0054092D02*
X0028451Y0054092D01*
X0027252Y0052879D02*
X0026646Y0052272D01*
X0025432Y0052272D01*
X0024826Y0052879D01*
X0024826Y0055305D01*
X0025432Y0055912D01*
X0026646Y0055912D01*
X0027252Y0055305D01*
X0023622Y0055912D02*
X0022409Y0055912D01*
X0023016Y0055912D02*
X0023016Y0052272D01*
X0023622Y0052272D02*
X0022409Y0052272D01*
X0021211Y0052879D02*
X0020604Y0052272D01*
X0019390Y0052272D01*
X0018784Y0052879D01*
X0018784Y0055305D01*
X0019390Y0055912D01*
X0020604Y0055912D01*
X0021211Y0055305D01*
X0021211Y0052879D01*
X0017585Y0053485D02*
X0016372Y0052272D01*
X0015159Y0053485D01*
X0015159Y0055912D01*
X0017585Y0055912D02*
X0017585Y0053485D01*
X0016700Y0058839D02*
X0018520Y0058839D01*
X0019126Y0059446D01*
X0019126Y0061872D01*
X0018520Y0062479D01*
X0016700Y0062479D01*
X0016700Y0058839D01*
X0020325Y0059446D02*
X0020325Y0061872D01*
X0020932Y0062479D01*
X0022145Y0062479D01*
X0022752Y0061872D01*
X0022752Y0059446D01*
X0022145Y0058839D01*
X0020932Y0058839D01*
X0020325Y0059446D01*
X0021538Y0060052D02*
X0022752Y0058839D01*
X0080943Y0058262D02*
X0081550Y0058869D01*
X0083976Y0058869D01*
X0084583Y0058262D01*
X0084583Y0057049D01*
X0083976Y0056442D01*
X0081550Y0056442D01*
X0080943Y0057049D01*
X0080943Y0058262D01*
X0083370Y0057656D02*
X0084583Y0058869D01*
X0083976Y0055244D02*
X0081550Y0055244D01*
X0080943Y0054637D01*
X0080943Y0052817D01*
X0084583Y0052817D01*
X0084583Y0054637D01*
X0083976Y0055244D01*
X0090943Y0054926D02*
X0094583Y0054926D01*
X0090943Y0052499D01*
X0094583Y0052499D01*
X0093976Y0056124D02*
X0094583Y0056731D01*
X0094583Y0057944D01*
X0093976Y0058551D01*
X0093370Y0058551D01*
X0092763Y0057944D01*
X0092763Y0056731D01*
X0092156Y0056124D01*
X0091550Y0056124D01*
X0090943Y0056731D01*
X0090943Y0057944D01*
X0091550Y0058551D01*
X0091550Y0059749D02*
X0092156Y0059749D01*
X0092763Y0060356D01*
X0092763Y0061569D01*
X0093370Y0062176D01*
X0093976Y0062176D01*
X0094583Y0061569D01*
X0094583Y0060356D01*
X0093976Y0059749D01*
X0091550Y0059749D02*
X0090943Y0060356D01*
X0090943Y0061569D01*
X0091550Y0062176D01*
X0100943Y0061432D02*
X0101550Y0062038D01*
X0103976Y0062038D01*
X0104583Y0061432D01*
X0104583Y0060218D01*
X0103976Y0059611D01*
X0101550Y0059611D01*
X0100943Y0060218D01*
X0100943Y0061432D01*
X0103370Y0060825D02*
X0104583Y0062038D01*
X0104583Y0058413D02*
X0103370Y0057200D01*
X0103370Y0057806D02*
X0103370Y0055986D01*
X0104583Y0055986D02*
X0100943Y0055986D01*
X0100943Y0057806D01*
X0101550Y0058413D01*
X0102763Y0058413D01*
X0103370Y0057806D01*
X0104583Y0054783D02*
X0104583Y0053570D01*
X0104583Y0054176D02*
X0100943Y0054176D01*
X0100943Y0053570D02*
X0100943Y0054783D01*
X0110943Y0054319D02*
X0110943Y0053106D01*
X0111550Y0052499D01*
X0112156Y0052499D01*
X0112763Y0053106D01*
X0112763Y0054319D01*
X0113370Y0054926D01*
X0113976Y0054926D01*
X0114583Y0054319D01*
X0114583Y0053106D01*
X0113976Y0052499D01*
X0111550Y0054926D02*
X0110943Y0054319D01*
X0110943Y0056124D02*
X0110943Y0057944D01*
X0111550Y0058551D01*
X0113976Y0058551D01*
X0114583Y0057944D01*
X0114583Y0056124D01*
X0110943Y0056124D01*
X0112156Y0059749D02*
X0110943Y0060963D01*
X0112156Y0062176D01*
X0114583Y0062176D01*
X0112763Y0062176D02*
X0112763Y0059749D01*
X0112156Y0059749D02*
X0114583Y0059749D01*
X0120943Y0059611D02*
X0124583Y0059611D01*
X0124583Y0062038D01*
X0123976Y0058413D02*
X0124583Y0057806D01*
X0124583Y0056593D01*
X0123976Y0055986D01*
X0121550Y0055986D01*
X0120943Y0056593D01*
X0120943Y0057806D01*
X0121550Y0058413D01*
X0121550Y0054788D02*
X0120943Y0054181D01*
X0120943Y0052968D01*
X0121550Y0052361D01*
X0122156Y0052361D01*
X0122763Y0052968D01*
X0122763Y0054181D01*
X0123370Y0054788D01*
X0123976Y0054788D01*
X0124583Y0054181D01*
X0124583Y0052968D01*
X0123976Y0052361D01*
X0140943Y0052361D02*
X0140943Y0054181D01*
X0141550Y0054788D01*
X0142763Y0054788D01*
X0143370Y0054181D01*
X0143370Y0052361D01*
X0144583Y0052361D02*
X0140943Y0052361D01*
X0143370Y0053575D02*
X0144583Y0054788D01*
X0143976Y0055986D02*
X0144583Y0056593D01*
X0144583Y0057806D01*
X0143976Y0058413D01*
X0143370Y0058413D01*
X0142763Y0057806D01*
X0142763Y0056593D01*
X0142156Y0055986D01*
X0141550Y0055986D01*
X0140943Y0056593D01*
X0140943Y0057806D01*
X0141550Y0058413D01*
X0140943Y0059611D02*
X0140943Y0062038D01*
X0140943Y0060825D02*
X0144583Y0060825D01*
X0150943Y0062038D02*
X0153370Y0059611D01*
X0152763Y0060218D02*
X0154583Y0062038D01*
X0154583Y0059611D02*
X0150943Y0059611D01*
X0151550Y0058413D02*
X0150943Y0057806D01*
X0150943Y0056593D01*
X0151550Y0055986D01*
X0153976Y0055986D01*
X0154583Y0056593D01*
X0154583Y0057806D01*
X0153976Y0058413D01*
X0153976Y0054788D02*
X0154583Y0054181D01*
X0154583Y0052968D01*
X0153976Y0052361D01*
X0152763Y0052968D02*
X0152156Y0052361D01*
X0151550Y0052361D01*
X0150943Y0052968D01*
X0150943Y0054181D01*
X0151550Y0054788D01*
X0152763Y0054181D02*
X0153370Y0054788D01*
X0153976Y0054788D01*
X0152763Y0054181D02*
X0152763Y0052968D01*
X0160943Y0057195D02*
X0162156Y0058408D01*
X0160943Y0059621D01*
X0164583Y0059621D01*
X0164583Y0060820D02*
X0164583Y0062033D01*
X0164583Y0061427D02*
X0162156Y0061427D01*
X0162156Y0060820D01*
X0160943Y0061427D02*
X0160336Y0061427D01*
X0160943Y0057195D02*
X0164583Y0057195D01*
X0181514Y0058216D02*
X0181514Y0059430D01*
X0182121Y0060037D01*
X0184547Y0060037D01*
X0185154Y0059430D01*
X0185154Y0058216D01*
X0184547Y0057610D01*
X0182121Y0057610D01*
X0181514Y0058216D01*
X0182121Y0056411D02*
X0181514Y0055805D01*
X0181514Y0053985D01*
X0185154Y0053985D01*
X0185154Y0055805D01*
X0184547Y0056411D01*
X0182121Y0056411D01*
X0183941Y0058823D02*
X0185154Y0060037D01*
X0186514Y0059430D02*
X0187121Y0060037D01*
X0186514Y0059430D02*
X0186514Y0058216D01*
X0187121Y0057610D01*
X0187727Y0057610D01*
X0188334Y0058216D01*
X0188334Y0059430D01*
X0188941Y0060037D01*
X0189547Y0060037D01*
X0190154Y0059430D01*
X0190154Y0058216D01*
X0189547Y0057610D01*
X0190154Y0056411D02*
X0186514Y0056411D01*
X0186514Y0053985D02*
X0190154Y0056411D01*
X0191514Y0056401D02*
X0191514Y0058221D01*
X0192121Y0058828D01*
X0193334Y0058828D01*
X0193941Y0058221D01*
X0193941Y0056401D01*
X0195154Y0056401D02*
X0191514Y0056401D01*
X0191514Y0055198D02*
X0191514Y0053985D01*
X0191514Y0054591D02*
X0195154Y0054591D01*
X0195154Y0053985D02*
X0195154Y0055198D01*
X0196514Y0054591D02*
X0197121Y0053985D01*
X0197727Y0053985D01*
X0198334Y0054591D01*
X0198334Y0055805D01*
X0198941Y0056411D01*
X0199547Y0056411D01*
X0200154Y0055805D01*
X0200154Y0054591D01*
X0199547Y0053985D01*
X0201514Y0054591D02*
X0202121Y0053985D01*
X0202727Y0053985D01*
X0203334Y0054591D01*
X0203334Y0055805D01*
X0203941Y0056411D01*
X0204547Y0056411D01*
X0205154Y0055805D01*
X0205154Y0054591D01*
X0204547Y0053985D01*
X0201514Y0054591D02*
X0201514Y0055805D01*
X0202121Y0056411D01*
X0202121Y0057610D02*
X0204547Y0057610D01*
X0205154Y0058216D01*
X0205154Y0059430D01*
X0204547Y0060037D01*
X0205154Y0061235D02*
X0205154Y0063662D01*
X0205154Y0061235D02*
X0201514Y0061235D01*
X0202121Y0060037D02*
X0201514Y0059430D01*
X0201514Y0058216D01*
X0202121Y0057610D01*
X0200154Y0057610D02*
X0200154Y0059430D01*
X0199547Y0060037D01*
X0197121Y0060037D01*
X0196514Y0059430D01*
X0196514Y0057610D01*
X0200154Y0057610D01*
X0197121Y0056411D02*
X0196514Y0055805D01*
X0196514Y0054591D01*
X0193941Y0057615D02*
X0195154Y0058828D01*
X0194547Y0060027D02*
X0195154Y0060633D01*
X0195154Y0061847D01*
X0194547Y0062453D01*
X0192121Y0062453D01*
X0191514Y0061847D01*
X0191514Y0060633D01*
X0192121Y0060027D01*
X0194547Y0060027D01*
X0193941Y0061240D02*
X0195154Y0062453D01*
X0196514Y0062448D02*
X0197727Y0063662D01*
X0200154Y0063662D01*
X0198334Y0063662D02*
X0198334Y0061235D01*
X0197727Y0061235D02*
X0196514Y0062448D01*
X0197727Y0061235D02*
X0200154Y0061235D01*
X0211514Y0061235D02*
X0211514Y0063662D01*
X0211514Y0062448D02*
X0215154Y0062448D01*
X0216514Y0061235D02*
X0220154Y0061235D01*
X0218941Y0061235D02*
X0216514Y0063662D01*
X0218334Y0061842D02*
X0220154Y0063662D01*
X0222727Y0064258D02*
X0223334Y0063652D01*
X0224547Y0063652D01*
X0225154Y0064258D01*
X0225154Y0065472D01*
X0224547Y0066078D01*
X0223334Y0066078D01*
X0222727Y0065472D01*
X0222727Y0064258D01*
X0222727Y0062453D02*
X0222727Y0060633D01*
X0223334Y0060027D01*
X0223941Y0060633D01*
X0223941Y0061847D01*
X0224547Y0062453D01*
X0225154Y0061847D01*
X0225154Y0060027D01*
X0225154Y0058823D02*
X0225154Y0057610D01*
X0225154Y0058216D02*
X0222727Y0058216D01*
X0222727Y0057610D01*
X0221514Y0058216D02*
X0220907Y0058216D01*
X0220154Y0058216D02*
X0220154Y0059430D01*
X0219547Y0060037D01*
X0220154Y0058216D02*
X0219547Y0057610D01*
X0217121Y0057610D01*
X0216514Y0058216D01*
X0216514Y0059430D01*
X0217121Y0060037D01*
X0215154Y0059430D02*
X0215154Y0058216D01*
X0214547Y0057610D01*
X0215154Y0056411D02*
X0213941Y0055198D01*
X0213941Y0055805D02*
X0213941Y0053985D01*
X0215154Y0053985D02*
X0211514Y0053985D01*
X0211514Y0055805D01*
X0212121Y0056411D01*
X0213334Y0056411D01*
X0213941Y0055805D01*
X0212727Y0057610D02*
X0213334Y0058216D01*
X0213334Y0059430D01*
X0213941Y0060037D01*
X0214547Y0060037D01*
X0215154Y0059430D01*
X0212727Y0057610D02*
X0212121Y0057610D01*
X0211514Y0058216D01*
X0211514Y0059430D01*
X0212121Y0060037D01*
X0216514Y0055805D02*
X0217121Y0056411D01*
X0216514Y0055805D02*
X0216514Y0054591D01*
X0217121Y0053985D01*
X0217727Y0053985D01*
X0218334Y0054591D01*
X0218334Y0055805D01*
X0218941Y0056411D01*
X0219547Y0056411D01*
X0220154Y0055805D01*
X0220154Y0054591D01*
X0219547Y0053985D01*
X0221514Y0053985D02*
X0222727Y0055198D01*
X0221514Y0056411D01*
X0225154Y0056411D01*
X0225154Y0053985D02*
X0221514Y0053985D01*
X0231573Y0053422D02*
X0235213Y0055848D01*
X0235213Y0058260D02*
X0231573Y0058260D01*
X0231573Y0057047D02*
X0231573Y0059473D01*
X0231573Y0055848D02*
X0235213Y0053422D01*
X0235213Y0052223D02*
X0235213Y0049796D01*
X0231573Y0049796D01*
X0231573Y0052223D01*
X0233393Y0051010D02*
X0233393Y0049796D01*
X0235820Y0048598D02*
X0235820Y0046171D01*
X0234606Y0044973D02*
X0235213Y0044366D01*
X0235213Y0043153D01*
X0234606Y0042546D01*
X0232180Y0042546D01*
X0231573Y0043153D01*
X0231573Y0044366D01*
X0232180Y0044973D01*
X0232180Y0041348D02*
X0231573Y0040741D01*
X0231573Y0039528D01*
X0232180Y0038921D01*
X0231573Y0037718D02*
X0231573Y0036504D01*
X0231573Y0037111D02*
X0235213Y0037111D01*
X0235213Y0036504D02*
X0235213Y0037718D01*
X0235213Y0038921D02*
X0232786Y0041348D01*
X0232180Y0041348D01*
X0235213Y0041348D02*
X0235213Y0038921D01*
X0225154Y0039342D02*
X0224547Y0038735D01*
X0222121Y0038735D01*
X0221514Y0039342D01*
X0221514Y0040555D01*
X0222121Y0041162D01*
X0220154Y0040555D02*
X0219547Y0041162D01*
X0218941Y0040555D01*
X0218941Y0039342D01*
X0218334Y0038735D01*
X0217727Y0039342D01*
X0217727Y0041162D01*
X0217727Y0042360D02*
X0217727Y0042967D01*
X0220154Y0042967D01*
X0220154Y0043573D02*
X0220154Y0042360D01*
X0220154Y0040555D02*
X0220154Y0038735D01*
X0219547Y0037537D02*
X0220154Y0036930D01*
X0220154Y0035716D01*
X0219547Y0035110D01*
X0218334Y0035110D01*
X0217727Y0035716D01*
X0217727Y0036930D01*
X0218334Y0037537D01*
X0219547Y0037537D01*
X0221514Y0036930D02*
X0221514Y0035716D01*
X0222121Y0035110D01*
X0224547Y0035110D01*
X0225154Y0035716D01*
X0225154Y0036930D01*
X0224547Y0037537D01*
X0225154Y0039342D02*
X0225154Y0040555D01*
X0224547Y0041162D01*
X0222121Y0037537D02*
X0221514Y0036930D01*
X0221514Y0033911D02*
X0223941Y0033911D01*
X0225154Y0032698D01*
X0223941Y0031485D01*
X0221514Y0031485D01*
X0220154Y0031485D02*
X0216514Y0031485D01*
X0217727Y0032698D01*
X0216514Y0033911D01*
X0220154Y0033911D01*
X0215154Y0033305D02*
X0214547Y0033911D01*
X0213334Y0033911D01*
X0213334Y0032698D01*
X0214547Y0031485D02*
X0215154Y0032091D01*
X0215154Y0033305D01*
X0215154Y0035110D02*
X0211514Y0035110D01*
X0215154Y0037537D01*
X0211514Y0037537D01*
X0211514Y0038735D02*
X0211514Y0040555D01*
X0212121Y0041162D01*
X0214547Y0041162D01*
X0215154Y0040555D01*
X0215154Y0038735D01*
X0211514Y0038735D01*
X0212121Y0033911D02*
X0211514Y0033305D01*
X0211514Y0032091D01*
X0212121Y0031485D01*
X0214547Y0031485D01*
X0208768Y0025202D02*
X0208768Y0022775D01*
X0207554Y0021562D01*
X0206341Y0022775D01*
X0206341Y0025202D01*
X0205142Y0024595D02*
X0204536Y0025202D01*
X0202716Y0025202D01*
X0202716Y0021562D01*
X0202716Y0022775D02*
X0204536Y0022775D01*
X0205142Y0023382D01*
X0205142Y0024595D01*
X0203929Y0022775D02*
X0205142Y0021562D01*
X0209966Y0021562D02*
X0210573Y0021562D01*
X0210573Y0022168D01*
X0209966Y0022168D01*
X0209966Y0021562D01*
X0211779Y0022168D02*
X0212385Y0021562D01*
X0213599Y0021562D01*
X0214205Y0022168D01*
X0214205Y0023382D01*
X0213599Y0023988D01*
X0212385Y0023988D01*
X0211779Y0023382D01*
X0211779Y0022168D01*
X0215404Y0021562D02*
X0215404Y0023988D01*
X0215404Y0022775D02*
X0216617Y0023988D01*
X0217224Y0023988D01*
X0218425Y0023382D02*
X0218425Y0022168D01*
X0219031Y0021562D01*
X0220851Y0021562D01*
X0220851Y0020955D02*
X0220851Y0023988D01*
X0219031Y0023988D01*
X0218425Y0023382D01*
X0219638Y0020348D02*
X0220245Y0020348D01*
X0220851Y0020955D01*
X0222050Y0021562D02*
X0222656Y0021562D01*
X0222656Y0022168D01*
X0222050Y0022168D01*
X0222050Y0021562D01*
X0223862Y0022168D02*
X0224469Y0021562D01*
X0226289Y0021562D01*
X0226289Y0023988D01*
X0227487Y0022775D02*
X0229308Y0023988D01*
X0227487Y0022775D02*
X0229308Y0021562D01*
X0227487Y0021562D02*
X0227487Y0025202D01*
X0223862Y0023988D02*
X0223862Y0022168D01*
X0205154Y0032091D02*
X0204547Y0031485D01*
X0202121Y0031485D01*
X0201514Y0032091D01*
X0201514Y0033305D01*
X0202121Y0033911D01*
X0203334Y0033911D02*
X0203334Y0032698D01*
X0203334Y0033911D02*
X0204547Y0033911D01*
X0205154Y0033305D01*
X0205154Y0032091D01*
X0205154Y0035110D02*
X0201514Y0035110D01*
X0205154Y0037537D01*
X0201514Y0037537D01*
X0201514Y0038735D02*
X0201514Y0040555D01*
X0202121Y0041162D01*
X0204547Y0041162D01*
X0205154Y0040555D01*
X0205154Y0038735D01*
X0201514Y0038735D01*
X0200154Y0038735D02*
X0200154Y0040555D01*
X0199547Y0041162D01*
X0197121Y0041162D01*
X0196514Y0040555D01*
X0196514Y0038735D01*
X0200154Y0038735D01*
X0200154Y0037537D02*
X0196514Y0037537D01*
X0196514Y0035110D02*
X0200154Y0037537D01*
X0200154Y0035110D02*
X0196514Y0035110D01*
X0197121Y0033911D02*
X0196514Y0033305D01*
X0196514Y0032091D01*
X0197121Y0031485D01*
X0199547Y0031485D01*
X0200154Y0032091D01*
X0200154Y0033305D01*
X0199547Y0033911D01*
X0198334Y0033911D01*
X0198334Y0032698D01*
X0199091Y0025202D02*
X0201517Y0025202D01*
X0200304Y0025202D02*
X0200304Y0021562D01*
X0197892Y0021562D02*
X0197892Y0023382D01*
X0197286Y0023988D01*
X0195465Y0023988D01*
X0195465Y0021562D01*
X0194267Y0022775D02*
X0191840Y0022775D01*
X0191840Y0023382D02*
X0192447Y0023988D01*
X0193660Y0023988D01*
X0194267Y0023382D01*
X0194267Y0022775D01*
X0193660Y0021562D02*
X0192447Y0021562D01*
X0191840Y0022168D01*
X0191840Y0023382D01*
X0190642Y0023382D02*
X0190642Y0022168D01*
X0190035Y0021562D01*
X0188215Y0021562D01*
X0188215Y0020348D02*
X0188215Y0023988D01*
X0190035Y0023988D01*
X0190642Y0023382D01*
X0187017Y0024595D02*
X0186410Y0025202D01*
X0185197Y0025202D01*
X0184590Y0024595D01*
X0184590Y0022168D01*
X0185197Y0021562D01*
X0186410Y0021562D01*
X0187017Y0022168D01*
X0187017Y0024595D01*
X0186514Y0031485D02*
X0186514Y0033911D01*
X0186514Y0035110D02*
X0190154Y0037537D01*
X0190154Y0035110D02*
X0186514Y0037537D01*
X0185154Y0037537D02*
X0181514Y0035110D01*
X0182121Y0033911D02*
X0183334Y0033911D01*
X0183941Y0033305D01*
X0183941Y0031485D01*
X0185154Y0031485D02*
X0181514Y0031485D01*
X0181514Y0033305D01*
X0182121Y0033911D01*
X0183941Y0032698D02*
X0185154Y0033911D01*
X0185154Y0035110D02*
X0181514Y0037537D01*
X0186514Y0032698D02*
X0190154Y0032698D01*
X0190154Y0053985D02*
X0186514Y0053985D01*
X0187121Y0061235D02*
X0187727Y0061235D01*
X0188334Y0061842D01*
X0188334Y0063055D01*
X0188941Y0063662D01*
X0189547Y0063662D01*
X0190154Y0063055D01*
X0190154Y0061842D01*
X0189547Y0061235D01*
X0187121Y0061235D02*
X0186514Y0061842D01*
X0186514Y0063055D01*
X0187121Y0063662D01*
X0192806Y0076839D02*
X0194020Y0076839D01*
X0194626Y0077446D01*
X0195825Y0077446D02*
X0196432Y0076839D01*
X0197645Y0076839D01*
X0198252Y0077446D01*
X0198252Y0078659D01*
X0197645Y0079266D01*
X0197038Y0079266D01*
X0195825Y0078659D01*
X0195825Y0080479D01*
X0198252Y0080479D01*
X0194626Y0079872D02*
X0194020Y0080479D01*
X0192806Y0080479D01*
X0192200Y0079872D01*
X0192200Y0077446D01*
X0192806Y0076839D01*
X0192200Y0086839D02*
X0192200Y0090479D01*
X0194020Y0090479D01*
X0194626Y0089872D01*
X0194626Y0088659D01*
X0194020Y0088052D01*
X0192200Y0088052D01*
X0193413Y0088052D02*
X0194626Y0086839D01*
X0195825Y0087446D02*
X0196432Y0086839D01*
X0197645Y0086839D01*
X0198252Y0087446D01*
X0198252Y0088052D01*
X0197645Y0088659D01*
X0197038Y0088659D01*
X0197645Y0088659D02*
X0198252Y0089266D01*
X0198252Y0089872D01*
X0197645Y0090479D01*
X0196432Y0090479D01*
X0195825Y0089872D01*
X0195825Y0096839D02*
X0198252Y0096839D01*
X0197038Y0096839D02*
X0197038Y0100479D01*
X0195825Y0099266D01*
X0194626Y0099872D02*
X0194626Y0098659D01*
X0194020Y0098052D01*
X0192200Y0098052D01*
X0192200Y0096839D02*
X0192200Y0100479D01*
X0194020Y0100479D01*
X0194626Y0099872D01*
X0193413Y0098052D02*
X0194626Y0096839D01*
X0190033Y0111437D02*
X0190650Y0112055D01*
X0190650Y0113289D01*
X0190033Y0113906D01*
X0189416Y0113906D01*
X0188798Y0113289D01*
X0188798Y0112055D01*
X0188181Y0111437D01*
X0187564Y0111437D01*
X0186947Y0112055D01*
X0186947Y0113289D01*
X0187564Y0113906D01*
X0187564Y0115121D02*
X0190033Y0115121D01*
X0190650Y0115738D01*
X0190650Y0116972D01*
X0190033Y0117589D01*
X0190650Y0118804D02*
X0190650Y0121272D01*
X0190650Y0118804D02*
X0186947Y0118804D01*
X0187564Y0117589D02*
X0186947Y0116972D01*
X0186947Y0115738D01*
X0187564Y0115121D01*
X0176650Y0121055D02*
X0176033Y0120437D01*
X0176650Y0121055D02*
X0176650Y0122289D01*
X0176033Y0122906D01*
X0175416Y0122906D01*
X0174798Y0122289D01*
X0174798Y0121055D01*
X0174181Y0120437D01*
X0173564Y0120437D01*
X0172947Y0121055D01*
X0172947Y0122289D01*
X0173564Y0122906D01*
X0172947Y0124121D02*
X0172947Y0125972D01*
X0173564Y0126589D01*
X0176033Y0126589D01*
X0176650Y0125972D01*
X0176650Y0124121D01*
X0172947Y0124121D01*
X0174181Y0127804D02*
X0172947Y0129038D01*
X0174181Y0130272D01*
X0176650Y0130272D01*
X0174798Y0130272D02*
X0174798Y0127804D01*
X0174181Y0127804D02*
X0176650Y0127804D01*
X0186947Y0130672D02*
X0188181Y0131906D01*
X0190650Y0131906D01*
X0190650Y0133121D02*
X0186947Y0133121D01*
X0186947Y0134972D01*
X0187564Y0135589D01*
X0188798Y0135589D01*
X0189416Y0134972D01*
X0189416Y0133121D01*
X0189416Y0134355D02*
X0190650Y0135589D01*
X0190033Y0136804D02*
X0188798Y0136804D01*
X0188181Y0137421D01*
X0188181Y0138655D01*
X0188798Y0139272D01*
X0189416Y0139272D01*
X0189416Y0136804D01*
X0190033Y0136804D02*
X0190650Y0137421D01*
X0190650Y0138655D01*
X0190650Y0141104D02*
X0187564Y0141104D01*
X0186947Y0141721D01*
X0188798Y0141721D02*
X0188798Y0140487D01*
X0188798Y0131906D02*
X0188798Y0129437D01*
X0188181Y0129437D02*
X0186947Y0130672D01*
X0188181Y0129437D02*
X0190650Y0129437D01*
X0176650Y0141555D02*
X0176033Y0140937D01*
X0173564Y0140937D01*
X0172947Y0141555D01*
X0172947Y0142789D01*
X0173564Y0143406D01*
X0174798Y0143406D02*
X0174798Y0142172D01*
X0174798Y0143406D02*
X0176033Y0143406D01*
X0176650Y0142789D01*
X0176650Y0141555D01*
X0176650Y0144621D02*
X0174181Y0144621D01*
X0174181Y0146472D01*
X0174798Y0147089D01*
X0176650Y0147089D01*
X0176033Y0148304D02*
X0174798Y0148304D01*
X0174181Y0148921D01*
X0174181Y0150772D01*
X0172947Y0150772D02*
X0176650Y0150772D01*
X0176650Y0148921D01*
X0176033Y0148304D01*
X0186947Y0154305D02*
X0190650Y0154305D01*
X0190650Y0153071D02*
X0190650Y0155540D01*
X0190033Y0156754D02*
X0190650Y0157371D01*
X0190650Y0158606D01*
X0190033Y0159223D01*
X0189416Y0159223D01*
X0188798Y0158606D01*
X0188798Y0157989D01*
X0188798Y0158606D02*
X0188181Y0159223D01*
X0187564Y0159223D01*
X0186947Y0158606D01*
X0186947Y0157371D01*
X0187564Y0156754D01*
X0186947Y0154305D02*
X0188181Y0153071D01*
X0193759Y0161854D02*
X0193759Y0165494D01*
X0193759Y0163674D02*
X0196186Y0163674D01*
X0197384Y0163674D02*
X0198597Y0164281D01*
X0199204Y0164281D01*
X0199811Y0163674D01*
X0199811Y0162460D01*
X0199204Y0161854D01*
X0197991Y0161854D01*
X0197384Y0162460D01*
X0197384Y0163674D02*
X0197384Y0165494D01*
X0199811Y0165494D01*
X0196186Y0165494D02*
X0196186Y0161854D01*
X0190650Y0163071D02*
X0190650Y0165540D01*
X0190650Y0166754D02*
X0188181Y0169223D01*
X0187564Y0169223D01*
X0186947Y0168606D01*
X0186947Y0167371D01*
X0187564Y0166754D01*
X0186947Y0164305D02*
X0190650Y0164305D01*
X0190650Y0166754D02*
X0190650Y0169223D01*
X0190650Y0173071D02*
X0190650Y0175540D01*
X0190650Y0176754D02*
X0190650Y0179223D01*
X0190650Y0177989D02*
X0186947Y0177989D01*
X0188181Y0176754D01*
X0186947Y0174305D02*
X0190650Y0174305D01*
X0188181Y0173071D02*
X0186947Y0174305D01*
X0188181Y0183071D02*
X0186947Y0184305D01*
X0190650Y0184305D01*
X0190650Y0183071D02*
X0190650Y0185540D01*
X0190033Y0186754D02*
X0187564Y0189223D01*
X0190033Y0189223D01*
X0190650Y0188606D01*
X0190650Y0187371D01*
X0190033Y0186754D01*
X0187564Y0186754D01*
X0186947Y0187371D01*
X0186947Y0188606D01*
X0187564Y0189223D01*
X0187564Y0194754D02*
X0188181Y0194754D01*
X0188798Y0195371D01*
X0188798Y0197223D01*
X0187564Y0197223D02*
X0190033Y0197223D01*
X0190650Y0196606D01*
X0190650Y0195371D01*
X0190033Y0194754D01*
X0187564Y0194754D02*
X0186947Y0195371D01*
X0186947Y0196606D01*
X0187564Y0197223D01*
X0176650Y0197747D02*
X0176033Y0197130D01*
X0173564Y0197130D01*
X0172947Y0197747D01*
X0172947Y0198982D01*
X0173564Y0199599D01*
X0176033Y0199599D01*
X0176650Y0198982D01*
X0176650Y0197747D01*
X0172947Y0195916D02*
X0176650Y0193447D01*
X0176650Y0192226D02*
X0176650Y0190992D01*
X0176650Y0191609D02*
X0172947Y0191609D01*
X0172947Y0190992D02*
X0172947Y0192226D01*
X0172947Y0185470D02*
X0176650Y0185470D01*
X0176650Y0184853D02*
X0176650Y0186087D01*
X0176650Y0183639D02*
X0176650Y0181787D01*
X0176033Y0181170D01*
X0175416Y0181787D01*
X0175416Y0183639D01*
X0174798Y0183639D02*
X0176650Y0183639D01*
X0174798Y0183639D02*
X0174181Y0183022D01*
X0174181Y0181787D01*
X0174181Y0179949D02*
X0174181Y0178715D01*
X0173564Y0179332D02*
X0176033Y0179332D01*
X0176650Y0179949D01*
X0176650Y0177494D02*
X0176650Y0176259D01*
X0176650Y0176876D02*
X0174181Y0176876D01*
X0174181Y0176259D01*
X0174181Y0175045D02*
X0174181Y0173193D01*
X0174798Y0172576D01*
X0176033Y0172576D01*
X0176650Y0173193D01*
X0176650Y0175045D01*
X0177267Y0175045D02*
X0174181Y0175045D01*
X0172947Y0176876D02*
X0172330Y0176876D01*
X0177267Y0175045D02*
X0177884Y0174428D01*
X0177884Y0173810D01*
X0176650Y0171355D02*
X0176650Y0170121D01*
X0176650Y0170738D02*
X0174181Y0170738D01*
X0174181Y0170121D01*
X0173564Y0168906D02*
X0172947Y0168289D01*
X0172947Y0166437D01*
X0176650Y0166437D01*
X0176650Y0168289D01*
X0176033Y0168906D01*
X0173564Y0168906D01*
X0172947Y0170738D02*
X0172330Y0170738D01*
X0186947Y0164305D02*
X0188181Y0163071D01*
X0172947Y0184853D02*
X0172947Y0185470D01*
X0187564Y0204754D02*
X0188181Y0204754D01*
X0188798Y0205371D01*
X0188798Y0206606D01*
X0189416Y0207223D01*
X0190033Y0207223D01*
X0190650Y0206606D01*
X0190650Y0205371D01*
X0190033Y0204754D01*
X0189416Y0204754D01*
X0188798Y0205371D01*
X0188798Y0206606D02*
X0188181Y0207223D01*
X0187564Y0207223D01*
X0186947Y0206606D01*
X0186947Y0205371D01*
X0187564Y0204754D01*
X0186947Y0220754D02*
X0186947Y0223223D01*
X0187564Y0223223D01*
X0190033Y0220754D01*
X0190650Y0220754D01*
X0190033Y0230754D02*
X0190650Y0231371D01*
X0190650Y0232606D01*
X0190033Y0233223D01*
X0189416Y0233223D01*
X0188798Y0232606D01*
X0188798Y0230754D01*
X0190033Y0230754D01*
X0188798Y0230754D02*
X0187564Y0231989D01*
X0186947Y0233223D01*
X0186947Y0240754D02*
X0188798Y0240754D01*
X0188181Y0241989D01*
X0188181Y0242606D01*
X0188798Y0243223D01*
X0190033Y0243223D01*
X0190650Y0242606D01*
X0190650Y0241371D01*
X0190033Y0240754D01*
X0186947Y0240754D02*
X0186947Y0243223D01*
X0188798Y0250754D02*
X0186947Y0252606D01*
X0190650Y0252606D01*
X0188798Y0253223D02*
X0188798Y0250754D01*
X0193759Y0256854D02*
X0193759Y0260494D01*
X0193759Y0258674D02*
X0196186Y0258674D01*
X0197384Y0258674D02*
X0199811Y0258674D01*
X0199204Y0260494D02*
X0197384Y0258674D01*
X0196186Y0260494D02*
X0196186Y0256854D01*
X0199204Y0256854D02*
X0199204Y0260494D01*
X0190650Y0261371D02*
X0190033Y0260754D01*
X0190650Y0261371D02*
X0190650Y0262606D01*
X0190033Y0263223D01*
X0189416Y0263223D01*
X0188798Y0262606D01*
X0188798Y0261989D01*
X0188798Y0262606D02*
X0188181Y0263223D01*
X0187564Y0263223D01*
X0186947Y0262606D01*
X0186947Y0261371D01*
X0187564Y0260754D01*
X0176650Y0260853D02*
X0176650Y0262087D01*
X0176650Y0261470D02*
X0172947Y0261470D01*
X0172947Y0260853D01*
X0174181Y0259022D02*
X0174798Y0259639D01*
X0176650Y0259639D01*
X0176650Y0257787D01*
X0176033Y0257170D01*
X0175416Y0257787D01*
X0175416Y0259639D01*
X0174181Y0259022D02*
X0174181Y0257787D01*
X0174181Y0255949D02*
X0174181Y0254715D01*
X0173564Y0255332D02*
X0176033Y0255332D01*
X0176650Y0255949D01*
X0176650Y0253494D02*
X0176650Y0252259D01*
X0176650Y0252876D02*
X0174181Y0252876D01*
X0174181Y0252259D01*
X0174181Y0251045D02*
X0174181Y0249193D01*
X0174798Y0248576D01*
X0176033Y0248576D01*
X0176650Y0249193D01*
X0176650Y0251045D01*
X0177267Y0251045D02*
X0174181Y0251045D01*
X0172947Y0252876D02*
X0172330Y0252876D01*
X0177267Y0251045D02*
X0177884Y0250428D01*
X0177884Y0249810D01*
X0176650Y0247355D02*
X0176650Y0246121D01*
X0176650Y0246738D02*
X0174181Y0246738D01*
X0174181Y0246121D01*
X0173564Y0244906D02*
X0172947Y0244289D01*
X0172947Y0242437D01*
X0176650Y0242437D01*
X0176650Y0244289D01*
X0176033Y0244906D01*
X0173564Y0244906D01*
X0172947Y0246738D02*
X0172330Y0246738D01*
X0172947Y0266992D02*
X0172947Y0268226D01*
X0172947Y0267609D02*
X0176650Y0267609D01*
X0176650Y0266992D02*
X0176650Y0268226D01*
X0176650Y0269447D02*
X0172947Y0271916D01*
X0173564Y0273130D02*
X0176033Y0273130D01*
X0176650Y0273747D01*
X0176650Y0274982D01*
X0176033Y0275599D01*
X0173564Y0275599D01*
X0172947Y0274982D01*
X0172947Y0273747D01*
X0173564Y0273130D01*
X0169087Y0278401D02*
X0165447Y0278401D01*
X0165447Y0280221D01*
X0166054Y0280827D01*
X0167267Y0280827D01*
X0167874Y0280221D01*
X0167874Y0278401D01*
X0167874Y0279614D02*
X0169087Y0280827D01*
X0169087Y0282026D02*
X0169087Y0284452D01*
X0169087Y0285651D02*
X0169087Y0288078D01*
X0169087Y0286864D02*
X0165447Y0286864D01*
X0166660Y0285651D01*
X0165447Y0283239D02*
X0169087Y0283239D01*
X0166660Y0282026D02*
X0165447Y0283239D01*
X0186947Y0281989D02*
X0190650Y0281989D01*
X0190650Y0283223D02*
X0190650Y0280754D01*
X0188181Y0280754D02*
X0186947Y0281989D01*
X0187564Y0290754D02*
X0186947Y0291371D01*
X0186947Y0292606D01*
X0187564Y0293223D01*
X0190033Y0290754D01*
X0190650Y0291371D01*
X0190650Y0292606D01*
X0190033Y0293223D01*
X0187564Y0293223D01*
X0187564Y0290754D02*
X0190033Y0290754D01*
X0190502Y0300776D02*
X0188075Y0300776D01*
X0189288Y0300776D02*
X0189288Y0304416D01*
X0188075Y0303203D01*
X0186877Y0304416D02*
X0184450Y0304416D01*
X0185663Y0304416D02*
X0185663Y0300776D01*
X0175150Y0318276D02*
X0171510Y0318276D01*
X0171510Y0321901D02*
X0175150Y0321901D01*
X0175150Y0324328D01*
X0175150Y0325526D02*
X0175150Y0327346D01*
X0174543Y0327953D01*
X0172117Y0327953D01*
X0171510Y0327346D01*
X0171510Y0325526D01*
X0175150Y0325526D01*
X0173330Y0323114D02*
X0173330Y0321901D01*
X0171510Y0321901D02*
X0171510Y0324328D01*
X0172723Y0329151D02*
X0171510Y0330365D01*
X0175150Y0330365D01*
X0175150Y0331578D02*
X0175150Y0329151D01*
X0175150Y0320703D02*
X0175150Y0318276D01*
X0207010Y0308846D02*
X0207617Y0309453D01*
X0208223Y0309453D01*
X0208830Y0308846D01*
X0209437Y0309453D01*
X0210043Y0309453D01*
X0210650Y0308846D01*
X0210650Y0307633D01*
X0210043Y0307026D01*
X0210650Y0305828D02*
X0210650Y0303401D01*
X0210650Y0302203D02*
X0209437Y0300989D01*
X0209437Y0301596D02*
X0209437Y0299776D01*
X0210650Y0299776D02*
X0207010Y0299776D01*
X0207010Y0301596D01*
X0207617Y0302203D01*
X0208830Y0302203D01*
X0209437Y0301596D01*
X0208223Y0303401D02*
X0207010Y0304614D01*
X0210650Y0304614D01*
X0207617Y0307026D02*
X0207010Y0307633D01*
X0207010Y0308846D01*
X0208830Y0308846D02*
X0208830Y0308240D01*
X0207947Y0313401D02*
X0207947Y0315221D01*
X0208554Y0315827D01*
X0209767Y0315827D01*
X0210374Y0315221D01*
X0210374Y0313401D01*
X0210374Y0314614D02*
X0211587Y0315827D01*
X0211587Y0317026D02*
X0211587Y0319452D01*
X0211587Y0318239D02*
X0207947Y0318239D01*
X0209160Y0317026D01*
X0209767Y0320651D02*
X0209767Y0323078D01*
X0211587Y0322471D02*
X0207947Y0322471D01*
X0209767Y0320651D01*
X0211587Y0313401D02*
X0207947Y0313401D01*
X0225754Y0318525D02*
X0229394Y0318525D01*
X0229394Y0320952D01*
X0229394Y0322150D02*
X0229394Y0324577D01*
X0229394Y0325775D02*
X0229394Y0327595D01*
X0228787Y0328202D01*
X0226360Y0328202D01*
X0225754Y0327595D01*
X0225754Y0325775D01*
X0229394Y0325775D01*
X0227574Y0323363D02*
X0227574Y0322150D01*
X0225754Y0322150D02*
X0229394Y0322150D01*
X0225754Y0322150D02*
X0225754Y0324577D01*
X0237596Y0320799D02*
X0237596Y0318372D01*
X0238203Y0317765D01*
X0239416Y0317765D01*
X0240023Y0318372D01*
X0241222Y0318372D02*
X0241222Y0318979D01*
X0241828Y0319585D01*
X0243042Y0319585D01*
X0243648Y0318979D01*
X0243648Y0318372D01*
X0243042Y0317765D01*
X0241828Y0317765D01*
X0241222Y0318372D01*
X0241828Y0319585D02*
X0241222Y0320192D01*
X0241222Y0320799D01*
X0241828Y0321405D01*
X0243042Y0321405D01*
X0243648Y0320799D01*
X0243648Y0320192D01*
X0243042Y0319585D01*
X0240023Y0320799D02*
X0239416Y0321405D01*
X0238203Y0321405D01*
X0237596Y0320799D01*
X0254123Y0300836D02*
X0253516Y0300230D01*
X0253516Y0297803D01*
X0254123Y0297196D01*
X0255336Y0297196D01*
X0255943Y0297803D01*
X0257141Y0299016D02*
X0259568Y0299016D01*
X0258961Y0297196D02*
X0258961Y0300836D01*
X0257141Y0299016D01*
X0255943Y0300230D02*
X0255336Y0300836D01*
X0254123Y0300836D01*
X0221861Y0290563D02*
X0221254Y0290563D01*
X0218827Y0292990D01*
X0218221Y0292990D01*
X0218221Y0290563D01*
X0218827Y0289365D02*
X0220041Y0289365D01*
X0220647Y0288758D01*
X0220647Y0286938D01*
X0220647Y0288151D02*
X0221861Y0289365D01*
X0221861Y0286938D02*
X0218221Y0286938D01*
X0218221Y0288758D01*
X0218827Y0289365D01*
X0190650Y0273223D02*
X0190650Y0270754D01*
X0188181Y0273223D01*
X0187564Y0273223D01*
X0186947Y0272606D01*
X0186947Y0271371D01*
X0187564Y0270754D01*
X0208450Y0224491D02*
X0210270Y0224491D01*
X0210877Y0223884D01*
X0210877Y0222671D01*
X0210270Y0222064D01*
X0208450Y0222064D01*
X0208450Y0220851D02*
X0208450Y0224491D01*
X0209663Y0222064D02*
X0210877Y0220851D01*
X0212075Y0221457D02*
X0212682Y0220851D01*
X0213895Y0220851D01*
X0214502Y0221457D01*
X0214502Y0222671D01*
X0213895Y0223278D01*
X0213288Y0223278D01*
X0212075Y0222671D01*
X0212075Y0224491D01*
X0214502Y0224491D01*
X0213288Y0208940D02*
X0213288Y0205300D01*
X0212075Y0205300D02*
X0214502Y0205300D01*
X0215700Y0205906D02*
X0216307Y0205300D01*
X0217520Y0205300D01*
X0218127Y0205906D01*
X0218127Y0206513D01*
X0217520Y0207120D01*
X0215700Y0207120D01*
X0215700Y0205906D01*
X0215700Y0207120D02*
X0216914Y0208333D01*
X0218127Y0208940D01*
X0213288Y0208940D02*
X0212075Y0207726D01*
X0210877Y0207120D02*
X0210877Y0208333D01*
X0210270Y0208940D01*
X0208450Y0208940D01*
X0208450Y0205300D01*
X0208450Y0206513D02*
X0210270Y0206513D01*
X0210877Y0207120D01*
X0209663Y0206513D02*
X0210877Y0205300D01*
X0210270Y0197916D02*
X0210877Y0197309D01*
X0210877Y0196096D01*
X0210270Y0195489D01*
X0208450Y0195489D01*
X0208450Y0194276D02*
X0208450Y0197916D01*
X0210270Y0197916D01*
X0212075Y0196703D02*
X0213288Y0197916D01*
X0213288Y0194276D01*
X0212075Y0194276D02*
X0214502Y0194276D01*
X0215700Y0194276D02*
X0215700Y0194883D01*
X0218127Y0197309D01*
X0218127Y0197916D01*
X0215700Y0197916D01*
X0210877Y0194276D02*
X0209663Y0195489D01*
X0250450Y0213048D02*
X0251057Y0212441D01*
X0252270Y0212441D01*
X0252877Y0213048D01*
X0252877Y0215475D01*
X0252270Y0216082D01*
X0251057Y0216082D01*
X0250450Y0215475D01*
X0250450Y0213048D01*
X0251664Y0213655D02*
X0252877Y0212441D01*
X0254075Y0212441D02*
X0256502Y0212441D01*
X0255289Y0212441D02*
X0255289Y0216082D01*
X0254075Y0214868D01*
X0289576Y0206467D02*
X0289576Y0205254D01*
X0290183Y0204647D01*
X0290790Y0204647D01*
X0291396Y0205254D01*
X0291396Y0207074D01*
X0290183Y0207074D02*
X0289576Y0206467D01*
X0290183Y0207074D02*
X0292610Y0207074D01*
X0293216Y0206467D01*
X0293216Y0205254D01*
X0292610Y0204647D01*
X0292610Y0203449D02*
X0293216Y0202842D01*
X0293216Y0201629D01*
X0292610Y0201022D01*
X0290183Y0201022D01*
X0289576Y0201629D01*
X0289576Y0202842D01*
X0290183Y0203449D01*
X0305447Y0215901D02*
X0305447Y0217721D01*
X0306054Y0218327D01*
X0307267Y0218327D01*
X0307874Y0217721D01*
X0307874Y0215901D01*
X0307874Y0217114D02*
X0309087Y0218327D01*
X0309087Y0219526D02*
X0309087Y0221952D01*
X0309087Y0223151D02*
X0306660Y0225578D01*
X0306054Y0225578D01*
X0305447Y0224971D01*
X0305447Y0223758D01*
X0306054Y0223151D01*
X0305447Y0220739D02*
X0309087Y0220739D01*
X0309087Y0223151D02*
X0309087Y0225578D01*
X0305447Y0220739D02*
X0306660Y0219526D01*
X0305447Y0215901D02*
X0309087Y0215901D01*
X0315191Y0215944D02*
X0315191Y0217764D01*
X0315798Y0218371D01*
X0317011Y0218371D01*
X0317618Y0217764D01*
X0317618Y0215944D01*
X0318831Y0215944D02*
X0315191Y0215944D01*
X0317618Y0217157D02*
X0318831Y0218371D01*
X0318831Y0219569D02*
X0318831Y0221996D01*
X0318831Y0220782D02*
X0315191Y0220782D01*
X0316404Y0219569D01*
X0315798Y0223194D02*
X0315191Y0223801D01*
X0315191Y0225014D01*
X0315798Y0225621D01*
X0318224Y0223194D01*
X0318831Y0223801D01*
X0318831Y0225014D01*
X0318224Y0225621D01*
X0315798Y0225621D01*
X0315798Y0223194D02*
X0318224Y0223194D01*
X0319325Y0204105D02*
X0319325Y0202285D01*
X0320538Y0202892D01*
X0321145Y0202892D01*
X0321752Y0202285D01*
X0321752Y0201072D01*
X0321145Y0200465D01*
X0319932Y0200465D01*
X0319325Y0201072D01*
X0318126Y0200465D02*
X0315700Y0200465D01*
X0314501Y0200465D02*
X0313288Y0201678D01*
X0313895Y0201678D02*
X0312075Y0201678D01*
X0312075Y0200465D02*
X0312075Y0204105D01*
X0313895Y0204105D01*
X0314501Y0203498D01*
X0314501Y0202285D01*
X0313895Y0201678D01*
X0315700Y0202892D02*
X0316913Y0204105D01*
X0316913Y0200465D01*
X0319325Y0204105D02*
X0321752Y0204105D01*
X0337449Y0202979D02*
X0337449Y0199339D01*
X0337449Y0200552D02*
X0339269Y0200552D01*
X0339876Y0201159D01*
X0339876Y0202372D01*
X0339269Y0202979D01*
X0337449Y0202979D01*
X0341075Y0202979D02*
X0341075Y0199339D01*
X0341075Y0201159D02*
X0342288Y0201159D01*
X0341075Y0202979D02*
X0343501Y0202979D01*
X0344700Y0202979D02*
X0344700Y0199339D01*
X0347126Y0199339D01*
X0345913Y0201159D02*
X0344700Y0201159D01*
X0344700Y0202979D02*
X0347126Y0202979D01*
X0348325Y0202979D02*
X0350752Y0202979D01*
X0349538Y0202979D02*
X0349538Y0199339D01*
X0353759Y0190494D02*
X0353759Y0186854D01*
X0353759Y0188674D02*
X0356186Y0188674D01*
X0357384Y0189887D02*
X0357991Y0190494D01*
X0359204Y0190494D01*
X0359811Y0189887D01*
X0359811Y0189281D01*
X0359204Y0188674D01*
X0359811Y0188067D01*
X0359811Y0187460D01*
X0359204Y0186854D01*
X0357991Y0186854D01*
X0357384Y0187460D01*
X0356186Y0186854D02*
X0356186Y0190494D01*
X0358597Y0188674D02*
X0359204Y0188674D01*
X0362947Y0189757D02*
X0362947Y0192226D01*
X0364181Y0191609D02*
X0364798Y0192226D01*
X0366033Y0192226D01*
X0366650Y0191609D01*
X0366650Y0190375D01*
X0366033Y0189757D01*
X0364798Y0189757D02*
X0364181Y0190992D01*
X0364181Y0191609D01*
X0364181Y0193441D02*
X0366650Y0194675D01*
X0364181Y0195909D01*
X0364798Y0189757D02*
X0362947Y0189757D01*
X0364181Y0184909D02*
X0366650Y0183675D01*
X0364181Y0182441D01*
X0364181Y0181226D02*
X0364798Y0180609D01*
X0365416Y0181226D01*
X0366033Y0181226D01*
X0366650Y0180609D01*
X0366650Y0179375D01*
X0366033Y0178757D01*
X0364798Y0179992D02*
X0364798Y0180609D01*
X0364181Y0181226D02*
X0363564Y0181226D01*
X0362947Y0180609D01*
X0362947Y0179375D01*
X0363564Y0178757D01*
X0364181Y0165888D02*
X0364181Y0165271D01*
X0365416Y0164036D01*
X0366650Y0164036D02*
X0364181Y0164036D01*
X0363564Y0162822D02*
X0366033Y0162822D01*
X0366650Y0162205D01*
X0366650Y0160970D01*
X0366033Y0160353D01*
X0363564Y0160353D01*
X0362947Y0160970D01*
X0362947Y0162205D01*
X0363564Y0162822D01*
X0362947Y0159132D02*
X0362947Y0157898D01*
X0362947Y0158515D02*
X0366650Y0158515D01*
X0366650Y0157898D02*
X0366650Y0159132D01*
X0376947Y0166898D02*
X0376947Y0168749D01*
X0377564Y0169366D01*
X0378798Y0169366D01*
X0379416Y0168749D01*
X0379416Y0166898D01*
X0380650Y0166898D02*
X0376947Y0166898D01*
X0379416Y0168132D02*
X0380650Y0169366D01*
X0380033Y0170581D02*
X0380650Y0171198D01*
X0380650Y0172432D01*
X0380033Y0173050D01*
X0379416Y0173050D01*
X0378798Y0172432D01*
X0378798Y0171198D01*
X0378181Y0170581D01*
X0377564Y0170581D01*
X0376947Y0171198D01*
X0376947Y0172432D01*
X0377564Y0173050D01*
X0376947Y0174264D02*
X0376947Y0176733D01*
X0376947Y0175498D02*
X0380650Y0175498D01*
X0366033Y0202477D02*
X0363564Y0202477D01*
X0362947Y0203094D01*
X0362947Y0204329D01*
X0363564Y0204946D01*
X0364798Y0204946D02*
X0364798Y0203712D01*
X0364798Y0204946D02*
X0366033Y0204946D01*
X0366650Y0204329D01*
X0366650Y0203094D01*
X0366033Y0202477D01*
X0366650Y0206160D02*
X0364181Y0206160D01*
X0364181Y0208012D01*
X0364798Y0208629D01*
X0366650Y0208629D01*
X0366033Y0209843D02*
X0364798Y0209843D01*
X0364181Y0210461D01*
X0364181Y0212312D01*
X0362947Y0212312D02*
X0366650Y0212312D01*
X0366650Y0210461D01*
X0366033Y0209843D01*
X0365416Y0218257D02*
X0362947Y0218257D01*
X0365416Y0218257D02*
X0366650Y0219492D01*
X0365416Y0220726D01*
X0362947Y0220726D01*
X0364181Y0221941D02*
X0364181Y0222558D01*
X0366650Y0222558D01*
X0366650Y0221941D02*
X0366650Y0223175D01*
X0366650Y0224396D02*
X0364181Y0224396D01*
X0364181Y0226248D01*
X0364798Y0226865D01*
X0366650Y0226865D01*
X0362947Y0222558D02*
X0362330Y0222558D01*
X0363564Y0240437D02*
X0362947Y0241055D01*
X0362947Y0242289D01*
X0363564Y0242906D01*
X0366033Y0240437D01*
X0366650Y0241055D01*
X0366650Y0242289D01*
X0366033Y0242906D01*
X0363564Y0242906D01*
X0363564Y0240437D02*
X0366033Y0240437D01*
X0366650Y0250437D02*
X0366650Y0252906D01*
X0366650Y0251672D02*
X0362947Y0251672D01*
X0364181Y0250437D01*
X0363564Y0260437D02*
X0362947Y0261055D01*
X0362947Y0262289D01*
X0363564Y0262906D01*
X0364181Y0262906D01*
X0366650Y0260437D01*
X0366650Y0262906D01*
X0359811Y0266854D02*
X0357384Y0266854D01*
X0356186Y0266854D02*
X0356186Y0270494D01*
X0357384Y0269281D02*
X0358597Y0270494D01*
X0358597Y0266854D01*
X0356186Y0268674D02*
X0353759Y0268674D01*
X0353759Y0266854D02*
X0353759Y0270494D01*
X0362947Y0271055D02*
X0362947Y0272289D01*
X0363564Y0272906D01*
X0364181Y0272906D01*
X0364798Y0272289D01*
X0365416Y0272906D01*
X0366033Y0272906D01*
X0366650Y0272289D01*
X0366650Y0271055D01*
X0366033Y0270437D01*
X0364798Y0271672D02*
X0364798Y0272289D01*
X0362947Y0271055D02*
X0363564Y0270437D01*
X0364798Y0280437D02*
X0364798Y0282906D01*
X0362947Y0282289D02*
X0366650Y0282289D01*
X0364798Y0280437D02*
X0362947Y0282289D01*
X0362947Y0290437D02*
X0364798Y0290437D01*
X0364181Y0291672D01*
X0364181Y0292289D01*
X0364798Y0292906D01*
X0366033Y0292906D01*
X0366650Y0292289D01*
X0366650Y0291055D01*
X0366033Y0290437D01*
X0362947Y0290437D02*
X0362947Y0292906D01*
X0377361Y0283838D02*
X0377978Y0284456D01*
X0379830Y0284456D01*
X0379830Y0281987D02*
X0377361Y0281987D01*
X0377361Y0283838D01*
X0376127Y0280766D02*
X0376127Y0279531D01*
X0376127Y0280149D02*
X0379830Y0280149D01*
X0379830Y0280766D02*
X0379830Y0279531D01*
X0379830Y0274634D02*
X0379830Y0272782D01*
X0379213Y0272165D01*
X0377978Y0272165D01*
X0377361Y0272782D01*
X0377361Y0274634D01*
X0380447Y0274634D01*
X0381064Y0274017D01*
X0381064Y0273400D01*
X0379213Y0270951D02*
X0377978Y0270951D01*
X0377361Y0270334D01*
X0377361Y0269099D01*
X0377978Y0268482D01*
X0379213Y0268482D01*
X0379830Y0269099D01*
X0379830Y0270334D01*
X0379213Y0270951D01*
X0379830Y0267261D02*
X0379830Y0266027D01*
X0379830Y0266644D02*
X0376127Y0266644D01*
X0376127Y0266027D01*
X0377361Y0264195D02*
X0377978Y0264812D01*
X0379830Y0264812D01*
X0379830Y0262961D01*
X0379213Y0262343D01*
X0378596Y0262961D01*
X0378596Y0264812D01*
X0377361Y0264195D02*
X0377361Y0262961D01*
X0377978Y0261129D02*
X0379830Y0261129D01*
X0377978Y0261129D02*
X0377361Y0260512D01*
X0377361Y0258660D01*
X0379830Y0258660D01*
X0379830Y0257446D02*
X0377361Y0257446D01*
X0376127Y0256212D01*
X0377361Y0254977D01*
X0379830Y0254977D01*
X0377978Y0254977D02*
X0377978Y0257446D01*
X0334465Y0280147D02*
X0330825Y0280147D01*
X0330825Y0281967D01*
X0331432Y0282574D01*
X0332645Y0282574D01*
X0333252Y0281967D01*
X0333252Y0280147D01*
X0333252Y0281361D02*
X0334465Y0282574D01*
X0334465Y0283772D02*
X0330825Y0283772D01*
X0330825Y0286199D01*
X0330825Y0287397D02*
X0332038Y0288611D01*
X0330825Y0289824D01*
X0334465Y0289824D01*
X0334465Y0291023D02*
X0332038Y0293449D01*
X0331432Y0293449D01*
X0330825Y0292843D01*
X0330825Y0291629D01*
X0331432Y0291023D01*
X0334465Y0291023D02*
X0334465Y0293449D01*
X0333858Y0294648D02*
X0334465Y0295254D01*
X0334465Y0296468D01*
X0333858Y0297074D01*
X0333252Y0297074D01*
X0332645Y0296468D01*
X0332645Y0295861D01*
X0332645Y0296468D02*
X0332038Y0297074D01*
X0331432Y0297074D01*
X0330825Y0296468D01*
X0330825Y0295254D01*
X0331432Y0294648D01*
X0330825Y0298273D02*
X0330825Y0300093D01*
X0331432Y0300700D01*
X0332038Y0300700D01*
X0332645Y0300093D01*
X0332645Y0298273D01*
X0332645Y0300093D02*
X0333252Y0300700D01*
X0333858Y0300700D01*
X0334465Y0300093D01*
X0334465Y0298273D01*
X0330825Y0298273D01*
X0330825Y0287397D02*
X0334465Y0287397D01*
X0332645Y0284986D02*
X0332645Y0283772D01*
X0259529Y0266310D02*
X0259529Y0265703D01*
X0257102Y0263276D01*
X0257102Y0262669D01*
X0255904Y0263276D02*
X0255297Y0262669D01*
X0254084Y0262669D01*
X0253477Y0263276D01*
X0253477Y0265703D01*
X0254084Y0266310D01*
X0255297Y0266310D01*
X0255904Y0265703D01*
X0257102Y0266310D02*
X0259529Y0266310D01*
X0291593Y0185828D02*
X0290986Y0185221D01*
X0290986Y0184008D01*
X0291593Y0183401D01*
X0292200Y0183401D01*
X0292806Y0184008D01*
X0292806Y0185828D01*
X0291593Y0185828D02*
X0294020Y0185828D01*
X0294626Y0185221D01*
X0294626Y0184008D01*
X0294020Y0183401D01*
X0294626Y0182203D02*
X0293413Y0180989D01*
X0293413Y0181596D02*
X0293413Y0179776D01*
X0294626Y0179776D02*
X0290986Y0179776D01*
X0290986Y0181596D01*
X0291593Y0182203D01*
X0292806Y0182203D01*
X0293413Y0181596D01*
X0263087Y0165478D02*
X0263087Y0163051D01*
X0260660Y0165478D01*
X0260054Y0165478D01*
X0259447Y0164871D01*
X0259447Y0163658D01*
X0260054Y0163051D01*
X0260054Y0161852D02*
X0259447Y0161246D01*
X0259447Y0160032D01*
X0260054Y0159426D01*
X0262480Y0159426D01*
X0263087Y0160032D01*
X0263087Y0161246D01*
X0262480Y0161852D01*
X0263087Y0158222D02*
X0263087Y0157009D01*
X0263087Y0157616D02*
X0259447Y0157616D01*
X0259447Y0158222D02*
X0259447Y0157009D01*
X0260146Y0120905D02*
X0260146Y0118478D01*
X0257719Y0120905D01*
X0257113Y0120905D01*
X0256506Y0120298D01*
X0256506Y0119085D01*
X0257113Y0118478D01*
X0256506Y0116066D02*
X0260146Y0116066D01*
X0260146Y0114853D02*
X0260146Y0117280D01*
X0257719Y0114853D02*
X0256506Y0116066D01*
X0257113Y0113655D02*
X0256506Y0113048D01*
X0256506Y0111835D01*
X0257113Y0111228D01*
X0259539Y0111228D01*
X0260146Y0111835D01*
X0260146Y0113048D01*
X0259539Y0113655D01*
X0244146Y0112842D02*
X0244146Y0111629D01*
X0243539Y0111022D01*
X0241112Y0111022D01*
X0240506Y0111629D01*
X0240506Y0112842D01*
X0241112Y0113449D01*
X0241719Y0114647D02*
X0240506Y0115860D01*
X0244146Y0115860D01*
X0244146Y0114647D02*
X0244146Y0117074D01*
X0243539Y0118272D02*
X0244146Y0118879D01*
X0244146Y0120092D01*
X0243539Y0120699D01*
X0241112Y0120699D01*
X0243539Y0118272D01*
X0241112Y0118272D01*
X0240506Y0118879D01*
X0240506Y0120092D01*
X0241112Y0120699D01*
X0243539Y0113449D02*
X0244146Y0112842D01*
X0283200Y0094479D02*
X0283200Y0090839D01*
X0283200Y0092052D02*
X0285020Y0092052D01*
X0285626Y0092659D01*
X0285626Y0093872D01*
X0285020Y0094479D01*
X0283200Y0094479D01*
X0284413Y0092052D02*
X0285626Y0090839D01*
X0286825Y0092659D02*
X0289252Y0092659D01*
X0288645Y0090839D02*
X0288645Y0094479D01*
X0286825Y0092659D01*
X0287592Y0077678D02*
X0286985Y0077071D01*
X0287592Y0077678D02*
X0288806Y0077678D01*
X0289412Y0077071D01*
X0289412Y0076464D01*
X0286985Y0074038D01*
X0289412Y0074038D01*
X0285787Y0074038D02*
X0283360Y0074038D01*
X0282162Y0074038D02*
X0279735Y0074038D01*
X0280949Y0074038D02*
X0280949Y0077678D01*
X0279735Y0076464D01*
X0278537Y0075858D02*
X0277930Y0075251D01*
X0276110Y0075251D01*
X0276110Y0074038D02*
X0276110Y0077678D01*
X0277930Y0077678D01*
X0278537Y0077071D01*
X0278537Y0075858D01*
X0274912Y0077678D02*
X0274912Y0074038D01*
X0272485Y0074038D02*
X0272485Y0077678D01*
X0273698Y0076464D01*
X0274912Y0077678D01*
X0271287Y0077678D02*
X0268860Y0077678D01*
X0270073Y0077678D02*
X0270073Y0074038D01*
X0283360Y0076464D02*
X0284574Y0077678D01*
X0284574Y0074038D01*
X0253150Y0055221D02*
X0253150Y0054008D01*
X0252543Y0053401D01*
X0251937Y0053401D01*
X0251330Y0054008D01*
X0251330Y0055221D01*
X0251937Y0055828D01*
X0252543Y0055828D01*
X0253150Y0055221D01*
X0251330Y0055221D02*
X0250723Y0055828D01*
X0250117Y0055828D01*
X0249510Y0055221D01*
X0249510Y0054008D01*
X0250117Y0053401D01*
X0250723Y0053401D01*
X0251330Y0054008D01*
X0251330Y0052203D02*
X0251937Y0051596D01*
X0251937Y0049776D01*
X0253150Y0049776D02*
X0249510Y0049776D01*
X0249510Y0051596D01*
X0250117Y0052203D01*
X0251330Y0052203D01*
X0251937Y0050989D02*
X0253150Y0052203D01*
X0216514Y0042967D02*
X0215907Y0042967D01*
X0164583Y0029069D02*
X0164583Y0027856D01*
X0163976Y0027249D01*
X0161550Y0027249D01*
X0160943Y0027856D01*
X0160943Y0029069D01*
X0161550Y0029676D01*
X0163976Y0029676D02*
X0164583Y0029069D01*
X0163976Y0026051D02*
X0164583Y0025444D01*
X0164583Y0024231D01*
X0163976Y0023624D01*
X0161550Y0023624D01*
X0160943Y0024231D01*
X0160943Y0025444D01*
X0161550Y0026051D01*
X0160943Y0022426D02*
X0163370Y0022426D01*
X0164583Y0021212D01*
X0163370Y0019999D01*
X0160943Y0019999D01*
X0154583Y0020317D02*
X0150943Y0020317D01*
X0152156Y0021530D01*
X0150943Y0022744D01*
X0154583Y0022744D01*
X0153976Y0023942D02*
X0154583Y0024549D01*
X0154583Y0025762D01*
X0153976Y0026369D01*
X0152763Y0026369D01*
X0152156Y0025762D01*
X0152156Y0024549D01*
X0152763Y0023942D01*
X0153976Y0023942D01*
X0144583Y0023624D02*
X0140943Y0023624D01*
X0144583Y0026051D01*
X0140943Y0026051D01*
X0140943Y0027249D02*
X0140943Y0029069D01*
X0141550Y0029676D01*
X0143976Y0029676D01*
X0144583Y0029069D01*
X0144583Y0027249D01*
X0140943Y0027249D01*
X0141550Y0022426D02*
X0140943Y0021819D01*
X0140943Y0020606D01*
X0141550Y0019999D01*
X0143976Y0019999D01*
X0144583Y0020606D01*
X0144583Y0021819D01*
X0143976Y0022426D01*
X0142763Y0022426D01*
X0142763Y0021212D01*
X0124583Y0020606D02*
X0124583Y0021819D01*
X0123976Y0022426D01*
X0122763Y0022426D01*
X0122763Y0021212D01*
X0121550Y0019999D02*
X0123976Y0019999D01*
X0124583Y0020606D01*
X0124583Y0023624D02*
X0120943Y0023624D01*
X0124583Y0026051D01*
X0120943Y0026051D01*
X0120943Y0027249D02*
X0120943Y0029069D01*
X0121550Y0029676D01*
X0123976Y0029676D01*
X0124583Y0029069D01*
X0124583Y0027249D01*
X0120943Y0027249D01*
X0121550Y0022426D02*
X0120943Y0021819D01*
X0120943Y0020606D01*
X0121550Y0019999D01*
X0114583Y0020606D02*
X0114583Y0021819D01*
X0113976Y0022426D01*
X0112763Y0022426D01*
X0112763Y0021212D01*
X0111550Y0019999D02*
X0113976Y0019999D01*
X0114583Y0020606D01*
X0114583Y0023624D02*
X0110943Y0023624D01*
X0114583Y0026051D01*
X0110943Y0026051D01*
X0110943Y0027249D02*
X0110943Y0029069D01*
X0111550Y0029676D01*
X0113976Y0029676D01*
X0114583Y0029069D01*
X0114583Y0027249D01*
X0110943Y0027249D01*
X0111550Y0022426D02*
X0110943Y0021819D01*
X0110943Y0020606D01*
X0111550Y0019999D01*
X0094583Y0021530D02*
X0090943Y0021530D01*
X0090943Y0020317D02*
X0090943Y0022744D01*
X0090943Y0023942D02*
X0094583Y0026369D01*
X0094583Y0023942D02*
X0090943Y0026369D01*
X0084583Y0027038D02*
X0080943Y0024611D01*
X0081550Y0023413D02*
X0082763Y0023413D01*
X0083370Y0022806D01*
X0083370Y0020986D01*
X0084583Y0020986D02*
X0080943Y0020986D01*
X0080943Y0022806D01*
X0081550Y0023413D01*
X0083370Y0022200D02*
X0084583Y0023413D01*
X0084583Y0024611D02*
X0080943Y0027038D01*
X0150541Y0093270D02*
X0151147Y0092663D01*
X0153574Y0092663D01*
X0154181Y0093270D01*
X0154181Y0094483D01*
X0153574Y0095090D01*
X0154181Y0096288D02*
X0154181Y0098715D01*
X0154181Y0097502D02*
X0150541Y0097502D01*
X0151754Y0096288D01*
X0151147Y0095090D02*
X0150541Y0094483D01*
X0150541Y0093270D01*
X0149865Y0117107D02*
X0152899Y0117107D01*
X0153506Y0117714D01*
X0153506Y0118927D01*
X0152899Y0119534D01*
X0149865Y0119534D01*
X0151079Y0120732D02*
X0149865Y0121946D01*
X0153506Y0121946D01*
X0153506Y0123159D02*
X0153506Y0120732D01*
X0152620Y0137746D02*
X0150193Y0137746D01*
X0149586Y0138352D01*
X0149586Y0139566D01*
X0150193Y0140172D01*
X0150193Y0141371D02*
X0149586Y0141977D01*
X0149586Y0143191D01*
X0150193Y0143797D01*
X0150800Y0143797D01*
X0153226Y0141371D01*
X0153226Y0143797D01*
X0152620Y0140172D02*
X0153226Y0139566D01*
X0153226Y0138352D01*
X0152620Y0137746D01*
X0079811Y0129887D02*
X0079811Y0129281D01*
X0079204Y0128674D01*
X0077991Y0128674D01*
X0077384Y0129281D01*
X0077384Y0129887D01*
X0077991Y0130494D01*
X0079204Y0130494D01*
X0079811Y0129887D01*
X0079204Y0128674D02*
X0079811Y0128067D01*
X0079811Y0127460D01*
X0079204Y0126854D01*
X0077991Y0126854D01*
X0077384Y0127460D01*
X0077384Y0128067D01*
X0077991Y0128674D01*
X0076186Y0129887D02*
X0073759Y0127460D01*
X0074366Y0126854D01*
X0075579Y0126854D01*
X0076186Y0127460D01*
X0076186Y0129887D01*
X0075579Y0130494D01*
X0074366Y0130494D01*
X0073759Y0129887D01*
X0073759Y0127460D01*
X0072560Y0126854D02*
X0070134Y0126854D01*
X0072560Y0129281D01*
X0072560Y0129887D01*
X0071954Y0130494D01*
X0070740Y0130494D01*
X0070134Y0129887D01*
X0067722Y0130494D02*
X0067722Y0126854D01*
X0066509Y0126854D02*
X0068935Y0126854D01*
X0066509Y0129281D02*
X0067722Y0130494D01*
X0065310Y0130494D02*
X0062883Y0130494D01*
X0062883Y0128674D01*
X0064097Y0129281D01*
X0064703Y0129281D01*
X0065310Y0128674D01*
X0065310Y0127460D01*
X0064703Y0126854D01*
X0063490Y0126854D01*
X0062883Y0127460D01*
X0061685Y0126854D02*
X0059258Y0126854D01*
X0060472Y0126854D02*
X0060472Y0130494D01*
X0059258Y0129281D01*
X0058060Y0129887D02*
X0055633Y0127460D01*
X0056240Y0126854D01*
X0057453Y0126854D01*
X0058060Y0127460D01*
X0058060Y0129887D01*
X0057453Y0130494D01*
X0056240Y0130494D01*
X0055633Y0129887D01*
X0055633Y0127460D01*
X0054435Y0126854D02*
X0052008Y0126854D01*
X0054435Y0129281D01*
X0054435Y0129887D01*
X0053828Y0130494D01*
X0052615Y0130494D01*
X0052008Y0129887D01*
X0123510Y0303854D02*
X0123510Y0305674D01*
X0124117Y0306281D01*
X0125330Y0306281D01*
X0125937Y0305674D01*
X0125937Y0303854D01*
X0127150Y0303854D02*
X0123510Y0303854D01*
X0125937Y0305068D02*
X0127150Y0306281D01*
X0127150Y0307479D02*
X0123510Y0307479D01*
X0123510Y0309906D01*
X0123510Y0311104D02*
X0127150Y0311104D01*
X0127150Y0313531D01*
X0127150Y0314730D02*
X0127150Y0317156D01*
X0127150Y0315943D02*
X0123510Y0315943D01*
X0124723Y0314730D01*
X0127150Y0309906D02*
X0127150Y0307479D01*
X0125330Y0307479D02*
X0125330Y0308693D01*
X0344131Y0164436D02*
X0344131Y0160796D01*
X0344131Y0162009D02*
X0345951Y0162009D01*
X0346558Y0162616D01*
X0346558Y0163830D01*
X0345951Y0164436D01*
X0344131Y0164436D01*
X0345344Y0162009D02*
X0346558Y0160796D01*
X0347756Y0160796D02*
X0350183Y0163223D01*
X0350183Y0163830D01*
X0349576Y0164436D01*
X0348363Y0164436D01*
X0347756Y0163830D01*
X0347756Y0160796D02*
X0350183Y0160796D01*
X0365333Y0079292D02*
X0365333Y0076865D01*
X0365333Y0075667D02*
X0368973Y0075667D01*
X0367153Y0075667D02*
X0367153Y0073240D01*
X0367153Y0072042D02*
X0367760Y0071435D01*
X0367760Y0069615D01*
X0368973Y0069615D02*
X0365333Y0069615D01*
X0365333Y0071435D01*
X0365940Y0072042D01*
X0367153Y0072042D01*
X0368973Y0073240D02*
X0365333Y0073240D01*
X0365333Y0078078D02*
X0368973Y0078078D01*
X0351752Y0064479D02*
X0350538Y0063872D01*
X0349325Y0062659D01*
X0351145Y0062659D01*
X0351752Y0062052D01*
X0351752Y0061446D01*
X0351145Y0060839D01*
X0349932Y0060839D01*
X0349325Y0061446D01*
X0349325Y0062659D01*
X0348126Y0062659D02*
X0347520Y0062052D01*
X0345700Y0062052D01*
X0345700Y0060839D02*
X0345700Y0064479D01*
X0347520Y0064479D01*
X0348126Y0063872D01*
X0348126Y0062659D01*
X0346913Y0062052D02*
X0348126Y0060839D01*
D11*
X0395501Y0018126D02*
X0001800Y0018126D01*
X0001800Y0333087D01*
X0395501Y0333087D01*
X0395501Y0018126D01*
X0226800Y0048126D02*
X0179300Y0048126D01*
D12*
X0001209Y0175606D02*
X0001211Y0175759D01*
X0001217Y0175913D01*
X0001227Y0176066D01*
X0001241Y0176218D01*
X0001259Y0176371D01*
X0001281Y0176522D01*
X0001306Y0176673D01*
X0001336Y0176824D01*
X0001370Y0176974D01*
X0001407Y0177122D01*
X0001448Y0177270D01*
X0001493Y0177416D01*
X0001542Y0177562D01*
X0001595Y0177706D01*
X0001651Y0177848D01*
X0001711Y0177989D01*
X0001775Y0178129D01*
X0001842Y0178267D01*
X0001913Y0178403D01*
X0001988Y0178537D01*
X0002065Y0178669D01*
X0002147Y0178799D01*
X0002231Y0178927D01*
X0002319Y0179053D01*
X0002410Y0179176D01*
X0002504Y0179297D01*
X0002602Y0179415D01*
X0002702Y0179531D01*
X0002806Y0179644D01*
X0002912Y0179755D01*
X0003021Y0179863D01*
X0003133Y0179968D01*
X0003247Y0180069D01*
X0003365Y0180168D01*
X0003484Y0180264D01*
X0003606Y0180357D01*
X0003731Y0180446D01*
X0003858Y0180533D01*
X0003987Y0180615D01*
X0004118Y0180695D01*
X0004251Y0180771D01*
X0004386Y0180844D01*
X0004523Y0180913D01*
X0004662Y0180978D01*
X0004802Y0181040D01*
X0004944Y0181098D01*
X0005087Y0181153D01*
X0005232Y0181204D01*
X0005378Y0181251D01*
X0005525Y0181294D01*
X0005673Y0181333D01*
X0005822Y0181369D01*
X0005972Y0181400D01*
X0006123Y0181428D01*
X0006274Y0181452D01*
X0006427Y0181472D01*
X0006579Y0181488D01*
X0006732Y0181500D01*
X0006885Y0181508D01*
X0007038Y0181512D01*
X0007192Y0181512D01*
X0007345Y0181508D01*
X0007498Y0181500D01*
X0007651Y0181488D01*
X0007803Y0181472D01*
X0007956Y0181452D01*
X0008107Y0181428D01*
X0008258Y0181400D01*
X0008408Y0181369D01*
X0008557Y0181333D01*
X0008705Y0181294D01*
X0008852Y0181251D01*
X0008998Y0181204D01*
X0009143Y0181153D01*
X0009286Y0181098D01*
X0009428Y0181040D01*
X0009568Y0180978D01*
X0009707Y0180913D01*
X0009844Y0180844D01*
X0009979Y0180771D01*
X0010112Y0180695D01*
X0010243Y0180615D01*
X0010372Y0180533D01*
X0010499Y0180446D01*
X0010624Y0180357D01*
X0010746Y0180264D01*
X0010865Y0180168D01*
X0010983Y0180069D01*
X0011097Y0179968D01*
X0011209Y0179863D01*
X0011318Y0179755D01*
X0011424Y0179644D01*
X0011528Y0179531D01*
X0011628Y0179415D01*
X0011726Y0179297D01*
X0011820Y0179176D01*
X0011911Y0179053D01*
X0011999Y0178927D01*
X0012083Y0178799D01*
X0012165Y0178669D01*
X0012242Y0178537D01*
X0012317Y0178403D01*
X0012388Y0178267D01*
X0012455Y0178129D01*
X0012519Y0177989D01*
X0012579Y0177848D01*
X0012635Y0177706D01*
X0012688Y0177562D01*
X0012737Y0177416D01*
X0012782Y0177270D01*
X0012823Y0177122D01*
X0012860Y0176974D01*
X0012894Y0176824D01*
X0012924Y0176673D01*
X0012949Y0176522D01*
X0012971Y0176371D01*
X0012989Y0176218D01*
X0013003Y0176066D01*
X0013013Y0175913D01*
X0013019Y0175759D01*
X0013021Y0175606D01*
X0013019Y0175453D01*
X0013013Y0175299D01*
X0013003Y0175146D01*
X0012989Y0174994D01*
X0012971Y0174841D01*
X0012949Y0174690D01*
X0012924Y0174539D01*
X0012894Y0174388D01*
X0012860Y0174238D01*
X0012823Y0174090D01*
X0012782Y0173942D01*
X0012737Y0173796D01*
X0012688Y0173650D01*
X0012635Y0173506D01*
X0012579Y0173364D01*
X0012519Y0173223D01*
X0012455Y0173083D01*
X0012388Y0172945D01*
X0012317Y0172809D01*
X0012242Y0172675D01*
X0012165Y0172543D01*
X0012083Y0172413D01*
X0011999Y0172285D01*
X0011911Y0172159D01*
X0011820Y0172036D01*
X0011726Y0171915D01*
X0011628Y0171797D01*
X0011528Y0171681D01*
X0011424Y0171568D01*
X0011318Y0171457D01*
X0011209Y0171349D01*
X0011097Y0171244D01*
X0010983Y0171143D01*
X0010865Y0171044D01*
X0010746Y0170948D01*
X0010624Y0170855D01*
X0010499Y0170766D01*
X0010372Y0170679D01*
X0010243Y0170597D01*
X0010112Y0170517D01*
X0009979Y0170441D01*
X0009844Y0170368D01*
X0009707Y0170299D01*
X0009568Y0170234D01*
X0009428Y0170172D01*
X0009286Y0170114D01*
X0009143Y0170059D01*
X0008998Y0170008D01*
X0008852Y0169961D01*
X0008705Y0169918D01*
X0008557Y0169879D01*
X0008408Y0169843D01*
X0008258Y0169812D01*
X0008107Y0169784D01*
X0007956Y0169760D01*
X0007803Y0169740D01*
X0007651Y0169724D01*
X0007498Y0169712D01*
X0007345Y0169704D01*
X0007192Y0169700D01*
X0007038Y0169700D01*
X0006885Y0169704D01*
X0006732Y0169712D01*
X0006579Y0169724D01*
X0006427Y0169740D01*
X0006274Y0169760D01*
X0006123Y0169784D01*
X0005972Y0169812D01*
X0005822Y0169843D01*
X0005673Y0169879D01*
X0005525Y0169918D01*
X0005378Y0169961D01*
X0005232Y0170008D01*
X0005087Y0170059D01*
X0004944Y0170114D01*
X0004802Y0170172D01*
X0004662Y0170234D01*
X0004523Y0170299D01*
X0004386Y0170368D01*
X0004251Y0170441D01*
X0004118Y0170517D01*
X0003987Y0170597D01*
X0003858Y0170679D01*
X0003731Y0170766D01*
X0003606Y0170855D01*
X0003484Y0170948D01*
X0003365Y0171044D01*
X0003247Y0171143D01*
X0003133Y0171244D01*
X0003021Y0171349D01*
X0002912Y0171457D01*
X0002806Y0171568D01*
X0002702Y0171681D01*
X0002602Y0171797D01*
X0002504Y0171915D01*
X0002410Y0172036D01*
X0002319Y0172159D01*
X0002231Y0172285D01*
X0002147Y0172413D01*
X0002065Y0172543D01*
X0001988Y0172675D01*
X0001913Y0172809D01*
X0001842Y0172945D01*
X0001775Y0173083D01*
X0001711Y0173223D01*
X0001651Y0173364D01*
X0001595Y0173506D01*
X0001542Y0173650D01*
X0001493Y0173796D01*
X0001448Y0173942D01*
X0001407Y0174090D01*
X0001370Y0174238D01*
X0001336Y0174388D01*
X0001306Y0174539D01*
X0001281Y0174690D01*
X0001259Y0174841D01*
X0001241Y0174994D01*
X0001227Y0175146D01*
X0001217Y0175299D01*
X0001211Y0175453D01*
X0001209Y0175606D01*
X0383040Y0175606D02*
X0383042Y0175759D01*
X0383048Y0175913D01*
X0383058Y0176066D01*
X0383072Y0176218D01*
X0383090Y0176371D01*
X0383112Y0176522D01*
X0383137Y0176673D01*
X0383167Y0176824D01*
X0383201Y0176974D01*
X0383238Y0177122D01*
X0383279Y0177270D01*
X0383324Y0177416D01*
X0383373Y0177562D01*
X0383426Y0177706D01*
X0383482Y0177848D01*
X0383542Y0177989D01*
X0383606Y0178129D01*
X0383673Y0178267D01*
X0383744Y0178403D01*
X0383819Y0178537D01*
X0383896Y0178669D01*
X0383978Y0178799D01*
X0384062Y0178927D01*
X0384150Y0179053D01*
X0384241Y0179176D01*
X0384335Y0179297D01*
X0384433Y0179415D01*
X0384533Y0179531D01*
X0384637Y0179644D01*
X0384743Y0179755D01*
X0384852Y0179863D01*
X0384964Y0179968D01*
X0385078Y0180069D01*
X0385196Y0180168D01*
X0385315Y0180264D01*
X0385437Y0180357D01*
X0385562Y0180446D01*
X0385689Y0180533D01*
X0385818Y0180615D01*
X0385949Y0180695D01*
X0386082Y0180771D01*
X0386217Y0180844D01*
X0386354Y0180913D01*
X0386493Y0180978D01*
X0386633Y0181040D01*
X0386775Y0181098D01*
X0386918Y0181153D01*
X0387063Y0181204D01*
X0387209Y0181251D01*
X0387356Y0181294D01*
X0387504Y0181333D01*
X0387653Y0181369D01*
X0387803Y0181400D01*
X0387954Y0181428D01*
X0388105Y0181452D01*
X0388258Y0181472D01*
X0388410Y0181488D01*
X0388563Y0181500D01*
X0388716Y0181508D01*
X0388869Y0181512D01*
X0389023Y0181512D01*
X0389176Y0181508D01*
X0389329Y0181500D01*
X0389482Y0181488D01*
X0389634Y0181472D01*
X0389787Y0181452D01*
X0389938Y0181428D01*
X0390089Y0181400D01*
X0390239Y0181369D01*
X0390388Y0181333D01*
X0390536Y0181294D01*
X0390683Y0181251D01*
X0390829Y0181204D01*
X0390974Y0181153D01*
X0391117Y0181098D01*
X0391259Y0181040D01*
X0391399Y0180978D01*
X0391538Y0180913D01*
X0391675Y0180844D01*
X0391810Y0180771D01*
X0391943Y0180695D01*
X0392074Y0180615D01*
X0392203Y0180533D01*
X0392330Y0180446D01*
X0392455Y0180357D01*
X0392577Y0180264D01*
X0392696Y0180168D01*
X0392814Y0180069D01*
X0392928Y0179968D01*
X0393040Y0179863D01*
X0393149Y0179755D01*
X0393255Y0179644D01*
X0393359Y0179531D01*
X0393459Y0179415D01*
X0393557Y0179297D01*
X0393651Y0179176D01*
X0393742Y0179053D01*
X0393830Y0178927D01*
X0393914Y0178799D01*
X0393996Y0178669D01*
X0394073Y0178537D01*
X0394148Y0178403D01*
X0394219Y0178267D01*
X0394286Y0178129D01*
X0394350Y0177989D01*
X0394410Y0177848D01*
X0394466Y0177706D01*
X0394519Y0177562D01*
X0394568Y0177416D01*
X0394613Y0177270D01*
X0394654Y0177122D01*
X0394691Y0176974D01*
X0394725Y0176824D01*
X0394755Y0176673D01*
X0394780Y0176522D01*
X0394802Y0176371D01*
X0394820Y0176218D01*
X0394834Y0176066D01*
X0394844Y0175913D01*
X0394850Y0175759D01*
X0394852Y0175606D01*
X0394850Y0175453D01*
X0394844Y0175299D01*
X0394834Y0175146D01*
X0394820Y0174994D01*
X0394802Y0174841D01*
X0394780Y0174690D01*
X0394755Y0174539D01*
X0394725Y0174388D01*
X0394691Y0174238D01*
X0394654Y0174090D01*
X0394613Y0173942D01*
X0394568Y0173796D01*
X0394519Y0173650D01*
X0394466Y0173506D01*
X0394410Y0173364D01*
X0394350Y0173223D01*
X0394286Y0173083D01*
X0394219Y0172945D01*
X0394148Y0172809D01*
X0394073Y0172675D01*
X0393996Y0172543D01*
X0393914Y0172413D01*
X0393830Y0172285D01*
X0393742Y0172159D01*
X0393651Y0172036D01*
X0393557Y0171915D01*
X0393459Y0171797D01*
X0393359Y0171681D01*
X0393255Y0171568D01*
X0393149Y0171457D01*
X0393040Y0171349D01*
X0392928Y0171244D01*
X0392814Y0171143D01*
X0392696Y0171044D01*
X0392577Y0170948D01*
X0392455Y0170855D01*
X0392330Y0170766D01*
X0392203Y0170679D01*
X0392074Y0170597D01*
X0391943Y0170517D01*
X0391810Y0170441D01*
X0391675Y0170368D01*
X0391538Y0170299D01*
X0391399Y0170234D01*
X0391259Y0170172D01*
X0391117Y0170114D01*
X0390974Y0170059D01*
X0390829Y0170008D01*
X0390683Y0169961D01*
X0390536Y0169918D01*
X0390388Y0169879D01*
X0390239Y0169843D01*
X0390089Y0169812D01*
X0389938Y0169784D01*
X0389787Y0169760D01*
X0389634Y0169740D01*
X0389482Y0169724D01*
X0389329Y0169712D01*
X0389176Y0169704D01*
X0389023Y0169700D01*
X0388869Y0169700D01*
X0388716Y0169704D01*
X0388563Y0169712D01*
X0388410Y0169724D01*
X0388258Y0169740D01*
X0388105Y0169760D01*
X0387954Y0169784D01*
X0387803Y0169812D01*
X0387653Y0169843D01*
X0387504Y0169879D01*
X0387356Y0169918D01*
X0387209Y0169961D01*
X0387063Y0170008D01*
X0386918Y0170059D01*
X0386775Y0170114D01*
X0386633Y0170172D01*
X0386493Y0170234D01*
X0386354Y0170299D01*
X0386217Y0170368D01*
X0386082Y0170441D01*
X0385949Y0170517D01*
X0385818Y0170597D01*
X0385689Y0170679D01*
X0385562Y0170766D01*
X0385437Y0170855D01*
X0385315Y0170948D01*
X0385196Y0171044D01*
X0385078Y0171143D01*
X0384964Y0171244D01*
X0384852Y0171349D01*
X0384743Y0171457D01*
X0384637Y0171568D01*
X0384533Y0171681D01*
X0384433Y0171797D01*
X0384335Y0171915D01*
X0384241Y0172036D01*
X0384150Y0172159D01*
X0384062Y0172285D01*
X0383978Y0172413D01*
X0383896Y0172543D01*
X0383819Y0172675D01*
X0383744Y0172809D01*
X0383673Y0172945D01*
X0383606Y0173083D01*
X0383542Y0173223D01*
X0383482Y0173364D01*
X0383426Y0173506D01*
X0383373Y0173650D01*
X0383324Y0173796D01*
X0383279Y0173942D01*
X0383238Y0174090D01*
X0383201Y0174238D01*
X0383167Y0174388D01*
X0383137Y0174539D01*
X0383112Y0174690D01*
X0383090Y0174841D01*
X0383072Y0174994D01*
X0383058Y0175146D01*
X0383048Y0175299D01*
X0383042Y0175453D01*
X0383040Y0175606D01*
X0383040Y0049346D02*
X0383042Y0049499D01*
X0383048Y0049653D01*
X0383058Y0049806D01*
X0383072Y0049958D01*
X0383090Y0050111D01*
X0383112Y0050262D01*
X0383137Y0050413D01*
X0383167Y0050564D01*
X0383201Y0050714D01*
X0383238Y0050862D01*
X0383279Y0051010D01*
X0383324Y0051156D01*
X0383373Y0051302D01*
X0383426Y0051446D01*
X0383482Y0051588D01*
X0383542Y0051729D01*
X0383606Y0051869D01*
X0383673Y0052007D01*
X0383744Y0052143D01*
X0383819Y0052277D01*
X0383896Y0052409D01*
X0383978Y0052539D01*
X0384062Y0052667D01*
X0384150Y0052793D01*
X0384241Y0052916D01*
X0384335Y0053037D01*
X0384433Y0053155D01*
X0384533Y0053271D01*
X0384637Y0053384D01*
X0384743Y0053495D01*
X0384852Y0053603D01*
X0384964Y0053708D01*
X0385078Y0053809D01*
X0385196Y0053908D01*
X0385315Y0054004D01*
X0385437Y0054097D01*
X0385562Y0054186D01*
X0385689Y0054273D01*
X0385818Y0054355D01*
X0385949Y0054435D01*
X0386082Y0054511D01*
X0386217Y0054584D01*
X0386354Y0054653D01*
X0386493Y0054718D01*
X0386633Y0054780D01*
X0386775Y0054838D01*
X0386918Y0054893D01*
X0387063Y0054944D01*
X0387209Y0054991D01*
X0387356Y0055034D01*
X0387504Y0055073D01*
X0387653Y0055109D01*
X0387803Y0055140D01*
X0387954Y0055168D01*
X0388105Y0055192D01*
X0388258Y0055212D01*
X0388410Y0055228D01*
X0388563Y0055240D01*
X0388716Y0055248D01*
X0388869Y0055252D01*
X0389023Y0055252D01*
X0389176Y0055248D01*
X0389329Y0055240D01*
X0389482Y0055228D01*
X0389634Y0055212D01*
X0389787Y0055192D01*
X0389938Y0055168D01*
X0390089Y0055140D01*
X0390239Y0055109D01*
X0390388Y0055073D01*
X0390536Y0055034D01*
X0390683Y0054991D01*
X0390829Y0054944D01*
X0390974Y0054893D01*
X0391117Y0054838D01*
X0391259Y0054780D01*
X0391399Y0054718D01*
X0391538Y0054653D01*
X0391675Y0054584D01*
X0391810Y0054511D01*
X0391943Y0054435D01*
X0392074Y0054355D01*
X0392203Y0054273D01*
X0392330Y0054186D01*
X0392455Y0054097D01*
X0392577Y0054004D01*
X0392696Y0053908D01*
X0392814Y0053809D01*
X0392928Y0053708D01*
X0393040Y0053603D01*
X0393149Y0053495D01*
X0393255Y0053384D01*
X0393359Y0053271D01*
X0393459Y0053155D01*
X0393557Y0053037D01*
X0393651Y0052916D01*
X0393742Y0052793D01*
X0393830Y0052667D01*
X0393914Y0052539D01*
X0393996Y0052409D01*
X0394073Y0052277D01*
X0394148Y0052143D01*
X0394219Y0052007D01*
X0394286Y0051869D01*
X0394350Y0051729D01*
X0394410Y0051588D01*
X0394466Y0051446D01*
X0394519Y0051302D01*
X0394568Y0051156D01*
X0394613Y0051010D01*
X0394654Y0050862D01*
X0394691Y0050714D01*
X0394725Y0050564D01*
X0394755Y0050413D01*
X0394780Y0050262D01*
X0394802Y0050111D01*
X0394820Y0049958D01*
X0394834Y0049806D01*
X0394844Y0049653D01*
X0394850Y0049499D01*
X0394852Y0049346D01*
X0394850Y0049193D01*
X0394844Y0049039D01*
X0394834Y0048886D01*
X0394820Y0048734D01*
X0394802Y0048581D01*
X0394780Y0048430D01*
X0394755Y0048279D01*
X0394725Y0048128D01*
X0394691Y0047978D01*
X0394654Y0047830D01*
X0394613Y0047682D01*
X0394568Y0047536D01*
X0394519Y0047390D01*
X0394466Y0047246D01*
X0394410Y0047104D01*
X0394350Y0046963D01*
X0394286Y0046823D01*
X0394219Y0046685D01*
X0394148Y0046549D01*
X0394073Y0046415D01*
X0393996Y0046283D01*
X0393914Y0046153D01*
X0393830Y0046025D01*
X0393742Y0045899D01*
X0393651Y0045776D01*
X0393557Y0045655D01*
X0393459Y0045537D01*
X0393359Y0045421D01*
X0393255Y0045308D01*
X0393149Y0045197D01*
X0393040Y0045089D01*
X0392928Y0044984D01*
X0392814Y0044883D01*
X0392696Y0044784D01*
X0392577Y0044688D01*
X0392455Y0044595D01*
X0392330Y0044506D01*
X0392203Y0044419D01*
X0392074Y0044337D01*
X0391943Y0044257D01*
X0391810Y0044181D01*
X0391675Y0044108D01*
X0391538Y0044039D01*
X0391399Y0043974D01*
X0391259Y0043912D01*
X0391117Y0043854D01*
X0390974Y0043799D01*
X0390829Y0043748D01*
X0390683Y0043701D01*
X0390536Y0043658D01*
X0390388Y0043619D01*
X0390239Y0043583D01*
X0390089Y0043552D01*
X0389938Y0043524D01*
X0389787Y0043500D01*
X0389634Y0043480D01*
X0389482Y0043464D01*
X0389329Y0043452D01*
X0389176Y0043444D01*
X0389023Y0043440D01*
X0388869Y0043440D01*
X0388716Y0043444D01*
X0388563Y0043452D01*
X0388410Y0043464D01*
X0388258Y0043480D01*
X0388105Y0043500D01*
X0387954Y0043524D01*
X0387803Y0043552D01*
X0387653Y0043583D01*
X0387504Y0043619D01*
X0387356Y0043658D01*
X0387209Y0043701D01*
X0387063Y0043748D01*
X0386918Y0043799D01*
X0386775Y0043854D01*
X0386633Y0043912D01*
X0386493Y0043974D01*
X0386354Y0044039D01*
X0386217Y0044108D01*
X0386082Y0044181D01*
X0385949Y0044257D01*
X0385818Y0044337D01*
X0385689Y0044419D01*
X0385562Y0044506D01*
X0385437Y0044595D01*
X0385315Y0044688D01*
X0385196Y0044784D01*
X0385078Y0044883D01*
X0384964Y0044984D01*
X0384852Y0045089D01*
X0384743Y0045197D01*
X0384637Y0045308D01*
X0384533Y0045421D01*
X0384433Y0045537D01*
X0384335Y0045655D01*
X0384241Y0045776D01*
X0384150Y0045899D01*
X0384062Y0046025D01*
X0383978Y0046153D01*
X0383896Y0046283D01*
X0383819Y0046415D01*
X0383744Y0046549D01*
X0383673Y0046685D01*
X0383606Y0046823D01*
X0383542Y0046963D01*
X0383482Y0047104D01*
X0383426Y0047246D01*
X0383373Y0047390D01*
X0383324Y0047536D01*
X0383279Y0047682D01*
X0383238Y0047830D01*
X0383201Y0047978D01*
X0383167Y0048128D01*
X0383137Y0048279D01*
X0383112Y0048430D01*
X0383090Y0048581D01*
X0383072Y0048734D01*
X0383058Y0048886D01*
X0383048Y0049039D01*
X0383042Y0049193D01*
X0383040Y0049346D01*
X0383040Y0303559D02*
X0383042Y0303712D01*
X0383048Y0303866D01*
X0383058Y0304019D01*
X0383072Y0304171D01*
X0383090Y0304324D01*
X0383112Y0304475D01*
X0383137Y0304626D01*
X0383167Y0304777D01*
X0383201Y0304927D01*
X0383238Y0305075D01*
X0383279Y0305223D01*
X0383324Y0305369D01*
X0383373Y0305515D01*
X0383426Y0305659D01*
X0383482Y0305801D01*
X0383542Y0305942D01*
X0383606Y0306082D01*
X0383673Y0306220D01*
X0383744Y0306356D01*
X0383819Y0306490D01*
X0383896Y0306622D01*
X0383978Y0306752D01*
X0384062Y0306880D01*
X0384150Y0307006D01*
X0384241Y0307129D01*
X0384335Y0307250D01*
X0384433Y0307368D01*
X0384533Y0307484D01*
X0384637Y0307597D01*
X0384743Y0307708D01*
X0384852Y0307816D01*
X0384964Y0307921D01*
X0385078Y0308022D01*
X0385196Y0308121D01*
X0385315Y0308217D01*
X0385437Y0308310D01*
X0385562Y0308399D01*
X0385689Y0308486D01*
X0385818Y0308568D01*
X0385949Y0308648D01*
X0386082Y0308724D01*
X0386217Y0308797D01*
X0386354Y0308866D01*
X0386493Y0308931D01*
X0386633Y0308993D01*
X0386775Y0309051D01*
X0386918Y0309106D01*
X0387063Y0309157D01*
X0387209Y0309204D01*
X0387356Y0309247D01*
X0387504Y0309286D01*
X0387653Y0309322D01*
X0387803Y0309353D01*
X0387954Y0309381D01*
X0388105Y0309405D01*
X0388258Y0309425D01*
X0388410Y0309441D01*
X0388563Y0309453D01*
X0388716Y0309461D01*
X0388869Y0309465D01*
X0389023Y0309465D01*
X0389176Y0309461D01*
X0389329Y0309453D01*
X0389482Y0309441D01*
X0389634Y0309425D01*
X0389787Y0309405D01*
X0389938Y0309381D01*
X0390089Y0309353D01*
X0390239Y0309322D01*
X0390388Y0309286D01*
X0390536Y0309247D01*
X0390683Y0309204D01*
X0390829Y0309157D01*
X0390974Y0309106D01*
X0391117Y0309051D01*
X0391259Y0308993D01*
X0391399Y0308931D01*
X0391538Y0308866D01*
X0391675Y0308797D01*
X0391810Y0308724D01*
X0391943Y0308648D01*
X0392074Y0308568D01*
X0392203Y0308486D01*
X0392330Y0308399D01*
X0392455Y0308310D01*
X0392577Y0308217D01*
X0392696Y0308121D01*
X0392814Y0308022D01*
X0392928Y0307921D01*
X0393040Y0307816D01*
X0393149Y0307708D01*
X0393255Y0307597D01*
X0393359Y0307484D01*
X0393459Y0307368D01*
X0393557Y0307250D01*
X0393651Y0307129D01*
X0393742Y0307006D01*
X0393830Y0306880D01*
X0393914Y0306752D01*
X0393996Y0306622D01*
X0394073Y0306490D01*
X0394148Y0306356D01*
X0394219Y0306220D01*
X0394286Y0306082D01*
X0394350Y0305942D01*
X0394410Y0305801D01*
X0394466Y0305659D01*
X0394519Y0305515D01*
X0394568Y0305369D01*
X0394613Y0305223D01*
X0394654Y0305075D01*
X0394691Y0304927D01*
X0394725Y0304777D01*
X0394755Y0304626D01*
X0394780Y0304475D01*
X0394802Y0304324D01*
X0394820Y0304171D01*
X0394834Y0304019D01*
X0394844Y0303866D01*
X0394850Y0303712D01*
X0394852Y0303559D01*
X0394850Y0303406D01*
X0394844Y0303252D01*
X0394834Y0303099D01*
X0394820Y0302947D01*
X0394802Y0302794D01*
X0394780Y0302643D01*
X0394755Y0302492D01*
X0394725Y0302341D01*
X0394691Y0302191D01*
X0394654Y0302043D01*
X0394613Y0301895D01*
X0394568Y0301749D01*
X0394519Y0301603D01*
X0394466Y0301459D01*
X0394410Y0301317D01*
X0394350Y0301176D01*
X0394286Y0301036D01*
X0394219Y0300898D01*
X0394148Y0300762D01*
X0394073Y0300628D01*
X0393996Y0300496D01*
X0393914Y0300366D01*
X0393830Y0300238D01*
X0393742Y0300112D01*
X0393651Y0299989D01*
X0393557Y0299868D01*
X0393459Y0299750D01*
X0393359Y0299634D01*
X0393255Y0299521D01*
X0393149Y0299410D01*
X0393040Y0299302D01*
X0392928Y0299197D01*
X0392814Y0299096D01*
X0392696Y0298997D01*
X0392577Y0298901D01*
X0392455Y0298808D01*
X0392330Y0298719D01*
X0392203Y0298632D01*
X0392074Y0298550D01*
X0391943Y0298470D01*
X0391810Y0298394D01*
X0391675Y0298321D01*
X0391538Y0298252D01*
X0391399Y0298187D01*
X0391259Y0298125D01*
X0391117Y0298067D01*
X0390974Y0298012D01*
X0390829Y0297961D01*
X0390683Y0297914D01*
X0390536Y0297871D01*
X0390388Y0297832D01*
X0390239Y0297796D01*
X0390089Y0297765D01*
X0389938Y0297737D01*
X0389787Y0297713D01*
X0389634Y0297693D01*
X0389482Y0297677D01*
X0389329Y0297665D01*
X0389176Y0297657D01*
X0389023Y0297653D01*
X0388869Y0297653D01*
X0388716Y0297657D01*
X0388563Y0297665D01*
X0388410Y0297677D01*
X0388258Y0297693D01*
X0388105Y0297713D01*
X0387954Y0297737D01*
X0387803Y0297765D01*
X0387653Y0297796D01*
X0387504Y0297832D01*
X0387356Y0297871D01*
X0387209Y0297914D01*
X0387063Y0297961D01*
X0386918Y0298012D01*
X0386775Y0298067D01*
X0386633Y0298125D01*
X0386493Y0298187D01*
X0386354Y0298252D01*
X0386217Y0298321D01*
X0386082Y0298394D01*
X0385949Y0298470D01*
X0385818Y0298550D01*
X0385689Y0298632D01*
X0385562Y0298719D01*
X0385437Y0298808D01*
X0385315Y0298901D01*
X0385196Y0298997D01*
X0385078Y0299096D01*
X0384964Y0299197D01*
X0384852Y0299302D01*
X0384743Y0299410D01*
X0384637Y0299521D01*
X0384533Y0299634D01*
X0384433Y0299750D01*
X0384335Y0299868D01*
X0384241Y0299989D01*
X0384150Y0300112D01*
X0384062Y0300238D01*
X0383978Y0300366D01*
X0383896Y0300496D01*
X0383819Y0300628D01*
X0383744Y0300762D01*
X0383673Y0300898D01*
X0383606Y0301036D01*
X0383542Y0301176D01*
X0383482Y0301317D01*
X0383426Y0301459D01*
X0383373Y0301603D01*
X0383324Y0301749D01*
X0383279Y0301895D01*
X0383238Y0302043D01*
X0383201Y0302191D01*
X0383167Y0302341D01*
X0383137Y0302492D01*
X0383112Y0302643D01*
X0383090Y0302794D01*
X0383072Y0302947D01*
X0383058Y0303099D01*
X0383048Y0303252D01*
X0383042Y0303406D01*
X0383040Y0303559D01*
D13*
X0335796Y0322122D02*
X0335796Y0259130D01*
X0310796Y0270154D02*
X0310796Y0282752D01*
X0291111Y0282752D01*
X0291111Y0270154D01*
X0310796Y0270154D01*
X0298394Y0286689D02*
X0284615Y0286689D01*
X0284615Y0300469D01*
X0298394Y0300469D01*
X0298394Y0286689D01*
X0272804Y0259130D02*
X0272804Y0322122D01*
X0267099Y0324121D02*
X0267099Y0317822D01*
X0265524Y0316247D01*
X0261193Y0316247D01*
X0253319Y0316247D02*
X0247413Y0316247D01*
X0247413Y0325696D01*
X0253319Y0325696D01*
X0261193Y0325696D02*
X0265524Y0325696D01*
X0267099Y0324121D01*
X0259255Y0229189D02*
X0247444Y0229189D01*
X0247444Y0219346D02*
X0247444Y0208322D01*
X0247444Y0198480D02*
X0259255Y0198480D01*
X0255318Y0198874D02*
X0255316Y0198961D01*
X0255310Y0199048D01*
X0255301Y0199135D01*
X0255287Y0199221D01*
X0255270Y0199306D01*
X0255249Y0199391D01*
X0255224Y0199474D01*
X0255196Y0199557D01*
X0255164Y0199638D01*
X0255128Y0199717D01*
X0255089Y0199795D01*
X0255047Y0199871D01*
X0255001Y0199945D01*
X0254952Y0200017D01*
X0254900Y0200087D01*
X0254845Y0200154D01*
X0254787Y0200219D01*
X0254726Y0200282D01*
X0254662Y0200341D01*
X0254596Y0200398D01*
X0254527Y0200451D01*
X0254456Y0200502D01*
X0254383Y0200549D01*
X0254308Y0200594D01*
X0254231Y0200634D01*
X0254153Y0200672D01*
X0254072Y0200705D01*
X0253991Y0200736D01*
X0253908Y0200762D01*
X0253823Y0200785D01*
X0253738Y0200804D01*
X0253653Y0200819D01*
X0253566Y0200831D01*
X0253480Y0200839D01*
X0253393Y0200843D01*
X0253305Y0200843D01*
X0253218Y0200839D01*
X0253132Y0200831D01*
X0253045Y0200819D01*
X0252960Y0200804D01*
X0252875Y0200785D01*
X0252790Y0200762D01*
X0252707Y0200736D01*
X0252626Y0200705D01*
X0252545Y0200672D01*
X0252467Y0200634D01*
X0252390Y0200594D01*
X0252315Y0200549D01*
X0252242Y0200502D01*
X0252171Y0200451D01*
X0252102Y0200398D01*
X0252036Y0200341D01*
X0251972Y0200282D01*
X0251911Y0200219D01*
X0251853Y0200154D01*
X0251798Y0200087D01*
X0251746Y0200017D01*
X0251697Y0199945D01*
X0251651Y0199871D01*
X0251609Y0199795D01*
X0251570Y0199717D01*
X0251534Y0199638D01*
X0251502Y0199557D01*
X0251474Y0199474D01*
X0251449Y0199391D01*
X0251428Y0199306D01*
X0251411Y0199221D01*
X0251397Y0199135D01*
X0251388Y0199048D01*
X0251382Y0198961D01*
X0251380Y0198874D01*
X0259255Y0208322D02*
X0259255Y0219346D01*
X0161558Y0123888D02*
X0159445Y0123888D01*
X0154902Y0122388D02*
X0154902Y0119007D01*
X0166102Y0119007D02*
X0166102Y0122388D01*
D14*
X0145698Y0067654D02*
X0145698Y0287693D01*
X0002076Y0287693D01*
X0002076Y0067654D01*
X0145698Y0067654D01*
X0298940Y0274244D02*
X0299382Y0274244D01*
X0299824Y0274686D01*
X0299824Y0276896D01*
X0300956Y0276454D02*
X0301398Y0276896D01*
X0302724Y0276896D01*
X0302282Y0276012D02*
X0301398Y0276012D01*
X0300956Y0276454D01*
X0300956Y0275128D02*
X0302282Y0275128D01*
X0302724Y0275570D01*
X0302282Y0276012D01*
X0303856Y0276896D02*
X0304740Y0276896D01*
X0304298Y0277338D02*
X0304298Y0275570D01*
X0304740Y0275128D01*
X0305789Y0275570D02*
X0306231Y0276012D01*
X0307557Y0276012D01*
X0307557Y0276454D02*
X0307557Y0275128D01*
X0306231Y0275128D01*
X0305789Y0275570D01*
X0306231Y0276896D02*
X0307115Y0276896D01*
X0307557Y0276454D01*
X0308690Y0277780D02*
X0309132Y0277780D01*
X0309132Y0275128D01*
X0308690Y0275128D02*
X0309574Y0275128D01*
X0299824Y0275128D02*
X0298498Y0275128D01*
X0298056Y0275570D01*
X0298056Y0276896D01*
X0296965Y0276896D02*
X0296523Y0276896D01*
X0295639Y0276012D01*
X0295639Y0275128D02*
X0295639Y0276896D01*
X0294507Y0277338D02*
X0294065Y0277780D01*
X0293181Y0277780D01*
X0292739Y0277338D01*
X0292739Y0275570D01*
X0293181Y0275128D01*
X0294065Y0275128D01*
X0294507Y0275570D01*
X0293026Y0290767D02*
X0293026Y0291651D01*
X0293026Y0291209D02*
X0290375Y0291209D01*
X0290375Y0290767D02*
X0290375Y0291651D01*
X0290816Y0292700D02*
X0292584Y0292700D01*
X0293026Y0293142D01*
X0293026Y0294026D01*
X0292584Y0294468D01*
X0290816Y0294468D02*
X0290375Y0294026D01*
X0290375Y0293142D01*
X0290816Y0292700D01*
X0258756Y0316972D02*
X0258756Y0324972D01*
X0329300Y0313126D02*
X0329302Y0313225D01*
X0329308Y0313325D01*
X0329318Y0313424D01*
X0329332Y0313522D01*
X0329349Y0313620D01*
X0329371Y0313717D01*
X0329396Y0313813D01*
X0329425Y0313908D01*
X0329458Y0314002D01*
X0329495Y0314094D01*
X0329535Y0314185D01*
X0329579Y0314274D01*
X0329627Y0314362D01*
X0329678Y0314447D01*
X0329732Y0314530D01*
X0329789Y0314612D01*
X0329850Y0314690D01*
X0329914Y0314767D01*
X0329980Y0314840D01*
X0330050Y0314911D01*
X0330122Y0314979D01*
X0330197Y0315045D01*
X0330275Y0315107D01*
X0330355Y0315166D01*
X0330437Y0315222D01*
X0330521Y0315274D01*
X0330608Y0315323D01*
X0330696Y0315369D01*
X0330786Y0315411D01*
X0330878Y0315450D01*
X0330971Y0315485D01*
X0331065Y0315516D01*
X0331161Y0315543D01*
X0331258Y0315566D01*
X0331355Y0315586D01*
X0331453Y0315602D01*
X0331552Y0315614D01*
X0331651Y0315622D01*
X0331750Y0315626D01*
X0331850Y0315626D01*
X0331949Y0315622D01*
X0332048Y0315614D01*
X0332147Y0315602D01*
X0332245Y0315586D01*
X0332342Y0315566D01*
X0332439Y0315543D01*
X0332535Y0315516D01*
X0332629Y0315485D01*
X0332722Y0315450D01*
X0332814Y0315411D01*
X0332904Y0315369D01*
X0332992Y0315323D01*
X0333079Y0315274D01*
X0333163Y0315222D01*
X0333245Y0315166D01*
X0333325Y0315107D01*
X0333403Y0315045D01*
X0333478Y0314979D01*
X0333550Y0314911D01*
X0333620Y0314840D01*
X0333686Y0314767D01*
X0333750Y0314690D01*
X0333811Y0314612D01*
X0333868Y0314530D01*
X0333922Y0314447D01*
X0333973Y0314362D01*
X0334021Y0314274D01*
X0334065Y0314185D01*
X0334105Y0314094D01*
X0334142Y0314002D01*
X0334175Y0313908D01*
X0334204Y0313813D01*
X0334229Y0313717D01*
X0334251Y0313620D01*
X0334268Y0313522D01*
X0334282Y0313424D01*
X0334292Y0313325D01*
X0334298Y0313225D01*
X0334300Y0313126D01*
X0334298Y0313027D01*
X0334292Y0312927D01*
X0334282Y0312828D01*
X0334268Y0312730D01*
X0334251Y0312632D01*
X0334229Y0312535D01*
X0334204Y0312439D01*
X0334175Y0312344D01*
X0334142Y0312250D01*
X0334105Y0312158D01*
X0334065Y0312067D01*
X0334021Y0311978D01*
X0333973Y0311890D01*
X0333922Y0311805D01*
X0333868Y0311722D01*
X0333811Y0311640D01*
X0333750Y0311562D01*
X0333686Y0311485D01*
X0333620Y0311412D01*
X0333550Y0311341D01*
X0333478Y0311273D01*
X0333403Y0311207D01*
X0333325Y0311145D01*
X0333245Y0311086D01*
X0333163Y0311030D01*
X0333079Y0310978D01*
X0332992Y0310929D01*
X0332904Y0310883D01*
X0332814Y0310841D01*
X0332722Y0310802D01*
X0332629Y0310767D01*
X0332535Y0310736D01*
X0332439Y0310709D01*
X0332342Y0310686D01*
X0332245Y0310666D01*
X0332147Y0310650D01*
X0332048Y0310638D01*
X0331949Y0310630D01*
X0331850Y0310626D01*
X0331750Y0310626D01*
X0331651Y0310630D01*
X0331552Y0310638D01*
X0331453Y0310650D01*
X0331355Y0310666D01*
X0331258Y0310686D01*
X0331161Y0310709D01*
X0331065Y0310736D01*
X0330971Y0310767D01*
X0330878Y0310802D01*
X0330786Y0310841D01*
X0330696Y0310883D01*
X0330608Y0310929D01*
X0330521Y0310978D01*
X0330437Y0311030D01*
X0330355Y0311086D01*
X0330275Y0311145D01*
X0330197Y0311207D01*
X0330122Y0311273D01*
X0330050Y0311341D01*
X0329980Y0311412D01*
X0329914Y0311485D01*
X0329850Y0311562D01*
X0329789Y0311640D01*
X0329732Y0311722D01*
X0329678Y0311805D01*
X0329627Y0311890D01*
X0329579Y0311978D01*
X0329535Y0312067D01*
X0329495Y0312158D01*
X0329458Y0312250D01*
X0329425Y0312344D01*
X0329396Y0312439D01*
X0329371Y0312535D01*
X0329349Y0312632D01*
X0329332Y0312730D01*
X0329318Y0312828D01*
X0329308Y0312927D01*
X0329302Y0313027D01*
X0329300Y0313126D01*
X0079354Y0300876D02*
X0076352Y0300876D01*
X0077853Y0300876D02*
X0077853Y0305380D01*
X0076352Y0303879D01*
X0059854Y0303879D02*
X0056852Y0300876D01*
X0059854Y0300876D01*
X0059854Y0303879D02*
X0059854Y0304629D01*
X0059104Y0305380D01*
X0057602Y0305380D01*
X0056852Y0304629D01*
X0037897Y0300876D02*
X0034895Y0300876D01*
X0036396Y0300876D02*
X0036396Y0305380D01*
X0034895Y0303879D01*
X0018397Y0303879D02*
X0018397Y0304629D01*
X0017647Y0305380D01*
X0016146Y0305380D01*
X0015395Y0304629D01*
X0018397Y0303879D02*
X0015395Y0300876D01*
X0018397Y0300876D01*
D15*
X0045284Y0217170D02*
X0098434Y0164020D01*
X0076879Y0174552D02*
X0076881Y0174626D01*
X0076887Y0174700D01*
X0076897Y0174773D01*
X0076911Y0174846D01*
X0076928Y0174918D01*
X0076950Y0174988D01*
X0076975Y0175058D01*
X0077004Y0175126D01*
X0077037Y0175192D01*
X0077073Y0175257D01*
X0077113Y0175319D01*
X0077155Y0175380D01*
X0077201Y0175438D01*
X0077250Y0175493D01*
X0077302Y0175546D01*
X0077357Y0175596D01*
X0077414Y0175642D01*
X0077474Y0175686D01*
X0077536Y0175726D01*
X0077600Y0175763D01*
X0077666Y0175797D01*
X0077734Y0175827D01*
X0077803Y0175853D01*
X0077874Y0175876D01*
X0077945Y0175894D01*
X0078018Y0175909D01*
X0078091Y0175920D01*
X0078165Y0175927D01*
X0078239Y0175930D01*
X0078312Y0175929D01*
X0078386Y0175924D01*
X0078460Y0175915D01*
X0078533Y0175902D01*
X0078605Y0175885D01*
X0078676Y0175865D01*
X0078746Y0175840D01*
X0078814Y0175812D01*
X0078881Y0175781D01*
X0078946Y0175745D01*
X0079009Y0175707D01*
X0079070Y0175665D01*
X0079129Y0175619D01*
X0079185Y0175571D01*
X0079238Y0175520D01*
X0079288Y0175466D01*
X0079336Y0175409D01*
X0079380Y0175350D01*
X0079422Y0175288D01*
X0079460Y0175225D01*
X0079494Y0175159D01*
X0079525Y0175092D01*
X0079552Y0175023D01*
X0079575Y0174953D01*
X0079595Y0174882D01*
X0079611Y0174809D01*
X0079623Y0174736D01*
X0079631Y0174663D01*
X0079635Y0174589D01*
X0079635Y0174515D01*
X0079631Y0174441D01*
X0079623Y0174368D01*
X0079611Y0174295D01*
X0079595Y0174222D01*
X0079575Y0174151D01*
X0079552Y0174081D01*
X0079525Y0174012D01*
X0079494Y0173945D01*
X0079460Y0173879D01*
X0079422Y0173816D01*
X0079380Y0173754D01*
X0079336Y0173695D01*
X0079288Y0173638D01*
X0079238Y0173584D01*
X0079185Y0173533D01*
X0079129Y0173485D01*
X0079070Y0173439D01*
X0079009Y0173397D01*
X0078946Y0173359D01*
X0078881Y0173323D01*
X0078814Y0173292D01*
X0078746Y0173264D01*
X0078676Y0173239D01*
X0078605Y0173219D01*
X0078533Y0173202D01*
X0078460Y0173189D01*
X0078386Y0173180D01*
X0078312Y0173175D01*
X0078239Y0173174D01*
X0078165Y0173177D01*
X0078091Y0173184D01*
X0078018Y0173195D01*
X0077945Y0173210D01*
X0077874Y0173228D01*
X0077803Y0173251D01*
X0077734Y0173277D01*
X0077666Y0173307D01*
X0077600Y0173341D01*
X0077536Y0173378D01*
X0077474Y0173418D01*
X0077414Y0173462D01*
X0077357Y0173508D01*
X0077302Y0173558D01*
X0077250Y0173611D01*
X0077201Y0173666D01*
X0077155Y0173724D01*
X0077113Y0173785D01*
X0077073Y0173847D01*
X0077037Y0173912D01*
X0077004Y0173978D01*
X0076975Y0174046D01*
X0076950Y0174116D01*
X0076928Y0174186D01*
X0076911Y0174258D01*
X0076897Y0174331D01*
X0076887Y0174404D01*
X0076881Y0174478D01*
X0076879Y0174552D01*
X0075599Y0174256D02*
X0065658Y0174158D01*
X0065363Y0173961D02*
X0065363Y0172682D01*
X0065365Y0172636D01*
X0065370Y0172590D01*
X0065379Y0172544D01*
X0065392Y0172499D01*
X0065408Y0172456D01*
X0065427Y0172414D01*
X0065450Y0172373D01*
X0065476Y0172335D01*
X0065505Y0172298D01*
X0065536Y0172264D01*
X0065570Y0172233D01*
X0065607Y0172204D01*
X0065645Y0172178D01*
X0065686Y0172155D01*
X0065728Y0172136D01*
X0065771Y0172120D01*
X0065816Y0172107D01*
X0065862Y0172098D01*
X0065908Y0172093D01*
X0065954Y0172091D01*
X0066150Y0172091D01*
X0066193Y0172093D01*
X0066235Y0172098D01*
X0066277Y0172108D01*
X0066318Y0172121D01*
X0066358Y0172137D01*
X0066396Y0172157D01*
X0066432Y0172180D01*
X0066466Y0172206D01*
X0066498Y0172235D01*
X0066527Y0172267D01*
X0066553Y0172301D01*
X0066576Y0172337D01*
X0066596Y0172375D01*
X0066612Y0172415D01*
X0066625Y0172456D01*
X0066635Y0172498D01*
X0066640Y0172540D01*
X0066642Y0172583D01*
X0066643Y0172583D02*
X0066643Y0173961D01*
X0065068Y0174256D02*
X0065011Y0174264D01*
X0064954Y0174275D01*
X0064899Y0174290D01*
X0064845Y0174308D01*
X0064792Y0174330D01*
X0064740Y0174356D01*
X0064690Y0174384D01*
X0064643Y0174416D01*
X0064597Y0174451D01*
X0064554Y0174489D01*
X0064513Y0174530D01*
X0064475Y0174573D01*
X0064440Y0174619D01*
X0064408Y0174666D01*
X0064380Y0174716D01*
X0064354Y0174768D01*
X0064332Y0174821D01*
X0064314Y0174875D01*
X0064299Y0174930D01*
X0064288Y0174987D01*
X0064280Y0175044D01*
X0061426Y0203981D01*
X0061623Y0204079D02*
X0060048Y0204079D01*
X0060022Y0204081D01*
X0059997Y0204086D01*
X0059973Y0204094D01*
X0059950Y0204105D01*
X0059928Y0204120D01*
X0059909Y0204137D01*
X0059892Y0204156D01*
X0059877Y0204178D01*
X0059866Y0204201D01*
X0059858Y0204225D01*
X0059853Y0204250D01*
X0059851Y0204276D01*
X0059851Y0204571D01*
X0059851Y0204768D01*
X0059853Y0204801D01*
X0059858Y0204834D01*
X0059868Y0204865D01*
X0059880Y0204896D01*
X0059896Y0204925D01*
X0059915Y0204952D01*
X0059937Y0204977D01*
X0059962Y0204999D01*
X0059989Y0205018D01*
X0060018Y0205034D01*
X0060049Y0205046D01*
X0060080Y0205056D01*
X0060113Y0205061D01*
X0060146Y0205063D01*
X0060245Y0205063D01*
X0060343Y0205063D01*
X0083769Y0205063D01*
X0083769Y0204965D01*
X0083767Y0204907D01*
X0083761Y0204849D01*
X0083752Y0204792D01*
X0083739Y0204736D01*
X0083722Y0204680D01*
X0083702Y0204626D01*
X0083678Y0204573D01*
X0083650Y0204522D01*
X0083620Y0204473D01*
X0083586Y0204426D01*
X0083549Y0204381D01*
X0083509Y0204339D01*
X0083467Y0204299D01*
X0083422Y0204262D01*
X0083375Y0204228D01*
X0083326Y0204198D01*
X0083275Y0204170D01*
X0083222Y0204146D01*
X0083168Y0204126D01*
X0083112Y0204109D01*
X0083056Y0204096D01*
X0082999Y0204087D01*
X0082941Y0204081D01*
X0082883Y0204079D01*
X0078158Y0204079D01*
X0070087Y0204079D01*
X0061623Y0204079D01*
X0061524Y0205359D02*
X0081898Y0205359D01*
X0082193Y0205359D02*
X0082204Y0205402D01*
X0082212Y0205445D01*
X0082216Y0205489D01*
X0082217Y0205534D01*
X0082214Y0205578D01*
X0082207Y0205621D01*
X0082196Y0205664D01*
X0082182Y0205706D01*
X0082165Y0205747D01*
X0082144Y0205786D01*
X0082120Y0205823D01*
X0082093Y0205859D01*
X0082063Y0205891D01*
X0082031Y0205922D01*
X0081996Y0205949D01*
X0081702Y0205063D02*
X0081704Y0205125D01*
X0081710Y0205188D01*
X0081720Y0205249D01*
X0081734Y0205310D01*
X0081751Y0205370D01*
X0081772Y0205429D01*
X0081798Y0205486D01*
X0081826Y0205541D01*
X0081858Y0205595D01*
X0081894Y0205646D01*
X0081932Y0205696D01*
X0081974Y0205742D01*
X0082018Y0205786D01*
X0082066Y0205827D01*
X0082115Y0205865D01*
X0082167Y0205899D01*
X0082221Y0205930D01*
X0082277Y0205958D01*
X0082335Y0205982D01*
X0082394Y0206003D01*
X0082454Y0206019D01*
X0082515Y0206032D01*
X0082577Y0206041D01*
X0082639Y0206046D01*
X0082702Y0206047D01*
X0082764Y0206044D01*
X0082826Y0206037D01*
X0082888Y0206026D01*
X0082948Y0206011D01*
X0083008Y0205993D01*
X0083066Y0205971D01*
X0083123Y0205945D01*
X0083178Y0205915D01*
X0083231Y0205882D01*
X0083282Y0205846D01*
X0083330Y0205807D01*
X0083376Y0205764D01*
X0083419Y0205719D01*
X0083459Y0205671D01*
X0083496Y0205621D01*
X0083530Y0205568D01*
X0083561Y0205514D01*
X0083587Y0205458D01*
X0083611Y0205400D01*
X0083630Y0205340D01*
X0083646Y0205280D01*
X0083658Y0205218D01*
X0083666Y0205157D01*
X0083670Y0205094D01*
X0083670Y0205032D01*
X0083666Y0204969D01*
X0083658Y0204908D01*
X0083646Y0204846D01*
X0083630Y0204786D01*
X0083611Y0204726D01*
X0083587Y0204668D01*
X0083561Y0204612D01*
X0083530Y0204558D01*
X0083496Y0204505D01*
X0083459Y0204455D01*
X0083419Y0204407D01*
X0083376Y0204362D01*
X0083330Y0204319D01*
X0083282Y0204280D01*
X0083231Y0204244D01*
X0083178Y0204211D01*
X0083123Y0204181D01*
X0083066Y0204155D01*
X0083008Y0204133D01*
X0082948Y0204115D01*
X0082888Y0204100D01*
X0082826Y0204089D01*
X0082764Y0204082D01*
X0082702Y0204079D01*
X0082639Y0204080D01*
X0082577Y0204085D01*
X0082515Y0204094D01*
X0082454Y0204107D01*
X0082394Y0204123D01*
X0082335Y0204144D01*
X0082277Y0204168D01*
X0082221Y0204196D01*
X0082167Y0204227D01*
X0082115Y0204261D01*
X0082066Y0204299D01*
X0082018Y0204340D01*
X0081974Y0204384D01*
X0081932Y0204430D01*
X0081894Y0204480D01*
X0081858Y0204531D01*
X0081826Y0204585D01*
X0081798Y0204640D01*
X0081772Y0204697D01*
X0081751Y0204756D01*
X0081734Y0204816D01*
X0081720Y0204877D01*
X0081710Y0204938D01*
X0081704Y0205001D01*
X0081702Y0205063D01*
X0081998Y0205950D02*
X0081929Y0205997D01*
X0081859Y0206041D01*
X0081788Y0206083D01*
X0081714Y0206121D01*
X0081639Y0206157D01*
X0081563Y0206189D01*
X0081486Y0206219D01*
X0081407Y0206245D01*
X0082292Y0203981D02*
X0079536Y0176815D01*
X0075698Y0174552D02*
X0075700Y0174653D01*
X0075706Y0174754D01*
X0075716Y0174855D01*
X0075730Y0174955D01*
X0075748Y0175054D01*
X0075770Y0175153D01*
X0075795Y0175251D01*
X0075825Y0175348D01*
X0075858Y0175443D01*
X0075895Y0175537D01*
X0075936Y0175630D01*
X0075980Y0175721D01*
X0076028Y0175810D01*
X0076080Y0175897D01*
X0076135Y0175982D01*
X0076193Y0176064D01*
X0076254Y0176145D01*
X0076319Y0176223D01*
X0076386Y0176298D01*
X0076456Y0176370D01*
X0076530Y0176440D01*
X0076606Y0176507D01*
X0076684Y0176571D01*
X0076765Y0176631D01*
X0076848Y0176688D01*
X0076934Y0176742D01*
X0077022Y0176793D01*
X0077111Y0176840D01*
X0077202Y0176884D01*
X0077295Y0176923D01*
X0077390Y0176960D01*
X0077485Y0176992D01*
X0077582Y0177021D01*
X0077681Y0177045D01*
X0077779Y0177066D01*
X0077879Y0177083D01*
X0077979Y0177096D01*
X0078080Y0177105D01*
X0078181Y0177110D01*
X0078282Y0177111D01*
X0078383Y0177108D01*
X0078484Y0177101D01*
X0078585Y0177090D01*
X0078685Y0177075D01*
X0078784Y0177056D01*
X0078883Y0177033D01*
X0078980Y0177007D01*
X0079077Y0176976D01*
X0079172Y0176942D01*
X0079265Y0176904D01*
X0079358Y0176862D01*
X0079448Y0176817D01*
X0079537Y0176768D01*
X0079623Y0176716D01*
X0079707Y0176660D01*
X0079790Y0176601D01*
X0079869Y0176539D01*
X0079947Y0176474D01*
X0080021Y0176406D01*
X0080093Y0176334D01*
X0080162Y0176261D01*
X0080228Y0176184D01*
X0080291Y0176105D01*
X0080351Y0176023D01*
X0080407Y0175939D01*
X0080460Y0175853D01*
X0080510Y0175765D01*
X0080556Y0175675D01*
X0080599Y0175584D01*
X0080638Y0175490D01*
X0080673Y0175395D01*
X0080704Y0175299D01*
X0080732Y0175202D01*
X0080756Y0175104D01*
X0080776Y0175005D01*
X0080792Y0174905D01*
X0080804Y0174804D01*
X0080812Y0174704D01*
X0080816Y0174603D01*
X0080816Y0174501D01*
X0080812Y0174400D01*
X0080804Y0174300D01*
X0080792Y0174199D01*
X0080776Y0174099D01*
X0080756Y0174000D01*
X0080732Y0173902D01*
X0080704Y0173805D01*
X0080673Y0173709D01*
X0080638Y0173614D01*
X0080599Y0173520D01*
X0080556Y0173429D01*
X0080510Y0173339D01*
X0080460Y0173251D01*
X0080407Y0173165D01*
X0080351Y0173081D01*
X0080291Y0172999D01*
X0080228Y0172920D01*
X0080162Y0172843D01*
X0080093Y0172770D01*
X0080021Y0172698D01*
X0079947Y0172630D01*
X0079869Y0172565D01*
X0079790Y0172503D01*
X0079707Y0172444D01*
X0079623Y0172388D01*
X0079536Y0172336D01*
X0079448Y0172287D01*
X0079358Y0172242D01*
X0079265Y0172200D01*
X0079172Y0172162D01*
X0079077Y0172128D01*
X0078980Y0172097D01*
X0078883Y0172071D01*
X0078784Y0172048D01*
X0078685Y0172029D01*
X0078585Y0172014D01*
X0078484Y0172003D01*
X0078383Y0171996D01*
X0078282Y0171993D01*
X0078181Y0171994D01*
X0078080Y0171999D01*
X0077979Y0172008D01*
X0077879Y0172021D01*
X0077779Y0172038D01*
X0077681Y0172059D01*
X0077582Y0172083D01*
X0077485Y0172112D01*
X0077390Y0172144D01*
X0077295Y0172181D01*
X0077202Y0172220D01*
X0077111Y0172264D01*
X0077022Y0172311D01*
X0076934Y0172362D01*
X0076848Y0172416D01*
X0076765Y0172473D01*
X0076684Y0172533D01*
X0076606Y0172597D01*
X0076530Y0172664D01*
X0076456Y0172734D01*
X0076386Y0172806D01*
X0076319Y0172881D01*
X0076254Y0172959D01*
X0076193Y0173040D01*
X0076135Y0173122D01*
X0076080Y0173207D01*
X0076028Y0173294D01*
X0075980Y0173383D01*
X0075936Y0173474D01*
X0075895Y0173567D01*
X0075858Y0173661D01*
X0075825Y0173756D01*
X0075795Y0173853D01*
X0075770Y0173951D01*
X0075748Y0174050D01*
X0075730Y0174149D01*
X0075716Y0174249D01*
X0075706Y0174350D01*
X0075700Y0174451D01*
X0075698Y0174552D01*
X0079437Y0206737D02*
X0078900Y0206833D01*
X0078361Y0206917D01*
X0077820Y0206989D01*
X0077278Y0207049D01*
X0076734Y0207096D01*
X0076189Y0207131D01*
X0076190Y0207130D02*
X0074320Y0207229D01*
X0074221Y0207524D02*
X0074221Y0206737D01*
X0069694Y0206737D01*
X0069694Y0207524D01*
X0074221Y0207524D01*
X0069694Y0207229D02*
X0069202Y0207229D01*
X0063592Y0207130D02*
X0063584Y0207032D01*
X0063579Y0206934D01*
X0063577Y0206835D01*
X0063579Y0206736D01*
X0063584Y0206638D01*
X0063592Y0206540D01*
X0063591Y0206540D02*
X0063690Y0205556D01*
X0061918Y0206344D02*
X0061867Y0206318D01*
X0061818Y0206290D01*
X0061771Y0206258D01*
X0061727Y0206223D01*
X0061684Y0206186D01*
X0061644Y0206146D01*
X0061607Y0206103D01*
X0061572Y0206058D01*
X0061541Y0206011D01*
X0061512Y0205963D01*
X0061487Y0205912D01*
X0061465Y0205860D01*
X0061446Y0205806D01*
X0061431Y0205752D01*
X0061419Y0205696D01*
X0061411Y0205640D01*
X0061407Y0205584D01*
X0061406Y0205527D01*
X0061409Y0205471D01*
X0061415Y0205415D01*
X0061425Y0205359D01*
X0060343Y0205063D02*
X0060245Y0205063D01*
X0064083Y0205654D02*
X0064098Y0205817D01*
X0064109Y0205981D01*
X0064116Y0206146D01*
X0064120Y0206310D01*
X0064120Y0206474D01*
X0064116Y0206638D01*
X0064109Y0206803D01*
X0064098Y0206967D01*
X0064083Y0207130D01*
X0064083Y0207131D02*
X0064078Y0207161D01*
X0064069Y0207190D01*
X0064057Y0207217D01*
X0064042Y0207244D01*
X0064024Y0207268D01*
X0064003Y0207289D01*
X0063979Y0207308D01*
X0063953Y0207324D01*
X0063926Y0207336D01*
X0063897Y0207346D01*
X0063867Y0207351D01*
X0063837Y0207353D01*
X0063807Y0207351D01*
X0063777Y0207346D01*
X0063748Y0207336D01*
X0063721Y0207324D01*
X0063695Y0207308D01*
X0063671Y0207289D01*
X0063650Y0207268D01*
X0063632Y0207244D01*
X0063617Y0207217D01*
X0063605Y0207190D01*
X0063596Y0207161D01*
X0063591Y0207131D01*
X0063100Y0206736D02*
X0062964Y0206706D01*
X0062830Y0206672D01*
X0062697Y0206635D01*
X0062564Y0206594D01*
X0062433Y0206550D01*
X0062302Y0206503D01*
X0062173Y0206453D01*
X0062045Y0206399D01*
X0061919Y0206343D01*
X0070186Y0196599D02*
X0070186Y0196304D01*
X0070186Y0196008D01*
X0070185Y0196008D02*
X0070187Y0195962D01*
X0070192Y0195916D01*
X0070201Y0195870D01*
X0070214Y0195825D01*
X0070230Y0195782D01*
X0070249Y0195740D01*
X0070272Y0195699D01*
X0070298Y0195661D01*
X0070327Y0195624D01*
X0070358Y0195590D01*
X0070392Y0195559D01*
X0070429Y0195530D01*
X0070467Y0195504D01*
X0070508Y0195481D01*
X0070550Y0195462D01*
X0070593Y0195446D01*
X0070638Y0195433D01*
X0070684Y0195424D01*
X0070730Y0195419D01*
X0070776Y0195417D01*
X0070776Y0195418D02*
X0075402Y0195418D01*
X0075402Y0195417D02*
X0075441Y0195419D01*
X0075479Y0195425D01*
X0075516Y0195434D01*
X0075553Y0195447D01*
X0075588Y0195464D01*
X0075621Y0195483D01*
X0075652Y0195506D01*
X0075681Y0195532D01*
X0075707Y0195561D01*
X0075730Y0195592D01*
X0075749Y0195625D01*
X0075766Y0195660D01*
X0075779Y0195697D01*
X0075788Y0195734D01*
X0075794Y0195772D01*
X0075796Y0195811D01*
X0075796Y0196500D01*
X0082095Y0199847D02*
X0082784Y0199847D01*
X0082846Y0199849D01*
X0082907Y0199855D01*
X0082968Y0199864D01*
X0083029Y0199878D01*
X0083088Y0199895D01*
X0083146Y0199916D01*
X0083203Y0199941D01*
X0083258Y0199969D01*
X0083311Y0200000D01*
X0083362Y0200035D01*
X0083411Y0200073D01*
X0083458Y0200114D01*
X0083501Y0200157D01*
X0083542Y0200204D01*
X0083580Y0200253D01*
X0083615Y0200304D01*
X0083646Y0200357D01*
X0083674Y0200412D01*
X0083699Y0200469D01*
X0083720Y0200527D01*
X0083737Y0200586D01*
X0083751Y0200647D01*
X0083760Y0200708D01*
X0083766Y0200769D01*
X0083768Y0200831D01*
X0083769Y0200831D02*
X0083769Y0201422D01*
X0083767Y0201481D01*
X0083761Y0201540D01*
X0083752Y0201599D01*
X0083738Y0201656D01*
X0083721Y0201713D01*
X0083700Y0201769D01*
X0083675Y0201822D01*
X0083647Y0201875D01*
X0083616Y0201925D01*
X0083582Y0201973D01*
X0083544Y0202019D01*
X0083503Y0202062D01*
X0083460Y0202103D01*
X0083414Y0202140D01*
X0083366Y0202174D01*
X0083316Y0202206D01*
X0083263Y0202234D01*
X0083209Y0202258D01*
X0083154Y0202279D01*
X0083097Y0202296D01*
X0083039Y0202309D01*
X0082981Y0202319D01*
X0082922Y0202324D01*
X0082863Y0202326D01*
X0082803Y0202324D01*
X0082744Y0202318D01*
X0082686Y0202308D01*
X0082630Y0202298D01*
X0082574Y0202292D01*
X0082517Y0202288D01*
X0082461Y0202288D01*
X0082404Y0202292D01*
X0082348Y0202298D01*
X0082292Y0202308D01*
X0081407Y0206245D02*
X0081017Y0206361D01*
X0080626Y0206468D01*
X0080232Y0206567D01*
X0079836Y0206656D01*
X0079438Y0206737D01*
X0064280Y0206933D02*
X0063983Y0206894D01*
X0063687Y0206848D01*
X0063392Y0206796D01*
X0063099Y0206736D01*
X0098631Y0217367D02*
X0045087Y0163823D01*
X0065067Y0174256D02*
X0065187Y0174243D01*
X0065305Y0174226D01*
X0065423Y0174207D01*
X0065541Y0174184D01*
X0065658Y0174158D01*
X0064281Y0206934D02*
X0065262Y0207040D01*
X0066245Y0207123D01*
X0067230Y0207182D01*
X0068215Y0207217D01*
X0069202Y0207229D01*
D16*
X0069372Y0166221D02*
X0072072Y0166221D01*
X0072572Y0163021D01*
X0075072Y0162021D02*
X0077672Y0163821D01*
X0079572Y0162021D01*
X0077772Y0159421D01*
X0078872Y0156921D02*
X0081872Y0156321D01*
X0081872Y0153721D01*
X0078872Y0153221D01*
X0077872Y0150521D02*
X0079572Y0148121D01*
X0077672Y0146221D01*
X0075272Y0147921D01*
X0074272Y0147321D01*
X0072372Y0151821D01*
X0077873Y0150516D02*
X0077969Y0150682D01*
X0078062Y0150849D01*
X0078150Y0151019D01*
X0078234Y0151191D01*
X0078314Y0151364D01*
X0078390Y0151540D01*
X0078462Y0151717D01*
X0078529Y0151896D01*
X0078593Y0152077D01*
X0078652Y0152259D01*
X0078706Y0152442D01*
X0078757Y0152627D01*
X0078803Y0152812D01*
X0078844Y0152999D01*
X0078881Y0153187D01*
X0078862Y0156921D02*
X0078812Y0157109D01*
X0078757Y0157296D01*
X0078698Y0157482D01*
X0078634Y0157666D01*
X0078566Y0157849D01*
X0078493Y0158030D01*
X0078416Y0158209D01*
X0078335Y0158386D01*
X0078249Y0158562D01*
X0078160Y0158735D01*
X0078066Y0158906D01*
X0077968Y0159074D01*
X0077866Y0159241D01*
X0077761Y0159404D01*
X0072372Y0151921D02*
X0072479Y0151976D01*
X0072585Y0152033D01*
X0072688Y0152095D01*
X0072790Y0152159D01*
X0072889Y0152227D01*
X0072986Y0152298D01*
X0073081Y0152372D01*
X0073173Y0152449D01*
X0073263Y0152530D01*
X0073350Y0152613D01*
X0073434Y0152699D01*
X0073515Y0152787D01*
X0073593Y0152879D01*
X0073669Y0152973D01*
X0073741Y0153069D01*
X0073810Y0153167D01*
X0073876Y0153268D01*
X0073938Y0153371D01*
X0073997Y0153476D01*
X0074053Y0153582D01*
X0074105Y0153691D01*
X0074153Y0153801D01*
X0074198Y0153913D01*
X0074239Y0154026D01*
X0074276Y0154140D01*
X0074310Y0154256D01*
X0074339Y0154372D01*
X0074365Y0154490D01*
X0074387Y0154608D01*
X0074406Y0154727D01*
X0074420Y0154846D01*
X0074430Y0154966D01*
X0074437Y0155086D01*
X0074439Y0155207D01*
X0074437Y0155327D01*
X0074432Y0155447D01*
X0074423Y0155567D01*
X0074409Y0155687D01*
X0074392Y0155806D01*
X0074371Y0155924D01*
X0074346Y0156042D01*
X0074317Y0156159D01*
X0074284Y0156274D01*
X0074248Y0156389D01*
X0074208Y0156502D01*
X0074164Y0156614D01*
X0074116Y0156725D01*
X0074065Y0156834D01*
X0074011Y0156941D01*
X0073952Y0157046D01*
X0073891Y0157150D01*
X0073826Y0157251D01*
X0073758Y0157350D01*
X0073686Y0157447D01*
X0073612Y0157541D01*
X0073534Y0157633D01*
X0073454Y0157722D01*
X0073370Y0157809D01*
X0073284Y0157893D01*
X0073195Y0157974D01*
X0073103Y0158052D01*
X0073009Y0158127D01*
X0072913Y0158198D01*
X0072814Y0158267D01*
X0072713Y0158332D01*
X0072610Y0158394D01*
X0072505Y0158453D01*
X0072398Y0158508D01*
X0072289Y0158560D01*
X0072179Y0158607D01*
X0072067Y0158652D01*
X0071954Y0158692D01*
X0071839Y0158729D01*
X0071723Y0158762D01*
X0071607Y0158792D01*
X0071489Y0158817D01*
X0071371Y0158839D01*
X0071252Y0158856D01*
X0071132Y0158870D01*
X0071012Y0158880D01*
X0070892Y0158886D01*
X0070772Y0158888D01*
X0070652Y0158886D01*
X0070532Y0158880D01*
X0070412Y0158870D01*
X0070292Y0158856D01*
X0070173Y0158839D01*
X0070055Y0158817D01*
X0069937Y0158792D01*
X0069821Y0158762D01*
X0069705Y0158729D01*
X0069590Y0158692D01*
X0069477Y0158652D01*
X0069365Y0158607D01*
X0069255Y0158560D01*
X0069146Y0158508D01*
X0069039Y0158453D01*
X0068934Y0158394D01*
X0068831Y0158332D01*
X0068730Y0158267D01*
X0068631Y0158198D01*
X0068535Y0158127D01*
X0068441Y0158052D01*
X0068349Y0157974D01*
X0068260Y0157893D01*
X0068174Y0157809D01*
X0068090Y0157722D01*
X0068010Y0157633D01*
X0067932Y0157541D01*
X0067858Y0157447D01*
X0067786Y0157350D01*
X0067718Y0157251D01*
X0067653Y0157150D01*
X0067592Y0157046D01*
X0067533Y0156941D01*
X0067479Y0156834D01*
X0067428Y0156725D01*
X0067380Y0156614D01*
X0067336Y0156502D01*
X0067296Y0156389D01*
X0067260Y0156274D01*
X0067227Y0156159D01*
X0067198Y0156042D01*
X0067173Y0155924D01*
X0067152Y0155806D01*
X0067135Y0155687D01*
X0067121Y0155567D01*
X0067112Y0155447D01*
X0067107Y0155327D01*
X0067105Y0155207D01*
X0067107Y0155086D01*
X0067114Y0154966D01*
X0067124Y0154846D01*
X0067138Y0154727D01*
X0067157Y0154608D01*
X0067179Y0154490D01*
X0067205Y0154372D01*
X0067234Y0154256D01*
X0067268Y0154140D01*
X0067305Y0154026D01*
X0067346Y0153913D01*
X0067391Y0153801D01*
X0067439Y0153691D01*
X0067491Y0153582D01*
X0067547Y0153476D01*
X0067606Y0153371D01*
X0067668Y0153268D01*
X0067734Y0153167D01*
X0067803Y0153069D01*
X0067875Y0152973D01*
X0067951Y0152879D01*
X0068029Y0152787D01*
X0068110Y0152699D01*
X0068194Y0152613D01*
X0068281Y0152530D01*
X0068371Y0152449D01*
X0068463Y0152372D01*
X0068558Y0152298D01*
X0068655Y0152227D01*
X0068754Y0152159D01*
X0068856Y0152095D01*
X0068959Y0152033D01*
X0069065Y0151976D01*
X0069172Y0151921D01*
X0069172Y0151821D02*
X0067172Y0147321D01*
X0066172Y0147921D01*
X0063772Y0146221D01*
X0061972Y0148121D01*
X0063572Y0150521D01*
X0062572Y0153221D02*
X0059572Y0153721D01*
X0059572Y0156321D01*
X0062572Y0156921D01*
X0063672Y0159421D02*
X0061872Y0162021D01*
X0063772Y0163821D01*
X0066372Y0162021D01*
X0068872Y0163021D02*
X0069372Y0166221D01*
X0068797Y0163027D02*
X0068604Y0162980D01*
X0068411Y0162927D01*
X0068220Y0162870D01*
X0068031Y0162809D01*
X0067843Y0162743D01*
X0067656Y0162672D01*
X0067472Y0162597D01*
X0067289Y0162518D01*
X0067108Y0162434D01*
X0066929Y0162346D01*
X0066753Y0162254D01*
X0066578Y0162157D01*
X0066406Y0162057D01*
X0063681Y0159367D02*
X0063581Y0159205D01*
X0063484Y0159040D01*
X0063391Y0158873D01*
X0063303Y0158704D01*
X0063218Y0158534D01*
X0063137Y0158361D01*
X0063060Y0158186D01*
X0062987Y0158010D01*
X0062918Y0157832D01*
X0062853Y0157652D01*
X0062792Y0157472D01*
X0062736Y0157289D01*
X0062683Y0157106D01*
X0062635Y0156921D01*
X0062579Y0153205D02*
X0062622Y0153005D01*
X0062669Y0152807D01*
X0062721Y0152610D01*
X0062779Y0152414D01*
X0062840Y0152219D01*
X0062907Y0152026D01*
X0062978Y0151835D01*
X0063054Y0151645D01*
X0063135Y0151458D01*
X0063220Y0151272D01*
X0063310Y0151089D01*
X0063404Y0150908D01*
X0063503Y0150729D01*
X0063606Y0150553D01*
X0072625Y0163046D02*
X0072812Y0163001D01*
X0072998Y0162952D01*
X0073183Y0162898D01*
X0073366Y0162840D01*
X0073548Y0162778D01*
X0073729Y0162712D01*
X0073908Y0162642D01*
X0074085Y0162568D01*
X0074261Y0162489D01*
X0074434Y0162407D01*
X0074606Y0162320D01*
X0074776Y0162230D01*
X0074944Y0162136D01*
X0075109Y0162038D01*
D17*
X0165324Y0323717D03*
X0168276Y0323717D03*
X0219753Y0321020D03*
X0222706Y0321020D03*
D18*
X0221229Y0321020D03*
X0166800Y0323717D03*
D19*
X0157863Y0330705D02*
X0086209Y0330705D01*
X0086209Y0290547D01*
X0157863Y0290547D01*
X0157863Y0330705D01*
X0145363Y0323205D02*
X0145363Y0315705D01*
X0145363Y0314445D01*
X0152863Y0314445D01*
X0145363Y0314445D02*
X0145363Y0306945D01*
X0152863Y0306945D01*
X0145363Y0306945D02*
X0145363Y0298205D01*
X0135363Y0298205D01*
X0135363Y0305705D01*
X0135363Y0323205D01*
X0145363Y0323205D01*
X0145363Y0315705D02*
X0135363Y0305705D01*
X0122863Y0323205D02*
X0109103Y0300705D01*
X0109103Y0295705D01*
X0115363Y0318205D02*
X0120363Y0323205D01*
X0115363Y0328205D01*
X0115363Y0318205D01*
X0120363Y0323205D02*
X0107863Y0323205D01*
X0082505Y0320224D02*
X0082505Y0294224D01*
X0082505Y0293425D01*
X0043206Y0293425D01*
X0043206Y0294224D01*
X0043206Y0320224D01*
X0043206Y0329626D01*
X0082505Y0329626D01*
X0082505Y0320224D01*
X0076206Y0320224D01*
X0069206Y0320224D02*
X0056505Y0320224D01*
X0049505Y0320224D02*
X0043206Y0320224D01*
X0041048Y0320224D02*
X0041048Y0294224D01*
X0041048Y0293425D01*
X0001749Y0293425D01*
X0001749Y0294224D01*
X0001749Y0320224D01*
X0001749Y0329626D01*
X0041048Y0329626D01*
X0041048Y0320224D01*
X0034749Y0320224D01*
X0027749Y0320224D02*
X0015048Y0320224D01*
X0008048Y0320224D02*
X0001749Y0320224D01*
X0009549Y0299426D02*
X0009551Y0299515D01*
X0009557Y0299604D01*
X0009567Y0299693D01*
X0009581Y0299781D01*
X0009598Y0299868D01*
X0009620Y0299954D01*
X0009646Y0300040D01*
X0009675Y0300124D01*
X0009708Y0300207D01*
X0009744Y0300288D01*
X0009785Y0300368D01*
X0009828Y0300445D01*
X0009875Y0300521D01*
X0009926Y0300594D01*
X0009979Y0300665D01*
X0010036Y0300734D01*
X0010096Y0300800D01*
X0010159Y0300864D01*
X0010224Y0300924D01*
X0010292Y0300982D01*
X0010363Y0301036D01*
X0010436Y0301087D01*
X0010511Y0301135D01*
X0010588Y0301180D01*
X0010667Y0301221D01*
X0010748Y0301258D01*
X0010830Y0301292D01*
X0010914Y0301323D01*
X0010999Y0301349D01*
X0011085Y0301372D01*
X0011172Y0301390D01*
X0011260Y0301405D01*
X0011349Y0301416D01*
X0011438Y0301423D01*
X0011527Y0301426D01*
X0011616Y0301425D01*
X0011705Y0301420D01*
X0011793Y0301411D01*
X0011882Y0301398D01*
X0011969Y0301381D01*
X0012056Y0301361D01*
X0012142Y0301336D01*
X0012226Y0301308D01*
X0012309Y0301276D01*
X0012391Y0301240D01*
X0012471Y0301201D01*
X0012549Y0301158D01*
X0012625Y0301112D01*
X0012699Y0301062D01*
X0012771Y0301009D01*
X0012840Y0300953D01*
X0012907Y0300894D01*
X0012971Y0300832D01*
X0013032Y0300768D01*
X0013091Y0300700D01*
X0013146Y0300630D01*
X0013198Y0300558D01*
X0013247Y0300483D01*
X0013292Y0300407D01*
X0013334Y0300328D01*
X0013372Y0300248D01*
X0013407Y0300166D01*
X0013438Y0300082D01*
X0013466Y0299997D01*
X0013489Y0299911D01*
X0013509Y0299824D01*
X0013525Y0299737D01*
X0013537Y0299648D01*
X0013545Y0299560D01*
X0013549Y0299471D01*
X0013549Y0299381D01*
X0013545Y0299292D01*
X0013537Y0299204D01*
X0013525Y0299115D01*
X0013509Y0299028D01*
X0013489Y0298941D01*
X0013466Y0298855D01*
X0013438Y0298770D01*
X0013407Y0298686D01*
X0013372Y0298604D01*
X0013334Y0298524D01*
X0013292Y0298445D01*
X0013247Y0298369D01*
X0013198Y0298294D01*
X0013146Y0298222D01*
X0013091Y0298152D01*
X0013032Y0298084D01*
X0012971Y0298020D01*
X0012907Y0297958D01*
X0012840Y0297899D01*
X0012771Y0297843D01*
X0012699Y0297790D01*
X0012625Y0297740D01*
X0012549Y0297694D01*
X0012471Y0297651D01*
X0012391Y0297612D01*
X0012309Y0297576D01*
X0012226Y0297544D01*
X0012142Y0297516D01*
X0012056Y0297491D01*
X0011969Y0297471D01*
X0011882Y0297454D01*
X0011793Y0297441D01*
X0011705Y0297432D01*
X0011616Y0297427D01*
X0011527Y0297426D01*
X0011438Y0297429D01*
X0011349Y0297436D01*
X0011260Y0297447D01*
X0011172Y0297462D01*
X0011085Y0297480D01*
X0010999Y0297503D01*
X0010914Y0297529D01*
X0010830Y0297560D01*
X0010748Y0297594D01*
X0010667Y0297631D01*
X0010588Y0297672D01*
X0010511Y0297717D01*
X0010436Y0297765D01*
X0010363Y0297816D01*
X0010292Y0297870D01*
X0010224Y0297928D01*
X0010159Y0297988D01*
X0010096Y0298052D01*
X0010036Y0298118D01*
X0009979Y0298187D01*
X0009926Y0298258D01*
X0009875Y0298331D01*
X0009828Y0298407D01*
X0009785Y0298484D01*
X0009744Y0298564D01*
X0009708Y0298645D01*
X0009675Y0298728D01*
X0009646Y0298812D01*
X0009620Y0298898D01*
X0009598Y0298984D01*
X0009581Y0299071D01*
X0009567Y0299159D01*
X0009557Y0299248D01*
X0009551Y0299337D01*
X0009549Y0299426D01*
X0001749Y0294224D02*
X0041048Y0294224D01*
X0043206Y0294224D02*
X0082505Y0294224D01*
X0070706Y0299426D02*
X0070708Y0299515D01*
X0070714Y0299604D01*
X0070724Y0299693D01*
X0070738Y0299781D01*
X0070755Y0299868D01*
X0070777Y0299954D01*
X0070803Y0300040D01*
X0070832Y0300124D01*
X0070865Y0300207D01*
X0070901Y0300288D01*
X0070942Y0300368D01*
X0070985Y0300445D01*
X0071032Y0300521D01*
X0071083Y0300594D01*
X0071136Y0300665D01*
X0071193Y0300734D01*
X0071253Y0300800D01*
X0071316Y0300864D01*
X0071381Y0300924D01*
X0071449Y0300982D01*
X0071520Y0301036D01*
X0071593Y0301087D01*
X0071668Y0301135D01*
X0071745Y0301180D01*
X0071824Y0301221D01*
X0071905Y0301258D01*
X0071987Y0301292D01*
X0072071Y0301323D01*
X0072156Y0301349D01*
X0072242Y0301372D01*
X0072329Y0301390D01*
X0072417Y0301405D01*
X0072506Y0301416D01*
X0072595Y0301423D01*
X0072684Y0301426D01*
X0072773Y0301425D01*
X0072862Y0301420D01*
X0072950Y0301411D01*
X0073039Y0301398D01*
X0073126Y0301381D01*
X0073213Y0301361D01*
X0073299Y0301336D01*
X0073383Y0301308D01*
X0073466Y0301276D01*
X0073548Y0301240D01*
X0073628Y0301201D01*
X0073706Y0301158D01*
X0073782Y0301112D01*
X0073856Y0301062D01*
X0073928Y0301009D01*
X0073997Y0300953D01*
X0074064Y0300894D01*
X0074128Y0300832D01*
X0074189Y0300768D01*
X0074248Y0300700D01*
X0074303Y0300630D01*
X0074355Y0300558D01*
X0074404Y0300483D01*
X0074449Y0300407D01*
X0074491Y0300328D01*
X0074529Y0300248D01*
X0074564Y0300166D01*
X0074595Y0300082D01*
X0074623Y0299997D01*
X0074646Y0299911D01*
X0074666Y0299824D01*
X0074682Y0299737D01*
X0074694Y0299648D01*
X0074702Y0299560D01*
X0074706Y0299471D01*
X0074706Y0299381D01*
X0074702Y0299292D01*
X0074694Y0299204D01*
X0074682Y0299115D01*
X0074666Y0299028D01*
X0074646Y0298941D01*
X0074623Y0298855D01*
X0074595Y0298770D01*
X0074564Y0298686D01*
X0074529Y0298604D01*
X0074491Y0298524D01*
X0074449Y0298445D01*
X0074404Y0298369D01*
X0074355Y0298294D01*
X0074303Y0298222D01*
X0074248Y0298152D01*
X0074189Y0298084D01*
X0074128Y0298020D01*
X0074064Y0297958D01*
X0073997Y0297899D01*
X0073928Y0297843D01*
X0073856Y0297790D01*
X0073782Y0297740D01*
X0073706Y0297694D01*
X0073628Y0297651D01*
X0073548Y0297612D01*
X0073466Y0297576D01*
X0073383Y0297544D01*
X0073299Y0297516D01*
X0073213Y0297491D01*
X0073126Y0297471D01*
X0073039Y0297454D01*
X0072950Y0297441D01*
X0072862Y0297432D01*
X0072773Y0297427D01*
X0072684Y0297426D01*
X0072595Y0297429D01*
X0072506Y0297436D01*
X0072417Y0297447D01*
X0072329Y0297462D01*
X0072242Y0297480D01*
X0072156Y0297503D01*
X0072071Y0297529D01*
X0071987Y0297560D01*
X0071905Y0297594D01*
X0071824Y0297631D01*
X0071745Y0297672D01*
X0071668Y0297717D01*
X0071593Y0297765D01*
X0071520Y0297816D01*
X0071449Y0297870D01*
X0071381Y0297928D01*
X0071316Y0297988D01*
X0071253Y0298052D01*
X0071193Y0298118D01*
X0071136Y0298187D01*
X0071083Y0298258D01*
X0071032Y0298331D01*
X0070985Y0298407D01*
X0070942Y0298484D01*
X0070901Y0298564D01*
X0070865Y0298645D01*
X0070832Y0298728D01*
X0070803Y0298812D01*
X0070777Y0298898D01*
X0070755Y0298984D01*
X0070738Y0299071D01*
X0070724Y0299159D01*
X0070714Y0299248D01*
X0070708Y0299337D01*
X0070706Y0299426D01*
X0051006Y0299426D02*
X0051008Y0299515D01*
X0051014Y0299604D01*
X0051024Y0299693D01*
X0051038Y0299781D01*
X0051055Y0299868D01*
X0051077Y0299954D01*
X0051103Y0300040D01*
X0051132Y0300124D01*
X0051165Y0300207D01*
X0051201Y0300288D01*
X0051242Y0300368D01*
X0051285Y0300445D01*
X0051332Y0300521D01*
X0051383Y0300594D01*
X0051436Y0300665D01*
X0051493Y0300734D01*
X0051553Y0300800D01*
X0051616Y0300864D01*
X0051681Y0300924D01*
X0051749Y0300982D01*
X0051820Y0301036D01*
X0051893Y0301087D01*
X0051968Y0301135D01*
X0052045Y0301180D01*
X0052124Y0301221D01*
X0052205Y0301258D01*
X0052287Y0301292D01*
X0052371Y0301323D01*
X0052456Y0301349D01*
X0052542Y0301372D01*
X0052629Y0301390D01*
X0052717Y0301405D01*
X0052806Y0301416D01*
X0052895Y0301423D01*
X0052984Y0301426D01*
X0053073Y0301425D01*
X0053162Y0301420D01*
X0053250Y0301411D01*
X0053339Y0301398D01*
X0053426Y0301381D01*
X0053513Y0301361D01*
X0053599Y0301336D01*
X0053683Y0301308D01*
X0053766Y0301276D01*
X0053848Y0301240D01*
X0053928Y0301201D01*
X0054006Y0301158D01*
X0054082Y0301112D01*
X0054156Y0301062D01*
X0054228Y0301009D01*
X0054297Y0300953D01*
X0054364Y0300894D01*
X0054428Y0300832D01*
X0054489Y0300768D01*
X0054548Y0300700D01*
X0054603Y0300630D01*
X0054655Y0300558D01*
X0054704Y0300483D01*
X0054749Y0300407D01*
X0054791Y0300328D01*
X0054829Y0300248D01*
X0054864Y0300166D01*
X0054895Y0300082D01*
X0054923Y0299997D01*
X0054946Y0299911D01*
X0054966Y0299824D01*
X0054982Y0299737D01*
X0054994Y0299648D01*
X0055002Y0299560D01*
X0055006Y0299471D01*
X0055006Y0299381D01*
X0055002Y0299292D01*
X0054994Y0299204D01*
X0054982Y0299115D01*
X0054966Y0299028D01*
X0054946Y0298941D01*
X0054923Y0298855D01*
X0054895Y0298770D01*
X0054864Y0298686D01*
X0054829Y0298604D01*
X0054791Y0298524D01*
X0054749Y0298445D01*
X0054704Y0298369D01*
X0054655Y0298294D01*
X0054603Y0298222D01*
X0054548Y0298152D01*
X0054489Y0298084D01*
X0054428Y0298020D01*
X0054364Y0297958D01*
X0054297Y0297899D01*
X0054228Y0297843D01*
X0054156Y0297790D01*
X0054082Y0297740D01*
X0054006Y0297694D01*
X0053928Y0297651D01*
X0053848Y0297612D01*
X0053766Y0297576D01*
X0053683Y0297544D01*
X0053599Y0297516D01*
X0053513Y0297491D01*
X0053426Y0297471D01*
X0053339Y0297454D01*
X0053250Y0297441D01*
X0053162Y0297432D01*
X0053073Y0297427D01*
X0052984Y0297426D01*
X0052895Y0297429D01*
X0052806Y0297436D01*
X0052717Y0297447D01*
X0052629Y0297462D01*
X0052542Y0297480D01*
X0052456Y0297503D01*
X0052371Y0297529D01*
X0052287Y0297560D01*
X0052205Y0297594D01*
X0052124Y0297631D01*
X0052045Y0297672D01*
X0051968Y0297717D01*
X0051893Y0297765D01*
X0051820Y0297816D01*
X0051749Y0297870D01*
X0051681Y0297928D01*
X0051616Y0297988D01*
X0051553Y0298052D01*
X0051493Y0298118D01*
X0051436Y0298187D01*
X0051383Y0298258D01*
X0051332Y0298331D01*
X0051285Y0298407D01*
X0051242Y0298484D01*
X0051201Y0298564D01*
X0051165Y0298645D01*
X0051132Y0298728D01*
X0051103Y0298812D01*
X0051077Y0298898D01*
X0051055Y0298984D01*
X0051038Y0299071D01*
X0051024Y0299159D01*
X0051014Y0299248D01*
X0051008Y0299337D01*
X0051006Y0299426D01*
X0029249Y0299426D02*
X0029251Y0299515D01*
X0029257Y0299604D01*
X0029267Y0299693D01*
X0029281Y0299781D01*
X0029298Y0299868D01*
X0029320Y0299954D01*
X0029346Y0300040D01*
X0029375Y0300124D01*
X0029408Y0300207D01*
X0029444Y0300288D01*
X0029485Y0300368D01*
X0029528Y0300445D01*
X0029575Y0300521D01*
X0029626Y0300594D01*
X0029679Y0300665D01*
X0029736Y0300734D01*
X0029796Y0300800D01*
X0029859Y0300864D01*
X0029924Y0300924D01*
X0029992Y0300982D01*
X0030063Y0301036D01*
X0030136Y0301087D01*
X0030211Y0301135D01*
X0030288Y0301180D01*
X0030367Y0301221D01*
X0030448Y0301258D01*
X0030530Y0301292D01*
X0030614Y0301323D01*
X0030699Y0301349D01*
X0030785Y0301372D01*
X0030872Y0301390D01*
X0030960Y0301405D01*
X0031049Y0301416D01*
X0031138Y0301423D01*
X0031227Y0301426D01*
X0031316Y0301425D01*
X0031405Y0301420D01*
X0031493Y0301411D01*
X0031582Y0301398D01*
X0031669Y0301381D01*
X0031756Y0301361D01*
X0031842Y0301336D01*
X0031926Y0301308D01*
X0032009Y0301276D01*
X0032091Y0301240D01*
X0032171Y0301201D01*
X0032249Y0301158D01*
X0032325Y0301112D01*
X0032399Y0301062D01*
X0032471Y0301009D01*
X0032540Y0300953D01*
X0032607Y0300894D01*
X0032671Y0300832D01*
X0032732Y0300768D01*
X0032791Y0300700D01*
X0032846Y0300630D01*
X0032898Y0300558D01*
X0032947Y0300483D01*
X0032992Y0300407D01*
X0033034Y0300328D01*
X0033072Y0300248D01*
X0033107Y0300166D01*
X0033138Y0300082D01*
X0033166Y0299997D01*
X0033189Y0299911D01*
X0033209Y0299824D01*
X0033225Y0299737D01*
X0033237Y0299648D01*
X0033245Y0299560D01*
X0033249Y0299471D01*
X0033249Y0299381D01*
X0033245Y0299292D01*
X0033237Y0299204D01*
X0033225Y0299115D01*
X0033209Y0299028D01*
X0033189Y0298941D01*
X0033166Y0298855D01*
X0033138Y0298770D01*
X0033107Y0298686D01*
X0033072Y0298604D01*
X0033034Y0298524D01*
X0032992Y0298445D01*
X0032947Y0298369D01*
X0032898Y0298294D01*
X0032846Y0298222D01*
X0032791Y0298152D01*
X0032732Y0298084D01*
X0032671Y0298020D01*
X0032607Y0297958D01*
X0032540Y0297899D01*
X0032471Y0297843D01*
X0032399Y0297790D01*
X0032325Y0297740D01*
X0032249Y0297694D01*
X0032171Y0297651D01*
X0032091Y0297612D01*
X0032009Y0297576D01*
X0031926Y0297544D01*
X0031842Y0297516D01*
X0031756Y0297491D01*
X0031669Y0297471D01*
X0031582Y0297454D01*
X0031493Y0297441D01*
X0031405Y0297432D01*
X0031316Y0297427D01*
X0031227Y0297426D01*
X0031138Y0297429D01*
X0031049Y0297436D01*
X0030960Y0297447D01*
X0030872Y0297462D01*
X0030785Y0297480D01*
X0030699Y0297503D01*
X0030614Y0297529D01*
X0030530Y0297560D01*
X0030448Y0297594D01*
X0030367Y0297631D01*
X0030288Y0297672D01*
X0030211Y0297717D01*
X0030136Y0297765D01*
X0030063Y0297816D01*
X0029992Y0297870D01*
X0029924Y0297928D01*
X0029859Y0297988D01*
X0029796Y0298052D01*
X0029736Y0298118D01*
X0029679Y0298187D01*
X0029626Y0298258D01*
X0029575Y0298331D01*
X0029528Y0298407D01*
X0029485Y0298484D01*
X0029444Y0298564D01*
X0029408Y0298645D01*
X0029375Y0298728D01*
X0029346Y0298812D01*
X0029320Y0298898D01*
X0029298Y0298984D01*
X0029281Y0299071D01*
X0029267Y0299159D01*
X0029257Y0299248D01*
X0029251Y0299337D01*
X0029249Y0299426D01*
X0248001Y0176925D02*
X0248001Y0149327D01*
X0275599Y0149327D01*
X0275599Y0175528D01*
X0274202Y0176925D01*
X0248001Y0176925D01*
X0271186Y0173926D02*
X0271188Y0174001D01*
X0271194Y0174075D01*
X0271204Y0174149D01*
X0271217Y0174222D01*
X0271235Y0174295D01*
X0271256Y0174366D01*
X0271281Y0174437D01*
X0271310Y0174506D01*
X0271343Y0174573D01*
X0271379Y0174638D01*
X0271418Y0174702D01*
X0271460Y0174763D01*
X0271506Y0174822D01*
X0271555Y0174879D01*
X0271607Y0174932D01*
X0271661Y0174983D01*
X0271718Y0175032D01*
X0271778Y0175076D01*
X0271840Y0175118D01*
X0271904Y0175157D01*
X0271970Y0175192D01*
X0272037Y0175223D01*
X0272107Y0175251D01*
X0272177Y0175275D01*
X0272249Y0175296D01*
X0272322Y0175312D01*
X0272395Y0175325D01*
X0272470Y0175334D01*
X0272544Y0175339D01*
X0272619Y0175340D01*
X0272693Y0175337D01*
X0272768Y0175330D01*
X0272841Y0175319D01*
X0272915Y0175305D01*
X0272987Y0175286D01*
X0273058Y0175264D01*
X0273128Y0175238D01*
X0273197Y0175208D01*
X0273263Y0175175D01*
X0273328Y0175138D01*
X0273391Y0175098D01*
X0273452Y0175054D01*
X0273510Y0175008D01*
X0273566Y0174958D01*
X0273619Y0174906D01*
X0273670Y0174851D01*
X0273717Y0174793D01*
X0273761Y0174733D01*
X0273802Y0174670D01*
X0273840Y0174606D01*
X0273874Y0174540D01*
X0273905Y0174471D01*
X0273932Y0174402D01*
X0273955Y0174331D01*
X0273974Y0174259D01*
X0273990Y0174186D01*
X0274002Y0174112D01*
X0274010Y0174038D01*
X0274014Y0173963D01*
X0274014Y0173889D01*
X0274010Y0173814D01*
X0274002Y0173740D01*
X0273990Y0173666D01*
X0273974Y0173593D01*
X0273955Y0173521D01*
X0273932Y0173450D01*
X0273905Y0173381D01*
X0273874Y0173312D01*
X0273840Y0173246D01*
X0273802Y0173182D01*
X0273761Y0173119D01*
X0273717Y0173059D01*
X0273670Y0173001D01*
X0273619Y0172946D01*
X0273566Y0172894D01*
X0273510Y0172844D01*
X0273452Y0172798D01*
X0273391Y0172754D01*
X0273328Y0172714D01*
X0273263Y0172677D01*
X0273197Y0172644D01*
X0273128Y0172614D01*
X0273058Y0172588D01*
X0272987Y0172566D01*
X0272915Y0172547D01*
X0272841Y0172533D01*
X0272768Y0172522D01*
X0272693Y0172515D01*
X0272619Y0172512D01*
X0272544Y0172513D01*
X0272470Y0172518D01*
X0272395Y0172527D01*
X0272322Y0172540D01*
X0272249Y0172556D01*
X0272177Y0172577D01*
X0272107Y0172601D01*
X0272037Y0172629D01*
X0271970Y0172660D01*
X0271904Y0172695D01*
X0271840Y0172734D01*
X0271778Y0172776D01*
X0271718Y0172820D01*
X0271661Y0172869D01*
X0271607Y0172920D01*
X0271555Y0172973D01*
X0271506Y0173030D01*
X0271460Y0173089D01*
X0271418Y0173150D01*
X0271379Y0173214D01*
X0271343Y0173279D01*
X0271310Y0173346D01*
X0271281Y0173415D01*
X0271256Y0173486D01*
X0271235Y0173557D01*
X0271217Y0173630D01*
X0271204Y0173703D01*
X0271194Y0173777D01*
X0271188Y0173851D01*
X0271186Y0173926D01*
X0374284Y0075626D02*
X0374287Y0075835D01*
X0374294Y0076043D01*
X0374307Y0076251D01*
X0374325Y0076459D01*
X0374348Y0076666D01*
X0374376Y0076873D01*
X0374409Y0077079D01*
X0374447Y0077284D01*
X0374491Y0077488D01*
X0374539Y0077691D01*
X0374592Y0077893D01*
X0374650Y0078093D01*
X0374713Y0078292D01*
X0374781Y0078490D01*
X0374854Y0078685D01*
X0374931Y0078879D01*
X0375013Y0079071D01*
X0375100Y0079260D01*
X0375192Y0079448D01*
X0375288Y0079633D01*
X0375388Y0079816D01*
X0375493Y0079996D01*
X0375603Y0080173D01*
X0375717Y0080348D01*
X0375835Y0080520D01*
X0375957Y0080689D01*
X0376083Y0080855D01*
X0376213Y0081018D01*
X0376348Y0081178D01*
X0376486Y0081334D01*
X0376628Y0081487D01*
X0376774Y0081636D01*
X0376923Y0081782D01*
X0377076Y0081924D01*
X0377232Y0082062D01*
X0377392Y0082197D01*
X0377555Y0082327D01*
X0377721Y0082453D01*
X0377890Y0082575D01*
X0378062Y0082693D01*
X0378237Y0082807D01*
X0378414Y0082917D01*
X0378594Y0083022D01*
X0378777Y0083122D01*
X0378962Y0083218D01*
X0379150Y0083310D01*
X0379339Y0083397D01*
X0379531Y0083479D01*
X0379725Y0083556D01*
X0379920Y0083629D01*
X0380118Y0083697D01*
X0380317Y0083760D01*
X0380517Y0083818D01*
X0380719Y0083871D01*
X0380922Y0083919D01*
X0381126Y0083963D01*
X0381331Y0084001D01*
X0381537Y0084034D01*
X0381744Y0084062D01*
X0381951Y0084085D01*
X0382159Y0084103D01*
X0382367Y0084116D01*
X0382575Y0084123D01*
X0382784Y0084126D01*
X0382993Y0084123D01*
X0383201Y0084116D01*
X0383409Y0084103D01*
X0383617Y0084085D01*
X0383824Y0084062D01*
X0384031Y0084034D01*
X0384237Y0084001D01*
X0384442Y0083963D01*
X0384646Y0083919D01*
X0384849Y0083871D01*
X0385051Y0083818D01*
X0385251Y0083760D01*
X0385450Y0083697D01*
X0385648Y0083629D01*
X0385843Y0083556D01*
X0386037Y0083479D01*
X0386229Y0083397D01*
X0386418Y0083310D01*
X0386606Y0083218D01*
X0386791Y0083122D01*
X0386974Y0083022D01*
X0387154Y0082917D01*
X0387331Y0082807D01*
X0387506Y0082693D01*
X0387678Y0082575D01*
X0387847Y0082453D01*
X0388013Y0082327D01*
X0388176Y0082197D01*
X0388336Y0082062D01*
X0388492Y0081924D01*
X0388645Y0081782D01*
X0388794Y0081636D01*
X0388940Y0081487D01*
X0389082Y0081334D01*
X0389220Y0081178D01*
X0389355Y0081018D01*
X0389485Y0080855D01*
X0389611Y0080689D01*
X0389733Y0080520D01*
X0389851Y0080348D01*
X0389965Y0080173D01*
X0390075Y0079996D01*
X0390180Y0079816D01*
X0390280Y0079633D01*
X0390376Y0079448D01*
X0390468Y0079260D01*
X0390555Y0079071D01*
X0390637Y0078879D01*
X0390714Y0078685D01*
X0390787Y0078490D01*
X0390855Y0078292D01*
X0390918Y0078093D01*
X0390976Y0077893D01*
X0391029Y0077691D01*
X0391077Y0077488D01*
X0391121Y0077284D01*
X0391159Y0077079D01*
X0391192Y0076873D01*
X0391220Y0076666D01*
X0391243Y0076459D01*
X0391261Y0076251D01*
X0391274Y0076043D01*
X0391281Y0075835D01*
X0391284Y0075626D01*
X0391281Y0075417D01*
X0391274Y0075209D01*
X0391261Y0075001D01*
X0391243Y0074793D01*
X0391220Y0074586D01*
X0391192Y0074379D01*
X0391159Y0074173D01*
X0391121Y0073968D01*
X0391077Y0073764D01*
X0391029Y0073561D01*
X0390976Y0073359D01*
X0390918Y0073159D01*
X0390855Y0072960D01*
X0390787Y0072762D01*
X0390714Y0072567D01*
X0390637Y0072373D01*
X0390555Y0072181D01*
X0390468Y0071992D01*
X0390376Y0071804D01*
X0390280Y0071619D01*
X0390180Y0071436D01*
X0390075Y0071256D01*
X0389965Y0071079D01*
X0389851Y0070904D01*
X0389733Y0070732D01*
X0389611Y0070563D01*
X0389485Y0070397D01*
X0389355Y0070234D01*
X0389220Y0070074D01*
X0389082Y0069918D01*
X0388940Y0069765D01*
X0388794Y0069616D01*
X0388645Y0069470D01*
X0388492Y0069328D01*
X0388336Y0069190D01*
X0388176Y0069055D01*
X0388013Y0068925D01*
X0387847Y0068799D01*
X0387678Y0068677D01*
X0387506Y0068559D01*
X0387331Y0068445D01*
X0387154Y0068335D01*
X0386974Y0068230D01*
X0386791Y0068130D01*
X0386606Y0068034D01*
X0386418Y0067942D01*
X0386229Y0067855D01*
X0386037Y0067773D01*
X0385843Y0067696D01*
X0385648Y0067623D01*
X0385450Y0067555D01*
X0385251Y0067492D01*
X0385051Y0067434D01*
X0384849Y0067381D01*
X0384646Y0067333D01*
X0384442Y0067289D01*
X0384237Y0067251D01*
X0384031Y0067218D01*
X0383824Y0067190D01*
X0383617Y0067167D01*
X0383409Y0067149D01*
X0383201Y0067136D01*
X0382993Y0067129D01*
X0382784Y0067126D01*
X0382575Y0067129D01*
X0382367Y0067136D01*
X0382159Y0067149D01*
X0381951Y0067167D01*
X0381744Y0067190D01*
X0381537Y0067218D01*
X0381331Y0067251D01*
X0381126Y0067289D01*
X0380922Y0067333D01*
X0380719Y0067381D01*
X0380517Y0067434D01*
X0380317Y0067492D01*
X0380118Y0067555D01*
X0379920Y0067623D01*
X0379725Y0067696D01*
X0379531Y0067773D01*
X0379339Y0067855D01*
X0379150Y0067942D01*
X0378962Y0068034D01*
X0378777Y0068130D01*
X0378594Y0068230D01*
X0378414Y0068335D01*
X0378237Y0068445D01*
X0378062Y0068559D01*
X0377890Y0068677D01*
X0377721Y0068799D01*
X0377555Y0068925D01*
X0377392Y0069055D01*
X0377232Y0069190D01*
X0377076Y0069328D01*
X0376923Y0069470D01*
X0376774Y0069616D01*
X0376628Y0069765D01*
X0376486Y0069918D01*
X0376348Y0070074D01*
X0376213Y0070234D01*
X0376083Y0070397D01*
X0375957Y0070563D01*
X0375835Y0070732D01*
X0375717Y0070904D01*
X0375603Y0071079D01*
X0375493Y0071256D01*
X0375388Y0071436D01*
X0375288Y0071619D01*
X0375192Y0071804D01*
X0375100Y0071992D01*
X0375013Y0072181D01*
X0374931Y0072373D01*
X0374854Y0072567D01*
X0374781Y0072762D01*
X0374713Y0072960D01*
X0374650Y0073159D01*
X0374592Y0073359D01*
X0374539Y0073561D01*
X0374491Y0073764D01*
X0374447Y0073968D01*
X0374409Y0074173D01*
X0374376Y0074379D01*
X0374348Y0074586D01*
X0374325Y0074793D01*
X0374307Y0075001D01*
X0374294Y0075209D01*
X0374287Y0075417D01*
X0374284Y0075626D01*
X0373875Y0069262D02*
X0371612Y0066999D01*
X0374228Y0064383D01*
X0376562Y0066716D01*
X0371955Y0075555D02*
X0371958Y0075822D01*
X0371968Y0076090D01*
X0371985Y0076357D01*
X0372007Y0076623D01*
X0372037Y0076889D01*
X0372073Y0077154D01*
X0372115Y0077418D01*
X0372164Y0077681D01*
X0372220Y0077943D01*
X0372282Y0078203D01*
X0372350Y0078462D01*
X0372424Y0078719D01*
X0372505Y0078974D01*
X0372592Y0079227D01*
X0372685Y0079478D01*
X0372785Y0079726D01*
X0372890Y0079972D01*
X0373002Y0080215D01*
X0373119Y0080456D01*
X0373242Y0080693D01*
X0373371Y0080928D01*
X0373506Y0081159D01*
X0373646Y0081386D01*
X0373792Y0081611D01*
X0373943Y0081831D01*
X0374100Y0082048D01*
X0374262Y0082261D01*
X0374429Y0082470D01*
X0374601Y0082675D01*
X0374779Y0082875D01*
X0374961Y0083071D01*
X0375148Y0083262D01*
X0375339Y0083449D01*
X0375535Y0083631D01*
X0375735Y0083809D01*
X0375940Y0083981D01*
X0376149Y0084148D01*
X0376362Y0084310D01*
X0376579Y0084467D01*
X0376799Y0084618D01*
X0377024Y0084764D01*
X0377251Y0084904D01*
X0377482Y0085039D01*
X0377717Y0085168D01*
X0377954Y0085291D01*
X0378195Y0085408D01*
X0378438Y0085520D01*
X0378684Y0085625D01*
X0378932Y0085725D01*
X0379183Y0085818D01*
X0379436Y0085905D01*
X0379691Y0085986D01*
X0379948Y0086060D01*
X0380207Y0086128D01*
X0380467Y0086190D01*
X0380729Y0086246D01*
X0380992Y0086295D01*
X0381256Y0086337D01*
X0381521Y0086373D01*
X0381787Y0086403D01*
X0382053Y0086425D01*
X0382320Y0086442D01*
X0382588Y0086452D01*
X0382855Y0086455D01*
X0383122Y0086452D01*
X0383390Y0086442D01*
X0383657Y0086425D01*
X0383923Y0086403D01*
X0384189Y0086373D01*
X0384454Y0086337D01*
X0384718Y0086295D01*
X0384981Y0086246D01*
X0385243Y0086190D01*
X0385503Y0086128D01*
X0385762Y0086060D01*
X0386019Y0085986D01*
X0386274Y0085905D01*
X0386527Y0085818D01*
X0386778Y0085725D01*
X0387026Y0085625D01*
X0387272Y0085520D01*
X0387515Y0085408D01*
X0387756Y0085291D01*
X0387993Y0085168D01*
X0388228Y0085039D01*
X0388459Y0084904D01*
X0388686Y0084764D01*
X0388911Y0084618D01*
X0389131Y0084467D01*
X0389348Y0084310D01*
X0389561Y0084148D01*
X0389770Y0083981D01*
X0389975Y0083809D01*
X0390175Y0083631D01*
X0390371Y0083449D01*
X0390562Y0083262D01*
X0390749Y0083071D01*
X0390931Y0082875D01*
X0391109Y0082675D01*
X0391281Y0082470D01*
X0391448Y0082261D01*
X0391610Y0082048D01*
X0391767Y0081831D01*
X0391918Y0081611D01*
X0392064Y0081386D01*
X0392204Y0081159D01*
X0392339Y0080928D01*
X0392468Y0080693D01*
X0392591Y0080456D01*
X0392708Y0080215D01*
X0392820Y0079972D01*
X0392925Y0079726D01*
X0393025Y0079478D01*
X0393118Y0079227D01*
X0393205Y0078974D01*
X0393286Y0078719D01*
X0393360Y0078462D01*
X0393428Y0078203D01*
X0393490Y0077943D01*
X0393546Y0077681D01*
X0393595Y0077418D01*
X0393637Y0077154D01*
X0393673Y0076889D01*
X0393703Y0076623D01*
X0393725Y0076357D01*
X0393742Y0076090D01*
X0393752Y0075822D01*
X0393755Y0075555D01*
X0393752Y0075288D01*
X0393742Y0075020D01*
X0393725Y0074753D01*
X0393703Y0074487D01*
X0393673Y0074221D01*
X0393637Y0073956D01*
X0393595Y0073692D01*
X0393546Y0073429D01*
X0393490Y0073167D01*
X0393428Y0072907D01*
X0393360Y0072648D01*
X0393286Y0072391D01*
X0393205Y0072136D01*
X0393118Y0071883D01*
X0393025Y0071632D01*
X0392925Y0071384D01*
X0392820Y0071138D01*
X0392708Y0070895D01*
X0392591Y0070654D01*
X0392468Y0070417D01*
X0392339Y0070182D01*
X0392204Y0069951D01*
X0392064Y0069724D01*
X0391918Y0069499D01*
X0391767Y0069279D01*
X0391610Y0069062D01*
X0391448Y0068849D01*
X0391281Y0068640D01*
X0391109Y0068435D01*
X0390931Y0068235D01*
X0390749Y0068039D01*
X0390562Y0067848D01*
X0390371Y0067661D01*
X0390175Y0067479D01*
X0389975Y0067301D01*
X0389770Y0067129D01*
X0389561Y0066962D01*
X0389348Y0066800D01*
X0389131Y0066643D01*
X0388911Y0066492D01*
X0388686Y0066346D01*
X0388459Y0066206D01*
X0388228Y0066071D01*
X0387993Y0065942D01*
X0387756Y0065819D01*
X0387515Y0065702D01*
X0387272Y0065590D01*
X0387026Y0065485D01*
X0386778Y0065385D01*
X0386527Y0065292D01*
X0386274Y0065205D01*
X0386019Y0065124D01*
X0385762Y0065050D01*
X0385503Y0064982D01*
X0385243Y0064920D01*
X0384981Y0064864D01*
X0384718Y0064815D01*
X0384454Y0064773D01*
X0384189Y0064737D01*
X0383923Y0064707D01*
X0383657Y0064685D01*
X0383390Y0064668D01*
X0383122Y0064658D01*
X0382855Y0064655D01*
X0382588Y0064658D01*
X0382320Y0064668D01*
X0382053Y0064685D01*
X0381787Y0064707D01*
X0381521Y0064737D01*
X0381256Y0064773D01*
X0380992Y0064815D01*
X0380729Y0064864D01*
X0380467Y0064920D01*
X0380207Y0064982D01*
X0379948Y0065050D01*
X0379691Y0065124D01*
X0379436Y0065205D01*
X0379183Y0065292D01*
X0378932Y0065385D01*
X0378684Y0065485D01*
X0378438Y0065590D01*
X0378195Y0065702D01*
X0377954Y0065819D01*
X0377717Y0065942D01*
X0377482Y0066071D01*
X0377251Y0066206D01*
X0377024Y0066346D01*
X0376799Y0066492D01*
X0376579Y0066643D01*
X0376362Y0066800D01*
X0376149Y0066962D01*
X0375940Y0067129D01*
X0375735Y0067301D01*
X0375535Y0067479D01*
X0375339Y0067661D01*
X0375148Y0067848D01*
X0374961Y0068039D01*
X0374779Y0068235D01*
X0374601Y0068435D01*
X0374429Y0068640D01*
X0374262Y0068849D01*
X0374100Y0069062D01*
X0373943Y0069279D01*
X0373792Y0069499D01*
X0373646Y0069724D01*
X0373506Y0069951D01*
X0373371Y0070182D01*
X0373242Y0070417D01*
X0373119Y0070654D01*
X0373002Y0070895D01*
X0372890Y0071138D01*
X0372785Y0071384D01*
X0372685Y0071632D01*
X0372592Y0071883D01*
X0372505Y0072136D01*
X0372424Y0072391D01*
X0372350Y0072648D01*
X0372282Y0072907D01*
X0372220Y0073167D01*
X0372164Y0073429D01*
X0372115Y0073692D01*
X0372073Y0073956D01*
X0372037Y0074221D01*
X0372007Y0074487D01*
X0371985Y0074753D01*
X0371968Y0075020D01*
X0371958Y0075288D01*
X0371955Y0075555D01*
X0388087Y0070323D02*
X0388214Y0070452D01*
X0388337Y0070585D01*
X0388458Y0070721D01*
X0388574Y0070859D01*
X0388688Y0071001D01*
X0388798Y0071145D01*
X0388904Y0071291D01*
X0389007Y0071440D01*
X0389107Y0071592D01*
X0389202Y0071746D01*
X0389294Y0071902D01*
X0389382Y0072061D01*
X0389467Y0072221D01*
X0389547Y0072384D01*
X0389623Y0072548D01*
X0389696Y0072714D01*
X0389764Y0072882D01*
X0389828Y0073051D01*
X0389888Y0073222D01*
X0389944Y0073395D01*
X0389996Y0073568D01*
X0390044Y0073743D01*
X0390087Y0073919D01*
X0390126Y0074096D01*
X0390161Y0074274D01*
X0390192Y0074453D01*
X0390218Y0074632D01*
X0390240Y0074812D01*
X0390257Y0074992D01*
X0390270Y0075173D01*
X0390279Y0075354D01*
X0390283Y0075535D01*
X0390283Y0075717D01*
X0390279Y0075898D01*
X0390270Y0076079D01*
X0390257Y0076260D01*
X0390240Y0076440D01*
X0390218Y0076620D01*
X0390192Y0076799D01*
X0390161Y0076978D01*
X0390126Y0077156D01*
X0390087Y0077333D01*
X0390044Y0077509D01*
X0389996Y0077684D01*
X0389944Y0077857D01*
X0389888Y0078030D01*
X0389828Y0078201D01*
X0389764Y0078370D01*
X0389696Y0078538D01*
X0389623Y0078704D01*
X0389547Y0078868D01*
X0389467Y0079031D01*
X0389382Y0079191D01*
X0389294Y0079350D01*
X0389202Y0079506D01*
X0389107Y0079660D01*
X0389007Y0079812D01*
X0388904Y0079961D01*
X0388798Y0080107D01*
X0388688Y0080251D01*
X0388574Y0080393D01*
X0388458Y0080531D01*
X0388337Y0080667D01*
X0388214Y0080800D01*
X0388087Y0080929D01*
X0386320Y0079162D02*
X0386417Y0079061D01*
X0386512Y0078958D01*
X0386604Y0078852D01*
X0386693Y0078743D01*
X0386779Y0078633D01*
X0386862Y0078519D01*
X0386941Y0078404D01*
X0387018Y0078286D01*
X0387091Y0078166D01*
X0387160Y0078045D01*
X0387226Y0077921D01*
X0387289Y0077795D01*
X0387348Y0077668D01*
X0387403Y0077539D01*
X0387455Y0077409D01*
X0387503Y0077277D01*
X0387548Y0077144D01*
X0387589Y0077010D01*
X0387626Y0076875D01*
X0387659Y0076739D01*
X0387688Y0076601D01*
X0387713Y0076464D01*
X0387735Y0076325D01*
X0387753Y0076186D01*
X0387766Y0076046D01*
X0387776Y0075906D01*
X0387782Y0075766D01*
X0387784Y0075626D01*
X0387782Y0075486D01*
X0387776Y0075346D01*
X0387766Y0075206D01*
X0387753Y0075066D01*
X0387735Y0074927D01*
X0387713Y0074788D01*
X0387688Y0074651D01*
X0387659Y0074513D01*
X0387626Y0074377D01*
X0387589Y0074242D01*
X0387548Y0074108D01*
X0387503Y0073975D01*
X0387455Y0073843D01*
X0387403Y0073713D01*
X0387348Y0073584D01*
X0387289Y0073457D01*
X0387226Y0073331D01*
X0387160Y0073207D01*
X0387091Y0073086D01*
X0387018Y0072966D01*
X0386941Y0072848D01*
X0386862Y0072733D01*
X0386779Y0072619D01*
X0386693Y0072509D01*
X0386604Y0072400D01*
X0386512Y0072294D01*
X0386417Y0072191D01*
X0386320Y0072090D01*
X0379248Y0072090D02*
X0379151Y0072191D01*
X0379056Y0072294D01*
X0378964Y0072400D01*
X0378875Y0072509D01*
X0378789Y0072619D01*
X0378706Y0072733D01*
X0378627Y0072848D01*
X0378550Y0072966D01*
X0378477Y0073086D01*
X0378408Y0073207D01*
X0378342Y0073331D01*
X0378279Y0073457D01*
X0378220Y0073584D01*
X0378165Y0073713D01*
X0378113Y0073843D01*
X0378065Y0073975D01*
X0378020Y0074108D01*
X0377979Y0074242D01*
X0377942Y0074377D01*
X0377909Y0074513D01*
X0377880Y0074651D01*
X0377855Y0074788D01*
X0377833Y0074927D01*
X0377815Y0075066D01*
X0377802Y0075206D01*
X0377792Y0075346D01*
X0377786Y0075486D01*
X0377784Y0075626D01*
X0377786Y0075766D01*
X0377792Y0075906D01*
X0377802Y0076046D01*
X0377815Y0076186D01*
X0377833Y0076325D01*
X0377855Y0076464D01*
X0377880Y0076601D01*
X0377909Y0076739D01*
X0377942Y0076875D01*
X0377979Y0077010D01*
X0378020Y0077144D01*
X0378065Y0077277D01*
X0378113Y0077409D01*
X0378165Y0077539D01*
X0378220Y0077668D01*
X0378279Y0077795D01*
X0378342Y0077921D01*
X0378408Y0078045D01*
X0378477Y0078166D01*
X0378550Y0078286D01*
X0378627Y0078404D01*
X0378706Y0078519D01*
X0378789Y0078633D01*
X0378875Y0078743D01*
X0378964Y0078852D01*
X0379056Y0078958D01*
X0379151Y0079061D01*
X0379248Y0079162D01*
X0377481Y0080929D02*
X0377354Y0080800D01*
X0377231Y0080667D01*
X0377110Y0080531D01*
X0376994Y0080393D01*
X0376880Y0080251D01*
X0376770Y0080107D01*
X0376664Y0079961D01*
X0376561Y0079812D01*
X0376461Y0079660D01*
X0376366Y0079506D01*
X0376274Y0079350D01*
X0376186Y0079191D01*
X0376101Y0079031D01*
X0376021Y0078868D01*
X0375945Y0078704D01*
X0375872Y0078538D01*
X0375804Y0078370D01*
X0375740Y0078201D01*
X0375680Y0078030D01*
X0375624Y0077857D01*
X0375572Y0077684D01*
X0375524Y0077509D01*
X0375481Y0077333D01*
X0375442Y0077156D01*
X0375407Y0076978D01*
X0375376Y0076799D01*
X0375350Y0076620D01*
X0375328Y0076440D01*
X0375311Y0076260D01*
X0375298Y0076079D01*
X0375289Y0075898D01*
X0375285Y0075717D01*
X0375285Y0075535D01*
X0375289Y0075354D01*
X0375298Y0075173D01*
X0375311Y0074992D01*
X0375328Y0074812D01*
X0375350Y0074632D01*
X0375376Y0074453D01*
X0375407Y0074274D01*
X0375442Y0074096D01*
X0375481Y0073919D01*
X0375524Y0073743D01*
X0375572Y0073568D01*
X0375624Y0073395D01*
X0375680Y0073222D01*
X0375740Y0073051D01*
X0375804Y0072882D01*
X0375872Y0072714D01*
X0375945Y0072548D01*
X0376021Y0072384D01*
X0376101Y0072221D01*
X0376186Y0072061D01*
X0376274Y0071902D01*
X0376366Y0071746D01*
X0376461Y0071592D01*
X0376561Y0071440D01*
X0376664Y0071291D01*
X0376770Y0071145D01*
X0376880Y0071001D01*
X0376994Y0070859D01*
X0377110Y0070721D01*
X0377231Y0070585D01*
X0377354Y0070452D01*
X0377481Y0070323D01*
X0167863Y0048854D02*
X0167863Y0033854D01*
X0165363Y0031354D01*
X0160363Y0031354D01*
X0157863Y0033854D01*
X0157863Y0048854D01*
X0155363Y0051354D01*
X0150363Y0051354D01*
X0147863Y0048854D01*
X0147863Y0033854D01*
X0145363Y0031354D01*
X0140363Y0031354D01*
X0137863Y0033854D01*
X0137863Y0048854D01*
X0135363Y0051354D01*
X0130363Y0051354D01*
X0127863Y0048854D01*
X0127863Y0033854D01*
X0125363Y0031354D01*
X0120363Y0031354D01*
X0117863Y0033854D01*
X0117863Y0048854D01*
X0115363Y0051354D01*
X0110363Y0051354D01*
X0107863Y0048854D01*
X0107863Y0033854D01*
X0105363Y0031354D01*
X0100363Y0031354D01*
X0097863Y0033854D01*
X0097863Y0048854D01*
X0100363Y0051354D01*
X0105363Y0051354D01*
X0107863Y0048854D01*
X0097863Y0048854D02*
X0095363Y0051354D01*
X0090363Y0051354D01*
X0087863Y0048854D01*
X0087863Y0033854D01*
X0085363Y0031354D01*
X0080363Y0031354D01*
X0077863Y0033854D01*
X0075363Y0031354D01*
X0070363Y0031354D01*
X0067863Y0033854D01*
X0067863Y0048854D01*
X0070363Y0051354D01*
X0075363Y0051354D01*
X0077863Y0048854D01*
X0077863Y0033854D01*
X0087863Y0033854D02*
X0090363Y0031354D01*
X0095363Y0031354D01*
X0097863Y0033854D01*
X0107863Y0033854D02*
X0110363Y0031354D01*
X0115363Y0031354D01*
X0117863Y0033854D01*
X0127863Y0033854D02*
X0130363Y0031354D01*
X0135363Y0031354D01*
X0137863Y0033854D01*
X0147863Y0033854D02*
X0150363Y0031354D01*
X0155363Y0031354D01*
X0157863Y0033854D01*
X0157863Y0048854D02*
X0160363Y0051354D01*
X0165363Y0051354D01*
X0167863Y0048854D01*
X0147863Y0048854D02*
X0145363Y0051354D01*
X0140363Y0051354D01*
X0137863Y0048854D01*
X0127863Y0048854D02*
X0125363Y0051354D01*
X0120363Y0051354D01*
X0117863Y0048854D01*
X0087863Y0048854D02*
X0085363Y0051354D01*
X0080363Y0051354D01*
X0077863Y0048854D01*
X0051800Y0048126D02*
X0051800Y0033126D01*
X0049300Y0030626D01*
X0044300Y0030626D01*
X0041800Y0033126D01*
X0041800Y0048126D01*
X0039300Y0050626D01*
X0034300Y0050626D01*
X0031800Y0048126D01*
X0029300Y0050626D01*
X0024300Y0050626D01*
X0021800Y0048126D01*
X0021800Y0033126D01*
X0024300Y0030626D01*
X0029300Y0030626D01*
X0031800Y0033126D01*
X0031800Y0048126D01*
X0041800Y0048126D02*
X0044300Y0050626D01*
X0049300Y0050626D01*
X0051800Y0048126D01*
X0041800Y0033126D02*
X0039300Y0030626D01*
X0034300Y0030626D01*
X0031800Y0033126D01*
X0013800Y0056126D02*
X0011800Y0056126D01*
X0013800Y0056126D02*
X0013800Y0058126D01*
X0013800Y0063126D02*
X0013800Y0065126D01*
X0011800Y0065126D01*
X0006800Y0065126D02*
X0004800Y0065126D01*
X0004800Y0063126D01*
X0004800Y0058126D02*
X0004800Y0056126D01*
X0006800Y0056126D01*
X0337300Y0318626D02*
X0339300Y0318626D01*
X0337300Y0318626D02*
X0337300Y0320626D01*
X0337300Y0325626D02*
X0337300Y0327626D01*
X0339300Y0327626D01*
X0344300Y0327626D02*
X0346300Y0327626D01*
X0346300Y0325626D01*
X0346300Y0320626D02*
X0346300Y0318626D01*
X0344300Y0318626D01*
D20*
X0280800Y0065291D02*
X0280800Y0060961D01*
X0273800Y0060961D02*
X0273800Y0065291D01*
X0272800Y0065291D02*
X0272800Y0060961D01*
X0060537Y0047061D02*
X0060537Y0044701D01*
X0060537Y0045881D02*
X0056997Y0045881D01*
X0058177Y0044701D01*
X0058767Y0043436D02*
X0059357Y0042846D01*
X0059357Y0041076D01*
X0060537Y0041076D02*
X0056997Y0041076D01*
X0056997Y0042846D01*
X0057587Y0043436D01*
X0058767Y0043436D01*
X0056997Y0039811D02*
X0056997Y0038631D01*
X0056997Y0039221D02*
X0059947Y0039221D01*
X0060537Y0038631D01*
X0060537Y0038041D01*
X0059947Y0037451D01*
M02*
