G75*
%MOIN*%
%OFA0B0*%
%FSLAX25Y25*%
%IPPOS*%
%LPD*%
%AMOC8*
5,1,8,0,0,1.08239X$1,22.5*
%
%ADD10C,0.01600*%
%ADD11R,0.05512X0.06299*%
%ADD12R,0.04331X0.03937*%
%ADD13R,0.03937X0.04331*%
%ADD14R,0.02165X0.04724*%
%ADD15R,0.07480X0.05118*%
%ADD16OC8,0.08500*%
%ADD17OC8,0.06600*%
%ADD18C,0.07050*%
%ADD19OC8,0.06000*%
%ADD20R,0.02200X0.05000*%
%ADD21R,0.05000X0.02200*%
%ADD22R,0.01575X0.06732*%
%ADD23R,0.07874X0.05748*%
%ADD24R,0.05413X0.09843*%
%ADD25C,0.01040*%
%ADD26R,0.01121X0.02756*%
%ADD27R,0.05150X0.05150*%
%ADD28R,0.03150X0.03150*%
%ADD29R,0.05512X0.03937*%
%ADD30R,0.03937X0.05512*%
%ADD31C,0.07677*%
%ADD32C,0.00800*%
%ADD33C,0.03169*%
%ADD34C,0.05000*%
D10*
X0001800Y0005000D02*
X0349300Y0005000D01*
X0349300Y0225000D01*
X0001800Y0225000D01*
X0001800Y0005000D01*
X0046800Y0022500D02*
X0047076Y0022717D01*
X0051505Y0027146D01*
X0051505Y0034035D01*
X0054950Y0037480D01*
X0079064Y0037480D01*
X0093335Y0051752D01*
X0086938Y0058150D01*
X0086800Y0058346D01*
X0083001Y0060118D02*
X0083001Y0061102D01*
X0083985Y0062087D01*
X0116957Y0062087D01*
X0117450Y0062579D01*
X0117450Y0062500D01*
X0117450Y0062579D02*
X0117450Y0064547D01*
X0126308Y0073406D01*
X0125146Y0075000D01*
X0125324Y0074882D01*
X0141564Y0058642D01*
X0141800Y0058346D01*
X0142548Y0058150D01*
X0171583Y0029114D01*
X0171583Y0025177D01*
X0171800Y0025000D01*
X0172568Y0024685D01*
X0179457Y0017795D01*
X0271977Y0017795D01*
X0276898Y0022717D01*
X0276898Y0027146D01*
X0279851Y0030098D01*
X0308887Y0030098D01*
X0308887Y0022717D01*
X0308454Y0022500D01*
X0308887Y0030098D02*
X0308887Y0074390D01*
X0308394Y0074390D01*
X0301997Y0080787D01*
X0301505Y0080295D01*
X0283296Y0080295D01*
X0259674Y0103917D01*
X0259674Y0108839D01*
X0223749Y0108839D01*
X0205540Y0118681D02*
X0195698Y0108839D01*
X0173060Y0108839D01*
X0165186Y0116713D01*
X0165186Y0122618D01*
X0165225Y0123100D01*
X0165186Y0123110D01*
X0165186Y0148209D01*
X0162233Y0151161D01*
X0162233Y0156575D01*
X0162076Y0156900D01*
X0162233Y0157067D01*
X0162233Y0160020D01*
X0153375Y0168878D01*
X0153375Y0171831D01*
X0151898Y0173307D01*
X0135658Y0173307D01*
X0135658Y0214646D01*
X0135800Y0215000D01*
X0135658Y0173307D02*
X0135658Y0154114D01*
X0132213Y0150669D01*
X0131576Y0150262D01*
X0131229Y0150177D01*
X0131229Y0130000D01*
X0131251Y0129552D01*
X0130737Y0129016D01*
X0107607Y0105886D01*
X0107115Y0105886D01*
X0103670Y0102441D01*
X0103670Y0100472D01*
X0103454Y0100000D01*
X0103178Y0099980D01*
X0081524Y0078327D01*
X0081131Y0078740D01*
X0082509Y0078327D01*
X0085954Y0074882D01*
X0083001Y0060118D02*
X0071682Y0048799D01*
X0062824Y0048799D01*
X0049044Y0035020D01*
X0049044Y0034528D01*
X0047076Y0032559D01*
X0046800Y0032500D01*
X0056800Y0032500D02*
X0056918Y0032559D01*
X0057902Y0033543D01*
X0094812Y0033543D01*
X0097519Y0030837D01*
X0097272Y0030591D01*
X0097519Y0030837D02*
X0098257Y0030098D01*
X0103670Y0030098D01*
X0104044Y0029961D01*
X0106613Y0025256D02*
X0098444Y0025256D01*
X0098444Y0015138D01*
X0098454Y0015156D01*
X0098454Y0008857D01*
X0102400Y0008839D01*
X0102400Y0014154D01*
X0106613Y0014154D01*
X0106613Y0025256D01*
X0106613Y0024182D02*
X0098444Y0024182D01*
X0098444Y0022584D02*
X0106613Y0022584D01*
X0106613Y0020985D02*
X0098444Y0020985D01*
X0098444Y0019387D02*
X0106613Y0019387D01*
X0106613Y0017788D02*
X0098444Y0017788D01*
X0098444Y0016190D02*
X0106613Y0016190D01*
X0106613Y0014591D02*
X0098454Y0014591D01*
X0098454Y0012993D02*
X0102400Y0012993D01*
X0102400Y0011394D02*
X0098454Y0011394D01*
X0098454Y0009796D02*
X0102400Y0009796D01*
X0124379Y0014154D02*
X0124379Y0025256D01*
X0132548Y0025256D01*
X0132548Y0015138D01*
X0132560Y0015116D01*
X0132560Y0008817D01*
X0128591Y0008839D01*
X0128591Y0014154D01*
X0124379Y0014154D01*
X0124379Y0014591D02*
X0132560Y0014591D01*
X0132560Y0012993D02*
X0128591Y0012993D01*
X0128591Y0011394D02*
X0132560Y0011394D01*
X0132560Y0009796D02*
X0128591Y0009796D01*
X0132548Y0016190D02*
X0124379Y0016190D01*
X0124379Y0017788D02*
X0132548Y0017788D01*
X0132548Y0019387D02*
X0124379Y0019387D01*
X0124379Y0020985D02*
X0132548Y0020985D01*
X0132548Y0022584D02*
X0124379Y0022584D01*
X0124379Y0024182D02*
X0132548Y0024182D01*
X0133690Y0030098D02*
X0127784Y0030098D01*
X0126879Y0029961D01*
X0127292Y0030591D01*
X0127292Y0042402D01*
X0128454Y0042500D01*
X0128276Y0042894D01*
X0123847Y0042894D01*
X0121879Y0044862D01*
X0116957Y0044862D01*
X0112036Y0049783D01*
X0112036Y0058248D01*
X0093335Y0051752D02*
X0110068Y0035020D01*
X0110560Y0035512D01*
X0123847Y0035512D01*
X0126879Y0029961D02*
X0126800Y0029606D01*
X0120894Y0029606D01*
X0120580Y0029449D01*
X0110343Y0029449D02*
X0110068Y0029606D01*
X0110068Y0035020D01*
X0121879Y0044862D02*
X0121800Y0045000D01*
X0176997Y0059134D02*
X0180934Y0059134D01*
X0180934Y0054705D01*
X0180540Y0054331D01*
X0180934Y0059134D02*
X0180934Y0070945D01*
X0259674Y0149685D01*
X0261150Y0148209D01*
X0264595Y0148209D01*
X0266072Y0149685D01*
X0266072Y0152146D01*
X0266742Y0152547D01*
X0266564Y0152638D01*
X0266564Y0161496D01*
X0266161Y0161705D01*
X0266072Y0162480D01*
X0263119Y0165433D01*
X0256721Y0165433D01*
X0255245Y0163957D01*
X0228670Y0163957D01*
X0228572Y0163622D01*
X0250324Y0157559D02*
X0229162Y0136398D01*
X0228572Y0136063D01*
X0228178Y0135906D01*
X0216859Y0124587D01*
X0206524Y0124587D01*
X0206069Y0124552D01*
X0205540Y0124094D01*
X0205540Y0118681D01*
X0199143Y0124094D02*
X0199376Y0124552D01*
X0199635Y0125079D01*
X0203572Y0129016D01*
X0199143Y0124094D02*
X0184871Y0124094D01*
X0179457Y0118681D01*
X0176013Y0118681D01*
X0175028Y0119665D01*
X0175028Y0122618D01*
X0174674Y0123100D01*
X0174536Y0123602D01*
X0174536Y0126063D01*
X0170599Y0130000D01*
X0170599Y0152146D01*
X0170107Y0152638D01*
X0171091Y0153622D01*
X0171091Y0156575D01*
X0171524Y0156900D01*
X0168375Y0156900D02*
X0168139Y0157067D01*
X0168139Y0160020D01*
X0167154Y0161004D01*
X0163217Y0161004D01*
X0162233Y0160020D01*
X0165225Y0156900D02*
X0165186Y0156575D01*
X0165186Y0154114D01*
X0166662Y0152638D01*
X0166662Y0151654D01*
X0166662Y0152638D02*
X0170107Y0152638D01*
X0183700Y0144724D02*
X0183887Y0144764D01*
X0189792Y0144764D01*
X0168375Y0123100D02*
X0168631Y0122618D01*
X0168631Y0118189D01*
X0168631Y0108346D02*
X0150914Y0090630D01*
X0138119Y0090630D01*
X0138119Y0108346D02*
X0138119Y0129508D01*
X0137944Y0129552D01*
X0138269Y0150262D02*
X0139103Y0151161D01*
X0145009Y0151161D01*
X0138611Y0150669D02*
X0138269Y0150262D01*
X0138611Y0150669D02*
X0138611Y0164941D01*
X0142548Y0168878D01*
X0142717Y0169366D01*
X0250324Y0157559D02*
X0259182Y0157559D01*
X0259674Y0158051D01*
X0262627Y0155098D01*
X0262627Y0152638D01*
X0263002Y0152547D01*
X0259674Y0152146D02*
X0259262Y0152547D01*
X0259674Y0152146D02*
X0259674Y0149685D01*
X0259262Y0142310D02*
X0259182Y0142303D01*
X0259182Y0133445D01*
X0259226Y0133183D01*
X0259674Y0132461D01*
X0259674Y0108839D01*
X0266072Y0126555D02*
X0266072Y0132953D01*
X0265919Y0133183D01*
X0259674Y0158051D02*
X0259674Y0161496D01*
X0259468Y0161705D01*
X0327095Y0166417D02*
X0335461Y0158051D01*
X0335461Y0107854D01*
X0325127Y0097520D01*
X0324356Y0097154D01*
X0324635Y0097028D01*
X0324635Y0089154D01*
X0327095Y0086693D01*
X0327108Y0085946D01*
X0327095Y0085709D01*
X0327095Y0077343D01*
X0327073Y0077321D01*
X0327587Y0077343D01*
X0332017Y0077343D01*
X0333001Y0073406D02*
X0337922Y0078327D01*
X0337922Y0175768D01*
X0327095Y0186594D01*
X0327095Y0189547D01*
X0326800Y0190000D01*
X0326800Y0170000D02*
X0327095Y0169862D01*
X0327095Y0166417D01*
X0313332Y0097154D02*
X0313808Y0097028D01*
X0313808Y0080295D01*
X0314300Y0079803D01*
X0308887Y0074390D01*
X0314300Y0079803D02*
X0316022Y0081526D01*
X0320206Y0077343D01*
X0320381Y0077321D01*
X0320698Y0076850D01*
X0324143Y0073406D01*
X0333001Y0073406D01*
X0321190Y0086201D02*
X0320415Y0085946D01*
X0320206Y0085709D01*
X0316022Y0081526D01*
X0321190Y0086201D02*
X0321190Y0091122D01*
X0301997Y0080787D02*
X0292154Y0090630D01*
X0291800Y0090846D01*
D11*
X0313332Y0097154D03*
X0324356Y0097154D03*
D12*
X0327108Y0085946D03*
X0320415Y0085946D03*
X0320381Y0077321D03*
X0327073Y0077321D03*
X0291800Y0084154D03*
X0291800Y0090846D03*
X0265919Y0133183D03*
X0259226Y0133183D03*
X0259468Y0161705D03*
X0266161Y0161705D03*
X0295954Y0190000D03*
X0302646Y0190000D03*
X0221800Y0186654D03*
X0221800Y0193346D03*
X0206800Y0193346D03*
X0206800Y0186654D03*
X0194300Y0186654D03*
X0194300Y0193346D03*
X0138269Y0150262D03*
X0131576Y0150262D03*
X0131251Y0129552D03*
X0137944Y0129552D03*
X0199376Y0124552D03*
X0206069Y0124552D03*
X0171800Y0073346D03*
X0171800Y0066654D03*
X0141800Y0058346D03*
X0141800Y0051654D03*
X0096800Y0071654D03*
X0096800Y0078346D03*
X0086800Y0058346D03*
X0086800Y0051654D03*
D13*
X0118454Y0075000D03*
X0125146Y0075000D03*
X0110146Y0100000D03*
X0103454Y0100000D03*
X0128454Y0042500D03*
X0135146Y0042500D03*
X0296690Y0130435D03*
X0303383Y0130435D03*
X0302646Y0142500D03*
X0295954Y0142500D03*
X0295954Y0170000D03*
X0302646Y0170000D03*
X0319799Y0212375D03*
X0326492Y0212375D03*
X0149410Y0169366D03*
X0142717Y0169366D03*
X0308454Y0022500D03*
X0315146Y0022500D03*
D14*
X0266742Y0142310D03*
X0259262Y0142310D03*
X0259262Y0152547D03*
X0263002Y0152547D03*
X0266742Y0152547D03*
D15*
X0181550Y0169881D03*
X0168952Y0169881D03*
X0168952Y0191535D03*
X0181550Y0191535D03*
D16*
X0301800Y0215000D03*
X0341800Y0050000D03*
D17*
X0281800Y0025000D03*
X0271800Y0025000D03*
X0261800Y0025000D03*
X0251800Y0025000D03*
X0241800Y0025000D03*
X0231800Y0025000D03*
X0211800Y0025000D03*
X0201800Y0025000D03*
X0191800Y0025000D03*
X0181800Y0025000D03*
X0171800Y0025000D03*
X0161800Y0025000D03*
X0151800Y0025000D03*
X0141800Y0025000D03*
X0145800Y0215000D03*
X0155800Y0215000D03*
X0165800Y0215000D03*
X0175800Y0215000D03*
X0185800Y0215000D03*
X0195800Y0215000D03*
X0211800Y0215000D03*
X0221800Y0215000D03*
X0231800Y0215000D03*
X0241800Y0215000D03*
X0251800Y0215000D03*
X0261800Y0215000D03*
X0271800Y0215000D03*
X0281800Y0215000D03*
X0135800Y0215000D03*
X0125800Y0215000D03*
X0115800Y0215000D03*
X0105800Y0215000D03*
D18*
X0035325Y0205236D02*
X0028275Y0205236D01*
X0028275Y0185551D02*
X0035325Y0185551D01*
X0035325Y0159843D02*
X0028275Y0159843D01*
X0028275Y0140157D02*
X0035325Y0140157D01*
D19*
X0046800Y0032500D03*
X0056800Y0032500D03*
X0056800Y0022500D03*
X0046800Y0022500D03*
X0046800Y0012500D03*
X0056800Y0012500D03*
X0316800Y0130000D03*
X0326800Y0130000D03*
X0326800Y0140000D03*
X0316800Y0140000D03*
X0316800Y0150000D03*
X0326800Y0150000D03*
X0326800Y0160000D03*
X0316800Y0160000D03*
X0316800Y0170000D03*
X0326800Y0170000D03*
X0326800Y0180000D03*
X0316800Y0180000D03*
X0316800Y0190000D03*
X0326800Y0190000D03*
D20*
X0177824Y0156900D03*
X0174674Y0156900D03*
X0171524Y0156900D03*
X0168375Y0156900D03*
X0165225Y0156900D03*
X0162076Y0156900D03*
X0158926Y0156900D03*
X0155776Y0156900D03*
X0155776Y0123100D03*
X0158926Y0123100D03*
X0162076Y0123100D03*
X0165225Y0123100D03*
X0168375Y0123100D03*
X0171524Y0123100D03*
X0174674Y0123100D03*
X0177824Y0123100D03*
D21*
X0183700Y0128976D03*
X0183700Y0132126D03*
X0183700Y0135276D03*
X0183700Y0138425D03*
X0183700Y0141575D03*
X0183700Y0144724D03*
X0183700Y0147874D03*
X0183700Y0151024D03*
X0149900Y0151024D03*
X0149900Y0147874D03*
X0149900Y0144724D03*
X0149900Y0141575D03*
X0149900Y0138425D03*
X0149900Y0135276D03*
X0149900Y0132126D03*
X0149900Y0128976D03*
D22*
X0120580Y0029449D03*
X0118020Y0029449D03*
X0115461Y0029449D03*
X0112902Y0029449D03*
X0110343Y0029449D03*
D23*
X0104044Y0029961D03*
X0126879Y0029961D03*
D24*
X0119152Y0013583D03*
X0111770Y0013583D03*
D25*
X0329691Y0017457D02*
X0330211Y0016937D01*
X0328489Y0016937D01*
X0327271Y0018155D01*
X0327271Y0019877D01*
X0328489Y0021095D01*
X0330211Y0021095D01*
X0331429Y0019877D01*
X0331429Y0018155D01*
X0330211Y0016937D01*
X0329888Y0017717D01*
X0328812Y0017717D01*
X0328051Y0018478D01*
X0328051Y0019554D01*
X0328812Y0020315D01*
X0329888Y0020315D01*
X0330649Y0019554D01*
X0330649Y0018478D01*
X0329888Y0017717D01*
X0329565Y0018497D01*
X0329135Y0018497D01*
X0328831Y0018801D01*
X0328831Y0019231D01*
X0329135Y0019535D01*
X0329565Y0019535D01*
X0329869Y0019231D01*
X0329869Y0018801D01*
X0329565Y0018497D01*
X0339591Y0017457D02*
X0340111Y0016937D01*
X0338389Y0016937D01*
X0337171Y0018155D01*
X0337171Y0019877D01*
X0338389Y0021095D01*
X0340111Y0021095D01*
X0341329Y0019877D01*
X0341329Y0018155D01*
X0340111Y0016937D01*
X0339788Y0017717D01*
X0338712Y0017717D01*
X0337951Y0018478D01*
X0337951Y0019554D01*
X0338712Y0020315D01*
X0339788Y0020315D01*
X0340549Y0019554D01*
X0340549Y0018478D01*
X0339788Y0017717D01*
X0339465Y0018497D01*
X0339035Y0018497D01*
X0338731Y0018801D01*
X0338731Y0019231D01*
X0339035Y0019535D01*
X0339465Y0019535D01*
X0339769Y0019231D01*
X0339769Y0018801D01*
X0339465Y0018497D01*
D26*
X0129133Y0051753D03*
X0128059Y0051753D03*
X0126975Y0051753D03*
X0125910Y0051751D03*
X0124838Y0051751D03*
X0123769Y0051752D03*
X0121800Y0051752D03*
X0121800Y0049796D03*
X0121798Y0047921D03*
X0120733Y0047919D03*
X0119661Y0047919D03*
X0122882Y0047921D03*
X0123957Y0047921D03*
X0119831Y0051752D03*
X0118743Y0051752D03*
X0117668Y0051752D03*
X0116584Y0051752D03*
X0115519Y0051750D03*
X0114447Y0051750D03*
X0114488Y0058240D03*
X0115559Y0058240D03*
X0116624Y0058243D03*
X0117708Y0058243D03*
X0118783Y0058243D03*
X0119831Y0058248D03*
X0121800Y0058248D03*
X0123769Y0058248D03*
X0124827Y0058233D03*
X0125898Y0058233D03*
X0126964Y0058235D03*
X0128048Y0058235D03*
X0129122Y0058235D03*
X0123957Y0062076D03*
X0122882Y0062076D03*
X0121798Y0062076D03*
X0120733Y0062074D03*
X0119661Y0062074D03*
X0121798Y0060445D03*
D27*
X0075028Y0116378D03*
X0075028Y0163622D03*
X0228572Y0163622D03*
X0228572Y0136063D03*
D28*
X0069300Y0057953D03*
X0069300Y0052047D03*
D29*
X0081131Y0071260D03*
X0072469Y0075000D03*
X0081131Y0078740D03*
D30*
X0173060Y0054331D03*
X0180540Y0054331D03*
X0176800Y0045669D03*
D31*
X0039300Y0054921D03*
X0009300Y0054921D03*
X0009300Y0104921D03*
X0039300Y0114921D03*
D32*
X0097272Y0087677D02*
X0097272Y0078819D01*
X0096800Y0078346D01*
X0097272Y0071929D02*
X0096800Y0071654D01*
X0096780Y0071437D01*
X0081524Y0071437D01*
X0081131Y0071260D01*
X0072469Y0075000D02*
X0072174Y0074882D01*
X0069713Y0072421D01*
X0069713Y0058150D01*
X0069300Y0057953D01*
X0069221Y0057657D01*
X0042154Y0057657D01*
X0039694Y0055197D01*
X0039300Y0054921D01*
X0069300Y0052047D02*
X0069713Y0052244D01*
X0073650Y0056181D01*
X0080048Y0049783D02*
X0084969Y0049783D01*
X0086446Y0051260D01*
X0086800Y0051654D01*
X0100225Y0065531D02*
X0128276Y0093583D01*
X0139103Y0093583D01*
X0162233Y0116713D01*
X0162233Y0122618D01*
X0162076Y0123100D01*
X0159280Y0122618D02*
X0158926Y0123100D01*
X0159280Y0122618D02*
X0159280Y0118189D01*
X0155835Y0114744D02*
X0155835Y0122618D01*
X0155776Y0123100D01*
X0156820Y0128524D02*
X0149930Y0128524D01*
X0149900Y0128976D01*
X0150422Y0131476D02*
X0149930Y0131969D01*
X0149900Y0132126D01*
X0150422Y0131476D02*
X0154851Y0131476D01*
X0156820Y0128524D02*
X0159772Y0131476D01*
X0149900Y0135276D02*
X0149438Y0134921D01*
X0146977Y0134921D01*
X0141564Y0129508D01*
X0141564Y0107362D01*
X0132706Y0098504D01*
X0134182Y0095551D02*
X0131229Y0095551D01*
X0123355Y0103425D01*
X0107607Y0103425D01*
X0106623Y0102441D01*
X0106623Y0097028D01*
X0097272Y0087677D01*
X0110068Y0084724D02*
X0097272Y0071929D01*
X0117942Y0069961D02*
X0118434Y0070453D01*
X0118434Y0074882D01*
X0118454Y0075000D01*
X0118926Y0075374D01*
X0122371Y0078819D01*
X0127292Y0078819D01*
X0175028Y0031083D01*
X0175028Y0028622D01*
X0176997Y0026654D01*
X0176997Y0023209D01*
X0179950Y0020256D01*
X0267056Y0020256D01*
X0271800Y0025000D01*
X0271977Y0025177D01*
X0271977Y0040925D01*
X0292154Y0061102D01*
X0315284Y0073406D02*
X0315284Y0022717D01*
X0315146Y0022500D01*
X0322666Y0012382D02*
X0329064Y0018780D01*
X0329350Y0019016D01*
X0322666Y0012382D02*
X0167646Y0012382D01*
X0156820Y0023209D01*
X0156820Y0026654D01*
X0141072Y0042402D01*
X0135166Y0042402D01*
X0135146Y0042500D01*
X0135166Y0042894D01*
X0135166Y0048799D01*
X0137135Y0051752D02*
X0132213Y0051752D01*
X0132200Y0051800D01*
X0131800Y0051800D01*
X0131800Y0051752D01*
X0123769Y0051752D01*
X0121800Y0051752D02*
X0121800Y0045000D01*
X0137135Y0051752D02*
X0137135Y0055197D01*
X0132213Y0055689D02*
X0132213Y0057657D01*
X0131721Y0058150D01*
X0131721Y0058248D01*
X0131800Y0058248D01*
X0131800Y0058200D01*
X0131721Y0058248D02*
X0123769Y0058248D01*
X0121800Y0058248D02*
X0121800Y0062500D01*
X0117450Y0062500D01*
X0117400Y0062500D01*
X0119831Y0058248D02*
X0112036Y0058248D01*
X0137135Y0051752D02*
X0141564Y0051752D01*
X0141800Y0051654D01*
X0142056Y0051260D01*
X0166662Y0026654D01*
X0166662Y0023701D01*
X0175028Y0015335D01*
X0272469Y0015335D01*
X0279359Y0022224D01*
X0279359Y0022717D01*
X0281328Y0024685D01*
X0281800Y0025000D01*
X0241800Y0025000D02*
X0241465Y0025177D01*
X0216859Y0049783D01*
X0171091Y0049783D01*
X0155835Y0065039D01*
X0155835Y0073898D01*
X0171583Y0073406D02*
X0171800Y0073346D01*
X0171583Y0073406D02*
X0171583Y0087677D01*
X0171800Y0066654D02*
X0172076Y0066516D01*
X0172076Y0055689D01*
X0173060Y0054705D01*
X0173060Y0054331D01*
X0176800Y0045669D02*
X0176997Y0045354D01*
X0176997Y0029606D01*
X0181426Y0025177D01*
X0181800Y0025000D01*
X0240973Y0076850D02*
X0285757Y0076850D01*
X0284280Y0084232D02*
X0268532Y0099980D01*
X0269024Y0099980D01*
X0269024Y0118681D01*
X0284280Y0133937D01*
X0299044Y0133937D01*
X0300028Y0132953D01*
X0300028Y0127539D01*
X0301997Y0125571D01*
X0328572Y0125571D01*
X0333001Y0130000D01*
X0333001Y0152638D01*
X0327095Y0158543D01*
X0327095Y0159528D01*
X0326800Y0160000D01*
X0327587Y0155591D02*
X0321190Y0155591D01*
X0317253Y0159528D01*
X0316800Y0160000D01*
X0316761Y0160020D01*
X0316761Y0161988D01*
X0304950Y0173799D01*
X0217351Y0173799D01*
X0214891Y0171339D01*
X0214891Y0162972D01*
X0190776Y0138858D01*
X0183887Y0138858D01*
X0183700Y0138425D01*
X0183700Y0141575D02*
X0183887Y0141811D01*
X0191269Y0141811D01*
X0193237Y0143780D01*
X0193237Y0152146D01*
X0221780Y0180689D01*
X0221780Y0186594D01*
X0221800Y0186654D01*
X0221800Y0193346D02*
X0221780Y0193484D01*
X0221780Y0204803D01*
X0211938Y0214646D01*
X0211800Y0215000D01*
X0206524Y0204311D02*
X0196190Y0214646D01*
X0195800Y0215000D01*
X0194221Y0206280D02*
X0185855Y0214646D01*
X0185800Y0215000D01*
X0194221Y0206280D02*
X0194221Y0193484D01*
X0194300Y0193346D01*
X0194300Y0186654D02*
X0194221Y0186594D01*
X0194221Y0165925D01*
X0182902Y0154606D01*
X0183887Y0151161D02*
X0183700Y0151024D01*
X0183887Y0151161D02*
X0206524Y0173799D01*
X0206524Y0186594D01*
X0206800Y0186654D01*
X0206800Y0193346D02*
X0206524Y0193484D01*
X0206524Y0204311D01*
X0164694Y0220551D02*
X0160757Y0216614D01*
X0160757Y0201850D01*
X0159772Y0200866D01*
X0159772Y0167402D01*
X0155835Y0162480D02*
X0158788Y0159528D01*
X0158788Y0157067D01*
X0158926Y0156900D01*
X0155776Y0156900D02*
X0155343Y0157067D01*
X0153867Y0157067D01*
X0149438Y0161496D01*
X0144024Y0161496D01*
X0146977Y0158543D02*
X0146977Y0155098D01*
X0149438Y0152638D01*
X0149438Y0151161D01*
X0149900Y0151024D01*
X0149900Y0147874D02*
X0149438Y0147717D01*
X0147469Y0147717D01*
X0146485Y0146732D01*
X0145009Y0146732D01*
X0149900Y0144724D02*
X0149930Y0144764D01*
X0152391Y0144764D01*
X0153867Y0146240D01*
X0153867Y0152638D01*
X0151898Y0154606D01*
X0154851Y0162480D02*
X0155835Y0162480D01*
X0149438Y0164449D02*
X0149438Y0168878D01*
X0149410Y0169366D01*
X0149438Y0176752D02*
X0139103Y0176752D01*
X0141564Y0182657D02*
X0151898Y0192992D01*
X0168952Y0169881D02*
X0169123Y0169862D01*
X0174536Y0164449D01*
X0174536Y0157067D01*
X0174674Y0156900D01*
X0177824Y0156900D02*
X0177981Y0157067D01*
X0177981Y0166417D01*
X0181426Y0169862D01*
X0181550Y0169881D01*
X0178965Y0150177D02*
X0174044Y0150177D01*
X0178965Y0150177D02*
X0180934Y0148209D01*
X0183394Y0148209D01*
X0183700Y0147874D01*
X0199635Y0139843D02*
X0221288Y0139843D01*
X0223257Y0135906D02*
X0222765Y0135413D01*
X0183887Y0135413D01*
X0183700Y0135276D01*
X0183700Y0132126D02*
X0183887Y0131969D01*
X0193729Y0131969D01*
X0196682Y0129016D01*
X0188808Y0129016D02*
X0183887Y0129016D01*
X0183700Y0128976D01*
X0177981Y0123110D02*
X0177824Y0123100D01*
X0177981Y0123110D02*
X0177981Y0137382D01*
X0171524Y0123100D02*
X0171583Y0122618D01*
X0171583Y0115236D01*
X0174536Y0112283D01*
X0151406Y0112776D02*
X0134182Y0095551D01*
X0110560Y0099980D02*
X0110146Y0100000D01*
X0110068Y0099980D01*
X0110068Y0084724D01*
X0141564Y0133937D02*
X0145993Y0138366D01*
X0149438Y0138366D01*
X0149900Y0138425D01*
X0149900Y0141575D02*
X0149438Y0141811D01*
X0145009Y0141811D01*
X0217843Y0169862D02*
X0295599Y0169862D01*
X0295954Y0170000D01*
X0302489Y0169862D02*
X0302646Y0170000D01*
X0302489Y0169862D02*
X0302489Y0158051D01*
X0316269Y0144272D01*
X0322666Y0144272D01*
X0326603Y0140335D01*
X0326800Y0140000D01*
X0331032Y0137874D02*
X0328572Y0135413D01*
X0316269Y0135413D01*
X0311347Y0130492D01*
X0303473Y0130492D01*
X0303383Y0130435D01*
X0296690Y0130435D02*
X0296583Y0130000D01*
X0296583Y0101949D01*
X0287233Y0092598D01*
X0284280Y0096043D02*
X0284280Y0129508D01*
X0288217Y0142795D02*
X0270009Y0161004D01*
X0270009Y0163957D01*
X0267056Y0166909D01*
X0295599Y0190039D02*
X0295954Y0190000D01*
X0295599Y0190039D02*
X0280835Y0204803D01*
X0302646Y0190000D02*
X0302981Y0189547D01*
X0302981Y0184134D01*
X0316761Y0170354D01*
X0316800Y0170000D01*
X0305442Y0161496D02*
X0316761Y0150177D01*
X0316800Y0150000D01*
X0327587Y0155591D02*
X0331032Y0152146D01*
X0331032Y0137874D01*
X0316800Y0140000D02*
X0316761Y0140335D01*
X0314792Y0142303D01*
X0302981Y0142303D01*
X0302646Y0142500D01*
X0295954Y0142500D02*
X0295599Y0142795D01*
X0288217Y0142795D01*
X0291662Y0084232D02*
X0284280Y0084232D01*
X0291662Y0084232D02*
X0291800Y0084154D01*
X0330540Y0207756D02*
X0326111Y0212185D01*
X0326492Y0212375D01*
X0319799Y0212375D02*
X0319713Y0212677D01*
X0311839Y0212677D01*
X0303965Y0220551D01*
X0164694Y0220551D01*
D33*
X0163217Y0200000D03*
X0167233Y0200000D03*
X0172233Y0200000D03*
X0177233Y0200000D03*
X0182233Y0200000D03*
X0187233Y0200000D03*
X0187627Y0195000D03*
X0188020Y0190000D03*
X0187233Y0185000D03*
X0187233Y0180000D03*
X0187233Y0175000D03*
X0188020Y0170000D03*
X0187233Y0165000D03*
X0181800Y0164449D03*
X0182902Y0154606D03*
X0174044Y0150177D03*
X0166662Y0151654D03*
X0151898Y0154606D03*
X0146977Y0158543D03*
X0144024Y0161496D03*
X0149438Y0164449D03*
X0154851Y0162480D03*
X0159772Y0167402D03*
X0162824Y0170000D03*
X0163217Y0165000D03*
X0167233Y0164449D03*
X0163217Y0175000D03*
X0163217Y0180000D03*
X0163217Y0185000D03*
X0162824Y0190000D03*
X0162824Y0195000D03*
X0151898Y0192992D03*
X0141564Y0182657D03*
X0139103Y0176752D03*
X0149438Y0176752D03*
X0145009Y0151161D03*
X0145009Y0146732D03*
X0145009Y0141811D03*
X0141564Y0133937D03*
X0154851Y0131476D03*
X0159772Y0131476D03*
X0159280Y0118189D03*
X0155835Y0114744D03*
X0151406Y0112776D03*
X0138119Y0108346D03*
X0132706Y0098504D03*
X0138119Y0090630D03*
X0155835Y0073898D03*
X0171583Y0087677D03*
X0168631Y0108346D03*
X0174536Y0112283D03*
X0168631Y0118189D03*
X0188808Y0129016D03*
X0196682Y0129016D03*
X0203572Y0129016D03*
X0199635Y0139843D03*
X0189792Y0144764D03*
X0177981Y0137382D03*
X0221288Y0139843D03*
X0223257Y0135906D03*
X0266072Y0126555D03*
X0284280Y0129508D03*
X0268532Y0099980D03*
X0284280Y0096043D03*
X0287233Y0092598D03*
X0284280Y0084232D03*
X0285757Y0076850D03*
X0292154Y0061102D03*
X0315284Y0073406D03*
X0332017Y0077343D03*
X0321190Y0091122D03*
X0240973Y0076850D03*
X0223749Y0108839D03*
X0176997Y0059134D03*
X0137135Y0055197D03*
X0132213Y0055689D03*
X0135166Y0048799D03*
X0123847Y0035512D03*
X0133690Y0030098D03*
X0097272Y0030591D03*
X0080048Y0049783D03*
X0073650Y0056181D03*
X0100225Y0065531D03*
X0085954Y0074882D03*
X0117942Y0069961D03*
X0267056Y0166909D03*
X0305442Y0161496D03*
X0280835Y0204803D03*
X0330540Y0207756D03*
X0217843Y0169862D03*
D34*
X0076800Y0163622D02*
X0075028Y0163622D01*
X0076800Y0163622D02*
X0076800Y0205000D01*
X0075028Y0205236D01*
X0031800Y0205236D01*
X0031800Y0185551D02*
X0054300Y0185551D01*
X0054300Y0126378D01*
X0075028Y0126378D01*
X0075028Y0116378D01*
X0039300Y0115000D02*
X0039300Y0114921D01*
X0039300Y0115000D02*
X0031800Y0115000D01*
X0031800Y0140157D01*
X0031800Y0159843D02*
X0009300Y0159843D01*
X0009300Y0104921D01*
M02*
