G75*
%MOIN*%
%OFA0B0*%
%FSLAX25Y25*%
%IPPOS*%
%LPD*%
%AMOC8*
5,1,8,0,0,1.08239X$1,22.5*
%
%ADD10C,0.01600*%
%ADD11R,0.03150X0.03150*%
%ADD12R,0.07874X0.05118*%
%ADD13OC8,0.08500*%
%ADD14OC8,0.06600*%
%ADD15C,0.07050*%
%ADD16OC8,0.06000*%
%ADD17C,0.01040*%
%ADD18R,0.05150X0.05150*%
%ADD19C,0.07677*%
%ADD20C,0.03169*%
%ADD21C,0.00800*%
%ADD22C,0.08600*%
D10*
X0001800Y0005000D02*
X0349300Y0005000D01*
X0349300Y0225000D01*
X0001800Y0225000D01*
X0001800Y0005000D01*
X0041662Y0022717D02*
X0009674Y0054705D01*
X0009300Y0054921D01*
X0056918Y0045846D02*
X0056918Y0032559D01*
X0056800Y0032500D01*
X0046800Y0022500D02*
X0046583Y0022717D01*
X0041662Y0022717D01*
X0056918Y0045846D02*
X0085954Y0074882D01*
X0138119Y0090630D02*
X0138119Y0108346D01*
X0168631Y0108346D02*
X0168631Y0118189D01*
X0203572Y0129016D02*
X0223749Y0108839D01*
X0237528Y0127047D02*
X0228670Y0135906D01*
X0228572Y0136063D01*
X0237528Y0127047D02*
X0265580Y0127047D01*
X0266072Y0126555D01*
X0272469Y0120157D01*
X0271977Y0119665D01*
X0271977Y0072421D01*
X0275914Y0068484D01*
X0277391Y0068484D01*
X0277804Y0067815D01*
X0277883Y0067500D01*
X0277883Y0060610D01*
X0277804Y0059941D01*
X0278375Y0059626D01*
X0280343Y0057657D01*
X0293631Y0057657D01*
X0303473Y0067500D01*
X0332017Y0067500D01*
X0332017Y0077343D01*
X0332017Y0067500D02*
X0340383Y0067500D01*
X0340796Y0067815D01*
X0340875Y0067992D01*
X0340383Y0091122D02*
X0321190Y0091122D01*
X0340383Y0091122D02*
X0340796Y0091437D01*
X0277883Y0115236D02*
X0277804Y0115059D01*
X0277391Y0115236D01*
X0272469Y0120157D01*
X0269517Y0084724D02*
X0269517Y0050768D01*
X0296583Y0023701D01*
X0334477Y0023701D01*
X0338906Y0019272D01*
X0339250Y0019016D01*
X0277804Y0059941D02*
X0277883Y0060118D01*
X0269517Y0084724D02*
X0209477Y0144764D01*
X0189792Y0144764D01*
X0166662Y0151654D02*
X0166170Y0151161D01*
X0145009Y0151161D01*
X0176997Y0059134D02*
X0153375Y0035512D01*
X0123847Y0035512D01*
X0133198Y0030591D02*
X0133690Y0030098D01*
X0183887Y0030098D01*
X0188808Y0025177D01*
X0191269Y0025177D01*
X0191800Y0025000D01*
X0192253Y0025177D01*
X0201603Y0025177D01*
X0201800Y0025000D01*
X0133198Y0030591D02*
X0097272Y0030591D01*
X0326800Y0190000D02*
X0327095Y0190039D01*
X0334477Y0197421D01*
X0334477Y0205787D01*
X0334871Y0206063D01*
D11*
X0334871Y0206063D03*
X0334871Y0211969D03*
D12*
X0340796Y0115059D03*
X0340796Y0107185D03*
X0340796Y0099311D03*
X0340796Y0091437D03*
X0340796Y0083563D03*
X0340796Y0075689D03*
X0340796Y0067815D03*
X0340796Y0059941D03*
X0277804Y0059941D03*
X0277804Y0067815D03*
X0277804Y0075689D03*
X0277804Y0083563D03*
X0277804Y0091437D03*
X0277804Y0099311D03*
X0277804Y0107185D03*
X0277804Y0115059D03*
D13*
X0341800Y0050000D03*
X0301800Y0215000D03*
D14*
X0281800Y0215000D03*
X0271800Y0215000D03*
X0261800Y0215000D03*
X0251800Y0215000D03*
X0241800Y0215000D03*
X0231800Y0215000D03*
X0221800Y0215000D03*
X0211800Y0215000D03*
X0195800Y0215000D03*
X0185800Y0215000D03*
X0175800Y0215000D03*
X0165800Y0215000D03*
X0155800Y0215000D03*
X0145800Y0215000D03*
X0135800Y0215000D03*
X0125800Y0215000D03*
X0115800Y0215000D03*
X0105800Y0215000D03*
X0141800Y0025000D03*
X0151800Y0025000D03*
X0161800Y0025000D03*
X0171800Y0025000D03*
X0181800Y0025000D03*
X0191800Y0025000D03*
X0201800Y0025000D03*
X0211800Y0025000D03*
X0231800Y0025000D03*
X0241800Y0025000D03*
X0251800Y0025000D03*
X0261800Y0025000D03*
X0271800Y0025000D03*
X0281800Y0025000D03*
D15*
X0035325Y0140157D02*
X0028275Y0140157D01*
X0028275Y0159843D02*
X0035325Y0159843D01*
X0035325Y0185551D02*
X0028275Y0185551D01*
X0028275Y0205236D02*
X0035325Y0205236D01*
D16*
X0046800Y0032500D03*
X0056800Y0032500D03*
X0056800Y0022500D03*
X0046800Y0022500D03*
X0046800Y0012500D03*
X0056800Y0012500D03*
X0316800Y0130000D03*
X0326800Y0130000D03*
X0326800Y0140000D03*
X0316800Y0140000D03*
X0316800Y0150000D03*
X0326800Y0150000D03*
X0326800Y0160000D03*
X0316800Y0160000D03*
X0316800Y0170000D03*
X0326800Y0170000D03*
X0326800Y0180000D03*
X0316800Y0180000D03*
X0316800Y0190000D03*
X0326800Y0190000D03*
D17*
X0329691Y0017457D02*
X0330211Y0016937D01*
X0328489Y0016937D01*
X0327271Y0018155D01*
X0327271Y0019877D01*
X0328489Y0021095D01*
X0330211Y0021095D01*
X0331429Y0019877D01*
X0331429Y0018155D01*
X0330211Y0016937D01*
X0329888Y0017717D01*
X0328812Y0017717D01*
X0328051Y0018478D01*
X0328051Y0019554D01*
X0328812Y0020315D01*
X0329888Y0020315D01*
X0330649Y0019554D01*
X0330649Y0018478D01*
X0329888Y0017717D01*
X0329565Y0018497D01*
X0329135Y0018497D01*
X0328831Y0018801D01*
X0328831Y0019231D01*
X0329135Y0019535D01*
X0329565Y0019535D01*
X0329869Y0019231D01*
X0329869Y0018801D01*
X0329565Y0018497D01*
X0339591Y0017457D02*
X0340111Y0016937D01*
X0338389Y0016937D01*
X0337171Y0018155D01*
X0337171Y0019877D01*
X0338389Y0021095D01*
X0340111Y0021095D01*
X0341329Y0019877D01*
X0341329Y0018155D01*
X0340111Y0016937D01*
X0339788Y0017717D01*
X0338712Y0017717D01*
X0337951Y0018478D01*
X0337951Y0019554D01*
X0338712Y0020315D01*
X0339788Y0020315D01*
X0340549Y0019554D01*
X0340549Y0018478D01*
X0339788Y0017717D01*
X0339465Y0018497D01*
X0339035Y0018497D01*
X0338731Y0018801D01*
X0338731Y0019231D01*
X0339035Y0019535D01*
X0339465Y0019535D01*
X0339769Y0019231D01*
X0339769Y0018801D01*
X0339465Y0018497D01*
D18*
X0228572Y0136063D03*
X0228572Y0163622D03*
X0075028Y0163622D03*
X0075028Y0116378D03*
D19*
X0039300Y0114921D03*
X0009300Y0104921D03*
X0009300Y0054921D03*
X0039300Y0054921D03*
D20*
X0073650Y0056181D03*
X0080048Y0049783D03*
X0100225Y0065531D03*
X0085954Y0074882D03*
X0117942Y0069961D03*
X0132213Y0055689D03*
X0137135Y0055197D03*
X0135166Y0048799D03*
X0123847Y0035512D03*
X0133690Y0030098D03*
X0097272Y0030591D03*
X0155835Y0073898D03*
X0171583Y0087677D03*
X0168631Y0108346D03*
X0174536Y0112283D03*
X0168631Y0118189D03*
X0159280Y0118189D03*
X0155835Y0114744D03*
X0151406Y0112776D03*
X0138119Y0108346D03*
X0132706Y0098504D03*
X0138119Y0090630D03*
X0176997Y0059134D03*
X0240973Y0076850D03*
X0268532Y0099980D03*
X0284280Y0096043D03*
X0287233Y0092598D03*
X0284280Y0084232D03*
X0285757Y0076850D03*
X0292154Y0061102D03*
X0315284Y0073406D03*
X0332017Y0077343D03*
X0321190Y0091122D03*
X0266072Y0126555D03*
X0284280Y0129508D03*
X0305442Y0161496D03*
X0267056Y0166909D03*
X0221288Y0139843D03*
X0223257Y0135906D03*
X0203572Y0129016D03*
X0196682Y0129016D03*
X0188808Y0129016D03*
X0177981Y0137382D03*
X0189792Y0144764D03*
X0199635Y0139843D03*
X0182902Y0154606D03*
X0174044Y0150177D03*
X0166662Y0151654D03*
X0151898Y0154606D03*
X0146977Y0158543D03*
X0144024Y0161496D03*
X0149438Y0164449D03*
X0154851Y0162480D03*
X0159772Y0167402D03*
X0162824Y0170000D03*
X0163217Y0165000D03*
X0167233Y0164449D03*
X0181800Y0164449D03*
X0187233Y0165000D03*
X0188020Y0170000D03*
X0187233Y0175000D03*
X0187233Y0180000D03*
X0187233Y0185000D03*
X0188020Y0190000D03*
X0187627Y0195000D03*
X0187233Y0200000D03*
X0182233Y0200000D03*
X0177233Y0200000D03*
X0172233Y0200000D03*
X0167233Y0200000D03*
X0163217Y0200000D03*
X0162824Y0195000D03*
X0162824Y0190000D03*
X0163217Y0185000D03*
X0163217Y0180000D03*
X0163217Y0175000D03*
X0149438Y0176752D03*
X0141564Y0182657D03*
X0139103Y0176752D03*
X0151898Y0192992D03*
X0217843Y0169862D03*
X0159772Y0131476D03*
X0154851Y0131476D03*
X0141564Y0133937D03*
X0145009Y0141811D03*
X0145009Y0146732D03*
X0145009Y0151161D03*
X0223749Y0108839D03*
X0280835Y0204803D03*
X0330540Y0207756D03*
D21*
X0334477Y0211693D01*
X0334871Y0211969D01*
X0337922Y0214154D02*
X0336938Y0215138D01*
X0301997Y0215138D01*
X0301800Y0215000D01*
X0301505Y0214646D01*
X0297076Y0210217D01*
X0161741Y0210217D01*
X0146485Y0194961D01*
X0146485Y0162972D01*
X0146977Y0162480D01*
X0146977Y0158543D01*
X0151898Y0154606D02*
X0156820Y0159528D01*
X0185855Y0159528D01*
X0196190Y0169862D01*
X0217843Y0169862D01*
X0232607Y0166909D02*
X0196682Y0202835D01*
X0161741Y0202835D01*
X0151898Y0192992D01*
X0149438Y0191024D02*
X0148946Y0191516D01*
X0148946Y0194469D01*
X0159280Y0204803D01*
X0280835Y0204803D01*
X0310363Y0189547D02*
X0315284Y0194469D01*
X0318729Y0194469D01*
X0321190Y0192008D01*
X0321190Y0184134D01*
X0317253Y0180197D01*
X0316800Y0180000D01*
X0312331Y0181673D02*
X0312331Y0152638D01*
X0280589Y0120896D01*
X0261643Y0139843D01*
X0221288Y0139843D01*
X0223257Y0135906D02*
X0223257Y0134429D01*
X0257706Y0099980D01*
X0268532Y0099980D01*
X0277804Y0099311D02*
X0277883Y0098996D01*
X0285757Y0098996D01*
X0286003Y0098750D01*
X0286249Y0098996D01*
X0286249Y0115728D01*
X0314792Y0144272D01*
X0317253Y0144272D01*
X0321190Y0148209D01*
X0321190Y0170354D01*
X0326603Y0175768D01*
X0326603Y0179705D01*
X0326800Y0180000D01*
X0316761Y0186102D02*
X0312331Y0181673D01*
X0316761Y0186102D02*
X0316761Y0189547D01*
X0316800Y0190000D01*
X0310363Y0189547D02*
X0310363Y0157559D01*
X0299536Y0146732D01*
X0284280Y0146732D01*
X0284280Y0129508D01*
X0280589Y0120896D02*
X0283296Y0118189D01*
X0283296Y0112283D01*
X0277883Y0106870D01*
X0277804Y0107185D01*
X0286003Y0098750D02*
X0290186Y0094567D01*
X0290186Y0083248D01*
X0285757Y0078819D01*
X0285757Y0076850D01*
X0280343Y0075866D02*
X0277883Y0075866D01*
X0277804Y0075689D01*
X0280343Y0075866D02*
X0287233Y0082756D01*
X0287233Y0092598D01*
X0292154Y0092106D02*
X0292154Y0061102D01*
X0315284Y0073406D02*
X0315284Y0112776D01*
X0326603Y0124094D01*
X0326603Y0130000D01*
X0326800Y0130000D01*
X0327095Y0130000D01*
X0327095Y0133937D01*
X0337922Y0144764D01*
X0337922Y0214154D01*
X0267056Y0166909D02*
X0232607Y0166909D01*
X0235068Y0162972D02*
X0229654Y0157559D01*
X0176997Y0157559D01*
X0158296Y0138858D01*
X0146485Y0138858D01*
X0141564Y0133937D01*
X0141564Y0059626D01*
X0137135Y0055197D01*
X0132213Y0055689D02*
X0117942Y0069961D01*
X0118434Y0069961D01*
X0132706Y0084232D01*
X0132706Y0098504D01*
X0129753Y0089154D02*
X0129753Y0127047D01*
X0144517Y0141811D01*
X0145009Y0141811D01*
X0139103Y0147717D01*
X0139103Y0176752D01*
X0142548Y0179213D02*
X0141564Y0180197D01*
X0141564Y0182657D01*
X0144517Y0184626D02*
X0143040Y0186102D01*
X0140087Y0186102D01*
X0099733Y0145748D01*
X0099733Y0093091D01*
X0051013Y0044370D01*
X0051013Y0016811D01*
X0047076Y0012874D01*
X0046800Y0012500D01*
X0052489Y0014350D02*
X0052489Y0010413D01*
X0054950Y0007953D01*
X0141564Y0007953D01*
X0158296Y0024685D01*
X0161741Y0024685D01*
X0161800Y0025000D01*
X0132706Y0041909D02*
X0085954Y0041909D01*
X0056918Y0012874D01*
X0056800Y0012500D01*
X0052489Y0014350D02*
X0056426Y0018287D01*
X0058887Y0018287D01*
X0129753Y0089154D01*
X0155835Y0073898D02*
X0155835Y0114744D01*
X0159280Y0115728D02*
X0163709Y0111299D01*
X0163709Y0077343D01*
X0135166Y0048799D01*
X0132706Y0041909D02*
X0174536Y0083740D01*
X0174536Y0112283D01*
X0165678Y0120650D02*
X0154851Y0131476D01*
X0151406Y0132461D02*
X0155835Y0136890D01*
X0160757Y0136890D01*
X0174044Y0150177D01*
X0182902Y0154606D02*
X0159772Y0131476D01*
X0151406Y0132461D02*
X0151406Y0112776D01*
X0159280Y0115728D02*
X0159280Y0118189D01*
X0165678Y0120650D02*
X0165678Y0093583D01*
X0171583Y0087677D01*
X0196682Y0121142D02*
X0240973Y0076850D01*
X0277804Y0083563D02*
X0277883Y0083740D01*
X0278375Y0084232D01*
X0284280Y0084232D01*
X0279851Y0091614D02*
X0277883Y0091614D01*
X0277804Y0091437D01*
X0279851Y0091614D02*
X0284280Y0096043D01*
X0292154Y0092106D02*
X0321190Y0121142D01*
X0321190Y0140335D01*
X0326603Y0145748D01*
X0326603Y0149685D01*
X0326800Y0150000D01*
X0305442Y0161496D02*
X0301013Y0161496D01*
X0299536Y0162972D01*
X0235068Y0162972D01*
X0199635Y0139843D02*
X0188808Y0129016D01*
X0196682Y0129016D02*
X0196682Y0121142D01*
X0177981Y0137382D02*
X0188316Y0147717D01*
X0283296Y0147717D01*
X0284280Y0146732D01*
X0159772Y0167402D02*
X0154851Y0162480D01*
X0149438Y0164449D02*
X0149438Y0176752D01*
X0149438Y0191024D01*
X0144517Y0184626D02*
X0144517Y0166909D01*
X0144024Y0166417D01*
X0144024Y0161496D01*
X0141072Y0165925D02*
X0141072Y0150669D01*
X0145009Y0146732D01*
X0141072Y0165925D02*
X0142548Y0167402D01*
X0142548Y0179213D01*
X0100225Y0065531D02*
X0056918Y0022224D01*
X0056800Y0022500D01*
X0080048Y0049783D02*
X0073650Y0056181D01*
D22*
X0340796Y0059941D02*
X0340875Y0059626D01*
X0340875Y0050768D01*
X0341367Y0050276D01*
X0341800Y0050000D01*
M02*
