G75*
%MOIN*%
%OFA0B0*%
%FSLAX25Y25*%
%IPPOS*%
%LPD*%
%AMOC8*
5,1,8,0,0,1.08239X$1,22.5*
%
%ADD10C,0.00300*%
%ADD11C,0.01600*%
%ADD12C,0.00800*%
%ADD13C,0.00500*%
%ADD14C,0.00600*%
%ADD15C,0.00400*%
%ADD16R,0.00591X0.01181*%
%ADD17R,0.01181X0.01181*%
D10*
X0073450Y0047650D02*
X0073450Y0050077D01*
X0073450Y0051275D02*
X0073450Y0053702D01*
X0073450Y0054900D02*
X0073450Y0056720D01*
X0074057Y0057327D01*
X0076483Y0057327D01*
X0077090Y0056720D01*
X0077090Y0054900D01*
X0073450Y0054900D01*
X0075270Y0052488D02*
X0075270Y0051275D01*
X0077090Y0051275D02*
X0073450Y0051275D01*
X0073450Y0047650D02*
X0077090Y0047650D01*
X0077090Y0051275D02*
X0077090Y0053702D01*
X0075877Y0058525D02*
X0077090Y0059739D01*
X0073450Y0059739D01*
X0073450Y0060952D02*
X0073450Y0058525D01*
X0090450Y0058900D02*
X0090450Y0061327D01*
X0090450Y0060114D02*
X0094090Y0060114D01*
X0092877Y0058900D01*
X0094090Y0056488D02*
X0090450Y0056488D01*
X0090450Y0055275D02*
X0090450Y0057702D01*
X0092877Y0055275D02*
X0094090Y0056488D01*
X0093483Y0054077D02*
X0092270Y0054077D01*
X0091663Y0053470D01*
X0091663Y0051650D01*
X0090450Y0051650D02*
X0094090Y0051650D01*
X0094090Y0053470D01*
X0093483Y0054077D01*
X0091663Y0052863D02*
X0090450Y0054077D01*
X0090726Y0067775D02*
X0090726Y0069595D01*
X0091333Y0070201D01*
X0092546Y0070201D01*
X0093153Y0069595D01*
X0093153Y0067775D01*
X0089513Y0067775D01*
X0090726Y0068988D02*
X0089513Y0070201D01*
X0089513Y0071400D02*
X0089513Y0073826D01*
X0089513Y0072613D02*
X0093153Y0072613D01*
X0091940Y0071400D01*
X0092546Y0075025D02*
X0093153Y0075632D01*
X0093153Y0076845D01*
X0092546Y0077452D01*
X0091940Y0077452D01*
X0091333Y0076845D01*
X0090726Y0077452D01*
X0090120Y0077452D01*
X0089513Y0076845D01*
X0089513Y0075632D01*
X0090120Y0075025D01*
X0091333Y0076238D02*
X0091333Y0076845D01*
X0109188Y0068945D02*
X0109794Y0069552D01*
X0111008Y0069552D01*
X0111615Y0068945D01*
X0109188Y0068945D02*
X0109188Y0068338D01*
X0111615Y0065912D01*
X0109188Y0065912D01*
X0112813Y0065912D02*
X0115240Y0065912D01*
X0116438Y0065912D02*
X0118865Y0065912D01*
X0117651Y0065912D02*
X0117651Y0069552D01*
X0118865Y0068338D01*
X0120063Y0067732D02*
X0120670Y0067125D01*
X0122490Y0067125D01*
X0122490Y0065912D02*
X0122490Y0069552D01*
X0120670Y0069552D01*
X0120063Y0068945D01*
X0120063Y0067732D01*
X0123688Y0069552D02*
X0123688Y0065912D01*
X0126115Y0065912D02*
X0126115Y0069552D01*
X0124902Y0068338D01*
X0123688Y0069552D01*
X0127313Y0069552D02*
X0129740Y0069552D01*
X0128527Y0069552D02*
X0128527Y0065912D01*
X0129705Y0073650D02*
X0129705Y0077290D01*
X0131525Y0075470D01*
X0129098Y0075470D01*
X0132723Y0075470D02*
X0133330Y0074863D01*
X0135150Y0074863D01*
X0135150Y0073650D02*
X0135150Y0077290D01*
X0133330Y0077290D01*
X0132723Y0076683D01*
X0132723Y0075470D01*
X0133937Y0074863D02*
X0132723Y0073650D01*
X0115240Y0068338D02*
X0114026Y0069552D01*
X0114026Y0065912D01*
X0140450Y0047095D02*
X0141057Y0047702D01*
X0141663Y0047702D01*
X0142270Y0047095D01*
X0142270Y0045882D01*
X0142877Y0045275D01*
X0143483Y0045275D01*
X0144090Y0045882D01*
X0144090Y0047095D01*
X0143483Y0047702D01*
X0142877Y0047702D01*
X0142270Y0047095D01*
X0142270Y0045882D02*
X0141663Y0045275D01*
X0141057Y0045275D01*
X0140450Y0045882D01*
X0140450Y0047095D01*
X0140450Y0044077D02*
X0141663Y0042863D01*
X0141663Y0043470D02*
X0141663Y0041650D01*
X0140450Y0041650D02*
X0144090Y0041650D01*
X0144090Y0043470D01*
X0143483Y0044077D01*
X0142270Y0044077D01*
X0141663Y0043470D01*
X0125150Y0042363D02*
X0123330Y0042363D01*
X0122723Y0042970D01*
X0122723Y0044183D01*
X0123330Y0044790D01*
X0125150Y0044790D01*
X0125150Y0041150D01*
X0123937Y0042363D02*
X0122723Y0041150D01*
X0121525Y0041757D02*
X0120918Y0041150D01*
X0119705Y0041150D01*
X0119098Y0041757D01*
X0119098Y0042363D01*
X0119705Y0042970D01*
X0121525Y0042970D01*
X0121525Y0041757D01*
X0121525Y0042970D02*
X0120312Y0044183D01*
X0119098Y0044790D01*
X0170348Y0042353D02*
X0172775Y0042353D01*
X0173974Y0042353D02*
X0176400Y0042353D01*
X0176400Y0038713D01*
X0173974Y0038713D01*
X0175187Y0040533D02*
X0176400Y0040533D01*
X0177599Y0042353D02*
X0180025Y0042353D01*
X0180025Y0038713D01*
X0180025Y0040533D02*
X0178812Y0040533D01*
X0181224Y0040533D02*
X0181831Y0039926D01*
X0183651Y0039926D01*
X0183651Y0038713D02*
X0183651Y0042353D01*
X0181831Y0042353D01*
X0181224Y0041746D01*
X0181224Y0040533D01*
X0171562Y0038713D02*
X0171562Y0042353D01*
X0175450Y0066650D02*
X0179090Y0066650D01*
X0179090Y0068470D01*
X0178483Y0069077D01*
X0177270Y0069077D01*
X0176663Y0068470D01*
X0176663Y0066650D01*
X0176663Y0067863D02*
X0175450Y0069077D01*
X0175450Y0070275D02*
X0175450Y0072702D01*
X0175450Y0071488D02*
X0179090Y0071488D01*
X0177877Y0070275D01*
X0177270Y0073900D02*
X0177877Y0075114D01*
X0177877Y0075720D01*
X0177270Y0076327D01*
X0176057Y0076327D01*
X0175450Y0075720D01*
X0175450Y0074507D01*
X0176057Y0073900D01*
X0177270Y0073900D02*
X0179090Y0073900D01*
X0179090Y0076327D01*
X0178662Y0087305D02*
X0178662Y0090945D01*
X0176842Y0090945D01*
X0176235Y0090339D01*
X0176235Y0089125D01*
X0176842Y0088519D01*
X0178662Y0088519D01*
X0179865Y0088519D02*
X0180472Y0089125D01*
X0180472Y0091552D01*
X0181078Y0090945D02*
X0179865Y0090945D01*
X0182282Y0090945D02*
X0183495Y0090945D01*
X0182888Y0091552D02*
X0182888Y0089125D01*
X0182282Y0088519D01*
X0184694Y0088519D02*
X0184694Y0090339D01*
X0185300Y0090945D01*
X0186514Y0090945D01*
X0187120Y0090339D01*
X0187120Y0092159D02*
X0187120Y0088519D01*
X0191951Y0088519D02*
X0192558Y0088519D01*
X0192558Y0089125D01*
X0191951Y0089125D01*
X0191951Y0088519D01*
X0191951Y0090339D02*
X0192558Y0090339D01*
X0192558Y0090945D01*
X0191951Y0090945D01*
X0191951Y0090339D01*
X0193756Y0090339D02*
X0194363Y0090945D01*
X0195576Y0090945D01*
X0196183Y0090339D01*
X0196183Y0089125D01*
X0195576Y0088519D01*
X0194363Y0088519D01*
X0193756Y0089732D02*
X0196183Y0089732D01*
X0197382Y0089125D02*
X0197988Y0089732D01*
X0199202Y0089732D01*
X0199808Y0090339D01*
X0199202Y0090945D01*
X0197382Y0090945D01*
X0197382Y0089125D02*
X0197988Y0088519D01*
X0199808Y0088519D01*
X0201007Y0088519D02*
X0201007Y0090339D01*
X0201613Y0090945D01*
X0203433Y0090945D01*
X0203433Y0088519D01*
X0204632Y0089732D02*
X0207059Y0089732D01*
X0207059Y0090339D02*
X0206452Y0090945D01*
X0205238Y0090945D01*
X0204632Y0090339D01*
X0204632Y0089732D01*
X0205238Y0088519D02*
X0206452Y0088519D01*
X0207059Y0089125D01*
X0207059Y0090339D01*
X0208257Y0090945D02*
X0210077Y0090945D01*
X0210684Y0090339D01*
X0210684Y0089125D01*
X0210077Y0088519D01*
X0208257Y0088519D01*
X0211887Y0088519D02*
X0213100Y0088519D01*
X0212494Y0088519D02*
X0212494Y0090945D01*
X0213100Y0090945D01*
X0212494Y0092159D02*
X0212494Y0092765D01*
X0216726Y0092159D02*
X0216726Y0088519D01*
X0214299Y0088519D01*
X0193756Y0089732D02*
X0193756Y0090339D01*
X0175037Y0090339D02*
X0175037Y0090945D01*
X0174430Y0090945D01*
X0174430Y0090339D01*
X0175037Y0090339D01*
X0175037Y0089125D02*
X0175037Y0088519D01*
X0174430Y0088519D01*
X0174430Y0089125D01*
X0175037Y0089125D01*
X0173224Y0088519D02*
X0170797Y0092159D01*
X0167172Y0092159D02*
X0169599Y0088519D01*
X0165974Y0089125D02*
X0165367Y0088519D01*
X0163547Y0088519D01*
X0163547Y0087912D02*
X0163547Y0090945D01*
X0165367Y0090945D01*
X0165974Y0090339D01*
X0165974Y0089125D01*
X0164760Y0087305D02*
X0164154Y0087305D01*
X0163547Y0087912D01*
X0162349Y0089125D02*
X0161742Y0088519D01*
X0160529Y0088519D01*
X0159922Y0089125D01*
X0159922Y0090339D01*
X0160529Y0090945D01*
X0161742Y0090945D01*
X0162349Y0090339D01*
X0162349Y0089125D01*
X0158723Y0089125D02*
X0158117Y0088519D01*
X0156903Y0088519D01*
X0156297Y0089125D01*
X0156297Y0090339D01*
X0156903Y0090945D01*
X0158117Y0090945D01*
X0158723Y0090339D01*
X0158723Y0089125D01*
X0155098Y0089125D02*
X0154492Y0089125D01*
X0154492Y0088519D01*
X0155098Y0088519D01*
X0155098Y0089125D01*
X0153286Y0089125D02*
X0152679Y0088519D01*
X0150859Y0088519D01*
X0150859Y0087912D02*
X0150859Y0090945D01*
X0152679Y0090945D01*
X0153286Y0090339D01*
X0153286Y0089125D01*
X0152072Y0087305D02*
X0151466Y0087305D01*
X0150859Y0087912D01*
X0149661Y0088519D02*
X0148447Y0088519D01*
X0149054Y0088519D02*
X0149054Y0092159D01*
X0149661Y0092159D01*
X0147244Y0088519D02*
X0144817Y0092159D01*
X0143619Y0091552D02*
X0143012Y0092159D01*
X0141799Y0092159D01*
X0141192Y0091552D01*
X0141192Y0090945D01*
X0141799Y0090339D01*
X0141192Y0089732D01*
X0141192Y0089125D01*
X0141799Y0088519D01*
X0143012Y0088519D01*
X0143619Y0089125D01*
X0142405Y0090339D02*
X0141799Y0090339D01*
X0139994Y0090339D02*
X0139387Y0090945D01*
X0137567Y0090945D01*
X0137567Y0092159D02*
X0137567Y0088519D01*
X0139387Y0088519D01*
X0139994Y0089125D01*
X0139994Y0090339D01*
X0136368Y0089125D02*
X0133942Y0091552D01*
X0133942Y0092159D01*
X0136368Y0092159D01*
X0136368Y0089125D02*
X0136368Y0088519D01*
X0132743Y0088519D02*
X0130317Y0088519D01*
X0131530Y0088519D02*
X0131530Y0092159D01*
X0132743Y0090945D01*
X0129118Y0092159D02*
X0129118Y0089125D01*
X0128511Y0088519D01*
X0127298Y0088519D01*
X0126691Y0089125D01*
X0126691Y0092159D01*
X0124280Y0092159D02*
X0123066Y0092159D01*
X0123673Y0092159D02*
X0123673Y0089125D01*
X0124280Y0088519D01*
X0124886Y0088519D01*
X0125493Y0089125D01*
X0114025Y0092713D02*
X0114025Y0096353D01*
X0112205Y0096353D01*
X0111599Y0095746D01*
X0111599Y0094533D01*
X0112205Y0093926D01*
X0114025Y0093926D01*
X0112812Y0093926D02*
X0111599Y0092713D01*
X0110400Y0092713D02*
X0107974Y0092713D01*
X0109187Y0092713D02*
X0109187Y0096353D01*
X0110400Y0095140D01*
X0106775Y0094533D02*
X0104955Y0096353D01*
X0104955Y0092713D01*
X0104348Y0094533D02*
X0106775Y0094533D01*
X0118761Y0105757D02*
X0119368Y0105150D01*
X0118761Y0105757D02*
X0118761Y0106970D01*
X0119368Y0107577D01*
X0119974Y0107577D01*
X0120581Y0106970D01*
X0120581Y0105757D01*
X0121188Y0105150D01*
X0121794Y0105150D01*
X0122401Y0105757D01*
X0122401Y0106970D01*
X0121794Y0107577D01*
X0120581Y0108775D02*
X0121188Y0109382D01*
X0121188Y0110595D01*
X0120581Y0111202D01*
X0119974Y0111202D01*
X0119974Y0108775D01*
X0119368Y0108775D02*
X0120581Y0108775D01*
X0119368Y0108775D02*
X0118761Y0109382D01*
X0118761Y0110595D01*
X0119368Y0112400D02*
X0118761Y0113007D01*
X0118761Y0114827D01*
X0120581Y0114827D01*
X0121188Y0114220D01*
X0121188Y0113007D01*
X0119974Y0113007D02*
X0119974Y0114827D01*
X0118761Y0116025D02*
X0118761Y0117239D01*
X0118761Y0116632D02*
X0122401Y0116632D01*
X0122401Y0116025D01*
X0115889Y0116632D02*
X0113462Y0116632D01*
X0112856Y0117239D01*
X0112856Y0118442D02*
X0115282Y0118442D01*
X0115282Y0119049D01*
X0114676Y0119656D01*
X0115282Y0120262D01*
X0114676Y0120869D01*
X0112856Y0120869D01*
X0112856Y0119656D02*
X0114676Y0119656D01*
X0114676Y0122067D02*
X0115282Y0122674D01*
X0115282Y0123887D01*
X0114676Y0124494D01*
X0114069Y0124494D01*
X0114069Y0122067D01*
X0113462Y0122067D02*
X0114676Y0122067D01*
X0113462Y0122067D02*
X0112856Y0122674D01*
X0112856Y0123887D01*
X0112856Y0125692D02*
X0112856Y0126906D01*
X0112856Y0126299D02*
X0116496Y0126299D01*
X0116496Y0125692D01*
X0118761Y0126299D02*
X0121794Y0126299D01*
X0122401Y0126906D01*
X0122053Y0127781D02*
X0124480Y0127781D01*
X0123267Y0127781D02*
X0123267Y0131421D01*
X0124480Y0130208D01*
X0125678Y0130815D02*
X0126285Y0131421D01*
X0127498Y0131421D01*
X0128105Y0130815D01*
X0128105Y0128388D01*
X0127498Y0127781D01*
X0126285Y0127781D01*
X0125678Y0128388D01*
X0120855Y0127781D02*
X0118428Y0130208D01*
X0118428Y0130815D01*
X0119035Y0131421D01*
X0120248Y0131421D01*
X0120855Y0130815D01*
X0120581Y0131734D02*
X0121188Y0132341D01*
X0121188Y0134161D01*
X0120581Y0135359D02*
X0119368Y0135359D01*
X0118761Y0135966D01*
X0118761Y0137180D01*
X0119368Y0137786D01*
X0120581Y0137786D01*
X0121188Y0137180D01*
X0121188Y0135966D01*
X0120581Y0135359D01*
X0119368Y0134161D02*
X0119974Y0133554D01*
X0119974Y0132341D01*
X0120581Y0131734D01*
X0118761Y0131734D02*
X0118761Y0133554D01*
X0119368Y0134161D01*
X0115282Y0134758D02*
X0115282Y0136578D01*
X0112249Y0136578D01*
X0111642Y0135971D01*
X0111642Y0135364D01*
X0112856Y0134758D02*
X0112856Y0136578D01*
X0112856Y0137776D02*
X0112856Y0138990D01*
X0112856Y0138383D02*
X0116496Y0138383D01*
X0116496Y0137776D01*
X0118761Y0138985D02*
X0118761Y0140198D01*
X0118761Y0139591D02*
X0122401Y0139591D01*
X0122401Y0138985D01*
X0120581Y0141401D02*
X0121188Y0142008D01*
X0121188Y0143828D01*
X0122401Y0143828D02*
X0118761Y0143828D01*
X0118761Y0142008D01*
X0119368Y0141401D01*
X0120581Y0141401D01*
X0120581Y0145026D02*
X0121188Y0145633D01*
X0121188Y0146847D01*
X0120581Y0147453D01*
X0119974Y0147453D01*
X0119974Y0145026D01*
X0119368Y0145026D02*
X0120581Y0145026D01*
X0119368Y0145026D02*
X0118761Y0145633D01*
X0118761Y0146847D01*
X0118761Y0148652D02*
X0121188Y0148652D01*
X0121188Y0149865D02*
X0119974Y0148652D01*
X0121188Y0149865D02*
X0121188Y0150472D01*
X0121188Y0151673D02*
X0121188Y0153493D01*
X0120581Y0154099D01*
X0119368Y0154099D01*
X0118761Y0153493D01*
X0118761Y0151673D01*
X0117548Y0151673D02*
X0121188Y0151673D01*
X0115282Y0151675D02*
X0115282Y0152888D01*
X0114676Y0153495D01*
X0113462Y0153495D01*
X0112856Y0152888D01*
X0112856Y0151675D01*
X0113462Y0151068D01*
X0114676Y0151068D01*
X0115282Y0151675D01*
X0115282Y0154694D02*
X0112856Y0154694D01*
X0114069Y0154694D02*
X0115282Y0155907D01*
X0115282Y0156514D01*
X0118761Y0155904D02*
X0118761Y0157724D01*
X0120581Y0157724D01*
X0121188Y0157118D01*
X0121188Y0155904D01*
X0119974Y0155904D02*
X0119974Y0157724D01*
X0119368Y0158923D02*
X0118761Y0159530D01*
X0118761Y0161350D01*
X0122401Y0161350D01*
X0121188Y0161350D02*
X0121188Y0159530D01*
X0120581Y0158923D01*
X0119368Y0158923D01*
X0118761Y0162548D02*
X0118761Y0164368D01*
X0119368Y0164975D01*
X0119974Y0164368D01*
X0119974Y0163155D01*
X0120581Y0162548D01*
X0121188Y0163155D01*
X0121188Y0164975D01*
X0117102Y0165571D02*
X0116496Y0165571D01*
X0115282Y0165571D02*
X0112856Y0165571D01*
X0112856Y0164965D02*
X0112856Y0166178D01*
X0112856Y0167381D02*
X0112856Y0168595D01*
X0112856Y0167988D02*
X0116496Y0167988D01*
X0116496Y0167381D01*
X0115282Y0165571D02*
X0115282Y0164965D01*
X0115282Y0163766D02*
X0115282Y0161946D01*
X0114676Y0161340D01*
X0114069Y0161946D01*
X0114069Y0163160D01*
X0113462Y0163766D01*
X0112856Y0163160D01*
X0112856Y0161340D01*
X0118761Y0155904D02*
X0119368Y0155298D01*
X0119974Y0155904D01*
X0114676Y0146245D02*
X0114069Y0146245D01*
X0114069Y0143818D01*
X0114676Y0143818D02*
X0115282Y0144425D01*
X0115282Y0145638D01*
X0114676Y0146245D01*
X0112856Y0145638D02*
X0112856Y0144425D01*
X0113462Y0143818D01*
X0114676Y0143818D01*
X0115282Y0142620D02*
X0112856Y0142620D01*
X0112856Y0140800D01*
X0113462Y0140193D01*
X0115282Y0140193D01*
X0115282Y0134758D02*
X0114676Y0134151D01*
X0113462Y0134151D01*
X0112856Y0134758D01*
X0112856Y0129323D02*
X0113462Y0128716D01*
X0115889Y0128716D01*
X0115282Y0128109D02*
X0115282Y0129323D01*
X0118428Y0127781D02*
X0120855Y0127781D01*
X0120581Y0126906D02*
X0120581Y0125692D01*
X0120581Y0124494D02*
X0121188Y0123887D01*
X0121188Y0122674D01*
X0120581Y0122067D01*
X0119368Y0122067D01*
X0118761Y0122674D01*
X0118761Y0123887D01*
X0119368Y0124494D01*
X0120581Y0124494D01*
X0115282Y0117239D02*
X0115282Y0116025D01*
X0114676Y0114827D02*
X0115282Y0114220D01*
X0115282Y0113007D01*
X0114676Y0112400D01*
X0113462Y0112400D01*
X0112856Y0113007D01*
X0112856Y0114220D01*
X0113462Y0114827D01*
X0114676Y0114827D01*
X0114676Y0111202D02*
X0112856Y0111202D01*
X0114676Y0111202D02*
X0115282Y0110595D01*
X0115282Y0109382D01*
X0114676Y0108775D01*
X0116496Y0108775D02*
X0112856Y0108775D01*
X0109377Y0109382D02*
X0108770Y0108775D01*
X0107557Y0108775D01*
X0106950Y0109382D01*
X0106950Y0111202D01*
X0106343Y0111202D02*
X0109377Y0111202D01*
X0109377Y0109382D01*
X0110590Y0112400D02*
X0110590Y0113007D01*
X0106950Y0113007D01*
X0106950Y0112400D02*
X0106950Y0113614D01*
X0107557Y0114817D02*
X0106950Y0115424D01*
X0106950Y0117244D01*
X0109377Y0117244D01*
X0108770Y0118442D02*
X0107557Y0118442D01*
X0106950Y0119049D01*
X0106950Y0120262D01*
X0108163Y0120869D02*
X0108163Y0118442D01*
X0108770Y0118442D02*
X0109377Y0119049D01*
X0109377Y0120262D01*
X0108770Y0120869D01*
X0108163Y0120869D01*
X0107557Y0114817D02*
X0109377Y0114817D01*
X0106343Y0111202D02*
X0105737Y0110595D01*
X0105737Y0109988D01*
X0119368Y0112400D02*
X0119974Y0113007D01*
X0165513Y0133883D02*
X0165513Y0135096D01*
X0165513Y0134490D02*
X0169153Y0134490D01*
X0169153Y0135096D02*
X0169153Y0133883D01*
X0168546Y0136300D02*
X0166120Y0136300D01*
X0165513Y0136906D01*
X0165513Y0138120D01*
X0166120Y0138726D01*
X0165513Y0139925D02*
X0167940Y0142352D01*
X0168546Y0142352D01*
X0169153Y0141745D01*
X0169153Y0140532D01*
X0168546Y0139925D01*
X0168546Y0138726D02*
X0169153Y0138120D01*
X0169153Y0136906D01*
X0168546Y0136300D01*
X0165513Y0139925D02*
X0165513Y0142352D01*
X0136404Y0141690D02*
X0135797Y0141084D01*
X0134584Y0141084D01*
X0133977Y0141690D01*
X0132779Y0141690D02*
X0132172Y0141084D01*
X0130959Y0141084D01*
X0130352Y0141690D01*
X0130352Y0144117D01*
X0130959Y0144724D01*
X0132172Y0144724D01*
X0132779Y0144117D01*
X0132779Y0143510D01*
X0132172Y0142904D01*
X0130352Y0142904D01*
X0133977Y0144117D02*
X0134584Y0144724D01*
X0135797Y0144724D01*
X0136404Y0144117D01*
X0136404Y0141690D01*
X0135844Y0167670D02*
X0133417Y0167670D01*
X0135844Y0167670D02*
X0133417Y0170097D01*
X0133417Y0170704D01*
X0134024Y0171310D01*
X0135237Y0171310D01*
X0135844Y0170704D01*
X0137042Y0170704D02*
X0137042Y0169490D01*
X0137649Y0168883D01*
X0139469Y0168883D01*
X0139469Y0167670D02*
X0139469Y0171310D01*
X0137649Y0171310D01*
X0137042Y0170704D01*
X0138256Y0168883D02*
X0137042Y0167670D01*
X0123008Y0174030D02*
X0122401Y0174030D01*
X0121188Y0174030D02*
X0118761Y0174030D01*
X0118761Y0173423D02*
X0118761Y0174637D01*
X0119368Y0176447D02*
X0118761Y0177054D01*
X0119368Y0176447D02*
X0121794Y0176447D01*
X0121188Y0175840D02*
X0121188Y0177054D01*
X0120581Y0178257D02*
X0121188Y0178864D01*
X0121188Y0180077D01*
X0120581Y0180684D01*
X0118761Y0180684D01*
X0118761Y0178257D02*
X0122401Y0178257D01*
X0115282Y0177660D02*
X0115282Y0176447D01*
X0114676Y0175840D01*
X0113462Y0175840D01*
X0112856Y0176447D01*
X0112856Y0177660D01*
X0113462Y0178267D01*
X0114676Y0178267D01*
X0115282Y0177660D01*
X0115282Y0179465D02*
X0112856Y0179465D01*
X0115282Y0179465D02*
X0115282Y0181285D01*
X0114676Y0181892D01*
X0112856Y0181892D01*
X0113462Y0183090D02*
X0114676Y0183090D01*
X0115282Y0183697D01*
X0115282Y0184910D01*
X0114676Y0185517D01*
X0114069Y0185517D01*
X0114069Y0183090D01*
X0113462Y0183090D02*
X0112856Y0183697D01*
X0112856Y0184910D01*
X0112856Y0174642D02*
X0112856Y0172822D01*
X0113462Y0172215D01*
X0114676Y0172215D01*
X0115282Y0172822D01*
X0115282Y0174642D01*
X0121188Y0174030D02*
X0121188Y0173423D01*
X0121188Y0172225D02*
X0119368Y0172225D01*
X0118761Y0171618D01*
X0119368Y0171012D01*
X0118761Y0170405D01*
X0119368Y0169798D01*
X0121188Y0169798D01*
X0117102Y0170405D02*
X0116496Y0170405D01*
X0115282Y0170405D02*
X0112856Y0170405D01*
X0112856Y0169798D02*
X0112856Y0171012D01*
X0115282Y0170405D02*
X0115282Y0169798D01*
X0172098Y0179316D02*
X0174525Y0179316D01*
X0175723Y0179316D02*
X0176936Y0180529D01*
X0176330Y0179316D02*
X0175723Y0179922D01*
X0175723Y0182349D01*
X0176330Y0182956D01*
X0177543Y0182956D01*
X0178150Y0182349D01*
X0178150Y0179922D01*
X0177543Y0179316D01*
X0176330Y0179316D01*
X0173311Y0179316D02*
X0173311Y0182956D01*
X0174525Y0181742D01*
X0192013Y0180025D02*
X0192620Y0180025D01*
X0195046Y0182452D01*
X0195653Y0182452D01*
X0195653Y0180025D01*
X0195653Y0177613D02*
X0192013Y0177613D01*
X0192013Y0176400D02*
X0192013Y0178826D01*
X0194440Y0176400D02*
X0195653Y0177613D01*
X0195046Y0175201D02*
X0193833Y0175201D01*
X0193226Y0174595D01*
X0193226Y0172775D01*
X0193226Y0173988D02*
X0192013Y0175201D01*
X0192013Y0172775D02*
X0195653Y0172775D01*
X0195653Y0174595D01*
X0195046Y0175201D01*
X0204513Y0175201D02*
X0205726Y0173988D01*
X0205726Y0174595D02*
X0205726Y0172775D01*
X0204513Y0172775D02*
X0208153Y0172775D01*
X0208153Y0174595D01*
X0207546Y0175201D01*
X0206333Y0175201D01*
X0205726Y0174595D01*
X0204513Y0176400D02*
X0204513Y0178826D01*
X0204513Y0177613D02*
X0208153Y0177613D01*
X0206940Y0176400D01*
X0206333Y0180025D02*
X0206333Y0181845D01*
X0205726Y0182452D01*
X0205120Y0182452D01*
X0204513Y0181845D01*
X0204513Y0180632D01*
X0205120Y0180025D01*
X0206333Y0180025D01*
X0207546Y0181238D01*
X0208153Y0182452D01*
X0220450Y0179595D02*
X0220450Y0178382D01*
X0221057Y0177775D01*
X0222270Y0177775D02*
X0222877Y0178988D01*
X0222877Y0179595D01*
X0222270Y0180202D01*
X0221057Y0180202D01*
X0220450Y0179595D01*
X0222270Y0177775D02*
X0224090Y0177775D01*
X0224090Y0180202D01*
X0223483Y0176577D02*
X0222270Y0176577D01*
X0221663Y0175970D01*
X0221663Y0174150D01*
X0220450Y0174150D02*
X0224090Y0174150D01*
X0224090Y0175970D01*
X0223483Y0176577D01*
X0221663Y0175363D02*
X0220450Y0176577D01*
X0252573Y0165475D02*
X0252573Y0163048D01*
X0252573Y0164261D02*
X0256213Y0164261D01*
X0255000Y0163048D01*
X0255607Y0161850D02*
X0256213Y0161243D01*
X0256213Y0160029D01*
X0255607Y0159423D01*
X0253180Y0159423D01*
X0252573Y0160029D01*
X0252573Y0161243D01*
X0253180Y0161850D01*
X0262893Y0149209D02*
X0262893Y0145569D01*
X0264106Y0145569D02*
X0261680Y0145569D01*
X0264106Y0147995D02*
X0262893Y0149209D01*
X0265305Y0149209D02*
X0265305Y0146175D01*
X0265911Y0145569D01*
X0267125Y0145569D01*
X0267731Y0146175D01*
X0267731Y0149209D01*
X0285562Y0143853D02*
X0285562Y0140213D01*
X0286775Y0140213D02*
X0284348Y0140213D01*
X0286775Y0142640D02*
X0285562Y0143853D01*
X0287974Y0143246D02*
X0287974Y0142033D01*
X0288580Y0141426D01*
X0290400Y0141426D01*
X0290400Y0140213D02*
X0290400Y0143853D01*
X0288580Y0143853D01*
X0287974Y0143246D01*
X0289187Y0141426D02*
X0287974Y0140213D01*
X0286828Y0132034D02*
X0286828Y0128394D01*
X0288041Y0128394D02*
X0285615Y0128394D01*
X0284416Y0129001D02*
X0281989Y0131427D01*
X0281989Y0129001D01*
X0282596Y0128394D01*
X0283809Y0128394D01*
X0284416Y0129001D01*
X0284416Y0131427D01*
X0283809Y0132034D01*
X0282596Y0132034D01*
X0281989Y0131427D01*
X0286828Y0132034D02*
X0288041Y0130821D01*
X0289240Y0131427D02*
X0289240Y0130214D01*
X0289846Y0129607D01*
X0291666Y0129607D01*
X0290453Y0129607D02*
X0289240Y0128394D01*
X0291666Y0128394D02*
X0291666Y0132034D01*
X0289846Y0132034D01*
X0289240Y0131427D01*
X0255729Y0130250D02*
X0255729Y0129037D01*
X0255123Y0128430D01*
X0252696Y0128430D01*
X0252089Y0129037D01*
X0252089Y0130250D01*
X0252696Y0130857D01*
X0252089Y0132055D02*
X0254516Y0134482D01*
X0255123Y0134482D01*
X0255729Y0133875D01*
X0255729Y0132662D01*
X0255123Y0132055D01*
X0255123Y0130857D02*
X0255729Y0130250D01*
X0252089Y0132055D02*
X0252089Y0134482D01*
X0207625Y0133188D02*
X0207625Y0130761D01*
X0207018Y0130154D01*
X0205804Y0130154D01*
X0205198Y0130761D01*
X0203999Y0130154D02*
X0201573Y0130154D01*
X0202786Y0130154D02*
X0202786Y0133794D01*
X0203999Y0132581D01*
X0205198Y0133188D02*
X0205804Y0133794D01*
X0207018Y0133794D01*
X0207625Y0133188D01*
X0200374Y0133188D02*
X0200374Y0130761D01*
X0197948Y0133188D01*
X0197948Y0130761D01*
X0198554Y0130154D01*
X0199768Y0130154D01*
X0200374Y0130761D01*
X0200374Y0133188D02*
X0199768Y0133794D01*
X0198554Y0133794D01*
X0197948Y0133188D01*
X0284348Y0168320D02*
X0284955Y0167713D01*
X0286168Y0167713D01*
X0286775Y0168320D01*
X0287974Y0167713D02*
X0289187Y0168926D01*
X0288580Y0168926D02*
X0290400Y0168926D01*
X0290400Y0167713D02*
X0290400Y0171353D01*
X0288580Y0171353D01*
X0287974Y0170746D01*
X0287974Y0169533D01*
X0288580Y0168926D01*
X0286775Y0170746D02*
X0286168Y0171353D01*
X0284955Y0171353D01*
X0284348Y0170746D01*
X0284348Y0170140D01*
X0284955Y0169533D01*
X0284348Y0168926D01*
X0284348Y0168320D01*
X0284955Y0169533D02*
X0285562Y0169533D01*
X0286168Y0188213D02*
X0286775Y0188820D01*
X0286168Y0188213D02*
X0284955Y0188213D01*
X0284348Y0188820D01*
X0284348Y0190033D01*
X0284955Y0190640D01*
X0285562Y0190640D01*
X0286775Y0190033D01*
X0286775Y0191853D01*
X0284348Y0191853D01*
X0287974Y0191246D02*
X0288580Y0191853D01*
X0289794Y0191853D01*
X0290400Y0191246D01*
X0290400Y0188820D01*
X0289794Y0188213D01*
X0288580Y0188213D01*
X0287974Y0188820D01*
X0321702Y0207403D02*
X0324129Y0204976D01*
X0324129Y0204369D01*
X0325327Y0204369D02*
X0326541Y0205583D01*
X0325934Y0205583D02*
X0327754Y0205583D01*
X0327754Y0204369D02*
X0327754Y0208009D01*
X0325934Y0208009D01*
X0325327Y0207403D01*
X0325327Y0206189D01*
X0325934Y0205583D01*
X0324129Y0208009D02*
X0321702Y0208009D01*
X0321702Y0207403D01*
X0323058Y0107588D02*
X0322452Y0106982D01*
X0322452Y0106375D01*
X0323058Y0105768D01*
X0324272Y0105768D01*
X0324878Y0106375D01*
X0324878Y0106982D01*
X0324272Y0107588D01*
X0323058Y0107588D01*
X0323058Y0105768D02*
X0322452Y0105162D01*
X0322452Y0104555D01*
X0323058Y0103948D01*
X0324272Y0103948D01*
X0324878Y0104555D01*
X0324878Y0105162D01*
X0324272Y0105768D01*
X0326077Y0104555D02*
X0326684Y0103948D01*
X0327897Y0103948D01*
X0328504Y0104555D01*
X0328504Y0106982D01*
X0327897Y0107588D01*
X0326684Y0107588D01*
X0326077Y0106982D01*
X0301590Y0090720D02*
X0300983Y0091327D01*
X0300377Y0091327D01*
X0297950Y0088900D01*
X0297950Y0091327D01*
X0301590Y0090720D02*
X0301590Y0089507D01*
X0300983Y0088900D01*
X0301590Y0086488D02*
X0297950Y0086488D01*
X0297950Y0085275D02*
X0297950Y0087702D01*
X0300377Y0085275D02*
X0301590Y0086488D01*
X0300983Y0084077D02*
X0299770Y0084077D01*
X0299163Y0083470D01*
X0299163Y0081650D01*
X0297950Y0081650D02*
X0301590Y0081650D01*
X0301590Y0083470D01*
X0300983Y0084077D01*
X0299163Y0082863D02*
X0297950Y0084077D01*
X0312884Y0083831D02*
X0312884Y0085045D01*
X0313491Y0085651D01*
X0314704Y0086850D02*
X0314704Y0089277D01*
X0312884Y0088670D02*
X0316524Y0088670D01*
X0314704Y0086850D01*
X0315917Y0085651D02*
X0316524Y0085045D01*
X0316524Y0083831D01*
X0315917Y0083225D01*
X0313491Y0083225D01*
X0312884Y0083831D01*
X0315994Y0080229D02*
X0313567Y0077802D01*
X0312960Y0077802D01*
X0313567Y0076604D02*
X0312960Y0075997D01*
X0312960Y0074784D01*
X0313567Y0074177D01*
X0315994Y0074177D01*
X0316600Y0074784D01*
X0316600Y0075997D01*
X0315994Y0076604D01*
X0316600Y0077802D02*
X0316600Y0080229D01*
X0315994Y0080229D01*
X0310150Y0032290D02*
X0308330Y0032290D01*
X0307723Y0031683D01*
X0307723Y0030470D01*
X0308330Y0029863D01*
X0310150Y0029863D01*
X0310150Y0028650D02*
X0310150Y0032290D01*
X0308937Y0029863D02*
X0307723Y0028650D01*
X0306525Y0029257D02*
X0305918Y0028650D01*
X0304705Y0028650D01*
X0304098Y0029257D01*
X0304098Y0031683D01*
X0304705Y0032290D01*
X0305918Y0032290D01*
X0306525Y0031683D01*
X0306525Y0031077D01*
X0305918Y0030470D01*
X0304098Y0030470D01*
D11*
X0349300Y0005000D02*
X0001800Y0005000D01*
X0001800Y0225000D01*
X0349300Y0225000D01*
X0349300Y0005000D01*
X0106800Y0150000D02*
X0101800Y0150000D01*
X0101800Y0145000D01*
X0096800Y0145000D01*
X0096800Y0195000D01*
X0059300Y0195000D01*
X0044300Y0205000D01*
X0059300Y0195000D02*
X0044300Y0185000D01*
X0041800Y0160000D02*
X0051800Y0150000D01*
X0041800Y0140000D01*
X0051800Y0150000D02*
X0074300Y0150000D01*
X0074300Y0157500D01*
X0074300Y0150000D02*
X0074300Y0145000D01*
X0074300Y0125000D01*
X0051800Y0125000D01*
X0051800Y0115000D01*
X0051800Y0105000D01*
X0016800Y0105000D01*
X0046800Y0115000D02*
X0051800Y0115000D01*
X0074300Y0122500D02*
X0074300Y0125000D01*
X0074300Y0145000D02*
X0096800Y0145000D01*
D12*
X0169345Y0165354D02*
X0181156Y0165354D01*
X0177220Y0165748D02*
X0177218Y0165835D01*
X0177212Y0165922D01*
X0177203Y0166009D01*
X0177189Y0166095D01*
X0177172Y0166180D01*
X0177151Y0166265D01*
X0177126Y0166348D01*
X0177098Y0166431D01*
X0177066Y0166512D01*
X0177030Y0166591D01*
X0176991Y0166669D01*
X0176949Y0166745D01*
X0176903Y0166819D01*
X0176854Y0166891D01*
X0176802Y0166961D01*
X0176747Y0167028D01*
X0176689Y0167093D01*
X0176628Y0167156D01*
X0176564Y0167215D01*
X0176498Y0167272D01*
X0176429Y0167325D01*
X0176358Y0167376D01*
X0176285Y0167423D01*
X0176210Y0167468D01*
X0176133Y0167508D01*
X0176055Y0167546D01*
X0175974Y0167579D01*
X0175893Y0167610D01*
X0175810Y0167636D01*
X0175725Y0167659D01*
X0175640Y0167678D01*
X0175555Y0167693D01*
X0175468Y0167705D01*
X0175382Y0167713D01*
X0175295Y0167717D01*
X0175207Y0167717D01*
X0175120Y0167713D01*
X0175034Y0167705D01*
X0174947Y0167693D01*
X0174862Y0167678D01*
X0174777Y0167659D01*
X0174692Y0167636D01*
X0174609Y0167610D01*
X0174528Y0167579D01*
X0174447Y0167546D01*
X0174369Y0167508D01*
X0174292Y0167468D01*
X0174217Y0167423D01*
X0174144Y0167376D01*
X0174073Y0167325D01*
X0174004Y0167272D01*
X0173938Y0167215D01*
X0173874Y0167156D01*
X0173813Y0167093D01*
X0173755Y0167028D01*
X0173700Y0166961D01*
X0173648Y0166891D01*
X0173599Y0166819D01*
X0173553Y0166745D01*
X0173511Y0166669D01*
X0173472Y0166591D01*
X0173436Y0166512D01*
X0173404Y0166431D01*
X0173376Y0166348D01*
X0173351Y0166265D01*
X0173330Y0166180D01*
X0173313Y0166095D01*
X0173299Y0166009D01*
X0173290Y0165922D01*
X0173284Y0165835D01*
X0173282Y0165748D01*
X0169345Y0175196D02*
X0169345Y0186220D01*
X0181156Y0186220D02*
X0181156Y0175196D01*
X0181156Y0196063D02*
X0169345Y0196063D01*
X0257402Y0149119D02*
X0257402Y0145738D01*
X0261945Y0144238D02*
X0264058Y0144238D01*
X0268602Y0145738D02*
X0268602Y0149119D01*
X0310576Y0101879D02*
X0314907Y0101879D01*
X0310576Y0101879D02*
X0309001Y0100304D01*
X0309001Y0094005D01*
X0310576Y0092430D01*
X0314907Y0092430D01*
X0322781Y0092430D02*
X0328687Y0092430D01*
X0328687Y0101879D01*
X0322781Y0101879D01*
D13*
X0317344Y0101154D02*
X0317344Y0093154D01*
D14*
X0180599Y0126201D02*
X0180599Y0153799D01*
X0154398Y0153799D01*
X0153001Y0152402D01*
X0153001Y0126201D01*
X0180599Y0126201D01*
X0154586Y0150800D02*
X0154588Y0150875D01*
X0154594Y0150949D01*
X0154604Y0151023D01*
X0154617Y0151096D01*
X0154635Y0151169D01*
X0154656Y0151240D01*
X0154681Y0151311D01*
X0154710Y0151380D01*
X0154743Y0151447D01*
X0154779Y0151512D01*
X0154818Y0151576D01*
X0154860Y0151637D01*
X0154906Y0151696D01*
X0154955Y0151753D01*
X0155007Y0151806D01*
X0155061Y0151857D01*
X0155118Y0151906D01*
X0155178Y0151950D01*
X0155240Y0151992D01*
X0155304Y0152031D01*
X0155370Y0152066D01*
X0155437Y0152097D01*
X0155507Y0152125D01*
X0155577Y0152149D01*
X0155649Y0152170D01*
X0155722Y0152186D01*
X0155795Y0152199D01*
X0155870Y0152208D01*
X0155944Y0152213D01*
X0156019Y0152214D01*
X0156093Y0152211D01*
X0156168Y0152204D01*
X0156241Y0152193D01*
X0156315Y0152179D01*
X0156387Y0152160D01*
X0156458Y0152138D01*
X0156528Y0152112D01*
X0156597Y0152082D01*
X0156663Y0152049D01*
X0156728Y0152012D01*
X0156791Y0151972D01*
X0156852Y0151928D01*
X0156910Y0151882D01*
X0156966Y0151832D01*
X0157019Y0151780D01*
X0157070Y0151725D01*
X0157117Y0151667D01*
X0157161Y0151607D01*
X0157202Y0151544D01*
X0157240Y0151480D01*
X0157274Y0151414D01*
X0157305Y0151345D01*
X0157332Y0151276D01*
X0157355Y0151205D01*
X0157374Y0151133D01*
X0157390Y0151060D01*
X0157402Y0150986D01*
X0157410Y0150912D01*
X0157414Y0150837D01*
X0157414Y0150763D01*
X0157410Y0150688D01*
X0157402Y0150614D01*
X0157390Y0150540D01*
X0157374Y0150467D01*
X0157355Y0150395D01*
X0157332Y0150324D01*
X0157305Y0150255D01*
X0157274Y0150186D01*
X0157240Y0150120D01*
X0157202Y0150056D01*
X0157161Y0149993D01*
X0157117Y0149933D01*
X0157070Y0149875D01*
X0157019Y0149820D01*
X0156966Y0149768D01*
X0156910Y0149718D01*
X0156852Y0149672D01*
X0156791Y0149628D01*
X0156728Y0149588D01*
X0156663Y0149551D01*
X0156597Y0149518D01*
X0156528Y0149488D01*
X0156458Y0149462D01*
X0156387Y0149440D01*
X0156315Y0149421D01*
X0156241Y0149407D01*
X0156168Y0149396D01*
X0156093Y0149389D01*
X0156019Y0149386D01*
X0155944Y0149387D01*
X0155870Y0149392D01*
X0155795Y0149401D01*
X0155722Y0149414D01*
X0155649Y0149430D01*
X0155577Y0149451D01*
X0155507Y0149475D01*
X0155437Y0149503D01*
X0155370Y0149534D01*
X0155304Y0149569D01*
X0155240Y0149608D01*
X0155178Y0149650D01*
X0155118Y0149694D01*
X0155061Y0149743D01*
X0155007Y0149794D01*
X0154955Y0149847D01*
X0154906Y0149904D01*
X0154860Y0149963D01*
X0154818Y0150024D01*
X0154779Y0150088D01*
X0154743Y0150153D01*
X0154710Y0150220D01*
X0154681Y0150289D01*
X0154656Y0150360D01*
X0154635Y0150431D01*
X0154617Y0150504D01*
X0154604Y0150577D01*
X0154594Y0150651D01*
X0154588Y0150725D01*
X0154586Y0150800D01*
D15*
X0069104Y0079631D02*
X0064500Y0079631D01*
X0064500Y0081165D02*
X0064500Y0078096D01*
X0064500Y0075027D02*
X0069104Y0075027D01*
X0069104Y0076561D02*
X0069104Y0073492D01*
X0067569Y0078096D02*
X0069104Y0079631D01*
X0117800Y0057165D02*
X0117800Y0052835D01*
X0124800Y0052835D02*
X0124800Y0057165D01*
X0125800Y0057165D02*
X0125800Y0052835D01*
D16*
X0070776Y0055591D03*
X0067824Y0055591D03*
D17*
X0069300Y0055591D03*
M02*
