G75*
%MOIN*%
%OFA0B0*%
%FSLAX25Y25*%
%IPPOS*%
%LPD*%
%AMOC8*
5,1,8,0,0,1.08239X$1,22.5*
%
%ADD10C,0.01600*%
%ADD11R,0.03150X0.03150*%
%ADD12R,0.07874X0.05118*%
%ADD13OC8,0.08500*%
%ADD14OC8,0.06600*%
%ADD15C,0.07050*%
%ADD16OC8,0.06000*%
%ADD17C,0.01040*%
%ADD18R,0.05150X0.05150*%
%ADD19C,0.07677*%
%ADD20C,0.03169*%
%ADD21C,0.00800*%
%ADD22C,0.08600*%
D10*
X0001800Y0005000D02*
X0349300Y0005000D01*
X0349300Y0225000D01*
X0001800Y0225000D01*
X0001800Y0005000D01*
X0046800Y0032500D02*
X0047000Y0032200D01*
X0050200Y0032200D01*
X0055000Y0027400D01*
X0068200Y0027400D01*
X0079000Y0016600D01*
X0163400Y0016600D01*
X0171800Y0025000D01*
X0180200Y0033400D01*
X0180200Y0060600D01*
X0174200Y0066600D01*
X0174200Y0115800D01*
X0173800Y0116200D01*
X0173800Y0121400D01*
X0157000Y0138200D01*
X0157000Y0143400D01*
X0162600Y0149000D01*
X0163000Y0148600D01*
X0166600Y0148600D01*
X0168200Y0145400D02*
X0163800Y0145400D01*
X0163400Y0145000D01*
X0163400Y0139400D01*
X0171000Y0131800D01*
X0224200Y0131800D01*
X0228200Y0135800D01*
X0228572Y0136063D01*
X0229400Y0136200D01*
X0238600Y0145400D01*
X0239000Y0145000D01*
X0255400Y0145000D01*
X0258200Y0142200D01*
X0258200Y0129400D01*
X0272600Y0115000D01*
X0277000Y0115000D01*
X0277804Y0115059D01*
X0281400Y0113000D01*
X0301800Y0133400D01*
X0301800Y0141800D01*
X0314600Y0154600D01*
X0318200Y0154600D01*
X0321400Y0157800D01*
X0321400Y0161400D01*
X0326600Y0166600D01*
X0326600Y0169800D01*
X0326800Y0170000D01*
X0333000Y0183400D02*
X0333000Y0091400D01*
X0340600Y0091400D01*
X0340796Y0091437D01*
X0333000Y0091400D02*
X0322200Y0091400D01*
X0321400Y0090600D01*
X0340200Y0067800D02*
X0286200Y0067800D01*
X0282600Y0071400D01*
X0283400Y0072200D01*
X0283400Y0110600D01*
X0282600Y0111400D01*
X0282200Y0111400D01*
X0278600Y0115000D01*
X0277804Y0115059D01*
X0277800Y0115000D01*
X0251000Y0136600D02*
X0243800Y0129400D01*
X0176600Y0129400D01*
X0175400Y0128200D01*
X0174600Y0128200D01*
X0167800Y0118200D02*
X0157800Y0128200D01*
X0168200Y0145400D02*
X0169800Y0147000D01*
X0169800Y0150200D01*
X0135800Y0184200D01*
X0135800Y0215000D01*
X0152200Y0159400D02*
X0162600Y0149000D01*
X0196600Y0155400D02*
X0207400Y0155400D01*
X0225400Y0173400D01*
X0225400Y0173800D01*
X0228572Y0163622D02*
X0228200Y0163400D01*
X0200600Y0135800D01*
X0251000Y0136600D02*
X0255000Y0140600D01*
X0327000Y0189400D02*
X0333000Y0183400D01*
X0327000Y0189400D02*
X0326800Y0190000D01*
X0334600Y0197800D01*
X0334600Y0205800D01*
X0334871Y0206063D01*
X0282600Y0071400D02*
X0279000Y0067800D01*
X0278600Y0067800D01*
X0277804Y0067815D01*
X0277800Y0067800D01*
X0277800Y0060600D01*
X0277804Y0059941D01*
X0277000Y0059800D01*
X0239400Y0059800D01*
X0205000Y0025400D01*
X0202200Y0025400D01*
X0201800Y0025000D01*
X0191800Y0025000D01*
X0173000Y0055000D02*
X0177000Y0059000D01*
X0173000Y0055000D02*
X0099400Y0055000D01*
X0277800Y0059800D02*
X0277804Y0059941D01*
X0340200Y0067800D02*
X0340796Y0067815D01*
X0341000Y0067800D01*
D11*
X0334871Y0206063D03*
X0334871Y0211969D03*
D12*
X0340796Y0115059D03*
X0340796Y0107185D03*
X0340796Y0099311D03*
X0340796Y0091437D03*
X0340796Y0083563D03*
X0340796Y0075689D03*
X0340796Y0067815D03*
X0340796Y0059941D03*
X0277804Y0059941D03*
X0277804Y0067815D03*
X0277804Y0075689D03*
X0277804Y0083563D03*
X0277804Y0091437D03*
X0277804Y0099311D03*
X0277804Y0107185D03*
X0277804Y0115059D03*
D13*
X0341800Y0050000D03*
X0301800Y0215000D03*
D14*
X0281800Y0215000D03*
X0271800Y0215000D03*
X0261800Y0215000D03*
X0251800Y0215000D03*
X0241800Y0215000D03*
X0231800Y0215000D03*
X0221800Y0215000D03*
X0211800Y0215000D03*
X0195800Y0215000D03*
X0185800Y0215000D03*
X0175800Y0215000D03*
X0165800Y0215000D03*
X0155800Y0215000D03*
X0145800Y0215000D03*
X0135800Y0215000D03*
X0125800Y0215000D03*
X0115800Y0215000D03*
X0105800Y0215000D03*
X0141800Y0025000D03*
X0151800Y0025000D03*
X0161800Y0025000D03*
X0171800Y0025000D03*
X0181800Y0025000D03*
X0191800Y0025000D03*
X0201800Y0025000D03*
X0211800Y0025000D03*
X0231800Y0025000D03*
X0241800Y0025000D03*
X0251800Y0025000D03*
X0261800Y0025000D03*
X0271800Y0025000D03*
X0281800Y0025000D03*
D15*
X0035325Y0140157D02*
X0028275Y0140157D01*
X0028275Y0159843D02*
X0035325Y0159843D01*
X0035325Y0185551D02*
X0028275Y0185551D01*
X0028275Y0205236D02*
X0035325Y0205236D01*
D16*
X0046800Y0032500D03*
X0056800Y0032500D03*
X0056800Y0022500D03*
X0046800Y0022500D03*
X0046800Y0012500D03*
X0056800Y0012500D03*
X0316800Y0130000D03*
X0326800Y0130000D03*
X0326800Y0140000D03*
X0316800Y0140000D03*
X0316800Y0150000D03*
X0326800Y0150000D03*
X0326800Y0160000D03*
X0316800Y0160000D03*
X0316800Y0170000D03*
X0326800Y0170000D03*
X0326800Y0180000D03*
X0316800Y0180000D03*
X0316800Y0190000D03*
X0326800Y0190000D03*
D17*
X0329691Y0017457D02*
X0330211Y0016937D01*
X0328489Y0016937D01*
X0327271Y0018155D01*
X0327271Y0019877D01*
X0328489Y0021095D01*
X0330211Y0021095D01*
X0331429Y0019877D01*
X0331429Y0018155D01*
X0330211Y0016937D01*
X0329888Y0017717D01*
X0328812Y0017717D01*
X0328051Y0018478D01*
X0328051Y0019554D01*
X0328812Y0020315D01*
X0329888Y0020315D01*
X0330649Y0019554D01*
X0330649Y0018478D01*
X0329888Y0017717D01*
X0329565Y0018497D01*
X0329135Y0018497D01*
X0328831Y0018801D01*
X0328831Y0019231D01*
X0329135Y0019535D01*
X0329565Y0019535D01*
X0329869Y0019231D01*
X0329869Y0018801D01*
X0329565Y0018497D01*
X0339591Y0017457D02*
X0340111Y0016937D01*
X0338389Y0016937D01*
X0337171Y0018155D01*
X0337171Y0019877D01*
X0338389Y0021095D01*
X0340111Y0021095D01*
X0341329Y0019877D01*
X0341329Y0018155D01*
X0340111Y0016937D01*
X0339788Y0017717D01*
X0338712Y0017717D01*
X0337951Y0018478D01*
X0337951Y0019554D01*
X0338712Y0020315D01*
X0339788Y0020315D01*
X0340549Y0019554D01*
X0340549Y0018478D01*
X0339788Y0017717D01*
X0339465Y0018497D01*
X0339035Y0018497D01*
X0338731Y0018801D01*
X0338731Y0019231D01*
X0339035Y0019535D01*
X0339465Y0019535D01*
X0339769Y0019231D01*
X0339769Y0018801D01*
X0339465Y0018497D01*
D18*
X0228572Y0136063D03*
X0228572Y0163622D03*
X0075028Y0163622D03*
X0075028Y0116378D03*
D19*
X0039300Y0114921D03*
X0009300Y0104921D03*
X0009300Y0054921D03*
X0039300Y0054921D03*
D20*
X0099400Y0055000D03*
X0109000Y0058200D03*
X0132200Y0051800D03*
X0177000Y0059000D03*
X0189000Y0030600D03*
X0177800Y0020200D03*
X0178200Y0014600D03*
X0127800Y0079800D03*
X0115400Y0091400D03*
X0147400Y0091400D03*
X0177400Y0098200D03*
X0166600Y0113000D03*
X0161800Y0117800D03*
X0167800Y0118200D03*
X0173800Y0116200D03*
X0177800Y0118200D03*
X0189400Y0123800D03*
X0192200Y0117000D03*
X0174600Y0128200D03*
X0171000Y0131800D03*
X0178600Y0135000D03*
X0168200Y0142200D03*
X0163400Y0145000D03*
X0166600Y0148600D03*
X0175000Y0149000D03*
X0175000Y0145000D03*
X0160200Y0140200D03*
X0155000Y0135400D03*
X0157800Y0128200D03*
X0145000Y0135800D03*
X0141000Y0134600D03*
X0136600Y0134600D03*
X0145000Y0144200D03*
X0133800Y0145800D03*
X0152200Y0159400D03*
X0149400Y0162600D03*
X0163217Y0165000D03*
X0167233Y0165000D03*
X0163217Y0170000D03*
X0163217Y0175000D03*
X0163217Y0180000D03*
X0163217Y0185000D03*
X0163217Y0190000D03*
X0163217Y0195000D03*
X0163217Y0200000D03*
X0167233Y0200000D03*
X0172233Y0200000D03*
X0177233Y0200000D03*
X0182233Y0200000D03*
X0187233Y0200000D03*
X0187233Y0195000D03*
X0187233Y0190000D03*
X0187233Y0185000D03*
X0187233Y0180000D03*
X0187233Y0175000D03*
X0187233Y0170000D03*
X0187233Y0165000D03*
X0181800Y0165000D03*
X0196600Y0155400D03*
X0217000Y0169800D03*
X0225400Y0173800D03*
X0238600Y0145400D03*
X0251000Y0136600D03*
X0255000Y0140600D03*
X0267000Y0128600D03*
X0271000Y0127800D03*
X0269800Y0122600D03*
X0265800Y0117000D03*
X0271400Y0105000D03*
X0271400Y0097400D03*
X0254600Y0097400D03*
X0271400Y0083800D03*
X0271400Y0079800D03*
X0287800Y0071000D03*
X0290600Y0075800D03*
X0290600Y0079800D03*
X0296200Y0087400D03*
X0321400Y0090600D03*
X0283400Y0119800D03*
X0301000Y0122600D03*
X0280600Y0142200D03*
X0223400Y0126200D03*
X0200600Y0135800D03*
X0181400Y0209800D03*
X0331000Y0215000D03*
D21*
X0333800Y0212200D01*
X0334600Y0212200D01*
X0334871Y0211969D01*
X0322600Y0193000D02*
X0301400Y0214200D01*
X0301800Y0215000D01*
X0297000Y0210200D01*
X0265800Y0210200D01*
X0197800Y0142200D01*
X0168200Y0142200D01*
X0175000Y0145000D02*
X0199800Y0169800D01*
X0217000Y0169800D01*
X0230800Y0172800D02*
X0260200Y0143400D01*
X0260200Y0131400D01*
X0265800Y0125800D01*
X0268200Y0125800D01*
X0270200Y0127800D01*
X0271000Y0127800D01*
X0267000Y0128600D02*
X0280600Y0142200D01*
X0283400Y0136200D02*
X0269800Y0122600D01*
X0267400Y0117000D02*
X0277000Y0107400D01*
X0277800Y0107400D01*
X0277804Y0107185D01*
X0271400Y0105000D02*
X0277000Y0099400D01*
X0277800Y0099400D01*
X0277804Y0099311D01*
X0271400Y0097400D02*
X0277000Y0091800D01*
X0277800Y0091800D01*
X0277804Y0091437D01*
X0277800Y0083800D02*
X0272200Y0083800D01*
X0271400Y0083800D01*
X0272200Y0083800D02*
X0255800Y0100200D01*
X0205000Y0100200D01*
X0189400Y0115800D01*
X0189400Y0123800D01*
X0191000Y0126200D02*
X0190600Y0126600D01*
X0177000Y0126600D01*
X0175800Y0125400D01*
X0173400Y0125400D01*
X0160200Y0138600D01*
X0160200Y0140200D01*
X0155000Y0135400D02*
X0155000Y0107000D01*
X0127800Y0079800D01*
X0115400Y0091400D02*
X0099400Y0091400D01*
X0042600Y0034600D01*
X0042600Y0030600D01*
X0046200Y0027000D01*
X0048600Y0027000D01*
X0052600Y0023000D01*
X0052600Y0016600D01*
X0056600Y0012600D01*
X0056800Y0012500D01*
X0095000Y0053000D02*
X0099000Y0049000D01*
X0134200Y0049000D01*
X0158200Y0025000D01*
X0161800Y0025000D01*
X0177800Y0020200D02*
X0267000Y0020200D01*
X0271800Y0025000D01*
X0281800Y0025000D02*
X0271400Y0014600D01*
X0178200Y0014600D01*
X0189000Y0030600D02*
X0189000Y0055000D01*
X0177400Y0066600D01*
X0177400Y0098200D01*
X0166600Y0110600D02*
X0147400Y0091400D01*
X0145000Y0104600D02*
X0096600Y0056200D01*
X0096600Y0053800D01*
X0098600Y0051800D01*
X0132200Y0051800D01*
X0110200Y0058200D02*
X0109000Y0058200D01*
X0110200Y0058200D02*
X0161800Y0109800D01*
X0161800Y0117800D01*
X0166600Y0113000D02*
X0166600Y0110600D01*
X0177800Y0118200D02*
X0184600Y0118200D01*
X0205400Y0097400D01*
X0254600Y0097400D01*
X0277800Y0083800D02*
X0277804Y0083563D01*
X0273800Y0079800D02*
X0277800Y0075800D01*
X0277804Y0075689D01*
X0273800Y0079800D02*
X0271400Y0079800D01*
X0287800Y0071000D02*
X0287800Y0113400D01*
X0303800Y0129400D01*
X0303800Y0133000D01*
X0316600Y0145800D01*
X0316600Y0149800D01*
X0316800Y0150000D01*
X0321000Y0150200D02*
X0321000Y0112200D01*
X0296200Y0087400D01*
X0290600Y0085800D02*
X0290600Y0079800D01*
X0290600Y0075800D02*
X0322600Y0107800D01*
X0322600Y0141800D01*
X0326600Y0145800D01*
X0326600Y0149800D01*
X0326800Y0150000D01*
X0321000Y0150200D02*
X0326600Y0155800D01*
X0326600Y0159800D01*
X0326800Y0160000D01*
X0316600Y0175800D02*
X0299800Y0159000D01*
X0299800Y0136200D01*
X0283400Y0119800D01*
X0301000Y0122600D02*
X0301000Y0096200D01*
X0290600Y0085800D01*
X0267400Y0117000D02*
X0265800Y0117000D01*
X0192200Y0117000D01*
X0191000Y0126200D02*
X0223400Y0126200D01*
X0193000Y0135000D02*
X0230800Y0172800D01*
X0252200Y0194200D01*
X0318600Y0194200D01*
X0321000Y0191800D01*
X0321000Y0185800D01*
X0326800Y0180000D01*
X0331000Y0181800D02*
X0327000Y0185800D01*
X0325000Y0185800D01*
X0322600Y0188200D01*
X0322600Y0193000D01*
X0316800Y0190000D02*
X0316600Y0189800D01*
X0311000Y0189800D01*
X0283400Y0162200D01*
X0283400Y0136200D01*
X0327000Y0134200D02*
X0327000Y0130200D01*
X0326800Y0130000D01*
X0327000Y0134200D02*
X0331000Y0138200D01*
X0331000Y0181800D01*
X0316800Y0180000D02*
X0316600Y0179800D01*
X0316600Y0175800D01*
X0193000Y0135000D02*
X0178600Y0135000D01*
X0175000Y0149000D02*
X0141000Y0183000D01*
X0141000Y0216200D01*
X0137400Y0219800D01*
X0134200Y0219800D01*
X0131000Y0216600D01*
X0131000Y0213400D01*
X0133800Y0210600D01*
X0133800Y0145800D01*
X0145000Y0144200D02*
X0149400Y0148600D01*
X0149400Y0162600D01*
X0141000Y0134600D02*
X0121000Y0154600D01*
X0121000Y0216600D01*
X0125800Y0221400D01*
X0145800Y0221400D01*
X0150600Y0216600D01*
X0150600Y0213800D01*
X0154600Y0209800D01*
X0181400Y0209800D01*
X0145000Y0135800D02*
X0145000Y0104600D01*
X0136600Y0108600D02*
X0136600Y0134600D01*
X0136600Y0108600D02*
X0095000Y0067000D01*
X0095000Y0053000D01*
D22*
X0340796Y0059941D02*
X0341000Y0059800D01*
X0341000Y0051000D01*
X0341800Y0050200D01*
X0341800Y0050000D01*
M02*
