%
M48
M72
T01C0.0120
T02C0.0197
T03C0.0236
T04C0.0320
T05C0.0400
T06C0.0470
T07C0.1260
%
T01
X10249Y16760
X15569Y16960
X16184Y11885
X10629Y11900
X12799Y17010
X14379Y17010
X12989Y10640
X7319Y4170
T02
X5219Y7805
X6219Y7805
T03
X14344Y4430
X6574Y12290
X5289Y11750
X3258Y9783
X4340Y7805
X3568Y8213
X3568Y9213
T04
X4594Y6930
X5594Y6930
X6594Y6930
X7594Y6930
X8594Y6930
X9594Y6930
X10594Y6930
X11594Y6930
X12594Y6930
X13594Y6930
X14594Y6930
X15594Y6930
X16594Y6930
X17594Y6930
X17594Y9930
X16594Y9930
X15594Y9930
X14594Y9930
X13594Y9930
X12594Y9930
X11594Y9930
X10594Y9930
X9594Y9930
X8594Y9930
X7594Y9930
X6594Y9930
X5594Y9930
X4594Y9930
T05
X18208Y14124
X4719Y1930
X5719Y1930
X9719Y1930
X8719Y1930
X6719Y1930
X7719Y1930
X5469Y17305
X2969Y17305
X11719Y1930
X10719Y1930
X2719Y1930
X3719Y1930
X1219Y6055
X1219Y7055
X1219Y8055
X1219Y9055
X1219Y10055
X1219Y11055
X17594Y3555
X4219Y17305
X4844Y11305
X5969Y11305
X9344Y11305
X8344Y11305
X7344Y11305
X17594Y11180
X7988Y4805
X8988Y4805
X9988Y4805
T06
X14030Y2055
X15408Y2055
T07
X1059Y17340
X18537Y17340
X1069Y1030
X18527Y1030
M30
