G75*
G70*
%OFA0B0*%
%FSLAX24Y24*%
%IPPOS*%
%LPD*%
%AMOC8*
5,1,8,0,0,1.08239X$1,22.5*
%
%ADD10C,0.0000*%
%ADD11R,0.0670X0.0591*%
%ADD12R,0.0434X0.0473*%
%ADD13R,0.0473X0.0434*%
%ADD14C,0.0745*%
%ADD15OC8,0.0890*%
%ADD16C,0.0640*%
%ADD17R,0.0512X0.0257*%
%ADD18C,0.0560*%
%ADD19R,0.0788X0.0552*%
%ADD20R,0.0152X0.0217*%
%ADD21R,0.0713X0.0197*%
%ADD22R,0.0615X0.0827*%
%ADD23R,0.1024X0.0581*%
%ADD24C,0.0050*%
%ADD25C,0.1700*%
D10*
X000219Y000180D02*
X000219Y018176D01*
X019377Y018176D01*
X019382Y018176D02*
X019382Y000180D01*
X019377Y000180D02*
X000219Y000180D01*
D11*
X008344Y016129D03*
X008344Y017231D03*
D12*
X009844Y017515D03*
X009844Y016845D03*
X009844Y016015D03*
X009844Y015345D03*
X007344Y015095D03*
X007344Y015765D03*
X004435Y015715D03*
X004435Y015046D03*
X003295Y011202D03*
X002626Y011202D03*
X002608Y009218D03*
X003277Y009218D03*
X003277Y008218D03*
X002608Y008218D03*
X004135Y003055D03*
X004804Y003055D03*
X011469Y004470D03*
X011469Y005140D03*
X014719Y005140D03*
X014719Y004470D03*
X017594Y005220D03*
X017594Y005890D03*
D13*
X016594Y005890D03*
X016594Y005220D03*
X013304Y008930D03*
X012635Y008930D03*
X011873Y008940D03*
X011204Y008940D03*
X011304Y007907D03*
X010635Y007907D03*
X007719Y003765D03*
X007719Y003095D03*
X003277Y010218D03*
X002608Y010218D03*
X006032Y012845D03*
X006032Y013515D03*
X006969Y013515D03*
X006969Y012845D03*
D14*
X014030Y002408D02*
X014030Y001703D01*
X015408Y001703D02*
X015408Y002408D01*
D15*
X017594Y003555D03*
X009988Y004805D03*
X008988Y004805D03*
X007988Y004805D03*
X008344Y011305D03*
X007344Y011305D03*
X005969Y011305D03*
X004844Y011305D03*
X009344Y011305D03*
X005469Y017305D03*
X004219Y017305D03*
X002969Y017305D03*
X017594Y011180D03*
X018208Y014124D03*
D16*
X011719Y002230D02*
X011719Y001630D01*
X010719Y001630D02*
X010719Y002230D01*
X009719Y002230D02*
X009719Y001630D01*
X008719Y001630D02*
X008719Y002230D01*
X007719Y002230D02*
X007719Y001630D01*
X006719Y001630D02*
X006719Y002230D01*
X005719Y002230D02*
X005719Y001630D01*
X004719Y001630D02*
X004719Y002230D01*
X003719Y002230D02*
X003719Y001630D01*
X002719Y001630D02*
X002719Y002230D01*
X001519Y006055D02*
X000919Y006055D01*
X000919Y007055D02*
X001519Y007055D01*
X001519Y008055D02*
X000919Y008055D01*
X000919Y009055D02*
X001519Y009055D01*
X001519Y010055D02*
X000919Y010055D01*
X000919Y011055D02*
X001519Y011055D01*
D17*
X005333Y014806D03*
X005333Y015180D03*
X005333Y015554D03*
X006356Y015554D03*
X006356Y014806D03*
D18*
X006594Y010190D02*
X006594Y009670D01*
X005594Y009670D02*
X005594Y010190D01*
X004594Y010190D02*
X004594Y009670D01*
X004594Y007190D02*
X004594Y006670D01*
X005594Y006670D02*
X005594Y007190D01*
X006594Y007190D02*
X006594Y006670D01*
X007594Y006670D02*
X007594Y007190D01*
X008594Y007190D02*
X008594Y006670D01*
X009594Y006670D02*
X009594Y007190D01*
X010594Y007190D02*
X010594Y006670D01*
X011594Y006670D02*
X011594Y007190D01*
X012594Y007190D02*
X012594Y006670D01*
X013594Y006670D02*
X013594Y007190D01*
X014594Y007190D02*
X014594Y006670D01*
X015594Y006670D02*
X015594Y007190D01*
X016594Y007190D02*
X016594Y006670D01*
X017594Y006670D02*
X017594Y007190D01*
X017594Y009670D02*
X017594Y010190D01*
X016594Y010190D02*
X016594Y009670D01*
X015594Y009670D02*
X015594Y010190D01*
X014594Y010190D02*
X014594Y009670D01*
X013594Y009670D02*
X013594Y010190D01*
X012594Y010190D02*
X012594Y009670D01*
X011594Y009670D02*
X011594Y010190D01*
X010594Y010190D02*
X010594Y009670D01*
X009594Y009670D02*
X009594Y010190D01*
X008594Y010190D02*
X008594Y009670D01*
X007594Y009670D02*
X007594Y010190D01*
D19*
X012464Y005763D03*
X013724Y005763D03*
X013724Y003597D03*
X012464Y003597D03*
D20*
X005291Y012904D03*
X005094Y012904D03*
X004898Y012904D03*
X004898Y013456D03*
X005094Y013456D03*
X005291Y013456D03*
D21*
X003137Y013744D03*
X003137Y014000D03*
X003137Y014256D03*
X003137Y014512D03*
X003137Y014768D03*
D22*
X003188Y015398D03*
X003188Y013114D03*
D23*
X001050Y013887D03*
X001050Y014625D03*
D24*
X001519Y015036D02*
X002826Y015036D01*
X002826Y015800D01*
X001806Y015800D01*
X001806Y016162D01*
X000680Y016162D01*
X000680Y015465D01*
X001519Y015465D01*
X001519Y015036D01*
X001519Y013468D02*
X002826Y013468D01*
X002826Y012705D01*
X001806Y012705D01*
X001806Y012342D01*
X000680Y012342D01*
X000680Y013039D01*
X001519Y013039D01*
X001519Y013468D01*
D25*
X001059Y017340D03*
X001069Y001030D03*
X018527Y001030D03*
X018537Y017340D03*
M02*
