G75*
G70*
%OFA0B0*%
%FSLAX24Y24*%
%IPPOS*%
%LPD*%
%AMOC8*
5,1,8,0,0,1.08239X$1,22.5*
%
%ADD10C,0.0000*%
%ADD11C,0.0745*%
%ADD12R,0.0552X0.0827*%
%ADD13OC8,0.0890*%
%ADD14C,0.0640*%
%ADD15C,0.0560*%
%ADD16R,0.0670X0.0500*%
%ADD17R,0.0720X0.0060*%
%ADD18C,0.1700*%
D10*
X000219Y000180D02*
X000219Y018176D01*
X019377Y018176D01*
X019382Y018176D02*
X019382Y000180D01*
X019377Y000180D02*
X000219Y000180D01*
D11*
X014030Y001703D02*
X014030Y002408D01*
X015408Y002408D02*
X015408Y001703D01*
D12*
X015563Y011260D03*
X016350Y011260D03*
X014775Y011260D03*
X013988Y011260D03*
X013201Y011260D03*
X012413Y011260D03*
X011626Y011260D03*
X010838Y011260D03*
X010838Y017560D03*
X011626Y017560D03*
X012413Y017560D03*
X013201Y017560D03*
X013988Y017560D03*
X014775Y017560D03*
X015563Y017560D03*
X016350Y017560D03*
D13*
X018208Y014124D03*
X017594Y011180D03*
X009988Y004805D03*
X008988Y004805D03*
X007988Y004805D03*
X008344Y011305D03*
X007344Y011305D03*
X005969Y011305D03*
X004844Y011305D03*
X009344Y011305D03*
X005469Y017305D03*
X004219Y017305D03*
X002969Y017305D03*
X017594Y003555D03*
D14*
X011719Y002230D02*
X011719Y001630D01*
X010719Y001630D02*
X010719Y002230D01*
X009719Y002230D02*
X009719Y001630D01*
X008719Y001630D02*
X008719Y002230D01*
X007719Y002230D02*
X007719Y001630D01*
X006719Y001630D02*
X006719Y002230D01*
X005719Y002230D02*
X005719Y001630D01*
X004719Y001630D02*
X004719Y002230D01*
X003719Y002230D02*
X003719Y001630D01*
X002719Y001630D02*
X002719Y002230D01*
X001519Y006055D02*
X000919Y006055D01*
X000919Y007055D02*
X001519Y007055D01*
X001519Y008055D02*
X000919Y008055D01*
X000919Y009055D02*
X001519Y009055D01*
X001519Y010055D02*
X000919Y010055D01*
X000919Y011055D02*
X001519Y011055D01*
D15*
X004594Y010190D02*
X004594Y009670D01*
X005594Y009670D02*
X005594Y010190D01*
X006594Y010190D02*
X006594Y009670D01*
X007594Y009670D02*
X007594Y010190D01*
X008594Y010190D02*
X008594Y009670D01*
X009594Y009670D02*
X009594Y010190D01*
X010594Y010190D02*
X010594Y009670D01*
X011594Y009670D02*
X011594Y010190D01*
X012594Y010190D02*
X012594Y009670D01*
X013594Y009670D02*
X013594Y010190D01*
X014594Y010190D02*
X014594Y009670D01*
X015594Y009670D02*
X015594Y010190D01*
X016594Y010190D02*
X016594Y009670D01*
X017594Y009670D02*
X017594Y010190D01*
X017594Y007190D02*
X017594Y006670D01*
X016594Y006670D02*
X016594Y007190D01*
X015594Y007190D02*
X015594Y006670D01*
X014594Y006670D02*
X014594Y007190D01*
X013594Y007190D02*
X013594Y006670D01*
X012594Y006670D02*
X012594Y007190D01*
X011594Y007190D02*
X011594Y006670D01*
X010594Y006670D02*
X010594Y007190D01*
X009594Y007190D02*
X009594Y006670D01*
X008594Y006670D02*
X008594Y007190D01*
X007594Y007190D02*
X007594Y006670D01*
X006594Y006670D02*
X006594Y007190D01*
X005594Y007190D02*
X005594Y006670D01*
X004594Y006670D02*
X004594Y007190D01*
D16*
X006451Y005088D03*
X006451Y004488D03*
D17*
X006451Y004788D03*
D18*
X001069Y001030D03*
X001059Y017340D03*
X018537Y017340D03*
X018527Y001030D03*
M02*
