G75*
%MOIN*%
%OFA0B0*%
%FSLAX24Y24*%
%IPPOS*%
%LPD*%
%AMOC8*
5,1,8,0,0,1.08239X$1,22.5*
%
%ADD10C,0.0000*%
%ADD11R,0.0591X0.0670*%
%ADD12R,0.0434X0.0473*%
%ADD13R,0.0473X0.0434*%
%ADD14R,0.0827X0.0552*%
%ADD15OC8,0.0890*%
%ADD16R,0.0512X0.0257*%
%ADD17C,0.0560*%
%ADD18R,0.0552X0.0788*%
%ADD19R,0.0152X0.0316*%
%ADD20R,0.0713X0.0197*%
%ADD21R,0.0615X0.0827*%
%ADD22R,0.1024X0.0581*%
%ADD23C,0.0050*%
%ADD24C,0.0600*%
%ADD25C,0.0112*%
%ADD26OC8,0.0700*%
%ADD27OC8,0.0740*%
%ADD28C,0.0925*%
%ADD29C,0.0700*%
%ADD30R,0.1142X0.1142*%
%ADD31C,0.0640*%
%ADD32C,0.0690*%
%ADD33C,0.0473*%
%ADD34C,0.1700*%
D10*
X000350Y000350D02*
X000350Y020035D01*
X020035Y020035D01*
X020035Y000350D01*
X000350Y000350D01*
X001267Y008344D02*
X001269Y008373D01*
X001275Y008401D01*
X001284Y008429D01*
X001297Y008455D01*
X001314Y008478D01*
X001333Y008500D01*
X001355Y008519D01*
X001380Y008534D01*
X001406Y008547D01*
X001434Y008555D01*
X001462Y008560D01*
X001491Y008561D01*
X001520Y008558D01*
X001548Y008551D01*
X001575Y008541D01*
X001601Y008527D01*
X001624Y008510D01*
X001645Y008490D01*
X001663Y008467D01*
X001678Y008442D01*
X001689Y008415D01*
X001697Y008387D01*
X001701Y008358D01*
X001701Y008330D01*
X001697Y008301D01*
X001689Y008273D01*
X001678Y008246D01*
X001663Y008221D01*
X001645Y008198D01*
X001624Y008178D01*
X001601Y008161D01*
X001575Y008147D01*
X001548Y008137D01*
X001520Y008130D01*
X001491Y008127D01*
X001462Y008128D01*
X001434Y008133D01*
X001406Y008141D01*
X001380Y008154D01*
X001355Y008169D01*
X001333Y008188D01*
X001314Y008210D01*
X001297Y008233D01*
X001284Y008259D01*
X001275Y008287D01*
X001269Y008315D01*
X001267Y008344D01*
X001267Y009344D02*
X001269Y009373D01*
X001275Y009401D01*
X001284Y009429D01*
X001297Y009455D01*
X001314Y009478D01*
X001333Y009500D01*
X001355Y009519D01*
X001380Y009534D01*
X001406Y009547D01*
X001434Y009555D01*
X001462Y009560D01*
X001491Y009561D01*
X001520Y009558D01*
X001548Y009551D01*
X001575Y009541D01*
X001601Y009527D01*
X001624Y009510D01*
X001645Y009490D01*
X001663Y009467D01*
X001678Y009442D01*
X001689Y009415D01*
X001697Y009387D01*
X001701Y009358D01*
X001701Y009330D01*
X001697Y009301D01*
X001689Y009273D01*
X001678Y009246D01*
X001663Y009221D01*
X001645Y009198D01*
X001624Y009178D01*
X001601Y009161D01*
X001575Y009147D01*
X001548Y009137D01*
X001520Y009130D01*
X001491Y009127D01*
X001462Y009128D01*
X001434Y009133D01*
X001406Y009141D01*
X001380Y009154D01*
X001355Y009169D01*
X001333Y009188D01*
X001314Y009210D01*
X001297Y009233D01*
X001284Y009259D01*
X001275Y009287D01*
X001269Y009315D01*
X001267Y009344D01*
X001259Y010670D02*
X001261Y010699D01*
X001267Y010727D01*
X001276Y010755D01*
X001289Y010781D01*
X001306Y010804D01*
X001325Y010826D01*
X001347Y010845D01*
X001372Y010860D01*
X001398Y010873D01*
X001426Y010881D01*
X001454Y010886D01*
X001483Y010887D01*
X001512Y010884D01*
X001540Y010877D01*
X001567Y010867D01*
X001593Y010853D01*
X001616Y010836D01*
X001637Y010816D01*
X001655Y010793D01*
X001670Y010768D01*
X001681Y010741D01*
X001689Y010713D01*
X001693Y010684D01*
X001693Y010656D01*
X001689Y010627D01*
X001681Y010599D01*
X001670Y010572D01*
X001655Y010547D01*
X001637Y010524D01*
X001616Y010504D01*
X001593Y010487D01*
X001567Y010473D01*
X001540Y010463D01*
X001512Y010456D01*
X001483Y010453D01*
X001454Y010454D01*
X001426Y010459D01*
X001398Y010467D01*
X001372Y010480D01*
X001347Y010495D01*
X001325Y010514D01*
X001306Y010536D01*
X001289Y010559D01*
X001276Y010585D01*
X001267Y010613D01*
X001261Y010641D01*
X001259Y010670D01*
X001259Y011670D02*
X001261Y011699D01*
X001267Y011727D01*
X001276Y011755D01*
X001289Y011781D01*
X001306Y011804D01*
X001325Y011826D01*
X001347Y011845D01*
X001372Y011860D01*
X001398Y011873D01*
X001426Y011881D01*
X001454Y011886D01*
X001483Y011887D01*
X001512Y011884D01*
X001540Y011877D01*
X001567Y011867D01*
X001593Y011853D01*
X001616Y011836D01*
X001637Y011816D01*
X001655Y011793D01*
X001670Y011768D01*
X001681Y011741D01*
X001689Y011713D01*
X001693Y011684D01*
X001693Y011656D01*
X001689Y011627D01*
X001681Y011599D01*
X001670Y011572D01*
X001655Y011547D01*
X001637Y011524D01*
X001616Y011504D01*
X001593Y011487D01*
X001567Y011473D01*
X001540Y011463D01*
X001512Y011456D01*
X001483Y011453D01*
X001454Y011454D01*
X001426Y011459D01*
X001398Y011467D01*
X001372Y011480D01*
X001347Y011495D01*
X001325Y011514D01*
X001306Y011536D01*
X001289Y011559D01*
X001276Y011585D01*
X001267Y011613D01*
X001261Y011641D01*
X001259Y011670D01*
D11*
X010602Y011851D03*
X011705Y011851D03*
D12*
X013332Y011590D03*
X013332Y012259D03*
X014980Y012209D03*
X014980Y011540D03*
X008032Y012093D03*
X008032Y012762D03*
X005179Y012786D03*
X005179Y012117D03*
X006605Y007505D03*
X007274Y007505D03*
X006789Y018089D03*
X006789Y018758D03*
X003814Y018758D03*
X003814Y018089D03*
D13*
X004812Y018089D03*
X004812Y018758D03*
X005812Y018758D03*
X005812Y018089D03*
X007787Y018089D03*
X007787Y018758D03*
X008807Y018758D03*
X008807Y018089D03*
X015613Y010319D03*
X015613Y009650D03*
X013327Y006585D03*
X013327Y005916D03*
X011372Y003824D03*
X010703Y003824D03*
X009905Y002795D03*
X009236Y002795D03*
X008277Y002805D03*
X007608Y002805D03*
X002910Y006453D03*
X002910Y007122D03*
X002049Y007097D03*
X002049Y006428D03*
D14*
X009959Y013051D03*
X009959Y013838D03*
X009959Y014626D03*
X009959Y015413D03*
X009959Y016201D03*
X009959Y016988D03*
X009959Y017775D03*
X009959Y018563D03*
X016259Y018563D03*
X016259Y017775D03*
X016259Y016988D03*
X016259Y016201D03*
X016259Y015413D03*
X016259Y014626D03*
X016259Y013838D03*
X016259Y013051D03*
D15*
X017168Y018666D03*
X005350Y010143D03*
X007280Y009422D03*
X014277Y006729D03*
D16*
X007119Y012096D03*
X007119Y012844D03*
X006095Y012844D03*
X006095Y012470D03*
X006095Y012096D03*
D17*
X006317Y005065D02*
X006317Y004545D01*
X005317Y004545D02*
X005317Y005065D01*
X004317Y005065D02*
X004317Y004545D01*
X003317Y004545D02*
X003317Y005065D01*
X007317Y005065D02*
X007317Y004545D01*
X008317Y004545D02*
X008317Y005065D01*
X009317Y005065D02*
X009317Y004545D01*
X010317Y004545D02*
X010317Y005065D01*
X011317Y005065D02*
X011317Y004545D01*
X012317Y004545D02*
X012317Y005065D01*
X013317Y005065D02*
X013317Y004545D01*
X014317Y004545D02*
X014317Y005065D01*
X015317Y005065D02*
X015317Y004545D01*
X016317Y004545D02*
X016317Y005065D01*
X016317Y002065D02*
X016317Y001545D01*
X015317Y001545D02*
X015317Y002065D01*
X014317Y002065D02*
X014317Y001545D01*
X013317Y001545D02*
X013317Y002065D01*
X012317Y002065D02*
X012317Y001545D01*
X011317Y001545D02*
X011317Y002065D01*
X010317Y002065D02*
X010317Y001545D01*
X009317Y001545D02*
X009317Y002065D01*
X008317Y002065D02*
X008317Y001545D01*
X007317Y001545D02*
X007317Y002065D01*
X006317Y002065D02*
X006317Y001545D01*
X005317Y001545D02*
X005317Y002065D01*
X004317Y002065D02*
X004317Y001545D01*
X003317Y001545D02*
X003317Y002065D01*
D18*
X008549Y006375D03*
X008549Y007635D03*
X010714Y007635D03*
X010714Y006375D03*
D19*
X002401Y005134D03*
X002204Y005134D03*
X002007Y005134D03*
X002007Y004484D03*
X002204Y004484D03*
X002401Y004484D03*
D20*
X002598Y014382D03*
X002598Y014638D03*
X002598Y014894D03*
X002598Y015150D03*
X002598Y015406D03*
D21*
X002649Y016036D03*
X002649Y013752D03*
D22*
X001011Y014525D03*
X001011Y015263D03*
D23*
X000980Y015675D02*
X002287Y015675D01*
X002287Y016688D01*
X001267Y016688D01*
X001271Y016688D01*
X000440Y016688D01*
X000437Y016104D01*
X000980Y016104D01*
X000980Y015675D01*
X000980Y014107D02*
X002287Y014107D01*
X002287Y013093D01*
X001267Y013093D01*
X001267Y013092D01*
X000437Y013092D01*
X000437Y013677D01*
X000980Y013677D01*
X000980Y014107D01*
D24*
X004021Y014350D02*
X004021Y013790D01*
X005021Y013790D02*
X005021Y014350D01*
X006916Y014343D02*
X006916Y013783D01*
X007916Y013783D02*
X007916Y014343D01*
D25*
X004986Y007069D02*
X004930Y007013D01*
X004930Y007199D01*
X005060Y007329D01*
X005246Y007329D01*
X005376Y007199D01*
X005376Y007013D01*
X005246Y006883D01*
X005060Y006883D01*
X004930Y007013D01*
X005014Y007048D01*
X005014Y007164D01*
X005095Y007245D01*
X005211Y007245D01*
X005292Y007164D01*
X005292Y007048D01*
X005211Y006967D01*
X005095Y006967D01*
X005014Y007048D01*
X005098Y007083D01*
X005098Y007129D01*
X005130Y007161D01*
X005176Y007161D01*
X005208Y007129D01*
X005208Y007083D01*
X005176Y007051D01*
X005130Y007051D01*
X005098Y007083D01*
X004986Y006079D02*
X004930Y006023D01*
X004930Y006209D01*
X005060Y006339D01*
X005246Y006339D01*
X005376Y006209D01*
X005376Y006023D01*
X005246Y005893D01*
X005060Y005893D01*
X004930Y006023D01*
X005014Y006058D01*
X005014Y006174D01*
X005095Y006255D01*
X005211Y006255D01*
X005292Y006174D01*
X005292Y006058D01*
X005211Y005977D01*
X005095Y005977D01*
X005014Y006058D01*
X005098Y006093D01*
X005098Y006139D01*
X005130Y006171D01*
X005176Y006171D01*
X005208Y006139D01*
X005208Y006093D01*
X005176Y006061D01*
X005130Y006061D01*
X005098Y006093D01*
D26*
X017763Y012502D03*
X018763Y012502D03*
D27*
X018753Y014814D03*
X018753Y016594D03*
X018753Y005571D03*
X018753Y003791D03*
D28*
X017773Y003301D03*
X017773Y006061D03*
X017773Y014324D03*
X017773Y017084D03*
D29*
X018568Y009996D03*
X018568Y009011D03*
X018568Y008027D03*
D30*
X017268Y007397D03*
X017268Y010626D03*
D31*
X008804Y015289D02*
X008804Y015889D01*
X007804Y015889D02*
X007804Y015289D01*
X006804Y015289D02*
X006804Y015889D01*
X005804Y015889D02*
X005804Y015289D01*
X004804Y015289D02*
X004804Y015889D01*
X003804Y015889D02*
X003804Y015289D01*
D32*
X002801Y011670D02*
X002151Y011670D01*
X002151Y010670D02*
X002801Y010670D01*
X002809Y009344D02*
X002160Y009344D01*
X002160Y008344D02*
X002809Y008344D01*
D33*
X001484Y008344D03*
X001484Y009344D03*
X001476Y010670D03*
X001476Y011670D03*
D34*
X001201Y019175D03*
X019182Y019177D03*
X019179Y001212D03*
X001200Y001200D03*
M02*
