G75*
%MOIN*%
%OFA0B0*%
%FSLAX24Y24*%
%IPPOS*%
%LPD*%
%AMOC8*
5,1,8,0,0,1.08239X$1,22.5*
%
%ADD10C,0.0000*%
%ADD11C,0.0060*%
%ADD12C,0.0006*%
%ADD13C,0.0010*%
%ADD14C,0.0050*%
%ADD15C,0.0020*%
D10*
X000147Y000177D02*
X000147Y013680D01*
X007730Y013680D01*
X007730Y000177D01*
X000147Y000177D01*
X002523Y001002D02*
X002525Y001050D01*
X002531Y001098D01*
X002541Y001145D01*
X002554Y001191D01*
X002572Y001236D01*
X002592Y001280D01*
X002617Y001322D01*
X002645Y001361D01*
X002675Y001398D01*
X002709Y001432D01*
X002746Y001464D01*
X002784Y001493D01*
X002825Y001518D01*
X002868Y001540D01*
X002913Y001558D01*
X002959Y001572D01*
X003006Y001583D01*
X003054Y001590D01*
X003102Y001593D01*
X003150Y001592D01*
X003198Y001587D01*
X003246Y001578D01*
X003292Y001566D01*
X003337Y001549D01*
X003381Y001529D01*
X003423Y001506D01*
X003463Y001479D01*
X003501Y001449D01*
X003536Y001416D01*
X003568Y001380D01*
X003598Y001342D01*
X003624Y001301D01*
X003646Y001258D01*
X003666Y001214D01*
X003681Y001169D01*
X003693Y001122D01*
X003701Y001074D01*
X003705Y001026D01*
X003705Y000978D01*
X003701Y000930D01*
X003693Y000882D01*
X003681Y000835D01*
X003666Y000790D01*
X003646Y000746D01*
X003624Y000703D01*
X003598Y000662D01*
X003568Y000624D01*
X003536Y000588D01*
X003501Y000555D01*
X003463Y000525D01*
X003423Y000498D01*
X003381Y000475D01*
X003337Y000455D01*
X003292Y000438D01*
X003246Y000426D01*
X003198Y000417D01*
X003150Y000412D01*
X003102Y000411D01*
X003054Y000414D01*
X003006Y000421D01*
X002959Y000432D01*
X002913Y000446D01*
X002868Y000464D01*
X002825Y000486D01*
X002784Y000511D01*
X002746Y000540D01*
X002709Y000572D01*
X002675Y000606D01*
X002645Y000643D01*
X002617Y000682D01*
X002592Y000724D01*
X002572Y000768D01*
X002554Y000813D01*
X002541Y000859D01*
X002531Y000906D01*
X002525Y000954D01*
X002523Y001002D01*
X006335Y001002D02*
X006337Y001050D01*
X006343Y001098D01*
X006353Y001145D01*
X006366Y001191D01*
X006384Y001236D01*
X006404Y001280D01*
X006429Y001322D01*
X006457Y001361D01*
X006487Y001398D01*
X006521Y001432D01*
X006558Y001464D01*
X006596Y001493D01*
X006637Y001518D01*
X006680Y001540D01*
X006725Y001558D01*
X006771Y001572D01*
X006818Y001583D01*
X006866Y001590D01*
X006914Y001593D01*
X006962Y001592D01*
X007010Y001587D01*
X007058Y001578D01*
X007104Y001566D01*
X007149Y001549D01*
X007193Y001529D01*
X007235Y001506D01*
X007275Y001479D01*
X007313Y001449D01*
X007348Y001416D01*
X007380Y001380D01*
X007410Y001342D01*
X007436Y001301D01*
X007458Y001258D01*
X007478Y001214D01*
X007493Y001169D01*
X007505Y001122D01*
X007513Y001074D01*
X007517Y001026D01*
X007517Y000978D01*
X007513Y000930D01*
X007505Y000882D01*
X007493Y000835D01*
X007478Y000790D01*
X007458Y000746D01*
X007436Y000703D01*
X007410Y000662D01*
X007380Y000624D01*
X007348Y000588D01*
X007313Y000555D01*
X007275Y000525D01*
X007235Y000498D01*
X007193Y000475D01*
X007149Y000455D01*
X007104Y000438D01*
X007058Y000426D01*
X007010Y000417D01*
X006962Y000412D01*
X006914Y000411D01*
X006866Y000414D01*
X006818Y000421D01*
X006771Y000432D01*
X006725Y000446D01*
X006680Y000464D01*
X006637Y000486D01*
X006596Y000511D01*
X006558Y000540D01*
X006521Y000572D01*
X006487Y000606D01*
X006457Y000643D01*
X006429Y000682D01*
X006404Y000724D01*
X006384Y000768D01*
X006366Y000813D01*
X006353Y000859D01*
X006343Y000906D01*
X006337Y000954D01*
X006335Y001002D01*
X006335Y012893D02*
X006337Y012941D01*
X006343Y012989D01*
X006353Y013036D01*
X006366Y013082D01*
X006384Y013127D01*
X006404Y013171D01*
X006429Y013213D01*
X006457Y013252D01*
X006487Y013289D01*
X006521Y013323D01*
X006558Y013355D01*
X006596Y013384D01*
X006637Y013409D01*
X006680Y013431D01*
X006725Y013449D01*
X006771Y013463D01*
X006818Y013474D01*
X006866Y013481D01*
X006914Y013484D01*
X006962Y013483D01*
X007010Y013478D01*
X007058Y013469D01*
X007104Y013457D01*
X007149Y013440D01*
X007193Y013420D01*
X007235Y013397D01*
X007275Y013370D01*
X007313Y013340D01*
X007348Y013307D01*
X007380Y013271D01*
X007410Y013233D01*
X007436Y013192D01*
X007458Y013149D01*
X007478Y013105D01*
X007493Y013060D01*
X007505Y013013D01*
X007513Y012965D01*
X007517Y012917D01*
X007517Y012869D01*
X007513Y012821D01*
X007505Y012773D01*
X007493Y012726D01*
X007478Y012681D01*
X007458Y012637D01*
X007436Y012594D01*
X007410Y012553D01*
X007380Y012515D01*
X007348Y012479D01*
X007313Y012446D01*
X007275Y012416D01*
X007235Y012389D01*
X007193Y012366D01*
X007149Y012346D01*
X007104Y012329D01*
X007058Y012317D01*
X007010Y012308D01*
X006962Y012303D01*
X006914Y012302D01*
X006866Y012305D01*
X006818Y012312D01*
X006771Y012323D01*
X006725Y012337D01*
X006680Y012355D01*
X006637Y012377D01*
X006596Y012402D01*
X006558Y012431D01*
X006521Y012463D01*
X006487Y012497D01*
X006457Y012534D01*
X006429Y012573D01*
X006404Y012615D01*
X006384Y012659D01*
X006366Y012704D01*
X006353Y012750D01*
X006343Y012797D01*
X006337Y012845D01*
X006335Y012893D01*
X002523Y012893D02*
X002525Y012941D01*
X002531Y012989D01*
X002541Y013036D01*
X002554Y013082D01*
X002572Y013127D01*
X002592Y013171D01*
X002617Y013213D01*
X002645Y013252D01*
X002675Y013289D01*
X002709Y013323D01*
X002746Y013355D01*
X002784Y013384D01*
X002825Y013409D01*
X002868Y013431D01*
X002913Y013449D01*
X002959Y013463D01*
X003006Y013474D01*
X003054Y013481D01*
X003102Y013484D01*
X003150Y013483D01*
X003198Y013478D01*
X003246Y013469D01*
X003292Y013457D01*
X003337Y013440D01*
X003381Y013420D01*
X003423Y013397D01*
X003463Y013370D01*
X003501Y013340D01*
X003536Y013307D01*
X003568Y013271D01*
X003598Y013233D01*
X003624Y013192D01*
X003646Y013149D01*
X003666Y013105D01*
X003681Y013060D01*
X003693Y013013D01*
X003701Y012965D01*
X003705Y012917D01*
X003705Y012869D01*
X003701Y012821D01*
X003693Y012773D01*
X003681Y012726D01*
X003666Y012681D01*
X003646Y012637D01*
X003624Y012594D01*
X003598Y012553D01*
X003568Y012515D01*
X003536Y012479D01*
X003501Y012446D01*
X003463Y012416D01*
X003423Y012389D01*
X003381Y012366D01*
X003337Y012346D01*
X003292Y012329D01*
X003246Y012317D01*
X003198Y012308D01*
X003150Y012303D01*
X003102Y012302D01*
X003054Y012305D01*
X003006Y012312D01*
X002959Y012323D01*
X002913Y012337D01*
X002868Y012355D01*
X002825Y012377D01*
X002784Y012402D01*
X002746Y012431D01*
X002709Y012463D01*
X002675Y012497D01*
X002645Y012534D01*
X002617Y012573D01*
X002592Y012615D01*
X002572Y012659D01*
X002554Y012704D01*
X002541Y012750D01*
X002531Y012797D01*
X002525Y012845D01*
X002523Y012893D01*
D11*
X004472Y009527D02*
X004672Y009527D01*
X005147Y009527D01*
X005322Y009527D01*
X005497Y009127D02*
X005497Y009077D01*
X005547Y009077D01*
X005547Y008777D01*
X005497Y008777D01*
X005497Y008727D01*
X005322Y008327D02*
X005147Y008327D01*
X004647Y008327D01*
X004472Y008327D01*
X004297Y008727D02*
X004297Y008777D01*
X004382Y008777D01*
X004382Y009077D01*
X004297Y009077D01*
X004297Y009127D01*
X004847Y008927D02*
X004849Y008940D01*
X004854Y008953D01*
X004863Y008964D01*
X004874Y008971D01*
X004887Y008976D01*
X004900Y008977D01*
X004914Y008974D01*
X004926Y008968D01*
X004936Y008959D01*
X004943Y008947D01*
X004947Y008934D01*
X004947Y008920D01*
X004943Y008907D01*
X004936Y008895D01*
X004926Y008886D01*
X004914Y008880D01*
X004900Y008877D01*
X004887Y008878D01*
X004874Y008883D01*
X004863Y008890D01*
X004854Y008901D01*
X004849Y008914D01*
X004847Y008927D01*
X004547Y008927D02*
X004549Y008964D01*
X004555Y009001D01*
X004565Y009037D01*
X004578Y009072D01*
X004595Y009105D01*
X004616Y009136D01*
X004640Y009164D01*
X004667Y009190D01*
X004696Y009213D01*
X004727Y009233D01*
X004761Y009249D01*
X004796Y009262D01*
X004832Y009271D01*
X004869Y009276D01*
X004906Y009277D01*
X004943Y009274D01*
X004980Y009267D01*
X005016Y009256D01*
X005050Y009242D01*
X005083Y009224D01*
X005113Y009202D01*
X005141Y009178D01*
X005166Y009150D01*
X005189Y009120D01*
X005208Y009088D01*
X005223Y009054D01*
X005235Y009019D01*
X005243Y008983D01*
X005247Y008946D01*
X005247Y008908D01*
X005243Y008871D01*
X005235Y008835D01*
X005223Y008800D01*
X005208Y008766D01*
X005189Y008734D01*
X005166Y008704D01*
X005141Y008676D01*
X005113Y008652D01*
X005083Y008630D01*
X005050Y008612D01*
X005016Y008598D01*
X004980Y008587D01*
X004943Y008580D01*
X004906Y008577D01*
X004869Y008578D01*
X004832Y008583D01*
X004796Y008592D01*
X004761Y008605D01*
X004727Y008621D01*
X004696Y008641D01*
X004667Y008664D01*
X004640Y008690D01*
X004616Y008718D01*
X004595Y008749D01*
X004578Y008782D01*
X004565Y008817D01*
X004555Y008853D01*
X004549Y008890D01*
X004547Y008927D01*
X004472Y006527D02*
X004672Y006527D01*
X005147Y006527D01*
X005322Y006527D01*
X005497Y006127D02*
X005497Y006077D01*
X005547Y006077D01*
X005547Y005777D01*
X005497Y005777D01*
X005497Y005727D01*
X005322Y005327D02*
X005147Y005327D01*
X004647Y005327D01*
X004472Y005327D01*
X004297Y005727D02*
X004297Y005777D01*
X004382Y005777D01*
X004382Y006077D01*
X004297Y006077D01*
X004297Y006127D01*
X004847Y005927D02*
X004849Y005940D01*
X004854Y005953D01*
X004863Y005964D01*
X004874Y005971D01*
X004887Y005976D01*
X004900Y005977D01*
X004914Y005974D01*
X004926Y005968D01*
X004936Y005959D01*
X004943Y005947D01*
X004947Y005934D01*
X004947Y005920D01*
X004943Y005907D01*
X004936Y005895D01*
X004926Y005886D01*
X004914Y005880D01*
X004900Y005877D01*
X004887Y005878D01*
X004874Y005883D01*
X004863Y005890D01*
X004854Y005901D01*
X004849Y005914D01*
X004847Y005927D01*
X004547Y005927D02*
X004549Y005964D01*
X004555Y006001D01*
X004565Y006037D01*
X004578Y006072D01*
X004595Y006105D01*
X004616Y006136D01*
X004640Y006164D01*
X004667Y006190D01*
X004696Y006213D01*
X004727Y006233D01*
X004761Y006249D01*
X004796Y006262D01*
X004832Y006271D01*
X004869Y006276D01*
X004906Y006277D01*
X004943Y006274D01*
X004980Y006267D01*
X005016Y006256D01*
X005050Y006242D01*
X005083Y006224D01*
X005113Y006202D01*
X005141Y006178D01*
X005166Y006150D01*
X005189Y006120D01*
X005208Y006088D01*
X005223Y006054D01*
X005235Y006019D01*
X005243Y005983D01*
X005247Y005946D01*
X005247Y005908D01*
X005243Y005871D01*
X005235Y005835D01*
X005223Y005800D01*
X005208Y005766D01*
X005189Y005734D01*
X005166Y005704D01*
X005141Y005676D01*
X005113Y005652D01*
X005083Y005630D01*
X005050Y005612D01*
X005016Y005598D01*
X004980Y005587D01*
X004943Y005580D01*
X004906Y005577D01*
X004869Y005578D01*
X004832Y005583D01*
X004796Y005592D01*
X004761Y005605D01*
X004727Y005621D01*
X004696Y005641D01*
X004667Y005664D01*
X004640Y005690D01*
X004616Y005718D01*
X004595Y005749D01*
X004578Y005782D01*
X004565Y005817D01*
X004555Y005853D01*
X004549Y005890D01*
X004547Y005927D01*
X003317Y003107D02*
X002997Y003107D01*
X002997Y002737D01*
X003327Y002737D01*
X003547Y002917D02*
X003549Y002983D01*
X003555Y003048D01*
X003565Y003113D01*
X003578Y003178D01*
X003596Y003241D01*
X003617Y003304D01*
X003642Y003364D01*
X003671Y003424D01*
X003703Y003481D01*
X003738Y003537D01*
X003777Y003590D01*
X003819Y003641D01*
X003863Y003689D01*
X003911Y003734D01*
X003961Y003777D01*
X004014Y003816D01*
X004069Y003853D01*
X004126Y003886D01*
X004185Y003915D01*
X004245Y003941D01*
X004307Y003963D01*
X004370Y003982D01*
X004434Y003996D01*
X004499Y004007D01*
X004565Y004014D01*
X004631Y004017D01*
X004696Y004016D01*
X004762Y004011D01*
X004827Y004002D01*
X004892Y003989D01*
X004955Y003973D01*
X005018Y003953D01*
X005079Y003928D01*
X005139Y003901D01*
X005197Y003870D01*
X005253Y003835D01*
X005307Y003797D01*
X005358Y003756D01*
X005407Y003712D01*
X005453Y003665D01*
X005497Y003616D01*
X005537Y003564D01*
X005574Y003509D01*
X005608Y003453D01*
X005638Y003394D01*
X005665Y003334D01*
X005688Y003273D01*
X005707Y003210D01*
X005723Y003146D01*
X005735Y003081D01*
X005743Y003016D01*
X005747Y002950D01*
X005747Y002884D01*
X005743Y002818D01*
X005735Y002753D01*
X005723Y002688D01*
X005707Y002624D01*
X005688Y002561D01*
X005665Y002500D01*
X005638Y002440D01*
X005608Y002381D01*
X005574Y002325D01*
X005537Y002270D01*
X005497Y002218D01*
X005453Y002169D01*
X005407Y002122D01*
X005358Y002078D01*
X005307Y002037D01*
X005253Y001999D01*
X005197Y001964D01*
X005139Y001933D01*
X005079Y001906D01*
X005018Y001881D01*
X004955Y001861D01*
X004892Y001845D01*
X004827Y001832D01*
X004762Y001823D01*
X004696Y001818D01*
X004631Y001817D01*
X004565Y001820D01*
X004499Y001827D01*
X004434Y001838D01*
X004370Y001852D01*
X004307Y001871D01*
X004245Y001893D01*
X004185Y001919D01*
X004126Y001948D01*
X004069Y001981D01*
X004014Y002018D01*
X003961Y002057D01*
X003911Y002100D01*
X003863Y002145D01*
X003819Y002193D01*
X003777Y002244D01*
X003738Y002297D01*
X003703Y002353D01*
X003671Y002410D01*
X003642Y002470D01*
X003617Y002530D01*
X003596Y002593D01*
X003578Y002656D01*
X003565Y002721D01*
X003555Y002786D01*
X003549Y002851D01*
X003547Y002917D01*
X003307Y002927D02*
X003309Y003000D01*
X003315Y003072D01*
X003325Y003144D01*
X003338Y003215D01*
X003356Y003285D01*
X003377Y003355D01*
X003402Y003423D01*
X003431Y003490D01*
X003463Y003555D01*
X003499Y003618D01*
X003538Y003679D01*
X003580Y003738D01*
X003626Y003794D01*
X003674Y003849D01*
X003725Y003900D01*
X003780Y003948D01*
X003836Y003994D01*
X003895Y004036D01*
X003956Y004075D01*
X004019Y004111D01*
X004084Y004143D01*
X004151Y004172D01*
X004219Y004197D01*
X004289Y004218D01*
X004359Y004236D01*
X004430Y004249D01*
X004502Y004259D01*
X004574Y004265D01*
X004647Y004267D01*
X004720Y004265D01*
X004792Y004259D01*
X004864Y004249D01*
X004935Y004236D01*
X005005Y004218D01*
X005075Y004197D01*
X005143Y004172D01*
X005210Y004143D01*
X005275Y004111D01*
X005338Y004075D01*
X005399Y004036D01*
X005458Y003994D01*
X005514Y003948D01*
X005569Y003900D01*
X005620Y003849D01*
X005668Y003794D01*
X005714Y003738D01*
X005756Y003679D01*
X005795Y003618D01*
X005831Y003555D01*
X005863Y003490D01*
X005892Y003423D01*
X005917Y003355D01*
X005938Y003285D01*
X005956Y003215D01*
X005969Y003144D01*
X005979Y003072D01*
X005985Y003000D01*
X005987Y002927D01*
X005985Y002854D01*
X005979Y002782D01*
X005969Y002710D01*
X005956Y002639D01*
X005938Y002569D01*
X005917Y002499D01*
X005892Y002431D01*
X005863Y002364D01*
X005831Y002299D01*
X005795Y002236D01*
X005756Y002175D01*
X005714Y002116D01*
X005668Y002060D01*
X005620Y002005D01*
X005569Y001954D01*
X005514Y001906D01*
X005458Y001860D01*
X005399Y001818D01*
X005338Y001779D01*
X005275Y001743D01*
X005210Y001711D01*
X005143Y001682D01*
X005075Y001657D01*
X005005Y001636D01*
X004935Y001618D01*
X004864Y001605D01*
X004792Y001595D01*
X004720Y001589D01*
X004647Y001587D01*
X004574Y001589D01*
X004502Y001595D01*
X004430Y001605D01*
X004359Y001618D01*
X004289Y001636D01*
X004219Y001657D01*
X004151Y001682D01*
X004084Y001711D01*
X004019Y001743D01*
X003956Y001779D01*
X003895Y001818D01*
X003836Y001860D01*
X003780Y001906D01*
X003725Y001954D01*
X003674Y002005D01*
X003626Y002060D01*
X003580Y002116D01*
X003538Y002175D01*
X003499Y002236D01*
X003463Y002299D01*
X003431Y002364D01*
X003402Y002431D01*
X003377Y002499D01*
X003356Y002569D01*
X003338Y002639D01*
X003325Y002710D01*
X003315Y002782D01*
X003309Y002854D01*
X003307Y002927D01*
X004647Y002177D02*
X004701Y002179D01*
X004754Y002185D01*
X004806Y002194D01*
X004858Y002207D01*
X004909Y002224D01*
X004959Y002245D01*
X005006Y002269D01*
X005052Y002296D01*
X005096Y002327D01*
X005138Y002360D01*
X005177Y002397D01*
X005214Y002436D01*
X005247Y002478D01*
X005278Y002522D01*
X005305Y002568D01*
X005329Y002615D01*
X005350Y002665D01*
X005367Y002716D01*
X005380Y002768D01*
X005389Y002820D01*
X005395Y002873D01*
X005397Y002927D01*
X005147Y002927D02*
X005145Y002883D01*
X005139Y002840D01*
X005130Y002798D01*
X005117Y002756D01*
X005100Y002716D01*
X005080Y002677D01*
X005057Y002640D01*
X005030Y002606D01*
X005001Y002573D01*
X004968Y002544D01*
X004934Y002517D01*
X004897Y002494D01*
X004858Y002474D01*
X004818Y002457D01*
X004776Y002444D01*
X004734Y002435D01*
X004691Y002429D01*
X004647Y002427D01*
X004147Y002927D02*
X004149Y002971D01*
X004155Y003014D01*
X004164Y003056D01*
X004177Y003098D01*
X004194Y003138D01*
X004214Y003177D01*
X004237Y003214D01*
X004264Y003248D01*
X004293Y003281D01*
X004326Y003310D01*
X004360Y003337D01*
X004397Y003360D01*
X004436Y003380D01*
X004476Y003397D01*
X004518Y003410D01*
X004560Y003419D01*
X004603Y003425D01*
X004647Y003427D01*
X004647Y003677D02*
X004593Y003675D01*
X004540Y003669D01*
X004488Y003660D01*
X004436Y003647D01*
X004385Y003630D01*
X004335Y003609D01*
X004288Y003585D01*
X004242Y003558D01*
X004198Y003527D01*
X004156Y003494D01*
X004117Y003457D01*
X004080Y003418D01*
X004047Y003376D01*
X004016Y003332D01*
X003989Y003286D01*
X003965Y003239D01*
X003944Y003189D01*
X003927Y003138D01*
X003914Y003086D01*
X003905Y003034D01*
X003899Y002981D01*
X003897Y002927D01*
X001317Y002490D02*
X001317Y002063D01*
X001317Y002276D02*
X000677Y002276D01*
X000890Y002063D01*
X000890Y001845D02*
X001317Y001632D01*
X000890Y001418D01*
X000997Y001201D02*
X001104Y001201D01*
X001104Y000774D01*
X001210Y000774D02*
X000997Y000774D01*
X000890Y000880D01*
X000890Y001094D01*
X000997Y001201D01*
X001317Y000880D02*
X001210Y000774D01*
X001317Y000880D02*
X001317Y001094D01*
X001317Y000556D02*
X001104Y000343D01*
X001104Y000449D02*
X001104Y000129D01*
X001317Y000129D02*
X000677Y000129D01*
X000677Y000449D01*
X000783Y000556D01*
X000997Y000556D01*
X001104Y000449D01*
D12*
X003862Y010938D02*
X003908Y010966D01*
X003908Y010965D02*
X003939Y010918D01*
X003973Y010873D01*
X004010Y010831D01*
X004050Y010791D01*
X004092Y010753D01*
X004137Y010719D01*
X004184Y010688D01*
X004233Y010660D01*
X004284Y010636D01*
X004337Y010614D01*
X004390Y010597D01*
X004445Y010583D01*
X004501Y010573D01*
X004557Y010567D01*
X004553Y010513D01*
X004497Y010519D01*
X004442Y010529D01*
X004387Y010542D01*
X004333Y010558D01*
X004281Y010578D01*
X004230Y010601D01*
X004180Y010628D01*
X004132Y010657D01*
X004087Y010689D01*
X004043Y010724D01*
X004001Y010762D01*
X003962Y010803D01*
X003926Y010845D01*
X003892Y010890D01*
X003862Y010937D01*
X003866Y010940D01*
X003896Y010893D01*
X003930Y010848D01*
X003966Y010806D01*
X004005Y010766D01*
X004046Y010728D01*
X004090Y010693D01*
X004135Y010661D01*
X004183Y010632D01*
X004232Y010606D01*
X004283Y010583D01*
X004335Y010563D01*
X004388Y010547D01*
X004443Y010534D01*
X004498Y010524D01*
X004553Y010518D01*
X004553Y010523D01*
X004498Y010529D01*
X004444Y010538D01*
X004390Y010551D01*
X004337Y010568D01*
X004285Y010587D01*
X004234Y010610D01*
X004185Y010636D01*
X004138Y010665D01*
X004093Y010697D01*
X004049Y010732D01*
X004008Y010769D01*
X003970Y010809D01*
X003934Y010852D01*
X003901Y010896D01*
X003870Y010942D01*
X003874Y010945D01*
X003905Y010899D01*
X003938Y010855D01*
X003973Y010813D01*
X004012Y010773D01*
X004053Y010736D01*
X004096Y010701D01*
X004141Y010670D01*
X004188Y010641D01*
X004236Y010615D01*
X004287Y010592D01*
X004338Y010573D01*
X004391Y010556D01*
X004445Y010543D01*
X004499Y010534D01*
X004554Y010528D01*
X004554Y010533D01*
X004496Y010539D01*
X004438Y010550D01*
X004381Y010564D01*
X004325Y010582D01*
X004271Y010604D01*
X004218Y010630D01*
X004167Y010659D01*
X004118Y010691D01*
X004071Y010727D01*
X004027Y010766D01*
X003985Y010807D01*
X003947Y010852D01*
X003911Y010899D01*
X003879Y010948D01*
X003883Y010950D01*
X003915Y010901D01*
X003950Y010855D01*
X003989Y010811D01*
X004030Y010769D01*
X004074Y010731D01*
X004120Y010696D01*
X004169Y010663D01*
X004220Y010634D01*
X004273Y010609D01*
X004327Y010587D01*
X004382Y010569D01*
X004439Y010555D01*
X004496Y010544D01*
X004555Y010538D01*
X004555Y010543D01*
X004497Y010549D01*
X004440Y010560D01*
X004384Y010574D01*
X004328Y010592D01*
X004275Y010614D01*
X004222Y010639D01*
X004172Y010668D01*
X004123Y010700D01*
X004077Y010735D01*
X004033Y010773D01*
X003992Y010814D01*
X003954Y010858D01*
X003919Y010904D01*
X003887Y010953D01*
X003892Y010955D01*
X003923Y010907D01*
X003958Y010861D01*
X003996Y010818D01*
X004037Y010777D01*
X004080Y010739D01*
X004126Y010704D01*
X004174Y010672D01*
X004225Y010643D01*
X004277Y010618D01*
X004330Y010597D01*
X004385Y010579D01*
X004441Y010565D01*
X004498Y010554D01*
X004555Y010548D01*
X004556Y010553D01*
X004499Y010559D01*
X004442Y010569D01*
X004386Y010583D01*
X004332Y010601D01*
X004279Y010623D01*
X004227Y010648D01*
X004177Y010676D01*
X004129Y010708D01*
X004084Y010743D01*
X004040Y010780D01*
X004000Y010821D01*
X003962Y010864D01*
X003927Y010910D01*
X003896Y010958D01*
X003900Y010961D01*
X003931Y010913D01*
X003966Y010867D01*
X004003Y010824D01*
X004044Y010784D01*
X004087Y010746D01*
X004132Y010712D01*
X004180Y010680D01*
X004229Y010652D01*
X004281Y010627D01*
X004334Y010606D01*
X004388Y010588D01*
X004443Y010574D01*
X004499Y010564D01*
X004556Y010558D01*
X004556Y010563D01*
X004500Y010569D01*
X004444Y010579D01*
X004389Y010593D01*
X004335Y010611D01*
X004283Y010632D01*
X004232Y010657D01*
X004182Y010685D01*
X004135Y010716D01*
X004090Y010750D01*
X004047Y010788D01*
X004007Y010828D01*
X003970Y010871D01*
X003936Y010916D01*
X003904Y010963D01*
X004561Y010514D02*
X004560Y010568D01*
X004561Y010567D02*
X004620Y010569D01*
X004679Y010575D01*
X004738Y010585D01*
X004796Y010598D01*
X004853Y010615D01*
X004909Y010635D01*
X004963Y010659D01*
X005016Y010686D01*
X005068Y010716D01*
X005117Y010749D01*
X005164Y010785D01*
X005209Y010824D01*
X005251Y010866D01*
X005291Y010910D01*
X005328Y010956D01*
X005371Y010925D01*
X005371Y010924D01*
X005332Y010875D01*
X005290Y010829D01*
X005246Y010785D01*
X005198Y010743D01*
X005149Y010705D01*
X005096Y010670D01*
X005042Y010638D01*
X004986Y010610D01*
X004929Y010585D01*
X004870Y010564D01*
X004809Y010546D01*
X004748Y010532D01*
X004686Y010522D01*
X004624Y010516D01*
X004561Y010513D01*
X004561Y010518D01*
X004624Y010521D01*
X004686Y010527D01*
X004747Y010537D01*
X004808Y010551D01*
X004868Y010568D01*
X004927Y010590D01*
X004984Y010614D01*
X005040Y010643D01*
X005094Y010674D01*
X005146Y010709D01*
X005195Y010747D01*
X005242Y010788D01*
X005287Y010832D01*
X005329Y010878D01*
X005367Y010927D01*
X005363Y010930D01*
X005325Y010882D01*
X005283Y010835D01*
X005239Y010792D01*
X005192Y010751D01*
X005143Y010713D01*
X005091Y010679D01*
X005038Y010647D01*
X004982Y010619D01*
X004925Y010594D01*
X004867Y010573D01*
X004807Y010556D01*
X004746Y010542D01*
X004685Y010532D01*
X004623Y010526D01*
X004561Y010523D01*
X004561Y010528D01*
X004623Y010530D01*
X004684Y010537D01*
X004745Y010547D01*
X004806Y010560D01*
X004865Y010578D01*
X004923Y010599D01*
X004980Y010623D01*
X005035Y010651D01*
X005088Y010683D01*
X005140Y010717D01*
X005189Y010755D01*
X005236Y010796D01*
X005280Y010839D01*
X005321Y010885D01*
X005359Y010933D01*
X005355Y010936D01*
X005317Y010888D01*
X005276Y010842D01*
X005232Y010799D01*
X005186Y010759D01*
X005137Y010721D01*
X005086Y010687D01*
X005033Y010656D01*
X004978Y010628D01*
X004921Y010604D01*
X004864Y010583D01*
X004804Y010565D01*
X004744Y010552D01*
X004684Y010542D01*
X004623Y010535D01*
X004561Y010533D01*
X004561Y010538D01*
X004622Y010540D01*
X004683Y010547D01*
X004744Y010557D01*
X004803Y010570D01*
X004862Y010587D01*
X004920Y010608D01*
X004976Y010633D01*
X005030Y010660D01*
X005083Y010691D01*
X005134Y010725D01*
X005182Y010763D01*
X005229Y010803D01*
X005272Y010846D01*
X005313Y010891D01*
X005351Y010939D01*
X005347Y010942D01*
X005309Y010894D01*
X005269Y010849D01*
X005225Y010806D01*
X005179Y010767D01*
X005131Y010729D01*
X005080Y010695D01*
X005028Y010665D01*
X004974Y010637D01*
X004918Y010613D01*
X004860Y010592D01*
X004802Y010575D01*
X004743Y010561D01*
X004682Y010552D01*
X004622Y010545D01*
X004561Y010543D01*
X004561Y010548D01*
X004622Y010550D01*
X004682Y010557D01*
X004742Y010566D01*
X004801Y010580D01*
X004859Y010597D01*
X004916Y010618D01*
X004971Y010642D01*
X005026Y010669D01*
X005078Y010700D01*
X005128Y010734D01*
X005176Y010770D01*
X005222Y010810D01*
X005265Y010853D01*
X005306Y010898D01*
X005343Y010945D01*
X005339Y010948D01*
X005302Y010901D01*
X005262Y010856D01*
X005219Y010814D01*
X005173Y010774D01*
X005125Y010738D01*
X005075Y010704D01*
X005023Y010673D01*
X004969Y010646D01*
X004914Y010622D01*
X004857Y010602D01*
X004799Y010585D01*
X004741Y010571D01*
X004681Y010562D01*
X004621Y010555D01*
X004561Y010553D01*
X004561Y010558D01*
X004621Y010560D01*
X004681Y010566D01*
X004740Y010576D01*
X004798Y010590D01*
X004856Y010606D01*
X004912Y010627D01*
X004967Y010651D01*
X005021Y010678D01*
X005072Y010708D01*
X005122Y010742D01*
X005170Y010778D01*
X005215Y010817D01*
X005258Y010860D01*
X005298Y010904D01*
X005335Y010951D01*
X005331Y010954D01*
X005294Y010907D01*
X005254Y010863D01*
X005212Y010821D01*
X005167Y010782D01*
X005119Y010746D01*
X005070Y010712D01*
X005018Y010682D01*
X004965Y010655D01*
X004910Y010631D01*
X004854Y010611D01*
X004797Y010594D01*
X004739Y010581D01*
X004680Y010571D01*
X004620Y010565D01*
X004561Y010563D01*
X005363Y012190D02*
X005322Y012155D01*
X005322Y012156D02*
X005283Y012200D01*
X005241Y012241D01*
X005197Y012280D01*
X005151Y012316D01*
X005102Y012349D01*
X005052Y012380D01*
X005000Y012407D01*
X004946Y012431D01*
X004891Y012451D01*
X004835Y012469D01*
X004778Y012483D01*
X004720Y012493D01*
X004662Y012500D01*
X004603Y012504D01*
X004544Y012504D01*
X004543Y012557D01*
X004542Y012557D01*
X004604Y012558D01*
X004666Y012554D01*
X004728Y012547D01*
X004789Y012536D01*
X004849Y012521D01*
X004909Y012502D01*
X004967Y012481D01*
X005023Y012455D01*
X005078Y012427D01*
X005132Y012395D01*
X005183Y012360D01*
X005232Y012321D01*
X005278Y012280D01*
X005322Y012237D01*
X005364Y012190D01*
X005360Y012187D01*
X005319Y012233D01*
X005275Y012277D01*
X005229Y012318D01*
X005180Y012356D01*
X005129Y012390D01*
X005076Y012422D01*
X005021Y012451D01*
X004965Y012476D01*
X004907Y012498D01*
X004848Y012516D01*
X004788Y012531D01*
X004727Y012542D01*
X004666Y012549D01*
X004604Y012553D01*
X004542Y012552D01*
X004543Y012547D01*
X004604Y012548D01*
X004665Y012544D01*
X004726Y012537D01*
X004787Y012526D01*
X004847Y012511D01*
X004905Y012493D01*
X004963Y012471D01*
X005019Y012446D01*
X005073Y012418D01*
X005126Y012386D01*
X005177Y012352D01*
X005225Y012314D01*
X005272Y012273D01*
X005315Y012230D01*
X005356Y012184D01*
X005352Y012181D01*
X005311Y012226D01*
X005268Y012270D01*
X005222Y012310D01*
X005174Y012347D01*
X005123Y012382D01*
X005071Y012414D01*
X005017Y012442D01*
X004961Y012467D01*
X004904Y012488D01*
X004845Y012506D01*
X004786Y012521D01*
X004726Y012532D01*
X004665Y012539D01*
X004604Y012543D01*
X004543Y012542D01*
X004543Y012537D01*
X004604Y012538D01*
X004665Y012534D01*
X004725Y012527D01*
X004785Y012516D01*
X004844Y012502D01*
X004902Y012484D01*
X004959Y012462D01*
X005015Y012437D01*
X005069Y012409D01*
X005121Y012378D01*
X005171Y012343D01*
X005219Y012306D01*
X005265Y012266D01*
X005308Y012223D01*
X005348Y012178D01*
X005345Y012174D01*
X005304Y012220D01*
X005261Y012262D01*
X005216Y012302D01*
X005168Y012339D01*
X005118Y012374D01*
X005066Y012405D01*
X005012Y012433D01*
X004957Y012457D01*
X004901Y012479D01*
X004843Y012497D01*
X004784Y012511D01*
X004724Y012522D01*
X004664Y012529D01*
X004604Y012533D01*
X004543Y012532D01*
X004543Y012527D01*
X004604Y012528D01*
X004664Y012524D01*
X004724Y012517D01*
X004783Y012506D01*
X004841Y012492D01*
X004899Y012474D01*
X004955Y012453D01*
X005010Y012428D01*
X005064Y012400D01*
X005115Y012369D01*
X005165Y012335D01*
X005213Y012298D01*
X005258Y012259D01*
X005301Y012216D01*
X005341Y012171D01*
X005337Y012168D01*
X005297Y012213D01*
X005254Y012255D01*
X005209Y012295D01*
X005162Y012331D01*
X005113Y012365D01*
X005061Y012396D01*
X005008Y012424D01*
X004953Y012448D01*
X004897Y012469D01*
X004840Y012487D01*
X004782Y012501D01*
X004723Y012512D01*
X004663Y012519D01*
X004603Y012523D01*
X004544Y012523D01*
X004544Y012518D01*
X004603Y012518D01*
X004663Y012514D01*
X004722Y012507D01*
X004781Y012496D01*
X004839Y012482D01*
X004896Y012465D01*
X004951Y012444D01*
X005006Y012419D01*
X005059Y012392D01*
X005110Y012361D01*
X005159Y012327D01*
X005206Y012291D01*
X005251Y012251D01*
X005293Y012209D01*
X005333Y012165D01*
X005329Y012162D01*
X005290Y012206D01*
X005248Y012248D01*
X005203Y012287D01*
X005156Y012323D01*
X005107Y012357D01*
X005056Y012387D01*
X005004Y012415D01*
X004950Y012439D01*
X004894Y012460D01*
X004837Y012477D01*
X004780Y012491D01*
X004721Y012502D01*
X004662Y012509D01*
X004603Y012513D01*
X004544Y012513D01*
X004544Y012508D01*
X004603Y012508D01*
X004662Y012504D01*
X004721Y012497D01*
X004779Y012487D01*
X004836Y012473D01*
X004892Y012455D01*
X004948Y012434D01*
X005002Y012410D01*
X005054Y012383D01*
X005105Y012353D01*
X005153Y012319D01*
X005200Y012283D01*
X005244Y012244D01*
X005286Y012202D01*
X005325Y012158D01*
X004536Y012557D02*
X004539Y012503D01*
X004539Y012504D02*
X004483Y012498D01*
X004427Y012489D01*
X004373Y012476D01*
X004319Y012459D01*
X004266Y012439D01*
X004216Y012415D01*
X004166Y012387D01*
X004119Y012357D01*
X004074Y012323D01*
X004032Y012285D01*
X003992Y012246D01*
X003956Y012203D01*
X003922Y012158D01*
X003878Y012188D01*
X003877Y012189D01*
X003911Y012233D01*
X003947Y012276D01*
X003986Y012316D01*
X004027Y012353D01*
X004071Y012388D01*
X004117Y012420D01*
X004164Y012449D01*
X004214Y012474D01*
X004265Y012497D01*
X004317Y012516D01*
X004371Y012532D01*
X004425Y012544D01*
X004480Y012552D01*
X004536Y012557D01*
X004536Y012552D01*
X004481Y012547D01*
X004426Y012539D01*
X004372Y012527D01*
X004319Y012511D01*
X004267Y012492D01*
X004216Y012470D01*
X004167Y012444D01*
X004119Y012416D01*
X004074Y012384D01*
X004030Y012350D01*
X003989Y012312D01*
X003951Y012273D01*
X003915Y012230D01*
X003882Y012186D01*
X003886Y012183D01*
X003919Y012227D01*
X003954Y012269D01*
X003993Y012309D01*
X004034Y012346D01*
X004077Y012380D01*
X004122Y012412D01*
X004169Y012440D01*
X004218Y012465D01*
X004269Y012488D01*
X004320Y012506D01*
X004373Y012522D01*
X004427Y012534D01*
X004482Y012542D01*
X004536Y012548D01*
X004537Y012543D01*
X004482Y012538D01*
X004428Y012529D01*
X004375Y012517D01*
X004322Y012502D01*
X004270Y012483D01*
X004220Y012461D01*
X004172Y012436D01*
X004125Y012407D01*
X004080Y012376D01*
X004037Y012342D01*
X003996Y012305D01*
X003958Y012266D01*
X003923Y012224D01*
X003890Y012180D01*
X003894Y012177D01*
X003926Y012221D01*
X003962Y012262D01*
X004000Y012302D01*
X004040Y012338D01*
X004083Y012372D01*
X004127Y012403D01*
X004174Y012431D01*
X004222Y012456D01*
X004272Y012478D01*
X004324Y012497D01*
X004376Y012512D01*
X004429Y012524D01*
X004483Y012533D01*
X004537Y012538D01*
X004537Y012533D01*
X004483Y012528D01*
X004430Y012519D01*
X004377Y012507D01*
X004325Y012492D01*
X004274Y012474D01*
X004225Y012452D01*
X004177Y012427D01*
X004130Y012399D01*
X004086Y012368D01*
X004043Y012334D01*
X004003Y012298D01*
X003965Y012259D01*
X003930Y012218D01*
X003898Y012174D01*
X003902Y012172D01*
X003934Y012215D01*
X003969Y012256D01*
X004007Y012294D01*
X004047Y012331D01*
X004089Y012364D01*
X004133Y012395D01*
X004179Y012423D01*
X004227Y012447D01*
X004276Y012469D01*
X004327Y012487D01*
X004378Y012502D01*
X004431Y012514D01*
X004484Y012523D01*
X004538Y012528D01*
X004538Y012523D01*
X004485Y012518D01*
X004432Y012509D01*
X004380Y012498D01*
X004328Y012483D01*
X004278Y012464D01*
X004229Y012443D01*
X004181Y012418D01*
X004136Y012391D01*
X004092Y012360D01*
X004050Y012327D01*
X004010Y012291D01*
X003973Y012252D01*
X003938Y012212D01*
X003906Y012169D01*
X003910Y012166D01*
X003942Y012209D01*
X003977Y012249D01*
X004014Y012287D01*
X004053Y012323D01*
X004095Y012356D01*
X004138Y012386D01*
X004184Y012414D01*
X004231Y012438D01*
X004280Y012460D01*
X004330Y012478D01*
X004381Y012493D01*
X004433Y012504D01*
X004485Y012513D01*
X004538Y012518D01*
X004538Y012513D01*
X004482Y012507D01*
X004426Y012498D01*
X004370Y012485D01*
X004316Y012468D01*
X004263Y012447D01*
X004211Y012423D01*
X004162Y012395D01*
X004114Y012364D01*
X004069Y012329D01*
X004026Y012292D01*
X003986Y012252D01*
X003949Y012209D01*
X003914Y012163D01*
X003919Y012160D01*
X003952Y012205D01*
X003989Y012248D01*
X004029Y012288D01*
X004072Y012326D01*
X004117Y012360D01*
X004164Y012391D01*
X004214Y012418D01*
X004265Y012443D01*
X004318Y012463D01*
X004372Y012480D01*
X004427Y012493D01*
X004482Y012502D01*
X004539Y012508D01*
D13*
X005601Y012226D02*
X005524Y012180D01*
X005524Y012181D02*
X005489Y012235D01*
X005452Y012287D01*
X005411Y012336D01*
X005367Y012383D01*
X005320Y012427D01*
X005271Y012468D01*
X005219Y012506D01*
X005165Y012541D01*
X005109Y012572D01*
X005052Y012600D01*
X004992Y012624D01*
X004931Y012645D01*
X004870Y012662D01*
X004807Y012675D01*
X004743Y012684D01*
X004679Y012690D01*
X004615Y012691D01*
X004614Y012780D01*
X004614Y012781D01*
X004680Y012780D01*
X004745Y012775D01*
X004811Y012766D01*
X004875Y012753D01*
X004939Y012737D01*
X005002Y012717D01*
X005063Y012693D01*
X005123Y012666D01*
X005182Y012635D01*
X005238Y012602D01*
X005293Y012564D01*
X005345Y012524D01*
X005395Y012481D01*
X005442Y012435D01*
X005486Y012386D01*
X005528Y012335D01*
X005566Y012282D01*
X005602Y012226D01*
X005594Y012222D01*
X005559Y012277D01*
X005521Y012330D01*
X005479Y012381D01*
X005435Y012429D01*
X005388Y012474D01*
X005339Y012517D01*
X005287Y012557D01*
X005233Y012594D01*
X005177Y012628D01*
X005119Y012658D01*
X005060Y012685D01*
X004999Y012708D01*
X004937Y012728D01*
X004873Y012744D01*
X004809Y012757D01*
X004744Y012766D01*
X004679Y012771D01*
X004614Y012772D01*
X004614Y012763D01*
X004679Y012762D01*
X004744Y012757D01*
X004808Y012748D01*
X004871Y012736D01*
X004934Y012719D01*
X004996Y012700D01*
X005056Y012676D01*
X005115Y012650D01*
X005173Y012620D01*
X005228Y012586D01*
X005282Y012550D01*
X005333Y012510D01*
X005382Y012468D01*
X005429Y012423D01*
X005472Y012375D01*
X005513Y012324D01*
X005551Y012272D01*
X005586Y012217D01*
X005578Y012213D01*
X005544Y012267D01*
X005506Y012319D01*
X005466Y012369D01*
X005422Y012416D01*
X005376Y012461D01*
X005328Y012503D01*
X005277Y012543D01*
X005224Y012579D01*
X005168Y012612D01*
X005112Y012642D01*
X005053Y012668D01*
X004993Y012691D01*
X004932Y012711D01*
X004869Y012727D01*
X004806Y012739D01*
X004743Y012748D01*
X004679Y012753D01*
X004614Y012754D01*
X004614Y012745D01*
X004678Y012744D01*
X004742Y012739D01*
X004805Y012730D01*
X004867Y012718D01*
X004929Y012702D01*
X004990Y012683D01*
X005049Y012660D01*
X005108Y012634D01*
X005164Y012604D01*
X005219Y012571D01*
X005271Y012535D01*
X005322Y012496D01*
X005370Y012455D01*
X005416Y012410D01*
X005459Y012363D01*
X005499Y012314D01*
X005536Y012262D01*
X005571Y012208D01*
X005563Y012203D01*
X005529Y012257D01*
X005492Y012308D01*
X005452Y012357D01*
X005409Y012404D01*
X005364Y012448D01*
X005316Y012489D01*
X005266Y012528D01*
X005214Y012564D01*
X005160Y012596D01*
X005104Y012626D01*
X005046Y012652D01*
X004987Y012674D01*
X004927Y012693D01*
X004866Y012709D01*
X004803Y012721D01*
X004741Y012730D01*
X004678Y012735D01*
X004615Y012736D01*
X004615Y012727D01*
X004677Y012726D01*
X004740Y012721D01*
X004802Y012712D01*
X004864Y012700D01*
X004924Y012685D01*
X004984Y012666D01*
X005043Y012643D01*
X005100Y012617D01*
X005155Y012588D01*
X005209Y012556D01*
X005261Y012521D01*
X005311Y012482D01*
X005358Y012441D01*
X005403Y012398D01*
X005445Y012351D01*
X005485Y012303D01*
X005521Y012252D01*
X005555Y012199D01*
X005547Y012194D01*
X005514Y012247D01*
X005478Y012297D01*
X005438Y012345D01*
X005396Y012391D01*
X005352Y012435D01*
X005305Y012475D01*
X005256Y012513D01*
X005204Y012548D01*
X005151Y012580D01*
X005096Y012609D01*
X005039Y012635D01*
X004981Y012657D01*
X004922Y012676D01*
X004862Y012692D01*
X004801Y012704D01*
X004739Y012712D01*
X004677Y012717D01*
X004615Y012718D01*
X004615Y012709D01*
X004677Y012708D01*
X004738Y012703D01*
X004799Y012695D01*
X004860Y012683D01*
X004919Y012668D01*
X004978Y012649D01*
X005036Y012627D01*
X005092Y012601D01*
X005146Y012573D01*
X005199Y012541D01*
X005250Y012506D01*
X005299Y012469D01*
X005346Y012428D01*
X005390Y012385D01*
X005431Y012340D01*
X005470Y012292D01*
X005506Y012242D01*
X005540Y012190D01*
X005532Y012185D01*
X005499Y012237D01*
X005463Y012286D01*
X005425Y012334D01*
X005383Y012379D01*
X005340Y012422D01*
X005293Y012462D01*
X005245Y012499D01*
X005194Y012533D01*
X005142Y012565D01*
X005088Y012593D01*
X005032Y012618D01*
X004975Y012640D01*
X004917Y012659D01*
X004858Y012674D01*
X004798Y012686D01*
X004737Y012694D01*
X004676Y012699D01*
X004615Y012700D01*
X004604Y012780D02*
X004606Y012690D01*
X004606Y012691D02*
X004544Y012687D01*
X004483Y012680D01*
X004422Y012670D01*
X004362Y012656D01*
X004302Y012638D01*
X004244Y012618D01*
X004187Y012594D01*
X004132Y012566D01*
X004078Y012536D01*
X004026Y012503D01*
X003976Y012466D01*
X003928Y012427D01*
X003883Y012385D01*
X003840Y012341D01*
X003799Y012294D01*
X003730Y012350D01*
X003729Y012351D01*
X003773Y012402D01*
X003820Y012450D01*
X003869Y012495D01*
X003921Y012537D01*
X003975Y012577D01*
X004031Y012613D01*
X004090Y012646D01*
X004150Y012676D01*
X004212Y012702D01*
X004275Y012724D01*
X004339Y012743D01*
X004404Y012758D01*
X004470Y012769D01*
X004537Y012777D01*
X004604Y012781D01*
X004604Y012772D01*
X004538Y012768D01*
X004472Y012760D01*
X004406Y012749D01*
X004341Y012734D01*
X004278Y012716D01*
X004215Y012693D01*
X004154Y012667D01*
X004094Y012638D01*
X004036Y012605D01*
X003980Y012569D01*
X003926Y012530D01*
X003875Y012488D01*
X003826Y012443D01*
X003780Y012396D01*
X003736Y012345D01*
X003743Y012340D01*
X003786Y012389D01*
X003832Y012437D01*
X003881Y012481D01*
X003932Y012523D01*
X003985Y012562D01*
X004041Y012598D01*
X004098Y012630D01*
X004157Y012659D01*
X004218Y012685D01*
X004280Y012707D01*
X004344Y012725D01*
X004408Y012740D01*
X004473Y012752D01*
X004538Y012759D01*
X004604Y012763D01*
X004604Y012754D01*
X004539Y012750D01*
X004474Y012743D01*
X004410Y012732D01*
X004346Y012717D01*
X004283Y012698D01*
X004221Y012676D01*
X004161Y012651D01*
X004102Y012622D01*
X004045Y012590D01*
X003990Y012555D01*
X003937Y012516D01*
X003887Y012475D01*
X003838Y012430D01*
X003793Y012383D01*
X003750Y012334D01*
X003757Y012328D01*
X003800Y012377D01*
X003845Y012424D01*
X003893Y012468D01*
X003943Y012509D01*
X003995Y012547D01*
X004050Y012582D01*
X004107Y012614D01*
X004165Y012643D01*
X004225Y012668D01*
X004286Y012690D01*
X004348Y012708D01*
X004411Y012723D01*
X004475Y012734D01*
X004540Y012741D01*
X004605Y012745D01*
X004605Y012736D01*
X004541Y012732D01*
X004477Y012725D01*
X004413Y012714D01*
X004350Y012699D01*
X004289Y012681D01*
X004228Y012660D01*
X004169Y012635D01*
X004111Y012606D01*
X004055Y012575D01*
X004000Y012540D01*
X003948Y012502D01*
X003899Y012461D01*
X003851Y012418D01*
X003806Y012371D01*
X003764Y012323D01*
X003771Y012317D01*
X003813Y012365D01*
X003857Y012411D01*
X003904Y012454D01*
X003954Y012495D01*
X004006Y012532D01*
X004059Y012567D01*
X004115Y012598D01*
X004172Y012626D01*
X004231Y012651D01*
X004291Y012673D01*
X004353Y012691D01*
X004415Y012705D01*
X004478Y012716D01*
X004541Y012723D01*
X004605Y012727D01*
X004605Y012718D01*
X004542Y012714D01*
X004479Y012707D01*
X004417Y012696D01*
X004355Y012682D01*
X004294Y012664D01*
X004234Y012643D01*
X004176Y012618D01*
X004119Y012590D01*
X004064Y012559D01*
X004011Y012525D01*
X003959Y012488D01*
X003910Y012448D01*
X003864Y012405D01*
X003820Y012359D01*
X003778Y012311D01*
X003785Y012306D01*
X003826Y012353D01*
X003870Y012398D01*
X003916Y012441D01*
X003965Y012481D01*
X004016Y012517D01*
X004069Y012551D01*
X004123Y012582D01*
X004180Y012610D01*
X004238Y012634D01*
X004297Y012656D01*
X004357Y012673D01*
X004418Y012687D01*
X004480Y012698D01*
X004543Y012705D01*
X004605Y012709D01*
X004606Y012700D01*
X004543Y012696D01*
X004482Y012689D01*
X004420Y012679D01*
X004359Y012665D01*
X004300Y012647D01*
X004241Y012626D01*
X004183Y012602D01*
X004128Y012574D01*
X004073Y012544D01*
X004021Y012510D01*
X003970Y012473D01*
X003922Y012434D01*
X003876Y012392D01*
X003833Y012347D01*
X003792Y012300D01*
X004586Y010295D02*
X004586Y010385D01*
X004586Y010384D02*
X004650Y010386D01*
X004714Y010391D01*
X004778Y010400D01*
X004840Y010413D01*
X004902Y010430D01*
X004963Y010451D01*
X005023Y010475D01*
X005081Y010502D01*
X005137Y010533D01*
X005192Y010567D01*
X005244Y010605D01*
X005294Y010645D01*
X005341Y010688D01*
X005386Y010734D01*
X005428Y010783D01*
X005467Y010834D01*
X005503Y010887D01*
X005535Y010943D01*
X005614Y010900D01*
X005581Y010843D01*
X005544Y010788D01*
X005505Y010735D01*
X005462Y010685D01*
X005417Y010637D01*
X005369Y010591D01*
X005319Y010549D01*
X005266Y010509D01*
X005211Y010473D01*
X005154Y010439D01*
X005096Y010409D01*
X005035Y010382D01*
X004974Y010359D01*
X004911Y010339D01*
X004847Y010323D01*
X004782Y010310D01*
X004717Y010301D01*
X004651Y010296D01*
X004585Y010294D01*
X004585Y010303D01*
X004651Y010305D01*
X004716Y010310D01*
X004781Y010319D01*
X004845Y010331D01*
X004908Y010348D01*
X004971Y010367D01*
X005032Y010390D01*
X005092Y010417D01*
X005150Y010447D01*
X005206Y010480D01*
X005261Y010517D01*
X005313Y010556D01*
X005363Y010598D01*
X005411Y010643D01*
X005456Y010691D01*
X005498Y010741D01*
X005537Y010793D01*
X005573Y010848D01*
X005606Y010904D01*
X005599Y010908D01*
X005566Y010852D01*
X005530Y010798D01*
X005491Y010746D01*
X005449Y010697D01*
X005404Y010650D01*
X005357Y010605D01*
X005307Y010563D01*
X005256Y010524D01*
X005202Y010488D01*
X005146Y010455D01*
X005088Y010425D01*
X005029Y010399D01*
X004968Y010376D01*
X004906Y010356D01*
X004843Y010340D01*
X004779Y010328D01*
X004715Y010319D01*
X004650Y010314D01*
X004585Y010312D01*
X004585Y010321D01*
X004650Y010323D01*
X004714Y010328D01*
X004778Y010337D01*
X004841Y010349D01*
X004903Y010365D01*
X004965Y010384D01*
X005025Y010407D01*
X005084Y010433D01*
X005141Y010463D01*
X005197Y010496D01*
X005250Y010531D01*
X005302Y010570D01*
X005351Y010612D01*
X005398Y010656D01*
X005442Y010703D01*
X005484Y010752D01*
X005522Y010803D01*
X005558Y010857D01*
X005591Y010913D01*
X005583Y010917D01*
X005550Y010862D01*
X005515Y010809D01*
X005477Y010758D01*
X005435Y010709D01*
X005392Y010662D01*
X005345Y010618D01*
X005296Y010577D01*
X005245Y010539D01*
X005192Y010503D01*
X005137Y010471D01*
X005080Y010441D01*
X005022Y010415D01*
X004962Y010393D01*
X004901Y010374D01*
X004839Y010358D01*
X004776Y010345D01*
X004713Y010337D01*
X004649Y010332D01*
X004585Y010330D01*
X004585Y010339D01*
X004649Y010341D01*
X004712Y010346D01*
X004775Y010354D01*
X004837Y010366D01*
X004899Y010382D01*
X004959Y010401D01*
X005018Y010424D01*
X005076Y010450D01*
X005133Y010479D01*
X005187Y010511D01*
X005240Y010546D01*
X005291Y010584D01*
X005339Y010625D01*
X005385Y010669D01*
X005429Y010715D01*
X005470Y010763D01*
X005508Y010814D01*
X005543Y010867D01*
X005575Y010921D01*
X005567Y010926D01*
X005533Y010868D01*
X005496Y010813D01*
X005456Y010761D01*
X005413Y010710D01*
X005366Y010663D01*
X005317Y010618D01*
X005266Y010576D01*
X005212Y010537D01*
X005156Y010502D01*
X005097Y010470D01*
X005037Y010442D01*
X004976Y010417D01*
X004913Y010396D01*
X004849Y010378D01*
X004784Y010365D01*
X004718Y010355D01*
X004652Y010350D01*
X004586Y010348D01*
X004586Y010357D01*
X004651Y010359D01*
X004717Y010364D01*
X004782Y010374D01*
X004847Y010387D01*
X004910Y010404D01*
X004973Y010425D01*
X005034Y010450D01*
X005093Y010478D01*
X005151Y010510D01*
X005207Y010545D01*
X005260Y010583D01*
X005311Y010625D01*
X005360Y010669D01*
X005406Y010716D01*
X005449Y010766D01*
X005489Y010819D01*
X005526Y010873D01*
X005559Y010930D01*
X005551Y010934D01*
X005518Y010878D01*
X005482Y010824D01*
X005442Y010772D01*
X005399Y010722D01*
X005354Y010676D01*
X005306Y010631D01*
X005255Y010590D01*
X005202Y010552D01*
X005146Y010518D01*
X005089Y010486D01*
X005030Y010458D01*
X004970Y010434D01*
X004908Y010413D01*
X004845Y010396D01*
X004781Y010383D01*
X004716Y010373D01*
X004651Y010368D01*
X004586Y010366D01*
X004586Y010375D01*
X004651Y010377D01*
X004715Y010382D01*
X004779Y010392D01*
X004843Y010405D01*
X004905Y010422D01*
X004966Y010442D01*
X005027Y010466D01*
X005085Y010494D01*
X005142Y010525D01*
X005197Y010560D01*
X005249Y010598D01*
X005300Y010638D01*
X005347Y010682D01*
X005393Y010728D01*
X005435Y010777D01*
X005474Y010829D01*
X005510Y010883D01*
X005543Y010938D01*
X003724Y010760D02*
X003797Y010813D01*
X003796Y010812D02*
X003834Y010764D01*
X003875Y010718D01*
X003918Y010675D01*
X003964Y010634D01*
X004011Y010595D01*
X004062Y010560D01*
X004114Y010527D01*
X004167Y010498D01*
X004223Y010472D01*
X004280Y010449D01*
X004338Y010429D01*
X004397Y010413D01*
X004457Y010400D01*
X004517Y010390D01*
X004579Y010384D01*
X004573Y010295D01*
X004507Y010301D01*
X004441Y010311D01*
X004376Y010325D01*
X004311Y010343D01*
X004248Y010364D01*
X004187Y010389D01*
X004126Y010418D01*
X004068Y010450D01*
X004012Y010485D01*
X003957Y010524D01*
X003905Y010565D01*
X003856Y010610D01*
X003809Y010657D01*
X003765Y010707D01*
X003724Y010759D01*
X003731Y010765D01*
X003772Y010713D01*
X003815Y010663D01*
X003862Y010616D01*
X003911Y010572D01*
X003963Y010531D01*
X004017Y010493D01*
X004073Y010458D01*
X004131Y010426D01*
X004190Y010398D01*
X004252Y010373D01*
X004314Y010351D01*
X004378Y010334D01*
X004442Y010320D01*
X004508Y010310D01*
X004573Y010304D01*
X004574Y010313D01*
X004509Y010319D01*
X004444Y010329D01*
X004380Y010343D01*
X004317Y010360D01*
X004255Y010381D01*
X004194Y010406D01*
X004135Y010434D01*
X004077Y010465D01*
X004022Y010500D01*
X003968Y010538D01*
X003917Y010579D01*
X003868Y010623D01*
X003822Y010669D01*
X003779Y010718D01*
X003738Y010770D01*
X003745Y010775D01*
X003785Y010724D01*
X003829Y010675D01*
X003874Y010629D01*
X003923Y010586D01*
X003973Y010545D01*
X004027Y010508D01*
X004082Y010473D01*
X004139Y010442D01*
X004197Y010414D01*
X004258Y010390D01*
X004319Y010369D01*
X004382Y010351D01*
X004446Y010338D01*
X004510Y010328D01*
X004575Y010322D01*
X004575Y010331D01*
X004511Y010337D01*
X004447Y010347D01*
X004384Y010360D01*
X004322Y010377D01*
X004261Y010398D01*
X004201Y010422D01*
X004143Y010450D01*
X004086Y010481D01*
X004032Y010515D01*
X003979Y010552D01*
X003929Y010593D01*
X003881Y010636D01*
X003835Y010681D01*
X003792Y010730D01*
X003753Y010781D01*
X003760Y010786D01*
X003799Y010736D01*
X003842Y010688D01*
X003887Y010642D01*
X003934Y010599D01*
X003984Y010560D01*
X004037Y010523D01*
X004091Y010489D01*
X004147Y010458D01*
X004205Y010431D01*
X004264Y010406D01*
X004325Y010386D01*
X004386Y010369D01*
X004449Y010355D01*
X004512Y010346D01*
X004576Y010339D01*
X004576Y010348D01*
X004513Y010355D01*
X004450Y010364D01*
X004388Y010378D01*
X004327Y010395D01*
X004267Y010415D01*
X004208Y010439D01*
X004151Y010466D01*
X004095Y010496D01*
X004042Y010530D01*
X003990Y010567D01*
X003940Y010606D01*
X003893Y010649D01*
X003848Y010694D01*
X003806Y010741D01*
X003767Y010791D01*
X003774Y010797D01*
X003813Y010747D01*
X003855Y010700D01*
X003899Y010655D01*
X003946Y010613D01*
X003995Y010574D01*
X004047Y010538D01*
X004100Y010504D01*
X004155Y010474D01*
X004212Y010447D01*
X004270Y010423D01*
X004330Y010403D01*
X004390Y010386D01*
X004452Y010373D01*
X004514Y010364D01*
X004577Y010357D01*
X004577Y010366D01*
X004515Y010372D01*
X004454Y010382D01*
X004393Y010395D01*
X004332Y010412D01*
X004273Y010432D01*
X004216Y010455D01*
X004159Y010482D01*
X004104Y010512D01*
X004052Y010545D01*
X004001Y010581D01*
X003952Y010620D01*
X003905Y010662D01*
X003861Y010706D01*
X003820Y010753D01*
X003782Y010802D01*
X003789Y010807D01*
X003827Y010759D01*
X003868Y010712D01*
X003912Y010668D01*
X003958Y010627D01*
X004006Y010588D01*
X004057Y010552D01*
X004109Y010520D01*
X004163Y010490D01*
X004219Y010463D01*
X004277Y010440D01*
X004335Y010420D01*
X004395Y010404D01*
X004455Y010391D01*
X004516Y010381D01*
X004578Y010375D01*
D14*
X005602Y010622D02*
X005892Y010622D01*
X005752Y010472D02*
X005752Y010782D01*
X007020Y009742D02*
X007471Y009742D01*
X007020Y009442D01*
X007471Y009442D01*
X007471Y009282D02*
X007321Y009132D01*
X007321Y009207D02*
X007321Y008981D01*
X007245Y008821D02*
X007245Y008521D01*
X007170Y008521D02*
X007020Y008671D01*
X007170Y008821D01*
X007471Y008821D01*
X007471Y008981D02*
X007020Y008981D01*
X007020Y009207D01*
X007095Y009282D01*
X007245Y009282D01*
X007321Y009207D01*
X007471Y008521D02*
X007170Y008521D01*
X007020Y008361D02*
X007020Y008061D01*
X007471Y008061D01*
X007471Y008361D01*
X007245Y008211D02*
X007245Y008061D01*
X007471Y007901D02*
X007471Y007600D01*
X007020Y007600D01*
X007073Y006684D02*
X007073Y006383D01*
X007524Y006383D01*
X007524Y006684D01*
X007299Y006534D02*
X007299Y006383D01*
X007449Y006223D02*
X007148Y006223D01*
X007073Y006148D01*
X007073Y005923D01*
X007524Y005923D01*
X007524Y006148D01*
X007449Y006223D01*
X007449Y005763D02*
X007148Y005763D01*
X007073Y005688D01*
X007073Y005538D01*
X007148Y005463D01*
X007449Y005463D01*
X007524Y005538D01*
X007524Y005688D01*
X007449Y005763D01*
X007524Y005303D02*
X007073Y005303D01*
X007224Y005152D01*
X007073Y005002D01*
X007524Y005002D01*
X006538Y003423D02*
X006387Y003273D01*
X006387Y003348D02*
X006312Y003423D01*
X006162Y003423D01*
X006087Y003348D01*
X006087Y003123D01*
X006538Y003123D01*
X006463Y002963D02*
X006162Y002963D01*
X006087Y002888D01*
X006087Y002663D01*
X006538Y002663D01*
X006538Y002888D01*
X006463Y002963D01*
X006387Y003123D02*
X006387Y003348D01*
X006538Y002503D02*
X006538Y002202D01*
X006087Y002202D01*
D15*
X005147Y005327D02*
X005147Y005422D01*
X004647Y005422D01*
X004647Y005327D01*
X004672Y006432D02*
X004672Y006527D01*
X004672Y006432D02*
X005147Y006432D01*
X005147Y006527D01*
X005147Y008327D02*
X005147Y008422D01*
X004647Y008422D01*
X004647Y008327D01*
X004672Y009432D02*
X004672Y009527D01*
X004672Y009432D02*
X005147Y009432D01*
X005147Y009527D01*
M02*
