G75*
%MOIN*%
%OFA0B0*%
%FSLAX24Y24*%
%IPPOS*%
%LPD*%
%AMOC8*
5,1,8,0,0,1.08239X$1,22.5*
%
%ADD10C,0.0000*%
%ADD11C,0.0600*%
%ADD12R,0.0112X0.0276*%
%ADD13OC8,0.0850*%
%ADD14C,0.0554*%
%ADD15R,0.0157X0.0531*%
%ADD16C,0.0120*%
%ADD17C,0.0080*%
%ADD18R,0.0356X0.0356*%
%ADD19C,0.0239*%
%ADD20C,0.0240*%
%ADD21C,0.0160*%
%ADD22C,0.1660*%
D10*
X000180Y000180D02*
X000180Y019865D01*
X019865Y019865D01*
X019865Y000180D01*
X000180Y000180D01*
X000528Y007048D02*
X000530Y007087D01*
X000536Y007126D01*
X000546Y007164D01*
X000559Y007201D01*
X000576Y007236D01*
X000596Y007270D01*
X000620Y007301D01*
X000647Y007330D01*
X000676Y007356D01*
X000708Y007379D01*
X000742Y007399D01*
X000778Y007415D01*
X000815Y007427D01*
X000854Y007436D01*
X000893Y007441D01*
X000932Y007442D01*
X000971Y007439D01*
X001010Y007432D01*
X001047Y007421D01*
X001084Y007407D01*
X001119Y007389D01*
X001152Y007368D01*
X001183Y007343D01*
X001211Y007316D01*
X001236Y007286D01*
X001258Y007253D01*
X001277Y007219D01*
X001292Y007183D01*
X001304Y007145D01*
X001312Y007107D01*
X001316Y007068D01*
X001316Y007028D01*
X001312Y006989D01*
X001304Y006951D01*
X001292Y006913D01*
X001277Y006877D01*
X001258Y006843D01*
X001236Y006810D01*
X001211Y006780D01*
X001183Y006753D01*
X001152Y006728D01*
X001119Y006707D01*
X001084Y006689D01*
X001047Y006675D01*
X001010Y006664D01*
X000971Y006657D01*
X000932Y006654D01*
X000893Y006655D01*
X000854Y006660D01*
X000815Y006669D01*
X000778Y006681D01*
X000742Y006697D01*
X000708Y006717D01*
X000676Y006740D01*
X000647Y006766D01*
X000620Y006795D01*
X000596Y006826D01*
X000576Y006860D01*
X000559Y006895D01*
X000546Y006932D01*
X000536Y006970D01*
X000530Y007009D01*
X000528Y007048D01*
X000530Y007087D01*
X000536Y007126D01*
X000546Y007164D01*
X000559Y007201D01*
X000576Y007236D01*
X000596Y007270D01*
X000620Y007301D01*
X000647Y007330D01*
X000676Y007356D01*
X000708Y007379D01*
X000742Y007399D01*
X000778Y007415D01*
X000815Y007427D01*
X000854Y007436D01*
X000893Y007441D01*
X000932Y007442D01*
X000971Y007439D01*
X001010Y007432D01*
X001047Y007421D01*
X001084Y007407D01*
X001119Y007389D01*
X001152Y007368D01*
X001183Y007343D01*
X001211Y007316D01*
X001236Y007286D01*
X001258Y007253D01*
X001277Y007219D01*
X001292Y007183D01*
X001304Y007145D01*
X001312Y007107D01*
X001316Y007068D01*
X001316Y007028D01*
X001312Y006989D01*
X001304Y006951D01*
X001292Y006913D01*
X001277Y006877D01*
X001258Y006843D01*
X001236Y006810D01*
X001211Y006780D01*
X001183Y006753D01*
X001152Y006728D01*
X001119Y006707D01*
X001084Y006689D01*
X001047Y006675D01*
X001010Y006664D01*
X000971Y006657D01*
X000932Y006654D01*
X000893Y006655D01*
X000854Y006660D01*
X000815Y006669D01*
X000778Y006681D01*
X000742Y006697D01*
X000708Y006717D01*
X000676Y006740D01*
X000647Y006766D01*
X000620Y006795D01*
X000596Y006826D01*
X000576Y006860D01*
X000559Y006895D01*
X000546Y006932D01*
X000536Y006970D01*
X000530Y007009D01*
X000528Y007048D01*
X018630Y007048D02*
X018632Y007087D01*
X018638Y007126D01*
X018648Y007164D01*
X018661Y007201D01*
X018678Y007236D01*
X018698Y007270D01*
X018722Y007301D01*
X018749Y007330D01*
X018778Y007356D01*
X018810Y007379D01*
X018844Y007399D01*
X018880Y007415D01*
X018917Y007427D01*
X018956Y007436D01*
X018995Y007441D01*
X019034Y007442D01*
X019073Y007439D01*
X019112Y007432D01*
X019149Y007421D01*
X019186Y007407D01*
X019221Y007389D01*
X019254Y007368D01*
X019285Y007343D01*
X019313Y007316D01*
X019338Y007286D01*
X019360Y007253D01*
X019379Y007219D01*
X019394Y007183D01*
X019406Y007145D01*
X019414Y007107D01*
X019418Y007068D01*
X019418Y007028D01*
X019414Y006989D01*
X019406Y006951D01*
X019394Y006913D01*
X019379Y006877D01*
X019360Y006843D01*
X019338Y006810D01*
X019313Y006780D01*
X019285Y006753D01*
X019254Y006728D01*
X019221Y006707D01*
X019186Y006689D01*
X019149Y006675D01*
X019112Y006664D01*
X019073Y006657D01*
X019034Y006654D01*
X018995Y006655D01*
X018956Y006660D01*
X018917Y006669D01*
X018880Y006681D01*
X018844Y006697D01*
X018810Y006717D01*
X018778Y006740D01*
X018749Y006766D01*
X018722Y006795D01*
X018698Y006826D01*
X018678Y006860D01*
X018661Y006895D01*
X018648Y006932D01*
X018638Y006970D01*
X018632Y007009D01*
X018630Y007048D01*
X018632Y007087D01*
X018638Y007126D01*
X018648Y007164D01*
X018661Y007201D01*
X018678Y007236D01*
X018698Y007270D01*
X018722Y007301D01*
X018749Y007330D01*
X018778Y007356D01*
X018810Y007379D01*
X018844Y007399D01*
X018880Y007415D01*
X018917Y007427D01*
X018956Y007436D01*
X018995Y007441D01*
X019034Y007442D01*
X019073Y007439D01*
X019112Y007432D01*
X019149Y007421D01*
X019186Y007407D01*
X019221Y007389D01*
X019254Y007368D01*
X019285Y007343D01*
X019313Y007316D01*
X019338Y007286D01*
X019360Y007253D01*
X019379Y007219D01*
X019394Y007183D01*
X019406Y007145D01*
X019414Y007107D01*
X019418Y007068D01*
X019418Y007028D01*
X019414Y006989D01*
X019406Y006951D01*
X019394Y006913D01*
X019379Y006877D01*
X019360Y006843D01*
X019338Y006810D01*
X019313Y006780D01*
X019285Y006753D01*
X019254Y006728D01*
X019221Y006707D01*
X019186Y006689D01*
X019149Y006675D01*
X019112Y006664D01*
X019073Y006657D01*
X019034Y006654D01*
X018995Y006655D01*
X018956Y006660D01*
X018917Y006669D01*
X018880Y006681D01*
X018844Y006697D01*
X018810Y006717D01*
X018778Y006740D01*
X018749Y006766D01*
X018722Y006795D01*
X018698Y006826D01*
X018678Y006860D01*
X018661Y006895D01*
X018648Y006932D01*
X018638Y006970D01*
X018632Y007009D01*
X018630Y007048D01*
D11*
X001523Y011750D02*
X000923Y011750D01*
X000923Y012750D02*
X001523Y012750D01*
X001523Y013750D02*
X000923Y013750D01*
X000923Y014750D02*
X001523Y014750D01*
X001523Y015750D02*
X000923Y015750D01*
X000923Y016750D02*
X001523Y016750D01*
D12*
X015124Y013726D03*
X015231Y013726D03*
X015339Y013726D03*
X015446Y013726D03*
X015553Y013726D03*
X015659Y013727D03*
X015856Y013727D03*
X016053Y013727D03*
X016158Y013727D03*
X016265Y013727D03*
X016373Y013727D03*
X016480Y013727D03*
X016587Y013727D03*
X016070Y014110D03*
X015963Y014110D03*
X015856Y014110D03*
X015748Y014110D03*
X015640Y014110D03*
X015856Y013947D03*
X015856Y013078D03*
X015856Y012882D03*
X015856Y012695D03*
X015963Y012694D03*
X016070Y012695D03*
X015748Y012695D03*
X015640Y012695D03*
X015659Y013078D03*
X015552Y013078D03*
X015445Y013078D03*
X015338Y013078D03*
X015230Y013078D03*
X015123Y013078D03*
X016053Y013078D03*
X016162Y013078D03*
X016269Y013078D03*
X016377Y013078D03*
X016484Y013078D03*
X016591Y013078D03*
X016046Y015856D03*
X015849Y015856D03*
X015653Y015856D03*
X015653Y016506D03*
X015849Y016506D03*
X016046Y016506D03*
D13*
X016099Y018983D03*
X014721Y019001D03*
X013374Y018976D03*
X012073Y018981D03*
X010739Y018970D03*
X009422Y018962D03*
X019138Y016479D03*
X019147Y015215D03*
X019119Y013299D03*
D14*
X017162Y010326D02*
X017162Y009771D01*
X017162Y009326D02*
X017162Y008771D01*
X016162Y008771D02*
X016162Y009326D01*
X016162Y009771D02*
X016162Y010326D01*
X015162Y010326D02*
X015162Y009771D01*
X015162Y009326D02*
X015162Y008771D01*
X014162Y008771D02*
X014162Y009326D01*
X014162Y009771D02*
X014162Y010326D01*
X013162Y010326D02*
X013162Y009771D01*
X013162Y009326D02*
X013162Y008771D01*
X012162Y008771D02*
X012162Y009326D01*
X012162Y009771D02*
X012162Y010326D01*
X011162Y010326D02*
X011162Y009771D01*
X011162Y009326D02*
X011162Y008771D01*
X010162Y008771D02*
X010162Y009326D01*
X010162Y009771D02*
X010162Y010326D01*
X009162Y010326D02*
X009162Y009771D01*
X009162Y009326D02*
X009162Y008771D01*
X008162Y008771D02*
X008162Y009326D01*
X008162Y009771D02*
X008162Y010326D01*
X007162Y010326D02*
X007162Y009771D01*
X007162Y009326D02*
X007162Y008771D01*
X006162Y008771D02*
X006162Y009326D01*
X006162Y009771D02*
X006162Y010326D01*
X005162Y010326D02*
X005162Y009771D01*
X005162Y009326D02*
X005162Y008771D01*
X004162Y008771D02*
X004162Y009326D01*
X004162Y009771D02*
X004162Y010326D01*
X004162Y005326D02*
X004162Y004771D01*
X004162Y004326D02*
X004162Y003771D01*
X005162Y003771D02*
X005162Y004326D01*
X005162Y004771D02*
X005162Y005326D01*
X006162Y005326D02*
X006162Y004771D01*
X006162Y004326D02*
X006162Y003771D01*
X007162Y003771D02*
X007162Y004326D01*
X007162Y004771D02*
X007162Y005326D01*
X008162Y005326D02*
X008162Y004771D01*
X008162Y004326D02*
X008162Y003771D01*
X009162Y003771D02*
X009162Y004326D01*
X009162Y004771D02*
X009162Y005326D01*
X010162Y005326D02*
X010162Y004771D01*
X010162Y004326D02*
X010162Y003771D01*
X011162Y003771D02*
X011162Y004326D01*
X011162Y004771D02*
X011162Y005326D01*
X012162Y005326D02*
X012162Y004771D01*
X012162Y004326D02*
X012162Y003771D01*
X013162Y003771D02*
X013162Y004326D01*
X013162Y004771D02*
X013162Y005326D01*
X014162Y005326D02*
X014162Y004771D01*
X014162Y004326D02*
X014162Y003771D01*
X015162Y003771D02*
X015162Y004326D01*
X015162Y004771D02*
X015162Y005326D01*
X016162Y005326D02*
X016162Y004771D01*
X016162Y004326D02*
X016162Y003771D01*
X017162Y003771D02*
X017162Y004326D01*
X017162Y004771D02*
X017162Y005326D01*
D15*
X011708Y014216D03*
X011452Y014216D03*
X011196Y014216D03*
X010940Y014216D03*
X010940Y015909D03*
X011196Y015909D03*
X011452Y015909D03*
X011708Y015909D03*
D16*
X014874Y013727D02*
X015083Y013727D01*
X015659Y013727D01*
X015856Y013727D02*
X015861Y013727D01*
X015861Y014522D01*
X016053Y013727D02*
X016674Y013728D01*
X016864Y013728D01*
X016845Y013081D02*
X016559Y013081D01*
X016053Y013078D01*
X015862Y013078D02*
X015867Y012352D01*
X015856Y013078D02*
X015862Y013078D01*
X015659Y013078D02*
X015314Y013078D01*
X014889Y013079D01*
D17*
X014830Y013100D01*
X014810Y013100D01*
X014810Y013130D01*
X015020Y013340D01*
X016740Y013340D01*
X018610Y015210D01*
X019140Y015210D01*
X019147Y015215D01*
X019130Y016470D02*
X019138Y016479D01*
X019130Y016470D02*
X016890Y014230D01*
X016890Y013780D01*
X016864Y013728D01*
X016900Y013110D02*
X016845Y013081D01*
X016900Y013110D02*
X018930Y013110D01*
X019110Y013290D01*
X019119Y013299D01*
X016290Y015410D02*
X016290Y016630D01*
X016150Y016770D01*
X015850Y016770D01*
X015850Y016510D01*
X015849Y016506D01*
X016040Y016500D02*
X016040Y016330D01*
X015850Y016140D01*
X015820Y016160D01*
X015470Y016160D01*
X015653Y015856D02*
X015660Y015850D01*
X015660Y015510D01*
X015880Y015217D02*
X016108Y015218D01*
X012186Y015211D01*
X012160Y015070D01*
X011520Y015070D01*
X010950Y015640D01*
X010950Y015900D01*
X010940Y015909D01*
X011190Y015910D02*
X011196Y015909D01*
X011190Y015910D02*
X011190Y017200D01*
X009430Y018960D01*
X009422Y018962D01*
X010739Y018970D02*
X010740Y018970D01*
X011450Y018260D01*
X011450Y015910D01*
X011452Y015909D01*
X011708Y015909D02*
X011710Y015910D01*
X011710Y018620D01*
X012070Y018980D01*
X012073Y018981D01*
X014721Y019001D02*
X014730Y019000D01*
X015650Y018080D01*
X015650Y016510D01*
X015653Y016506D01*
X015850Y016770D02*
X015850Y018740D01*
X016090Y018980D01*
X016099Y018983D01*
X016046Y016506D02*
X016040Y016500D01*
X015850Y016140D02*
X015850Y015860D01*
X015849Y015856D01*
X016046Y015856D02*
X016050Y015850D01*
X016050Y015510D01*
X016290Y015410D02*
X016108Y015218D01*
X015880Y014580D02*
X015861Y014522D01*
X014874Y013727D02*
X014820Y013750D01*
X014720Y013750D01*
X011400Y013750D01*
X011380Y013750D01*
X011400Y013750D02*
X011200Y013950D01*
X011200Y014210D01*
X011196Y014216D01*
X010950Y014210D02*
X010940Y014216D01*
X010950Y014210D02*
X010950Y013840D01*
X010920Y013820D01*
X008090Y013820D01*
X004320Y010050D01*
X004170Y010050D01*
X004162Y010048D01*
X006160Y010040D02*
X006160Y009050D01*
X006162Y009048D01*
X006160Y010040D02*
X006162Y010048D01*
X007160Y010040D02*
X007160Y009050D01*
X007162Y009048D01*
X007160Y010040D02*
X007162Y010048D01*
X008160Y010040D02*
X008160Y009050D01*
X008162Y009048D01*
X008160Y010040D02*
X008162Y010048D01*
X009160Y010040D02*
X009160Y009050D01*
X009162Y009048D01*
X009160Y010040D02*
X009162Y010048D01*
X010154Y010040D02*
X010160Y010050D01*
X010162Y010048D01*
X010160Y009060D02*
X010162Y009048D01*
X013160Y009050D02*
X013162Y009048D01*
X013160Y009050D02*
X013160Y010040D01*
X013162Y010048D01*
X014160Y010040D02*
X014160Y009050D01*
X014162Y009048D01*
X014160Y010040D02*
X014162Y010048D01*
X015160Y010040D02*
X015160Y009050D01*
X015162Y009048D01*
X015160Y010040D02*
X015162Y010048D01*
X016160Y010040D02*
X016160Y009050D01*
X016162Y009048D01*
X016160Y010040D02*
X016162Y010048D01*
X017160Y010040D02*
X017160Y009050D01*
X017162Y009048D01*
X017160Y010040D02*
X017162Y010048D01*
X014810Y013100D02*
X011690Y013100D01*
X010950Y013840D01*
X011452Y014216D02*
X011460Y014220D01*
X011460Y014830D01*
X004164Y015280D02*
X004162Y012530D01*
X002420Y014610D02*
X002420Y015560D01*
X001230Y016750D01*
X001223Y016750D01*
X001230Y014750D02*
X001223Y014750D01*
X001230Y014750D02*
X001950Y014030D01*
X001950Y005420D01*
X004850Y002520D01*
X005120Y002760D02*
X005150Y002760D01*
X006160Y003770D01*
X006160Y004040D01*
X006162Y004048D01*
X006160Y004090D01*
X006160Y005040D01*
X006162Y005048D01*
X007160Y005040D02*
X007160Y004050D01*
X007162Y004048D01*
X007160Y005040D02*
X007162Y005048D01*
X008160Y005040D02*
X008160Y004050D01*
X008162Y004048D01*
X008160Y005040D02*
X008162Y005048D01*
X009160Y005040D02*
X009160Y004050D01*
X009162Y004048D01*
X009160Y005040D02*
X009162Y005048D01*
X005162Y005048D02*
X005160Y005040D01*
X005160Y004080D01*
X005162Y004048D01*
X005170Y004040D01*
X005180Y004030D01*
X005180Y003130D01*
X014160Y004050D02*
X014162Y004048D01*
X014160Y004050D02*
X014160Y005040D01*
X014162Y005048D01*
X015160Y005040D02*
X015160Y004050D01*
X015162Y004048D01*
X015160Y005040D02*
X015162Y005048D01*
X016160Y005040D02*
X016160Y004050D01*
X016162Y004048D01*
X016160Y005040D02*
X016162Y005048D01*
X017160Y005040D02*
X017160Y004050D01*
X017162Y004048D01*
X017160Y005040D02*
X017162Y005048D01*
D18*
X004162Y012530D03*
X004164Y015280D03*
D19*
X012160Y015070D03*
X014720Y013750D03*
D20*
X015880Y014580D03*
X015880Y015217D03*
X016050Y015510D03*
X015660Y015510D03*
X015470Y016160D03*
X011460Y014830D03*
X011380Y013750D03*
X002420Y014610D03*
X005180Y003130D03*
X005120Y002760D03*
X004850Y002520D03*
D21*
X005103Y002399D02*
X019685Y002399D01*
X019685Y002241D02*
X004907Y002241D01*
X004906Y002240D02*
X005009Y002283D01*
X005087Y002361D01*
X005130Y002464D01*
X005130Y002480D01*
X005176Y002480D01*
X005279Y002523D01*
X005357Y002601D01*
X005400Y002704D01*
X005400Y002727D01*
X006027Y003354D01*
X006075Y003334D01*
X006249Y003334D01*
X006410Y003401D01*
X006533Y003524D01*
X006599Y003684D01*
X006599Y004412D01*
X006543Y004548D01*
X006599Y004684D01*
X006599Y005412D01*
X006533Y005573D01*
X006410Y005696D01*
X006249Y005763D01*
X006075Y005763D01*
X005915Y005696D01*
X005792Y005573D01*
X005725Y005412D01*
X005725Y004684D01*
X005781Y004548D01*
X005725Y004412D01*
X005725Y003684D01*
X005745Y003637D01*
X005407Y003299D01*
X005380Y003326D01*
X005380Y003388D01*
X005410Y003401D01*
X005533Y003524D01*
X005599Y003684D01*
X005599Y004412D01*
X005543Y004548D01*
X005599Y004684D01*
X005599Y005412D01*
X005533Y005573D01*
X005410Y005696D01*
X005249Y005763D01*
X005075Y005763D01*
X004915Y005696D01*
X004792Y005573D01*
X004725Y005412D01*
X004725Y004684D01*
X004781Y004548D01*
X004725Y004412D01*
X004725Y003684D01*
X004792Y003524D01*
X004915Y003401D01*
X004980Y003374D01*
X004980Y003326D01*
X004943Y003289D01*
X004900Y003186D01*
X004900Y003074D01*
X004941Y002976D01*
X004883Y002919D01*
X004840Y002816D01*
X004840Y002813D01*
X004298Y003354D01*
X004410Y003401D01*
X004533Y003524D01*
X004599Y003684D01*
X004599Y004412D01*
X004543Y004548D01*
X004599Y004684D01*
X004599Y005412D01*
X004533Y005573D01*
X004410Y005696D01*
X004249Y005763D01*
X004075Y005763D01*
X003915Y005696D01*
X003792Y005573D01*
X003725Y005412D01*
X003725Y004684D01*
X003781Y004548D01*
X003725Y004412D01*
X003725Y003928D01*
X002150Y005503D01*
X002150Y014113D01*
X001843Y014420D01*
X001913Y014490D01*
X001983Y014659D01*
X001983Y014842D01*
X001913Y015011D01*
X001783Y015140D01*
X001614Y015210D01*
X000831Y015210D01*
X000662Y015140D01*
X000533Y015011D01*
X000463Y014842D01*
X000463Y014659D01*
X000533Y014490D01*
X000662Y014360D01*
X000831Y014290D01*
X001407Y014290D01*
X001487Y014210D01*
X000831Y014210D01*
X000662Y014140D01*
X000533Y014011D01*
X000463Y013842D01*
X000463Y013659D01*
X000533Y013490D01*
X000662Y013360D01*
X000831Y013290D01*
X001614Y013290D01*
X001750Y013346D01*
X001750Y013173D01*
X001707Y013195D01*
X001635Y013218D01*
X001561Y013230D01*
X001243Y013230D01*
X001243Y012770D01*
X001203Y012770D01*
X001203Y012730D01*
X001243Y012730D01*
X001243Y012270D01*
X001561Y012270D01*
X001635Y012282D01*
X001707Y012305D01*
X001750Y012327D01*
X001750Y012173D01*
X001707Y012195D01*
X001635Y012218D01*
X001561Y012230D01*
X001243Y012230D01*
X001243Y011770D01*
X001203Y011770D01*
X001203Y011730D01*
X001243Y011730D01*
X001243Y011270D01*
X001561Y011270D01*
X001635Y011282D01*
X001707Y011305D01*
X001750Y011327D01*
X001750Y005337D01*
X001867Y005220D01*
X004570Y002517D01*
X004570Y002464D01*
X004613Y002361D01*
X004691Y002283D01*
X004794Y002240D01*
X004906Y002240D01*
X004793Y002241D02*
X000360Y002241D01*
X000360Y002399D02*
X004597Y002399D01*
X004530Y002558D02*
X000360Y002558D01*
X000360Y002716D02*
X004371Y002716D01*
X004213Y002875D02*
X000360Y002875D01*
X000360Y003033D02*
X004054Y003033D01*
X003896Y003192D02*
X000360Y003192D01*
X000360Y003350D02*
X003737Y003350D01*
X003579Y003509D02*
X000360Y003509D01*
X000360Y003667D02*
X003420Y003667D01*
X003262Y003826D02*
X000360Y003826D01*
X000360Y003984D02*
X003103Y003984D01*
X002945Y004143D02*
X000360Y004143D01*
X000360Y004301D02*
X002786Y004301D01*
X002628Y004460D02*
X000360Y004460D01*
X000360Y004618D02*
X002469Y004618D01*
X002311Y004777D02*
X000360Y004777D01*
X000360Y004935D02*
X002152Y004935D01*
X001994Y005094D02*
X000360Y005094D01*
X000360Y005252D02*
X001835Y005252D01*
X001750Y005411D02*
X000360Y005411D01*
X000360Y005569D02*
X001750Y005569D01*
X001750Y005728D02*
X000360Y005728D01*
X000360Y005886D02*
X001750Y005886D01*
X001750Y006045D02*
X000360Y006045D01*
X000360Y006203D02*
X001750Y006203D01*
X001750Y006362D02*
X000360Y006362D01*
X000360Y006520D02*
X000698Y006520D01*
X000597Y006562D02*
X000436Y006723D01*
X000360Y006906D01*
X000360Y001760D01*
X000469Y001869D01*
X000833Y002020D01*
X001227Y002020D01*
X001591Y001869D01*
X001869Y001591D01*
X002020Y001227D01*
X002020Y000833D01*
X001869Y000469D01*
X001760Y000360D01*
X018292Y000360D01*
X018170Y000482D01*
X018019Y000845D01*
X018019Y001239D01*
X018170Y001603D01*
X018449Y001882D01*
X018812Y002032D01*
X019206Y002032D01*
X019570Y001882D01*
X019685Y001767D01*
X019685Y013038D01*
X019361Y012714D01*
X018876Y012714D01*
X018680Y012910D01*
X016985Y012910D01*
X016937Y012862D01*
X016795Y012861D01*
X016713Y012780D01*
X016606Y012780D01*
X016606Y012780D01*
X016362Y012780D01*
X016361Y012780D01*
X016286Y012780D01*
X016286Y012490D01*
X016192Y012397D01*
X016085Y012397D01*
X016085Y012397D01*
X015840Y012397D01*
X015840Y012397D01*
X015518Y012397D01*
X015424Y012491D01*
X015424Y012780D01*
X015323Y012780D01*
X015322Y012780D01*
X015000Y012780D01*
X014922Y012859D01*
X014797Y012859D01*
X014756Y012900D01*
X011607Y012900D01*
X010887Y013620D01*
X008173Y013620D01*
X005296Y010743D01*
X005410Y010696D01*
X005533Y010573D01*
X005599Y010412D01*
X005599Y009684D01*
X005543Y009548D01*
X005599Y009412D01*
X005599Y008684D01*
X005533Y008524D01*
X005410Y008401D01*
X005249Y008334D01*
X005075Y008334D01*
X004915Y008401D01*
X004792Y008524D01*
X004725Y008684D01*
X004725Y009412D01*
X004781Y009548D01*
X004725Y009684D01*
X004725Y010172D01*
X004599Y010047D01*
X004599Y009684D01*
X004543Y009548D01*
X004599Y009412D01*
X004599Y008684D01*
X004533Y008524D01*
X004410Y008401D01*
X004249Y008334D01*
X004075Y008334D01*
X003915Y008401D01*
X003792Y008524D01*
X003725Y008684D01*
X003725Y009412D01*
X003781Y009548D01*
X003725Y009684D01*
X003725Y010412D01*
X003792Y010573D01*
X003915Y010696D01*
X004075Y010763D01*
X004249Y010763D01*
X004410Y010696D01*
X004533Y010573D01*
X004541Y010554D01*
X007890Y013903D01*
X008007Y014020D01*
X010701Y014020D01*
X010701Y014548D01*
X010795Y014642D01*
X011252Y014642D01*
X011223Y014671D01*
X011180Y014774D01*
X011180Y014886D01*
X011223Y014989D01*
X011271Y015037D01*
X010824Y015483D01*
X010795Y015483D01*
X010701Y015577D01*
X010701Y016241D01*
X010795Y016335D01*
X010990Y016335D01*
X010990Y017117D01*
X009697Y018410D01*
X009664Y018377D01*
X009179Y018377D01*
X008837Y018720D01*
X008837Y019204D01*
X009179Y019547D01*
X009664Y019547D01*
X010007Y019204D01*
X010007Y018720D01*
X009980Y018693D01*
X011250Y017423D01*
X011250Y018177D01*
X011011Y018416D01*
X010981Y018385D01*
X010496Y018385D01*
X010154Y018728D01*
X010154Y019213D01*
X010496Y019555D01*
X010981Y019555D01*
X011324Y019213D01*
X011324Y018728D01*
X011294Y018699D01*
X011510Y018483D01*
X011510Y018703D01*
X011517Y018710D01*
X011488Y018739D01*
X011488Y019224D01*
X011831Y019566D01*
X012315Y019566D01*
X012658Y019224D01*
X012658Y018739D01*
X012315Y018396D01*
X011910Y018396D01*
X011910Y016278D01*
X011947Y016241D01*
X011947Y015577D01*
X011853Y015483D01*
X011390Y015483D01*
X011603Y015270D01*
X011965Y015270D01*
X011986Y015291D01*
X011986Y015294D01*
X012000Y015308D01*
X012004Y015329D01*
X012057Y015365D01*
X012103Y015411D01*
X012124Y015411D01*
X012141Y015423D01*
X012204Y015411D01*
X015396Y015417D01*
X015380Y015454D01*
X015380Y015566D01*
X015423Y015669D01*
X015436Y015682D01*
X015436Y016060D01*
X015530Y016154D01*
X015710Y016154D01*
X015724Y016162D01*
X015770Y016174D01*
X015849Y016174D01*
X015849Y016080D01*
X015849Y016080D01*
X015849Y016080D01*
X015849Y016174D01*
X015929Y016174D01*
X015975Y016162D01*
X015988Y016154D01*
X016090Y016154D01*
X016090Y016188D01*
X016046Y016188D01*
X016046Y016283D01*
X016046Y016188D01*
X015967Y016188D01*
X015921Y016200D01*
X015907Y016208D01*
X015530Y016208D01*
X015436Y016302D01*
X015436Y016710D01*
X015450Y016724D01*
X015450Y017997D01*
X014997Y018450D01*
X014963Y018416D01*
X014479Y018416D01*
X014136Y018759D01*
X014136Y019244D01*
X014479Y019586D01*
X014963Y019586D01*
X015306Y019244D01*
X015306Y018759D01*
X015280Y018733D01*
X015650Y018363D01*
X015650Y018605D01*
X015514Y018741D01*
X015514Y019225D01*
X015857Y019568D01*
X016342Y019568D01*
X016684Y019225D01*
X016684Y018741D01*
X016342Y018398D01*
X016050Y018398D01*
X016050Y016970D01*
X016233Y016970D01*
X016350Y016853D01*
X016490Y016713D01*
X016490Y015413D01*
X016492Y015333D01*
X016490Y015330D01*
X016490Y015327D01*
X016433Y015271D01*
X016309Y015139D01*
X016309Y015136D01*
X016309Y015136D01*
X016309Y015136D01*
X016252Y015079D01*
X018196Y015079D01*
X018038Y014921D02*
X012401Y014921D01*
X012397Y014912D02*
X012438Y015012D01*
X015684Y015017D01*
X015721Y014980D01*
X015824Y014937D01*
X015936Y014937D01*
X016039Y014980D01*
X016076Y015017D01*
X016111Y015018D01*
X016192Y015018D01*
X016194Y015020D01*
X016197Y015020D01*
X016252Y015079D01*
X016192Y015018D02*
X016192Y015018D01*
X016192Y015018D01*
X016039Y014817D02*
X015936Y014860D01*
X015824Y014860D01*
X015721Y014817D01*
X015643Y014739D01*
X015600Y014636D01*
X015600Y014524D01*
X015641Y014425D01*
X015641Y014408D01*
X015518Y014408D01*
X015424Y014314D01*
X015424Y014024D01*
X015217Y014024D01*
X015001Y014024D01*
X014925Y013947D01*
X014918Y013947D01*
X014878Y013987D01*
X014776Y014030D01*
X014664Y014030D01*
X014562Y013987D01*
X014525Y013950D01*
X011967Y013950D01*
X011967Y014216D01*
X011967Y014506D01*
X011954Y014551D01*
X011931Y014592D01*
X011897Y014626D01*
X011856Y014650D01*
X011810Y014662D01*
X011708Y014662D01*
X011708Y014216D01*
X011708Y014216D01*
X011967Y014216D01*
X011708Y014216D01*
X011708Y014216D01*
X011708Y014662D01*
X011688Y014662D01*
X011697Y014671D01*
X011740Y014774D01*
X011740Y014870D01*
X011965Y014870D01*
X012002Y014833D01*
X012104Y014790D01*
X012216Y014790D01*
X012318Y014833D01*
X012397Y014912D01*
X011919Y014604D02*
X015600Y014604D01*
X015633Y014445D02*
X011967Y014445D01*
X011967Y014287D02*
X015424Y014287D01*
X015424Y014128D02*
X011967Y014128D01*
X011967Y013970D02*
X014544Y013970D01*
X014896Y013970D02*
X014947Y013970D01*
X015217Y014024D02*
X015217Y014024D01*
X015666Y014762D02*
X011735Y014762D01*
X011708Y014604D02*
X011708Y014604D01*
X011708Y014445D02*
X011708Y014445D01*
X011708Y014287D02*
X011708Y014287D01*
X011185Y014762D02*
X004364Y014762D01*
X004363Y014604D02*
X010757Y014604D01*
X010701Y014445D02*
X004363Y014445D01*
X004363Y014287D02*
X010701Y014287D01*
X010701Y014128D02*
X004363Y014128D01*
X004363Y013970D02*
X007957Y013970D01*
X007798Y013811D02*
X004363Y013811D01*
X004363Y013653D02*
X007640Y013653D01*
X007481Y013494D02*
X004363Y013494D01*
X004363Y013336D02*
X007323Y013336D01*
X007164Y013177D02*
X004363Y013177D01*
X004362Y013019D02*
X007006Y013019D01*
X006847Y012860D02*
X004415Y012860D01*
X004407Y012868D02*
X004500Y012775D01*
X004500Y012286D01*
X004407Y012192D01*
X003918Y012192D01*
X003824Y012286D01*
X003824Y012775D01*
X003918Y012868D01*
X003962Y012868D01*
X003964Y014942D01*
X003920Y014942D01*
X003826Y015036D01*
X003826Y015525D01*
X003920Y015619D01*
X004408Y015619D01*
X004502Y015525D01*
X004502Y015036D01*
X004408Y014942D01*
X004364Y014942D01*
X004362Y012868D01*
X004407Y012868D01*
X004500Y012702D02*
X006689Y012702D01*
X006530Y012543D02*
X004500Y012543D01*
X004500Y012385D02*
X006372Y012385D01*
X006213Y012226D02*
X004441Y012226D01*
X003884Y012226D02*
X002150Y012226D01*
X002150Y012068D02*
X006055Y012068D01*
X005896Y011909D02*
X002150Y011909D01*
X002150Y011751D02*
X005738Y011751D01*
X005579Y011592D02*
X002150Y011592D01*
X002150Y011434D02*
X005421Y011434D01*
X005262Y011275D02*
X002150Y011275D01*
X002150Y011117D02*
X005104Y011117D01*
X004945Y010958D02*
X002150Y010958D01*
X002150Y010800D02*
X004787Y010800D01*
X004628Y010641D02*
X004465Y010641D01*
X004718Y010166D02*
X004725Y010166D01*
X004725Y010007D02*
X004599Y010007D01*
X004599Y009849D02*
X004725Y009849D01*
X004725Y009690D02*
X004599Y009690D01*
X004550Y009532D02*
X004774Y009532D01*
X004725Y009373D02*
X004599Y009373D01*
X004599Y009215D02*
X004725Y009215D01*
X004725Y009056D02*
X004599Y009056D01*
X004599Y008898D02*
X004725Y008898D01*
X004725Y008739D02*
X004599Y008739D01*
X004556Y008581D02*
X004768Y008581D01*
X004893Y008422D02*
X004431Y008422D01*
X003893Y008422D02*
X002150Y008422D01*
X002150Y008264D02*
X019685Y008264D01*
X019685Y008422D02*
X017431Y008422D01*
X017410Y008401D02*
X017533Y008524D01*
X017599Y008684D01*
X017599Y009412D01*
X017543Y009548D01*
X017599Y009684D01*
X017599Y010412D01*
X017533Y010573D01*
X017410Y010696D01*
X017249Y010763D01*
X017075Y010763D01*
X016915Y010696D01*
X016792Y010573D01*
X016725Y010412D01*
X016725Y009684D01*
X016781Y009548D01*
X016725Y009412D01*
X016725Y008684D01*
X016792Y008524D01*
X016915Y008401D01*
X017075Y008334D01*
X017249Y008334D01*
X017410Y008401D01*
X017556Y008581D02*
X019685Y008581D01*
X019685Y008739D02*
X017599Y008739D01*
X017599Y008898D02*
X019685Y008898D01*
X019685Y009056D02*
X017599Y009056D01*
X017599Y009215D02*
X019685Y009215D01*
X019685Y009373D02*
X017599Y009373D01*
X017550Y009532D02*
X019685Y009532D01*
X019685Y009690D02*
X017599Y009690D01*
X017599Y009849D02*
X019685Y009849D01*
X019685Y010007D02*
X017599Y010007D01*
X017599Y010166D02*
X019685Y010166D01*
X019685Y010324D02*
X017599Y010324D01*
X017570Y010483D02*
X019685Y010483D01*
X019685Y010641D02*
X017465Y010641D01*
X016860Y010641D02*
X016465Y010641D01*
X016410Y010696D02*
X016533Y010573D01*
X016599Y010412D01*
X016599Y009684D01*
X016543Y009548D01*
X016599Y009412D01*
X016599Y008684D01*
X016533Y008524D01*
X016410Y008401D01*
X016249Y008334D01*
X016075Y008334D01*
X015915Y008401D01*
X015792Y008524D01*
X015725Y008684D01*
X015725Y009412D01*
X015781Y009548D01*
X015725Y009684D01*
X015725Y010412D01*
X015792Y010573D01*
X015915Y010696D01*
X016075Y010763D01*
X016249Y010763D01*
X016410Y010696D01*
X016570Y010483D02*
X016754Y010483D01*
X016725Y010324D02*
X016599Y010324D01*
X016599Y010166D02*
X016725Y010166D01*
X016725Y010007D02*
X016599Y010007D01*
X016599Y009849D02*
X016725Y009849D01*
X016725Y009690D02*
X016599Y009690D01*
X016550Y009532D02*
X016774Y009532D01*
X016725Y009373D02*
X016599Y009373D01*
X016599Y009215D02*
X016725Y009215D01*
X016725Y009056D02*
X016599Y009056D01*
X016599Y008898D02*
X016725Y008898D01*
X016725Y008739D02*
X016599Y008739D01*
X016556Y008581D02*
X016768Y008581D01*
X016893Y008422D02*
X016431Y008422D01*
X015893Y008422D02*
X015431Y008422D01*
X015410Y008401D02*
X015533Y008524D01*
X015599Y008684D01*
X015599Y009412D01*
X015543Y009548D01*
X015599Y009684D01*
X015599Y010412D01*
X015533Y010573D01*
X015410Y010696D01*
X015249Y010763D01*
X015075Y010763D01*
X014915Y010696D01*
X014792Y010573D01*
X014725Y010412D01*
X014725Y009684D01*
X014781Y009548D01*
X014725Y009412D01*
X014725Y008684D01*
X014792Y008524D01*
X014915Y008401D01*
X015075Y008334D01*
X015249Y008334D01*
X015410Y008401D01*
X015556Y008581D02*
X015768Y008581D01*
X015725Y008739D02*
X015599Y008739D01*
X015599Y008898D02*
X015725Y008898D01*
X015725Y009056D02*
X015599Y009056D01*
X015599Y009215D02*
X015725Y009215D01*
X015725Y009373D02*
X015599Y009373D01*
X015550Y009532D02*
X015774Y009532D01*
X015725Y009690D02*
X015599Y009690D01*
X015599Y009849D02*
X015725Y009849D01*
X015725Y010007D02*
X015599Y010007D01*
X015599Y010166D02*
X015725Y010166D01*
X015725Y010324D02*
X015599Y010324D01*
X015570Y010483D02*
X015754Y010483D01*
X015860Y010641D02*
X015465Y010641D01*
X014860Y010641D02*
X014465Y010641D01*
X014410Y010696D02*
X014533Y010573D01*
X014599Y010412D01*
X014599Y009684D01*
X014543Y009548D01*
X014599Y009412D01*
X014599Y008684D01*
X014533Y008524D01*
X014410Y008401D01*
X014249Y008334D01*
X014075Y008334D01*
X013915Y008401D01*
X013792Y008524D01*
X013725Y008684D01*
X013725Y009412D01*
X013781Y009548D01*
X013725Y009684D01*
X013725Y010412D01*
X013792Y010573D01*
X013915Y010696D01*
X014075Y010763D01*
X014249Y010763D01*
X014410Y010696D01*
X014570Y010483D02*
X014754Y010483D01*
X014725Y010324D02*
X014599Y010324D01*
X014599Y010166D02*
X014725Y010166D01*
X014725Y010007D02*
X014599Y010007D01*
X014599Y009849D02*
X014725Y009849D01*
X014725Y009690D02*
X014599Y009690D01*
X014550Y009532D02*
X014774Y009532D01*
X014725Y009373D02*
X014599Y009373D01*
X014599Y009215D02*
X014725Y009215D01*
X014725Y009056D02*
X014599Y009056D01*
X014599Y008898D02*
X014725Y008898D01*
X014725Y008739D02*
X014599Y008739D01*
X014556Y008581D02*
X014768Y008581D01*
X014893Y008422D02*
X014431Y008422D01*
X013893Y008422D02*
X013431Y008422D01*
X013410Y008401D02*
X013533Y008524D01*
X013599Y008684D01*
X013599Y009412D01*
X013543Y009548D01*
X013599Y009684D01*
X013599Y010412D01*
X013533Y010573D01*
X013410Y010696D01*
X013249Y010763D01*
X013075Y010763D01*
X012915Y010696D01*
X012792Y010573D01*
X012725Y010412D01*
X012725Y009684D01*
X012781Y009548D01*
X012725Y009412D01*
X012725Y008684D01*
X012792Y008524D01*
X012915Y008401D01*
X013075Y008334D01*
X013249Y008334D01*
X013410Y008401D01*
X013556Y008581D02*
X013768Y008581D01*
X013725Y008739D02*
X013599Y008739D01*
X013599Y008898D02*
X013725Y008898D01*
X013725Y009056D02*
X013599Y009056D01*
X013599Y009215D02*
X013725Y009215D01*
X013725Y009373D02*
X013599Y009373D01*
X013550Y009532D02*
X013774Y009532D01*
X013725Y009690D02*
X013599Y009690D01*
X013599Y009849D02*
X013725Y009849D01*
X013725Y010007D02*
X013599Y010007D01*
X013599Y010166D02*
X013725Y010166D01*
X013725Y010324D02*
X013599Y010324D01*
X013570Y010483D02*
X013754Y010483D01*
X013860Y010641D02*
X013465Y010641D01*
X012860Y010641D02*
X012465Y010641D01*
X012410Y010696D02*
X012533Y010573D01*
X012599Y010412D01*
X012599Y009684D01*
X012543Y009548D01*
X012599Y009412D01*
X012599Y008684D01*
X012533Y008524D01*
X012410Y008401D01*
X012249Y008334D01*
X012075Y008334D01*
X011915Y008401D01*
X011792Y008524D01*
X011725Y008684D01*
X011725Y009412D01*
X011781Y009548D01*
X011725Y009684D01*
X011725Y010412D01*
X011792Y010573D01*
X011915Y010696D01*
X012075Y010763D01*
X012249Y010763D01*
X012410Y010696D01*
X012570Y010483D02*
X012754Y010483D01*
X012725Y010324D02*
X012599Y010324D01*
X012599Y010166D02*
X012725Y010166D01*
X012725Y010007D02*
X012599Y010007D01*
X012599Y009849D02*
X012725Y009849D01*
X012725Y009690D02*
X012599Y009690D01*
X012550Y009532D02*
X012774Y009532D01*
X012725Y009373D02*
X012599Y009373D01*
X012599Y009215D02*
X012725Y009215D01*
X012725Y009056D02*
X012599Y009056D01*
X012599Y008898D02*
X012725Y008898D01*
X012725Y008739D02*
X012599Y008739D01*
X012556Y008581D02*
X012768Y008581D01*
X012893Y008422D02*
X012431Y008422D01*
X011893Y008422D02*
X011431Y008422D01*
X011410Y008401D02*
X011533Y008524D01*
X011599Y008684D01*
X011599Y009412D01*
X011543Y009548D01*
X011599Y009684D01*
X011599Y010412D01*
X011533Y010573D01*
X011410Y010696D01*
X011249Y010763D01*
X011075Y010763D01*
X010915Y010696D01*
X010792Y010573D01*
X010725Y010412D01*
X010725Y009684D01*
X010781Y009548D01*
X010725Y009412D01*
X010725Y008684D01*
X010792Y008524D01*
X010915Y008401D01*
X011075Y008334D01*
X011249Y008334D01*
X011410Y008401D01*
X011556Y008581D02*
X011768Y008581D01*
X011725Y008739D02*
X011599Y008739D01*
X011599Y008898D02*
X011725Y008898D01*
X011725Y009056D02*
X011599Y009056D01*
X011599Y009215D02*
X011725Y009215D01*
X011725Y009373D02*
X011599Y009373D01*
X011550Y009532D02*
X011774Y009532D01*
X011725Y009690D02*
X011599Y009690D01*
X011599Y009849D02*
X011725Y009849D01*
X011725Y010007D02*
X011599Y010007D01*
X011599Y010166D02*
X011725Y010166D01*
X011725Y010324D02*
X011599Y010324D01*
X011570Y010483D02*
X011754Y010483D01*
X011860Y010641D02*
X011465Y010641D01*
X010860Y010641D02*
X010493Y010641D01*
X010511Y010623D02*
X010460Y010674D01*
X010402Y010717D01*
X010338Y010749D01*
X010269Y010771D01*
X010198Y010783D01*
X010171Y010783D01*
X010171Y010057D01*
X010619Y010057D01*
X010619Y010361D01*
X010608Y010433D01*
X010586Y010501D01*
X010553Y010565D01*
X010511Y010623D01*
X010592Y010483D02*
X010754Y010483D01*
X010725Y010324D02*
X010619Y010324D01*
X010619Y010166D02*
X010725Y010166D01*
X010725Y010007D02*
X010619Y010007D01*
X010619Y010040D02*
X010619Y009735D01*
X010608Y009664D01*
X010586Y009596D01*
X010562Y009548D01*
X010586Y009501D01*
X010608Y009433D01*
X010619Y009361D01*
X010619Y009057D01*
X010171Y009057D01*
X010171Y009040D01*
X010619Y009040D01*
X010619Y008735D01*
X010608Y008664D01*
X010586Y008596D01*
X010553Y008532D01*
X010511Y008473D01*
X010460Y008422D01*
X010402Y008380D01*
X010338Y008348D01*
X010269Y008325D01*
X010198Y008314D01*
X010171Y008314D01*
X010171Y009040D01*
X010154Y009040D01*
X010154Y008314D01*
X010126Y008314D01*
X010055Y008325D01*
X009987Y008348D01*
X009923Y008380D01*
X009864Y008422D01*
X009814Y008473D01*
X009771Y008532D01*
X009739Y008596D01*
X009716Y008664D01*
X009705Y008735D01*
X009705Y009040D01*
X010154Y009040D01*
X010154Y009057D01*
X010154Y009314D01*
X010154Y010040D01*
X010171Y010040D01*
X010171Y010057D01*
X010154Y010057D01*
X010154Y010783D01*
X010126Y010783D01*
X010055Y010771D01*
X009987Y010749D01*
X009923Y010717D01*
X009864Y010674D01*
X009814Y010623D01*
X009771Y010565D01*
X009739Y010501D01*
X009716Y010433D01*
X009705Y010361D01*
X009705Y010057D01*
X010154Y010057D01*
X010154Y010040D01*
X009705Y010040D01*
X009705Y009735D01*
X009716Y009664D01*
X009739Y009596D01*
X009763Y009548D01*
X009739Y009501D01*
X009716Y009433D01*
X009705Y009361D01*
X009705Y009057D01*
X010154Y009057D01*
X010171Y009057D01*
X010171Y010040D01*
X010619Y010040D01*
X010619Y009849D02*
X010725Y009849D01*
X010725Y009690D02*
X010612Y009690D01*
X010570Y009532D02*
X010774Y009532D01*
X010725Y009373D02*
X010618Y009373D01*
X010619Y009215D02*
X010725Y009215D01*
X010725Y009056D02*
X010171Y009056D01*
X010154Y009056D02*
X009599Y009056D01*
X009599Y008898D02*
X009705Y008898D01*
X009705Y008739D02*
X009599Y008739D01*
X009599Y008684D02*
X009599Y009412D01*
X009543Y009548D01*
X009599Y009684D01*
X009599Y010412D01*
X009533Y010573D01*
X009410Y010696D01*
X009249Y010763D01*
X009075Y010763D01*
X008915Y010696D01*
X008792Y010573D01*
X008725Y010412D01*
X008725Y009684D01*
X008781Y009548D01*
X008725Y009412D01*
X008725Y008684D01*
X008792Y008524D01*
X008915Y008401D01*
X009075Y008334D01*
X009249Y008334D01*
X009410Y008401D01*
X009533Y008524D01*
X009599Y008684D01*
X009556Y008581D02*
X009746Y008581D01*
X009865Y008422D02*
X009431Y008422D01*
X008893Y008422D02*
X008431Y008422D01*
X008410Y008401D02*
X008533Y008524D01*
X008599Y008684D01*
X008599Y009412D01*
X008543Y009548D01*
X008599Y009684D01*
X008599Y010412D01*
X008533Y010573D01*
X008410Y010696D01*
X008249Y010763D01*
X008075Y010763D01*
X007915Y010696D01*
X007792Y010573D01*
X007725Y010412D01*
X007725Y009684D01*
X007781Y009548D01*
X007725Y009412D01*
X007725Y008684D01*
X007792Y008524D01*
X007915Y008401D01*
X008075Y008334D01*
X008249Y008334D01*
X008410Y008401D01*
X008556Y008581D02*
X008768Y008581D01*
X008725Y008739D02*
X008599Y008739D01*
X008599Y008898D02*
X008725Y008898D01*
X008725Y009056D02*
X008599Y009056D01*
X008599Y009215D02*
X008725Y009215D01*
X008725Y009373D02*
X008599Y009373D01*
X008550Y009532D02*
X008774Y009532D01*
X008725Y009690D02*
X008599Y009690D01*
X008599Y009849D02*
X008725Y009849D01*
X008725Y010007D02*
X008599Y010007D01*
X008599Y010166D02*
X008725Y010166D01*
X008725Y010324D02*
X008599Y010324D01*
X008570Y010483D02*
X008754Y010483D01*
X008860Y010641D02*
X008465Y010641D01*
X007860Y010641D02*
X007465Y010641D01*
X007410Y010696D02*
X007533Y010573D01*
X007599Y010412D01*
X007599Y009684D01*
X007543Y009548D01*
X007599Y009412D01*
X007599Y008684D01*
X007533Y008524D01*
X007410Y008401D01*
X007249Y008334D01*
X007075Y008334D01*
X006915Y008401D01*
X006792Y008524D01*
X006725Y008684D01*
X006725Y009412D01*
X006781Y009548D01*
X006725Y009684D01*
X006725Y010412D01*
X006792Y010573D01*
X006915Y010696D01*
X007075Y010763D01*
X007249Y010763D01*
X007410Y010696D01*
X007570Y010483D02*
X007754Y010483D01*
X007725Y010324D02*
X007599Y010324D01*
X007599Y010166D02*
X007725Y010166D01*
X007725Y010007D02*
X007599Y010007D01*
X007599Y009849D02*
X007725Y009849D01*
X007725Y009690D02*
X007599Y009690D01*
X007550Y009532D02*
X007774Y009532D01*
X007725Y009373D02*
X007599Y009373D01*
X007599Y009215D02*
X007725Y009215D01*
X007725Y009056D02*
X007599Y009056D01*
X007599Y008898D02*
X007725Y008898D01*
X007725Y008739D02*
X007599Y008739D01*
X007556Y008581D02*
X007768Y008581D01*
X007893Y008422D02*
X007431Y008422D01*
X006893Y008422D02*
X006431Y008422D01*
X006410Y008401D02*
X006533Y008524D01*
X006599Y008684D01*
X006599Y009412D01*
X006543Y009548D01*
X006599Y009684D01*
X006599Y010412D01*
X006533Y010573D01*
X006410Y010696D01*
X006249Y010763D01*
X006075Y010763D01*
X005915Y010696D01*
X005792Y010573D01*
X005725Y010412D01*
X005725Y009684D01*
X005781Y009548D01*
X005725Y009412D01*
X005725Y008684D01*
X005792Y008524D01*
X005915Y008401D01*
X006075Y008334D01*
X006249Y008334D01*
X006410Y008401D01*
X006556Y008581D02*
X006768Y008581D01*
X006725Y008739D02*
X006599Y008739D01*
X006599Y008898D02*
X006725Y008898D01*
X006725Y009056D02*
X006599Y009056D01*
X006599Y009215D02*
X006725Y009215D01*
X006725Y009373D02*
X006599Y009373D01*
X006550Y009532D02*
X006774Y009532D01*
X006725Y009690D02*
X006599Y009690D01*
X006599Y009849D02*
X006725Y009849D01*
X006725Y010007D02*
X006599Y010007D01*
X006599Y010166D02*
X006725Y010166D01*
X006725Y010324D02*
X006599Y010324D01*
X006570Y010483D02*
X006754Y010483D01*
X006860Y010641D02*
X006465Y010641D01*
X005860Y010641D02*
X005465Y010641D01*
X005570Y010483D02*
X005754Y010483D01*
X005725Y010324D02*
X005599Y010324D01*
X005599Y010166D02*
X005725Y010166D01*
X005725Y010007D02*
X005599Y010007D01*
X005599Y009849D02*
X005725Y009849D01*
X005725Y009690D02*
X005599Y009690D01*
X005550Y009532D02*
X005774Y009532D01*
X005725Y009373D02*
X005599Y009373D01*
X005599Y009215D02*
X005725Y009215D01*
X005725Y009056D02*
X005599Y009056D01*
X005599Y008898D02*
X005725Y008898D01*
X005725Y008739D02*
X005599Y008739D01*
X005556Y008581D02*
X005768Y008581D01*
X005893Y008422D02*
X005431Y008422D01*
X003768Y008581D02*
X002150Y008581D01*
X002150Y008739D02*
X003725Y008739D01*
X003725Y008898D02*
X002150Y008898D01*
X002150Y009056D02*
X003725Y009056D01*
X003725Y009215D02*
X002150Y009215D01*
X002150Y009373D02*
X003725Y009373D01*
X003774Y009532D02*
X002150Y009532D01*
X002150Y009690D02*
X003725Y009690D01*
X003725Y009849D02*
X002150Y009849D01*
X002150Y010007D02*
X003725Y010007D01*
X003725Y010166D02*
X002150Y010166D01*
X002150Y010324D02*
X003725Y010324D01*
X003754Y010483D02*
X002150Y010483D01*
X002150Y010641D02*
X003860Y010641D01*
X005352Y010800D02*
X019685Y010800D01*
X019685Y010958D02*
X005511Y010958D01*
X005669Y011117D02*
X019685Y011117D01*
X019685Y011275D02*
X005828Y011275D01*
X005986Y011434D02*
X019685Y011434D01*
X019685Y011592D02*
X006145Y011592D01*
X006303Y011751D02*
X019685Y011751D01*
X019685Y011909D02*
X006462Y011909D01*
X006620Y012068D02*
X019685Y012068D01*
X019685Y012226D02*
X006779Y012226D01*
X006937Y012385D02*
X019685Y012385D01*
X019685Y012543D02*
X016286Y012543D01*
X016286Y012702D02*
X019685Y012702D01*
X019685Y012860D02*
X019507Y012860D01*
X019666Y013019D02*
X019685Y013019D01*
X018730Y012860D02*
X016794Y012860D01*
X016803Y013686D02*
X016803Y013931D01*
X016709Y014024D01*
X016496Y014024D01*
X016496Y014025D01*
X016286Y014025D01*
X016286Y014314D01*
X016192Y014408D01*
X016104Y014408D01*
X016117Y014421D01*
X016160Y014524D01*
X016160Y014636D01*
X016117Y014739D01*
X016039Y014817D01*
X016094Y014762D02*
X017879Y014762D01*
X017721Y014604D02*
X016160Y014604D01*
X016127Y014445D02*
X017562Y014445D01*
X017404Y014287D02*
X016286Y014287D01*
X016286Y014128D02*
X017245Y014128D01*
X017087Y013970D02*
X016764Y013970D01*
X016803Y013811D02*
X016928Y013811D01*
X016803Y013686D02*
X018527Y015410D01*
X018562Y015410D01*
X018562Y015457D01*
X018905Y015800D01*
X019389Y015800D01*
X019685Y015504D01*
X019685Y016170D01*
X019389Y015874D01*
X019158Y015874D01*
X019158Y016459D01*
X019118Y016459D01*
X018533Y016459D01*
X018533Y016228D01*
X018888Y015874D01*
X019118Y015874D01*
X019118Y016459D01*
X019118Y016499D01*
X019118Y017084D01*
X018888Y017084D01*
X018533Y016729D01*
X018533Y016499D01*
X019118Y016499D01*
X019158Y016499D01*
X019158Y017084D01*
X019389Y017084D01*
X019685Y016787D01*
X019685Y018280D01*
X019572Y018167D01*
X019209Y018017D01*
X018815Y018017D01*
X018451Y018167D01*
X018172Y018446D01*
X018022Y018810D01*
X018022Y019203D01*
X018172Y019567D01*
X018290Y019685D01*
X001750Y019685D01*
X001870Y019566D01*
X002021Y019202D01*
X002021Y018808D01*
X001870Y018444D01*
X001592Y018166D01*
X001228Y018015D01*
X000834Y018015D01*
X000470Y018166D01*
X000360Y018276D01*
X000360Y007190D01*
X000436Y007373D01*
X000597Y007535D01*
X000808Y007622D01*
X001036Y007622D01*
X001247Y007535D01*
X001408Y007373D01*
X001496Y007162D01*
X001496Y006934D01*
X001408Y006723D01*
X001247Y006562D01*
X001036Y006475D01*
X000808Y006475D01*
X000597Y006562D01*
X000481Y006679D02*
X000360Y006679D01*
X000360Y006837D02*
X000389Y006837D01*
X000360Y007313D02*
X000411Y007313D01*
X000360Y007471D02*
X000533Y007471D01*
X000360Y007630D02*
X001750Y007630D01*
X001750Y007788D02*
X000360Y007788D01*
X000360Y007947D02*
X001750Y007947D01*
X001750Y008105D02*
X000360Y008105D01*
X000360Y008264D02*
X001750Y008264D01*
X001750Y008422D02*
X000360Y008422D01*
X000360Y008581D02*
X001750Y008581D01*
X001750Y008739D02*
X000360Y008739D01*
X000360Y008898D02*
X001750Y008898D01*
X001750Y009056D02*
X000360Y009056D01*
X000360Y009215D02*
X001750Y009215D01*
X001750Y009373D02*
X000360Y009373D01*
X000360Y009532D02*
X001750Y009532D01*
X001750Y009690D02*
X000360Y009690D01*
X000360Y009849D02*
X001750Y009849D01*
X001750Y010007D02*
X000360Y010007D01*
X000360Y010166D02*
X001750Y010166D01*
X001750Y010324D02*
X000360Y010324D01*
X000360Y010483D02*
X001750Y010483D01*
X001750Y010641D02*
X000360Y010641D01*
X000360Y010800D02*
X001750Y010800D01*
X001750Y010958D02*
X000360Y010958D01*
X000360Y011117D02*
X001750Y011117D01*
X001750Y011275D02*
X001590Y011275D01*
X001243Y011275D02*
X001203Y011275D01*
X001203Y011270D02*
X001203Y011730D01*
X000443Y011730D01*
X000443Y011713D01*
X000455Y011638D01*
X000478Y011566D01*
X000512Y011499D01*
X000557Y011438D01*
X000610Y011384D01*
X000671Y011340D01*
X000739Y011305D01*
X000810Y011282D01*
X000885Y011270D01*
X001203Y011270D01*
X001203Y011434D02*
X001243Y011434D01*
X001243Y011592D02*
X001203Y011592D01*
X001203Y011751D02*
X000360Y011751D01*
X000443Y011770D02*
X001203Y011770D01*
X001203Y012230D01*
X000885Y012230D01*
X000810Y012218D01*
X000739Y012195D01*
X000671Y012161D01*
X000610Y012116D01*
X000557Y012063D01*
X000512Y012002D01*
X000478Y011935D01*
X000455Y011863D01*
X000443Y011788D01*
X000443Y011770D01*
X000470Y011909D02*
X000360Y011909D01*
X000360Y012068D02*
X000561Y012068D01*
X000360Y012226D02*
X000858Y012226D01*
X000885Y012270D02*
X001203Y012270D01*
X001203Y012730D01*
X000443Y012730D01*
X000443Y012713D01*
X000455Y012638D01*
X000478Y012566D01*
X000512Y012499D01*
X000557Y012438D01*
X000610Y012384D01*
X000671Y012340D01*
X000739Y012305D01*
X000810Y012282D01*
X000885Y012270D01*
X000610Y012385D02*
X000360Y012385D01*
X000360Y012543D02*
X000490Y012543D01*
X000445Y012702D02*
X000360Y012702D01*
X000443Y012770D02*
X001203Y012770D01*
X001203Y013230D01*
X000885Y013230D01*
X000810Y013218D01*
X000739Y013195D01*
X000671Y013161D01*
X000610Y013116D01*
X000557Y013063D01*
X000512Y013002D01*
X000478Y012935D01*
X000455Y012863D01*
X000443Y012788D01*
X000443Y012770D01*
X000454Y012860D02*
X000360Y012860D01*
X000360Y013019D02*
X000524Y013019D01*
X000360Y013177D02*
X000703Y013177D01*
X000722Y013336D02*
X000360Y013336D01*
X000360Y013494D02*
X000531Y013494D01*
X000465Y013653D02*
X000360Y013653D01*
X000360Y013811D02*
X000463Y013811D01*
X000516Y013970D02*
X000360Y013970D01*
X000360Y014128D02*
X000650Y014128D01*
X000578Y014445D02*
X000360Y014445D01*
X000360Y014287D02*
X001411Y014287D01*
X001868Y014445D02*
X002189Y014445D01*
X002183Y014451D02*
X002261Y014373D01*
X002364Y014330D01*
X002476Y014330D01*
X002579Y014373D01*
X002657Y014451D01*
X002700Y014554D01*
X002700Y014666D01*
X002657Y014769D01*
X002620Y014806D01*
X002620Y015477D01*
X002620Y015643D01*
X001843Y016420D01*
X001913Y016490D01*
X001983Y016659D01*
X001983Y016842D01*
X001913Y017011D01*
X001783Y017140D01*
X001614Y017210D01*
X000831Y017210D01*
X000662Y017140D01*
X000533Y017011D01*
X000463Y016842D01*
X000463Y016659D01*
X000533Y016490D01*
X000662Y016360D01*
X000831Y016290D01*
X001407Y016290D01*
X001487Y016210D01*
X000831Y016210D01*
X000662Y016140D01*
X000533Y016011D01*
X000463Y015842D01*
X000463Y015659D01*
X000533Y015490D01*
X000662Y015360D01*
X000831Y015290D01*
X001614Y015290D01*
X001783Y015360D01*
X001913Y015490D01*
X001983Y015659D01*
X001983Y015714D01*
X002220Y015477D01*
X002220Y014806D01*
X002183Y014769D01*
X002140Y014666D01*
X002140Y014554D01*
X002183Y014451D01*
X002140Y014604D02*
X001960Y014604D01*
X001983Y014762D02*
X002180Y014762D01*
X002220Y014921D02*
X001950Y014921D01*
X001845Y015079D02*
X002220Y015079D01*
X002220Y015238D02*
X000360Y015238D01*
X000360Y015396D02*
X000627Y015396D01*
X000506Y015555D02*
X000360Y015555D01*
X000360Y015713D02*
X000463Y015713D01*
X000475Y015872D02*
X000360Y015872D01*
X000360Y016030D02*
X000552Y016030D01*
X000360Y016189D02*
X000779Y016189D01*
X000694Y016347D02*
X000360Y016347D01*
X000360Y016506D02*
X000526Y016506D01*
X000463Y016664D02*
X000360Y016664D01*
X000360Y016823D02*
X000463Y016823D01*
X000521Y016981D02*
X000360Y016981D01*
X000360Y017140D02*
X000662Y017140D01*
X000360Y017298D02*
X010809Y017298D01*
X010651Y017457D02*
X000360Y017457D01*
X000360Y017615D02*
X010492Y017615D01*
X010334Y017774D02*
X000360Y017774D01*
X000360Y017932D02*
X010175Y017932D01*
X010017Y018091D02*
X001410Y018091D01*
X001675Y018249D02*
X009858Y018249D01*
X009700Y018408D02*
X009694Y018408D01*
X010107Y018566D02*
X010316Y018566D01*
X010265Y018408D02*
X010474Y018408D01*
X010424Y018249D02*
X011178Y018249D01*
X011250Y018091D02*
X010582Y018091D01*
X010741Y017932D02*
X011250Y017932D01*
X011250Y017774D02*
X010899Y017774D01*
X011058Y017615D02*
X011250Y017615D01*
X011250Y017457D02*
X011216Y017457D01*
X010968Y017140D02*
X001784Y017140D01*
X001925Y016981D02*
X010990Y016981D01*
X010990Y016823D02*
X001983Y016823D01*
X001983Y016664D02*
X010990Y016664D01*
X010990Y016506D02*
X001919Y016506D01*
X001916Y016347D02*
X010990Y016347D01*
X010701Y016189D02*
X002074Y016189D01*
X002233Y016030D02*
X010701Y016030D01*
X010701Y015872D02*
X002391Y015872D01*
X002550Y015713D02*
X010701Y015713D01*
X010724Y015555D02*
X004472Y015555D01*
X004502Y015396D02*
X010911Y015396D01*
X011070Y015238D02*
X004502Y015238D01*
X004502Y015079D02*
X011228Y015079D01*
X011194Y014921D02*
X004364Y014921D01*
X003964Y014921D02*
X002620Y014921D01*
X002620Y015079D02*
X003826Y015079D01*
X003826Y015238D02*
X002620Y015238D01*
X002620Y015396D02*
X003826Y015396D01*
X003855Y015555D02*
X002620Y015555D01*
X002220Y015396D02*
X001819Y015396D01*
X001940Y015555D02*
X002143Y015555D01*
X001983Y015713D02*
X001984Y015713D01*
X002660Y014762D02*
X003964Y014762D01*
X003963Y014604D02*
X002700Y014604D01*
X002651Y014445D02*
X003963Y014445D01*
X003963Y014287D02*
X001976Y014287D01*
X002135Y014128D02*
X003963Y014128D01*
X003963Y013970D02*
X002150Y013970D01*
X002150Y013811D02*
X003963Y013811D01*
X003963Y013653D02*
X002150Y013653D01*
X002150Y013494D02*
X003963Y013494D01*
X003963Y013336D02*
X002150Y013336D01*
X002150Y013177D02*
X003963Y013177D01*
X003962Y013019D02*
X002150Y013019D01*
X002150Y012860D02*
X003910Y012860D01*
X003824Y012702D02*
X002150Y012702D01*
X002150Y012543D02*
X003824Y012543D01*
X003824Y012385D02*
X002150Y012385D01*
X001750Y012226D02*
X001588Y012226D01*
X001243Y012226D02*
X001203Y012226D01*
X001203Y012068D02*
X001243Y012068D01*
X001243Y011909D02*
X001203Y011909D01*
X001203Y012385D02*
X001243Y012385D01*
X001243Y012543D02*
X001203Y012543D01*
X001203Y012702D02*
X001243Y012702D01*
X001243Y012860D02*
X001203Y012860D01*
X001203Y013019D02*
X001243Y013019D01*
X001243Y013177D02*
X001203Y013177D01*
X001743Y013177D02*
X001750Y013177D01*
X001750Y013336D02*
X001723Y013336D01*
X000486Y014604D02*
X000360Y014604D01*
X000360Y014762D02*
X000463Y014762D01*
X000495Y014921D02*
X000360Y014921D01*
X000360Y015079D02*
X000601Y015079D01*
X000651Y018091D02*
X000360Y018091D01*
X000360Y018249D02*
X000387Y018249D01*
X001833Y018408D02*
X009149Y018408D01*
X008990Y018566D02*
X001920Y018566D01*
X001986Y018725D02*
X008837Y018725D01*
X008837Y018883D02*
X002021Y018883D01*
X002021Y019042D02*
X008837Y019042D01*
X008837Y019200D02*
X002021Y019200D01*
X001956Y019359D02*
X008991Y019359D01*
X009149Y019517D02*
X001890Y019517D01*
X001760Y019676D02*
X018281Y019676D01*
X018152Y019517D02*
X016393Y019517D01*
X016551Y019359D02*
X018086Y019359D01*
X018022Y019200D02*
X016684Y019200D01*
X016684Y019042D02*
X018022Y019042D01*
X018022Y018883D02*
X016684Y018883D01*
X016668Y018725D02*
X018057Y018725D01*
X018123Y018566D02*
X016510Y018566D01*
X016351Y018408D02*
X018211Y018408D01*
X018369Y018249D02*
X016050Y018249D01*
X016050Y018091D02*
X018636Y018091D01*
X019387Y018091D02*
X019685Y018091D01*
X019685Y018249D02*
X019654Y018249D01*
X019685Y017932D02*
X016050Y017932D01*
X016050Y017774D02*
X019685Y017774D01*
X019685Y017615D02*
X016050Y017615D01*
X016050Y017457D02*
X019685Y017457D01*
X019685Y017298D02*
X016050Y017298D01*
X016050Y017140D02*
X019685Y017140D01*
X019685Y016981D02*
X019491Y016981D01*
X019650Y016823D02*
X019685Y016823D01*
X019158Y016823D02*
X019118Y016823D01*
X019118Y016981D02*
X019158Y016981D01*
X019158Y016664D02*
X019118Y016664D01*
X019118Y016506D02*
X019158Y016506D01*
X019158Y016347D02*
X019118Y016347D01*
X019118Y016189D02*
X019158Y016189D01*
X019158Y016030D02*
X019118Y016030D01*
X018731Y016030D02*
X016490Y016030D01*
X016490Y015872D02*
X019685Y015872D01*
X019685Y016030D02*
X019545Y016030D01*
X019476Y015713D02*
X019685Y015713D01*
X019685Y015555D02*
X019635Y015555D01*
X018818Y015713D02*
X016490Y015713D01*
X016490Y015555D02*
X018659Y015555D01*
X018513Y015396D02*
X016490Y015396D01*
X016402Y015238D02*
X018355Y015238D01*
X018573Y016189D02*
X016490Y016189D01*
X016490Y016347D02*
X018533Y016347D01*
X018533Y016506D02*
X016490Y016506D01*
X016490Y016664D02*
X018533Y016664D01*
X018626Y016823D02*
X016380Y016823D01*
X016050Y016981D02*
X018785Y016981D01*
X016046Y016283D02*
X016046Y016283D01*
X016046Y016189D02*
X016046Y016189D01*
X015965Y016189D02*
X011947Y016189D01*
X011947Y016030D02*
X015436Y016030D01*
X015436Y015872D02*
X011947Y015872D01*
X011947Y015713D02*
X015436Y015713D01*
X015380Y015555D02*
X011924Y015555D01*
X012088Y015396D02*
X011477Y015396D01*
X011910Y016347D02*
X015436Y016347D01*
X015436Y016506D02*
X011910Y016506D01*
X011910Y016664D02*
X015436Y016664D01*
X015450Y016823D02*
X011910Y016823D01*
X011910Y016981D02*
X015450Y016981D01*
X015450Y017140D02*
X011910Y017140D01*
X011910Y017298D02*
X015450Y017298D01*
X015450Y017457D02*
X011910Y017457D01*
X011910Y017615D02*
X015450Y017615D01*
X015450Y017774D02*
X011910Y017774D01*
X011910Y017932D02*
X015450Y017932D01*
X015357Y018091D02*
X011910Y018091D01*
X011910Y018249D02*
X015198Y018249D01*
X015040Y018408D02*
X013632Y018408D01*
X013616Y018391D02*
X013959Y018734D01*
X013959Y019219D01*
X013616Y019561D01*
X013131Y019561D01*
X012789Y019219D01*
X012789Y018734D01*
X013131Y018391D01*
X013616Y018391D01*
X013791Y018566D02*
X014329Y018566D01*
X014170Y018725D02*
X013949Y018725D01*
X013959Y018883D02*
X014136Y018883D01*
X014136Y019042D02*
X013959Y019042D01*
X013959Y019200D02*
X014136Y019200D01*
X014251Y019359D02*
X013819Y019359D01*
X013660Y019517D02*
X014409Y019517D01*
X015032Y019517D02*
X015806Y019517D01*
X015648Y019359D02*
X015191Y019359D01*
X015306Y019200D02*
X015514Y019200D01*
X015514Y019042D02*
X015306Y019042D01*
X015306Y018883D02*
X015514Y018883D01*
X015530Y018725D02*
X015288Y018725D01*
X015447Y018566D02*
X015650Y018566D01*
X015650Y018408D02*
X015605Y018408D01*
X013115Y018408D02*
X012326Y018408D01*
X012485Y018566D02*
X012956Y018566D01*
X012798Y018725D02*
X012643Y018725D01*
X012658Y018883D02*
X012789Y018883D01*
X012789Y019042D02*
X012658Y019042D01*
X012658Y019200D02*
X012789Y019200D01*
X012929Y019359D02*
X012523Y019359D01*
X012365Y019517D02*
X013087Y019517D01*
X011781Y019517D02*
X011019Y019517D01*
X011178Y019359D02*
X011623Y019359D01*
X011488Y019200D02*
X011324Y019200D01*
X011324Y019042D02*
X011488Y019042D01*
X011488Y018883D02*
X011324Y018883D01*
X011320Y018725D02*
X011503Y018725D01*
X011510Y018566D02*
X011427Y018566D01*
X011020Y018408D02*
X011003Y018408D01*
X010157Y018725D02*
X010007Y018725D01*
X010007Y018883D02*
X010154Y018883D01*
X010154Y019042D02*
X010007Y019042D01*
X010007Y019200D02*
X010154Y019200D01*
X010299Y019359D02*
X009852Y019359D01*
X009694Y019517D02*
X010458Y019517D01*
X011013Y013494D02*
X008047Y013494D01*
X007888Y013336D02*
X011172Y013336D01*
X011330Y013177D02*
X007730Y013177D01*
X007571Y013019D02*
X011489Y013019D01*
X010171Y010641D02*
X010154Y010641D01*
X010154Y010483D02*
X010171Y010483D01*
X010154Y010324D02*
X010171Y010324D01*
X010154Y010166D02*
X010171Y010166D01*
X010154Y010007D02*
X010171Y010007D01*
X010154Y009849D02*
X010171Y009849D01*
X010154Y009690D02*
X010171Y009690D01*
X010154Y009532D02*
X010171Y009532D01*
X010154Y009373D02*
X010171Y009373D01*
X010154Y009215D02*
X010171Y009215D01*
X010154Y008898D02*
X010171Y008898D01*
X010154Y008739D02*
X010171Y008739D01*
X010154Y008581D02*
X010171Y008581D01*
X010154Y008422D02*
X010171Y008422D01*
X010459Y008422D02*
X010893Y008422D01*
X010768Y008581D02*
X010578Y008581D01*
X010619Y008739D02*
X010725Y008739D01*
X010725Y008898D02*
X010619Y008898D01*
X009705Y009215D02*
X009599Y009215D01*
X009599Y009373D02*
X009707Y009373D01*
X009754Y009532D02*
X009550Y009532D01*
X009599Y009690D02*
X009712Y009690D01*
X009705Y009849D02*
X009599Y009849D01*
X009599Y010007D02*
X009705Y010007D01*
X009705Y010166D02*
X009599Y010166D01*
X009599Y010324D02*
X009705Y010324D01*
X009733Y010483D02*
X009570Y010483D01*
X009465Y010641D02*
X009831Y010641D01*
X007413Y012860D02*
X014796Y012860D01*
X015424Y012702D02*
X007254Y012702D01*
X007096Y012543D02*
X015424Y012543D01*
X019685Y008105D02*
X002150Y008105D01*
X002150Y007947D02*
X019685Y007947D01*
X019685Y007788D02*
X002150Y007788D01*
X002150Y007630D02*
X019685Y007630D01*
X019685Y007471D02*
X019413Y007471D01*
X019349Y007535D02*
X019139Y007622D01*
X018910Y007622D01*
X018700Y007535D01*
X018538Y007373D01*
X018451Y007162D01*
X018451Y006934D01*
X018538Y006723D01*
X018700Y006562D01*
X018910Y006475D01*
X019139Y006475D01*
X019349Y006562D01*
X019511Y006723D01*
X019598Y006934D01*
X019598Y007162D01*
X019511Y007373D01*
X019349Y007535D01*
X019536Y007313D02*
X019685Y007313D01*
X019685Y007154D02*
X019598Y007154D01*
X019598Y006996D02*
X019685Y006996D01*
X019685Y006837D02*
X019558Y006837D01*
X019466Y006679D02*
X019685Y006679D01*
X019685Y006520D02*
X019248Y006520D01*
X019685Y006362D02*
X002150Y006362D01*
X002150Y006520D02*
X018801Y006520D01*
X018583Y006679D02*
X002150Y006679D01*
X002150Y006837D02*
X018491Y006837D01*
X018451Y006996D02*
X002150Y006996D01*
X002150Y007154D02*
X018451Y007154D01*
X018513Y007313D02*
X002150Y007313D01*
X002150Y007471D02*
X018636Y007471D01*
X019685Y006203D02*
X002150Y006203D01*
X002150Y006045D02*
X019685Y006045D01*
X019685Y005886D02*
X002150Y005886D01*
X002150Y005728D02*
X003990Y005728D01*
X003790Y005569D02*
X002150Y005569D01*
X002242Y005411D02*
X003725Y005411D01*
X003725Y005252D02*
X002401Y005252D01*
X002559Y005094D02*
X003725Y005094D01*
X003725Y004935D02*
X002718Y004935D01*
X002876Y004777D02*
X003725Y004777D01*
X003753Y004618D02*
X003035Y004618D01*
X003193Y004460D02*
X003745Y004460D01*
X003725Y004301D02*
X003352Y004301D01*
X003510Y004143D02*
X003725Y004143D01*
X003725Y003984D02*
X003669Y003984D01*
X004303Y003350D02*
X004980Y003350D01*
X004902Y003192D02*
X004461Y003192D01*
X004620Y003033D02*
X004917Y003033D01*
X004864Y002875D02*
X004778Y002875D01*
X005313Y002558D02*
X019685Y002558D01*
X019685Y002716D02*
X005400Y002716D01*
X005547Y002875D02*
X019685Y002875D01*
X019685Y003033D02*
X005706Y003033D01*
X005864Y003192D02*
X019685Y003192D01*
X019685Y003350D02*
X017288Y003350D01*
X017249Y003334D02*
X017410Y003401D01*
X017533Y003524D01*
X017599Y003684D01*
X017599Y004412D01*
X017543Y004548D01*
X017599Y004684D01*
X017599Y005412D01*
X017533Y005573D01*
X017410Y005696D01*
X017249Y005763D01*
X017075Y005763D01*
X016915Y005696D01*
X016792Y005573D01*
X016725Y005412D01*
X016725Y004684D01*
X016781Y004548D01*
X016725Y004412D01*
X016725Y003684D01*
X016792Y003524D01*
X016915Y003401D01*
X017075Y003334D01*
X017249Y003334D01*
X017518Y003509D02*
X019685Y003509D01*
X019685Y003667D02*
X017592Y003667D01*
X017599Y003826D02*
X019685Y003826D01*
X019685Y003984D02*
X017599Y003984D01*
X017599Y004143D02*
X019685Y004143D01*
X019685Y004301D02*
X017599Y004301D01*
X017580Y004460D02*
X019685Y004460D01*
X019685Y004618D02*
X017572Y004618D01*
X017599Y004777D02*
X019685Y004777D01*
X019685Y004935D02*
X017599Y004935D01*
X017599Y005094D02*
X019685Y005094D01*
X019685Y005252D02*
X017599Y005252D01*
X017599Y005411D02*
X019685Y005411D01*
X019685Y005569D02*
X017535Y005569D01*
X017334Y005728D02*
X019685Y005728D01*
X016990Y005728D02*
X016334Y005728D01*
X016410Y005696D02*
X016249Y005763D01*
X016075Y005763D01*
X015915Y005696D01*
X015792Y005573D01*
X015725Y005412D01*
X015725Y004684D01*
X015781Y004548D01*
X015725Y004412D01*
X015725Y003684D01*
X015792Y003524D01*
X015915Y003401D01*
X016075Y003334D01*
X016249Y003334D01*
X016410Y003401D01*
X016533Y003524D01*
X016599Y003684D01*
X016599Y004412D01*
X016543Y004548D01*
X016599Y004684D01*
X016599Y005412D01*
X016533Y005573D01*
X016410Y005696D01*
X016535Y005569D02*
X016790Y005569D01*
X016725Y005411D02*
X016599Y005411D01*
X016599Y005252D02*
X016725Y005252D01*
X016725Y005094D02*
X016599Y005094D01*
X016599Y004935D02*
X016725Y004935D01*
X016725Y004777D02*
X016599Y004777D01*
X016572Y004618D02*
X016753Y004618D01*
X016745Y004460D02*
X016580Y004460D01*
X016599Y004301D02*
X016725Y004301D01*
X016725Y004143D02*
X016599Y004143D01*
X016599Y003984D02*
X016725Y003984D01*
X016725Y003826D02*
X016599Y003826D01*
X016592Y003667D02*
X016732Y003667D01*
X016807Y003509D02*
X016518Y003509D01*
X016288Y003350D02*
X017037Y003350D01*
X016037Y003350D02*
X015288Y003350D01*
X015249Y003334D02*
X015410Y003401D01*
X015533Y003524D01*
X015599Y003684D01*
X015599Y004412D01*
X015543Y004548D01*
X015599Y004684D01*
X015599Y005412D01*
X015533Y005573D01*
X015410Y005696D01*
X015249Y005763D01*
X015075Y005763D01*
X014915Y005696D01*
X014792Y005573D01*
X014725Y005412D01*
X014725Y004684D01*
X014781Y004548D01*
X014725Y004412D01*
X014725Y003684D01*
X014792Y003524D01*
X014915Y003401D01*
X015075Y003334D01*
X015249Y003334D01*
X015037Y003350D02*
X014288Y003350D01*
X014249Y003334D02*
X014410Y003401D01*
X014533Y003524D01*
X014599Y003684D01*
X014599Y004412D01*
X014543Y004548D01*
X014599Y004684D01*
X014599Y005412D01*
X014533Y005573D01*
X014410Y005696D01*
X014249Y005763D01*
X014075Y005763D01*
X013915Y005696D01*
X013792Y005573D01*
X013725Y005412D01*
X013725Y004684D01*
X013781Y004548D01*
X013725Y004412D01*
X013725Y003684D01*
X013792Y003524D01*
X013915Y003401D01*
X014075Y003334D01*
X014249Y003334D01*
X014037Y003350D02*
X013288Y003350D01*
X013249Y003334D02*
X013410Y003401D01*
X013533Y003524D01*
X013599Y003684D01*
X013599Y004412D01*
X013543Y004548D01*
X013599Y004684D01*
X013599Y005412D01*
X013533Y005573D01*
X013410Y005696D01*
X013249Y005763D01*
X013075Y005763D01*
X012915Y005696D01*
X012792Y005573D01*
X012725Y005412D01*
X012725Y004684D01*
X012781Y004548D01*
X012725Y004412D01*
X012725Y003684D01*
X012792Y003524D01*
X012915Y003401D01*
X013075Y003334D01*
X013249Y003334D01*
X013037Y003350D02*
X012288Y003350D01*
X012249Y003334D02*
X012410Y003401D01*
X012533Y003524D01*
X012599Y003684D01*
X012599Y004412D01*
X012543Y004548D01*
X012599Y004684D01*
X012599Y005412D01*
X012533Y005573D01*
X012410Y005696D01*
X012249Y005763D01*
X012075Y005763D01*
X011915Y005696D01*
X011792Y005573D01*
X011725Y005412D01*
X011725Y004684D01*
X011781Y004548D01*
X011725Y004412D01*
X011725Y003684D01*
X011792Y003524D01*
X011915Y003401D01*
X012075Y003334D01*
X012249Y003334D01*
X012037Y003350D02*
X011343Y003350D01*
X011338Y003348D02*
X011402Y003380D01*
X011460Y003422D01*
X011511Y003473D01*
X011553Y003532D01*
X011586Y003596D01*
X011608Y003664D01*
X011619Y003735D01*
X011619Y004040D01*
X011171Y004040D01*
X011171Y004057D01*
X011619Y004057D01*
X011619Y004361D01*
X011608Y004433D01*
X011586Y004501D01*
X011562Y004548D01*
X011586Y004596D01*
X011608Y004664D01*
X011619Y004735D01*
X011619Y005040D01*
X011171Y005040D01*
X011171Y005057D01*
X011619Y005057D01*
X011619Y005361D01*
X011608Y005433D01*
X011586Y005501D01*
X011553Y005565D01*
X011511Y005623D01*
X011460Y005674D01*
X011402Y005717D01*
X011338Y005749D01*
X011269Y005771D01*
X011198Y005783D01*
X011171Y005783D01*
X011171Y005057D01*
X011154Y005057D01*
X011154Y005783D01*
X011126Y005783D01*
X011055Y005771D01*
X010987Y005749D01*
X010923Y005717D01*
X010864Y005674D01*
X010814Y005623D01*
X010771Y005565D01*
X010739Y005501D01*
X010716Y005433D01*
X010705Y005361D01*
X010705Y005057D01*
X011154Y005057D01*
X011154Y005040D01*
X011171Y005040D01*
X011171Y004783D01*
X011171Y004057D01*
X011154Y004057D01*
X011154Y005040D01*
X010705Y005040D01*
X010705Y004735D01*
X010716Y004664D01*
X010739Y004596D01*
X010763Y004548D01*
X010739Y004501D01*
X010716Y004433D01*
X010705Y004361D01*
X010705Y004057D01*
X011154Y004057D01*
X011154Y004040D01*
X011171Y004040D01*
X011171Y003314D01*
X011198Y003314D01*
X011269Y003325D01*
X011338Y003348D01*
X011171Y003350D02*
X011154Y003350D01*
X011154Y003314D02*
X011154Y004040D01*
X010705Y004040D01*
X010705Y003735D01*
X010716Y003664D01*
X010739Y003596D01*
X010771Y003532D01*
X010814Y003473D01*
X010864Y003422D01*
X010923Y003380D01*
X010987Y003348D01*
X011055Y003325D01*
X011126Y003314D01*
X011154Y003314D01*
X010982Y003350D02*
X010288Y003350D01*
X010249Y003334D02*
X010410Y003401D01*
X010533Y003524D01*
X010599Y003684D01*
X010599Y004412D01*
X010543Y004548D01*
X010599Y004684D01*
X010599Y005412D01*
X010533Y005573D01*
X010410Y005696D01*
X010249Y005763D01*
X010075Y005763D01*
X009915Y005696D01*
X009792Y005573D01*
X009725Y005412D01*
X009725Y004684D01*
X009781Y004548D01*
X009725Y004412D01*
X009725Y003684D01*
X009792Y003524D01*
X009915Y003401D01*
X010075Y003334D01*
X010249Y003334D01*
X010037Y003350D02*
X009288Y003350D01*
X009249Y003334D02*
X009410Y003401D01*
X009533Y003524D01*
X009599Y003684D01*
X009599Y004412D01*
X009543Y004548D01*
X009599Y004684D01*
X009599Y005412D01*
X009533Y005573D01*
X009410Y005696D01*
X009249Y005763D01*
X009075Y005763D01*
X008915Y005696D01*
X008792Y005573D01*
X008725Y005412D01*
X008725Y004684D01*
X008781Y004548D01*
X008725Y004412D01*
X008725Y003684D01*
X008792Y003524D01*
X008915Y003401D01*
X009075Y003334D01*
X009249Y003334D01*
X009037Y003350D02*
X008288Y003350D01*
X008249Y003334D02*
X008410Y003401D01*
X008533Y003524D01*
X008599Y003684D01*
X008599Y004412D01*
X008543Y004548D01*
X008599Y004684D01*
X008599Y005412D01*
X008533Y005573D01*
X008410Y005696D01*
X008249Y005763D01*
X008075Y005763D01*
X007915Y005696D01*
X007792Y005573D01*
X007725Y005412D01*
X007725Y004684D01*
X007781Y004548D01*
X007725Y004412D01*
X007725Y003684D01*
X007792Y003524D01*
X007915Y003401D01*
X008075Y003334D01*
X008249Y003334D01*
X008037Y003350D02*
X007288Y003350D01*
X007249Y003334D02*
X007410Y003401D01*
X007533Y003524D01*
X007599Y003684D01*
X007599Y004412D01*
X007543Y004548D01*
X007599Y004684D01*
X007599Y005412D01*
X007533Y005573D01*
X007410Y005696D01*
X007249Y005763D01*
X007075Y005763D01*
X006915Y005696D01*
X006792Y005573D01*
X006725Y005412D01*
X006725Y004684D01*
X006781Y004548D01*
X006725Y004412D01*
X006725Y003684D01*
X006792Y003524D01*
X006915Y003401D01*
X007075Y003334D01*
X007249Y003334D01*
X007037Y003350D02*
X006288Y003350D01*
X006037Y003350D02*
X006023Y003350D01*
X005732Y003667D02*
X005592Y003667D01*
X005599Y003826D02*
X005725Y003826D01*
X005725Y003984D02*
X005599Y003984D01*
X005599Y004143D02*
X005725Y004143D01*
X005725Y004301D02*
X005599Y004301D01*
X005580Y004460D02*
X005745Y004460D01*
X005753Y004618D02*
X005572Y004618D01*
X005599Y004777D02*
X005725Y004777D01*
X005725Y004935D02*
X005599Y004935D01*
X005599Y005094D02*
X005725Y005094D01*
X005725Y005252D02*
X005599Y005252D01*
X005599Y005411D02*
X005725Y005411D01*
X005790Y005569D02*
X005535Y005569D01*
X005334Y005728D02*
X005990Y005728D01*
X006334Y005728D02*
X006990Y005728D01*
X006790Y005569D02*
X006535Y005569D01*
X006599Y005411D02*
X006725Y005411D01*
X006725Y005252D02*
X006599Y005252D01*
X006599Y005094D02*
X006725Y005094D01*
X006725Y004935D02*
X006599Y004935D01*
X006599Y004777D02*
X006725Y004777D01*
X006753Y004618D02*
X006572Y004618D01*
X006580Y004460D02*
X006745Y004460D01*
X006725Y004301D02*
X006599Y004301D01*
X006599Y004143D02*
X006725Y004143D01*
X006725Y003984D02*
X006599Y003984D01*
X006599Y003826D02*
X006725Y003826D01*
X006732Y003667D02*
X006592Y003667D01*
X006518Y003509D02*
X006807Y003509D01*
X007518Y003509D02*
X007807Y003509D01*
X007732Y003667D02*
X007592Y003667D01*
X007599Y003826D02*
X007725Y003826D01*
X007725Y003984D02*
X007599Y003984D01*
X007599Y004143D02*
X007725Y004143D01*
X007725Y004301D02*
X007599Y004301D01*
X007580Y004460D02*
X007745Y004460D01*
X007753Y004618D02*
X007572Y004618D01*
X007599Y004777D02*
X007725Y004777D01*
X007725Y004935D02*
X007599Y004935D01*
X007599Y005094D02*
X007725Y005094D01*
X007725Y005252D02*
X007599Y005252D01*
X007599Y005411D02*
X007725Y005411D01*
X007790Y005569D02*
X007535Y005569D01*
X007334Y005728D02*
X007990Y005728D01*
X008334Y005728D02*
X008990Y005728D01*
X008790Y005569D02*
X008535Y005569D01*
X008599Y005411D02*
X008725Y005411D01*
X008725Y005252D02*
X008599Y005252D01*
X008599Y005094D02*
X008725Y005094D01*
X008725Y004935D02*
X008599Y004935D01*
X008599Y004777D02*
X008725Y004777D01*
X008753Y004618D02*
X008572Y004618D01*
X008580Y004460D02*
X008745Y004460D01*
X008725Y004301D02*
X008599Y004301D01*
X008599Y004143D02*
X008725Y004143D01*
X008725Y003984D02*
X008599Y003984D01*
X008599Y003826D02*
X008725Y003826D01*
X008732Y003667D02*
X008592Y003667D01*
X008518Y003509D02*
X008807Y003509D01*
X009518Y003509D02*
X009807Y003509D01*
X009732Y003667D02*
X009592Y003667D01*
X009599Y003826D02*
X009725Y003826D01*
X009725Y003984D02*
X009599Y003984D01*
X009599Y004143D02*
X009725Y004143D01*
X009725Y004301D02*
X009599Y004301D01*
X009580Y004460D02*
X009745Y004460D01*
X009753Y004618D02*
X009572Y004618D01*
X009599Y004777D02*
X009725Y004777D01*
X009725Y004935D02*
X009599Y004935D01*
X009599Y005094D02*
X009725Y005094D01*
X009725Y005252D02*
X009599Y005252D01*
X009599Y005411D02*
X009725Y005411D01*
X009790Y005569D02*
X009535Y005569D01*
X009334Y005728D02*
X009990Y005728D01*
X010334Y005728D02*
X010944Y005728D01*
X011154Y005728D02*
X011171Y005728D01*
X011154Y005569D02*
X011171Y005569D01*
X011154Y005411D02*
X011171Y005411D01*
X011154Y005252D02*
X011171Y005252D01*
X011154Y005094D02*
X011171Y005094D01*
X011154Y004935D02*
X011171Y004935D01*
X011154Y004777D02*
X011171Y004777D01*
X011154Y004618D02*
X011171Y004618D01*
X011154Y004460D02*
X011171Y004460D01*
X011154Y004301D02*
X011171Y004301D01*
X011154Y004143D02*
X011171Y004143D01*
X011154Y003984D02*
X011171Y003984D01*
X011154Y003826D02*
X011171Y003826D01*
X011154Y003667D02*
X011171Y003667D01*
X011154Y003509D02*
X011171Y003509D01*
X011537Y003509D02*
X011807Y003509D01*
X011732Y003667D02*
X011609Y003667D01*
X011619Y003826D02*
X011725Y003826D01*
X011725Y003984D02*
X011619Y003984D01*
X011619Y004143D02*
X011725Y004143D01*
X011725Y004301D02*
X011619Y004301D01*
X011599Y004460D02*
X011745Y004460D01*
X011753Y004618D02*
X011593Y004618D01*
X011619Y004777D02*
X011725Y004777D01*
X011725Y004935D02*
X011619Y004935D01*
X011619Y005094D02*
X011725Y005094D01*
X011725Y005252D02*
X011619Y005252D01*
X011612Y005411D02*
X011725Y005411D01*
X011790Y005569D02*
X011550Y005569D01*
X011380Y005728D02*
X011990Y005728D01*
X012334Y005728D02*
X012990Y005728D01*
X012790Y005569D02*
X012535Y005569D01*
X012599Y005411D02*
X012725Y005411D01*
X012725Y005252D02*
X012599Y005252D01*
X012599Y005094D02*
X012725Y005094D01*
X012725Y004935D02*
X012599Y004935D01*
X012599Y004777D02*
X012725Y004777D01*
X012753Y004618D02*
X012572Y004618D01*
X012580Y004460D02*
X012745Y004460D01*
X012725Y004301D02*
X012599Y004301D01*
X012599Y004143D02*
X012725Y004143D01*
X012725Y003984D02*
X012599Y003984D01*
X012599Y003826D02*
X012725Y003826D01*
X012732Y003667D02*
X012592Y003667D01*
X012518Y003509D02*
X012807Y003509D01*
X013518Y003509D02*
X013807Y003509D01*
X013732Y003667D02*
X013592Y003667D01*
X013599Y003826D02*
X013725Y003826D01*
X013725Y003984D02*
X013599Y003984D01*
X013599Y004143D02*
X013725Y004143D01*
X013725Y004301D02*
X013599Y004301D01*
X013580Y004460D02*
X013745Y004460D01*
X013753Y004618D02*
X013572Y004618D01*
X013599Y004777D02*
X013725Y004777D01*
X013725Y004935D02*
X013599Y004935D01*
X013599Y005094D02*
X013725Y005094D01*
X013725Y005252D02*
X013599Y005252D01*
X013599Y005411D02*
X013725Y005411D01*
X013790Y005569D02*
X013535Y005569D01*
X013334Y005728D02*
X013990Y005728D01*
X014334Y005728D02*
X014990Y005728D01*
X014790Y005569D02*
X014535Y005569D01*
X014599Y005411D02*
X014725Y005411D01*
X014725Y005252D02*
X014599Y005252D01*
X014599Y005094D02*
X014725Y005094D01*
X014725Y004935D02*
X014599Y004935D01*
X014599Y004777D02*
X014725Y004777D01*
X014753Y004618D02*
X014572Y004618D01*
X014580Y004460D02*
X014745Y004460D01*
X014725Y004301D02*
X014599Y004301D01*
X014599Y004143D02*
X014725Y004143D01*
X014725Y003984D02*
X014599Y003984D01*
X014599Y003826D02*
X014725Y003826D01*
X014732Y003667D02*
X014592Y003667D01*
X014518Y003509D02*
X014807Y003509D01*
X015518Y003509D02*
X015807Y003509D01*
X015732Y003667D02*
X015592Y003667D01*
X015599Y003826D02*
X015725Y003826D01*
X015725Y003984D02*
X015599Y003984D01*
X015599Y004143D02*
X015725Y004143D01*
X015725Y004301D02*
X015599Y004301D01*
X015580Y004460D02*
X015745Y004460D01*
X015753Y004618D02*
X015572Y004618D01*
X015599Y004777D02*
X015725Y004777D01*
X015725Y004935D02*
X015599Y004935D01*
X015599Y005094D02*
X015725Y005094D01*
X015725Y005252D02*
X015599Y005252D01*
X015599Y005411D02*
X015725Y005411D01*
X015790Y005569D02*
X015535Y005569D01*
X015334Y005728D02*
X015990Y005728D01*
X018550Y001924D02*
X001460Y001924D01*
X001695Y001765D02*
X018332Y001765D01*
X018174Y001607D02*
X001853Y001607D01*
X001928Y001448D02*
X018106Y001448D01*
X018040Y001290D02*
X001994Y001290D01*
X002020Y001131D02*
X018019Y001131D01*
X018019Y000973D02*
X002020Y000973D01*
X002012Y000814D02*
X018032Y000814D01*
X018098Y000656D02*
X001946Y000656D01*
X001881Y000497D02*
X018164Y000497D01*
X019469Y001924D02*
X019685Y001924D01*
X019685Y002082D02*
X000360Y002082D01*
X000360Y001924D02*
X000600Y001924D01*
X000365Y001765D02*
X000360Y001765D01*
X004334Y005728D02*
X004990Y005728D01*
X004790Y005569D02*
X004535Y005569D01*
X004599Y005411D02*
X004725Y005411D01*
X004725Y005252D02*
X004599Y005252D01*
X004599Y005094D02*
X004725Y005094D01*
X004725Y004935D02*
X004599Y004935D01*
X004599Y004777D02*
X004725Y004777D01*
X004753Y004618D02*
X004572Y004618D01*
X004580Y004460D02*
X004745Y004460D01*
X004725Y004301D02*
X004599Y004301D01*
X004599Y004143D02*
X004725Y004143D01*
X004725Y003984D02*
X004599Y003984D01*
X004599Y003826D02*
X004725Y003826D01*
X004732Y003667D02*
X004592Y003667D01*
X004518Y003509D02*
X004807Y003509D01*
X005380Y003350D02*
X005457Y003350D01*
X005518Y003509D02*
X005616Y003509D01*
X001750Y006520D02*
X001146Y006520D01*
X001364Y006679D02*
X001750Y006679D01*
X001750Y006837D02*
X001456Y006837D01*
X001496Y006996D02*
X001750Y006996D01*
X001750Y007154D02*
X001496Y007154D01*
X001434Y007313D02*
X001750Y007313D01*
X001750Y007471D02*
X001311Y007471D01*
X000855Y011275D02*
X000360Y011275D01*
X000360Y011434D02*
X000561Y011434D01*
X000470Y011592D02*
X000360Y011592D01*
X010535Y005569D02*
X010774Y005569D01*
X010713Y005411D02*
X010599Y005411D01*
X010599Y005252D02*
X010705Y005252D01*
X010705Y005094D02*
X010599Y005094D01*
X010599Y004935D02*
X010705Y004935D01*
X010705Y004777D02*
X010599Y004777D01*
X010572Y004618D02*
X010731Y004618D01*
X010725Y004460D02*
X010580Y004460D01*
X010599Y004301D02*
X010705Y004301D01*
X010705Y004143D02*
X010599Y004143D01*
X010599Y003984D02*
X010705Y003984D01*
X010705Y003826D02*
X010599Y003826D01*
X010592Y003667D02*
X010716Y003667D01*
X010788Y003509D02*
X010518Y003509D01*
D22*
X019009Y001042D03*
X019012Y019007D03*
X001031Y019005D03*
X001030Y001030D03*
M02*
