%
M48
M72
T01C0.0119
T02C0.0120
T03C0.0236
T04C0.0354
T05C0.0400
T06C0.0787
T07C0.1260
%
T01
X12160Y15070
X14720Y13750
T02
X15880Y15217
X15880Y14580
X15470Y16160
X11380Y13750
X15660Y15510
X5180Y3130
X5120Y2760
X2420Y14610
X4850Y2520
X11460Y14830
X16050Y15510
T03
X4164Y15280
X4162Y12530
T04
X4162Y4048
X5162Y4048
X6162Y4048
X7162Y4048
X8162Y4048
X9162Y4048
X10162Y4048
X11162Y4048
X12162Y4048
X13162Y4048
X14162Y4048
X15162Y4048
X16162Y4048
X17162Y4048
X17162Y10048
X16162Y10048
X15162Y10048
X14162Y10048
X13162Y10048
X12162Y10048
X11162Y10048
X10162Y10048
X9162Y10048
X8162Y10048
X7162Y10048
X6162Y10048
X5162Y10048
X4162Y10048
X4162Y5048
X5162Y5048
X6162Y5048
X7162Y5048
X8162Y5048
X9162Y5048
X10162Y5048
X11162Y5048
X12162Y5048
X13162Y5048
X14162Y5048
X15162Y5048
X16162Y5048
X17162Y5048
X17162Y9048
X16162Y9048
X15162Y9048
X14162Y9048
X13162Y9048
X12162Y9048
X11162Y9048
X10162Y9048
X9162Y9048
X8162Y9048
X7162Y9048
X6162Y9048
X5162Y9048
X4162Y9048
T05
X1223Y11750
X1223Y12750
X1223Y13750
X1223Y14750
X1223Y15750
X1223Y16750
X19147Y15215
X14721Y19001
X19138Y16479
X16099Y18983
X9422Y18962
X10739Y18970
X12073Y18981
X13374Y18976
X19119Y13299
T06
X19024Y7048
X922Y7048
X19024Y7048
X922Y7048
T07
X1031Y19005
X19012Y19007
X1030Y1030
X19009Y1042
M30
