G75*
%MOIN*%
%OFA0B0*%
%FSLAX24Y24*%
%IPPOS*%
%LPD*%
%AMOC8*
5,1,8,0,0,1.08239X$1,22.5*
%
%ADD10C,0.0000*%
%ADD11C,0.0030*%
%ADD12C,0.0040*%
%ADD13C,0.0060*%
%ADD14C,0.0050*%
%ADD15C,0.0059*%
D10*
X000180Y000180D02*
X000180Y019865D01*
X019865Y019865D01*
X019865Y000180D01*
X000180Y000180D01*
X000528Y007048D02*
X000530Y007087D01*
X000536Y007126D01*
X000546Y007164D01*
X000559Y007201D01*
X000576Y007236D01*
X000596Y007270D01*
X000620Y007301D01*
X000647Y007330D01*
X000676Y007356D01*
X000708Y007379D01*
X000742Y007399D01*
X000778Y007415D01*
X000815Y007427D01*
X000854Y007436D01*
X000893Y007441D01*
X000932Y007442D01*
X000971Y007439D01*
X001010Y007432D01*
X001047Y007421D01*
X001084Y007407D01*
X001119Y007389D01*
X001152Y007368D01*
X001183Y007343D01*
X001211Y007316D01*
X001236Y007286D01*
X001258Y007253D01*
X001277Y007219D01*
X001292Y007183D01*
X001304Y007145D01*
X001312Y007107D01*
X001316Y007068D01*
X001316Y007028D01*
X001312Y006989D01*
X001304Y006951D01*
X001292Y006913D01*
X001277Y006877D01*
X001258Y006843D01*
X001236Y006810D01*
X001211Y006780D01*
X001183Y006753D01*
X001152Y006728D01*
X001119Y006707D01*
X001084Y006689D01*
X001047Y006675D01*
X001010Y006664D01*
X000971Y006657D01*
X000932Y006654D01*
X000893Y006655D01*
X000854Y006660D01*
X000815Y006669D01*
X000778Y006681D01*
X000742Y006697D01*
X000708Y006717D01*
X000676Y006740D01*
X000647Y006766D01*
X000620Y006795D01*
X000596Y006826D01*
X000576Y006860D01*
X000559Y006895D01*
X000546Y006932D01*
X000536Y006970D01*
X000530Y007009D01*
X000528Y007048D01*
X000530Y007087D01*
X000536Y007126D01*
X000546Y007164D01*
X000559Y007201D01*
X000576Y007236D01*
X000596Y007270D01*
X000620Y007301D01*
X000647Y007330D01*
X000676Y007356D01*
X000708Y007379D01*
X000742Y007399D01*
X000778Y007415D01*
X000815Y007427D01*
X000854Y007436D01*
X000893Y007441D01*
X000932Y007442D01*
X000971Y007439D01*
X001010Y007432D01*
X001047Y007421D01*
X001084Y007407D01*
X001119Y007389D01*
X001152Y007368D01*
X001183Y007343D01*
X001211Y007316D01*
X001236Y007286D01*
X001258Y007253D01*
X001277Y007219D01*
X001292Y007183D01*
X001304Y007145D01*
X001312Y007107D01*
X001316Y007068D01*
X001316Y007028D01*
X001312Y006989D01*
X001304Y006951D01*
X001292Y006913D01*
X001277Y006877D01*
X001258Y006843D01*
X001236Y006810D01*
X001211Y006780D01*
X001183Y006753D01*
X001152Y006728D01*
X001119Y006707D01*
X001084Y006689D01*
X001047Y006675D01*
X001010Y006664D01*
X000971Y006657D01*
X000932Y006654D01*
X000893Y006655D01*
X000854Y006660D01*
X000815Y006669D01*
X000778Y006681D01*
X000742Y006697D01*
X000708Y006717D01*
X000676Y006740D01*
X000647Y006766D01*
X000620Y006795D01*
X000596Y006826D01*
X000576Y006860D01*
X000559Y006895D01*
X000546Y006932D01*
X000536Y006970D01*
X000530Y007009D01*
X000528Y007048D01*
X018630Y007048D02*
X018632Y007087D01*
X018638Y007126D01*
X018648Y007164D01*
X018661Y007201D01*
X018678Y007236D01*
X018698Y007270D01*
X018722Y007301D01*
X018749Y007330D01*
X018778Y007356D01*
X018810Y007379D01*
X018844Y007399D01*
X018880Y007415D01*
X018917Y007427D01*
X018956Y007436D01*
X018995Y007441D01*
X019034Y007442D01*
X019073Y007439D01*
X019112Y007432D01*
X019149Y007421D01*
X019186Y007407D01*
X019221Y007389D01*
X019254Y007368D01*
X019285Y007343D01*
X019313Y007316D01*
X019338Y007286D01*
X019360Y007253D01*
X019379Y007219D01*
X019394Y007183D01*
X019406Y007145D01*
X019414Y007107D01*
X019418Y007068D01*
X019418Y007028D01*
X019414Y006989D01*
X019406Y006951D01*
X019394Y006913D01*
X019379Y006877D01*
X019360Y006843D01*
X019338Y006810D01*
X019313Y006780D01*
X019285Y006753D01*
X019254Y006728D01*
X019221Y006707D01*
X019186Y006689D01*
X019149Y006675D01*
X019112Y006664D01*
X019073Y006657D01*
X019034Y006654D01*
X018995Y006655D01*
X018956Y006660D01*
X018917Y006669D01*
X018880Y006681D01*
X018844Y006697D01*
X018810Y006717D01*
X018778Y006740D01*
X018749Y006766D01*
X018722Y006795D01*
X018698Y006826D01*
X018678Y006860D01*
X018661Y006895D01*
X018648Y006932D01*
X018638Y006970D01*
X018632Y007009D01*
X018630Y007048D01*
X018632Y007087D01*
X018638Y007126D01*
X018648Y007164D01*
X018661Y007201D01*
X018678Y007236D01*
X018698Y007270D01*
X018722Y007301D01*
X018749Y007330D01*
X018778Y007356D01*
X018810Y007379D01*
X018844Y007399D01*
X018880Y007415D01*
X018917Y007427D01*
X018956Y007436D01*
X018995Y007441D01*
X019034Y007442D01*
X019073Y007439D01*
X019112Y007432D01*
X019149Y007421D01*
X019186Y007407D01*
X019221Y007389D01*
X019254Y007368D01*
X019285Y007343D01*
X019313Y007316D01*
X019338Y007286D01*
X019360Y007253D01*
X019379Y007219D01*
X019394Y007183D01*
X019406Y007145D01*
X019414Y007107D01*
X019418Y007068D01*
X019418Y007028D01*
X019414Y006989D01*
X019406Y006951D01*
X019394Y006913D01*
X019379Y006877D01*
X019360Y006843D01*
X019338Y006810D01*
X019313Y006780D01*
X019285Y006753D01*
X019254Y006728D01*
X019221Y006707D01*
X019186Y006689D01*
X019149Y006675D01*
X019112Y006664D01*
X019073Y006657D01*
X019034Y006654D01*
X018995Y006655D01*
X018956Y006660D01*
X018917Y006669D01*
X018880Y006681D01*
X018844Y006697D01*
X018810Y006717D01*
X018778Y006740D01*
X018749Y006766D01*
X018722Y006795D01*
X018698Y006826D01*
X018678Y006860D01*
X018661Y006895D01*
X018648Y006932D01*
X018638Y006970D01*
X018632Y007009D01*
X018630Y007048D01*
D11*
X013567Y002034D02*
X013321Y001788D01*
X013382Y001726D01*
X013506Y001726D01*
X013567Y001788D01*
X013567Y002034D01*
X013506Y002096D01*
X013382Y002096D01*
X013321Y002034D01*
X013321Y001788D01*
X013199Y001726D02*
X012952Y001726D01*
X013199Y001973D01*
X013199Y002034D01*
X013137Y002096D01*
X013014Y002096D01*
X012952Y002034D01*
X012831Y002034D02*
X012769Y002096D01*
X012646Y002096D01*
X012584Y002034D01*
X012339Y002096D02*
X012339Y001726D01*
X012216Y001726D02*
X012462Y001726D01*
X012584Y001726D02*
X012831Y001973D01*
X012831Y002034D01*
X012831Y001726D02*
X012584Y001726D01*
X012216Y001973D02*
X012339Y002096D01*
X012094Y002034D02*
X012094Y001973D01*
X012032Y001911D01*
X012094Y001849D01*
X012094Y001788D01*
X012032Y001726D01*
X011909Y001726D01*
X011847Y001788D01*
X011726Y001726D02*
X011479Y001726D01*
X011602Y001726D02*
X011602Y002096D01*
X011479Y001973D01*
X011358Y002034D02*
X011358Y001788D01*
X011296Y001726D01*
X011172Y001726D01*
X011111Y001788D01*
X011358Y002034D01*
X011296Y002096D01*
X011172Y002096D01*
X011111Y002034D01*
X011111Y001788D01*
X010989Y001726D02*
X010742Y001726D01*
X010989Y001973D01*
X010989Y002034D01*
X010928Y002096D01*
X010804Y002096D01*
X010742Y002034D01*
X011847Y002034D02*
X011909Y002096D01*
X012032Y002096D01*
X012094Y002034D01*
X012032Y001911D02*
X011971Y001911D01*
X006213Y018758D02*
X006275Y018820D01*
X006275Y019128D01*
X006089Y019128D01*
X006028Y019067D01*
X006028Y018943D01*
X006089Y018881D01*
X006275Y018881D01*
X006396Y018881D02*
X006458Y018881D01*
X006458Y018943D01*
X006396Y018943D01*
X006396Y018881D01*
X006580Y018943D02*
X006580Y019128D01*
X006580Y018943D02*
X006642Y018881D01*
X006827Y018881D01*
X006827Y019128D01*
X006948Y019005D02*
X007134Y019128D01*
X006948Y019005D02*
X007134Y018881D01*
X006948Y018881D02*
X006948Y019252D01*
X006213Y018758D02*
X006151Y018758D01*
X005906Y019128D02*
X005844Y019128D01*
X005721Y019005D01*
X005721Y019128D02*
X005721Y018881D01*
X005599Y018943D02*
X005599Y019067D01*
X005538Y019128D01*
X005414Y019128D01*
X005352Y019067D01*
X005352Y018943D01*
X005414Y018881D01*
X005538Y018881D01*
X005599Y018943D01*
X005230Y018943D02*
X005230Y018881D01*
X005168Y018881D01*
X005168Y018943D01*
X005230Y018943D01*
X005047Y019005D02*
X005047Y019252D01*
X005047Y019005D02*
X004923Y018881D01*
X004800Y019005D01*
X004800Y019252D01*
X004679Y019190D02*
X004679Y019067D01*
X004617Y019005D01*
X004432Y019005D01*
X004555Y019005D02*
X004679Y018881D01*
X004432Y018881D02*
X004432Y019252D01*
X004617Y019252D01*
X004679Y019190D01*
X004310Y019252D02*
X004063Y019252D01*
X004187Y019252D02*
X004187Y018881D01*
X003942Y018881D02*
X003942Y019067D01*
X003880Y019128D01*
X003695Y019128D01*
X003695Y018881D01*
X003574Y019005D02*
X003574Y019067D01*
X003512Y019128D01*
X003388Y019128D01*
X003327Y019067D01*
X003327Y018943D01*
X003388Y018881D01*
X003512Y018881D01*
X003574Y019005D02*
X003327Y019005D01*
X003205Y019067D02*
X003205Y018943D01*
X003144Y018881D01*
X002958Y018881D01*
X002958Y018758D02*
X002958Y019128D01*
X003144Y019128D01*
X003205Y019067D01*
X002837Y018943D02*
X002837Y019190D01*
X002775Y019252D01*
X002652Y019252D01*
X002590Y019190D01*
X002590Y018943D01*
X002652Y018881D01*
X002775Y018881D01*
X002837Y018943D01*
D12*
X002383Y014873D02*
X002383Y014755D01*
X002383Y014814D02*
X002029Y014814D01*
X002029Y014755D02*
X002029Y014873D01*
X002088Y014629D02*
X002029Y014570D01*
X002029Y014393D01*
X002383Y014393D01*
X002383Y014570D01*
X002324Y014629D01*
X002088Y014629D01*
X002029Y014266D02*
X002029Y014030D01*
X002029Y014148D02*
X002383Y014148D01*
X002029Y013904D02*
X002029Y013668D01*
X002383Y013668D01*
X002206Y013668D02*
X002206Y013786D01*
X010796Y014324D02*
X010796Y015801D01*
X011846Y015801D02*
X011846Y014324D01*
X015007Y015169D02*
X015007Y015405D01*
X015007Y015287D02*
X015361Y015287D01*
X015361Y015532D02*
X015007Y015532D01*
X015125Y015650D01*
X015007Y015768D01*
X015361Y015768D01*
X015361Y015894D02*
X015007Y015894D01*
X015007Y016071D01*
X015066Y016130D01*
X015184Y016130D01*
X015243Y016071D01*
X015243Y015894D01*
X015449Y015965D02*
X015449Y016398D01*
X015361Y016375D02*
X015007Y016375D01*
X015125Y016257D01*
X015361Y016257D02*
X015361Y016493D01*
X015361Y016619D02*
X015361Y016855D01*
X015361Y016737D02*
X015007Y016737D01*
X015125Y016619D01*
X015066Y016982D02*
X015007Y017041D01*
X015007Y017159D01*
X015066Y017218D01*
X015125Y017218D01*
X015361Y016982D01*
X015361Y017218D01*
X015549Y016398D02*
X015549Y015965D01*
X016249Y015965D02*
X016249Y016398D01*
X016266Y018059D02*
X016207Y018118D01*
X016207Y018354D01*
X016266Y018413D01*
X016384Y018413D01*
X016443Y018354D01*
X016443Y018118D02*
X016384Y018059D01*
X016266Y018059D01*
X016080Y018118D02*
X016021Y018059D01*
X015903Y018059D01*
X015844Y018118D01*
X015844Y018354D01*
X015903Y018413D01*
X016021Y018413D01*
X016080Y018354D01*
X015718Y018413D02*
X015718Y018177D01*
X015600Y018059D01*
X015482Y018177D01*
X015482Y018413D01*
X015158Y018304D02*
X015158Y018068D01*
X015158Y018245D02*
X014922Y018245D01*
X014922Y018304D02*
X014922Y018068D01*
X014795Y018127D02*
X014795Y018363D01*
X014736Y018422D01*
X014559Y018422D01*
X014559Y018068D01*
X014736Y018068D01*
X014795Y018127D01*
X014922Y018304D02*
X015040Y018422D01*
X015158Y018304D01*
X014433Y018363D02*
X014374Y018422D01*
X014256Y018422D01*
X014197Y018363D01*
X014197Y018304D01*
X014256Y018245D01*
X014374Y018245D01*
X014433Y018186D01*
X014433Y018127D01*
X014374Y018068D01*
X014256Y018068D01*
X014197Y018127D01*
X018206Y016901D02*
X018206Y016724D01*
X018560Y016724D01*
X018560Y016901D01*
X018501Y016960D01*
X018265Y016960D01*
X018206Y016901D01*
X018206Y016597D02*
X018560Y016597D01*
X018206Y016361D01*
X018560Y016361D01*
X018501Y016235D02*
X018383Y016235D01*
X018383Y016117D01*
X018265Y016235D02*
X018206Y016176D01*
X018206Y016058D01*
X018265Y015999D01*
X018501Y015999D01*
X018560Y016058D01*
X018560Y016176D01*
X018501Y016235D01*
X018575Y015848D02*
X018575Y015612D01*
X018221Y015612D01*
X018280Y015485D02*
X018221Y015426D01*
X018221Y015308D01*
X018280Y015249D01*
X018516Y015249D01*
X018575Y015308D01*
X018575Y015426D01*
X018516Y015485D01*
X018516Y015122D02*
X018575Y015063D01*
X018575Y014945D01*
X018516Y014886D01*
X018398Y014945D02*
X018398Y015063D01*
X018457Y015122D01*
X018516Y015122D01*
X018398Y014945D02*
X018339Y014886D01*
X018280Y014886D01*
X018221Y014945D01*
X018221Y015063D01*
X018280Y015122D01*
X018195Y014555D02*
X018195Y014319D01*
X018195Y014437D02*
X018549Y014437D01*
X018549Y014192D02*
X018431Y014074D01*
X018431Y014133D02*
X018431Y013956D01*
X018549Y013956D02*
X018195Y013956D01*
X018195Y014133D01*
X018254Y014192D01*
X018372Y014192D01*
X018431Y014133D01*
X018549Y013830D02*
X018549Y013594D01*
X018195Y013594D01*
X018195Y013830D01*
X018372Y013712D02*
X018372Y013594D01*
X018549Y013467D02*
X018549Y013231D01*
X018195Y013231D01*
X018313Y013105D02*
X018195Y012987D01*
X018313Y012869D01*
X018549Y012869D01*
X018372Y012869D02*
X018372Y013105D01*
X018313Y013105D02*
X018549Y013105D01*
X016256Y013186D02*
X016256Y013619D01*
X015556Y013619D02*
X015556Y013186D01*
X015456Y013186D02*
X015456Y013619D01*
X011433Y000773D02*
X011315Y000773D01*
X011374Y000773D02*
X011374Y000478D01*
X011315Y000419D01*
X011256Y000419D01*
X011197Y000478D01*
X011071Y000478D02*
X011071Y000773D01*
X010835Y000773D02*
X010835Y000478D01*
X010894Y000419D01*
X011012Y000419D01*
X011071Y000478D01*
X010708Y000419D02*
X010472Y000419D01*
X010590Y000419D02*
X010590Y000773D01*
X010472Y000655D01*
X010346Y000714D02*
X010110Y000478D01*
X010110Y000419D01*
X009983Y000419D02*
X009983Y000773D01*
X009983Y000655D02*
X009806Y000655D01*
X009747Y000596D01*
X009747Y000478D01*
X009806Y000419D01*
X009983Y000419D01*
X010110Y000773D02*
X010346Y000773D01*
X010346Y000714D01*
X009621Y000714D02*
X009621Y000655D01*
X009562Y000596D01*
X009621Y000537D01*
X009621Y000478D01*
X009562Y000419D01*
X009444Y000419D01*
X009385Y000478D01*
X009503Y000596D02*
X009562Y000596D01*
X009621Y000714D02*
X009562Y000773D01*
X009444Y000773D01*
X009385Y000714D01*
X009258Y000773D02*
X009022Y000419D01*
X008898Y000419D02*
X008780Y000419D01*
X008839Y000419D02*
X008839Y000773D01*
X008780Y000773D01*
X008654Y000655D02*
X008477Y000655D01*
X008418Y000596D01*
X008418Y000478D01*
X008477Y000419D01*
X008654Y000419D01*
X008654Y000360D02*
X008595Y000301D01*
X008536Y000301D01*
X008654Y000360D02*
X008654Y000655D01*
X008296Y000478D02*
X008296Y000419D01*
X008237Y000419D01*
X008237Y000478D01*
X008296Y000478D01*
X008110Y000478D02*
X008110Y000596D01*
X008051Y000655D01*
X007933Y000655D01*
X007874Y000596D01*
X007874Y000478D01*
X007933Y000419D01*
X008051Y000419D01*
X008110Y000478D01*
X007748Y000478D02*
X007748Y000596D01*
X007689Y000655D01*
X007571Y000655D01*
X007512Y000596D01*
X007512Y000478D01*
X007571Y000419D01*
X007689Y000419D01*
X007748Y000478D01*
X007385Y000419D02*
X007208Y000419D01*
X007149Y000478D01*
X007149Y000596D01*
X007208Y000655D01*
X007385Y000655D01*
X007385Y000360D01*
X007326Y000301D01*
X007267Y000301D01*
X006787Y000419D02*
X007023Y000773D01*
X006660Y000773D02*
X006424Y000419D01*
X006302Y000419D02*
X006243Y000419D01*
X006243Y000478D01*
X006302Y000478D01*
X006302Y000419D01*
X006302Y000596D02*
X006243Y000596D01*
X006243Y000655D01*
X006302Y000655D01*
X006302Y000596D01*
X006116Y000596D02*
X006057Y000655D01*
X005880Y000655D01*
X005880Y000301D01*
X005880Y000419D02*
X006057Y000419D01*
X006116Y000478D01*
X006116Y000596D01*
X005757Y000655D02*
X005639Y000655D01*
X005698Y000714D02*
X005698Y000478D01*
X005757Y000419D01*
X005515Y000419D02*
X005456Y000478D01*
X005456Y000714D01*
X005397Y000655D02*
X005515Y000655D01*
X005270Y000596D02*
X005270Y000419D01*
X005270Y000596D02*
X005211Y000655D01*
X005093Y000655D01*
X005034Y000596D01*
X005034Y000773D02*
X005034Y000419D01*
X004550Y000419D02*
X004491Y000419D01*
X004491Y000478D01*
X004550Y000478D01*
X004550Y000419D01*
X004550Y000596D02*
X004491Y000596D01*
X004491Y000655D01*
X004550Y000655D01*
X004550Y000596D01*
X004364Y000596D02*
X004305Y000655D01*
X004187Y000655D01*
X004128Y000596D01*
X004128Y000478D01*
X004187Y000419D01*
X004305Y000419D01*
X004364Y000537D02*
X004128Y000537D01*
X004002Y000478D02*
X003943Y000537D01*
X003825Y000537D01*
X003766Y000596D01*
X003825Y000655D01*
X004002Y000655D01*
X004002Y000478D02*
X003943Y000419D01*
X003766Y000419D01*
X003639Y000419D02*
X003639Y000596D01*
X003580Y000655D01*
X003403Y000655D01*
X003403Y000419D01*
X003277Y000537D02*
X003041Y000537D01*
X003041Y000596D02*
X003100Y000655D01*
X003218Y000655D01*
X003277Y000596D01*
X003277Y000537D01*
X003218Y000419D02*
X003100Y000419D01*
X003041Y000478D01*
X003041Y000596D01*
X002914Y000655D02*
X002737Y000655D01*
X002678Y000596D01*
X002678Y000478D01*
X002737Y000419D01*
X002914Y000419D01*
X002554Y000419D02*
X002436Y000419D01*
X002495Y000419D02*
X002495Y000655D01*
X002436Y000655D01*
X002495Y000773D02*
X002495Y000832D01*
X002074Y000773D02*
X002074Y000419D01*
X002310Y000419D01*
X004364Y000537D02*
X004364Y000596D01*
D13*
X001473Y011250D02*
X000973Y011250D01*
X000523Y011500D01*
X000523Y012000D01*
X000973Y012250D01*
X000523Y012500D01*
X000523Y013000D01*
X000973Y013250D01*
X000523Y013500D01*
X000523Y014000D01*
X000973Y014250D01*
X000523Y014500D01*
X000523Y015000D01*
X000973Y015250D01*
X000523Y015500D01*
X000523Y016000D01*
X000973Y016250D01*
X000523Y016500D01*
X000523Y017000D01*
X000973Y017250D01*
X001473Y017250D01*
X001923Y017000D01*
X001923Y016500D01*
X001473Y016250D01*
X001923Y016000D01*
X001923Y015500D01*
X001473Y015250D01*
X001923Y015000D01*
X001923Y014500D01*
X001473Y014250D01*
X001923Y014000D01*
X001923Y013500D01*
X001473Y013250D01*
X001923Y013000D01*
X001923Y012500D01*
X001473Y012250D01*
X001923Y012000D01*
X001923Y011500D01*
X001473Y011250D01*
X008972Y018512D02*
X008972Y018712D01*
X008972Y018512D02*
X009172Y018512D01*
X009672Y018512D02*
X009872Y018512D01*
X009872Y018712D01*
X010289Y018720D02*
X010289Y018520D01*
X010489Y018520D01*
X010989Y018520D02*
X011189Y018520D01*
X011189Y018720D01*
X011623Y018731D02*
X011623Y018531D01*
X011823Y018531D01*
X012323Y018531D02*
X012523Y018531D01*
X012523Y018731D01*
X012924Y018726D02*
X012924Y018526D01*
X013124Y018526D01*
X013624Y018526D02*
X013824Y018526D01*
X013824Y018726D01*
X013824Y019226D02*
X013824Y019426D01*
X013624Y019426D01*
X013124Y019426D02*
X012924Y019426D01*
X012924Y019226D01*
X012523Y019231D02*
X012523Y019431D01*
X012323Y019431D01*
X011823Y019431D02*
X011623Y019431D01*
X011623Y019231D01*
X011189Y019220D02*
X011189Y019420D01*
X010989Y019420D01*
X010489Y019420D02*
X010289Y019420D01*
X010289Y019220D01*
X009872Y019212D02*
X009872Y019412D01*
X009672Y019412D01*
X009172Y019412D02*
X008972Y019412D01*
X008972Y019212D01*
X014271Y019251D02*
X014271Y019451D01*
X014471Y019451D01*
X014971Y019451D02*
X015171Y019451D01*
X015171Y019251D01*
X015171Y018751D02*
X015171Y018551D01*
X014971Y018551D01*
X014471Y018551D02*
X014271Y018551D01*
X014271Y018751D01*
X015649Y018733D02*
X015649Y018533D01*
X015849Y018533D01*
X016349Y018533D02*
X016549Y018533D01*
X016549Y018733D01*
X016549Y019233D02*
X016549Y019433D01*
X016349Y019433D01*
X015849Y019433D02*
X015649Y019433D01*
X015649Y019233D01*
X018688Y016929D02*
X018688Y016729D01*
X018688Y016929D02*
X018888Y016929D01*
X019388Y016929D02*
X019588Y016929D01*
X019588Y016729D01*
X019588Y016229D02*
X019588Y016029D01*
X019388Y016029D01*
X019397Y015665D02*
X019597Y015665D01*
X019597Y015465D01*
X019597Y014965D02*
X019597Y014765D01*
X019397Y014765D01*
X018897Y014765D02*
X018697Y014765D01*
X018697Y014965D01*
X018697Y015465D02*
X018697Y015665D01*
X018897Y015665D01*
X018888Y016029D02*
X018688Y016029D01*
X018688Y016229D01*
X018669Y013749D02*
X018669Y013549D01*
X018669Y013749D02*
X018869Y013749D01*
X019369Y013749D02*
X019569Y013749D01*
X019569Y013549D01*
X019569Y013049D02*
X019569Y012849D01*
X019369Y012849D01*
X018869Y012849D02*
X018669Y012849D01*
X018669Y013049D01*
D14*
X013688Y018026D02*
X013688Y018327D01*
X013613Y018402D01*
X013463Y018402D01*
X013388Y018327D01*
X013388Y018026D01*
X013463Y017951D01*
X013613Y017951D01*
X013688Y018026D01*
X013228Y018176D02*
X013153Y018101D01*
X012928Y018101D01*
X012928Y017951D02*
X012928Y018402D01*
X013153Y018402D01*
X013228Y018327D01*
X013228Y018176D01*
X012388Y018257D02*
X012388Y018332D01*
X012313Y018407D01*
X012163Y018407D01*
X012088Y018332D01*
X011927Y018257D02*
X011927Y017956D01*
X012088Y017956D02*
X012388Y018257D01*
X012388Y017956D02*
X012088Y017956D01*
X011927Y018182D02*
X011627Y018182D01*
X011627Y018257D02*
X011627Y017956D01*
X011627Y018257D02*
X011777Y018407D01*
X011927Y018257D01*
X011053Y017945D02*
X010753Y017945D01*
X010903Y017945D02*
X010903Y018396D01*
X010753Y018246D01*
X010593Y018246D02*
X010593Y017945D01*
X010593Y018171D02*
X010293Y018171D01*
X010293Y018246D02*
X010443Y018396D01*
X010593Y018246D01*
X010293Y018246D02*
X010293Y017945D01*
X009736Y018012D02*
X009661Y017937D01*
X009511Y017937D01*
X009436Y018012D01*
X009736Y018312D01*
X009736Y018012D01*
X009436Y018012D02*
X009436Y018312D01*
X009511Y018388D01*
X009661Y018388D01*
X009736Y018312D01*
X009276Y018237D02*
X009276Y017937D01*
X009276Y018162D02*
X008976Y018162D01*
X008976Y018237D02*
X009126Y018388D01*
X009276Y018237D01*
X008976Y018237D02*
X008976Y017937D01*
X001548Y017751D02*
X001548Y017600D01*
X001473Y017525D01*
X001323Y017525D01*
X001323Y017751D01*
X001398Y017826D01*
X001473Y017826D01*
X001548Y017751D01*
X001323Y017525D02*
X001173Y017675D01*
X001097Y017826D01*
X001560Y011001D02*
X001560Y010701D01*
X001560Y010851D02*
X001109Y010851D01*
X001259Y010701D01*
D15*
X010866Y014541D03*
M02*
