G75*
%MOIN*%
%OFA0B0*%
%FSLAX24Y24*%
%IPPOS*%
%LPD*%
%AMOC8*
5,1,8,0,0,1.08239X$1,22.5*
%
%ADD10C,0.0000*%
%ADD11C,0.0040*%
%ADD12C,0.0080*%
%ADD13C,0.0050*%
D10*
X000350Y000350D02*
X000350Y020035D01*
X020035Y020035D01*
X020035Y000350D01*
X000350Y000350D01*
X001267Y008344D02*
X001269Y008373D01*
X001275Y008401D01*
X001284Y008429D01*
X001297Y008455D01*
X001314Y008478D01*
X001333Y008500D01*
X001355Y008519D01*
X001380Y008534D01*
X001406Y008547D01*
X001434Y008555D01*
X001462Y008560D01*
X001491Y008561D01*
X001520Y008558D01*
X001548Y008551D01*
X001575Y008541D01*
X001601Y008527D01*
X001624Y008510D01*
X001645Y008490D01*
X001663Y008467D01*
X001678Y008442D01*
X001689Y008415D01*
X001697Y008387D01*
X001701Y008358D01*
X001701Y008330D01*
X001697Y008301D01*
X001689Y008273D01*
X001678Y008246D01*
X001663Y008221D01*
X001645Y008198D01*
X001624Y008178D01*
X001601Y008161D01*
X001575Y008147D01*
X001548Y008137D01*
X001520Y008130D01*
X001491Y008127D01*
X001462Y008128D01*
X001434Y008133D01*
X001406Y008141D01*
X001380Y008154D01*
X001355Y008169D01*
X001333Y008188D01*
X001314Y008210D01*
X001297Y008233D01*
X001284Y008259D01*
X001275Y008287D01*
X001269Y008315D01*
X001267Y008344D01*
X001267Y009344D02*
X001269Y009373D01*
X001275Y009401D01*
X001284Y009429D01*
X001297Y009455D01*
X001314Y009478D01*
X001333Y009500D01*
X001355Y009519D01*
X001380Y009534D01*
X001406Y009547D01*
X001434Y009555D01*
X001462Y009560D01*
X001491Y009561D01*
X001520Y009558D01*
X001548Y009551D01*
X001575Y009541D01*
X001601Y009527D01*
X001624Y009510D01*
X001645Y009490D01*
X001663Y009467D01*
X001678Y009442D01*
X001689Y009415D01*
X001697Y009387D01*
X001701Y009358D01*
X001701Y009330D01*
X001697Y009301D01*
X001689Y009273D01*
X001678Y009246D01*
X001663Y009221D01*
X001645Y009198D01*
X001624Y009178D01*
X001601Y009161D01*
X001575Y009147D01*
X001548Y009137D01*
X001520Y009130D01*
X001491Y009127D01*
X001462Y009128D01*
X001434Y009133D01*
X001406Y009141D01*
X001380Y009154D01*
X001355Y009169D01*
X001333Y009188D01*
X001314Y009210D01*
X001297Y009233D01*
X001284Y009259D01*
X001275Y009287D01*
X001269Y009315D01*
X001267Y009344D01*
X001259Y010670D02*
X001261Y010699D01*
X001267Y010727D01*
X001276Y010755D01*
X001289Y010781D01*
X001306Y010804D01*
X001325Y010826D01*
X001347Y010845D01*
X001372Y010860D01*
X001398Y010873D01*
X001426Y010881D01*
X001454Y010886D01*
X001483Y010887D01*
X001512Y010884D01*
X001540Y010877D01*
X001567Y010867D01*
X001593Y010853D01*
X001616Y010836D01*
X001637Y010816D01*
X001655Y010793D01*
X001670Y010768D01*
X001681Y010741D01*
X001689Y010713D01*
X001693Y010684D01*
X001693Y010656D01*
X001689Y010627D01*
X001681Y010599D01*
X001670Y010572D01*
X001655Y010547D01*
X001637Y010524D01*
X001616Y010504D01*
X001593Y010487D01*
X001567Y010473D01*
X001540Y010463D01*
X001512Y010456D01*
X001483Y010453D01*
X001454Y010454D01*
X001426Y010459D01*
X001398Y010467D01*
X001372Y010480D01*
X001347Y010495D01*
X001325Y010514D01*
X001306Y010536D01*
X001289Y010559D01*
X001276Y010585D01*
X001267Y010613D01*
X001261Y010641D01*
X001259Y010670D01*
X001259Y011670D02*
X001261Y011699D01*
X001267Y011727D01*
X001276Y011755D01*
X001289Y011781D01*
X001306Y011804D01*
X001325Y011826D01*
X001347Y011845D01*
X001372Y011860D01*
X001398Y011873D01*
X001426Y011881D01*
X001454Y011886D01*
X001483Y011887D01*
X001512Y011884D01*
X001540Y011877D01*
X001567Y011867D01*
X001593Y011853D01*
X001616Y011836D01*
X001637Y011816D01*
X001655Y011793D01*
X001670Y011768D01*
X001681Y011741D01*
X001689Y011713D01*
X001693Y011684D01*
X001693Y011656D01*
X001689Y011627D01*
X001681Y011599D01*
X001670Y011572D01*
X001655Y011547D01*
X001637Y011524D01*
X001616Y011504D01*
X001593Y011487D01*
X001567Y011473D01*
X001540Y011463D01*
X001512Y011456D01*
X001483Y011453D01*
X001454Y011454D01*
X001426Y011459D01*
X001398Y011467D01*
X001372Y011480D01*
X001347Y011495D01*
X001325Y011514D01*
X001306Y011536D01*
X001289Y011559D01*
X001276Y011585D01*
X001267Y011613D01*
X001261Y011641D01*
X001259Y011670D01*
D11*
X004323Y012230D02*
X004323Y012348D01*
X004382Y012407D01*
X004323Y012533D02*
X004323Y012769D01*
X004323Y012651D02*
X004677Y012651D01*
X004559Y012533D01*
X004618Y012407D02*
X004677Y012348D01*
X004677Y012230D01*
X004618Y012171D01*
X004382Y012171D01*
X004323Y012230D01*
X006434Y012312D02*
X006493Y012253D01*
X006788Y012253D01*
X006434Y012312D02*
X006434Y012430D01*
X006493Y012489D01*
X006788Y012489D01*
X006670Y012616D02*
X006788Y012734D01*
X006434Y012734D01*
X006434Y012616D02*
X006434Y012852D01*
X008512Y012797D02*
X008512Y012561D01*
X008748Y012797D01*
X008807Y012797D01*
X008866Y012738D01*
X008866Y012620D01*
X008807Y012561D01*
X008807Y012434D02*
X008866Y012375D01*
X008866Y012257D01*
X008807Y012198D01*
X008571Y012198D01*
X008512Y012257D01*
X008512Y012375D01*
X008571Y012434D01*
X009155Y011429D02*
X009096Y011370D01*
X009096Y011252D01*
X009155Y011193D01*
X009214Y011193D01*
X009273Y011252D01*
X009273Y011370D01*
X009214Y011429D01*
X009155Y011429D01*
X009273Y011370D02*
X009332Y011429D01*
X009391Y011429D01*
X009450Y011370D01*
X009450Y011252D01*
X009391Y011193D01*
X009332Y011193D01*
X009273Y011252D01*
X009155Y011066D02*
X009096Y011007D01*
X009096Y010889D01*
X009155Y010830D01*
X009391Y010830D01*
X009450Y010889D01*
X009450Y011007D01*
X009391Y011066D01*
X012424Y010140D02*
X012660Y010140D01*
X012483Y010317D01*
X012483Y009963D01*
X012787Y010022D02*
X012846Y009963D01*
X012964Y009963D01*
X013023Y010022D01*
X013023Y010258D01*
X012964Y010317D01*
X012846Y010317D01*
X012787Y010258D01*
X013329Y010266D02*
X013565Y010030D01*
X013565Y009971D01*
X013691Y010030D02*
X013750Y009971D01*
X013868Y009971D01*
X013927Y010030D01*
X013927Y010266D01*
X013868Y010325D01*
X013750Y010325D01*
X013691Y010266D01*
X013565Y010325D02*
X013329Y010325D01*
X013329Y010266D01*
X014804Y010118D02*
X014863Y010118D01*
X015099Y010354D01*
X015158Y010354D01*
X015158Y010118D01*
X015099Y009991D02*
X014981Y009991D01*
X014922Y009932D01*
X014922Y009755D01*
X014804Y009755D02*
X015158Y009755D01*
X015158Y009932D01*
X015099Y009991D01*
X014922Y009873D02*
X014804Y009991D01*
X013488Y007643D02*
X013547Y007584D01*
X013547Y007466D01*
X013488Y007407D01*
X013429Y007407D01*
X013370Y007466D01*
X013370Y007643D01*
X013252Y007643D02*
X013488Y007643D01*
X013252Y007643D02*
X013193Y007584D01*
X013193Y007466D01*
X013252Y007407D01*
X013193Y007281D02*
X013311Y007163D01*
X013311Y007222D02*
X013311Y007045D01*
X013193Y007045D02*
X013547Y007045D01*
X013547Y007222D01*
X013488Y007281D01*
X013370Y007281D01*
X013311Y007222D01*
X009851Y007201D02*
X009497Y007201D01*
X009497Y007083D02*
X009497Y007319D01*
X009733Y007083D02*
X009851Y007201D01*
X009792Y006956D02*
X009556Y006956D01*
X009497Y006897D01*
X009497Y006779D01*
X009556Y006720D01*
X009792Y006720D01*
X009851Y006779D01*
X009851Y006897D01*
X009792Y006956D01*
X009615Y006838D02*
X009497Y006956D01*
X007983Y006972D02*
X007983Y007149D01*
X007924Y007208D01*
X007806Y007208D01*
X007747Y007149D01*
X007747Y006972D01*
X007747Y007090D02*
X007629Y007208D01*
X007629Y007335D02*
X007629Y007571D01*
X007629Y007453D02*
X007983Y007453D01*
X007865Y007335D01*
X007983Y006972D02*
X007629Y006972D01*
X003300Y006192D02*
X003241Y006074D01*
X003123Y005956D01*
X003123Y006133D01*
X003064Y006192D01*
X003005Y006192D01*
X002946Y006133D01*
X002946Y006015D01*
X003005Y005956D01*
X003123Y005956D01*
X003123Y005829D02*
X003064Y005770D01*
X003064Y005593D01*
X002946Y005593D02*
X003300Y005593D01*
X003300Y005770D01*
X003241Y005829D01*
X003123Y005829D01*
X003064Y005711D02*
X002946Y005829D01*
X001835Y005710D02*
X001776Y005769D01*
X001658Y005769D01*
X001599Y005710D01*
X001599Y005533D01*
X001481Y005533D02*
X001835Y005533D01*
X001835Y005710D01*
X001776Y005896D02*
X001717Y005896D01*
X001658Y005955D01*
X001658Y006073D01*
X001599Y006132D01*
X001540Y006132D01*
X001481Y006073D01*
X001481Y005955D01*
X001540Y005896D01*
X001599Y005896D01*
X001658Y005955D01*
X001658Y006073D02*
X001717Y006132D01*
X001776Y006132D01*
X001835Y006073D01*
X001835Y005955D01*
X001776Y005896D01*
X001599Y005651D02*
X001481Y005769D01*
X001453Y005356D02*
X001099Y005356D01*
X001099Y005474D02*
X001099Y005238D01*
X001099Y005112D02*
X001217Y004994D01*
X001099Y004876D01*
X001453Y004876D01*
X001453Y004749D02*
X001099Y004749D01*
X001099Y004572D01*
X001158Y004513D01*
X001276Y004513D01*
X001335Y004572D01*
X001335Y004749D01*
X001804Y004592D02*
X001804Y005026D01*
X001904Y005026D02*
X001904Y004592D01*
X002604Y004592D02*
X002604Y005026D01*
X001453Y005112D02*
X001099Y005112D01*
X001217Y004387D02*
X001099Y004269D01*
X001453Y004269D01*
X001453Y004387D02*
X001453Y004151D01*
X006294Y002931D02*
X006294Y002695D01*
X006353Y002636D01*
X006471Y002636D01*
X006530Y002695D01*
X006294Y002931D01*
X006353Y002990D01*
X006471Y002990D01*
X006530Y002931D01*
X006530Y002695D01*
X006656Y002636D02*
X006892Y002636D01*
X006774Y002636D02*
X006774Y002990D01*
X006892Y002872D01*
X007019Y002931D02*
X007078Y002990D01*
X007196Y002990D01*
X007255Y002931D01*
X007255Y002695D01*
X007196Y002636D01*
X007078Y002636D01*
X007019Y002695D01*
X006939Y000993D02*
X006821Y000993D01*
X006762Y000934D01*
X006762Y000875D01*
X006821Y000816D01*
X006762Y000757D01*
X006762Y000698D01*
X006821Y000639D01*
X006939Y000639D01*
X006998Y000698D01*
X006880Y000816D02*
X006821Y000816D01*
X006635Y000816D02*
X006576Y000875D01*
X006399Y000875D01*
X006399Y000993D02*
X006399Y000639D01*
X006576Y000639D01*
X006635Y000698D01*
X006635Y000816D01*
X006939Y000993D02*
X006998Y000934D01*
X007124Y000993D02*
X007360Y000639D01*
X007484Y000639D02*
X007602Y000639D01*
X007543Y000639D02*
X007543Y000993D01*
X007602Y000993D01*
X007728Y000875D02*
X007905Y000875D01*
X007964Y000816D01*
X007964Y000698D01*
X007905Y000639D01*
X007728Y000639D01*
X007728Y000580D02*
X007728Y000875D01*
X008087Y000698D02*
X008087Y000639D01*
X008146Y000639D01*
X008146Y000698D01*
X008087Y000698D01*
X008272Y000698D02*
X008272Y000816D01*
X008331Y000875D01*
X008449Y000875D01*
X008508Y000816D01*
X008508Y000698D01*
X008449Y000639D01*
X008331Y000639D01*
X008272Y000698D01*
X008635Y000698D02*
X008635Y000816D01*
X008694Y000875D01*
X008812Y000875D01*
X008871Y000816D01*
X008871Y000698D01*
X008812Y000639D01*
X008694Y000639D01*
X008635Y000698D01*
X008997Y000639D02*
X009174Y000639D01*
X009233Y000698D01*
X009233Y000816D01*
X009174Y000875D01*
X008997Y000875D01*
X008997Y000580D01*
X009056Y000521D01*
X009115Y000521D01*
X009596Y000639D02*
X009360Y000993D01*
X009722Y000993D02*
X009958Y000639D01*
X010080Y000639D02*
X010139Y000639D01*
X010139Y000698D01*
X010080Y000698D01*
X010080Y000639D01*
X010080Y000816D02*
X010139Y000816D01*
X010139Y000875D01*
X010080Y000875D01*
X010080Y000816D01*
X010266Y000816D02*
X010325Y000875D01*
X010502Y000875D01*
X010502Y000521D01*
X010502Y000639D02*
X010325Y000639D01*
X010266Y000698D01*
X010266Y000816D01*
X010626Y000875D02*
X010744Y000875D01*
X010685Y000934D02*
X010685Y000698D01*
X010626Y000639D01*
X010867Y000639D02*
X010926Y000698D01*
X010926Y000934D01*
X010985Y000875D02*
X010867Y000875D01*
X011112Y000816D02*
X011112Y000639D01*
X011112Y000816D02*
X011171Y000875D01*
X011289Y000875D01*
X011348Y000816D01*
X011348Y000993D02*
X011348Y000639D01*
X011832Y000639D02*
X011891Y000639D01*
X011891Y000698D01*
X011832Y000698D01*
X011832Y000639D01*
X011832Y000816D02*
X011891Y000816D01*
X011891Y000875D01*
X011832Y000875D01*
X011832Y000816D01*
X012018Y000816D02*
X012018Y000757D01*
X012254Y000757D01*
X012254Y000698D02*
X012254Y000816D01*
X012195Y000875D01*
X012077Y000875D01*
X012018Y000816D01*
X012077Y000639D02*
X012195Y000639D01*
X012254Y000698D01*
X012381Y000698D02*
X012440Y000757D01*
X012558Y000757D01*
X012617Y000816D01*
X012558Y000875D01*
X012381Y000875D01*
X012381Y000698D02*
X012440Y000639D01*
X012617Y000639D01*
X012743Y000639D02*
X012743Y000816D01*
X012802Y000875D01*
X012979Y000875D01*
X012979Y000639D01*
X013106Y000757D02*
X013342Y000757D01*
X013342Y000698D02*
X013342Y000816D01*
X013283Y000875D01*
X013165Y000875D01*
X013106Y000816D01*
X013106Y000757D01*
X013165Y000639D02*
X013283Y000639D01*
X013342Y000698D01*
X013468Y000639D02*
X013645Y000639D01*
X013704Y000698D01*
X013704Y000816D01*
X013645Y000875D01*
X013468Y000875D01*
X013887Y000875D02*
X013887Y000639D01*
X013946Y000639D02*
X013828Y000639D01*
X013887Y000875D02*
X013946Y000875D01*
X013887Y000993D02*
X013887Y001052D01*
X014308Y000993D02*
X014308Y000639D01*
X014072Y000639D01*
X011272Y002673D02*
X011213Y002614D01*
X011095Y002614D01*
X011036Y002673D01*
X010910Y002614D02*
X010674Y002614D01*
X010792Y002614D02*
X010792Y002968D01*
X010910Y002850D01*
X011036Y002909D02*
X011095Y002968D01*
X011213Y002968D01*
X011272Y002909D01*
X011272Y002673D01*
X010547Y002614D02*
X010311Y002850D01*
X010311Y002909D01*
X010370Y002968D01*
X010488Y002968D01*
X010547Y002909D01*
X010547Y002614D02*
X010311Y002614D01*
X011731Y003692D02*
X011790Y003633D01*
X011908Y003633D01*
X011967Y003692D01*
X012094Y003692D02*
X012153Y003633D01*
X012271Y003633D01*
X012330Y003692D01*
X012330Y003928D01*
X012271Y003987D01*
X012153Y003987D01*
X012094Y003928D01*
X011967Y003928D02*
X011967Y003869D01*
X011908Y003810D01*
X011731Y003810D01*
X011731Y003692D02*
X011731Y003928D01*
X011790Y003987D01*
X011908Y003987D01*
X011967Y003928D01*
X006273Y000993D02*
X006037Y000993D01*
X006037Y000934D01*
X006273Y000698D01*
X006273Y000639D01*
X005910Y000639D02*
X005674Y000639D01*
X005792Y000639D02*
X005792Y000993D01*
X005910Y000875D01*
X005547Y000993D02*
X005547Y000698D01*
X005488Y000639D01*
X005370Y000639D01*
X005311Y000698D01*
X005311Y000993D01*
X005067Y000993D02*
X004949Y000993D01*
X005008Y000993D02*
X005008Y000698D01*
X005067Y000639D01*
X005126Y000639D01*
X005185Y000698D01*
X007728Y000580D02*
X007787Y000521D01*
X007846Y000521D01*
X020690Y011095D02*
X020690Y011402D01*
X020767Y011402D01*
X020844Y011325D01*
X020921Y011402D01*
X020997Y011325D01*
X020997Y011095D01*
X020844Y011095D02*
X020844Y011325D01*
X021151Y011402D02*
X021227Y011402D01*
X021227Y011095D01*
X021151Y011095D02*
X021304Y011095D01*
X021458Y011095D02*
X021458Y011402D01*
X021688Y011402D01*
X021765Y011325D01*
X021765Y011095D01*
X022378Y011095D02*
X022685Y011402D01*
X022685Y011478D01*
X022609Y011555D01*
X022455Y011555D01*
X022378Y011478D01*
X022378Y011845D02*
X022302Y011921D01*
X022378Y011998D01*
X022609Y011998D01*
X022609Y012075D02*
X022532Y012152D01*
X022378Y012152D01*
X022609Y012075D02*
X022609Y011845D01*
X022378Y011845D01*
X022148Y011845D02*
X021995Y011845D01*
X022071Y011845D02*
X022071Y012305D01*
X021995Y012305D01*
X021841Y012075D02*
X021841Y011921D01*
X021765Y011845D01*
X021534Y011845D01*
X021534Y011691D02*
X021534Y012152D01*
X021765Y012152D01*
X021841Y012075D01*
X021381Y012075D02*
X021381Y011998D01*
X021074Y011998D01*
X021074Y011921D02*
X021074Y012075D01*
X021151Y012152D01*
X021304Y012152D01*
X021381Y012075D01*
X021151Y011845D02*
X021074Y011921D01*
X021151Y011845D02*
X021304Y011845D01*
X021227Y011632D02*
X021227Y011555D01*
X020690Y011845D02*
X020690Y012152D01*
X020690Y011998D02*
X020844Y012152D01*
X020921Y012152D01*
X020537Y012228D02*
X020537Y012382D01*
X020537Y012228D02*
X020460Y012152D01*
X020383Y012228D02*
X020307Y012152D01*
X020383Y012228D02*
X020383Y012382D01*
X020383Y011632D02*
X020383Y011478D01*
X020307Y011402D01*
X020460Y011402D02*
X020537Y011478D01*
X020537Y011632D01*
X022378Y011095D02*
X022685Y011095D01*
X022839Y011095D02*
X022916Y011095D01*
X022916Y011171D01*
X022839Y011171D01*
X022839Y011095D01*
X023069Y011095D02*
X023376Y011095D01*
X023529Y011095D02*
X023529Y011402D01*
X023606Y011402D01*
X023683Y011325D01*
X023760Y011402D01*
X023836Y011325D01*
X023836Y011095D01*
X023683Y011095D02*
X023683Y011325D01*
X023990Y011402D02*
X023990Y011095D01*
X024143Y011095D02*
X024143Y011325D01*
X024220Y011402D01*
X024297Y011325D01*
X024297Y011095D01*
X024143Y011325D02*
X024067Y011402D01*
X023990Y011402D01*
X024143Y011845D02*
X024143Y012152D01*
X024220Y012152D01*
X024297Y012075D01*
X024373Y012152D01*
X024450Y012075D01*
X024450Y011845D01*
X024297Y011845D02*
X024297Y012075D01*
X024604Y012152D02*
X024680Y012152D01*
X024680Y011845D01*
X024604Y011845D02*
X024757Y011845D01*
X024911Y011845D02*
X025064Y011845D01*
X024987Y011845D02*
X024987Y012305D01*
X024911Y012305D01*
X024680Y012305D02*
X024680Y012382D01*
X025217Y012305D02*
X025294Y012305D01*
X025294Y011845D01*
X025217Y011845D02*
X025371Y011845D01*
X025524Y011845D02*
X025678Y011845D01*
X025601Y011845D02*
X025601Y012152D01*
X025524Y012152D01*
X025601Y012305D02*
X025601Y012382D01*
X025831Y012152D02*
X026062Y012152D01*
X026138Y012075D01*
X026138Y011845D01*
X026292Y011921D02*
X026368Y011845D01*
X026599Y011845D01*
X026599Y011768D02*
X026599Y012152D01*
X026368Y012152D01*
X026292Y012075D01*
X026292Y011921D01*
X026445Y011691D02*
X026522Y011691D01*
X026599Y011768D01*
X026599Y011555D02*
X026752Y011555D01*
X026829Y011478D01*
X026829Y011402D01*
X026752Y011325D01*
X026599Y011325D01*
X026522Y011402D01*
X026522Y011478D01*
X026599Y011555D01*
X026599Y011325D02*
X026522Y011248D01*
X026522Y011171D01*
X026599Y011095D01*
X026752Y011095D01*
X026829Y011171D01*
X026829Y011248D01*
X026752Y011325D01*
X026982Y011402D02*
X027059Y011402D01*
X027136Y011325D01*
X027213Y011402D01*
X027289Y011325D01*
X027289Y011095D01*
X027136Y011095D02*
X027136Y011325D01*
X026982Y011402D02*
X026982Y011095D01*
X027443Y011095D02*
X027443Y011402D01*
X027519Y011402D01*
X027596Y011325D01*
X027673Y011402D01*
X027750Y011325D01*
X027750Y011095D01*
X027596Y011095D02*
X027596Y011325D01*
X027903Y011402D02*
X027980Y011478D01*
X027980Y011632D01*
X028133Y011632D02*
X028133Y011478D01*
X028057Y011402D01*
X028133Y011845D02*
X028057Y011921D01*
X028057Y012228D01*
X028133Y012152D02*
X027980Y012152D01*
X027750Y012152D02*
X027750Y011845D01*
X027826Y011845D02*
X027673Y011845D01*
X027519Y011921D02*
X027519Y012152D01*
X027673Y012152D02*
X027750Y012152D01*
X027750Y012305D02*
X027750Y012382D01*
X027213Y012152D02*
X027213Y011921D01*
X027289Y011845D01*
X027366Y011921D01*
X027443Y011845D01*
X027519Y011921D01*
X028287Y011845D02*
X028287Y012305D01*
X028364Y012152D02*
X028517Y012152D01*
X028594Y012075D01*
X028594Y011845D01*
X028287Y012075D02*
X028364Y012152D01*
X029208Y012075D02*
X029284Y011998D01*
X029438Y011998D01*
X029514Y011921D01*
X029438Y011845D01*
X029208Y011845D01*
X029668Y011845D02*
X029821Y011845D01*
X029745Y011845D02*
X029745Y012305D01*
X029668Y012305D01*
X029514Y012152D02*
X029284Y012152D01*
X029208Y012075D01*
X029975Y012075D02*
X029975Y011921D01*
X030052Y011845D01*
X030205Y011845D01*
X030282Y011921D01*
X030282Y012075D01*
X030205Y012152D01*
X030052Y012152D01*
X029975Y012075D01*
X030435Y012152D02*
X030589Y012152D01*
X030512Y012228D02*
X030512Y011921D01*
X030589Y011845D01*
X031203Y011921D02*
X031203Y012075D01*
X031279Y012152D01*
X031510Y012152D01*
X031663Y012152D02*
X031663Y011845D01*
X031663Y011998D02*
X031816Y012152D01*
X031893Y012152D01*
X032047Y012152D02*
X032123Y012152D01*
X032123Y011845D01*
X032047Y011845D02*
X032200Y011845D01*
X032354Y011845D02*
X032507Y011845D01*
X032430Y011845D02*
X032430Y012305D01*
X032354Y012305D01*
X032123Y012305D02*
X032123Y012382D01*
X032661Y012305D02*
X032737Y012305D01*
X032737Y011845D01*
X032661Y011845D02*
X032814Y011845D01*
X032967Y011845D02*
X033121Y011845D01*
X033044Y011845D02*
X033044Y012152D01*
X032967Y012152D01*
X033044Y012305D02*
X033044Y012382D01*
X033274Y012152D02*
X033505Y012152D01*
X033581Y012075D01*
X033581Y011845D01*
X033735Y011921D02*
X033811Y011845D01*
X034042Y011845D01*
X034042Y011768D02*
X034042Y012152D01*
X033811Y012152D01*
X033735Y012075D01*
X033735Y011921D01*
X033888Y011691D02*
X033965Y011691D01*
X034042Y011768D01*
X034656Y011845D02*
X034809Y011845D01*
X034732Y011845D02*
X034732Y012152D01*
X034656Y012152D01*
X034732Y012305D02*
X034732Y012382D01*
X035039Y012228D02*
X035116Y012305D01*
X035039Y012228D02*
X035039Y011845D01*
X035730Y011845D02*
X035730Y012152D01*
X035883Y012152D02*
X035730Y011998D01*
X035883Y012152D02*
X035960Y012152D01*
X036113Y012075D02*
X036113Y011921D01*
X036190Y011845D01*
X036420Y011845D01*
X036420Y011691D02*
X036420Y012152D01*
X036190Y012152D01*
X036113Y012075D01*
X036574Y012075D02*
X036574Y011921D01*
X036651Y011845D01*
X036881Y011845D01*
X036881Y012305D01*
X036881Y012152D02*
X036651Y012152D01*
X036574Y012075D01*
X037034Y012152D02*
X037111Y012228D01*
X037111Y012382D01*
X037264Y012382D02*
X037264Y012228D01*
X037188Y012152D01*
X035116Y012075D02*
X034962Y012075D01*
X033274Y012152D02*
X033274Y011845D01*
X031510Y011845D02*
X031279Y011845D01*
X031203Y011921D01*
X031510Y011845D02*
X031510Y012305D01*
X026368Y011171D02*
X026368Y011095D01*
X026292Y011095D01*
X026292Y011171D01*
X026368Y011171D01*
X026138Y011095D02*
X025831Y011095D01*
X025985Y011095D02*
X025985Y011555D01*
X025831Y011402D01*
X025831Y011845D02*
X025831Y012152D01*
X025217Y011402D02*
X024911Y011095D01*
X025217Y011095D02*
X024911Y011402D01*
X023529Y011998D02*
X023529Y012075D01*
X023453Y012152D01*
X023299Y012152D01*
X023222Y012075D01*
X023222Y011921D01*
X023299Y011845D01*
X023453Y011845D01*
X023529Y011998D02*
X023222Y011998D01*
X023069Y011845D02*
X022839Y011845D01*
X022762Y011921D01*
X022762Y012075D01*
X022839Y012152D01*
X023069Y012152D01*
X023222Y011555D02*
X023222Y011095D01*
X023069Y011402D02*
X023222Y011555D01*
X009006Y016784D02*
X009006Y016961D01*
X008947Y017020D01*
X008829Y017020D01*
X008770Y016961D01*
X008770Y016784D01*
X008770Y016902D02*
X008652Y017020D01*
X008652Y017147D02*
X008652Y017383D01*
X008652Y017265D02*
X009006Y017265D01*
X008888Y017147D01*
X009006Y016784D02*
X008652Y016784D01*
X007951Y016824D02*
X007951Y017001D01*
X007892Y017060D01*
X007774Y017060D01*
X007715Y017001D01*
X007715Y016824D01*
X007597Y016824D02*
X007951Y016824D01*
X007715Y016942D02*
X007597Y017060D01*
X007597Y017187D02*
X007833Y017423D01*
X007892Y017423D01*
X007951Y017364D01*
X007951Y017246D01*
X007892Y017187D01*
X007597Y017187D02*
X007597Y017423D01*
X007036Y017259D02*
X006918Y017141D01*
X006977Y017014D02*
X007036Y016955D01*
X007036Y016837D01*
X006977Y016778D01*
X006741Y016778D01*
X006682Y016837D01*
X006682Y016955D01*
X006741Y017014D01*
X006682Y017141D02*
X006682Y017377D01*
X006682Y017259D02*
X007036Y017259D01*
X006918Y017503D02*
X007036Y017621D01*
X006682Y017621D01*
X006682Y017503D02*
X006682Y017739D01*
X006001Y017672D02*
X005824Y017495D01*
X005824Y017731D01*
X005647Y017672D02*
X006001Y017672D01*
X005942Y017369D02*
X005824Y017369D01*
X005765Y017310D01*
X005765Y017133D01*
X005765Y017251D02*
X005647Y017369D01*
X005647Y017133D02*
X006001Y017133D01*
X006001Y017310D01*
X005942Y017369D01*
X004936Y017417D02*
X004936Y017181D01*
X004759Y017181D01*
X004818Y017299D01*
X004818Y017358D01*
X004759Y017417D01*
X004641Y017417D01*
X004582Y017358D01*
X004582Y017240D01*
X004641Y017181D01*
X004582Y017054D02*
X004700Y016936D01*
X004700Y016995D02*
X004700Y016818D01*
X004582Y016818D02*
X004936Y016818D01*
X004936Y016995D01*
X004877Y017054D01*
X004759Y017054D01*
X004700Y016995D01*
X004015Y016949D02*
X004015Y016831D01*
X003956Y016772D01*
X003720Y016772D01*
X003661Y016831D01*
X003661Y016949D01*
X003720Y017008D01*
X003661Y017135D02*
X003661Y017371D01*
X003661Y017253D02*
X004015Y017253D01*
X003897Y017135D01*
X003956Y017008D02*
X004015Y016949D01*
X003956Y017497D02*
X004015Y017556D01*
X004015Y017674D01*
X003956Y017733D01*
X003897Y017733D01*
X003838Y017674D01*
X003779Y017733D01*
X003720Y017733D01*
X003661Y017674D01*
X003661Y017556D01*
X003720Y017497D01*
X003838Y017615D02*
X003838Y017674D01*
X008652Y017686D02*
X008652Y017568D01*
X008711Y017509D01*
X008947Y017745D01*
X008711Y017745D01*
X008652Y017686D01*
X008711Y017509D02*
X008947Y017509D01*
X009006Y017568D01*
X009006Y017686D01*
X008947Y017745D01*
D12*
X009846Y019105D02*
X016145Y019105D01*
X012889Y017174D02*
X011511Y017174D01*
X011511Y015796D01*
X012889Y015796D01*
X012889Y017174D01*
X009846Y013555D02*
X016145Y013555D01*
X011630Y011450D02*
X011630Y010820D01*
X011472Y010662D01*
X011039Y010662D01*
X010252Y010662D02*
X009661Y010662D01*
X009661Y011607D01*
X010252Y011607D01*
X011039Y011607D02*
X011472Y011607D01*
X011630Y011450D01*
X006926Y012365D02*
X006926Y012576D01*
X006776Y013030D02*
X006438Y013030D01*
X006438Y011910D02*
X006776Y011910D01*
X008096Y007595D02*
X008096Y006414D01*
X008135Y006808D02*
X008162Y006810D01*
X008188Y006815D01*
X008213Y006824D01*
X008237Y006837D01*
X008259Y006852D01*
X008279Y006871D01*
X008296Y006891D01*
X008310Y006914D01*
X008321Y006939D01*
X008328Y006965D01*
X008332Y006992D01*
X008332Y007018D01*
X008328Y007045D01*
X008321Y007071D01*
X008310Y007096D01*
X008296Y007119D01*
X008279Y007139D01*
X008259Y007158D01*
X008237Y007173D01*
X008213Y007186D01*
X008188Y007195D01*
X008162Y007200D01*
X008135Y007202D01*
X009080Y007595D02*
X010183Y007595D01*
X011167Y007595D02*
X011167Y006414D01*
X010183Y006414D02*
X009080Y006414D01*
D13*
X010796Y010735D02*
X010796Y011535D01*
X012155Y016332D02*
X012111Y016377D01*
X012155Y016332D02*
X012244Y016332D01*
X012288Y016377D01*
X012288Y016553D01*
X012244Y016598D01*
X012155Y016598D01*
X012111Y016553D01*
X012393Y016598D02*
X012481Y016598D01*
X012437Y016598D02*
X012437Y016332D01*
X012481Y016332D02*
X012393Y016332D01*
M02*
