%
M48
M72
T01C0.01969
T02C0.03200
T03C0.04000
T04C0.11024
%
T01
X229654Y99733
X229654Y78080
X127784Y130245
X121879Y136150
X160757Y186347
X121387Y183887
X237036Y153375
X217351Y174044
X250324Y132213
X178473Y145009
X241957Y107115
X223257Y125816
X227686Y130245
X164694Y163709
X207509Y123847
X178965Y172076
X184871Y166170
X243926Y130737
X202587Y133198
X117450Y144517
X164694Y168139
X224241Y108591
X233099Y88906
X126308Y94812
X126308Y49044
X141072Y169123
X153375Y57410
X174044Y36741
X248847Y46091
X244910Y8690
X123355Y174536
X209477Y85954
X149930Y155343
X150422Y95796
X133690Y114497
X127784Y135166
X127784Y152883
X178473Y166170
X141072Y159280
X241957Y60855
X237528Y27391
X153375Y194713
X155835Y187331
X237036Y51505
X205048Y137135
X206524Y93335
X231131Y123847
X130737Y175028
X115481Y153867
X170107Y148946
X145009Y88906
X133690Y77587
X213414Y81032
X130737Y147961
X130737Y94812
X193729Y152391
X208001Y148946
X241957Y101209
X112036Y180442
X141072Y174044
X195698Y171091
X200619Y166170
X185363Y150914
X154851Y174044
X181426Y154359
X181426Y109083
X143040Y187331
X190776Y145009
X186347Y97272
X254261Y124831
X193729Y75127
X154851Y95796
X136150Y147469
X237036Y39694
X145009Y176013
X199635Y186839
X176013Y162725
X157863Y101800
X162863Y101800
X167863Y101800
X172863Y101800
X177863Y101800
X177863Y106800
X177863Y111800
X177863Y116800
X177863Y121800
X177863Y126800
X177863Y131800
X177863Y136800
X172863Y136800
X172863Y141800
X167863Y141800
X152863Y131800
X152863Y126800
X152863Y121800
X152863Y116800
X152863Y111800
X152863Y106800
X152863Y101800
X157863Y136800
X152863Y136800
T02
X233646Y197800
X226646Y190800
T03
X257863Y116800
X267863Y116800
X257863Y106800
X267863Y106800
X257863Y96800
X267863Y96800
X257863Y86800
X267863Y86800
X257863Y76800
X267863Y76800
X257863Y66800
X267863Y66800
X257863Y56800
X267863Y56800
X117863Y121800
X117863Y111800
X117863Y101800
X117863Y91800
X117863Y81800
X117863Y71800
X117863Y61800
X117863Y51800
X117863Y41800
X117863Y31800
X117863Y21800
X117863Y11800
X26209Y173060
X76603Y173060
T04
X52981Y106131
X143532Y27391
X273454Y163217
X273454Y27391
X143532Y133690
M30
