G75*
%MOIN*%
%OFA0B0*%
%FSLAX25Y25*%
%IPPOS*%
%LPD*%
%AMOC8*
5,1,8,0,0,1.08239X$1,22.5*
%
%ADD10C,0.01600*%
%ADD11C,0.00000*%
%ADD12R,0.06299X0.05512*%
%ADD13R,0.03937X0.04331*%
%ADD14R,0.07480X0.05118*%
%ADD15R,0.04331X0.03937*%
%ADD16R,0.03150X0.03150*%
%ADD17R,0.05118X0.07874*%
%ADD18R,0.02200X0.05000*%
%ADD19R,0.05000X0.02200*%
%ADD20R,0.02362X0.01575*%
%ADD21R,0.00984X0.00984*%
%ADD22R,0.00984X0.01181*%
%ADD23R,0.05000X0.10000*%
D10*
X0001800Y0001800D02*
X0108099Y0001800D01*
X0108099Y0210461D01*
X0001800Y0210461D01*
X0001800Y0001800D01*
X0108099Y0001800D02*
X0281328Y0001800D01*
X0281328Y0210461D01*
X0108099Y0210461D01*
D11*
X0138020Y0133690D02*
X0138022Y0133838D01*
X0138028Y0133986D01*
X0138038Y0134134D01*
X0138052Y0134281D01*
X0138070Y0134428D01*
X0138091Y0134574D01*
X0138117Y0134720D01*
X0138147Y0134865D01*
X0138180Y0135009D01*
X0138218Y0135152D01*
X0138259Y0135294D01*
X0138304Y0135435D01*
X0138352Y0135575D01*
X0138405Y0135714D01*
X0138461Y0135851D01*
X0138521Y0135986D01*
X0138584Y0136120D01*
X0138651Y0136252D01*
X0138722Y0136382D01*
X0138796Y0136510D01*
X0138873Y0136636D01*
X0138954Y0136760D01*
X0139038Y0136882D01*
X0139125Y0137001D01*
X0139216Y0137118D01*
X0139310Y0137233D01*
X0139406Y0137345D01*
X0139506Y0137455D01*
X0139608Y0137561D01*
X0139714Y0137665D01*
X0139822Y0137766D01*
X0139933Y0137864D01*
X0140046Y0137960D01*
X0140162Y0138052D01*
X0140280Y0138141D01*
X0140401Y0138226D01*
X0140524Y0138309D01*
X0140649Y0138388D01*
X0140776Y0138464D01*
X0140905Y0138536D01*
X0141036Y0138605D01*
X0141169Y0138670D01*
X0141304Y0138731D01*
X0141440Y0138789D01*
X0141577Y0138844D01*
X0141716Y0138894D01*
X0141857Y0138941D01*
X0141998Y0138984D01*
X0142141Y0139024D01*
X0142285Y0139059D01*
X0142429Y0139091D01*
X0142575Y0139118D01*
X0142721Y0139142D01*
X0142868Y0139162D01*
X0143015Y0139178D01*
X0143162Y0139190D01*
X0143310Y0139198D01*
X0143458Y0139202D01*
X0143606Y0139202D01*
X0143754Y0139198D01*
X0143902Y0139190D01*
X0144049Y0139178D01*
X0144196Y0139162D01*
X0144343Y0139142D01*
X0144489Y0139118D01*
X0144635Y0139091D01*
X0144779Y0139059D01*
X0144923Y0139024D01*
X0145066Y0138984D01*
X0145207Y0138941D01*
X0145348Y0138894D01*
X0145487Y0138844D01*
X0145624Y0138789D01*
X0145760Y0138731D01*
X0145895Y0138670D01*
X0146028Y0138605D01*
X0146159Y0138536D01*
X0146288Y0138464D01*
X0146415Y0138388D01*
X0146540Y0138309D01*
X0146663Y0138226D01*
X0146784Y0138141D01*
X0146902Y0138052D01*
X0147018Y0137960D01*
X0147131Y0137864D01*
X0147242Y0137766D01*
X0147350Y0137665D01*
X0147456Y0137561D01*
X0147558Y0137455D01*
X0147658Y0137345D01*
X0147754Y0137233D01*
X0147848Y0137118D01*
X0147939Y0137001D01*
X0148026Y0136882D01*
X0148110Y0136760D01*
X0148191Y0136636D01*
X0148268Y0136510D01*
X0148342Y0136382D01*
X0148413Y0136252D01*
X0148480Y0136120D01*
X0148543Y0135986D01*
X0148603Y0135851D01*
X0148659Y0135714D01*
X0148712Y0135575D01*
X0148760Y0135435D01*
X0148805Y0135294D01*
X0148846Y0135152D01*
X0148884Y0135009D01*
X0148917Y0134865D01*
X0148947Y0134720D01*
X0148973Y0134574D01*
X0148994Y0134428D01*
X0149012Y0134281D01*
X0149026Y0134134D01*
X0149036Y0133986D01*
X0149042Y0133838D01*
X0149044Y0133690D01*
X0149042Y0133542D01*
X0149036Y0133394D01*
X0149026Y0133246D01*
X0149012Y0133099D01*
X0148994Y0132952D01*
X0148973Y0132806D01*
X0148947Y0132660D01*
X0148917Y0132515D01*
X0148884Y0132371D01*
X0148846Y0132228D01*
X0148805Y0132086D01*
X0148760Y0131945D01*
X0148712Y0131805D01*
X0148659Y0131666D01*
X0148603Y0131529D01*
X0148543Y0131394D01*
X0148480Y0131260D01*
X0148413Y0131128D01*
X0148342Y0130998D01*
X0148268Y0130870D01*
X0148191Y0130744D01*
X0148110Y0130620D01*
X0148026Y0130498D01*
X0147939Y0130379D01*
X0147848Y0130262D01*
X0147754Y0130147D01*
X0147658Y0130035D01*
X0147558Y0129925D01*
X0147456Y0129819D01*
X0147350Y0129715D01*
X0147242Y0129614D01*
X0147131Y0129516D01*
X0147018Y0129420D01*
X0146902Y0129328D01*
X0146784Y0129239D01*
X0146663Y0129154D01*
X0146540Y0129071D01*
X0146415Y0128992D01*
X0146288Y0128916D01*
X0146159Y0128844D01*
X0146028Y0128775D01*
X0145895Y0128710D01*
X0145760Y0128649D01*
X0145624Y0128591D01*
X0145487Y0128536D01*
X0145348Y0128486D01*
X0145207Y0128439D01*
X0145066Y0128396D01*
X0144923Y0128356D01*
X0144779Y0128321D01*
X0144635Y0128289D01*
X0144489Y0128262D01*
X0144343Y0128238D01*
X0144196Y0128218D01*
X0144049Y0128202D01*
X0143902Y0128190D01*
X0143754Y0128182D01*
X0143606Y0128178D01*
X0143458Y0128178D01*
X0143310Y0128182D01*
X0143162Y0128190D01*
X0143015Y0128202D01*
X0142868Y0128218D01*
X0142721Y0128238D01*
X0142575Y0128262D01*
X0142429Y0128289D01*
X0142285Y0128321D01*
X0142141Y0128356D01*
X0141998Y0128396D01*
X0141857Y0128439D01*
X0141716Y0128486D01*
X0141577Y0128536D01*
X0141440Y0128591D01*
X0141304Y0128649D01*
X0141169Y0128710D01*
X0141036Y0128775D01*
X0140905Y0128844D01*
X0140776Y0128916D01*
X0140649Y0128992D01*
X0140524Y0129071D01*
X0140401Y0129154D01*
X0140280Y0129239D01*
X0140162Y0129328D01*
X0140046Y0129420D01*
X0139933Y0129516D01*
X0139822Y0129614D01*
X0139714Y0129715D01*
X0139608Y0129819D01*
X0139506Y0129925D01*
X0139406Y0130035D01*
X0139310Y0130147D01*
X0139216Y0130262D01*
X0139125Y0130379D01*
X0139038Y0130498D01*
X0138954Y0130620D01*
X0138873Y0130744D01*
X0138796Y0130870D01*
X0138722Y0130998D01*
X0138651Y0131128D01*
X0138584Y0131260D01*
X0138521Y0131394D01*
X0138461Y0131529D01*
X0138405Y0131666D01*
X0138352Y0131805D01*
X0138304Y0131945D01*
X0138259Y0132086D01*
X0138218Y0132228D01*
X0138180Y0132371D01*
X0138147Y0132515D01*
X0138117Y0132660D01*
X0138091Y0132806D01*
X0138070Y0132952D01*
X0138052Y0133099D01*
X0138038Y0133246D01*
X0138028Y0133394D01*
X0138022Y0133542D01*
X0138020Y0133690D01*
X0047469Y0106131D02*
X0047471Y0106279D01*
X0047477Y0106427D01*
X0047487Y0106575D01*
X0047501Y0106722D01*
X0047519Y0106869D01*
X0047540Y0107015D01*
X0047566Y0107161D01*
X0047596Y0107306D01*
X0047629Y0107450D01*
X0047667Y0107593D01*
X0047708Y0107735D01*
X0047753Y0107876D01*
X0047801Y0108016D01*
X0047854Y0108155D01*
X0047910Y0108292D01*
X0047970Y0108427D01*
X0048033Y0108561D01*
X0048100Y0108693D01*
X0048171Y0108823D01*
X0048245Y0108951D01*
X0048322Y0109077D01*
X0048403Y0109201D01*
X0048487Y0109323D01*
X0048574Y0109442D01*
X0048665Y0109559D01*
X0048759Y0109674D01*
X0048855Y0109786D01*
X0048955Y0109896D01*
X0049057Y0110002D01*
X0049163Y0110106D01*
X0049271Y0110207D01*
X0049382Y0110305D01*
X0049495Y0110401D01*
X0049611Y0110493D01*
X0049729Y0110582D01*
X0049850Y0110667D01*
X0049973Y0110750D01*
X0050098Y0110829D01*
X0050225Y0110905D01*
X0050354Y0110977D01*
X0050485Y0111046D01*
X0050618Y0111111D01*
X0050753Y0111172D01*
X0050889Y0111230D01*
X0051026Y0111285D01*
X0051165Y0111335D01*
X0051306Y0111382D01*
X0051447Y0111425D01*
X0051590Y0111465D01*
X0051734Y0111500D01*
X0051878Y0111532D01*
X0052024Y0111559D01*
X0052170Y0111583D01*
X0052317Y0111603D01*
X0052464Y0111619D01*
X0052611Y0111631D01*
X0052759Y0111639D01*
X0052907Y0111643D01*
X0053055Y0111643D01*
X0053203Y0111639D01*
X0053351Y0111631D01*
X0053498Y0111619D01*
X0053645Y0111603D01*
X0053792Y0111583D01*
X0053938Y0111559D01*
X0054084Y0111532D01*
X0054228Y0111500D01*
X0054372Y0111465D01*
X0054515Y0111425D01*
X0054656Y0111382D01*
X0054797Y0111335D01*
X0054936Y0111285D01*
X0055073Y0111230D01*
X0055209Y0111172D01*
X0055344Y0111111D01*
X0055477Y0111046D01*
X0055608Y0110977D01*
X0055737Y0110905D01*
X0055864Y0110829D01*
X0055989Y0110750D01*
X0056112Y0110667D01*
X0056233Y0110582D01*
X0056351Y0110493D01*
X0056467Y0110401D01*
X0056580Y0110305D01*
X0056691Y0110207D01*
X0056799Y0110106D01*
X0056905Y0110002D01*
X0057007Y0109896D01*
X0057107Y0109786D01*
X0057203Y0109674D01*
X0057297Y0109559D01*
X0057388Y0109442D01*
X0057475Y0109323D01*
X0057559Y0109201D01*
X0057640Y0109077D01*
X0057717Y0108951D01*
X0057791Y0108823D01*
X0057862Y0108693D01*
X0057929Y0108561D01*
X0057992Y0108427D01*
X0058052Y0108292D01*
X0058108Y0108155D01*
X0058161Y0108016D01*
X0058209Y0107876D01*
X0058254Y0107735D01*
X0058295Y0107593D01*
X0058333Y0107450D01*
X0058366Y0107306D01*
X0058396Y0107161D01*
X0058422Y0107015D01*
X0058443Y0106869D01*
X0058461Y0106722D01*
X0058475Y0106575D01*
X0058485Y0106427D01*
X0058491Y0106279D01*
X0058493Y0106131D01*
X0058491Y0105983D01*
X0058485Y0105835D01*
X0058475Y0105687D01*
X0058461Y0105540D01*
X0058443Y0105393D01*
X0058422Y0105247D01*
X0058396Y0105101D01*
X0058366Y0104956D01*
X0058333Y0104812D01*
X0058295Y0104669D01*
X0058254Y0104527D01*
X0058209Y0104386D01*
X0058161Y0104246D01*
X0058108Y0104107D01*
X0058052Y0103970D01*
X0057992Y0103835D01*
X0057929Y0103701D01*
X0057862Y0103569D01*
X0057791Y0103439D01*
X0057717Y0103311D01*
X0057640Y0103185D01*
X0057559Y0103061D01*
X0057475Y0102939D01*
X0057388Y0102820D01*
X0057297Y0102703D01*
X0057203Y0102588D01*
X0057107Y0102476D01*
X0057007Y0102366D01*
X0056905Y0102260D01*
X0056799Y0102156D01*
X0056691Y0102055D01*
X0056580Y0101957D01*
X0056467Y0101861D01*
X0056351Y0101769D01*
X0056233Y0101680D01*
X0056112Y0101595D01*
X0055989Y0101512D01*
X0055864Y0101433D01*
X0055737Y0101357D01*
X0055608Y0101285D01*
X0055477Y0101216D01*
X0055344Y0101151D01*
X0055209Y0101090D01*
X0055073Y0101032D01*
X0054936Y0100977D01*
X0054797Y0100927D01*
X0054656Y0100880D01*
X0054515Y0100837D01*
X0054372Y0100797D01*
X0054228Y0100762D01*
X0054084Y0100730D01*
X0053938Y0100703D01*
X0053792Y0100679D01*
X0053645Y0100659D01*
X0053498Y0100643D01*
X0053351Y0100631D01*
X0053203Y0100623D01*
X0053055Y0100619D01*
X0052907Y0100619D01*
X0052759Y0100623D01*
X0052611Y0100631D01*
X0052464Y0100643D01*
X0052317Y0100659D01*
X0052170Y0100679D01*
X0052024Y0100703D01*
X0051878Y0100730D01*
X0051734Y0100762D01*
X0051590Y0100797D01*
X0051447Y0100837D01*
X0051306Y0100880D01*
X0051165Y0100927D01*
X0051026Y0100977D01*
X0050889Y0101032D01*
X0050753Y0101090D01*
X0050618Y0101151D01*
X0050485Y0101216D01*
X0050354Y0101285D01*
X0050225Y0101357D01*
X0050098Y0101433D01*
X0049973Y0101512D01*
X0049850Y0101595D01*
X0049729Y0101680D01*
X0049611Y0101769D01*
X0049495Y0101861D01*
X0049382Y0101957D01*
X0049271Y0102055D01*
X0049163Y0102156D01*
X0049057Y0102260D01*
X0048955Y0102366D01*
X0048855Y0102476D01*
X0048759Y0102588D01*
X0048665Y0102703D01*
X0048574Y0102820D01*
X0048487Y0102939D01*
X0048403Y0103061D01*
X0048322Y0103185D01*
X0048245Y0103311D01*
X0048171Y0103439D01*
X0048100Y0103569D01*
X0048033Y0103701D01*
X0047970Y0103835D01*
X0047910Y0103970D01*
X0047854Y0104107D01*
X0047801Y0104246D01*
X0047753Y0104386D01*
X0047708Y0104527D01*
X0047667Y0104669D01*
X0047629Y0104812D01*
X0047596Y0104956D01*
X0047566Y0105101D01*
X0047540Y0105247D01*
X0047519Y0105393D01*
X0047501Y0105540D01*
X0047487Y0105687D01*
X0047477Y0105835D01*
X0047471Y0105983D01*
X0047469Y0106131D01*
X0138020Y0027391D02*
X0138022Y0027539D01*
X0138028Y0027687D01*
X0138038Y0027835D01*
X0138052Y0027982D01*
X0138070Y0028129D01*
X0138091Y0028275D01*
X0138117Y0028421D01*
X0138147Y0028566D01*
X0138180Y0028710D01*
X0138218Y0028853D01*
X0138259Y0028995D01*
X0138304Y0029136D01*
X0138352Y0029276D01*
X0138405Y0029415D01*
X0138461Y0029552D01*
X0138521Y0029687D01*
X0138584Y0029821D01*
X0138651Y0029953D01*
X0138722Y0030083D01*
X0138796Y0030211D01*
X0138873Y0030337D01*
X0138954Y0030461D01*
X0139038Y0030583D01*
X0139125Y0030702D01*
X0139216Y0030819D01*
X0139310Y0030934D01*
X0139406Y0031046D01*
X0139506Y0031156D01*
X0139608Y0031262D01*
X0139714Y0031366D01*
X0139822Y0031467D01*
X0139933Y0031565D01*
X0140046Y0031661D01*
X0140162Y0031753D01*
X0140280Y0031842D01*
X0140401Y0031927D01*
X0140524Y0032010D01*
X0140649Y0032089D01*
X0140776Y0032165D01*
X0140905Y0032237D01*
X0141036Y0032306D01*
X0141169Y0032371D01*
X0141304Y0032432D01*
X0141440Y0032490D01*
X0141577Y0032545D01*
X0141716Y0032595D01*
X0141857Y0032642D01*
X0141998Y0032685D01*
X0142141Y0032725D01*
X0142285Y0032760D01*
X0142429Y0032792D01*
X0142575Y0032819D01*
X0142721Y0032843D01*
X0142868Y0032863D01*
X0143015Y0032879D01*
X0143162Y0032891D01*
X0143310Y0032899D01*
X0143458Y0032903D01*
X0143606Y0032903D01*
X0143754Y0032899D01*
X0143902Y0032891D01*
X0144049Y0032879D01*
X0144196Y0032863D01*
X0144343Y0032843D01*
X0144489Y0032819D01*
X0144635Y0032792D01*
X0144779Y0032760D01*
X0144923Y0032725D01*
X0145066Y0032685D01*
X0145207Y0032642D01*
X0145348Y0032595D01*
X0145487Y0032545D01*
X0145624Y0032490D01*
X0145760Y0032432D01*
X0145895Y0032371D01*
X0146028Y0032306D01*
X0146159Y0032237D01*
X0146288Y0032165D01*
X0146415Y0032089D01*
X0146540Y0032010D01*
X0146663Y0031927D01*
X0146784Y0031842D01*
X0146902Y0031753D01*
X0147018Y0031661D01*
X0147131Y0031565D01*
X0147242Y0031467D01*
X0147350Y0031366D01*
X0147456Y0031262D01*
X0147558Y0031156D01*
X0147658Y0031046D01*
X0147754Y0030934D01*
X0147848Y0030819D01*
X0147939Y0030702D01*
X0148026Y0030583D01*
X0148110Y0030461D01*
X0148191Y0030337D01*
X0148268Y0030211D01*
X0148342Y0030083D01*
X0148413Y0029953D01*
X0148480Y0029821D01*
X0148543Y0029687D01*
X0148603Y0029552D01*
X0148659Y0029415D01*
X0148712Y0029276D01*
X0148760Y0029136D01*
X0148805Y0028995D01*
X0148846Y0028853D01*
X0148884Y0028710D01*
X0148917Y0028566D01*
X0148947Y0028421D01*
X0148973Y0028275D01*
X0148994Y0028129D01*
X0149012Y0027982D01*
X0149026Y0027835D01*
X0149036Y0027687D01*
X0149042Y0027539D01*
X0149044Y0027391D01*
X0149042Y0027243D01*
X0149036Y0027095D01*
X0149026Y0026947D01*
X0149012Y0026800D01*
X0148994Y0026653D01*
X0148973Y0026507D01*
X0148947Y0026361D01*
X0148917Y0026216D01*
X0148884Y0026072D01*
X0148846Y0025929D01*
X0148805Y0025787D01*
X0148760Y0025646D01*
X0148712Y0025506D01*
X0148659Y0025367D01*
X0148603Y0025230D01*
X0148543Y0025095D01*
X0148480Y0024961D01*
X0148413Y0024829D01*
X0148342Y0024699D01*
X0148268Y0024571D01*
X0148191Y0024445D01*
X0148110Y0024321D01*
X0148026Y0024199D01*
X0147939Y0024080D01*
X0147848Y0023963D01*
X0147754Y0023848D01*
X0147658Y0023736D01*
X0147558Y0023626D01*
X0147456Y0023520D01*
X0147350Y0023416D01*
X0147242Y0023315D01*
X0147131Y0023217D01*
X0147018Y0023121D01*
X0146902Y0023029D01*
X0146784Y0022940D01*
X0146663Y0022855D01*
X0146540Y0022772D01*
X0146415Y0022693D01*
X0146288Y0022617D01*
X0146159Y0022545D01*
X0146028Y0022476D01*
X0145895Y0022411D01*
X0145760Y0022350D01*
X0145624Y0022292D01*
X0145487Y0022237D01*
X0145348Y0022187D01*
X0145207Y0022140D01*
X0145066Y0022097D01*
X0144923Y0022057D01*
X0144779Y0022022D01*
X0144635Y0021990D01*
X0144489Y0021963D01*
X0144343Y0021939D01*
X0144196Y0021919D01*
X0144049Y0021903D01*
X0143902Y0021891D01*
X0143754Y0021883D01*
X0143606Y0021879D01*
X0143458Y0021879D01*
X0143310Y0021883D01*
X0143162Y0021891D01*
X0143015Y0021903D01*
X0142868Y0021919D01*
X0142721Y0021939D01*
X0142575Y0021963D01*
X0142429Y0021990D01*
X0142285Y0022022D01*
X0142141Y0022057D01*
X0141998Y0022097D01*
X0141857Y0022140D01*
X0141716Y0022187D01*
X0141577Y0022237D01*
X0141440Y0022292D01*
X0141304Y0022350D01*
X0141169Y0022411D01*
X0141036Y0022476D01*
X0140905Y0022545D01*
X0140776Y0022617D01*
X0140649Y0022693D01*
X0140524Y0022772D01*
X0140401Y0022855D01*
X0140280Y0022940D01*
X0140162Y0023029D01*
X0140046Y0023121D01*
X0139933Y0023217D01*
X0139822Y0023315D01*
X0139714Y0023416D01*
X0139608Y0023520D01*
X0139506Y0023626D01*
X0139406Y0023736D01*
X0139310Y0023848D01*
X0139216Y0023963D01*
X0139125Y0024080D01*
X0139038Y0024199D01*
X0138954Y0024321D01*
X0138873Y0024445D01*
X0138796Y0024571D01*
X0138722Y0024699D01*
X0138651Y0024829D01*
X0138584Y0024961D01*
X0138521Y0025095D01*
X0138461Y0025230D01*
X0138405Y0025367D01*
X0138352Y0025506D01*
X0138304Y0025646D01*
X0138259Y0025787D01*
X0138218Y0025929D01*
X0138180Y0026072D01*
X0138147Y0026216D01*
X0138117Y0026361D01*
X0138091Y0026507D01*
X0138070Y0026653D01*
X0138052Y0026800D01*
X0138038Y0026947D01*
X0138028Y0027095D01*
X0138022Y0027243D01*
X0138020Y0027391D01*
X0267942Y0027391D02*
X0267944Y0027539D01*
X0267950Y0027687D01*
X0267960Y0027835D01*
X0267974Y0027982D01*
X0267992Y0028129D01*
X0268013Y0028275D01*
X0268039Y0028421D01*
X0268069Y0028566D01*
X0268102Y0028710D01*
X0268140Y0028853D01*
X0268181Y0028995D01*
X0268226Y0029136D01*
X0268274Y0029276D01*
X0268327Y0029415D01*
X0268383Y0029552D01*
X0268443Y0029687D01*
X0268506Y0029821D01*
X0268573Y0029953D01*
X0268644Y0030083D01*
X0268718Y0030211D01*
X0268795Y0030337D01*
X0268876Y0030461D01*
X0268960Y0030583D01*
X0269047Y0030702D01*
X0269138Y0030819D01*
X0269232Y0030934D01*
X0269328Y0031046D01*
X0269428Y0031156D01*
X0269530Y0031262D01*
X0269636Y0031366D01*
X0269744Y0031467D01*
X0269855Y0031565D01*
X0269968Y0031661D01*
X0270084Y0031753D01*
X0270202Y0031842D01*
X0270323Y0031927D01*
X0270446Y0032010D01*
X0270571Y0032089D01*
X0270698Y0032165D01*
X0270827Y0032237D01*
X0270958Y0032306D01*
X0271091Y0032371D01*
X0271226Y0032432D01*
X0271362Y0032490D01*
X0271499Y0032545D01*
X0271638Y0032595D01*
X0271779Y0032642D01*
X0271920Y0032685D01*
X0272063Y0032725D01*
X0272207Y0032760D01*
X0272351Y0032792D01*
X0272497Y0032819D01*
X0272643Y0032843D01*
X0272790Y0032863D01*
X0272937Y0032879D01*
X0273084Y0032891D01*
X0273232Y0032899D01*
X0273380Y0032903D01*
X0273528Y0032903D01*
X0273676Y0032899D01*
X0273824Y0032891D01*
X0273971Y0032879D01*
X0274118Y0032863D01*
X0274265Y0032843D01*
X0274411Y0032819D01*
X0274557Y0032792D01*
X0274701Y0032760D01*
X0274845Y0032725D01*
X0274988Y0032685D01*
X0275129Y0032642D01*
X0275270Y0032595D01*
X0275409Y0032545D01*
X0275546Y0032490D01*
X0275682Y0032432D01*
X0275817Y0032371D01*
X0275950Y0032306D01*
X0276081Y0032237D01*
X0276210Y0032165D01*
X0276337Y0032089D01*
X0276462Y0032010D01*
X0276585Y0031927D01*
X0276706Y0031842D01*
X0276824Y0031753D01*
X0276940Y0031661D01*
X0277053Y0031565D01*
X0277164Y0031467D01*
X0277272Y0031366D01*
X0277378Y0031262D01*
X0277480Y0031156D01*
X0277580Y0031046D01*
X0277676Y0030934D01*
X0277770Y0030819D01*
X0277861Y0030702D01*
X0277948Y0030583D01*
X0278032Y0030461D01*
X0278113Y0030337D01*
X0278190Y0030211D01*
X0278264Y0030083D01*
X0278335Y0029953D01*
X0278402Y0029821D01*
X0278465Y0029687D01*
X0278525Y0029552D01*
X0278581Y0029415D01*
X0278634Y0029276D01*
X0278682Y0029136D01*
X0278727Y0028995D01*
X0278768Y0028853D01*
X0278806Y0028710D01*
X0278839Y0028566D01*
X0278869Y0028421D01*
X0278895Y0028275D01*
X0278916Y0028129D01*
X0278934Y0027982D01*
X0278948Y0027835D01*
X0278958Y0027687D01*
X0278964Y0027539D01*
X0278966Y0027391D01*
X0278964Y0027243D01*
X0278958Y0027095D01*
X0278948Y0026947D01*
X0278934Y0026800D01*
X0278916Y0026653D01*
X0278895Y0026507D01*
X0278869Y0026361D01*
X0278839Y0026216D01*
X0278806Y0026072D01*
X0278768Y0025929D01*
X0278727Y0025787D01*
X0278682Y0025646D01*
X0278634Y0025506D01*
X0278581Y0025367D01*
X0278525Y0025230D01*
X0278465Y0025095D01*
X0278402Y0024961D01*
X0278335Y0024829D01*
X0278264Y0024699D01*
X0278190Y0024571D01*
X0278113Y0024445D01*
X0278032Y0024321D01*
X0277948Y0024199D01*
X0277861Y0024080D01*
X0277770Y0023963D01*
X0277676Y0023848D01*
X0277580Y0023736D01*
X0277480Y0023626D01*
X0277378Y0023520D01*
X0277272Y0023416D01*
X0277164Y0023315D01*
X0277053Y0023217D01*
X0276940Y0023121D01*
X0276824Y0023029D01*
X0276706Y0022940D01*
X0276585Y0022855D01*
X0276462Y0022772D01*
X0276337Y0022693D01*
X0276210Y0022617D01*
X0276081Y0022545D01*
X0275950Y0022476D01*
X0275817Y0022411D01*
X0275682Y0022350D01*
X0275546Y0022292D01*
X0275409Y0022237D01*
X0275270Y0022187D01*
X0275129Y0022140D01*
X0274988Y0022097D01*
X0274845Y0022057D01*
X0274701Y0022022D01*
X0274557Y0021990D01*
X0274411Y0021963D01*
X0274265Y0021939D01*
X0274118Y0021919D01*
X0273971Y0021903D01*
X0273824Y0021891D01*
X0273676Y0021883D01*
X0273528Y0021879D01*
X0273380Y0021879D01*
X0273232Y0021883D01*
X0273084Y0021891D01*
X0272937Y0021903D01*
X0272790Y0021919D01*
X0272643Y0021939D01*
X0272497Y0021963D01*
X0272351Y0021990D01*
X0272207Y0022022D01*
X0272063Y0022057D01*
X0271920Y0022097D01*
X0271779Y0022140D01*
X0271638Y0022187D01*
X0271499Y0022237D01*
X0271362Y0022292D01*
X0271226Y0022350D01*
X0271091Y0022411D01*
X0270958Y0022476D01*
X0270827Y0022545D01*
X0270698Y0022617D01*
X0270571Y0022693D01*
X0270446Y0022772D01*
X0270323Y0022855D01*
X0270202Y0022940D01*
X0270084Y0023029D01*
X0269968Y0023121D01*
X0269855Y0023217D01*
X0269744Y0023315D01*
X0269636Y0023416D01*
X0269530Y0023520D01*
X0269428Y0023626D01*
X0269328Y0023736D01*
X0269232Y0023848D01*
X0269138Y0023963D01*
X0269047Y0024080D01*
X0268960Y0024199D01*
X0268876Y0024321D01*
X0268795Y0024445D01*
X0268718Y0024571D01*
X0268644Y0024699D01*
X0268573Y0024829D01*
X0268506Y0024961D01*
X0268443Y0025095D01*
X0268383Y0025230D01*
X0268327Y0025367D01*
X0268274Y0025506D01*
X0268226Y0025646D01*
X0268181Y0025787D01*
X0268140Y0025929D01*
X0268102Y0026072D01*
X0268069Y0026216D01*
X0268039Y0026361D01*
X0268013Y0026507D01*
X0267992Y0026653D01*
X0267974Y0026800D01*
X0267960Y0026947D01*
X0267950Y0027095D01*
X0267944Y0027243D01*
X0267942Y0027391D01*
X0267942Y0163217D02*
X0267944Y0163365D01*
X0267950Y0163513D01*
X0267960Y0163661D01*
X0267974Y0163808D01*
X0267992Y0163955D01*
X0268013Y0164101D01*
X0268039Y0164247D01*
X0268069Y0164392D01*
X0268102Y0164536D01*
X0268140Y0164679D01*
X0268181Y0164821D01*
X0268226Y0164962D01*
X0268274Y0165102D01*
X0268327Y0165241D01*
X0268383Y0165378D01*
X0268443Y0165513D01*
X0268506Y0165647D01*
X0268573Y0165779D01*
X0268644Y0165909D01*
X0268718Y0166037D01*
X0268795Y0166163D01*
X0268876Y0166287D01*
X0268960Y0166409D01*
X0269047Y0166528D01*
X0269138Y0166645D01*
X0269232Y0166760D01*
X0269328Y0166872D01*
X0269428Y0166982D01*
X0269530Y0167088D01*
X0269636Y0167192D01*
X0269744Y0167293D01*
X0269855Y0167391D01*
X0269968Y0167487D01*
X0270084Y0167579D01*
X0270202Y0167668D01*
X0270323Y0167753D01*
X0270446Y0167836D01*
X0270571Y0167915D01*
X0270698Y0167991D01*
X0270827Y0168063D01*
X0270958Y0168132D01*
X0271091Y0168197D01*
X0271226Y0168258D01*
X0271362Y0168316D01*
X0271499Y0168371D01*
X0271638Y0168421D01*
X0271779Y0168468D01*
X0271920Y0168511D01*
X0272063Y0168551D01*
X0272207Y0168586D01*
X0272351Y0168618D01*
X0272497Y0168645D01*
X0272643Y0168669D01*
X0272790Y0168689D01*
X0272937Y0168705D01*
X0273084Y0168717D01*
X0273232Y0168725D01*
X0273380Y0168729D01*
X0273528Y0168729D01*
X0273676Y0168725D01*
X0273824Y0168717D01*
X0273971Y0168705D01*
X0274118Y0168689D01*
X0274265Y0168669D01*
X0274411Y0168645D01*
X0274557Y0168618D01*
X0274701Y0168586D01*
X0274845Y0168551D01*
X0274988Y0168511D01*
X0275129Y0168468D01*
X0275270Y0168421D01*
X0275409Y0168371D01*
X0275546Y0168316D01*
X0275682Y0168258D01*
X0275817Y0168197D01*
X0275950Y0168132D01*
X0276081Y0168063D01*
X0276210Y0167991D01*
X0276337Y0167915D01*
X0276462Y0167836D01*
X0276585Y0167753D01*
X0276706Y0167668D01*
X0276824Y0167579D01*
X0276940Y0167487D01*
X0277053Y0167391D01*
X0277164Y0167293D01*
X0277272Y0167192D01*
X0277378Y0167088D01*
X0277480Y0166982D01*
X0277580Y0166872D01*
X0277676Y0166760D01*
X0277770Y0166645D01*
X0277861Y0166528D01*
X0277948Y0166409D01*
X0278032Y0166287D01*
X0278113Y0166163D01*
X0278190Y0166037D01*
X0278264Y0165909D01*
X0278335Y0165779D01*
X0278402Y0165647D01*
X0278465Y0165513D01*
X0278525Y0165378D01*
X0278581Y0165241D01*
X0278634Y0165102D01*
X0278682Y0164962D01*
X0278727Y0164821D01*
X0278768Y0164679D01*
X0278806Y0164536D01*
X0278839Y0164392D01*
X0278869Y0164247D01*
X0278895Y0164101D01*
X0278916Y0163955D01*
X0278934Y0163808D01*
X0278948Y0163661D01*
X0278958Y0163513D01*
X0278964Y0163365D01*
X0278966Y0163217D01*
X0278964Y0163069D01*
X0278958Y0162921D01*
X0278948Y0162773D01*
X0278934Y0162626D01*
X0278916Y0162479D01*
X0278895Y0162333D01*
X0278869Y0162187D01*
X0278839Y0162042D01*
X0278806Y0161898D01*
X0278768Y0161755D01*
X0278727Y0161613D01*
X0278682Y0161472D01*
X0278634Y0161332D01*
X0278581Y0161193D01*
X0278525Y0161056D01*
X0278465Y0160921D01*
X0278402Y0160787D01*
X0278335Y0160655D01*
X0278264Y0160525D01*
X0278190Y0160397D01*
X0278113Y0160271D01*
X0278032Y0160147D01*
X0277948Y0160025D01*
X0277861Y0159906D01*
X0277770Y0159789D01*
X0277676Y0159674D01*
X0277580Y0159562D01*
X0277480Y0159452D01*
X0277378Y0159346D01*
X0277272Y0159242D01*
X0277164Y0159141D01*
X0277053Y0159043D01*
X0276940Y0158947D01*
X0276824Y0158855D01*
X0276706Y0158766D01*
X0276585Y0158681D01*
X0276462Y0158598D01*
X0276337Y0158519D01*
X0276210Y0158443D01*
X0276081Y0158371D01*
X0275950Y0158302D01*
X0275817Y0158237D01*
X0275682Y0158176D01*
X0275546Y0158118D01*
X0275409Y0158063D01*
X0275270Y0158013D01*
X0275129Y0157966D01*
X0274988Y0157923D01*
X0274845Y0157883D01*
X0274701Y0157848D01*
X0274557Y0157816D01*
X0274411Y0157789D01*
X0274265Y0157765D01*
X0274118Y0157745D01*
X0273971Y0157729D01*
X0273824Y0157717D01*
X0273676Y0157709D01*
X0273528Y0157705D01*
X0273380Y0157705D01*
X0273232Y0157709D01*
X0273084Y0157717D01*
X0272937Y0157729D01*
X0272790Y0157745D01*
X0272643Y0157765D01*
X0272497Y0157789D01*
X0272351Y0157816D01*
X0272207Y0157848D01*
X0272063Y0157883D01*
X0271920Y0157923D01*
X0271779Y0157966D01*
X0271638Y0158013D01*
X0271499Y0158063D01*
X0271362Y0158118D01*
X0271226Y0158176D01*
X0271091Y0158237D01*
X0270958Y0158302D01*
X0270827Y0158371D01*
X0270698Y0158443D01*
X0270571Y0158519D01*
X0270446Y0158598D01*
X0270323Y0158681D01*
X0270202Y0158766D01*
X0270084Y0158855D01*
X0269968Y0158947D01*
X0269855Y0159043D01*
X0269744Y0159141D01*
X0269636Y0159242D01*
X0269530Y0159346D01*
X0269428Y0159452D01*
X0269328Y0159562D01*
X0269232Y0159674D01*
X0269138Y0159789D01*
X0269047Y0159906D01*
X0268960Y0160025D01*
X0268876Y0160147D01*
X0268795Y0160271D01*
X0268718Y0160397D01*
X0268644Y0160525D01*
X0268573Y0160655D01*
X0268506Y0160787D01*
X0268443Y0160921D01*
X0268383Y0161056D01*
X0268327Y0161193D01*
X0268274Y0161332D01*
X0268226Y0161472D01*
X0268181Y0161613D01*
X0268140Y0161755D01*
X0268102Y0161898D01*
X0268069Y0162042D01*
X0268039Y0162187D01*
X0268013Y0162333D01*
X0267992Y0162479D01*
X0267974Y0162626D01*
X0267960Y0162773D01*
X0267950Y0162921D01*
X0267944Y0163069D01*
X0267942Y0163217D01*
D12*
X0230017Y0105268D03*
X0230017Y0094244D03*
D13*
X0213809Y0096492D03*
X0213809Y0103185D03*
X0200184Y0103219D03*
X0200184Y0096527D03*
X0229517Y0071800D03*
X0236209Y0071800D03*
X0236946Y0044735D03*
X0230253Y0044735D03*
X0230253Y0032177D03*
X0236946Y0032177D03*
X0237126Y0017182D03*
X0230434Y0017182D03*
X0258362Y0129175D03*
X0265055Y0129175D03*
X0206209Y0191800D03*
X0199517Y0191800D03*
X0123709Y0179300D03*
X0117017Y0179300D03*
X0117017Y0169300D03*
X0123709Y0169300D03*
X0123709Y0159300D03*
X0117017Y0159300D03*
X0117017Y0149300D03*
X0123709Y0149300D03*
D14*
X0158887Y0131524D03*
X0171485Y0131524D03*
X0171485Y0109871D03*
X0158887Y0109871D03*
D15*
X0146832Y0114562D03*
X0140139Y0114562D03*
X0230253Y0061185D03*
X0236946Y0061185D03*
X0167132Y0193852D03*
X0160439Y0193852D03*
X0148412Y0193754D03*
X0141719Y0193754D03*
D16*
X0258926Y0143729D03*
X0264831Y0143729D03*
D17*
X0247863Y0117410D03*
X0239989Y0117410D03*
X0232115Y0117410D03*
X0224241Y0117410D03*
X0216367Y0117410D03*
X0208493Y0117410D03*
X0200619Y0117410D03*
X0192745Y0117410D03*
X0192745Y0180402D03*
X0200619Y0180402D03*
X0208493Y0180402D03*
X0216367Y0180402D03*
X0224241Y0180402D03*
X0232115Y0180402D03*
X0239989Y0180402D03*
X0247863Y0180402D03*
D18*
X0163887Y0181200D03*
X0160737Y0181200D03*
X0157587Y0181200D03*
X0154438Y0181200D03*
X0151288Y0181200D03*
X0148139Y0181200D03*
X0144989Y0181200D03*
X0141839Y0181200D03*
X0141839Y0147400D03*
X0144989Y0147400D03*
X0148139Y0147400D03*
X0151288Y0147400D03*
X0154438Y0147400D03*
X0157587Y0147400D03*
X0160737Y0147400D03*
X0163887Y0147400D03*
D19*
X0169763Y0153276D03*
X0169763Y0156426D03*
X0169763Y0159576D03*
X0169763Y0162725D03*
X0169763Y0165875D03*
X0169763Y0169024D03*
X0169763Y0172174D03*
X0169763Y0175324D03*
X0135963Y0175324D03*
X0135963Y0172174D03*
X0135963Y0169024D03*
X0135963Y0165875D03*
X0135963Y0162725D03*
X0135963Y0159576D03*
X0135963Y0156426D03*
X0135963Y0153276D03*
D20*
X0248493Y0016485D03*
X0248493Y0012548D03*
X0248493Y0008611D03*
X0258729Y0008611D03*
X0258729Y0012548D03*
X0258729Y0016485D03*
D21*
X0254497Y0014221D03*
X0252725Y0014221D03*
X0252725Y0010875D03*
X0254497Y0010875D03*
D22*
X0254497Y0012548D03*
X0252725Y0012548D03*
D23*
X0006800Y0135757D03*
M02*
