G75*
%MOIN*%
%OFA0B0*%
%FSLAX24Y24*%
%IPPOS*%
%LPD*%
%AMOC8*
5,1,8,0,0,1.08239X$1,22.5*
%
%ADD10C,0.0000*%
%ADD11OC8,0.0890*%
%ADD12C,0.0640*%
%ADD13C,0.0560*%
%ADD14C,0.0745*%
%ADD15C,0.0600*%
%ADD16C,0.1700*%
D10*
X000180Y000180D02*
X000180Y019865D01*
X019865Y019865D01*
X019865Y000180D01*
X000180Y000180D01*
D11*
X004943Y005805D03*
X008358Y005838D03*
X009358Y005838D03*
X009817Y010961D03*
X008817Y010961D03*
X007817Y010961D03*
X006816Y010961D03*
X005796Y010961D03*
X017192Y019270D03*
X018645Y003674D03*
X018642Y002490D03*
D12*
X012615Y002328D02*
X012615Y001728D01*
X011615Y001728D02*
X011615Y002328D01*
X010615Y002328D02*
X010615Y001728D01*
X009615Y001728D02*
X009615Y002328D01*
X008615Y002328D02*
X008615Y001728D01*
X007615Y001728D02*
X007615Y002328D01*
X006615Y002328D02*
X006615Y001728D01*
X005615Y001728D02*
X005615Y002328D01*
X004625Y002301D02*
X004625Y001701D01*
X003625Y001701D02*
X003625Y002301D01*
X002625Y002301D02*
X002625Y001701D01*
X001480Y006006D02*
X000880Y006006D01*
X000880Y007006D02*
X001480Y007006D01*
X001480Y008006D02*
X000880Y008006D01*
X000880Y009006D02*
X001480Y009006D01*
X001480Y010006D02*
X000880Y010006D01*
X000880Y011006D02*
X001480Y011006D01*
D13*
X004752Y010190D02*
X004752Y009670D01*
X005752Y009670D02*
X005752Y010190D01*
X006752Y010190D02*
X006752Y009670D01*
X007752Y009670D02*
X007752Y010190D01*
X008752Y010190D02*
X008752Y009670D01*
X009752Y009670D02*
X009752Y010190D01*
X010752Y010190D02*
X010752Y009670D01*
X011752Y009670D02*
X011752Y010190D01*
X012752Y010190D02*
X012752Y009670D01*
X013752Y009670D02*
X013752Y010190D01*
X014752Y010190D02*
X014752Y009670D01*
X015752Y009670D02*
X015752Y010190D01*
X016752Y010190D02*
X016752Y009670D01*
X017752Y009670D02*
X017752Y010190D01*
X017752Y007190D02*
X017752Y006670D01*
X016752Y006670D02*
X016752Y007190D01*
X015752Y007190D02*
X015752Y006670D01*
X014752Y006670D02*
X014752Y007190D01*
X013752Y007190D02*
X013752Y006670D01*
X012752Y006670D02*
X012752Y007190D01*
X011752Y007190D02*
X011752Y006670D01*
X010752Y006670D02*
X010752Y007190D01*
X009752Y007190D02*
X009752Y006670D01*
X008752Y006670D02*
X008752Y007190D01*
X007752Y007190D02*
X007752Y006670D01*
X006752Y006670D02*
X006752Y007190D01*
X005752Y007190D02*
X005752Y006670D01*
X004752Y006670D02*
X004752Y007190D01*
D14*
X004612Y016562D02*
X004612Y017267D01*
X006581Y017267D02*
X006581Y016562D01*
X008549Y016562D02*
X008549Y017267D01*
X015072Y003546D02*
X015072Y002841D01*
X017040Y002841D02*
X017040Y003546D01*
D15*
X007860Y012609D02*
X007300Y012609D01*
X007300Y013609D02*
X007860Y013609D01*
X001299Y004012D02*
X000739Y004012D01*
X000739Y003012D02*
X001299Y003012D01*
D16*
X001030Y001030D03*
X001031Y019005D03*
X019012Y019007D03*
X019010Y001042D03*
M02*
