G75*
%MOIN*%
%OFA0B0*%
%FSLAX24Y24*%
%IPPOS*%
%LPD*%
%AMOC8*
5,1,8,0,0,1.08239X$1,22.5*
%
%ADD10C,0.0000*%
%ADD11C,0.0040*%
%ADD12C,0.0030*%
%ADD13C,0.0050*%
%ADD14C,0.0060*%
%ADD15C,0.0070*%
%ADD16C,0.0100*%
D10*
X000180Y000180D02*
X000180Y019865D01*
X019865Y019865D01*
X019865Y000180D01*
X000180Y000180D01*
D11*
X002412Y000559D02*
X002648Y000559D01*
X002530Y000677D02*
X002530Y000441D01*
X002460Y000871D02*
X002637Y000871D01*
X002696Y000930D01*
X002696Y001166D01*
X002637Y001225D01*
X002460Y001225D01*
X002460Y000871D01*
X002822Y000930D02*
X002881Y000871D01*
X002999Y000871D01*
X003058Y000930D01*
X003058Y000989D01*
X002999Y001048D01*
X002881Y001048D01*
X002822Y001107D01*
X002822Y001166D01*
X002881Y001225D01*
X002999Y001225D01*
X003058Y001166D01*
X003185Y001107D02*
X003303Y001225D01*
X003303Y000871D01*
X003185Y000871D02*
X003421Y000871D01*
X003462Y000751D02*
X003285Y000751D01*
X003285Y000397D01*
X003462Y000397D01*
X003521Y000456D01*
X003521Y000692D01*
X003462Y000751D01*
X003606Y000871D02*
X003547Y000930D01*
X003547Y000989D01*
X003606Y001048D01*
X003724Y001048D01*
X003783Y000989D01*
X003783Y000930D01*
X003724Y000871D01*
X003606Y000871D01*
X003706Y000751D02*
X003824Y000751D01*
X003883Y000692D01*
X003883Y000456D01*
X003824Y000397D01*
X003706Y000397D01*
X003647Y000456D01*
X003647Y000692D01*
X003706Y000751D01*
X003910Y000871D02*
X004087Y000871D01*
X004146Y000930D01*
X004146Y000989D01*
X004087Y001048D01*
X003910Y001048D01*
X003783Y001107D02*
X003724Y001048D01*
X003783Y001107D02*
X003783Y001166D01*
X003724Y001225D01*
X003606Y001225D01*
X003547Y001166D01*
X003547Y001107D01*
X003606Y001048D01*
X003910Y000871D02*
X003910Y001225D01*
X004087Y001225D01*
X004146Y001166D01*
X004146Y001107D01*
X004087Y001048D01*
X004272Y001166D02*
X004331Y001225D01*
X004449Y001225D01*
X004508Y001166D01*
X004508Y001107D01*
X004272Y000871D01*
X004508Y000871D01*
X004635Y000930D02*
X004635Y001166D01*
X004694Y001225D01*
X004812Y001225D01*
X004871Y001166D01*
X004635Y000930D01*
X004694Y000871D01*
X004812Y000871D01*
X004871Y000930D01*
X004871Y001166D01*
X004720Y000604D02*
X004484Y000604D01*
X003883Y000397D02*
X003765Y000515D01*
X005579Y000847D02*
X005815Y000847D01*
X005941Y000847D02*
X006118Y000847D01*
X006177Y000906D01*
X006177Y001142D01*
X006118Y001201D01*
X005941Y001201D01*
X005941Y000847D01*
X005579Y000847D02*
X005579Y001201D01*
X006304Y001201D02*
X006304Y000847D01*
X006304Y000965D02*
X006481Y000965D01*
X006540Y001024D01*
X006540Y001142D01*
X006481Y001201D01*
X006304Y001201D01*
X006422Y000965D02*
X006540Y000847D01*
X007454Y000847D02*
X007690Y000847D01*
X007816Y000847D02*
X008052Y000847D01*
X008179Y000847D02*
X008356Y000847D01*
X008415Y000906D01*
X008415Y001142D01*
X008356Y001201D01*
X008179Y001201D01*
X008179Y000847D01*
X007934Y001024D02*
X007816Y001024D01*
X007816Y001201D02*
X007816Y000847D01*
X007816Y001201D02*
X008052Y001201D01*
X008541Y001083D02*
X008659Y001201D01*
X008659Y000847D01*
X008541Y000847D02*
X008777Y000847D01*
X008663Y000633D02*
X008663Y000397D01*
X008545Y000515D02*
X008781Y000515D01*
X009389Y000847D02*
X009389Y001201D01*
X009507Y001083D01*
X009625Y001201D01*
X009625Y000847D01*
X009751Y000906D02*
X009810Y000847D01*
X009928Y000847D01*
X009987Y000906D01*
X009987Y001142D01*
X009928Y001201D01*
X009810Y001201D01*
X009751Y001142D01*
X009751Y000906D01*
X010114Y000847D02*
X010291Y000847D01*
X010350Y000906D01*
X010350Y001142D01*
X010291Y001201D01*
X010114Y001201D01*
X010114Y000847D01*
X010476Y000847D02*
X010712Y000847D01*
X010594Y001024D02*
X010476Y001024D01*
X010476Y001201D02*
X010476Y000847D01*
X010476Y001201D02*
X010712Y001201D01*
X011264Y001250D02*
X011264Y000896D01*
X011500Y000896D01*
X011626Y000896D02*
X011862Y000896D01*
X011989Y000896D02*
X011989Y001132D01*
X012107Y001250D01*
X012225Y001132D01*
X012225Y000896D01*
X012351Y000896D02*
X012351Y001250D01*
X012528Y001250D01*
X012587Y001191D01*
X012587Y001073D01*
X012528Y001014D01*
X012351Y001014D01*
X012469Y001014D02*
X012587Y000896D01*
X012714Y000896D02*
X012714Y001250D01*
X012950Y000896D01*
X012950Y001250D01*
X012225Y001073D02*
X011989Y001073D01*
X011862Y001250D02*
X011626Y001250D01*
X011626Y000896D01*
X011626Y001073D02*
X011744Y001073D01*
X014333Y000700D02*
X014639Y000700D01*
X017577Y000674D02*
X017884Y000674D01*
X017731Y000827D02*
X017731Y000521D01*
X019293Y002070D02*
X019352Y002011D01*
X019588Y002011D01*
X019647Y002070D01*
X019647Y002188D01*
X019588Y002247D01*
X019470Y002247D01*
X019470Y002129D01*
X019352Y002247D02*
X019293Y002188D01*
X019293Y002070D01*
X019293Y002374D02*
X019647Y002610D01*
X019293Y002610D01*
X019293Y002736D02*
X019293Y002913D01*
X019352Y002972D01*
X019588Y002972D01*
X019647Y002913D01*
X019647Y002736D01*
X019293Y002736D01*
X019293Y002374D02*
X019647Y002374D01*
X019641Y003268D02*
X019641Y003386D01*
X019641Y003327D02*
X019287Y003327D01*
X019287Y003268D02*
X019287Y003386D01*
X019346Y003509D02*
X019582Y003509D01*
X019641Y003568D01*
X019641Y003686D01*
X019582Y003745D01*
X019346Y003745D01*
X019287Y003686D01*
X019287Y003568D01*
X019346Y003509D01*
X019287Y003872D02*
X019287Y004049D01*
X019346Y004108D01*
X019464Y004108D01*
X019523Y004049D01*
X019523Y003872D01*
X019641Y003872D02*
X019287Y003872D01*
X011650Y003980D02*
X011573Y003980D01*
X011420Y003827D01*
X011420Y003980D02*
X011420Y003673D01*
X011267Y003827D02*
X010960Y003827D01*
X010960Y003904D02*
X011036Y003980D01*
X011190Y003980D01*
X011267Y003904D01*
X011267Y003827D01*
X011190Y003673D02*
X011036Y003673D01*
X010960Y003750D01*
X010960Y003904D01*
X010806Y003673D02*
X010653Y003673D01*
X010729Y003673D02*
X010729Y004134D01*
X010653Y004134D01*
X010422Y004134D02*
X010422Y003673D01*
X010346Y003673D02*
X010499Y003673D01*
X010192Y003750D02*
X010192Y003904D01*
X010116Y003980D01*
X009962Y003980D01*
X009885Y003904D01*
X009885Y003750D01*
X009962Y003673D01*
X010116Y003673D01*
X010192Y003750D01*
X010346Y004134D02*
X010422Y004134D01*
X009732Y003980D02*
X009655Y003980D01*
X009502Y003827D01*
X009502Y003980D02*
X009502Y003673D01*
X009348Y003673D02*
X009271Y003750D01*
X009271Y004057D01*
X009195Y003980D02*
X009348Y003980D01*
X009041Y003904D02*
X009041Y003673D01*
X009041Y003904D02*
X008965Y003980D01*
X008734Y003980D01*
X008734Y003673D01*
X008581Y003750D02*
X008581Y003904D01*
X008504Y003980D01*
X008351Y003980D01*
X008274Y003904D01*
X008274Y003750D01*
X008351Y003673D01*
X008504Y003673D01*
X008581Y003750D01*
X008120Y003673D02*
X007890Y003673D01*
X007814Y003750D01*
X007814Y003904D01*
X007890Y003980D01*
X008120Y003980D01*
X007967Y004348D02*
X007814Y004501D01*
X007890Y004501D02*
X007660Y004501D01*
X007660Y004348D02*
X007660Y004808D01*
X007890Y004808D01*
X007967Y004731D01*
X007967Y004578D01*
X007890Y004501D01*
X008120Y004501D02*
X008120Y004808D01*
X008155Y004838D02*
X007978Y004838D01*
X007978Y005192D01*
X008155Y005192D01*
X008214Y005133D01*
X008214Y004897D01*
X008155Y004838D01*
X008340Y004897D02*
X008399Y004838D01*
X008517Y004838D01*
X008576Y004897D01*
X008576Y004956D01*
X008517Y005015D01*
X008458Y005015D01*
X008517Y005015D02*
X008576Y005074D01*
X008576Y005133D01*
X008517Y005192D01*
X008399Y005192D01*
X008340Y005133D01*
X008427Y004808D02*
X008427Y004501D01*
X008274Y004348D01*
X008120Y004501D01*
X007507Y004808D02*
X007200Y004808D01*
X007353Y004808D02*
X007353Y004348D01*
X007046Y004134D02*
X007200Y003980D01*
X007200Y003827D01*
X007046Y003673D01*
X006893Y003980D02*
X006816Y003980D01*
X006663Y003827D01*
X006663Y003980D02*
X006663Y003673D01*
X006509Y003827D02*
X006202Y003827D01*
X006202Y003904D02*
X006279Y003980D01*
X006432Y003980D01*
X006509Y003904D01*
X006509Y003827D01*
X006432Y003673D02*
X006279Y003673D01*
X006202Y003750D01*
X006202Y003904D01*
X006049Y003673D02*
X005895Y003673D01*
X005972Y003673D02*
X005972Y004134D01*
X005895Y004134D01*
X005819Y004348D02*
X006049Y004348D01*
X006125Y004424D01*
X006049Y004501D01*
X005895Y004501D01*
X005819Y004578D01*
X005895Y004655D01*
X006125Y004655D01*
X006279Y004578D02*
X006356Y004655D01*
X006586Y004655D01*
X006509Y004501D02*
X006356Y004501D01*
X006279Y004578D01*
X006279Y004348D02*
X006509Y004348D01*
X006586Y004424D01*
X006509Y004501D01*
X005665Y004501D02*
X005358Y004501D01*
X005358Y004424D02*
X005358Y004578D01*
X005435Y004655D01*
X005588Y004655D01*
X005665Y004578D01*
X005665Y004501D01*
X005588Y004348D02*
X005435Y004348D01*
X005358Y004424D01*
X005205Y004348D02*
X005051Y004348D01*
X005128Y004348D02*
X005128Y004808D01*
X005051Y004808D01*
X004821Y004655D02*
X004898Y004578D01*
X004898Y004501D01*
X004591Y004501D01*
X004591Y004424D02*
X004591Y004578D01*
X004668Y004655D01*
X004821Y004655D01*
X004821Y004348D02*
X004668Y004348D01*
X004591Y004424D01*
X004437Y004655D02*
X004361Y004655D01*
X004207Y004501D01*
X004207Y004348D02*
X004207Y004655D01*
X003977Y004655D02*
X003977Y004348D01*
X003900Y004348D02*
X004054Y004348D01*
X003823Y004134D02*
X003747Y004057D01*
X003747Y003980D01*
X004054Y003673D01*
X004054Y003827D02*
X003900Y003673D01*
X003823Y003673D01*
X003747Y003750D01*
X003747Y003827D01*
X003900Y003980D01*
X003900Y004057D01*
X003823Y004134D01*
X003747Y004348D02*
X003747Y004808D01*
X003900Y004655D02*
X003977Y004655D01*
X003977Y004808D02*
X003977Y004885D01*
X003440Y004808D02*
X003440Y004348D01*
X003593Y004501D01*
X003747Y004348D01*
X003593Y004134D02*
X003440Y003980D01*
X003440Y003827D01*
X003593Y003673D01*
X004668Y003673D02*
X004898Y003673D01*
X004974Y003750D01*
X004974Y003904D01*
X004898Y003980D01*
X004668Y003980D01*
X004668Y004134D02*
X004668Y003673D01*
X005128Y003750D02*
X005205Y003673D01*
X005358Y003673D01*
X005435Y003750D01*
X005435Y003904D01*
X005358Y003980D01*
X005205Y003980D01*
X005128Y003904D01*
X005128Y003750D01*
X005588Y003673D02*
X005742Y003673D01*
X005665Y003673D02*
X005665Y003980D01*
X005588Y003980D01*
X005665Y004134D02*
X005665Y004211D01*
X005631Y005596D02*
X005631Y005950D01*
X005808Y005950D01*
X005867Y005891D01*
X005867Y005773D01*
X005808Y005714D01*
X005631Y005714D01*
X005749Y005714D02*
X005867Y005596D01*
X005993Y005655D02*
X006052Y005596D01*
X006170Y005596D01*
X006229Y005655D01*
X006229Y005714D01*
X006170Y005773D01*
X006052Y005773D01*
X005993Y005832D01*
X005993Y005891D01*
X006052Y005950D01*
X006170Y005950D01*
X006229Y005891D01*
X006356Y005950D02*
X006592Y005950D01*
X006474Y005950D02*
X006474Y005596D01*
X008978Y005192D02*
X008978Y004838D01*
X009155Y004838D01*
X009214Y004897D01*
X009214Y005133D01*
X009155Y005192D01*
X008978Y005192D01*
X009340Y005015D02*
X009576Y005015D01*
X009517Y005192D02*
X009340Y005015D01*
X009517Y004838D02*
X009517Y005192D01*
X007454Y001201D02*
X007454Y000847D01*
X007426Y000574D02*
X007662Y000574D01*
X002340Y007923D02*
X001986Y007923D01*
X001986Y008159D01*
X001986Y008286D02*
X001986Y008522D01*
X001986Y008404D02*
X002340Y008404D01*
X002163Y008041D02*
X002163Y007923D01*
X001986Y008648D02*
X002340Y008648D01*
X002340Y008825D01*
X002281Y008884D01*
X002045Y008884D01*
X001986Y008825D01*
X001986Y008648D01*
X001986Y009011D02*
X001986Y009129D01*
X001986Y009070D02*
X002340Y009070D01*
X002340Y009011D02*
X002340Y009129D01*
X005362Y011715D02*
X005421Y011656D01*
X005539Y011656D01*
X005598Y011715D01*
X005598Y011774D01*
X005539Y011833D01*
X005421Y011833D01*
X005362Y011892D01*
X005362Y011951D01*
X005421Y012010D01*
X005539Y012010D01*
X005598Y011951D01*
X005725Y011951D02*
X005725Y011715D01*
X005784Y011656D01*
X005902Y011656D01*
X005961Y011715D01*
X006087Y011656D02*
X006087Y012010D01*
X005961Y011951D02*
X005902Y012010D01*
X005784Y012010D01*
X005725Y011951D01*
X006087Y011656D02*
X006323Y011656D01*
X006382Y011715D02*
X006441Y011656D01*
X006559Y011656D01*
X006618Y011715D01*
X006618Y011774D01*
X006559Y011833D01*
X006441Y011833D01*
X006382Y011892D01*
X006382Y011951D01*
X006441Y012010D01*
X006559Y012010D01*
X006618Y011951D01*
X006745Y012010D02*
X006922Y012010D01*
X006981Y011951D01*
X006981Y011715D01*
X006922Y011656D01*
X006745Y011656D01*
X006745Y012010D01*
X007107Y011892D02*
X007107Y011656D01*
X007107Y011833D02*
X007343Y011833D01*
X007387Y011833D02*
X007623Y011833D01*
X007623Y011892D02*
X007623Y011656D01*
X007749Y011656D02*
X007867Y011656D01*
X007808Y011656D02*
X007808Y012010D01*
X007749Y012010D02*
X007867Y012010D01*
X007991Y011951D02*
X008050Y012010D01*
X008168Y012010D01*
X008227Y011951D01*
X008227Y011892D01*
X008168Y011833D01*
X008227Y011774D01*
X008227Y011715D01*
X008168Y011656D01*
X008050Y011656D01*
X007991Y011715D01*
X008109Y011833D02*
X008168Y011833D01*
X008387Y011833D02*
X008623Y011833D01*
X008623Y011892D02*
X008623Y011656D01*
X008749Y011656D02*
X008867Y011656D01*
X008808Y011656D02*
X008808Y012010D01*
X008749Y012010D02*
X008867Y012010D01*
X008991Y011951D02*
X009050Y012010D01*
X009168Y012010D01*
X009227Y011951D01*
X009227Y011892D01*
X008991Y011656D01*
X009227Y011656D01*
X009387Y011656D02*
X009387Y011892D01*
X009505Y012010D01*
X009623Y011892D01*
X009623Y011656D01*
X009749Y011656D02*
X009867Y011656D01*
X009808Y011656D02*
X009808Y012010D01*
X009749Y012010D02*
X009867Y012010D01*
X009991Y011892D02*
X010109Y012010D01*
X010109Y011656D01*
X009991Y011656D02*
X010227Y011656D01*
X009623Y011833D02*
X009387Y011833D01*
X008623Y011892D02*
X008505Y012010D01*
X008387Y011892D01*
X008387Y011656D01*
X007623Y011892D02*
X007505Y012010D01*
X007387Y011892D01*
X007387Y011656D01*
X007343Y011656D02*
X007343Y011892D01*
X007225Y012010D01*
X007107Y011892D01*
X006992Y019185D02*
X007222Y019185D01*
X007299Y019262D01*
X007299Y019569D01*
X007222Y019646D01*
X006992Y019646D01*
X006992Y019185D01*
X006838Y019185D02*
X006838Y019646D01*
X006531Y019646D02*
X006531Y019185D01*
X006378Y019262D02*
X006378Y019416D01*
X006224Y019416D01*
X006071Y019569D02*
X006071Y019262D01*
X006148Y019185D01*
X006301Y019185D01*
X006378Y019262D01*
X006378Y019569D02*
X006301Y019646D01*
X006148Y019646D01*
X006071Y019569D01*
X006531Y019646D02*
X006838Y019185D01*
X008454Y019251D02*
X008531Y019174D01*
X008685Y019174D01*
X008761Y019251D01*
X008761Y019404D01*
X008685Y019481D01*
X008608Y019481D01*
X008454Y019404D01*
X008454Y019634D01*
X008761Y019634D01*
X005043Y019540D02*
X005043Y019463D01*
X004966Y019386D01*
X005043Y019310D01*
X005043Y019233D01*
X004966Y019156D01*
X004812Y019156D01*
X004736Y019233D01*
X004582Y019233D02*
X004582Y019156D01*
X004505Y019156D01*
X004505Y019233D01*
X004582Y019233D01*
X004352Y019233D02*
X004352Y019310D01*
X004275Y019386D01*
X004199Y019386D01*
X004275Y019386D02*
X004352Y019463D01*
X004352Y019540D01*
X004275Y019617D01*
X004122Y019617D01*
X004045Y019540D01*
X004045Y019233D02*
X004122Y019156D01*
X004275Y019156D01*
X004352Y019233D01*
X004736Y019540D02*
X004812Y019617D01*
X004966Y019617D01*
X005043Y019540D01*
X004966Y019386D02*
X004889Y019386D01*
X015519Y019358D02*
X015755Y019358D01*
X015755Y019417D02*
X015755Y019181D01*
X015882Y019181D02*
X015882Y019535D01*
X016118Y019181D01*
X016118Y019535D01*
X016244Y019535D02*
X016480Y019535D01*
X016362Y019535D02*
X016362Y019181D01*
X015755Y019417D02*
X015637Y019535D01*
X015519Y019417D01*
X015519Y019181D01*
D12*
X014345Y019201D02*
X014160Y019078D01*
X014345Y018954D01*
X014160Y018954D02*
X014160Y019325D01*
X014038Y019201D02*
X014038Y018954D01*
X013853Y018954D01*
X013792Y019016D01*
X013792Y019201D01*
X013669Y019016D02*
X013607Y019016D01*
X013607Y018954D01*
X013669Y018954D01*
X013669Y019016D01*
X013486Y018954D02*
X013301Y018954D01*
X013239Y019016D01*
X013239Y019140D01*
X013301Y019201D01*
X013486Y019201D01*
X013486Y018893D01*
X013424Y018831D01*
X013363Y018831D01*
X013117Y019201D02*
X013056Y019201D01*
X012932Y019078D01*
X012932Y019201D02*
X012932Y018954D01*
X012811Y019016D02*
X012811Y019140D01*
X012749Y019201D01*
X012626Y019201D01*
X012564Y019140D01*
X012564Y019016D01*
X012626Y018954D01*
X012749Y018954D01*
X012811Y019016D01*
X012441Y019016D02*
X012441Y018954D01*
X012380Y018954D01*
X012380Y019016D01*
X012441Y019016D01*
X012258Y019078D02*
X012258Y019325D01*
X012258Y019078D02*
X012135Y018954D01*
X012011Y019078D01*
X012011Y019325D01*
X011890Y019263D02*
X011890Y019140D01*
X011828Y019078D01*
X011643Y019078D01*
X011767Y019078D02*
X011890Y018954D01*
X011643Y018954D02*
X011643Y019325D01*
X011828Y019325D01*
X011890Y019263D01*
X011522Y019325D02*
X011275Y019325D01*
X011398Y019325D02*
X011398Y018954D01*
X011153Y018954D02*
X011153Y019140D01*
X011092Y019201D01*
X010906Y019201D01*
X010906Y018954D01*
X010785Y019078D02*
X010538Y019078D01*
X010538Y019140D02*
X010600Y019201D01*
X010723Y019201D01*
X010785Y019140D01*
X010785Y019078D01*
X010723Y018954D02*
X010600Y018954D01*
X010538Y019016D01*
X010538Y019140D01*
X010417Y019140D02*
X010417Y019016D01*
X010355Y018954D01*
X010170Y018954D01*
X010170Y018831D02*
X010170Y019201D01*
X010355Y019201D01*
X010417Y019140D01*
X010048Y019263D02*
X010048Y019016D01*
X009987Y018954D01*
X009863Y018954D01*
X009801Y019016D01*
X009801Y019263D01*
X009863Y019325D01*
X009987Y019325D01*
X010048Y019263D01*
X019086Y009227D02*
X019457Y009227D01*
X019457Y009104D02*
X019457Y009351D01*
X019210Y009104D02*
X019086Y009227D01*
X019148Y008982D02*
X019086Y008921D01*
X019086Y008797D01*
X019148Y008736D01*
X019148Y008614D02*
X019395Y008367D01*
X019457Y008429D01*
X019457Y008552D01*
X019395Y008614D01*
X019148Y008614D01*
X019086Y008552D01*
X019086Y008429D01*
X019148Y008367D01*
X019395Y008367D01*
X019457Y008246D02*
X019457Y007999D01*
X019457Y008122D02*
X019086Y008122D01*
X019210Y007999D01*
X019210Y007878D02*
X019271Y007816D01*
X019333Y007878D01*
X019395Y007878D01*
X019457Y007816D01*
X019457Y007692D01*
X019395Y007631D01*
X019457Y007509D02*
X019457Y007262D01*
X019457Y007386D02*
X019086Y007386D01*
X019210Y007262D01*
X019148Y007141D02*
X019395Y006894D01*
X019457Y006956D01*
X019457Y007079D01*
X019395Y007141D01*
X019148Y007141D01*
X019086Y007079D01*
X019086Y006956D01*
X019148Y006894D01*
X019395Y006894D01*
X019457Y006773D02*
X019457Y006526D01*
X019210Y006773D01*
X019148Y006773D01*
X019086Y006711D01*
X019086Y006587D01*
X019148Y006526D01*
X019148Y007631D02*
X019086Y007692D01*
X019086Y007816D01*
X019148Y007878D01*
X019210Y007878D01*
X019271Y007816D02*
X019271Y007754D01*
X019457Y008736D02*
X019210Y008982D01*
X019148Y008982D01*
X019457Y008982D02*
X019457Y008736D01*
D13*
X017339Y004419D02*
X017189Y004419D01*
X017114Y004344D01*
X017339Y004419D02*
X017414Y004344D01*
X017414Y004269D01*
X017114Y003969D01*
X017414Y003969D01*
X015445Y003969D02*
X015145Y003969D01*
X015295Y003969D02*
X015295Y004419D01*
X015145Y004269D01*
X015125Y000949D02*
X014900Y000949D01*
X014900Y000499D01*
X015125Y000499D01*
X015200Y000574D01*
X015200Y000649D01*
X015125Y000724D01*
X014900Y000724D01*
X015125Y000724D02*
X015200Y000799D01*
X015200Y000874D01*
X015125Y000949D01*
X015360Y000874D02*
X015360Y000574D01*
X015435Y000499D01*
X015586Y000499D01*
X015661Y000574D01*
X015661Y000874D01*
X015586Y000949D01*
X015435Y000949D01*
X015360Y000874D01*
X015821Y000949D02*
X015971Y000949D01*
X015896Y000949D02*
X015896Y000499D01*
X015821Y000499D02*
X015971Y000499D01*
X016128Y000499D02*
X016428Y000499D01*
X016588Y000499D02*
X016888Y000499D01*
X017048Y000499D02*
X017048Y000949D01*
X017274Y000949D01*
X017349Y000874D01*
X017349Y000724D01*
X017274Y000649D01*
X017048Y000649D01*
X017199Y000649D02*
X017349Y000499D01*
X016888Y000949D02*
X016588Y000949D01*
X016588Y000499D01*
X016588Y000724D02*
X016738Y000724D01*
X016128Y000949D02*
X016128Y000499D01*
X006283Y002830D02*
X005876Y002830D01*
X006079Y002830D02*
X006079Y003441D01*
X005876Y003237D01*
X005067Y003237D02*
X004864Y002830D01*
X004660Y003237D01*
X004460Y003135D02*
X004460Y003034D01*
X004053Y003034D01*
X004053Y003135D02*
X004154Y003237D01*
X004358Y003237D01*
X004460Y003135D01*
X004358Y002830D02*
X004154Y002830D01*
X004053Y002932D01*
X004053Y003135D01*
X003852Y003135D02*
X003852Y003339D01*
X003750Y003441D01*
X003445Y003441D01*
X003445Y002830D01*
X003445Y003034D02*
X003750Y003034D01*
X003852Y003135D01*
X003648Y003034D02*
X003852Y002830D01*
X001546Y002331D02*
X001471Y002406D01*
X001321Y002406D01*
X001246Y002331D01*
X001086Y002331D02*
X001086Y002181D01*
X001011Y002106D01*
X000785Y002106D01*
X000785Y001956D02*
X000785Y002406D01*
X001011Y002406D01*
X001086Y002331D01*
X001246Y001956D02*
X001546Y002256D01*
X001546Y002331D01*
X001546Y001956D02*
X001246Y001956D01*
X000625Y002406D02*
X000475Y002406D01*
X000550Y002406D02*
X000550Y002031D01*
X000475Y001956D01*
X000400Y001956D01*
X000325Y002031D01*
X001217Y004957D02*
X001067Y005107D01*
X001517Y005107D01*
X001517Y004957D02*
X001517Y005257D01*
X001430Y011781D02*
X001280Y011781D01*
X001280Y012006D01*
X001355Y012081D01*
X001430Y012081D01*
X001505Y012006D01*
X001505Y011856D01*
X001430Y011781D01*
X001280Y011781D02*
X001130Y011931D01*
X001055Y012081D01*
X004204Y015690D02*
X004129Y015765D01*
X004204Y015690D02*
X004354Y015690D01*
X004429Y015765D01*
X004429Y015840D01*
X004354Y015915D01*
X004279Y015915D01*
X004354Y015915D02*
X004429Y015990D01*
X004429Y016065D01*
X004354Y016140D01*
X004204Y016140D01*
X004129Y016065D01*
X006097Y016065D02*
X006172Y016140D01*
X006322Y016140D01*
X006397Y016065D01*
X006397Y015990D01*
X006097Y015690D01*
X006397Y015690D01*
X007090Y014644D02*
X007240Y014644D01*
X007165Y014644D02*
X007165Y014269D01*
X007090Y014194D01*
X007015Y014194D01*
X006939Y014269D01*
X007400Y014344D02*
X007625Y014344D01*
X007700Y014419D01*
X007700Y014569D01*
X007625Y014644D01*
X007400Y014644D01*
X007400Y014194D01*
X007860Y014194D02*
X008161Y014194D01*
X008010Y014194D02*
X008010Y014644D01*
X007860Y014494D01*
X008066Y015690D02*
X008366Y015690D01*
X008216Y015690D02*
X008216Y016140D01*
X008066Y015990D01*
D14*
X007660Y016015D02*
X007662Y016043D01*
X007668Y016070D01*
X007677Y016096D01*
X007690Y016121D01*
X007707Y016144D01*
X007726Y016164D01*
X007748Y016181D01*
X007772Y016195D01*
X007798Y016205D01*
X007825Y016212D01*
X007853Y016215D01*
X007881Y016214D01*
X007908Y016209D01*
X007935Y016200D01*
X007960Y016188D01*
X007983Y016173D01*
X008004Y016154D01*
X008022Y016133D01*
X008037Y016109D01*
X008048Y016083D01*
X008056Y016057D01*
X008060Y016029D01*
X008060Y016001D01*
X008056Y015973D01*
X008048Y015947D01*
X008037Y015921D01*
X008022Y015897D01*
X008004Y015876D01*
X007983Y015857D01*
X007960Y015842D01*
X007935Y015830D01*
X007908Y015821D01*
X007881Y015816D01*
X007853Y015815D01*
X007825Y015818D01*
X007798Y015825D01*
X007772Y015835D01*
X007748Y015849D01*
X007726Y015866D01*
X007707Y015886D01*
X007690Y015909D01*
X007677Y015934D01*
X007668Y015960D01*
X007662Y015987D01*
X007660Y016015D01*
X005692Y016015D02*
X005694Y016043D01*
X005700Y016070D01*
X005709Y016096D01*
X005722Y016121D01*
X005739Y016144D01*
X005758Y016164D01*
X005780Y016181D01*
X005804Y016195D01*
X005830Y016205D01*
X005857Y016212D01*
X005885Y016215D01*
X005913Y016214D01*
X005940Y016209D01*
X005967Y016200D01*
X005992Y016188D01*
X006015Y016173D01*
X006036Y016154D01*
X006054Y016133D01*
X006069Y016109D01*
X006080Y016083D01*
X006088Y016057D01*
X006092Y016029D01*
X006092Y016001D01*
X006088Y015973D01*
X006080Y015947D01*
X006069Y015921D01*
X006054Y015897D01*
X006036Y015876D01*
X006015Y015857D01*
X005992Y015842D01*
X005967Y015830D01*
X005940Y015821D01*
X005913Y015816D01*
X005885Y015815D01*
X005857Y015818D01*
X005830Y015825D01*
X005804Y015835D01*
X005780Y015849D01*
X005758Y015866D01*
X005739Y015886D01*
X005722Y015909D01*
X005709Y015934D01*
X005700Y015960D01*
X005694Y015987D01*
X005692Y016015D01*
X003723Y016015D02*
X003725Y016043D01*
X003731Y016070D01*
X003740Y016096D01*
X003753Y016121D01*
X003770Y016144D01*
X003789Y016164D01*
X003811Y016181D01*
X003835Y016195D01*
X003861Y016205D01*
X003888Y016212D01*
X003916Y016215D01*
X003944Y016214D01*
X003971Y016209D01*
X003998Y016200D01*
X004023Y016188D01*
X004046Y016173D01*
X004067Y016154D01*
X004085Y016133D01*
X004100Y016109D01*
X004111Y016083D01*
X004119Y016057D01*
X004123Y016029D01*
X004123Y016001D01*
X004119Y015973D01*
X004111Y015947D01*
X004100Y015921D01*
X004085Y015897D01*
X004067Y015876D01*
X004046Y015857D01*
X004023Y015842D01*
X003998Y015830D01*
X003971Y015821D01*
X003944Y015816D01*
X003916Y015815D01*
X003888Y015818D01*
X003861Y015825D01*
X003835Y015835D01*
X003811Y015849D01*
X003789Y015866D01*
X003770Y015886D01*
X003753Y015909D01*
X003740Y015934D01*
X003731Y015960D01*
X003725Y015987D01*
X003723Y016015D01*
X003628Y014801D02*
X003628Y019029D01*
X003628Y019879D01*
X009534Y019879D01*
X009534Y019029D01*
X009534Y014801D01*
X009534Y014721D01*
X003628Y014721D01*
X003628Y014801D01*
X009534Y014801D01*
X008230Y014009D02*
X008230Y013209D01*
X007980Y013109D01*
X008230Y013009D01*
X008230Y012209D01*
X007980Y012109D01*
X007180Y012109D01*
X006930Y012209D01*
X006930Y013009D01*
X007180Y013109D01*
X006930Y013209D01*
X006930Y014009D01*
X007180Y014109D01*
X007980Y014109D01*
X008230Y014009D01*
X008267Y011411D02*
X008067Y011411D01*
X008267Y011411D02*
X008267Y011211D01*
X008367Y011211D02*
X008367Y011411D01*
X008567Y011411D01*
X009067Y011411D02*
X009267Y011411D01*
X009267Y011211D01*
X009367Y011211D02*
X009367Y011411D01*
X009567Y011411D01*
X010067Y011411D02*
X010267Y011411D01*
X010267Y011211D01*
X010267Y010711D02*
X010267Y010511D01*
X010067Y010511D01*
X009567Y010511D02*
X009367Y010511D01*
X009367Y010711D01*
X009267Y010711D02*
X009267Y010511D01*
X009067Y010511D01*
X008567Y010511D02*
X008367Y010511D01*
X008367Y010711D01*
X008267Y010711D02*
X008267Y010511D01*
X008067Y010511D01*
X007567Y010511D02*
X007367Y010511D01*
X007367Y010711D01*
X007266Y010711D02*
X007266Y010511D01*
X007066Y010511D01*
X006566Y010511D02*
X006366Y010511D01*
X006366Y010711D01*
X006246Y010711D02*
X006246Y010511D01*
X006046Y010511D01*
X005546Y010511D02*
X005346Y010511D01*
X005346Y010711D01*
X005346Y011211D02*
X005346Y011411D01*
X005546Y011411D01*
X006046Y011411D02*
X006246Y011411D01*
X006246Y011211D01*
X006366Y011211D02*
X006366Y011411D01*
X006566Y011411D01*
X007066Y011411D02*
X007266Y011411D01*
X007266Y011211D01*
X007367Y011211D02*
X007367Y011411D01*
X007567Y011411D01*
X003952Y009330D02*
X003952Y008680D01*
X003982Y008678D01*
X004012Y008673D01*
X004041Y008664D01*
X004068Y008651D01*
X004094Y008636D01*
X004118Y008617D01*
X004139Y008596D01*
X004158Y008572D01*
X004173Y008546D01*
X004186Y008519D01*
X004195Y008490D01*
X004200Y008460D01*
X004202Y008430D01*
X004200Y008400D01*
X004195Y008370D01*
X004186Y008341D01*
X004173Y008314D01*
X004158Y008288D01*
X004139Y008264D01*
X004118Y008243D01*
X004094Y008224D01*
X004068Y008209D01*
X004041Y008196D01*
X004012Y008187D01*
X003982Y008182D01*
X003952Y008180D01*
X003952Y007530D01*
X018552Y007530D01*
X018552Y009330D01*
X003952Y009330D01*
X001880Y009256D02*
X001880Y008756D01*
X001430Y008506D01*
X001880Y008256D01*
X001880Y007756D01*
X001430Y007506D01*
X001880Y007256D01*
X001880Y006756D01*
X001430Y006506D01*
X001880Y006256D01*
X001880Y005756D01*
X001430Y005506D01*
X000930Y005506D01*
X000480Y005756D01*
X000480Y006256D01*
X000930Y006506D01*
X000480Y006756D01*
X000480Y007256D01*
X000930Y007506D01*
X000480Y007756D01*
X000480Y008256D01*
X000930Y008506D01*
X000480Y008756D01*
X000480Y009256D01*
X000930Y009506D01*
X000480Y009756D01*
X000480Y010256D01*
X000930Y010506D01*
X000480Y010756D01*
X000480Y011256D01*
X000930Y011506D01*
X001430Y011506D01*
X001880Y011256D01*
X001880Y010756D01*
X001430Y010506D01*
X001880Y010256D01*
X001880Y009756D01*
X001430Y009506D01*
X001880Y009256D01*
X004493Y006255D02*
X004493Y006055D01*
X004493Y006255D02*
X004693Y006255D01*
X005193Y006255D02*
X005393Y006255D01*
X005393Y006055D01*
X005393Y005555D02*
X005393Y005355D01*
X005193Y005355D01*
X004693Y005355D02*
X004493Y005355D01*
X004493Y005555D01*
X004375Y002671D02*
X004875Y002671D01*
X005125Y002251D01*
X005125Y001751D01*
X004875Y001331D01*
X004375Y001331D01*
X004125Y001751D01*
X003875Y001331D01*
X003375Y001331D01*
X003125Y001751D01*
X002875Y001331D01*
X002375Y001331D01*
X002125Y001751D01*
X002125Y002251D01*
X002375Y002671D01*
X002875Y002671D01*
X003125Y002251D01*
X003375Y002671D01*
X003875Y002671D01*
X004125Y002251D01*
X004375Y002671D01*
X004125Y002251D02*
X004125Y001751D01*
X005115Y001778D02*
X005365Y001358D01*
X005865Y001358D01*
X006115Y001778D01*
X006365Y001358D01*
X006865Y001358D01*
X007115Y001778D01*
X007365Y001358D01*
X007865Y001358D01*
X008115Y001778D01*
X008365Y001358D01*
X008865Y001358D01*
X009115Y001778D01*
X009115Y002278D01*
X008865Y002698D01*
X008365Y002698D01*
X008115Y002278D01*
X008115Y001778D01*
X008115Y002278D02*
X007865Y002698D01*
X007365Y002698D01*
X007115Y002278D01*
X007115Y001778D01*
X007115Y002278D01*
X006865Y002698D01*
X006365Y002698D01*
X006115Y002278D01*
X006115Y001778D01*
X006115Y002278D02*
X005865Y002698D01*
X005365Y002698D01*
X005115Y002278D01*
X005115Y001778D01*
X003125Y001751D02*
X003125Y002251D01*
X001669Y002612D02*
X001669Y003412D01*
X001419Y003512D01*
X001669Y003612D01*
X001669Y004412D01*
X001419Y004512D01*
X000619Y004512D01*
X000369Y004412D01*
X000369Y003612D01*
X000619Y003512D01*
X000369Y003412D01*
X000369Y002612D01*
X000619Y002512D01*
X001419Y002512D01*
X001669Y002612D01*
X007908Y005388D02*
X008108Y005388D01*
X007908Y005388D02*
X007908Y005588D01*
X007908Y006088D02*
X007908Y006288D01*
X008108Y006288D01*
X008608Y006288D02*
X008808Y006288D01*
X008808Y006088D01*
X008908Y006088D02*
X008908Y006288D01*
X009108Y006288D01*
X009608Y006288D02*
X009808Y006288D01*
X009808Y006088D01*
X009808Y005588D02*
X009808Y005388D01*
X009608Y005388D01*
X009108Y005388D02*
X008908Y005388D01*
X008908Y005588D01*
X008808Y005588D02*
X008808Y005388D01*
X008608Y005388D01*
X014088Y005308D02*
X014088Y005388D01*
X018025Y005388D01*
X018025Y005308D01*
X018025Y001080D01*
X018025Y000230D01*
X014088Y000230D01*
X014088Y001080D01*
X014088Y005308D01*
X018025Y005308D01*
X018195Y004124D02*
X018195Y003924D01*
X018195Y004124D02*
X018395Y004124D01*
X018895Y004124D02*
X019095Y004124D01*
X019095Y003924D01*
X019095Y003424D02*
X019095Y003224D01*
X018895Y003224D01*
X018892Y002940D02*
X019092Y002940D01*
X019092Y002740D01*
X019092Y002240D02*
X019092Y002040D01*
X018892Y002040D01*
X018392Y002040D02*
X018192Y002040D01*
X018192Y002240D01*
X018192Y002740D02*
X018192Y002940D01*
X018392Y002940D01*
X018395Y003224D02*
X018195Y003224D01*
X018195Y003424D01*
X017529Y004094D02*
X017531Y004122D01*
X017537Y004149D01*
X017546Y004175D01*
X017559Y004200D01*
X017576Y004223D01*
X017595Y004243D01*
X017617Y004260D01*
X017641Y004274D01*
X017667Y004284D01*
X017694Y004291D01*
X017722Y004294D01*
X017750Y004293D01*
X017777Y004288D01*
X017804Y004279D01*
X017829Y004267D01*
X017852Y004252D01*
X017873Y004233D01*
X017891Y004212D01*
X017906Y004188D01*
X017917Y004162D01*
X017925Y004136D01*
X017929Y004108D01*
X017929Y004080D01*
X017925Y004052D01*
X017917Y004026D01*
X017906Y004000D01*
X017891Y003976D01*
X017873Y003955D01*
X017852Y003936D01*
X017829Y003921D01*
X017804Y003909D01*
X017777Y003900D01*
X017750Y003895D01*
X017722Y003894D01*
X017694Y003897D01*
X017667Y003904D01*
X017641Y003914D01*
X017617Y003928D01*
X017595Y003945D01*
X017576Y003965D01*
X017559Y003988D01*
X017546Y004013D01*
X017537Y004039D01*
X017531Y004066D01*
X017529Y004094D01*
X015561Y004094D02*
X015563Y004122D01*
X015569Y004149D01*
X015578Y004175D01*
X015591Y004200D01*
X015608Y004223D01*
X015627Y004243D01*
X015649Y004260D01*
X015673Y004274D01*
X015699Y004284D01*
X015726Y004291D01*
X015754Y004294D01*
X015782Y004293D01*
X015809Y004288D01*
X015836Y004279D01*
X015861Y004267D01*
X015884Y004252D01*
X015905Y004233D01*
X015923Y004212D01*
X015938Y004188D01*
X015949Y004162D01*
X015957Y004136D01*
X015961Y004108D01*
X015961Y004080D01*
X015957Y004052D01*
X015949Y004026D01*
X015938Y004000D01*
X015923Y003976D01*
X015905Y003955D01*
X015884Y003936D01*
X015861Y003921D01*
X015836Y003909D01*
X015809Y003900D01*
X015782Y003895D01*
X015754Y003894D01*
X015726Y003897D01*
X015699Y003904D01*
X015673Y003914D01*
X015649Y003928D01*
X015627Y003945D01*
X015608Y003965D01*
X015591Y003988D01*
X015578Y004013D01*
X015569Y004039D01*
X015563Y004066D01*
X015561Y004094D01*
X015422Y001080D02*
X016692Y001080D01*
X017392Y001080D02*
X018025Y001080D01*
X014722Y001080D02*
X014088Y001080D01*
X016742Y018820D02*
X016942Y018820D01*
X016742Y018820D02*
X016742Y019020D01*
X016742Y019520D02*
X016742Y019720D01*
X016942Y019720D01*
X017442Y019720D02*
X017642Y019720D01*
X017642Y019520D01*
X017642Y019020D02*
X017642Y018820D01*
X017442Y018820D01*
X009534Y019029D02*
X008899Y019029D01*
X008199Y019029D02*
X006929Y019029D01*
X006229Y019029D02*
X003628Y019029D01*
D15*
X005653Y009232D02*
X005653Y008812D01*
X005653Y009022D02*
X005022Y009022D01*
X005232Y008812D01*
X005127Y008588D02*
X005022Y008483D01*
X005022Y008272D01*
X005127Y008167D01*
X005548Y008167D01*
X005653Y008272D01*
X005653Y008483D01*
X005548Y008588D01*
X005653Y007948D02*
X005653Y007738D01*
X005653Y007843D02*
X005022Y007843D01*
X005022Y007738D02*
X005022Y007948D01*
D16*
X003869Y006729D02*
X004059Y006549D01*
X003879Y006289D01*
X003989Y006039D02*
X004289Y005979D01*
X004289Y005719D01*
X003989Y005669D01*
X003889Y005399D02*
X004059Y005159D01*
X003869Y004969D01*
X003629Y005139D01*
X003529Y005079D01*
X003339Y005529D01*
X003889Y005399D02*
X003912Y005440D01*
X003933Y005483D01*
X003951Y005528D01*
X003966Y005573D01*
X003979Y005619D01*
X003989Y005666D01*
X003988Y006039D02*
X003973Y006091D01*
X003954Y006142D01*
X003932Y006192D01*
X003907Y006240D01*
X003878Y006287D01*
X003609Y006549D02*
X003869Y006729D01*
X003359Y006649D02*
X003309Y006969D01*
X003039Y006969D01*
X002989Y006649D01*
X002739Y006549D02*
X002479Y006729D01*
X002289Y006549D01*
X002469Y006289D01*
X002359Y006039D02*
X002059Y005979D01*
X002059Y005719D01*
X002359Y005669D01*
X002459Y005399D02*
X002299Y005159D01*
X002479Y004969D01*
X002719Y005139D01*
X002819Y005079D01*
X003019Y005529D01*
X002463Y005401D02*
X002435Y005451D01*
X002411Y005503D01*
X002390Y005556D01*
X002373Y005611D01*
X002360Y005667D01*
X002742Y006552D02*
X002787Y006577D01*
X002834Y006600D01*
X002882Y006619D01*
X002931Y006636D01*
X002981Y006649D01*
X003019Y005539D02*
X002986Y005557D01*
X002956Y005578D01*
X002927Y005602D01*
X002901Y005629D01*
X002879Y005658D01*
X002859Y005690D01*
X002842Y005723D01*
X002829Y005758D01*
X002820Y005794D01*
X002814Y005831D01*
X002812Y005868D01*
X002814Y005905D01*
X002819Y005942D01*
X002829Y005978D01*
X002841Y006013D01*
X002858Y006047D01*
X002877Y006078D01*
X002900Y006108D01*
X002926Y006135D01*
X002954Y006159D01*
X002985Y006180D01*
X003017Y006198D01*
X003051Y006213D01*
X003087Y006224D01*
X003123Y006232D01*
X003160Y006236D01*
X003198Y006236D01*
X003235Y006232D01*
X003271Y006224D01*
X003307Y006213D01*
X003341Y006198D01*
X003373Y006180D01*
X003404Y006159D01*
X003432Y006135D01*
X003458Y006108D01*
X003481Y006078D01*
X003500Y006047D01*
X003517Y006013D01*
X003529Y005978D01*
X003539Y005942D01*
X003544Y005905D01*
X003546Y005868D01*
X003544Y005831D01*
X003538Y005794D01*
X003529Y005758D01*
X003516Y005723D01*
X003499Y005690D01*
X003479Y005658D01*
X003457Y005629D01*
X003431Y005602D01*
X003402Y005578D01*
X003372Y005557D01*
X003339Y005539D01*
X003613Y006550D02*
X003566Y006577D01*
X003517Y006600D01*
X003467Y006620D01*
X003416Y006637D01*
X003364Y006651D01*
X002470Y006284D02*
X002443Y006237D01*
X002419Y006190D01*
X002398Y006141D01*
X002380Y006090D01*
X002366Y006039D01*
M02*
