M48
;DRILL file {KiCad 5.0.0} date Thu May 30 17:21:13 2019
;FORMAT={-:-/ absolute / inch / decimal}
FMAT,2
INCH,TZ
T1C0.0157
T2C0.0197
T3C0.0394
%
G90
G05
M72
T1
X4.5Y-4.22
X4.5Y-4.3
X4.55Y-3.45
X4.55Y-3.6
X4.55Y-3.8
X4.55Y-3.9
X4.65Y-3.45
X4.65Y-3.6
X4.65Y-3.8
X4.65Y-3.9
X4.66Y-4.53
X4.71Y-4.61
X4.71Y-4.72
X4.725Y-4.325
X4.74Y-3.59
X4.84Y-4.56
X4.86Y-4.38
X4.8752Y-3.9939
X4.88Y-3.37
X4.89Y-3.92
X4.914Y-4.0088
X4.9266Y-3.9419
X4.97Y-4.295
X4.97Y-4.355
X4.976Y-4.026
X4.9798Y-3.9402
X5.0198Y-4.0498
X5.02Y-4.49
X5.04Y-3.91
X5.05Y-4.14
X5.06Y-4.05
X5.08Y-3.9
X5.1Y-4.05
X5.1Y-4.75
X5.1019Y-4.5806
X5.12Y-3.9
X5.1393Y-4.77
X5.1413Y-4.5806
X5.1787Y-4.7713
X5.1806Y-4.5806
X5.2Y-4.36
X5.22Y-4.58
X5.22Y-4.73
X5.3225Y-4.0614
X5.335Y-4.3
X5.35Y-4.83
X5.36Y-3.95
X5.51Y-4.66
X5.56Y-4.23
X5.6Y-3.95
X5.65Y-3.3
X5.75Y-4.66
X5.7698Y-3.5895
X5.77Y-3.36
X5.77Y-3.43
X5.77Y-3.52
X5.89Y-4.22
X5.94Y-4.66
X5.95Y-4.62
X5.98Y-4.25
X5.98Y-4.39
X6.0276Y-4.6143
X6.05Y-4.67
X6.15Y-3.45
X6.15Y-3.55
X6.15Y-3.75
X6.19Y-4.23
X6.19Y-4.33
X6.21Y-4.17
X6.21Y-4.64
X6.23Y-4.25
X6.23Y-4.33
X6.25Y-3.45
X6.25Y-3.55
X6.25Y-3.75
X6.27Y-4.25
X6.27Y-4.33
X6.41Y-4.64
X6.45Y-3.45
X6.45Y-3.55
X6.45Y-3.75
X6.55Y-3.45
X6.55Y-3.55
X6.55Y-3.75
X6.56Y-4.66
X6.57Y-4.8079
X6.61Y-4.61
X6.68Y-4.66
X6.7298Y-4.7868
T2
X5.0415Y-3.1693
T3
X5.5295Y-4.4626
X5.6295Y-4.4626
X5.7295Y-4.4626
X5.8295Y-4.4626
X5.9295Y-4.4626
X6.0295Y-4.4626
X6.1295Y-4.4626
X6.2295Y-4.4626
X6.3295Y-4.4626
X6.4295Y-4.4626
X6.5295Y-4.4626
X6.6295Y-4.4626
X4.7409Y-4.9746
X4.7409Y-5.0746
X4.8409Y-4.9746
X4.8409Y-5.0746
X4.9409Y-4.9746
X4.9409Y-5.0746
X5.0409Y-4.9746
X5.0409Y-5.0746
X5.1409Y-4.9746
X5.1409Y-5.0746
X5.2409Y-4.9746
X5.2409Y-5.0746
X5.3409Y-4.9746
X5.3409Y-5.0746
X5.4409Y-4.9746
X5.4409Y-5.0746
X5.5409Y-4.9746
X5.5409Y-5.0746
X5.6409Y-4.9746
X5.6409Y-5.0746
X5.7409Y-4.9746
X5.7409Y-5.0746
X5.8409Y-4.9746
X5.8409Y-5.0746
X5.9409Y-4.9746
X5.9409Y-5.0746
X6.0409Y-4.9746
X6.0409Y-5.0746
X6.1409Y-4.9746
X6.1409Y-5.0746
X6.2409Y-4.9746
X6.2409Y-5.0746
X6.3409Y-4.9746
X6.3409Y-5.0746
X6.4409Y-4.9746
X6.4409Y-5.0746
X6.5409Y-4.9746
X6.5409Y-5.0746
X6.6409Y-4.9746
X6.6409Y-5.0746
X6.12Y-3.95
X6.22Y-3.95
X6.32Y-3.95
X6.42Y-3.95
X6.52Y-3.95
X6.62Y-3.95
X5.78Y-3.88
X5.78Y-3.98
X5.78Y-4.08
X5.88Y-3.88
X5.88Y-3.98
X5.88Y-4.08
T0
M30
