G04 #@! TF.GenerationSoftware,KiCad,Pcbnew,5.0.0*
G04 #@! TF.CreationDate,2019-05-30T17:21:17+01:00*
G04 #@! TF.ProjectId,RRAT,525241542E6B696361645F7063620000,rev?*
G04 #@! TF.SameCoordinates,Original*
G04 #@! TF.FileFunction,Drawing*
%FSLAX46Y46*%
G04 Gerber Fmt 4.6, Leading zero omitted, Abs format (unit mm)*
G04 Created by KiCad (PCBNEW 5.0.0) date Thu May 30 17:21:17 2019*
%MOMM*%
%LPD*%
G01*
G04 APERTURE LIST*
%ADD10C,0.050800*%
G04 APERTURE END LIST*
D10*
G04 #@! TO.C,C4*
X117717000Y-108237000D02*
X117717000Y-110203000D01*
X114771000Y-108237000D02*
X117717000Y-108237000D01*
X114771000Y-110203000D02*
X114771000Y-108237000D01*
X117717000Y-110203000D02*
X114771000Y-110203000D01*
G04 #@! TO.C,C2*
X128741000Y-110965000D02*
X128741000Y-108999000D01*
X131687000Y-110965000D02*
X128741000Y-110965000D01*
X131687000Y-108999000D02*
X131687000Y-110965000D01*
X128741000Y-108999000D02*
X131687000Y-108999000D01*
G04 #@! TO.C,C3*
X117717000Y-108171000D02*
X114771000Y-108171000D01*
X114771000Y-108171000D02*
X114771000Y-106205000D01*
X114771000Y-106205000D02*
X117717000Y-106205000D01*
X117717000Y-106205000D02*
X117717000Y-108171000D01*
G04 #@! TO.C,C5*
X123994998Y-92245734D02*
X121048998Y-92245734D01*
X121048998Y-92245734D02*
X121048998Y-90279734D01*
X121048998Y-90279734D02*
X123994998Y-90279734D01*
X123994998Y-90279734D02*
X123994998Y-92245734D01*
G04 #@! TO.C,R4*
X147967000Y-88105000D02*
X147967000Y-86139000D01*
X150913000Y-88105000D02*
X147967000Y-88105000D01*
X150913000Y-86139000D02*
X150913000Y-88105000D01*
X147967000Y-86139000D02*
X150913000Y-86139000D01*
G04 #@! TO.C,R5*
X163543000Y-120027000D02*
X163543000Y-122973000D01*
X163543000Y-122973000D02*
X161577000Y-122973000D01*
X161577000Y-122973000D02*
X161577000Y-120027000D01*
X161577000Y-120027000D02*
X163543000Y-120027000D01*
G04 #@! TO.C,R15*
X149573000Y-120027000D02*
X149573000Y-122973000D01*
X149573000Y-122973000D02*
X147607000Y-122973000D01*
X147607000Y-122973000D02*
X147607000Y-120027000D01*
X147607000Y-120027000D02*
X149573000Y-120027000D01*
G04 #@! TO.C,C1*
X167927000Y-105613000D02*
X167927000Y-102667000D01*
X167927000Y-102667000D02*
X169893000Y-102667000D01*
X169893000Y-102667000D02*
X169893000Y-105613000D01*
X169893000Y-105613000D02*
X167927000Y-105613000D01*
G04 #@! TO.C,C7*
X143141000Y-90391000D02*
X143141000Y-88425000D01*
X146087000Y-90391000D02*
X143141000Y-90391000D01*
X146087000Y-88425000D02*
X146087000Y-90391000D01*
X143141000Y-88425000D02*
X146087000Y-88425000D01*
G04 #@! TO.C,C8*
X143141000Y-90203000D02*
X146087000Y-90203000D01*
X146087000Y-90203000D02*
X146087000Y-92169000D01*
X146087000Y-92169000D02*
X143141000Y-92169000D01*
X143141000Y-92169000D02*
X143141000Y-90203000D01*
G04 #@! TO.C,C9*
X143219000Y-86139000D02*
X146165000Y-86139000D01*
X146165000Y-86139000D02*
X146165000Y-88105000D01*
X146165000Y-88105000D02*
X143219000Y-88105000D01*
X143219000Y-88105000D02*
X143219000Y-86139000D01*
G04 #@! TO.C,C10*
X143141000Y-86307214D02*
X143141000Y-84341214D01*
X146087000Y-86307214D02*
X143141000Y-86307214D01*
X146087000Y-84341214D02*
X146087000Y-86307214D01*
X143141000Y-84341214D02*
X146087000Y-84341214D01*
G04 #@! TO.C,R1*
X165387000Y-105613000D02*
X165387000Y-102667000D01*
X165387000Y-102667000D02*
X167353000Y-102667000D01*
X167353000Y-102667000D02*
X167353000Y-105613000D01*
X167353000Y-105613000D02*
X165387000Y-105613000D01*
G04 #@! TO.C,R2*
X164051000Y-105613000D02*
X162085000Y-105613000D01*
X164051000Y-102667000D02*
X164051000Y-105613000D01*
X162085000Y-102667000D02*
X164051000Y-102667000D01*
X162085000Y-105613000D02*
X162085000Y-102667000D01*
G04 #@! TO.C,C11*
X131789000Y-102014000D02*
X134735000Y-102014000D01*
X134735000Y-102014000D02*
X134735000Y-103980000D01*
X134735000Y-103980000D02*
X131789000Y-103980000D01*
X131789000Y-103980000D02*
X131789000Y-102014000D01*
G04 #@! TO.C,C12*
X132092000Y-110203000D02*
X132092000Y-108237000D01*
X135038000Y-110203000D02*
X132092000Y-110203000D01*
X135038000Y-108237000D02*
X135038000Y-110203000D01*
X132092000Y-108237000D02*
X135038000Y-108237000D01*
G04 #@! TO.C,R9*
X147967000Y-84361000D02*
X150913000Y-84361000D01*
X150913000Y-84361000D02*
X150913000Y-86327000D01*
X150913000Y-86327000D02*
X147967000Y-86327000D01*
X147967000Y-86327000D02*
X147967000Y-84361000D01*
G04 #@! TO.C,R10*
X156939000Y-122973000D02*
X154973000Y-122973000D01*
X156939000Y-120027000D02*
X156939000Y-122973000D01*
X154973000Y-120027000D02*
X156939000Y-120027000D01*
X154973000Y-122973000D02*
X154973000Y-120027000D01*
G04 #@! TO.C,R12*
X160241000Y-122973000D02*
X158275000Y-122973000D01*
X160241000Y-120027000D02*
X160241000Y-122973000D01*
X158275000Y-120027000D02*
X160241000Y-120027000D01*
X158275000Y-122973000D02*
X158275000Y-120027000D01*
G04 #@! TO.C,R13*
X153383000Y-120027000D02*
X153383000Y-122973000D01*
X153383000Y-122973000D02*
X151417000Y-122973000D01*
X151417000Y-122973000D02*
X151417000Y-120027000D01*
X151417000Y-120027000D02*
X153383000Y-120027000D01*
G04 #@! TO.C,R14*
X141257000Y-120027000D02*
X143223000Y-120027000D01*
X141257000Y-122973000D02*
X141257000Y-120027000D01*
X143223000Y-122973000D02*
X141257000Y-122973000D01*
X143223000Y-120027000D02*
X143223000Y-122973000D01*
G04 #@! TO.C,R16*
X126779000Y-122719000D02*
X126779000Y-119773000D01*
X126779000Y-119773000D02*
X128745000Y-119773000D01*
X128745000Y-119773000D02*
X128745000Y-122719000D01*
X128745000Y-122719000D02*
X126779000Y-122719000D01*
G04 #@! TO.C,R17*
X120937000Y-122719000D02*
X120937000Y-119773000D01*
X120937000Y-119773000D02*
X122903000Y-119773000D01*
X122903000Y-119773000D02*
X122903000Y-122719000D01*
X122903000Y-122719000D02*
X120937000Y-122719000D01*
G04 #@! TO.C,R18*
X115603000Y-102247000D02*
X117569000Y-102247000D01*
X115603000Y-105193000D02*
X115603000Y-102247000D01*
X117569000Y-105193000D02*
X115603000Y-105193000D01*
X117569000Y-102247000D02*
X117569000Y-105193000D01*
G04 #@! TO.C,R3*
X158717000Y-102501000D02*
X158717000Y-105447000D01*
X158717000Y-105447000D02*
X156751000Y-105447000D01*
X156751000Y-105447000D02*
X156751000Y-102501000D01*
X156751000Y-102501000D02*
X158717000Y-102501000D01*
G04 #@! TO.C,C13*
X167437000Y-120363000D02*
X167437000Y-118397000D01*
X170383000Y-120363000D02*
X167437000Y-120363000D01*
X170383000Y-118397000D02*
X170383000Y-120363000D01*
X167437000Y-118397000D02*
X170383000Y-118397000D01*
G04 #@! TO.C,C14*
X170905000Y-121699000D02*
X173851000Y-121699000D01*
X173851000Y-121699000D02*
X173851000Y-123665000D01*
X173851000Y-123665000D02*
X170905000Y-123665000D01*
X170905000Y-123665000D02*
X170905000Y-121699000D01*
G04 #@! TD*
M02*
