G04 #@! TF.GenerationSoftware,KiCad,Pcbnew,5.0.0*
G04 #@! TF.CreationDate,2019-05-30T17:21:17+01:00*
G04 #@! TF.ProjectId,RRAT,525241542E6B696361645F7063620000,rev?*
G04 #@! TF.SameCoordinates,Original*
G04 #@! TF.FileFunction,Soldermask,Bot*
G04 #@! TF.FilePolarity,Negative*
%FSLAX46Y46*%
G04 Gerber Fmt 4.6, Leading zero omitted, Abs format (unit mm)*
G04 Created by KiCad (PCBNEW 5.0.0) date Thu May 30 17:21:17 2019*
%MOMM*%
%LPD*%
G01*
G04 APERTURE LIST*
%ADD10R,2.100000X2.100000*%
%ADD11O,2.100000X2.100000*%
%ADD12C,3.100000*%
G04 APERTURE END LIST*
D10*
G04 #@! TO.C,J3*
X168680000Y-126355000D03*
D11*
X168680000Y-128895000D03*
X166140000Y-126355000D03*
X166140000Y-128895000D03*
X163600000Y-126355000D03*
X163600000Y-128895000D03*
X161060000Y-126355000D03*
X161060000Y-128895000D03*
X158520000Y-126355000D03*
X158520000Y-128895000D03*
X155980000Y-126355000D03*
X155980000Y-128895000D03*
X153440000Y-126355000D03*
X153440000Y-128895000D03*
X150900000Y-126355000D03*
X150900000Y-128895000D03*
X148360000Y-126355000D03*
X148360000Y-128895000D03*
X145820000Y-126355000D03*
X145820000Y-128895000D03*
X143280000Y-126355000D03*
X143280000Y-128895000D03*
X140740000Y-126355000D03*
X140740000Y-128895000D03*
X138200000Y-126355000D03*
X138200000Y-128895000D03*
X135660000Y-126355000D03*
X135660000Y-128895000D03*
X133120000Y-126355000D03*
X133120000Y-128895000D03*
X130580000Y-126355000D03*
X130580000Y-128895000D03*
X128040000Y-126355000D03*
X128040000Y-128895000D03*
X125500000Y-126355000D03*
X125500000Y-128895000D03*
X122960000Y-126355000D03*
X122960000Y-128895000D03*
X120420000Y-126355000D03*
X120420000Y-128895000D03*
G04 #@! TD*
D12*
G04 #@! TO.C,REF\002A\002A*
X173550000Y-78650000D03*
G04 #@! TD*
G04 #@! TO.C,REF\002A\002A*
X115550000Y-78650000D03*
G04 #@! TD*
G04 #@! TO.C,REF\002A\002A*
X173550000Y-127650000D03*
G04 #@! TD*
D10*
G04 #@! TO.C,J1*
X155448000Y-100330000D03*
D11*
X157988000Y-100330000D03*
X160528000Y-100330000D03*
X163068000Y-100330000D03*
X165608000Y-100330000D03*
X168148000Y-100330000D03*
G04 #@! TD*
D10*
G04 #@! TO.C,J4*
X140448798Y-113349634D03*
D11*
X142988798Y-113349634D03*
X145528798Y-113349634D03*
X148068798Y-113349634D03*
X150608798Y-113349634D03*
X153148798Y-113349634D03*
X155688798Y-113349634D03*
X158228798Y-113349634D03*
X160768798Y-113349634D03*
X163308798Y-113349634D03*
X165848798Y-113349634D03*
X168388798Y-113349634D03*
G04 #@! TD*
D10*
G04 #@! TO.C,J2*
X149352000Y-103632000D03*
D11*
X146812000Y-103632000D03*
X149352000Y-101092000D03*
X146812000Y-101092000D03*
X149352000Y-98552000D03*
X146812000Y-98552000D03*
G04 #@! TD*
D12*
G04 #@! TO.C,REF\002A\002A*
X115550000Y-127650000D03*
G04 #@! TD*
M02*
