G04 #@! TF.GenerationSoftware,KiCad,Pcbnew,5.0.0*
G04 #@! TF.CreationDate,2019-05-30T17:21:17+01:00*
G04 #@! TF.ProjectId,RRAT,525241542E6B696361645F7063620000,rev?*
G04 #@! TF.SameCoordinates,Original*
G04 #@! TF.FileFunction,Legend,Top*
G04 #@! TF.FilePolarity,Positive*
%FSLAX46Y46*%
G04 Gerber Fmt 4.6, Leading zero omitted, Abs format (unit mm)*
G04 Created by KiCad (PCBNEW 5.0.0) date Thu May 30 17:21:17 2019*
%MOMM*%
%LPD*%
G01*
G04 APERTURE LIST*
%ADD10C,0.080000*%
%ADD11C,0.150000*%
%ADD12C,0.250000*%
%ADD13C,0.120000*%
%ADD14C,0.152400*%
%ADD15C,0.203200*%
%ADD16C,0.127000*%
%ADD17C,0.076000*%
G04 APERTURE END LIST*
D10*
X140655931Y-116690729D02*
X140655931Y-116238348D01*
X140927359Y-116781205D02*
X139977359Y-116464538D01*
X140927359Y-116147872D01*
X140927359Y-115333586D02*
X140927359Y-115876443D01*
X140927359Y-115605014D02*
X139977359Y-115605014D01*
X140113074Y-115695491D01*
X140203550Y-115785967D01*
X140248788Y-115876443D01*
X157908571Y-119681219D02*
X157908571Y-119895505D01*
X157458571Y-119895505D01*
X157672857Y-119531219D02*
X157672857Y-119381219D01*
X157908571Y-119316934D02*
X157908571Y-119531219D01*
X157458571Y-119531219D01*
X157458571Y-119316934D01*
X157908571Y-119124076D02*
X157458571Y-119124076D01*
X157458571Y-119016934D01*
X157480000Y-118952648D01*
X157522857Y-118909791D01*
X157565714Y-118888362D01*
X157651428Y-118866934D01*
X157715714Y-118866934D01*
X157801428Y-118888362D01*
X157844285Y-118909791D01*
X157887142Y-118952648D01*
X157908571Y-119016934D01*
X157908571Y-119124076D01*
X157951428Y-118781219D02*
X157951428Y-118438362D01*
X157908571Y-118331219D02*
X157458571Y-118331219D01*
X157672857Y-118331219D02*
X157672857Y-118074076D01*
X157908571Y-118074076D02*
X157458571Y-118074076D01*
X157672857Y-117859791D02*
X157672857Y-117709791D01*
X157908571Y-117645505D02*
X157908571Y-117859791D01*
X157458571Y-117859791D01*
X157458571Y-117645505D01*
X157780000Y-117474076D02*
X157780000Y-117259791D01*
X157908571Y-117516934D02*
X157458571Y-117366934D01*
X157908571Y-117216934D01*
X157458571Y-117131219D02*
X157458571Y-116874076D01*
X157908571Y-117002648D02*
X157458571Y-117002648D01*
X157865714Y-116466934D02*
X157887142Y-116488362D01*
X157908571Y-116552648D01*
X157908571Y-116595505D01*
X157887142Y-116659791D01*
X157844285Y-116702648D01*
X157801428Y-116724076D01*
X157715714Y-116745505D01*
X157651428Y-116745505D01*
X157565714Y-116724076D01*
X157522857Y-116702648D01*
X157480000Y-116659791D01*
X157458571Y-116595505D01*
X157458571Y-116552648D01*
X157480000Y-116488362D01*
X157501428Y-116466934D01*
X157780000Y-116295505D02*
X157780000Y-116081219D01*
X157908571Y-116338362D02*
X157458571Y-116188362D01*
X157908571Y-116038362D01*
X157908571Y-115674076D02*
X157908571Y-115888362D01*
X157458571Y-115888362D01*
X157908571Y-115309791D02*
X157908571Y-115524076D01*
X157458571Y-115524076D01*
D11*
X128524000Y-79756000D02*
X128948198Y-78334134D01*
X129286000Y-80518000D02*
X127601998Y-79210434D01*
D12*
X129868064Y-78691276D02*
X129820445Y-78738895D01*
X129677588Y-78786514D01*
X129582350Y-78786514D01*
X129439493Y-78738895D01*
X129344255Y-78643657D01*
X129296636Y-78548419D01*
X129249017Y-78357943D01*
X129249017Y-78215086D01*
X129296636Y-78024610D01*
X129344255Y-77929372D01*
X129439493Y-77834134D01*
X129582350Y-77786514D01*
X129677588Y-77786514D01*
X129820445Y-77834134D01*
X129868064Y-77881753D01*
X130725207Y-78119848D02*
X130725207Y-78786514D01*
X130296636Y-78119848D02*
X130296636Y-78643657D01*
X130344255Y-78738895D01*
X130439493Y-78786514D01*
X130582350Y-78786514D01*
X130677588Y-78738895D01*
X130725207Y-78691276D01*
X131058540Y-78119848D02*
X131439493Y-78119848D01*
X131201398Y-77786514D02*
X131201398Y-78643657D01*
X131249017Y-78738895D01*
X131344255Y-78786514D01*
X131439493Y-78786514D01*
X132534731Y-78786514D02*
X132534731Y-77786514D01*
X132963302Y-78786514D02*
X132963302Y-78262705D01*
X132915683Y-78167467D01*
X132820445Y-78119848D01*
X132677588Y-78119848D01*
X132582350Y-78167467D01*
X132534731Y-78215086D01*
X133820445Y-78738895D02*
X133725207Y-78786514D01*
X133534731Y-78786514D01*
X133439493Y-78738895D01*
X133391874Y-78643657D01*
X133391874Y-78262705D01*
X133439493Y-78167467D01*
X133534731Y-78119848D01*
X133725207Y-78119848D01*
X133820445Y-78167467D01*
X133868064Y-78262705D01*
X133868064Y-78357943D01*
X133391874Y-78453181D01*
X134296636Y-78786514D02*
X134296636Y-78119848D01*
X134296636Y-78310324D02*
X134344255Y-78215086D01*
X134391874Y-78167467D01*
X134487112Y-78119848D01*
X134582350Y-78119848D01*
X135296636Y-78738895D02*
X135201398Y-78786514D01*
X135010921Y-78786514D01*
X134915683Y-78738895D01*
X134868064Y-78643657D01*
X134868064Y-78262705D01*
X134915683Y-78167467D01*
X135010921Y-78119848D01*
X135201398Y-78119848D01*
X135296636Y-78167467D01*
X135344255Y-78262705D01*
X135344255Y-78357943D01*
X134868064Y-78453181D01*
X136534731Y-78786514D02*
X136534731Y-78119848D01*
X136534731Y-77786514D02*
X136487112Y-77834134D01*
X136534731Y-77881753D01*
X136582350Y-77834134D01*
X136534731Y-77786514D01*
X136534731Y-77881753D01*
X136868064Y-78119848D02*
X137249017Y-78119848D01*
X137010921Y-78786514D02*
X137010921Y-77929372D01*
X137058540Y-77834134D01*
X137153778Y-77786514D01*
X137249017Y-77786514D01*
X138772826Y-78119848D02*
X138772826Y-78786514D01*
X138344255Y-78119848D02*
X138344255Y-78643657D01*
X138391874Y-78738895D01*
X138487112Y-78786514D01*
X138629969Y-78786514D01*
X138725207Y-78738895D01*
X138772826Y-78691276D01*
X139201398Y-78738895D02*
X139296636Y-78786514D01*
X139487112Y-78786514D01*
X139582350Y-78738895D01*
X139629969Y-78643657D01*
X139629969Y-78596038D01*
X139582350Y-78500800D01*
X139487112Y-78453181D01*
X139344255Y-78453181D01*
X139249017Y-78405562D01*
X139201398Y-78310324D01*
X139201398Y-78262705D01*
X139249017Y-78167467D01*
X139344255Y-78119848D01*
X139487112Y-78119848D01*
X139582350Y-78167467D01*
X140058540Y-78786514D02*
X140058540Y-78119848D01*
X140058540Y-77786514D02*
X140010921Y-77834134D01*
X140058540Y-77881753D01*
X140106159Y-77834134D01*
X140058540Y-77786514D01*
X140058540Y-77881753D01*
X140534731Y-78119848D02*
X140534731Y-78786514D01*
X140534731Y-78215086D02*
X140582350Y-78167467D01*
X140677588Y-78119848D01*
X140820445Y-78119848D01*
X140915683Y-78167467D01*
X140963302Y-78262705D01*
X140963302Y-78786514D01*
X141868064Y-78119848D02*
X141868064Y-78929372D01*
X141820445Y-79024610D01*
X141772826Y-79072229D01*
X141677588Y-79119848D01*
X141534731Y-79119848D01*
X141439493Y-79072229D01*
X141868064Y-78738895D02*
X141772826Y-78786514D01*
X141582350Y-78786514D01*
X141487112Y-78738895D01*
X141439493Y-78691276D01*
X141391874Y-78596038D01*
X141391874Y-78310324D01*
X141439493Y-78215086D01*
X141487112Y-78167467D01*
X141582350Y-78119848D01*
X141772826Y-78119848D01*
X141868064Y-78167467D01*
X143010921Y-78119848D02*
X143201398Y-78786514D01*
X143391874Y-78310324D01*
X143582350Y-78786514D01*
X143772826Y-78119848D01*
X144153778Y-78786514D02*
X144153778Y-78119848D01*
X144153778Y-77786514D02*
X144106159Y-77834134D01*
X144153778Y-77881753D01*
X144201398Y-77834134D01*
X144153778Y-77786514D01*
X144153778Y-77881753D01*
X144629969Y-78786514D02*
X144629969Y-78119848D01*
X144629969Y-78310324D02*
X144677588Y-78215086D01*
X144725207Y-78167467D01*
X144820445Y-78119848D01*
X144915683Y-78119848D01*
X145629969Y-78738895D02*
X145534731Y-78786514D01*
X145344255Y-78786514D01*
X145249017Y-78738895D01*
X145201398Y-78643657D01*
X145201398Y-78262705D01*
X145249017Y-78167467D01*
X145344255Y-78119848D01*
X145534731Y-78119848D01*
X145629969Y-78167467D01*
X145677588Y-78262705D01*
X145677588Y-78357943D01*
X145201398Y-78453181D01*
X146772826Y-78119848D02*
X146963302Y-78786514D01*
X147153778Y-78310324D01*
X147344255Y-78786514D01*
X147534731Y-78119848D01*
X147915683Y-78786514D02*
X147915683Y-77786514D01*
X148344255Y-78786514D02*
X148344255Y-78262705D01*
X148296636Y-78167467D01*
X148201398Y-78119848D01*
X148058540Y-78119848D01*
X147963302Y-78167467D01*
X147915683Y-78215086D01*
X148820445Y-78786514D02*
X148820445Y-78119848D01*
X148820445Y-77786514D02*
X148772826Y-77834134D01*
X148820445Y-77881753D01*
X148868064Y-77834134D01*
X148820445Y-77786514D01*
X148820445Y-77881753D01*
X149296636Y-78119848D02*
X149296636Y-79119848D01*
X149296636Y-78167467D02*
X149391874Y-78119848D01*
X149582350Y-78119848D01*
X149677588Y-78167467D01*
X149725207Y-78215086D01*
X149772826Y-78310324D01*
X149772826Y-78596038D01*
X149725207Y-78691276D01*
X149677588Y-78738895D01*
X149582350Y-78786514D01*
X149391874Y-78786514D01*
X149296636Y-78738895D01*
X151391874Y-78786514D02*
X151391874Y-78262705D01*
X151344255Y-78167467D01*
X151249017Y-78119848D01*
X151058540Y-78119848D01*
X150963302Y-78167467D01*
X151391874Y-78738895D02*
X151296636Y-78786514D01*
X151058540Y-78786514D01*
X150963302Y-78738895D01*
X150915683Y-78643657D01*
X150915683Y-78548419D01*
X150963302Y-78453181D01*
X151058540Y-78405562D01*
X151296636Y-78405562D01*
X151391874Y-78357943D01*
X151868064Y-78119848D02*
X151868064Y-78786514D01*
X151868064Y-78215086D02*
X151915683Y-78167467D01*
X152010921Y-78119848D01*
X152153778Y-78119848D01*
X152249017Y-78167467D01*
X152296636Y-78262705D01*
X152296636Y-78786514D01*
X152629969Y-78119848D02*
X153010921Y-78119848D01*
X152772826Y-77786514D02*
X152772826Y-78643657D01*
X152820445Y-78738895D01*
X152915683Y-78786514D01*
X153010921Y-78786514D01*
X153725207Y-78738895D02*
X153629969Y-78786514D01*
X153439493Y-78786514D01*
X153344255Y-78738895D01*
X153296636Y-78643657D01*
X153296636Y-78262705D01*
X153344255Y-78167467D01*
X153439493Y-78119848D01*
X153629969Y-78119848D01*
X153725207Y-78167467D01*
X153772826Y-78262705D01*
X153772826Y-78357943D01*
X153296636Y-78453181D01*
X154201398Y-78119848D02*
X154201398Y-78786514D01*
X154201398Y-78215086D02*
X154249017Y-78167467D01*
X154344255Y-78119848D01*
X154487112Y-78119848D01*
X154582350Y-78167467D01*
X154629969Y-78262705D01*
X154629969Y-78786514D01*
X155106159Y-78119848D02*
X155106159Y-78786514D01*
X155106159Y-78215086D02*
X155153778Y-78167467D01*
X155249017Y-78119848D01*
X155391874Y-78119848D01*
X155487112Y-78167467D01*
X155534731Y-78262705D01*
X155534731Y-78786514D01*
X156439493Y-78786514D02*
X156439493Y-78262705D01*
X156391874Y-78167467D01*
X156296636Y-78119848D01*
X156106159Y-78119848D01*
X156010921Y-78167467D01*
X156439493Y-78738895D02*
X156344255Y-78786514D01*
X156106159Y-78786514D01*
X156010921Y-78738895D01*
X155963302Y-78643657D01*
X155963302Y-78548419D01*
X156010921Y-78453181D01*
X156106159Y-78405562D01*
X156344255Y-78405562D01*
X156439493Y-78357943D01*
X157963302Y-79167467D02*
X157915683Y-79119848D01*
X157820445Y-78976991D01*
X157772826Y-78881753D01*
X157725207Y-78738895D01*
X157677588Y-78500800D01*
X157677588Y-78310324D01*
X157725207Y-78072229D01*
X157772826Y-77929372D01*
X157820445Y-77834134D01*
X157915683Y-77691276D01*
X157963302Y-77643657D01*
X158487112Y-78215086D02*
X158391874Y-78167467D01*
X158344255Y-78119848D01*
X158296636Y-78024610D01*
X158296636Y-77976991D01*
X158344255Y-77881753D01*
X158391874Y-77834134D01*
X158487112Y-77786514D01*
X158677588Y-77786514D01*
X158772826Y-77834134D01*
X158820445Y-77881753D01*
X158868064Y-77976991D01*
X158868064Y-78024610D01*
X158820445Y-78119848D01*
X158772826Y-78167467D01*
X158677588Y-78215086D01*
X158487112Y-78215086D01*
X158391874Y-78262705D01*
X158344255Y-78310324D01*
X158296636Y-78405562D01*
X158296636Y-78596038D01*
X158344255Y-78691276D01*
X158391874Y-78738895D01*
X158487112Y-78786514D01*
X158677588Y-78786514D01*
X158772826Y-78738895D01*
X158820445Y-78691276D01*
X158868064Y-78596038D01*
X158868064Y-78405562D01*
X158820445Y-78310324D01*
X158772826Y-78262705D01*
X158677588Y-78215086D01*
X159725207Y-77786514D02*
X159534731Y-77786514D01*
X159439493Y-77834134D01*
X159391874Y-77881753D01*
X159296636Y-78024610D01*
X159249017Y-78215086D01*
X159249017Y-78596038D01*
X159296636Y-78691276D01*
X159344255Y-78738895D01*
X159439493Y-78786514D01*
X159629969Y-78786514D01*
X159725207Y-78738895D01*
X159772826Y-78691276D01*
X159820445Y-78596038D01*
X159820445Y-78357943D01*
X159772826Y-78262705D01*
X159725207Y-78215086D01*
X159629969Y-78167467D01*
X159439493Y-78167467D01*
X159344255Y-78215086D01*
X159296636Y-78262705D01*
X159249017Y-78357943D01*
X160249017Y-78786514D02*
X160249017Y-78119848D01*
X160249017Y-78215086D02*
X160296636Y-78167467D01*
X160391874Y-78119848D01*
X160534731Y-78119848D01*
X160629969Y-78167467D01*
X160677588Y-78262705D01*
X160677588Y-78786514D01*
X160677588Y-78262705D02*
X160725207Y-78167467D01*
X160820445Y-78119848D01*
X160963302Y-78119848D01*
X161058540Y-78167467D01*
X161106159Y-78262705D01*
X161106159Y-78786514D01*
X161582350Y-78786514D02*
X161582350Y-78119848D01*
X161582350Y-78215086D02*
X161629969Y-78167467D01*
X161725207Y-78119848D01*
X161868064Y-78119848D01*
X161963302Y-78167467D01*
X162010921Y-78262705D01*
X162010921Y-78786514D01*
X162010921Y-78262705D02*
X162058540Y-78167467D01*
X162153778Y-78119848D01*
X162296636Y-78119848D01*
X162391874Y-78167467D01*
X162439493Y-78262705D01*
X162439493Y-78786514D01*
X163820445Y-78786514D02*
X163725207Y-78738895D01*
X163677588Y-78643657D01*
X163677588Y-77786514D01*
X164344255Y-78786514D02*
X164249017Y-78738895D01*
X164201397Y-78691276D01*
X164153778Y-78596038D01*
X164153778Y-78310324D01*
X164201397Y-78215086D01*
X164249017Y-78167467D01*
X164344255Y-78119848D01*
X164487112Y-78119848D01*
X164582350Y-78167467D01*
X164629969Y-78215086D01*
X164677588Y-78310324D01*
X164677588Y-78596038D01*
X164629969Y-78691276D01*
X164582350Y-78738895D01*
X164487112Y-78786514D01*
X164344255Y-78786514D01*
X165106159Y-78119848D02*
X165106159Y-78786514D01*
X165106159Y-78215086D02*
X165153778Y-78167467D01*
X165249017Y-78119848D01*
X165391874Y-78119848D01*
X165487112Y-78167467D01*
X165534731Y-78262705D01*
X165534731Y-78786514D01*
X166439493Y-78119848D02*
X166439493Y-78929372D01*
X166391874Y-79024610D01*
X166344255Y-79072229D01*
X166249017Y-79119848D01*
X166106159Y-79119848D01*
X166010921Y-79072229D01*
X166439493Y-78738895D02*
X166344255Y-78786514D01*
X166153778Y-78786514D01*
X166058540Y-78738895D01*
X166010921Y-78691276D01*
X165963302Y-78596038D01*
X165963302Y-78310324D01*
X166010921Y-78215086D01*
X166058540Y-78167467D01*
X166153778Y-78119848D01*
X166344255Y-78119848D01*
X166439493Y-78167467D01*
X166820445Y-79167467D02*
X166868064Y-79119848D01*
X166963302Y-78976991D01*
X167010921Y-78881753D01*
X167058540Y-78738895D01*
X167106159Y-78500800D01*
X167106159Y-78310324D01*
X167058540Y-78072229D01*
X167010921Y-77929372D01*
X166963302Y-77834134D01*
X166868064Y-77691276D01*
X166820445Y-77643657D01*
D10*
X144400000Y-99314000D02*
X144466666Y-99347333D01*
X144566666Y-99347333D01*
X144666666Y-99314000D01*
X144733333Y-99247333D01*
X144766666Y-99180666D01*
X144800000Y-99047333D01*
X144800000Y-98947333D01*
X144766666Y-98814000D01*
X144733333Y-98747333D01*
X144666666Y-98680666D01*
X144566666Y-98647333D01*
X144500000Y-98647333D01*
X144400000Y-98680666D01*
X144366666Y-98714000D01*
X144366666Y-98947333D01*
X144500000Y-98947333D01*
X144066666Y-98647333D02*
X144066666Y-99347333D01*
X143666666Y-98647333D01*
X143666666Y-99347333D01*
X143333333Y-98647333D02*
X143333333Y-99347333D01*
X143166666Y-99347333D01*
X143066666Y-99314000D01*
X143000000Y-99247333D01*
X142966666Y-99180666D01*
X142933333Y-99047333D01*
X142933333Y-98947333D01*
X142966666Y-98814000D01*
X143000000Y-98747333D01*
X143066666Y-98680666D01*
X143166666Y-98647333D01*
X143333333Y-98647333D01*
X154964571Y-96885238D02*
X155281238Y-97337619D01*
X155507428Y-96885238D02*
X155507428Y-97835238D01*
X155145523Y-97835238D01*
X155055047Y-97790000D01*
X155009809Y-97744761D01*
X154964571Y-97654285D01*
X154964571Y-97518571D01*
X155009809Y-97428095D01*
X155055047Y-97382857D01*
X155145523Y-97337619D01*
X155507428Y-97337619D01*
X154557428Y-97382857D02*
X154240761Y-97382857D01*
X154105047Y-96885238D02*
X154557428Y-96885238D01*
X154557428Y-97835238D01*
X154105047Y-97835238D01*
X153743142Y-96930476D02*
X153607428Y-96885238D01*
X153381238Y-96885238D01*
X153290761Y-96930476D01*
X153245523Y-96975714D01*
X153200285Y-97066190D01*
X153200285Y-97156666D01*
X153245523Y-97247142D01*
X153290761Y-97292380D01*
X153381238Y-97337619D01*
X153562190Y-97382857D01*
X153652666Y-97428095D01*
X153697904Y-97473333D01*
X153743142Y-97563809D01*
X153743142Y-97654285D01*
X153697904Y-97744761D01*
X153652666Y-97790000D01*
X153562190Y-97835238D01*
X153336000Y-97835238D01*
X153200285Y-97790000D01*
X152793142Y-97382857D02*
X152476476Y-97382857D01*
X152340761Y-96885238D02*
X152793142Y-96885238D01*
X152793142Y-97835238D01*
X152340761Y-97835238D01*
X152069333Y-97835238D02*
X151526476Y-97835238D01*
X151797904Y-96885238D02*
X151797904Y-97835238D01*
X153297809Y-100740476D02*
X153162095Y-100695238D01*
X152935904Y-100695238D01*
X152845428Y-100740476D01*
X152800190Y-100785714D01*
X152754952Y-100876190D01*
X152754952Y-100966666D01*
X152800190Y-101057142D01*
X152845428Y-101102380D01*
X152935904Y-101147619D01*
X153116857Y-101192857D01*
X153207333Y-101238095D01*
X153252571Y-101283333D01*
X153297809Y-101373809D01*
X153297809Y-101464285D01*
X153252571Y-101554761D01*
X153207333Y-101600000D01*
X153116857Y-101645238D01*
X152890666Y-101645238D01*
X152754952Y-101600000D01*
X151804952Y-100785714D02*
X151850190Y-100740476D01*
X151985904Y-100695238D01*
X152076380Y-100695238D01*
X152212095Y-100740476D01*
X152302571Y-100830952D01*
X152347809Y-100921428D01*
X152393047Y-101102380D01*
X152393047Y-101238095D01*
X152347809Y-101419047D01*
X152302571Y-101509523D01*
X152212095Y-101600000D01*
X152076380Y-101645238D01*
X151985904Y-101645238D01*
X151850190Y-101600000D01*
X151804952Y-101554761D01*
X151397809Y-100695238D02*
X151397809Y-101645238D01*
X150854952Y-100695238D02*
X151262095Y-101238095D01*
X150854952Y-101645238D02*
X151397809Y-101102380D01*
X154647904Y-103235238D02*
X154647904Y-104185238D01*
X154331238Y-103506666D01*
X154014571Y-104185238D01*
X154014571Y-103235238D01*
X153562190Y-103235238D02*
X153562190Y-104185238D01*
X153155047Y-103280476D02*
X153019333Y-103235238D01*
X152793142Y-103235238D01*
X152702666Y-103280476D01*
X152657428Y-103325714D01*
X152612190Y-103416190D01*
X152612190Y-103506666D01*
X152657428Y-103597142D01*
X152702666Y-103642380D01*
X152793142Y-103687619D01*
X152974095Y-103732857D01*
X153064571Y-103778095D01*
X153109809Y-103823333D01*
X153155047Y-103913809D01*
X153155047Y-104004285D01*
X153109809Y-104094761D01*
X153064571Y-104140000D01*
X152974095Y-104185238D01*
X152747904Y-104185238D01*
X152612190Y-104140000D01*
X152024095Y-104185238D02*
X151843142Y-104185238D01*
X151752666Y-104140000D01*
X151662190Y-104049523D01*
X151616952Y-103868571D01*
X151616952Y-103551904D01*
X151662190Y-103370952D01*
X151752666Y-103280476D01*
X151843142Y-103235238D01*
X152024095Y-103235238D01*
X152114571Y-103280476D01*
X152205047Y-103370952D01*
X152250285Y-103551904D01*
X152250285Y-103868571D01*
X152205047Y-104049523D01*
X152114571Y-104140000D01*
X152024095Y-104185238D01*
X144660380Y-100711047D02*
X144660380Y-101111047D01*
X144527047Y-100825333D01*
X144393714Y-101111047D01*
X144393714Y-100711047D01*
X144127047Y-101111047D02*
X144050857Y-101111047D01*
X144012761Y-101092000D01*
X143974666Y-101053904D01*
X143955619Y-100977714D01*
X143955619Y-100844380D01*
X143974666Y-100768190D01*
X144012761Y-100730095D01*
X144050857Y-100711047D01*
X144127047Y-100711047D01*
X144165142Y-100730095D01*
X144203238Y-100768190D01*
X144222285Y-100844380D01*
X144222285Y-100977714D01*
X144203238Y-101053904D01*
X144165142Y-101092000D01*
X144127047Y-101111047D01*
X143803238Y-100730095D02*
X143746095Y-100711047D01*
X143650857Y-100711047D01*
X143612761Y-100730095D01*
X143593714Y-100749142D01*
X143574666Y-100787238D01*
X143574666Y-100825333D01*
X143593714Y-100863428D01*
X143612761Y-100882476D01*
X143650857Y-100901523D01*
X143727047Y-100920571D01*
X143765142Y-100939619D01*
X143784190Y-100958666D01*
X143803238Y-100996761D01*
X143803238Y-101034857D01*
X143784190Y-101072952D01*
X143765142Y-101092000D01*
X143727047Y-101111047D01*
X143631809Y-101111047D01*
X143574666Y-101092000D01*
X143403238Y-100711047D02*
X143403238Y-101111047D01*
X143221331Y-116855829D02*
X143221331Y-116403448D01*
X143492759Y-116946305D02*
X142542759Y-116629638D01*
X143492759Y-116312972D01*
X142633236Y-116041543D02*
X142587998Y-115996305D01*
X142542759Y-115905829D01*
X142542759Y-115679638D01*
X142587998Y-115589162D01*
X142633236Y-115543924D01*
X142723712Y-115498686D01*
X142814188Y-115498686D01*
X142949902Y-115543924D01*
X143492759Y-116086781D01*
X143492759Y-115498686D01*
X145608931Y-116855829D02*
X145608931Y-116403448D01*
X145880359Y-116946305D02*
X144930359Y-116629638D01*
X145880359Y-116312972D01*
X144930359Y-116086781D02*
X144930359Y-115498686D01*
X145292264Y-115815353D01*
X145292264Y-115679638D01*
X145337502Y-115589162D01*
X145382740Y-115543924D01*
X145473217Y-115498686D01*
X145699407Y-115498686D01*
X145789883Y-115543924D01*
X145835121Y-115589162D01*
X145880359Y-115679638D01*
X145880359Y-115951067D01*
X145835121Y-116041543D01*
X145789883Y-116086781D01*
X150688931Y-116855829D02*
X150688931Y-116403448D01*
X150960359Y-116946305D02*
X150010359Y-116629638D01*
X150960359Y-116312972D01*
X150010359Y-116086781D02*
X150010359Y-115453448D01*
X150960359Y-115860591D01*
X148136231Y-116855829D02*
X148136231Y-116403448D01*
X148407659Y-116946305D02*
X147457659Y-116629638D01*
X148407659Y-116312972D01*
X147457659Y-115589162D02*
X147457659Y-115770114D01*
X147502898Y-115860591D01*
X147548136Y-115905829D01*
X147683850Y-115996305D01*
X147864802Y-116041543D01*
X148226707Y-116041543D01*
X148317183Y-115996305D01*
X148362421Y-115951067D01*
X148407659Y-115860591D01*
X148407659Y-115679638D01*
X148362421Y-115589162D01*
X148317183Y-115543924D01*
X148226707Y-115498686D01*
X148000517Y-115498686D01*
X147910040Y-115543924D01*
X147864802Y-115589162D01*
X147819564Y-115679638D01*
X147819564Y-115860591D01*
X147864802Y-115951067D01*
X147910040Y-115996305D01*
X148000517Y-116041543D01*
X153474959Y-116946305D02*
X152524959Y-116946305D01*
X152524959Y-116720114D01*
X152570198Y-116584400D01*
X152660674Y-116493924D01*
X152751150Y-116448686D01*
X152932102Y-116403448D01*
X153067817Y-116403448D01*
X153248769Y-116448686D01*
X153339245Y-116493924D01*
X153429721Y-116584400D01*
X153474959Y-116720114D01*
X153474959Y-116946305D01*
X152524959Y-116086781D02*
X152524959Y-115498686D01*
X152886864Y-115815353D01*
X152886864Y-115679638D01*
X152932102Y-115589162D01*
X152977340Y-115543924D01*
X153067817Y-115498686D01*
X153294007Y-115498686D01*
X153384483Y-115543924D01*
X153429721Y-115589162D01*
X153474959Y-115679638D01*
X153474959Y-115951067D01*
X153429721Y-116041543D01*
X153384483Y-116086781D01*
X161260059Y-117060605D02*
X160310059Y-117060605D01*
X160310059Y-116834414D01*
X160355298Y-116698700D01*
X160445774Y-116608224D01*
X160536250Y-116562986D01*
X160717202Y-116517748D01*
X160852917Y-116517748D01*
X161033869Y-116562986D01*
X161124345Y-116608224D01*
X161214821Y-116698700D01*
X161260059Y-116834414D01*
X161260059Y-117060605D01*
X160310059Y-116201081D02*
X160310059Y-115567748D01*
X161260059Y-115974891D01*
X156307059Y-116895505D02*
X155357059Y-116895505D01*
X155357059Y-116669314D01*
X155402298Y-116533600D01*
X155492774Y-116443124D01*
X155583250Y-116397886D01*
X155764202Y-116352648D01*
X155899917Y-116352648D01*
X156080869Y-116397886D01*
X156171345Y-116443124D01*
X156261821Y-116533600D01*
X156307059Y-116669314D01*
X156307059Y-116895505D01*
X155357059Y-115493124D02*
X155357059Y-115945505D01*
X155809440Y-115990743D01*
X155764202Y-115945505D01*
X155718964Y-115855029D01*
X155718964Y-115628838D01*
X155764202Y-115538362D01*
X155809440Y-115493124D01*
X155899917Y-115447886D01*
X156126107Y-115447886D01*
X156216583Y-115493124D01*
X156261821Y-115538362D01*
X156307059Y-115628838D01*
X156307059Y-115855029D01*
X156261821Y-115945505D01*
X156216583Y-115990743D01*
X165390059Y-118055843D02*
X166340059Y-117739176D01*
X165390059Y-117422510D01*
X166249583Y-116562986D02*
X166294821Y-116608224D01*
X166340059Y-116743938D01*
X166340059Y-116834414D01*
X166294821Y-116970129D01*
X166204345Y-117060605D01*
X166113869Y-117105843D01*
X165932917Y-117151081D01*
X165797202Y-117151081D01*
X165616250Y-117105843D01*
X165525774Y-117060605D01*
X165435298Y-116970129D01*
X165390059Y-116834414D01*
X165390059Y-116743938D01*
X165435298Y-116608224D01*
X165480536Y-116562986D01*
X166249583Y-115612986D02*
X166294821Y-115658224D01*
X166340059Y-115793938D01*
X166340059Y-115884414D01*
X166294821Y-116020129D01*
X166204345Y-116110605D01*
X166113869Y-116155843D01*
X165932917Y-116201081D01*
X165797202Y-116201081D01*
X165616250Y-116155843D01*
X165525774Y-116110605D01*
X165435298Y-116020129D01*
X165390059Y-115884414D01*
X165390059Y-115793938D01*
X165435298Y-115658224D01*
X165480536Y-115612986D01*
X163787359Y-117060605D02*
X162837359Y-117060605D01*
X162837359Y-116834414D01*
X162882598Y-116698700D01*
X162973074Y-116608224D01*
X163063550Y-116562986D01*
X163244502Y-116517748D01*
X163380217Y-116517748D01*
X163561169Y-116562986D01*
X163651645Y-116608224D01*
X163742121Y-116698700D01*
X163787359Y-116834414D01*
X163787359Y-117060605D01*
X162927836Y-116155843D02*
X162882598Y-116110605D01*
X162837359Y-116020129D01*
X162837359Y-115793938D01*
X162882598Y-115703462D01*
X162927836Y-115658224D01*
X163018312Y-115612986D01*
X163108788Y-115612986D01*
X163244502Y-115658224D01*
X163787359Y-116201081D01*
X163787359Y-115612986D01*
X168656000Y-117285428D02*
X168610761Y-117375904D01*
X168610761Y-117511619D01*
X168656000Y-117647333D01*
X168746476Y-117737809D01*
X168836952Y-117783047D01*
X169017904Y-117828285D01*
X169153619Y-117828285D01*
X169334571Y-117783047D01*
X169425047Y-117737809D01*
X169515523Y-117647333D01*
X169560761Y-117511619D01*
X169560761Y-117421142D01*
X169515523Y-117285428D01*
X169470285Y-117240190D01*
X169153619Y-117240190D01*
X169153619Y-117421142D01*
X169560761Y-116833047D02*
X168610761Y-116833047D01*
X169560761Y-116290190D01*
X168610761Y-116290190D01*
X169560761Y-115837809D02*
X168610761Y-115837809D01*
X168610761Y-115611619D01*
X168656000Y-115475904D01*
X168746476Y-115385428D01*
X168836952Y-115340190D01*
X169017904Y-115294952D01*
X169153619Y-115294952D01*
X169334571Y-115340190D01*
X169425047Y-115385428D01*
X169515523Y-115475904D01*
X169560761Y-115611619D01*
X169560761Y-115837809D01*
X155300698Y-110186662D02*
X155255459Y-110277138D01*
X155255459Y-110412853D01*
X155300698Y-110548567D01*
X155391174Y-110639043D01*
X155481650Y-110684281D01*
X155662602Y-110729519D01*
X155798317Y-110729519D01*
X155979269Y-110684281D01*
X156069745Y-110639043D01*
X156160221Y-110548567D01*
X156205459Y-110412853D01*
X156205459Y-110322376D01*
X156160221Y-110186662D01*
X156114983Y-110141424D01*
X155798317Y-110141424D01*
X155798317Y-110322376D01*
X156205459Y-109734281D02*
X155255459Y-109734281D01*
X156205459Y-109191424D01*
X155255459Y-109191424D01*
X156205459Y-108739043D02*
X155255459Y-108739043D01*
X155255459Y-108512853D01*
X155300698Y-108377138D01*
X155391174Y-108286662D01*
X155481650Y-108241424D01*
X155662602Y-108196186D01*
X155798317Y-108196186D01*
X155979269Y-108241424D01*
X156069745Y-108286662D01*
X156160221Y-108377138D01*
X156205459Y-108512853D01*
X156205459Y-108739043D01*
X160204761Y-98125809D02*
X161154761Y-97809142D01*
X160204761Y-97492476D01*
X161064285Y-96632952D02*
X161109523Y-96678190D01*
X161154761Y-96813904D01*
X161154761Y-96904380D01*
X161109523Y-97040095D01*
X161019047Y-97130571D01*
X160928571Y-97175809D01*
X160747619Y-97221047D01*
X160611904Y-97221047D01*
X160430952Y-97175809D01*
X160340476Y-97130571D01*
X160250000Y-97040095D01*
X160204761Y-96904380D01*
X160204761Y-96813904D01*
X160250000Y-96678190D01*
X160295238Y-96632952D01*
X161064285Y-95682952D02*
X161109523Y-95728190D01*
X161154761Y-95863904D01*
X161154761Y-95954380D01*
X161109523Y-96090095D01*
X161019047Y-96180571D01*
X160928571Y-96225809D01*
X160747619Y-96271047D01*
X160611904Y-96271047D01*
X160430952Y-96225809D01*
X160340476Y-96180571D01*
X160250000Y-96090095D01*
X160204761Y-95954380D01*
X160204761Y-95863904D01*
X160250000Y-95728190D01*
X160295238Y-95682952D01*
X162629761Y-98165095D02*
X162629761Y-97622238D01*
X163579761Y-97893666D02*
X162629761Y-97893666D01*
X162629761Y-97396047D02*
X163579761Y-96762714D01*
X162629761Y-96762714D02*
X163579761Y-97396047D01*
X166279761Y-97587714D02*
X165827380Y-97904380D01*
X166279761Y-98130571D02*
X165329761Y-98130571D01*
X165329761Y-97768666D01*
X165375000Y-97678190D01*
X165420238Y-97632952D01*
X165510714Y-97587714D01*
X165646428Y-97587714D01*
X165736904Y-97632952D01*
X165782142Y-97678190D01*
X165827380Y-97768666D01*
X165827380Y-98130571D01*
X165329761Y-97271047D02*
X166279761Y-96637714D01*
X165329761Y-96637714D02*
X166279761Y-97271047D01*
X168636904Y-97748428D02*
X168255952Y-98015095D01*
X168636904Y-98205571D02*
X167836904Y-98205571D01*
X167836904Y-97900809D01*
X167875000Y-97824619D01*
X167913095Y-97786523D01*
X167989285Y-97748428D01*
X168103571Y-97748428D01*
X168179761Y-97786523D01*
X168217857Y-97824619D01*
X168255952Y-97900809D01*
X168255952Y-98205571D01*
X168217857Y-97405571D02*
X168217857Y-97138904D01*
X168636904Y-97024619D02*
X168636904Y-97405571D01*
X167836904Y-97405571D01*
X167836904Y-97024619D01*
X168598809Y-96719857D02*
X168636904Y-96605571D01*
X168636904Y-96415095D01*
X168598809Y-96338904D01*
X168560714Y-96300809D01*
X168484523Y-96262714D01*
X168408333Y-96262714D01*
X168332142Y-96300809D01*
X168294047Y-96338904D01*
X168255952Y-96415095D01*
X168217857Y-96567476D01*
X168179761Y-96643666D01*
X168141666Y-96681761D01*
X168065476Y-96719857D01*
X167989285Y-96719857D01*
X167913095Y-96681761D01*
X167875000Y-96643666D01*
X167836904Y-96567476D01*
X167836904Y-96377000D01*
X167875000Y-96262714D01*
X168217857Y-95919857D02*
X168217857Y-95653190D01*
X168636904Y-95538904D02*
X168636904Y-95919857D01*
X167836904Y-95919857D01*
X167836904Y-95538904D01*
X167836904Y-95310333D02*
X167836904Y-94853190D01*
X168636904Y-95081761D02*
X167836904Y-95081761D01*
X164733940Y-85477095D02*
X164688702Y-85522334D01*
X164598226Y-85567572D01*
X164372036Y-85567572D01*
X164281559Y-85522334D01*
X164236321Y-85477095D01*
X164191083Y-85386619D01*
X164191083Y-85296143D01*
X164236321Y-85160429D01*
X164779178Y-84617572D01*
X164191083Y-84617572D01*
X163602988Y-85567572D02*
X163512512Y-85567572D01*
X163422036Y-85522334D01*
X163376798Y-85477095D01*
X163331559Y-85386619D01*
X163286321Y-85205667D01*
X163286321Y-84979476D01*
X163331559Y-84798524D01*
X163376798Y-84708048D01*
X163422036Y-84662810D01*
X163512512Y-84617572D01*
X163602988Y-84617572D01*
X163693464Y-84662810D01*
X163738702Y-84708048D01*
X163783940Y-84798524D01*
X163829178Y-84979476D01*
X163829178Y-85205667D01*
X163783940Y-85386619D01*
X163738702Y-85477095D01*
X163693464Y-85522334D01*
X163602988Y-85567572D01*
X162381559Y-84617572D02*
X162924417Y-84617572D01*
X162652988Y-84617572D02*
X162652988Y-85567572D01*
X162743464Y-85431857D01*
X162833940Y-85341381D01*
X162924417Y-85296143D01*
X161929178Y-84617572D02*
X161748226Y-84617572D01*
X161657750Y-84662810D01*
X161612512Y-84708048D01*
X161522036Y-84843762D01*
X161476798Y-85024714D01*
X161476798Y-85386619D01*
X161522036Y-85477095D01*
X161567274Y-85522334D01*
X161657750Y-85567572D01*
X161838702Y-85567572D01*
X161929178Y-85522334D01*
X161974417Y-85477095D01*
X162019655Y-85386619D01*
X162019655Y-85160429D01*
X161974417Y-85069953D01*
X161929178Y-85024714D01*
X161838702Y-84979476D01*
X161657750Y-84979476D01*
X161567274Y-85024714D01*
X161522036Y-85069953D01*
X161476798Y-85160429D01*
X160888702Y-85567572D02*
X160798226Y-85567572D01*
X160707750Y-85522334D01*
X160662512Y-85477095D01*
X160617274Y-85386619D01*
X160572036Y-85205667D01*
X160572036Y-84979476D01*
X160617274Y-84798524D01*
X160662512Y-84708048D01*
X160707750Y-84662810D01*
X160798226Y-84617572D01*
X160888702Y-84617572D01*
X160979178Y-84662810D01*
X161024417Y-84708048D01*
X161069655Y-84798524D01*
X161114893Y-84979476D01*
X161114893Y-85205667D01*
X161069655Y-85386619D01*
X161024417Y-85477095D01*
X160979178Y-85522334D01*
X160888702Y-85567572D01*
X159712512Y-85567572D02*
X160164893Y-85567572D01*
X160210131Y-85115191D01*
X160164893Y-85160429D01*
X160074417Y-85205667D01*
X159848226Y-85205667D01*
X159757750Y-85160429D01*
X159712512Y-85115191D01*
X159667274Y-85024714D01*
X159667274Y-84798524D01*
X159712512Y-84708048D01*
X159757750Y-84662810D01*
X159848226Y-84617572D01*
X160074417Y-84617572D01*
X160164893Y-84662810D01*
X160210131Y-84708048D01*
X159350607Y-85567572D02*
X158762512Y-85567572D01*
X159079178Y-85205667D01*
X158943464Y-85205667D01*
X158852988Y-85160429D01*
X158807750Y-85115191D01*
X158762512Y-85024714D01*
X158762512Y-84798524D01*
X158807750Y-84708048D01*
X158852988Y-84662810D01*
X158943464Y-84617572D01*
X159214893Y-84617572D01*
X159305369Y-84662810D01*
X159350607Y-84708048D01*
X158174417Y-85567572D02*
X158083940Y-85567572D01*
X157993464Y-85522334D01*
X157948226Y-85477095D01*
X157902988Y-85386619D01*
X157857750Y-85205667D01*
X157857750Y-84979476D01*
X157902988Y-84798524D01*
X157948226Y-84708048D01*
X157993464Y-84662810D01*
X158083940Y-84617572D01*
X158174417Y-84617572D01*
X158264893Y-84662810D01*
X158310131Y-84708048D01*
X158355369Y-84798524D01*
X158400607Y-84979476D01*
X158400607Y-85205667D01*
X158355369Y-85386619D01*
X158310131Y-85477095D01*
X158264893Y-85522334D01*
X158174417Y-85567572D01*
X171457891Y-101561370D02*
X171457891Y-101380417D01*
X171503130Y-101289941D01*
X171593606Y-101199465D01*
X171774558Y-101154227D01*
X172091225Y-101154227D01*
X172272177Y-101199465D01*
X172362653Y-101289941D01*
X172407891Y-101380417D01*
X172407891Y-101561370D01*
X172362653Y-101651846D01*
X172272177Y-101742322D01*
X172091225Y-101787560D01*
X171774558Y-101787560D01*
X171593606Y-101742322D01*
X171503130Y-101651846D01*
X171457891Y-101561370D01*
X171774558Y-100747084D02*
X172724558Y-100747084D01*
X171819796Y-100747084D02*
X171774558Y-100656608D01*
X171774558Y-100475655D01*
X171819796Y-100385179D01*
X171865034Y-100339941D01*
X171955510Y-100294703D01*
X172226939Y-100294703D01*
X172317415Y-100339941D01*
X172362653Y-100385179D01*
X172407891Y-100475655D01*
X172407891Y-100656608D01*
X172362653Y-100747084D01*
X172362653Y-99525655D02*
X172407891Y-99616132D01*
X172407891Y-99797084D01*
X172362653Y-99887560D01*
X172272177Y-99932798D01*
X171910272Y-99932798D01*
X171819796Y-99887560D01*
X171774558Y-99797084D01*
X171774558Y-99616132D01*
X171819796Y-99525655D01*
X171910272Y-99480417D01*
X172000749Y-99480417D01*
X172091225Y-99932798D01*
X171774558Y-99073274D02*
X172407891Y-99073274D01*
X171865034Y-99073274D02*
X171819796Y-99028036D01*
X171774558Y-98937560D01*
X171774558Y-98801846D01*
X171819796Y-98711370D01*
X171910272Y-98666132D01*
X172407891Y-98666132D01*
X171457891Y-98349465D02*
X171457891Y-97806608D01*
X172407891Y-98078036D02*
X171457891Y-98078036D01*
X172407891Y-96947084D02*
X171955510Y-97263751D01*
X172407891Y-97489941D02*
X171457891Y-97489941D01*
X171457891Y-97128036D01*
X171503130Y-97037560D01*
X171548368Y-96992322D01*
X171638844Y-96947084D01*
X171774558Y-96947084D01*
X171865034Y-96992322D01*
X171910272Y-97037560D01*
X171955510Y-97128036D01*
X171955510Y-97489941D01*
X171457891Y-96675655D02*
X172407891Y-96358989D01*
X171457891Y-96042322D01*
X172317415Y-95725655D02*
X172362653Y-95680417D01*
X172407891Y-95725655D01*
X172362653Y-95770893D01*
X172317415Y-95725655D01*
X172407891Y-95725655D01*
X172407891Y-95137560D02*
X172362653Y-95228036D01*
X172317415Y-95273274D01*
X172226939Y-95318513D01*
X171955510Y-95318513D01*
X171865034Y-95273274D01*
X171819796Y-95228036D01*
X171774558Y-95137560D01*
X171774558Y-95001846D01*
X171819796Y-94911370D01*
X171865034Y-94866132D01*
X171955510Y-94820893D01*
X172226939Y-94820893D01*
X172317415Y-94866132D01*
X172362653Y-94911370D01*
X172407891Y-95001846D01*
X172407891Y-95137560D01*
X172407891Y-94413751D02*
X171774558Y-94413751D01*
X171955510Y-94413751D02*
X171865034Y-94368513D01*
X171819796Y-94323274D01*
X171774558Y-94232798D01*
X171774558Y-94142322D01*
X171774558Y-93418513D02*
X172543606Y-93418513D01*
X172634082Y-93463751D01*
X172679320Y-93508989D01*
X172724558Y-93599465D01*
X172724558Y-93735179D01*
X172679320Y-93825655D01*
X172362653Y-93418513D02*
X172407891Y-93508989D01*
X172407891Y-93689941D01*
X172362653Y-93780417D01*
X172317415Y-93825655D01*
X172226939Y-93870893D01*
X171955510Y-93870893D01*
X171865034Y-93825655D01*
X171819796Y-93780417D01*
X171774558Y-93689941D01*
X171774558Y-93508989D01*
X171819796Y-93418513D01*
X172317415Y-92966132D02*
X172362653Y-92920893D01*
X172407891Y-92966132D01*
X172362653Y-93011370D01*
X172317415Y-92966132D01*
X172407891Y-92966132D01*
X171774558Y-92106608D02*
X172407891Y-92106608D01*
X171774558Y-92513751D02*
X172272177Y-92513751D01*
X172362653Y-92468513D01*
X172407891Y-92378036D01*
X172407891Y-92242322D01*
X172362653Y-92151846D01*
X172317415Y-92106608D01*
X172407891Y-91654227D02*
X171457891Y-91654227D01*
X172045987Y-91563751D02*
X172407891Y-91292322D01*
X171774558Y-91292322D02*
X172136463Y-91654227D01*
D13*
G04 #@! TO.C,J3*
X119090000Y-125025000D02*
X119090000Y-130225000D01*
X167410000Y-125025000D02*
X119090000Y-125025000D01*
X170010000Y-130225000D02*
X119090000Y-130225000D01*
X167410000Y-125025000D02*
X167410000Y-127625000D01*
X167410000Y-127625000D02*
X170010000Y-127625000D01*
X170010000Y-127625000D02*
X170010000Y-130225000D01*
X168680000Y-125025000D02*
X170010000Y-125025000D01*
X170010000Y-125025000D02*
X170010000Y-126355000D01*
D14*
G04 #@! TO.C,IC1*
X119609998Y-112961534D02*
X119609998Y-105951534D01*
X119609998Y-105951534D02*
X126619998Y-105951534D01*
X126619998Y-105951534D02*
X126619998Y-112606534D01*
X126264998Y-112961534D02*
X119609998Y-112961534D01*
X126264998Y-112961534D02*
X126619998Y-112606534D01*
X126217398Y-112199734D02*
G75*
G03X126217398Y-112199734I-359200J0D01*
G01*
D15*
G04 #@! TO.C,U1*
X125692398Y-82286434D02*
X141692398Y-82286434D01*
X141692398Y-98286434D02*
X125692398Y-98286434D01*
D16*
X128612398Y-83301434D02*
G75*
G03X128612398Y-83301434I-635000J0D01*
G01*
D13*
G04 #@! TO.C,Q1*
X135059318Y-104150694D02*
X130599318Y-104150694D01*
X130599318Y-104150694D02*
X130599318Y-108214694D01*
X135059318Y-104150694D02*
X135059318Y-108214694D01*
X135059318Y-108214694D02*
X130599318Y-108214694D01*
G04 #@! TO.C,J1*
X169478000Y-101660000D02*
X169478000Y-99000000D01*
X156718000Y-101660000D02*
X169478000Y-101660000D01*
X156718000Y-99000000D02*
X169478000Y-99000000D01*
X156718000Y-101660000D02*
X156718000Y-99000000D01*
X155448000Y-101660000D02*
X154118000Y-101660000D01*
X154118000Y-101660000D02*
X154118000Y-100330000D01*
G04 #@! TO.C,J4*
X169718798Y-114679634D02*
X169718798Y-112019634D01*
X141718798Y-114679634D02*
X169718798Y-114679634D01*
X141718798Y-112019634D02*
X169718798Y-112019634D01*
X141718798Y-114679634D02*
X141718798Y-112019634D01*
X140448798Y-114679634D02*
X139118798Y-114679634D01*
X139118798Y-114679634D02*
X139118798Y-113349634D01*
G04 #@! TO.C,J2*
X150682000Y-97222000D02*
X145482000Y-97222000D01*
X150682000Y-102362000D02*
X150682000Y-97222000D01*
X145482000Y-104962000D02*
X145482000Y-97222000D01*
X150682000Y-102362000D02*
X148082000Y-102362000D01*
X148082000Y-102362000D02*
X148082000Y-104962000D01*
X148082000Y-104962000D02*
X145482000Y-104962000D01*
X150682000Y-103632000D02*
X150682000Y-104962000D01*
X150682000Y-104962000D02*
X149352000Y-104962000D01*
G04 #@! TO.C,U2*
X169610000Y-120760000D02*
X167710000Y-120760000D01*
X168210000Y-123080000D02*
X169610000Y-123080000D01*
D15*
G04 #@! TO.C,C6*
X143142000Y-108642000D02*
X141642000Y-108642000D01*
X141642000Y-108642000D02*
X141642000Y-106242000D01*
X141642000Y-106242000D02*
X143142000Y-106242000D01*
X145142000Y-108642000D02*
X146242000Y-108642000D01*
X146242000Y-108642000D02*
X146642000Y-108242000D01*
X146642000Y-108242000D02*
X146642000Y-106642000D01*
X146642000Y-106642000D02*
X146242000Y-106242000D01*
X146242000Y-106242000D02*
X145142000Y-106242000D01*
D16*
X144523000Y-106426000D02*
X144523000Y-108458000D01*
G04 #@! TO.C,J3*
D11*
X146332380Y-129228333D02*
X147046666Y-129228333D01*
X147189523Y-129275952D01*
X147284761Y-129371190D01*
X147332380Y-129514047D01*
X147332380Y-129609285D01*
X146332380Y-128847380D02*
X146332380Y-128228333D01*
X146713333Y-128561666D01*
X146713333Y-128418809D01*
X146760952Y-128323571D01*
X146808571Y-128275952D01*
X146903809Y-128228333D01*
X147141904Y-128228333D01*
X147237142Y-128275952D01*
X147284761Y-128323571D01*
X147332380Y-128418809D01*
X147332380Y-128704523D01*
X147284761Y-128799761D01*
X147237142Y-128847380D01*
G04 #@! TO.C,IC1*
D17*
X124481590Y-116032761D02*
X124481590Y-115082761D01*
X125476828Y-115942285D02*
X125431590Y-115987523D01*
X125295876Y-116032761D01*
X125205400Y-116032761D01*
X125069685Y-115987523D01*
X124979209Y-115897047D01*
X124933971Y-115806571D01*
X124888733Y-115625619D01*
X124888733Y-115489904D01*
X124933971Y-115308952D01*
X124979209Y-115218476D01*
X125069685Y-115128000D01*
X125205400Y-115082761D01*
X125295876Y-115082761D01*
X125431590Y-115128000D01*
X125476828Y-115173238D01*
X126381590Y-116032761D02*
X125838733Y-116032761D01*
X126110161Y-116032761D02*
X126110161Y-115082761D01*
X126019685Y-115218476D01*
X125929209Y-115308952D01*
X125838733Y-115354190D01*
G04 #@! TO.C,U1*
X133239188Y-85161195D02*
X133239188Y-85930243D01*
X133284426Y-86020719D01*
X133329664Y-86065957D01*
X133420140Y-86111195D01*
X133601093Y-86111195D01*
X133691569Y-86065957D01*
X133736807Y-86020719D01*
X133782045Y-85930243D01*
X133782045Y-85161195D01*
X134732045Y-86111195D02*
X134189188Y-86111195D01*
X134460617Y-86111195D02*
X134460617Y-85161195D01*
X134370140Y-85296910D01*
X134279664Y-85387386D01*
X134189188Y-85432624D01*
G04 #@! TO.C,C4*
X115958885Y-111050285D02*
X115913647Y-111095523D01*
X115777933Y-111140761D01*
X115687457Y-111140761D01*
X115551742Y-111095523D01*
X115461266Y-111005047D01*
X115416028Y-110914571D01*
X115370790Y-110733619D01*
X115370790Y-110597904D01*
X115416028Y-110416952D01*
X115461266Y-110326476D01*
X115551742Y-110236000D01*
X115687457Y-110190761D01*
X115777933Y-110190761D01*
X115913647Y-110236000D01*
X115958885Y-110281238D01*
X116773171Y-110507428D02*
X116773171Y-111140761D01*
X116546980Y-110145523D02*
X116320790Y-110824095D01*
X116908885Y-110824095D01*
G04 #@! TO.C,C2*
X129674885Y-111812285D02*
X129629647Y-111857523D01*
X129493933Y-111902761D01*
X129403457Y-111902761D01*
X129267742Y-111857523D01*
X129177266Y-111767047D01*
X129132028Y-111676571D01*
X129086790Y-111495619D01*
X129086790Y-111359904D01*
X129132028Y-111178952D01*
X129177266Y-111088476D01*
X129267742Y-110998000D01*
X129403457Y-110952761D01*
X129493933Y-110952761D01*
X129629647Y-110998000D01*
X129674885Y-111043238D01*
X130036790Y-111043238D02*
X130082028Y-110998000D01*
X130172504Y-110952761D01*
X130398695Y-110952761D01*
X130489171Y-110998000D01*
X130534409Y-111043238D01*
X130579647Y-111133714D01*
X130579647Y-111224190D01*
X130534409Y-111359904D01*
X129991552Y-111902761D01*
X130579647Y-111902761D01*
G04 #@! TO.C,C3*
X114434885Y-106224285D02*
X114389647Y-106269523D01*
X114253933Y-106314761D01*
X114163457Y-106314761D01*
X114027742Y-106269523D01*
X113937266Y-106179047D01*
X113892028Y-106088571D01*
X113846790Y-105907619D01*
X113846790Y-105771904D01*
X113892028Y-105590952D01*
X113937266Y-105500476D01*
X114027742Y-105410000D01*
X114163457Y-105364761D01*
X114253933Y-105364761D01*
X114389647Y-105410000D01*
X114434885Y-105455238D01*
X114751552Y-105364761D02*
X115339647Y-105364761D01*
X115022980Y-105726666D01*
X115158695Y-105726666D01*
X115249171Y-105771904D01*
X115294409Y-105817142D01*
X115339647Y-105907619D01*
X115339647Y-106133809D01*
X115294409Y-106224285D01*
X115249171Y-106269523D01*
X115158695Y-106314761D01*
X114887266Y-106314761D01*
X114796790Y-106269523D01*
X114751552Y-106224285D01*
G04 #@! TO.C,C5*
X122054885Y-89968285D02*
X122009647Y-90013523D01*
X121873933Y-90058761D01*
X121783457Y-90058761D01*
X121647742Y-90013523D01*
X121557266Y-89923047D01*
X121512028Y-89832571D01*
X121466790Y-89651619D01*
X121466790Y-89515904D01*
X121512028Y-89334952D01*
X121557266Y-89244476D01*
X121647742Y-89154000D01*
X121783457Y-89108761D01*
X121873933Y-89108761D01*
X122009647Y-89154000D01*
X122054885Y-89199238D01*
X122914409Y-89108761D02*
X122462028Y-89108761D01*
X122416790Y-89561142D01*
X122462028Y-89515904D01*
X122552504Y-89470666D01*
X122778695Y-89470666D01*
X122869171Y-89515904D01*
X122914409Y-89561142D01*
X122959647Y-89651619D01*
X122959647Y-89877809D01*
X122914409Y-89968285D01*
X122869171Y-90013523D01*
X122778695Y-90058761D01*
X122552504Y-90058761D01*
X122462028Y-90013523D01*
X122416790Y-89968285D01*
G04 #@! TO.C,Q1*
D11*
X130214619Y-102965238D02*
X130167000Y-103060476D01*
X130071761Y-103155714D01*
X129928904Y-103298571D01*
X129881285Y-103393809D01*
X129881285Y-103489047D01*
X130119380Y-103441428D02*
X130071761Y-103536666D01*
X129976523Y-103631904D01*
X129786047Y-103679523D01*
X129452714Y-103679523D01*
X129262238Y-103631904D01*
X129167000Y-103536666D01*
X129119380Y-103441428D01*
X129119380Y-103250952D01*
X129167000Y-103155714D01*
X129262238Y-103060476D01*
X129452714Y-103012857D01*
X129786047Y-103012857D01*
X129976523Y-103060476D01*
X130071761Y-103155714D01*
X130119380Y-103250952D01*
X130119380Y-103441428D01*
X130119380Y-102060476D02*
X130119380Y-102631904D01*
X130119380Y-102346190D02*
X129119380Y-102346190D01*
X129262238Y-102441428D01*
X129357476Y-102536666D01*
X129405095Y-102631904D01*
G04 #@! TO.C,J1*
X160448666Y-102322380D02*
X160448666Y-103036666D01*
X160401047Y-103179523D01*
X160305809Y-103274761D01*
X160162952Y-103322380D01*
X160067714Y-103322380D01*
X161448666Y-103322380D02*
X160877238Y-103322380D01*
X161162952Y-103322380D02*
X161162952Y-102322380D01*
X161067714Y-102465238D01*
X160972476Y-102560476D01*
X160877238Y-102608095D01*
G04 #@! TO.C,J4*
X137571178Y-113682967D02*
X138285464Y-113682967D01*
X138428321Y-113730586D01*
X138523559Y-113825824D01*
X138571178Y-113968681D01*
X138571178Y-114063919D01*
X137904512Y-112778205D02*
X138571178Y-112778205D01*
X137523559Y-113016300D02*
X138237845Y-113254395D01*
X138237845Y-112635348D01*
G04 #@! TO.C,J2*
X147748666Y-95845380D02*
X147748666Y-96559666D01*
X147701047Y-96702523D01*
X147605809Y-96797761D01*
X147462952Y-96845380D01*
X147367714Y-96845380D01*
X148177238Y-95940619D02*
X148224857Y-95893000D01*
X148320095Y-95845380D01*
X148558190Y-95845380D01*
X148653428Y-95893000D01*
X148701047Y-95940619D01*
X148748666Y-96035857D01*
X148748666Y-96131095D01*
X148701047Y-96273952D01*
X148129619Y-96845380D01*
X148748666Y-96845380D01*
G04 #@! TO.C,R4*
D17*
X152456447Y-87584761D02*
X152139780Y-87132380D01*
X151913590Y-87584761D02*
X151913590Y-86634761D01*
X152275495Y-86634761D01*
X152365971Y-86680000D01*
X152411209Y-86725238D01*
X152456447Y-86815714D01*
X152456447Y-86951428D01*
X152411209Y-87041904D01*
X152365971Y-87087142D01*
X152275495Y-87132380D01*
X151913590Y-87132380D01*
X153270733Y-86951428D02*
X153270733Y-87584761D01*
X153044542Y-86589523D02*
X152818352Y-87268095D01*
X153406447Y-87268095D01*
G04 #@! TO.C,R5*
X161498761Y-121609552D02*
X161046380Y-121926219D01*
X161498761Y-122152409D02*
X160548761Y-122152409D01*
X160548761Y-121790504D01*
X160594000Y-121700028D01*
X160639238Y-121654790D01*
X160729714Y-121609552D01*
X160865428Y-121609552D01*
X160955904Y-121654790D01*
X161001142Y-121700028D01*
X161046380Y-121790504D01*
X161046380Y-122152409D01*
X160548761Y-120750028D02*
X160548761Y-121202409D01*
X161001142Y-121247647D01*
X160955904Y-121202409D01*
X160910666Y-121111933D01*
X160910666Y-120885742D01*
X160955904Y-120795266D01*
X161001142Y-120750028D01*
X161091619Y-120704790D01*
X161317809Y-120704790D01*
X161408285Y-120750028D01*
X161453523Y-120795266D01*
X161498761Y-120885742D01*
X161498761Y-121111933D01*
X161453523Y-121202409D01*
X161408285Y-121247647D01*
G04 #@! TO.C,U2*
D11*
X168402095Y-123658380D02*
X168402095Y-124467904D01*
X168449714Y-124563142D01*
X168497333Y-124610761D01*
X168592571Y-124658380D01*
X168783047Y-124658380D01*
X168878285Y-124610761D01*
X168925904Y-124563142D01*
X168973523Y-124467904D01*
X168973523Y-123658380D01*
X169402095Y-123753619D02*
X169449714Y-123706000D01*
X169544952Y-123658380D01*
X169783047Y-123658380D01*
X169878285Y-123706000D01*
X169925904Y-123753619D01*
X169973523Y-123848857D01*
X169973523Y-123944095D01*
X169925904Y-124086952D01*
X169354476Y-124658380D01*
X169973523Y-124658380D01*
G04 #@! TO.C,R15*
D17*
X147528761Y-122117552D02*
X147076380Y-122434219D01*
X147528761Y-122660409D02*
X146578761Y-122660409D01*
X146578761Y-122298504D01*
X146624000Y-122208028D01*
X146669238Y-122162790D01*
X146759714Y-122117552D01*
X146895428Y-122117552D01*
X146985904Y-122162790D01*
X147031142Y-122208028D01*
X147076380Y-122298504D01*
X147076380Y-122660409D01*
X147528761Y-121212790D02*
X147528761Y-121755647D01*
X147528761Y-121484219D02*
X146578761Y-121484219D01*
X146714476Y-121574695D01*
X146804952Y-121665171D01*
X146850190Y-121755647D01*
X146578761Y-120353266D02*
X146578761Y-120805647D01*
X147031142Y-120850885D01*
X146985904Y-120805647D01*
X146940666Y-120715171D01*
X146940666Y-120488980D01*
X146985904Y-120398504D01*
X147031142Y-120353266D01*
X147121619Y-120308028D01*
X147347809Y-120308028D01*
X147438285Y-120353266D01*
X147483523Y-120398504D01*
X147528761Y-120488980D01*
X147528761Y-120715171D01*
X147483523Y-120805647D01*
X147438285Y-120850885D01*
G04 #@! TO.C,C6*
X144074447Y-110100285D02*
X144029209Y-110145523D01*
X143893495Y-110190761D01*
X143803019Y-110190761D01*
X143667304Y-110145523D01*
X143576828Y-110055047D01*
X143531590Y-109964571D01*
X143486352Y-109783619D01*
X143486352Y-109647904D01*
X143531590Y-109466952D01*
X143576828Y-109376476D01*
X143667304Y-109286000D01*
X143803019Y-109240761D01*
X143893495Y-109240761D01*
X144029209Y-109286000D01*
X144074447Y-109331238D01*
X144888733Y-109240761D02*
X144707780Y-109240761D01*
X144617304Y-109286000D01*
X144572066Y-109331238D01*
X144481590Y-109466952D01*
X144436352Y-109647904D01*
X144436352Y-110009809D01*
X144481590Y-110100285D01*
X144526828Y-110145523D01*
X144617304Y-110190761D01*
X144798257Y-110190761D01*
X144888733Y-110145523D01*
X144933971Y-110100285D01*
X144979209Y-110009809D01*
X144979209Y-109783619D01*
X144933971Y-109693142D01*
X144888733Y-109647904D01*
X144798257Y-109602666D01*
X144617304Y-109602666D01*
X144526828Y-109647904D01*
X144481590Y-109693142D01*
X144436352Y-109783619D01*
G04 #@! TO.C,C1*
X168095714Y-106814885D02*
X168050476Y-106769647D01*
X168005238Y-106633933D01*
X168005238Y-106543457D01*
X168050476Y-106407742D01*
X168140952Y-106317266D01*
X168231428Y-106272028D01*
X168412380Y-106226790D01*
X168548095Y-106226790D01*
X168729047Y-106272028D01*
X168819523Y-106317266D01*
X168910000Y-106407742D01*
X168955238Y-106543457D01*
X168955238Y-106633933D01*
X168910000Y-106769647D01*
X168864761Y-106814885D01*
X168005238Y-107719647D02*
X168005238Y-107176790D01*
X168005238Y-107448219D02*
X168955238Y-107448219D01*
X168819523Y-107357742D01*
X168729047Y-107267266D01*
X168683809Y-107176790D01*
G04 #@! TO.C,C7*
X147962885Y-89968285D02*
X147917647Y-90013523D01*
X147781933Y-90058761D01*
X147691457Y-90058761D01*
X147555742Y-90013523D01*
X147465266Y-89923047D01*
X147420028Y-89832571D01*
X147374790Y-89651619D01*
X147374790Y-89515904D01*
X147420028Y-89334952D01*
X147465266Y-89244476D01*
X147555742Y-89154000D01*
X147691457Y-89108761D01*
X147781933Y-89108761D01*
X147917647Y-89154000D01*
X147962885Y-89199238D01*
X148279552Y-89108761D02*
X148912885Y-89108761D01*
X148505742Y-90058761D01*
G04 #@! TO.C,C8*
X147962885Y-91746285D02*
X147917647Y-91791523D01*
X147781933Y-91836761D01*
X147691457Y-91836761D01*
X147555742Y-91791523D01*
X147465266Y-91701047D01*
X147420028Y-91610571D01*
X147374790Y-91429619D01*
X147374790Y-91293904D01*
X147420028Y-91112952D01*
X147465266Y-91022476D01*
X147555742Y-90932000D01*
X147691457Y-90886761D01*
X147781933Y-90886761D01*
X147917647Y-90932000D01*
X147962885Y-90977238D01*
X148505742Y-91293904D02*
X148415266Y-91248666D01*
X148370028Y-91203428D01*
X148324790Y-91112952D01*
X148324790Y-91067714D01*
X148370028Y-90977238D01*
X148415266Y-90932000D01*
X148505742Y-90886761D01*
X148686695Y-90886761D01*
X148777171Y-90932000D01*
X148822409Y-90977238D01*
X148867647Y-91067714D01*
X148867647Y-91112952D01*
X148822409Y-91203428D01*
X148777171Y-91248666D01*
X148686695Y-91293904D01*
X148505742Y-91293904D01*
X148415266Y-91339142D01*
X148370028Y-91384380D01*
X148324790Y-91474857D01*
X148324790Y-91655809D01*
X148370028Y-91746285D01*
X148415266Y-91791523D01*
X148505742Y-91836761D01*
X148686695Y-91836761D01*
X148777171Y-91791523D01*
X148822409Y-91746285D01*
X148867647Y-91655809D01*
X148867647Y-91474857D01*
X148822409Y-91384380D01*
X148777171Y-91339142D01*
X148686695Y-91293904D01*
G04 #@! TO.C,C9*
X147120487Y-87427751D02*
X147075249Y-87472989D01*
X146939535Y-87518227D01*
X146849059Y-87518227D01*
X146713344Y-87472989D01*
X146622868Y-87382513D01*
X146577630Y-87292037D01*
X146532392Y-87111085D01*
X146532392Y-86975370D01*
X146577630Y-86794418D01*
X146622868Y-86703942D01*
X146713344Y-86613466D01*
X146849059Y-86568227D01*
X146939535Y-86568227D01*
X147075249Y-86613466D01*
X147120487Y-86658704D01*
X147572868Y-87518227D02*
X147753821Y-87518227D01*
X147844297Y-87472989D01*
X147889535Y-87427751D01*
X147980011Y-87292037D01*
X148025249Y-87111085D01*
X148025249Y-86749180D01*
X147980011Y-86658704D01*
X147934773Y-86613466D01*
X147844297Y-86568227D01*
X147663344Y-86568227D01*
X147572868Y-86613466D01*
X147527630Y-86658704D01*
X147482392Y-86749180D01*
X147482392Y-86975370D01*
X147527630Y-87065846D01*
X147572868Y-87111085D01*
X147663344Y-87156323D01*
X147844297Y-87156323D01*
X147934773Y-87111085D01*
X147980011Y-87065846D01*
X148025249Y-86975370D01*
G04 #@! TO.C,C10*
X144010123Y-83872285D02*
X143964885Y-83917523D01*
X143829171Y-83962761D01*
X143738695Y-83962761D01*
X143602980Y-83917523D01*
X143512504Y-83827047D01*
X143467266Y-83736571D01*
X143422028Y-83555619D01*
X143422028Y-83419904D01*
X143467266Y-83238952D01*
X143512504Y-83148476D01*
X143602980Y-83058000D01*
X143738695Y-83012761D01*
X143829171Y-83012761D01*
X143964885Y-83058000D01*
X144010123Y-83103238D01*
X144914885Y-83962761D02*
X144372028Y-83962761D01*
X144643457Y-83962761D02*
X144643457Y-83012761D01*
X144552980Y-83148476D01*
X144462504Y-83238952D01*
X144372028Y-83284190D01*
X145502980Y-83012761D02*
X145593457Y-83012761D01*
X145683933Y-83058000D01*
X145729171Y-83103238D01*
X145774409Y-83193714D01*
X145819647Y-83374666D01*
X145819647Y-83600857D01*
X145774409Y-83781809D01*
X145729171Y-83872285D01*
X145683933Y-83917523D01*
X145593457Y-83962761D01*
X145502980Y-83962761D01*
X145412504Y-83917523D01*
X145367266Y-83872285D01*
X145322028Y-83781809D01*
X145276790Y-83600857D01*
X145276790Y-83374666D01*
X145322028Y-83193714D01*
X145367266Y-83103238D01*
X145412504Y-83058000D01*
X145502980Y-83012761D01*
G04 #@! TO.C,R1*
X165816761Y-104591552D02*
X165364380Y-104908219D01*
X165816761Y-105134409D02*
X164866761Y-105134409D01*
X164866761Y-104772504D01*
X164912000Y-104682028D01*
X164957238Y-104636790D01*
X165047714Y-104591552D01*
X165183428Y-104591552D01*
X165273904Y-104636790D01*
X165319142Y-104682028D01*
X165364380Y-104772504D01*
X165364380Y-105134409D01*
X165816761Y-103686790D02*
X165816761Y-104229647D01*
X165816761Y-103958219D02*
X164866761Y-103958219D01*
X165002476Y-104048695D01*
X165092952Y-104139171D01*
X165138190Y-104229647D01*
G04 #@! TO.C,R2*
X162859238Y-106228447D02*
X163311619Y-105911780D01*
X162859238Y-105685590D02*
X163809238Y-105685590D01*
X163809238Y-106047495D01*
X163764000Y-106137971D01*
X163718761Y-106183209D01*
X163628285Y-106228447D01*
X163492571Y-106228447D01*
X163402095Y-106183209D01*
X163356857Y-106137971D01*
X163311619Y-106047495D01*
X163311619Y-105685590D01*
X163718761Y-106590352D02*
X163764000Y-106635590D01*
X163809238Y-106726066D01*
X163809238Y-106952257D01*
X163764000Y-107042733D01*
X163718761Y-107087971D01*
X163628285Y-107133209D01*
X163537809Y-107133209D01*
X163402095Y-107087971D01*
X162859238Y-106545114D01*
X162859238Y-107133209D01*
G04 #@! TO.C,C11*
X132398125Y-101606031D02*
X132352887Y-101651269D01*
X132217173Y-101696507D01*
X132126697Y-101696507D01*
X131990982Y-101651269D01*
X131900506Y-101560793D01*
X131855268Y-101470317D01*
X131810030Y-101289365D01*
X131810030Y-101153650D01*
X131855268Y-100972698D01*
X131900506Y-100882222D01*
X131990982Y-100791746D01*
X132126697Y-100746507D01*
X132217173Y-100746507D01*
X132352887Y-100791746D01*
X132398125Y-100836984D01*
X133302887Y-101696507D02*
X132760030Y-101696507D01*
X133031459Y-101696507D02*
X133031459Y-100746507D01*
X132940982Y-100882222D01*
X132850506Y-100972698D01*
X132760030Y-101017936D01*
X134207649Y-101696507D02*
X133664792Y-101696507D01*
X133936221Y-101696507D02*
X133936221Y-100746507D01*
X133845744Y-100882222D01*
X133755268Y-100972698D01*
X133664792Y-101017936D01*
G04 #@! TO.C,C12*
X133977123Y-111304285D02*
X133931885Y-111349523D01*
X133796171Y-111394761D01*
X133705695Y-111394761D01*
X133569980Y-111349523D01*
X133479504Y-111259047D01*
X133434266Y-111168571D01*
X133389028Y-110987619D01*
X133389028Y-110851904D01*
X133434266Y-110670952D01*
X133479504Y-110580476D01*
X133569980Y-110490000D01*
X133705695Y-110444761D01*
X133796171Y-110444761D01*
X133931885Y-110490000D01*
X133977123Y-110535238D01*
X134881885Y-111394761D02*
X134339028Y-111394761D01*
X134610457Y-111394761D02*
X134610457Y-110444761D01*
X134519980Y-110580476D01*
X134429504Y-110670952D01*
X134339028Y-110716190D01*
X135243790Y-110535238D02*
X135289028Y-110490000D01*
X135379504Y-110444761D01*
X135605695Y-110444761D01*
X135696171Y-110490000D01*
X135741409Y-110535238D01*
X135786647Y-110625714D01*
X135786647Y-110716190D01*
X135741409Y-110851904D01*
X135198552Y-111394761D01*
X135786647Y-111394761D01*
G04 #@! TO.C,R9*
X149408447Y-84028761D02*
X149091780Y-83576380D01*
X148865590Y-84028761D02*
X148865590Y-83078761D01*
X149227495Y-83078761D01*
X149317971Y-83124000D01*
X149363209Y-83169238D01*
X149408447Y-83259714D01*
X149408447Y-83395428D01*
X149363209Y-83485904D01*
X149317971Y-83531142D01*
X149227495Y-83576380D01*
X148865590Y-83576380D01*
X149860828Y-84028761D02*
X150041780Y-84028761D01*
X150132257Y-83983523D01*
X150177495Y-83938285D01*
X150267971Y-83802571D01*
X150313209Y-83621619D01*
X150313209Y-83259714D01*
X150267971Y-83169238D01*
X150222733Y-83124000D01*
X150132257Y-83078761D01*
X149951304Y-83078761D01*
X149860828Y-83124000D01*
X149815590Y-83169238D01*
X149770352Y-83259714D01*
X149770352Y-83485904D01*
X149815590Y-83576380D01*
X149860828Y-83621619D01*
X149951304Y-83666857D01*
X150132257Y-83666857D01*
X150222733Y-83621619D01*
X150267971Y-83576380D01*
X150313209Y-83485904D01*
G04 #@! TO.C,R10*
X154894761Y-122117552D02*
X154442380Y-122434219D01*
X154894761Y-122660409D02*
X153944761Y-122660409D01*
X153944761Y-122298504D01*
X153990000Y-122208028D01*
X154035238Y-122162790D01*
X154125714Y-122117552D01*
X154261428Y-122117552D01*
X154351904Y-122162790D01*
X154397142Y-122208028D01*
X154442380Y-122298504D01*
X154442380Y-122660409D01*
X154894761Y-121212790D02*
X154894761Y-121755647D01*
X154894761Y-121484219D02*
X153944761Y-121484219D01*
X154080476Y-121574695D01*
X154170952Y-121665171D01*
X154216190Y-121755647D01*
X153944761Y-120624695D02*
X153944761Y-120534219D01*
X153990000Y-120443742D01*
X154035238Y-120398504D01*
X154125714Y-120353266D01*
X154306666Y-120308028D01*
X154532857Y-120308028D01*
X154713809Y-120353266D01*
X154804285Y-120398504D01*
X154849523Y-120443742D01*
X154894761Y-120534219D01*
X154894761Y-120624695D01*
X154849523Y-120715171D01*
X154804285Y-120760409D01*
X154713809Y-120805647D01*
X154532857Y-120850885D01*
X154306666Y-120850885D01*
X154125714Y-120805647D01*
X154035238Y-120760409D01*
X153990000Y-120715171D01*
X153944761Y-120624695D01*
G04 #@! TO.C,R12*
X158196761Y-122117552D02*
X157744380Y-122434219D01*
X158196761Y-122660409D02*
X157246761Y-122660409D01*
X157246761Y-122298504D01*
X157292000Y-122208028D01*
X157337238Y-122162790D01*
X157427714Y-122117552D01*
X157563428Y-122117552D01*
X157653904Y-122162790D01*
X157699142Y-122208028D01*
X157744380Y-122298504D01*
X157744380Y-122660409D01*
X158196761Y-121212790D02*
X158196761Y-121755647D01*
X158196761Y-121484219D02*
X157246761Y-121484219D01*
X157382476Y-121574695D01*
X157472952Y-121665171D01*
X157518190Y-121755647D01*
X157337238Y-120850885D02*
X157292000Y-120805647D01*
X157246761Y-120715171D01*
X157246761Y-120488980D01*
X157292000Y-120398504D01*
X157337238Y-120353266D01*
X157427714Y-120308028D01*
X157518190Y-120308028D01*
X157653904Y-120353266D01*
X158196761Y-120896123D01*
X158196761Y-120308028D01*
G04 #@! TO.C,R13*
X151338761Y-122181876D02*
X150886380Y-122498542D01*
X151338761Y-122724733D02*
X150388761Y-122724733D01*
X150388761Y-122362828D01*
X150434000Y-122272352D01*
X150479238Y-122227114D01*
X150569714Y-122181876D01*
X150705428Y-122181876D01*
X150795904Y-122227114D01*
X150841142Y-122272352D01*
X150886380Y-122362828D01*
X150886380Y-122724733D01*
X151338761Y-121277114D02*
X151338761Y-121819971D01*
X151338761Y-121548542D02*
X150388761Y-121548542D01*
X150524476Y-121639019D01*
X150614952Y-121729495D01*
X150660190Y-121819971D01*
X150388761Y-120960447D02*
X150388761Y-120372352D01*
X150750666Y-120689019D01*
X150750666Y-120553304D01*
X150795904Y-120462828D01*
X150841142Y-120417590D01*
X150931619Y-120372352D01*
X151157809Y-120372352D01*
X151248285Y-120417590D01*
X151293523Y-120462828D01*
X151338761Y-120553304D01*
X151338761Y-120824733D01*
X151293523Y-120915209D01*
X151248285Y-120960447D01*
G04 #@! TO.C,R14*
X141305761Y-122129352D02*
X140853380Y-122446019D01*
X141305761Y-122672209D02*
X140355761Y-122672209D01*
X140355761Y-122310304D01*
X140401000Y-122219828D01*
X140446238Y-122174590D01*
X140536714Y-122129352D01*
X140672428Y-122129352D01*
X140762904Y-122174590D01*
X140808142Y-122219828D01*
X140853380Y-122310304D01*
X140853380Y-122672209D01*
X141305761Y-121224590D02*
X141305761Y-121767447D01*
X141305761Y-121496019D02*
X140355761Y-121496019D01*
X140491476Y-121586495D01*
X140581952Y-121676971D01*
X140627190Y-121767447D01*
X140672428Y-120410304D02*
X141305761Y-120410304D01*
X140310523Y-120636495D02*
X140989095Y-120862685D01*
X140989095Y-120274590D01*
G04 #@! TO.C,R16*
X126700761Y-121863552D02*
X126248380Y-122180219D01*
X126700761Y-122406409D02*
X125750761Y-122406409D01*
X125750761Y-122044504D01*
X125796000Y-121954028D01*
X125841238Y-121908790D01*
X125931714Y-121863552D01*
X126067428Y-121863552D01*
X126157904Y-121908790D01*
X126203142Y-121954028D01*
X126248380Y-122044504D01*
X126248380Y-122406409D01*
X126700761Y-120958790D02*
X126700761Y-121501647D01*
X126700761Y-121230219D02*
X125750761Y-121230219D01*
X125886476Y-121320695D01*
X125976952Y-121411171D01*
X126022190Y-121501647D01*
X125750761Y-120144504D02*
X125750761Y-120325457D01*
X125796000Y-120415933D01*
X125841238Y-120461171D01*
X125976952Y-120551647D01*
X126157904Y-120596885D01*
X126519809Y-120596885D01*
X126610285Y-120551647D01*
X126655523Y-120506409D01*
X126700761Y-120415933D01*
X126700761Y-120234980D01*
X126655523Y-120144504D01*
X126610285Y-120099266D01*
X126519809Y-120054028D01*
X126293619Y-120054028D01*
X126203142Y-120099266D01*
X126157904Y-120144504D01*
X126112666Y-120234980D01*
X126112666Y-120415933D01*
X126157904Y-120506409D01*
X126203142Y-120551647D01*
X126293619Y-120596885D01*
G04 #@! TO.C,R17*
X119864640Y-120666913D02*
X120317021Y-120350246D01*
X119864640Y-120124056D02*
X120814640Y-120124056D01*
X120814640Y-120485961D01*
X120769402Y-120576437D01*
X120724163Y-120621675D01*
X120633687Y-120666913D01*
X120497973Y-120666913D01*
X120407497Y-120621675D01*
X120362259Y-120576437D01*
X120317021Y-120485961D01*
X120317021Y-120124056D01*
X119864640Y-121571675D02*
X119864640Y-121028818D01*
X119864640Y-121300246D02*
X120814640Y-121300246D01*
X120678925Y-121209770D01*
X120588449Y-121119294D01*
X120543211Y-121028818D01*
X120814640Y-121888342D02*
X120814640Y-122521675D01*
X119864640Y-122114532D01*
G04 #@! TO.C,R18*
X118514359Y-104362586D02*
X118061978Y-104679253D01*
X118514359Y-104905443D02*
X117564359Y-104905443D01*
X117564359Y-104543538D01*
X117609598Y-104453062D01*
X117654836Y-104407824D01*
X117745312Y-104362586D01*
X117881026Y-104362586D01*
X117971502Y-104407824D01*
X118016740Y-104453062D01*
X118061978Y-104543538D01*
X118061978Y-104905443D01*
X118514359Y-103457824D02*
X118514359Y-104000681D01*
X118514359Y-103729253D02*
X117564359Y-103729253D01*
X117700074Y-103819729D01*
X117790550Y-103910205D01*
X117835788Y-104000681D01*
X117971502Y-102914967D02*
X117926264Y-103005443D01*
X117881026Y-103050681D01*
X117790550Y-103095919D01*
X117745312Y-103095919D01*
X117654836Y-103050681D01*
X117609598Y-103005443D01*
X117564359Y-102914967D01*
X117564359Y-102734014D01*
X117609598Y-102643538D01*
X117654836Y-102598300D01*
X117745312Y-102553062D01*
X117790550Y-102553062D01*
X117881026Y-102598300D01*
X117926264Y-102643538D01*
X117971502Y-102734014D01*
X117971502Y-102914967D01*
X118016740Y-103005443D01*
X118061978Y-103050681D01*
X118152455Y-103095919D01*
X118333407Y-103095919D01*
X118423883Y-103050681D01*
X118469121Y-103005443D01*
X118514359Y-102914967D01*
X118514359Y-102734014D01*
X118469121Y-102643538D01*
X118423883Y-102598300D01*
X118333407Y-102553062D01*
X118152455Y-102553062D01*
X118061978Y-102598300D01*
X118016740Y-102643538D01*
X117971502Y-102734014D01*
G04 #@! TO.C,R3*
X156672761Y-103829552D02*
X156220380Y-104146219D01*
X156672761Y-104372409D02*
X155722761Y-104372409D01*
X155722761Y-104010504D01*
X155768000Y-103920028D01*
X155813238Y-103874790D01*
X155903714Y-103829552D01*
X156039428Y-103829552D01*
X156129904Y-103874790D01*
X156175142Y-103920028D01*
X156220380Y-104010504D01*
X156220380Y-104372409D01*
X155722761Y-103512885D02*
X155722761Y-102924790D01*
X156084666Y-103241457D01*
X156084666Y-103105742D01*
X156129904Y-103015266D01*
X156175142Y-102970028D01*
X156265619Y-102924790D01*
X156491809Y-102924790D01*
X156582285Y-102970028D01*
X156627523Y-103015266D01*
X156672761Y-103105742D01*
X156672761Y-103377171D01*
X156627523Y-103467647D01*
X156582285Y-103512885D01*
G04 #@! TO.C,C13*
X171442123Y-119940285D02*
X171396885Y-119985523D01*
X171261171Y-120030761D01*
X171170695Y-120030761D01*
X171034980Y-119985523D01*
X170944504Y-119895047D01*
X170899266Y-119804571D01*
X170854028Y-119623619D01*
X170854028Y-119487904D01*
X170899266Y-119306952D01*
X170944504Y-119216476D01*
X171034980Y-119126000D01*
X171170695Y-119080761D01*
X171261171Y-119080761D01*
X171396885Y-119126000D01*
X171442123Y-119171238D01*
X172346885Y-120030761D02*
X171804028Y-120030761D01*
X172075457Y-120030761D02*
X172075457Y-119080761D01*
X171984980Y-119216476D01*
X171894504Y-119306952D01*
X171804028Y-119352190D01*
X172663552Y-119080761D02*
X173251647Y-119080761D01*
X172934980Y-119442666D01*
X173070695Y-119442666D01*
X173161171Y-119487904D01*
X173206409Y-119533142D01*
X173251647Y-119623619D01*
X173251647Y-119849809D01*
X173206409Y-119940285D01*
X173161171Y-119985523D01*
X173070695Y-120030761D01*
X172799266Y-120030761D01*
X172708790Y-119985523D01*
X172663552Y-119940285D01*
G04 #@! TO.C,C14*
X174744123Y-123115285D02*
X174698885Y-123160523D01*
X174563171Y-123205761D01*
X174472695Y-123205761D01*
X174336980Y-123160523D01*
X174246504Y-123070047D01*
X174201266Y-122979571D01*
X174156028Y-122798619D01*
X174156028Y-122662904D01*
X174201266Y-122481952D01*
X174246504Y-122391476D01*
X174336980Y-122301000D01*
X174472695Y-122255761D01*
X174563171Y-122255761D01*
X174698885Y-122301000D01*
X174744123Y-122346238D01*
X175648885Y-123205761D02*
X175106028Y-123205761D01*
X175377457Y-123205761D02*
X175377457Y-122255761D01*
X175286980Y-122391476D01*
X175196504Y-122481952D01*
X175106028Y-122527190D01*
X176463171Y-122572428D02*
X176463171Y-123205761D01*
X176236980Y-122210523D02*
X176010790Y-122889095D01*
X176598885Y-122889095D01*
G04 #@! TO.C,REF\002A\002A*
D11*
X114216666Y-124852380D02*
X113883333Y-124376190D01*
X113645238Y-124852380D02*
X113645238Y-123852380D01*
X114026190Y-123852380D01*
X114121428Y-123900000D01*
X114169047Y-123947619D01*
X114216666Y-124042857D01*
X114216666Y-124185714D01*
X114169047Y-124280952D01*
X114121428Y-124328571D01*
X114026190Y-124376190D01*
X113645238Y-124376190D01*
X114645238Y-124328571D02*
X114978571Y-124328571D01*
X115121428Y-124852380D02*
X114645238Y-124852380D01*
X114645238Y-123852380D01*
X115121428Y-123852380D01*
X115883333Y-124328571D02*
X115550000Y-124328571D01*
X115550000Y-124852380D02*
X115550000Y-123852380D01*
X116026190Y-123852380D01*
X116550000Y-123852380D02*
X116550000Y-124090476D01*
X116311904Y-123995238D02*
X116550000Y-124090476D01*
X116788095Y-123995238D01*
X116407142Y-124280952D02*
X116550000Y-124090476D01*
X116692857Y-124280952D01*
X117311904Y-123852380D02*
X117311904Y-124090476D01*
X117073809Y-123995238D02*
X117311904Y-124090476D01*
X117550000Y-123995238D01*
X117169047Y-124280952D02*
X117311904Y-124090476D01*
X117454761Y-124280952D01*
G04 #@! TD*
M02*
