G75*
%MOIN*%
%OFA0B0*%
%FSLAX25Y25*%
%IPPOS*%
%LPD*%
%AMOC8*
5,1,8,0,0,1.08239X$1,22.5*
%
%ADD10C,0.00000*%
%ADD11C,0.00300*%
%ADD12C,0.01600*%
%ADD13C,0.00600*%
%ADD14C,0.03000*%
%ADD15R,0.03000X0.02000*%
%ADD16R,0.03000X0.01300*%
%ADD17C,0.00800*%
%ADD18C,0.01200*%
%ADD19R,0.00950X0.00591*%
%ADD20R,0.00950X0.01181*%
%ADD21R,0.00591X0.00950*%
%ADD22R,0.01181X0.00950*%
%ADD23C,0.00500*%
D10*
X0003500Y0003500D02*
X0003500Y0239720D01*
X0393264Y0239720D01*
X0393264Y0003500D01*
X0003500Y0003500D01*
X0001728Y0008618D02*
X0001730Y0008787D01*
X0001736Y0008956D01*
X0001747Y0009125D01*
X0001761Y0009293D01*
X0001780Y0009461D01*
X0001803Y0009629D01*
X0001829Y0009796D01*
X0001860Y0009962D01*
X0001895Y0010128D01*
X0001934Y0010292D01*
X0001978Y0010456D01*
X0002025Y0010618D01*
X0002076Y0010779D01*
X0002131Y0010939D01*
X0002190Y0011098D01*
X0002252Y0011255D01*
X0002319Y0011410D01*
X0002390Y0011564D01*
X0002464Y0011716D01*
X0002542Y0011866D01*
X0002623Y0012014D01*
X0002708Y0012160D01*
X0002797Y0012304D01*
X0002889Y0012446D01*
X0002985Y0012585D01*
X0003084Y0012722D01*
X0003186Y0012857D01*
X0003292Y0012989D01*
X0003401Y0013118D01*
X0003513Y0013245D01*
X0003628Y0013369D01*
X0003746Y0013490D01*
X0003867Y0013608D01*
X0003991Y0013723D01*
X0004118Y0013835D01*
X0004247Y0013944D01*
X0004379Y0014050D01*
X0004514Y0014152D01*
X0004651Y0014251D01*
X0004790Y0014347D01*
X0004932Y0014439D01*
X0005076Y0014528D01*
X0005222Y0014613D01*
X0005370Y0014694D01*
X0005520Y0014772D01*
X0005672Y0014846D01*
X0005826Y0014917D01*
X0005981Y0014984D01*
X0006138Y0015046D01*
X0006297Y0015105D01*
X0006457Y0015160D01*
X0006618Y0015211D01*
X0006780Y0015258D01*
X0006944Y0015302D01*
X0007108Y0015341D01*
X0007274Y0015376D01*
X0007440Y0015407D01*
X0007607Y0015433D01*
X0007775Y0015456D01*
X0007943Y0015475D01*
X0008111Y0015489D01*
X0008280Y0015500D01*
X0008449Y0015506D01*
X0008618Y0015508D01*
X0008787Y0015506D01*
X0008956Y0015500D01*
X0009125Y0015489D01*
X0009293Y0015475D01*
X0009461Y0015456D01*
X0009629Y0015433D01*
X0009796Y0015407D01*
X0009962Y0015376D01*
X0010128Y0015341D01*
X0010292Y0015302D01*
X0010456Y0015258D01*
X0010618Y0015211D01*
X0010779Y0015160D01*
X0010939Y0015105D01*
X0011098Y0015046D01*
X0011255Y0014984D01*
X0011410Y0014917D01*
X0011564Y0014846D01*
X0011716Y0014772D01*
X0011866Y0014694D01*
X0012014Y0014613D01*
X0012160Y0014528D01*
X0012304Y0014439D01*
X0012446Y0014347D01*
X0012585Y0014251D01*
X0012722Y0014152D01*
X0012857Y0014050D01*
X0012989Y0013944D01*
X0013118Y0013835D01*
X0013245Y0013723D01*
X0013369Y0013608D01*
X0013490Y0013490D01*
X0013608Y0013369D01*
X0013723Y0013245D01*
X0013835Y0013118D01*
X0013944Y0012989D01*
X0014050Y0012857D01*
X0014152Y0012722D01*
X0014251Y0012585D01*
X0014347Y0012446D01*
X0014439Y0012304D01*
X0014528Y0012160D01*
X0014613Y0012014D01*
X0014694Y0011866D01*
X0014772Y0011716D01*
X0014846Y0011564D01*
X0014917Y0011410D01*
X0014984Y0011255D01*
X0015046Y0011098D01*
X0015105Y0010939D01*
X0015160Y0010779D01*
X0015211Y0010618D01*
X0015258Y0010456D01*
X0015302Y0010292D01*
X0015341Y0010128D01*
X0015376Y0009962D01*
X0015407Y0009796D01*
X0015433Y0009629D01*
X0015456Y0009461D01*
X0015475Y0009293D01*
X0015489Y0009125D01*
X0015500Y0008956D01*
X0015506Y0008787D01*
X0015508Y0008618D01*
X0015506Y0008449D01*
X0015500Y0008280D01*
X0015489Y0008111D01*
X0015475Y0007943D01*
X0015456Y0007775D01*
X0015433Y0007607D01*
X0015407Y0007440D01*
X0015376Y0007274D01*
X0015341Y0007108D01*
X0015302Y0006944D01*
X0015258Y0006780D01*
X0015211Y0006618D01*
X0015160Y0006457D01*
X0015105Y0006297D01*
X0015046Y0006138D01*
X0014984Y0005981D01*
X0014917Y0005826D01*
X0014846Y0005672D01*
X0014772Y0005520D01*
X0014694Y0005370D01*
X0014613Y0005222D01*
X0014528Y0005076D01*
X0014439Y0004932D01*
X0014347Y0004790D01*
X0014251Y0004651D01*
X0014152Y0004514D01*
X0014050Y0004379D01*
X0013944Y0004247D01*
X0013835Y0004118D01*
X0013723Y0003991D01*
X0013608Y0003867D01*
X0013490Y0003746D01*
X0013369Y0003628D01*
X0013245Y0003513D01*
X0013118Y0003401D01*
X0012989Y0003292D01*
X0012857Y0003186D01*
X0012722Y0003084D01*
X0012585Y0002985D01*
X0012446Y0002889D01*
X0012304Y0002797D01*
X0012160Y0002708D01*
X0012014Y0002623D01*
X0011866Y0002542D01*
X0011716Y0002464D01*
X0011564Y0002390D01*
X0011410Y0002319D01*
X0011255Y0002252D01*
X0011098Y0002190D01*
X0010939Y0002131D01*
X0010779Y0002076D01*
X0010618Y0002025D01*
X0010456Y0001978D01*
X0010292Y0001934D01*
X0010128Y0001895D01*
X0009962Y0001860D01*
X0009796Y0001829D01*
X0009629Y0001803D01*
X0009461Y0001780D01*
X0009293Y0001761D01*
X0009125Y0001747D01*
X0008956Y0001736D01*
X0008787Y0001730D01*
X0008618Y0001728D01*
X0008449Y0001730D01*
X0008280Y0001736D01*
X0008111Y0001747D01*
X0007943Y0001761D01*
X0007775Y0001780D01*
X0007607Y0001803D01*
X0007440Y0001829D01*
X0007274Y0001860D01*
X0007108Y0001895D01*
X0006944Y0001934D01*
X0006780Y0001978D01*
X0006618Y0002025D01*
X0006457Y0002076D01*
X0006297Y0002131D01*
X0006138Y0002190D01*
X0005981Y0002252D01*
X0005826Y0002319D01*
X0005672Y0002390D01*
X0005520Y0002464D01*
X0005370Y0002542D01*
X0005222Y0002623D01*
X0005076Y0002708D01*
X0004932Y0002797D01*
X0004790Y0002889D01*
X0004651Y0002985D01*
X0004514Y0003084D01*
X0004379Y0003186D01*
X0004247Y0003292D01*
X0004118Y0003401D01*
X0003991Y0003513D01*
X0003867Y0003628D01*
X0003746Y0003746D01*
X0003628Y0003867D01*
X0003513Y0003991D01*
X0003401Y0004118D01*
X0003292Y0004247D01*
X0003186Y0004379D01*
X0003084Y0004514D01*
X0002985Y0004651D01*
X0002889Y0004790D01*
X0002797Y0004932D01*
X0002708Y0005076D01*
X0002623Y0005222D01*
X0002542Y0005370D01*
X0002464Y0005520D01*
X0002390Y0005672D01*
X0002319Y0005826D01*
X0002252Y0005981D01*
X0002190Y0006138D01*
X0002131Y0006297D01*
X0002076Y0006457D01*
X0002025Y0006618D01*
X0001978Y0006780D01*
X0001934Y0006944D01*
X0001895Y0007108D01*
X0001860Y0007274D01*
X0001829Y0007440D01*
X0001803Y0007607D01*
X0001780Y0007775D01*
X0001761Y0007943D01*
X0001747Y0008111D01*
X0001736Y0008280D01*
X0001730Y0008449D01*
X0001728Y0008618D01*
X0001728Y0234602D02*
X0001730Y0234771D01*
X0001736Y0234940D01*
X0001747Y0235109D01*
X0001761Y0235277D01*
X0001780Y0235445D01*
X0001803Y0235613D01*
X0001829Y0235780D01*
X0001860Y0235946D01*
X0001895Y0236112D01*
X0001934Y0236276D01*
X0001978Y0236440D01*
X0002025Y0236602D01*
X0002076Y0236763D01*
X0002131Y0236923D01*
X0002190Y0237082D01*
X0002252Y0237239D01*
X0002319Y0237394D01*
X0002390Y0237548D01*
X0002464Y0237700D01*
X0002542Y0237850D01*
X0002623Y0237998D01*
X0002708Y0238144D01*
X0002797Y0238288D01*
X0002889Y0238430D01*
X0002985Y0238569D01*
X0003084Y0238706D01*
X0003186Y0238841D01*
X0003292Y0238973D01*
X0003401Y0239102D01*
X0003513Y0239229D01*
X0003628Y0239353D01*
X0003746Y0239474D01*
X0003867Y0239592D01*
X0003991Y0239707D01*
X0004118Y0239819D01*
X0004247Y0239928D01*
X0004379Y0240034D01*
X0004514Y0240136D01*
X0004651Y0240235D01*
X0004790Y0240331D01*
X0004932Y0240423D01*
X0005076Y0240512D01*
X0005222Y0240597D01*
X0005370Y0240678D01*
X0005520Y0240756D01*
X0005672Y0240830D01*
X0005826Y0240901D01*
X0005981Y0240968D01*
X0006138Y0241030D01*
X0006297Y0241089D01*
X0006457Y0241144D01*
X0006618Y0241195D01*
X0006780Y0241242D01*
X0006944Y0241286D01*
X0007108Y0241325D01*
X0007274Y0241360D01*
X0007440Y0241391D01*
X0007607Y0241417D01*
X0007775Y0241440D01*
X0007943Y0241459D01*
X0008111Y0241473D01*
X0008280Y0241484D01*
X0008449Y0241490D01*
X0008618Y0241492D01*
X0008787Y0241490D01*
X0008956Y0241484D01*
X0009125Y0241473D01*
X0009293Y0241459D01*
X0009461Y0241440D01*
X0009629Y0241417D01*
X0009796Y0241391D01*
X0009962Y0241360D01*
X0010128Y0241325D01*
X0010292Y0241286D01*
X0010456Y0241242D01*
X0010618Y0241195D01*
X0010779Y0241144D01*
X0010939Y0241089D01*
X0011098Y0241030D01*
X0011255Y0240968D01*
X0011410Y0240901D01*
X0011564Y0240830D01*
X0011716Y0240756D01*
X0011866Y0240678D01*
X0012014Y0240597D01*
X0012160Y0240512D01*
X0012304Y0240423D01*
X0012446Y0240331D01*
X0012585Y0240235D01*
X0012722Y0240136D01*
X0012857Y0240034D01*
X0012989Y0239928D01*
X0013118Y0239819D01*
X0013245Y0239707D01*
X0013369Y0239592D01*
X0013490Y0239474D01*
X0013608Y0239353D01*
X0013723Y0239229D01*
X0013835Y0239102D01*
X0013944Y0238973D01*
X0014050Y0238841D01*
X0014152Y0238706D01*
X0014251Y0238569D01*
X0014347Y0238430D01*
X0014439Y0238288D01*
X0014528Y0238144D01*
X0014613Y0237998D01*
X0014694Y0237850D01*
X0014772Y0237700D01*
X0014846Y0237548D01*
X0014917Y0237394D01*
X0014984Y0237239D01*
X0015046Y0237082D01*
X0015105Y0236923D01*
X0015160Y0236763D01*
X0015211Y0236602D01*
X0015258Y0236440D01*
X0015302Y0236276D01*
X0015341Y0236112D01*
X0015376Y0235946D01*
X0015407Y0235780D01*
X0015433Y0235613D01*
X0015456Y0235445D01*
X0015475Y0235277D01*
X0015489Y0235109D01*
X0015500Y0234940D01*
X0015506Y0234771D01*
X0015508Y0234602D01*
X0015506Y0234433D01*
X0015500Y0234264D01*
X0015489Y0234095D01*
X0015475Y0233927D01*
X0015456Y0233759D01*
X0015433Y0233591D01*
X0015407Y0233424D01*
X0015376Y0233258D01*
X0015341Y0233092D01*
X0015302Y0232928D01*
X0015258Y0232764D01*
X0015211Y0232602D01*
X0015160Y0232441D01*
X0015105Y0232281D01*
X0015046Y0232122D01*
X0014984Y0231965D01*
X0014917Y0231810D01*
X0014846Y0231656D01*
X0014772Y0231504D01*
X0014694Y0231354D01*
X0014613Y0231206D01*
X0014528Y0231060D01*
X0014439Y0230916D01*
X0014347Y0230774D01*
X0014251Y0230635D01*
X0014152Y0230498D01*
X0014050Y0230363D01*
X0013944Y0230231D01*
X0013835Y0230102D01*
X0013723Y0229975D01*
X0013608Y0229851D01*
X0013490Y0229730D01*
X0013369Y0229612D01*
X0013245Y0229497D01*
X0013118Y0229385D01*
X0012989Y0229276D01*
X0012857Y0229170D01*
X0012722Y0229068D01*
X0012585Y0228969D01*
X0012446Y0228873D01*
X0012304Y0228781D01*
X0012160Y0228692D01*
X0012014Y0228607D01*
X0011866Y0228526D01*
X0011716Y0228448D01*
X0011564Y0228374D01*
X0011410Y0228303D01*
X0011255Y0228236D01*
X0011098Y0228174D01*
X0010939Y0228115D01*
X0010779Y0228060D01*
X0010618Y0228009D01*
X0010456Y0227962D01*
X0010292Y0227918D01*
X0010128Y0227879D01*
X0009962Y0227844D01*
X0009796Y0227813D01*
X0009629Y0227787D01*
X0009461Y0227764D01*
X0009293Y0227745D01*
X0009125Y0227731D01*
X0008956Y0227720D01*
X0008787Y0227714D01*
X0008618Y0227712D01*
X0008449Y0227714D01*
X0008280Y0227720D01*
X0008111Y0227731D01*
X0007943Y0227745D01*
X0007775Y0227764D01*
X0007607Y0227787D01*
X0007440Y0227813D01*
X0007274Y0227844D01*
X0007108Y0227879D01*
X0006944Y0227918D01*
X0006780Y0227962D01*
X0006618Y0228009D01*
X0006457Y0228060D01*
X0006297Y0228115D01*
X0006138Y0228174D01*
X0005981Y0228236D01*
X0005826Y0228303D01*
X0005672Y0228374D01*
X0005520Y0228448D01*
X0005370Y0228526D01*
X0005222Y0228607D01*
X0005076Y0228692D01*
X0004932Y0228781D01*
X0004790Y0228873D01*
X0004651Y0228969D01*
X0004514Y0229068D01*
X0004379Y0229170D01*
X0004247Y0229276D01*
X0004118Y0229385D01*
X0003991Y0229497D01*
X0003867Y0229612D01*
X0003746Y0229730D01*
X0003628Y0229851D01*
X0003513Y0229975D01*
X0003401Y0230102D01*
X0003292Y0230231D01*
X0003186Y0230363D01*
X0003084Y0230498D01*
X0002985Y0230635D01*
X0002889Y0230774D01*
X0002797Y0230916D01*
X0002708Y0231060D01*
X0002623Y0231206D01*
X0002542Y0231354D01*
X0002464Y0231504D01*
X0002390Y0231656D01*
X0002319Y0231810D01*
X0002252Y0231965D01*
X0002190Y0232122D01*
X0002131Y0232281D01*
X0002076Y0232441D01*
X0002025Y0232602D01*
X0001978Y0232764D01*
X0001934Y0232928D01*
X0001895Y0233092D01*
X0001860Y0233258D01*
X0001829Y0233424D01*
X0001803Y0233591D01*
X0001780Y0233759D01*
X0001761Y0233927D01*
X0001747Y0234095D01*
X0001736Y0234264D01*
X0001730Y0234433D01*
X0001728Y0234602D01*
D11*
X0026376Y0186578D02*
X0025759Y0185961D01*
X0025759Y0184727D01*
X0026376Y0184109D01*
X0026376Y0182895D02*
X0025759Y0182278D01*
X0025759Y0181043D01*
X0026376Y0180426D01*
X0028845Y0180426D01*
X0029462Y0181043D01*
X0029462Y0182278D01*
X0028845Y0182895D01*
X0029462Y0184109D02*
X0026993Y0186578D01*
X0026376Y0186578D01*
X0029462Y0186578D02*
X0029462Y0184109D01*
X0010365Y0160825D02*
X0012833Y0158356D01*
X0013450Y0158356D01*
X0012833Y0157142D02*
X0013450Y0156524D01*
X0013450Y0155290D01*
X0012833Y0154673D01*
X0010365Y0154673D01*
X0009747Y0155290D01*
X0009747Y0156524D01*
X0010365Y0157142D01*
X0009747Y0158356D02*
X0009747Y0160825D01*
X0010365Y0160825D01*
X0010031Y0143299D02*
X0006328Y0143299D01*
X0007562Y0143299D02*
X0007562Y0141447D01*
X0008179Y0140830D01*
X0009414Y0140830D01*
X0010031Y0141447D01*
X0010031Y0143299D01*
X0008797Y0139616D02*
X0008797Y0137147D01*
X0009414Y0137147D02*
X0008179Y0137147D01*
X0007562Y0137764D01*
X0007562Y0138998D01*
X0008179Y0139616D01*
X0008797Y0139616D01*
X0010031Y0138998D02*
X0010031Y0137764D01*
X0009414Y0137147D01*
X0010031Y0135926D02*
X0009414Y0135309D01*
X0006945Y0135309D01*
X0007562Y0135926D02*
X0007562Y0134691D01*
X0007562Y0133477D02*
X0007562Y0131625D01*
X0008179Y0131008D01*
X0009414Y0131008D01*
X0010031Y0131625D01*
X0010031Y0133477D01*
X0008797Y0129794D02*
X0008797Y0127325D01*
X0009414Y0127325D02*
X0008179Y0127325D01*
X0007562Y0127942D01*
X0007562Y0129177D01*
X0008179Y0129794D01*
X0008797Y0129794D01*
X0010031Y0129177D02*
X0010031Y0127942D01*
X0009414Y0127325D01*
X0010031Y0126111D02*
X0008179Y0126111D01*
X0007562Y0125494D01*
X0007562Y0123642D01*
X0010031Y0123642D01*
X0010031Y0122428D02*
X0008179Y0122428D01*
X0007562Y0121810D01*
X0007562Y0119959D01*
X0010031Y0119959D01*
X0009414Y0118744D02*
X0008179Y0118744D01*
X0007562Y0118127D01*
X0007562Y0116893D01*
X0008179Y0116276D01*
X0009414Y0116276D01*
X0010031Y0116893D01*
X0010031Y0118127D01*
X0009414Y0118744D01*
X0010031Y0115061D02*
X0010031Y0113210D01*
X0009414Y0112593D01*
X0008179Y0112593D01*
X0007562Y0113210D01*
X0007562Y0115061D01*
X0007562Y0107695D02*
X0010648Y0107695D01*
X0011265Y0107078D01*
X0011265Y0106461D01*
X0010031Y0105843D02*
X0010031Y0107695D01*
X0010031Y0105843D02*
X0009414Y0105226D01*
X0007562Y0105226D01*
X0007562Y0104009D02*
X0007562Y0103391D01*
X0008797Y0102157D01*
X0008797Y0100943D02*
X0008797Y0098474D01*
X0009414Y0098474D02*
X0008179Y0098474D01*
X0007562Y0099091D01*
X0007562Y0100325D01*
X0008179Y0100943D01*
X0008797Y0100943D01*
X0010031Y0100325D02*
X0010031Y0099091D01*
X0009414Y0098474D01*
X0010031Y0097253D02*
X0009414Y0096636D01*
X0006945Y0096636D01*
X0007562Y0097253D02*
X0007562Y0096018D01*
X0007562Y0094797D02*
X0007562Y0093563D01*
X0006945Y0094180D02*
X0009414Y0094180D01*
X0010031Y0094797D01*
X0010031Y0092349D02*
X0010031Y0090497D01*
X0009414Y0089880D01*
X0008797Y0090497D01*
X0008797Y0092349D01*
X0008179Y0092349D02*
X0010031Y0092349D01*
X0008179Y0092349D02*
X0007562Y0091731D01*
X0007562Y0090497D01*
X0007562Y0088665D02*
X0008179Y0088048D01*
X0008179Y0086197D01*
X0006328Y0086197D02*
X0010031Y0086197D01*
X0010031Y0088048D01*
X0009414Y0088665D01*
X0008797Y0088665D01*
X0008179Y0088048D01*
X0007562Y0088665D02*
X0006945Y0088665D01*
X0006328Y0088048D01*
X0006328Y0086197D01*
X0006328Y0081293D02*
X0006945Y0080675D01*
X0010031Y0080675D01*
X0010031Y0078837D02*
X0010031Y0077603D01*
X0010031Y0078220D02*
X0007562Y0078220D01*
X0007562Y0077603D01*
X0006328Y0078220D02*
X0005711Y0078220D01*
X0008179Y0080058D02*
X0008179Y0081293D01*
X0008179Y0072705D02*
X0007562Y0072088D01*
X0007562Y0070854D01*
X0008179Y0070236D01*
X0009414Y0070236D01*
X0010031Y0070854D01*
X0010031Y0072088D01*
X0008797Y0072705D02*
X0008797Y0070236D01*
X0007562Y0069022D02*
X0010031Y0067788D01*
X0007562Y0066553D01*
X0008179Y0065339D02*
X0007562Y0064722D01*
X0007562Y0063487D01*
X0008179Y0062870D01*
X0009414Y0062870D01*
X0010031Y0063487D01*
X0010031Y0064722D01*
X0009414Y0065339D01*
X0008179Y0065339D01*
X0008179Y0061656D02*
X0010031Y0061656D01*
X0010031Y0060421D02*
X0008179Y0060421D01*
X0007562Y0061039D01*
X0008179Y0061656D01*
X0008179Y0060421D02*
X0007562Y0059804D01*
X0007562Y0059187D01*
X0010031Y0059187D01*
X0008797Y0057973D02*
X0008797Y0055504D01*
X0009414Y0055504D02*
X0008179Y0055504D01*
X0007562Y0056121D01*
X0007562Y0057355D01*
X0008179Y0057973D01*
X0008797Y0057973D01*
X0010031Y0057355D02*
X0010031Y0056121D01*
X0009414Y0055504D01*
X0010031Y0054289D02*
X0008797Y0053055D01*
X0008797Y0053672D02*
X0008797Y0051821D01*
X0010031Y0051821D02*
X0006328Y0051821D01*
X0006328Y0053672D01*
X0006945Y0054289D01*
X0008179Y0054289D01*
X0008797Y0053672D01*
X0008797Y0072705D02*
X0008179Y0072705D01*
X0030227Y0082781D02*
X0030844Y0082164D01*
X0033313Y0082164D01*
X0033930Y0082781D01*
X0033930Y0084015D01*
X0033313Y0084633D01*
X0033313Y0085847D02*
X0033930Y0086464D01*
X0033930Y0087699D01*
X0033313Y0088316D01*
X0032696Y0088316D01*
X0032079Y0087699D01*
X0032079Y0085847D01*
X0033313Y0085847D01*
X0032079Y0085847D02*
X0030844Y0087081D01*
X0030227Y0088316D01*
X0030844Y0084633D02*
X0030227Y0084015D01*
X0030227Y0082781D01*
X0048348Y0084274D02*
X0048965Y0083657D01*
X0050200Y0083657D01*
X0050817Y0084274D01*
X0050817Y0087360D01*
X0052031Y0086743D02*
X0052648Y0087360D01*
X0053883Y0087360D01*
X0054500Y0086743D01*
X0054500Y0086125D01*
X0052031Y0083657D01*
X0054500Y0083657D01*
X0048348Y0084274D02*
X0048348Y0087360D01*
X0048946Y0065244D02*
X0047712Y0065244D01*
X0047095Y0064627D01*
X0047095Y0062158D01*
X0047712Y0061541D01*
X0048946Y0061541D01*
X0049563Y0062158D01*
X0050778Y0063393D02*
X0053246Y0063393D01*
X0052629Y0065244D02*
X0052629Y0061541D01*
X0050778Y0063393D02*
X0052629Y0065244D01*
X0049563Y0064627D02*
X0048946Y0065244D01*
X0075125Y0054328D02*
X0075125Y0053093D01*
X0075742Y0052476D01*
X0078211Y0052476D01*
X0078828Y0053093D01*
X0078828Y0054328D01*
X0078211Y0054945D01*
X0075742Y0054945D02*
X0075125Y0054328D01*
X0075742Y0051262D02*
X0075125Y0050645D01*
X0075125Y0049410D01*
X0075742Y0048793D01*
X0078211Y0048793D01*
X0078828Y0049410D01*
X0078828Y0050645D01*
X0078211Y0051262D01*
X0077594Y0047579D02*
X0075125Y0047579D01*
X0077594Y0047579D02*
X0078828Y0046344D01*
X0077594Y0045110D01*
X0075125Y0045110D01*
X0085125Y0044480D02*
X0086359Y0045714D01*
X0085125Y0046949D01*
X0088828Y0046949D01*
X0088211Y0048163D02*
X0086976Y0048163D01*
X0086359Y0048780D01*
X0086359Y0050015D01*
X0086976Y0050632D01*
X0088211Y0050632D01*
X0088828Y0050015D01*
X0088828Y0048780D01*
X0088211Y0048163D01*
X0095125Y0048793D02*
X0098828Y0051262D01*
X0095125Y0051262D01*
X0095125Y0052476D02*
X0095125Y0054328D01*
X0095742Y0054945D01*
X0098211Y0054945D01*
X0098828Y0054328D01*
X0098828Y0052476D01*
X0095125Y0052476D01*
X0095125Y0048793D02*
X0098828Y0048793D01*
X0098211Y0047579D02*
X0096976Y0047579D01*
X0096976Y0046344D01*
X0095742Y0045110D02*
X0098211Y0045110D01*
X0098828Y0045727D01*
X0098828Y0046962D01*
X0098211Y0047579D01*
X0095742Y0047579D02*
X0095125Y0046962D01*
X0095125Y0045727D01*
X0095742Y0045110D01*
X0088828Y0044480D02*
X0085125Y0044480D01*
X0105806Y0045210D02*
X0109509Y0047679D01*
X0105806Y0047679D01*
X0106423Y0048893D02*
X0107041Y0048893D01*
X0107658Y0049511D01*
X0107658Y0050745D01*
X0108275Y0051362D01*
X0108892Y0051362D01*
X0109509Y0050745D01*
X0109509Y0049511D01*
X0108892Y0048893D01*
X0106423Y0048893D02*
X0105806Y0049511D01*
X0105806Y0050745D01*
X0106423Y0051362D01*
X0106423Y0052577D02*
X0107041Y0052577D01*
X0107658Y0053194D01*
X0107658Y0054428D01*
X0108275Y0055045D01*
X0108892Y0055045D01*
X0109509Y0054428D01*
X0109509Y0053194D01*
X0108892Y0052577D01*
X0106423Y0052577D02*
X0105806Y0053194D01*
X0105806Y0054428D01*
X0106423Y0055045D01*
X0115432Y0053162D02*
X0116666Y0054396D01*
X0119135Y0054396D01*
X0117284Y0054396D02*
X0117284Y0051927D01*
X0116666Y0051927D02*
X0115432Y0053162D01*
X0116666Y0051927D02*
X0119135Y0051927D01*
X0118518Y0050713D02*
X0119135Y0050096D01*
X0119135Y0048244D01*
X0115432Y0048244D01*
X0115432Y0050096D01*
X0116049Y0050713D01*
X0118518Y0050713D01*
X0118518Y0047030D02*
X0119135Y0046412D01*
X0119135Y0045178D01*
X0118518Y0044561D01*
X0117284Y0045178D02*
X0117284Y0046412D01*
X0117901Y0047030D01*
X0118518Y0047030D01*
X0117284Y0045178D02*
X0116666Y0044561D01*
X0116049Y0044561D01*
X0115432Y0045178D01*
X0115432Y0046412D01*
X0116049Y0047030D01*
X0109509Y0045210D02*
X0105806Y0045210D01*
X0126095Y0048201D02*
X0126095Y0050669D01*
X0126095Y0051884D02*
X0129798Y0054352D01*
X0129798Y0051884D02*
X0126095Y0054352D01*
X0126095Y0049435D02*
X0129798Y0049435D01*
X0126772Y0075954D02*
X0127390Y0076571D01*
X0127390Y0077805D01*
X0126772Y0078423D01*
X0126155Y0078423D01*
X0125538Y0077805D01*
X0125538Y0076571D01*
X0124921Y0075954D01*
X0124304Y0075954D01*
X0123686Y0076571D01*
X0123686Y0077805D01*
X0124304Y0078423D01*
X0124304Y0079637D02*
X0126772Y0079637D01*
X0127390Y0080254D01*
X0127390Y0081489D01*
X0126772Y0082106D01*
X0127390Y0083320D02*
X0123686Y0083320D01*
X0124304Y0082106D02*
X0123686Y0081489D01*
X0123686Y0080254D01*
X0124304Y0079637D01*
X0127390Y0083320D02*
X0127390Y0085789D01*
X0133686Y0084417D02*
X0134921Y0085651D01*
X0137390Y0085651D01*
X0135538Y0085651D02*
X0135538Y0083182D01*
X0134921Y0083182D02*
X0133686Y0084417D01*
X0134921Y0083182D02*
X0137390Y0083182D01*
X0136772Y0081968D02*
X0134304Y0081968D01*
X0133686Y0081351D01*
X0133686Y0079499D01*
X0137390Y0079499D01*
X0137390Y0081351D01*
X0136772Y0081968D01*
X0136772Y0078285D02*
X0137390Y0077668D01*
X0137390Y0076433D01*
X0136772Y0075816D01*
X0135538Y0076433D02*
X0135538Y0077668D01*
X0136155Y0078285D01*
X0136772Y0078285D01*
X0135538Y0076433D02*
X0134921Y0075816D01*
X0134304Y0075816D01*
X0133686Y0076433D01*
X0133686Y0077668D01*
X0134304Y0078285D01*
X0143686Y0078409D02*
X0143686Y0080261D01*
X0144304Y0080878D01*
X0145538Y0080878D01*
X0146155Y0080261D01*
X0146155Y0078409D01*
X0147390Y0078409D02*
X0143686Y0078409D01*
X0143686Y0077188D02*
X0143686Y0075954D01*
X0143686Y0076571D02*
X0147390Y0076571D01*
X0147390Y0075954D02*
X0147390Y0077188D01*
X0146155Y0079644D02*
X0147390Y0080878D01*
X0146772Y0082092D02*
X0147390Y0082710D01*
X0147390Y0083944D01*
X0146772Y0084561D01*
X0144304Y0084561D01*
X0143686Y0083944D01*
X0143686Y0082710D01*
X0144304Y0082092D01*
X0146772Y0082092D01*
X0146155Y0083327D02*
X0147390Y0084561D01*
X0153686Y0085034D02*
X0154304Y0085651D01*
X0153686Y0085034D02*
X0153686Y0083799D01*
X0154304Y0083182D01*
X0154921Y0083182D01*
X0155538Y0083799D01*
X0155538Y0085034D01*
X0156155Y0085651D01*
X0156772Y0085651D01*
X0157390Y0085034D01*
X0157390Y0083799D01*
X0156772Y0083182D01*
X0156772Y0081968D02*
X0157390Y0081351D01*
X0157390Y0080116D01*
X0156772Y0079499D01*
X0157390Y0078285D02*
X0153686Y0078285D01*
X0154304Y0079499D02*
X0154921Y0079499D01*
X0155538Y0080116D01*
X0155538Y0081351D01*
X0156155Y0081968D01*
X0156772Y0081968D01*
X0154304Y0081968D02*
X0153686Y0081351D01*
X0153686Y0080116D01*
X0154304Y0079499D01*
X0157390Y0078285D02*
X0153686Y0075816D01*
X0157390Y0075816D01*
X0163686Y0079123D02*
X0163686Y0080975D01*
X0164304Y0081592D01*
X0166772Y0081592D01*
X0167390Y0080975D01*
X0167390Y0079123D01*
X0163686Y0079123D01*
X0164304Y0082806D02*
X0163686Y0083423D01*
X0163686Y0084658D01*
X0164304Y0085275D01*
X0166772Y0085275D01*
X0167390Y0084658D01*
X0167390Y0083423D01*
X0166772Y0082806D01*
X0164304Y0082806D01*
X0166155Y0084041D02*
X0167390Y0085275D01*
X0173515Y0085879D02*
X0174132Y0085262D01*
X0176601Y0085262D01*
X0177218Y0085879D01*
X0177218Y0087113D01*
X0176601Y0087730D01*
X0174132Y0087730D01*
X0173515Y0087113D01*
X0173515Y0085879D01*
X0173515Y0084041D02*
X0173515Y0082806D01*
X0173515Y0083423D02*
X0177218Y0083423D01*
X0177218Y0082806D02*
X0177218Y0084041D01*
X0175367Y0081592D02*
X0174132Y0081592D01*
X0173515Y0080975D01*
X0173515Y0079123D01*
X0177218Y0079123D01*
X0175984Y0079123D02*
X0175984Y0080975D01*
X0175367Y0081592D01*
X0206199Y0102194D02*
X0206199Y0105897D01*
X0208051Y0105897D01*
X0208668Y0105280D01*
X0208668Y0104045D01*
X0208051Y0103428D01*
X0206199Y0103428D01*
X0207434Y0103428D02*
X0208668Y0102194D01*
X0209883Y0102811D02*
X0210500Y0102194D01*
X0211734Y0102194D01*
X0212351Y0102811D01*
X0212351Y0104045D01*
X0211734Y0104662D01*
X0211117Y0104662D01*
X0209883Y0104045D01*
X0209883Y0105897D01*
X0212351Y0105897D01*
X0212643Y0111883D02*
X0212643Y0114352D01*
X0214495Y0114352D01*
X0215112Y0113735D01*
X0215112Y0111883D01*
X0216326Y0111883D02*
X0218178Y0111883D01*
X0218795Y0112500D01*
X0218178Y0113117D01*
X0216944Y0113117D01*
X0216326Y0113735D01*
X0216944Y0114352D01*
X0218795Y0114352D01*
X0223693Y0114352D02*
X0224927Y0114352D01*
X0224310Y0114969D02*
X0224310Y0112500D01*
X0224927Y0111883D01*
X0226148Y0112500D02*
X0226765Y0111883D01*
X0228000Y0111883D01*
X0228617Y0112500D01*
X0228617Y0113735D01*
X0228000Y0114352D01*
X0226765Y0114352D01*
X0226148Y0113735D01*
X0226148Y0112500D01*
X0233514Y0112500D02*
X0233514Y0113735D01*
X0234132Y0114352D01*
X0235366Y0114352D01*
X0235983Y0113735D01*
X0235983Y0113117D01*
X0233514Y0113117D01*
X0233514Y0112500D02*
X0234132Y0111883D01*
X0235366Y0111883D01*
X0237198Y0111883D02*
X0237198Y0114352D01*
X0239049Y0114352D01*
X0239666Y0113735D01*
X0239666Y0111883D01*
X0240881Y0112500D02*
X0241498Y0111883D01*
X0243350Y0111883D01*
X0243350Y0113735D01*
X0242732Y0114352D01*
X0241498Y0114352D01*
X0241498Y0113117D02*
X0243350Y0113117D01*
X0244564Y0111883D02*
X0246415Y0111883D01*
X0247033Y0112500D01*
X0247033Y0113735D01*
X0246415Y0114352D01*
X0244564Y0114352D01*
X0244564Y0115586D02*
X0244564Y0111883D01*
X0241498Y0113117D02*
X0240881Y0112500D01*
X0248247Y0111883D02*
X0249481Y0111883D01*
X0248864Y0111883D02*
X0248864Y0115586D01*
X0248247Y0115586D01*
X0250702Y0113735D02*
X0251320Y0114352D01*
X0252554Y0114352D01*
X0253171Y0113735D01*
X0253171Y0113117D01*
X0250702Y0113117D01*
X0250702Y0112500D02*
X0250702Y0113735D01*
X0250702Y0112500D02*
X0251320Y0111883D01*
X0252554Y0111883D01*
X0258069Y0111883D02*
X0259303Y0111883D01*
X0258686Y0111883D02*
X0258686Y0115586D01*
X0258069Y0115586D02*
X0259303Y0115586D01*
X0260524Y0114969D02*
X0260524Y0114352D01*
X0261141Y0113735D01*
X0262376Y0113735D01*
X0262993Y0113117D01*
X0262993Y0112500D01*
X0262376Y0111883D01*
X0261141Y0111883D01*
X0260524Y0112500D01*
X0260524Y0114969D02*
X0261141Y0115586D01*
X0262376Y0115586D01*
X0262993Y0114969D01*
X0264207Y0115586D02*
X0266059Y0115586D01*
X0266676Y0114969D01*
X0266676Y0113735D01*
X0266059Y0113117D01*
X0264207Y0113117D01*
X0264207Y0111883D02*
X0264207Y0115586D01*
X0256098Y0122883D02*
X0255481Y0122883D01*
X0255481Y0123500D01*
X0256098Y0123500D01*
X0256098Y0122883D01*
X0254266Y0122883D02*
X0254266Y0124734D01*
X0253649Y0125352D01*
X0251797Y0125352D01*
X0251797Y0122883D01*
X0250583Y0122883D02*
X0248114Y0122883D01*
X0248114Y0126586D01*
X0250583Y0126586D01*
X0249349Y0124734D02*
X0248114Y0124734D01*
X0243217Y0124734D02*
X0243217Y0125969D01*
X0242600Y0126586D01*
X0240748Y0126586D01*
X0240748Y0122883D01*
X0240748Y0124117D02*
X0242600Y0124117D01*
X0243217Y0124734D01*
X0239534Y0124117D02*
X0239534Y0123500D01*
X0238916Y0122883D01*
X0237682Y0122883D01*
X0237065Y0123500D01*
X0235844Y0122883D02*
X0234609Y0122883D01*
X0235227Y0122883D02*
X0235227Y0126586D01*
X0235844Y0126586D02*
X0234609Y0126586D01*
X0237065Y0125969D02*
X0237065Y0125352D01*
X0237682Y0124734D01*
X0238916Y0124734D01*
X0239534Y0124117D01*
X0239534Y0125969D02*
X0238916Y0126586D01*
X0237682Y0126586D01*
X0237065Y0125969D01*
X0210805Y0116203D02*
X0210805Y0115586D01*
X0210805Y0114352D02*
X0210188Y0114352D01*
X0210805Y0114352D02*
X0210805Y0111883D01*
X0210188Y0111883D02*
X0211422Y0111883D01*
X0208974Y0112500D02*
X0208356Y0111883D01*
X0206505Y0111883D01*
X0206505Y0110649D02*
X0206505Y0114352D01*
X0208356Y0114352D01*
X0208974Y0113735D01*
X0208974Y0112500D01*
X0201607Y0113117D02*
X0199138Y0113117D01*
X0199138Y0112500D02*
X0199138Y0113735D01*
X0199756Y0114352D01*
X0200990Y0114352D01*
X0201607Y0113735D01*
X0201607Y0113117D01*
X0200990Y0111883D02*
X0199756Y0111883D01*
X0199138Y0112500D01*
X0197924Y0111883D02*
X0196073Y0111883D01*
X0195455Y0112500D01*
X0195455Y0113735D01*
X0196073Y0114352D01*
X0197924Y0114352D01*
X0197924Y0111266D01*
X0197307Y0110649D01*
X0196690Y0110649D01*
X0194241Y0111883D02*
X0192389Y0111883D01*
X0191772Y0112500D01*
X0191772Y0113735D01*
X0192389Y0114352D01*
X0194241Y0114352D01*
X0194241Y0115586D02*
X0194241Y0111883D01*
X0190551Y0111883D02*
X0189317Y0111883D01*
X0189934Y0111883D02*
X0189934Y0114352D01*
X0189317Y0114352D01*
X0188099Y0114352D02*
X0187482Y0114352D01*
X0186247Y0113117D01*
X0185033Y0113117D02*
X0185033Y0112500D01*
X0184416Y0111883D01*
X0182564Y0111883D01*
X0182564Y0115586D01*
X0184416Y0115586D01*
X0185033Y0114969D01*
X0185033Y0114352D01*
X0184416Y0113735D01*
X0182564Y0113735D01*
X0184416Y0113735D02*
X0185033Y0113117D01*
X0186247Y0111883D02*
X0186247Y0114352D01*
X0189934Y0115586D02*
X0189934Y0116203D01*
X0197179Y0123815D02*
X0197796Y0123198D01*
X0199030Y0123198D01*
X0199648Y0123815D01*
X0199648Y0125049D01*
X0199030Y0125666D01*
X0198413Y0125666D01*
X0197179Y0125049D01*
X0197179Y0126901D01*
X0199648Y0126901D01*
X0200862Y0126901D02*
X0200862Y0124432D01*
X0202096Y0123198D01*
X0203331Y0124432D01*
X0203331Y0126901D01*
X0178039Y0126401D02*
X0177422Y0125784D01*
X0178039Y0126401D02*
X0178039Y0127636D01*
X0177422Y0128253D01*
X0176805Y0128253D01*
X0176187Y0127636D01*
X0176187Y0126401D01*
X0175570Y0125784D01*
X0174953Y0125784D01*
X0174336Y0126401D01*
X0174336Y0127636D01*
X0174953Y0128253D01*
X0174336Y0129467D02*
X0174336Y0131936D01*
X0174336Y0130702D02*
X0178039Y0130702D01*
X0178039Y0124570D02*
X0176805Y0123335D01*
X0176805Y0123953D02*
X0176805Y0122101D01*
X0178039Y0122101D02*
X0174336Y0122101D01*
X0174336Y0123953D01*
X0174953Y0124570D01*
X0176187Y0124570D01*
X0176805Y0123953D01*
X0166219Y0124570D02*
X0164985Y0123335D01*
X0164985Y0123953D02*
X0164985Y0122101D01*
X0166219Y0122101D02*
X0162516Y0122101D01*
X0162516Y0123953D01*
X0163133Y0124570D01*
X0164368Y0124570D01*
X0164985Y0123953D01*
X0166219Y0125784D02*
X0162516Y0128253D01*
X0162516Y0125784D02*
X0166219Y0128253D01*
X0156219Y0128922D02*
X0152516Y0126454D01*
X0152516Y0125239D02*
X0152516Y0122770D01*
X0152516Y0124005D02*
X0156219Y0124005D01*
X0156219Y0126454D02*
X0152516Y0128922D01*
X0136219Y0128681D02*
X0136219Y0126830D01*
X0132516Y0126830D01*
X0132516Y0128681D01*
X0133133Y0129298D01*
X0135602Y0129298D01*
X0136219Y0128681D01*
X0136219Y0125615D02*
X0132516Y0125615D01*
X0132516Y0123146D02*
X0136219Y0125615D01*
X0136219Y0123146D02*
X0132516Y0123146D01*
X0133133Y0121932D02*
X0132516Y0121315D01*
X0132516Y0120080D01*
X0133133Y0119463D01*
X0135602Y0119463D01*
X0136219Y0120080D01*
X0136219Y0121315D01*
X0135602Y0121932D01*
X0134368Y0121932D01*
X0134368Y0120698D01*
X0126219Y0121315D02*
X0125602Y0121932D01*
X0124368Y0121932D01*
X0124368Y0120698D01*
X0123133Y0121932D02*
X0122516Y0121315D01*
X0122516Y0120080D01*
X0123133Y0119463D01*
X0125602Y0119463D01*
X0126219Y0120080D01*
X0126219Y0121315D01*
X0126219Y0123146D02*
X0122516Y0123146D01*
X0126219Y0125615D01*
X0122516Y0125615D01*
X0122516Y0126830D02*
X0122516Y0128681D01*
X0123133Y0129298D01*
X0125602Y0129298D01*
X0126219Y0128681D01*
X0126219Y0126830D01*
X0122516Y0126830D01*
X0106219Y0126830D02*
X0106219Y0128681D01*
X0105602Y0129298D01*
X0103133Y0129298D01*
X0102516Y0128681D01*
X0102516Y0126830D01*
X0106219Y0126830D01*
X0106219Y0125615D02*
X0102516Y0125615D01*
X0102516Y0123146D02*
X0106219Y0125615D01*
X0106219Y0123146D02*
X0102516Y0123146D01*
X0103133Y0121932D02*
X0102516Y0121315D01*
X0102516Y0120080D01*
X0103133Y0119463D01*
X0105602Y0119463D01*
X0106219Y0120080D01*
X0106219Y0121315D01*
X0105602Y0121932D01*
X0104368Y0121932D01*
X0104368Y0120698D01*
X0096219Y0122770D02*
X0092516Y0122770D01*
X0093751Y0124005D01*
X0092516Y0125239D01*
X0096219Y0125239D01*
X0095602Y0126454D02*
X0094368Y0126454D01*
X0093751Y0127071D01*
X0093751Y0128305D01*
X0094368Y0128922D01*
X0095602Y0128922D01*
X0096219Y0128305D01*
X0096219Y0127071D01*
X0095602Y0126454D01*
X0086219Y0127447D02*
X0086219Y0128681D01*
X0085602Y0129298D01*
X0086219Y0127447D02*
X0085602Y0126830D01*
X0083133Y0126830D01*
X0082516Y0127447D01*
X0082516Y0128681D01*
X0083133Y0129298D01*
X0083133Y0125615D02*
X0082516Y0124998D01*
X0082516Y0123764D01*
X0083133Y0123146D01*
X0085602Y0123146D01*
X0086219Y0123764D01*
X0086219Y0124998D01*
X0085602Y0125615D01*
X0084985Y0121932D02*
X0082516Y0121932D01*
X0082516Y0119463D02*
X0084985Y0119463D01*
X0086219Y0120698D01*
X0084985Y0121932D01*
X0084829Y0146309D02*
X0082360Y0146309D01*
X0081743Y0146926D01*
X0081743Y0148160D01*
X0082360Y0148777D01*
X0082360Y0149992D02*
X0081743Y0150609D01*
X0081743Y0151843D01*
X0082360Y0152461D01*
X0082977Y0152461D01*
X0083594Y0151843D01*
X0084212Y0152461D01*
X0084829Y0152461D01*
X0085446Y0151843D01*
X0085446Y0150609D01*
X0084829Y0149992D01*
X0084829Y0148777D02*
X0085446Y0148160D01*
X0085446Y0146926D01*
X0084829Y0146309D01*
X0083594Y0151226D02*
X0083594Y0151843D01*
X0073037Y0151484D02*
X0070568Y0151484D01*
X0073037Y0153952D01*
X0073037Y0154569D01*
X0072420Y0155187D01*
X0071185Y0155187D01*
X0070568Y0154569D01*
X0069354Y0154569D02*
X0069354Y0153335D01*
X0068737Y0152718D01*
X0066885Y0152718D01*
X0068119Y0152718D02*
X0069354Y0151484D01*
X0066885Y0151484D02*
X0066885Y0155187D01*
X0068737Y0155187D01*
X0069354Y0154569D01*
X0075318Y0179459D02*
X0076552Y0179459D01*
X0077169Y0180076D01*
X0078383Y0179459D02*
X0078383Y0183162D01*
X0077169Y0182545D02*
X0076552Y0183162D01*
X0075318Y0183162D01*
X0074700Y0182545D01*
X0074700Y0180076D01*
X0075318Y0179459D01*
X0078383Y0181310D02*
X0080852Y0181310D01*
X0082067Y0180076D02*
X0082684Y0179459D01*
X0083918Y0179459D01*
X0084535Y0180076D01*
X0084535Y0180693D01*
X0083918Y0181310D01*
X0083301Y0181310D01*
X0083918Y0181310D02*
X0084535Y0181927D01*
X0084535Y0182545D01*
X0083918Y0183162D01*
X0082684Y0183162D01*
X0082067Y0182545D01*
X0080852Y0183162D02*
X0080852Y0179459D01*
X0085750Y0181310D02*
X0088219Y0181310D01*
X0089433Y0180076D02*
X0089433Y0182545D01*
X0090050Y0183162D01*
X0091284Y0183162D01*
X0091902Y0182545D01*
X0089433Y0180076D01*
X0090050Y0179459D01*
X0091284Y0179459D01*
X0091902Y0180076D01*
X0091902Y0182545D01*
X0087601Y0183162D02*
X0087601Y0179459D01*
X0085750Y0181310D02*
X0087601Y0183162D01*
X0135523Y0197016D02*
X0135523Y0198867D01*
X0136140Y0199485D01*
X0137374Y0199485D01*
X0137991Y0198867D01*
X0137991Y0197016D01*
X0137991Y0198250D02*
X0139226Y0199485D01*
X0138609Y0200699D02*
X0139226Y0201316D01*
X0139226Y0202550D01*
X0138609Y0203168D01*
X0137991Y0203168D01*
X0137374Y0202550D01*
X0137374Y0201933D01*
X0137374Y0202550D02*
X0136757Y0203168D01*
X0136140Y0203168D01*
X0135523Y0202550D01*
X0135523Y0201316D01*
X0136140Y0200699D01*
X0135523Y0197016D02*
X0139226Y0197016D01*
X0150405Y0162991D02*
X0152257Y0162991D01*
X0152874Y0162374D01*
X0152874Y0161140D01*
X0152257Y0160522D01*
X0150405Y0160522D01*
X0150405Y0159288D02*
X0150405Y0162991D01*
X0151640Y0160522D02*
X0152874Y0159288D01*
X0154089Y0159288D02*
X0154089Y0159905D01*
X0156557Y0162374D01*
X0156557Y0162991D01*
X0154089Y0162991D01*
X0175061Y0151464D02*
X0176913Y0149612D01*
X0176913Y0152081D01*
X0178764Y0151464D02*
X0175061Y0151464D01*
X0175678Y0148398D02*
X0176913Y0148398D01*
X0177530Y0147781D01*
X0177530Y0145929D01*
X0178764Y0145929D02*
X0175061Y0145929D01*
X0175061Y0147781D01*
X0175678Y0148398D01*
X0177530Y0147163D02*
X0178764Y0148398D01*
X0156647Y0146510D02*
X0156647Y0144041D01*
X0155413Y0142806D01*
X0154178Y0144041D01*
X0154178Y0146510D01*
X0152964Y0146510D02*
X0150495Y0146510D01*
X0150495Y0144658D01*
X0151729Y0145275D01*
X0152347Y0145275D01*
X0152964Y0144658D01*
X0152964Y0143424D01*
X0152347Y0142806D01*
X0151112Y0142806D01*
X0150495Y0143424D01*
X0209955Y0190663D02*
X0210572Y0190046D01*
X0213041Y0190046D01*
X0213658Y0190663D01*
X0213658Y0191897D01*
X0213041Y0192515D01*
X0211806Y0192515D01*
X0211806Y0191280D01*
X0210572Y0192515D02*
X0209955Y0191897D01*
X0209955Y0190663D01*
X0209955Y0193729D02*
X0213658Y0196198D01*
X0209955Y0196198D01*
X0209955Y0197412D02*
X0209955Y0199264D01*
X0210572Y0199881D01*
X0213041Y0199881D01*
X0213658Y0199264D01*
X0213658Y0197412D01*
X0209955Y0197412D01*
X0209955Y0193729D02*
X0213658Y0193729D01*
X0219020Y0191955D02*
X0220255Y0190721D01*
X0219020Y0189487D01*
X0222724Y0189487D01*
X0222724Y0191955D02*
X0219020Y0191955D01*
X0220255Y0193787D02*
X0220872Y0193170D01*
X0222106Y0193170D01*
X0222724Y0193787D01*
X0222724Y0195021D01*
X0222106Y0195639D01*
X0220872Y0195639D01*
X0220255Y0195021D01*
X0220255Y0193787D01*
X0230266Y0194346D02*
X0230883Y0193729D01*
X0233352Y0193729D01*
X0233969Y0194346D01*
X0233969Y0195581D01*
X0233352Y0196198D01*
X0233352Y0197412D02*
X0233969Y0198029D01*
X0233969Y0199264D01*
X0233352Y0199881D01*
X0230883Y0199881D02*
X0230266Y0199264D01*
X0230266Y0198029D01*
X0230883Y0197412D01*
X0233352Y0197412D01*
X0230883Y0196198D02*
X0230266Y0195581D01*
X0230266Y0194346D01*
X0230266Y0192515D02*
X0232735Y0192515D01*
X0233969Y0191280D01*
X0232735Y0190046D01*
X0230266Y0190046D01*
X0193224Y0197664D02*
X0192606Y0197047D01*
X0190138Y0197047D01*
X0189520Y0197664D01*
X0189520Y0198898D01*
X0190138Y0199515D01*
X0190755Y0200730D02*
X0189520Y0201964D01*
X0193224Y0201964D01*
X0193224Y0200730D02*
X0193224Y0203199D01*
X0193224Y0204413D02*
X0193224Y0206882D01*
X0193224Y0205647D02*
X0189520Y0205647D01*
X0190755Y0204413D01*
X0192606Y0199515D02*
X0193224Y0198898D01*
X0193224Y0197664D01*
X0209605Y0224728D02*
X0209605Y0226579D01*
X0210222Y0227197D01*
X0211457Y0227197D01*
X0212074Y0226579D01*
X0212074Y0224728D01*
X0213308Y0224728D02*
X0209605Y0224728D01*
X0212074Y0225962D02*
X0213308Y0227197D01*
X0212691Y0228411D02*
X0213308Y0229028D01*
X0213308Y0230263D01*
X0212691Y0230880D01*
X0212074Y0230880D01*
X0211457Y0230263D01*
X0211457Y0229028D01*
X0210839Y0228411D01*
X0210222Y0228411D01*
X0209605Y0229028D01*
X0209605Y0230263D01*
X0210222Y0230880D01*
X0209605Y0232094D02*
X0209605Y0234563D01*
X0209605Y0233328D02*
X0213308Y0233328D01*
X0219605Y0232406D02*
X0223308Y0232406D01*
X0222074Y0232406D02*
X0219605Y0234875D01*
X0221457Y0233023D02*
X0223308Y0234875D01*
X0229299Y0233627D02*
X0229916Y0233627D01*
X0231151Y0233627D02*
X0233619Y0233627D01*
X0233619Y0233010D02*
X0233619Y0234244D01*
X0233619Y0231796D02*
X0229916Y0231796D01*
X0231151Y0230561D01*
X0229916Y0229327D01*
X0233619Y0229327D01*
X0231151Y0233010D02*
X0231151Y0233627D01*
X0223308Y0230574D02*
X0222691Y0231191D01*
X0223308Y0230574D02*
X0223308Y0229340D01*
X0222691Y0228723D01*
X0220222Y0228723D01*
X0219605Y0229340D01*
X0219605Y0230574D01*
X0220222Y0231191D01*
X0220222Y0227508D02*
X0219605Y0226891D01*
X0219605Y0225657D01*
X0220222Y0225040D01*
X0220839Y0225040D01*
X0221457Y0225657D01*
X0221457Y0226891D01*
X0222074Y0227508D01*
X0222691Y0227508D01*
X0223308Y0226891D01*
X0223308Y0225657D01*
X0222691Y0225040D01*
X0272177Y0225826D02*
X0273412Y0225826D01*
X0272795Y0225826D02*
X0272795Y0229529D01*
X0273412Y0229529D02*
X0272177Y0229529D01*
X0274633Y0228912D02*
X0275250Y0229529D01*
X0276484Y0229529D01*
X0277102Y0228912D01*
X0277102Y0228295D01*
X0274633Y0225826D01*
X0277102Y0225826D01*
X0278316Y0226443D02*
X0278316Y0228912D01*
X0278933Y0229529D01*
X0280168Y0229529D01*
X0280785Y0228912D01*
X0280785Y0226443D02*
X0280168Y0225826D01*
X0278933Y0225826D01*
X0278316Y0226443D01*
X0285682Y0225826D02*
X0285682Y0229529D01*
X0288151Y0229529D01*
X0289365Y0229529D02*
X0291834Y0225826D01*
X0294283Y0225826D02*
X0294283Y0229529D01*
X0293049Y0229529D02*
X0295517Y0229529D01*
X0291834Y0229529D02*
X0289365Y0225826D01*
X0288151Y0225826D02*
X0285682Y0225826D01*
X0285682Y0227678D02*
X0286917Y0227678D01*
X0300415Y0227060D02*
X0302266Y0227060D01*
X0302884Y0227678D01*
X0302884Y0228912D01*
X0302266Y0229529D01*
X0300415Y0229529D01*
X0300415Y0225826D01*
X0304098Y0226443D02*
X0304098Y0227678D01*
X0304715Y0228295D01*
X0305950Y0228295D01*
X0306567Y0227678D01*
X0306567Y0226443D01*
X0305950Y0225826D01*
X0304715Y0225826D01*
X0304098Y0226443D01*
X0307781Y0226443D02*
X0307781Y0228295D01*
X0307781Y0226443D02*
X0308398Y0225826D01*
X0309015Y0226443D01*
X0309633Y0225826D01*
X0310250Y0226443D01*
X0310250Y0228295D01*
X0311464Y0227678D02*
X0312081Y0228295D01*
X0313316Y0228295D01*
X0313933Y0227678D01*
X0313933Y0227060D01*
X0311464Y0227060D01*
X0311464Y0226443D02*
X0311464Y0227678D01*
X0311464Y0226443D02*
X0312081Y0225826D01*
X0313316Y0225826D01*
X0315147Y0225826D02*
X0315147Y0228295D01*
X0315147Y0227060D02*
X0316382Y0228295D01*
X0316999Y0228295D01*
X0321900Y0228295D02*
X0322517Y0227678D01*
X0323751Y0227678D01*
X0324369Y0227060D01*
X0324369Y0226443D01*
X0323751Y0225826D01*
X0322517Y0225826D01*
X0321900Y0226443D01*
X0321900Y0228295D02*
X0321900Y0228912D01*
X0322517Y0229529D01*
X0323751Y0229529D01*
X0324369Y0228912D01*
X0325583Y0227678D02*
X0325583Y0226443D01*
X0326200Y0225826D01*
X0327435Y0225826D01*
X0328052Y0227060D02*
X0325583Y0227060D01*
X0325583Y0227678D02*
X0326200Y0228295D01*
X0327435Y0228295D01*
X0328052Y0227678D01*
X0328052Y0227060D01*
X0329266Y0225826D02*
X0330500Y0225826D01*
X0329883Y0225826D02*
X0329883Y0229529D01*
X0329266Y0229529D01*
X0331722Y0227678D02*
X0332339Y0228295D01*
X0333573Y0228295D01*
X0334190Y0227678D01*
X0334190Y0227060D01*
X0331722Y0227060D01*
X0331722Y0226443D02*
X0331722Y0227678D01*
X0331722Y0226443D02*
X0332339Y0225826D01*
X0333573Y0225826D01*
X0335405Y0226443D02*
X0336022Y0225826D01*
X0337873Y0225826D01*
X0339705Y0226443D02*
X0340322Y0225826D01*
X0339705Y0226443D02*
X0339705Y0228912D01*
X0339088Y0228295D02*
X0340322Y0228295D01*
X0337873Y0228295D02*
X0336022Y0228295D01*
X0335405Y0227678D01*
X0335405Y0226443D01*
X0333206Y0214646D02*
X0333206Y0212177D01*
X0331971Y0210943D01*
X0330737Y0212177D01*
X0330737Y0214646D01*
X0329522Y0214029D02*
X0329522Y0213412D01*
X0328905Y0212795D01*
X0329522Y0212177D01*
X0329522Y0211560D01*
X0328905Y0210943D01*
X0327671Y0210943D01*
X0327054Y0211560D01*
X0325829Y0211560D02*
X0325829Y0210943D01*
X0325212Y0210943D01*
X0325212Y0211560D01*
X0325829Y0211560D01*
X0323998Y0211560D02*
X0323380Y0210943D01*
X0322146Y0210943D01*
X0321529Y0211560D01*
X0322763Y0212795D02*
X0323380Y0212795D01*
X0323998Y0212177D01*
X0323998Y0211560D01*
X0323380Y0212795D02*
X0323998Y0213412D01*
X0323998Y0214029D01*
X0323380Y0214646D01*
X0322146Y0214646D01*
X0321529Y0214029D01*
X0327054Y0214029D02*
X0327671Y0214646D01*
X0328905Y0214646D01*
X0329522Y0214029D01*
X0328905Y0212795D02*
X0328288Y0212795D01*
X0354749Y0187647D02*
X0354749Y0185178D01*
X0355367Y0184561D01*
X0356601Y0184561D01*
X0357218Y0185178D01*
X0357218Y0186413D01*
X0355984Y0186413D01*
X0357218Y0187647D02*
X0356601Y0188264D01*
X0355367Y0188264D01*
X0354749Y0187647D01*
X0358433Y0188264D02*
X0360901Y0184561D01*
X0360901Y0188264D01*
X0362116Y0188264D02*
X0362116Y0184561D01*
X0363967Y0184561D01*
X0364584Y0185178D01*
X0364584Y0187647D01*
X0363967Y0188264D01*
X0362116Y0188264D01*
X0358433Y0188264D02*
X0358433Y0184561D01*
X0308112Y0149416D02*
X0304409Y0149416D01*
X0304409Y0148182D02*
X0304409Y0150651D01*
X0304409Y0146968D02*
X0308112Y0144499D01*
X0308112Y0143284D02*
X0308112Y0140816D01*
X0304409Y0140816D01*
X0304409Y0143284D01*
X0304409Y0144499D02*
X0308112Y0146968D01*
X0306261Y0142050D02*
X0306261Y0140816D01*
X0307495Y0135918D02*
X0308112Y0135301D01*
X0308112Y0134067D01*
X0307495Y0133449D01*
X0305026Y0133449D01*
X0304409Y0134067D01*
X0304409Y0135301D01*
X0305026Y0135918D01*
X0305026Y0132235D02*
X0304409Y0131618D01*
X0304409Y0130383D01*
X0305026Y0129766D01*
X0304409Y0128545D02*
X0304409Y0127311D01*
X0304409Y0127928D02*
X0308112Y0127928D01*
X0308112Y0127311D02*
X0308112Y0128545D01*
X0308112Y0129766D02*
X0305643Y0132235D01*
X0305026Y0132235D01*
X0308112Y0132235D02*
X0308112Y0129766D01*
X0305643Y0122410D02*
X0305643Y0121793D01*
X0306878Y0120558D01*
X0308112Y0120558D02*
X0305643Y0120558D01*
X0306261Y0119344D02*
X0305643Y0118727D01*
X0305643Y0117492D01*
X0306261Y0116875D01*
X0307495Y0116875D01*
X0308112Y0117492D01*
X0308112Y0118727D01*
X0307495Y0119344D01*
X0306261Y0119344D01*
X0306261Y0115654D02*
X0306261Y0114420D01*
X0305026Y0115037D02*
X0304409Y0115654D01*
X0305026Y0115037D02*
X0308112Y0115037D01*
X0308112Y0109522D02*
X0308112Y0107671D01*
X0307495Y0107054D01*
X0305643Y0107054D01*
X0305643Y0105836D02*
X0305643Y0105219D01*
X0306878Y0103984D01*
X0306878Y0102770D02*
X0306878Y0100301D01*
X0307495Y0100301D02*
X0306261Y0100301D01*
X0305643Y0100918D01*
X0305643Y0102153D01*
X0306261Y0102770D01*
X0306878Y0102770D01*
X0308112Y0102153D02*
X0308112Y0100918D01*
X0307495Y0100301D01*
X0308112Y0099080D02*
X0307495Y0098463D01*
X0305026Y0098463D01*
X0305643Y0097846D02*
X0305643Y0099080D01*
X0305643Y0096625D02*
X0305643Y0095390D01*
X0305026Y0096007D02*
X0307495Y0096007D01*
X0308112Y0096625D01*
X0308112Y0094176D02*
X0308112Y0092324D01*
X0307495Y0091707D01*
X0306878Y0092324D01*
X0306878Y0094176D01*
X0306261Y0094176D02*
X0308112Y0094176D01*
X0306261Y0094176D02*
X0305643Y0093559D01*
X0305643Y0092324D01*
X0305643Y0090493D02*
X0305026Y0090493D01*
X0304409Y0089876D01*
X0304409Y0088024D01*
X0308112Y0088024D01*
X0308112Y0089876D01*
X0307495Y0090493D01*
X0306878Y0090493D01*
X0306261Y0089876D01*
X0306261Y0088024D01*
X0306261Y0089876D02*
X0305643Y0090493D01*
X0287131Y0100483D02*
X0287131Y0101718D01*
X0286514Y0102335D01*
X0285897Y0102335D01*
X0285279Y0101718D01*
X0285279Y0101101D01*
X0285279Y0101718D02*
X0284662Y0102335D01*
X0284045Y0102335D01*
X0283428Y0101718D01*
X0283428Y0100483D01*
X0284045Y0099866D01*
X0286514Y0099866D02*
X0287131Y0100483D01*
X0287131Y0103549D02*
X0287131Y0104166D01*
X0286514Y0104166D01*
X0286514Y0103549D01*
X0287131Y0103549D01*
X0286514Y0105391D02*
X0287131Y0106008D01*
X0287131Y0107242D01*
X0286514Y0107860D01*
X0285897Y0107860D01*
X0285279Y0107242D01*
X0285279Y0106625D01*
X0285279Y0107242D02*
X0284662Y0107860D01*
X0284045Y0107860D01*
X0283428Y0107242D01*
X0283428Y0106008D01*
X0284045Y0105391D01*
X0283428Y0109074D02*
X0285897Y0109074D01*
X0287131Y0110308D01*
X0285897Y0111543D01*
X0283428Y0111543D01*
X0282639Y0120774D02*
X0282639Y0122626D01*
X0283256Y0123243D01*
X0284490Y0123243D01*
X0285108Y0122626D01*
X0285108Y0120774D01*
X0286342Y0120774D02*
X0282639Y0120774D01*
X0285108Y0122009D02*
X0286342Y0123243D01*
X0286342Y0124458D02*
X0286342Y0126926D01*
X0286342Y0125692D02*
X0282639Y0125692D01*
X0283873Y0124458D01*
X0305643Y0109522D02*
X0308729Y0109522D01*
X0309347Y0108905D01*
X0309347Y0108288D01*
X0308112Y0103984D02*
X0305643Y0103984D01*
X0305634Y0072376D02*
X0305634Y0069907D01*
X0304400Y0068673D01*
X0303165Y0069907D01*
X0303165Y0072376D01*
X0306848Y0071142D02*
X0308083Y0072376D01*
X0308083Y0068673D01*
X0309317Y0068673D02*
X0306848Y0068673D01*
X0298268Y0069290D02*
X0297651Y0069907D01*
X0296416Y0069907D01*
X0295799Y0070525D01*
X0296416Y0071142D01*
X0298268Y0071142D01*
X0298268Y0069290D02*
X0297651Y0068673D01*
X0295799Y0068673D01*
X0294585Y0068673D02*
X0294585Y0071142D01*
X0294585Y0068673D02*
X0292733Y0068673D01*
X0292116Y0069290D01*
X0292116Y0071142D01*
X0290898Y0071142D02*
X0290281Y0071142D01*
X0289047Y0069907D01*
X0289047Y0068673D02*
X0289047Y0071142D01*
X0287208Y0072376D02*
X0287208Y0068673D01*
X0286591Y0068673D02*
X0287825Y0068673D01*
X0285377Y0068673D02*
X0285377Y0070525D01*
X0284760Y0071142D01*
X0283525Y0071142D01*
X0283525Y0069907D02*
X0285377Y0069907D01*
X0285377Y0068673D02*
X0283525Y0068673D01*
X0282908Y0069290D01*
X0283525Y0069907D01*
X0281694Y0068673D02*
X0281694Y0072376D01*
X0279225Y0072376D02*
X0279225Y0068673D01*
X0280459Y0069907D01*
X0281694Y0068673D01*
X0286591Y0072376D02*
X0287208Y0072376D01*
X0281141Y0057051D02*
X0281141Y0054582D01*
X0281141Y0055817D02*
X0284845Y0055817D01*
X0284227Y0053368D02*
X0284845Y0052751D01*
X0284845Y0051517D01*
X0284227Y0050899D01*
X0284845Y0049685D02*
X0283610Y0048451D01*
X0283610Y0049068D02*
X0283610Y0047216D01*
X0284845Y0047216D02*
X0281141Y0047216D01*
X0281141Y0049068D01*
X0281759Y0049685D01*
X0282993Y0049685D01*
X0283610Y0049068D01*
X0282376Y0050899D02*
X0282993Y0051517D01*
X0282993Y0052751D01*
X0283610Y0053368D01*
X0284227Y0053368D01*
X0281759Y0053368D02*
X0281141Y0052751D01*
X0281141Y0051517D01*
X0281759Y0050899D01*
X0282376Y0050899D01*
X0275453Y0050899D02*
X0271750Y0053368D01*
X0271750Y0050899D02*
X0275453Y0053368D01*
X0275453Y0049685D02*
X0274219Y0048451D01*
X0274219Y0049068D02*
X0274219Y0047216D01*
X0275453Y0047216D02*
X0271750Y0047216D01*
X0271750Y0049068D01*
X0272367Y0049685D01*
X0273601Y0049685D01*
X0274219Y0049068D01*
X0265453Y0048451D02*
X0261750Y0048451D01*
X0261750Y0049685D02*
X0261750Y0047216D01*
X0261750Y0050899D02*
X0265453Y0053368D01*
X0265453Y0050899D02*
X0261750Y0053368D01*
X0245453Y0053796D02*
X0245453Y0051945D01*
X0241750Y0051945D01*
X0241750Y0053796D01*
X0242367Y0054413D01*
X0244836Y0054413D01*
X0245453Y0053796D01*
X0245453Y0050730D02*
X0241750Y0050730D01*
X0241750Y0048262D02*
X0245453Y0050730D01*
X0245453Y0048262D02*
X0241750Y0048262D01*
X0242367Y0047047D02*
X0241750Y0046430D01*
X0241750Y0045196D01*
X0242367Y0044578D01*
X0244836Y0044578D01*
X0245453Y0045196D01*
X0245453Y0046430D01*
X0244836Y0047047D01*
X0243601Y0047047D01*
X0243601Y0045813D01*
X0235453Y0045196D02*
X0235453Y0046430D01*
X0234836Y0047047D01*
X0233601Y0047047D01*
X0233601Y0045813D01*
X0232367Y0047047D02*
X0231750Y0046430D01*
X0231750Y0045196D01*
X0232367Y0044578D01*
X0234836Y0044578D01*
X0235453Y0045196D01*
X0235453Y0048262D02*
X0231750Y0048262D01*
X0235453Y0050730D01*
X0231750Y0050730D01*
X0231750Y0051945D02*
X0231750Y0053796D01*
X0232367Y0054413D01*
X0234836Y0054413D01*
X0235453Y0053796D01*
X0235453Y0051945D01*
X0231750Y0051945D01*
X0215453Y0051945D02*
X0215453Y0053796D01*
X0214836Y0054413D01*
X0212367Y0054413D01*
X0211750Y0053796D01*
X0211750Y0051945D01*
X0215453Y0051945D01*
X0215453Y0050730D02*
X0211750Y0050730D01*
X0211750Y0048262D02*
X0215453Y0050730D01*
X0215453Y0048262D02*
X0211750Y0048262D01*
X0212367Y0047047D02*
X0211750Y0046430D01*
X0211750Y0045196D01*
X0212367Y0044578D01*
X0214836Y0044578D01*
X0215453Y0045196D01*
X0215453Y0046430D01*
X0214836Y0047047D01*
X0213601Y0047047D01*
X0213601Y0045813D01*
X0205453Y0046417D02*
X0201750Y0046417D01*
X0202984Y0045183D01*
X0201750Y0043948D01*
X0205453Y0043948D01*
X0204836Y0047632D02*
X0205453Y0048249D01*
X0205453Y0049483D01*
X0204836Y0050100D01*
X0203601Y0050100D01*
X0202984Y0049483D01*
X0202984Y0048249D01*
X0203601Y0047632D01*
X0204836Y0047632D01*
X0195453Y0048879D02*
X0195453Y0050113D01*
X0194836Y0050730D01*
X0194836Y0051945D02*
X0195453Y0052562D01*
X0195453Y0053796D01*
X0194836Y0054413D01*
X0194836Y0051945D02*
X0192367Y0051945D01*
X0191750Y0052562D01*
X0191750Y0053796D01*
X0192367Y0054413D01*
X0192367Y0050730D02*
X0191750Y0050113D01*
X0191750Y0048879D01*
X0192367Y0048262D01*
X0194836Y0048262D01*
X0195453Y0048879D01*
X0194219Y0047047D02*
X0191750Y0047047D01*
X0194219Y0047047D02*
X0195453Y0045813D01*
X0194219Y0044578D01*
X0191750Y0044578D01*
X0201788Y0016730D02*
X0204257Y0014261D01*
X0203640Y0014878D02*
X0205491Y0016730D01*
X0205491Y0014261D02*
X0201788Y0014261D01*
X0202405Y0013047D02*
X0201788Y0012429D01*
X0201788Y0011195D01*
X0202405Y0010578D01*
X0204874Y0010578D01*
X0205491Y0011195D01*
X0205491Y0012429D01*
X0204874Y0013047D01*
X0204874Y0009364D02*
X0205491Y0008746D01*
X0205491Y0007512D01*
X0204874Y0006895D01*
X0203640Y0007512D02*
X0203640Y0008746D01*
X0204257Y0009364D01*
X0204874Y0009364D01*
X0203640Y0007512D02*
X0203022Y0006895D01*
X0202405Y0006895D01*
X0201788Y0007512D01*
X0201788Y0008746D01*
X0202405Y0009364D01*
X0195491Y0009364D02*
X0191788Y0009364D01*
X0193022Y0008129D01*
X0191788Y0006895D01*
X0195491Y0006895D01*
X0195491Y0010578D02*
X0195491Y0011812D01*
X0195491Y0011195D02*
X0193022Y0011195D01*
X0193022Y0010578D01*
X0191788Y0011195D02*
X0191171Y0011195D01*
X0211788Y0011195D02*
X0212405Y0010578D01*
X0213022Y0010578D01*
X0213640Y0011195D01*
X0213640Y0012429D01*
X0214257Y0013047D01*
X0214874Y0013047D01*
X0215491Y0012429D01*
X0215491Y0011195D01*
X0214874Y0010578D01*
X0215491Y0009364D02*
X0214257Y0008129D01*
X0214257Y0008746D02*
X0214257Y0006895D01*
X0215491Y0006895D02*
X0211788Y0006895D01*
X0211788Y0008746D01*
X0212405Y0009364D01*
X0213640Y0009364D01*
X0214257Y0008746D01*
X0211788Y0011195D02*
X0211788Y0012429D01*
X0212405Y0013047D01*
X0211788Y0014261D02*
X0211788Y0016730D01*
X0211788Y0015495D02*
X0215491Y0015495D01*
X0231788Y0014261D02*
X0235491Y0014261D01*
X0235491Y0016730D01*
X0241788Y0015358D02*
X0243022Y0016592D01*
X0245491Y0016592D01*
X0243640Y0016592D02*
X0243640Y0014123D01*
X0243022Y0014123D02*
X0241788Y0015358D01*
X0243022Y0014123D02*
X0245491Y0014123D01*
X0244874Y0012909D02*
X0242405Y0012909D01*
X0241788Y0012292D01*
X0241788Y0010440D01*
X0245491Y0010440D01*
X0245491Y0012292D01*
X0244874Y0012909D01*
X0244874Y0009226D02*
X0245491Y0008609D01*
X0245491Y0007374D01*
X0244874Y0006757D01*
X0243640Y0007374D02*
X0243640Y0008609D01*
X0244257Y0009226D01*
X0244874Y0009226D01*
X0243640Y0007374D02*
X0243022Y0006757D01*
X0242405Y0006757D01*
X0241788Y0007374D01*
X0241788Y0008609D01*
X0242405Y0009226D01*
X0235491Y0008746D02*
X0235491Y0007512D01*
X0234874Y0006895D01*
X0233640Y0007512D02*
X0233640Y0008746D01*
X0234257Y0009364D01*
X0234874Y0009364D01*
X0235491Y0008746D01*
X0234874Y0010578D02*
X0235491Y0011195D01*
X0235491Y0012429D01*
X0234874Y0013047D01*
X0232405Y0013047D02*
X0231788Y0012429D01*
X0231788Y0011195D01*
X0232405Y0010578D01*
X0234874Y0010578D01*
X0232405Y0009364D02*
X0231788Y0008746D01*
X0231788Y0007512D01*
X0232405Y0006895D01*
X0233022Y0006895D01*
X0233640Y0007512D01*
X0251788Y0007512D02*
X0255491Y0007512D01*
X0255491Y0006895D02*
X0255491Y0008129D01*
X0255491Y0009350D02*
X0251788Y0009350D01*
X0251788Y0011202D01*
X0252405Y0011819D01*
X0253640Y0011819D01*
X0254257Y0011202D01*
X0254257Y0009350D01*
X0254257Y0010585D02*
X0255491Y0011819D01*
X0254874Y0013033D02*
X0255491Y0013651D01*
X0255491Y0014885D01*
X0254874Y0015502D01*
X0252405Y0015502D01*
X0251788Y0014885D01*
X0251788Y0013651D01*
X0252405Y0013033D01*
X0254874Y0013033D01*
X0254257Y0014268D02*
X0255491Y0015502D01*
X0261788Y0015975D02*
X0261788Y0014740D01*
X0262405Y0014123D01*
X0263022Y0014123D01*
X0263640Y0014740D01*
X0263640Y0015975D01*
X0264257Y0016592D01*
X0264874Y0016592D01*
X0265491Y0015975D01*
X0265491Y0014740D01*
X0264874Y0014123D01*
X0264874Y0012909D02*
X0265491Y0012292D01*
X0265491Y0011057D01*
X0264874Y0010440D01*
X0265491Y0009226D02*
X0261788Y0009226D01*
X0262405Y0010440D02*
X0261788Y0011057D01*
X0261788Y0012292D01*
X0262405Y0012909D01*
X0263640Y0012292D02*
X0264257Y0012909D01*
X0264874Y0012909D01*
X0263640Y0012292D02*
X0263640Y0011057D01*
X0263022Y0010440D01*
X0262405Y0010440D01*
X0265491Y0009226D02*
X0261788Y0006757D01*
X0265491Y0006757D01*
X0271788Y0010064D02*
X0271788Y0011916D01*
X0272405Y0012533D01*
X0274874Y0012533D01*
X0275491Y0011916D01*
X0275491Y0010064D01*
X0271788Y0010064D01*
X0272405Y0013747D02*
X0271788Y0014364D01*
X0271788Y0015599D01*
X0272405Y0016216D01*
X0274874Y0016216D01*
X0275491Y0015599D01*
X0275491Y0014364D01*
X0274874Y0013747D01*
X0272405Y0013747D01*
X0274257Y0014982D02*
X0275491Y0016216D01*
X0282287Y0016820D02*
X0282904Y0016203D01*
X0285373Y0016203D01*
X0285990Y0016820D01*
X0285990Y0018054D01*
X0285373Y0018671D01*
X0282904Y0018671D01*
X0282287Y0018054D01*
X0282287Y0016820D01*
X0282287Y0014982D02*
X0282287Y0013747D01*
X0282287Y0014364D02*
X0285990Y0014364D01*
X0285990Y0013747D02*
X0285990Y0014982D01*
X0284138Y0012533D02*
X0284755Y0011916D01*
X0284755Y0010064D01*
X0285990Y0010064D02*
X0282287Y0010064D01*
X0282287Y0011916D01*
X0282904Y0012533D01*
X0284138Y0012533D01*
X0291506Y0015155D02*
X0293975Y0015155D01*
X0295189Y0015155D02*
X0296424Y0015155D01*
X0295806Y0015155D02*
X0295806Y0017624D01*
X0295189Y0017624D01*
X0295806Y0018858D02*
X0295806Y0019475D01*
X0298262Y0017624D02*
X0297645Y0017007D01*
X0297645Y0015772D01*
X0298262Y0015155D01*
X0300113Y0015155D01*
X0301328Y0015772D02*
X0301328Y0017007D01*
X0301945Y0017624D01*
X0303179Y0017624D01*
X0303797Y0017007D01*
X0303797Y0016390D01*
X0301328Y0016390D01*
X0301328Y0015772D02*
X0301945Y0015155D01*
X0303179Y0015155D01*
X0305011Y0015155D02*
X0305011Y0017624D01*
X0306862Y0017624D01*
X0307480Y0017007D01*
X0307480Y0015155D01*
X0308694Y0015155D02*
X0310546Y0015155D01*
X0311163Y0015772D01*
X0310546Y0016390D01*
X0309311Y0016390D01*
X0308694Y0017007D01*
X0309311Y0017624D01*
X0311163Y0017624D01*
X0312377Y0017007D02*
X0312994Y0017624D01*
X0314229Y0017624D01*
X0314846Y0017007D01*
X0314846Y0016390D01*
X0312377Y0016390D01*
X0312377Y0017007D02*
X0312377Y0015772D01*
X0312994Y0015155D01*
X0314229Y0015155D01*
X0316060Y0015155D02*
X0316060Y0015772D01*
X0316678Y0015772D01*
X0316678Y0015155D01*
X0316060Y0015155D01*
X0316060Y0017007D02*
X0316060Y0017624D01*
X0316678Y0017624D01*
X0316678Y0017007D01*
X0316060Y0017007D01*
X0321585Y0017007D02*
X0322202Y0017624D01*
X0323437Y0017624D01*
X0324054Y0017007D01*
X0324054Y0015155D01*
X0325885Y0015772D02*
X0325885Y0018241D01*
X0325268Y0017624D02*
X0326503Y0017624D01*
X0327724Y0017624D02*
X0328958Y0017624D01*
X0328341Y0018241D02*
X0328341Y0015772D01*
X0328958Y0015155D01*
X0330179Y0015155D02*
X0332031Y0015155D01*
X0332648Y0015772D01*
X0332648Y0017007D01*
X0332031Y0017624D01*
X0330179Y0017624D01*
X0330179Y0013921D01*
X0328341Y0012235D02*
X0328341Y0011618D01*
X0328341Y0010383D02*
X0328341Y0007914D01*
X0327724Y0007914D02*
X0328958Y0007914D01*
X0330179Y0008532D02*
X0330796Y0007914D01*
X0332648Y0007914D01*
X0332648Y0007297D02*
X0332648Y0010383D01*
X0330796Y0010383D01*
X0330179Y0009766D01*
X0330179Y0008532D01*
X0331413Y0006680D02*
X0332031Y0006680D01*
X0332648Y0007297D01*
X0333862Y0007914D02*
X0333862Y0011618D01*
X0334479Y0010383D02*
X0335714Y0010383D01*
X0336331Y0009766D01*
X0336331Y0007914D01*
X0338163Y0008532D02*
X0338780Y0007914D01*
X0338163Y0008532D02*
X0338163Y0011000D01*
X0338780Y0010383D02*
X0337545Y0010383D01*
X0334479Y0010383D02*
X0333862Y0009766D01*
X0333862Y0015155D02*
X0333862Y0015772D01*
X0334479Y0015772D01*
X0334479Y0015155D01*
X0333862Y0015155D01*
X0335704Y0015155D02*
X0338173Y0018858D01*
X0341856Y0018858D02*
X0339387Y0015155D01*
X0343070Y0015772D02*
X0343070Y0017007D01*
X0343687Y0017624D01*
X0345539Y0017624D01*
X0345539Y0014538D01*
X0344922Y0013921D01*
X0344304Y0013921D01*
X0343687Y0015155D02*
X0345539Y0015155D01*
X0346753Y0015772D02*
X0347370Y0015155D01*
X0348605Y0015155D01*
X0349222Y0015772D01*
X0349222Y0017007D01*
X0348605Y0017624D01*
X0347370Y0017624D01*
X0346753Y0017007D01*
X0346753Y0015772D01*
X0343687Y0015155D02*
X0343070Y0015772D01*
X0344301Y0011618D02*
X0343684Y0011000D01*
X0343684Y0008532D01*
X0344301Y0007914D01*
X0345535Y0007914D01*
X0346153Y0008532D01*
X0346153Y0011000D01*
X0345535Y0011618D01*
X0344301Y0011618D01*
X0347367Y0010383D02*
X0349219Y0010383D01*
X0349836Y0009766D01*
X0349836Y0008532D01*
X0349219Y0007914D01*
X0347367Y0007914D01*
X0347367Y0006680D02*
X0347367Y0010383D01*
X0351050Y0009766D02*
X0351667Y0010383D01*
X0352902Y0010383D01*
X0353519Y0009766D01*
X0353519Y0009149D01*
X0351050Y0009149D01*
X0351050Y0008532D02*
X0351050Y0009766D01*
X0351050Y0008532D02*
X0351667Y0007914D01*
X0352902Y0007914D01*
X0354733Y0007914D02*
X0354733Y0010383D01*
X0356585Y0010383D01*
X0357202Y0009766D01*
X0357202Y0007914D01*
X0359651Y0007914D02*
X0359651Y0011618D01*
X0360885Y0011618D02*
X0358416Y0011618D01*
X0357813Y0013921D02*
X0358430Y0014538D01*
X0358430Y0017624D01*
X0356578Y0017624D01*
X0355961Y0017007D01*
X0355961Y0015772D01*
X0356578Y0015155D01*
X0358430Y0015155D01*
X0359644Y0015155D02*
X0360879Y0015155D01*
X0360261Y0015155D02*
X0360261Y0018858D01*
X0359644Y0018858D01*
X0362100Y0015155D02*
X0364568Y0018858D01*
X0365783Y0018241D02*
X0366400Y0018858D01*
X0367634Y0018858D01*
X0368252Y0018241D01*
X0368252Y0017624D01*
X0367634Y0017007D01*
X0368252Y0016390D01*
X0368252Y0015772D01*
X0367634Y0015155D01*
X0366400Y0015155D01*
X0365783Y0015772D01*
X0367017Y0017007D02*
X0367634Y0017007D01*
X0369466Y0017007D02*
X0369466Y0015772D01*
X0370083Y0015155D01*
X0371935Y0015155D01*
X0371935Y0018858D01*
X0373149Y0018858D02*
X0375618Y0018858D01*
X0375618Y0018241D01*
X0373149Y0015772D01*
X0373149Y0015155D01*
X0371935Y0017624D02*
X0370083Y0017624D01*
X0369466Y0017007D01*
X0376832Y0017624D02*
X0378067Y0018858D01*
X0378067Y0015155D01*
X0379301Y0015155D02*
X0376832Y0015155D01*
X0377449Y0011618D02*
X0376832Y0011000D01*
X0376832Y0008532D01*
X0379301Y0011000D01*
X0379301Y0008532D01*
X0378684Y0007914D01*
X0377449Y0007914D01*
X0376832Y0008532D01*
X0375618Y0007914D02*
X0373149Y0007914D01*
X0375618Y0010383D01*
X0375618Y0011000D01*
X0375001Y0011618D01*
X0373766Y0011618D01*
X0373149Y0011000D01*
X0377449Y0011618D02*
X0378684Y0011618D01*
X0379301Y0011000D01*
X0380515Y0010383D02*
X0381750Y0011618D01*
X0381750Y0007914D01*
X0382984Y0007914D02*
X0380515Y0007914D01*
X0384199Y0008532D02*
X0384816Y0007914D01*
X0386050Y0007914D01*
X0386667Y0008532D01*
X0386667Y0009149D01*
X0386050Y0009766D01*
X0384199Y0009766D01*
X0384199Y0008532D01*
X0384199Y0009766D02*
X0385433Y0011000D01*
X0386667Y0011618D01*
X0385433Y0015155D02*
X0384816Y0015155D01*
X0384198Y0015772D01*
X0382984Y0015772D02*
X0382984Y0018858D01*
X0385433Y0018858D02*
X0386667Y0018858D01*
X0386050Y0018858D02*
X0386050Y0015772D01*
X0385433Y0015155D01*
X0382984Y0015772D02*
X0382367Y0015155D01*
X0381133Y0015155D01*
X0380515Y0015772D01*
X0380515Y0018858D01*
X0368252Y0011618D02*
X0368252Y0009149D01*
X0367017Y0007914D01*
X0365783Y0009149D01*
X0365783Y0011618D01*
X0364568Y0011000D02*
X0364568Y0009766D01*
X0363951Y0009149D01*
X0362100Y0009149D01*
X0363334Y0009149D02*
X0364568Y0007914D01*
X0362100Y0007914D02*
X0362100Y0011618D01*
X0363951Y0011618D01*
X0364568Y0011000D01*
X0357813Y0013921D02*
X0357195Y0013921D01*
X0354737Y0015155D02*
X0354119Y0015155D01*
X0354119Y0015772D01*
X0354737Y0015772D01*
X0354737Y0015155D01*
X0352905Y0015772D02*
X0352905Y0017007D01*
X0352288Y0017624D01*
X0351054Y0017624D01*
X0350436Y0017007D01*
X0350436Y0015772D01*
X0351054Y0015155D01*
X0352288Y0015155D01*
X0352905Y0015772D01*
X0334479Y0017007D02*
X0333862Y0017007D01*
X0333862Y0017624D01*
X0334479Y0017624D01*
X0334479Y0017007D01*
X0326503Y0015155D02*
X0325885Y0015772D01*
X0321585Y0015155D02*
X0321585Y0018858D01*
X0312391Y0011000D02*
X0311773Y0011618D01*
X0310539Y0011618D01*
X0309922Y0011000D01*
X0309922Y0008532D01*
X0310539Y0007914D01*
X0311773Y0007914D01*
X0312391Y0008532D01*
X0313605Y0008532D02*
X0314222Y0007914D01*
X0315456Y0007914D01*
X0316074Y0008532D01*
X0316074Y0009766D01*
X0315456Y0010383D01*
X0314222Y0010383D01*
X0313605Y0009766D01*
X0313605Y0008532D01*
X0317288Y0007914D02*
X0319140Y0007914D01*
X0319757Y0008532D01*
X0319757Y0009766D01*
X0319140Y0010383D01*
X0317288Y0010383D01*
X0317288Y0006680D01*
X0320971Y0008532D02*
X0321588Y0007914D01*
X0323440Y0007914D01*
X0323440Y0007297D02*
X0322823Y0006680D01*
X0322206Y0006680D01*
X0323440Y0007297D02*
X0323440Y0010383D01*
X0324654Y0010383D02*
X0324654Y0007914D01*
X0324654Y0009149D02*
X0325889Y0010383D01*
X0326506Y0010383D01*
X0327724Y0010383D02*
X0328341Y0010383D01*
X0320971Y0010383D02*
X0320971Y0008532D01*
X0300113Y0017624D02*
X0298262Y0017624D01*
X0291506Y0018858D02*
X0291506Y0015155D01*
X0262405Y0016592D02*
X0261788Y0015975D01*
X0251788Y0008129D02*
X0251788Y0006895D01*
X0354936Y0060593D02*
X0355553Y0059976D01*
X0356788Y0059976D01*
X0357405Y0060593D01*
X0357405Y0061210D01*
X0356788Y0061827D01*
X0356171Y0061827D01*
X0356788Y0061827D02*
X0357405Y0062445D01*
X0357405Y0063062D01*
X0356788Y0063679D01*
X0355553Y0063679D01*
X0354936Y0063062D01*
X0358619Y0060593D02*
X0359236Y0060593D01*
X0359236Y0059976D01*
X0358619Y0059976D01*
X0358619Y0060593D01*
X0360461Y0060593D02*
X0361078Y0059976D01*
X0362312Y0059976D01*
X0362930Y0060593D01*
X0362930Y0061210D01*
X0362312Y0061827D01*
X0361695Y0061827D01*
X0362312Y0061827D02*
X0362930Y0062445D01*
X0362930Y0063062D01*
X0362312Y0063679D01*
X0361078Y0063679D01*
X0360461Y0063062D01*
X0364144Y0063679D02*
X0364144Y0061210D01*
X0365378Y0059976D01*
X0366613Y0061210D01*
X0366613Y0063679D01*
X0234252Y0091770D02*
X0233634Y0091152D01*
X0231783Y0091152D01*
X0230568Y0091152D02*
X0230568Y0090535D01*
X0229951Y0089918D01*
X0228717Y0089918D01*
X0228100Y0090535D01*
X0226879Y0089918D02*
X0225644Y0089918D01*
X0226261Y0089918D02*
X0226261Y0093621D01*
X0225644Y0093621D02*
X0226879Y0093621D01*
X0228100Y0093004D02*
X0228717Y0093621D01*
X0229951Y0093621D01*
X0230568Y0093004D01*
X0231783Y0093621D02*
X0231783Y0089918D01*
X0230568Y0091152D02*
X0229951Y0091770D01*
X0228717Y0091770D01*
X0228100Y0092387D01*
X0228100Y0093004D01*
X0231783Y0093621D02*
X0233634Y0093621D01*
X0234252Y0093004D01*
X0234252Y0091770D01*
X0130283Y0014246D02*
X0126580Y0011777D01*
X0127198Y0010563D02*
X0126580Y0009946D01*
X0126580Y0008094D01*
X0130283Y0008094D01*
X0129049Y0008094D02*
X0129049Y0009946D01*
X0128432Y0010563D01*
X0127198Y0010563D01*
X0129049Y0009329D02*
X0130283Y0010563D01*
X0130283Y0011777D02*
X0126580Y0014246D01*
X0119083Y0013394D02*
X0119083Y0012160D01*
X0118465Y0011542D01*
X0115997Y0011542D01*
X0115379Y0012160D01*
X0115379Y0013394D01*
X0115997Y0014011D01*
X0115379Y0015226D02*
X0119083Y0015226D01*
X0119083Y0017694D01*
X0118465Y0014011D02*
X0119083Y0013394D01*
X0118465Y0010328D02*
X0119083Y0009711D01*
X0119083Y0008476D01*
X0118465Y0007859D01*
X0117231Y0008476D02*
X0116614Y0007859D01*
X0115997Y0007859D01*
X0115379Y0008476D01*
X0115379Y0009711D01*
X0115997Y0010328D01*
X0117231Y0009711D02*
X0117848Y0010328D01*
X0118465Y0010328D01*
X0117231Y0009711D02*
X0117231Y0008476D01*
X0109673Y0008292D02*
X0109673Y0009527D01*
X0109673Y0008909D02*
X0105970Y0008909D01*
X0105970Y0008292D02*
X0105970Y0009527D01*
X0105970Y0010748D02*
X0105970Y0012599D01*
X0106587Y0013216D01*
X0107821Y0013216D01*
X0108439Y0012599D01*
X0108439Y0010748D01*
X0108439Y0011982D02*
X0109673Y0013216D01*
X0109056Y0014431D02*
X0106587Y0014431D01*
X0105970Y0015048D01*
X0105970Y0016282D01*
X0106587Y0016899D01*
X0109056Y0016899D01*
X0109673Y0016282D01*
X0109673Y0015048D01*
X0109056Y0014431D01*
X0108439Y0015665D02*
X0109673Y0016899D01*
X0109673Y0010748D02*
X0105970Y0010748D01*
X0099515Y0009895D02*
X0098281Y0008661D01*
X0098281Y0009278D02*
X0098281Y0007426D01*
X0099515Y0007426D02*
X0095812Y0007426D01*
X0095812Y0009278D01*
X0096429Y0009895D01*
X0097664Y0009895D01*
X0098281Y0009278D01*
X0098898Y0011109D02*
X0099515Y0011727D01*
X0099515Y0012961D01*
X0098898Y0013578D01*
X0098281Y0013578D01*
X0097664Y0012961D01*
X0097664Y0011727D01*
X0097046Y0011109D01*
X0096429Y0011109D01*
X0095812Y0011727D01*
X0095812Y0012961D01*
X0096429Y0013578D01*
X0095812Y0014793D02*
X0095812Y0017261D01*
X0095812Y0016027D02*
X0099515Y0016027D01*
X0089515Y0017261D02*
X0087664Y0015410D01*
X0088281Y0014793D02*
X0085812Y0017261D01*
X0085812Y0014793D02*
X0089515Y0014793D01*
X0088898Y0013578D02*
X0089515Y0012961D01*
X0089515Y0011727D01*
X0088898Y0011109D01*
X0086429Y0011109D01*
X0085812Y0011727D01*
X0085812Y0012961D01*
X0086429Y0013578D01*
X0079515Y0012344D02*
X0079515Y0011109D01*
X0079515Y0011727D02*
X0077046Y0011727D01*
X0077046Y0011109D01*
X0075812Y0011727D02*
X0075195Y0011727D01*
X0075812Y0009895D02*
X0079515Y0009895D01*
X0079515Y0007426D02*
X0075812Y0007426D01*
X0077046Y0008661D01*
X0075812Y0009895D01*
X0085812Y0009278D02*
X0085812Y0008043D01*
X0086429Y0007426D01*
X0087046Y0007426D01*
X0087664Y0008043D01*
X0087664Y0009278D01*
X0088281Y0009895D01*
X0088898Y0009895D01*
X0089515Y0009278D01*
X0089515Y0008043D01*
X0088898Y0007426D01*
X0086429Y0009895D02*
X0085812Y0009278D01*
X0087390Y0075954D02*
X0083686Y0075954D01*
X0084921Y0077188D01*
X0083686Y0078423D01*
X0087390Y0078423D01*
X0087390Y0079637D02*
X0087390Y0080871D01*
X0087390Y0080254D02*
X0084921Y0080254D01*
X0084921Y0079637D01*
X0083686Y0080254D02*
X0083069Y0080254D01*
X0093686Y0080254D02*
X0094304Y0079637D01*
X0096772Y0079637D01*
X0097390Y0080254D01*
X0097390Y0081489D01*
X0096772Y0082106D01*
X0096155Y0083320D02*
X0093686Y0085789D01*
X0093686Y0083320D02*
X0097390Y0083320D01*
X0095538Y0083937D02*
X0097390Y0085789D01*
X0094304Y0082106D02*
X0093686Y0081489D01*
X0093686Y0080254D01*
X0094304Y0078423D02*
X0093686Y0077805D01*
X0093686Y0076571D01*
X0094304Y0075954D01*
X0094921Y0075954D01*
X0095538Y0076571D01*
X0095538Y0077805D01*
X0096155Y0078423D01*
X0096772Y0078423D01*
X0097390Y0077805D01*
X0097390Y0076571D01*
X0096772Y0075954D01*
X0103686Y0075954D02*
X0103686Y0077805D01*
X0104304Y0078423D01*
X0105538Y0078423D01*
X0106155Y0077805D01*
X0106155Y0075954D01*
X0106155Y0077188D02*
X0107390Y0078423D01*
X0106772Y0079637D02*
X0107390Y0080254D01*
X0107390Y0081489D01*
X0106772Y0082106D01*
X0106155Y0082106D01*
X0105538Y0081489D01*
X0105538Y0080254D01*
X0104921Y0079637D01*
X0104304Y0079637D01*
X0103686Y0080254D01*
X0103686Y0081489D01*
X0104304Y0082106D01*
X0103686Y0083320D02*
X0103686Y0085789D01*
X0103686Y0084554D02*
X0107390Y0084554D01*
X0107390Y0075954D02*
X0103686Y0075954D01*
X0010031Y0102157D02*
X0007562Y0102157D01*
X0117911Y0232124D02*
X0119145Y0232124D01*
X0119762Y0232742D01*
X0119762Y0233976D01*
X0118528Y0233976D01*
X0119762Y0235210D02*
X0119145Y0235828D01*
X0117911Y0235828D01*
X0117294Y0235210D01*
X0117294Y0232742D01*
X0117911Y0232124D01*
X0120977Y0232124D02*
X0120977Y0235828D01*
X0123445Y0232124D01*
X0123445Y0235828D01*
X0124660Y0235828D02*
X0126511Y0235828D01*
X0127129Y0235210D01*
X0127129Y0232742D01*
X0126511Y0232124D01*
X0124660Y0232124D01*
X0124660Y0235828D01*
X0275322Y0214733D02*
X0275322Y0212882D01*
X0276556Y0213499D01*
X0277173Y0213499D01*
X0277790Y0212882D01*
X0277790Y0211647D01*
X0277173Y0211030D01*
X0275939Y0211030D01*
X0275322Y0211647D01*
X0275322Y0214733D02*
X0277790Y0214733D01*
X0279005Y0214733D02*
X0279005Y0212264D01*
X0280239Y0211030D01*
X0281474Y0212264D01*
X0281474Y0214733D01*
D12*
X0237490Y0223553D02*
X0237492Y0223612D01*
X0237498Y0223672D01*
X0237508Y0223730D01*
X0237522Y0223788D01*
X0237539Y0223845D01*
X0237561Y0223900D01*
X0237586Y0223954D01*
X0237614Y0224007D01*
X0237646Y0224057D01*
X0237682Y0224105D01*
X0237720Y0224150D01*
X0237761Y0224193D01*
X0237805Y0224233D01*
X0237852Y0224270D01*
X0237901Y0224303D01*
X0237952Y0224333D01*
X0238005Y0224360D01*
X0238060Y0224384D01*
X0238116Y0224403D01*
X0238174Y0224419D01*
X0238232Y0224431D01*
X0238291Y0224439D01*
X0238350Y0224443D01*
X0238410Y0224443D01*
X0238469Y0224439D01*
X0238528Y0224431D01*
X0238586Y0224419D01*
X0238644Y0224403D01*
X0238700Y0224384D01*
X0238755Y0224360D01*
X0238808Y0224333D01*
X0238859Y0224303D01*
X0238908Y0224270D01*
X0238955Y0224233D01*
X0238999Y0224193D01*
X0239040Y0224150D01*
X0239078Y0224105D01*
X0239114Y0224057D01*
X0239146Y0224007D01*
X0239174Y0223954D01*
X0239199Y0223900D01*
X0239221Y0223845D01*
X0239238Y0223788D01*
X0239252Y0223730D01*
X0239262Y0223672D01*
X0239268Y0223612D01*
X0239270Y0223553D01*
X0239268Y0223494D01*
X0239262Y0223434D01*
X0239252Y0223376D01*
X0239238Y0223318D01*
X0239221Y0223261D01*
X0239199Y0223206D01*
X0239174Y0223152D01*
X0239146Y0223099D01*
X0239114Y0223049D01*
X0239078Y0223001D01*
X0239040Y0222956D01*
X0238999Y0222913D01*
X0238955Y0222873D01*
X0238908Y0222836D01*
X0238859Y0222803D01*
X0238808Y0222773D01*
X0238755Y0222746D01*
X0238700Y0222722D01*
X0238644Y0222703D01*
X0238586Y0222687D01*
X0238528Y0222675D01*
X0238469Y0222667D01*
X0238410Y0222663D01*
X0238350Y0222663D01*
X0238291Y0222667D01*
X0238232Y0222675D01*
X0238174Y0222687D01*
X0238116Y0222703D01*
X0238060Y0222722D01*
X0238005Y0222746D01*
X0237952Y0222773D01*
X0237901Y0222803D01*
X0237852Y0222836D01*
X0237805Y0222873D01*
X0237761Y0222913D01*
X0237720Y0222956D01*
X0237682Y0223001D01*
X0237646Y0223049D01*
X0237614Y0223099D01*
X0237586Y0223152D01*
X0237561Y0223206D01*
X0237539Y0223261D01*
X0237522Y0223318D01*
X0237508Y0223376D01*
X0237498Y0223434D01*
X0237492Y0223494D01*
X0237490Y0223553D01*
X0053258Y0188220D02*
X0053258Y0153220D01*
X0053256Y0153122D01*
X0053250Y0153024D01*
X0053241Y0152926D01*
X0053227Y0152829D01*
X0053210Y0152732D01*
X0053189Y0152636D01*
X0053164Y0152541D01*
X0053136Y0152447D01*
X0053103Y0152355D01*
X0053068Y0152263D01*
X0053028Y0152173D01*
X0052986Y0152085D01*
X0052939Y0151998D01*
X0052890Y0151914D01*
X0052837Y0151831D01*
X0052781Y0151751D01*
X0052721Y0151672D01*
X0052659Y0151596D01*
X0052594Y0151523D01*
X0052526Y0151452D01*
X0052455Y0151384D01*
X0052382Y0151319D01*
X0052306Y0151257D01*
X0052227Y0151197D01*
X0052147Y0151141D01*
X0052064Y0151088D01*
X0051980Y0151039D01*
X0051893Y0150992D01*
X0051805Y0150950D01*
X0051715Y0150910D01*
X0051623Y0150875D01*
X0051531Y0150842D01*
X0051437Y0150814D01*
X0051342Y0150789D01*
X0051246Y0150768D01*
X0051149Y0150751D01*
X0051052Y0150737D01*
X0050954Y0150728D01*
X0050856Y0150722D01*
X0050758Y0150720D01*
X0035758Y0150720D01*
X0035660Y0150722D01*
X0035562Y0150728D01*
X0035464Y0150737D01*
X0035367Y0150751D01*
X0035270Y0150768D01*
X0035174Y0150789D01*
X0035079Y0150814D01*
X0034985Y0150842D01*
X0034893Y0150875D01*
X0034801Y0150910D01*
X0034711Y0150950D01*
X0034623Y0150992D01*
X0034536Y0151039D01*
X0034452Y0151088D01*
X0034369Y0151141D01*
X0034289Y0151197D01*
X0034210Y0151257D01*
X0034134Y0151319D01*
X0034061Y0151384D01*
X0033990Y0151452D01*
X0033922Y0151523D01*
X0033857Y0151596D01*
X0033795Y0151672D01*
X0033735Y0151751D01*
X0033679Y0151831D01*
X0033626Y0151914D01*
X0033577Y0151998D01*
X0033530Y0152085D01*
X0033488Y0152173D01*
X0033448Y0152263D01*
X0033413Y0152355D01*
X0033380Y0152447D01*
X0033352Y0152541D01*
X0033327Y0152636D01*
X0033306Y0152732D01*
X0033289Y0152829D01*
X0033275Y0152926D01*
X0033266Y0153024D01*
X0033260Y0153122D01*
X0033258Y0153220D01*
X0033258Y0188220D01*
X0033260Y0188318D01*
X0033266Y0188416D01*
X0033275Y0188514D01*
X0033289Y0188611D01*
X0033306Y0188708D01*
X0033327Y0188804D01*
X0033352Y0188899D01*
X0033380Y0188993D01*
X0033413Y0189085D01*
X0033448Y0189177D01*
X0033488Y0189267D01*
X0033530Y0189355D01*
X0033577Y0189442D01*
X0033626Y0189526D01*
X0033679Y0189609D01*
X0033735Y0189689D01*
X0033795Y0189768D01*
X0033857Y0189844D01*
X0033922Y0189917D01*
X0033990Y0189988D01*
X0034061Y0190056D01*
X0034134Y0190121D01*
X0034210Y0190183D01*
X0034289Y0190243D01*
X0034369Y0190299D01*
X0034452Y0190352D01*
X0034536Y0190401D01*
X0034623Y0190448D01*
X0034711Y0190490D01*
X0034801Y0190530D01*
X0034893Y0190565D01*
X0034985Y0190598D01*
X0035079Y0190626D01*
X0035174Y0190651D01*
X0035270Y0190672D01*
X0035367Y0190689D01*
X0035464Y0190703D01*
X0035562Y0190712D01*
X0035660Y0190718D01*
X0035758Y0190720D01*
X0050758Y0190720D01*
X0050856Y0190718D01*
X0050954Y0190712D01*
X0051052Y0190703D01*
X0051149Y0190689D01*
X0051246Y0190672D01*
X0051342Y0190651D01*
X0051437Y0190626D01*
X0051531Y0190598D01*
X0051623Y0190565D01*
X0051715Y0190530D01*
X0051805Y0190490D01*
X0051893Y0190448D01*
X0051980Y0190401D01*
X0052064Y0190352D01*
X0052147Y0190299D01*
X0052227Y0190243D01*
X0052306Y0190183D01*
X0052382Y0190121D01*
X0052455Y0190056D01*
X0052526Y0189988D01*
X0052594Y0189917D01*
X0052659Y0189844D01*
X0052721Y0189768D01*
X0052781Y0189689D01*
X0052837Y0189609D01*
X0052890Y0189526D01*
X0052939Y0189442D01*
X0052986Y0189355D01*
X0053028Y0189267D01*
X0053068Y0189177D01*
X0053103Y0189085D01*
X0053136Y0188993D01*
X0053164Y0188899D01*
X0053189Y0188804D01*
X0053210Y0188708D01*
X0053227Y0188611D01*
X0053241Y0188514D01*
X0053250Y0188416D01*
X0053256Y0188318D01*
X0053258Y0188220D01*
X0076564Y0093221D02*
X0076566Y0093280D01*
X0076572Y0093340D01*
X0076582Y0093398D01*
X0076596Y0093456D01*
X0076613Y0093513D01*
X0076635Y0093568D01*
X0076660Y0093622D01*
X0076688Y0093675D01*
X0076720Y0093725D01*
X0076756Y0093773D01*
X0076794Y0093818D01*
X0076835Y0093861D01*
X0076879Y0093901D01*
X0076926Y0093938D01*
X0076975Y0093971D01*
X0077026Y0094001D01*
X0077079Y0094028D01*
X0077134Y0094052D01*
X0077190Y0094071D01*
X0077248Y0094087D01*
X0077306Y0094099D01*
X0077365Y0094107D01*
X0077424Y0094111D01*
X0077484Y0094111D01*
X0077543Y0094107D01*
X0077602Y0094099D01*
X0077660Y0094087D01*
X0077718Y0094071D01*
X0077774Y0094052D01*
X0077829Y0094028D01*
X0077882Y0094001D01*
X0077933Y0093971D01*
X0077982Y0093938D01*
X0078029Y0093901D01*
X0078073Y0093861D01*
X0078114Y0093818D01*
X0078152Y0093773D01*
X0078188Y0093725D01*
X0078220Y0093675D01*
X0078248Y0093622D01*
X0078273Y0093568D01*
X0078295Y0093513D01*
X0078312Y0093456D01*
X0078326Y0093398D01*
X0078336Y0093340D01*
X0078342Y0093280D01*
X0078344Y0093221D01*
X0078342Y0093162D01*
X0078336Y0093102D01*
X0078326Y0093044D01*
X0078312Y0092986D01*
X0078295Y0092929D01*
X0078273Y0092874D01*
X0078248Y0092820D01*
X0078220Y0092767D01*
X0078188Y0092717D01*
X0078152Y0092669D01*
X0078114Y0092624D01*
X0078073Y0092581D01*
X0078029Y0092541D01*
X0077982Y0092504D01*
X0077933Y0092471D01*
X0077882Y0092441D01*
X0077829Y0092414D01*
X0077774Y0092390D01*
X0077718Y0092371D01*
X0077660Y0092355D01*
X0077602Y0092343D01*
X0077543Y0092335D01*
X0077484Y0092331D01*
X0077424Y0092331D01*
X0077365Y0092335D01*
X0077306Y0092343D01*
X0077248Y0092355D01*
X0077190Y0092371D01*
X0077134Y0092390D01*
X0077079Y0092414D01*
X0077026Y0092441D01*
X0076975Y0092471D01*
X0076926Y0092504D01*
X0076879Y0092541D01*
X0076835Y0092581D01*
X0076794Y0092624D01*
X0076756Y0092669D01*
X0076720Y0092717D01*
X0076688Y0092767D01*
X0076660Y0092820D01*
X0076635Y0092874D01*
X0076613Y0092929D01*
X0076596Y0092986D01*
X0076582Y0093044D01*
X0076572Y0093102D01*
X0076566Y0093162D01*
X0076564Y0093221D01*
X0067697Y0020225D02*
X0067699Y0020284D01*
X0067705Y0020344D01*
X0067715Y0020402D01*
X0067729Y0020460D01*
X0067746Y0020517D01*
X0067768Y0020572D01*
X0067793Y0020626D01*
X0067821Y0020679D01*
X0067853Y0020729D01*
X0067889Y0020777D01*
X0067927Y0020822D01*
X0067968Y0020865D01*
X0068012Y0020905D01*
X0068059Y0020942D01*
X0068108Y0020975D01*
X0068159Y0021005D01*
X0068212Y0021032D01*
X0068267Y0021056D01*
X0068323Y0021075D01*
X0068381Y0021091D01*
X0068439Y0021103D01*
X0068498Y0021111D01*
X0068557Y0021115D01*
X0068617Y0021115D01*
X0068676Y0021111D01*
X0068735Y0021103D01*
X0068793Y0021091D01*
X0068851Y0021075D01*
X0068907Y0021056D01*
X0068962Y0021032D01*
X0069015Y0021005D01*
X0069066Y0020975D01*
X0069115Y0020942D01*
X0069162Y0020905D01*
X0069206Y0020865D01*
X0069247Y0020822D01*
X0069285Y0020777D01*
X0069321Y0020729D01*
X0069353Y0020679D01*
X0069381Y0020626D01*
X0069406Y0020572D01*
X0069428Y0020517D01*
X0069445Y0020460D01*
X0069459Y0020402D01*
X0069469Y0020344D01*
X0069475Y0020284D01*
X0069477Y0020225D01*
X0069475Y0020166D01*
X0069469Y0020106D01*
X0069459Y0020048D01*
X0069445Y0019990D01*
X0069428Y0019933D01*
X0069406Y0019878D01*
X0069381Y0019824D01*
X0069353Y0019771D01*
X0069321Y0019721D01*
X0069285Y0019673D01*
X0069247Y0019628D01*
X0069206Y0019585D01*
X0069162Y0019545D01*
X0069115Y0019508D01*
X0069066Y0019475D01*
X0069015Y0019445D01*
X0068962Y0019418D01*
X0068907Y0019394D01*
X0068851Y0019375D01*
X0068793Y0019359D01*
X0068735Y0019347D01*
X0068676Y0019339D01*
X0068617Y0019335D01*
X0068557Y0019335D01*
X0068498Y0019339D01*
X0068439Y0019347D01*
X0068381Y0019359D01*
X0068323Y0019375D01*
X0068267Y0019394D01*
X0068212Y0019418D01*
X0068159Y0019445D01*
X0068108Y0019475D01*
X0068059Y0019508D01*
X0068012Y0019545D01*
X0067968Y0019585D01*
X0067927Y0019628D01*
X0067889Y0019673D01*
X0067853Y0019721D01*
X0067821Y0019771D01*
X0067793Y0019824D01*
X0067768Y0019878D01*
X0067746Y0019933D01*
X0067729Y0019990D01*
X0067715Y0020048D01*
X0067705Y0020106D01*
X0067699Y0020166D01*
X0067697Y0020225D01*
X0184666Y0020225D02*
X0184668Y0020284D01*
X0184674Y0020344D01*
X0184684Y0020402D01*
X0184698Y0020460D01*
X0184715Y0020517D01*
X0184737Y0020572D01*
X0184762Y0020626D01*
X0184790Y0020679D01*
X0184822Y0020729D01*
X0184858Y0020777D01*
X0184896Y0020822D01*
X0184937Y0020865D01*
X0184981Y0020905D01*
X0185028Y0020942D01*
X0185077Y0020975D01*
X0185128Y0021005D01*
X0185181Y0021032D01*
X0185236Y0021056D01*
X0185292Y0021075D01*
X0185350Y0021091D01*
X0185408Y0021103D01*
X0185467Y0021111D01*
X0185526Y0021115D01*
X0185586Y0021115D01*
X0185645Y0021111D01*
X0185704Y0021103D01*
X0185762Y0021091D01*
X0185820Y0021075D01*
X0185876Y0021056D01*
X0185931Y0021032D01*
X0185984Y0021005D01*
X0186035Y0020975D01*
X0186084Y0020942D01*
X0186131Y0020905D01*
X0186175Y0020865D01*
X0186216Y0020822D01*
X0186254Y0020777D01*
X0186290Y0020729D01*
X0186322Y0020679D01*
X0186350Y0020626D01*
X0186375Y0020572D01*
X0186397Y0020517D01*
X0186414Y0020460D01*
X0186428Y0020402D01*
X0186438Y0020344D01*
X0186444Y0020284D01*
X0186446Y0020225D01*
X0186444Y0020166D01*
X0186438Y0020106D01*
X0186428Y0020048D01*
X0186414Y0019990D01*
X0186397Y0019933D01*
X0186375Y0019878D01*
X0186350Y0019824D01*
X0186322Y0019771D01*
X0186290Y0019721D01*
X0186254Y0019673D01*
X0186216Y0019628D01*
X0186175Y0019585D01*
X0186131Y0019545D01*
X0186084Y0019508D01*
X0186035Y0019475D01*
X0185984Y0019445D01*
X0185931Y0019418D01*
X0185876Y0019394D01*
X0185820Y0019375D01*
X0185762Y0019359D01*
X0185704Y0019347D01*
X0185645Y0019339D01*
X0185586Y0019335D01*
X0185526Y0019335D01*
X0185467Y0019339D01*
X0185408Y0019347D01*
X0185350Y0019359D01*
X0185292Y0019375D01*
X0185236Y0019394D01*
X0185181Y0019418D01*
X0185128Y0019445D01*
X0185077Y0019475D01*
X0185028Y0019508D01*
X0184981Y0019545D01*
X0184937Y0019585D01*
X0184896Y0019628D01*
X0184858Y0019673D01*
X0184822Y0019721D01*
X0184790Y0019771D01*
X0184762Y0019824D01*
X0184737Y0019878D01*
X0184715Y0019933D01*
X0184698Y0019990D01*
X0184684Y0020048D01*
X0184674Y0020106D01*
X0184668Y0020166D01*
X0184666Y0020225D01*
D13*
X0188856Y0022520D02*
X0188856Y0037520D01*
X0191356Y0040020D01*
X0196356Y0040020D01*
X0198856Y0037520D01*
X0198856Y0022520D01*
X0201356Y0020020D01*
X0206356Y0020020D01*
X0208856Y0022520D01*
X0208856Y0037520D01*
X0211356Y0040020D01*
X0216356Y0040020D01*
X0218856Y0037520D01*
X0218856Y0022520D01*
X0221356Y0020020D01*
X0226356Y0020020D01*
X0228856Y0022520D01*
X0228856Y0037520D01*
X0231356Y0040020D01*
X0236356Y0040020D01*
X0238856Y0037520D01*
X0238856Y0022520D01*
X0241356Y0020020D01*
X0246356Y0020020D01*
X0248856Y0022520D01*
X0248856Y0037520D01*
X0251356Y0040020D01*
X0256356Y0040020D01*
X0258856Y0037520D01*
X0258856Y0022520D01*
X0256356Y0020020D01*
X0251356Y0020020D01*
X0248856Y0022520D01*
X0238856Y0022520D02*
X0236356Y0020020D01*
X0231356Y0020020D01*
X0228856Y0022520D01*
X0218856Y0022520D02*
X0216356Y0020020D01*
X0211356Y0020020D01*
X0208856Y0022520D01*
X0198856Y0022520D02*
X0196356Y0020020D01*
X0191356Y0020020D01*
X0188856Y0022520D01*
X0198856Y0037520D02*
X0201356Y0040020D01*
X0206356Y0040020D01*
X0208856Y0037520D01*
X0218856Y0037520D02*
X0221356Y0040020D01*
X0226356Y0040020D01*
X0228856Y0037520D01*
X0238856Y0037520D02*
X0241356Y0040020D01*
X0246356Y0040020D01*
X0248856Y0037520D01*
X0258856Y0037520D02*
X0261356Y0040020D01*
X0266356Y0040020D01*
X0268856Y0037520D01*
X0268856Y0022520D01*
X0266356Y0020020D01*
X0261356Y0020020D01*
X0258856Y0022520D01*
X0268856Y0022520D02*
X0271356Y0020020D01*
X0276356Y0020020D01*
X0278856Y0022520D01*
X0281356Y0020020D01*
X0286356Y0020020D01*
X0288856Y0022520D01*
X0288856Y0037520D01*
X0286356Y0040020D01*
X0281356Y0040020D01*
X0278856Y0037520D01*
X0278856Y0022520D01*
X0278856Y0037520D02*
X0276356Y0040020D01*
X0271356Y0040020D01*
X0268856Y0037520D01*
X0337469Y0068970D02*
X0337469Y0071470D01*
X0337469Y0068970D02*
X0339969Y0068970D01*
X0379969Y0068970D02*
X0382469Y0068970D01*
X0382469Y0071470D01*
X0382469Y0111470D02*
X0382469Y0113970D01*
X0379969Y0113970D01*
X0379438Y0131556D02*
X0381938Y0131556D01*
X0381938Y0134056D01*
X0339438Y0131556D02*
X0336938Y0131556D01*
X0336938Y0134056D01*
X0325423Y0131209D02*
X0325423Y0126209D01*
X0322923Y0123709D01*
X0325423Y0121209D01*
X0325423Y0116209D01*
X0322923Y0113709D01*
X0312923Y0113709D01*
X0310423Y0116209D01*
X0310423Y0121209D01*
X0312923Y0123709D01*
X0310423Y0126209D01*
X0310423Y0131209D01*
X0312923Y0133709D01*
X0322923Y0133709D01*
X0325423Y0131209D01*
X0322923Y0123709D02*
X0312923Y0123709D01*
X0337469Y0113970D02*
X0337469Y0111470D01*
X0337469Y0113970D02*
X0339969Y0113970D01*
X0336938Y0174056D02*
X0336938Y0176556D01*
X0339438Y0176556D01*
X0379438Y0176556D02*
X0381938Y0176556D01*
X0381938Y0174056D01*
X0317741Y0207981D02*
X0317741Y0217981D01*
X0315241Y0220481D01*
X0310241Y0220481D01*
X0307741Y0217981D01*
X0305241Y0220481D01*
X0300241Y0220481D01*
X0297741Y0217981D01*
X0295241Y0220481D01*
X0290241Y0220481D01*
X0287741Y0217981D01*
X0287741Y0207981D01*
X0290241Y0205481D01*
X0295241Y0205481D01*
X0297741Y0207981D01*
X0297741Y0217981D01*
X0307741Y0217981D02*
X0307741Y0207981D01*
X0305241Y0205481D01*
X0300241Y0205481D01*
X0297741Y0207981D01*
X0307741Y0207981D02*
X0310241Y0205481D01*
X0315241Y0205481D01*
X0317741Y0207981D01*
X0236330Y0205587D02*
X0233830Y0203087D01*
X0228830Y0203087D01*
X0226330Y0205587D01*
X0226330Y0220587D01*
X0223830Y0223087D01*
X0218830Y0223087D01*
X0216330Y0220587D01*
X0213830Y0223087D01*
X0208830Y0223087D01*
X0206330Y0220587D01*
X0206330Y0205587D01*
X0208830Y0203087D01*
X0213830Y0203087D01*
X0216330Y0205587D01*
X0216330Y0220587D01*
X0226330Y0220587D02*
X0228830Y0223087D01*
X0233830Y0223087D01*
X0236330Y0220587D01*
X0236330Y0205587D01*
X0226330Y0205587D02*
X0223830Y0203087D01*
X0218830Y0203087D01*
X0216330Y0205587D01*
X0189305Y0229062D02*
X0189305Y0239062D01*
X0179305Y0239062D01*
X0169305Y0239062D01*
X0159305Y0239062D01*
X0149305Y0239062D01*
X0139305Y0239062D01*
X0129305Y0239062D01*
X0129305Y0229062D01*
X0139305Y0229062D01*
X0149305Y0229062D01*
X0159305Y0229062D01*
X0169305Y0229062D01*
X0179305Y0229062D01*
X0189305Y0229062D01*
X0179305Y0229062D02*
X0179305Y0239062D01*
X0169305Y0239062D02*
X0169305Y0229062D01*
X0159305Y0229062D02*
X0159305Y0239062D01*
X0149305Y0239062D02*
X0149305Y0229062D01*
X0139305Y0229062D02*
X0139305Y0239062D01*
X0050758Y0187720D02*
X0050258Y0188220D01*
X0036258Y0188220D01*
X0035758Y0187720D01*
X0035758Y0153720D01*
X0036258Y0153220D01*
X0050258Y0153220D01*
X0050758Y0153720D01*
X0050758Y0187720D01*
X0043258Y0176720D02*
X0043258Y0174420D01*
X0043258Y0167020D02*
X0043258Y0164720D01*
X0083353Y0113728D02*
X0088353Y0113728D01*
X0090853Y0111228D01*
X0090853Y0096228D01*
X0093353Y0093728D01*
X0098353Y0093728D01*
X0100853Y0096228D01*
X0100853Y0111228D01*
X0103353Y0113728D01*
X0108353Y0113728D01*
X0110853Y0111228D01*
X0110853Y0096228D01*
X0113353Y0093728D01*
X0118353Y0093728D01*
X0120853Y0096228D01*
X0120853Y0111228D01*
X0123353Y0113728D01*
X0128353Y0113728D01*
X0130853Y0111228D01*
X0130853Y0096228D01*
X0133353Y0093728D01*
X0138353Y0093728D01*
X0140853Y0096228D01*
X0140853Y0111228D01*
X0143353Y0113728D01*
X0148353Y0113728D01*
X0150853Y0111228D01*
X0150853Y0096228D01*
X0148353Y0093728D01*
X0143353Y0093728D01*
X0140853Y0096228D01*
X0130853Y0096228D02*
X0128353Y0093728D01*
X0123353Y0093728D01*
X0120853Y0096228D01*
X0110853Y0096228D02*
X0108353Y0093728D01*
X0103353Y0093728D01*
X0100853Y0096228D01*
X0090853Y0096228D02*
X0088353Y0093728D01*
X0083353Y0093728D01*
X0080853Y0096228D01*
X0080853Y0111228D01*
X0083353Y0113728D01*
X0090853Y0111228D02*
X0093353Y0113728D01*
X0098353Y0113728D01*
X0100853Y0111228D01*
X0110853Y0111228D02*
X0113353Y0113728D01*
X0118353Y0113728D01*
X0120853Y0111228D01*
X0130853Y0111228D02*
X0133353Y0113728D01*
X0138353Y0113728D01*
X0140853Y0111228D01*
X0150853Y0111228D02*
X0153353Y0113728D01*
X0158353Y0113728D01*
X0160853Y0111228D01*
X0160853Y0096228D01*
X0158353Y0093728D01*
X0153353Y0093728D01*
X0150853Y0096228D01*
X0160853Y0096228D02*
X0163353Y0093728D01*
X0168353Y0093728D01*
X0170853Y0096228D01*
X0173353Y0093728D01*
X0178353Y0093728D01*
X0180853Y0096228D01*
X0180853Y0111228D01*
X0178353Y0113728D01*
X0173353Y0113728D01*
X0170853Y0111228D01*
X0170853Y0096228D01*
X0170853Y0111228D02*
X0168353Y0113728D01*
X0163353Y0113728D01*
X0160853Y0111228D01*
X0209185Y0120018D02*
X0209185Y0130018D01*
X0211685Y0132518D01*
X0216685Y0132518D01*
X0219185Y0130018D01*
X0221685Y0132518D01*
X0226685Y0132518D01*
X0229185Y0130018D01*
X0229185Y0120018D01*
X0226685Y0117518D01*
X0221685Y0117518D01*
X0219185Y0120018D01*
X0216685Y0117518D01*
X0211685Y0117518D01*
X0209185Y0120018D01*
X0219185Y0120018D02*
X0219185Y0130018D01*
X0203747Y0157572D02*
X0235747Y0157572D01*
X0235823Y0157574D01*
X0235899Y0157580D01*
X0235974Y0157589D01*
X0236049Y0157603D01*
X0236123Y0157620D01*
X0236196Y0157641D01*
X0236268Y0157665D01*
X0236339Y0157694D01*
X0236408Y0157725D01*
X0236475Y0157760D01*
X0236540Y0157799D01*
X0236604Y0157841D01*
X0236665Y0157886D01*
X0236724Y0157934D01*
X0236780Y0157985D01*
X0236834Y0158039D01*
X0236885Y0158095D01*
X0236933Y0158154D01*
X0236978Y0158215D01*
X0237020Y0158279D01*
X0237059Y0158344D01*
X0237094Y0158411D01*
X0237125Y0158480D01*
X0237154Y0158551D01*
X0237178Y0158623D01*
X0237199Y0158696D01*
X0237216Y0158770D01*
X0237230Y0158845D01*
X0237239Y0158920D01*
X0237245Y0158996D01*
X0237247Y0159072D01*
X0237247Y0160772D01*
X0237247Y0164772D01*
X0237247Y0166472D01*
X0237247Y0166572D02*
X0202247Y0166572D01*
X0202247Y0166472D02*
X0202247Y0159072D01*
X0202249Y0158996D01*
X0202255Y0158920D01*
X0202264Y0158845D01*
X0202278Y0158770D01*
X0202295Y0158696D01*
X0202316Y0158623D01*
X0202340Y0158551D01*
X0202369Y0158480D01*
X0202400Y0158411D01*
X0202435Y0158344D01*
X0202474Y0158279D01*
X0202516Y0158215D01*
X0202561Y0158154D01*
X0202609Y0158095D01*
X0202660Y0158039D01*
X0202714Y0157985D01*
X0202770Y0157934D01*
X0202829Y0157886D01*
X0202890Y0157841D01*
X0202954Y0157799D01*
X0203019Y0157760D01*
X0203086Y0157725D01*
X0203155Y0157694D01*
X0203226Y0157665D01*
X0203298Y0157641D01*
X0203371Y0157620D01*
X0203445Y0157603D01*
X0203520Y0157589D01*
X0203595Y0157580D01*
X0203671Y0157574D01*
X0203747Y0157572D01*
X0202247Y0166472D02*
X0202249Y0166548D01*
X0202255Y0166624D01*
X0202264Y0166699D01*
X0202278Y0166774D01*
X0202295Y0166848D01*
X0202316Y0166921D01*
X0202340Y0166993D01*
X0202369Y0167064D01*
X0202400Y0167133D01*
X0202435Y0167200D01*
X0202474Y0167265D01*
X0202516Y0167329D01*
X0202561Y0167390D01*
X0202609Y0167449D01*
X0202660Y0167505D01*
X0202714Y0167559D01*
X0202770Y0167610D01*
X0202829Y0167658D01*
X0202890Y0167703D01*
X0202954Y0167745D01*
X0203019Y0167784D01*
X0203086Y0167819D01*
X0203155Y0167850D01*
X0203226Y0167879D01*
X0203298Y0167903D01*
X0203371Y0167924D01*
X0203445Y0167941D01*
X0203520Y0167955D01*
X0203595Y0167964D01*
X0203671Y0167970D01*
X0203747Y0167972D01*
X0235747Y0167972D01*
X0235823Y0167970D01*
X0235899Y0167964D01*
X0235974Y0167955D01*
X0236049Y0167941D01*
X0236123Y0167924D01*
X0236196Y0167903D01*
X0236268Y0167879D01*
X0236339Y0167850D01*
X0236408Y0167819D01*
X0236475Y0167784D01*
X0236540Y0167745D01*
X0236604Y0167703D01*
X0236665Y0167658D01*
X0236724Y0167610D01*
X0236780Y0167559D01*
X0236834Y0167505D01*
X0236885Y0167449D01*
X0236933Y0167390D01*
X0236978Y0167329D01*
X0237020Y0167265D01*
X0237059Y0167200D01*
X0237094Y0167133D01*
X0237125Y0167064D01*
X0237154Y0166993D01*
X0237178Y0166921D01*
X0237199Y0166848D01*
X0237216Y0166774D01*
X0237230Y0166699D01*
X0237239Y0166624D01*
X0237245Y0166548D01*
X0237247Y0166472D01*
X0237247Y0164772D02*
X0237159Y0164770D01*
X0237070Y0164764D01*
X0236982Y0164754D01*
X0236895Y0164741D01*
X0236808Y0164723D01*
X0236722Y0164702D01*
X0236637Y0164677D01*
X0236554Y0164648D01*
X0236471Y0164615D01*
X0236391Y0164579D01*
X0236312Y0164540D01*
X0236234Y0164497D01*
X0236159Y0164450D01*
X0236086Y0164400D01*
X0236015Y0164347D01*
X0235946Y0164291D01*
X0235880Y0164232D01*
X0235817Y0164170D01*
X0235757Y0164106D01*
X0235699Y0164039D01*
X0235645Y0163969D01*
X0235593Y0163897D01*
X0235545Y0163823D01*
X0235500Y0163746D01*
X0235459Y0163668D01*
X0235421Y0163588D01*
X0235387Y0163507D01*
X0235356Y0163424D01*
X0235329Y0163339D01*
X0235306Y0163254D01*
X0235287Y0163168D01*
X0235271Y0163080D01*
X0235259Y0162993D01*
X0235251Y0162905D01*
X0235247Y0162816D01*
X0235247Y0162728D01*
X0235251Y0162639D01*
X0235259Y0162551D01*
X0235271Y0162464D01*
X0235287Y0162376D01*
X0235306Y0162290D01*
X0235329Y0162205D01*
X0235356Y0162120D01*
X0235387Y0162037D01*
X0235421Y0161956D01*
X0235459Y0161876D01*
X0235500Y0161798D01*
X0235545Y0161721D01*
X0235593Y0161647D01*
X0235645Y0161575D01*
X0235699Y0161505D01*
X0235757Y0161438D01*
X0235817Y0161374D01*
X0235880Y0161312D01*
X0235946Y0161253D01*
X0236015Y0161197D01*
X0236086Y0161144D01*
X0236159Y0161094D01*
X0236234Y0161047D01*
X0236312Y0161004D01*
X0236391Y0160965D01*
X0236471Y0160929D01*
X0236554Y0160896D01*
X0236637Y0160867D01*
X0236722Y0160842D01*
X0236808Y0160821D01*
X0236895Y0160803D01*
X0236982Y0160790D01*
X0237070Y0160780D01*
X0237159Y0160774D01*
X0237247Y0160772D01*
X0140051Y0040335D02*
X0135051Y0040335D01*
X0132551Y0037835D01*
X0132551Y0022835D01*
X0135051Y0020335D01*
X0140051Y0020335D01*
X0142551Y0022835D01*
X0142551Y0037835D01*
X0140051Y0040335D01*
X0132551Y0037835D02*
X0130051Y0040335D01*
X0125051Y0040335D01*
X0122551Y0037835D01*
X0122551Y0022835D01*
X0125051Y0020335D01*
X0130051Y0020335D01*
X0132551Y0022835D01*
X0122551Y0022835D02*
X0120051Y0020335D01*
X0115051Y0020335D01*
X0112551Y0022835D01*
X0112551Y0037835D01*
X0115051Y0040335D01*
X0120051Y0040335D01*
X0122551Y0037835D01*
X0112551Y0037835D02*
X0110051Y0040335D01*
X0105051Y0040335D01*
X0102551Y0037835D01*
X0102551Y0022835D01*
X0105051Y0020335D01*
X0110051Y0020335D01*
X0112551Y0022835D01*
X0102551Y0022835D02*
X0100051Y0020335D01*
X0095051Y0020335D01*
X0092551Y0022835D01*
X0092551Y0037835D01*
X0095051Y0040335D01*
X0100051Y0040335D01*
X0102551Y0037835D01*
X0092551Y0037835D02*
X0090051Y0040335D01*
X0085051Y0040335D01*
X0082551Y0037835D01*
X0082551Y0022835D01*
X0085051Y0020335D01*
X0090051Y0020335D01*
X0092551Y0022835D01*
X0082551Y0022835D02*
X0080051Y0020335D01*
X0075051Y0020335D01*
X0072551Y0022835D01*
X0072551Y0037835D01*
X0075051Y0040335D01*
X0080051Y0040335D01*
X0082551Y0037835D01*
X0028594Y0086513D02*
X0027594Y0085513D01*
X0014594Y0085513D01*
X0013594Y0086513D01*
X0013594Y0094513D01*
X0014594Y0095513D01*
X0013594Y0096513D01*
X0013594Y0104513D01*
X0014594Y0105513D01*
X0027594Y0105513D01*
X0028594Y0104513D01*
X0028594Y0096513D01*
X0027594Y0095513D01*
X0028594Y0094513D01*
X0028594Y0086513D01*
D14*
X0134305Y0241562D02*
X0134305Y0264062D01*
X0144305Y0264062D02*
X0144305Y0241562D01*
X0154305Y0241562D02*
X0154305Y0264062D01*
X0164305Y0264062D02*
X0164305Y0241562D01*
X0174305Y0241562D02*
X0174305Y0264062D01*
X0184305Y0264062D02*
X0184305Y0241562D01*
D15*
X0184305Y0240062D03*
X0174305Y0240062D03*
X0164305Y0240062D03*
X0154305Y0240062D03*
X0144305Y0240062D03*
X0134305Y0240062D03*
D16*
X0134305Y0228412D03*
X0144305Y0228412D03*
X0154305Y0228412D03*
X0164305Y0228412D03*
X0174305Y0228412D03*
X0184305Y0228412D03*
D17*
X0098112Y0185333D02*
X0098114Y0185404D01*
X0098120Y0185475D01*
X0098130Y0185546D01*
X0098144Y0185616D01*
X0098161Y0185685D01*
X0098183Y0185753D01*
X0098208Y0185819D01*
X0098237Y0185885D01*
X0098269Y0185948D01*
X0098305Y0186010D01*
X0098344Y0186069D01*
X0098387Y0186126D01*
X0098433Y0186181D01*
X0098481Y0186233D01*
X0098533Y0186283D01*
X0098587Y0186329D01*
X0098643Y0186372D01*
X0098702Y0186412D01*
X0098763Y0186449D01*
X0098826Y0186482D01*
X0098891Y0186512D01*
X0098957Y0186538D01*
X0099025Y0186561D01*
X0099094Y0186579D01*
X0099164Y0186594D01*
X0099234Y0186605D01*
X0099305Y0186612D01*
X0099376Y0186615D01*
X0099447Y0186614D01*
X0099519Y0186609D01*
X0099589Y0186600D01*
X0099659Y0186587D01*
X0099729Y0186571D01*
X0099797Y0186550D01*
X0099864Y0186526D01*
X0099930Y0186498D01*
X0099993Y0186466D01*
X0100055Y0186431D01*
X0100115Y0186393D01*
X0100173Y0186351D01*
X0100229Y0186306D01*
X0100281Y0186258D01*
X0100331Y0186207D01*
X0100379Y0186154D01*
X0100423Y0186098D01*
X0100464Y0186040D01*
X0100501Y0185979D01*
X0100535Y0185917D01*
X0100566Y0185852D01*
X0100593Y0185786D01*
X0100617Y0185719D01*
X0100636Y0185650D01*
X0100652Y0185581D01*
X0100664Y0185511D01*
X0100672Y0185440D01*
X0100676Y0185369D01*
X0100676Y0185297D01*
X0100672Y0185226D01*
X0100664Y0185155D01*
X0100652Y0185085D01*
X0100636Y0185016D01*
X0100617Y0184947D01*
X0100593Y0184880D01*
X0100566Y0184814D01*
X0100535Y0184749D01*
X0100501Y0184687D01*
X0100464Y0184626D01*
X0100423Y0184568D01*
X0100379Y0184512D01*
X0100331Y0184459D01*
X0100281Y0184408D01*
X0100229Y0184360D01*
X0100173Y0184315D01*
X0100115Y0184273D01*
X0100055Y0184235D01*
X0099993Y0184200D01*
X0099930Y0184168D01*
X0099864Y0184140D01*
X0099797Y0184116D01*
X0099729Y0184095D01*
X0099659Y0184079D01*
X0099589Y0184066D01*
X0099519Y0184057D01*
X0099447Y0184052D01*
X0099376Y0184051D01*
X0099305Y0184054D01*
X0099234Y0184061D01*
X0099164Y0184072D01*
X0099094Y0184087D01*
X0099025Y0184105D01*
X0098957Y0184128D01*
X0098891Y0184154D01*
X0098826Y0184184D01*
X0098763Y0184217D01*
X0098702Y0184254D01*
X0098643Y0184294D01*
X0098587Y0184337D01*
X0098533Y0184383D01*
X0098481Y0184433D01*
X0098433Y0184485D01*
X0098387Y0184540D01*
X0098344Y0184597D01*
X0098305Y0184656D01*
X0098269Y0184718D01*
X0098237Y0184781D01*
X0098208Y0184847D01*
X0098183Y0184913D01*
X0098161Y0184981D01*
X0098144Y0185050D01*
X0098130Y0185120D01*
X0098120Y0185191D01*
X0098114Y0185262D01*
X0098112Y0185333D01*
X0051894Y0088529D02*
X0049780Y0088529D01*
X0045237Y0087029D02*
X0045237Y0083648D01*
X0056437Y0083648D02*
X0056437Y0087029D01*
D18*
X0048258Y0167020D02*
X0043258Y0167020D01*
X0038258Y0167020D01*
X0038258Y0169520D02*
X0048258Y0169520D01*
X0048258Y0172020D01*
X0038258Y0172020D01*
X0038258Y0169520D01*
X0038258Y0174420D02*
X0043258Y0174420D01*
X0048258Y0174420D01*
D19*
X0154303Y0151678D03*
X0154303Y0148725D03*
X0228728Y0098914D03*
X0228728Y0095962D03*
D20*
X0228728Y0097438D03*
X0154303Y0150202D03*
D21*
X0291647Y0105924D03*
X0294600Y0105924D03*
D22*
X0293124Y0105924D03*
D23*
X0242997Y0157744D02*
X0242997Y0159246D01*
X0242997Y0158495D02*
X0238493Y0158495D01*
X0238493Y0157744D02*
X0238493Y0159246D01*
X0239244Y0160814D02*
X0242246Y0160814D01*
X0242997Y0161564D01*
X0242997Y0163066D01*
X0242246Y0163816D01*
X0242997Y0165418D02*
X0242997Y0168420D01*
X0242997Y0166919D02*
X0238493Y0166919D01*
X0239995Y0165418D01*
X0239244Y0163816D02*
X0238493Y0163066D01*
X0238493Y0161564D01*
X0239244Y0160814D01*
M02*
