G75*
%MOIN*%
%OFA0B0*%
%FSLAX25Y25*%
%IPPOS*%
%LPD*%
%AMOC8*
5,1,8,0,0,1.08239X$1,22.5*
%
%ADD10C,0.00000*%
%ADD11R,0.01575X0.06732*%
%ADD12R,0.07874X0.05748*%
%ADD13R,0.05413X0.09843*%
%ADD14C,0.01600*%
%ADD15C,0.06000*%
%ADD16OC8,0.06000*%
%ADD17OC8,0.47244*%
%ADD18C,0.05600*%
%ADD19C,0.05200*%
%ADD20C,0.03169*%
%ADD21C,0.05000*%
%ADD22C,0.17780*%
%ADD23C,0.16598*%
%ADD24C,0.00800*%
D10*
X0003500Y0003500D02*
X0003500Y0239720D01*
X0393264Y0239720D01*
X0393264Y0003500D01*
X0003500Y0003500D01*
X0001728Y0008618D02*
X0001730Y0008787D01*
X0001736Y0008956D01*
X0001747Y0009125D01*
X0001761Y0009293D01*
X0001780Y0009461D01*
X0001803Y0009629D01*
X0001829Y0009796D01*
X0001860Y0009962D01*
X0001895Y0010128D01*
X0001934Y0010292D01*
X0001978Y0010456D01*
X0002025Y0010618D01*
X0002076Y0010779D01*
X0002131Y0010939D01*
X0002190Y0011098D01*
X0002252Y0011255D01*
X0002319Y0011410D01*
X0002390Y0011564D01*
X0002464Y0011716D01*
X0002542Y0011866D01*
X0002623Y0012014D01*
X0002708Y0012160D01*
X0002797Y0012304D01*
X0002889Y0012446D01*
X0002985Y0012585D01*
X0003084Y0012722D01*
X0003186Y0012857D01*
X0003292Y0012989D01*
X0003401Y0013118D01*
X0003513Y0013245D01*
X0003628Y0013369D01*
X0003746Y0013490D01*
X0003867Y0013608D01*
X0003991Y0013723D01*
X0004118Y0013835D01*
X0004247Y0013944D01*
X0004379Y0014050D01*
X0004514Y0014152D01*
X0004651Y0014251D01*
X0004790Y0014347D01*
X0004932Y0014439D01*
X0005076Y0014528D01*
X0005222Y0014613D01*
X0005370Y0014694D01*
X0005520Y0014772D01*
X0005672Y0014846D01*
X0005826Y0014917D01*
X0005981Y0014984D01*
X0006138Y0015046D01*
X0006297Y0015105D01*
X0006457Y0015160D01*
X0006618Y0015211D01*
X0006780Y0015258D01*
X0006944Y0015302D01*
X0007108Y0015341D01*
X0007274Y0015376D01*
X0007440Y0015407D01*
X0007607Y0015433D01*
X0007775Y0015456D01*
X0007943Y0015475D01*
X0008111Y0015489D01*
X0008280Y0015500D01*
X0008449Y0015506D01*
X0008618Y0015508D01*
X0008787Y0015506D01*
X0008956Y0015500D01*
X0009125Y0015489D01*
X0009293Y0015475D01*
X0009461Y0015456D01*
X0009629Y0015433D01*
X0009796Y0015407D01*
X0009962Y0015376D01*
X0010128Y0015341D01*
X0010292Y0015302D01*
X0010456Y0015258D01*
X0010618Y0015211D01*
X0010779Y0015160D01*
X0010939Y0015105D01*
X0011098Y0015046D01*
X0011255Y0014984D01*
X0011410Y0014917D01*
X0011564Y0014846D01*
X0011716Y0014772D01*
X0011866Y0014694D01*
X0012014Y0014613D01*
X0012160Y0014528D01*
X0012304Y0014439D01*
X0012446Y0014347D01*
X0012585Y0014251D01*
X0012722Y0014152D01*
X0012857Y0014050D01*
X0012989Y0013944D01*
X0013118Y0013835D01*
X0013245Y0013723D01*
X0013369Y0013608D01*
X0013490Y0013490D01*
X0013608Y0013369D01*
X0013723Y0013245D01*
X0013835Y0013118D01*
X0013944Y0012989D01*
X0014050Y0012857D01*
X0014152Y0012722D01*
X0014251Y0012585D01*
X0014347Y0012446D01*
X0014439Y0012304D01*
X0014528Y0012160D01*
X0014613Y0012014D01*
X0014694Y0011866D01*
X0014772Y0011716D01*
X0014846Y0011564D01*
X0014917Y0011410D01*
X0014984Y0011255D01*
X0015046Y0011098D01*
X0015105Y0010939D01*
X0015160Y0010779D01*
X0015211Y0010618D01*
X0015258Y0010456D01*
X0015302Y0010292D01*
X0015341Y0010128D01*
X0015376Y0009962D01*
X0015407Y0009796D01*
X0015433Y0009629D01*
X0015456Y0009461D01*
X0015475Y0009293D01*
X0015489Y0009125D01*
X0015500Y0008956D01*
X0015506Y0008787D01*
X0015508Y0008618D01*
X0015506Y0008449D01*
X0015500Y0008280D01*
X0015489Y0008111D01*
X0015475Y0007943D01*
X0015456Y0007775D01*
X0015433Y0007607D01*
X0015407Y0007440D01*
X0015376Y0007274D01*
X0015341Y0007108D01*
X0015302Y0006944D01*
X0015258Y0006780D01*
X0015211Y0006618D01*
X0015160Y0006457D01*
X0015105Y0006297D01*
X0015046Y0006138D01*
X0014984Y0005981D01*
X0014917Y0005826D01*
X0014846Y0005672D01*
X0014772Y0005520D01*
X0014694Y0005370D01*
X0014613Y0005222D01*
X0014528Y0005076D01*
X0014439Y0004932D01*
X0014347Y0004790D01*
X0014251Y0004651D01*
X0014152Y0004514D01*
X0014050Y0004379D01*
X0013944Y0004247D01*
X0013835Y0004118D01*
X0013723Y0003991D01*
X0013608Y0003867D01*
X0013490Y0003746D01*
X0013369Y0003628D01*
X0013245Y0003513D01*
X0013118Y0003401D01*
X0012989Y0003292D01*
X0012857Y0003186D01*
X0012722Y0003084D01*
X0012585Y0002985D01*
X0012446Y0002889D01*
X0012304Y0002797D01*
X0012160Y0002708D01*
X0012014Y0002623D01*
X0011866Y0002542D01*
X0011716Y0002464D01*
X0011564Y0002390D01*
X0011410Y0002319D01*
X0011255Y0002252D01*
X0011098Y0002190D01*
X0010939Y0002131D01*
X0010779Y0002076D01*
X0010618Y0002025D01*
X0010456Y0001978D01*
X0010292Y0001934D01*
X0010128Y0001895D01*
X0009962Y0001860D01*
X0009796Y0001829D01*
X0009629Y0001803D01*
X0009461Y0001780D01*
X0009293Y0001761D01*
X0009125Y0001747D01*
X0008956Y0001736D01*
X0008787Y0001730D01*
X0008618Y0001728D01*
X0008449Y0001730D01*
X0008280Y0001736D01*
X0008111Y0001747D01*
X0007943Y0001761D01*
X0007775Y0001780D01*
X0007607Y0001803D01*
X0007440Y0001829D01*
X0007274Y0001860D01*
X0007108Y0001895D01*
X0006944Y0001934D01*
X0006780Y0001978D01*
X0006618Y0002025D01*
X0006457Y0002076D01*
X0006297Y0002131D01*
X0006138Y0002190D01*
X0005981Y0002252D01*
X0005826Y0002319D01*
X0005672Y0002390D01*
X0005520Y0002464D01*
X0005370Y0002542D01*
X0005222Y0002623D01*
X0005076Y0002708D01*
X0004932Y0002797D01*
X0004790Y0002889D01*
X0004651Y0002985D01*
X0004514Y0003084D01*
X0004379Y0003186D01*
X0004247Y0003292D01*
X0004118Y0003401D01*
X0003991Y0003513D01*
X0003867Y0003628D01*
X0003746Y0003746D01*
X0003628Y0003867D01*
X0003513Y0003991D01*
X0003401Y0004118D01*
X0003292Y0004247D01*
X0003186Y0004379D01*
X0003084Y0004514D01*
X0002985Y0004651D01*
X0002889Y0004790D01*
X0002797Y0004932D01*
X0002708Y0005076D01*
X0002623Y0005222D01*
X0002542Y0005370D01*
X0002464Y0005520D01*
X0002390Y0005672D01*
X0002319Y0005826D01*
X0002252Y0005981D01*
X0002190Y0006138D01*
X0002131Y0006297D01*
X0002076Y0006457D01*
X0002025Y0006618D01*
X0001978Y0006780D01*
X0001934Y0006944D01*
X0001895Y0007108D01*
X0001860Y0007274D01*
X0001829Y0007440D01*
X0001803Y0007607D01*
X0001780Y0007775D01*
X0001761Y0007943D01*
X0001747Y0008111D01*
X0001736Y0008280D01*
X0001730Y0008449D01*
X0001728Y0008618D01*
X0001728Y0234602D02*
X0001730Y0234771D01*
X0001736Y0234940D01*
X0001747Y0235109D01*
X0001761Y0235277D01*
X0001780Y0235445D01*
X0001803Y0235613D01*
X0001829Y0235780D01*
X0001860Y0235946D01*
X0001895Y0236112D01*
X0001934Y0236276D01*
X0001978Y0236440D01*
X0002025Y0236602D01*
X0002076Y0236763D01*
X0002131Y0236923D01*
X0002190Y0237082D01*
X0002252Y0237239D01*
X0002319Y0237394D01*
X0002390Y0237548D01*
X0002464Y0237700D01*
X0002542Y0237850D01*
X0002623Y0237998D01*
X0002708Y0238144D01*
X0002797Y0238288D01*
X0002889Y0238430D01*
X0002985Y0238569D01*
X0003084Y0238706D01*
X0003186Y0238841D01*
X0003292Y0238973D01*
X0003401Y0239102D01*
X0003513Y0239229D01*
X0003628Y0239353D01*
X0003746Y0239474D01*
X0003867Y0239592D01*
X0003991Y0239707D01*
X0004118Y0239819D01*
X0004247Y0239928D01*
X0004379Y0240034D01*
X0004514Y0240136D01*
X0004651Y0240235D01*
X0004790Y0240331D01*
X0004932Y0240423D01*
X0005076Y0240512D01*
X0005222Y0240597D01*
X0005370Y0240678D01*
X0005520Y0240756D01*
X0005672Y0240830D01*
X0005826Y0240901D01*
X0005981Y0240968D01*
X0006138Y0241030D01*
X0006297Y0241089D01*
X0006457Y0241144D01*
X0006618Y0241195D01*
X0006780Y0241242D01*
X0006944Y0241286D01*
X0007108Y0241325D01*
X0007274Y0241360D01*
X0007440Y0241391D01*
X0007607Y0241417D01*
X0007775Y0241440D01*
X0007943Y0241459D01*
X0008111Y0241473D01*
X0008280Y0241484D01*
X0008449Y0241490D01*
X0008618Y0241492D01*
X0008787Y0241490D01*
X0008956Y0241484D01*
X0009125Y0241473D01*
X0009293Y0241459D01*
X0009461Y0241440D01*
X0009629Y0241417D01*
X0009796Y0241391D01*
X0009962Y0241360D01*
X0010128Y0241325D01*
X0010292Y0241286D01*
X0010456Y0241242D01*
X0010618Y0241195D01*
X0010779Y0241144D01*
X0010939Y0241089D01*
X0011098Y0241030D01*
X0011255Y0240968D01*
X0011410Y0240901D01*
X0011564Y0240830D01*
X0011716Y0240756D01*
X0011866Y0240678D01*
X0012014Y0240597D01*
X0012160Y0240512D01*
X0012304Y0240423D01*
X0012446Y0240331D01*
X0012585Y0240235D01*
X0012722Y0240136D01*
X0012857Y0240034D01*
X0012989Y0239928D01*
X0013118Y0239819D01*
X0013245Y0239707D01*
X0013369Y0239592D01*
X0013490Y0239474D01*
X0013608Y0239353D01*
X0013723Y0239229D01*
X0013835Y0239102D01*
X0013944Y0238973D01*
X0014050Y0238841D01*
X0014152Y0238706D01*
X0014251Y0238569D01*
X0014347Y0238430D01*
X0014439Y0238288D01*
X0014528Y0238144D01*
X0014613Y0237998D01*
X0014694Y0237850D01*
X0014772Y0237700D01*
X0014846Y0237548D01*
X0014917Y0237394D01*
X0014984Y0237239D01*
X0015046Y0237082D01*
X0015105Y0236923D01*
X0015160Y0236763D01*
X0015211Y0236602D01*
X0015258Y0236440D01*
X0015302Y0236276D01*
X0015341Y0236112D01*
X0015376Y0235946D01*
X0015407Y0235780D01*
X0015433Y0235613D01*
X0015456Y0235445D01*
X0015475Y0235277D01*
X0015489Y0235109D01*
X0015500Y0234940D01*
X0015506Y0234771D01*
X0015508Y0234602D01*
X0015506Y0234433D01*
X0015500Y0234264D01*
X0015489Y0234095D01*
X0015475Y0233927D01*
X0015456Y0233759D01*
X0015433Y0233591D01*
X0015407Y0233424D01*
X0015376Y0233258D01*
X0015341Y0233092D01*
X0015302Y0232928D01*
X0015258Y0232764D01*
X0015211Y0232602D01*
X0015160Y0232441D01*
X0015105Y0232281D01*
X0015046Y0232122D01*
X0014984Y0231965D01*
X0014917Y0231810D01*
X0014846Y0231656D01*
X0014772Y0231504D01*
X0014694Y0231354D01*
X0014613Y0231206D01*
X0014528Y0231060D01*
X0014439Y0230916D01*
X0014347Y0230774D01*
X0014251Y0230635D01*
X0014152Y0230498D01*
X0014050Y0230363D01*
X0013944Y0230231D01*
X0013835Y0230102D01*
X0013723Y0229975D01*
X0013608Y0229851D01*
X0013490Y0229730D01*
X0013369Y0229612D01*
X0013245Y0229497D01*
X0013118Y0229385D01*
X0012989Y0229276D01*
X0012857Y0229170D01*
X0012722Y0229068D01*
X0012585Y0228969D01*
X0012446Y0228873D01*
X0012304Y0228781D01*
X0012160Y0228692D01*
X0012014Y0228607D01*
X0011866Y0228526D01*
X0011716Y0228448D01*
X0011564Y0228374D01*
X0011410Y0228303D01*
X0011255Y0228236D01*
X0011098Y0228174D01*
X0010939Y0228115D01*
X0010779Y0228060D01*
X0010618Y0228009D01*
X0010456Y0227962D01*
X0010292Y0227918D01*
X0010128Y0227879D01*
X0009962Y0227844D01*
X0009796Y0227813D01*
X0009629Y0227787D01*
X0009461Y0227764D01*
X0009293Y0227745D01*
X0009125Y0227731D01*
X0008956Y0227720D01*
X0008787Y0227714D01*
X0008618Y0227712D01*
X0008449Y0227714D01*
X0008280Y0227720D01*
X0008111Y0227731D01*
X0007943Y0227745D01*
X0007775Y0227764D01*
X0007607Y0227787D01*
X0007440Y0227813D01*
X0007274Y0227844D01*
X0007108Y0227879D01*
X0006944Y0227918D01*
X0006780Y0227962D01*
X0006618Y0228009D01*
X0006457Y0228060D01*
X0006297Y0228115D01*
X0006138Y0228174D01*
X0005981Y0228236D01*
X0005826Y0228303D01*
X0005672Y0228374D01*
X0005520Y0228448D01*
X0005370Y0228526D01*
X0005222Y0228607D01*
X0005076Y0228692D01*
X0004932Y0228781D01*
X0004790Y0228873D01*
X0004651Y0228969D01*
X0004514Y0229068D01*
X0004379Y0229170D01*
X0004247Y0229276D01*
X0004118Y0229385D01*
X0003991Y0229497D01*
X0003867Y0229612D01*
X0003746Y0229730D01*
X0003628Y0229851D01*
X0003513Y0229975D01*
X0003401Y0230102D01*
X0003292Y0230231D01*
X0003186Y0230363D01*
X0003084Y0230498D01*
X0002985Y0230635D01*
X0002889Y0230774D01*
X0002797Y0230916D01*
X0002708Y0231060D01*
X0002623Y0231206D01*
X0002542Y0231354D01*
X0002464Y0231504D01*
X0002390Y0231656D01*
X0002319Y0231810D01*
X0002252Y0231965D01*
X0002190Y0232122D01*
X0002131Y0232281D01*
X0002076Y0232441D01*
X0002025Y0232602D01*
X0001978Y0232764D01*
X0001934Y0232928D01*
X0001895Y0233092D01*
X0001860Y0233258D01*
X0001829Y0233424D01*
X0001803Y0233591D01*
X0001780Y0233759D01*
X0001761Y0233927D01*
X0001747Y0234095D01*
X0001736Y0234264D01*
X0001730Y0234433D01*
X0001728Y0234602D01*
D11*
X0078408Y0216430D03*
X0080967Y0216430D03*
X0083526Y0216430D03*
X0086085Y0216430D03*
X0088644Y0216430D03*
D12*
X0094943Y0215919D03*
X0072109Y0215919D03*
D13*
X0079835Y0232297D03*
X0087217Y0232297D03*
D14*
X0092374Y0231726D02*
X0092374Y0220623D01*
X0100544Y0220623D01*
X0100544Y0230741D01*
X0100534Y0230723D01*
X0100534Y0237023D01*
X0096587Y0237041D01*
X0096587Y0231726D01*
X0092374Y0231726D01*
X0092374Y0230489D02*
X0100544Y0230489D01*
X0100534Y0232087D02*
X0096587Y0232087D01*
X0096587Y0233686D02*
X0100534Y0233686D01*
X0100534Y0235284D02*
X0096587Y0235284D01*
X0096587Y0236883D02*
X0100534Y0236883D01*
X0100544Y0228890D02*
X0092374Y0228890D01*
X0092374Y0227292D02*
X0100544Y0227292D01*
X0100544Y0225693D02*
X0092374Y0225693D01*
X0092374Y0224095D02*
X0100544Y0224095D01*
X0100544Y0222496D02*
X0092374Y0222496D01*
X0092374Y0220898D02*
X0100544Y0220898D01*
X0103900Y0211100D02*
X0090300Y0211100D01*
X0088700Y0212700D01*
X0088700Y0216300D01*
X0088644Y0216430D01*
X0078408Y0216430D02*
X0078300Y0216300D01*
X0072300Y0216300D01*
X0072109Y0215919D01*
X0074609Y0220623D02*
X0074609Y0231726D01*
X0070396Y0231726D01*
X0070396Y0237041D01*
X0066428Y0237062D01*
X0066428Y0230763D01*
X0066439Y0230741D01*
X0066439Y0220623D01*
X0074609Y0220623D01*
X0074609Y0220898D02*
X0066439Y0220898D01*
X0066439Y0222496D02*
X0074609Y0222496D01*
X0074609Y0224095D02*
X0066439Y0224095D01*
X0066439Y0225693D02*
X0074609Y0225693D01*
X0074609Y0227292D02*
X0066439Y0227292D01*
X0066439Y0228890D02*
X0074609Y0228890D01*
X0074609Y0230489D02*
X0066439Y0230489D01*
X0066428Y0232087D02*
X0070396Y0232087D01*
X0070396Y0233686D02*
X0066428Y0233686D01*
X0066428Y0235284D02*
X0070396Y0235284D01*
X0070396Y0236883D02*
X0066428Y0236883D01*
X0103900Y0211100D02*
X0103900Y0165900D01*
X0105500Y0162700D02*
X0159500Y0216700D01*
X0159500Y0226300D01*
X0162700Y0229500D01*
X0296300Y0229500D01*
X0312700Y0213100D01*
X0312741Y0212981D01*
X0312700Y0212300D01*
X0310300Y0209900D01*
X0310300Y0126700D01*
X0317900Y0119100D01*
X0317923Y0118709D01*
X0241689Y0151138D02*
X0233815Y0143264D01*
X0179900Y0128300D02*
X0179900Y0121500D01*
X0169900Y0111500D01*
X0170700Y0110700D01*
X0170700Y0107100D01*
X0173900Y0103900D01*
X0177500Y0103900D01*
X0193500Y0087900D01*
X0193500Y0035100D01*
X0193856Y0035020D01*
X0100700Y0106700D02*
X0097900Y0103900D01*
X0090700Y0103900D01*
X0086300Y0108300D01*
X0085853Y0108728D01*
X0085500Y0109100D01*
X0067100Y0127500D01*
X0100700Y0110300D02*
X0100700Y0106700D01*
X0100700Y0110300D02*
X0103900Y0113500D01*
X0167900Y0113500D01*
X0169900Y0111500D01*
X0105500Y0162700D02*
X0097500Y0162700D01*
X0035500Y0100700D01*
X0021100Y0100700D01*
X0021094Y0100513D01*
X0103900Y0211100D02*
X0143900Y0211100D01*
X0154300Y0221500D01*
X0154305Y0221562D01*
X0231330Y0208087D02*
X0231500Y0207900D01*
X0288300Y0207900D01*
X0291100Y0205100D01*
X0295100Y0205100D01*
X0302700Y0212700D01*
X0302741Y0212981D01*
D15*
X0302741Y0215981D02*
X0302741Y0209981D01*
X0312741Y0209981D02*
X0312741Y0215981D01*
X0292741Y0215981D02*
X0292741Y0209981D01*
X0184305Y0218562D02*
X0184305Y0224562D01*
X0174305Y0224562D02*
X0174305Y0218562D01*
X0164305Y0218562D02*
X0164305Y0224562D01*
X0154305Y0224562D02*
X0154305Y0218562D01*
X0144305Y0218562D02*
X0144305Y0224562D01*
X0134305Y0224562D02*
X0134305Y0218562D01*
X0214185Y0128018D02*
X0214185Y0122018D01*
X0224185Y0122018D02*
X0224185Y0128018D01*
X0314923Y0128709D02*
X0320923Y0128709D01*
X0320923Y0118709D02*
X0314923Y0118709D01*
D16*
X0283856Y0035020D03*
X0273856Y0035020D03*
X0263856Y0035020D03*
X0253856Y0035020D03*
X0243856Y0035020D03*
X0233856Y0035020D03*
X0223856Y0035020D03*
X0213856Y0035020D03*
X0203856Y0035020D03*
X0193856Y0035020D03*
X0193856Y0025020D03*
X0203856Y0025020D03*
X0213856Y0025020D03*
X0223856Y0025020D03*
X0233856Y0025020D03*
X0243856Y0025020D03*
X0253856Y0025020D03*
X0263856Y0025020D03*
X0273856Y0025020D03*
X0283856Y0025020D03*
X0175853Y0098728D03*
X0165853Y0098728D03*
X0155853Y0098728D03*
X0145853Y0098728D03*
X0135853Y0098728D03*
X0125853Y0098728D03*
X0115853Y0098728D03*
X0105853Y0098728D03*
X0095853Y0098728D03*
X0085853Y0098728D03*
X0085853Y0108728D03*
X0095853Y0108728D03*
X0105853Y0108728D03*
X0115853Y0108728D03*
X0125853Y0108728D03*
X0135853Y0108728D03*
X0145853Y0108728D03*
X0155853Y0108728D03*
X0165853Y0108728D03*
X0175853Y0108728D03*
X0137551Y0035335D03*
X0127551Y0035335D03*
X0117551Y0035335D03*
X0107551Y0035335D03*
X0097551Y0035335D03*
X0087551Y0035335D03*
X0077551Y0035335D03*
X0077551Y0025335D03*
X0087551Y0025335D03*
X0097551Y0025335D03*
X0107551Y0025335D03*
X0117551Y0025335D03*
X0127551Y0025335D03*
X0137551Y0025335D03*
X0211330Y0208087D03*
X0221330Y0208087D03*
X0221330Y0218087D03*
X0211330Y0218087D03*
X0231330Y0218087D03*
X0231330Y0208087D03*
D17*
X0359438Y0154056D03*
X0359969Y0091470D03*
D18*
X0023894Y0090513D02*
X0018294Y0090513D01*
X0018294Y0100513D02*
X0023894Y0100513D01*
D19*
X0043258Y0160720D03*
X0043258Y0180720D03*
D20*
X0078964Y0161850D03*
X0103900Y0165900D03*
X0140953Y0191340D03*
X0157695Y0184238D03*
X0169342Y0170945D03*
X0180989Y0183509D03*
X0169524Y0199170D03*
X0200862Y0207406D03*
X0209500Y0168300D03*
X0215100Y0164300D03*
X0219900Y0167500D03*
X0241689Y0151138D03*
X0233815Y0143264D03*
X0219900Y0132300D03*
X0196916Y0143465D03*
X0190726Y0128804D03*
X0179900Y0128300D03*
X0169900Y0119100D03*
X0164300Y0119100D03*
X0142427Y0125481D03*
X0112717Y0124267D03*
X0096649Y0134733D03*
X0080221Y0135406D03*
X0067100Y0127500D03*
X0069156Y0106409D03*
X0035258Y0129424D03*
X0107141Y0090820D03*
X0130435Y0083719D03*
X0097805Y0065911D03*
X0077711Y0064600D03*
X0159916Y0057133D03*
X0161736Y0030911D03*
X0219500Y0056700D03*
X0233117Y0082485D03*
X0245065Y0082485D03*
X0199821Y0098218D03*
X0185758Y0089364D03*
X0169342Y0144541D03*
X0193000Y0164572D03*
X0142924Y0169649D03*
X0118896Y0195220D03*
X0116695Y0205294D03*
X0092484Y0203720D03*
X0084700Y0210300D03*
X0081100Y0202700D03*
D21*
X0077400Y0205907D02*
X0076959Y0205467D01*
X0076216Y0203672D01*
X0076216Y0201728D01*
X0076959Y0199933D01*
X0078333Y0198559D01*
X0080128Y0197816D01*
X0082072Y0197816D01*
X0083867Y0198559D01*
X0085241Y0199933D01*
X0085984Y0201728D01*
X0085984Y0203672D01*
X0085262Y0205416D01*
X0085672Y0205416D01*
X0087467Y0206159D01*
X0088652Y0207345D01*
X0089484Y0207000D01*
X0099800Y0207000D01*
X0099800Y0168707D01*
X0099759Y0168667D01*
X0099016Y0166872D01*
X0099016Y0166800D01*
X0096684Y0166800D01*
X0095178Y0166176D01*
X0094024Y0165022D01*
X0033802Y0104800D01*
X0028233Y0104800D01*
X0027349Y0105684D01*
X0025107Y0106613D01*
X0017080Y0106613D01*
X0014838Y0105684D01*
X0013122Y0103968D01*
X0012194Y0101726D01*
X0012194Y0099299D01*
X0013122Y0097057D01*
X0014667Y0095513D01*
X0013122Y0093968D01*
X0012194Y0091726D01*
X0012194Y0089299D01*
X0013122Y0087057D01*
X0014838Y0085341D01*
X0017080Y0084413D01*
X0025107Y0084413D01*
X0027349Y0085341D01*
X0029065Y0087057D01*
X0029994Y0089299D01*
X0029994Y0091726D01*
X0029065Y0093968D01*
X0027520Y0095513D01*
X0028608Y0096600D01*
X0036316Y0096600D01*
X0037822Y0097224D01*
X0064145Y0123547D01*
X0064333Y0123359D01*
X0066128Y0122616D01*
X0066186Y0122616D01*
X0079553Y0109248D01*
X0079553Y0106119D01*
X0081944Y0103728D01*
X0079553Y0101338D01*
X0079553Y0096119D01*
X0083244Y0092428D01*
X0088463Y0092428D01*
X0090853Y0094819D01*
X0093244Y0092428D01*
X0098463Y0092428D01*
X0100853Y0094819D01*
X0103244Y0092428D01*
X0108463Y0092428D01*
X0110853Y0094819D01*
X0111820Y0093852D01*
X0104763Y0086796D01*
X0104200Y0085436D01*
X0104200Y0040893D01*
X0102693Y0039386D01*
X0100244Y0041835D01*
X0097551Y0041835D01*
X0094859Y0041835D01*
X0092410Y0039386D01*
X0090161Y0041635D01*
X0084942Y0041635D01*
X0082551Y0039245D01*
X0080161Y0041635D01*
X0074942Y0041635D01*
X0071251Y0037945D01*
X0071251Y0032726D01*
X0073642Y0030335D01*
X0071251Y0027945D01*
X0071251Y0022726D01*
X0074942Y0019035D01*
X0080161Y0019035D01*
X0082551Y0021426D01*
X0084942Y0019035D01*
X0090161Y0019035D01*
X0092551Y0021426D01*
X0094942Y0019035D01*
X0098732Y0019035D01*
X0101804Y0015963D01*
X0103164Y0015400D01*
X0207036Y0015400D01*
X0208396Y0015963D01*
X0209437Y0017004D01*
X0211199Y0018767D01*
X0211246Y0018720D01*
X0216465Y0018720D01*
X0217556Y0019811D01*
X0218763Y0018604D01*
X0219804Y0017563D01*
X0221164Y0017000D01*
X0266236Y0017000D01*
X0267596Y0017563D01*
X0269999Y0019967D01*
X0271246Y0018720D01*
X0276465Y0018720D01*
X0278856Y0021111D01*
X0281246Y0018720D01*
X0286465Y0018720D01*
X0290156Y0022411D01*
X0290156Y0027630D01*
X0287765Y0030020D01*
X0290156Y0032411D01*
X0290156Y0037630D01*
X0286465Y0041320D01*
X0281246Y0041320D01*
X0278856Y0038930D01*
X0276465Y0041320D01*
X0271246Y0041320D01*
X0268856Y0038930D01*
X0266465Y0041320D01*
X0261246Y0041320D01*
X0258856Y0038930D01*
X0256465Y0041320D01*
X0251246Y0041320D01*
X0248997Y0039071D01*
X0246548Y0041520D01*
X0243856Y0041520D01*
X0243856Y0035020D01*
X0243856Y0035020D01*
X0243856Y0041520D01*
X0241163Y0041520D01*
X0238856Y0039212D01*
X0236548Y0041520D01*
X0233856Y0041520D01*
X0233856Y0035020D01*
X0233856Y0035020D01*
X0237356Y0035020D01*
X0243856Y0035020D01*
X0243856Y0035020D01*
X0233856Y0035020D01*
X0233856Y0035020D01*
X0233856Y0041520D01*
X0231163Y0041520D01*
X0228714Y0039071D01*
X0226465Y0041320D01*
X0221246Y0041320D01*
X0218997Y0039071D01*
X0218050Y0040018D01*
X0231837Y0053804D01*
X0232400Y0055164D01*
X0232400Y0130236D01*
X0231837Y0131596D01*
X0230796Y0132637D01*
X0223600Y0139833D01*
X0223600Y0164293D01*
X0224041Y0164733D01*
X0224784Y0166528D01*
X0224784Y0168472D01*
X0224041Y0170267D01*
X0222667Y0171641D01*
X0220872Y0172384D01*
X0218928Y0172384D01*
X0218800Y0172331D01*
X0218800Y0200367D01*
X0220220Y0201787D01*
X0223940Y0201787D01*
X0226330Y0204178D01*
X0228721Y0201787D01*
X0233940Y0201787D01*
X0235953Y0203800D01*
X0286602Y0203800D01*
X0287624Y0202778D01*
X0288778Y0201624D01*
X0290284Y0201000D01*
X0295916Y0201000D01*
X0297422Y0201624D01*
X0300068Y0204269D01*
X0301488Y0203681D01*
X0303994Y0203681D01*
X0306200Y0204595D01*
X0306200Y0125884D01*
X0306824Y0124378D01*
X0307978Y0123224D01*
X0309390Y0121812D01*
X0308623Y0119962D01*
X0308623Y0117456D01*
X0309583Y0115140D01*
X0311355Y0113368D01*
X0313670Y0112409D01*
X0322177Y0112409D01*
X0324492Y0113368D01*
X0326264Y0115140D01*
X0327223Y0117456D01*
X0327223Y0119962D01*
X0326264Y0122277D01*
X0324942Y0123599D01*
X0325218Y0123811D01*
X0325821Y0124414D01*
X0326340Y0125090D01*
X0326766Y0125828D01*
X0327092Y0126615D01*
X0327312Y0127438D01*
X0327423Y0128283D01*
X0327423Y0128709D01*
X0327423Y0129135D01*
X0327312Y0129980D01*
X0327092Y0130803D01*
X0326766Y0131590D01*
X0326340Y0132328D01*
X0325821Y0133004D01*
X0325218Y0133606D01*
X0324542Y0134125D01*
X0323804Y0134551D01*
X0323017Y0134877D01*
X0322194Y0135097D01*
X0321349Y0135209D01*
X0317923Y0135209D01*
X0314497Y0135209D01*
X0314400Y0135196D01*
X0314400Y0203849D01*
X0316310Y0204640D01*
X0318082Y0206412D01*
X0319041Y0208728D01*
X0319041Y0217234D01*
X0318082Y0219550D01*
X0316310Y0221322D01*
X0313994Y0222281D01*
X0311488Y0222281D01*
X0309953Y0221645D01*
X0298622Y0232976D01*
X0297116Y0233600D01*
X0161884Y0233600D01*
X0160378Y0232976D01*
X0159224Y0231822D01*
X0157471Y0230070D01*
X0155558Y0230862D01*
X0153051Y0230862D01*
X0150736Y0229903D01*
X0149305Y0228472D01*
X0147873Y0229903D01*
X0145558Y0230862D01*
X0143051Y0230862D01*
X0140736Y0229903D01*
X0139414Y0228581D01*
X0139202Y0228857D01*
X0138600Y0229460D01*
X0137924Y0229979D01*
X0137186Y0230405D01*
X0136398Y0230731D01*
X0135575Y0230951D01*
X0134731Y0231062D01*
X0134305Y0231062D01*
X0134305Y0221563D01*
X0134305Y0221563D01*
X0134305Y0231062D01*
X0133879Y0231062D01*
X0133034Y0230951D01*
X0132211Y0230731D01*
X0131424Y0230405D01*
X0130686Y0229979D01*
X0130010Y0229460D01*
X0129407Y0228857D01*
X0128888Y0228181D01*
X0128462Y0227443D01*
X0128136Y0226656D01*
X0127916Y0225833D01*
X0127805Y0224988D01*
X0127805Y0221562D01*
X0127805Y0218136D01*
X0127916Y0217292D01*
X0128136Y0216469D01*
X0128462Y0215681D01*
X0128740Y0215200D01*
X0102380Y0215200D01*
X0102380Y0215918D01*
X0094943Y0215918D01*
X0094943Y0215919D01*
X0102380Y0215919D01*
X0102380Y0216946D01*
X0102866Y0217147D01*
X0104020Y0218301D01*
X0104644Y0219808D01*
X0104644Y0230526D01*
X0104707Y0231123D01*
X0104644Y0231335D01*
X0104644Y0231557D01*
X0104634Y0231581D01*
X0104634Y0236220D01*
X0389764Y0236220D01*
X0389764Y0007000D01*
X0018941Y0007000D01*
X0019008Y0007250D01*
X0019008Y0009986D01*
X0018300Y0012628D01*
X0016932Y0014998D01*
X0014998Y0016932D01*
X0012628Y0018300D01*
X0009986Y0019008D01*
X0007250Y0019008D01*
X0007000Y0018941D01*
X0007000Y0224280D01*
X0007250Y0224213D01*
X0009986Y0224213D01*
X0012628Y0224921D01*
X0014998Y0226288D01*
X0016932Y0228223D01*
X0018300Y0230592D01*
X0019008Y0233235D01*
X0019008Y0235970D01*
X0018941Y0236220D01*
X0062328Y0236220D01*
X0062328Y0231352D01*
X0062264Y0231134D01*
X0062328Y0230542D01*
X0062328Y0229947D01*
X0062339Y0229919D01*
X0062339Y0219808D01*
X0062964Y0218301D01*
X0064117Y0217147D01*
X0064672Y0216918D01*
X0064672Y0215919D01*
X0072109Y0215919D01*
X0072109Y0215918D01*
X0072109Y0209545D01*
X0076390Y0209545D01*
X0076883Y0209642D01*
X0077276Y0209564D01*
X0077400Y0209564D01*
X0077400Y0205907D01*
X0077400Y0208439D02*
X0044233Y0208439D01*
X0044233Y0207604D02*
X0043402Y0204504D01*
X0041798Y0201724D01*
X0039528Y0199454D01*
X0036748Y0197850D01*
X0033648Y0197019D01*
X0030438Y0197019D01*
X0027338Y0197850D01*
X0024559Y0199454D01*
X0022289Y0201724D01*
X0020684Y0204504D01*
X0019854Y0207604D01*
X0019854Y0210813D01*
X0020684Y0213914D01*
X0022289Y0216693D01*
X0024559Y0218963D01*
X0027338Y0220568D01*
X0030438Y0221398D01*
X0033648Y0221398D01*
X0036748Y0220568D01*
X0039528Y0218963D01*
X0041798Y0216693D01*
X0043402Y0213914D01*
X0044233Y0210813D01*
X0044233Y0207604D01*
X0042789Y0203440D02*
X0076216Y0203440D01*
X0078617Y0198442D02*
X0037774Y0198442D01*
X0026312Y0198442D02*
X0007000Y0198442D01*
X0007000Y0203440D02*
X0021298Y0203440D01*
X0019854Y0208439D02*
X0007000Y0208439D01*
X0007000Y0213437D02*
X0020557Y0213437D01*
X0024032Y0218436D02*
X0007000Y0218436D01*
X0007000Y0223434D02*
X0062339Y0223434D01*
X0062339Y0228433D02*
X0017053Y0228433D01*
X0019008Y0233432D02*
X0062328Y0233432D01*
X0062908Y0218436D02*
X0040055Y0218436D01*
X0043530Y0213437D02*
X0064672Y0213437D01*
X0064672Y0212700D02*
X0064806Y0212024D01*
X0065070Y0211387D01*
X0065453Y0210813D01*
X0065941Y0210326D01*
X0066514Y0209943D01*
X0067151Y0209679D01*
X0067827Y0209545D01*
X0072109Y0209545D01*
X0072109Y0215918D01*
X0072109Y0215918D01*
X0064672Y0215918D01*
X0064672Y0212700D01*
X0072109Y0213437D02*
X0072109Y0213437D01*
X0085984Y0203440D02*
X0099800Y0203440D01*
X0099800Y0198442D02*
X0083583Y0198442D01*
X0099800Y0193443D02*
X0007000Y0193443D01*
X0007000Y0188445D02*
X0099800Y0188445D01*
X0099800Y0183446D02*
X0048515Y0183446D01*
X0048260Y0184062D02*
X0049158Y0181894D01*
X0049158Y0179547D01*
X0048260Y0177378D01*
X0046601Y0175719D01*
X0044432Y0174820D01*
X0042085Y0174820D01*
X0039916Y0175719D01*
X0038257Y0177378D01*
X0037358Y0179547D01*
X0037358Y0181894D01*
X0038257Y0184062D01*
X0039916Y0185722D01*
X0042085Y0186620D01*
X0044432Y0186620D01*
X0046601Y0185722D01*
X0048260Y0184062D01*
X0048703Y0178448D02*
X0099800Y0178448D01*
X0099800Y0173449D02*
X0007000Y0173449D01*
X0007000Y0178448D02*
X0037814Y0178448D01*
X0038002Y0183446D02*
X0007000Y0183446D01*
X0007000Y0168451D02*
X0099670Y0168451D01*
X0108000Y0170998D02*
X0108000Y0207000D01*
X0144002Y0207000D01*
X0108000Y0170998D01*
X0108000Y0173449D02*
X0110451Y0173449D01*
X0108000Y0178448D02*
X0115450Y0178448D01*
X0122048Y0173449D02*
X0160600Y0173449D01*
X0160600Y0178448D02*
X0127046Y0178448D01*
X0132045Y0183446D02*
X0160600Y0183446D01*
X0160600Y0188445D02*
X0137043Y0188445D01*
X0142042Y0193443D02*
X0160600Y0193443D01*
X0160600Y0198442D02*
X0147040Y0198442D01*
X0152039Y0203440D02*
X0160600Y0203440D01*
X0160600Y0208439D02*
X0157037Y0208439D01*
X0160600Y0212002D02*
X0160600Y0122307D01*
X0160159Y0121867D01*
X0159416Y0120072D01*
X0159416Y0120000D01*
X0102364Y0120000D01*
X0101004Y0119437D01*
X0099963Y0118396D01*
X0096596Y0115028D01*
X0093244Y0115028D01*
X0090853Y0112638D01*
X0088463Y0115028D01*
X0085370Y0115028D01*
X0071984Y0128414D01*
X0071984Y0128472D01*
X0071241Y0130267D01*
X0071053Y0130455D01*
X0099198Y0158600D01*
X0106316Y0158600D01*
X0107822Y0159224D01*
X0160600Y0212002D01*
X0168000Y0213348D02*
X0168000Y0123600D01*
X0168928Y0123984D01*
X0169552Y0123984D01*
X0170600Y0125033D01*
X0170600Y0213358D01*
X0169305Y0214653D01*
X0168000Y0213348D01*
X0168089Y0213437D02*
X0170520Y0213437D01*
X0170600Y0208439D02*
X0168000Y0208439D01*
X0168000Y0203440D02*
X0170600Y0203440D01*
X0170600Y0198442D02*
X0168000Y0198442D01*
X0168000Y0193443D02*
X0170600Y0193443D01*
X0170600Y0188445D02*
X0168000Y0188445D01*
X0168000Y0183446D02*
X0170600Y0183446D01*
X0170600Y0178448D02*
X0168000Y0178448D01*
X0168000Y0173449D02*
X0170600Y0173449D01*
X0170600Y0168451D02*
X0168000Y0168451D01*
X0168000Y0163452D02*
X0170600Y0163452D01*
X0170600Y0158454D02*
X0168000Y0158454D01*
X0168000Y0153455D02*
X0170600Y0153455D01*
X0170600Y0148457D02*
X0168000Y0148457D01*
X0168000Y0143458D02*
X0170600Y0143458D01*
X0170600Y0138460D02*
X0168000Y0138460D01*
X0168000Y0133461D02*
X0170600Y0133461D01*
X0170600Y0128463D02*
X0168000Y0128463D01*
X0160600Y0128463D02*
X0071984Y0128463D01*
X0074060Y0133461D02*
X0160600Y0133461D01*
X0160600Y0138460D02*
X0079058Y0138460D01*
X0084057Y0143458D02*
X0160600Y0143458D01*
X0160600Y0148457D02*
X0089055Y0148457D01*
X0094054Y0153455D02*
X0160600Y0153455D01*
X0160600Y0158454D02*
X0099052Y0158454D01*
X0092454Y0163452D02*
X0048513Y0163452D01*
X0048260Y0164062D02*
X0046601Y0165722D01*
X0044432Y0166620D01*
X0042085Y0166620D01*
X0039916Y0165722D01*
X0038257Y0164062D01*
X0037358Y0161894D01*
X0037358Y0159547D01*
X0038257Y0157378D01*
X0039916Y0155719D01*
X0042085Y0154820D01*
X0044432Y0154820D01*
X0046601Y0155719D01*
X0048260Y0157378D01*
X0049158Y0159547D01*
X0049158Y0161894D01*
X0048260Y0164062D01*
X0048706Y0158454D02*
X0087456Y0158454D01*
X0082457Y0153455D02*
X0007000Y0153455D01*
X0007000Y0148457D02*
X0077459Y0148457D01*
X0072460Y0143458D02*
X0007000Y0143458D01*
X0007000Y0138460D02*
X0067462Y0138460D01*
X0062463Y0133461D02*
X0007000Y0133461D01*
X0007000Y0128463D02*
X0057465Y0128463D01*
X0052466Y0123464D02*
X0007000Y0123464D01*
X0007000Y0118466D02*
X0047467Y0118466D01*
X0042469Y0113467D02*
X0007000Y0113467D01*
X0007000Y0108469D02*
X0037470Y0108469D01*
X0044068Y0103470D02*
X0081686Y0103470D01*
X0079553Y0098472D02*
X0039070Y0098472D01*
X0029270Y0093473D02*
X0082199Y0093473D01*
X0089508Y0093473D02*
X0092199Y0093473D01*
X0099508Y0093473D02*
X0102199Y0093473D01*
X0106442Y0088475D02*
X0029652Y0088475D01*
X0012535Y0088475D02*
X0007000Y0088475D01*
X0007000Y0093473D02*
X0012917Y0093473D01*
X0012537Y0098472D02*
X0007000Y0098472D01*
X0007000Y0103470D02*
X0012916Y0103470D01*
X0007000Y0083476D02*
X0104200Y0083476D01*
X0104200Y0078478D02*
X0007000Y0078478D01*
X0007000Y0073479D02*
X0104200Y0073479D01*
X0104200Y0068481D02*
X0007000Y0068481D01*
X0007000Y0063482D02*
X0104200Y0063482D01*
X0104200Y0058484D02*
X0007000Y0058484D01*
X0007000Y0053485D02*
X0104200Y0053485D01*
X0104200Y0048487D02*
X0007000Y0048487D01*
X0007000Y0043488D02*
X0024281Y0043488D01*
X0024559Y0043766D02*
X0022289Y0041496D01*
X0020684Y0038717D01*
X0019854Y0035617D01*
X0019854Y0032407D01*
X0020684Y0029307D01*
X0022289Y0026527D01*
X0024559Y0024258D01*
X0027338Y0022653D01*
X0030438Y0021822D01*
X0033648Y0021822D01*
X0036748Y0022653D01*
X0039528Y0024258D01*
X0041798Y0026527D01*
X0043402Y0029307D01*
X0044233Y0032407D01*
X0044233Y0035617D01*
X0043402Y0038717D01*
X0041798Y0041496D01*
X0039528Y0043766D01*
X0036748Y0045371D01*
X0033648Y0046202D01*
X0030438Y0046202D01*
X0027338Y0045371D01*
X0024559Y0043766D01*
X0020623Y0038490D02*
X0007000Y0038490D01*
X0007000Y0033491D02*
X0019854Y0033491D01*
X0021154Y0028493D02*
X0007000Y0028493D01*
X0007000Y0023494D02*
X0025881Y0023494D01*
X0038206Y0023494D02*
X0071251Y0023494D01*
X0071799Y0028493D02*
X0042932Y0028493D01*
X0044233Y0033491D02*
X0071251Y0033491D01*
X0071796Y0038490D02*
X0043463Y0038490D01*
X0039806Y0043488D02*
X0104200Y0043488D01*
X0097551Y0041835D02*
X0097551Y0035335D01*
X0097551Y0041835D01*
X0097551Y0038490D02*
X0097551Y0038490D01*
X0097551Y0035335D02*
X0097551Y0035335D01*
X0099272Y0018496D02*
X0011898Y0018496D01*
X0017798Y0013497D02*
X0389764Y0013497D01*
X0389764Y0018496D02*
X0268528Y0018496D01*
X0289293Y0028493D02*
X0354513Y0028493D01*
X0353912Y0029535D02*
X0355439Y0026890D01*
X0357598Y0024730D01*
X0360243Y0023203D01*
X0363193Y0022413D01*
X0366248Y0022413D01*
X0369198Y0023203D01*
X0371843Y0024730D01*
X0374002Y0026890D01*
X0375529Y0029535D01*
X0376320Y0032485D01*
X0376320Y0035539D01*
X0375529Y0038489D01*
X0374002Y0041134D01*
X0371843Y0043293D01*
X0369198Y0044821D01*
X0366248Y0045611D01*
X0363193Y0045611D01*
X0360243Y0044821D01*
X0357598Y0043293D01*
X0355439Y0041134D01*
X0353912Y0038489D01*
X0353121Y0035539D01*
X0353121Y0032485D01*
X0353912Y0029535D01*
X0353121Y0033491D02*
X0290156Y0033491D01*
X0289296Y0038490D02*
X0353912Y0038490D01*
X0357935Y0043488D02*
X0221521Y0043488D01*
X0226519Y0048487D02*
X0389764Y0048487D01*
X0389764Y0053485D02*
X0231518Y0053485D01*
X0232400Y0058484D02*
X0389764Y0058484D01*
X0389764Y0063482D02*
X0232400Y0063482D01*
X0232400Y0068481D02*
X0344885Y0068481D01*
X0348817Y0064548D02*
X0371120Y0064548D01*
X0386891Y0080319D01*
X0386891Y0102622D01*
X0371120Y0118392D01*
X0348817Y0118392D01*
X0333047Y0102622D01*
X0333047Y0080319D01*
X0348817Y0064548D01*
X0339886Y0073479D02*
X0232400Y0073479D01*
X0232400Y0078478D02*
X0334888Y0078478D01*
X0333047Y0083476D02*
X0232400Y0083476D01*
X0232400Y0088475D02*
X0333047Y0088475D01*
X0333047Y0093473D02*
X0232400Y0093473D01*
X0232400Y0098472D02*
X0333047Y0098472D01*
X0333895Y0103470D02*
X0232400Y0103470D01*
X0232400Y0108469D02*
X0338894Y0108469D01*
X0343892Y0113467D02*
X0324592Y0113467D01*
X0327223Y0118466D02*
X0389764Y0118466D01*
X0389764Y0123464D02*
X0325077Y0123464D01*
X0327423Y0128463D02*
X0346674Y0128463D01*
X0348204Y0126934D02*
X0356938Y0126934D01*
X0356938Y0151555D01*
X0361938Y0151555D01*
X0361938Y0126934D01*
X0370672Y0126934D01*
X0386560Y0142821D01*
X0386560Y0151556D01*
X0361938Y0151556D01*
X0361938Y0156556D01*
X0356938Y0156556D01*
X0356938Y0181178D01*
X0348204Y0181178D01*
X0332316Y0165290D01*
X0332316Y0156556D01*
X0356938Y0156556D01*
X0356938Y0151556D01*
X0332316Y0151556D01*
X0332316Y0142821D01*
X0348204Y0126934D01*
X0356938Y0128463D02*
X0361938Y0128463D01*
X0361938Y0133461D02*
X0356938Y0133461D01*
X0356938Y0138460D02*
X0361938Y0138460D01*
X0361938Y0143458D02*
X0356938Y0143458D01*
X0356938Y0148457D02*
X0361938Y0148457D01*
X0361938Y0153455D02*
X0389764Y0153455D01*
X0386560Y0156556D02*
X0386560Y0165290D01*
X0370672Y0181178D01*
X0361938Y0181178D01*
X0361938Y0156556D01*
X0386560Y0156556D01*
X0386560Y0158454D02*
X0389764Y0158454D01*
X0389764Y0163452D02*
X0386560Y0163452D01*
X0383399Y0168451D02*
X0389764Y0168451D01*
X0389764Y0173449D02*
X0378401Y0173449D01*
X0373402Y0178448D02*
X0389764Y0178448D01*
X0389764Y0183446D02*
X0314400Y0183446D01*
X0314400Y0178448D02*
X0345474Y0178448D01*
X0340475Y0173449D02*
X0314400Y0173449D01*
X0314400Y0168451D02*
X0335477Y0168451D01*
X0332316Y0163452D02*
X0314400Y0163452D01*
X0314400Y0158454D02*
X0332316Y0158454D01*
X0332316Y0148457D02*
X0314400Y0148457D01*
X0314400Y0153455D02*
X0356938Y0153455D01*
X0356938Y0158454D02*
X0361938Y0158454D01*
X0361938Y0163452D02*
X0356938Y0163452D01*
X0356938Y0168451D02*
X0361938Y0168451D01*
X0361938Y0173449D02*
X0356938Y0173449D01*
X0356938Y0178448D02*
X0361938Y0178448D01*
X0389764Y0188445D02*
X0314400Y0188445D01*
X0314400Y0193443D02*
X0389764Y0193443D01*
X0389764Y0198442D02*
X0369270Y0198442D01*
X0369198Y0198400D02*
X0371843Y0199927D01*
X0374002Y0202087D01*
X0375529Y0204732D01*
X0376320Y0207682D01*
X0376320Y0210736D01*
X0375529Y0213686D01*
X0374002Y0216331D01*
X0371843Y0218490D01*
X0369198Y0220017D01*
X0366248Y0220808D01*
X0363193Y0220808D01*
X0360243Y0220017D01*
X0357598Y0218490D01*
X0355439Y0216331D01*
X0353912Y0213686D01*
X0353121Y0210736D01*
X0353121Y0207682D01*
X0353912Y0204732D01*
X0355439Y0202087D01*
X0357598Y0199927D01*
X0360243Y0198400D01*
X0363193Y0197609D01*
X0366248Y0197609D01*
X0369198Y0198400D01*
X0374784Y0203440D02*
X0389764Y0203440D01*
X0389764Y0208439D02*
X0376320Y0208439D01*
X0375596Y0213437D02*
X0389764Y0213437D01*
X0389764Y0218436D02*
X0371897Y0218436D01*
X0357544Y0218436D02*
X0318543Y0218436D01*
X0319041Y0213437D02*
X0353845Y0213437D01*
X0353121Y0208439D02*
X0318921Y0208439D01*
X0314400Y0203440D02*
X0354657Y0203440D01*
X0360171Y0198442D02*
X0314400Y0198442D01*
X0306200Y0198442D02*
X0218800Y0198442D01*
X0218800Y0193443D02*
X0306200Y0193443D01*
X0306200Y0188445D02*
X0218800Y0188445D01*
X0218800Y0183446D02*
X0306200Y0183446D01*
X0306200Y0178448D02*
X0218800Y0178448D01*
X0218800Y0173449D02*
X0306200Y0173449D01*
X0306200Y0168451D02*
X0224784Y0168451D01*
X0223600Y0163452D02*
X0306200Y0163452D01*
X0306200Y0158454D02*
X0223600Y0158454D01*
X0223600Y0153455D02*
X0237362Y0153455D01*
X0237548Y0153904D02*
X0236805Y0152109D01*
X0236805Y0152052D01*
X0232901Y0148148D01*
X0232843Y0148148D01*
X0231048Y0147404D01*
X0229674Y0146030D01*
X0228931Y0144235D01*
X0228931Y0142292D01*
X0229674Y0140497D01*
X0231048Y0139123D01*
X0232843Y0138380D01*
X0234786Y0138380D01*
X0236582Y0139123D01*
X0237956Y0140497D01*
X0238699Y0142292D01*
X0238699Y0142350D01*
X0242603Y0146254D01*
X0242661Y0146254D01*
X0244456Y0146997D01*
X0245830Y0148371D01*
X0246573Y0150166D01*
X0246573Y0152109D01*
X0245830Y0153904D01*
X0244456Y0155278D01*
X0242661Y0156022D01*
X0240717Y0156022D01*
X0238922Y0155278D01*
X0237548Y0153904D01*
X0233210Y0148457D02*
X0223600Y0148457D01*
X0223600Y0143458D02*
X0228931Y0143458D01*
X0232650Y0138460D02*
X0224973Y0138460D01*
X0229971Y0133461D02*
X0306200Y0133461D01*
X0306200Y0138460D02*
X0234980Y0138460D01*
X0239808Y0143458D02*
X0306200Y0143458D01*
X0306200Y0148457D02*
X0245865Y0148457D01*
X0246016Y0153455D02*
X0306200Y0153455D01*
X0314400Y0143458D02*
X0332316Y0143458D01*
X0336677Y0138460D02*
X0314400Y0138460D01*
X0317923Y0135209D02*
X0317923Y0128709D01*
X0317923Y0128709D01*
X0317923Y0135209D01*
X0317923Y0133461D02*
X0317923Y0133461D01*
X0317924Y0128709D02*
X0327423Y0128709D01*
X0317924Y0128709D01*
X0317924Y0128709D01*
X0325363Y0133461D02*
X0341676Y0133461D01*
X0372202Y0128463D02*
X0389764Y0128463D01*
X0389764Y0133461D02*
X0377200Y0133461D01*
X0382199Y0138460D02*
X0389764Y0138460D01*
X0389764Y0143458D02*
X0386560Y0143458D01*
X0386560Y0148457D02*
X0389764Y0148457D01*
X0389764Y0113467D02*
X0376045Y0113467D01*
X0381044Y0108469D02*
X0389764Y0108469D01*
X0389764Y0103470D02*
X0386042Y0103470D01*
X0386891Y0098472D02*
X0389764Y0098472D01*
X0389764Y0093473D02*
X0386891Y0093473D01*
X0386891Y0088475D02*
X0389764Y0088475D01*
X0389764Y0083476D02*
X0386891Y0083476D01*
X0385050Y0078478D02*
X0389764Y0078478D01*
X0389764Y0073479D02*
X0380051Y0073479D01*
X0375053Y0068481D02*
X0389764Y0068481D01*
X0389764Y0043488D02*
X0371505Y0043488D01*
X0375529Y0038490D02*
X0389764Y0038490D01*
X0389764Y0033491D02*
X0376320Y0033491D01*
X0374928Y0028493D02*
X0389764Y0028493D01*
X0389764Y0023494D02*
X0369702Y0023494D01*
X0359739Y0023494D02*
X0290156Y0023494D01*
X0243856Y0038490D02*
X0243856Y0038490D01*
X0233856Y0038490D02*
X0233856Y0038490D01*
X0211053Y0053485D02*
X0197600Y0053485D01*
X0197600Y0058484D02*
X0214952Y0058484D01*
X0214616Y0057672D02*
X0214616Y0057048D01*
X0197676Y0040109D01*
X0197600Y0040185D01*
X0197600Y0088716D01*
X0196976Y0090222D01*
X0181616Y0105582D01*
X0182153Y0106119D01*
X0182153Y0111338D01*
X0178845Y0114646D01*
X0183376Y0119178D01*
X0184000Y0120684D01*
X0184000Y0125493D01*
X0184041Y0125533D01*
X0184784Y0127328D01*
X0184784Y0128600D01*
X0207885Y0128600D01*
X0207885Y0120764D01*
X0208844Y0118449D01*
X0210617Y0116677D01*
X0212932Y0115718D01*
X0215438Y0115718D01*
X0216200Y0116033D01*
X0216200Y0060307D01*
X0215359Y0059467D01*
X0214616Y0057672D01*
X0216200Y0063482D02*
X0197600Y0063482D01*
X0197600Y0068481D02*
X0216200Y0068481D01*
X0216200Y0073479D02*
X0197600Y0073479D01*
X0197600Y0078478D02*
X0216200Y0078478D01*
X0216200Y0083476D02*
X0197600Y0083476D01*
X0197600Y0088475D02*
X0216200Y0088475D01*
X0216200Y0093473D02*
X0193725Y0093473D01*
X0188727Y0098472D02*
X0216200Y0098472D01*
X0216200Y0103470D02*
X0183728Y0103470D01*
X0182153Y0108469D02*
X0216200Y0108469D01*
X0216200Y0113467D02*
X0180024Y0113467D01*
X0182664Y0118466D02*
X0208837Y0118466D01*
X0207885Y0123464D02*
X0184000Y0123464D01*
X0184784Y0128463D02*
X0207885Y0128463D01*
X0216693Y0136000D02*
X0179164Y0136000D01*
X0178000Y0135518D01*
X0178000Y0213348D01*
X0179305Y0214653D01*
X0180736Y0213222D01*
X0183051Y0212262D01*
X0185558Y0212262D01*
X0187873Y0213222D01*
X0189646Y0214994D01*
X0190605Y0217309D01*
X0190605Y0225400D01*
X0294602Y0225400D01*
X0298926Y0221076D01*
X0297741Y0219891D01*
X0296310Y0221322D01*
X0293994Y0222281D01*
X0291488Y0222281D01*
X0289172Y0221322D01*
X0287400Y0219550D01*
X0286441Y0217234D01*
X0286441Y0212000D01*
X0236327Y0212000D01*
X0235240Y0213087D01*
X0237630Y0215478D01*
X0237630Y0220697D01*
X0233940Y0224387D01*
X0228721Y0224387D01*
X0226330Y0221997D01*
X0223940Y0224387D01*
X0218721Y0224387D01*
X0216330Y0221997D01*
X0213940Y0224387D01*
X0208721Y0224387D01*
X0205030Y0220697D01*
X0205030Y0217063D01*
X0203963Y0215996D01*
X0203400Y0214636D01*
X0203400Y0205564D01*
X0203963Y0204204D01*
X0205004Y0203163D01*
X0205800Y0202367D01*
X0205800Y0171507D01*
X0205359Y0171067D01*
X0204616Y0169272D01*
X0204616Y0167328D01*
X0205359Y0165533D01*
X0206733Y0164159D01*
X0208528Y0163416D01*
X0210216Y0163416D01*
X0210216Y0163328D01*
X0210959Y0161533D01*
X0212333Y0160159D01*
X0214128Y0159416D01*
X0216072Y0159416D01*
X0216200Y0159469D01*
X0216200Y0139036D01*
X0216200Y0137564D01*
X0216763Y0136204D01*
X0216830Y0136137D01*
X0216693Y0136000D01*
X0216200Y0138460D02*
X0178000Y0138460D01*
X0178000Y0143458D02*
X0216200Y0143458D01*
X0216200Y0148457D02*
X0178000Y0148457D01*
X0178000Y0153455D02*
X0216200Y0153455D01*
X0216200Y0158454D02*
X0178000Y0158454D01*
X0178000Y0163452D02*
X0208440Y0163452D01*
X0204616Y0168451D02*
X0178000Y0168451D01*
X0178000Y0173449D02*
X0205800Y0173449D01*
X0205800Y0178448D02*
X0178000Y0178448D01*
X0178000Y0183446D02*
X0205800Y0183446D01*
X0205800Y0188445D02*
X0178000Y0188445D01*
X0178000Y0193443D02*
X0205800Y0193443D01*
X0205800Y0198442D02*
X0178000Y0198442D01*
X0178000Y0203440D02*
X0204727Y0203440D01*
X0203400Y0208439D02*
X0178000Y0208439D01*
X0178089Y0213437D02*
X0180520Y0213437D01*
X0188089Y0213437D02*
X0203400Y0213437D01*
X0205030Y0218436D02*
X0190605Y0218436D01*
X0190605Y0223434D02*
X0207768Y0223434D01*
X0214893Y0223434D02*
X0217768Y0223434D01*
X0224893Y0223434D02*
X0227768Y0223434D01*
X0234893Y0223434D02*
X0296567Y0223434D01*
X0303165Y0228433D02*
X0389764Y0228433D01*
X0389764Y0223434D02*
X0308164Y0223434D01*
X0297522Y0233432D02*
X0389764Y0233432D01*
X0306200Y0203440D02*
X0299239Y0203440D01*
X0286961Y0203440D02*
X0235593Y0203440D01*
X0227068Y0203440D02*
X0225593Y0203440D01*
X0235590Y0213437D02*
X0286441Y0213437D01*
X0286939Y0218436D02*
X0237630Y0218436D01*
X0161478Y0233432D02*
X0104634Y0233432D01*
X0104644Y0228433D02*
X0129082Y0228433D01*
X0134305Y0228433D02*
X0134305Y0228433D01*
X0134305Y0223434D02*
X0134305Y0223434D01*
X0134305Y0221562D02*
X0134305Y0221562D01*
X0127805Y0221562D01*
X0134305Y0221562D01*
X0127805Y0223434D02*
X0104644Y0223434D01*
X0104076Y0218436D02*
X0127805Y0218436D01*
X0140442Y0203440D02*
X0108000Y0203440D01*
X0108000Y0198442D02*
X0135444Y0198442D01*
X0130445Y0193443D02*
X0108000Y0193443D01*
X0108000Y0188445D02*
X0125447Y0188445D01*
X0120448Y0183446D02*
X0108000Y0183446D01*
X0117049Y0168451D02*
X0160600Y0168451D01*
X0160600Y0163452D02*
X0112051Y0163452D01*
X0076934Y0123464D02*
X0160600Y0123464D01*
X0135853Y0108728D02*
X0135853Y0108728D01*
X0129353Y0108728D01*
X0125853Y0108728D01*
X0125853Y0108728D01*
X0135853Y0108728D01*
X0130853Y0094819D02*
X0133244Y0092428D01*
X0138463Y0092428D01*
X0140853Y0094819D01*
X0143244Y0092428D01*
X0148463Y0092428D01*
X0150853Y0094819D01*
X0151820Y0093852D01*
X0126800Y0068833D01*
X0126800Y0092428D01*
X0128463Y0092428D01*
X0130853Y0094819D01*
X0129508Y0093473D02*
X0132199Y0093473D01*
X0139508Y0093473D02*
X0142199Y0093473D01*
X0146442Y0088475D02*
X0126800Y0088475D01*
X0126800Y0083476D02*
X0141444Y0083476D01*
X0136445Y0078478D02*
X0126800Y0078478D01*
X0126800Y0073479D02*
X0131447Y0073479D01*
X0141915Y0063482D02*
X0189400Y0063482D01*
X0189400Y0058484D02*
X0136916Y0058484D01*
X0136800Y0058367D02*
X0172052Y0093620D01*
X0173244Y0092428D01*
X0178463Y0092428D01*
X0180818Y0094784D01*
X0189400Y0086202D01*
X0189400Y0039474D01*
X0187556Y0037630D01*
X0187556Y0032411D01*
X0189946Y0030020D01*
X0187556Y0027630D01*
X0187556Y0024400D01*
X0143851Y0024400D01*
X0143851Y0027945D01*
X0141461Y0030335D01*
X0143851Y0032726D01*
X0143851Y0037945D01*
X0140161Y0041635D01*
X0136800Y0041635D01*
X0136800Y0058367D01*
X0136800Y0053485D02*
X0189400Y0053485D01*
X0189400Y0048487D02*
X0136800Y0048487D01*
X0136800Y0043488D02*
X0189400Y0043488D01*
X0188416Y0038490D02*
X0143306Y0038490D01*
X0143851Y0033491D02*
X0187556Y0033491D01*
X0188419Y0028493D02*
X0143303Y0028493D01*
X0197600Y0043488D02*
X0201056Y0043488D01*
X0197600Y0048487D02*
X0206054Y0048487D01*
X0189400Y0068481D02*
X0146913Y0068481D01*
X0151912Y0073479D02*
X0189400Y0073479D01*
X0189400Y0078478D02*
X0156910Y0078478D01*
X0161909Y0083476D02*
X0189400Y0083476D01*
X0187127Y0088475D02*
X0166907Y0088475D01*
X0171906Y0093473D02*
X0172199Y0093473D01*
X0179508Y0093473D02*
X0182129Y0093473D01*
X0151441Y0093473D02*
X0149508Y0093473D01*
X0111441Y0093473D02*
X0109508Y0093473D01*
X0091683Y0113467D02*
X0090024Y0113467D01*
X0081932Y0118466D02*
X0100033Y0118466D01*
X0079553Y0108469D02*
X0049067Y0108469D01*
X0054066Y0113467D02*
X0075334Y0113467D01*
X0070336Y0118466D02*
X0059064Y0118466D01*
X0064063Y0123464D02*
X0064228Y0123464D01*
X0037811Y0158454D02*
X0007000Y0158454D01*
X0007000Y0163452D02*
X0038004Y0163452D01*
X0232400Y0128463D02*
X0306200Y0128463D01*
X0307737Y0123464D02*
X0232400Y0123464D01*
X0232400Y0118466D02*
X0308623Y0118466D01*
X0311255Y0113467D02*
X0232400Y0113467D01*
X0218872Y0018496D02*
X0210928Y0018496D01*
X0389764Y0008499D02*
X0019008Y0008499D01*
D22*
X0032043Y0034012D03*
X0032043Y0209209D03*
D23*
X0364720Y0209209D03*
X0364720Y0034012D03*
D24*
X0283856Y0035020D02*
X0283500Y0034700D01*
X0279500Y0030700D01*
X0273500Y0030700D01*
X0269500Y0026700D01*
X0269500Y0024700D01*
X0265500Y0020700D01*
X0221900Y0020700D01*
X0217900Y0024700D01*
X0213900Y0024700D01*
X0213856Y0025020D01*
X0213500Y0024700D01*
X0211900Y0024700D01*
X0206300Y0019100D01*
X0103900Y0019100D01*
X0097900Y0025100D01*
X0097551Y0025335D01*
X0107551Y0035335D02*
X0107900Y0035500D01*
X0107900Y0084700D01*
X0121500Y0098300D01*
X0121500Y0100700D01*
X0123900Y0103100D01*
X0151500Y0103100D01*
X0155500Y0099100D01*
X0155853Y0098728D01*
X0160300Y0097100D02*
X0160300Y0104300D01*
X0155900Y0108700D01*
X0155853Y0108728D01*
X0165853Y0108728D02*
X0165900Y0108700D01*
X0170300Y0104300D01*
X0170300Y0097100D01*
X0133100Y0059900D01*
X0133100Y0034700D01*
X0127900Y0029500D01*
X0127900Y0025500D01*
X0127551Y0025335D01*
X0123100Y0020700D02*
X0118300Y0025500D01*
X0117551Y0025335D01*
X0117900Y0025500D01*
X0117900Y0029500D01*
X0123100Y0034700D01*
X0123100Y0096300D01*
X0125500Y0098700D01*
X0125853Y0098728D01*
X0103100Y0116300D02*
X0171100Y0116300D01*
X0177100Y0122300D01*
X0177100Y0129500D01*
X0179900Y0132300D01*
X0219900Y0132300D01*
X0219900Y0060300D01*
X0222300Y0057900D01*
X0222300Y0053500D01*
X0203900Y0035100D01*
X0203856Y0035020D01*
X0208300Y0035500D02*
X0208300Y0029500D01*
X0203900Y0025100D01*
X0203856Y0025020D01*
X0208300Y0025500D02*
X0208300Y0023500D01*
X0205500Y0020700D01*
X0123100Y0020700D01*
X0127551Y0035335D02*
X0127900Y0035500D01*
X0127900Y0064700D01*
X0160300Y0097100D01*
X0164300Y0119100D02*
X0164300Y0221500D01*
X0164305Y0221562D01*
X0174300Y0221500D02*
X0174305Y0221562D01*
X0174300Y0221500D02*
X0174300Y0123500D01*
X0169900Y0119100D01*
X0219900Y0138300D02*
X0228700Y0129500D01*
X0228700Y0055900D01*
X0208300Y0035500D01*
X0212300Y0029500D02*
X0208300Y0025500D01*
X0212300Y0029500D02*
X0225500Y0029500D01*
X0229900Y0025100D01*
X0233500Y0025100D01*
X0233856Y0025020D01*
X0219500Y0056700D02*
X0198300Y0035500D01*
X0198300Y0029500D01*
X0193900Y0025100D01*
X0193856Y0025020D01*
X0103100Y0116300D02*
X0095900Y0109100D01*
X0095853Y0108728D01*
X0209500Y0168300D02*
X0209500Y0203900D01*
X0207100Y0206300D01*
X0207100Y0213900D01*
X0211100Y0217900D01*
X0211330Y0218087D01*
X0221100Y0207900D02*
X0221330Y0208087D01*
X0221100Y0207900D02*
X0215100Y0201900D01*
X0215100Y0164300D01*
X0219900Y0167500D02*
X0219900Y0138300D01*
X0084700Y0210300D02*
X0084700Y0211500D01*
X0085900Y0212700D01*
X0085900Y0216300D01*
X0086085Y0216430D01*
X0083526Y0216430D02*
X0083500Y0216300D01*
X0083500Y0213100D01*
X0081100Y0210700D01*
X0081100Y0202700D01*
M02*
