%
M48
M72
T01C0.0197
T02C0.0320
T03C0.0360
T04C0.0400
T05C0.0433
T06C0.0440
T07C0.0590
T08C0.0630
T09C0.1260
%
T01
X7791Y17641
X16783Y17948
X12689Y6578
X12287Y11059
X14059Y11563
X2796Y5704
X2796Y4434
X12397Y17515
X12720Y9500
X12988Y8933
X17185Y17854
X17334Y8917
X15917Y7256
X14665Y7256
X14019Y7901
X13610Y7500
X12870Y8248
X13074Y10137
X11051Y10578
X10555Y10578
X3917Y9224
X3460Y9681
X17106Y12224
X12720Y7523
X9133Y3708
X10350Y13350
X11100Y14082
X10342Y9216
X7271Y6145
X2063Y15405
X5618Y12618
X11917Y1200
X1712Y4484
X2665Y6082
X17067Y885
X3224Y16850
X3224Y15704
X14641Y8193
X6870Y6303
X13027Y2555
X15704Y2555
X12720Y7067
X11736Y6082
X8374Y18413
X13523Y8909
X8547Y7019
X7673Y6145
X4815Y17633
X7043Y13263
X7594Y12901
X11799Y8933
X9210Y16815
X12074Y8633
X7224Y18838
X5389Y18421
X6350Y18460
X8248Y18941
X9263Y18279
X4350Y18476
X16074Y10326
X15043Y8137
X16736Y9830
X11909Y16271
X10649Y16744
X10531Y16342
X10563Y15256
X9271Y14334
X15507Y16035
T02
X16317Y4805
X15317Y4805
X14317Y4805
X13317Y4805
X12317Y4805
X11317Y4805
X10317Y4805
X9317Y4805
X8317Y4805
X7317Y4805
X6317Y4805
X5317Y4805
X4317Y4805
X3317Y4805
X3317Y1805
X4317Y1805
X5317Y1805
X6317Y1805
X7317Y1805
X8317Y1805
X9317Y1805
X10317Y1805
X11317Y1805
X12317Y1805
X13317Y1805
X14317Y1805
X15317Y1805
X16317Y1805
X3849Y6030
X3849Y7030
T03
X6916Y14063
X7916Y14063
X5021Y14070
X4021Y14070
X18157Y12502
X19157Y12502
X5153Y6930
X5853Y6230
T04
X17168Y18666
X7280Y9422
X18753Y15208
X18753Y16988
X18753Y3397
X18753Y5177
X15630Y6269
X5350Y10143
X14000Y12659
X12939Y12664
X11781Y12670
X10565Y12684
X9367Y12677
X16128Y12653
X15063Y12654
X14371Y6258
X15714Y7923
T05
X18568Y8027
X18568Y9011
X18568Y9996
X2476Y10670
X2476Y11670
X1476Y10670
X1476Y11670
X2484Y8344
X2484Y9344
X1484Y8344
X1484Y9344
T06
X3804Y15589
X4804Y15589
X5804Y15589
X6804Y15589
X7804Y15589
X8804Y15589
T07
X17773Y14718
X17773Y17478
X17773Y2907
X17773Y5667
T08
X17268Y10626
X17268Y7397
T09
X1201Y19175
X19182Y19177
X1200Y1200
X19179Y1212
M30
