G75*
%MOIN*%
%OFA0B0*%
%FSLAX25Y25*%
%IPPOS*%
%LPD*%
%AMOC8*
5,1,8,0,0,1.08239X$1,22.5*
%
%ADD10C,0.00300*%
%ADD11C,0.01600*%
%ADD12C,0.00000*%
%ADD13C,0.00787*%
%ADD14C,0.01000*%
%ADD15C,0.00600*%
%ADD16C,0.00500*%
%ADD17C,0.00800*%
D10*
X0012996Y0044990D02*
X0012996Y0046810D01*
X0013603Y0047416D01*
X0014816Y0047416D01*
X0015423Y0046810D01*
X0015423Y0044990D01*
X0015423Y0046203D02*
X0016637Y0047416D01*
X0016030Y0048615D02*
X0014816Y0048615D01*
X0014210Y0049221D01*
X0014210Y0050435D01*
X0014816Y0051041D01*
X0015423Y0051041D01*
X0015423Y0048615D01*
X0016030Y0048615D02*
X0016637Y0049221D01*
X0016637Y0050435D01*
X0016637Y0052240D02*
X0014210Y0052240D01*
X0014210Y0052847D01*
X0014816Y0053453D01*
X0014210Y0054060D01*
X0014816Y0054667D01*
X0016637Y0054667D01*
X0016637Y0053453D02*
X0014816Y0053453D01*
X0014816Y0055865D02*
X0016030Y0055865D01*
X0016637Y0056472D01*
X0016637Y0057685D01*
X0016030Y0058292D01*
X0014816Y0058292D01*
X0014210Y0057685D01*
X0014210Y0056472D01*
X0014816Y0055865D01*
X0014210Y0059490D02*
X0016637Y0060703D01*
X0014210Y0061917D01*
X0014816Y0063115D02*
X0014210Y0063722D01*
X0014210Y0064935D01*
X0014816Y0065542D01*
X0015423Y0065542D01*
X0015423Y0063115D01*
X0016030Y0063115D02*
X0014816Y0063115D01*
X0016030Y0063115D02*
X0016637Y0063722D01*
X0016637Y0064935D01*
X0019509Y0063722D02*
X0021935Y0063722D01*
X0022542Y0064329D01*
X0021935Y0065532D02*
X0022542Y0066139D01*
X0022542Y0067352D01*
X0021329Y0067959D02*
X0021329Y0065532D01*
X0021935Y0065532D02*
X0020722Y0065532D01*
X0020115Y0066139D01*
X0020115Y0067352D01*
X0020722Y0067959D01*
X0021329Y0067959D01*
X0021329Y0069157D02*
X0020115Y0070371D01*
X0020115Y0070977D01*
X0020115Y0072178D02*
X0021935Y0072178D01*
X0022542Y0072785D01*
X0022542Y0074605D01*
X0023149Y0074605D02*
X0023755Y0073998D01*
X0023755Y0073391D01*
X0023149Y0074605D02*
X0020115Y0074605D01*
X0016637Y0075209D02*
X0016637Y0073389D01*
X0016030Y0072782D01*
X0014210Y0072782D01*
X0014210Y0071579D02*
X0017243Y0071579D01*
X0017850Y0070972D01*
X0017850Y0070366D01*
X0020115Y0069157D02*
X0022542Y0069157D01*
X0020115Y0064329D02*
X0020115Y0063115D01*
X0020115Y0061912D02*
X0020115Y0060698D01*
X0019509Y0061305D02*
X0021935Y0061305D01*
X0022542Y0061912D01*
X0022542Y0059500D02*
X0020722Y0059500D01*
X0020115Y0058893D01*
X0020115Y0057680D01*
X0021329Y0057680D02*
X0021329Y0059500D01*
X0022542Y0059500D02*
X0022542Y0057680D01*
X0021935Y0057073D01*
X0021329Y0057680D01*
X0021935Y0055875D02*
X0020722Y0055875D01*
X0020115Y0055268D01*
X0020115Y0053448D01*
X0018902Y0053448D02*
X0022542Y0053448D01*
X0022542Y0055268D01*
X0021935Y0055875D01*
X0020722Y0048620D02*
X0020722Y0047406D01*
X0019509Y0048013D02*
X0018902Y0048620D01*
X0019509Y0048013D02*
X0022542Y0048013D01*
X0022542Y0046203D02*
X0022542Y0044990D01*
X0022542Y0045596D02*
X0020115Y0045596D01*
X0020115Y0044990D01*
X0018902Y0045596D02*
X0018295Y0045596D01*
X0016637Y0044990D02*
X0012996Y0044990D01*
X0012996Y0071579D02*
X0012390Y0071579D01*
X0014210Y0075209D02*
X0016637Y0075209D01*
X0016637Y0076407D02*
X0014210Y0076407D01*
X0014210Y0077014D01*
X0014816Y0077621D01*
X0014210Y0078227D01*
X0014816Y0078834D01*
X0016637Y0078834D01*
X0016637Y0080033D02*
X0016637Y0081853D01*
X0016030Y0082459D01*
X0014816Y0082459D01*
X0014210Y0081853D01*
X0014210Y0080033D01*
X0017850Y0080033D01*
X0020115Y0079428D02*
X0020115Y0081248D01*
X0020722Y0081855D01*
X0021935Y0081855D01*
X0022542Y0081248D01*
X0022542Y0079428D01*
X0023755Y0079428D02*
X0020115Y0079428D01*
X0016637Y0077621D02*
X0014816Y0077621D01*
X0014816Y0083658D02*
X0014210Y0084264D01*
X0014210Y0085478D01*
X0014816Y0086084D01*
X0015423Y0086084D01*
X0015423Y0083658D01*
X0016030Y0083658D02*
X0014816Y0083658D01*
X0016030Y0083658D02*
X0016637Y0084264D01*
X0016637Y0085478D01*
X0016637Y0087283D02*
X0014210Y0087283D01*
X0015423Y0087283D02*
X0014210Y0088496D01*
X0014210Y0089103D01*
X0020115Y0089105D02*
X0021935Y0089105D01*
X0022542Y0088499D01*
X0021935Y0087892D01*
X0022542Y0087285D01*
X0021935Y0086679D01*
X0020115Y0086679D01*
X0020722Y0085480D02*
X0020115Y0084874D01*
X0020115Y0083660D01*
X0020722Y0083054D01*
X0021935Y0083054D01*
X0022542Y0083660D01*
X0022542Y0084874D01*
X0021935Y0085480D01*
X0020722Y0085480D01*
X0020722Y0090304D02*
X0020115Y0090910D01*
X0020115Y0092124D01*
X0020722Y0092731D01*
X0021329Y0092731D01*
X0021329Y0090304D01*
X0021935Y0090304D02*
X0020722Y0090304D01*
X0021935Y0090304D02*
X0022542Y0090910D01*
X0022542Y0092124D01*
X0022542Y0093929D02*
X0020115Y0093929D01*
X0020115Y0095142D02*
X0020115Y0095749D01*
X0020115Y0095142D02*
X0021329Y0093929D01*
X0027059Y0108163D02*
X0027059Y0109377D01*
X0027059Y0108770D02*
X0030093Y0108770D01*
X0030699Y0108163D01*
X0030699Y0107557D01*
X0030093Y0106950D01*
X0030699Y0110575D02*
X0027059Y0110575D01*
X0027059Y0112395D01*
X0027666Y0113002D01*
X0028879Y0113002D01*
X0029486Y0112395D01*
X0029486Y0110575D01*
X0028273Y0114200D02*
X0027059Y0115414D01*
X0030699Y0115414D01*
X0030699Y0116627D02*
X0030699Y0114200D01*
X0056999Y0125557D02*
X0057606Y0124950D01*
X0058820Y0124950D01*
X0059426Y0125557D01*
X0060625Y0124950D02*
X0063051Y0124950D01*
X0061838Y0124950D02*
X0061838Y0128590D01*
X0060625Y0127377D01*
X0059426Y0127983D02*
X0058820Y0128590D01*
X0057606Y0128590D01*
X0056999Y0127983D01*
X0056999Y0125557D01*
X0056496Y0143200D02*
X0059530Y0143200D01*
X0060137Y0143806D01*
X0060137Y0145020D01*
X0059530Y0145626D01*
X0056496Y0145626D01*
X0057710Y0146825D02*
X0056496Y0148038D01*
X0060137Y0148038D01*
X0060137Y0146825D02*
X0060137Y0149252D01*
X0060374Y0162513D02*
X0062801Y0164940D01*
X0062801Y0165546D01*
X0062194Y0166153D01*
X0060981Y0166153D01*
X0060374Y0165546D01*
X0059176Y0165546D02*
X0058569Y0166153D01*
X0057356Y0166153D01*
X0056749Y0165546D01*
X0056749Y0163120D01*
X0057356Y0162513D01*
X0058569Y0162513D01*
X0059176Y0163120D01*
X0060374Y0162513D02*
X0062801Y0162513D01*
X0050088Y0168092D02*
X0048875Y0168092D01*
X0049482Y0168092D02*
X0049482Y0171732D01*
X0050088Y0171732D02*
X0048875Y0171732D01*
X0047677Y0171125D02*
X0047677Y0168698D01*
X0047070Y0168092D01*
X0045250Y0168092D01*
X0045250Y0171732D01*
X0047070Y0171732D01*
X0047677Y0171125D01*
X0044051Y0171732D02*
X0041625Y0171732D01*
X0040426Y0171732D02*
X0037999Y0171732D01*
X0037999Y0168092D01*
X0037999Y0169912D02*
X0039213Y0169912D01*
X0042838Y0168092D02*
X0042838Y0171732D01*
X0094895Y0164881D02*
X0096108Y0164881D01*
X0095502Y0164881D02*
X0095502Y0161241D01*
X0096108Y0161241D02*
X0094895Y0161241D01*
X0097312Y0161241D02*
X0099738Y0163668D01*
X0099738Y0164275D01*
X0099132Y0164881D01*
X0097918Y0164881D01*
X0097312Y0164275D01*
X0097312Y0161241D02*
X0099738Y0161241D01*
X0100937Y0161848D02*
X0100937Y0164275D01*
X0101543Y0164881D01*
X0102757Y0164881D01*
X0103363Y0164275D01*
X0103363Y0161848D02*
X0102757Y0161241D01*
X0101543Y0161241D01*
X0100937Y0161848D01*
X0104562Y0160635D02*
X0106989Y0160635D01*
X0108187Y0161241D02*
X0110614Y0161241D01*
X0111812Y0161241D02*
X0114239Y0164881D01*
X0115437Y0164881D02*
X0117864Y0164881D01*
X0116651Y0164881D02*
X0116651Y0161241D01*
X0114239Y0161241D02*
X0111812Y0164881D01*
X0110614Y0164881D02*
X0108187Y0164881D01*
X0108187Y0161241D01*
X0108187Y0163061D02*
X0109400Y0163061D01*
X0132563Y0161211D02*
X0136203Y0158784D01*
X0136203Y0157585D02*
X0134990Y0156372D01*
X0134990Y0156979D02*
X0134990Y0155159D01*
X0136203Y0155159D02*
X0132563Y0155159D01*
X0132563Y0156979D01*
X0133170Y0157585D01*
X0134383Y0157585D01*
X0134990Y0156979D01*
X0132563Y0158784D02*
X0136203Y0161211D01*
X0137563Y0161211D02*
X0141203Y0158784D01*
X0141203Y0156372D02*
X0137563Y0156372D01*
X0137563Y0155159D02*
X0137563Y0157585D01*
X0137563Y0158784D02*
X0141203Y0161211D01*
X0147563Y0161211D02*
X0151203Y0161211D01*
X0147563Y0158784D01*
X0151203Y0158784D01*
X0150597Y0157585D02*
X0149383Y0157585D01*
X0149383Y0156372D01*
X0148170Y0155159D02*
X0150597Y0155159D01*
X0151203Y0155765D01*
X0151203Y0156979D01*
X0150597Y0157585D01*
X0152563Y0156979D02*
X0152563Y0155765D01*
X0153170Y0155159D01*
X0155597Y0155159D01*
X0156203Y0155765D01*
X0156203Y0156979D01*
X0155597Y0157585D01*
X0154383Y0157585D01*
X0154383Y0156372D01*
X0153170Y0157585D02*
X0152563Y0156979D01*
X0152563Y0158784D02*
X0156203Y0161211D01*
X0152563Y0161211D01*
X0152563Y0162409D02*
X0152563Y0164229D01*
X0153170Y0164836D01*
X0155597Y0164836D01*
X0156203Y0164229D01*
X0156203Y0162409D01*
X0152563Y0162409D01*
X0151203Y0162409D02*
X0151203Y0164229D01*
X0150597Y0164836D01*
X0148170Y0164836D01*
X0147563Y0164229D01*
X0147563Y0162409D01*
X0151203Y0162409D01*
X0152563Y0158784D02*
X0156203Y0158784D01*
X0162563Y0158784D02*
X0166203Y0161211D01*
X0162563Y0161211D01*
X0162563Y0162409D02*
X0162563Y0164229D01*
X0163170Y0164836D01*
X0165597Y0164836D01*
X0166203Y0164229D01*
X0166203Y0162409D01*
X0162563Y0162409D01*
X0162563Y0158784D02*
X0166203Y0158784D01*
X0165597Y0157585D02*
X0164383Y0157585D01*
X0164383Y0156372D01*
X0163170Y0155159D02*
X0165597Y0155159D01*
X0166203Y0155765D01*
X0166203Y0156979D01*
X0165597Y0157585D01*
X0167563Y0157585D02*
X0171203Y0157585D01*
X0170597Y0158784D02*
X0171203Y0159390D01*
X0171203Y0160604D01*
X0170597Y0161211D01*
X0169383Y0161211D01*
X0168777Y0160604D01*
X0168777Y0159390D01*
X0169383Y0158784D01*
X0170597Y0158784D01*
X0172563Y0159390D02*
X0172563Y0160604D01*
X0173170Y0161211D01*
X0173170Y0162409D02*
X0175597Y0162409D01*
X0176203Y0163016D01*
X0176203Y0164229D01*
X0175597Y0164836D01*
X0173170Y0164836D02*
X0172563Y0164229D01*
X0172563Y0163016D01*
X0173170Y0162409D01*
X0171203Y0162409D02*
X0171203Y0164229D01*
X0170597Y0164836D01*
X0169990Y0164229D01*
X0169990Y0163016D01*
X0169383Y0162409D01*
X0168777Y0163016D01*
X0168777Y0164836D01*
X0168777Y0166034D02*
X0168777Y0166641D01*
X0171203Y0166641D01*
X0171203Y0167247D02*
X0171203Y0166034D01*
X0167563Y0166641D02*
X0166957Y0166641D01*
X0172563Y0159390D02*
X0173170Y0158784D01*
X0175597Y0158784D01*
X0176203Y0159390D01*
X0176203Y0160604D01*
X0175597Y0161211D01*
X0174990Y0157585D02*
X0172563Y0157585D01*
X0172563Y0155159D02*
X0174990Y0155159D01*
X0176203Y0156372D01*
X0174990Y0157585D01*
X0171203Y0155159D02*
X0167563Y0155159D01*
X0168777Y0156372D01*
X0167563Y0157585D01*
X0163170Y0157585D02*
X0162563Y0156979D01*
X0162563Y0155765D01*
X0163170Y0155159D01*
X0148170Y0155159D02*
X0147563Y0155765D01*
X0147563Y0156979D01*
X0148170Y0157585D01*
X0148170Y0177659D02*
X0148777Y0177659D01*
X0149383Y0178265D01*
X0149383Y0179479D01*
X0149990Y0180085D01*
X0150597Y0180085D01*
X0151203Y0179479D01*
X0151203Y0178265D01*
X0150597Y0177659D01*
X0152563Y0178265D02*
X0152563Y0179479D01*
X0153170Y0180085D01*
X0153170Y0181284D02*
X0152563Y0181890D01*
X0152563Y0183104D01*
X0153170Y0183711D01*
X0152563Y0184909D02*
X0156203Y0184909D01*
X0156203Y0187336D01*
X0155597Y0183711D02*
X0156203Y0183104D01*
X0156203Y0181890D01*
X0155597Y0181284D01*
X0153170Y0181284D01*
X0151203Y0181284D02*
X0151203Y0183104D01*
X0150597Y0183711D01*
X0148170Y0183711D01*
X0147563Y0183104D01*
X0147563Y0181284D01*
X0151203Y0181284D01*
X0154383Y0179479D02*
X0154990Y0180085D01*
X0155597Y0180085D01*
X0156203Y0179479D01*
X0156203Y0178265D01*
X0155597Y0177659D01*
X0154383Y0178265D02*
X0154383Y0179479D01*
X0154383Y0178265D02*
X0153777Y0177659D01*
X0153170Y0177659D01*
X0152563Y0178265D01*
X0148170Y0177659D02*
X0147563Y0178265D01*
X0147563Y0179479D01*
X0148170Y0180085D01*
X0146203Y0180075D02*
X0142563Y0180075D01*
X0142563Y0181895D01*
X0143170Y0182502D01*
X0144383Y0182502D01*
X0144990Y0181895D01*
X0144990Y0180075D01*
X0144990Y0181289D02*
X0146203Y0182502D01*
X0145597Y0183701D02*
X0146203Y0184307D01*
X0146203Y0185521D01*
X0145597Y0186127D01*
X0143170Y0186127D01*
X0142563Y0185521D01*
X0142563Y0184307D01*
X0143170Y0183701D01*
X0145597Y0183701D01*
X0144990Y0184914D02*
X0146203Y0186127D01*
X0147563Y0186122D02*
X0148777Y0187336D01*
X0151203Y0187336D01*
X0149383Y0187336D02*
X0149383Y0184909D01*
X0148777Y0184909D02*
X0147563Y0186122D01*
X0148777Y0184909D02*
X0151203Y0184909D01*
X0146203Y0178872D02*
X0146203Y0177659D01*
X0146203Y0178265D02*
X0142563Y0178265D01*
X0142563Y0177659D02*
X0142563Y0178872D01*
X0141203Y0177659D02*
X0137563Y0177659D01*
X0141203Y0180085D01*
X0137563Y0180085D01*
X0138170Y0181284D02*
X0138777Y0181284D01*
X0139383Y0181890D01*
X0139383Y0183104D01*
X0139990Y0183711D01*
X0140597Y0183711D01*
X0141203Y0183104D01*
X0141203Y0181890D01*
X0140597Y0181284D01*
X0138170Y0181284D02*
X0137563Y0181890D01*
X0137563Y0183104D01*
X0138170Y0183711D01*
X0138170Y0184909D02*
X0138777Y0184909D01*
X0139383Y0185516D01*
X0139383Y0186729D01*
X0139990Y0187336D01*
X0140597Y0187336D01*
X0141203Y0186729D01*
X0141203Y0185516D01*
X0140597Y0184909D01*
X0138170Y0184909D02*
X0137563Y0185516D01*
X0137563Y0186729D01*
X0138170Y0187336D01*
X0136203Y0183711D02*
X0134990Y0182497D01*
X0135597Y0181284D02*
X0133170Y0181284D01*
X0132563Y0181890D01*
X0132563Y0183104D01*
X0133170Y0183711D01*
X0135597Y0183711D01*
X0136203Y0183104D01*
X0136203Y0181890D01*
X0135597Y0181284D01*
X0135597Y0180085D02*
X0133170Y0180085D01*
X0132563Y0179479D01*
X0132563Y0177659D01*
X0136203Y0177659D01*
X0136203Y0179479D01*
X0135597Y0180085D01*
X0162563Y0179479D02*
X0162563Y0177659D01*
X0166203Y0177659D01*
X0164990Y0177659D02*
X0164990Y0179479D01*
X0164383Y0180085D01*
X0163170Y0180085D01*
X0162563Y0179479D01*
X0163170Y0181284D02*
X0163777Y0181284D01*
X0164383Y0181890D01*
X0164383Y0183104D01*
X0164990Y0183711D01*
X0165597Y0183711D01*
X0166203Y0183104D01*
X0166203Y0181890D01*
X0165597Y0181284D01*
X0166203Y0180085D02*
X0164990Y0178872D01*
X0163170Y0181284D02*
X0162563Y0181890D01*
X0162563Y0183104D01*
X0163170Y0183711D01*
X0162563Y0184909D02*
X0162563Y0187336D01*
X0162563Y0186122D02*
X0166203Y0186122D01*
X0167563Y0184909D02*
X0171203Y0184909D01*
X0169990Y0184909D02*
X0167563Y0187336D01*
X0169383Y0185516D02*
X0171203Y0187336D01*
X0173777Y0187932D02*
X0174383Y0187326D01*
X0175597Y0187326D01*
X0176203Y0187932D01*
X0176203Y0189146D01*
X0175597Y0189752D01*
X0174383Y0189752D01*
X0173777Y0189146D01*
X0173777Y0187932D01*
X0173777Y0186127D02*
X0173777Y0184307D01*
X0174383Y0183701D01*
X0174990Y0184307D01*
X0174990Y0185521D01*
X0175597Y0186127D01*
X0176203Y0185521D01*
X0176203Y0183701D01*
X0176203Y0182497D02*
X0176203Y0181284D01*
X0176203Y0181890D02*
X0173777Y0181890D01*
X0173777Y0181284D01*
X0172563Y0181890D02*
X0171957Y0181890D01*
X0171203Y0181890D02*
X0171203Y0183104D01*
X0170597Y0183711D01*
X0171203Y0181890D02*
X0170597Y0181284D01*
X0168170Y0181284D01*
X0167563Y0181890D01*
X0167563Y0183104D01*
X0168170Y0183711D01*
X0168170Y0180085D02*
X0167563Y0179479D01*
X0167563Y0178265D01*
X0168170Y0177659D01*
X0168777Y0177659D01*
X0169383Y0178265D01*
X0169383Y0179479D01*
X0169990Y0180085D01*
X0170597Y0180085D01*
X0171203Y0179479D01*
X0171203Y0178265D01*
X0170597Y0177659D01*
X0172563Y0177659D02*
X0173777Y0178872D01*
X0172563Y0180085D01*
X0176203Y0180085D01*
X0176203Y0177659D02*
X0172563Y0177659D01*
X0191088Y0054811D02*
X0190482Y0054204D01*
X0190482Y0052991D01*
X0191088Y0052384D01*
X0191695Y0052384D01*
X0192302Y0052991D01*
X0192302Y0054811D01*
X0193515Y0054811D02*
X0191088Y0054811D01*
X0193515Y0054811D02*
X0194122Y0054204D01*
X0194122Y0052991D01*
X0193515Y0052384D01*
X0194122Y0051186D02*
X0194122Y0048759D01*
X0191695Y0051186D01*
X0191088Y0051186D01*
X0190482Y0050579D01*
X0190482Y0049366D01*
X0191088Y0048759D01*
X0191088Y0047560D02*
X0190482Y0046954D01*
X0190482Y0045740D01*
X0191088Y0045134D01*
X0191088Y0043935D02*
X0193515Y0041509D01*
X0194122Y0042115D01*
X0194122Y0043329D01*
X0193515Y0043935D01*
X0191088Y0043935D01*
X0190482Y0043329D01*
X0190482Y0042115D01*
X0191088Y0041509D01*
X0193515Y0041509D01*
X0193515Y0040310D02*
X0192908Y0040310D01*
X0192302Y0039703D01*
X0192302Y0037883D01*
X0193515Y0037883D01*
X0194122Y0038490D01*
X0194122Y0039703D01*
X0193515Y0040310D01*
X0191088Y0039097D02*
X0192302Y0037883D01*
X0191088Y0039097D02*
X0190482Y0040310D01*
X0194122Y0036685D02*
X0194122Y0034258D01*
X0194122Y0035472D02*
X0190482Y0035472D01*
X0191695Y0034258D01*
X0191088Y0033060D02*
X0193515Y0030633D01*
X0194122Y0031240D01*
X0194122Y0032453D01*
X0193515Y0033060D01*
X0191088Y0033060D01*
X0190482Y0032453D01*
X0190482Y0031240D01*
X0191088Y0030633D01*
X0193515Y0030633D01*
X0194122Y0029435D02*
X0194122Y0027008D01*
X0191695Y0029435D01*
X0191088Y0029435D01*
X0190482Y0028828D01*
X0190482Y0027615D01*
X0191088Y0027008D01*
X0194122Y0045134D02*
X0191695Y0047560D01*
X0191088Y0047560D01*
X0194122Y0047560D02*
X0194122Y0045134D01*
X0124158Y0007154D02*
X0122338Y0005941D01*
X0124158Y0004727D01*
X0122338Y0004727D02*
X0122338Y0008368D01*
X0121140Y0007154D02*
X0121140Y0004727D01*
X0119320Y0004727D01*
X0118713Y0005334D01*
X0118713Y0007154D01*
X0117507Y0005334D02*
X0117507Y0004727D01*
X0116901Y0004727D01*
X0116901Y0005334D01*
X0117507Y0005334D01*
X0115702Y0004727D02*
X0113882Y0004727D01*
X0113276Y0005334D01*
X0113276Y0006547D01*
X0113882Y0007154D01*
X0115702Y0007154D01*
X0115702Y0004121D01*
X0115096Y0003514D01*
X0114489Y0003514D01*
X0112075Y0007154D02*
X0111468Y0007154D01*
X0110255Y0005941D01*
X0110255Y0007154D02*
X0110255Y0004727D01*
X0109056Y0005334D02*
X0109056Y0006547D01*
X0108449Y0007154D01*
X0107236Y0007154D01*
X0106629Y0006547D01*
X0106629Y0005334D01*
X0107236Y0004727D01*
X0108449Y0004727D01*
X0109056Y0005334D01*
X0105424Y0005334D02*
X0105424Y0004727D01*
X0104817Y0004727D01*
X0104817Y0005334D01*
X0105424Y0005334D01*
X0103618Y0005941D02*
X0103618Y0008368D01*
X0101192Y0008368D02*
X0101192Y0005941D01*
X0102405Y0004727D01*
X0103618Y0005941D01*
X0099993Y0006547D02*
X0099387Y0005941D01*
X0097567Y0005941D01*
X0098780Y0005941D02*
X0099993Y0004727D01*
X0099993Y0006547D02*
X0099993Y0007761D01*
X0099387Y0008368D01*
X0097567Y0008368D01*
X0097567Y0004727D01*
X0095155Y0004727D02*
X0095155Y0008368D01*
X0096368Y0008368D02*
X0093941Y0008368D01*
X0092136Y0007154D02*
X0092743Y0006547D01*
X0092743Y0004727D01*
X0092136Y0007154D02*
X0090316Y0007154D01*
X0090316Y0004727D01*
X0089118Y0005941D02*
X0086691Y0005941D01*
X0086691Y0006547D02*
X0086691Y0005334D01*
X0087298Y0004727D01*
X0088511Y0004727D01*
X0089118Y0005941D02*
X0089118Y0006547D01*
X0088511Y0007154D01*
X0087298Y0007154D01*
X0086691Y0006547D01*
X0085493Y0006547D02*
X0085493Y0005334D01*
X0084886Y0004727D01*
X0083066Y0004727D01*
X0083066Y0003514D02*
X0083066Y0007154D01*
X0084886Y0007154D01*
X0085493Y0006547D01*
X0081868Y0005334D02*
X0081868Y0007761D01*
X0081261Y0008368D01*
X0080048Y0008368D01*
X0079441Y0007761D01*
X0079441Y0005334D01*
X0080048Y0004727D01*
X0081261Y0004727D01*
X0081868Y0005334D01*
D11*
X0002849Y0001800D02*
X0199700Y0001800D01*
X0199700Y0198650D01*
X0002849Y0198650D01*
X0002849Y0001800D01*
X0064365Y0169300D02*
X0064367Y0169362D01*
X0064373Y0169425D01*
X0064383Y0169486D01*
X0064397Y0169547D01*
X0064414Y0169607D01*
X0064435Y0169666D01*
X0064461Y0169723D01*
X0064489Y0169778D01*
X0064521Y0169832D01*
X0064557Y0169883D01*
X0064595Y0169933D01*
X0064637Y0169979D01*
X0064681Y0170023D01*
X0064729Y0170064D01*
X0064778Y0170102D01*
X0064830Y0170136D01*
X0064884Y0170167D01*
X0064940Y0170195D01*
X0064998Y0170219D01*
X0065057Y0170240D01*
X0065117Y0170256D01*
X0065178Y0170269D01*
X0065240Y0170278D01*
X0065302Y0170283D01*
X0065365Y0170284D01*
X0065427Y0170281D01*
X0065489Y0170274D01*
X0065551Y0170263D01*
X0065611Y0170248D01*
X0065671Y0170230D01*
X0065729Y0170208D01*
X0065786Y0170182D01*
X0065841Y0170152D01*
X0065894Y0170119D01*
X0065945Y0170083D01*
X0065993Y0170044D01*
X0066039Y0170001D01*
X0066082Y0169956D01*
X0066122Y0169908D01*
X0066159Y0169858D01*
X0066193Y0169805D01*
X0066224Y0169751D01*
X0066250Y0169695D01*
X0066274Y0169637D01*
X0066293Y0169577D01*
X0066309Y0169517D01*
X0066321Y0169455D01*
X0066329Y0169394D01*
X0066333Y0169331D01*
X0066333Y0169269D01*
X0066329Y0169206D01*
X0066321Y0169145D01*
X0066309Y0169083D01*
X0066293Y0169023D01*
X0066274Y0168963D01*
X0066250Y0168905D01*
X0066224Y0168849D01*
X0066193Y0168795D01*
X0066159Y0168742D01*
X0066122Y0168692D01*
X0066082Y0168644D01*
X0066039Y0168599D01*
X0065993Y0168556D01*
X0065945Y0168517D01*
X0065894Y0168481D01*
X0065841Y0168448D01*
X0065786Y0168418D01*
X0065729Y0168392D01*
X0065671Y0168370D01*
X0065611Y0168352D01*
X0065551Y0168337D01*
X0065489Y0168326D01*
X0065427Y0168319D01*
X0065365Y0168316D01*
X0065302Y0168317D01*
X0065240Y0168322D01*
X0065178Y0168331D01*
X0065117Y0168344D01*
X0065057Y0168360D01*
X0064998Y0168381D01*
X0064940Y0168405D01*
X0064884Y0168433D01*
X0064830Y0168464D01*
X0064778Y0168498D01*
X0064729Y0168536D01*
X0064681Y0168577D01*
X0064637Y0168621D01*
X0064595Y0168667D01*
X0064557Y0168717D01*
X0064521Y0168768D01*
X0064489Y0168822D01*
X0064461Y0168877D01*
X0064435Y0168934D01*
X0064414Y0168993D01*
X0064397Y0169053D01*
X0064383Y0169114D01*
X0064373Y0169175D01*
X0064367Y0169238D01*
X0064365Y0169300D01*
X0126865Y0186800D02*
X0126867Y0186862D01*
X0126873Y0186925D01*
X0126883Y0186986D01*
X0126897Y0187047D01*
X0126914Y0187107D01*
X0126935Y0187166D01*
X0126961Y0187223D01*
X0126989Y0187278D01*
X0127021Y0187332D01*
X0127057Y0187383D01*
X0127095Y0187433D01*
X0127137Y0187479D01*
X0127181Y0187523D01*
X0127229Y0187564D01*
X0127278Y0187602D01*
X0127330Y0187636D01*
X0127384Y0187667D01*
X0127440Y0187695D01*
X0127498Y0187719D01*
X0127557Y0187740D01*
X0127617Y0187756D01*
X0127678Y0187769D01*
X0127740Y0187778D01*
X0127802Y0187783D01*
X0127865Y0187784D01*
X0127927Y0187781D01*
X0127989Y0187774D01*
X0128051Y0187763D01*
X0128111Y0187748D01*
X0128171Y0187730D01*
X0128229Y0187708D01*
X0128286Y0187682D01*
X0128341Y0187652D01*
X0128394Y0187619D01*
X0128445Y0187583D01*
X0128493Y0187544D01*
X0128539Y0187501D01*
X0128582Y0187456D01*
X0128622Y0187408D01*
X0128659Y0187358D01*
X0128693Y0187305D01*
X0128724Y0187251D01*
X0128750Y0187195D01*
X0128774Y0187137D01*
X0128793Y0187077D01*
X0128809Y0187017D01*
X0128821Y0186955D01*
X0128829Y0186894D01*
X0128833Y0186831D01*
X0128833Y0186769D01*
X0128829Y0186706D01*
X0128821Y0186645D01*
X0128809Y0186583D01*
X0128793Y0186523D01*
X0128774Y0186463D01*
X0128750Y0186405D01*
X0128724Y0186349D01*
X0128693Y0186295D01*
X0128659Y0186242D01*
X0128622Y0186192D01*
X0128582Y0186144D01*
X0128539Y0186099D01*
X0128493Y0186056D01*
X0128445Y0186017D01*
X0128394Y0185981D01*
X0128341Y0185948D01*
X0128286Y0185918D01*
X0128229Y0185892D01*
X0128171Y0185870D01*
X0128111Y0185852D01*
X0128051Y0185837D01*
X0127989Y0185826D01*
X0127927Y0185819D01*
X0127865Y0185816D01*
X0127802Y0185817D01*
X0127740Y0185822D01*
X0127678Y0185831D01*
X0127617Y0185844D01*
X0127557Y0185860D01*
X0127498Y0185881D01*
X0127440Y0185905D01*
X0127384Y0185933D01*
X0127330Y0185964D01*
X0127278Y0185998D01*
X0127229Y0186036D01*
X0127181Y0186077D01*
X0127137Y0186121D01*
X0127095Y0186167D01*
X0127057Y0186217D01*
X0127021Y0186268D01*
X0126989Y0186322D01*
X0126961Y0186377D01*
X0126935Y0186434D01*
X0126914Y0186493D01*
X0126897Y0186553D01*
X0126883Y0186614D01*
X0126873Y0186675D01*
X0126867Y0186738D01*
X0126865Y0186800D01*
X0130349Y0171800D02*
X0177849Y0171800D01*
X0181865Y0176800D02*
X0181867Y0176862D01*
X0181873Y0176925D01*
X0181883Y0176986D01*
X0181897Y0177047D01*
X0181914Y0177107D01*
X0181935Y0177166D01*
X0181961Y0177223D01*
X0181989Y0177278D01*
X0182021Y0177332D01*
X0182057Y0177383D01*
X0182095Y0177433D01*
X0182137Y0177479D01*
X0182181Y0177523D01*
X0182229Y0177564D01*
X0182278Y0177602D01*
X0182330Y0177636D01*
X0182384Y0177667D01*
X0182440Y0177695D01*
X0182498Y0177719D01*
X0182557Y0177740D01*
X0182617Y0177756D01*
X0182678Y0177769D01*
X0182740Y0177778D01*
X0182802Y0177783D01*
X0182865Y0177784D01*
X0182927Y0177781D01*
X0182989Y0177774D01*
X0183051Y0177763D01*
X0183111Y0177748D01*
X0183171Y0177730D01*
X0183229Y0177708D01*
X0183286Y0177682D01*
X0183341Y0177652D01*
X0183394Y0177619D01*
X0183445Y0177583D01*
X0183493Y0177544D01*
X0183539Y0177501D01*
X0183582Y0177456D01*
X0183622Y0177408D01*
X0183659Y0177358D01*
X0183693Y0177305D01*
X0183724Y0177251D01*
X0183750Y0177195D01*
X0183774Y0177137D01*
X0183793Y0177077D01*
X0183809Y0177017D01*
X0183821Y0176955D01*
X0183829Y0176894D01*
X0183833Y0176831D01*
X0183833Y0176769D01*
X0183829Y0176706D01*
X0183821Y0176645D01*
X0183809Y0176583D01*
X0183793Y0176523D01*
X0183774Y0176463D01*
X0183750Y0176405D01*
X0183724Y0176349D01*
X0183693Y0176295D01*
X0183659Y0176242D01*
X0183622Y0176192D01*
X0183582Y0176144D01*
X0183539Y0176099D01*
X0183493Y0176056D01*
X0183445Y0176017D01*
X0183394Y0175981D01*
X0183341Y0175948D01*
X0183286Y0175918D01*
X0183229Y0175892D01*
X0183171Y0175870D01*
X0183111Y0175852D01*
X0183051Y0175837D01*
X0182989Y0175826D01*
X0182927Y0175819D01*
X0182865Y0175816D01*
X0182802Y0175817D01*
X0182740Y0175822D01*
X0182678Y0175831D01*
X0182617Y0175844D01*
X0182557Y0175860D01*
X0182498Y0175881D01*
X0182440Y0175905D01*
X0182384Y0175933D01*
X0182330Y0175964D01*
X0182278Y0175998D01*
X0182229Y0176036D01*
X0182181Y0176077D01*
X0182137Y0176121D01*
X0182095Y0176167D01*
X0182057Y0176217D01*
X0182021Y0176268D01*
X0181989Y0176322D01*
X0181961Y0176377D01*
X0181935Y0176434D01*
X0181914Y0176493D01*
X0181897Y0176553D01*
X0181883Y0176614D01*
X0181873Y0176675D01*
X0181867Y0176738D01*
X0181865Y0176800D01*
D12*
X0121668Y0101682D02*
X0121670Y0101830D01*
X0121676Y0101978D01*
X0121686Y0102126D01*
X0121700Y0102273D01*
X0121718Y0102420D01*
X0121739Y0102566D01*
X0121765Y0102712D01*
X0121795Y0102857D01*
X0121828Y0103001D01*
X0121866Y0103144D01*
X0121907Y0103286D01*
X0121952Y0103427D01*
X0122000Y0103567D01*
X0122053Y0103706D01*
X0122109Y0103843D01*
X0122169Y0103978D01*
X0122232Y0104112D01*
X0122299Y0104244D01*
X0122370Y0104374D01*
X0122444Y0104502D01*
X0122521Y0104628D01*
X0122602Y0104752D01*
X0122686Y0104874D01*
X0122773Y0104993D01*
X0122864Y0105110D01*
X0122958Y0105225D01*
X0123054Y0105337D01*
X0123154Y0105447D01*
X0123256Y0105553D01*
X0123362Y0105657D01*
X0123470Y0105758D01*
X0123581Y0105856D01*
X0123694Y0105952D01*
X0123810Y0106044D01*
X0123928Y0106133D01*
X0124049Y0106218D01*
X0124172Y0106301D01*
X0124297Y0106380D01*
X0124424Y0106456D01*
X0124553Y0106528D01*
X0124684Y0106597D01*
X0124817Y0106662D01*
X0124952Y0106723D01*
X0125088Y0106781D01*
X0125225Y0106836D01*
X0125364Y0106886D01*
X0125505Y0106933D01*
X0125646Y0106976D01*
X0125789Y0107016D01*
X0125933Y0107051D01*
X0126077Y0107083D01*
X0126223Y0107110D01*
X0126369Y0107134D01*
X0126516Y0107154D01*
X0126663Y0107170D01*
X0126810Y0107182D01*
X0126958Y0107190D01*
X0127106Y0107194D01*
X0127254Y0107194D01*
X0127402Y0107190D01*
X0127550Y0107182D01*
X0127697Y0107170D01*
X0127844Y0107154D01*
X0127991Y0107134D01*
X0128137Y0107110D01*
X0128283Y0107083D01*
X0128427Y0107051D01*
X0128571Y0107016D01*
X0128714Y0106976D01*
X0128855Y0106933D01*
X0128996Y0106886D01*
X0129135Y0106836D01*
X0129272Y0106781D01*
X0129408Y0106723D01*
X0129543Y0106662D01*
X0129676Y0106597D01*
X0129807Y0106528D01*
X0129936Y0106456D01*
X0130063Y0106380D01*
X0130188Y0106301D01*
X0130311Y0106218D01*
X0130432Y0106133D01*
X0130550Y0106044D01*
X0130666Y0105952D01*
X0130779Y0105856D01*
X0130890Y0105758D01*
X0130998Y0105657D01*
X0131104Y0105553D01*
X0131206Y0105447D01*
X0131306Y0105337D01*
X0131402Y0105225D01*
X0131496Y0105110D01*
X0131587Y0104993D01*
X0131674Y0104874D01*
X0131758Y0104752D01*
X0131839Y0104628D01*
X0131916Y0104502D01*
X0131990Y0104374D01*
X0132061Y0104244D01*
X0132128Y0104112D01*
X0132191Y0103978D01*
X0132251Y0103843D01*
X0132307Y0103706D01*
X0132360Y0103567D01*
X0132408Y0103427D01*
X0132453Y0103286D01*
X0132494Y0103144D01*
X0132532Y0103001D01*
X0132565Y0102857D01*
X0132595Y0102712D01*
X0132621Y0102566D01*
X0132642Y0102420D01*
X0132660Y0102273D01*
X0132674Y0102126D01*
X0132684Y0101978D01*
X0132690Y0101830D01*
X0132692Y0101682D01*
X0132690Y0101534D01*
X0132684Y0101386D01*
X0132674Y0101238D01*
X0132660Y0101091D01*
X0132642Y0100944D01*
X0132621Y0100798D01*
X0132595Y0100652D01*
X0132565Y0100507D01*
X0132532Y0100363D01*
X0132494Y0100220D01*
X0132453Y0100078D01*
X0132408Y0099937D01*
X0132360Y0099797D01*
X0132307Y0099658D01*
X0132251Y0099521D01*
X0132191Y0099386D01*
X0132128Y0099252D01*
X0132061Y0099120D01*
X0131990Y0098990D01*
X0131916Y0098862D01*
X0131839Y0098736D01*
X0131758Y0098612D01*
X0131674Y0098490D01*
X0131587Y0098371D01*
X0131496Y0098254D01*
X0131402Y0098139D01*
X0131306Y0098027D01*
X0131206Y0097917D01*
X0131104Y0097811D01*
X0130998Y0097707D01*
X0130890Y0097606D01*
X0130779Y0097508D01*
X0130666Y0097412D01*
X0130550Y0097320D01*
X0130432Y0097231D01*
X0130311Y0097146D01*
X0130188Y0097063D01*
X0130063Y0096984D01*
X0129936Y0096908D01*
X0129807Y0096836D01*
X0129676Y0096767D01*
X0129543Y0096702D01*
X0129408Y0096641D01*
X0129272Y0096583D01*
X0129135Y0096528D01*
X0128996Y0096478D01*
X0128855Y0096431D01*
X0128714Y0096388D01*
X0128571Y0096348D01*
X0128427Y0096313D01*
X0128283Y0096281D01*
X0128137Y0096254D01*
X0127991Y0096230D01*
X0127844Y0096210D01*
X0127697Y0096194D01*
X0127550Y0096182D01*
X0127402Y0096174D01*
X0127254Y0096170D01*
X0127106Y0096170D01*
X0126958Y0096174D01*
X0126810Y0096182D01*
X0126663Y0096194D01*
X0126516Y0096210D01*
X0126369Y0096230D01*
X0126223Y0096254D01*
X0126077Y0096281D01*
X0125933Y0096313D01*
X0125789Y0096348D01*
X0125646Y0096388D01*
X0125505Y0096431D01*
X0125364Y0096478D01*
X0125225Y0096528D01*
X0125088Y0096583D01*
X0124952Y0096641D01*
X0124817Y0096702D01*
X0124684Y0096767D01*
X0124553Y0096836D01*
X0124424Y0096908D01*
X0124297Y0096984D01*
X0124172Y0097063D01*
X0124049Y0097146D01*
X0123928Y0097231D01*
X0123810Y0097320D01*
X0123694Y0097412D01*
X0123581Y0097508D01*
X0123470Y0097606D01*
X0123362Y0097707D01*
X0123256Y0097811D01*
X0123154Y0097917D01*
X0123054Y0098027D01*
X0122958Y0098139D01*
X0122864Y0098254D01*
X0122773Y0098371D01*
X0122686Y0098490D01*
X0122602Y0098612D01*
X0122521Y0098736D01*
X0122444Y0098862D01*
X0122370Y0098990D01*
X0122299Y0099120D01*
X0122232Y0099252D01*
X0122169Y0099386D01*
X0122109Y0099521D01*
X0122053Y0099658D01*
X0122000Y0099797D01*
X0121952Y0099937D01*
X0121907Y0100078D01*
X0121866Y0100220D01*
X0121828Y0100363D01*
X0121795Y0100507D01*
X0121765Y0100652D01*
X0121739Y0100798D01*
X0121718Y0100944D01*
X0121700Y0101091D01*
X0121686Y0101238D01*
X0121676Y0101386D01*
X0121670Y0101534D01*
X0121668Y0101682D01*
D13*
X0096334Y0075844D02*
X0149483Y0022694D01*
X0127928Y0033226D02*
X0127930Y0033300D01*
X0127936Y0033374D01*
X0127946Y0033447D01*
X0127960Y0033520D01*
X0127977Y0033592D01*
X0127999Y0033662D01*
X0128024Y0033732D01*
X0128053Y0033800D01*
X0128086Y0033866D01*
X0128122Y0033931D01*
X0128162Y0033993D01*
X0128204Y0034054D01*
X0128250Y0034112D01*
X0128299Y0034167D01*
X0128351Y0034220D01*
X0128406Y0034270D01*
X0128463Y0034316D01*
X0128523Y0034360D01*
X0128585Y0034400D01*
X0128649Y0034437D01*
X0128715Y0034471D01*
X0128783Y0034501D01*
X0128852Y0034527D01*
X0128923Y0034550D01*
X0128994Y0034568D01*
X0129067Y0034583D01*
X0129140Y0034594D01*
X0129214Y0034601D01*
X0129288Y0034604D01*
X0129361Y0034603D01*
X0129435Y0034598D01*
X0129509Y0034589D01*
X0129582Y0034576D01*
X0129654Y0034559D01*
X0129725Y0034539D01*
X0129795Y0034514D01*
X0129863Y0034486D01*
X0129930Y0034455D01*
X0129995Y0034419D01*
X0130058Y0034381D01*
X0130119Y0034339D01*
X0130178Y0034293D01*
X0130234Y0034245D01*
X0130287Y0034194D01*
X0130337Y0034140D01*
X0130385Y0034083D01*
X0130429Y0034024D01*
X0130471Y0033962D01*
X0130509Y0033899D01*
X0130543Y0033833D01*
X0130574Y0033766D01*
X0130601Y0033697D01*
X0130624Y0033627D01*
X0130644Y0033556D01*
X0130660Y0033483D01*
X0130672Y0033410D01*
X0130680Y0033337D01*
X0130684Y0033263D01*
X0130684Y0033189D01*
X0130680Y0033115D01*
X0130672Y0033042D01*
X0130660Y0032969D01*
X0130644Y0032896D01*
X0130624Y0032825D01*
X0130601Y0032755D01*
X0130574Y0032686D01*
X0130543Y0032619D01*
X0130509Y0032553D01*
X0130471Y0032490D01*
X0130429Y0032428D01*
X0130385Y0032369D01*
X0130337Y0032312D01*
X0130287Y0032258D01*
X0130234Y0032207D01*
X0130178Y0032159D01*
X0130119Y0032113D01*
X0130058Y0032071D01*
X0129995Y0032033D01*
X0129930Y0031997D01*
X0129863Y0031966D01*
X0129795Y0031938D01*
X0129725Y0031913D01*
X0129654Y0031893D01*
X0129582Y0031876D01*
X0129509Y0031863D01*
X0129435Y0031854D01*
X0129361Y0031849D01*
X0129288Y0031848D01*
X0129214Y0031851D01*
X0129140Y0031858D01*
X0129067Y0031869D01*
X0128994Y0031884D01*
X0128923Y0031902D01*
X0128852Y0031925D01*
X0128783Y0031951D01*
X0128715Y0031981D01*
X0128649Y0032015D01*
X0128585Y0032052D01*
X0128523Y0032092D01*
X0128463Y0032136D01*
X0128406Y0032182D01*
X0128351Y0032232D01*
X0128299Y0032285D01*
X0128250Y0032340D01*
X0128204Y0032398D01*
X0128162Y0032459D01*
X0128122Y0032521D01*
X0128086Y0032586D01*
X0128053Y0032652D01*
X0128024Y0032720D01*
X0127999Y0032790D01*
X0127977Y0032860D01*
X0127960Y0032932D01*
X0127946Y0033005D01*
X0127936Y0033078D01*
X0127930Y0033152D01*
X0127928Y0033226D01*
X0126649Y0032930D02*
X0116708Y0032832D01*
X0116412Y0032635D02*
X0116412Y0031356D01*
X0116414Y0031310D01*
X0116419Y0031264D01*
X0116428Y0031218D01*
X0116441Y0031173D01*
X0116457Y0031130D01*
X0116476Y0031088D01*
X0116499Y0031047D01*
X0116525Y0031009D01*
X0116554Y0030972D01*
X0116585Y0030938D01*
X0116619Y0030907D01*
X0116656Y0030878D01*
X0116694Y0030852D01*
X0116735Y0030829D01*
X0116777Y0030810D01*
X0116820Y0030794D01*
X0116865Y0030781D01*
X0116911Y0030772D01*
X0116957Y0030767D01*
X0117003Y0030765D01*
X0117200Y0030765D01*
X0117243Y0030767D01*
X0117285Y0030772D01*
X0117327Y0030782D01*
X0117368Y0030795D01*
X0117408Y0030811D01*
X0117446Y0030831D01*
X0117482Y0030854D01*
X0117516Y0030880D01*
X0117548Y0030909D01*
X0117577Y0030941D01*
X0117603Y0030975D01*
X0117626Y0031011D01*
X0117646Y0031049D01*
X0117662Y0031089D01*
X0117675Y0031130D01*
X0117685Y0031172D01*
X0117690Y0031214D01*
X0117692Y0031257D01*
X0117692Y0032635D01*
X0116117Y0032930D02*
X0116060Y0032938D01*
X0116003Y0032949D01*
X0115948Y0032964D01*
X0115894Y0032982D01*
X0115841Y0033004D01*
X0115789Y0033030D01*
X0115739Y0033058D01*
X0115692Y0033090D01*
X0115646Y0033125D01*
X0115603Y0033163D01*
X0115562Y0033204D01*
X0115524Y0033247D01*
X0115489Y0033293D01*
X0115457Y0033340D01*
X0115429Y0033390D01*
X0115403Y0033442D01*
X0115381Y0033495D01*
X0115363Y0033549D01*
X0115348Y0033604D01*
X0115337Y0033661D01*
X0115329Y0033718D01*
X0115330Y0033718D02*
X0112475Y0062655D01*
X0112672Y0062753D02*
X0111098Y0062753D01*
X0111072Y0062755D01*
X0111047Y0062760D01*
X0111023Y0062768D01*
X0111000Y0062779D01*
X0110978Y0062794D01*
X0110959Y0062811D01*
X0110942Y0062830D01*
X0110927Y0062852D01*
X0110916Y0062875D01*
X0110908Y0062899D01*
X0110903Y0062924D01*
X0110901Y0062950D01*
X0110901Y0063245D01*
X0110901Y0063442D01*
X0110903Y0063475D01*
X0110908Y0063508D01*
X0110918Y0063539D01*
X0110930Y0063570D01*
X0110946Y0063599D01*
X0110965Y0063626D01*
X0110987Y0063651D01*
X0111012Y0063673D01*
X0111039Y0063692D01*
X0111068Y0063708D01*
X0111099Y0063720D01*
X0111130Y0063730D01*
X0111163Y0063735D01*
X0111196Y0063737D01*
X0111294Y0063737D01*
X0111393Y0063737D01*
X0134818Y0063737D01*
X0134818Y0063639D01*
X0134816Y0063581D01*
X0134810Y0063523D01*
X0134801Y0063466D01*
X0134788Y0063410D01*
X0134771Y0063354D01*
X0134751Y0063300D01*
X0134727Y0063247D01*
X0134699Y0063196D01*
X0134669Y0063147D01*
X0134635Y0063100D01*
X0134598Y0063055D01*
X0134558Y0063013D01*
X0134516Y0062973D01*
X0134471Y0062936D01*
X0134424Y0062902D01*
X0134375Y0062872D01*
X0134324Y0062844D01*
X0134271Y0062820D01*
X0134217Y0062800D01*
X0134161Y0062783D01*
X0134105Y0062770D01*
X0134048Y0062761D01*
X0133990Y0062755D01*
X0133932Y0062753D01*
X0129208Y0062753D01*
X0121137Y0062753D01*
X0112672Y0062753D01*
X0112574Y0064033D02*
X0132948Y0064033D01*
X0133243Y0064033D02*
X0133254Y0064076D01*
X0133262Y0064119D01*
X0133266Y0064163D01*
X0133267Y0064208D01*
X0133264Y0064252D01*
X0133257Y0064295D01*
X0133246Y0064338D01*
X0133232Y0064380D01*
X0133215Y0064421D01*
X0133194Y0064460D01*
X0133170Y0064497D01*
X0133143Y0064533D01*
X0133113Y0064565D01*
X0133081Y0064596D01*
X0133046Y0064623D01*
X0132751Y0063737D02*
X0132753Y0063799D01*
X0132759Y0063862D01*
X0132769Y0063923D01*
X0132783Y0063984D01*
X0132800Y0064044D01*
X0132821Y0064103D01*
X0132847Y0064160D01*
X0132875Y0064215D01*
X0132907Y0064269D01*
X0132943Y0064320D01*
X0132981Y0064370D01*
X0133023Y0064416D01*
X0133067Y0064460D01*
X0133115Y0064501D01*
X0133164Y0064539D01*
X0133216Y0064573D01*
X0133270Y0064604D01*
X0133326Y0064632D01*
X0133384Y0064656D01*
X0133443Y0064677D01*
X0133503Y0064693D01*
X0133564Y0064706D01*
X0133626Y0064715D01*
X0133688Y0064720D01*
X0133751Y0064721D01*
X0133813Y0064718D01*
X0133875Y0064711D01*
X0133937Y0064700D01*
X0133997Y0064685D01*
X0134057Y0064667D01*
X0134115Y0064645D01*
X0134172Y0064619D01*
X0134227Y0064589D01*
X0134280Y0064556D01*
X0134331Y0064520D01*
X0134379Y0064481D01*
X0134425Y0064438D01*
X0134468Y0064393D01*
X0134508Y0064345D01*
X0134545Y0064295D01*
X0134579Y0064242D01*
X0134610Y0064188D01*
X0134636Y0064132D01*
X0134660Y0064074D01*
X0134679Y0064014D01*
X0134695Y0063954D01*
X0134707Y0063892D01*
X0134715Y0063831D01*
X0134719Y0063768D01*
X0134719Y0063706D01*
X0134715Y0063643D01*
X0134707Y0063582D01*
X0134695Y0063520D01*
X0134679Y0063460D01*
X0134660Y0063400D01*
X0134636Y0063342D01*
X0134610Y0063286D01*
X0134579Y0063232D01*
X0134545Y0063179D01*
X0134508Y0063129D01*
X0134468Y0063081D01*
X0134425Y0063036D01*
X0134379Y0062993D01*
X0134331Y0062954D01*
X0134280Y0062918D01*
X0134227Y0062885D01*
X0134172Y0062855D01*
X0134115Y0062829D01*
X0134057Y0062807D01*
X0133997Y0062789D01*
X0133937Y0062774D01*
X0133875Y0062763D01*
X0133813Y0062756D01*
X0133751Y0062753D01*
X0133688Y0062754D01*
X0133626Y0062759D01*
X0133564Y0062768D01*
X0133503Y0062781D01*
X0133443Y0062797D01*
X0133384Y0062818D01*
X0133326Y0062842D01*
X0133270Y0062870D01*
X0133216Y0062901D01*
X0133164Y0062935D01*
X0133115Y0062973D01*
X0133067Y0063014D01*
X0133023Y0063058D01*
X0132981Y0063104D01*
X0132943Y0063154D01*
X0132907Y0063205D01*
X0132875Y0063259D01*
X0132847Y0063314D01*
X0132821Y0063371D01*
X0132800Y0063430D01*
X0132783Y0063490D01*
X0132769Y0063551D01*
X0132759Y0063612D01*
X0132753Y0063675D01*
X0132751Y0063737D01*
X0133047Y0064624D02*
X0132978Y0064671D01*
X0132908Y0064715D01*
X0132837Y0064757D01*
X0132763Y0064795D01*
X0132688Y0064831D01*
X0132612Y0064863D01*
X0132535Y0064893D01*
X0132456Y0064919D01*
X0133342Y0062655D02*
X0130586Y0035489D01*
X0126747Y0033226D02*
X0126749Y0033327D01*
X0126755Y0033428D01*
X0126765Y0033529D01*
X0126779Y0033629D01*
X0126797Y0033728D01*
X0126819Y0033827D01*
X0126844Y0033925D01*
X0126874Y0034022D01*
X0126907Y0034117D01*
X0126944Y0034211D01*
X0126985Y0034304D01*
X0127029Y0034395D01*
X0127077Y0034484D01*
X0127129Y0034571D01*
X0127184Y0034656D01*
X0127242Y0034738D01*
X0127303Y0034819D01*
X0127368Y0034897D01*
X0127435Y0034972D01*
X0127505Y0035044D01*
X0127579Y0035114D01*
X0127655Y0035181D01*
X0127733Y0035245D01*
X0127814Y0035305D01*
X0127897Y0035362D01*
X0127983Y0035416D01*
X0128071Y0035467D01*
X0128160Y0035514D01*
X0128251Y0035558D01*
X0128344Y0035597D01*
X0128439Y0035634D01*
X0128534Y0035666D01*
X0128631Y0035695D01*
X0128730Y0035719D01*
X0128828Y0035740D01*
X0128928Y0035757D01*
X0129028Y0035770D01*
X0129129Y0035779D01*
X0129230Y0035784D01*
X0129331Y0035785D01*
X0129432Y0035782D01*
X0129533Y0035775D01*
X0129634Y0035764D01*
X0129734Y0035749D01*
X0129833Y0035730D01*
X0129932Y0035707D01*
X0130029Y0035681D01*
X0130126Y0035650D01*
X0130221Y0035616D01*
X0130314Y0035578D01*
X0130407Y0035536D01*
X0130497Y0035491D01*
X0130586Y0035442D01*
X0130672Y0035390D01*
X0130756Y0035334D01*
X0130839Y0035275D01*
X0130918Y0035213D01*
X0130996Y0035148D01*
X0131070Y0035080D01*
X0131142Y0035008D01*
X0131211Y0034935D01*
X0131277Y0034858D01*
X0131340Y0034779D01*
X0131400Y0034697D01*
X0131456Y0034613D01*
X0131509Y0034527D01*
X0131559Y0034439D01*
X0131605Y0034349D01*
X0131648Y0034258D01*
X0131687Y0034164D01*
X0131722Y0034069D01*
X0131753Y0033973D01*
X0131781Y0033876D01*
X0131805Y0033778D01*
X0131825Y0033679D01*
X0131841Y0033579D01*
X0131853Y0033478D01*
X0131861Y0033378D01*
X0131865Y0033277D01*
X0131865Y0033175D01*
X0131861Y0033074D01*
X0131853Y0032974D01*
X0131841Y0032873D01*
X0131825Y0032773D01*
X0131805Y0032674D01*
X0131781Y0032576D01*
X0131753Y0032479D01*
X0131722Y0032383D01*
X0131687Y0032288D01*
X0131648Y0032194D01*
X0131605Y0032103D01*
X0131559Y0032013D01*
X0131509Y0031925D01*
X0131456Y0031839D01*
X0131400Y0031755D01*
X0131340Y0031673D01*
X0131277Y0031594D01*
X0131211Y0031517D01*
X0131142Y0031444D01*
X0131070Y0031372D01*
X0130996Y0031304D01*
X0130918Y0031239D01*
X0130839Y0031177D01*
X0130756Y0031118D01*
X0130672Y0031062D01*
X0130585Y0031010D01*
X0130497Y0030961D01*
X0130407Y0030916D01*
X0130314Y0030874D01*
X0130221Y0030836D01*
X0130126Y0030802D01*
X0130029Y0030771D01*
X0129932Y0030745D01*
X0129833Y0030722D01*
X0129734Y0030703D01*
X0129634Y0030688D01*
X0129533Y0030677D01*
X0129432Y0030670D01*
X0129331Y0030667D01*
X0129230Y0030668D01*
X0129129Y0030673D01*
X0129028Y0030682D01*
X0128928Y0030695D01*
X0128828Y0030712D01*
X0128730Y0030733D01*
X0128631Y0030757D01*
X0128534Y0030786D01*
X0128439Y0030818D01*
X0128344Y0030855D01*
X0128251Y0030894D01*
X0128160Y0030938D01*
X0128071Y0030985D01*
X0127983Y0031036D01*
X0127897Y0031090D01*
X0127814Y0031147D01*
X0127733Y0031207D01*
X0127655Y0031271D01*
X0127579Y0031338D01*
X0127505Y0031408D01*
X0127435Y0031480D01*
X0127368Y0031555D01*
X0127303Y0031633D01*
X0127242Y0031714D01*
X0127184Y0031796D01*
X0127129Y0031881D01*
X0127077Y0031968D01*
X0127029Y0032057D01*
X0126985Y0032148D01*
X0126944Y0032241D01*
X0126907Y0032335D01*
X0126874Y0032430D01*
X0126844Y0032527D01*
X0126819Y0032625D01*
X0126797Y0032724D01*
X0126779Y0032823D01*
X0126765Y0032923D01*
X0126755Y0033024D01*
X0126749Y0033125D01*
X0126747Y0033226D01*
X0130487Y0065411D02*
X0129950Y0065507D01*
X0129411Y0065591D01*
X0128870Y0065663D01*
X0128328Y0065723D01*
X0127784Y0065770D01*
X0127239Y0065805D01*
X0127239Y0065804D02*
X0125369Y0065903D01*
X0125271Y0066198D02*
X0125271Y0065411D01*
X0120743Y0065411D01*
X0120743Y0066198D01*
X0125271Y0066198D01*
X0120743Y0065903D02*
X0120251Y0065903D01*
X0114642Y0065804D02*
X0114634Y0065706D01*
X0114629Y0065608D01*
X0114627Y0065509D01*
X0114629Y0065410D01*
X0114634Y0065312D01*
X0114642Y0065214D01*
X0114641Y0065214D02*
X0114739Y0064230D01*
X0112968Y0065018D02*
X0112917Y0064992D01*
X0112868Y0064964D01*
X0112821Y0064932D01*
X0112777Y0064897D01*
X0112734Y0064860D01*
X0112694Y0064820D01*
X0112657Y0064777D01*
X0112622Y0064732D01*
X0112591Y0064685D01*
X0112562Y0064637D01*
X0112537Y0064586D01*
X0112515Y0064534D01*
X0112496Y0064480D01*
X0112481Y0064426D01*
X0112469Y0064370D01*
X0112461Y0064314D01*
X0112457Y0064258D01*
X0112456Y0064201D01*
X0112459Y0064145D01*
X0112465Y0064089D01*
X0112475Y0064033D01*
X0111393Y0063737D02*
X0111294Y0063737D01*
X0115133Y0064328D02*
X0115148Y0064491D01*
X0115159Y0064655D01*
X0115166Y0064820D01*
X0115170Y0064984D01*
X0115170Y0065148D01*
X0115166Y0065312D01*
X0115159Y0065477D01*
X0115148Y0065641D01*
X0115133Y0065804D01*
X0115133Y0065805D02*
X0115128Y0065835D01*
X0115119Y0065864D01*
X0115107Y0065891D01*
X0115092Y0065918D01*
X0115074Y0065942D01*
X0115053Y0065963D01*
X0115029Y0065982D01*
X0115003Y0065998D01*
X0114976Y0066010D01*
X0114947Y0066020D01*
X0114917Y0066025D01*
X0114887Y0066027D01*
X0114857Y0066025D01*
X0114827Y0066020D01*
X0114798Y0066010D01*
X0114771Y0065998D01*
X0114745Y0065982D01*
X0114721Y0065963D01*
X0114700Y0065942D01*
X0114682Y0065918D01*
X0114667Y0065891D01*
X0114655Y0065864D01*
X0114646Y0065835D01*
X0114641Y0065805D01*
X0114149Y0065410D02*
X0114013Y0065380D01*
X0113879Y0065346D01*
X0113746Y0065309D01*
X0113613Y0065268D01*
X0113482Y0065224D01*
X0113351Y0065177D01*
X0113222Y0065127D01*
X0113094Y0065073D01*
X0112968Y0065017D01*
X0121235Y0055273D02*
X0121235Y0054978D01*
X0121235Y0054682D01*
X0121237Y0054636D01*
X0121242Y0054590D01*
X0121251Y0054544D01*
X0121264Y0054499D01*
X0121280Y0054456D01*
X0121299Y0054414D01*
X0121322Y0054373D01*
X0121348Y0054335D01*
X0121377Y0054298D01*
X0121408Y0054264D01*
X0121442Y0054233D01*
X0121479Y0054204D01*
X0121517Y0054178D01*
X0121558Y0054155D01*
X0121600Y0054136D01*
X0121643Y0054120D01*
X0121688Y0054107D01*
X0121734Y0054098D01*
X0121780Y0054093D01*
X0121826Y0054091D01*
X0121826Y0054092D02*
X0126452Y0054092D01*
X0126491Y0054094D01*
X0126529Y0054100D01*
X0126566Y0054109D01*
X0126603Y0054122D01*
X0126638Y0054139D01*
X0126671Y0054158D01*
X0126702Y0054181D01*
X0126731Y0054207D01*
X0126757Y0054236D01*
X0126780Y0054267D01*
X0126799Y0054300D01*
X0126816Y0054335D01*
X0126829Y0054372D01*
X0126838Y0054409D01*
X0126844Y0054447D01*
X0126846Y0054486D01*
X0126846Y0055174D01*
X0133145Y0058521D02*
X0133834Y0058521D01*
X0133896Y0058523D01*
X0133957Y0058529D01*
X0134018Y0058538D01*
X0134079Y0058552D01*
X0134138Y0058569D01*
X0134196Y0058590D01*
X0134253Y0058615D01*
X0134308Y0058643D01*
X0134361Y0058674D01*
X0134412Y0058709D01*
X0134461Y0058747D01*
X0134508Y0058788D01*
X0134551Y0058831D01*
X0134592Y0058878D01*
X0134630Y0058927D01*
X0134665Y0058978D01*
X0134696Y0059031D01*
X0134724Y0059086D01*
X0134749Y0059143D01*
X0134770Y0059201D01*
X0134787Y0059260D01*
X0134801Y0059321D01*
X0134810Y0059382D01*
X0134816Y0059443D01*
X0134818Y0059505D01*
X0134818Y0060096D01*
X0134816Y0060155D01*
X0134810Y0060214D01*
X0134801Y0060273D01*
X0134787Y0060330D01*
X0134770Y0060387D01*
X0134749Y0060443D01*
X0134724Y0060496D01*
X0134696Y0060549D01*
X0134665Y0060599D01*
X0134631Y0060647D01*
X0134593Y0060693D01*
X0134552Y0060736D01*
X0134509Y0060777D01*
X0134463Y0060814D01*
X0134415Y0060848D01*
X0134365Y0060880D01*
X0134312Y0060908D01*
X0134258Y0060932D01*
X0134203Y0060953D01*
X0134146Y0060970D01*
X0134088Y0060983D01*
X0134030Y0060993D01*
X0133971Y0060998D01*
X0133912Y0061000D01*
X0133852Y0060998D01*
X0133793Y0060992D01*
X0133735Y0060982D01*
X0133679Y0060972D01*
X0133623Y0060966D01*
X0133566Y0060962D01*
X0133510Y0060962D01*
X0133453Y0060966D01*
X0133397Y0060972D01*
X0133341Y0060982D01*
X0132456Y0064919D02*
X0132066Y0065035D01*
X0131675Y0065142D01*
X0131281Y0065241D01*
X0130885Y0065330D01*
X0130487Y0065411D01*
X0115330Y0065607D02*
X0115033Y0065568D01*
X0114737Y0065522D01*
X0114442Y0065470D01*
X0114149Y0065410D01*
X0116117Y0032930D02*
X0116237Y0032917D01*
X0116355Y0032900D01*
X0116473Y0032881D01*
X0116591Y0032858D01*
X0116708Y0032832D01*
X0115330Y0065608D02*
X0116311Y0065714D01*
X0117294Y0065797D01*
X0118279Y0065856D01*
X0119264Y0065891D01*
X0120251Y0065903D01*
X0149680Y0076041D02*
X0096137Y0022497D01*
D14*
X0072922Y0042395D02*
X0072922Y0044995D01*
X0069922Y0045595D01*
X0068822Y0048095D02*
X0070622Y0050695D01*
X0068722Y0052495D01*
X0066122Y0050695D01*
X0063622Y0051695D02*
X0063122Y0054895D01*
X0060422Y0054895D01*
X0059922Y0051695D01*
X0057422Y0050695D02*
X0054822Y0052495D01*
X0052922Y0050695D01*
X0054722Y0048095D01*
X0053622Y0045595D02*
X0050622Y0044995D01*
X0050622Y0042395D01*
X0053622Y0041895D01*
X0054622Y0039195D02*
X0053022Y0036795D01*
X0054822Y0034895D01*
X0057222Y0036595D01*
X0058222Y0035995D01*
X0060222Y0040495D01*
X0068922Y0039190D02*
X0069018Y0039356D01*
X0069111Y0039523D01*
X0069199Y0039693D01*
X0069283Y0039865D01*
X0069363Y0040038D01*
X0069439Y0040214D01*
X0069511Y0040391D01*
X0069578Y0040570D01*
X0069642Y0040751D01*
X0069701Y0040933D01*
X0069755Y0041116D01*
X0069806Y0041301D01*
X0069852Y0041486D01*
X0069893Y0041673D01*
X0069930Y0041861D01*
X0069922Y0041895D02*
X0072922Y0042395D01*
X0068922Y0039195D02*
X0070622Y0036795D01*
X0068722Y0034895D01*
X0066322Y0036595D01*
X0065322Y0035995D01*
X0063422Y0040495D01*
X0069912Y0045595D02*
X0069862Y0045783D01*
X0069807Y0045970D01*
X0069748Y0046156D01*
X0069684Y0046340D01*
X0069616Y0046523D01*
X0069543Y0046704D01*
X0069466Y0046883D01*
X0069385Y0047060D01*
X0069299Y0047236D01*
X0069210Y0047409D01*
X0069116Y0047580D01*
X0069018Y0047748D01*
X0068916Y0047915D01*
X0068811Y0048078D01*
X0063422Y0040595D02*
X0063529Y0040650D01*
X0063635Y0040707D01*
X0063738Y0040769D01*
X0063840Y0040833D01*
X0063939Y0040901D01*
X0064036Y0040972D01*
X0064131Y0041046D01*
X0064223Y0041123D01*
X0064313Y0041204D01*
X0064400Y0041287D01*
X0064484Y0041373D01*
X0064565Y0041461D01*
X0064643Y0041553D01*
X0064719Y0041647D01*
X0064791Y0041743D01*
X0064860Y0041841D01*
X0064926Y0041942D01*
X0064988Y0042045D01*
X0065047Y0042150D01*
X0065103Y0042256D01*
X0065155Y0042365D01*
X0065203Y0042475D01*
X0065248Y0042587D01*
X0065289Y0042700D01*
X0065326Y0042814D01*
X0065360Y0042930D01*
X0065389Y0043046D01*
X0065415Y0043164D01*
X0065437Y0043282D01*
X0065456Y0043401D01*
X0065470Y0043520D01*
X0065480Y0043640D01*
X0065487Y0043760D01*
X0065489Y0043881D01*
X0065487Y0044001D01*
X0065482Y0044121D01*
X0065473Y0044241D01*
X0065459Y0044361D01*
X0065442Y0044480D01*
X0065421Y0044598D01*
X0065396Y0044716D01*
X0065367Y0044833D01*
X0065334Y0044948D01*
X0065298Y0045063D01*
X0065258Y0045176D01*
X0065214Y0045288D01*
X0065166Y0045399D01*
X0065115Y0045508D01*
X0065061Y0045615D01*
X0065002Y0045720D01*
X0064941Y0045824D01*
X0064876Y0045925D01*
X0064808Y0046024D01*
X0064736Y0046121D01*
X0064662Y0046215D01*
X0064584Y0046307D01*
X0064504Y0046396D01*
X0064420Y0046483D01*
X0064334Y0046567D01*
X0064245Y0046648D01*
X0064153Y0046726D01*
X0064059Y0046801D01*
X0063963Y0046872D01*
X0063864Y0046941D01*
X0063763Y0047006D01*
X0063660Y0047068D01*
X0063555Y0047127D01*
X0063448Y0047182D01*
X0063339Y0047234D01*
X0063229Y0047281D01*
X0063117Y0047326D01*
X0063004Y0047366D01*
X0062889Y0047403D01*
X0062773Y0047436D01*
X0062657Y0047466D01*
X0062539Y0047491D01*
X0062421Y0047513D01*
X0062302Y0047530D01*
X0062182Y0047544D01*
X0062062Y0047554D01*
X0061942Y0047560D01*
X0061822Y0047562D01*
X0061702Y0047560D01*
X0061582Y0047554D01*
X0061462Y0047544D01*
X0061342Y0047530D01*
X0061223Y0047513D01*
X0061105Y0047491D01*
X0060987Y0047466D01*
X0060871Y0047436D01*
X0060755Y0047403D01*
X0060640Y0047366D01*
X0060527Y0047326D01*
X0060415Y0047281D01*
X0060305Y0047234D01*
X0060196Y0047182D01*
X0060089Y0047127D01*
X0059984Y0047068D01*
X0059881Y0047006D01*
X0059780Y0046941D01*
X0059681Y0046872D01*
X0059585Y0046801D01*
X0059491Y0046726D01*
X0059399Y0046648D01*
X0059310Y0046567D01*
X0059224Y0046483D01*
X0059140Y0046396D01*
X0059060Y0046307D01*
X0058982Y0046215D01*
X0058908Y0046121D01*
X0058836Y0046024D01*
X0058768Y0045925D01*
X0058703Y0045824D01*
X0058642Y0045720D01*
X0058583Y0045615D01*
X0058529Y0045508D01*
X0058478Y0045399D01*
X0058430Y0045288D01*
X0058386Y0045176D01*
X0058346Y0045063D01*
X0058310Y0044948D01*
X0058277Y0044833D01*
X0058248Y0044716D01*
X0058223Y0044598D01*
X0058202Y0044480D01*
X0058185Y0044361D01*
X0058171Y0044241D01*
X0058162Y0044121D01*
X0058157Y0044001D01*
X0058155Y0043881D01*
X0058157Y0043760D01*
X0058164Y0043640D01*
X0058174Y0043520D01*
X0058188Y0043401D01*
X0058207Y0043282D01*
X0058229Y0043164D01*
X0058255Y0043046D01*
X0058284Y0042930D01*
X0058318Y0042814D01*
X0058355Y0042700D01*
X0058396Y0042587D01*
X0058441Y0042475D01*
X0058489Y0042365D01*
X0058541Y0042256D01*
X0058597Y0042150D01*
X0058656Y0042045D01*
X0058718Y0041942D01*
X0058784Y0041841D01*
X0058853Y0041743D01*
X0058925Y0041647D01*
X0059001Y0041553D01*
X0059079Y0041461D01*
X0059160Y0041373D01*
X0059244Y0041287D01*
X0059331Y0041204D01*
X0059421Y0041123D01*
X0059513Y0041046D01*
X0059608Y0040972D01*
X0059705Y0040901D01*
X0059804Y0040833D01*
X0059906Y0040769D01*
X0060009Y0040707D01*
X0060115Y0040650D01*
X0060222Y0040595D01*
X0054655Y0039227D02*
X0054552Y0039403D01*
X0054453Y0039582D01*
X0054359Y0039763D01*
X0054269Y0039946D01*
X0054184Y0040132D01*
X0054103Y0040319D01*
X0054027Y0040509D01*
X0053956Y0040700D01*
X0053889Y0040893D01*
X0053828Y0041088D01*
X0053770Y0041284D01*
X0053718Y0041481D01*
X0053671Y0041679D01*
X0053628Y0041879D01*
X0057456Y0050731D02*
X0057628Y0050831D01*
X0057803Y0050928D01*
X0057979Y0051020D01*
X0058158Y0051108D01*
X0058339Y0051192D01*
X0058522Y0051271D01*
X0058706Y0051346D01*
X0058893Y0051417D01*
X0059081Y0051483D01*
X0059270Y0051544D01*
X0059461Y0051601D01*
X0059654Y0051654D01*
X0059847Y0051701D01*
X0054730Y0048041D02*
X0054630Y0047879D01*
X0054533Y0047714D01*
X0054440Y0047547D01*
X0054352Y0047378D01*
X0054267Y0047208D01*
X0054186Y0047035D01*
X0054109Y0046860D01*
X0054036Y0046684D01*
X0053967Y0046506D01*
X0053902Y0046326D01*
X0053841Y0046146D01*
X0053785Y0045963D01*
X0053732Y0045780D01*
X0053684Y0045595D01*
X0063675Y0051720D02*
X0063862Y0051675D01*
X0064048Y0051626D01*
X0064233Y0051572D01*
X0064416Y0051514D01*
X0064598Y0051452D01*
X0064779Y0051386D01*
X0064958Y0051316D01*
X0065135Y0051242D01*
X0065311Y0051163D01*
X0065484Y0051081D01*
X0065656Y0050994D01*
X0065826Y0050904D01*
X0065994Y0050810D01*
X0066159Y0050712D01*
D15*
X0024349Y0102800D02*
X0021849Y0101800D01*
X0013849Y0101800D01*
X0011349Y0102800D01*
X0011349Y0110800D01*
X0013849Y0111800D01*
X0011349Y0112800D01*
X0011349Y0120800D01*
X0013849Y0121800D01*
X0021849Y0121800D01*
X0024349Y0120800D01*
X0024349Y0112800D01*
X0021849Y0111800D01*
X0024349Y0110800D01*
X0024349Y0102800D01*
X0026412Y0172528D02*
X0023912Y0175028D01*
X0023912Y0190028D01*
X0026412Y0192528D01*
X0031412Y0192528D01*
X0033912Y0190028D01*
X0033912Y0175028D01*
X0031412Y0172528D01*
X0026412Y0172528D01*
X0033912Y0175028D02*
X0036412Y0172528D01*
X0041412Y0172528D01*
X0043912Y0175028D01*
X0043912Y0190028D01*
X0046412Y0192528D01*
X0051412Y0192528D01*
X0053912Y0190028D01*
X0053912Y0175028D01*
X0051412Y0172528D01*
X0046412Y0172528D01*
X0043912Y0175028D01*
X0053912Y0175028D02*
X0056412Y0172528D01*
X0061412Y0172528D01*
X0063912Y0175028D01*
X0063912Y0190028D01*
X0061412Y0192528D01*
X0056412Y0192528D01*
X0053912Y0190028D01*
X0043912Y0190028D02*
X0041412Y0192528D01*
X0036412Y0192528D01*
X0033912Y0190028D01*
X0063912Y0190028D02*
X0066412Y0192528D01*
X0071412Y0192528D01*
X0073912Y0190028D01*
X0073912Y0175028D01*
X0071412Y0172528D01*
X0066412Y0172528D01*
X0063912Y0175028D01*
X0073912Y0175028D02*
X0076412Y0172528D01*
X0081412Y0172528D01*
X0083912Y0175028D01*
X0083912Y0190028D01*
X0081412Y0192528D01*
X0076412Y0192528D01*
X0073912Y0190028D01*
X0083912Y0190028D02*
X0086412Y0192528D01*
X0091412Y0192528D01*
X0093912Y0190028D01*
X0093912Y0175028D01*
X0091412Y0172528D01*
X0086412Y0172528D01*
X0083912Y0175028D01*
X0093912Y0175028D02*
X0096412Y0172528D01*
X0101412Y0172528D01*
X0103912Y0175028D01*
X0103912Y0190028D01*
X0101412Y0192528D01*
X0096412Y0192528D01*
X0093912Y0190028D01*
X0103912Y0190028D02*
X0106412Y0192528D01*
X0111412Y0192528D01*
X0113912Y0190028D01*
X0113912Y0175028D01*
X0111412Y0172528D01*
X0106412Y0172528D01*
X0103912Y0175028D01*
X0113912Y0175028D02*
X0116412Y0172528D01*
X0121412Y0172528D01*
X0123912Y0175028D01*
X0123912Y0190028D01*
X0121412Y0192528D01*
X0116412Y0192528D01*
X0113912Y0190028D01*
X0189609Y0132954D02*
X0189609Y0130954D01*
X0189609Y0132954D02*
X0191609Y0132954D01*
X0196609Y0132954D02*
X0198609Y0132954D01*
X0198609Y0130954D01*
X0198609Y0125954D02*
X0198609Y0123954D01*
X0196609Y0123954D01*
X0191609Y0123954D02*
X0189609Y0123954D01*
X0189609Y0125954D01*
X0189609Y0082560D02*
X0189609Y0080560D01*
X0189609Y0082560D02*
X0191609Y0082560D01*
X0196609Y0082560D02*
X0198609Y0082560D01*
X0198609Y0080560D01*
X0198609Y0075560D02*
X0198609Y0073560D01*
X0196609Y0073560D01*
X0191609Y0073560D02*
X0189609Y0073560D01*
X0189609Y0075560D01*
D16*
X0191361Y0084560D02*
X0191361Y0087563D01*
X0192862Y0086062D02*
X0189859Y0086062D01*
X0189859Y0136455D02*
X0192862Y0136455D01*
D17*
X0053449Y0145109D02*
X0053449Y0148491D01*
X0048906Y0149991D02*
X0046793Y0149991D01*
X0042249Y0148491D02*
X0042249Y0145109D01*
M02*
