G75*
%MOIN*%
%OFA0B0*%
%FSLAX25Y25*%
%IPPOS*%
%LPD*%
%AMOC8*
5,1,8,0,0,1.08239X$1,22.5*
%
%ADD10C,0.01600*%
%ADD11C,0.00000*%
%ADD12OC8,0.08500*%
%ADD13R,0.06732X0.01575*%
%ADD14R,0.05748X0.07874*%
%ADD15R,0.09843X0.05413*%
%ADD16R,0.06000X0.06000*%
%ADD17OC8,0.06000*%
%ADD18R,0.04331X0.03937*%
%ADD19R,0.02165X0.04724*%
%ADD20C,0.05600*%
%ADD21C,0.16598*%
D10*
X0002849Y0001800D02*
X0199700Y0001800D01*
X0199700Y0198650D01*
X0002849Y0198650D01*
X0002849Y0001800D01*
X0005449Y0004400D02*
X0005449Y0126952D01*
X0010518Y0126952D01*
X0010541Y0126942D01*
X0010671Y0126942D01*
X0010795Y0126905D01*
X0011145Y0126942D01*
X0021614Y0126942D01*
X0022496Y0127308D01*
X0023172Y0127983D01*
X0023537Y0128865D01*
X0023537Y0129206D01*
X0025205Y0129206D01*
X0025205Y0134306D01*
X0026479Y0134306D01*
X0026479Y0129623D01*
X0020655Y0123800D01*
X0012772Y0123800D01*
X0011890Y0123435D01*
X0009090Y0120635D01*
X0008415Y0119959D01*
X0008049Y0119077D01*
X0008049Y0104523D01*
X0008415Y0103641D01*
X0011215Y0100841D01*
X0011890Y0100165D01*
X0012772Y0099800D01*
X0022927Y0099800D01*
X0023809Y0100165D01*
X0045409Y0121765D01*
X0046084Y0122441D01*
X0046412Y0123231D01*
X0047331Y0123231D01*
X0047708Y0123608D01*
X0047925Y0123391D01*
X0048336Y0123154D01*
X0048794Y0123031D01*
X0051012Y0123031D01*
X0051012Y0126616D01*
X0051380Y0126616D01*
X0051380Y0126984D01*
X0055161Y0126984D01*
X0055161Y0129005D01*
X0055039Y0129463D01*
X0054802Y0129874D01*
X0054467Y0130209D01*
X0054056Y0130446D01*
X0053598Y0130568D01*
X0051380Y0130568D01*
X0051380Y0126984D01*
X0051012Y0126984D01*
X0051012Y0130568D01*
X0048794Y0130568D01*
X0048336Y0130446D01*
X0047925Y0130209D01*
X0047708Y0129992D01*
X0047331Y0130368D01*
X0046849Y0130368D01*
X0046849Y0135000D01*
X0050127Y0135000D01*
X0051009Y0135365D01*
X0051684Y0136041D01*
X0053284Y0137641D01*
X0053317Y0137719D01*
X0053335Y0137719D01*
X0054272Y0138657D01*
X0054272Y0144706D01*
X0053335Y0145644D01*
X0049844Y0145644D01*
X0049814Y0145613D01*
X0049627Y0145721D01*
X0049169Y0145844D01*
X0047850Y0145844D01*
X0047850Y0141682D01*
X0047849Y0141682D01*
X0047849Y0145844D01*
X0046530Y0145844D01*
X0046072Y0145721D01*
X0045885Y0145613D01*
X0045855Y0145644D01*
X0045685Y0145644D01*
X0046049Y0146523D01*
X0046049Y0148151D01*
X0046792Y0148894D01*
X0046792Y0151495D01*
X0046794Y0151499D01*
X0046805Y0151615D01*
X0046849Y0151723D01*
X0046849Y0152087D01*
X0046884Y0152450D01*
X0046849Y0152561D01*
X0046849Y0160731D01*
X0047331Y0160731D01*
X0047708Y0161108D01*
X0047925Y0160891D01*
X0048336Y0160654D01*
X0048794Y0160531D01*
X0051012Y0160531D01*
X0051012Y0164116D01*
X0051380Y0164116D01*
X0051380Y0164484D01*
X0055161Y0164484D01*
X0055161Y0165800D01*
X0070255Y0165800D01*
X0089090Y0146965D01*
X0127062Y0108994D01*
X0125726Y0108994D01*
X0123038Y0107881D01*
X0120982Y0105824D01*
X0119868Y0103136D01*
X0119868Y0100227D01*
X0120982Y0097540D01*
X0123038Y0095483D01*
X0125726Y0094370D01*
X0128635Y0094370D01*
X0131322Y0095483D01*
X0133379Y0097540D01*
X0134492Y0100227D01*
X0134492Y0101563D01*
X0159215Y0076841D01*
X0159215Y0076841D01*
X0159890Y0076165D01*
X0160772Y0075800D01*
X0188259Y0075800D01*
X0188259Y0075637D01*
X0191686Y0072210D01*
X0196532Y0072210D01*
X0197100Y0072777D01*
X0197100Y0004400D01*
X0005449Y0004400D01*
X0005449Y0004997D02*
X0197100Y0004997D01*
X0197100Y0006596D02*
X0005449Y0006596D01*
X0005449Y0008194D02*
X0197100Y0008194D01*
X0197100Y0009793D02*
X0005449Y0009793D01*
X0005449Y0011391D02*
X0197100Y0011391D01*
X0197100Y0012990D02*
X0005449Y0012990D01*
X0005449Y0014588D02*
X0197100Y0014588D01*
X0197100Y0016187D02*
X0005449Y0016187D01*
X0005449Y0017785D02*
X0197100Y0017785D01*
X0197100Y0019384D02*
X0005449Y0019384D01*
X0005449Y0020982D02*
X0197100Y0020982D01*
X0197100Y0022581D02*
X0005449Y0022581D01*
X0005449Y0024179D02*
X0197100Y0024179D01*
X0197100Y0025778D02*
X0005449Y0025778D01*
X0005449Y0027376D02*
X0197100Y0027376D01*
X0197100Y0028975D02*
X0005449Y0028975D01*
X0005449Y0030573D02*
X0197100Y0030573D01*
X0197100Y0032172D02*
X0005449Y0032172D01*
X0005449Y0033770D02*
X0197100Y0033770D01*
X0197100Y0035369D02*
X0005449Y0035369D01*
X0005449Y0036967D02*
X0197100Y0036967D01*
X0197100Y0038566D02*
X0005449Y0038566D01*
X0005449Y0040164D02*
X0197100Y0040164D01*
X0197100Y0041763D02*
X0005449Y0041763D01*
X0005449Y0043361D02*
X0197100Y0043361D01*
X0197100Y0044960D02*
X0005449Y0044960D01*
X0005449Y0046558D02*
X0197100Y0046558D01*
X0197100Y0048157D02*
X0005449Y0048157D01*
X0005449Y0049755D02*
X0197100Y0049755D01*
X0197100Y0051354D02*
X0005449Y0051354D01*
X0005449Y0052952D02*
X0197100Y0052952D01*
X0197100Y0054551D02*
X0005449Y0054551D01*
X0005449Y0056149D02*
X0197100Y0056149D01*
X0197100Y0057748D02*
X0005449Y0057748D01*
X0005449Y0059346D02*
X0197100Y0059346D01*
X0197100Y0060945D02*
X0005449Y0060945D01*
X0005449Y0062543D02*
X0197100Y0062543D01*
X0197100Y0064142D02*
X0005449Y0064142D01*
X0005449Y0065740D02*
X0197100Y0065740D01*
X0197100Y0067339D02*
X0005449Y0067339D01*
X0005449Y0068937D02*
X0197100Y0068937D01*
X0197100Y0070536D02*
X0005449Y0070536D01*
X0005449Y0072134D02*
X0197100Y0072134D01*
X0194109Y0078060D02*
X0194049Y0078200D01*
X0161249Y0078200D01*
X0090449Y0149000D01*
X0118849Y0177400D01*
X0118912Y0177528D01*
X0122329Y0174439D02*
X0197100Y0174439D01*
X0197100Y0172841D02*
X0117684Y0172841D01*
X0117772Y0172928D02*
X0120818Y0172928D01*
X0123512Y0175623D01*
X0123512Y0179434D01*
X0120818Y0182128D01*
X0117007Y0182128D01*
X0114312Y0179434D01*
X0114312Y0176257D01*
X0090449Y0152394D01*
X0072609Y0170235D01*
X0071727Y0170600D01*
X0033172Y0170600D01*
X0032290Y0170235D01*
X0031615Y0169559D01*
X0031249Y0168677D01*
X0031249Y0142394D01*
X0030609Y0143035D01*
X0030296Y0143164D01*
X0030296Y0149862D01*
X0030373Y0149996D01*
X0030496Y0150454D01*
X0030496Y0151478D01*
X0025330Y0151478D01*
X0025330Y0151478D01*
X0030496Y0151478D01*
X0030496Y0152502D01*
X0030373Y0152960D01*
X0030330Y0153036D01*
X0030393Y0153145D01*
X0030516Y0153603D01*
X0030516Y0157140D01*
X0026479Y0157140D01*
X0026479Y0158414D01*
X0030516Y0158414D01*
X0030516Y0161951D01*
X0030393Y0162409D01*
X0030156Y0162820D01*
X0029821Y0163155D01*
X0029410Y0163392D01*
X0028953Y0163514D01*
X0026479Y0163514D01*
X0026479Y0158414D01*
X0025205Y0158414D01*
X0025205Y0163514D01*
X0023537Y0163514D01*
X0023537Y0163924D01*
X0023172Y0164806D01*
X0022496Y0165481D01*
X0021614Y0165847D01*
X0011503Y0165847D01*
X0011475Y0165858D01*
X0011126Y0165858D01*
X0010780Y0165896D01*
X0010653Y0165858D01*
X0005449Y0165858D01*
X0005449Y0181783D01*
X0005558Y0181674D01*
X0009197Y0180166D01*
X0013135Y0180166D01*
X0016773Y0181674D01*
X0019558Y0184458D01*
X0021065Y0188097D01*
X0021065Y0192035D01*
X0019558Y0195673D01*
X0019181Y0196050D01*
X0183151Y0196050D01*
X0182774Y0195673D01*
X0181267Y0192035D01*
X0181267Y0188097D01*
X0182774Y0184458D01*
X0185558Y0181674D01*
X0189197Y0180166D01*
X0193135Y0180166D01*
X0196773Y0181674D01*
X0197100Y0182000D01*
X0197100Y0134019D01*
X0196615Y0134504D01*
X0194309Y0134504D01*
X0194309Y0128654D01*
X0193909Y0128654D01*
X0193909Y0134504D01*
X0191603Y0134504D01*
X0188059Y0130960D01*
X0188059Y0128654D01*
X0193909Y0128654D01*
X0193909Y0128254D01*
X0188059Y0128254D01*
X0188059Y0125948D01*
X0191603Y0122404D01*
X0193909Y0122404D01*
X0193909Y0128253D01*
X0194309Y0128253D01*
X0194309Y0122404D01*
X0196615Y0122404D01*
X0197100Y0122888D01*
X0197100Y0083342D01*
X0196532Y0083910D01*
X0191686Y0083910D01*
X0188376Y0080600D01*
X0162244Y0080600D01*
X0093844Y0149000D01*
X0117772Y0172928D01*
X0116086Y0171242D02*
X0197100Y0171242D01*
X0197100Y0169644D02*
X0114487Y0169644D01*
X0112889Y0168045D02*
X0197100Y0168045D01*
X0197100Y0166447D02*
X0111290Y0166447D01*
X0109692Y0164848D02*
X0197100Y0164848D01*
X0197100Y0163250D02*
X0108093Y0163250D01*
X0106495Y0161651D02*
X0197100Y0161651D01*
X0197100Y0160053D02*
X0104896Y0160053D01*
X0103298Y0158454D02*
X0197100Y0158454D01*
X0197100Y0156856D02*
X0101699Y0156856D01*
X0100101Y0155257D02*
X0197100Y0155257D01*
X0197100Y0153659D02*
X0098502Y0153659D01*
X0096904Y0152060D02*
X0197100Y0152060D01*
X0197100Y0150462D02*
X0095305Y0150462D01*
X0093981Y0148863D02*
X0197100Y0148863D01*
X0197100Y0147265D02*
X0095579Y0147265D01*
X0097178Y0145666D02*
X0197100Y0145666D01*
X0197100Y0144068D02*
X0098776Y0144068D01*
X0100375Y0142469D02*
X0197100Y0142469D01*
X0197100Y0140870D02*
X0101973Y0140870D01*
X0103572Y0139272D02*
X0197100Y0139272D01*
X0197100Y0137673D02*
X0105170Y0137673D01*
X0106769Y0136075D02*
X0197100Y0136075D01*
X0197100Y0134476D02*
X0196642Y0134476D01*
X0194309Y0134476D02*
X0193909Y0134476D01*
X0193909Y0132878D02*
X0194309Y0132878D01*
X0194309Y0131279D02*
X0193909Y0131279D01*
X0193909Y0129681D02*
X0194309Y0129681D01*
X0194309Y0128082D02*
X0193909Y0128082D01*
X0193909Y0126484D02*
X0194309Y0126484D01*
X0194309Y0124885D02*
X0193909Y0124885D01*
X0193909Y0123287D02*
X0194309Y0123287D01*
X0197100Y0121688D02*
X0121155Y0121688D01*
X0122754Y0120090D02*
X0197100Y0120090D01*
X0197100Y0118491D02*
X0124352Y0118491D01*
X0125951Y0116893D02*
X0197100Y0116893D01*
X0197100Y0115294D02*
X0127549Y0115294D01*
X0129148Y0113696D02*
X0197100Y0113696D01*
X0197100Y0112097D02*
X0130746Y0112097D01*
X0132345Y0110499D02*
X0197100Y0110499D01*
X0197100Y0108900D02*
X0133943Y0108900D01*
X0135542Y0107302D02*
X0197100Y0107302D01*
X0197100Y0105703D02*
X0137140Y0105703D01*
X0138739Y0104105D02*
X0197100Y0104105D01*
X0197100Y0102506D02*
X0140337Y0102506D01*
X0141936Y0100908D02*
X0197100Y0100908D01*
X0197100Y0099309D02*
X0143534Y0099309D01*
X0145133Y0097711D02*
X0197100Y0097711D01*
X0197100Y0096112D02*
X0146731Y0096112D01*
X0148330Y0094514D02*
X0197100Y0094514D01*
X0197100Y0092915D02*
X0149928Y0092915D01*
X0151527Y0091317D02*
X0197100Y0091317D01*
X0197100Y0089718D02*
X0153125Y0089718D01*
X0154724Y0088120D02*
X0197100Y0088120D01*
X0197100Y0086521D02*
X0156322Y0086521D01*
X0157921Y0084923D02*
X0197100Y0084923D01*
X0191100Y0083324D02*
X0159520Y0083324D01*
X0161118Y0081726D02*
X0189502Y0081726D01*
X0188565Y0075332D02*
X0005449Y0075332D01*
X0005449Y0076930D02*
X0159125Y0076930D01*
X0157527Y0078529D02*
X0005449Y0078529D01*
X0005449Y0080127D02*
X0155928Y0080127D01*
X0154330Y0081726D02*
X0005449Y0081726D01*
X0005449Y0083324D02*
X0152731Y0083324D01*
X0151133Y0084923D02*
X0005449Y0084923D01*
X0005449Y0086521D02*
X0149534Y0086521D01*
X0147936Y0088120D02*
X0005449Y0088120D01*
X0005449Y0089718D02*
X0146337Y0089718D01*
X0144739Y0091317D02*
X0005449Y0091317D01*
X0005449Y0092915D02*
X0143140Y0092915D01*
X0141542Y0094514D02*
X0128981Y0094514D01*
X0131951Y0096112D02*
X0139943Y0096112D01*
X0138345Y0097711D02*
X0133450Y0097711D01*
X0134112Y0099309D02*
X0136746Y0099309D01*
X0135148Y0100908D02*
X0134492Y0100908D01*
X0125379Y0094514D02*
X0005449Y0094514D01*
X0005449Y0096112D02*
X0122409Y0096112D01*
X0120911Y0097711D02*
X0005449Y0097711D01*
X0005449Y0099309D02*
X0120249Y0099309D01*
X0119868Y0100908D02*
X0024551Y0100908D01*
X0026150Y0102506D02*
X0119868Y0102506D01*
X0120270Y0104105D02*
X0027748Y0104105D01*
X0029347Y0105703D02*
X0120932Y0105703D01*
X0122460Y0107302D02*
X0030945Y0107302D01*
X0032544Y0108900D02*
X0125500Y0108900D01*
X0125557Y0110499D02*
X0034142Y0110499D01*
X0035741Y0112097D02*
X0123958Y0112097D01*
X0122360Y0113696D02*
X0037339Y0113696D01*
X0038938Y0115294D02*
X0120761Y0115294D01*
X0119163Y0116893D02*
X0040536Y0116893D01*
X0042135Y0118491D02*
X0117564Y0118491D01*
X0115966Y0120090D02*
X0043733Y0120090D01*
X0045332Y0121688D02*
X0114367Y0121688D01*
X0112769Y0123287D02*
X0054286Y0123287D01*
X0054467Y0123391D02*
X0054056Y0123154D01*
X0053598Y0123031D01*
X0051380Y0123031D01*
X0051380Y0126616D01*
X0055161Y0126616D01*
X0055161Y0124595D01*
X0055039Y0124137D01*
X0054802Y0123726D01*
X0054467Y0123391D01*
X0055161Y0124885D02*
X0111170Y0124885D01*
X0109572Y0126484D02*
X0055161Y0126484D01*
X0055161Y0128082D02*
X0107973Y0128082D01*
X0106374Y0129681D02*
X0054913Y0129681D01*
X0051380Y0129681D02*
X0051012Y0129681D01*
X0051012Y0128082D02*
X0051380Y0128082D01*
X0051380Y0126484D02*
X0051012Y0126484D01*
X0051012Y0124885D02*
X0051380Y0124885D01*
X0051380Y0123287D02*
X0051012Y0123287D01*
X0048106Y0123287D02*
X0047386Y0123287D01*
X0044049Y0123800D02*
X0044049Y0126200D01*
X0044503Y0126800D01*
X0044449Y0127000D01*
X0044449Y0137400D01*
X0049649Y0137400D01*
X0051249Y0139000D01*
X0051249Y0141400D01*
X0051590Y0141681D01*
X0054272Y0142469D02*
X0093586Y0142469D01*
X0091988Y0144068D02*
X0054272Y0144068D01*
X0054272Y0140870D02*
X0095185Y0140870D01*
X0096783Y0139272D02*
X0054272Y0139272D01*
X0053298Y0137673D02*
X0098382Y0137673D01*
X0099980Y0136075D02*
X0051719Y0136075D01*
X0046849Y0134476D02*
X0101579Y0134476D01*
X0103177Y0132878D02*
X0046849Y0132878D01*
X0046849Y0131279D02*
X0104776Y0131279D01*
X0108367Y0134476D02*
X0191576Y0134476D01*
X0189978Y0132878D02*
X0109966Y0132878D01*
X0111564Y0131279D02*
X0188379Y0131279D01*
X0188059Y0129681D02*
X0113163Y0129681D01*
X0114761Y0128082D02*
X0188059Y0128082D01*
X0188059Y0126484D02*
X0116360Y0126484D01*
X0117958Y0124885D02*
X0189122Y0124885D01*
X0190720Y0123287D02*
X0119557Y0123287D01*
X0090389Y0145666D02*
X0049722Y0145666D01*
X0047850Y0145666D02*
X0047849Y0145666D01*
X0047849Y0144068D02*
X0047850Y0144068D01*
X0047849Y0142469D02*
X0047850Y0142469D01*
X0044449Y0141400D02*
X0044109Y0141681D01*
X0044449Y0141400D02*
X0044449Y0137400D01*
X0045695Y0145666D02*
X0045977Y0145666D01*
X0046049Y0147265D02*
X0088791Y0147265D01*
X0089090Y0146965D02*
X0089090Y0146965D01*
X0090449Y0149000D02*
X0071249Y0168200D01*
X0033649Y0168200D01*
X0033649Y0129800D01*
X0020849Y0117000D01*
X0018049Y0117000D01*
X0017849Y0116800D01*
X0021649Y0121400D02*
X0013249Y0121400D01*
X0010449Y0118600D01*
X0010449Y0105000D01*
X0013249Y0102200D01*
X0022449Y0102200D01*
X0044049Y0123800D01*
X0036049Y0125000D02*
X0017849Y0106800D01*
X0011148Y0100908D02*
X0005449Y0100908D01*
X0005449Y0102506D02*
X0009549Y0102506D01*
X0008223Y0104105D02*
X0005449Y0104105D01*
X0005449Y0105703D02*
X0008049Y0105703D01*
X0008049Y0107302D02*
X0005449Y0107302D01*
X0005449Y0108900D02*
X0008049Y0108900D01*
X0008049Y0110499D02*
X0005449Y0110499D01*
X0005449Y0112097D02*
X0008049Y0112097D01*
X0008049Y0113696D02*
X0005449Y0113696D01*
X0005449Y0115294D02*
X0008049Y0115294D01*
X0008049Y0116893D02*
X0005449Y0116893D01*
X0005449Y0118491D02*
X0008049Y0118491D01*
X0008545Y0120090D02*
X0005449Y0120090D01*
X0005449Y0121688D02*
X0010144Y0121688D01*
X0011742Y0123287D02*
X0005449Y0123287D01*
X0005449Y0124885D02*
X0021741Y0124885D01*
X0023339Y0126484D02*
X0005449Y0126484D01*
X0004738Y0129352D02*
X0004720Y0133299D01*
X0010035Y0133299D01*
X0010035Y0137512D01*
X0021137Y0137512D01*
X0021137Y0129342D01*
X0011019Y0129342D01*
X0011037Y0129352D01*
X0004738Y0129352D01*
X0004736Y0129681D02*
X0021137Y0129681D01*
X0021137Y0131279D02*
X0004729Y0131279D01*
X0004722Y0132878D02*
X0021137Y0132878D01*
X0021137Y0134476D02*
X0010035Y0134476D01*
X0010035Y0136075D02*
X0021137Y0136075D01*
X0020364Y0139912D02*
X0015985Y0139912D01*
X0015985Y0146038D01*
X0015663Y0146360D01*
X0015985Y0146681D01*
X0015985Y0152877D01*
X0020264Y0152877D01*
X0020164Y0152502D01*
X0020164Y0151478D01*
X0020164Y0150454D01*
X0020286Y0149996D01*
X0020364Y0149862D01*
X0020364Y0139912D01*
X0020364Y0140870D02*
X0015985Y0140870D01*
X0015985Y0142469D02*
X0020364Y0142469D01*
X0020364Y0144068D02*
X0015985Y0144068D01*
X0015985Y0145666D02*
X0020364Y0145666D01*
X0020364Y0147265D02*
X0015985Y0147265D01*
X0015985Y0148863D02*
X0020364Y0148863D01*
X0020164Y0150462D02*
X0015985Y0150462D01*
X0015985Y0152060D02*
X0020164Y0152060D01*
X0020164Y0151478D02*
X0025330Y0151478D01*
X0025330Y0151478D01*
X0025330Y0154065D01*
X0026479Y0154065D01*
X0026479Y0157140D01*
X0025205Y0157140D01*
X0025205Y0154065D01*
X0025330Y0154065D01*
X0025330Y0151478D01*
X0020164Y0151478D01*
X0021137Y0155277D02*
X0010035Y0155277D01*
X0010035Y0159490D01*
X0004720Y0159490D01*
X0004698Y0163458D01*
X0010997Y0163458D01*
X0011019Y0163447D01*
X0021137Y0163447D01*
X0021137Y0155277D01*
X0021137Y0156856D02*
X0010035Y0156856D01*
X0010035Y0158454D02*
X0021137Y0158454D01*
X0021137Y0160053D02*
X0004716Y0160053D01*
X0004708Y0161651D02*
X0021137Y0161651D01*
X0021137Y0163250D02*
X0004699Y0163250D01*
X0005449Y0166447D02*
X0031249Y0166447D01*
X0031249Y0168045D02*
X0005449Y0168045D01*
X0005449Y0169644D02*
X0031699Y0169644D01*
X0030818Y0172928D02*
X0027007Y0172928D01*
X0024312Y0175623D01*
X0024312Y0179434D01*
X0027007Y0182128D01*
X0030818Y0182128D01*
X0033512Y0179434D01*
X0033512Y0175623D01*
X0030818Y0172928D01*
X0032329Y0174439D02*
X0035496Y0174439D01*
X0034312Y0175623D02*
X0037007Y0172928D01*
X0040818Y0172928D01*
X0043512Y0175623D01*
X0043512Y0179434D01*
X0040818Y0182128D01*
X0037007Y0182128D01*
X0034312Y0179434D01*
X0034312Y0175623D01*
X0034312Y0176038D02*
X0033512Y0176038D01*
X0033512Y0177636D02*
X0034312Y0177636D01*
X0034312Y0179235D02*
X0033512Y0179235D01*
X0032113Y0180833D02*
X0035712Y0180833D01*
X0037007Y0182928D02*
X0040818Y0182928D01*
X0043512Y0185623D01*
X0043512Y0189434D01*
X0040818Y0192128D01*
X0037007Y0192128D01*
X0034312Y0189434D01*
X0034312Y0185623D01*
X0037007Y0182928D01*
X0035905Y0184030D02*
X0031920Y0184030D01*
X0030818Y0182928D02*
X0033512Y0185623D01*
X0033512Y0189434D01*
X0030818Y0192128D01*
X0027007Y0192128D01*
X0024312Y0189434D01*
X0024312Y0185623D01*
X0027007Y0182928D01*
X0030818Y0182928D01*
X0033512Y0185629D02*
X0034312Y0185629D01*
X0034312Y0187227D02*
X0033512Y0187227D01*
X0033512Y0188826D02*
X0034312Y0188826D01*
X0035303Y0190424D02*
X0032522Y0190424D01*
X0030923Y0192023D02*
X0036902Y0192023D01*
X0040923Y0192023D02*
X0046902Y0192023D01*
X0047007Y0192128D02*
X0044312Y0189434D01*
X0044312Y0185623D01*
X0047007Y0182928D01*
X0050818Y0182928D01*
X0053512Y0185623D01*
X0053512Y0189434D01*
X0050818Y0192128D01*
X0047007Y0192128D01*
X0045303Y0190424D02*
X0042522Y0190424D01*
X0043512Y0188826D02*
X0044312Y0188826D01*
X0044312Y0187227D02*
X0043512Y0187227D01*
X0043512Y0185629D02*
X0044312Y0185629D01*
X0045905Y0184030D02*
X0041920Y0184030D01*
X0042113Y0180833D02*
X0045712Y0180833D01*
X0047007Y0182128D02*
X0044312Y0179434D01*
X0044312Y0175623D01*
X0047007Y0172928D01*
X0050818Y0172928D01*
X0053512Y0175623D01*
X0053512Y0179434D01*
X0050818Y0182128D01*
X0047007Y0182128D01*
X0044312Y0179235D02*
X0043512Y0179235D01*
X0043512Y0177636D02*
X0044312Y0177636D01*
X0044312Y0176038D02*
X0043512Y0176038D01*
X0042329Y0174439D02*
X0045496Y0174439D01*
X0052329Y0174439D02*
X0055496Y0174439D01*
X0054312Y0175623D02*
X0057007Y0172928D01*
X0060818Y0172928D01*
X0063512Y0175623D01*
X0063512Y0179434D01*
X0060818Y0182128D01*
X0057007Y0182128D01*
X0054312Y0179434D01*
X0054312Y0175623D01*
X0054312Y0176038D02*
X0053512Y0176038D01*
X0053512Y0177636D02*
X0054312Y0177636D01*
X0054312Y0179235D02*
X0053512Y0179235D01*
X0052113Y0180833D02*
X0055712Y0180833D01*
X0057007Y0182928D02*
X0060818Y0182928D01*
X0063512Y0185623D01*
X0063512Y0189434D01*
X0060818Y0192128D01*
X0057007Y0192128D01*
X0054312Y0189434D01*
X0054312Y0185623D01*
X0057007Y0182928D01*
X0055905Y0184030D02*
X0051920Y0184030D01*
X0053512Y0185629D02*
X0054312Y0185629D01*
X0054312Y0187227D02*
X0053512Y0187227D01*
X0053512Y0188826D02*
X0054312Y0188826D01*
X0055303Y0190424D02*
X0052522Y0190424D01*
X0050923Y0192023D02*
X0056902Y0192023D01*
X0060923Y0192023D02*
X0066902Y0192023D01*
X0067007Y0192128D02*
X0064312Y0189434D01*
X0064312Y0185623D01*
X0067007Y0182928D01*
X0070818Y0182928D01*
X0073512Y0185623D01*
X0073512Y0189434D01*
X0070818Y0192128D01*
X0067007Y0192128D01*
X0065303Y0190424D02*
X0062522Y0190424D01*
X0063512Y0188826D02*
X0064312Y0188826D01*
X0064312Y0187227D02*
X0063512Y0187227D01*
X0063512Y0185629D02*
X0064312Y0185629D01*
X0065905Y0184030D02*
X0061920Y0184030D01*
X0062113Y0180833D02*
X0065429Y0180833D01*
X0064112Y0179517D02*
X0064112Y0177728D01*
X0068712Y0177728D01*
X0068712Y0177328D01*
X0064112Y0177328D01*
X0064112Y0175540D01*
X0066924Y0172728D01*
X0068712Y0172728D01*
X0068712Y0177328D01*
X0069112Y0177328D01*
X0069112Y0172728D01*
X0070901Y0172728D01*
X0073712Y0175540D01*
X0073712Y0177328D01*
X0069113Y0177328D01*
X0069113Y0177728D01*
X0073712Y0177728D01*
X0073712Y0179517D01*
X0070901Y0182328D01*
X0069112Y0182328D01*
X0069112Y0177728D01*
X0068712Y0177728D01*
X0068712Y0182328D01*
X0066924Y0182328D01*
X0064112Y0179517D01*
X0064112Y0179235D02*
X0063512Y0179235D01*
X0063512Y0177636D02*
X0068712Y0177636D01*
X0069113Y0177636D02*
X0078712Y0177636D01*
X0078712Y0177728D02*
X0078712Y0177328D01*
X0074112Y0177328D01*
X0074112Y0175540D01*
X0076924Y0172728D01*
X0078712Y0172728D01*
X0078712Y0177328D01*
X0079112Y0177328D01*
X0079112Y0172728D01*
X0080901Y0172728D01*
X0083712Y0175540D01*
X0083712Y0177328D01*
X0079113Y0177328D01*
X0079113Y0177728D01*
X0083712Y0177728D01*
X0083712Y0179517D01*
X0080901Y0182328D01*
X0079112Y0182328D01*
X0079112Y0177728D01*
X0078712Y0177728D01*
X0074112Y0177728D01*
X0074112Y0179517D01*
X0076924Y0182328D01*
X0078712Y0182328D01*
X0078712Y0177728D01*
X0079113Y0177636D02*
X0084312Y0177636D01*
X0084312Y0176038D02*
X0083712Y0176038D01*
X0084312Y0175623D02*
X0087007Y0172928D01*
X0090818Y0172928D01*
X0093512Y0175623D01*
X0093512Y0179434D01*
X0090818Y0182128D01*
X0087007Y0182128D01*
X0084312Y0179434D01*
X0084312Y0175623D01*
X0085496Y0174439D02*
X0082612Y0174439D01*
X0081013Y0172841D02*
X0096812Y0172841D01*
X0096924Y0172728D02*
X0098712Y0172728D01*
X0098712Y0177328D01*
X0094112Y0177328D01*
X0094112Y0175540D01*
X0096924Y0172728D01*
X0098712Y0172841D02*
X0099112Y0172841D01*
X0099112Y0172728D02*
X0100901Y0172728D01*
X0103712Y0175540D01*
X0103712Y0177328D01*
X0099113Y0177328D01*
X0099113Y0177728D01*
X0103712Y0177728D01*
X0103712Y0179517D01*
X0100901Y0182328D01*
X0099112Y0182328D01*
X0099112Y0177728D01*
X0098712Y0177728D01*
X0098712Y0177328D01*
X0099112Y0177328D01*
X0099112Y0172728D01*
X0099112Y0174439D02*
X0098712Y0174439D01*
X0098712Y0176038D02*
X0099112Y0176038D01*
X0099113Y0177636D02*
X0104312Y0177636D01*
X0104312Y0176038D02*
X0103712Y0176038D01*
X0104312Y0175623D02*
X0107007Y0172928D01*
X0110818Y0172928D01*
X0113512Y0175623D01*
X0113512Y0179434D01*
X0110818Y0182128D01*
X0107007Y0182128D01*
X0104312Y0179434D01*
X0104312Y0175623D01*
X0105496Y0174439D02*
X0102612Y0174439D01*
X0101013Y0172841D02*
X0110896Y0172841D01*
X0112329Y0174439D02*
X0112495Y0174439D01*
X0113512Y0176038D02*
X0114093Y0176038D01*
X0114312Y0177636D02*
X0113512Y0177636D01*
X0113512Y0179235D02*
X0114312Y0179235D01*
X0115712Y0180833D02*
X0112113Y0180833D01*
X0110818Y0182928D02*
X0113512Y0185623D01*
X0113512Y0189434D01*
X0110818Y0192128D01*
X0107007Y0192128D01*
X0104312Y0189434D01*
X0104312Y0185623D01*
X0107007Y0182928D01*
X0110818Y0182928D01*
X0111920Y0184030D02*
X0114312Y0184030D01*
X0114312Y0183866D02*
X0115250Y0182928D01*
X0122575Y0182928D01*
X0123512Y0183866D01*
X0123512Y0191191D01*
X0122575Y0192128D01*
X0115250Y0192128D01*
X0114312Y0191191D01*
X0114312Y0183866D01*
X0114312Y0185629D02*
X0113512Y0185629D01*
X0113512Y0187227D02*
X0114312Y0187227D01*
X0114312Y0188826D02*
X0113512Y0188826D01*
X0114312Y0190424D02*
X0112522Y0190424D01*
X0110923Y0192023D02*
X0115144Y0192023D01*
X0122681Y0192023D02*
X0181267Y0192023D01*
X0181267Y0190424D02*
X0123512Y0190424D01*
X0123512Y0188826D02*
X0181267Y0188826D01*
X0181627Y0187227D02*
X0123512Y0187227D01*
X0123512Y0185629D02*
X0182289Y0185629D01*
X0183202Y0184030D02*
X0123512Y0184030D01*
X0122113Y0180833D02*
X0187587Y0180833D01*
X0184800Y0182432D02*
X0017532Y0182432D01*
X0019130Y0184030D02*
X0025905Y0184030D01*
X0024312Y0185629D02*
X0020043Y0185629D01*
X0020705Y0187227D02*
X0024312Y0187227D01*
X0024312Y0188826D02*
X0021065Y0188826D01*
X0021065Y0190424D02*
X0025303Y0190424D01*
X0026902Y0192023D02*
X0021065Y0192023D01*
X0020408Y0193621D02*
X0181924Y0193621D01*
X0182586Y0195220D02*
X0019746Y0195220D01*
X0014745Y0180833D02*
X0025712Y0180833D01*
X0024312Y0179235D02*
X0005449Y0179235D01*
X0005449Y0180833D02*
X0007587Y0180833D01*
X0005449Y0177636D02*
X0024312Y0177636D01*
X0024312Y0176038D02*
X0005449Y0176038D01*
X0005449Y0174439D02*
X0025496Y0174439D01*
X0023129Y0164848D02*
X0031249Y0164848D01*
X0031249Y0163250D02*
X0029656Y0163250D01*
X0030516Y0161651D02*
X0031249Y0161651D01*
X0031249Y0160053D02*
X0030516Y0160053D01*
X0030516Y0158454D02*
X0031249Y0158454D01*
X0031249Y0156856D02*
X0030516Y0156856D01*
X0030516Y0155257D02*
X0031249Y0155257D01*
X0031249Y0153659D02*
X0030516Y0153659D01*
X0030496Y0152060D02*
X0031249Y0152060D01*
X0031249Y0150462D02*
X0030496Y0150462D01*
X0030296Y0148863D02*
X0031249Y0148863D01*
X0031249Y0147265D02*
X0030296Y0147265D01*
X0030296Y0145666D02*
X0031249Y0145666D01*
X0031249Y0144068D02*
X0030296Y0144068D01*
X0031175Y0142469D02*
X0031249Y0142469D01*
X0029249Y0141000D02*
X0030449Y0139800D01*
X0030449Y0130200D01*
X0021649Y0121400D01*
X0023213Y0128082D02*
X0024938Y0128082D01*
X0025205Y0129681D02*
X0026479Y0129681D01*
X0026479Y0131279D02*
X0025205Y0131279D01*
X0025205Y0132878D02*
X0026479Y0132878D01*
X0025649Y0141000D02*
X0025330Y0141242D01*
X0025649Y0141000D02*
X0029249Y0141000D01*
X0036049Y0139400D02*
X0036049Y0125000D01*
X0036049Y0139400D02*
X0043649Y0147000D01*
X0043649Y0151400D01*
X0044109Y0151919D01*
X0044449Y0152200D01*
X0044449Y0164200D01*
X0044503Y0164300D01*
X0046849Y0160053D02*
X0076003Y0160053D01*
X0074404Y0161651D02*
X0055042Y0161651D01*
X0055039Y0161637D02*
X0055161Y0162095D01*
X0055161Y0164116D01*
X0051380Y0164116D01*
X0051380Y0160531D01*
X0053598Y0160531D01*
X0054056Y0160654D01*
X0054467Y0160891D01*
X0054802Y0161226D01*
X0055039Y0161637D01*
X0055161Y0163250D02*
X0072806Y0163250D01*
X0071207Y0164848D02*
X0055161Y0164848D01*
X0051380Y0163250D02*
X0051012Y0163250D01*
X0051012Y0161651D02*
X0051380Y0161651D01*
X0046849Y0158454D02*
X0077601Y0158454D01*
X0079200Y0156856D02*
X0046849Y0156856D01*
X0046849Y0155257D02*
X0049221Y0155257D01*
X0048907Y0154943D02*
X0048907Y0148894D01*
X0049844Y0147956D01*
X0053335Y0147956D01*
X0054272Y0148894D01*
X0054272Y0154943D01*
X0053335Y0155881D01*
X0049844Y0155881D01*
X0048907Y0154943D01*
X0048907Y0153659D02*
X0046849Y0153659D01*
X0046849Y0152060D02*
X0048907Y0152060D01*
X0048907Y0150462D02*
X0046792Y0150462D01*
X0046761Y0148863D02*
X0048937Y0148863D01*
X0054242Y0148863D02*
X0087192Y0148863D01*
X0085594Y0150462D02*
X0054272Y0150462D01*
X0054272Y0152060D02*
X0083995Y0152060D01*
X0082397Y0153659D02*
X0054272Y0153659D01*
X0053959Y0155257D02*
X0080798Y0155257D01*
X0084389Y0158454D02*
X0096510Y0158454D01*
X0098108Y0160053D02*
X0082791Y0160053D01*
X0081192Y0161651D02*
X0099707Y0161651D01*
X0101305Y0163250D02*
X0079594Y0163250D01*
X0077995Y0164848D02*
X0102904Y0164848D01*
X0104502Y0166447D02*
X0076397Y0166447D01*
X0074798Y0168045D02*
X0106101Y0168045D01*
X0107699Y0169644D02*
X0073200Y0169644D01*
X0071013Y0172841D02*
X0076812Y0172841D01*
X0078712Y0172841D02*
X0079112Y0172841D01*
X0079112Y0174439D02*
X0078712Y0174439D01*
X0078712Y0176038D02*
X0079112Y0176038D01*
X0079112Y0179235D02*
X0078712Y0179235D01*
X0078712Y0180833D02*
X0079112Y0180833D01*
X0080818Y0182928D02*
X0077007Y0182928D01*
X0074312Y0185623D01*
X0074312Y0189434D01*
X0077007Y0192128D01*
X0080818Y0192128D01*
X0083512Y0189434D01*
X0083512Y0185623D01*
X0080818Y0182928D01*
X0081920Y0184030D02*
X0085905Y0184030D01*
X0087007Y0182928D02*
X0084312Y0185623D01*
X0084312Y0189434D01*
X0087007Y0192128D01*
X0090818Y0192128D01*
X0093512Y0189434D01*
X0093512Y0185623D01*
X0090818Y0182928D01*
X0087007Y0182928D01*
X0085712Y0180833D02*
X0082396Y0180833D01*
X0083712Y0179235D02*
X0084312Y0179235D01*
X0084312Y0185629D02*
X0083512Y0185629D01*
X0083512Y0187227D02*
X0084312Y0187227D01*
X0084312Y0188826D02*
X0083512Y0188826D01*
X0082522Y0190424D02*
X0085303Y0190424D01*
X0086902Y0192023D02*
X0080923Y0192023D01*
X0076902Y0192023D02*
X0070923Y0192023D01*
X0072522Y0190424D02*
X0075303Y0190424D01*
X0074312Y0188826D02*
X0073512Y0188826D01*
X0073512Y0187227D02*
X0074312Y0187227D01*
X0074312Y0185629D02*
X0073512Y0185629D01*
X0071920Y0184030D02*
X0075905Y0184030D01*
X0075429Y0180833D02*
X0072396Y0180833D01*
X0073712Y0179235D02*
X0074112Y0179235D01*
X0074112Y0176038D02*
X0073712Y0176038D01*
X0072612Y0174439D02*
X0075213Y0174439D01*
X0069112Y0174439D02*
X0068712Y0174439D01*
X0068712Y0172841D02*
X0069112Y0172841D01*
X0066812Y0172841D02*
X0005449Y0172841D01*
X0005449Y0171242D02*
X0109298Y0171242D01*
X0104312Y0179235D02*
X0103712Y0179235D01*
X0102396Y0180833D02*
X0105712Y0180833D01*
X0105905Y0184030D02*
X0101920Y0184030D01*
X0100818Y0182928D02*
X0103512Y0185623D01*
X0103512Y0189434D01*
X0100818Y0192128D01*
X0097007Y0192128D01*
X0094312Y0189434D01*
X0094312Y0185623D01*
X0097007Y0182928D01*
X0100818Y0182928D01*
X0099112Y0180833D02*
X0098712Y0180833D01*
X0098712Y0182328D02*
X0096924Y0182328D01*
X0094112Y0179517D01*
X0094112Y0177728D01*
X0098712Y0177728D01*
X0098712Y0182328D01*
X0098712Y0179235D02*
X0099112Y0179235D01*
X0098712Y0177636D02*
X0093512Y0177636D01*
X0093512Y0176038D02*
X0094112Y0176038D01*
X0095213Y0174439D02*
X0092329Y0174439D01*
X0093512Y0179235D02*
X0094112Y0179235D01*
X0095429Y0180833D02*
X0092113Y0180833D01*
X0091920Y0184030D02*
X0095905Y0184030D01*
X0094312Y0185629D02*
X0093512Y0185629D01*
X0093512Y0187227D02*
X0094312Y0187227D01*
X0094312Y0188826D02*
X0093512Y0188826D01*
X0092522Y0190424D02*
X0095303Y0190424D01*
X0096902Y0192023D02*
X0090923Y0192023D01*
X0100923Y0192023D02*
X0106902Y0192023D01*
X0105303Y0190424D02*
X0102522Y0190424D01*
X0103512Y0188826D02*
X0104312Y0188826D01*
X0104312Y0187227D02*
X0103512Y0187227D01*
X0103512Y0185629D02*
X0104312Y0185629D01*
X0123512Y0179235D02*
X0197100Y0179235D01*
X0197100Y0180833D02*
X0194745Y0180833D01*
X0197100Y0177636D02*
X0123512Y0177636D01*
X0123512Y0176038D02*
X0197100Y0176038D01*
X0094911Y0156856D02*
X0085988Y0156856D01*
X0087587Y0155257D02*
X0093312Y0155257D01*
X0091714Y0153659D02*
X0089185Y0153659D01*
X0069112Y0176038D02*
X0068712Y0176038D01*
X0068712Y0179235D02*
X0069112Y0179235D01*
X0069112Y0180833D02*
X0068712Y0180833D01*
X0064112Y0176038D02*
X0063512Y0176038D01*
X0062329Y0174439D02*
X0065213Y0174439D01*
X0026479Y0163250D02*
X0025205Y0163250D01*
X0025205Y0161651D02*
X0026479Y0161651D01*
X0026479Y0160053D02*
X0025205Y0160053D01*
X0025205Y0158454D02*
X0026479Y0158454D01*
X0026479Y0156856D02*
X0025205Y0156856D01*
X0025205Y0155257D02*
X0026479Y0155257D01*
X0025330Y0153659D02*
X0025330Y0153659D01*
X0025330Y0152060D02*
X0025330Y0152060D01*
X0025330Y0151478D02*
X0025330Y0151478D01*
X0005449Y0073733D02*
X0190163Y0073733D01*
D11*
X0121668Y0101682D02*
X0121670Y0101830D01*
X0121676Y0101978D01*
X0121686Y0102126D01*
X0121700Y0102273D01*
X0121718Y0102420D01*
X0121739Y0102566D01*
X0121765Y0102712D01*
X0121795Y0102857D01*
X0121828Y0103001D01*
X0121866Y0103144D01*
X0121907Y0103286D01*
X0121952Y0103427D01*
X0122000Y0103567D01*
X0122053Y0103706D01*
X0122109Y0103843D01*
X0122169Y0103978D01*
X0122232Y0104112D01*
X0122299Y0104244D01*
X0122370Y0104374D01*
X0122444Y0104502D01*
X0122521Y0104628D01*
X0122602Y0104752D01*
X0122686Y0104874D01*
X0122773Y0104993D01*
X0122864Y0105110D01*
X0122958Y0105225D01*
X0123054Y0105337D01*
X0123154Y0105447D01*
X0123256Y0105553D01*
X0123362Y0105657D01*
X0123470Y0105758D01*
X0123581Y0105856D01*
X0123694Y0105952D01*
X0123810Y0106044D01*
X0123928Y0106133D01*
X0124049Y0106218D01*
X0124172Y0106301D01*
X0124297Y0106380D01*
X0124424Y0106456D01*
X0124553Y0106528D01*
X0124684Y0106597D01*
X0124817Y0106662D01*
X0124952Y0106723D01*
X0125088Y0106781D01*
X0125225Y0106836D01*
X0125364Y0106886D01*
X0125505Y0106933D01*
X0125646Y0106976D01*
X0125789Y0107016D01*
X0125933Y0107051D01*
X0126077Y0107083D01*
X0126223Y0107110D01*
X0126369Y0107134D01*
X0126516Y0107154D01*
X0126663Y0107170D01*
X0126810Y0107182D01*
X0126958Y0107190D01*
X0127106Y0107194D01*
X0127254Y0107194D01*
X0127402Y0107190D01*
X0127550Y0107182D01*
X0127697Y0107170D01*
X0127844Y0107154D01*
X0127991Y0107134D01*
X0128137Y0107110D01*
X0128283Y0107083D01*
X0128427Y0107051D01*
X0128571Y0107016D01*
X0128714Y0106976D01*
X0128855Y0106933D01*
X0128996Y0106886D01*
X0129135Y0106836D01*
X0129272Y0106781D01*
X0129408Y0106723D01*
X0129543Y0106662D01*
X0129676Y0106597D01*
X0129807Y0106528D01*
X0129936Y0106456D01*
X0130063Y0106380D01*
X0130188Y0106301D01*
X0130311Y0106218D01*
X0130432Y0106133D01*
X0130550Y0106044D01*
X0130666Y0105952D01*
X0130779Y0105856D01*
X0130890Y0105758D01*
X0130998Y0105657D01*
X0131104Y0105553D01*
X0131206Y0105447D01*
X0131306Y0105337D01*
X0131402Y0105225D01*
X0131496Y0105110D01*
X0131587Y0104993D01*
X0131674Y0104874D01*
X0131758Y0104752D01*
X0131839Y0104628D01*
X0131916Y0104502D01*
X0131990Y0104374D01*
X0132061Y0104244D01*
X0132128Y0104112D01*
X0132191Y0103978D01*
X0132251Y0103843D01*
X0132307Y0103706D01*
X0132360Y0103567D01*
X0132408Y0103427D01*
X0132453Y0103286D01*
X0132494Y0103144D01*
X0132532Y0103001D01*
X0132565Y0102857D01*
X0132595Y0102712D01*
X0132621Y0102566D01*
X0132642Y0102420D01*
X0132660Y0102273D01*
X0132674Y0102126D01*
X0132684Y0101978D01*
X0132690Y0101830D01*
X0132692Y0101682D01*
X0132690Y0101534D01*
X0132684Y0101386D01*
X0132674Y0101238D01*
X0132660Y0101091D01*
X0132642Y0100944D01*
X0132621Y0100798D01*
X0132595Y0100652D01*
X0132565Y0100507D01*
X0132532Y0100363D01*
X0132494Y0100220D01*
X0132453Y0100078D01*
X0132408Y0099937D01*
X0132360Y0099797D01*
X0132307Y0099658D01*
X0132251Y0099521D01*
X0132191Y0099386D01*
X0132128Y0099252D01*
X0132061Y0099120D01*
X0131990Y0098990D01*
X0131916Y0098862D01*
X0131839Y0098736D01*
X0131758Y0098612D01*
X0131674Y0098490D01*
X0131587Y0098371D01*
X0131496Y0098254D01*
X0131402Y0098139D01*
X0131306Y0098027D01*
X0131206Y0097917D01*
X0131104Y0097811D01*
X0130998Y0097707D01*
X0130890Y0097606D01*
X0130779Y0097508D01*
X0130666Y0097412D01*
X0130550Y0097320D01*
X0130432Y0097231D01*
X0130311Y0097146D01*
X0130188Y0097063D01*
X0130063Y0096984D01*
X0129936Y0096908D01*
X0129807Y0096836D01*
X0129676Y0096767D01*
X0129543Y0096702D01*
X0129408Y0096641D01*
X0129272Y0096583D01*
X0129135Y0096528D01*
X0128996Y0096478D01*
X0128855Y0096431D01*
X0128714Y0096388D01*
X0128571Y0096348D01*
X0128427Y0096313D01*
X0128283Y0096281D01*
X0128137Y0096254D01*
X0127991Y0096230D01*
X0127844Y0096210D01*
X0127697Y0096194D01*
X0127550Y0096182D01*
X0127402Y0096174D01*
X0127254Y0096170D01*
X0127106Y0096170D01*
X0126958Y0096174D01*
X0126810Y0096182D01*
X0126663Y0096194D01*
X0126516Y0096210D01*
X0126369Y0096230D01*
X0126223Y0096254D01*
X0126077Y0096281D01*
X0125933Y0096313D01*
X0125789Y0096348D01*
X0125646Y0096388D01*
X0125505Y0096431D01*
X0125364Y0096478D01*
X0125225Y0096528D01*
X0125088Y0096583D01*
X0124952Y0096641D01*
X0124817Y0096702D01*
X0124684Y0096767D01*
X0124553Y0096836D01*
X0124424Y0096908D01*
X0124297Y0096984D01*
X0124172Y0097063D01*
X0124049Y0097146D01*
X0123928Y0097231D01*
X0123810Y0097320D01*
X0123694Y0097412D01*
X0123581Y0097508D01*
X0123470Y0097606D01*
X0123362Y0097707D01*
X0123256Y0097811D01*
X0123154Y0097917D01*
X0123054Y0098027D01*
X0122958Y0098139D01*
X0122864Y0098254D01*
X0122773Y0098371D01*
X0122686Y0098490D01*
X0122602Y0098612D01*
X0122521Y0098736D01*
X0122444Y0098862D01*
X0122370Y0098990D01*
X0122299Y0099120D01*
X0122232Y0099252D01*
X0122169Y0099386D01*
X0122109Y0099521D01*
X0122053Y0099658D01*
X0122000Y0099797D01*
X0121952Y0099937D01*
X0121907Y0100078D01*
X0121866Y0100220D01*
X0121828Y0100363D01*
X0121795Y0100507D01*
X0121765Y0100652D01*
X0121739Y0100798D01*
X0121718Y0100944D01*
X0121700Y0101091D01*
X0121686Y0101238D01*
X0121676Y0101386D01*
X0121670Y0101534D01*
X0121668Y0101682D01*
D12*
X0194109Y0078060D03*
X0194109Y0128454D03*
D13*
X0025330Y0141242D03*
X0025330Y0143801D03*
X0025330Y0146360D03*
X0025330Y0148919D03*
X0025330Y0151478D03*
D14*
X0025842Y0157777D03*
X0025842Y0134943D03*
D15*
X0009464Y0142669D03*
X0009464Y0150051D03*
D16*
X0118912Y0187528D03*
D17*
X0108912Y0187528D03*
X0098912Y0187528D03*
X0088912Y0187528D03*
X0078912Y0187528D03*
X0068912Y0187528D03*
X0058912Y0187528D03*
X0048912Y0187528D03*
X0038912Y0187528D03*
X0028912Y0187528D03*
X0028912Y0177528D03*
X0038912Y0177528D03*
X0048912Y0177528D03*
X0058912Y0177528D03*
X0068912Y0177528D03*
X0078912Y0177528D03*
X0088912Y0177528D03*
X0098912Y0177528D03*
X0108912Y0177528D03*
X0118912Y0177528D03*
D18*
X0051196Y0164300D03*
X0044503Y0164300D03*
X0044503Y0126800D03*
X0051196Y0126800D03*
D19*
X0051590Y0141681D03*
X0047849Y0141681D03*
X0044109Y0141681D03*
X0044109Y0151919D03*
X0051590Y0151919D03*
D20*
X0020649Y0116800D02*
X0015049Y0116800D01*
X0015049Y0106800D02*
X0020649Y0106800D01*
D21*
X0011166Y0190066D03*
X0191166Y0190066D03*
X0191166Y0010066D03*
X0011166Y0010066D03*
M02*
