G75*
%MOIN*%
%OFA0B0*%
%FSLAX25Y25*%
%IPPOS*%
%LPD*%
%AMOC8*
5,1,8,0,0,1.08239X$1,22.5*
%
%ADD10C,0.01600*%
%ADD11C,0.00000*%
%ADD12C,0.00500*%
D10*
X0002849Y0001800D02*
X0199700Y0001800D01*
X0199700Y0198650D01*
X0002849Y0198650D01*
X0002849Y0001800D01*
D11*
X0121668Y0101682D02*
X0121670Y0101830D01*
X0121676Y0101978D01*
X0121686Y0102126D01*
X0121700Y0102273D01*
X0121718Y0102420D01*
X0121739Y0102566D01*
X0121765Y0102712D01*
X0121795Y0102857D01*
X0121828Y0103001D01*
X0121866Y0103144D01*
X0121907Y0103286D01*
X0121952Y0103427D01*
X0122000Y0103567D01*
X0122053Y0103706D01*
X0122109Y0103843D01*
X0122169Y0103978D01*
X0122232Y0104112D01*
X0122299Y0104244D01*
X0122370Y0104374D01*
X0122444Y0104502D01*
X0122521Y0104628D01*
X0122602Y0104752D01*
X0122686Y0104874D01*
X0122773Y0104993D01*
X0122864Y0105110D01*
X0122958Y0105225D01*
X0123054Y0105337D01*
X0123154Y0105447D01*
X0123256Y0105553D01*
X0123362Y0105657D01*
X0123470Y0105758D01*
X0123581Y0105856D01*
X0123694Y0105952D01*
X0123810Y0106044D01*
X0123928Y0106133D01*
X0124049Y0106218D01*
X0124172Y0106301D01*
X0124297Y0106380D01*
X0124424Y0106456D01*
X0124553Y0106528D01*
X0124684Y0106597D01*
X0124817Y0106662D01*
X0124952Y0106723D01*
X0125088Y0106781D01*
X0125225Y0106836D01*
X0125364Y0106886D01*
X0125505Y0106933D01*
X0125646Y0106976D01*
X0125789Y0107016D01*
X0125933Y0107051D01*
X0126077Y0107083D01*
X0126223Y0107110D01*
X0126369Y0107134D01*
X0126516Y0107154D01*
X0126663Y0107170D01*
X0126810Y0107182D01*
X0126958Y0107190D01*
X0127106Y0107194D01*
X0127254Y0107194D01*
X0127402Y0107190D01*
X0127550Y0107182D01*
X0127697Y0107170D01*
X0127844Y0107154D01*
X0127991Y0107134D01*
X0128137Y0107110D01*
X0128283Y0107083D01*
X0128427Y0107051D01*
X0128571Y0107016D01*
X0128714Y0106976D01*
X0128855Y0106933D01*
X0128996Y0106886D01*
X0129135Y0106836D01*
X0129272Y0106781D01*
X0129408Y0106723D01*
X0129543Y0106662D01*
X0129676Y0106597D01*
X0129807Y0106528D01*
X0129936Y0106456D01*
X0130063Y0106380D01*
X0130188Y0106301D01*
X0130311Y0106218D01*
X0130432Y0106133D01*
X0130550Y0106044D01*
X0130666Y0105952D01*
X0130779Y0105856D01*
X0130890Y0105758D01*
X0130998Y0105657D01*
X0131104Y0105553D01*
X0131206Y0105447D01*
X0131306Y0105337D01*
X0131402Y0105225D01*
X0131496Y0105110D01*
X0131587Y0104993D01*
X0131674Y0104874D01*
X0131758Y0104752D01*
X0131839Y0104628D01*
X0131916Y0104502D01*
X0131990Y0104374D01*
X0132061Y0104244D01*
X0132128Y0104112D01*
X0132191Y0103978D01*
X0132251Y0103843D01*
X0132307Y0103706D01*
X0132360Y0103567D01*
X0132408Y0103427D01*
X0132453Y0103286D01*
X0132494Y0103144D01*
X0132532Y0103001D01*
X0132565Y0102857D01*
X0132595Y0102712D01*
X0132621Y0102566D01*
X0132642Y0102420D01*
X0132660Y0102273D01*
X0132674Y0102126D01*
X0132684Y0101978D01*
X0132690Y0101830D01*
X0132692Y0101682D01*
X0132690Y0101534D01*
X0132684Y0101386D01*
X0132674Y0101238D01*
X0132660Y0101091D01*
X0132642Y0100944D01*
X0132621Y0100798D01*
X0132595Y0100652D01*
X0132565Y0100507D01*
X0132532Y0100363D01*
X0132494Y0100220D01*
X0132453Y0100078D01*
X0132408Y0099937D01*
X0132360Y0099797D01*
X0132307Y0099658D01*
X0132251Y0099521D01*
X0132191Y0099386D01*
X0132128Y0099252D01*
X0132061Y0099120D01*
X0131990Y0098990D01*
X0131916Y0098862D01*
X0131839Y0098736D01*
X0131758Y0098612D01*
X0131674Y0098490D01*
X0131587Y0098371D01*
X0131496Y0098254D01*
X0131402Y0098139D01*
X0131306Y0098027D01*
X0131206Y0097917D01*
X0131104Y0097811D01*
X0130998Y0097707D01*
X0130890Y0097606D01*
X0130779Y0097508D01*
X0130666Y0097412D01*
X0130550Y0097320D01*
X0130432Y0097231D01*
X0130311Y0097146D01*
X0130188Y0097063D01*
X0130063Y0096984D01*
X0129936Y0096908D01*
X0129807Y0096836D01*
X0129676Y0096767D01*
X0129543Y0096702D01*
X0129408Y0096641D01*
X0129272Y0096583D01*
X0129135Y0096528D01*
X0128996Y0096478D01*
X0128855Y0096431D01*
X0128714Y0096388D01*
X0128571Y0096348D01*
X0128427Y0096313D01*
X0128283Y0096281D01*
X0128137Y0096254D01*
X0127991Y0096230D01*
X0127844Y0096210D01*
X0127697Y0096194D01*
X0127550Y0096182D01*
X0127402Y0096174D01*
X0127254Y0096170D01*
X0127106Y0096170D01*
X0126958Y0096174D01*
X0126810Y0096182D01*
X0126663Y0096194D01*
X0126516Y0096210D01*
X0126369Y0096230D01*
X0126223Y0096254D01*
X0126077Y0096281D01*
X0125933Y0096313D01*
X0125789Y0096348D01*
X0125646Y0096388D01*
X0125505Y0096431D01*
X0125364Y0096478D01*
X0125225Y0096528D01*
X0125088Y0096583D01*
X0124952Y0096641D01*
X0124817Y0096702D01*
X0124684Y0096767D01*
X0124553Y0096836D01*
X0124424Y0096908D01*
X0124297Y0096984D01*
X0124172Y0097063D01*
X0124049Y0097146D01*
X0123928Y0097231D01*
X0123810Y0097320D01*
X0123694Y0097412D01*
X0123581Y0097508D01*
X0123470Y0097606D01*
X0123362Y0097707D01*
X0123256Y0097811D01*
X0123154Y0097917D01*
X0123054Y0098027D01*
X0122958Y0098139D01*
X0122864Y0098254D01*
X0122773Y0098371D01*
X0122686Y0098490D01*
X0122602Y0098612D01*
X0122521Y0098736D01*
X0122444Y0098862D01*
X0122370Y0098990D01*
X0122299Y0099120D01*
X0122232Y0099252D01*
X0122169Y0099386D01*
X0122109Y0099521D01*
X0122053Y0099658D01*
X0122000Y0099797D01*
X0121952Y0099937D01*
X0121907Y0100078D01*
X0121866Y0100220D01*
X0121828Y0100363D01*
X0121795Y0100507D01*
X0121765Y0100652D01*
X0121739Y0100798D01*
X0121718Y0100944D01*
X0121700Y0101091D01*
X0121686Y0101238D01*
X0121676Y0101386D01*
X0121670Y0101534D01*
X0121668Y0101682D01*
D12*
X0026239Y0135810D02*
X0025373Y0135810D01*
X0025310Y0135812D01*
X0025247Y0135818D01*
X0025185Y0135827D01*
X0025123Y0135841D01*
X0025062Y0135858D01*
X0025003Y0135879D01*
X0024945Y0135904D01*
X0024888Y0135932D01*
X0024833Y0135964D01*
X0024781Y0135998D01*
X0024730Y0136036D01*
X0024682Y0136078D01*
X0024637Y0136121D01*
X0024595Y0136168D01*
X0024555Y0136217D01*
X0024519Y0136269D01*
X0024485Y0136323D01*
X0024455Y0136378D01*
X0024429Y0136435D01*
X0024406Y0136494D01*
X0024387Y0136554D01*
X0024372Y0136616D01*
X0024360Y0136678D01*
X0024352Y0136740D01*
X0024348Y0136803D01*
X0024348Y0136867D01*
X0024352Y0136930D01*
X0024360Y0136992D01*
X0024372Y0137054D01*
X0024387Y0137116D01*
X0024406Y0137176D01*
X0024429Y0137235D01*
X0024455Y0137292D01*
X0024485Y0137348D01*
X0024519Y0137401D01*
X0024555Y0137453D01*
X0024595Y0137502D01*
X0024637Y0137549D01*
X0024682Y0137592D01*
X0024730Y0137634D01*
X0024781Y0137672D01*
X0024833Y0137706D01*
X0024888Y0137738D01*
X0024945Y0137766D01*
X0025003Y0137791D01*
X0025062Y0137812D01*
X0025123Y0137829D01*
X0025185Y0137843D01*
X0025247Y0137852D01*
X0025310Y0137858D01*
X0025373Y0137860D01*
X0026239Y0137860D01*
X0026302Y0137858D01*
X0026365Y0137852D01*
X0026427Y0137843D01*
X0026489Y0137829D01*
X0026550Y0137812D01*
X0026609Y0137791D01*
X0026667Y0137766D01*
X0026724Y0137738D01*
X0026779Y0137706D01*
X0026831Y0137672D01*
X0026882Y0137634D01*
X0026930Y0137592D01*
X0026975Y0137549D01*
X0027017Y0137502D01*
X0027057Y0137453D01*
X0027093Y0137401D01*
X0027127Y0137348D01*
X0027157Y0137292D01*
X0027183Y0137235D01*
X0027206Y0137176D01*
X0027225Y0137116D01*
X0027240Y0137054D01*
X0027252Y0136992D01*
X0027260Y0136930D01*
X0027264Y0136867D01*
X0027264Y0136803D01*
X0027260Y0136740D01*
X0027252Y0136678D01*
X0027240Y0136616D01*
X0027225Y0136554D01*
X0027206Y0136494D01*
X0027183Y0136435D01*
X0027157Y0136378D01*
X0027127Y0136323D01*
X0027093Y0136269D01*
X0027057Y0136217D01*
X0027017Y0136168D01*
X0026975Y0136121D01*
X0026930Y0136078D01*
X0026882Y0136036D01*
X0026831Y0135998D01*
X0026779Y0135964D01*
X0026724Y0135932D01*
X0026667Y0135904D01*
X0026609Y0135879D01*
X0026550Y0135858D01*
X0026489Y0135841D01*
X0026427Y0135827D01*
X0026365Y0135818D01*
X0026302Y0135812D01*
X0026239Y0135810D01*
X0017023Y0131468D02*
X0013794Y0131468D01*
X0013727Y0131466D01*
X0013659Y0131460D01*
X0013593Y0131451D01*
X0013527Y0131437D01*
X0013461Y0131420D01*
X0013397Y0131399D01*
X0013334Y0131375D01*
X0013273Y0131347D01*
X0013213Y0131315D01*
X0013156Y0131281D01*
X0013100Y0131242D01*
X0013046Y0131201D01*
X0012995Y0131157D01*
X0012947Y0131110D01*
X0012901Y0131060D01*
X0012859Y0131008D01*
X0012819Y0130954D01*
X0012783Y0130897D01*
X0012749Y0130838D01*
X0012720Y0130778D01*
X0012693Y0130715D01*
X0012671Y0130652D01*
X0012652Y0130587D01*
X0012637Y0130522D01*
X0012625Y0130455D01*
X0012617Y0130388D01*
X0012613Y0130321D01*
X0012613Y0130253D01*
X0012617Y0130186D01*
X0012625Y0130119D01*
X0012637Y0130052D01*
X0012652Y0129987D01*
X0012671Y0129922D01*
X0012693Y0129859D01*
X0012720Y0129796D01*
X0012749Y0129736D01*
X0012783Y0129677D01*
X0012819Y0129620D01*
X0012859Y0129566D01*
X0012901Y0129514D01*
X0012947Y0129464D01*
X0012995Y0129417D01*
X0013046Y0129373D01*
X0013100Y0129332D01*
X0013156Y0129293D01*
X0013213Y0129259D01*
X0013273Y0129227D01*
X0013334Y0129199D01*
X0013397Y0129175D01*
X0013461Y0129154D01*
X0013527Y0129137D01*
X0013593Y0129123D01*
X0013659Y0129114D01*
X0013727Y0129108D01*
X0013794Y0129106D01*
X0017023Y0129106D01*
X0017090Y0129108D01*
X0017158Y0129114D01*
X0017224Y0129123D01*
X0017290Y0129137D01*
X0017356Y0129154D01*
X0017420Y0129175D01*
X0017483Y0129199D01*
X0017544Y0129227D01*
X0017604Y0129259D01*
X0017661Y0129293D01*
X0017717Y0129332D01*
X0017771Y0129373D01*
X0017822Y0129417D01*
X0017870Y0129464D01*
X0017916Y0129514D01*
X0017958Y0129566D01*
X0017998Y0129620D01*
X0018034Y0129677D01*
X0018068Y0129736D01*
X0018097Y0129796D01*
X0018124Y0129859D01*
X0018146Y0129922D01*
X0018165Y0129987D01*
X0018180Y0130052D01*
X0018192Y0130119D01*
X0018200Y0130186D01*
X0018204Y0130253D01*
X0018204Y0130321D01*
X0018200Y0130388D01*
X0018192Y0130455D01*
X0018180Y0130522D01*
X0018165Y0130587D01*
X0018146Y0130652D01*
X0018124Y0130715D01*
X0018097Y0130778D01*
X0018068Y0130838D01*
X0018034Y0130897D01*
X0017998Y0130954D01*
X0017958Y0131008D01*
X0017916Y0131060D01*
X0017870Y0131110D01*
X0017822Y0131157D01*
X0017771Y0131201D01*
X0017717Y0131242D01*
X0017661Y0131281D01*
X0017604Y0131315D01*
X0017544Y0131347D01*
X0017483Y0131375D01*
X0017420Y0131399D01*
X0017356Y0131420D01*
X0017290Y0131437D01*
X0017224Y0131451D01*
X0017158Y0131460D01*
X0017090Y0131466D01*
X0017023Y0131468D01*
X0025373Y0154860D02*
X0026239Y0154860D01*
X0026302Y0154862D01*
X0026365Y0154868D01*
X0026427Y0154877D01*
X0026489Y0154891D01*
X0026550Y0154908D01*
X0026609Y0154929D01*
X0026667Y0154954D01*
X0026724Y0154982D01*
X0026779Y0155014D01*
X0026831Y0155048D01*
X0026882Y0155086D01*
X0026930Y0155128D01*
X0026975Y0155171D01*
X0027017Y0155218D01*
X0027057Y0155267D01*
X0027093Y0155319D01*
X0027127Y0155373D01*
X0027157Y0155428D01*
X0027183Y0155485D01*
X0027206Y0155544D01*
X0027225Y0155604D01*
X0027240Y0155666D01*
X0027252Y0155728D01*
X0027260Y0155790D01*
X0027264Y0155853D01*
X0027264Y0155917D01*
X0027260Y0155980D01*
X0027252Y0156042D01*
X0027240Y0156104D01*
X0027225Y0156166D01*
X0027206Y0156226D01*
X0027183Y0156285D01*
X0027157Y0156342D01*
X0027127Y0156398D01*
X0027093Y0156451D01*
X0027057Y0156503D01*
X0027017Y0156552D01*
X0026975Y0156599D01*
X0026930Y0156642D01*
X0026882Y0156684D01*
X0026831Y0156722D01*
X0026779Y0156756D01*
X0026724Y0156788D01*
X0026667Y0156816D01*
X0026609Y0156841D01*
X0026550Y0156862D01*
X0026489Y0156879D01*
X0026427Y0156893D01*
X0026365Y0156902D01*
X0026302Y0156908D01*
X0026239Y0156910D01*
X0025373Y0156910D01*
X0025310Y0156908D01*
X0025247Y0156902D01*
X0025185Y0156893D01*
X0025123Y0156879D01*
X0025062Y0156862D01*
X0025003Y0156841D01*
X0024945Y0156816D01*
X0024888Y0156788D01*
X0024833Y0156756D01*
X0024781Y0156722D01*
X0024730Y0156684D01*
X0024682Y0156642D01*
X0024637Y0156599D01*
X0024595Y0156552D01*
X0024555Y0156503D01*
X0024519Y0156451D01*
X0024485Y0156398D01*
X0024455Y0156342D01*
X0024429Y0156285D01*
X0024406Y0156226D01*
X0024387Y0156166D01*
X0024372Y0156104D01*
X0024360Y0156042D01*
X0024352Y0155980D01*
X0024348Y0155917D01*
X0024348Y0155853D01*
X0024352Y0155790D01*
X0024360Y0155728D01*
X0024372Y0155666D01*
X0024387Y0155604D01*
X0024406Y0155544D01*
X0024429Y0155485D01*
X0024455Y0155428D01*
X0024485Y0155373D01*
X0024519Y0155319D01*
X0024555Y0155267D01*
X0024595Y0155218D01*
X0024637Y0155171D01*
X0024682Y0155128D01*
X0024730Y0155086D01*
X0024781Y0155048D01*
X0024833Y0155014D01*
X0024888Y0154982D01*
X0024945Y0154954D01*
X0025003Y0154929D01*
X0025062Y0154908D01*
X0025123Y0154891D01*
X0025185Y0154877D01*
X0025247Y0154868D01*
X0025310Y0154862D01*
X0025373Y0154860D01*
X0017023Y0161321D02*
X0013794Y0161321D01*
X0013727Y0161323D01*
X0013659Y0161329D01*
X0013593Y0161338D01*
X0013527Y0161352D01*
X0013461Y0161369D01*
X0013397Y0161390D01*
X0013334Y0161414D01*
X0013273Y0161442D01*
X0013213Y0161474D01*
X0013156Y0161508D01*
X0013100Y0161547D01*
X0013046Y0161588D01*
X0012995Y0161632D01*
X0012947Y0161679D01*
X0012901Y0161729D01*
X0012859Y0161781D01*
X0012819Y0161835D01*
X0012783Y0161892D01*
X0012749Y0161951D01*
X0012720Y0162011D01*
X0012693Y0162074D01*
X0012671Y0162137D01*
X0012652Y0162202D01*
X0012637Y0162267D01*
X0012625Y0162334D01*
X0012617Y0162401D01*
X0012613Y0162468D01*
X0012613Y0162536D01*
X0012617Y0162603D01*
X0012625Y0162670D01*
X0012637Y0162737D01*
X0012652Y0162802D01*
X0012671Y0162867D01*
X0012693Y0162930D01*
X0012720Y0162993D01*
X0012749Y0163053D01*
X0012783Y0163112D01*
X0012819Y0163169D01*
X0012859Y0163223D01*
X0012901Y0163275D01*
X0012947Y0163325D01*
X0012995Y0163372D01*
X0013046Y0163416D01*
X0013100Y0163457D01*
X0013156Y0163496D01*
X0013213Y0163530D01*
X0013273Y0163562D01*
X0013334Y0163590D01*
X0013397Y0163614D01*
X0013461Y0163635D01*
X0013527Y0163652D01*
X0013593Y0163666D01*
X0013659Y0163675D01*
X0013727Y0163681D01*
X0013794Y0163683D01*
X0017023Y0163683D01*
X0017090Y0163681D01*
X0017158Y0163675D01*
X0017224Y0163666D01*
X0017290Y0163652D01*
X0017356Y0163635D01*
X0017420Y0163614D01*
X0017483Y0163590D01*
X0017544Y0163562D01*
X0017604Y0163530D01*
X0017661Y0163496D01*
X0017717Y0163457D01*
X0017771Y0163416D01*
X0017822Y0163372D01*
X0017870Y0163325D01*
X0017916Y0163275D01*
X0017958Y0163223D01*
X0017998Y0163169D01*
X0018034Y0163112D01*
X0018068Y0163053D01*
X0018097Y0162993D01*
X0018124Y0162930D01*
X0018146Y0162867D01*
X0018165Y0162802D01*
X0018180Y0162737D01*
X0018192Y0162670D01*
X0018200Y0162603D01*
X0018204Y0162536D01*
X0018204Y0162468D01*
X0018200Y0162401D01*
X0018192Y0162334D01*
X0018180Y0162267D01*
X0018165Y0162202D01*
X0018146Y0162137D01*
X0018124Y0162074D01*
X0018097Y0162011D01*
X0018068Y0161951D01*
X0018034Y0161892D01*
X0017998Y0161835D01*
X0017958Y0161781D01*
X0017916Y0161729D01*
X0017870Y0161679D01*
X0017822Y0161632D01*
X0017771Y0161588D01*
X0017717Y0161547D01*
X0017661Y0161508D01*
X0017604Y0161474D01*
X0017544Y0161442D01*
X0017483Y0161414D01*
X0017420Y0161390D01*
X0017356Y0161369D01*
X0017290Y0161352D01*
X0017224Y0161338D01*
X0017158Y0161329D01*
X0017090Y0161323D01*
X0017023Y0161321D01*
M02*
