G75*
%MOIN*%
%OFA0B0*%
%FSLAX25Y25*%
%IPPOS*%
%LPD*%
%AMOC8*
5,1,8,0,0,1.08239X$1,22.5*
%
%ADD10C,0.01600*%
%ADD11C,0.00000*%
%ADD12OC8,0.08500*%
%ADD13R,0.06000X0.06000*%
%ADD14OC8,0.06000*%
%ADD15C,0.05600*%
%ADD16C,0.16598*%
D10*
X0002849Y0001800D02*
X0199700Y0001800D01*
X0199700Y0198650D01*
X0002849Y0198650D01*
X0002849Y0001800D01*
X0005449Y0004400D02*
X0005449Y0181783D01*
X0005558Y0181674D01*
X0009197Y0180166D01*
X0013135Y0180166D01*
X0016773Y0181674D01*
X0019558Y0184458D01*
X0021065Y0188097D01*
X0021065Y0192035D01*
X0019558Y0195673D01*
X0019181Y0196050D01*
X0183151Y0196050D01*
X0182774Y0195673D01*
X0181267Y0192035D01*
X0181267Y0188097D01*
X0182774Y0184458D01*
X0185558Y0181674D01*
X0189197Y0180166D01*
X0193135Y0180166D01*
X0196773Y0181674D01*
X0197100Y0182000D01*
X0197100Y0134019D01*
X0196615Y0134504D01*
X0194309Y0134504D01*
X0194309Y0128654D01*
X0193909Y0128654D01*
X0193909Y0134504D01*
X0191603Y0134504D01*
X0188059Y0130960D01*
X0188059Y0128654D01*
X0193909Y0128654D01*
X0193909Y0128254D01*
X0188059Y0128254D01*
X0188059Y0125948D01*
X0191603Y0122404D01*
X0193909Y0122404D01*
X0193909Y0128253D01*
X0194309Y0128253D01*
X0194309Y0122404D01*
X0196615Y0122404D01*
X0197100Y0122888D01*
X0197100Y0083342D01*
X0196532Y0083910D01*
X0191686Y0083910D01*
X0188259Y0080483D01*
X0188259Y0075637D01*
X0191686Y0072210D01*
X0196532Y0072210D01*
X0197100Y0072777D01*
X0197100Y0004400D01*
X0005449Y0004400D01*
X0005449Y0004997D02*
X0197100Y0004997D01*
X0197100Y0006596D02*
X0005449Y0006596D01*
X0005449Y0008194D02*
X0197100Y0008194D01*
X0197100Y0009793D02*
X0005449Y0009793D01*
X0005449Y0011391D02*
X0197100Y0011391D01*
X0197100Y0012990D02*
X0005449Y0012990D01*
X0005449Y0014588D02*
X0197100Y0014588D01*
X0197100Y0016187D02*
X0005449Y0016187D01*
X0005449Y0017785D02*
X0197100Y0017785D01*
X0197100Y0019384D02*
X0005449Y0019384D01*
X0005449Y0020982D02*
X0197100Y0020982D01*
X0197100Y0022581D02*
X0005449Y0022581D01*
X0005449Y0024179D02*
X0197100Y0024179D01*
X0197100Y0025778D02*
X0005449Y0025778D01*
X0005449Y0027376D02*
X0197100Y0027376D01*
X0197100Y0028975D02*
X0005449Y0028975D01*
X0005449Y0030573D02*
X0197100Y0030573D01*
X0197100Y0032172D02*
X0005449Y0032172D01*
X0005449Y0033770D02*
X0197100Y0033770D01*
X0197100Y0035369D02*
X0005449Y0035369D01*
X0005449Y0036967D02*
X0197100Y0036967D01*
X0197100Y0038566D02*
X0005449Y0038566D01*
X0005449Y0040164D02*
X0197100Y0040164D01*
X0197100Y0041763D02*
X0005449Y0041763D01*
X0005449Y0043361D02*
X0197100Y0043361D01*
X0197100Y0044960D02*
X0005449Y0044960D01*
X0005449Y0046558D02*
X0197100Y0046558D01*
X0197100Y0048157D02*
X0005449Y0048157D01*
X0005449Y0049755D02*
X0197100Y0049755D01*
X0197100Y0051354D02*
X0005449Y0051354D01*
X0005449Y0052952D02*
X0197100Y0052952D01*
X0197100Y0054551D02*
X0005449Y0054551D01*
X0005449Y0056149D02*
X0197100Y0056149D01*
X0197100Y0057748D02*
X0005449Y0057748D01*
X0005449Y0059346D02*
X0197100Y0059346D01*
X0197100Y0060945D02*
X0005449Y0060945D01*
X0005449Y0062543D02*
X0197100Y0062543D01*
X0197100Y0064142D02*
X0005449Y0064142D01*
X0005449Y0065740D02*
X0197100Y0065740D01*
X0197100Y0067339D02*
X0005449Y0067339D01*
X0005449Y0068937D02*
X0197100Y0068937D01*
X0197100Y0070536D02*
X0005449Y0070536D01*
X0005449Y0072134D02*
X0197100Y0072134D01*
X0190163Y0073733D02*
X0005449Y0073733D01*
X0005449Y0075332D02*
X0188565Y0075332D01*
X0188259Y0076930D02*
X0005449Y0076930D01*
X0005449Y0078529D02*
X0188259Y0078529D01*
X0188259Y0080127D02*
X0005449Y0080127D01*
X0005449Y0081726D02*
X0189502Y0081726D01*
X0191100Y0083324D02*
X0005449Y0083324D01*
X0005449Y0084923D02*
X0197100Y0084923D01*
X0197100Y0086521D02*
X0005449Y0086521D01*
X0005449Y0088120D02*
X0197100Y0088120D01*
X0197100Y0089718D02*
X0005449Y0089718D01*
X0005449Y0091317D02*
X0197100Y0091317D01*
X0197100Y0092915D02*
X0005449Y0092915D01*
X0005449Y0094514D02*
X0125379Y0094514D01*
X0125726Y0094370D02*
X0128635Y0094370D01*
X0131322Y0095483D01*
X0133379Y0097540D01*
X0134492Y0100227D01*
X0134492Y0103136D01*
X0133379Y0105824D01*
X0131322Y0107881D01*
X0128635Y0108994D01*
X0125726Y0108994D01*
X0123038Y0107881D01*
X0120982Y0105824D01*
X0119868Y0103136D01*
X0119868Y0100227D01*
X0120982Y0097540D01*
X0123038Y0095483D01*
X0125726Y0094370D01*
X0128981Y0094514D02*
X0197100Y0094514D01*
X0197100Y0096112D02*
X0131951Y0096112D01*
X0133450Y0097711D02*
X0197100Y0097711D01*
X0197100Y0099309D02*
X0134112Y0099309D01*
X0134492Y0100908D02*
X0197100Y0100908D01*
X0197100Y0102506D02*
X0134492Y0102506D01*
X0134091Y0104105D02*
X0197100Y0104105D01*
X0197100Y0105703D02*
X0133429Y0105703D01*
X0131901Y0107302D02*
X0197100Y0107302D01*
X0197100Y0108900D02*
X0128860Y0108900D01*
X0125500Y0108900D02*
X0024542Y0108900D01*
X0024380Y0109292D02*
X0023142Y0110530D01*
X0021525Y0111200D01*
X0014174Y0111200D01*
X0012557Y0110530D01*
X0011319Y0109292D01*
X0010649Y0107675D01*
X0010649Y0105925D01*
X0011319Y0104308D01*
X0012557Y0103070D01*
X0014174Y0102400D01*
X0021525Y0102400D01*
X0023142Y0103070D01*
X0024380Y0104308D01*
X0025049Y0105925D01*
X0025049Y0107675D01*
X0024380Y0109292D01*
X0023173Y0110499D02*
X0197100Y0110499D01*
X0197100Y0112097D02*
X0005449Y0112097D01*
X0005449Y0110499D02*
X0012526Y0110499D01*
X0011157Y0108900D02*
X0005449Y0108900D01*
X0005449Y0107302D02*
X0010649Y0107302D01*
X0010741Y0105703D02*
X0005449Y0105703D01*
X0005449Y0104105D02*
X0011522Y0104105D01*
X0013918Y0102506D02*
X0005449Y0102506D01*
X0005449Y0100908D02*
X0119868Y0100908D01*
X0119868Y0102506D02*
X0021781Y0102506D01*
X0024177Y0104105D02*
X0120270Y0104105D01*
X0120932Y0105703D02*
X0024958Y0105703D01*
X0025049Y0107302D02*
X0122460Y0107302D01*
X0120249Y0099309D02*
X0005449Y0099309D01*
X0005449Y0097711D02*
X0120911Y0097711D01*
X0122409Y0096112D02*
X0005449Y0096112D01*
X0005449Y0113696D02*
X0011931Y0113696D01*
X0011319Y0114308D02*
X0012557Y0113070D01*
X0014174Y0112400D01*
X0021525Y0112400D01*
X0023142Y0113070D01*
X0024380Y0114308D01*
X0025049Y0115925D01*
X0025049Y0117675D01*
X0024380Y0119292D01*
X0023142Y0120530D01*
X0021525Y0121200D01*
X0014174Y0121200D01*
X0012557Y0120530D01*
X0011319Y0119292D01*
X0010649Y0117675D01*
X0010649Y0115925D01*
X0011319Y0114308D01*
X0010911Y0115294D02*
X0005449Y0115294D01*
X0005449Y0116893D02*
X0010649Y0116893D01*
X0010988Y0118491D02*
X0005449Y0118491D01*
X0005449Y0120090D02*
X0012117Y0120090D01*
X0005449Y0121688D02*
X0197100Y0121688D01*
X0197100Y0120090D02*
X0023582Y0120090D01*
X0024711Y0118491D02*
X0197100Y0118491D01*
X0197100Y0116893D02*
X0025049Y0116893D01*
X0024788Y0115294D02*
X0197100Y0115294D01*
X0197100Y0113696D02*
X0023768Y0113696D01*
X0005449Y0123287D02*
X0190720Y0123287D01*
X0189122Y0124885D02*
X0005449Y0124885D01*
X0005449Y0126484D02*
X0188059Y0126484D01*
X0188059Y0128082D02*
X0005449Y0128082D01*
X0005449Y0129681D02*
X0188059Y0129681D01*
X0188379Y0131279D02*
X0005449Y0131279D01*
X0005449Y0132878D02*
X0189978Y0132878D01*
X0191576Y0134476D02*
X0005449Y0134476D01*
X0005449Y0136075D02*
X0197100Y0136075D01*
X0197100Y0137673D02*
X0005449Y0137673D01*
X0005449Y0139272D02*
X0197100Y0139272D01*
X0197100Y0140870D02*
X0005449Y0140870D01*
X0005449Y0142469D02*
X0197100Y0142469D01*
X0197100Y0144068D02*
X0005449Y0144068D01*
X0005449Y0145666D02*
X0197100Y0145666D01*
X0197100Y0147265D02*
X0005449Y0147265D01*
X0005449Y0148863D02*
X0197100Y0148863D01*
X0197100Y0150462D02*
X0005449Y0150462D01*
X0005449Y0152060D02*
X0197100Y0152060D01*
X0197100Y0153659D02*
X0005449Y0153659D01*
X0005449Y0155257D02*
X0197100Y0155257D01*
X0197100Y0156856D02*
X0005449Y0156856D01*
X0005449Y0158454D02*
X0197100Y0158454D01*
X0197100Y0160053D02*
X0005449Y0160053D01*
X0005449Y0161651D02*
X0197100Y0161651D01*
X0197100Y0163250D02*
X0005449Y0163250D01*
X0005449Y0164848D02*
X0197100Y0164848D01*
X0197100Y0166447D02*
X0005449Y0166447D01*
X0005449Y0168045D02*
X0197100Y0168045D01*
X0197100Y0169644D02*
X0005449Y0169644D01*
X0005449Y0171242D02*
X0197100Y0171242D01*
X0197100Y0172841D02*
X0101013Y0172841D01*
X0100901Y0172728D02*
X0103712Y0175540D01*
X0103712Y0177328D01*
X0099113Y0177328D01*
X0099113Y0177728D01*
X0103712Y0177728D01*
X0103712Y0179517D01*
X0100901Y0182328D01*
X0099112Y0182328D01*
X0099112Y0177728D01*
X0098712Y0177728D01*
X0098712Y0177328D01*
X0094112Y0177328D01*
X0094112Y0175540D01*
X0096924Y0172728D01*
X0098712Y0172728D01*
X0098712Y0177328D01*
X0099112Y0177328D01*
X0099112Y0172728D01*
X0100901Y0172728D01*
X0099112Y0172841D02*
X0098712Y0172841D01*
X0098712Y0174439D02*
X0099112Y0174439D01*
X0099112Y0176038D02*
X0098712Y0176038D01*
X0098712Y0177636D02*
X0093512Y0177636D01*
X0094112Y0177728D02*
X0098712Y0177728D01*
X0098712Y0182328D01*
X0096924Y0182328D01*
X0094112Y0179517D01*
X0094112Y0177728D01*
X0094112Y0179235D02*
X0093512Y0179235D01*
X0093512Y0179434D02*
X0090818Y0182128D01*
X0087007Y0182128D01*
X0084312Y0179434D01*
X0084312Y0175623D01*
X0087007Y0172928D01*
X0090818Y0172928D01*
X0093512Y0175623D01*
X0093512Y0179434D01*
X0092113Y0180833D02*
X0095429Y0180833D01*
X0097007Y0182928D02*
X0100818Y0182928D01*
X0103512Y0185623D01*
X0103512Y0189434D01*
X0100818Y0192128D01*
X0097007Y0192128D01*
X0094312Y0189434D01*
X0094312Y0185623D01*
X0097007Y0182928D01*
X0095905Y0184030D02*
X0091920Y0184030D01*
X0090818Y0182928D02*
X0093512Y0185623D01*
X0093512Y0189434D01*
X0090818Y0192128D01*
X0087007Y0192128D01*
X0084312Y0189434D01*
X0084312Y0185623D01*
X0087007Y0182928D01*
X0090818Y0182928D01*
X0093512Y0185629D02*
X0094312Y0185629D01*
X0094312Y0187227D02*
X0093512Y0187227D01*
X0093512Y0188826D02*
X0094312Y0188826D01*
X0095303Y0190424D02*
X0092522Y0190424D01*
X0090923Y0192023D02*
X0096902Y0192023D01*
X0100923Y0192023D02*
X0106902Y0192023D01*
X0107007Y0192128D02*
X0104312Y0189434D01*
X0104312Y0185623D01*
X0107007Y0182928D01*
X0110818Y0182928D01*
X0113512Y0185623D01*
X0113512Y0189434D01*
X0110818Y0192128D01*
X0107007Y0192128D01*
X0105303Y0190424D02*
X0102522Y0190424D01*
X0103512Y0188826D02*
X0104312Y0188826D01*
X0104312Y0187227D02*
X0103512Y0187227D01*
X0103512Y0185629D02*
X0104312Y0185629D01*
X0105905Y0184030D02*
X0101920Y0184030D01*
X0102396Y0180833D02*
X0105712Y0180833D01*
X0107007Y0182128D02*
X0104312Y0179434D01*
X0104312Y0175623D01*
X0107007Y0172928D01*
X0110818Y0172928D01*
X0113512Y0175623D01*
X0113512Y0179434D01*
X0110818Y0182128D01*
X0107007Y0182128D01*
X0104312Y0179235D02*
X0103712Y0179235D01*
X0104312Y0177636D02*
X0099113Y0177636D01*
X0099112Y0179235D02*
X0098712Y0179235D01*
X0098712Y0180833D02*
X0099112Y0180833D01*
X0103712Y0176038D02*
X0104312Y0176038D01*
X0105496Y0174439D02*
X0102612Y0174439D01*
X0096812Y0172841D02*
X0081013Y0172841D01*
X0080901Y0172728D02*
X0083712Y0175540D01*
X0083712Y0177328D01*
X0079113Y0177328D01*
X0079113Y0177728D01*
X0083712Y0177728D01*
X0083712Y0179517D01*
X0080901Y0182328D01*
X0079112Y0182328D01*
X0079112Y0177728D01*
X0078712Y0177728D01*
X0078712Y0177328D01*
X0074112Y0177328D01*
X0074112Y0175540D01*
X0076924Y0172728D01*
X0078712Y0172728D01*
X0078712Y0177328D01*
X0079112Y0177328D01*
X0079112Y0172728D01*
X0080901Y0172728D01*
X0079112Y0172841D02*
X0078712Y0172841D01*
X0078712Y0174439D02*
X0079112Y0174439D01*
X0079112Y0176038D02*
X0078712Y0176038D01*
X0078712Y0177636D02*
X0069113Y0177636D01*
X0069113Y0177728D02*
X0073712Y0177728D01*
X0073712Y0179517D01*
X0070901Y0182328D01*
X0069112Y0182328D01*
X0069112Y0177728D01*
X0068712Y0177728D01*
X0068712Y0177328D01*
X0064112Y0177328D01*
X0064112Y0175540D01*
X0066924Y0172728D01*
X0068712Y0172728D01*
X0068712Y0177328D01*
X0069112Y0177328D01*
X0069112Y0172728D01*
X0070901Y0172728D01*
X0073712Y0175540D01*
X0073712Y0177328D01*
X0069113Y0177328D01*
X0069113Y0177728D01*
X0068712Y0177728D02*
X0068712Y0182328D01*
X0066924Y0182328D01*
X0064112Y0179517D01*
X0064112Y0177728D01*
X0068712Y0177728D01*
X0068712Y0177636D02*
X0063512Y0177636D01*
X0063512Y0176038D02*
X0064112Y0176038D01*
X0063512Y0175623D02*
X0060818Y0172928D01*
X0057007Y0172928D01*
X0054312Y0175623D01*
X0054312Y0179434D01*
X0057007Y0182128D01*
X0060818Y0182128D01*
X0063512Y0179434D01*
X0063512Y0175623D01*
X0062329Y0174439D02*
X0065213Y0174439D01*
X0066812Y0172841D02*
X0005449Y0172841D01*
X0005449Y0174439D02*
X0025496Y0174439D01*
X0024312Y0175623D02*
X0027007Y0172928D01*
X0030818Y0172928D01*
X0033512Y0175623D01*
X0033512Y0179434D01*
X0030818Y0182128D01*
X0027007Y0182128D01*
X0024312Y0179434D01*
X0024312Y0175623D01*
X0024312Y0176038D02*
X0005449Y0176038D01*
X0005449Y0177636D02*
X0024312Y0177636D01*
X0024312Y0179235D02*
X0005449Y0179235D01*
X0005449Y0180833D02*
X0007587Y0180833D01*
X0014745Y0180833D02*
X0025712Y0180833D01*
X0027007Y0182928D02*
X0030818Y0182928D01*
X0033512Y0185623D01*
X0033512Y0189434D01*
X0030818Y0192128D01*
X0027007Y0192128D01*
X0024312Y0189434D01*
X0024312Y0185623D01*
X0027007Y0182928D01*
X0025905Y0184030D02*
X0019130Y0184030D01*
X0020043Y0185629D02*
X0024312Y0185629D01*
X0024312Y0187227D02*
X0020705Y0187227D01*
X0021065Y0188826D02*
X0024312Y0188826D01*
X0025303Y0190424D02*
X0021065Y0190424D01*
X0021065Y0192023D02*
X0026902Y0192023D01*
X0030923Y0192023D02*
X0036902Y0192023D01*
X0037007Y0192128D02*
X0034312Y0189434D01*
X0034312Y0185623D01*
X0037007Y0182928D01*
X0040818Y0182928D01*
X0043512Y0185623D01*
X0043512Y0189434D01*
X0040818Y0192128D01*
X0037007Y0192128D01*
X0035303Y0190424D02*
X0032522Y0190424D01*
X0033512Y0188826D02*
X0034312Y0188826D01*
X0034312Y0187227D02*
X0033512Y0187227D01*
X0033512Y0185629D02*
X0034312Y0185629D01*
X0035905Y0184030D02*
X0031920Y0184030D01*
X0032113Y0180833D02*
X0035712Y0180833D01*
X0037007Y0182128D02*
X0034312Y0179434D01*
X0034312Y0175623D01*
X0037007Y0172928D01*
X0040818Y0172928D01*
X0043512Y0175623D01*
X0043512Y0179434D01*
X0040818Y0182128D01*
X0037007Y0182128D01*
X0034312Y0179235D02*
X0033512Y0179235D01*
X0033512Y0177636D02*
X0034312Y0177636D01*
X0034312Y0176038D02*
X0033512Y0176038D01*
X0032329Y0174439D02*
X0035496Y0174439D01*
X0042113Y0180833D02*
X0045712Y0180833D01*
X0047007Y0182128D02*
X0044312Y0179434D01*
X0044312Y0175623D01*
X0047007Y0172928D01*
X0050818Y0172928D01*
X0053512Y0175623D01*
X0053512Y0179434D01*
X0050818Y0182128D01*
X0047007Y0182128D01*
X0047007Y0182928D02*
X0050818Y0182928D01*
X0053512Y0185623D01*
X0053512Y0189434D01*
X0050818Y0192128D01*
X0047007Y0192128D01*
X0044312Y0189434D01*
X0044312Y0185623D01*
X0047007Y0182928D01*
X0045905Y0184030D02*
X0041920Y0184030D01*
X0043512Y0185629D02*
X0044312Y0185629D01*
X0044312Y0187227D02*
X0043512Y0187227D01*
X0043512Y0188826D02*
X0044312Y0188826D01*
X0045303Y0190424D02*
X0042522Y0190424D01*
X0040923Y0192023D02*
X0046902Y0192023D01*
X0050923Y0192023D02*
X0056902Y0192023D01*
X0057007Y0192128D02*
X0054312Y0189434D01*
X0054312Y0185623D01*
X0057007Y0182928D01*
X0060818Y0182928D01*
X0063512Y0185623D01*
X0063512Y0189434D01*
X0060818Y0192128D01*
X0057007Y0192128D01*
X0055303Y0190424D02*
X0052522Y0190424D01*
X0053512Y0188826D02*
X0054312Y0188826D01*
X0054312Y0187227D02*
X0053512Y0187227D01*
X0053512Y0185629D02*
X0054312Y0185629D01*
X0055905Y0184030D02*
X0051920Y0184030D01*
X0052113Y0180833D02*
X0055712Y0180833D01*
X0054312Y0179235D02*
X0053512Y0179235D01*
X0053512Y0177636D02*
X0054312Y0177636D01*
X0054312Y0176038D02*
X0053512Y0176038D01*
X0052329Y0174439D02*
X0055496Y0174439D01*
X0062113Y0180833D02*
X0065429Y0180833D01*
X0064112Y0179235D02*
X0063512Y0179235D01*
X0061920Y0184030D02*
X0065905Y0184030D01*
X0067007Y0182928D02*
X0064312Y0185623D01*
X0064312Y0189434D01*
X0067007Y0192128D01*
X0070818Y0192128D01*
X0073512Y0189434D01*
X0073512Y0185623D01*
X0070818Y0182928D01*
X0067007Y0182928D01*
X0068712Y0180833D02*
X0069112Y0180833D01*
X0069112Y0179235D02*
X0068712Y0179235D01*
X0072396Y0180833D02*
X0075429Y0180833D01*
X0074112Y0179517D02*
X0074112Y0177728D01*
X0078712Y0177728D01*
X0078712Y0182328D01*
X0076924Y0182328D01*
X0074112Y0179517D01*
X0074112Y0179235D02*
X0073712Y0179235D01*
X0073712Y0176038D02*
X0074112Y0176038D01*
X0075213Y0174439D02*
X0072612Y0174439D01*
X0071013Y0172841D02*
X0076812Y0172841D01*
X0079113Y0177636D02*
X0084312Y0177636D01*
X0084312Y0176038D02*
X0083712Y0176038D01*
X0082612Y0174439D02*
X0085496Y0174439D01*
X0084312Y0179235D02*
X0083712Y0179235D01*
X0082396Y0180833D02*
X0085712Y0180833D01*
X0085905Y0184030D02*
X0081920Y0184030D01*
X0080818Y0182928D02*
X0083512Y0185623D01*
X0083512Y0189434D01*
X0080818Y0192128D01*
X0077007Y0192128D01*
X0074312Y0189434D01*
X0074312Y0185623D01*
X0077007Y0182928D01*
X0080818Y0182928D01*
X0079112Y0180833D02*
X0078712Y0180833D01*
X0078712Y0179235D02*
X0079112Y0179235D01*
X0075905Y0184030D02*
X0071920Y0184030D01*
X0073512Y0185629D02*
X0074312Y0185629D01*
X0074312Y0187227D02*
X0073512Y0187227D01*
X0073512Y0188826D02*
X0074312Y0188826D01*
X0075303Y0190424D02*
X0072522Y0190424D01*
X0070923Y0192023D02*
X0076902Y0192023D01*
X0080923Y0192023D02*
X0086902Y0192023D01*
X0085303Y0190424D02*
X0082522Y0190424D01*
X0083512Y0188826D02*
X0084312Y0188826D01*
X0084312Y0187227D02*
X0083512Y0187227D01*
X0083512Y0185629D02*
X0084312Y0185629D01*
X0093512Y0176038D02*
X0094112Y0176038D01*
X0095213Y0174439D02*
X0092329Y0174439D01*
X0112329Y0174439D02*
X0115496Y0174439D01*
X0114312Y0175623D02*
X0117007Y0172928D01*
X0120818Y0172928D01*
X0123512Y0175623D01*
X0123512Y0179434D01*
X0120818Y0182128D01*
X0117007Y0182128D01*
X0114312Y0179434D01*
X0114312Y0175623D01*
X0114312Y0176038D02*
X0113512Y0176038D01*
X0113512Y0177636D02*
X0114312Y0177636D01*
X0114312Y0179235D02*
X0113512Y0179235D01*
X0112113Y0180833D02*
X0115712Y0180833D01*
X0115250Y0182928D02*
X0114312Y0183866D01*
X0114312Y0191191D01*
X0115250Y0192128D01*
X0122575Y0192128D01*
X0123512Y0191191D01*
X0123512Y0183866D01*
X0122575Y0182928D01*
X0115250Y0182928D01*
X0114312Y0184030D02*
X0111920Y0184030D01*
X0113512Y0185629D02*
X0114312Y0185629D01*
X0114312Y0187227D02*
X0113512Y0187227D01*
X0113512Y0188826D02*
X0114312Y0188826D01*
X0114312Y0190424D02*
X0112522Y0190424D01*
X0110923Y0192023D02*
X0115144Y0192023D01*
X0122681Y0192023D02*
X0181267Y0192023D01*
X0181267Y0190424D02*
X0123512Y0190424D01*
X0123512Y0188826D02*
X0181267Y0188826D01*
X0181627Y0187227D02*
X0123512Y0187227D01*
X0123512Y0185629D02*
X0182289Y0185629D01*
X0183202Y0184030D02*
X0123512Y0184030D01*
X0122113Y0180833D02*
X0187587Y0180833D01*
X0184800Y0182432D02*
X0017532Y0182432D01*
X0020408Y0193621D02*
X0181924Y0193621D01*
X0182586Y0195220D02*
X0019746Y0195220D01*
X0043512Y0179235D02*
X0044312Y0179235D01*
X0044312Y0177636D02*
X0043512Y0177636D01*
X0043512Y0176038D02*
X0044312Y0176038D01*
X0045496Y0174439D02*
X0042329Y0174439D01*
X0060923Y0192023D02*
X0066902Y0192023D01*
X0065303Y0190424D02*
X0062522Y0190424D01*
X0063512Y0188826D02*
X0064312Y0188826D01*
X0064312Y0187227D02*
X0063512Y0187227D01*
X0063512Y0185629D02*
X0064312Y0185629D01*
X0068712Y0176038D02*
X0069112Y0176038D01*
X0069112Y0174439D02*
X0068712Y0174439D01*
X0068712Y0172841D02*
X0069112Y0172841D01*
X0122329Y0174439D02*
X0197100Y0174439D01*
X0197100Y0176038D02*
X0123512Y0176038D01*
X0123512Y0177636D02*
X0197100Y0177636D01*
X0197100Y0179235D02*
X0123512Y0179235D01*
X0194745Y0180833D02*
X0197100Y0180833D01*
X0197100Y0134476D02*
X0196642Y0134476D01*
X0194309Y0134476D02*
X0193909Y0134476D01*
X0193909Y0132878D02*
X0194309Y0132878D01*
X0194309Y0131279D02*
X0193909Y0131279D01*
X0193909Y0129681D02*
X0194309Y0129681D01*
X0194309Y0128082D02*
X0193909Y0128082D01*
X0193909Y0126484D02*
X0194309Y0126484D01*
X0194309Y0124885D02*
X0193909Y0124885D01*
X0193909Y0123287D02*
X0194309Y0123287D01*
D11*
X0121668Y0101682D02*
X0121670Y0101830D01*
X0121676Y0101978D01*
X0121686Y0102126D01*
X0121700Y0102273D01*
X0121718Y0102420D01*
X0121739Y0102566D01*
X0121765Y0102712D01*
X0121795Y0102857D01*
X0121828Y0103001D01*
X0121866Y0103144D01*
X0121907Y0103286D01*
X0121952Y0103427D01*
X0122000Y0103567D01*
X0122053Y0103706D01*
X0122109Y0103843D01*
X0122169Y0103978D01*
X0122232Y0104112D01*
X0122299Y0104244D01*
X0122370Y0104374D01*
X0122444Y0104502D01*
X0122521Y0104628D01*
X0122602Y0104752D01*
X0122686Y0104874D01*
X0122773Y0104993D01*
X0122864Y0105110D01*
X0122958Y0105225D01*
X0123054Y0105337D01*
X0123154Y0105447D01*
X0123256Y0105553D01*
X0123362Y0105657D01*
X0123470Y0105758D01*
X0123581Y0105856D01*
X0123694Y0105952D01*
X0123810Y0106044D01*
X0123928Y0106133D01*
X0124049Y0106218D01*
X0124172Y0106301D01*
X0124297Y0106380D01*
X0124424Y0106456D01*
X0124553Y0106528D01*
X0124684Y0106597D01*
X0124817Y0106662D01*
X0124952Y0106723D01*
X0125088Y0106781D01*
X0125225Y0106836D01*
X0125364Y0106886D01*
X0125505Y0106933D01*
X0125646Y0106976D01*
X0125789Y0107016D01*
X0125933Y0107051D01*
X0126077Y0107083D01*
X0126223Y0107110D01*
X0126369Y0107134D01*
X0126516Y0107154D01*
X0126663Y0107170D01*
X0126810Y0107182D01*
X0126958Y0107190D01*
X0127106Y0107194D01*
X0127254Y0107194D01*
X0127402Y0107190D01*
X0127550Y0107182D01*
X0127697Y0107170D01*
X0127844Y0107154D01*
X0127991Y0107134D01*
X0128137Y0107110D01*
X0128283Y0107083D01*
X0128427Y0107051D01*
X0128571Y0107016D01*
X0128714Y0106976D01*
X0128855Y0106933D01*
X0128996Y0106886D01*
X0129135Y0106836D01*
X0129272Y0106781D01*
X0129408Y0106723D01*
X0129543Y0106662D01*
X0129676Y0106597D01*
X0129807Y0106528D01*
X0129936Y0106456D01*
X0130063Y0106380D01*
X0130188Y0106301D01*
X0130311Y0106218D01*
X0130432Y0106133D01*
X0130550Y0106044D01*
X0130666Y0105952D01*
X0130779Y0105856D01*
X0130890Y0105758D01*
X0130998Y0105657D01*
X0131104Y0105553D01*
X0131206Y0105447D01*
X0131306Y0105337D01*
X0131402Y0105225D01*
X0131496Y0105110D01*
X0131587Y0104993D01*
X0131674Y0104874D01*
X0131758Y0104752D01*
X0131839Y0104628D01*
X0131916Y0104502D01*
X0131990Y0104374D01*
X0132061Y0104244D01*
X0132128Y0104112D01*
X0132191Y0103978D01*
X0132251Y0103843D01*
X0132307Y0103706D01*
X0132360Y0103567D01*
X0132408Y0103427D01*
X0132453Y0103286D01*
X0132494Y0103144D01*
X0132532Y0103001D01*
X0132565Y0102857D01*
X0132595Y0102712D01*
X0132621Y0102566D01*
X0132642Y0102420D01*
X0132660Y0102273D01*
X0132674Y0102126D01*
X0132684Y0101978D01*
X0132690Y0101830D01*
X0132692Y0101682D01*
X0132690Y0101534D01*
X0132684Y0101386D01*
X0132674Y0101238D01*
X0132660Y0101091D01*
X0132642Y0100944D01*
X0132621Y0100798D01*
X0132595Y0100652D01*
X0132565Y0100507D01*
X0132532Y0100363D01*
X0132494Y0100220D01*
X0132453Y0100078D01*
X0132408Y0099937D01*
X0132360Y0099797D01*
X0132307Y0099658D01*
X0132251Y0099521D01*
X0132191Y0099386D01*
X0132128Y0099252D01*
X0132061Y0099120D01*
X0131990Y0098990D01*
X0131916Y0098862D01*
X0131839Y0098736D01*
X0131758Y0098612D01*
X0131674Y0098490D01*
X0131587Y0098371D01*
X0131496Y0098254D01*
X0131402Y0098139D01*
X0131306Y0098027D01*
X0131206Y0097917D01*
X0131104Y0097811D01*
X0130998Y0097707D01*
X0130890Y0097606D01*
X0130779Y0097508D01*
X0130666Y0097412D01*
X0130550Y0097320D01*
X0130432Y0097231D01*
X0130311Y0097146D01*
X0130188Y0097063D01*
X0130063Y0096984D01*
X0129936Y0096908D01*
X0129807Y0096836D01*
X0129676Y0096767D01*
X0129543Y0096702D01*
X0129408Y0096641D01*
X0129272Y0096583D01*
X0129135Y0096528D01*
X0128996Y0096478D01*
X0128855Y0096431D01*
X0128714Y0096388D01*
X0128571Y0096348D01*
X0128427Y0096313D01*
X0128283Y0096281D01*
X0128137Y0096254D01*
X0127991Y0096230D01*
X0127844Y0096210D01*
X0127697Y0096194D01*
X0127550Y0096182D01*
X0127402Y0096174D01*
X0127254Y0096170D01*
X0127106Y0096170D01*
X0126958Y0096174D01*
X0126810Y0096182D01*
X0126663Y0096194D01*
X0126516Y0096210D01*
X0126369Y0096230D01*
X0126223Y0096254D01*
X0126077Y0096281D01*
X0125933Y0096313D01*
X0125789Y0096348D01*
X0125646Y0096388D01*
X0125505Y0096431D01*
X0125364Y0096478D01*
X0125225Y0096528D01*
X0125088Y0096583D01*
X0124952Y0096641D01*
X0124817Y0096702D01*
X0124684Y0096767D01*
X0124553Y0096836D01*
X0124424Y0096908D01*
X0124297Y0096984D01*
X0124172Y0097063D01*
X0124049Y0097146D01*
X0123928Y0097231D01*
X0123810Y0097320D01*
X0123694Y0097412D01*
X0123581Y0097508D01*
X0123470Y0097606D01*
X0123362Y0097707D01*
X0123256Y0097811D01*
X0123154Y0097917D01*
X0123054Y0098027D01*
X0122958Y0098139D01*
X0122864Y0098254D01*
X0122773Y0098371D01*
X0122686Y0098490D01*
X0122602Y0098612D01*
X0122521Y0098736D01*
X0122444Y0098862D01*
X0122370Y0098990D01*
X0122299Y0099120D01*
X0122232Y0099252D01*
X0122169Y0099386D01*
X0122109Y0099521D01*
X0122053Y0099658D01*
X0122000Y0099797D01*
X0121952Y0099937D01*
X0121907Y0100078D01*
X0121866Y0100220D01*
X0121828Y0100363D01*
X0121795Y0100507D01*
X0121765Y0100652D01*
X0121739Y0100798D01*
X0121718Y0100944D01*
X0121700Y0101091D01*
X0121686Y0101238D01*
X0121676Y0101386D01*
X0121670Y0101534D01*
X0121668Y0101682D01*
D12*
X0194109Y0078060D03*
X0194109Y0128454D03*
D13*
X0118912Y0187528D03*
D14*
X0108912Y0187528D03*
X0098912Y0187528D03*
X0088912Y0187528D03*
X0078912Y0187528D03*
X0068912Y0187528D03*
X0058912Y0187528D03*
X0048912Y0187528D03*
X0038912Y0187528D03*
X0028912Y0187528D03*
X0028912Y0177528D03*
X0038912Y0177528D03*
X0048912Y0177528D03*
X0058912Y0177528D03*
X0068912Y0177528D03*
X0078912Y0177528D03*
X0088912Y0177528D03*
X0098912Y0177528D03*
X0108912Y0177528D03*
X0118912Y0177528D03*
D15*
X0020649Y0116800D02*
X0015049Y0116800D01*
X0015049Y0106800D02*
X0020649Y0106800D01*
D16*
X0011166Y0190066D03*
X0191166Y0190066D03*
X0191166Y0010066D03*
X0011166Y0010066D03*
M02*
