G75*
%MOIN*%
%OFA0B0*%
%FSLAX25Y25*%
%IPPOS*%
%LPD*%
%AMOC8*
5,1,8,0,0,1.08239X$1,22.5*
%
%ADD10C,0.01600*%
%ADD11C,0.00000*%
%ADD12C,0.11424*%
%ADD13OC8,0.08900*%
%ADD14R,0.06400X0.06400*%
%ADD15OC8,0.06400*%
%ADD16C,0.06000*%
%ADD17C,0.16998*%
D10*
X0002849Y0001800D02*
X0199700Y0001800D01*
X0199700Y0198650D01*
X0002849Y0198650D01*
X0002849Y0001800D01*
D11*
X0121668Y0101682D02*
X0121670Y0101830D01*
X0121676Y0101978D01*
X0121686Y0102126D01*
X0121700Y0102273D01*
X0121718Y0102420D01*
X0121739Y0102566D01*
X0121765Y0102712D01*
X0121795Y0102857D01*
X0121828Y0103001D01*
X0121866Y0103144D01*
X0121907Y0103286D01*
X0121952Y0103427D01*
X0122000Y0103567D01*
X0122053Y0103706D01*
X0122109Y0103843D01*
X0122169Y0103978D01*
X0122232Y0104112D01*
X0122299Y0104244D01*
X0122370Y0104374D01*
X0122444Y0104502D01*
X0122521Y0104628D01*
X0122602Y0104752D01*
X0122686Y0104874D01*
X0122773Y0104993D01*
X0122864Y0105110D01*
X0122958Y0105225D01*
X0123054Y0105337D01*
X0123154Y0105447D01*
X0123256Y0105553D01*
X0123362Y0105657D01*
X0123470Y0105758D01*
X0123581Y0105856D01*
X0123694Y0105952D01*
X0123810Y0106044D01*
X0123928Y0106133D01*
X0124049Y0106218D01*
X0124172Y0106301D01*
X0124297Y0106380D01*
X0124424Y0106456D01*
X0124553Y0106528D01*
X0124684Y0106597D01*
X0124817Y0106662D01*
X0124952Y0106723D01*
X0125088Y0106781D01*
X0125225Y0106836D01*
X0125364Y0106886D01*
X0125505Y0106933D01*
X0125646Y0106976D01*
X0125789Y0107016D01*
X0125933Y0107051D01*
X0126077Y0107083D01*
X0126223Y0107110D01*
X0126369Y0107134D01*
X0126516Y0107154D01*
X0126663Y0107170D01*
X0126810Y0107182D01*
X0126958Y0107190D01*
X0127106Y0107194D01*
X0127254Y0107194D01*
X0127402Y0107190D01*
X0127550Y0107182D01*
X0127697Y0107170D01*
X0127844Y0107154D01*
X0127991Y0107134D01*
X0128137Y0107110D01*
X0128283Y0107083D01*
X0128427Y0107051D01*
X0128571Y0107016D01*
X0128714Y0106976D01*
X0128855Y0106933D01*
X0128996Y0106886D01*
X0129135Y0106836D01*
X0129272Y0106781D01*
X0129408Y0106723D01*
X0129543Y0106662D01*
X0129676Y0106597D01*
X0129807Y0106528D01*
X0129936Y0106456D01*
X0130063Y0106380D01*
X0130188Y0106301D01*
X0130311Y0106218D01*
X0130432Y0106133D01*
X0130550Y0106044D01*
X0130666Y0105952D01*
X0130779Y0105856D01*
X0130890Y0105758D01*
X0130998Y0105657D01*
X0131104Y0105553D01*
X0131206Y0105447D01*
X0131306Y0105337D01*
X0131402Y0105225D01*
X0131496Y0105110D01*
X0131587Y0104993D01*
X0131674Y0104874D01*
X0131758Y0104752D01*
X0131839Y0104628D01*
X0131916Y0104502D01*
X0131990Y0104374D01*
X0132061Y0104244D01*
X0132128Y0104112D01*
X0132191Y0103978D01*
X0132251Y0103843D01*
X0132307Y0103706D01*
X0132360Y0103567D01*
X0132408Y0103427D01*
X0132453Y0103286D01*
X0132494Y0103144D01*
X0132532Y0103001D01*
X0132565Y0102857D01*
X0132595Y0102712D01*
X0132621Y0102566D01*
X0132642Y0102420D01*
X0132660Y0102273D01*
X0132674Y0102126D01*
X0132684Y0101978D01*
X0132690Y0101830D01*
X0132692Y0101682D01*
X0132690Y0101534D01*
X0132684Y0101386D01*
X0132674Y0101238D01*
X0132660Y0101091D01*
X0132642Y0100944D01*
X0132621Y0100798D01*
X0132595Y0100652D01*
X0132565Y0100507D01*
X0132532Y0100363D01*
X0132494Y0100220D01*
X0132453Y0100078D01*
X0132408Y0099937D01*
X0132360Y0099797D01*
X0132307Y0099658D01*
X0132251Y0099521D01*
X0132191Y0099386D01*
X0132128Y0099252D01*
X0132061Y0099120D01*
X0131990Y0098990D01*
X0131916Y0098862D01*
X0131839Y0098736D01*
X0131758Y0098612D01*
X0131674Y0098490D01*
X0131587Y0098371D01*
X0131496Y0098254D01*
X0131402Y0098139D01*
X0131306Y0098027D01*
X0131206Y0097917D01*
X0131104Y0097811D01*
X0130998Y0097707D01*
X0130890Y0097606D01*
X0130779Y0097508D01*
X0130666Y0097412D01*
X0130550Y0097320D01*
X0130432Y0097231D01*
X0130311Y0097146D01*
X0130188Y0097063D01*
X0130063Y0096984D01*
X0129936Y0096908D01*
X0129807Y0096836D01*
X0129676Y0096767D01*
X0129543Y0096702D01*
X0129408Y0096641D01*
X0129272Y0096583D01*
X0129135Y0096528D01*
X0128996Y0096478D01*
X0128855Y0096431D01*
X0128714Y0096388D01*
X0128571Y0096348D01*
X0128427Y0096313D01*
X0128283Y0096281D01*
X0128137Y0096254D01*
X0127991Y0096230D01*
X0127844Y0096210D01*
X0127697Y0096194D01*
X0127550Y0096182D01*
X0127402Y0096174D01*
X0127254Y0096170D01*
X0127106Y0096170D01*
X0126958Y0096174D01*
X0126810Y0096182D01*
X0126663Y0096194D01*
X0126516Y0096210D01*
X0126369Y0096230D01*
X0126223Y0096254D01*
X0126077Y0096281D01*
X0125933Y0096313D01*
X0125789Y0096348D01*
X0125646Y0096388D01*
X0125505Y0096431D01*
X0125364Y0096478D01*
X0125225Y0096528D01*
X0125088Y0096583D01*
X0124952Y0096641D01*
X0124817Y0096702D01*
X0124684Y0096767D01*
X0124553Y0096836D01*
X0124424Y0096908D01*
X0124297Y0096984D01*
X0124172Y0097063D01*
X0124049Y0097146D01*
X0123928Y0097231D01*
X0123810Y0097320D01*
X0123694Y0097412D01*
X0123581Y0097508D01*
X0123470Y0097606D01*
X0123362Y0097707D01*
X0123256Y0097811D01*
X0123154Y0097917D01*
X0123054Y0098027D01*
X0122958Y0098139D01*
X0122864Y0098254D01*
X0122773Y0098371D01*
X0122686Y0098490D01*
X0122602Y0098612D01*
X0122521Y0098736D01*
X0122444Y0098862D01*
X0122370Y0098990D01*
X0122299Y0099120D01*
X0122232Y0099252D01*
X0122169Y0099386D01*
X0122109Y0099521D01*
X0122053Y0099658D01*
X0122000Y0099797D01*
X0121952Y0099937D01*
X0121907Y0100078D01*
X0121866Y0100220D01*
X0121828Y0100363D01*
X0121795Y0100507D01*
X0121765Y0100652D01*
X0121739Y0100798D01*
X0121718Y0100944D01*
X0121700Y0101091D01*
X0121686Y0101238D01*
X0121676Y0101386D01*
X0121670Y0101534D01*
X0121668Y0101682D01*
D12*
X0127180Y0101682D03*
D13*
X0194109Y0078060D03*
X0194109Y0128454D03*
D14*
X0118912Y0187528D03*
D15*
X0108912Y0187528D03*
X0098912Y0187528D03*
X0088912Y0187528D03*
X0078912Y0187528D03*
X0068912Y0187528D03*
X0058912Y0187528D03*
X0048912Y0187528D03*
X0038912Y0187528D03*
X0028912Y0187528D03*
X0028912Y0177528D03*
X0038912Y0177528D03*
X0048912Y0177528D03*
X0058912Y0177528D03*
X0068912Y0177528D03*
X0078912Y0177528D03*
X0088912Y0177528D03*
X0098912Y0177528D03*
X0108912Y0177528D03*
X0118912Y0177528D03*
D16*
X0020649Y0116800D02*
X0015049Y0116800D01*
X0015049Y0106800D02*
X0020649Y0106800D01*
D17*
X0011166Y0190066D03*
X0191166Y0190066D03*
X0191166Y0010066D03*
X0011166Y0010066D03*
M02*
