G75*
%MOIN*%
%OFA0B0*%
%FSLAX24Y24*%
%IPPOS*%
%LPD*%
%AMOC8*
5,1,8,0,0,1.08239X$1,22.5*
%
%ADD10C,0.0000*%
%ADD11C,0.0050*%
%ADD12C,0.0040*%
%ADD13C,0.0079*%
%ADD14C,0.0100*%
%ADD15C,0.0006*%
%ADD16C,0.0010*%
%ADD17C,0.0060*%
D10*
X000285Y000180D02*
X000285Y019865D01*
X019970Y019865D01*
X019970Y000180D01*
X000285Y000180D01*
X001202Y008174D02*
X001204Y008203D01*
X001210Y008231D01*
X001219Y008259D01*
X001232Y008285D01*
X001249Y008308D01*
X001268Y008330D01*
X001290Y008349D01*
X001315Y008364D01*
X001341Y008377D01*
X001369Y008385D01*
X001397Y008390D01*
X001426Y008391D01*
X001455Y008388D01*
X001483Y008381D01*
X001510Y008371D01*
X001536Y008357D01*
X001559Y008340D01*
X001580Y008320D01*
X001598Y008297D01*
X001613Y008272D01*
X001624Y008245D01*
X001632Y008217D01*
X001636Y008188D01*
X001636Y008160D01*
X001632Y008131D01*
X001624Y008103D01*
X001613Y008076D01*
X001598Y008051D01*
X001580Y008028D01*
X001559Y008008D01*
X001536Y007991D01*
X001510Y007977D01*
X001483Y007967D01*
X001455Y007960D01*
X001426Y007957D01*
X001397Y007958D01*
X001369Y007963D01*
X001341Y007971D01*
X001315Y007984D01*
X001290Y007999D01*
X001268Y008018D01*
X001249Y008040D01*
X001232Y008063D01*
X001219Y008089D01*
X001210Y008117D01*
X001204Y008145D01*
X001202Y008174D01*
X001202Y009174D02*
X001204Y009203D01*
X001210Y009231D01*
X001219Y009259D01*
X001232Y009285D01*
X001249Y009308D01*
X001268Y009330D01*
X001290Y009349D01*
X001315Y009364D01*
X001341Y009377D01*
X001369Y009385D01*
X001397Y009390D01*
X001426Y009391D01*
X001455Y009388D01*
X001483Y009381D01*
X001510Y009371D01*
X001536Y009357D01*
X001559Y009340D01*
X001580Y009320D01*
X001598Y009297D01*
X001613Y009272D01*
X001624Y009245D01*
X001632Y009217D01*
X001636Y009188D01*
X001636Y009160D01*
X001632Y009131D01*
X001624Y009103D01*
X001613Y009076D01*
X001598Y009051D01*
X001580Y009028D01*
X001559Y009008D01*
X001536Y008991D01*
X001510Y008977D01*
X001483Y008967D01*
X001455Y008960D01*
X001426Y008957D01*
X001397Y008958D01*
X001369Y008963D01*
X001341Y008971D01*
X001315Y008984D01*
X001290Y008999D01*
X001268Y009018D01*
X001249Y009040D01*
X001232Y009063D01*
X001219Y009089D01*
X001210Y009117D01*
X001204Y009145D01*
X001202Y009174D01*
X001194Y010500D02*
X001196Y010529D01*
X001202Y010557D01*
X001211Y010585D01*
X001224Y010611D01*
X001241Y010634D01*
X001260Y010656D01*
X001282Y010675D01*
X001307Y010690D01*
X001333Y010703D01*
X001361Y010711D01*
X001389Y010716D01*
X001418Y010717D01*
X001447Y010714D01*
X001475Y010707D01*
X001502Y010697D01*
X001528Y010683D01*
X001551Y010666D01*
X001572Y010646D01*
X001590Y010623D01*
X001605Y010598D01*
X001616Y010571D01*
X001624Y010543D01*
X001628Y010514D01*
X001628Y010486D01*
X001624Y010457D01*
X001616Y010429D01*
X001605Y010402D01*
X001590Y010377D01*
X001572Y010354D01*
X001551Y010334D01*
X001528Y010317D01*
X001502Y010303D01*
X001475Y010293D01*
X001447Y010286D01*
X001418Y010283D01*
X001389Y010284D01*
X001361Y010289D01*
X001333Y010297D01*
X001307Y010310D01*
X001282Y010325D01*
X001260Y010344D01*
X001241Y010366D01*
X001224Y010389D01*
X001211Y010415D01*
X001202Y010443D01*
X001196Y010471D01*
X001194Y010500D01*
X001194Y011500D02*
X001196Y011529D01*
X001202Y011557D01*
X001211Y011585D01*
X001224Y011611D01*
X001241Y011634D01*
X001260Y011656D01*
X001282Y011675D01*
X001307Y011690D01*
X001333Y011703D01*
X001361Y011711D01*
X001389Y011716D01*
X001418Y011717D01*
X001447Y011714D01*
X001475Y011707D01*
X001502Y011697D01*
X001528Y011683D01*
X001551Y011666D01*
X001572Y011646D01*
X001590Y011623D01*
X001605Y011598D01*
X001616Y011571D01*
X001624Y011543D01*
X001628Y011514D01*
X001628Y011486D01*
X001624Y011457D01*
X001616Y011429D01*
X001605Y011402D01*
X001590Y011377D01*
X001572Y011354D01*
X001551Y011334D01*
X001528Y011317D01*
X001502Y011303D01*
X001475Y011293D01*
X001447Y011286D01*
X001418Y011283D01*
X001389Y011284D01*
X001361Y011289D01*
X001333Y011297D01*
X001307Y011310D01*
X001282Y011325D01*
X001260Y011344D01*
X001241Y011366D01*
X001224Y011389D01*
X001211Y011415D01*
X001202Y011443D01*
X001196Y011471D01*
X001194Y011500D01*
X016615Y011539D02*
X016617Y011568D01*
X016623Y011596D01*
X016632Y011624D01*
X016645Y011650D01*
X016662Y011673D01*
X016681Y011695D01*
X016703Y011714D01*
X016728Y011729D01*
X016754Y011742D01*
X016782Y011750D01*
X016810Y011755D01*
X016839Y011756D01*
X016868Y011753D01*
X016896Y011746D01*
X016923Y011736D01*
X016949Y011722D01*
X016972Y011705D01*
X016993Y011685D01*
X017011Y011662D01*
X017026Y011637D01*
X017037Y011610D01*
X017045Y011582D01*
X017049Y011553D01*
X017049Y011525D01*
X017045Y011496D01*
X017037Y011468D01*
X017026Y011441D01*
X017011Y011416D01*
X016993Y011393D01*
X016972Y011373D01*
X016949Y011356D01*
X016923Y011342D01*
X016896Y011332D01*
X016868Y011325D01*
X016839Y011322D01*
X016810Y011323D01*
X016782Y011328D01*
X016754Y011336D01*
X016728Y011349D01*
X016703Y011364D01*
X016681Y011383D01*
X016662Y011405D01*
X016645Y011428D01*
X016632Y011454D01*
X016623Y011482D01*
X016617Y011510D01*
X016615Y011539D01*
X017615Y011539D02*
X017617Y011568D01*
X017623Y011596D01*
X017632Y011624D01*
X017645Y011650D01*
X017662Y011673D01*
X017681Y011695D01*
X017703Y011714D01*
X017728Y011729D01*
X017754Y011742D01*
X017782Y011750D01*
X017810Y011755D01*
X017839Y011756D01*
X017868Y011753D01*
X017896Y011746D01*
X017923Y011736D01*
X017949Y011722D01*
X017972Y011705D01*
X017993Y011685D01*
X018011Y011662D01*
X018026Y011637D01*
X018037Y011610D01*
X018045Y011582D01*
X018049Y011553D01*
X018049Y011525D01*
X018045Y011496D01*
X018037Y011468D01*
X018026Y011441D01*
X018011Y011416D01*
X017993Y011393D01*
X017972Y011373D01*
X017949Y011356D01*
X017923Y011342D01*
X017896Y011332D01*
X017868Y011325D01*
X017839Y011322D01*
X017810Y011323D01*
X017782Y011328D01*
X017754Y011336D01*
X017728Y011349D01*
X017703Y011364D01*
X017681Y011383D01*
X017662Y011405D01*
X017645Y011428D01*
X017632Y011454D01*
X017623Y011482D01*
X017617Y011510D01*
X017615Y011539D01*
D11*
X017482Y010015D02*
X017332Y010015D01*
X017257Y009940D01*
X017482Y010015D02*
X017557Y009940D01*
X017557Y009864D01*
X017257Y009564D01*
X017557Y009564D01*
X016623Y009564D02*
X016323Y009564D01*
X016473Y009564D02*
X016473Y010015D01*
X016323Y009864D01*
X012525Y004583D02*
X012525Y004133D01*
X012300Y004133D01*
X012225Y004208D01*
X012225Y004358D01*
X012300Y004433D01*
X012525Y004433D01*
X012066Y004433D02*
X011991Y004433D01*
X011841Y004283D01*
X011841Y004133D02*
X011841Y004433D01*
X011681Y004358D02*
X011681Y004133D01*
X011456Y004133D01*
X011381Y004208D01*
X011456Y004283D01*
X011681Y004283D01*
X011681Y004358D02*
X011606Y004433D01*
X011456Y004433D01*
X011221Y004358D02*
X011221Y004208D01*
X011145Y004133D01*
X010995Y004133D01*
X010920Y004208D01*
X010920Y004358D01*
X010995Y004433D01*
X011145Y004433D01*
X011221Y004358D01*
X010760Y004433D02*
X010685Y004358D01*
X010460Y004358D01*
X010685Y004358D02*
X010760Y004283D01*
X010760Y004208D01*
X010685Y004133D01*
X010460Y004133D01*
X010460Y004583D01*
X010685Y004583D01*
X010760Y004508D01*
X010760Y004433D01*
X009839Y004433D02*
X009839Y004058D01*
X009764Y003983D01*
X009689Y003983D01*
X009614Y004133D02*
X009839Y004133D01*
X009614Y004133D02*
X009539Y004208D01*
X009539Y004433D01*
X009379Y004358D02*
X009379Y004133D01*
X009154Y004133D01*
X009079Y004208D01*
X009154Y004283D01*
X009379Y004283D01*
X009379Y004358D02*
X009304Y004433D01*
X009154Y004433D01*
X008847Y004583D02*
X008847Y004133D01*
X008772Y004133D02*
X008922Y004133D01*
X008612Y004283D02*
X008311Y004283D01*
X008311Y004358D02*
X008386Y004433D01*
X008537Y004433D01*
X008612Y004358D01*
X008612Y004283D01*
X008537Y004133D02*
X008386Y004133D01*
X008311Y004208D01*
X008311Y004358D01*
X008151Y004358D02*
X008151Y004508D01*
X008076Y004583D01*
X007851Y004583D01*
X007851Y004133D01*
X007851Y004283D02*
X008076Y004283D01*
X008151Y004358D01*
X008001Y004283D02*
X008151Y004133D01*
X008772Y004583D02*
X008847Y004583D01*
X009446Y003702D02*
X009671Y003702D01*
X009746Y003627D01*
X009746Y003477D01*
X009671Y003402D01*
X009446Y003402D01*
X009596Y003402D02*
X009746Y003252D01*
X009907Y003327D02*
X009907Y003477D01*
X009982Y003552D01*
X010132Y003552D01*
X010207Y003477D01*
X010207Y003402D01*
X009907Y003402D01*
X009907Y003327D02*
X009982Y003252D01*
X010132Y003252D01*
X010367Y003552D02*
X010517Y003252D01*
X010667Y003552D01*
X011288Y003552D02*
X011438Y003702D01*
X011438Y003252D01*
X011288Y003252D02*
X011588Y003252D01*
X009446Y003252D02*
X009446Y003702D01*
X003394Y007665D02*
X003394Y007965D01*
X003394Y007815D02*
X002944Y007815D01*
X003094Y007665D01*
X003019Y008599D02*
X002944Y008674D01*
X002944Y008824D01*
X003019Y008899D01*
X003094Y008899D01*
X003394Y008599D01*
X003394Y008899D01*
X003386Y009991D02*
X003386Y010291D01*
X003386Y010141D02*
X002936Y010141D01*
X003086Y009991D01*
X003011Y010925D02*
X002936Y011000D01*
X002936Y011151D01*
X003011Y011226D01*
X003086Y011226D01*
X003386Y010925D01*
X003386Y011226D01*
X000969Y011303D02*
X000969Y011603D01*
X000744Y011603D01*
X000819Y011453D01*
X000819Y011378D01*
X000744Y011303D01*
X000594Y011303D01*
X000518Y011378D01*
X000518Y011528D01*
X000594Y011603D01*
X000512Y010678D02*
X000512Y010453D01*
X000587Y010378D01*
X000663Y010378D01*
X000738Y010453D01*
X000738Y010678D01*
X000963Y010678D02*
X000963Y010453D01*
X000888Y010378D01*
X000813Y010378D01*
X000738Y010453D01*
X000512Y010678D02*
X000963Y010678D01*
X000883Y009915D02*
X000583Y009915D01*
X000508Y009840D01*
X000508Y009690D01*
X000583Y009615D01*
X000733Y009615D01*
X000733Y009765D01*
X000883Y009915D02*
X000959Y009840D01*
X000959Y009690D01*
X000883Y009615D01*
X000959Y009455D02*
X000508Y009154D01*
X000959Y009154D01*
X000959Y008994D02*
X000959Y008769D01*
X000883Y008694D01*
X000583Y008694D01*
X000508Y008769D01*
X000508Y008994D01*
X000959Y008994D01*
X000959Y009455D02*
X000508Y009455D01*
X007174Y013582D02*
X007464Y013582D01*
X007324Y013432D02*
X007324Y013742D01*
D12*
X007477Y013948D02*
X007831Y013948D01*
X007831Y014184D01*
X007831Y014310D02*
X007831Y014546D01*
X007831Y014673D02*
X007831Y014850D01*
X007772Y014909D01*
X007536Y014909D01*
X007477Y014850D01*
X007477Y014673D01*
X007831Y014673D01*
X007654Y014428D02*
X007654Y014310D01*
X007477Y014310D02*
X007831Y014310D01*
X007477Y014310D02*
X007477Y014546D01*
X010758Y019222D02*
X010876Y019222D01*
X010935Y019281D01*
X010935Y019517D01*
X010876Y019576D01*
X010758Y019576D01*
X010699Y019517D01*
X010699Y019281D01*
X010758Y019222D01*
X011062Y019222D02*
X011239Y019222D01*
X011298Y019281D01*
X011298Y019399D01*
X011239Y019458D01*
X011062Y019458D01*
X011062Y019104D01*
X011424Y019281D02*
X011424Y019399D01*
X011483Y019458D01*
X011601Y019458D01*
X011660Y019399D01*
X011660Y019340D01*
X011424Y019340D01*
X011424Y019281D02*
X011483Y019222D01*
X011601Y019222D01*
X011787Y019222D02*
X011787Y019458D01*
X011964Y019458D01*
X012023Y019399D01*
X012023Y019222D01*
X012267Y019222D02*
X012267Y019576D01*
X012149Y019576D02*
X012385Y019576D01*
X012512Y019576D02*
X012689Y019576D01*
X012748Y019517D01*
X012748Y019399D01*
X012689Y019340D01*
X012512Y019340D01*
X012630Y019340D02*
X012748Y019222D01*
X012874Y019340D02*
X012992Y019222D01*
X013110Y019340D01*
X013110Y019576D01*
X012874Y019576D02*
X012874Y019340D01*
X013237Y019281D02*
X013237Y019222D01*
X013296Y019222D01*
X013296Y019281D01*
X013237Y019281D01*
X013418Y019281D02*
X013477Y019222D01*
X013595Y019222D01*
X013654Y019281D01*
X013654Y019399D01*
X013595Y019458D01*
X013477Y019458D01*
X013418Y019399D01*
X013418Y019281D01*
X013780Y019340D02*
X013898Y019458D01*
X013957Y019458D01*
X014083Y019399D02*
X014083Y019281D01*
X014142Y019222D01*
X014319Y019222D01*
X014319Y019163D02*
X014319Y019458D01*
X014142Y019458D01*
X014083Y019399D01*
X014201Y019104D02*
X014260Y019104D01*
X014319Y019163D01*
X014445Y019222D02*
X014504Y019222D01*
X014504Y019281D01*
X014445Y019281D01*
X014445Y019222D01*
X014626Y019281D02*
X014685Y019222D01*
X014862Y019222D01*
X014862Y019458D01*
X014989Y019576D02*
X014989Y019222D01*
X014989Y019340D02*
X015166Y019458D01*
X014989Y019340D02*
X015166Y019222D01*
X014626Y019281D02*
X014626Y019458D01*
X013780Y019458D02*
X013780Y019222D01*
X012512Y019222D02*
X012512Y019576D01*
X010645Y009645D02*
X010645Y009409D01*
X010645Y009527D02*
X010291Y009527D01*
X010409Y009409D01*
X010291Y009283D02*
X010527Y009047D01*
X010468Y009106D02*
X010645Y009283D01*
X010645Y009047D02*
X010291Y009047D01*
X010159Y000847D02*
X009923Y000493D01*
X009800Y000493D02*
X009741Y000493D01*
X009741Y000552D01*
X009800Y000552D01*
X009800Y000493D01*
X009800Y000670D02*
X009741Y000670D01*
X009741Y000729D01*
X009800Y000729D01*
X009800Y000670D01*
X009615Y000670D02*
X009615Y000552D01*
X009556Y000493D01*
X009379Y000493D01*
X009379Y000375D02*
X009379Y000729D01*
X009556Y000729D01*
X009615Y000670D01*
X009255Y000729D02*
X009137Y000729D01*
X009196Y000788D02*
X009196Y000552D01*
X009255Y000493D01*
X009013Y000493D02*
X008954Y000552D01*
X008954Y000788D01*
X008895Y000729D02*
X009013Y000729D01*
X008769Y000670D02*
X008769Y000493D01*
X008769Y000670D02*
X008710Y000729D01*
X008592Y000729D01*
X008533Y000670D01*
X008533Y000847D02*
X008533Y000493D01*
X008048Y000493D02*
X007989Y000493D01*
X007989Y000552D01*
X008048Y000552D01*
X008048Y000493D01*
X008048Y000670D02*
X007989Y000670D01*
X007989Y000729D01*
X008048Y000729D01*
X008048Y000670D01*
X007863Y000670D02*
X007863Y000611D01*
X007627Y000611D01*
X007627Y000670D02*
X007686Y000729D01*
X007804Y000729D01*
X007863Y000670D01*
X007804Y000493D02*
X007686Y000493D01*
X007627Y000552D01*
X007627Y000670D01*
X007500Y000729D02*
X007323Y000729D01*
X007264Y000670D01*
X007323Y000611D01*
X007441Y000611D01*
X007500Y000552D01*
X007441Y000493D01*
X007264Y000493D01*
X007138Y000493D02*
X007138Y000670D01*
X007079Y000729D01*
X006902Y000729D01*
X006902Y000493D01*
X006775Y000611D02*
X006539Y000611D01*
X006539Y000670D02*
X006598Y000729D01*
X006716Y000729D01*
X006775Y000670D01*
X006775Y000611D01*
X006716Y000493D02*
X006598Y000493D01*
X006539Y000552D01*
X006539Y000670D01*
X006413Y000729D02*
X006236Y000729D01*
X006177Y000670D01*
X006177Y000552D01*
X006236Y000493D01*
X006413Y000493D01*
X006053Y000493D02*
X005935Y000493D01*
X005994Y000493D02*
X005994Y000729D01*
X005935Y000729D01*
X005994Y000847D02*
X005994Y000906D01*
X005572Y000847D02*
X005572Y000493D01*
X005808Y000493D01*
X010285Y000493D02*
X010521Y000847D01*
X010648Y000670D02*
X010648Y000552D01*
X010707Y000493D01*
X010884Y000493D01*
X010884Y000434D02*
X010884Y000729D01*
X010707Y000729D01*
X010648Y000670D01*
X010884Y000434D02*
X010825Y000375D01*
X010766Y000375D01*
X011010Y000552D02*
X011069Y000493D01*
X011187Y000493D01*
X011246Y000552D01*
X011246Y000670D01*
X011187Y000729D01*
X011069Y000729D01*
X011010Y000670D01*
X011010Y000552D01*
X011373Y000552D02*
X011432Y000493D01*
X011550Y000493D01*
X011609Y000552D01*
X011609Y000670D01*
X011550Y000729D01*
X011432Y000729D01*
X011373Y000670D01*
X011373Y000552D01*
X011735Y000552D02*
X011794Y000552D01*
X011794Y000493D01*
X011735Y000493D01*
X011735Y000552D01*
X011916Y000552D02*
X011916Y000670D01*
X011975Y000729D01*
X012152Y000729D01*
X012152Y000434D01*
X012093Y000375D01*
X012034Y000375D01*
X011975Y000493D02*
X012152Y000493D01*
X012279Y000493D02*
X012397Y000493D01*
X012338Y000493D02*
X012338Y000847D01*
X012279Y000847D01*
X012521Y000493D02*
X012757Y000847D01*
X012883Y000788D02*
X012942Y000847D01*
X013060Y000847D01*
X013119Y000788D01*
X013119Y000729D01*
X013060Y000670D01*
X013119Y000611D01*
X013119Y000552D01*
X013060Y000493D01*
X012942Y000493D01*
X012883Y000552D01*
X013001Y000670D02*
X013060Y000670D01*
X013246Y000670D02*
X013305Y000729D01*
X013482Y000729D01*
X013482Y000847D02*
X013482Y000493D01*
X013305Y000493D01*
X013246Y000552D01*
X013246Y000670D01*
X013608Y000552D02*
X013608Y000493D01*
X013608Y000552D02*
X013844Y000788D01*
X013844Y000847D01*
X013608Y000847D01*
X013971Y000729D02*
X014089Y000847D01*
X014089Y000493D01*
X013971Y000493D02*
X014207Y000493D01*
X014333Y000552D02*
X014392Y000493D01*
X014510Y000493D01*
X014569Y000552D01*
X014569Y000847D01*
X014333Y000847D02*
X014333Y000552D01*
X014696Y000552D02*
X014755Y000493D01*
X014814Y000493D01*
X014873Y000552D01*
X014873Y000847D01*
X014814Y000847D02*
X014932Y000847D01*
X011975Y000493D02*
X011916Y000552D01*
X019327Y002852D02*
X019386Y002793D01*
X019327Y002852D02*
X019327Y002970D01*
X019386Y003029D01*
X019445Y003029D01*
X019681Y002793D01*
X019681Y003029D01*
X019622Y003155D02*
X019681Y003214D01*
X019681Y003332D01*
X019622Y003391D01*
X019386Y003391D01*
X019622Y003155D01*
X019386Y003155D01*
X019327Y003214D01*
X019327Y003332D01*
X019386Y003391D01*
X019445Y003518D02*
X019327Y003636D01*
X019681Y003636D01*
X019681Y003518D02*
X019681Y003754D01*
X019504Y003880D02*
X019504Y004116D01*
X019622Y004243D02*
X019386Y004243D01*
X019327Y004302D01*
X019327Y004420D01*
X019386Y004479D01*
X019622Y004243D01*
X019681Y004302D01*
X019681Y004420D01*
X019622Y004479D01*
X019386Y004479D01*
X019327Y004605D02*
X019504Y004605D01*
X019445Y004723D01*
X019445Y004782D01*
X019504Y004841D01*
X019622Y004841D01*
X019681Y004782D01*
X019681Y004664D01*
X019622Y004605D01*
X019327Y004605D02*
X019327Y004841D01*
X019445Y004968D02*
X019327Y005086D01*
X019681Y005086D01*
X019681Y004968D02*
X019681Y005204D01*
X019681Y005330D02*
X019622Y005330D01*
X019386Y005566D01*
X019327Y005566D01*
X019327Y005330D01*
X019327Y004057D02*
X019504Y003880D01*
X019681Y004057D02*
X019327Y004057D01*
D13*
X014496Y013524D02*
X009181Y018839D01*
X011061Y017835D02*
X011065Y017786D01*
X011065Y017736D01*
X011061Y017687D01*
X011022Y017678D02*
X011012Y017776D01*
X011011Y017836D02*
X011014Y017844D01*
X011019Y017852D01*
X011027Y017856D01*
X011036Y017858D01*
X011045Y017856D01*
X011053Y017852D01*
X011058Y017844D01*
X011061Y017836D01*
X010844Y017756D02*
X010829Y017747D01*
X010817Y017736D01*
X010806Y017723D01*
X010799Y017708D01*
X010794Y017691D01*
X010793Y017674D01*
X010795Y017658D01*
X010805Y017658D02*
X012842Y017658D01*
X012872Y017658D02*
X012874Y017671D01*
X012873Y017684D01*
X012869Y017697D01*
X012862Y017708D01*
X012852Y017717D01*
X012823Y017628D02*
X012825Y017647D01*
X012830Y017666D01*
X012840Y017682D01*
X012852Y017697D01*
X012867Y017709D01*
X012883Y017719D01*
X012902Y017724D01*
X012921Y017726D01*
X012940Y017724D01*
X012959Y017719D01*
X012975Y017709D01*
X012990Y017697D01*
X013002Y017682D01*
X013012Y017666D01*
X013017Y017647D01*
X013019Y017628D01*
X013017Y017609D01*
X013012Y017590D01*
X013002Y017574D01*
X012990Y017559D01*
X012975Y017547D01*
X012959Y017537D01*
X012940Y017532D01*
X012921Y017530D01*
X012902Y017532D01*
X012883Y017537D01*
X012867Y017547D01*
X012852Y017559D01*
X012840Y017574D01*
X012830Y017590D01*
X012825Y017609D01*
X012823Y017628D01*
X012941Y017530D02*
X012958Y017532D01*
X012975Y017537D01*
X012990Y017545D01*
X013004Y017556D01*
X013015Y017570D01*
X013023Y017585D01*
X013028Y017602D01*
X013030Y017619D01*
X013029Y017619D02*
X013029Y017628D01*
X010687Y017628D01*
X010677Y017628D01*
X010667Y017628D01*
X010677Y017628D02*
X010687Y017628D01*
X010667Y017629D02*
X010658Y017628D01*
X010649Y017623D01*
X010643Y017617D01*
X010638Y017608D01*
X010637Y017599D01*
X010638Y017599D02*
X010638Y017579D01*
X010638Y017550D01*
X010637Y017550D02*
X010639Y017542D01*
X010643Y017536D01*
X010649Y017532D01*
X010657Y017530D01*
X010815Y017530D01*
X011661Y017530D01*
X012468Y017530D01*
X012941Y017530D01*
X012882Y017520D02*
X012606Y014804D01*
X012340Y014577D02*
X012342Y014600D01*
X012348Y014623D01*
X012358Y014644D01*
X012371Y014664D01*
X012387Y014681D01*
X012406Y014695D01*
X012427Y014705D01*
X012449Y014712D01*
X012472Y014715D01*
X012496Y014714D01*
X012518Y014709D01*
X012540Y014700D01*
X012560Y014688D01*
X012578Y014672D01*
X012592Y014654D01*
X012604Y014634D01*
X012612Y014612D01*
X012616Y014589D01*
X012616Y014565D01*
X012612Y014542D01*
X012604Y014520D01*
X012592Y014500D01*
X012578Y014482D01*
X012560Y014466D01*
X012540Y014454D01*
X012518Y014445D01*
X012496Y014440D01*
X012472Y014439D01*
X012449Y014442D01*
X012427Y014449D01*
X012406Y014459D01*
X012387Y014473D01*
X012371Y014490D01*
X012358Y014510D01*
X012348Y014531D01*
X012342Y014554D01*
X012340Y014577D01*
X012213Y014548D02*
X011218Y014538D01*
X011189Y014518D02*
X011189Y014390D01*
X011190Y014377D01*
X011195Y014364D01*
X011202Y014353D01*
X011211Y014344D01*
X011222Y014337D01*
X011235Y014332D01*
X011248Y014331D01*
X011268Y014331D01*
X011281Y014333D01*
X011293Y014338D01*
X011303Y014345D01*
X011310Y014356D01*
X011315Y014367D01*
X011317Y014380D01*
X011317Y014518D01*
X011159Y014547D02*
X011142Y014551D01*
X011127Y014557D01*
X011112Y014567D01*
X011100Y014579D01*
X011090Y014594D01*
X011084Y014609D01*
X011080Y014626D01*
X011081Y014626D02*
X010795Y017520D01*
X010845Y017756D02*
X010883Y017772D01*
X010923Y017785D01*
X010963Y017796D01*
X011011Y017776D02*
X011010Y017806D01*
X011011Y017836D01*
X011573Y017845D02*
X011622Y017845D01*
X011622Y017874D02*
X011622Y017796D01*
X012075Y017796D01*
X012075Y017874D01*
X011622Y017874D01*
X012085Y017845D02*
X012272Y017835D01*
X012794Y017747D02*
X012814Y017739D01*
X012834Y017729D01*
X012853Y017717D01*
X012881Y017353D02*
X012894Y017351D01*
X012908Y017351D01*
X012921Y017353D01*
X012921Y017352D02*
X012939Y017354D01*
X012956Y017352D01*
X012973Y017347D01*
X012989Y017339D01*
X013003Y017328D01*
X013014Y017314D01*
X013022Y017298D01*
X013027Y017282D01*
X013029Y017264D01*
X013029Y017205D01*
X013028Y017188D01*
X013023Y017171D01*
X013016Y017156D01*
X013006Y017142D01*
X012994Y017130D01*
X012980Y017120D01*
X012965Y017113D01*
X012948Y017108D01*
X012931Y017107D01*
X012862Y017107D01*
X012232Y016772D02*
X012232Y016703D01*
X012231Y016693D01*
X012227Y016684D01*
X012221Y016675D01*
X012213Y016669D01*
X012203Y016665D01*
X012193Y016664D01*
X011730Y016664D01*
X011717Y016665D01*
X011704Y016670D01*
X011693Y016677D01*
X011684Y016686D01*
X011677Y016697D01*
X011672Y016710D01*
X011671Y016723D01*
X011671Y016752D01*
X011671Y016782D01*
X011081Y017816D02*
X011022Y017807D01*
X010963Y017796D01*
X012596Y017796D02*
X012662Y017782D01*
X012728Y017766D01*
X012793Y017747D01*
X014516Y018859D02*
X009161Y013504D01*
X011159Y014548D02*
X011189Y014544D01*
X011218Y014538D01*
X011081Y017815D02*
X011204Y017828D01*
X011326Y017838D01*
X011450Y017843D01*
X011573Y017845D01*
X012271Y017835D02*
X012353Y017829D01*
X012435Y017821D01*
X012516Y017809D01*
X012596Y017795D01*
X012222Y014577D02*
X012224Y014608D01*
X012230Y014639D01*
X012239Y014669D01*
X012252Y014698D01*
X012269Y014725D01*
X012289Y014749D01*
X012311Y014771D01*
X012337Y014790D01*
X012364Y014806D01*
X012393Y014818D01*
X012423Y014827D01*
X012454Y014832D01*
X012486Y014833D01*
X012517Y014830D01*
X012548Y014823D01*
X012578Y014813D01*
X012606Y014799D01*
X012632Y014781D01*
X012656Y014761D01*
X012677Y014737D01*
X012696Y014712D01*
X012711Y014684D01*
X012722Y014655D01*
X012730Y014624D01*
X012734Y014593D01*
X012734Y014561D01*
X012730Y014530D01*
X012722Y014499D01*
X012711Y014470D01*
X012696Y014442D01*
X012677Y014417D01*
X012656Y014393D01*
X012632Y014373D01*
X012606Y014355D01*
X012578Y014341D01*
X012548Y014331D01*
X012517Y014324D01*
X012486Y014321D01*
X012454Y014322D01*
X012423Y014327D01*
X012393Y014336D01*
X012364Y014348D01*
X012337Y014364D01*
X012311Y014383D01*
X012289Y014405D01*
X012269Y014429D01*
X012252Y014456D01*
X012239Y014485D01*
X012230Y014515D01*
X012224Y014546D01*
X012222Y014577D01*
D14*
X016526Y004579D02*
X016796Y004579D01*
X016846Y004259D01*
X016476Y004259D02*
X016526Y004579D01*
X016226Y004159D02*
X015966Y004339D01*
X015776Y004159D01*
X015956Y003899D01*
X015846Y003649D02*
X015546Y003589D01*
X015546Y003329D01*
X015846Y003279D01*
X015946Y003009D02*
X015786Y002769D01*
X015966Y002579D01*
X016206Y002749D01*
X016306Y002689D01*
X016506Y003139D01*
X016826Y003139D02*
X017016Y002689D01*
X017116Y002749D01*
X017356Y002579D01*
X017546Y002769D01*
X017376Y003009D01*
X017476Y003279D02*
X017776Y003329D01*
X017776Y003589D01*
X017476Y003649D01*
X017366Y003899D02*
X017546Y004159D01*
X017356Y004339D01*
X017096Y004159D01*
X016826Y003149D02*
X016859Y003167D01*
X016889Y003188D01*
X016918Y003212D01*
X016944Y003239D01*
X016966Y003268D01*
X016986Y003300D01*
X017003Y003333D01*
X017016Y003368D01*
X017025Y003404D01*
X017031Y003441D01*
X017033Y003478D01*
X017031Y003515D01*
X017026Y003552D01*
X017016Y003588D01*
X017004Y003623D01*
X016987Y003657D01*
X016968Y003688D01*
X016945Y003718D01*
X016919Y003745D01*
X016891Y003769D01*
X016860Y003790D01*
X016828Y003808D01*
X016794Y003823D01*
X016758Y003834D01*
X016722Y003842D01*
X016685Y003846D01*
X016647Y003846D01*
X016610Y003842D01*
X016574Y003834D01*
X016538Y003823D01*
X016504Y003808D01*
X016472Y003790D01*
X016441Y003769D01*
X016413Y003745D01*
X016387Y003718D01*
X016364Y003688D01*
X016345Y003657D01*
X016328Y003623D01*
X016316Y003588D01*
X016306Y003552D01*
X016301Y003515D01*
X016299Y003478D01*
X016301Y003441D01*
X016307Y003404D01*
X016316Y003368D01*
X016329Y003333D01*
X016346Y003300D01*
X016366Y003268D01*
X016388Y003239D01*
X016414Y003212D01*
X016443Y003188D01*
X016473Y003167D01*
X016506Y003149D01*
X017376Y003009D02*
X017399Y003050D01*
X017420Y003093D01*
X017438Y003138D01*
X017453Y003183D01*
X017466Y003229D01*
X017476Y003276D01*
X017475Y003649D02*
X017460Y003701D01*
X017441Y003752D01*
X017419Y003802D01*
X017394Y003850D01*
X017365Y003897D01*
X017100Y004160D02*
X017053Y004187D01*
X017004Y004210D01*
X016954Y004230D01*
X016903Y004247D01*
X016851Y004261D01*
X016469Y004259D02*
X016419Y004246D01*
X016370Y004229D01*
X016322Y004210D01*
X016275Y004187D01*
X016230Y004162D01*
X015957Y003894D02*
X015930Y003847D01*
X015906Y003800D01*
X015885Y003751D01*
X015867Y003700D01*
X015853Y003649D01*
X015847Y003278D02*
X015860Y003222D01*
X015877Y003167D01*
X015898Y003114D01*
X015922Y003062D01*
X015950Y003012D01*
D15*
X005434Y013897D02*
X005480Y013925D01*
X005480Y013924D02*
X005511Y013877D01*
X005545Y013832D01*
X005582Y013790D01*
X005622Y013750D01*
X005664Y013712D01*
X005709Y013678D01*
X005756Y013647D01*
X005805Y013619D01*
X005856Y013595D01*
X005909Y013573D01*
X005962Y013556D01*
X006017Y013542D01*
X006073Y013532D01*
X006129Y013526D01*
X006125Y013472D01*
X006069Y013478D01*
X006014Y013488D01*
X005959Y013501D01*
X005905Y013517D01*
X005853Y013537D01*
X005802Y013560D01*
X005752Y013587D01*
X005704Y013616D01*
X005659Y013648D01*
X005615Y013683D01*
X005573Y013721D01*
X005534Y013762D01*
X005498Y013804D01*
X005464Y013849D01*
X005434Y013896D01*
X005438Y013899D01*
X005468Y013852D01*
X005502Y013807D01*
X005538Y013765D01*
X005577Y013725D01*
X005618Y013687D01*
X005662Y013652D01*
X005707Y013620D01*
X005755Y013591D01*
X005804Y013565D01*
X005855Y013542D01*
X005907Y013522D01*
X005960Y013506D01*
X006015Y013493D01*
X006070Y013483D01*
X006125Y013477D01*
X006125Y013482D01*
X006070Y013488D01*
X006016Y013497D01*
X005962Y013510D01*
X005909Y013527D01*
X005857Y013546D01*
X005806Y013569D01*
X005757Y013595D01*
X005710Y013624D01*
X005665Y013656D01*
X005621Y013691D01*
X005580Y013728D01*
X005542Y013768D01*
X005506Y013811D01*
X005473Y013855D01*
X005442Y013901D01*
X005446Y013904D01*
X005477Y013858D01*
X005510Y013814D01*
X005545Y013772D01*
X005584Y013732D01*
X005625Y013695D01*
X005668Y013660D01*
X005713Y013629D01*
X005760Y013600D01*
X005808Y013574D01*
X005859Y013551D01*
X005910Y013532D01*
X005963Y013515D01*
X006017Y013502D01*
X006071Y013493D01*
X006126Y013487D01*
X006126Y013492D01*
X006068Y013498D01*
X006010Y013509D01*
X005953Y013523D01*
X005897Y013541D01*
X005843Y013563D01*
X005790Y013589D01*
X005739Y013618D01*
X005690Y013650D01*
X005643Y013686D01*
X005599Y013725D01*
X005557Y013766D01*
X005519Y013811D01*
X005483Y013858D01*
X005451Y013907D01*
X005455Y013909D01*
X005487Y013860D01*
X005522Y013814D01*
X005561Y013770D01*
X005602Y013728D01*
X005646Y013690D01*
X005692Y013655D01*
X005741Y013622D01*
X005792Y013593D01*
X005845Y013568D01*
X005899Y013546D01*
X005954Y013528D01*
X006011Y013514D01*
X006068Y013503D01*
X006127Y013497D01*
X006127Y013502D01*
X006069Y013508D01*
X006012Y013519D01*
X005956Y013533D01*
X005900Y013551D01*
X005847Y013573D01*
X005794Y013598D01*
X005744Y013627D01*
X005695Y013659D01*
X005649Y013694D01*
X005605Y013732D01*
X005564Y013773D01*
X005526Y013817D01*
X005491Y013863D01*
X005459Y013912D01*
X005464Y013914D01*
X005495Y013866D01*
X005530Y013820D01*
X005568Y013777D01*
X005609Y013736D01*
X005652Y013698D01*
X005698Y013663D01*
X005746Y013631D01*
X005797Y013602D01*
X005849Y013577D01*
X005902Y013556D01*
X005957Y013538D01*
X006013Y013524D01*
X006070Y013513D01*
X006127Y013507D01*
X006128Y013512D01*
X006071Y013518D01*
X006014Y013528D01*
X005958Y013542D01*
X005904Y013560D01*
X005851Y013582D01*
X005799Y013607D01*
X005749Y013635D01*
X005701Y013667D01*
X005656Y013702D01*
X005612Y013739D01*
X005572Y013780D01*
X005534Y013823D01*
X005499Y013869D01*
X005468Y013917D01*
X005472Y013920D01*
X005503Y013872D01*
X005538Y013826D01*
X005575Y013783D01*
X005616Y013743D01*
X005659Y013705D01*
X005704Y013671D01*
X005752Y013639D01*
X005801Y013611D01*
X005853Y013586D01*
X005906Y013565D01*
X005960Y013547D01*
X006015Y013533D01*
X006071Y013523D01*
X006128Y013517D01*
X006128Y013522D01*
X006072Y013528D01*
X006016Y013538D01*
X005961Y013552D01*
X005907Y013570D01*
X005855Y013591D01*
X005804Y013616D01*
X005754Y013644D01*
X005707Y013675D01*
X005662Y013709D01*
X005619Y013747D01*
X005579Y013787D01*
X005542Y013830D01*
X005508Y013875D01*
X005476Y013922D01*
X006133Y013474D02*
X006132Y013528D01*
X006133Y013527D02*
X006192Y013529D01*
X006251Y013535D01*
X006310Y013545D01*
X006368Y013558D01*
X006425Y013575D01*
X006481Y013595D01*
X006535Y013619D01*
X006588Y013646D01*
X006640Y013676D01*
X006689Y013709D01*
X006736Y013745D01*
X006781Y013784D01*
X006823Y013826D01*
X006863Y013870D01*
X006900Y013916D01*
X006943Y013885D01*
X006943Y013884D01*
X006904Y013835D01*
X006862Y013789D01*
X006818Y013745D01*
X006770Y013703D01*
X006721Y013665D01*
X006668Y013630D01*
X006614Y013598D01*
X006558Y013570D01*
X006501Y013545D01*
X006442Y013524D01*
X006381Y013506D01*
X006320Y013492D01*
X006258Y013482D01*
X006196Y013476D01*
X006133Y013473D01*
X006133Y013478D01*
X006196Y013481D01*
X006258Y013487D01*
X006319Y013497D01*
X006380Y013511D01*
X006440Y013528D01*
X006499Y013550D01*
X006556Y013574D01*
X006612Y013603D01*
X006666Y013634D01*
X006718Y013669D01*
X006767Y013707D01*
X006814Y013748D01*
X006859Y013792D01*
X006901Y013838D01*
X006939Y013887D01*
X006935Y013890D01*
X006897Y013842D01*
X006855Y013795D01*
X006811Y013752D01*
X006764Y013711D01*
X006715Y013673D01*
X006663Y013639D01*
X006610Y013607D01*
X006554Y013579D01*
X006497Y013554D01*
X006439Y013533D01*
X006379Y013516D01*
X006318Y013502D01*
X006257Y013492D01*
X006195Y013486D01*
X006133Y013483D01*
X006133Y013488D01*
X006195Y013490D01*
X006256Y013497D01*
X006317Y013507D01*
X006378Y013520D01*
X006437Y013538D01*
X006495Y013559D01*
X006552Y013583D01*
X006607Y013611D01*
X006660Y013643D01*
X006712Y013677D01*
X006761Y013715D01*
X006808Y013756D01*
X006852Y013799D01*
X006893Y013845D01*
X006931Y013893D01*
X006927Y013896D01*
X006889Y013848D01*
X006848Y013802D01*
X006804Y013759D01*
X006758Y013719D01*
X006709Y013681D01*
X006658Y013647D01*
X006605Y013616D01*
X006550Y013588D01*
X006493Y013564D01*
X006436Y013543D01*
X006376Y013525D01*
X006316Y013512D01*
X006256Y013502D01*
X006195Y013495D01*
X006133Y013493D01*
X006133Y013498D01*
X006194Y013500D01*
X006255Y013507D01*
X006316Y013517D01*
X006375Y013530D01*
X006434Y013547D01*
X006492Y013568D01*
X006548Y013593D01*
X006602Y013620D01*
X006655Y013651D01*
X006706Y013685D01*
X006754Y013723D01*
X006801Y013763D01*
X006844Y013806D01*
X006885Y013851D01*
X006923Y013899D01*
X006919Y013902D01*
X006881Y013854D01*
X006841Y013809D01*
X006797Y013766D01*
X006751Y013727D01*
X006703Y013689D01*
X006652Y013655D01*
X006600Y013625D01*
X006546Y013597D01*
X006490Y013573D01*
X006432Y013552D01*
X006374Y013535D01*
X006315Y013521D01*
X006254Y013512D01*
X006194Y013505D01*
X006133Y013503D01*
X006133Y013508D01*
X006194Y013510D01*
X006254Y013517D01*
X006314Y013526D01*
X006373Y013540D01*
X006431Y013557D01*
X006488Y013578D01*
X006543Y013602D01*
X006598Y013629D01*
X006650Y013660D01*
X006700Y013694D01*
X006748Y013730D01*
X006794Y013770D01*
X006837Y013813D01*
X006878Y013858D01*
X006915Y013905D01*
X006911Y013908D01*
X006874Y013861D01*
X006834Y013816D01*
X006791Y013774D01*
X006745Y013734D01*
X006697Y013698D01*
X006647Y013664D01*
X006595Y013633D01*
X006541Y013606D01*
X006486Y013582D01*
X006429Y013562D01*
X006371Y013545D01*
X006313Y013531D01*
X006253Y013522D01*
X006193Y013515D01*
X006133Y013513D01*
X006133Y013518D01*
X006193Y013520D01*
X006253Y013526D01*
X006312Y013536D01*
X006370Y013550D01*
X006428Y013566D01*
X006484Y013587D01*
X006539Y013611D01*
X006593Y013638D01*
X006644Y013668D01*
X006694Y013702D01*
X006742Y013738D01*
X006787Y013777D01*
X006830Y013820D01*
X006870Y013864D01*
X006907Y013911D01*
X006903Y013914D01*
X006866Y013867D01*
X006826Y013823D01*
X006784Y013781D01*
X006739Y013742D01*
X006691Y013706D01*
X006642Y013672D01*
X006590Y013642D01*
X006537Y013615D01*
X006482Y013591D01*
X006426Y013571D01*
X006369Y013554D01*
X006311Y013541D01*
X006252Y013531D01*
X006192Y013525D01*
X006133Y013523D01*
X006935Y015149D02*
X006894Y015114D01*
X006894Y015115D02*
X006855Y015159D01*
X006813Y015200D01*
X006769Y015239D01*
X006723Y015275D01*
X006674Y015308D01*
X006624Y015339D01*
X006572Y015366D01*
X006518Y015390D01*
X006463Y015410D01*
X006407Y015428D01*
X006350Y015442D01*
X006292Y015452D01*
X006234Y015459D01*
X006175Y015463D01*
X006116Y015463D01*
X006115Y015516D01*
X006114Y015516D01*
X006176Y015517D01*
X006238Y015513D01*
X006300Y015506D01*
X006361Y015495D01*
X006421Y015480D01*
X006481Y015461D01*
X006539Y015440D01*
X006595Y015414D01*
X006650Y015386D01*
X006704Y015354D01*
X006755Y015319D01*
X006804Y015280D01*
X006850Y015239D01*
X006894Y015196D01*
X006936Y015149D01*
X006932Y015146D01*
X006891Y015192D01*
X006847Y015236D01*
X006801Y015277D01*
X006752Y015315D01*
X006701Y015349D01*
X006648Y015381D01*
X006593Y015410D01*
X006537Y015435D01*
X006479Y015457D01*
X006420Y015475D01*
X006360Y015490D01*
X006299Y015501D01*
X006238Y015508D01*
X006176Y015512D01*
X006114Y015511D01*
X006115Y015506D01*
X006176Y015507D01*
X006237Y015503D01*
X006298Y015496D01*
X006359Y015485D01*
X006419Y015470D01*
X006477Y015452D01*
X006535Y015430D01*
X006591Y015405D01*
X006645Y015377D01*
X006698Y015345D01*
X006749Y015311D01*
X006797Y015273D01*
X006844Y015232D01*
X006887Y015189D01*
X006928Y015143D01*
X006924Y015140D01*
X006883Y015185D01*
X006840Y015229D01*
X006794Y015269D01*
X006746Y015306D01*
X006695Y015341D01*
X006643Y015373D01*
X006589Y015401D01*
X006533Y015426D01*
X006476Y015447D01*
X006417Y015465D01*
X006358Y015480D01*
X006298Y015491D01*
X006237Y015498D01*
X006176Y015502D01*
X006115Y015501D01*
X006115Y015496D01*
X006176Y015497D01*
X006237Y015493D01*
X006297Y015486D01*
X006357Y015475D01*
X006416Y015461D01*
X006474Y015443D01*
X006531Y015421D01*
X006587Y015396D01*
X006641Y015368D01*
X006693Y015337D01*
X006743Y015302D01*
X006791Y015265D01*
X006837Y015225D01*
X006880Y015182D01*
X006920Y015137D01*
X006917Y015133D01*
X006876Y015179D01*
X006833Y015221D01*
X006788Y015261D01*
X006740Y015298D01*
X006690Y015333D01*
X006638Y015364D01*
X006584Y015392D01*
X006529Y015416D01*
X006473Y015438D01*
X006415Y015456D01*
X006356Y015470D01*
X006296Y015481D01*
X006236Y015488D01*
X006176Y015492D01*
X006115Y015491D01*
X006115Y015486D01*
X006176Y015487D01*
X006236Y015483D01*
X006296Y015476D01*
X006355Y015465D01*
X006413Y015451D01*
X006471Y015433D01*
X006527Y015412D01*
X006582Y015387D01*
X006636Y015359D01*
X006687Y015328D01*
X006737Y015294D01*
X006785Y015257D01*
X006830Y015218D01*
X006873Y015175D01*
X006913Y015130D01*
X006909Y015127D01*
X006869Y015172D01*
X006826Y015214D01*
X006781Y015254D01*
X006734Y015290D01*
X006685Y015324D01*
X006633Y015355D01*
X006580Y015383D01*
X006525Y015407D01*
X006469Y015428D01*
X006412Y015446D01*
X006354Y015460D01*
X006295Y015471D01*
X006235Y015478D01*
X006175Y015482D01*
X006116Y015482D01*
X006116Y015477D01*
X006175Y015477D01*
X006235Y015473D01*
X006294Y015466D01*
X006353Y015455D01*
X006411Y015441D01*
X006468Y015424D01*
X006523Y015403D01*
X006578Y015378D01*
X006631Y015351D01*
X006682Y015320D01*
X006731Y015286D01*
X006778Y015250D01*
X006823Y015210D01*
X006865Y015168D01*
X006905Y015124D01*
X006901Y015121D01*
X006862Y015165D01*
X006820Y015207D01*
X006775Y015246D01*
X006728Y015282D01*
X006679Y015316D01*
X006628Y015346D01*
X006576Y015374D01*
X006522Y015398D01*
X006466Y015419D01*
X006409Y015436D01*
X006352Y015450D01*
X006293Y015461D01*
X006234Y015468D01*
X006175Y015472D01*
X006116Y015472D01*
X006116Y015467D01*
X006175Y015467D01*
X006234Y015463D01*
X006293Y015456D01*
X006351Y015446D01*
X006408Y015432D01*
X006464Y015414D01*
X006520Y015393D01*
X006574Y015369D01*
X006626Y015342D01*
X006677Y015312D01*
X006725Y015278D01*
X006772Y015242D01*
X006816Y015203D01*
X006858Y015161D01*
X006897Y015117D01*
X006108Y015517D02*
X006111Y015463D01*
X006111Y015464D02*
X006055Y015458D01*
X005999Y015449D01*
X005945Y015436D01*
X005891Y015419D01*
X005838Y015399D01*
X005788Y015375D01*
X005738Y015347D01*
X005691Y015317D01*
X005646Y015283D01*
X005604Y015245D01*
X005564Y015206D01*
X005528Y015163D01*
X005494Y015118D01*
X005450Y015148D01*
X005449Y015149D01*
X005483Y015193D01*
X005519Y015236D01*
X005558Y015276D01*
X005599Y015313D01*
X005643Y015348D01*
X005689Y015380D01*
X005736Y015409D01*
X005786Y015434D01*
X005837Y015457D01*
X005889Y015476D01*
X005943Y015492D01*
X005997Y015504D01*
X006052Y015512D01*
X006108Y015517D01*
X006108Y015512D01*
X006053Y015507D01*
X005998Y015499D01*
X005944Y015487D01*
X005891Y015471D01*
X005839Y015452D01*
X005788Y015430D01*
X005739Y015404D01*
X005691Y015376D01*
X005646Y015344D01*
X005602Y015310D01*
X005561Y015272D01*
X005523Y015233D01*
X005487Y015190D01*
X005454Y015146D01*
X005458Y015143D01*
X005491Y015187D01*
X005526Y015229D01*
X005565Y015269D01*
X005606Y015306D01*
X005649Y015340D01*
X005694Y015372D01*
X005741Y015400D01*
X005790Y015425D01*
X005841Y015448D01*
X005892Y015466D01*
X005945Y015482D01*
X005999Y015494D01*
X006054Y015502D01*
X006108Y015508D01*
X006109Y015503D01*
X006054Y015498D01*
X006000Y015489D01*
X005947Y015477D01*
X005894Y015462D01*
X005842Y015443D01*
X005792Y015421D01*
X005744Y015396D01*
X005697Y015367D01*
X005652Y015336D01*
X005609Y015302D01*
X005568Y015265D01*
X005530Y015226D01*
X005495Y015184D01*
X005462Y015140D01*
X005466Y015137D01*
X005498Y015181D01*
X005534Y015222D01*
X005572Y015262D01*
X005612Y015298D01*
X005655Y015332D01*
X005699Y015363D01*
X005746Y015391D01*
X005794Y015416D01*
X005844Y015438D01*
X005896Y015457D01*
X005948Y015472D01*
X006001Y015484D01*
X006055Y015493D01*
X006109Y015498D01*
X006109Y015493D01*
X006055Y015488D01*
X006002Y015479D01*
X005949Y015467D01*
X005897Y015452D01*
X005846Y015434D01*
X005797Y015412D01*
X005749Y015387D01*
X005702Y015359D01*
X005658Y015328D01*
X005615Y015294D01*
X005575Y015258D01*
X005537Y015219D01*
X005502Y015178D01*
X005470Y015134D01*
X005474Y015132D01*
X005506Y015175D01*
X005541Y015216D01*
X005579Y015254D01*
X005619Y015291D01*
X005661Y015324D01*
X005705Y015355D01*
X005751Y015383D01*
X005799Y015407D01*
X005848Y015429D01*
X005899Y015447D01*
X005950Y015462D01*
X006003Y015474D01*
X006056Y015483D01*
X006110Y015488D01*
X006110Y015483D01*
X006057Y015478D01*
X006004Y015469D01*
X005952Y015458D01*
X005900Y015443D01*
X005850Y015424D01*
X005801Y015403D01*
X005753Y015378D01*
X005708Y015351D01*
X005664Y015320D01*
X005622Y015287D01*
X005582Y015251D01*
X005545Y015212D01*
X005510Y015172D01*
X005478Y015129D01*
X005482Y015126D01*
X005514Y015169D01*
X005549Y015209D01*
X005586Y015247D01*
X005625Y015283D01*
X005667Y015316D01*
X005710Y015346D01*
X005756Y015374D01*
X005803Y015398D01*
X005852Y015420D01*
X005902Y015438D01*
X005953Y015453D01*
X006005Y015464D01*
X006057Y015473D01*
X006110Y015478D01*
X006110Y015473D01*
X006054Y015467D01*
X005998Y015458D01*
X005942Y015445D01*
X005888Y015428D01*
X005835Y015407D01*
X005783Y015383D01*
X005734Y015355D01*
X005686Y015324D01*
X005641Y015289D01*
X005598Y015252D01*
X005558Y015212D01*
X005521Y015169D01*
X005486Y015123D01*
X005491Y015120D01*
X005524Y015165D01*
X005561Y015208D01*
X005601Y015248D01*
X005644Y015286D01*
X005689Y015320D01*
X005736Y015351D01*
X005786Y015378D01*
X005837Y015403D01*
X005890Y015423D01*
X005944Y015440D01*
X005999Y015453D01*
X006054Y015462D01*
X006111Y015468D01*
D16*
X007174Y015186D02*
X007097Y015140D01*
X007097Y015141D02*
X007062Y015195D01*
X007025Y015247D01*
X006984Y015296D01*
X006940Y015343D01*
X006893Y015387D01*
X006844Y015428D01*
X006792Y015466D01*
X006738Y015501D01*
X006682Y015532D01*
X006625Y015560D01*
X006565Y015584D01*
X006504Y015605D01*
X006443Y015622D01*
X006380Y015635D01*
X006316Y015644D01*
X006252Y015650D01*
X006188Y015651D01*
X006187Y015740D01*
X006187Y015741D01*
X006253Y015740D01*
X006318Y015735D01*
X006384Y015726D01*
X006448Y015713D01*
X006512Y015697D01*
X006575Y015677D01*
X006636Y015653D01*
X006696Y015626D01*
X006755Y015595D01*
X006811Y015562D01*
X006866Y015524D01*
X006918Y015484D01*
X006968Y015441D01*
X007015Y015395D01*
X007059Y015346D01*
X007101Y015295D01*
X007139Y015242D01*
X007175Y015186D01*
X007167Y015182D01*
X007132Y015237D01*
X007094Y015290D01*
X007052Y015341D01*
X007008Y015389D01*
X006961Y015434D01*
X006912Y015477D01*
X006860Y015517D01*
X006806Y015554D01*
X006750Y015588D01*
X006692Y015618D01*
X006633Y015645D01*
X006572Y015668D01*
X006510Y015688D01*
X006446Y015704D01*
X006382Y015717D01*
X006317Y015726D01*
X006252Y015731D01*
X006187Y015732D01*
X006187Y015723D01*
X006252Y015722D01*
X006317Y015717D01*
X006381Y015708D01*
X006444Y015696D01*
X006507Y015679D01*
X006569Y015660D01*
X006629Y015636D01*
X006688Y015610D01*
X006746Y015580D01*
X006801Y015546D01*
X006855Y015510D01*
X006906Y015470D01*
X006955Y015428D01*
X007002Y015383D01*
X007045Y015335D01*
X007086Y015284D01*
X007124Y015232D01*
X007159Y015177D01*
X007151Y015173D01*
X007117Y015227D01*
X007079Y015279D01*
X007039Y015329D01*
X006995Y015376D01*
X006949Y015421D01*
X006901Y015463D01*
X006850Y015503D01*
X006797Y015539D01*
X006741Y015572D01*
X006685Y015602D01*
X006626Y015628D01*
X006566Y015651D01*
X006505Y015671D01*
X006442Y015687D01*
X006379Y015699D01*
X006316Y015708D01*
X006252Y015713D01*
X006187Y015714D01*
X006187Y015705D01*
X006251Y015704D01*
X006315Y015699D01*
X006378Y015690D01*
X006440Y015678D01*
X006502Y015662D01*
X006563Y015643D01*
X006622Y015620D01*
X006681Y015594D01*
X006737Y015564D01*
X006792Y015531D01*
X006844Y015495D01*
X006895Y015456D01*
X006943Y015415D01*
X006989Y015370D01*
X007032Y015323D01*
X007072Y015274D01*
X007109Y015222D01*
X007144Y015168D01*
X007136Y015163D01*
X007102Y015217D01*
X007065Y015268D01*
X007025Y015317D01*
X006982Y015364D01*
X006937Y015408D01*
X006889Y015449D01*
X006839Y015488D01*
X006787Y015524D01*
X006733Y015556D01*
X006677Y015586D01*
X006619Y015612D01*
X006560Y015634D01*
X006500Y015653D01*
X006439Y015669D01*
X006376Y015681D01*
X006314Y015690D01*
X006251Y015695D01*
X006188Y015696D01*
X006188Y015687D01*
X006250Y015686D01*
X006313Y015681D01*
X006375Y015672D01*
X006437Y015660D01*
X006497Y015645D01*
X006557Y015626D01*
X006616Y015603D01*
X006673Y015577D01*
X006728Y015548D01*
X006782Y015516D01*
X006834Y015481D01*
X006884Y015442D01*
X006931Y015401D01*
X006976Y015358D01*
X007018Y015311D01*
X007058Y015263D01*
X007094Y015212D01*
X007128Y015159D01*
X007120Y015154D01*
X007087Y015207D01*
X007051Y015257D01*
X007011Y015305D01*
X006969Y015351D01*
X006925Y015395D01*
X006878Y015435D01*
X006829Y015473D01*
X006777Y015508D01*
X006724Y015540D01*
X006669Y015569D01*
X006612Y015595D01*
X006554Y015617D01*
X006495Y015636D01*
X006435Y015652D01*
X006374Y015664D01*
X006312Y015672D01*
X006250Y015677D01*
X006188Y015678D01*
X006188Y015669D01*
X006250Y015668D01*
X006311Y015663D01*
X006372Y015655D01*
X006433Y015643D01*
X006492Y015628D01*
X006551Y015609D01*
X006609Y015587D01*
X006665Y015561D01*
X006719Y015533D01*
X006772Y015501D01*
X006823Y015466D01*
X006872Y015429D01*
X006919Y015388D01*
X006963Y015345D01*
X007004Y015300D01*
X007043Y015252D01*
X007079Y015202D01*
X007113Y015150D01*
X007105Y015145D01*
X007072Y015197D01*
X007036Y015246D01*
X006998Y015294D01*
X006956Y015339D01*
X006913Y015382D01*
X006866Y015422D01*
X006818Y015459D01*
X006767Y015493D01*
X006715Y015525D01*
X006661Y015553D01*
X006605Y015578D01*
X006548Y015600D01*
X006490Y015619D01*
X006431Y015634D01*
X006371Y015646D01*
X006310Y015654D01*
X006249Y015659D01*
X006188Y015660D01*
X006176Y015740D02*
X006178Y015650D01*
X006178Y015651D02*
X006116Y015647D01*
X006055Y015640D01*
X005994Y015630D01*
X005934Y015616D01*
X005874Y015598D01*
X005816Y015578D01*
X005759Y015554D01*
X005704Y015526D01*
X005650Y015496D01*
X005598Y015463D01*
X005548Y015426D01*
X005500Y015387D01*
X005455Y015345D01*
X005412Y015301D01*
X005371Y015254D01*
X005302Y015310D01*
X005301Y015311D01*
X005345Y015362D01*
X005392Y015410D01*
X005441Y015455D01*
X005493Y015497D01*
X005547Y015537D01*
X005603Y015573D01*
X005662Y015606D01*
X005722Y015636D01*
X005784Y015662D01*
X005847Y015684D01*
X005911Y015703D01*
X005976Y015718D01*
X006042Y015729D01*
X006109Y015737D01*
X006176Y015741D01*
X006176Y015732D01*
X006110Y015728D01*
X006044Y015720D01*
X005978Y015709D01*
X005913Y015694D01*
X005850Y015676D01*
X005787Y015653D01*
X005726Y015627D01*
X005666Y015598D01*
X005608Y015565D01*
X005552Y015529D01*
X005498Y015490D01*
X005447Y015448D01*
X005398Y015403D01*
X005352Y015356D01*
X005308Y015305D01*
X005315Y015300D01*
X005358Y015349D01*
X005404Y015397D01*
X005453Y015441D01*
X005504Y015483D01*
X005557Y015522D01*
X005613Y015558D01*
X005670Y015590D01*
X005729Y015619D01*
X005790Y015645D01*
X005852Y015667D01*
X005916Y015685D01*
X005980Y015700D01*
X006045Y015712D01*
X006110Y015719D01*
X006176Y015723D01*
X006176Y015714D01*
X006111Y015710D01*
X006046Y015703D01*
X005982Y015692D01*
X005918Y015677D01*
X005855Y015658D01*
X005793Y015636D01*
X005733Y015611D01*
X005674Y015582D01*
X005617Y015550D01*
X005562Y015515D01*
X005509Y015476D01*
X005459Y015435D01*
X005410Y015390D01*
X005365Y015343D01*
X005322Y015294D01*
X005329Y015288D01*
X005372Y015337D01*
X005417Y015384D01*
X005465Y015428D01*
X005515Y015469D01*
X005567Y015507D01*
X005622Y015542D01*
X005679Y015574D01*
X005737Y015603D01*
X005797Y015628D01*
X005858Y015650D01*
X005920Y015668D01*
X005983Y015683D01*
X006047Y015694D01*
X006112Y015701D01*
X006177Y015705D01*
X006177Y015696D01*
X006113Y015692D01*
X006049Y015685D01*
X005985Y015674D01*
X005922Y015659D01*
X005861Y015641D01*
X005800Y015620D01*
X005741Y015595D01*
X005683Y015566D01*
X005627Y015535D01*
X005572Y015500D01*
X005520Y015462D01*
X005471Y015421D01*
X005423Y015378D01*
X005378Y015331D01*
X005336Y015283D01*
X005343Y015277D01*
X005385Y015325D01*
X005429Y015371D01*
X005476Y015414D01*
X005526Y015455D01*
X005578Y015492D01*
X005631Y015527D01*
X005687Y015558D01*
X005744Y015586D01*
X005803Y015611D01*
X005863Y015633D01*
X005925Y015651D01*
X005987Y015665D01*
X006050Y015676D01*
X006113Y015683D01*
X006177Y015687D01*
X006177Y015678D01*
X006114Y015674D01*
X006051Y015667D01*
X005989Y015656D01*
X005927Y015642D01*
X005866Y015624D01*
X005806Y015603D01*
X005748Y015578D01*
X005691Y015550D01*
X005636Y015519D01*
X005583Y015485D01*
X005531Y015448D01*
X005482Y015408D01*
X005436Y015365D01*
X005392Y015319D01*
X005350Y015271D01*
X005357Y015266D01*
X005398Y015313D01*
X005442Y015358D01*
X005488Y015401D01*
X005537Y015441D01*
X005588Y015477D01*
X005641Y015511D01*
X005695Y015542D01*
X005752Y015570D01*
X005810Y015594D01*
X005869Y015616D01*
X005929Y015633D01*
X005990Y015647D01*
X006052Y015658D01*
X006115Y015665D01*
X006177Y015669D01*
X006178Y015660D01*
X006115Y015656D01*
X006054Y015649D01*
X005992Y015639D01*
X005931Y015625D01*
X005872Y015607D01*
X005813Y015586D01*
X005755Y015562D01*
X005700Y015534D01*
X005645Y015504D01*
X005593Y015470D01*
X005542Y015433D01*
X005494Y015394D01*
X005448Y015352D01*
X005405Y015307D01*
X005364Y015260D01*
X006159Y013255D02*
X006159Y013345D01*
X006159Y013344D02*
X006223Y013346D01*
X006287Y013351D01*
X006351Y013360D01*
X006413Y013373D01*
X006475Y013390D01*
X006536Y013411D01*
X006596Y013435D01*
X006654Y013462D01*
X006710Y013493D01*
X006765Y013527D01*
X006817Y013565D01*
X006867Y013605D01*
X006914Y013648D01*
X006959Y013694D01*
X007001Y013743D01*
X007040Y013794D01*
X007076Y013847D01*
X007108Y013903D01*
X007187Y013860D01*
X007154Y013803D01*
X007117Y013748D01*
X007078Y013695D01*
X007035Y013645D01*
X006990Y013597D01*
X006942Y013551D01*
X006892Y013509D01*
X006839Y013469D01*
X006784Y013433D01*
X006727Y013399D01*
X006669Y013369D01*
X006608Y013342D01*
X006547Y013319D01*
X006484Y013299D01*
X006420Y013283D01*
X006355Y013270D01*
X006290Y013261D01*
X006224Y013256D01*
X006158Y013254D01*
X006158Y013263D01*
X006224Y013265D01*
X006289Y013270D01*
X006354Y013279D01*
X006418Y013291D01*
X006481Y013308D01*
X006544Y013327D01*
X006605Y013350D01*
X006665Y013377D01*
X006723Y013407D01*
X006779Y013440D01*
X006834Y013477D01*
X006886Y013516D01*
X006936Y013558D01*
X006984Y013603D01*
X007029Y013651D01*
X007071Y013701D01*
X007110Y013753D01*
X007146Y013808D01*
X007179Y013864D01*
X007172Y013868D01*
X007139Y013812D01*
X007103Y013758D01*
X007064Y013706D01*
X007022Y013657D01*
X006977Y013610D01*
X006930Y013565D01*
X006880Y013523D01*
X006829Y013484D01*
X006775Y013448D01*
X006719Y013415D01*
X006661Y013385D01*
X006602Y013359D01*
X006541Y013336D01*
X006479Y013316D01*
X006416Y013300D01*
X006352Y013288D01*
X006288Y013279D01*
X006223Y013274D01*
X006158Y013272D01*
X006158Y013281D01*
X006223Y013283D01*
X006287Y013288D01*
X006351Y013297D01*
X006414Y013309D01*
X006476Y013325D01*
X006538Y013344D01*
X006598Y013367D01*
X006657Y013393D01*
X006714Y013423D01*
X006770Y013456D01*
X006823Y013491D01*
X006875Y013530D01*
X006924Y013572D01*
X006971Y013616D01*
X007015Y013663D01*
X007057Y013712D01*
X007095Y013763D01*
X007131Y013817D01*
X007164Y013873D01*
X007156Y013877D01*
X007123Y013822D01*
X007088Y013769D01*
X007050Y013718D01*
X007008Y013669D01*
X006965Y013622D01*
X006918Y013578D01*
X006869Y013537D01*
X006818Y013499D01*
X006765Y013463D01*
X006710Y013431D01*
X006653Y013401D01*
X006595Y013375D01*
X006535Y013353D01*
X006474Y013334D01*
X006412Y013318D01*
X006349Y013305D01*
X006286Y013297D01*
X006222Y013292D01*
X006158Y013290D01*
X006158Y013299D01*
X006222Y013301D01*
X006285Y013306D01*
X006348Y013314D01*
X006410Y013326D01*
X006472Y013342D01*
X006532Y013361D01*
X006591Y013384D01*
X006649Y013410D01*
X006706Y013439D01*
X006760Y013471D01*
X006813Y013506D01*
X006864Y013544D01*
X006912Y013585D01*
X006958Y013629D01*
X007002Y013675D01*
X007043Y013723D01*
X007081Y013774D01*
X007116Y013827D01*
X007148Y013881D01*
X007140Y013886D01*
X007106Y013828D01*
X007069Y013773D01*
X007029Y013721D01*
X006986Y013670D01*
X006939Y013623D01*
X006890Y013578D01*
X006839Y013536D01*
X006785Y013497D01*
X006729Y013462D01*
X006670Y013430D01*
X006610Y013402D01*
X006549Y013377D01*
X006486Y013356D01*
X006422Y013338D01*
X006357Y013325D01*
X006291Y013315D01*
X006225Y013310D01*
X006159Y013308D01*
X006159Y013317D01*
X006224Y013319D01*
X006290Y013324D01*
X006355Y013334D01*
X006420Y013347D01*
X006483Y013364D01*
X006546Y013385D01*
X006607Y013410D01*
X006666Y013438D01*
X006724Y013470D01*
X006780Y013505D01*
X006833Y013543D01*
X006884Y013585D01*
X006933Y013629D01*
X006979Y013676D01*
X007022Y013726D01*
X007062Y013779D01*
X007099Y013833D01*
X007132Y013890D01*
X007124Y013894D01*
X007091Y013838D01*
X007055Y013784D01*
X007015Y013732D01*
X006972Y013682D01*
X006927Y013636D01*
X006879Y013591D01*
X006828Y013550D01*
X006775Y013512D01*
X006719Y013478D01*
X006662Y013446D01*
X006603Y013418D01*
X006543Y013394D01*
X006481Y013373D01*
X006418Y013356D01*
X006354Y013343D01*
X006289Y013333D01*
X006224Y013328D01*
X006159Y013326D01*
X006159Y013335D01*
X006224Y013337D01*
X006288Y013342D01*
X006352Y013352D01*
X006416Y013365D01*
X006478Y013382D01*
X006539Y013402D01*
X006600Y013426D01*
X006658Y013454D01*
X006715Y013485D01*
X006770Y013520D01*
X006822Y013558D01*
X006873Y013598D01*
X006920Y013642D01*
X006966Y013688D01*
X007008Y013737D01*
X007047Y013789D01*
X007083Y013843D01*
X007116Y013898D01*
X005296Y013720D02*
X005369Y013773D01*
X005368Y013772D02*
X005406Y013724D01*
X005447Y013678D01*
X005490Y013635D01*
X005536Y013594D01*
X005583Y013555D01*
X005634Y013520D01*
X005686Y013487D01*
X005739Y013458D01*
X005795Y013432D01*
X005852Y013409D01*
X005910Y013389D01*
X005969Y013373D01*
X006029Y013360D01*
X006089Y013350D01*
X006151Y013344D01*
X006145Y013255D01*
X006079Y013261D01*
X006013Y013271D01*
X005948Y013285D01*
X005883Y013303D01*
X005820Y013324D01*
X005759Y013349D01*
X005698Y013378D01*
X005640Y013410D01*
X005584Y013445D01*
X005529Y013484D01*
X005477Y013525D01*
X005428Y013570D01*
X005381Y013617D01*
X005337Y013667D01*
X005296Y013719D01*
X005303Y013725D01*
X005344Y013673D01*
X005387Y013623D01*
X005434Y013576D01*
X005483Y013532D01*
X005535Y013491D01*
X005589Y013453D01*
X005645Y013418D01*
X005703Y013386D01*
X005762Y013358D01*
X005824Y013333D01*
X005886Y013311D01*
X005950Y013294D01*
X006014Y013280D01*
X006080Y013270D01*
X006145Y013264D01*
X006146Y013273D01*
X006081Y013279D01*
X006016Y013289D01*
X005952Y013303D01*
X005889Y013320D01*
X005827Y013341D01*
X005766Y013366D01*
X005707Y013394D01*
X005649Y013425D01*
X005594Y013460D01*
X005540Y013498D01*
X005489Y013539D01*
X005440Y013583D01*
X005394Y013629D01*
X005351Y013678D01*
X005310Y013730D01*
X005317Y013735D01*
X005357Y013684D01*
X005401Y013635D01*
X005446Y013589D01*
X005495Y013546D01*
X005545Y013505D01*
X005599Y013468D01*
X005654Y013433D01*
X005711Y013402D01*
X005769Y013374D01*
X005830Y013350D01*
X005891Y013329D01*
X005954Y013311D01*
X006018Y013298D01*
X006082Y013288D01*
X006147Y013282D01*
X006147Y013291D01*
X006083Y013297D01*
X006019Y013307D01*
X005956Y013320D01*
X005894Y013337D01*
X005833Y013358D01*
X005773Y013382D01*
X005715Y013410D01*
X005658Y013441D01*
X005604Y013475D01*
X005551Y013512D01*
X005501Y013553D01*
X005453Y013596D01*
X005407Y013641D01*
X005364Y013690D01*
X005325Y013741D01*
X005332Y013746D01*
X005371Y013696D01*
X005414Y013648D01*
X005459Y013602D01*
X005506Y013559D01*
X005556Y013520D01*
X005609Y013483D01*
X005663Y013449D01*
X005719Y013418D01*
X005777Y013391D01*
X005836Y013366D01*
X005897Y013346D01*
X005958Y013329D01*
X006021Y013315D01*
X006084Y013306D01*
X006148Y013299D01*
X006148Y013308D01*
X006085Y013315D01*
X006022Y013324D01*
X005960Y013338D01*
X005899Y013355D01*
X005839Y013375D01*
X005780Y013399D01*
X005723Y013426D01*
X005667Y013456D01*
X005614Y013490D01*
X005562Y013527D01*
X005512Y013566D01*
X005465Y013609D01*
X005420Y013654D01*
X005378Y013701D01*
X005339Y013751D01*
X005346Y013757D01*
X005385Y013707D01*
X005427Y013660D01*
X005471Y013615D01*
X005518Y013573D01*
X005567Y013534D01*
X005619Y013498D01*
X005672Y013464D01*
X005727Y013434D01*
X005784Y013407D01*
X005842Y013383D01*
X005902Y013363D01*
X005962Y013346D01*
X006024Y013333D01*
X006086Y013324D01*
X006149Y013317D01*
X006149Y013326D01*
X006087Y013332D01*
X006026Y013342D01*
X005965Y013355D01*
X005904Y013372D01*
X005845Y013392D01*
X005788Y013415D01*
X005731Y013442D01*
X005676Y013472D01*
X005624Y013505D01*
X005573Y013541D01*
X005524Y013580D01*
X005477Y013622D01*
X005433Y013666D01*
X005392Y013713D01*
X005354Y013762D01*
X005361Y013767D01*
X005399Y013719D01*
X005440Y013672D01*
X005484Y013628D01*
X005530Y013587D01*
X005578Y013548D01*
X005629Y013512D01*
X005681Y013480D01*
X005735Y013450D01*
X005791Y013423D01*
X005849Y013400D01*
X005907Y013380D01*
X005967Y013364D01*
X006027Y013351D01*
X006088Y013341D01*
X006150Y013335D01*
D17*
X004661Y012091D02*
X001161Y012091D01*
X001161Y009910D01*
X004661Y009910D01*
X004661Y012091D01*
X003592Y011636D02*
X003592Y010366D01*
X003600Y009310D02*
X003600Y008040D01*
X004669Y007583D02*
X001169Y007583D01*
X001169Y009764D01*
X004669Y009764D01*
X004669Y007583D01*
X006841Y007210D02*
X006841Y011336D01*
X015195Y011336D01*
X015195Y007210D01*
X006841Y007210D01*
X007412Y008546D02*
X007412Y008796D01*
X007662Y008796D01*
X007162Y009796D01*
X007162Y008796D01*
X007412Y008796D01*
X007662Y008796D02*
X007662Y009796D01*
X007412Y009796D01*
X007162Y009796D01*
X007412Y009796D02*
X007412Y010046D01*
X011663Y009273D02*
X011660Y008373D01*
X011663Y009273D02*
X014568Y009933D01*
X015007Y010173D02*
X013927Y010173D01*
X013923Y008373D02*
X015003Y008373D01*
X016242Y008289D02*
X016242Y011789D01*
X018423Y011789D01*
X018423Y008289D01*
X016242Y008289D01*
X016698Y009358D02*
X017968Y009358D01*
M02*
