G75*
G70*
%OFA0B0*%
%FSLAX24Y24*%
%IPPOS*%
%LPD*%
%AMOC8*
5,1,8,0,0,1.08239X$1,22.5*
%
%ADD10C,0.0000*%
%ADD11C,0.0020*%
%ADD12C,0.0080*%
%ADD13C,0.0050*%
%ADD14C,0.0040*%
%ADD15C,0.0079*%
%ADD16C,0.0059*%
%ADD17C,0.0100*%
D10*
X000219Y000180D02*
X000219Y018176D01*
X019377Y018176D01*
X019382Y018176D02*
X019382Y000180D01*
X019377Y000180D02*
X000219Y000180D01*
D11*
X002548Y000910D02*
X002695Y000690D01*
X002769Y000690D02*
X002916Y000690D01*
X002842Y000690D02*
X002842Y000910D01*
X002916Y000837D01*
X002990Y000800D02*
X002990Y000727D01*
X003027Y000690D01*
X003100Y000690D01*
X003137Y000727D01*
X003137Y000800D02*
X003063Y000837D01*
X003027Y000837D01*
X002990Y000800D01*
X002990Y000910D02*
X003137Y000910D01*
X003137Y000800D01*
X003210Y000727D02*
X003210Y000690D01*
X003247Y000690D01*
X003247Y000727D01*
X003210Y000727D01*
X003321Y000727D02*
X003358Y000690D01*
X003431Y000690D01*
X003468Y000727D01*
X003321Y000873D01*
X003321Y000727D01*
X003321Y000873D02*
X003358Y000910D01*
X003431Y000910D01*
X003468Y000873D01*
X003468Y000727D01*
X003542Y000800D02*
X003689Y000800D01*
X003763Y000690D02*
X003910Y000690D01*
X003910Y000910D01*
X003984Y000910D02*
X003984Y000690D01*
X003984Y000800D02*
X004131Y000800D01*
X004205Y000763D02*
X004205Y000727D01*
X004242Y000690D01*
X004315Y000690D01*
X004352Y000727D01*
X004315Y000800D02*
X004242Y000800D01*
X004205Y000763D01*
X004131Y000690D02*
X004131Y000910D01*
X004205Y000873D02*
X004242Y000910D01*
X004315Y000910D01*
X004352Y000873D01*
X004352Y000837D01*
X004315Y000800D01*
X004426Y000910D02*
X004573Y000690D01*
X004647Y000727D02*
X004684Y000763D01*
X004757Y000763D01*
X004794Y000800D01*
X004757Y000837D01*
X004647Y000837D01*
X004647Y000727D02*
X004684Y000690D01*
X004794Y000690D01*
X004868Y000763D02*
X005015Y000763D01*
X005015Y000727D02*
X005015Y000800D01*
X004978Y000837D01*
X004905Y000837D01*
X004868Y000800D01*
X004868Y000763D01*
X004905Y000690D02*
X004978Y000690D01*
X005015Y000727D01*
X005089Y000727D02*
X005126Y000763D01*
X005199Y000763D01*
X005236Y000800D01*
X005199Y000837D01*
X005089Y000837D01*
X005089Y000727D02*
X005126Y000690D01*
X005236Y000690D01*
X005310Y000690D02*
X005310Y000800D01*
X005347Y000837D01*
X005457Y000837D01*
X005457Y000690D01*
X005531Y000763D02*
X005678Y000763D01*
X005678Y000727D02*
X005678Y000800D01*
X005641Y000837D01*
X005568Y000837D01*
X005531Y000800D01*
X005531Y000763D01*
X005568Y000690D02*
X005641Y000690D01*
X005678Y000727D01*
X005752Y000690D02*
X005862Y000690D01*
X005899Y000727D01*
X005899Y000800D01*
X005862Y000837D01*
X005752Y000837D01*
X006010Y000837D02*
X006010Y000690D01*
X006046Y000690D02*
X005973Y000690D01*
X006120Y000690D02*
X006194Y000690D01*
X006157Y000690D02*
X006157Y000910D01*
X006194Y000910D01*
X006268Y000910D02*
X006415Y000690D01*
X006489Y000690D02*
X006599Y000690D01*
X006636Y000727D01*
X006636Y000800D01*
X006599Y000837D01*
X006489Y000837D01*
X006489Y000653D01*
X006526Y000617D01*
X006562Y000617D01*
X006710Y000837D02*
X006746Y000837D01*
X006820Y000763D01*
X006820Y000690D02*
X006820Y000837D01*
X006894Y000800D02*
X006894Y000727D01*
X006931Y000690D01*
X007004Y000690D01*
X007041Y000727D01*
X007041Y000800D01*
X007004Y000837D01*
X006931Y000837D01*
X006894Y000800D01*
X007115Y000727D02*
X007115Y000690D01*
X007151Y000690D01*
X007151Y000727D01*
X007115Y000727D01*
X007225Y000690D02*
X007336Y000690D01*
X007372Y000727D01*
X007372Y000800D01*
X007336Y000837D01*
X007225Y000837D01*
X007225Y000910D02*
X007225Y000690D01*
X007446Y000690D02*
X007446Y000800D01*
X007483Y000837D01*
X007557Y000837D01*
X007557Y000763D02*
X007446Y000763D01*
X007446Y000690D02*
X007557Y000690D01*
X007593Y000727D01*
X007557Y000763D01*
X007667Y000727D02*
X007704Y000690D01*
X007814Y000690D01*
X007814Y000617D02*
X007814Y000837D01*
X007704Y000837D01*
X007667Y000800D01*
X007667Y000727D01*
X007888Y000837D02*
X007925Y000837D01*
X007998Y000763D01*
X007998Y000690D02*
X007998Y000837D01*
X008073Y000800D02*
X008073Y000763D01*
X008219Y000763D01*
X008219Y000727D02*
X008219Y000800D01*
X008183Y000837D01*
X008109Y000837D01*
X008073Y000800D01*
X008109Y000690D02*
X008183Y000690D01*
X008219Y000727D01*
X008294Y000690D02*
X008294Y000910D01*
X008294Y000837D02*
X008404Y000837D01*
X008440Y000800D01*
X008440Y000727D01*
X008404Y000690D01*
X008294Y000690D01*
X008514Y000690D02*
X008588Y000690D01*
X008551Y000690D02*
X008551Y000910D01*
X008588Y000910D01*
X008662Y000800D02*
X008662Y000727D01*
X008699Y000690D01*
X008772Y000690D01*
X008809Y000727D01*
X008809Y000800D01*
X008772Y000837D01*
X008699Y000837D01*
X008662Y000800D01*
X008883Y000837D02*
X008993Y000837D01*
X009030Y000800D01*
X008993Y000763D01*
X008920Y000763D01*
X008883Y000727D01*
X008920Y000690D01*
X009030Y000690D01*
X009324Y000690D02*
X009361Y000690D01*
X009361Y000727D01*
X009324Y000727D01*
X009324Y000690D01*
X009324Y000800D02*
X009361Y000800D01*
X009361Y000837D01*
X009324Y000837D01*
X009324Y000800D01*
X009435Y000800D02*
X009435Y000763D01*
X009582Y000763D01*
X009582Y000727D02*
X009582Y000800D01*
X009545Y000837D01*
X009472Y000837D01*
X009435Y000800D01*
X009472Y000690D02*
X009545Y000690D01*
X009582Y000727D01*
X009656Y000727D02*
X009693Y000763D01*
X009766Y000763D01*
X009803Y000800D01*
X009766Y000837D01*
X009656Y000837D01*
X009656Y000727D02*
X009693Y000690D01*
X009803Y000690D01*
X009877Y000690D02*
X009877Y000800D01*
X009914Y000837D01*
X010024Y000837D01*
X010024Y000690D01*
X010098Y000763D02*
X010245Y000763D01*
X010245Y000727D02*
X010245Y000800D01*
X010208Y000837D01*
X010135Y000837D01*
X010098Y000800D01*
X010098Y000763D01*
X010135Y000690D02*
X010208Y000690D01*
X010245Y000727D01*
X010319Y000690D02*
X010429Y000690D01*
X010466Y000727D01*
X010466Y000800D01*
X010429Y000837D01*
X010319Y000837D01*
X010577Y000837D02*
X010577Y000690D01*
X010613Y000690D02*
X010540Y000690D01*
X010688Y000690D02*
X010834Y000690D01*
X010834Y000910D01*
X010613Y000837D02*
X010577Y000837D01*
X010577Y000910D02*
X010577Y000947D01*
X006046Y000837D02*
X006010Y000837D01*
X006010Y000910D02*
X006010Y000947D01*
D12*
X012504Y003145D02*
X013685Y003145D01*
X013685Y004129D02*
X013685Y005231D01*
X013685Y006215D02*
X012504Y006215D01*
X012897Y006176D02*
X012899Y006149D01*
X012904Y006123D01*
X012913Y006098D01*
X012926Y006074D01*
X012941Y006052D01*
X012960Y006032D01*
X012980Y006015D01*
X013003Y006001D01*
X013028Y005990D01*
X013054Y005983D01*
X013081Y005979D01*
X013107Y005979D01*
X013134Y005983D01*
X013160Y005990D01*
X013185Y006001D01*
X013208Y006015D01*
X013228Y006032D01*
X013247Y006052D01*
X013262Y006074D01*
X013275Y006098D01*
X013284Y006123D01*
X013289Y006149D01*
X013291Y006176D01*
X012504Y005231D02*
X012504Y004129D01*
X006013Y014620D02*
X005675Y014620D01*
X006163Y015074D02*
X006163Y015286D01*
X006013Y015740D02*
X005675Y015740D01*
X007872Y015853D02*
X008029Y015696D01*
X008659Y015696D01*
X008817Y015853D01*
X008817Y016286D01*
X008817Y017074D02*
X008817Y017664D01*
X007872Y017664D01*
X007872Y017074D01*
X007872Y016286D02*
X007872Y015853D01*
D13*
X007944Y016530D02*
X008744Y016530D01*
X003793Y010933D02*
X003793Y010633D01*
X003793Y010783D02*
X004243Y010783D01*
X004093Y010633D01*
X003793Y010473D02*
X003793Y010173D01*
X003793Y010323D02*
X004243Y010323D01*
X004093Y010173D01*
X004168Y010012D02*
X004243Y009937D01*
X004243Y009787D01*
X004168Y009712D01*
X003868Y009712D01*
X003793Y009787D01*
X003793Y009937D01*
X003868Y010012D01*
X009412Y009000D02*
X009487Y009075D01*
X009637Y009075D01*
X009712Y009000D01*
X009412Y009000D02*
X009412Y008925D01*
X009712Y008625D01*
X009412Y008625D01*
X009872Y008625D02*
X010173Y008625D01*
X010022Y008625D02*
X010022Y009075D01*
X010173Y008925D01*
X010333Y009000D02*
X010408Y009075D01*
X010558Y009075D01*
X010633Y009000D01*
X010633Y008700D01*
X010558Y008625D01*
X010408Y008625D01*
X010333Y008700D01*
X010065Y008083D02*
X009915Y008083D01*
X009840Y008008D01*
X009680Y008008D02*
X009680Y007933D01*
X009605Y007858D01*
X009380Y007858D01*
X009380Y008008D02*
X009380Y007707D01*
X009455Y007632D01*
X009605Y007632D01*
X009680Y007707D01*
X009840Y007707D02*
X009915Y007632D01*
X010065Y007632D01*
X010140Y007707D01*
X010140Y008008D01*
X010065Y008083D01*
X009680Y008008D02*
X009605Y008083D01*
X009455Y008083D01*
X009380Y008008D01*
X008720Y003745D02*
X008645Y003745D01*
X008344Y003445D01*
X008269Y003445D01*
X008269Y003284D02*
X008419Y003134D01*
X008419Y003209D02*
X008419Y002984D01*
X008269Y002984D02*
X008720Y002984D01*
X008720Y003209D01*
X008645Y003284D01*
X008495Y003284D01*
X008419Y003209D01*
X008720Y003445D02*
X008720Y003745D01*
X004769Y003680D02*
X004769Y004130D01*
X004544Y004130D01*
X004469Y004055D01*
X004469Y003905D01*
X004544Y003830D01*
X004769Y003830D01*
X004619Y003830D02*
X004469Y003680D01*
X004309Y003680D02*
X004009Y003680D01*
X004159Y003680D02*
X004159Y004130D01*
X004309Y003980D01*
X015194Y004459D02*
X015269Y004384D01*
X015570Y004384D01*
X015645Y004459D01*
X015645Y004609D01*
X015570Y004684D01*
X015420Y004845D02*
X015420Y005070D01*
X015344Y005145D01*
X015269Y005145D01*
X015194Y005070D01*
X015194Y004920D01*
X015269Y004845D01*
X015420Y004845D01*
X015570Y004995D01*
X015645Y005145D01*
X015669Y005234D02*
X015669Y005459D01*
X015745Y005534D01*
X015895Y005534D01*
X015970Y005459D01*
X015970Y005234D01*
X015519Y005234D01*
X015669Y005384D02*
X015519Y005534D01*
X015594Y005695D02*
X015519Y005770D01*
X015519Y005920D01*
X015594Y005995D01*
X015669Y005995D01*
X015745Y005920D01*
X015745Y005845D01*
X015745Y005920D02*
X015820Y005995D01*
X015895Y005995D01*
X015970Y005920D01*
X015970Y005770D01*
X015895Y005695D01*
X015269Y004684D02*
X015194Y004609D01*
X015194Y004459D01*
D14*
X013413Y002725D02*
X013336Y002802D01*
X013183Y002802D01*
X013106Y002725D01*
X013106Y002418D01*
X013183Y002342D01*
X013336Y002342D01*
X013413Y002418D01*
X013413Y002725D01*
X013259Y002495D02*
X013106Y002342D01*
X012952Y002342D02*
X012645Y002342D01*
X012799Y002342D02*
X012799Y002802D01*
X012952Y002649D01*
X010998Y004429D02*
X010921Y004353D01*
X010615Y004353D01*
X010538Y004429D01*
X010538Y004583D01*
X010615Y004660D01*
X010615Y004813D02*
X010538Y004890D01*
X010538Y005043D01*
X010615Y005120D01*
X010768Y005120D01*
X010845Y005043D01*
X010845Y004966D01*
X010768Y004813D01*
X010998Y004813D01*
X010998Y005120D01*
X010921Y004660D02*
X010998Y004583D01*
X010998Y004429D01*
X013955Y008650D02*
X014108Y008650D01*
X014185Y008727D01*
X013878Y009034D01*
X013878Y008727D01*
X013955Y008650D01*
X014185Y008727D02*
X014185Y009034D01*
X014108Y009110D01*
X013955Y009110D01*
X013878Y009034D01*
X014338Y008650D02*
X014645Y008650D01*
X014492Y008650D02*
X014492Y009110D01*
X014645Y008957D01*
X014799Y009034D02*
X014875Y009110D01*
X015029Y009110D01*
X015106Y009034D01*
X015106Y008727D01*
X015029Y008650D01*
X014875Y008650D01*
X014799Y008727D01*
X018064Y005820D02*
X018064Y005666D01*
X018141Y005590D01*
X018141Y005436D02*
X018064Y005359D01*
X018064Y005206D01*
X018141Y005129D01*
X018448Y005129D01*
X018525Y005206D01*
X018525Y005359D01*
X018448Y005436D01*
X018448Y005590D02*
X018525Y005666D01*
X018525Y005820D01*
X018448Y005897D01*
X018371Y005897D01*
X018295Y005820D01*
X018218Y005897D01*
X018141Y005897D01*
X018064Y005820D01*
X018295Y005820D02*
X018295Y005743D01*
X010662Y015154D02*
X010355Y015154D01*
X010279Y015231D01*
X010279Y015384D01*
X010355Y015461D01*
X010355Y015615D02*
X010279Y015615D01*
X010355Y015615D02*
X010662Y015922D01*
X010739Y015922D01*
X010739Y015615D01*
X010662Y015461D02*
X010739Y015384D01*
X010739Y015231D01*
X010662Y015154D01*
X010662Y016654D02*
X010355Y016654D01*
X010279Y016731D01*
X010279Y016884D01*
X010355Y016961D01*
X010509Y017115D02*
X010509Y017422D01*
X010279Y017345D02*
X010739Y017345D01*
X010509Y017115D01*
X010662Y016961D02*
X010739Y016884D01*
X010739Y016731D01*
X010662Y016654D01*
X008364Y015470D02*
X008364Y015316D01*
X008287Y015240D01*
X008287Y015086D02*
X008364Y015009D01*
X008364Y014856D01*
X008287Y014779D01*
X007980Y014779D01*
X007904Y014856D01*
X007904Y015009D01*
X007980Y015086D01*
X007904Y015240D02*
X008211Y015547D01*
X008287Y015547D01*
X008364Y015470D01*
X007904Y015547D02*
X007904Y015240D01*
X007458Y014361D02*
X007228Y014361D01*
X007151Y014284D01*
X007151Y014131D01*
X007228Y014054D01*
X007458Y014054D01*
X007458Y013901D02*
X007458Y014361D01*
X007304Y014054D02*
X007151Y013901D01*
X006997Y013978D02*
X006997Y014131D01*
X006767Y014131D01*
X006690Y014054D01*
X006690Y013978D01*
X006767Y013901D01*
X006921Y013901D01*
X006997Y013978D01*
X006997Y014131D02*
X006844Y014284D01*
X006690Y014361D01*
X006487Y014435D02*
X006257Y014435D01*
X006180Y014359D01*
X006180Y014205D01*
X006257Y014128D01*
X006487Y014128D01*
X006487Y013975D02*
X006487Y014435D01*
X006333Y014128D02*
X006180Y013975D01*
X006026Y014052D02*
X006026Y014128D01*
X005950Y014205D01*
X005796Y014205D01*
X005720Y014128D01*
X005720Y014052D01*
X005796Y013975D01*
X005950Y013975D01*
X006026Y014052D01*
X005950Y014205D02*
X006026Y014282D01*
X006026Y014359D01*
X005950Y014435D01*
X005796Y014435D01*
X005720Y014359D01*
X005720Y014282D01*
X005796Y014205D01*
X005494Y013397D02*
X005494Y012963D01*
X004694Y012963D02*
X004694Y013397D01*
X004574Y013325D02*
X004114Y013325D01*
X004267Y013171D01*
X004114Y013018D01*
X004574Y013018D01*
X004574Y012864D02*
X004114Y012864D01*
X004114Y012634D01*
X004191Y012557D01*
X004344Y012557D01*
X004421Y012634D01*
X004421Y012864D01*
X004114Y013478D02*
X004114Y013785D01*
X004114Y013632D02*
X004574Y013632D01*
X004507Y014227D02*
X004430Y014303D01*
X004507Y014227D02*
X004660Y014227D01*
X004737Y014303D01*
X004737Y014610D01*
X004660Y014687D01*
X004507Y014687D01*
X004430Y014610D01*
X004276Y014534D02*
X004123Y014687D01*
X004123Y014227D01*
X004276Y014227D02*
X003969Y014227D01*
X005480Y015894D02*
X005787Y015894D01*
X005634Y015894D02*
X005634Y016355D01*
X005787Y016201D01*
X005941Y016355D02*
X005941Y015971D01*
X006017Y015894D01*
X006171Y015894D01*
X006248Y015971D01*
X006248Y016355D01*
X007264Y016402D02*
X007264Y016555D01*
X007340Y016632D01*
X007340Y016786D02*
X007264Y016862D01*
X007264Y017016D01*
X007340Y017093D01*
X007417Y017093D01*
X007494Y017016D01*
X007494Y016862D01*
X007571Y016786D01*
X007647Y016786D01*
X007724Y016862D01*
X007724Y017016D01*
X007647Y017093D01*
X007571Y017093D01*
X007494Y017016D01*
X007494Y016862D02*
X007417Y016786D01*
X007340Y016786D01*
X007647Y016632D02*
X007724Y016555D01*
X007724Y016402D01*
X007647Y016325D01*
X007340Y016325D01*
X007264Y016402D01*
X004200Y011796D02*
X004124Y011796D01*
X003817Y011490D01*
X003817Y011796D01*
X004200Y011796D02*
X004277Y011720D01*
X004277Y011566D01*
X004200Y011490D01*
X004200Y011336D02*
X004047Y011336D01*
X003970Y011259D01*
X003970Y011029D01*
X003817Y011029D02*
X004277Y011029D01*
X004277Y011259D01*
X004200Y011336D01*
X003970Y011183D02*
X003817Y011336D01*
X003968Y009435D02*
X003968Y009128D01*
X004198Y009358D01*
X003738Y009358D01*
X003738Y008975D02*
X003891Y008821D01*
X003891Y008898D02*
X003891Y008668D01*
X003738Y008668D02*
X004198Y008668D01*
X004198Y008898D01*
X004121Y008975D01*
X003968Y008975D01*
X003891Y008898D01*
X003815Y008435D02*
X003738Y008358D01*
X003738Y008205D01*
X003815Y008128D01*
X003968Y008128D02*
X004045Y008281D01*
X004045Y008358D01*
X003968Y008435D01*
X003815Y008435D01*
X003968Y008128D02*
X004198Y008128D01*
X004198Y008435D01*
X004121Y007975D02*
X003968Y007975D01*
X003891Y007898D01*
X003891Y007668D01*
X003891Y007821D02*
X003738Y007975D01*
X004121Y007975D02*
X004198Y007898D01*
X004198Y007668D01*
X003738Y007668D01*
D15*
X010503Y011605D02*
X015818Y016920D01*
X013938Y015916D02*
X013934Y015867D01*
X013934Y015817D01*
X013938Y015768D01*
X013977Y015759D02*
X013987Y015857D01*
X013987Y015917D02*
X013984Y015925D01*
X013979Y015933D01*
X013971Y015937D01*
X013962Y015939D01*
X013953Y015937D01*
X013945Y015933D01*
X013940Y015925D01*
X013937Y015917D01*
X014154Y015837D02*
X014169Y015828D01*
X014181Y015817D01*
X014192Y015804D01*
X014199Y015789D01*
X014204Y015772D01*
X014205Y015755D01*
X014203Y015739D01*
X014194Y015739D02*
X012156Y015739D01*
X012127Y015739D02*
X012125Y015752D01*
X012126Y015765D01*
X012130Y015778D01*
X012137Y015789D01*
X012147Y015798D01*
X011980Y015710D02*
X011982Y015729D01*
X011987Y015748D01*
X011997Y015764D01*
X012009Y015779D01*
X012024Y015791D01*
X012040Y015801D01*
X012059Y015806D01*
X012078Y015808D01*
X012097Y015806D01*
X012116Y015801D01*
X012132Y015791D01*
X012147Y015779D01*
X012159Y015764D01*
X012169Y015748D01*
X012174Y015729D01*
X012176Y015710D01*
X012174Y015691D01*
X012169Y015672D01*
X012159Y015656D01*
X012147Y015641D01*
X012132Y015629D01*
X012116Y015619D01*
X012097Y015614D01*
X012078Y015612D01*
X012059Y015614D01*
X012040Y015619D01*
X012024Y015629D01*
X012009Y015641D01*
X011997Y015656D01*
X011987Y015672D01*
X011982Y015691D01*
X011980Y015710D01*
X011969Y015710D02*
X011969Y015700D01*
X011969Y015710D02*
X014312Y015710D01*
X014322Y015710D01*
X014332Y015710D01*
X014322Y015710D02*
X014312Y015710D01*
X014332Y015710D02*
X014341Y015709D01*
X014350Y015704D01*
X014356Y015698D01*
X014361Y015689D01*
X014362Y015680D01*
X014361Y015680D02*
X014361Y015660D01*
X014361Y015631D01*
X014359Y015623D01*
X014355Y015617D01*
X014349Y015613D01*
X014341Y015611D01*
X014184Y015611D01*
X013337Y015611D01*
X012530Y015611D01*
X012058Y015611D01*
X012117Y015601D02*
X012393Y012885D01*
X012383Y012658D02*
X012385Y012681D01*
X012391Y012704D01*
X012401Y012725D01*
X012414Y012745D01*
X012430Y012762D01*
X012449Y012776D01*
X012470Y012786D01*
X012492Y012793D01*
X012515Y012796D01*
X012539Y012795D01*
X012561Y012790D01*
X012583Y012781D01*
X012603Y012769D01*
X012621Y012753D01*
X012635Y012735D01*
X012647Y012715D01*
X012655Y012693D01*
X012659Y012670D01*
X012659Y012646D01*
X012655Y012623D01*
X012647Y012601D01*
X012635Y012581D01*
X012621Y012563D01*
X012603Y012547D01*
X012583Y012535D01*
X012561Y012526D01*
X012539Y012521D01*
X012515Y012520D01*
X012492Y012523D01*
X012470Y012530D01*
X012449Y012540D01*
X012430Y012554D01*
X012414Y012571D01*
X012401Y012591D01*
X012391Y012612D01*
X012385Y012635D01*
X012383Y012658D01*
X012265Y012658D02*
X012267Y012689D01*
X012273Y012720D01*
X012282Y012750D01*
X012295Y012779D01*
X012312Y012806D01*
X012332Y012830D01*
X012354Y012852D01*
X012380Y012871D01*
X012407Y012887D01*
X012436Y012899D01*
X012466Y012908D01*
X012497Y012913D01*
X012529Y012914D01*
X012560Y012911D01*
X012591Y012904D01*
X012621Y012894D01*
X012649Y012880D01*
X012675Y012862D01*
X012699Y012842D01*
X012720Y012818D01*
X012739Y012793D01*
X012754Y012765D01*
X012765Y012736D01*
X012773Y012705D01*
X012777Y012674D01*
X012777Y012642D01*
X012773Y012611D01*
X012765Y012580D01*
X012754Y012551D01*
X012739Y012523D01*
X012720Y012498D01*
X012699Y012474D01*
X012675Y012454D01*
X012649Y012436D01*
X012621Y012422D01*
X012591Y012412D01*
X012560Y012405D01*
X012529Y012402D01*
X012497Y012403D01*
X012466Y012408D01*
X012436Y012417D01*
X012407Y012429D01*
X012380Y012445D01*
X012354Y012464D01*
X012332Y012486D01*
X012312Y012510D01*
X012295Y012537D01*
X012282Y012566D01*
X012273Y012596D01*
X012267Y012627D01*
X012265Y012658D01*
X012786Y012629D02*
X013780Y012619D01*
X013810Y012599D02*
X013810Y012471D01*
X013809Y012458D01*
X013804Y012445D01*
X013797Y012434D01*
X013788Y012425D01*
X013777Y012418D01*
X013764Y012413D01*
X013751Y012412D01*
X013731Y012412D01*
X013718Y012414D01*
X013707Y012419D01*
X013696Y012426D01*
X013689Y012437D01*
X013684Y012448D01*
X013682Y012461D01*
X013682Y012599D01*
X013840Y012628D02*
X013857Y012632D01*
X013872Y012638D01*
X013887Y012648D01*
X013899Y012660D01*
X013909Y012675D01*
X013915Y012690D01*
X013919Y012707D01*
X013918Y012708D02*
X014204Y015601D01*
X014154Y015837D02*
X014116Y015853D01*
X014076Y015866D01*
X014036Y015877D01*
X013988Y015857D02*
X013989Y015887D01*
X013988Y015917D01*
X013426Y015926D02*
X013377Y015926D01*
X013377Y015956D02*
X013377Y015877D01*
X012924Y015877D01*
X012924Y015956D01*
X013377Y015956D01*
X012914Y015926D02*
X012727Y015916D01*
X012205Y015828D02*
X012185Y015820D01*
X012165Y015810D01*
X012146Y015798D01*
X011969Y015700D02*
X011971Y015683D01*
X011976Y015666D01*
X011984Y015651D01*
X011995Y015637D01*
X012009Y015626D01*
X012024Y015618D01*
X012041Y015613D01*
X012058Y015611D01*
X012077Y015434D02*
X012090Y015432D01*
X012104Y015432D01*
X012117Y015434D01*
X012078Y015433D02*
X012060Y015435D01*
X012043Y015433D01*
X012026Y015428D01*
X012010Y015420D01*
X011996Y015409D01*
X011985Y015395D01*
X011977Y015379D01*
X011972Y015363D01*
X011970Y015345D01*
X011969Y015345D02*
X011969Y015286D01*
X011970Y015286D02*
X011971Y015269D01*
X011976Y015252D01*
X011983Y015237D01*
X011993Y015223D01*
X012005Y015211D01*
X012019Y015201D01*
X012034Y015194D01*
X012051Y015189D01*
X012068Y015188D01*
X012137Y015188D01*
X012767Y014853D02*
X012767Y014784D01*
X012768Y014774D01*
X012772Y014765D01*
X012778Y014756D01*
X012787Y014750D01*
X012796Y014746D01*
X012806Y014745D01*
X013269Y014745D01*
X013282Y014746D01*
X013295Y014751D01*
X013306Y014758D01*
X013315Y014767D01*
X013322Y014778D01*
X013327Y014791D01*
X013328Y014804D01*
X013328Y014834D01*
X013328Y014863D01*
X013918Y015897D02*
X013977Y015888D01*
X014036Y015877D01*
X012403Y015877D02*
X012337Y015863D01*
X012271Y015847D01*
X012206Y015828D01*
X010483Y016940D02*
X015837Y011586D01*
X013839Y012629D02*
X013809Y012625D01*
X013780Y012619D01*
X013918Y015896D02*
X013755Y015913D01*
X013590Y015923D01*
X013426Y015926D01*
X012728Y015917D02*
X012619Y015908D01*
X012510Y015895D01*
X012403Y015877D01*
D16*
X005424Y013052D03*
D17*
X001864Y004805D02*
X001594Y004805D01*
X001544Y004485D01*
X001294Y004385D02*
X001034Y004565D01*
X000844Y004385D01*
X001024Y004125D01*
X000914Y003875D02*
X000614Y003815D01*
X000614Y003555D01*
X000914Y003505D01*
X001014Y003235D02*
X000844Y002995D01*
X001034Y002805D01*
X001274Y002975D01*
X001374Y002915D01*
X001564Y003365D01*
X001014Y003235D02*
X000991Y003276D01*
X000970Y003319D01*
X000952Y003364D01*
X000937Y003409D01*
X000924Y003455D01*
X000914Y003502D01*
X000916Y003875D02*
X000931Y003927D01*
X000950Y003978D01*
X000972Y004028D01*
X000997Y004076D01*
X001026Y004123D01*
X001564Y003375D02*
X001531Y003393D01*
X001501Y003414D01*
X001472Y003438D01*
X001446Y003465D01*
X001424Y003494D01*
X001404Y003526D01*
X001387Y003559D01*
X001374Y003594D01*
X001365Y003630D01*
X001359Y003667D01*
X001357Y003704D01*
X001359Y003741D01*
X001364Y003778D01*
X001374Y003814D01*
X001386Y003849D01*
X001403Y003883D01*
X001422Y003914D01*
X001445Y003944D01*
X001471Y003971D01*
X001499Y003995D01*
X001530Y004016D01*
X001562Y004034D01*
X001596Y004049D01*
X001632Y004060D01*
X001668Y004068D01*
X001705Y004072D01*
X001743Y004072D01*
X001780Y004068D01*
X001816Y004060D01*
X001852Y004049D01*
X001886Y004034D01*
X001918Y004016D01*
X001949Y003995D01*
X001977Y003971D01*
X002003Y003944D01*
X002026Y003914D01*
X002045Y003883D01*
X002062Y003849D01*
X002074Y003814D01*
X002084Y003778D01*
X002089Y003741D01*
X002091Y003704D01*
X002089Y003667D01*
X002083Y003630D01*
X002074Y003594D01*
X002061Y003559D01*
X002044Y003526D01*
X002024Y003494D01*
X002002Y003465D01*
X001976Y003438D01*
X001947Y003414D01*
X001917Y003393D01*
X001884Y003375D01*
X001884Y003365D02*
X002084Y002915D01*
X002184Y002975D01*
X002424Y002805D01*
X002604Y002995D01*
X002444Y003235D01*
X002544Y003505D02*
X002844Y003555D01*
X002844Y003815D01*
X002544Y003875D01*
X002434Y004125D02*
X002614Y004385D01*
X002424Y004565D01*
X002164Y004385D01*
X001914Y004485D02*
X001864Y004805D01*
X001922Y004485D02*
X001972Y004472D01*
X002021Y004455D01*
X002069Y004436D01*
X002116Y004413D01*
X002161Y004388D01*
X002434Y004120D02*
X002461Y004073D01*
X002485Y004026D01*
X002506Y003977D01*
X002524Y003926D01*
X002538Y003875D01*
X002544Y003504D02*
X002531Y003448D01*
X002514Y003393D01*
X002493Y003340D01*
X002469Y003288D01*
X002441Y003238D01*
X001539Y004487D02*
X001487Y004473D01*
X001436Y004456D01*
X001386Y004436D01*
X001337Y004413D01*
X001290Y004386D01*
M02*
