G75*
%MOIN*%
%OFA0B0*%
%FSLAX24Y24*%
%IPPOS*%
%LPD*%
%AMOC8*
5,1,8,0,0,1.08239X$1,22.5*
%
%ADD10C,0.0000*%
%ADD11R,0.0551X0.0630*%
%ADD12R,0.0394X0.0433*%
%ADD13R,0.0433X0.0394*%
%ADD14OC8,0.0850*%
%ADD15R,0.0472X0.0217*%
%ADD16C,0.0520*%
%ADD17R,0.0512X0.0748*%
%ADD18R,0.0112X0.0276*%
%ADD19R,0.0673X0.0157*%
%ADD20R,0.0575X0.0787*%
%ADD21R,0.0984X0.0541*%
%ADD22C,0.0160*%
%ADD23C,0.0560*%
%ADD24OC8,0.0660*%
%ADD25OC8,0.0700*%
%ADD26C,0.0885*%
%ADD27C,0.0660*%
%ADD28R,0.1102X0.1102*%
%ADD29C,0.0660*%
%ADD30C,0.0650*%
%ADD31R,0.0787X0.0512*%
%ADD32OC8,0.0560*%
%ADD33OC8,0.0520*%
%ADD34C,0.0317*%
%ADD35C,0.0120*%
%ADD36C,0.0500*%
%ADD37C,0.0080*%
%ADD38C,0.0860*%
%ADD39C,0.1660*%
D10*
X000350Y000350D02*
X000350Y020035D01*
X020035Y020035D01*
X020035Y000350D01*
X000350Y000350D01*
X001267Y008344D02*
X001269Y008373D01*
X001275Y008401D01*
X001284Y008429D01*
X001297Y008455D01*
X001314Y008478D01*
X001333Y008500D01*
X001355Y008519D01*
X001380Y008534D01*
X001406Y008547D01*
X001434Y008555D01*
X001462Y008560D01*
X001491Y008561D01*
X001520Y008558D01*
X001548Y008551D01*
X001575Y008541D01*
X001601Y008527D01*
X001624Y008510D01*
X001645Y008490D01*
X001663Y008467D01*
X001678Y008442D01*
X001689Y008415D01*
X001697Y008387D01*
X001701Y008358D01*
X001701Y008330D01*
X001697Y008301D01*
X001689Y008273D01*
X001678Y008246D01*
X001663Y008221D01*
X001645Y008198D01*
X001624Y008178D01*
X001601Y008161D01*
X001575Y008147D01*
X001548Y008137D01*
X001520Y008130D01*
X001491Y008127D01*
X001462Y008128D01*
X001434Y008133D01*
X001406Y008141D01*
X001380Y008154D01*
X001355Y008169D01*
X001333Y008188D01*
X001314Y008210D01*
X001297Y008233D01*
X001284Y008259D01*
X001275Y008287D01*
X001269Y008315D01*
X001267Y008344D01*
X001267Y009344D02*
X001269Y009373D01*
X001275Y009401D01*
X001284Y009429D01*
X001297Y009455D01*
X001314Y009478D01*
X001333Y009500D01*
X001355Y009519D01*
X001380Y009534D01*
X001406Y009547D01*
X001434Y009555D01*
X001462Y009560D01*
X001491Y009561D01*
X001520Y009558D01*
X001548Y009551D01*
X001575Y009541D01*
X001601Y009527D01*
X001624Y009510D01*
X001645Y009490D01*
X001663Y009467D01*
X001678Y009442D01*
X001689Y009415D01*
X001697Y009387D01*
X001701Y009358D01*
X001701Y009330D01*
X001697Y009301D01*
X001689Y009273D01*
X001678Y009246D01*
X001663Y009221D01*
X001645Y009198D01*
X001624Y009178D01*
X001601Y009161D01*
X001575Y009147D01*
X001548Y009137D01*
X001520Y009130D01*
X001491Y009127D01*
X001462Y009128D01*
X001434Y009133D01*
X001406Y009141D01*
X001380Y009154D01*
X001355Y009169D01*
X001333Y009188D01*
X001314Y009210D01*
X001297Y009233D01*
X001284Y009259D01*
X001275Y009287D01*
X001269Y009315D01*
X001267Y009344D01*
X001259Y010670D02*
X001261Y010699D01*
X001267Y010727D01*
X001276Y010755D01*
X001289Y010781D01*
X001306Y010804D01*
X001325Y010826D01*
X001347Y010845D01*
X001372Y010860D01*
X001398Y010873D01*
X001426Y010881D01*
X001454Y010886D01*
X001483Y010887D01*
X001512Y010884D01*
X001540Y010877D01*
X001567Y010867D01*
X001593Y010853D01*
X001616Y010836D01*
X001637Y010816D01*
X001655Y010793D01*
X001670Y010768D01*
X001681Y010741D01*
X001689Y010713D01*
X001693Y010684D01*
X001693Y010656D01*
X001689Y010627D01*
X001681Y010599D01*
X001670Y010572D01*
X001655Y010547D01*
X001637Y010524D01*
X001616Y010504D01*
X001593Y010487D01*
X001567Y010473D01*
X001540Y010463D01*
X001512Y010456D01*
X001483Y010453D01*
X001454Y010454D01*
X001426Y010459D01*
X001398Y010467D01*
X001372Y010480D01*
X001347Y010495D01*
X001325Y010514D01*
X001306Y010536D01*
X001289Y010559D01*
X001276Y010585D01*
X001267Y010613D01*
X001261Y010641D01*
X001259Y010670D01*
X001259Y011670D02*
X001261Y011699D01*
X001267Y011727D01*
X001276Y011755D01*
X001289Y011781D01*
X001306Y011804D01*
X001325Y011826D01*
X001347Y011845D01*
X001372Y011860D01*
X001398Y011873D01*
X001426Y011881D01*
X001454Y011886D01*
X001483Y011887D01*
X001512Y011884D01*
X001540Y011877D01*
X001567Y011867D01*
X001593Y011853D01*
X001616Y011836D01*
X001637Y011816D01*
X001655Y011793D01*
X001670Y011768D01*
X001681Y011741D01*
X001689Y011713D01*
X001693Y011684D01*
X001693Y011656D01*
X001689Y011627D01*
X001681Y011599D01*
X001670Y011572D01*
X001655Y011547D01*
X001637Y011524D01*
X001616Y011504D01*
X001593Y011487D01*
X001567Y011473D01*
X001540Y011463D01*
X001512Y011456D01*
X001483Y011453D01*
X001454Y011454D01*
X001426Y011459D01*
X001398Y011467D01*
X001372Y011480D01*
X001347Y011495D01*
X001325Y011514D01*
X001306Y011536D01*
X001289Y011559D01*
X001276Y011585D01*
X001267Y011613D01*
X001261Y011641D01*
X001259Y011670D01*
D11*
X010094Y011135D03*
X011197Y011135D03*
D12*
X012755Y011381D03*
X012755Y010712D03*
X013618Y010708D03*
X013618Y011377D03*
X008032Y012093D03*
X008032Y012762D03*
X005179Y012786D03*
X005179Y012117D03*
X003814Y018089D03*
X003814Y018758D03*
X006789Y018758D03*
X006789Y018089D03*
D13*
X007787Y018089D03*
X007787Y018758D03*
X008807Y018758D03*
X008807Y018089D03*
X005812Y018089D03*
X005812Y018758D03*
X004812Y018758D03*
X004812Y018089D03*
X015613Y010319D03*
X015613Y009650D03*
X013327Y006585D03*
X013327Y005916D03*
X011372Y003824D03*
X010703Y003824D03*
X009905Y002795D03*
X009236Y002795D03*
X008277Y002805D03*
X007608Y002805D03*
X002812Y006508D03*
X001669Y006501D03*
X001669Y007170D03*
X002812Y007177D03*
X007156Y006893D03*
X007156Y007562D03*
D14*
X007280Y009422D03*
X005350Y010143D03*
X009367Y012677D03*
X010565Y012684D03*
X011781Y012670D03*
X012939Y012664D03*
X014000Y012659D03*
X015063Y012654D03*
X016128Y012653D03*
X015714Y007923D03*
X015630Y006269D03*
X014371Y006258D03*
X017168Y018666D03*
D15*
X007119Y012844D03*
X006095Y012844D03*
X006095Y012470D03*
X006095Y012096D03*
X007119Y012096D03*
D16*
X007317Y005065D02*
X007317Y004545D01*
X006317Y004545D02*
X006317Y005065D01*
X005317Y005065D02*
X005317Y004545D01*
X004317Y004545D02*
X004317Y005065D01*
X003317Y005065D02*
X003317Y004545D01*
X003317Y002065D02*
X003317Y001545D01*
X004317Y001545D02*
X004317Y002065D01*
X005317Y002065D02*
X005317Y001545D01*
X006317Y001545D02*
X006317Y002065D01*
X007317Y002065D02*
X007317Y001545D01*
X008317Y001545D02*
X008317Y002065D01*
X009317Y002065D02*
X009317Y001545D01*
X010317Y001545D02*
X010317Y002065D01*
X011317Y002065D02*
X011317Y001545D01*
X012317Y001545D02*
X012317Y002065D01*
X013317Y002065D02*
X013317Y001545D01*
X014317Y001545D02*
X014317Y002065D01*
X015317Y002065D02*
X015317Y001545D01*
X016317Y001545D02*
X016317Y002065D01*
X016317Y004545D02*
X016317Y005065D01*
X015317Y005065D02*
X015317Y004545D01*
X014317Y004545D02*
X014317Y005065D01*
X013317Y005065D02*
X013317Y004545D01*
X012317Y004545D02*
X012317Y005065D01*
X011317Y005065D02*
X011317Y004545D01*
X010317Y004545D02*
X010317Y005065D01*
X009317Y005065D02*
X009317Y004545D01*
X008317Y004545D02*
X008317Y005065D01*
D17*
X008549Y006375D03*
X008549Y007635D03*
X010714Y007635D03*
X010714Y006375D03*
D18*
X002401Y005134D03*
X002204Y005134D03*
X002007Y005134D03*
X002007Y004484D03*
X002204Y004484D03*
X002401Y004484D03*
D19*
X002598Y014382D03*
X002598Y014638D03*
X002598Y014894D03*
X002598Y015150D03*
X002598Y015406D03*
D20*
X002649Y016036D03*
X002649Y013752D03*
D21*
X001011Y014525D03*
X001011Y015263D03*
D22*
X001069Y015779D02*
X002179Y015779D01*
X002179Y016596D01*
X001167Y016596D01*
X001169Y016595D01*
X000539Y016595D01*
X000537Y016200D01*
X001069Y016200D01*
X002179Y016200D01*
X002179Y016042D02*
X001069Y016042D01*
X001069Y016200D02*
X001069Y015779D01*
X001069Y015883D02*
X002179Y015883D01*
X002649Y015850D02*
X001689Y015850D01*
X001689Y014382D01*
X002598Y014382D01*
X002594Y014381D01*
X002594Y013752D01*
X002649Y013752D01*
X002649Y013752D01*
X002594Y013752D02*
X002594Y013256D01*
X002279Y012941D01*
X001956Y012941D01*
X000909Y011893D01*
X000909Y004815D01*
X002204Y004815D01*
X002796Y004434D02*
X002796Y003934D01*
X002208Y003934D01*
X002208Y003957D01*
X002206Y004042D01*
X002207Y004168D01*
X000909Y004815D02*
X000909Y003358D01*
X003641Y000626D01*
X016350Y000626D01*
X019263Y003539D01*
X019263Y009011D01*
X018665Y009610D01*
X018568Y009610D01*
X018568Y009996D01*
X018665Y009610D02*
X018665Y014681D01*
X017169Y016177D01*
X017169Y017728D01*
X017185Y017744D01*
X017185Y017854D01*
X016783Y017948D02*
X016555Y017948D01*
X016500Y017893D01*
X016145Y017893D01*
X016145Y017886D01*
X016004Y017153D02*
X016145Y017099D01*
X016145Y017106D01*
X016145Y017099D01*
X016004Y017153D01*
X012397Y017515D02*
X012397Y014114D01*
X011242Y012958D01*
X010492Y013987D01*
X009895Y013987D01*
X008850Y013987D01*
X008850Y013350D01*
X008350Y013350D01*
X008350Y012850D01*
X008032Y012850D01*
X008032Y012762D01*
X008032Y012093D02*
X008027Y012090D01*
X007122Y012090D01*
X007119Y012096D01*
X007106Y012177D01*
X007106Y012256D01*
X006870Y012492D01*
X006783Y012492D01*
X006641Y012633D01*
X006641Y013366D01*
X006909Y013633D01*
X006909Y014059D01*
X006916Y014063D01*
X006095Y012844D02*
X006090Y012838D01*
X005885Y012838D01*
X005641Y012594D01*
X005618Y012618D01*
X005641Y012594D02*
X005594Y012547D01*
X005594Y012114D01*
X005185Y012114D01*
X005179Y012117D01*
X005594Y012114D02*
X005673Y012114D01*
X005712Y012074D01*
X006074Y012074D01*
X006090Y012090D01*
X006095Y012096D01*
X006295Y012468D02*
X006492Y012271D01*
X006492Y011287D01*
X005350Y010145D01*
X005350Y010143D01*
X005271Y010114D01*
X003437Y010114D01*
X002673Y009350D01*
X002492Y009350D01*
X002484Y009344D01*
X002484Y009350D01*
X002484Y008344D02*
X002468Y008263D01*
X002468Y007177D01*
X002346Y007177D01*
X002346Y005704D01*
X002796Y005704D01*
X003350Y006030D02*
X003849Y006030D01*
X002812Y007177D02*
X002807Y007177D01*
X002468Y007177D01*
X002346Y007177D02*
X001673Y007177D01*
X001669Y007170D01*
X002484Y008342D02*
X002484Y008344D01*
X009130Y010649D02*
X009130Y004964D01*
X009317Y004805D01*
X009200Y005027D01*
X009317Y004805D01*
X009311Y004799D01*
X009311Y004712D01*
X008399Y003801D01*
X008399Y003795D01*
X008850Y003350D01*
X009850Y003350D01*
X009850Y002795D01*
X009905Y002795D01*
X009909Y002791D01*
X010311Y002389D01*
X010311Y001807D01*
X010317Y001805D01*
X009326Y001815D02*
X009326Y002381D01*
X009240Y002468D01*
X009240Y002791D01*
X009236Y002795D01*
X008279Y002799D02*
X008277Y002805D01*
X008279Y002799D02*
X008279Y001838D01*
X008311Y001807D01*
X008317Y001805D01*
X009317Y001805D02*
X009319Y001807D01*
X009326Y001815D01*
X007610Y002807D02*
X007608Y002805D01*
X007610Y002807D02*
X007610Y003011D01*
X008399Y003801D01*
X010319Y004500D02*
X010319Y004799D01*
X010317Y004805D01*
X010319Y004500D02*
X010696Y004122D01*
X010696Y003830D01*
X010703Y003824D01*
X011736Y006082D02*
X012720Y007067D01*
X012689Y006578D02*
X013326Y006578D01*
X013327Y006585D01*
X014019Y007783D02*
X014547Y007256D01*
X014665Y007256D01*
X013610Y007500D02*
X013610Y007626D01*
X012988Y008248D01*
X012870Y008248D01*
X014019Y007901D02*
X014019Y007783D01*
X015917Y007256D02*
X015988Y007326D01*
X015988Y007366D01*
X016319Y007696D01*
X016319Y007901D01*
X017334Y008917D01*
X013074Y010137D02*
X012752Y010460D01*
X012752Y010696D01*
X012744Y010704D01*
X012744Y010712D01*
X012752Y010720D01*
X012752Y010878D01*
X012563Y010878D01*
X012263Y010578D01*
X011051Y010578D01*
X010555Y010578D02*
X010405Y010578D01*
X010098Y010885D01*
X010098Y011122D01*
X010106Y011130D01*
X010106Y011137D01*
X010098Y011145D01*
X010098Y011366D01*
X010090Y011374D01*
X009854Y011374D01*
X009130Y010649D01*
X010358Y011153D02*
X012011Y009500D01*
X012720Y009500D01*
X012287Y011059D02*
X012256Y011137D01*
X012437Y011319D01*
X012712Y011319D01*
X012755Y011381D01*
X012759Y011381D01*
X013618Y011381D01*
X013618Y011377D01*
X013657Y011452D01*
X013948Y011452D01*
X014059Y011563D01*
X012256Y011137D02*
X011200Y011137D01*
X011197Y011135D01*
X010358Y011153D02*
X010358Y011547D01*
X011153Y012342D01*
X011153Y012870D01*
X011242Y012958D01*
X006295Y012468D02*
X006098Y012468D01*
X006095Y012470D01*
X002179Y013185D02*
X001167Y013185D01*
X001165Y013184D01*
X000535Y013184D01*
X000537Y013581D01*
X001069Y013581D01*
X001069Y014002D01*
X002179Y014002D01*
X002179Y013185D01*
X002179Y013189D02*
X000535Y013189D01*
X000536Y013347D02*
X002179Y013347D01*
X002179Y013506D02*
X000537Y013506D01*
X001069Y013664D02*
X002179Y013664D01*
X002179Y013823D02*
X001069Y013823D01*
X001069Y013981D02*
X002179Y013981D01*
X002063Y015405D02*
X002594Y015405D01*
X002598Y015406D01*
X002649Y015850D02*
X002649Y016036D01*
X002649Y016100D01*
X003100Y016100D01*
X003850Y016089D01*
X003804Y015589D01*
X002179Y016359D02*
X000538Y016359D01*
X000538Y016517D02*
X002179Y016517D01*
X004350Y018476D02*
X004074Y018752D01*
X003815Y018752D01*
X003814Y018758D01*
X007787Y018089D02*
X007791Y018082D01*
X007791Y017641D01*
D23*
X007916Y014343D02*
X007916Y013783D01*
X006916Y013783D02*
X006916Y014343D01*
X005021Y014350D02*
X005021Y013790D01*
X004021Y013790D02*
X004021Y014350D01*
D24*
X018157Y012502D03*
X019157Y012502D03*
D25*
X018753Y015208D03*
X018753Y016988D03*
X018753Y005177D03*
X018753Y003397D03*
D26*
X017773Y002907D03*
X017773Y005667D03*
X017773Y014718D03*
X017773Y017478D03*
D27*
X018568Y009996D03*
X018568Y009011D03*
X018568Y008027D03*
D28*
X017268Y007397D03*
X017268Y010626D03*
D29*
X008804Y015259D02*
X008804Y015919D01*
X007804Y015919D02*
X007804Y015259D01*
X006804Y015259D02*
X006804Y015919D01*
X005804Y015919D02*
X005804Y015259D01*
X004804Y015259D02*
X004804Y015919D01*
X003804Y015919D02*
X003804Y015259D01*
D30*
X002801Y011670D02*
X002151Y011670D01*
X002151Y010670D02*
X002801Y010670D01*
X002809Y009344D02*
X002160Y009344D01*
X002160Y008344D02*
X002809Y008344D01*
D31*
X009895Y013987D03*
X009895Y014774D03*
X009895Y015561D03*
X009895Y016349D03*
X009895Y017136D03*
X009895Y017924D03*
X009895Y018711D03*
X016145Y018674D03*
X016145Y017886D03*
X016145Y017099D03*
X016145Y016311D03*
X016145Y015524D03*
X016145Y014737D03*
X016145Y013949D03*
D32*
X005153Y006930D03*
X005853Y006230D03*
D33*
X003849Y006030D03*
X003849Y007030D03*
D34*
X002665Y006082D03*
X002796Y005704D03*
X002796Y004434D03*
X001712Y004484D03*
X006870Y006303D03*
X007271Y006145D03*
X007673Y006145D03*
X008547Y007019D03*
X011736Y006082D03*
X012689Y006578D03*
X012720Y007067D03*
X012720Y007523D03*
X013610Y007500D03*
X014019Y007901D03*
X014641Y008193D03*
X015043Y008137D03*
X014665Y007256D03*
X015917Y007256D03*
X017334Y008917D03*
X016736Y009830D03*
X016074Y010326D03*
X014059Y011563D03*
X012287Y011059D03*
X011051Y010578D03*
X010555Y010578D03*
X012720Y009500D03*
X012988Y008933D03*
X013523Y008909D03*
X012870Y008248D03*
X012074Y008633D03*
X011799Y008933D03*
X010342Y009216D03*
X013074Y010137D03*
X017106Y012224D03*
X011100Y014082D03*
X010350Y013350D03*
X009271Y014334D03*
X010563Y015256D03*
X010531Y016342D03*
X010649Y016744D03*
X011909Y016271D03*
X012397Y017515D03*
X009263Y018279D03*
X008374Y018413D03*
X008248Y018941D03*
X007224Y018838D03*
X006350Y018460D03*
X005389Y018421D03*
X004350Y018476D03*
X004815Y017633D03*
X003224Y016850D03*
X003224Y015704D03*
X002063Y015405D03*
X007043Y013263D03*
X007594Y012901D03*
X005618Y012618D03*
X003460Y009681D03*
X003917Y009224D03*
X009133Y003708D03*
X013027Y002555D03*
X011917Y001200D03*
X015704Y002555D03*
X017067Y000885D03*
X015507Y016035D03*
X016783Y017948D03*
X017185Y017854D03*
X009210Y016815D03*
X007791Y017641D03*
D35*
X003350Y006030D02*
X002850Y005179D01*
X002600Y005429D01*
X002204Y005429D01*
X002204Y005134D01*
X002204Y004815D01*
X002204Y004799D01*
X002350Y004799D01*
X002401Y004734D01*
X002401Y004484D01*
X002204Y004484D02*
X002205Y004215D01*
X002207Y004168D01*
D36*
X001796Y003995D02*
X001795Y003964D01*
X001798Y003959D01*
X001798Y003953D01*
X001798Y003852D01*
X001860Y003701D01*
X001975Y003586D01*
X002126Y003524D01*
X002878Y003524D01*
X003028Y003586D01*
X003144Y003701D01*
X003206Y003852D01*
X003206Y003955D01*
X003435Y003955D01*
X003651Y004045D01*
X003817Y004211D01*
X003983Y004045D01*
X004200Y003955D01*
X004435Y003955D01*
X004651Y004045D01*
X004817Y004211D01*
X004910Y004118D01*
X003619Y002827D01*
X003563Y002691D01*
X003563Y002602D01*
X003435Y002655D01*
X003200Y002655D01*
X002983Y002565D01*
X002817Y002399D01*
X002727Y002183D01*
X002727Y001428D01*
X002817Y001211D01*
X002983Y001045D01*
X003200Y000955D01*
X003435Y000955D01*
X003651Y001045D01*
X003703Y001096D01*
X003723Y001076D01*
X004099Y000700D01*
X002251Y000700D01*
X002281Y000752D01*
X002360Y001047D01*
X002360Y001353D01*
X002281Y001648D01*
X002128Y001912D01*
X001912Y002128D01*
X001648Y002281D01*
X001353Y002360D01*
X001047Y002360D01*
X000752Y002281D01*
X000700Y002251D01*
X000700Y012774D01*
X001106Y012774D01*
X001128Y012768D01*
X001187Y012774D01*
X001246Y012774D01*
X001249Y012775D01*
X001551Y012775D01*
X000800Y012024D01*
X000744Y011888D01*
X000744Y011741D01*
X000744Y007064D01*
X000800Y006928D01*
X000904Y006824D01*
X001123Y006605D01*
X001123Y006238D01*
X001173Y006117D01*
X001266Y006024D01*
X001387Y005974D01*
X001634Y005974D01*
X001634Y005367D01*
X001621Y005337D01*
X001621Y005150D01*
X001612Y005064D01*
X001621Y005033D01*
X001621Y004972D01*
X001615Y004972D01*
X001436Y004898D01*
X001298Y004761D01*
X001224Y004581D01*
X001224Y004387D01*
X001298Y004207D01*
X001436Y004070D01*
X001615Y003995D01*
X001796Y003995D01*
X001803Y003840D02*
X000700Y003840D01*
X000700Y003341D02*
X004133Y003341D01*
X004631Y003840D02*
X003201Y003840D01*
X003634Y002843D02*
X000700Y002843D01*
X000700Y002344D02*
X000988Y002344D01*
X001412Y002344D02*
X002794Y002344D01*
X002727Y001846D02*
X002167Y001846D01*
X002360Y001347D02*
X002761Y001347D01*
X002307Y000849D02*
X003950Y000849D01*
X009438Y003322D02*
X009548Y003432D01*
X009622Y003611D01*
X009622Y003673D01*
X009718Y003770D01*
X009772Y003792D01*
X009876Y003896D01*
X010013Y004033D01*
X010157Y003973D01*
X010157Y003561D01*
X010207Y003440D01*
X010300Y003347D01*
X010421Y003297D01*
X010985Y003297D01*
X011012Y003308D01*
X011054Y003290D01*
X011121Y003277D01*
X011372Y003277D01*
X011372Y003824D01*
X011372Y003824D01*
X011939Y003824D01*
X011939Y004055D01*
X011931Y004098D01*
X011983Y004045D01*
X012200Y003955D01*
X012435Y003955D01*
X012651Y004045D01*
X012817Y004211D01*
X012983Y004045D01*
X013200Y003955D01*
X013435Y003955D01*
X013651Y004045D01*
X013817Y004211D01*
X013983Y004045D01*
X014200Y003955D01*
X014435Y003955D01*
X014651Y004045D01*
X014817Y004211D01*
X014983Y004045D01*
X015200Y003955D01*
X015435Y003955D01*
X015651Y004045D01*
X015817Y004211D01*
X015910Y004118D01*
X015000Y003208D01*
X012473Y003208D01*
X012337Y003152D01*
X011701Y002516D01*
X011651Y002565D01*
X011435Y002655D01*
X011200Y002655D01*
X010983Y002565D01*
X010824Y002406D01*
X010783Y002463D01*
X010715Y002531D01*
X010637Y002587D01*
X010551Y002631D01*
X010471Y002657D01*
X010471Y002795D01*
X009905Y002795D01*
X009905Y002795D01*
X009782Y002795D01*
X009782Y002795D01*
X009905Y002795D01*
X009905Y002795D01*
X010471Y002795D01*
X010471Y003027D01*
X010458Y003094D01*
X010432Y003158D01*
X010393Y003215D01*
X010345Y003264D01*
X010287Y003302D01*
X010224Y003329D01*
X010156Y003342D01*
X009905Y003342D01*
X009905Y002795D01*
X009905Y002795D01*
X009905Y003342D01*
X009654Y003342D01*
X009586Y003329D01*
X009544Y003311D01*
X009518Y003322D01*
X009438Y003322D01*
X009457Y003341D02*
X009648Y003341D01*
X009905Y003341D02*
X009905Y003341D01*
X010162Y003341D02*
X010315Y003341D01*
X010157Y003840D02*
X009819Y003840D01*
X009317Y004415D02*
X009317Y004805D01*
X009295Y004805D01*
X009295Y004805D01*
X009317Y004805D01*
X009317Y004805D01*
X009317Y004805D01*
X009317Y004415D01*
X009317Y004415D01*
X009317Y004805D02*
X009437Y004805D01*
X009437Y004805D01*
X009317Y004805D01*
X009317Y005675D01*
X009295Y005675D01*
X009295Y010575D01*
X009475Y010755D01*
X009482Y010718D01*
X009509Y010654D01*
X009547Y010596D01*
X009596Y010548D01*
X009653Y010509D01*
X009717Y010483D01*
X009784Y010470D01*
X010094Y010470D01*
X010094Y011135D01*
X010094Y011135D01*
X010094Y010470D01*
X010404Y010470D01*
X010472Y010483D01*
X010536Y010509D01*
X010593Y010548D01*
X010642Y010596D01*
X010656Y010618D01*
X010734Y010540D01*
X010856Y010490D01*
X011538Y010490D01*
X011659Y010540D01*
X011752Y010633D01*
X011791Y010727D01*
X011928Y010727D01*
X012010Y010645D01*
X012190Y010570D01*
X012209Y010570D01*
X012209Y010461D01*
X012222Y010393D01*
X012248Y010329D01*
X012287Y010272D01*
X012335Y010223D01*
X012393Y010185D01*
X012457Y010158D01*
X012524Y010145D01*
X012755Y010145D01*
X012755Y010712D01*
X012755Y010712D01*
X012755Y010145D01*
X012987Y010145D01*
X013054Y010158D01*
X013118Y010185D01*
X013175Y010223D01*
X013185Y010233D01*
X013198Y010220D01*
X013255Y010181D01*
X013319Y010155D01*
X013387Y010142D01*
X013618Y010142D01*
X013849Y010142D01*
X013917Y010155D01*
X013981Y010181D01*
X014038Y010220D01*
X014087Y010268D01*
X014125Y010326D01*
X014151Y010389D01*
X014165Y010457D01*
X014165Y010708D01*
X013618Y010708D01*
X013618Y010708D01*
X013618Y010142D01*
X013618Y010708D01*
X013618Y010708D01*
X014165Y010708D01*
X014165Y010959D01*
X014151Y011027D01*
X014134Y011069D01*
X014136Y011074D01*
X014156Y011074D01*
X014335Y011149D01*
X014473Y011286D01*
X014547Y011465D01*
X014547Y011660D01*
X014473Y011839D01*
X014360Y011952D01*
X014529Y012120D01*
X014750Y011899D01*
X015375Y011899D01*
X015595Y012118D01*
X015776Y011937D01*
X013425Y009586D01*
X010663Y009586D01*
X010619Y009630D01*
X010439Y009705D01*
X010245Y009705D01*
X010065Y009630D01*
X009928Y009493D01*
X009854Y009313D01*
X009854Y009119D01*
X009928Y008939D01*
X010065Y008802D01*
X010245Y008728D01*
X010439Y008728D01*
X010619Y008802D01*
X010663Y008846D01*
X011310Y008846D01*
X011310Y008836D01*
X011385Y008656D01*
X011522Y008519D01*
X011608Y008483D01*
X011660Y008357D01*
X011798Y008219D01*
X011977Y008145D01*
X012040Y008145D01*
X012345Y007839D01*
X012306Y007800D01*
X012232Y007620D01*
X012232Y007503D01*
X011300Y006571D01*
X011300Y006815D01*
X011250Y006936D01*
X011181Y007005D01*
X011250Y007074D01*
X011300Y007195D01*
X011300Y008074D01*
X011250Y008196D01*
X011157Y008289D01*
X011036Y008339D01*
X010393Y008339D01*
X010271Y008289D01*
X010178Y008196D01*
X010128Y008074D01*
X010128Y007195D01*
X010178Y007074D01*
X010247Y007005D01*
X010178Y006936D01*
X010128Y006815D01*
X010128Y005935D01*
X010139Y005909D01*
X010056Y005909D01*
X009920Y005853D01*
X009647Y005580D01*
X009637Y005587D01*
X009551Y005631D01*
X009460Y005660D01*
X009365Y005675D01*
X009317Y005675D01*
X009317Y004805D01*
X009317Y004805D01*
X009317Y004805D01*
X009317Y004837D02*
X009317Y004837D01*
X009317Y005335D02*
X009317Y005335D01*
X009295Y005834D02*
X009901Y005834D01*
X010128Y006332D02*
X009295Y006332D01*
X009295Y006831D02*
X010135Y006831D01*
X010128Y007329D02*
X009295Y007329D01*
X009295Y007828D02*
X010128Y007828D01*
X010362Y008326D02*
X009295Y008326D01*
X008555Y008339D02*
X008227Y008339D01*
X008106Y008289D01*
X008013Y008196D01*
X007963Y008074D01*
X007963Y007195D01*
X008013Y007074D01*
X008058Y007029D01*
X008058Y006981D01*
X008013Y006936D01*
X007963Y006815D01*
X007963Y006546D01*
X007950Y006559D01*
X007770Y006634D01*
X007703Y006634D01*
X007703Y007156D01*
X007684Y007202D01*
X007710Y007264D01*
X007723Y007331D01*
X007723Y007562D01*
X007156Y007562D01*
X006590Y007562D01*
X006590Y007331D01*
X006603Y007264D01*
X006603Y007263D01*
X005682Y007263D01*
X005405Y007540D01*
X004900Y007540D01*
X004757Y007397D01*
X004316Y007397D01*
X004093Y007620D01*
X003604Y007620D01*
X003359Y007374D01*
X003359Y007439D01*
X003309Y007561D01*
X003216Y007654D01*
X003094Y007704D01*
X002975Y007704D01*
X003180Y007789D01*
X003364Y007973D01*
X003464Y008214D01*
X003464Y008474D01*
X003364Y008715D01*
X003249Y008831D01*
X003255Y008836D01*
X003318Y008898D01*
X003372Y008968D01*
X003416Y009045D01*
X003439Y009101D01*
X003503Y008947D01*
X003640Y008810D01*
X003820Y008736D01*
X004014Y008736D01*
X004194Y008810D01*
X004331Y008947D01*
X004405Y009127D01*
X004405Y009321D01*
X004331Y009501D01*
X004194Y009638D01*
X004014Y009712D01*
X003952Y009712D01*
X003949Y009716D01*
X003949Y009778D01*
X003874Y009957D01*
X003737Y010095D01*
X003557Y010169D01*
X003363Y010169D01*
X003184Y010095D01*
X003059Y009971D01*
X003027Y009984D01*
X002941Y010007D01*
X002878Y010016D01*
X002931Y010016D01*
X003172Y010115D01*
X003356Y010299D01*
X003456Y010540D01*
X003456Y010801D01*
X003356Y011041D01*
X003227Y011170D01*
X003356Y011299D01*
X003456Y011540D01*
X003456Y011801D01*
X003356Y012041D01*
X003172Y012225D01*
X002931Y012325D01*
X002148Y012325D01*
X002188Y012366D01*
X002419Y012366D01*
X002428Y012363D01*
X002492Y012366D01*
X002557Y012366D01*
X002566Y012369D01*
X002575Y012370D01*
X002633Y012397D01*
X002693Y012422D01*
X002700Y012428D01*
X003415Y012765D01*
X003478Y012792D01*
X003482Y012796D01*
X003487Y012798D01*
X003533Y012848D01*
X003580Y012897D01*
X003582Y012903D01*
X003586Y012907D01*
X003609Y012971D01*
X003634Y013034D01*
X003634Y013040D01*
X003636Y013046D01*
X003633Y013113D01*
X003630Y013318D01*
X003675Y013273D01*
X003899Y013180D01*
X004142Y013180D01*
X004366Y013273D01*
X004521Y013427D01*
X004675Y013273D01*
X004734Y013249D01*
X004711Y013226D01*
X004672Y013168D01*
X004646Y013105D01*
X004633Y013037D01*
X004633Y012786D01*
X004633Y012535D01*
X004646Y012467D01*
X004664Y012425D01*
X004653Y012399D01*
X004653Y011835D01*
X004703Y011713D01*
X004796Y011621D01*
X004917Y011570D01*
X005442Y011570D01*
X005563Y011621D01*
X005614Y011671D01*
X005631Y011664D01*
X005778Y011664D01*
X005793Y011658D01*
X006397Y011658D01*
X006518Y011708D01*
X006607Y011797D01*
X006696Y011708D01*
X006817Y011658D01*
X007421Y011658D01*
X007475Y011680D01*
X007564Y011680D01*
X007648Y011596D01*
X007769Y011546D01*
X008294Y011546D01*
X008415Y011596D01*
X008508Y011689D01*
X008559Y011810D01*
X008559Y012375D01*
X008548Y012401D01*
X008565Y012443D01*
X008579Y012511D01*
X008579Y012762D01*
X008579Y013013D01*
X008565Y013081D01*
X008539Y013144D01*
X008500Y013202D01*
X008452Y013250D01*
X008394Y013289D01*
X008331Y013315D01*
X008314Y013318D01*
X008433Y013437D01*
X008526Y013662D01*
X008526Y014464D01*
X008433Y014688D01*
X008300Y014822D01*
X008304Y014826D01*
X008430Y014700D01*
X008673Y014599D01*
X008852Y014599D01*
X008783Y014431D01*
X008783Y014237D01*
X008857Y014058D01*
X008995Y013920D01*
X009151Y013855D01*
X009151Y013696D01*
X009165Y013629D01*
X009191Y013565D01*
X009229Y013507D01*
X009278Y013459D01*
X009318Y013432D01*
X009054Y013432D01*
X008612Y012990D01*
X008612Y012364D01*
X009054Y011922D01*
X009547Y011922D01*
X009547Y011873D01*
X008715Y011042D01*
X008611Y010938D01*
X008555Y010802D01*
X008555Y008339D01*
X008196Y008326D02*
X003464Y008326D01*
X003219Y007828D02*
X006597Y007828D01*
X006603Y007861D02*
X006590Y007794D01*
X006590Y007562D01*
X007156Y007562D01*
X007156Y007562D01*
X007156Y008109D01*
X006905Y008109D01*
X006838Y008096D01*
X006774Y008069D01*
X006717Y008031D01*
X006668Y007982D01*
X006630Y007925D01*
X006603Y007861D01*
X007156Y007828D02*
X007156Y007828D01*
X007156Y007562D02*
X007156Y008109D01*
X007407Y008109D01*
X007475Y008096D01*
X007539Y008069D01*
X007596Y008031D01*
X007645Y007982D01*
X007683Y007925D01*
X007710Y007861D01*
X007723Y007794D01*
X007723Y007562D01*
X007156Y007562D01*
X007156Y007562D01*
X007156Y007562D01*
X006590Y007329D02*
X005616Y007329D01*
X004900Y006320D02*
X004562Y006657D01*
X004310Y006657D01*
X004197Y006544D01*
X004459Y006283D01*
X004459Y006030D01*
X003849Y006030D01*
X003849Y006030D01*
X004459Y006030D01*
X004459Y005777D01*
X004337Y005655D01*
X004435Y005655D01*
X004651Y005565D01*
X004817Y005400D01*
X004983Y005565D01*
X005200Y005655D01*
X005333Y005655D01*
X005243Y005745D01*
X005139Y005849D01*
X005082Y005985D01*
X005082Y006320D01*
X004900Y006320D01*
X004887Y006332D02*
X004410Y006332D01*
X003849Y006030D02*
X003849Y006030D01*
X003239Y006030D01*
X003239Y005912D01*
X003210Y005981D01*
X003176Y006015D01*
X003216Y006031D01*
X003239Y006054D01*
X003239Y006030D01*
X003849Y006030D01*
X004459Y005834D02*
X005154Y005834D01*
X007703Y006831D02*
X007969Y006831D01*
X007963Y007329D02*
X007723Y007329D01*
X007716Y007828D02*
X007963Y007828D01*
X007593Y008667D02*
X006967Y008667D01*
X006525Y009109D01*
X006525Y009735D01*
X006967Y010177D01*
X007593Y010177D01*
X008035Y009735D01*
X008035Y009109D01*
X007593Y008667D01*
X007750Y008825D02*
X008555Y008825D01*
X008555Y009323D02*
X008035Y009323D01*
X007948Y009822D02*
X008555Y009822D01*
X008555Y010320D02*
X006125Y010320D01*
X006125Y010464D02*
X006125Y010143D01*
X005350Y010143D01*
X005350Y010143D01*
X005350Y009368D01*
X005671Y009368D01*
X006125Y009822D01*
X006125Y010143D01*
X005350Y010143D01*
X005350Y010143D01*
X005350Y009368D01*
X005029Y009368D01*
X004575Y009822D01*
X004575Y010143D01*
X005350Y010143D01*
X005350Y010143D01*
X005350Y010918D01*
X005671Y010918D01*
X006125Y010464D01*
X005770Y010819D02*
X008562Y010819D01*
X009295Y010320D02*
X012255Y010320D01*
X012755Y010320D02*
X012755Y010320D01*
X013618Y010320D02*
X013618Y010320D01*
X014121Y010320D02*
X014159Y010320D01*
X014165Y010819D02*
X014657Y010819D01*
X014486Y011317D02*
X015156Y011317D01*
X015654Y011816D02*
X014483Y011816D01*
X014534Y013193D02*
X014313Y013414D01*
X013688Y013414D01*
X013472Y013199D01*
X013251Y013419D01*
X012626Y013419D01*
X012363Y013156D01*
X012094Y013425D01*
X011469Y013425D01*
X011181Y013137D01*
X010878Y013439D01*
X010838Y013439D01*
X010838Y013447D01*
X010764Y013627D01*
X010638Y013752D01*
X010638Y013920D01*
X010686Y013806D01*
X010823Y013668D01*
X011003Y013594D01*
X011197Y013594D01*
X011377Y013668D01*
X011514Y013806D01*
X011588Y013985D01*
X011588Y014028D01*
X012394Y014765D01*
X012402Y014769D01*
X012448Y014815D01*
X012497Y014859D01*
X012500Y014867D01*
X012506Y014873D01*
X012531Y014933D01*
X012559Y014992D01*
X012559Y015001D01*
X012563Y015009D01*
X012563Y015074D01*
X012565Y015139D01*
X012563Y015147D01*
X012563Y016526D01*
X012506Y016662D01*
X012402Y016766D01*
X010618Y018550D01*
X010618Y018870D01*
X015404Y018870D01*
X015385Y018824D01*
X015385Y018741D01*
X015370Y018654D01*
X015385Y018587D01*
X015385Y018522D01*
X015418Y018444D01*
X015421Y018428D01*
X015421Y018352D01*
X015451Y018280D01*
X015421Y018208D01*
X015421Y017565D01*
X015440Y017519D01*
X015415Y017457D01*
X015401Y017389D01*
X015401Y017099D01*
X016145Y017099D01*
X016145Y017099D01*
X016145Y017300D01*
X016145Y017300D01*
X016145Y017099D01*
X016888Y017099D01*
X016888Y017389D01*
X016875Y017457D01*
X016874Y017460D01*
X016880Y017460D01*
X017001Y017510D01*
X017001Y017324D01*
X017118Y017040D01*
X017336Y016823D01*
X017620Y016706D01*
X017927Y016706D01*
X018073Y016766D01*
X018073Y016706D01*
X018472Y016308D01*
X019035Y016308D01*
X019240Y016513D01*
X019240Y015712D01*
X019043Y015908D01*
X018753Y015908D01*
X018463Y015908D01*
X018053Y015498D01*
X018053Y015438D01*
X017927Y015491D01*
X017620Y015491D01*
X017336Y015373D01*
X017118Y015156D01*
X017106Y015125D01*
X016868Y015363D01*
X016868Y015845D01*
X016839Y015918D01*
X016868Y015990D01*
X016868Y016633D01*
X016849Y016679D01*
X016875Y016741D01*
X016888Y016808D01*
X016888Y017099D01*
X016145Y017099D01*
X016145Y017099D01*
X016145Y017099D01*
X016145Y016897D01*
X016145Y016897D01*
X016145Y017099D01*
X016145Y017099D01*
X015401Y017099D01*
X015401Y016808D01*
X015415Y016741D01*
X015440Y016679D01*
X015421Y016633D01*
X015421Y016523D01*
X015410Y016523D01*
X015231Y016449D01*
X015093Y016312D01*
X015019Y016132D01*
X015019Y015938D01*
X015093Y015758D01*
X015231Y015621D01*
X015410Y015547D01*
X015421Y015547D01*
X015421Y015202D01*
X015451Y015130D01*
X015421Y015058D01*
X015421Y014415D01*
X015451Y014343D01*
X015421Y014271D01*
X015421Y013628D01*
X015471Y013506D01*
X015564Y013413D01*
X015685Y013363D01*
X015770Y013363D01*
X015595Y013189D01*
X015375Y013409D01*
X014750Y013409D01*
X014534Y013193D01*
X014416Y013311D02*
X014652Y013311D01*
X015421Y013810D02*
X011516Y013810D01*
X011355Y013311D02*
X011006Y013311D01*
X010684Y013810D02*
X010638Y013810D01*
X010612Y013986D02*
X009895Y013986D01*
X009895Y013527D01*
X009895Y013986D01*
X009895Y013986D01*
X009895Y013987D01*
X009895Y013987D01*
X009895Y014188D01*
X009895Y014188D01*
X009895Y013987D01*
X010612Y013987D01*
X010612Y013986D01*
X009895Y013987D02*
X009614Y013987D01*
X009614Y013986D01*
X009895Y013986D01*
X009895Y013987D01*
X009895Y013810D02*
X009895Y013810D01*
X009895Y013527D02*
X009895Y013527D01*
X009151Y013810D02*
X008526Y013810D01*
X008340Y013311D02*
X008933Y013311D01*
X008612Y012813D02*
X008579Y012813D01*
X008579Y012762D02*
X008065Y012762D01*
X008065Y012762D01*
X008579Y012762D01*
X008559Y012314D02*
X008662Y012314D01*
X008559Y011816D02*
X009489Y011816D01*
X008991Y011317D02*
X003363Y011317D01*
X003450Y011816D02*
X004661Y011816D01*
X004653Y012314D02*
X002958Y012314D01*
X003500Y012813D02*
X004633Y012813D01*
X004633Y012786D02*
X005159Y012786D01*
X004633Y012786D01*
X005159Y012786D02*
X005159Y012786D01*
X004637Y013311D02*
X004405Y013311D01*
X003637Y013311D02*
X003630Y013311D01*
X002649Y013311D02*
X002649Y013311D01*
X002649Y013222D02*
X002649Y013222D01*
X002649Y013752D01*
X002649Y013752D01*
X002649Y013222D01*
X001090Y012314D02*
X000700Y012314D01*
X000700Y011816D02*
X000744Y011816D01*
X000744Y011317D02*
X000700Y011317D01*
X000700Y010819D02*
X000744Y010819D01*
X000744Y010320D02*
X000700Y010320D01*
X000700Y009822D02*
X000744Y009822D01*
X000744Y009323D02*
X000700Y009323D01*
X000700Y008825D02*
X000744Y008825D01*
X000744Y008326D02*
X000700Y008326D01*
X000700Y007828D02*
X000744Y007828D01*
X000744Y007329D02*
X000700Y007329D01*
X000700Y006831D02*
X000897Y006831D01*
X000700Y006332D02*
X001123Y006332D01*
X000700Y005834D02*
X001634Y005834D01*
X001621Y005335D02*
X000700Y005335D01*
X000700Y004837D02*
X001374Y004837D01*
X001244Y004338D02*
X000700Y004338D01*
X003255Y008825D02*
X003626Y008825D01*
X004208Y008825D02*
X006810Y008825D01*
X006525Y009323D02*
X004405Y009323D01*
X004575Y009822D02*
X003931Y009822D01*
X004575Y010143D02*
X005350Y010143D01*
X005350Y010143D01*
X005350Y010918D01*
X005029Y010918D01*
X004575Y010464D01*
X004575Y010143D01*
X004575Y010320D02*
X003365Y010320D01*
X003448Y010819D02*
X004929Y010819D01*
X005350Y010819D02*
X005350Y010819D01*
X005350Y010320D02*
X005350Y010320D01*
X005350Y009822D02*
X005350Y009822D01*
X006124Y009822D02*
X006612Y009822D01*
X009295Y009822D02*
X013660Y009822D01*
X011315Y008825D02*
X010641Y008825D01*
X010043Y008825D02*
X009295Y008825D01*
X009295Y009323D02*
X009858Y009323D01*
X011067Y008326D02*
X011691Y008326D01*
X011300Y007828D02*
X012334Y007828D01*
X012058Y007329D02*
X011300Y007329D01*
X011293Y006831D02*
X011559Y006831D01*
X016067Y008638D02*
X016771Y009342D01*
X016833Y009342D01*
X017012Y009416D01*
X017150Y009554D01*
X017224Y009733D01*
X017224Y009744D01*
X017571Y009744D01*
X017571Y008278D01*
X016652Y008278D01*
X016530Y008228D01*
X016469Y008167D01*
X016469Y008235D01*
X016067Y008638D01*
X016253Y008825D02*
X017571Y008825D01*
X017571Y009323D02*
X016752Y009323D01*
X016378Y008326D02*
X017571Y008326D01*
X018568Y009996D02*
X018568Y010676D01*
X018568Y009996D01*
X018568Y009996D01*
X018568Y010320D02*
X018568Y010320D01*
X018787Y010641D02*
X018869Y010607D01*
X018946Y010562D01*
X019017Y010508D01*
X019080Y010445D01*
X019134Y010374D01*
X019179Y010297D01*
X019213Y010215D01*
X019236Y010129D01*
X019240Y010099D01*
X019240Y011842D01*
X018884Y011842D01*
X018657Y012068D01*
X018430Y011842D01*
X018074Y011842D01*
X018074Y011621D01*
X018150Y011546D01*
X018254Y011441D01*
X018311Y011305D01*
X018311Y010625D01*
X018349Y010641D01*
X018435Y010664D01*
X018523Y010676D01*
X018568Y010676D01*
X018612Y010676D01*
X018701Y010664D01*
X018787Y010641D01*
X019240Y010819D02*
X018311Y010819D01*
X019166Y010320D02*
X019240Y010320D01*
X019240Y011317D02*
X018306Y011317D01*
X018074Y011816D02*
X019240Y011816D01*
X018657Y012935D02*
X018430Y013162D01*
X018074Y013162D01*
X018074Y013628D01*
X018018Y013764D01*
X017914Y013868D01*
X017837Y013946D01*
X017927Y013946D01*
X018211Y014063D01*
X018428Y014280D01*
X018523Y014508D01*
X018753Y014508D01*
X018753Y015208D01*
X018753Y015208D01*
X018753Y015908D01*
X018753Y015208D01*
X018753Y015208D01*
X018753Y014508D01*
X019043Y014508D01*
X019240Y014705D01*
X019240Y013162D01*
X018884Y013162D01*
X018657Y012935D01*
X018074Y013311D02*
X019240Y013311D01*
X019240Y013810D02*
X017973Y013810D01*
X017914Y013868D02*
X017914Y013868D01*
X018440Y014308D02*
X019240Y014308D01*
X018753Y014807D02*
X018753Y014807D01*
X018753Y015305D02*
X018753Y015305D01*
X018753Y015804D02*
X018753Y015804D01*
X018359Y015804D02*
X016868Y015804D01*
X016868Y016302D02*
X019240Y016302D01*
X019240Y015804D02*
X019148Y015804D01*
X017268Y015305D02*
X016926Y015305D01*
X015421Y015305D02*
X012563Y015305D01*
X012440Y014807D02*
X015421Y014807D01*
X015437Y014308D02*
X011895Y014308D01*
X012208Y013311D02*
X012518Y013311D01*
X013359Y013311D02*
X013584Y013311D01*
X015473Y013311D02*
X015718Y013311D01*
X015075Y015804D02*
X012563Y015804D01*
X012563Y016302D02*
X015089Y016302D01*
X015403Y016801D02*
X012368Y016801D01*
X011869Y017299D02*
X015401Y017299D01*
X016145Y017299D02*
X016145Y017299D01*
X016888Y017299D02*
X017011Y017299D01*
X016887Y016801D02*
X017390Y016801D01*
X015421Y017798D02*
X011371Y017798D01*
X010872Y018296D02*
X015444Y018296D01*
X015385Y018795D02*
X010618Y018795D01*
X007178Y016479D02*
X006935Y016579D01*
X006673Y016579D01*
X006430Y016479D01*
X006304Y016352D01*
X006178Y016479D01*
X005935Y016579D01*
X005673Y016579D01*
X005430Y016479D01*
X005318Y016366D01*
X005316Y016368D01*
X005253Y016431D01*
X005183Y016486D01*
X005105Y016530D01*
X005023Y016564D01*
X004937Y016587D01*
X004849Y016599D01*
X004804Y016599D01*
X004804Y015589D01*
X004484Y015589D01*
X003804Y015589D01*
X003804Y015589D01*
X004804Y015589D01*
X004804Y015589D01*
X004804Y015589D01*
X004804Y016599D01*
X004759Y016599D01*
X004671Y016587D01*
X004585Y016564D01*
X004503Y016530D01*
X004425Y016486D01*
X004355Y016431D01*
X004304Y016381D01*
X004253Y016431D01*
X004183Y016486D01*
X004105Y016530D01*
X004023Y016564D01*
X003937Y016587D01*
X003849Y016599D01*
X003804Y016599D01*
X003804Y015589D01*
X003804Y015589D01*
X003804Y016599D01*
X003759Y016599D01*
X003671Y016587D01*
X003641Y016579D01*
X003712Y016753D01*
X003712Y016947D01*
X003638Y017127D01*
X003613Y017151D01*
X003636Y017522D01*
X003814Y017522D01*
X004045Y017522D01*
X004113Y017536D01*
X004176Y017562D01*
X004234Y017601D01*
X004283Y017649D01*
X004318Y017703D01*
X004326Y017695D01*
X004326Y017536D01*
X004400Y017357D01*
X004538Y017219D01*
X004717Y017145D01*
X004912Y017145D01*
X005091Y017219D01*
X005229Y017357D01*
X005303Y017536D01*
X005303Y017700D01*
X005308Y017705D01*
X005312Y017715D01*
X005316Y017705D01*
X005409Y017612D01*
X005530Y017562D01*
X006094Y017562D01*
X006095Y017562D01*
X007156Y016501D01*
X007292Y016445D01*
X007396Y016445D01*
X007304Y016352D01*
X007178Y016479D01*
X006857Y016801D02*
X003712Y016801D01*
X003623Y017299D02*
X004458Y017299D01*
X003814Y017522D02*
X003814Y018089D01*
X003814Y018089D01*
X003814Y017522D01*
X003814Y017798D02*
X003814Y017798D01*
X002912Y017798D02*
X000700Y017798D01*
X000753Y018094D02*
X001048Y018015D01*
X001353Y018015D01*
X001648Y018094D01*
X001913Y018247D01*
X002129Y018463D01*
X002282Y018727D01*
X002361Y019022D01*
X002361Y019328D01*
X002282Y019623D01*
X002246Y019685D01*
X015738Y019685D01*
X015738Y019610D01*
X003631Y019610D01*
X003495Y019553D01*
X003391Y019449D01*
X003096Y019155D01*
X003050Y019114D01*
X003045Y019103D01*
X003036Y019095D01*
X003013Y019038D01*
X002985Y018982D01*
X002985Y018970D01*
X002980Y018959D01*
X002980Y018897D01*
X002874Y017191D01*
X002810Y017127D01*
X002736Y016947D01*
X002736Y016779D01*
X002649Y016779D01*
X002546Y016779D01*
X002526Y016828D01*
X002411Y016943D01*
X002260Y017006D01*
X001188Y017006D01*
X001129Y017012D01*
X001108Y017006D01*
X001085Y017006D01*
X001083Y017005D01*
X000700Y017005D01*
X000700Y018125D01*
X000753Y018094D01*
X000700Y017299D02*
X002881Y017299D01*
X002736Y016801D02*
X002538Y016801D01*
X002649Y016779D02*
X002649Y016036D01*
X002649Y016036D01*
X002649Y016779D01*
X002649Y016302D02*
X002649Y016302D01*
X002649Y016036D02*
X002649Y015815D01*
X002649Y015815D01*
X002649Y016036D01*
X002649Y016036D01*
X003804Y015804D02*
X003804Y015804D01*
X003804Y016302D02*
X003804Y016302D01*
X004804Y016302D02*
X004804Y016302D01*
X004804Y015804D02*
X004804Y015804D01*
X005171Y017299D02*
X006358Y017299D01*
X002943Y018296D02*
X001962Y018296D01*
X002300Y018795D02*
X002974Y018795D01*
X003234Y019293D02*
X002361Y019293D01*
X003391Y019449D02*
X003391Y019449D01*
X008315Y014807D02*
X008323Y014807D01*
X008526Y014308D02*
X008783Y014308D01*
X010094Y010819D02*
X010094Y010819D01*
X002484Y010016D02*
X002484Y009344D01*
X002484Y010016D01*
X002484Y010016D01*
X002484Y009822D02*
X002484Y009822D01*
X002484Y009344D02*
X002484Y009344D01*
X011372Y003824D02*
X011372Y003824D01*
X011372Y003277D01*
X011623Y003277D01*
X011691Y003290D01*
X011755Y003317D01*
X011812Y003355D01*
X011861Y003404D01*
X011899Y003461D01*
X011925Y003525D01*
X011939Y003593D01*
X011939Y003824D01*
X011372Y003824D01*
X011939Y003840D02*
X015631Y003840D01*
X015133Y003341D02*
X011791Y003341D01*
X011372Y003341D02*
X011372Y003341D01*
X012028Y002843D02*
X010471Y002843D01*
X009905Y002843D02*
X009905Y002843D01*
X015858Y003020D02*
X017018Y004180D01*
X017074Y004316D01*
X017074Y005244D01*
X017101Y005271D01*
X017118Y005229D01*
X017336Y005012D01*
X017620Y004895D01*
X017927Y004895D01*
X018073Y004955D01*
X018073Y004895D01*
X018472Y004497D01*
X019035Y004497D01*
X019240Y004702D01*
X019240Y003900D01*
X019043Y004097D01*
X018753Y004097D01*
X018463Y004097D01*
X018053Y003687D01*
X018053Y003627D01*
X017927Y003680D01*
X017620Y003680D01*
X017336Y003562D01*
X017118Y003345D01*
X017001Y003061D01*
X017001Y002753D01*
X017118Y002469D01*
X017336Y002252D01*
X017620Y002135D01*
X017792Y002135D01*
X017032Y001374D01*
X016969Y001374D01*
X016867Y001332D01*
X016907Y001428D01*
X016907Y002183D01*
X016817Y002399D01*
X016651Y002565D01*
X016435Y002655D01*
X016200Y002655D01*
X016193Y002652D01*
X016118Y002831D01*
X015981Y002969D01*
X015858Y003020D01*
X016107Y002843D02*
X017001Y002843D01*
X016840Y002344D02*
X017244Y002344D01*
X017503Y001846D02*
X016907Y001846D01*
X016905Y001347D02*
X016874Y001347D01*
X017117Y003341D02*
X016179Y003341D01*
X016678Y003840D02*
X018206Y003840D01*
X018753Y003840D02*
X018753Y003840D01*
X018753Y004097D02*
X018753Y003397D01*
X018753Y003397D01*
X018753Y004097D01*
X019240Y004338D02*
X017074Y004338D01*
X017074Y004837D02*
X018132Y004837D01*
D37*
X016704Y004389D02*
X015153Y002838D01*
X012547Y002838D01*
X011704Y001996D01*
X011704Y001389D01*
X011476Y001161D01*
X005956Y001161D01*
X005319Y001799D01*
X005317Y001805D01*
X006317Y001805D02*
X006319Y001807D01*
X006319Y002106D01*
X007342Y003130D01*
X007444Y003130D01*
X008925Y004610D01*
X008925Y010728D01*
X009917Y011720D01*
X009917Y012807D01*
X010350Y013350D01*
X011100Y014082D02*
X012193Y015082D01*
X012193Y016452D01*
X009941Y018704D01*
X009901Y018704D01*
X009895Y018711D01*
X009263Y018279D02*
X009074Y018090D01*
X008807Y018090D01*
X008807Y018089D01*
X008374Y018413D02*
X008051Y018736D01*
X007822Y018736D01*
X007787Y018758D01*
X007783Y018752D01*
X007720Y018752D01*
X007059Y018090D01*
X006791Y018090D01*
X006789Y018089D01*
X006350Y018460D02*
X006059Y018752D01*
X005815Y018752D01*
X005812Y018758D01*
X005389Y018421D02*
X005059Y018752D01*
X004815Y018752D01*
X004812Y018758D01*
X004812Y018089D02*
X004815Y018082D01*
X004815Y017633D01*
X005815Y018082D02*
X005812Y018089D01*
X005815Y018082D02*
X006098Y018082D01*
X007366Y016815D01*
X009210Y016815D01*
X009895Y017136D02*
X009901Y017130D01*
X010263Y017130D01*
X010649Y016744D01*
X010531Y016342D02*
X009901Y016342D01*
X009895Y016349D01*
X009895Y015561D02*
X009901Y015555D01*
X010263Y015555D01*
X010563Y015256D01*
X009895Y014774D02*
X009893Y014767D01*
X009704Y014767D01*
X009271Y014334D01*
X007594Y013004D02*
X007334Y013263D01*
X007043Y013263D01*
X007594Y013004D02*
X007594Y012901D01*
X003263Y013102D02*
X003224Y015704D01*
X003224Y016850D02*
X003350Y018885D01*
X003704Y019240D01*
X017381Y019240D01*
X019610Y017011D01*
X019610Y003429D01*
X017067Y000885D01*
X015704Y002555D02*
X013027Y002555D01*
X011917Y001200D02*
X011744Y001200D01*
X011539Y000996D01*
X004326Y000996D01*
X003933Y001389D01*
X003933Y002618D01*
X005704Y004389D01*
X005704Y005807D01*
X005452Y006059D01*
X005452Y006893D01*
X007153Y006893D01*
X007156Y006893D01*
X006870Y006303D02*
X006870Y005720D01*
X006319Y005169D01*
X006319Y004807D01*
X006317Y004805D01*
X006791Y005200D02*
X006791Y004271D01*
X004319Y001799D01*
X004317Y001805D01*
X002007Y004484D02*
X001964Y004484D01*
X001712Y004484D01*
X002004Y004484D02*
X002007Y004484D01*
X001988Y005098D02*
X002007Y005134D01*
X002004Y005177D01*
X002004Y006169D01*
X001673Y006500D01*
X001669Y006501D01*
X001657Y006539D01*
X001657Y006594D01*
X001114Y007137D01*
X001114Y011815D01*
X002035Y012736D01*
X002484Y012736D01*
X003263Y013102D01*
X003460Y009681D02*
X003917Y009224D01*
X003849Y007030D02*
X003854Y007027D01*
X005027Y007027D01*
X005114Y006941D01*
X005153Y006930D01*
X005153Y006925D01*
X005185Y006893D01*
X005452Y006893D01*
X007271Y006145D02*
X007271Y005681D01*
X006791Y005200D01*
X007319Y005169D02*
X007319Y004807D01*
X007317Y004805D01*
X007319Y005169D02*
X007673Y005523D01*
X007673Y006145D01*
X008547Y006374D02*
X008549Y006375D01*
X008547Y006374D02*
X008547Y005397D01*
X008319Y005169D01*
X008319Y004807D01*
X008317Y004805D01*
X009133Y003708D02*
X009531Y004106D01*
X009563Y004106D01*
X009807Y004350D01*
X009807Y005216D01*
X010130Y005539D01*
X010791Y005539D01*
X012720Y007468D01*
X012720Y007523D01*
X013744Y006964D02*
X013744Y005728D01*
X014311Y005161D01*
X014311Y004807D01*
X014317Y004805D01*
X015004Y005468D02*
X015311Y005161D01*
X015311Y004807D01*
X015317Y004805D01*
X015004Y005468D02*
X015004Y006515D01*
X012586Y008933D01*
X011799Y008933D01*
X012074Y008633D02*
X013744Y006964D01*
X015043Y008137D02*
X016736Y009830D01*
X016074Y010326D02*
X015618Y010326D01*
X015613Y010319D01*
X015613Y009650D02*
X015610Y009649D01*
X015610Y009161D01*
X014641Y008193D01*
X013523Y008909D02*
X015531Y006901D01*
X015885Y006901D01*
X016256Y006531D01*
X016256Y004862D01*
X016311Y004807D01*
X016317Y004805D01*
X016704Y004389D02*
X016704Y005397D01*
X017941Y006633D01*
X017941Y011232D01*
X017704Y011468D01*
X017704Y013555D01*
X017208Y014051D01*
X017208Y014500D01*
X016185Y015523D01*
X016145Y015523D01*
X016145Y015524D01*
X016145Y014737D02*
X016145Y014736D01*
X016295Y014736D01*
X017106Y013925D01*
X017106Y012224D01*
X016759Y012397D02*
X013578Y009216D01*
X010342Y009216D01*
X008549Y007635D02*
X008547Y007633D01*
X008547Y007019D01*
X013327Y005916D02*
X013326Y005909D01*
X013326Y004815D01*
X013319Y004807D01*
X013317Y004805D01*
X002812Y006508D02*
X002807Y006507D01*
X002728Y006429D01*
X002728Y006224D01*
X002665Y006161D01*
X002665Y006082D01*
X002011Y005137D02*
X002007Y005134D01*
X016145Y013523D02*
X016759Y012909D01*
X016759Y012397D01*
X016145Y013523D02*
X016145Y013948D01*
X016145Y013949D01*
X015507Y016035D02*
X015783Y016311D01*
X016137Y016311D01*
X016145Y016311D01*
X011909Y016271D02*
X010263Y017917D01*
X009901Y017917D01*
X009895Y017924D01*
X008807Y018758D02*
X008799Y018759D01*
X008429Y018759D01*
X008248Y018941D01*
X007224Y018838D02*
X007145Y018759D01*
X006791Y018759D01*
X006789Y018758D01*
D38*
X016145Y018673D02*
X016145Y018674D01*
X016145Y018673D02*
X017161Y018673D01*
X017168Y018666D01*
D39*
X019182Y019177D03*
X001201Y019175D03*
X001200Y001200D03*
X019179Y001212D03*
M02*
