G75*
%MOIN*%
%OFA0B0*%
%FSLAX24Y24*%
%IPPOS*%
%LPD*%
%AMOC8*
5,1,8,0,0,1.08239X$1,22.5*
%
%ADD10C,0.0000*%
%ADD11OC8,0.0850*%
%ADD12C,0.0600*%
%ADD13C,0.0520*%
%ADD14C,0.0705*%
%ADD15C,0.0560*%
%ADD16C,0.0160*%
%ADD17C,0.0240*%
%ADD18C,0.0280*%
%ADD19C,0.0120*%
%ADD20C,0.1660*%
D10*
X000180Y000180D02*
X000180Y019865D01*
X019865Y019865D01*
X019865Y000180D01*
X000180Y000180D01*
D11*
X004943Y005805D03*
X008358Y005838D03*
X009358Y005838D03*
X009817Y010961D03*
X008817Y010961D03*
X007817Y010961D03*
X006816Y010961D03*
X005796Y010961D03*
X017192Y019270D03*
X018645Y003674D03*
X018642Y002490D03*
D12*
X012615Y002328D02*
X012615Y001728D01*
X011615Y001728D02*
X011615Y002328D01*
X010615Y002328D02*
X010615Y001728D01*
X009615Y001728D02*
X009615Y002328D01*
X008615Y002328D02*
X008615Y001728D01*
X007615Y001728D02*
X007615Y002328D01*
X006615Y002328D02*
X006615Y001728D01*
X005615Y001728D02*
X005615Y002328D01*
X004625Y002301D02*
X004625Y001701D01*
X003625Y001701D02*
X003625Y002301D01*
X002625Y002301D02*
X002625Y001701D01*
X001480Y006006D02*
X000880Y006006D01*
X000880Y007006D02*
X001480Y007006D01*
X001480Y008006D02*
X000880Y008006D01*
X000880Y009006D02*
X001480Y009006D01*
X001480Y010006D02*
X000880Y010006D01*
X000880Y011006D02*
X001480Y011006D01*
D13*
X004752Y010190D02*
X004752Y009670D01*
X005752Y009670D02*
X005752Y010190D01*
X006752Y010190D02*
X006752Y009670D01*
X007752Y009670D02*
X007752Y010190D01*
X008752Y010190D02*
X008752Y009670D01*
X009752Y009670D02*
X009752Y010190D01*
X010752Y010190D02*
X010752Y009670D01*
X011752Y009670D02*
X011752Y010190D01*
X012752Y010190D02*
X012752Y009670D01*
X013752Y009670D02*
X013752Y010190D01*
X014752Y010190D02*
X014752Y009670D01*
X015752Y009670D02*
X015752Y010190D01*
X016752Y010190D02*
X016752Y009670D01*
X017752Y009670D02*
X017752Y010190D01*
X017752Y007190D02*
X017752Y006670D01*
X016752Y006670D02*
X016752Y007190D01*
X015752Y007190D02*
X015752Y006670D01*
X014752Y006670D02*
X014752Y007190D01*
X013752Y007190D02*
X013752Y006670D01*
X012752Y006670D02*
X012752Y007190D01*
X011752Y007190D02*
X011752Y006670D01*
X010752Y006670D02*
X010752Y007190D01*
X009752Y007190D02*
X009752Y006670D01*
X008752Y006670D02*
X008752Y007190D01*
X007752Y007190D02*
X007752Y006670D01*
X006752Y006670D02*
X006752Y007190D01*
X005752Y007190D02*
X005752Y006670D01*
X004752Y006670D02*
X004752Y007190D01*
D14*
X004612Y016562D02*
X004612Y017267D01*
X006581Y017267D02*
X006581Y016562D01*
X008549Y016562D02*
X008549Y017267D01*
X015072Y003546D02*
X015072Y002841D01*
X017040Y002841D02*
X017040Y003546D01*
D15*
X007860Y012609D02*
X007300Y012609D01*
X007300Y013609D02*
X007860Y013609D01*
X001299Y004012D02*
X000739Y004012D01*
X000739Y003012D02*
X001299Y003012D01*
D16*
X001584Y003350D02*
X014539Y003350D01*
X014539Y003231D02*
X015034Y003231D01*
X015034Y003156D01*
X015109Y003156D01*
X015109Y002309D01*
X015114Y002309D01*
X015196Y002322D01*
X015276Y002348D01*
X015351Y002386D01*
X015419Y002435D01*
X015478Y002495D01*
X015527Y002562D01*
X015565Y002637D01*
X015591Y002717D01*
X015604Y002800D01*
X015604Y003156D01*
X015109Y003156D01*
X015109Y003231D01*
X015604Y003231D01*
X015604Y003588D01*
X015591Y003671D01*
X015565Y003751D01*
X015527Y003826D01*
X015478Y003893D01*
X015419Y003953D01*
X015351Y004002D01*
X015276Y004040D01*
X015196Y004066D01*
X015114Y004079D01*
X015109Y004079D01*
X015109Y003232D01*
X015034Y003232D01*
X015034Y004079D01*
X015030Y004079D01*
X014947Y004066D01*
X014867Y004040D01*
X014793Y004002D01*
X014725Y003953D01*
X014666Y003893D01*
X014616Y003826D01*
X014578Y003751D01*
X014552Y003671D01*
X014539Y003588D01*
X014539Y003231D01*
X014539Y003156D02*
X014539Y002800D01*
X014552Y002717D01*
X014578Y002637D01*
X014616Y002562D01*
X014666Y002495D01*
X014725Y002435D01*
X014793Y002386D01*
X014867Y002348D01*
X014947Y002322D01*
X015030Y002309D01*
X015034Y002309D01*
X015034Y003156D01*
X014539Y003156D01*
X014539Y003033D02*
X001739Y003033D01*
X001739Y003100D02*
X001672Y003261D01*
X001549Y003385D01*
X001387Y003452D01*
X000652Y003452D01*
X000490Y003385D01*
X000366Y003261D01*
X000360Y003247D01*
X000360Y003830D01*
X000383Y003774D01*
X000501Y003656D01*
X000656Y003592D01*
X001383Y003592D01*
X001537Y003656D01*
X001655Y003774D01*
X001719Y003929D01*
X001719Y004096D01*
X001655Y004250D01*
X001537Y004368D01*
X001383Y004432D01*
X001220Y004432D01*
X001220Y004527D01*
X001813Y005120D01*
X001842Y005120D01*
X001937Y005160D01*
X002011Y005233D01*
X002050Y005328D01*
X002050Y005432D01*
X002011Y005527D01*
X001937Y005600D01*
X001842Y005640D01*
X001793Y005640D01*
X001846Y005693D01*
X001891Y005754D01*
X001925Y005822D01*
X001948Y005893D01*
X001960Y005968D01*
X001960Y005986D01*
X001200Y005986D01*
X001200Y005526D01*
X001518Y005526D01*
X001578Y005535D01*
X001570Y005527D01*
X001530Y005432D01*
X001530Y005403D01*
X000820Y004693D01*
X000820Y004432D01*
X000656Y004432D01*
X000501Y004368D01*
X000383Y004250D01*
X000360Y004194D01*
X000360Y018304D01*
X000482Y018183D01*
X000838Y018035D01*
X001224Y018035D01*
X001580Y018183D01*
X001853Y018455D01*
X002001Y018812D01*
X002001Y019198D01*
X001853Y019554D01*
X001722Y019685D01*
X016808Y019685D01*
X016627Y019504D01*
X016627Y019036D01*
X016958Y018705D01*
X017426Y018705D01*
X017757Y019036D01*
X017757Y019504D01*
X017576Y019685D01*
X018319Y019685D01*
X018190Y019556D01*
X018042Y019199D01*
X018042Y018814D01*
X018190Y018457D01*
X018462Y018184D01*
X018819Y018037D01*
X019205Y018037D01*
X019561Y018184D01*
X019685Y018308D01*
X019685Y001738D01*
X019559Y001865D01*
X019202Y002012D01*
X019019Y002012D01*
X019247Y002240D01*
X019247Y002470D01*
X018662Y002470D01*
X018662Y002510D01*
X019247Y002510D01*
X019247Y002741D01*
X018893Y003095D01*
X019230Y003432D01*
X019230Y003916D01*
X018887Y004259D01*
X018402Y004259D01*
X018060Y003916D01*
X018060Y003432D01*
X018396Y003095D01*
X018391Y003095D01*
X018037Y002741D01*
X018037Y002510D01*
X018622Y002510D01*
X018622Y002470D01*
X018037Y002470D01*
X018037Y002240D01*
X018391Y001885D01*
X018510Y001885D01*
X018460Y001865D01*
X018187Y001592D01*
X018040Y001235D01*
X018040Y000849D01*
X018187Y000493D01*
X018320Y000360D01*
X001732Y000360D01*
X001852Y000481D01*
X002000Y000837D01*
X002000Y001223D01*
X001852Y001579D01*
X001580Y001852D01*
X001223Y002000D01*
X000837Y002000D01*
X000481Y001852D01*
X000360Y001732D01*
X000360Y002778D01*
X000366Y002763D01*
X000490Y002639D01*
X000652Y002572D01*
X001387Y002572D01*
X001549Y002639D01*
X001672Y002763D01*
X001739Y002925D01*
X001739Y003100D01*
X001701Y003192D02*
X015034Y003192D01*
X015109Y003192D02*
X016548Y003192D01*
X016548Y003350D02*
X015604Y003350D01*
X015604Y003509D02*
X016548Y003509D01*
X016548Y003644D02*
X016623Y003825D01*
X016761Y003964D01*
X016942Y004039D01*
X017138Y004039D01*
X017319Y003964D01*
X017458Y003825D01*
X017533Y003644D01*
X017533Y002744D01*
X017458Y002563D01*
X017319Y002424D01*
X017138Y002349D01*
X016942Y002349D01*
X016761Y002424D01*
X016623Y002563D01*
X016548Y002744D01*
X016548Y003644D01*
X016557Y003667D02*
X015592Y003667D01*
X015527Y003826D02*
X016623Y003826D01*
X016810Y003984D02*
X015376Y003984D01*
X015109Y003984D02*
X015034Y003984D01*
X015034Y003826D02*
X015109Y003826D01*
X015109Y003667D02*
X015034Y003667D01*
X015034Y003509D02*
X015109Y003509D01*
X015109Y003350D02*
X015034Y003350D01*
X015034Y003033D02*
X015109Y003033D01*
X015109Y002875D02*
X015034Y002875D01*
X015034Y002716D02*
X015109Y002716D01*
X015109Y002558D02*
X015034Y002558D01*
X015034Y002399D02*
X015109Y002399D01*
X015369Y002399D02*
X016822Y002399D01*
X016628Y002558D02*
X015524Y002558D01*
X015591Y002716D02*
X016559Y002716D01*
X016548Y002875D02*
X015604Y002875D01*
X015604Y003033D02*
X016548Y003033D01*
X017259Y002399D02*
X018037Y002399D01*
X018037Y002241D02*
X013055Y002241D01*
X013055Y002399D02*
X014775Y002399D01*
X014620Y002558D02*
X012997Y002558D01*
X012988Y002578D02*
X012864Y002701D01*
X012703Y002768D01*
X012528Y002768D01*
X012366Y002701D01*
X012242Y002578D01*
X012175Y002416D01*
X012175Y001641D01*
X012242Y001479D01*
X012366Y001355D01*
X012528Y001288D01*
X012703Y001288D01*
X012864Y001355D01*
X012988Y001479D01*
X013055Y001641D01*
X013055Y002416D01*
X012988Y002578D01*
X012829Y002716D02*
X014553Y002716D01*
X014539Y002875D02*
X001719Y002875D01*
X001625Y002716D02*
X002425Y002716D01*
X002364Y002691D02*
X002534Y002761D01*
X002717Y002761D01*
X002886Y002691D01*
X003015Y002561D01*
X003085Y002392D01*
X003085Y001609D01*
X003015Y001440D01*
X002886Y001311D01*
X002717Y001241D01*
X002534Y001241D01*
X002364Y001311D01*
X002235Y001440D01*
X002165Y001609D01*
X002165Y002392D01*
X002235Y002561D01*
X002364Y002691D01*
X002233Y002558D02*
X000360Y002558D01*
X000360Y002716D02*
X000413Y002716D01*
X000360Y002399D02*
X002168Y002399D01*
X002165Y002241D02*
X000360Y002241D01*
X000360Y002082D02*
X002165Y002082D01*
X002165Y001924D02*
X001408Y001924D01*
X001667Y001765D02*
X002165Y001765D01*
X002166Y001607D02*
X001825Y001607D01*
X001907Y001448D02*
X002232Y001448D01*
X002416Y001290D02*
X001973Y001290D01*
X002000Y001131D02*
X018040Y001131D01*
X018040Y000973D02*
X002000Y000973D01*
X001991Y000814D02*
X018054Y000814D01*
X018120Y000656D02*
X001925Y000656D01*
X001859Y000497D02*
X018186Y000497D01*
X018062Y001290D02*
X012705Y001290D01*
X012525Y001290D02*
X011811Y001290D01*
X011799Y001284D02*
X011867Y001318D01*
X011928Y001362D01*
X011981Y001416D01*
X012026Y001477D01*
X012060Y001544D01*
X012083Y001616D01*
X012095Y001691D01*
X012095Y002008D01*
X011635Y002008D01*
X011635Y001248D01*
X011653Y001248D01*
X011728Y001260D01*
X011799Y001284D01*
X011635Y001290D02*
X011595Y001290D01*
X011595Y001248D02*
X011595Y002008D01*
X011635Y002008D01*
X011635Y002048D01*
X012095Y002048D01*
X012095Y002366D01*
X012083Y002441D01*
X012060Y002513D01*
X012026Y002580D01*
X011981Y002641D01*
X011928Y002695D01*
X011867Y002739D01*
X011799Y002773D01*
X011728Y002797D01*
X011653Y002808D01*
X011635Y002808D01*
X011635Y002048D01*
X011595Y002048D01*
X011595Y002008D01*
X011135Y002008D01*
X011135Y001691D01*
X011147Y001616D01*
X011170Y001544D01*
X011205Y001477D01*
X011249Y001416D01*
X011303Y001362D01*
X011364Y001318D01*
X011431Y001284D01*
X011503Y001260D01*
X011577Y001248D01*
X011595Y001248D01*
X011419Y001290D02*
X010705Y001290D01*
X010703Y001288D02*
X010864Y001355D01*
X010988Y001479D01*
X011055Y001641D01*
X011055Y002416D01*
X010988Y002578D01*
X010864Y002701D01*
X010703Y002768D01*
X010528Y002768D01*
X010366Y002701D01*
X010242Y002578D01*
X010175Y002416D01*
X010175Y001641D01*
X010242Y001479D01*
X010366Y001355D01*
X010528Y001288D01*
X010703Y001288D01*
X010525Y001290D02*
X009811Y001290D01*
X009799Y001284D02*
X009867Y001318D01*
X009928Y001362D01*
X009981Y001416D01*
X010026Y001477D01*
X010060Y001544D01*
X010083Y001616D01*
X010095Y001691D01*
X010095Y002008D01*
X009635Y002008D01*
X009635Y001248D01*
X009653Y001248D01*
X009728Y001260D01*
X009799Y001284D01*
X009635Y001290D02*
X009595Y001290D01*
X009595Y001248D02*
X009595Y002008D01*
X009635Y002008D01*
X009635Y002048D01*
X010095Y002048D01*
X010095Y002366D01*
X010083Y002441D01*
X010060Y002513D01*
X010026Y002580D01*
X009981Y002641D01*
X009928Y002695D01*
X009867Y002739D01*
X009799Y002773D01*
X009728Y002797D01*
X009653Y002808D01*
X009635Y002808D01*
X009635Y002048D01*
X009595Y002048D01*
X009595Y002008D01*
X009135Y002008D01*
X009135Y001691D01*
X009147Y001616D01*
X009170Y001544D01*
X009205Y001477D01*
X009249Y001416D01*
X009303Y001362D01*
X009364Y001318D01*
X009431Y001284D01*
X009503Y001260D01*
X009577Y001248D01*
X009595Y001248D01*
X009419Y001290D02*
X008705Y001290D01*
X008703Y001288D02*
X008864Y001355D01*
X008988Y001479D01*
X009055Y001641D01*
X009055Y002416D01*
X008988Y002578D01*
X008864Y002701D01*
X008703Y002768D01*
X008528Y002768D01*
X008366Y002701D01*
X008242Y002578D01*
X008175Y002416D01*
X008175Y001641D01*
X008242Y001479D01*
X008366Y001355D01*
X008528Y001288D01*
X008703Y001288D01*
X008525Y001290D02*
X007811Y001290D01*
X007799Y001284D02*
X007867Y001318D01*
X007928Y001362D01*
X007981Y001416D01*
X008026Y001477D01*
X008060Y001544D01*
X008083Y001616D01*
X008095Y001691D01*
X008095Y002008D01*
X007635Y002008D01*
X007635Y001248D01*
X007653Y001248D01*
X007728Y001260D01*
X007799Y001284D01*
X007635Y001290D02*
X007595Y001290D01*
X007595Y001248D02*
X007595Y002008D01*
X007635Y002008D01*
X007635Y002048D01*
X008095Y002048D01*
X008095Y002366D01*
X008083Y002441D01*
X008060Y002513D01*
X008026Y002580D01*
X007981Y002641D01*
X007928Y002695D01*
X007867Y002739D01*
X007799Y002773D01*
X007728Y002797D01*
X007653Y002808D01*
X007635Y002808D01*
X007635Y002048D01*
X007595Y002048D01*
X007595Y002008D01*
X007135Y002008D01*
X007135Y001691D01*
X007147Y001616D01*
X007170Y001544D01*
X007205Y001477D01*
X007249Y001416D01*
X007303Y001362D01*
X007364Y001318D01*
X007431Y001284D01*
X007503Y001260D01*
X007577Y001248D01*
X007595Y001248D01*
X007419Y001290D02*
X006758Y001290D01*
X006707Y001268D02*
X006876Y001338D01*
X007005Y001468D01*
X007075Y001637D01*
X007075Y002420D01*
X007005Y002589D01*
X006876Y002718D01*
X006707Y002788D01*
X006524Y002788D01*
X006355Y002718D01*
X006225Y002589D01*
X006155Y002420D01*
X006155Y001637D01*
X006225Y001468D01*
X006355Y001338D01*
X006524Y001268D01*
X006707Y001268D01*
X006473Y001290D02*
X005705Y001290D01*
X005703Y001288D02*
X005864Y001355D01*
X005988Y001479D01*
X006055Y001641D01*
X006055Y002416D01*
X005988Y002578D01*
X005864Y002701D01*
X005703Y002768D01*
X005528Y002768D01*
X005366Y002701D01*
X005242Y002578D01*
X005175Y002416D01*
X005175Y001641D01*
X005242Y001479D01*
X005366Y001355D01*
X005528Y001288D01*
X005703Y001288D01*
X005525Y001290D02*
X004875Y001290D01*
X004877Y001290D02*
X004938Y001335D01*
X004991Y001388D01*
X005036Y001449D01*
X005070Y001517D01*
X005093Y001588D01*
X005105Y001663D01*
X005105Y001981D01*
X004645Y001981D01*
X004645Y002021D01*
X004605Y002021D01*
X004605Y002781D01*
X004587Y002781D01*
X004513Y002769D01*
X004441Y002746D01*
X004373Y002711D01*
X004312Y002667D01*
X004259Y002614D01*
X004215Y002552D01*
X004180Y002485D01*
X004157Y002413D01*
X004145Y002339D01*
X004145Y002021D01*
X004605Y002021D01*
X004605Y001981D01*
X004145Y001981D01*
X004145Y001663D01*
X004157Y001588D01*
X004180Y001517D01*
X004215Y001449D01*
X004259Y001388D01*
X004312Y001335D01*
X004373Y001290D01*
X004441Y001256D01*
X004513Y001233D01*
X004587Y001221D01*
X004605Y001221D01*
X004605Y001981D01*
X004645Y001981D01*
X004645Y001221D01*
X004663Y001221D01*
X004737Y001233D01*
X004809Y001256D01*
X004877Y001290D01*
X005035Y001448D02*
X005273Y001448D01*
X005189Y001607D02*
X005096Y001607D01*
X005105Y001765D02*
X005175Y001765D01*
X005175Y001924D02*
X005105Y001924D01*
X005105Y002021D02*
X005105Y002339D01*
X005093Y002413D01*
X005070Y002485D01*
X005036Y002552D01*
X004991Y002614D01*
X004938Y002667D01*
X004877Y002711D01*
X004809Y002746D01*
X004737Y002769D01*
X004663Y002781D01*
X004645Y002781D01*
X004645Y002021D01*
X005105Y002021D01*
X005105Y002082D02*
X005175Y002082D01*
X005175Y002241D02*
X005105Y002241D01*
X005095Y002399D02*
X005175Y002399D01*
X005234Y002558D02*
X005032Y002558D01*
X004868Y002716D02*
X005401Y002716D01*
X005829Y002716D02*
X006352Y002716D01*
X006212Y002558D02*
X005997Y002558D01*
X006055Y002399D02*
X006155Y002399D01*
X006155Y002241D02*
X006055Y002241D01*
X006055Y002082D02*
X006155Y002082D01*
X006155Y001924D02*
X006055Y001924D01*
X006055Y001765D02*
X006155Y001765D01*
X006168Y001607D02*
X006041Y001607D01*
X005957Y001448D02*
X006245Y001448D01*
X006985Y001448D02*
X007226Y001448D01*
X007150Y001607D02*
X007063Y001607D01*
X007075Y001765D02*
X007135Y001765D01*
X007135Y001924D02*
X007075Y001924D01*
X007135Y002048D02*
X007595Y002048D01*
X007595Y002808D01*
X007577Y002808D01*
X007503Y002797D01*
X007431Y002773D01*
X007364Y002739D01*
X007303Y002695D01*
X007249Y002641D01*
X007205Y002580D01*
X007170Y002513D01*
X007147Y002441D01*
X007135Y002366D01*
X007135Y002048D01*
X007135Y002082D02*
X007075Y002082D01*
X007075Y002241D02*
X007135Y002241D01*
X007140Y002399D02*
X007075Y002399D01*
X007018Y002558D02*
X007193Y002558D01*
X007332Y002716D02*
X006878Y002716D01*
X007595Y002716D02*
X007635Y002716D01*
X007635Y002558D02*
X007595Y002558D01*
X007595Y002399D02*
X007635Y002399D01*
X007635Y002241D02*
X007595Y002241D01*
X007595Y002082D02*
X007635Y002082D01*
X007635Y001924D02*
X007595Y001924D01*
X007595Y001765D02*
X007635Y001765D01*
X007635Y001607D02*
X007595Y001607D01*
X007595Y001448D02*
X007635Y001448D01*
X008005Y001448D02*
X008273Y001448D01*
X008189Y001607D02*
X008080Y001607D01*
X008095Y001765D02*
X008175Y001765D01*
X008175Y001924D02*
X008095Y001924D01*
X008095Y002082D02*
X008175Y002082D01*
X008175Y002241D02*
X008095Y002241D01*
X008090Y002399D02*
X008175Y002399D01*
X008234Y002558D02*
X008037Y002558D01*
X007898Y002716D02*
X008401Y002716D01*
X008829Y002716D02*
X009332Y002716D01*
X009303Y002695D02*
X009249Y002641D01*
X009205Y002580D01*
X009170Y002513D01*
X009147Y002441D01*
X009135Y002366D01*
X009135Y002048D01*
X009595Y002048D01*
X009595Y002808D01*
X009577Y002808D01*
X009503Y002797D01*
X009431Y002773D01*
X009364Y002739D01*
X009303Y002695D01*
X009193Y002558D02*
X008997Y002558D01*
X009055Y002399D02*
X009140Y002399D01*
X009135Y002241D02*
X009055Y002241D01*
X009055Y002082D02*
X009135Y002082D01*
X009135Y001924D02*
X009055Y001924D01*
X009055Y001765D02*
X009135Y001765D01*
X009150Y001607D02*
X009041Y001607D01*
X008957Y001448D02*
X009226Y001448D01*
X009595Y001448D02*
X009635Y001448D01*
X009635Y001607D02*
X009595Y001607D01*
X009595Y001765D02*
X009635Y001765D01*
X009635Y001924D02*
X009595Y001924D01*
X009595Y002082D02*
X009635Y002082D01*
X009635Y002241D02*
X009595Y002241D01*
X009595Y002399D02*
X009635Y002399D01*
X009635Y002558D02*
X009595Y002558D01*
X009595Y002716D02*
X009635Y002716D01*
X009898Y002716D02*
X010401Y002716D01*
X010234Y002558D02*
X010037Y002558D01*
X010090Y002399D02*
X010175Y002399D01*
X010175Y002241D02*
X010095Y002241D01*
X010095Y002082D02*
X010175Y002082D01*
X010175Y001924D02*
X010095Y001924D01*
X010095Y001765D02*
X010175Y001765D01*
X010189Y001607D02*
X010080Y001607D01*
X010005Y001448D02*
X010273Y001448D01*
X010957Y001448D02*
X011226Y001448D01*
X011150Y001607D02*
X011041Y001607D01*
X011055Y001765D02*
X011135Y001765D01*
X011135Y001924D02*
X011055Y001924D01*
X011135Y002048D02*
X011595Y002048D01*
X011595Y002808D01*
X011577Y002808D01*
X011503Y002797D01*
X011431Y002773D01*
X011364Y002739D01*
X011303Y002695D01*
X011249Y002641D01*
X011205Y002580D01*
X011170Y002513D01*
X011147Y002441D01*
X011135Y002366D01*
X011135Y002048D01*
X011135Y002082D02*
X011055Y002082D01*
X011055Y002241D02*
X011135Y002241D01*
X011140Y002399D02*
X011055Y002399D01*
X010997Y002558D02*
X011193Y002558D01*
X011332Y002716D02*
X010829Y002716D01*
X011595Y002716D02*
X011635Y002716D01*
X011635Y002558D02*
X011595Y002558D01*
X011595Y002399D02*
X011635Y002399D01*
X011635Y002241D02*
X011595Y002241D01*
X011595Y002082D02*
X011635Y002082D01*
X011635Y001924D02*
X011595Y001924D01*
X011595Y001765D02*
X011635Y001765D01*
X011635Y001607D02*
X011595Y001607D01*
X011595Y001448D02*
X011635Y001448D01*
X012005Y001448D02*
X012273Y001448D01*
X012189Y001607D02*
X012080Y001607D01*
X012095Y001765D02*
X012175Y001765D01*
X012175Y001924D02*
X012095Y001924D01*
X012095Y002082D02*
X012175Y002082D01*
X012175Y002241D02*
X012095Y002241D01*
X012090Y002399D02*
X012175Y002399D01*
X012234Y002558D02*
X012037Y002558D01*
X011898Y002716D02*
X012401Y002716D01*
X013055Y002082D02*
X018195Y002082D01*
X018353Y001924D02*
X013055Y001924D01*
X013055Y001765D02*
X018361Y001765D01*
X018202Y001607D02*
X013041Y001607D01*
X012957Y001448D02*
X018128Y001448D01*
X018037Y002558D02*
X017453Y002558D01*
X017521Y002716D02*
X018037Y002716D01*
X018170Y002875D02*
X017533Y002875D01*
X017533Y003033D02*
X018329Y003033D01*
X018300Y003192D02*
X017533Y003192D01*
X017533Y003350D02*
X018142Y003350D01*
X018060Y003509D02*
X017533Y003509D01*
X017523Y003667D02*
X018060Y003667D01*
X018060Y003826D02*
X017458Y003826D01*
X017271Y003984D02*
X018127Y003984D01*
X018286Y004143D02*
X001700Y004143D01*
X001719Y003984D02*
X014768Y003984D01*
X014616Y003826D02*
X001677Y003826D01*
X001548Y003667D02*
X014552Y003667D01*
X014539Y003509D02*
X000360Y003509D01*
X000360Y003667D02*
X000491Y003667D01*
X000362Y003826D02*
X000360Y003826D01*
X000360Y004301D02*
X000434Y004301D01*
X000360Y004460D02*
X000820Y004460D01*
X000820Y004618D02*
X000360Y004618D01*
X000360Y004777D02*
X000904Y004777D01*
X001062Y004935D02*
X000360Y004935D01*
X000360Y005094D02*
X001221Y005094D01*
X001379Y005252D02*
X000360Y005252D01*
X000360Y005411D02*
X001530Y005411D01*
X001787Y005094D02*
X019685Y005094D01*
X019685Y005252D02*
X005246Y005252D01*
X005194Y005200D02*
X005548Y005554D01*
X005548Y005785D01*
X004963Y005785D01*
X004963Y005825D01*
X005548Y005825D01*
X005548Y006055D01*
X005194Y006410D01*
X005058Y006410D01*
X005091Y006443D01*
X005152Y006590D01*
X005152Y007270D01*
X005091Y007417D01*
X004979Y007529D01*
X004832Y007590D01*
X004672Y007590D01*
X004645Y007578D01*
X004510Y007713D01*
X004510Y007882D01*
X004531Y007903D01*
X004570Y007998D01*
X004570Y008102D01*
X004531Y008197D01*
X004457Y008270D01*
X004362Y008310D01*
X004258Y008310D01*
X004163Y008270D01*
X004090Y008197D01*
X004050Y008102D01*
X004050Y007998D01*
X004090Y007903D01*
X004110Y007882D01*
X004110Y007713D01*
X004110Y007547D01*
X004362Y007295D01*
X004352Y007270D01*
X004352Y006590D01*
X004413Y006443D01*
X004525Y006331D01*
X004588Y006305D01*
X004338Y006055D01*
X004338Y005825D01*
X004923Y005825D01*
X004923Y005785D01*
X004338Y005785D01*
X004338Y005554D01*
X004693Y005200D01*
X004923Y005200D01*
X004923Y005785D01*
X004963Y005785D01*
X004963Y005200D01*
X005194Y005200D01*
X004963Y005252D02*
X004923Y005252D01*
X004923Y005411D02*
X004963Y005411D01*
X004963Y005569D02*
X004923Y005569D01*
X004923Y005728D02*
X004963Y005728D01*
X005404Y005411D02*
X007987Y005411D01*
X008124Y005273D02*
X007793Y005604D01*
X007793Y006072D01*
X008124Y006403D01*
X008453Y006403D01*
X008413Y006443D01*
X008352Y006590D01*
X008352Y007270D01*
X008413Y007417D01*
X008525Y007529D01*
X008672Y007590D01*
X008832Y007590D01*
X008979Y007529D01*
X009091Y007417D01*
X009152Y007270D01*
X009152Y006590D01*
X009091Y006443D01*
X008979Y006331D01*
X008832Y006270D01*
X008726Y006270D01*
X008858Y006137D01*
X009124Y006403D01*
X009453Y006403D01*
X009413Y006443D01*
X009352Y006590D01*
X009352Y007270D01*
X009413Y007417D01*
X009525Y007529D01*
X009672Y007590D01*
X009832Y007590D01*
X009979Y007529D01*
X010091Y007417D01*
X010152Y007270D01*
X010152Y006590D01*
X010091Y006443D01*
X009979Y006331D01*
X009832Y006270D01*
X009726Y006270D01*
X009923Y006072D01*
X009923Y005604D01*
X009592Y005273D01*
X009124Y005273D01*
X008858Y005539D01*
X008592Y005273D01*
X008124Y005273D01*
X007829Y005569D02*
X005548Y005569D01*
X005548Y005728D02*
X007793Y005728D01*
X007793Y005886D02*
X005548Y005886D01*
X005548Y006045D02*
X007793Y006045D01*
X007924Y006203D02*
X005401Y006203D01*
X005525Y006331D02*
X005672Y006270D01*
X005832Y006270D01*
X005979Y006331D01*
X006091Y006443D01*
X006152Y006590D01*
X006152Y007270D01*
X006091Y007417D01*
X005979Y007529D01*
X005832Y007590D01*
X005672Y007590D01*
X005525Y007529D01*
X005413Y007417D01*
X005352Y007270D01*
X005352Y006590D01*
X005413Y006443D01*
X005525Y006331D01*
X005495Y006362D02*
X005242Y006362D01*
X005123Y006520D02*
X005381Y006520D01*
X005352Y006679D02*
X005152Y006679D01*
X005152Y006837D02*
X005352Y006837D01*
X005352Y006996D02*
X005152Y006996D01*
X005152Y007154D02*
X005352Y007154D01*
X005370Y007313D02*
X005134Y007313D01*
X005037Y007471D02*
X005467Y007471D01*
X006037Y007471D02*
X006467Y007471D01*
X006413Y007417D02*
X006525Y007529D01*
X006672Y007590D01*
X006832Y007590D01*
X006979Y007529D01*
X007091Y007417D01*
X007152Y007270D01*
X007152Y006590D01*
X007091Y006443D01*
X006979Y006331D01*
X006832Y006270D01*
X006672Y006270D01*
X006525Y006331D01*
X006413Y006443D01*
X006352Y006590D01*
X006352Y007270D01*
X006413Y007417D01*
X006370Y007313D02*
X006134Y007313D01*
X006152Y007154D02*
X006352Y007154D01*
X006352Y006996D02*
X006152Y006996D01*
X006152Y006837D02*
X006352Y006837D01*
X006352Y006679D02*
X006152Y006679D01*
X006123Y006520D02*
X006381Y006520D01*
X006495Y006362D02*
X006009Y006362D01*
X007009Y006362D02*
X007495Y006362D01*
X007525Y006331D02*
X007672Y006270D01*
X007832Y006270D01*
X007979Y006331D01*
X008091Y006443D01*
X008152Y006590D01*
X008152Y007270D01*
X008091Y007417D01*
X007979Y007529D01*
X007832Y007590D01*
X007672Y007590D01*
X007525Y007529D01*
X007413Y007417D01*
X007352Y007270D01*
X007352Y006590D01*
X007413Y006443D01*
X007525Y006331D01*
X007381Y006520D02*
X007123Y006520D01*
X007152Y006679D02*
X007352Y006679D01*
X007352Y006837D02*
X007152Y006837D01*
X007152Y006996D02*
X007352Y006996D01*
X007352Y007154D02*
X007152Y007154D01*
X007134Y007313D02*
X007370Y007313D01*
X007467Y007471D02*
X007037Y007471D01*
X008037Y007471D02*
X008467Y007471D01*
X008370Y007313D02*
X008134Y007313D01*
X008152Y007154D02*
X008352Y007154D01*
X008352Y006996D02*
X008152Y006996D01*
X008152Y006837D02*
X008352Y006837D01*
X008352Y006679D02*
X008152Y006679D01*
X008123Y006520D02*
X008381Y006520D01*
X008082Y006362D02*
X008009Y006362D01*
X008793Y006203D02*
X008924Y006203D01*
X009009Y006362D02*
X009082Y006362D01*
X009123Y006520D02*
X009381Y006520D01*
X009352Y006679D02*
X009152Y006679D01*
X009152Y006837D02*
X009352Y006837D01*
X009352Y006996D02*
X009152Y006996D01*
X009152Y007154D02*
X009352Y007154D01*
X009370Y007313D02*
X009134Y007313D01*
X009037Y007471D02*
X009467Y007471D01*
X010037Y007471D02*
X010439Y007471D01*
X010396Y007428D02*
X010514Y007546D01*
X010668Y007610D01*
X010836Y007610D01*
X010990Y007546D01*
X011108Y007428D01*
X011172Y007274D01*
X011172Y006586D01*
X011108Y006432D01*
X010990Y006314D01*
X010836Y006250D01*
X010668Y006250D01*
X010514Y006314D01*
X010396Y006432D01*
X010332Y006586D01*
X010332Y007274D01*
X010396Y007428D01*
X010348Y007313D02*
X010134Y007313D01*
X010152Y007154D02*
X010332Y007154D01*
X010332Y006996D02*
X010152Y006996D01*
X010152Y006837D02*
X010332Y006837D01*
X010332Y006679D02*
X010152Y006679D01*
X010123Y006520D02*
X010360Y006520D01*
X010467Y006362D02*
X010009Y006362D01*
X009793Y006203D02*
X019685Y006203D01*
X019685Y006045D02*
X009923Y006045D01*
X009923Y005886D02*
X019685Y005886D01*
X019685Y005728D02*
X009923Y005728D01*
X009888Y005569D02*
X019685Y005569D01*
X019685Y005411D02*
X009729Y005411D01*
X008987Y005411D02*
X008729Y005411D01*
X011037Y006362D02*
X011438Y006362D01*
X011416Y006383D02*
X011465Y006334D01*
X011521Y006294D01*
X011583Y006262D01*
X011649Y006241D01*
X011717Y006230D01*
X011752Y006230D01*
X011752Y006930D01*
X011752Y006930D01*
X011312Y006930D01*
X011312Y007225D01*
X011323Y007293D01*
X011344Y007359D01*
X011376Y007421D01*
X011416Y007477D01*
X011465Y007526D01*
X011521Y007566D01*
X011583Y007598D01*
X011649Y007619D01*
X011717Y007630D01*
X011752Y007630D01*
X011752Y006930D01*
X011312Y006930D01*
X011312Y006635D01*
X011323Y006567D01*
X011344Y006501D01*
X011376Y006439D01*
X011416Y006383D01*
X011338Y006520D02*
X011144Y006520D01*
X011172Y006679D02*
X011312Y006679D01*
X011312Y006837D02*
X011172Y006837D01*
X011172Y006996D02*
X011312Y006996D01*
X011312Y007154D02*
X011172Y007154D01*
X011156Y007313D02*
X011329Y007313D01*
X011412Y007471D02*
X011065Y007471D01*
X011714Y007630D02*
X004593Y007630D01*
X004510Y007788D02*
X019685Y007788D01*
X019685Y007630D02*
X011790Y007630D01*
X011787Y007630D02*
X011855Y007619D01*
X011921Y007598D01*
X011983Y007566D01*
X012039Y007526D01*
X012088Y007477D01*
X012128Y007421D01*
X012160Y007359D01*
X012181Y007293D01*
X012192Y007225D01*
X012192Y006930D01*
X011752Y006930D01*
X011752Y006930D01*
X011752Y006930D01*
X011752Y007630D01*
X011787Y007630D01*
X011752Y007630D02*
X011752Y007630D01*
X011752Y007471D02*
X011752Y007471D01*
X011752Y007313D02*
X011752Y007313D01*
X011752Y007154D02*
X011752Y007154D01*
X011752Y006996D02*
X011752Y006996D01*
X011752Y006930D02*
X011752Y006930D01*
X011752Y006230D01*
X011787Y006230D01*
X011855Y006241D01*
X011921Y006262D01*
X011983Y006294D01*
X012039Y006334D01*
X012088Y006383D01*
X012128Y006439D01*
X012160Y006501D01*
X012181Y006567D01*
X012192Y006635D01*
X012192Y006930D01*
X011752Y006930D01*
X011752Y006837D02*
X011752Y006837D01*
X011752Y006679D02*
X011752Y006679D01*
X011752Y006520D02*
X011752Y006520D01*
X011752Y006362D02*
X011752Y006362D01*
X012066Y006362D02*
X012495Y006362D01*
X012525Y006331D02*
X012672Y006270D01*
X012832Y006270D01*
X012979Y006331D01*
X013091Y006443D01*
X013152Y006590D01*
X013152Y007270D01*
X013091Y007417D01*
X012979Y007529D01*
X012832Y007590D01*
X012672Y007590D01*
X012525Y007529D01*
X012413Y007417D01*
X012352Y007270D01*
X012352Y006590D01*
X012413Y006443D01*
X012525Y006331D01*
X012381Y006520D02*
X012166Y006520D01*
X012192Y006679D02*
X012352Y006679D01*
X012352Y006837D02*
X012192Y006837D01*
X012192Y006996D02*
X012352Y006996D01*
X012352Y007154D02*
X012192Y007154D01*
X012175Y007313D02*
X012370Y007313D01*
X012467Y007471D02*
X012092Y007471D01*
X012995Y008086D02*
X013068Y008013D01*
X013164Y007973D01*
X013267Y007973D01*
X013363Y008013D01*
X013384Y008034D01*
X013660Y008036D01*
X013679Y008016D01*
X013775Y007977D01*
X013878Y007977D01*
X013974Y008016D01*
X014047Y008089D01*
X014087Y008185D01*
X014087Y008288D01*
X014047Y008384D01*
X013974Y008457D01*
X013878Y008497D01*
X013775Y008497D01*
X013679Y008457D01*
X013658Y008436D01*
X013382Y008434D01*
X013363Y008453D01*
X013267Y008493D01*
X013164Y008493D01*
X013068Y008453D01*
X012995Y008380D01*
X012956Y008285D01*
X012956Y008181D01*
X012995Y008086D01*
X012987Y008105D02*
X004569Y008105D01*
X004549Y007947D02*
X019685Y007947D01*
X019685Y008105D02*
X014053Y008105D01*
X014087Y008264D02*
X019685Y008264D01*
X019685Y008422D02*
X014009Y008422D01*
X013832Y007590D02*
X013672Y007590D01*
X013525Y007529D01*
X013413Y007417D01*
X013352Y007270D01*
X013352Y006590D01*
X013413Y006443D01*
X013525Y006331D01*
X013672Y006270D01*
X013832Y006270D01*
X013979Y006331D01*
X014091Y006443D01*
X014152Y006590D01*
X014152Y007270D01*
X014091Y007417D01*
X013979Y007529D01*
X013832Y007590D01*
X014037Y007471D02*
X014467Y007471D01*
X014413Y007417D02*
X014525Y007529D01*
X014672Y007590D01*
X014832Y007590D01*
X014979Y007529D01*
X015091Y007417D01*
X015152Y007270D01*
X015152Y006590D01*
X015091Y006443D01*
X014979Y006331D01*
X014832Y006270D01*
X014672Y006270D01*
X014525Y006331D01*
X014413Y006443D01*
X014352Y006590D01*
X014352Y007270D01*
X014413Y007417D01*
X014370Y007313D02*
X014134Y007313D01*
X014152Y007154D02*
X014352Y007154D01*
X014352Y006996D02*
X014152Y006996D01*
X014152Y006837D02*
X014352Y006837D01*
X014352Y006679D02*
X014152Y006679D01*
X014123Y006520D02*
X014381Y006520D01*
X014495Y006362D02*
X014009Y006362D01*
X013495Y006362D02*
X013009Y006362D01*
X013123Y006520D02*
X013381Y006520D01*
X013352Y006679D02*
X013152Y006679D01*
X013152Y006837D02*
X013352Y006837D01*
X013352Y006996D02*
X013152Y006996D01*
X013152Y007154D02*
X013352Y007154D01*
X013370Y007313D02*
X013134Y007313D01*
X013037Y007471D02*
X013467Y007471D01*
X012956Y008264D02*
X004464Y008264D01*
X004156Y008264D02*
X001845Y008264D01*
X001853Y008255D02*
X001729Y008379D01*
X001568Y008446D01*
X000793Y008446D01*
X000631Y008379D01*
X000507Y008255D01*
X000440Y008093D01*
X000440Y007918D01*
X000507Y007757D01*
X000631Y007633D01*
X000793Y007566D01*
X001568Y007566D01*
X001729Y007633D01*
X001853Y007757D01*
X001920Y007918D01*
X001920Y008093D01*
X001853Y008255D01*
X001915Y008105D02*
X004052Y008105D01*
X004072Y007947D02*
X001920Y007947D01*
X001866Y007788D02*
X004110Y007788D01*
X004110Y007630D02*
X001722Y007630D01*
X001664Y007451D02*
X001593Y007474D01*
X001518Y007486D01*
X001200Y007486D01*
X001200Y007026D01*
X001160Y007026D01*
X001160Y007486D01*
X000842Y007486D01*
X000768Y007474D01*
X000696Y007451D01*
X000629Y007416D01*
X000567Y007372D01*
X000514Y007318D01*
X000470Y007257D01*
X000435Y007190D01*
X000412Y007118D01*
X000400Y007044D01*
X000400Y007026D01*
X001160Y007026D01*
X001160Y006986D01*
X000400Y006986D01*
X000400Y006968D01*
X000412Y006893D01*
X000435Y006822D01*
X000470Y006754D01*
X000514Y006693D01*
X000567Y006640D01*
X000629Y006595D01*
X000696Y006561D01*
X000768Y006538D01*
X000842Y006526D01*
X001160Y006526D01*
X001160Y006986D01*
X001200Y006986D01*
X001200Y007026D01*
X001960Y007026D01*
X001960Y007044D01*
X001948Y007118D01*
X001925Y007190D01*
X001891Y007257D01*
X001846Y007318D01*
X001793Y007372D01*
X001732Y007416D01*
X001664Y007451D01*
X001602Y007471D02*
X004186Y007471D01*
X004345Y007313D02*
X001851Y007313D01*
X001937Y007154D02*
X004352Y007154D01*
X004352Y006996D02*
X001200Y006996D01*
X001200Y006986D02*
X001960Y006986D01*
X001960Y006968D01*
X001948Y006893D01*
X001925Y006822D01*
X001891Y006754D01*
X001846Y006693D01*
X001793Y006640D01*
X001732Y006595D01*
X001664Y006561D01*
X001593Y006538D01*
X001518Y006526D01*
X001200Y006526D01*
X001200Y006986D01*
X001160Y006996D02*
X000360Y006996D01*
X000360Y007154D02*
X000424Y007154D01*
X000360Y007313D02*
X000510Y007313D01*
X000360Y007471D02*
X000759Y007471D01*
X000639Y007630D02*
X000360Y007630D01*
X000360Y007788D02*
X000494Y007788D01*
X000440Y007947D02*
X000360Y007947D01*
X000360Y008105D02*
X000445Y008105D01*
X000516Y008264D02*
X000360Y008264D01*
X000360Y008422D02*
X000735Y008422D01*
X000793Y008566D02*
X000631Y008633D01*
X000507Y008757D01*
X000440Y008918D01*
X000440Y009093D01*
X000507Y009255D01*
X000631Y009379D01*
X000793Y009446D01*
X001568Y009446D01*
X001729Y009379D01*
X001853Y009255D01*
X001876Y009200D01*
X002123Y009200D01*
X002240Y009083D01*
X002323Y009000D01*
X002352Y009000D01*
X002447Y008960D01*
X002521Y008887D01*
X002560Y008792D01*
X002560Y008688D01*
X002521Y008593D01*
X002447Y008520D01*
X002352Y008480D01*
X002248Y008480D01*
X002153Y008520D01*
X002080Y008593D01*
X002040Y008688D01*
X002040Y008717D01*
X001957Y008800D01*
X001871Y008800D01*
X001853Y008757D01*
X001729Y008633D01*
X001568Y008566D01*
X000793Y008566D01*
X000757Y008581D02*
X000360Y008581D01*
X000360Y008739D02*
X000525Y008739D01*
X000449Y008898D02*
X000360Y008898D01*
X000360Y009056D02*
X000440Y009056D01*
X000490Y009215D02*
X000360Y009215D01*
X000360Y009373D02*
X000625Y009373D01*
X000793Y009566D02*
X000631Y009633D01*
X000507Y009757D01*
X000440Y009918D01*
X000440Y010093D01*
X000507Y010255D01*
X000631Y010379D01*
X000793Y010446D01*
X001568Y010446D01*
X001729Y010379D01*
X001853Y010255D01*
X001876Y010200D01*
X002023Y010200D01*
X002140Y010083D01*
X002140Y010083D01*
X002323Y009900D01*
X002352Y009900D01*
X002447Y009860D01*
X002521Y009787D01*
X002560Y009692D01*
X002560Y009588D01*
X002521Y009493D01*
X002447Y009420D01*
X002352Y009380D01*
X002248Y009380D01*
X002153Y009420D01*
X002080Y009493D01*
X002040Y009588D01*
X002040Y009617D01*
X001867Y009790D01*
X001853Y009757D01*
X001729Y009633D01*
X001568Y009566D01*
X000793Y009566D01*
X000574Y009690D02*
X000360Y009690D01*
X000360Y009532D02*
X002064Y009532D01*
X001967Y009690D02*
X001787Y009690D01*
X001735Y009373D02*
X004483Y009373D01*
X004525Y009331D02*
X004672Y009270D01*
X004832Y009270D01*
X004979Y009331D01*
X005091Y009443D01*
X005152Y009590D01*
X005152Y010270D01*
X005091Y010417D01*
X004979Y010529D01*
X004832Y010590D01*
X004672Y010590D01*
X004525Y010529D01*
X004413Y010417D01*
X004352Y010270D01*
X004352Y009590D01*
X004413Y009443D01*
X004525Y009331D01*
X004376Y009532D02*
X002537Y009532D01*
X002560Y009690D02*
X004352Y009690D01*
X004352Y009849D02*
X002459Y009849D01*
X002216Y010007D02*
X004352Y010007D01*
X004352Y010166D02*
X002057Y010166D01*
X002203Y010300D02*
X002298Y010260D01*
X002402Y010260D01*
X002497Y010300D01*
X002571Y010373D01*
X002610Y010468D01*
X002610Y010572D01*
X002571Y010667D01*
X002497Y010740D01*
X002402Y010780D01*
X002298Y010780D01*
X002203Y010740D01*
X002182Y010720D01*
X002023Y010720D01*
X001892Y010851D01*
X001920Y010918D01*
X001920Y011093D01*
X001853Y011255D01*
X001729Y011379D01*
X001568Y011446D01*
X000793Y011446D01*
X000631Y011379D01*
X000507Y011255D01*
X000440Y011093D01*
X000440Y010918D01*
X000507Y010757D01*
X000631Y010633D01*
X000793Y010566D01*
X001568Y010566D01*
X001599Y010579D01*
X001857Y010320D01*
X002182Y010320D01*
X002203Y010300D01*
X001853Y010324D02*
X001784Y010324D01*
X001695Y010483D02*
X000360Y010483D01*
X000360Y010641D02*
X000623Y010641D01*
X000489Y010800D02*
X000360Y010800D01*
X000360Y010958D02*
X000440Y010958D01*
X000450Y011117D02*
X000360Y011117D01*
X000360Y011275D02*
X000527Y011275D01*
X000360Y011434D02*
X000763Y011434D01*
X000360Y011592D02*
X012783Y011592D01*
X012780Y011598D02*
X012820Y011503D01*
X012893Y011430D01*
X012988Y011390D01*
X013017Y011390D01*
X013180Y011227D01*
X013180Y011198D01*
X013220Y011103D01*
X013293Y011030D01*
X013388Y010990D01*
X013492Y010990D01*
X013550Y011014D01*
X013550Y010539D01*
X013525Y010529D01*
X013413Y010417D01*
X013352Y010270D01*
X013352Y009590D01*
X013413Y009443D01*
X013525Y009331D01*
X013672Y009270D01*
X013832Y009270D01*
X013979Y009331D01*
X014091Y009443D01*
X014152Y009590D01*
X014152Y010270D01*
X014091Y010417D01*
X013979Y010529D01*
X013950Y010541D01*
X013950Y011362D01*
X014013Y011300D01*
X014108Y011260D01*
X014212Y011260D01*
X014307Y011300D01*
X014381Y011373D01*
X014420Y011468D01*
X014420Y011572D01*
X014381Y011667D01*
X014307Y011740D01*
X014212Y011780D01*
X014183Y011780D01*
X013270Y012693D01*
X013270Y012722D01*
X013231Y012817D01*
X013157Y012890D01*
X013062Y012930D01*
X012958Y012930D01*
X012863Y012890D01*
X012790Y012817D01*
X012750Y012722D01*
X012750Y012618D01*
X012790Y012523D01*
X012863Y012450D01*
X012958Y012410D01*
X012987Y012410D01*
X013257Y012140D01*
X013218Y012140D01*
X013123Y012100D01*
X013050Y012027D01*
X013010Y011932D01*
X013010Y011910D01*
X012988Y011910D01*
X012893Y011870D01*
X012820Y011797D01*
X012780Y011702D01*
X012780Y011598D01*
X012800Y011751D02*
X004665Y011751D01*
X004677Y011763D02*
X004723Y011873D01*
X004723Y011992D01*
X004677Y012103D01*
X004593Y012187D01*
X004483Y012233D01*
X004363Y012233D01*
X004253Y012187D01*
X004239Y012173D01*
X003557Y012173D01*
X003543Y012187D01*
X003433Y012233D01*
X003313Y012233D01*
X003203Y012187D01*
X003119Y012103D01*
X003073Y011992D01*
X003073Y011873D01*
X003119Y011763D01*
X003203Y011678D01*
X003313Y011633D01*
X003433Y011633D01*
X003543Y011678D01*
X003557Y011693D01*
X004239Y011693D01*
X004253Y011678D01*
X004363Y011633D01*
X004483Y011633D01*
X004593Y011678D01*
X004677Y011763D01*
X004723Y011909D02*
X012986Y011909D01*
X013090Y012068D02*
X004692Y012068D01*
X004499Y012226D02*
X007075Y012226D01*
X007051Y012236D02*
X007213Y012169D01*
X007948Y012169D01*
X008109Y012236D01*
X008233Y012360D01*
X008300Y012522D01*
X008300Y012697D01*
X008293Y012713D01*
X008674Y013094D01*
X008676Y013100D01*
X008708Y013131D01*
X008750Y013234D01*
X008750Y013346D01*
X008708Y013449D01*
X008629Y013527D01*
X008526Y013570D01*
X008414Y013570D01*
X008312Y013527D01*
X008296Y013512D01*
X008300Y013522D01*
X008300Y013697D01*
X008233Y013858D01*
X008109Y013982D01*
X007948Y014049D01*
X007213Y014049D01*
X007051Y013982D01*
X006927Y013858D01*
X006860Y013697D01*
X006860Y013522D01*
X006927Y013360D01*
X007051Y013236D01*
X007213Y013169D01*
X007948Y013169D01*
X008109Y013236D01*
X008190Y013317D01*
X008190Y013289D01*
X007949Y013048D01*
X007948Y013049D01*
X007213Y013049D01*
X007051Y012982D01*
X006927Y012858D01*
X006860Y012697D01*
X006860Y012522D01*
X006927Y012360D01*
X007051Y012236D01*
X006917Y012385D02*
X000360Y012385D01*
X000360Y012543D02*
X002675Y012543D01*
X002630Y012561D02*
X002733Y012519D01*
X002845Y012519D01*
X002948Y012561D01*
X003026Y012640D01*
X003066Y012737D01*
X003352Y013023D01*
X003449Y013063D01*
X003528Y013141D01*
X003570Y013244D01*
X003570Y013356D01*
X003528Y013459D01*
X003449Y013537D01*
X003346Y013580D01*
X003234Y013580D01*
X003132Y013537D01*
X003053Y013459D01*
X003013Y013362D01*
X002727Y013076D01*
X002630Y013036D01*
X002552Y012957D01*
X002509Y012854D01*
X002509Y012743D01*
X002552Y012640D01*
X002630Y012561D01*
X002526Y012702D02*
X000360Y012702D01*
X000360Y012860D02*
X002511Y012860D01*
X002613Y013019D02*
X000360Y013019D01*
X000360Y013177D02*
X002828Y013177D01*
X002986Y013336D02*
X000360Y013336D01*
X000360Y013494D02*
X003088Y013494D01*
X003290Y013300D02*
X002789Y012799D01*
X002903Y012543D02*
X006860Y012543D01*
X006862Y012702D02*
X003052Y012702D01*
X003190Y012860D02*
X006929Y012860D01*
X007139Y013019D02*
X003348Y013019D01*
X003542Y013177D02*
X005906Y013177D01*
X005910Y013167D02*
X005983Y013094D01*
X006079Y013055D01*
X006182Y013055D01*
X006278Y013094D01*
X006351Y013167D01*
X006391Y013263D01*
X006391Y013366D01*
X006351Y013462D01*
X006331Y013482D01*
X006331Y013707D01*
X006351Y013727D01*
X006391Y013823D01*
X006391Y013926D01*
X006351Y014022D01*
X006278Y014095D01*
X006182Y014135D01*
X006079Y014135D01*
X005983Y014095D01*
X005910Y014022D01*
X005871Y013926D01*
X005871Y013823D01*
X005910Y013727D01*
X005931Y013707D01*
X005931Y013482D01*
X005910Y013462D01*
X005871Y013366D01*
X005871Y013263D01*
X005910Y013167D01*
X005871Y013336D02*
X005405Y013336D01*
X005409Y013337D02*
X005488Y013416D01*
X005531Y013519D01*
X005531Y013630D01*
X005488Y013733D01*
X005409Y013812D01*
X005307Y013855D01*
X005195Y013855D01*
X005099Y013815D01*
X005022Y013815D01*
X004926Y013855D01*
X004814Y013855D01*
X004712Y013812D01*
X004633Y013733D01*
X004590Y013630D01*
X004590Y013519D01*
X004633Y013416D01*
X004712Y013337D01*
X004814Y013295D01*
X004926Y013295D01*
X005022Y013335D01*
X005099Y013335D01*
X005195Y013295D01*
X005307Y013295D01*
X005409Y013337D01*
X005521Y013494D02*
X005931Y013494D01*
X005931Y013653D02*
X005522Y013653D01*
X005410Y013811D02*
X005876Y013811D01*
X005889Y013970D02*
X000360Y013970D01*
X000360Y014128D02*
X006063Y014128D01*
X006198Y014128D02*
X015494Y014128D01*
X015470Y014153D02*
X015543Y014080D01*
X015638Y014040D01*
X015667Y014040D01*
X015830Y013877D01*
X015830Y013848D01*
X015870Y013753D01*
X015943Y013680D01*
X016038Y013640D01*
X016142Y013640D01*
X016237Y013680D01*
X016311Y013753D01*
X016350Y013848D01*
X016350Y013952D01*
X016311Y014047D01*
X016237Y014120D01*
X016142Y014160D01*
X016113Y014160D01*
X015950Y014323D01*
X015950Y014352D01*
X015911Y014447D01*
X015837Y014520D01*
X015742Y014560D01*
X015638Y014560D01*
X015543Y014520D01*
X015470Y014447D01*
X015430Y014352D01*
X015430Y014248D01*
X015470Y014153D01*
X015430Y014287D02*
X010021Y014287D01*
X009998Y014263D02*
X010083Y014348D01*
X010128Y014458D01*
X010128Y014577D01*
X010083Y014688D01*
X009998Y014772D01*
X009955Y014790D01*
X009700Y015268D01*
X009700Y015380D01*
X009654Y015490D01*
X009570Y015574D01*
X009460Y015620D01*
X009340Y015620D01*
X009230Y015574D01*
X009146Y015490D01*
X009100Y015380D01*
X009100Y015260D01*
X009146Y015150D01*
X009230Y015066D01*
X009273Y015048D01*
X009528Y014570D01*
X009528Y014458D01*
X009574Y014348D01*
X009658Y014263D01*
X009769Y014218D01*
X009888Y014218D01*
X009998Y014263D01*
X010123Y014445D02*
X015469Y014445D01*
X015912Y014445D02*
X016202Y014445D01*
X016127Y014520D02*
X016300Y014347D01*
X016300Y014318D01*
X016340Y014223D01*
X016413Y014150D01*
X016508Y014110D01*
X016612Y014110D01*
X016707Y014150D01*
X016781Y014223D01*
X016820Y014318D01*
X016820Y014422D01*
X016781Y014517D01*
X016707Y014590D01*
X016612Y014630D01*
X016583Y014630D01*
X016410Y014803D01*
X016410Y014832D01*
X016371Y014927D01*
X016297Y015000D01*
X016202Y015040D01*
X016098Y015040D01*
X016003Y015000D01*
X015930Y014927D01*
X015890Y014832D01*
X015890Y014728D01*
X015930Y014633D01*
X016003Y014560D01*
X016098Y014520D01*
X016127Y014520D01*
X015959Y014604D02*
X010117Y014604D01*
X010008Y014762D02*
X015890Y014762D01*
X015927Y014921D02*
X009885Y014921D01*
X009801Y015079D02*
X019196Y015079D01*
X019196Y014921D02*
X016373Y014921D01*
X016451Y014762D02*
X019196Y014762D01*
X019196Y014604D02*
X016676Y014604D01*
X016811Y014445D02*
X019196Y014445D01*
X019196Y014287D02*
X016807Y014287D01*
X016655Y014128D02*
X019196Y014128D01*
X019196Y013970D02*
X016343Y013970D01*
X016335Y013811D02*
X019158Y013811D01*
X019176Y013853D02*
X019136Y013757D01*
X019136Y013654D01*
X019176Y013558D01*
X019249Y013485D01*
X019345Y013446D01*
X019448Y013446D01*
X019544Y013485D01*
X019617Y013558D01*
X019656Y013654D01*
X019656Y013757D01*
X019617Y013853D01*
X019596Y013873D01*
X019596Y017058D01*
X019617Y017078D01*
X019656Y017174D01*
X019656Y017277D01*
X019617Y017373D01*
X019544Y017446D01*
X019448Y017486D01*
X019345Y017486D01*
X019249Y017446D01*
X019176Y017373D01*
X019136Y017277D01*
X019136Y017174D01*
X019176Y017078D01*
X019196Y017058D01*
X019196Y013873D01*
X019176Y013853D01*
X019137Y013653D02*
X016172Y013653D01*
X016008Y013653D02*
X008300Y013653D01*
X008253Y013811D02*
X015846Y013811D01*
X015738Y013970D02*
X008122Y013970D01*
X008662Y013494D02*
X019240Y013494D01*
X019552Y013494D02*
X019685Y013494D01*
X019685Y013336D02*
X008750Y013336D01*
X008726Y013177D02*
X019685Y013177D01*
X019685Y013019D02*
X008598Y013019D01*
X008440Y012860D02*
X012832Y012860D01*
X012750Y012702D02*
X008298Y012702D01*
X008300Y012543D02*
X012781Y012543D01*
X013013Y012385D02*
X008243Y012385D01*
X008085Y012226D02*
X013171Y012226D01*
X013420Y012543D02*
X013929Y012543D01*
X013963Y012510D02*
X014058Y012470D01*
X014087Y012470D01*
X014270Y012287D01*
X014270Y012258D01*
X014310Y012163D01*
X014383Y012090D01*
X014478Y012050D01*
X014582Y012050D01*
X014677Y012090D01*
X014751Y012163D01*
X014790Y012258D01*
X014790Y012362D01*
X014751Y012457D01*
X014677Y012530D01*
X014582Y012570D01*
X014553Y012570D01*
X014370Y012753D01*
X014370Y012782D01*
X014331Y012877D01*
X014257Y012950D01*
X014162Y012990D01*
X014058Y012990D01*
X013963Y012950D01*
X013890Y012877D01*
X013850Y012782D01*
X013850Y012678D01*
X013890Y012583D01*
X013963Y012510D01*
X013850Y012702D02*
X013270Y012702D01*
X013188Y012860D02*
X013883Y012860D01*
X014338Y012860D02*
X019685Y012860D01*
X019685Y012702D02*
X014421Y012702D01*
X014647Y012543D02*
X019685Y012543D01*
X019685Y012385D02*
X014781Y012385D01*
X014777Y012226D02*
X019685Y012226D01*
X019685Y012068D02*
X014624Y012068D01*
X014436Y012068D02*
X013895Y012068D01*
X013737Y012226D02*
X014284Y012226D01*
X014173Y012385D02*
X013578Y012385D01*
X014054Y011909D02*
X019685Y011909D01*
X019685Y011751D02*
X014283Y011751D01*
X014412Y011592D02*
X019685Y011592D01*
X019685Y011434D02*
X014406Y011434D01*
X014248Y011275D02*
X019685Y011275D01*
X019685Y011117D02*
X013950Y011117D01*
X013950Y011275D02*
X014072Y011275D01*
X013950Y010958D02*
X019685Y010958D01*
X019685Y010800D02*
X013950Y010800D01*
X013950Y010641D02*
X019685Y010641D01*
X019685Y010483D02*
X018025Y010483D01*
X017979Y010529D02*
X017832Y010590D01*
X017672Y010590D01*
X017525Y010529D01*
X017413Y010417D01*
X017352Y010270D01*
X017352Y009590D01*
X017413Y009443D01*
X017525Y009331D01*
X017672Y009270D01*
X017832Y009270D01*
X017979Y009331D01*
X018091Y009443D01*
X018152Y009590D01*
X018152Y010270D01*
X018091Y010417D01*
X017979Y010529D01*
X018129Y010324D02*
X019685Y010324D01*
X019685Y010166D02*
X018152Y010166D01*
X018152Y010007D02*
X019685Y010007D01*
X019685Y009849D02*
X018152Y009849D01*
X018152Y009690D02*
X019685Y009690D01*
X019685Y009532D02*
X018128Y009532D01*
X018021Y009373D02*
X019685Y009373D01*
X019685Y009215D02*
X001870Y009215D01*
X002267Y009056D02*
X019685Y009056D01*
X019685Y008898D02*
X002510Y008898D01*
X002560Y008739D02*
X019685Y008739D01*
X019685Y008581D02*
X002508Y008581D01*
X002092Y008581D02*
X001603Y008581D01*
X001625Y008422D02*
X013037Y008422D01*
X012836Y009250D02*
X012668Y009250D01*
X012514Y009314D01*
X012396Y009432D01*
X012332Y009586D01*
X012332Y010274D01*
X012396Y010428D01*
X012514Y010546D01*
X012668Y010610D01*
X012836Y010610D01*
X012990Y010546D01*
X013108Y010428D01*
X013172Y010274D01*
X013172Y009586D01*
X013108Y009432D01*
X012990Y009314D01*
X012836Y009250D01*
X013049Y009373D02*
X013483Y009373D01*
X013376Y009532D02*
X013149Y009532D01*
X013172Y009690D02*
X013352Y009690D01*
X013352Y009849D02*
X013172Y009849D01*
X013172Y010007D02*
X013352Y010007D01*
X013352Y010166D02*
X013172Y010166D01*
X013151Y010324D02*
X013375Y010324D01*
X013479Y010483D02*
X013053Y010483D01*
X012900Y010796D02*
X012984Y010880D01*
X013030Y010990D01*
X013030Y011110D01*
X012984Y011220D01*
X012900Y011304D01*
X012790Y011350D01*
X012670Y011350D01*
X012560Y011304D01*
X012546Y011290D01*
X011804Y011290D01*
X011790Y011304D01*
X011680Y011350D01*
X011560Y011350D01*
X011450Y011304D01*
X011366Y011220D01*
X011320Y011110D01*
X011320Y010990D01*
X011366Y010880D01*
X011450Y010796D01*
X011560Y010750D01*
X011680Y010750D01*
X011790Y010796D01*
X011804Y010810D01*
X012546Y010810D01*
X012560Y010796D01*
X012670Y010750D01*
X012790Y010750D01*
X012900Y010796D01*
X012904Y010800D02*
X013550Y010800D01*
X013550Y010958D02*
X013017Y010958D01*
X013027Y011117D02*
X013214Y011117D01*
X013132Y011275D02*
X012929Y011275D01*
X012889Y011434D02*
X010143Y011434D01*
X010051Y011526D02*
X009583Y011526D01*
X009317Y011260D01*
X009051Y011526D01*
X008583Y011526D01*
X008317Y011260D01*
X008051Y011526D01*
X007583Y011526D01*
X007317Y011259D01*
X007050Y011526D01*
X006582Y011526D01*
X006306Y011250D01*
X006030Y011526D01*
X005562Y011526D01*
X005231Y011195D01*
X005231Y010726D01*
X005477Y010481D01*
X005413Y010417D01*
X005352Y010270D01*
X005352Y009590D01*
X005413Y009443D01*
X005525Y009331D01*
X005672Y009270D01*
X005832Y009270D01*
X005979Y009331D01*
X006091Y009443D01*
X006152Y009590D01*
X006152Y010270D01*
X006091Y010417D01*
X006071Y010437D01*
X006306Y010672D01*
X006487Y010491D01*
X006413Y010417D01*
X006352Y010270D01*
X006352Y009590D01*
X006413Y009443D01*
X006525Y009331D01*
X006672Y009270D01*
X006832Y009270D01*
X006979Y009331D01*
X007091Y009443D01*
X007152Y009590D01*
X007152Y010270D01*
X007091Y010417D01*
X007081Y010427D01*
X007317Y010662D01*
X007487Y010491D01*
X007413Y010417D01*
X007352Y010270D01*
X007352Y009590D01*
X007413Y009443D01*
X007525Y009331D01*
X007672Y009270D01*
X007832Y009270D01*
X007979Y009331D01*
X008091Y009443D01*
X008152Y009590D01*
X008152Y010270D01*
X008091Y010417D01*
X008082Y010426D01*
X008317Y010661D01*
X008487Y010491D01*
X008413Y010417D01*
X008352Y010270D01*
X008352Y009590D01*
X008413Y009443D01*
X008525Y009331D01*
X008672Y009270D01*
X008832Y009270D01*
X008979Y009331D01*
X009091Y009443D01*
X009152Y009590D01*
X009152Y010270D01*
X009091Y010417D01*
X009082Y010426D01*
X009317Y010661D01*
X009487Y010491D01*
X009413Y010417D01*
X009352Y010270D01*
X009352Y009590D01*
X009413Y009443D01*
X009525Y009331D01*
X009672Y009270D01*
X009832Y009270D01*
X009979Y009331D01*
X010091Y009443D01*
X010152Y009590D01*
X010152Y010270D01*
X010091Y010417D01*
X010082Y010426D01*
X010382Y010726D01*
X010382Y011195D01*
X010051Y011526D01*
X010301Y011275D02*
X011421Y011275D01*
X011323Y011117D02*
X010382Y011117D01*
X010382Y010958D02*
X011334Y010958D01*
X011446Y010800D02*
X010382Y010800D01*
X010297Y010641D02*
X013550Y010641D01*
X014025Y010483D02*
X014479Y010483D01*
X014525Y010529D02*
X014413Y010417D01*
X014352Y010270D01*
X014352Y009590D01*
X014413Y009443D01*
X014525Y009331D01*
X014672Y009270D01*
X014832Y009270D01*
X014979Y009331D01*
X015091Y009443D01*
X015152Y009590D01*
X015152Y010270D01*
X015091Y010417D01*
X014979Y010529D01*
X014832Y010590D01*
X014672Y010590D01*
X014525Y010529D01*
X014375Y010324D02*
X014129Y010324D01*
X014152Y010166D02*
X014352Y010166D01*
X014352Y010007D02*
X014152Y010007D01*
X014152Y009849D02*
X014352Y009849D01*
X014352Y009690D02*
X014152Y009690D01*
X014128Y009532D02*
X014376Y009532D01*
X014483Y009373D02*
X014021Y009373D01*
X015021Y009373D02*
X015483Y009373D01*
X015525Y009331D02*
X015672Y009270D01*
X015832Y009270D01*
X015979Y009331D01*
X016091Y009443D01*
X016152Y009590D01*
X016152Y010270D01*
X016091Y010417D01*
X015979Y010529D01*
X015832Y010590D01*
X015672Y010590D01*
X015525Y010529D01*
X015413Y010417D01*
X015352Y010270D01*
X015352Y009590D01*
X015413Y009443D01*
X015525Y009331D01*
X015376Y009532D02*
X015128Y009532D01*
X015152Y009690D02*
X015352Y009690D01*
X015352Y009849D02*
X015152Y009849D01*
X015152Y010007D02*
X015352Y010007D01*
X015352Y010166D02*
X015152Y010166D01*
X015129Y010324D02*
X015375Y010324D01*
X015479Y010483D02*
X015025Y010483D01*
X016025Y010483D02*
X016479Y010483D01*
X016525Y010529D02*
X016413Y010417D01*
X016352Y010270D01*
X016352Y009590D01*
X016413Y009443D01*
X016525Y009331D01*
X016672Y009270D01*
X016832Y009270D01*
X016979Y009331D01*
X017091Y009443D01*
X017152Y009590D01*
X017152Y010270D01*
X017091Y010417D01*
X016979Y010529D01*
X016832Y010590D01*
X016672Y010590D01*
X016525Y010529D01*
X016375Y010324D02*
X016129Y010324D01*
X016152Y010166D02*
X016352Y010166D01*
X016352Y010007D02*
X016152Y010007D01*
X016152Y009849D02*
X016352Y009849D01*
X016352Y009690D02*
X016152Y009690D01*
X016128Y009532D02*
X016376Y009532D01*
X016483Y009373D02*
X016021Y009373D01*
X017021Y009373D02*
X017483Y009373D01*
X017376Y009532D02*
X017128Y009532D01*
X017152Y009690D02*
X017352Y009690D01*
X017352Y009849D02*
X017152Y009849D01*
X017152Y010007D02*
X017352Y010007D01*
X017352Y010166D02*
X017152Y010166D01*
X017129Y010324D02*
X017375Y010324D01*
X017479Y010483D02*
X017025Y010483D01*
X016836Y007610D02*
X016668Y007610D01*
X016514Y007546D01*
X016396Y007428D01*
X016332Y007274D01*
X016332Y006586D01*
X016396Y006432D01*
X016514Y006314D01*
X016668Y006250D01*
X016836Y006250D01*
X016990Y006314D01*
X017108Y006432D01*
X017172Y006586D01*
X017172Y007274D01*
X017108Y007428D01*
X016990Y007546D01*
X016836Y007610D01*
X016439Y007471D02*
X016037Y007471D01*
X016091Y007417D02*
X015979Y007529D01*
X015832Y007590D01*
X015672Y007590D01*
X015525Y007529D01*
X015413Y007417D01*
X015352Y007270D01*
X015352Y006590D01*
X015413Y006443D01*
X015525Y006331D01*
X015672Y006270D01*
X015832Y006270D01*
X015979Y006331D01*
X016091Y006443D01*
X016152Y006590D01*
X016152Y007270D01*
X016091Y007417D01*
X016134Y007313D02*
X016348Y007313D01*
X016332Y007154D02*
X016152Y007154D01*
X016152Y006996D02*
X016332Y006996D01*
X016332Y006837D02*
X016152Y006837D01*
X016152Y006679D02*
X016332Y006679D01*
X016360Y006520D02*
X016123Y006520D01*
X016009Y006362D02*
X016467Y006362D01*
X017037Y006362D02*
X017495Y006362D01*
X017525Y006331D02*
X017672Y006270D01*
X017832Y006270D01*
X017979Y006331D01*
X018091Y006443D01*
X018152Y006590D01*
X018152Y007270D01*
X018091Y007417D01*
X017979Y007529D01*
X017832Y007590D01*
X017672Y007590D01*
X017525Y007529D01*
X017413Y007417D01*
X017352Y007270D01*
X017352Y006590D01*
X017413Y006443D01*
X017525Y006331D01*
X017381Y006520D02*
X017144Y006520D01*
X017172Y006679D02*
X017352Y006679D01*
X017352Y006837D02*
X017172Y006837D01*
X017172Y006996D02*
X017352Y006996D01*
X017352Y007154D02*
X017172Y007154D01*
X017156Y007313D02*
X017370Y007313D01*
X017467Y007471D02*
X017065Y007471D01*
X018037Y007471D02*
X019685Y007471D01*
X019685Y007313D02*
X018134Y007313D01*
X018152Y007154D02*
X019685Y007154D01*
X019685Y006996D02*
X018152Y006996D01*
X018152Y006837D02*
X019685Y006837D01*
X019685Y006679D02*
X018152Y006679D01*
X018123Y006520D02*
X019685Y006520D01*
X019685Y006362D02*
X018009Y006362D01*
X019685Y004935D02*
X001628Y004935D01*
X001470Y004777D02*
X019685Y004777D01*
X019685Y004618D02*
X001311Y004618D01*
X001220Y004460D02*
X019685Y004460D01*
X019685Y004301D02*
X001604Y004301D01*
X002019Y005252D02*
X004640Y005252D01*
X004482Y005411D02*
X002050Y005411D01*
X001969Y005569D02*
X004338Y005569D01*
X004338Y005728D02*
X001871Y005728D01*
X001946Y005886D02*
X004338Y005886D01*
X004338Y006045D02*
X001960Y006045D01*
X001960Y006044D02*
X001948Y006118D01*
X001925Y006190D01*
X001891Y006257D01*
X001846Y006318D01*
X001793Y006372D01*
X001732Y006416D01*
X001664Y006451D01*
X001593Y006474D01*
X001518Y006486D01*
X001200Y006486D01*
X001200Y006026D01*
X001160Y006026D01*
X001160Y006486D01*
X000842Y006486D01*
X000768Y006474D01*
X000696Y006451D01*
X000629Y006416D01*
X000567Y006372D01*
X000514Y006318D01*
X000470Y006257D01*
X000435Y006190D01*
X000412Y006118D01*
X000400Y006044D01*
X000400Y006026D01*
X001160Y006026D01*
X001160Y005986D01*
X000400Y005986D01*
X000400Y005968D01*
X000412Y005893D01*
X000435Y005822D01*
X000470Y005754D01*
X000514Y005693D01*
X000567Y005640D01*
X000629Y005595D01*
X000696Y005561D01*
X000768Y005538D01*
X000842Y005526D01*
X001160Y005526D01*
X001160Y005986D01*
X001200Y005986D01*
X001200Y006026D01*
X001960Y006026D01*
X001960Y006044D01*
X001918Y006203D02*
X004486Y006203D01*
X004495Y006362D02*
X001803Y006362D01*
X001832Y006679D02*
X004352Y006679D01*
X004352Y006837D02*
X001930Y006837D01*
X001200Y006837D02*
X001160Y006837D01*
X001160Y006679D02*
X001200Y006679D01*
X001200Y006362D02*
X001160Y006362D01*
X001160Y006203D02*
X001200Y006203D01*
X001200Y006045D02*
X001160Y006045D01*
X001160Y005886D02*
X001200Y005886D01*
X001200Y005728D02*
X001160Y005728D01*
X001160Y005569D02*
X001200Y005569D01*
X000680Y005569D02*
X000360Y005569D01*
X000360Y005728D02*
X000489Y005728D01*
X000414Y005886D02*
X000360Y005886D01*
X000360Y006045D02*
X000400Y006045D01*
X000360Y006203D02*
X000442Y006203D01*
X000360Y006362D02*
X000557Y006362D01*
X000360Y006520D02*
X004381Y006520D01*
X002018Y008739D02*
X001836Y008739D01*
X001200Y007471D02*
X001160Y007471D01*
X001160Y007313D02*
X001200Y007313D01*
X001200Y007154D02*
X001160Y007154D01*
X000529Y006679D02*
X000360Y006679D01*
X000360Y006837D02*
X000430Y006837D01*
X000360Y009849D02*
X000469Y009849D01*
X000440Y010007D02*
X000360Y010007D01*
X000360Y010166D02*
X000470Y010166D01*
X000576Y010324D02*
X000360Y010324D01*
X001597Y011434D02*
X005470Y011434D01*
X005312Y011275D02*
X001833Y011275D01*
X001911Y011117D02*
X005231Y011117D01*
X005231Y010958D02*
X001920Y010958D01*
X001943Y010800D02*
X005231Y010800D01*
X005317Y010641D02*
X002581Y010641D01*
X002610Y010483D02*
X004479Y010483D01*
X004375Y010324D02*
X002522Y010324D01*
X003131Y011751D02*
X000360Y011751D01*
X000360Y011909D02*
X003073Y011909D01*
X003104Y012068D02*
X000360Y012068D01*
X000360Y012226D02*
X003297Y012226D01*
X003449Y012226D02*
X004347Y012226D01*
X004423Y011933D02*
X003373Y011933D01*
X003570Y013336D02*
X004716Y013336D01*
X004600Y013494D02*
X003492Y013494D01*
X003815Y014563D02*
X003705Y014609D01*
X003620Y014693D01*
X003602Y014739D01*
X003183Y014967D01*
X003074Y014967D01*
X002964Y015013D01*
X002879Y015097D01*
X002834Y015208D01*
X002834Y015327D01*
X002879Y015437D01*
X002964Y015522D01*
X003074Y015567D01*
X003193Y015567D01*
X003304Y015522D01*
X003388Y015437D01*
X003407Y015392D01*
X003826Y015163D01*
X003934Y015163D01*
X004045Y015118D01*
X004129Y015033D01*
X004175Y014923D01*
X004175Y014804D01*
X004129Y014693D01*
X004045Y014609D01*
X003934Y014563D01*
X003815Y014563D01*
X003718Y014604D02*
X000360Y014604D01*
X000360Y014762D02*
X003559Y014762D01*
X003268Y014921D02*
X000360Y014921D01*
X000360Y015079D02*
X002898Y015079D01*
X002834Y015238D02*
X000360Y015238D01*
X000360Y015396D02*
X002862Y015396D01*
X003043Y015555D02*
X000360Y015555D01*
X000360Y015713D02*
X019196Y015713D01*
X019196Y015555D02*
X009590Y015555D01*
X009693Y015396D02*
X019196Y015396D01*
X019196Y015238D02*
X009716Y015238D01*
X009400Y015320D02*
X009828Y014518D01*
X009635Y014287D02*
X000360Y014287D01*
X000360Y014445D02*
X009534Y014445D01*
X009510Y014604D02*
X004031Y014604D01*
X004157Y014762D02*
X009426Y014762D01*
X009341Y014921D02*
X004175Y014921D01*
X004083Y015079D02*
X009217Y015079D01*
X009110Y015238D02*
X003690Y015238D01*
X003875Y014863D02*
X003134Y015267D01*
X003405Y015396D02*
X009107Y015396D01*
X009210Y015555D02*
X003224Y015555D01*
X003240Y016384D02*
X003120Y016384D01*
X003010Y016430D01*
X002926Y016515D01*
X002880Y016625D01*
X002880Y016744D01*
X002926Y016854D01*
X003010Y016939D01*
X003120Y016984D01*
X003141Y016984D01*
X004100Y017944D01*
X004100Y017964D01*
X004146Y018074D01*
X004230Y018159D01*
X004340Y018204D01*
X004460Y018204D01*
X004570Y018159D01*
X004654Y018074D01*
X004700Y017964D01*
X004700Y017845D01*
X004673Y017780D01*
X004714Y017780D01*
X004903Y017702D01*
X005047Y017558D01*
X005125Y017369D01*
X005125Y016460D01*
X005047Y016272D01*
X004903Y016128D01*
X004714Y016050D01*
X004510Y016050D01*
X004322Y016128D01*
X004178Y016272D01*
X004100Y016460D01*
X004100Y017265D01*
X003480Y016645D01*
X003480Y016625D01*
X003434Y016515D01*
X003350Y016430D01*
X003240Y016384D01*
X003425Y016506D02*
X004100Y016506D01*
X004100Y016664D02*
X003499Y016664D01*
X003658Y016823D02*
X004100Y016823D01*
X004100Y016981D02*
X003816Y016981D01*
X003975Y017140D02*
X004100Y017140D01*
X003771Y017615D02*
X000360Y017615D01*
X000360Y017457D02*
X003613Y017457D01*
X003454Y017298D02*
X000360Y017298D01*
X000360Y017140D02*
X003296Y017140D01*
X003112Y016981D02*
X000360Y016981D01*
X000360Y016823D02*
X002913Y016823D01*
X002880Y016664D02*
X000360Y016664D01*
X000360Y016506D02*
X002935Y016506D01*
X003180Y016684D02*
X004400Y017904D01*
X004162Y018091D02*
X001358Y018091D01*
X001647Y018249D02*
X018398Y018249D01*
X018239Y018408D02*
X001805Y018408D01*
X001899Y018566D02*
X009681Y018566D01*
X009694Y018533D02*
X009768Y018460D01*
X009863Y018420D01*
X009967Y018420D01*
X010062Y018460D01*
X010083Y018480D01*
X011864Y018480D01*
X011885Y018460D01*
X011980Y018420D01*
X012084Y018420D01*
X012179Y018460D01*
X012252Y018533D01*
X012292Y018628D01*
X012292Y018732D01*
X012252Y018827D01*
X012179Y018900D01*
X012084Y018940D01*
X011980Y018940D01*
X011885Y018900D01*
X011864Y018880D01*
X010083Y018880D01*
X010062Y018900D01*
X009967Y018940D01*
X009863Y018940D01*
X009768Y018900D01*
X009694Y018827D01*
X009655Y018732D01*
X009655Y018628D01*
X009694Y018533D01*
X009655Y018725D02*
X001965Y018725D01*
X002001Y018883D02*
X009750Y018883D01*
X010080Y018883D02*
X011867Y018883D01*
X012197Y018883D02*
X016779Y018883D01*
X016627Y019042D02*
X002001Y019042D01*
X002000Y019200D02*
X016627Y019200D01*
X016627Y019359D02*
X001934Y019359D01*
X001869Y019517D02*
X016640Y019517D01*
X016799Y019676D02*
X001732Y019676D01*
X000704Y018091D02*
X000360Y018091D01*
X000360Y018249D02*
X000415Y018249D01*
X000360Y017932D02*
X004088Y017932D01*
X003930Y017774D02*
X000360Y017774D01*
X000360Y016347D02*
X004147Y016347D01*
X004261Y016189D02*
X000360Y016189D01*
X000360Y016030D02*
X006537Y016030D01*
X006539Y016030D02*
X006456Y016043D01*
X006376Y016069D01*
X006302Y016107D01*
X006234Y016156D01*
X006175Y016215D01*
X006125Y016283D01*
X006087Y016358D01*
X006061Y016438D01*
X006048Y016520D01*
X006048Y016877D01*
X006543Y016877D01*
X006543Y016952D01*
X006048Y016952D01*
X006048Y017309D01*
X006061Y017392D01*
X006087Y017472D01*
X006125Y017546D01*
X006175Y017614D01*
X006234Y017673D01*
X006302Y017723D01*
X006376Y017761D01*
X006456Y017787D01*
X006539Y017800D01*
X006543Y017800D01*
X006543Y016952D01*
X006618Y016952D01*
X006618Y017800D01*
X006623Y017800D01*
X006706Y017787D01*
X006785Y017761D01*
X006860Y017723D01*
X006928Y017673D01*
X006987Y017614D01*
X007036Y017546D01*
X007074Y017472D01*
X007100Y017392D01*
X007113Y017309D01*
X007113Y016952D01*
X006618Y016952D01*
X006618Y016877D01*
X006618Y016030D01*
X006543Y016030D01*
X006543Y016877D01*
X006618Y016877D01*
X007113Y016877D01*
X007113Y016520D01*
X007100Y016438D01*
X007074Y016358D01*
X007036Y016283D01*
X006987Y016215D01*
X006928Y016156D01*
X006860Y016107D01*
X006785Y016069D01*
X006706Y016043D01*
X006623Y016030D01*
X006618Y016030D01*
X006625Y016030D02*
X019196Y016030D01*
X019196Y015872D02*
X000360Y015872D01*
X000360Y013811D02*
X004711Y013811D01*
X004599Y013653D02*
X000360Y013653D01*
X004729Y017774D02*
X006416Y017774D01*
X006543Y017774D02*
X006618Y017774D01*
X006746Y017774D02*
X008433Y017774D01*
X008447Y017780D02*
X008259Y017702D01*
X008115Y017558D01*
X008037Y017369D01*
X008037Y016460D01*
X008115Y016272D01*
X008259Y016128D01*
X008447Y016050D01*
X008651Y016050D01*
X008840Y016128D01*
X008984Y016272D01*
X009062Y016460D01*
X009062Y017369D01*
X008984Y017558D01*
X008840Y017702D01*
X008651Y017780D01*
X008447Y017780D01*
X008666Y017774D02*
X019685Y017774D01*
X019685Y017932D02*
X004700Y017932D01*
X004638Y018091D02*
X018689Y018091D01*
X019335Y018091D02*
X019685Y018091D01*
X019685Y018249D02*
X019626Y018249D01*
X019685Y017615D02*
X008926Y017615D01*
X009026Y017457D02*
X019274Y017457D01*
X019145Y017298D02*
X009062Y017298D01*
X009062Y017140D02*
X019151Y017140D01*
X019196Y016981D02*
X009062Y016981D01*
X009062Y016823D02*
X019196Y016823D01*
X019196Y016664D02*
X009062Y016664D01*
X009062Y016506D02*
X019196Y016506D01*
X019196Y016347D02*
X009015Y016347D01*
X008900Y016189D02*
X019196Y016189D01*
X019596Y016189D02*
X019685Y016189D01*
X019685Y016347D02*
X019596Y016347D01*
X019596Y016506D02*
X019685Y016506D01*
X019685Y016664D02*
X019596Y016664D01*
X019596Y016823D02*
X019685Y016823D01*
X019685Y016981D02*
X019596Y016981D01*
X019642Y017140D02*
X019685Y017140D01*
X019685Y017298D02*
X019648Y017298D01*
X019685Y017457D02*
X019519Y017457D01*
X018144Y018566D02*
X012266Y018566D01*
X012292Y018725D02*
X016938Y018725D01*
X017446Y018725D02*
X018079Y018725D01*
X018042Y018883D02*
X017604Y018883D01*
X017757Y019042D02*
X018042Y019042D01*
X018042Y019200D02*
X017757Y019200D01*
X017757Y019359D02*
X018108Y019359D01*
X018173Y019517D02*
X017744Y019517D01*
X017585Y019676D02*
X018309Y019676D01*
X019596Y016030D02*
X019685Y016030D01*
X019685Y015872D02*
X019596Y015872D01*
X019596Y015713D02*
X019685Y015713D01*
X019685Y015555D02*
X019596Y015555D01*
X019596Y015396D02*
X019685Y015396D01*
X019685Y015238D02*
X019596Y015238D01*
X019596Y015079D02*
X019685Y015079D01*
X019685Y014921D02*
X019596Y014921D01*
X019596Y014762D02*
X019685Y014762D01*
X019685Y014604D02*
X019596Y014604D01*
X019596Y014445D02*
X019685Y014445D01*
X019685Y014287D02*
X019596Y014287D01*
X019596Y014128D02*
X019685Y014128D01*
X019685Y013970D02*
X019596Y013970D01*
X019634Y013811D02*
X019685Y013811D01*
X019685Y013653D02*
X019656Y013653D01*
X016465Y014128D02*
X016219Y014128D01*
X016313Y014287D02*
X015986Y014287D01*
X012730Y011050D02*
X011620Y011050D01*
X011794Y010800D02*
X012556Y010800D01*
X012451Y010483D02*
X012053Y010483D01*
X012108Y010428D02*
X011990Y010546D01*
X011836Y010610D01*
X011668Y010610D01*
X011514Y010546D01*
X011396Y010428D01*
X011332Y010274D01*
X011332Y009586D01*
X011396Y009432D01*
X011514Y009314D01*
X011668Y009250D01*
X011836Y009250D01*
X011990Y009314D01*
X012108Y009432D01*
X012172Y009586D01*
X012172Y010274D01*
X012108Y010428D01*
X012151Y010324D02*
X012353Y010324D01*
X012332Y010166D02*
X012172Y010166D01*
X012172Y010007D02*
X012332Y010007D01*
X012332Y009849D02*
X012172Y009849D01*
X012172Y009690D02*
X012332Y009690D01*
X012355Y009532D02*
X012149Y009532D01*
X012049Y009373D02*
X012455Y009373D01*
X011455Y009373D02*
X011077Y009373D01*
X011088Y009383D02*
X011128Y009439D01*
X011160Y009501D01*
X011181Y009567D01*
X011192Y009635D01*
X011192Y009930D01*
X011192Y010225D01*
X011181Y010293D01*
X011160Y010359D01*
X011128Y010421D01*
X011088Y010477D01*
X011039Y010526D01*
X010983Y010566D01*
X010921Y010598D01*
X010855Y010619D01*
X010787Y010630D01*
X010752Y010630D01*
X010717Y010630D01*
X010649Y010619D01*
X010583Y010598D01*
X010521Y010566D01*
X010465Y010526D01*
X010416Y010477D01*
X010376Y010421D01*
X010344Y010359D01*
X010323Y010293D01*
X010312Y010225D01*
X010312Y009930D01*
X010752Y009930D01*
X010752Y009930D01*
X010312Y009930D01*
X010312Y009635D01*
X010323Y009567D01*
X010344Y009501D01*
X010376Y009439D01*
X010416Y009383D01*
X010465Y009334D01*
X010521Y009294D01*
X010583Y009262D01*
X010649Y009241D01*
X010717Y009230D01*
X010752Y009230D01*
X010752Y009930D01*
X010752Y010630D01*
X010752Y009930D01*
X010752Y009930D01*
X010752Y009930D01*
X010752Y009230D01*
X010787Y009230D01*
X010855Y009241D01*
X010921Y009262D01*
X010983Y009294D01*
X011039Y009334D01*
X011088Y009383D01*
X011170Y009532D02*
X011355Y009532D01*
X011332Y009690D02*
X011192Y009690D01*
X011192Y009849D02*
X011332Y009849D01*
X011332Y010007D02*
X011192Y010007D01*
X011192Y009930D02*
X010752Y009930D01*
X010752Y009930D01*
X011192Y009930D01*
X011192Y010166D02*
X011332Y010166D01*
X011353Y010324D02*
X011171Y010324D01*
X011082Y010483D02*
X011451Y010483D01*
X010752Y010483D02*
X010752Y010483D01*
X010752Y010324D02*
X010752Y010324D01*
X010752Y010166D02*
X010752Y010166D01*
X010752Y010007D02*
X010752Y010007D01*
X010752Y009849D02*
X010752Y009849D01*
X010752Y009690D02*
X010752Y009690D01*
X010752Y009532D02*
X010752Y009532D01*
X010752Y009373D02*
X010752Y009373D01*
X010427Y009373D02*
X010021Y009373D01*
X010128Y009532D02*
X010334Y009532D01*
X010312Y009690D02*
X010152Y009690D01*
X010152Y009849D02*
X010312Y009849D01*
X010312Y010007D02*
X010152Y010007D01*
X010152Y010166D02*
X010312Y010166D01*
X010333Y010324D02*
X010129Y010324D01*
X010138Y010483D02*
X010422Y010483D01*
X009479Y010483D02*
X009138Y010483D01*
X009129Y010324D02*
X009375Y010324D01*
X009352Y010166D02*
X009152Y010166D01*
X009152Y010007D02*
X009352Y010007D01*
X009352Y009849D02*
X009152Y009849D01*
X009152Y009690D02*
X009352Y009690D01*
X009376Y009532D02*
X009128Y009532D01*
X009021Y009373D02*
X009483Y009373D01*
X008483Y009373D02*
X008021Y009373D01*
X008128Y009532D02*
X008376Y009532D01*
X008352Y009690D02*
X008152Y009690D01*
X008152Y009849D02*
X008352Y009849D01*
X008352Y010007D02*
X008152Y010007D01*
X008152Y010166D02*
X008352Y010166D01*
X008375Y010324D02*
X008129Y010324D01*
X008138Y010483D02*
X008479Y010483D01*
X008337Y010641D02*
X008297Y010641D01*
X008301Y011275D02*
X008332Y011275D01*
X008491Y011434D02*
X008143Y011434D01*
X007491Y011434D02*
X007142Y011434D01*
X007301Y011275D02*
X007332Y011275D01*
X007337Y010641D02*
X007296Y010641D01*
X007137Y010483D02*
X007479Y010483D01*
X007375Y010324D02*
X007129Y010324D01*
X007152Y010166D02*
X007352Y010166D01*
X007352Y010007D02*
X007152Y010007D01*
X007152Y009849D02*
X007352Y009849D01*
X007352Y009690D02*
X007152Y009690D01*
X007128Y009532D02*
X007376Y009532D01*
X007483Y009373D02*
X007021Y009373D01*
X006483Y009373D02*
X006021Y009373D01*
X006128Y009532D02*
X006376Y009532D01*
X006352Y009690D02*
X006152Y009690D01*
X006152Y009849D02*
X006352Y009849D01*
X006352Y010007D02*
X006152Y010007D01*
X006152Y010166D02*
X006352Y010166D01*
X006375Y010324D02*
X006129Y010324D01*
X006117Y010483D02*
X006479Y010483D01*
X006337Y010641D02*
X006276Y010641D01*
X006281Y011275D02*
X006332Y011275D01*
X006490Y011434D02*
X006122Y011434D01*
X005475Y010483D02*
X005025Y010483D01*
X005129Y010324D02*
X005375Y010324D01*
X005352Y010166D02*
X005152Y010166D01*
X005152Y010007D02*
X005352Y010007D01*
X005352Y009849D02*
X005152Y009849D01*
X005152Y009690D02*
X005352Y009690D01*
X005376Y009532D02*
X005128Y009532D01*
X005021Y009373D02*
X005483Y009373D01*
X007580Y012610D02*
X007580Y012609D01*
X007580Y012610D02*
X007850Y012610D01*
X008470Y013230D01*
X008470Y013290D01*
X008078Y013177D02*
X007967Y013177D01*
X007193Y013177D02*
X006355Y013177D01*
X006391Y013336D02*
X006951Y013336D01*
X006871Y013494D02*
X006331Y013494D01*
X006331Y013653D02*
X006860Y013653D01*
X006907Y013811D02*
X006386Y013811D01*
X006373Y013970D02*
X007038Y013970D01*
X005251Y013575D02*
X004870Y013575D01*
X006539Y016030D02*
X006543Y016030D01*
X006543Y016189D02*
X006618Y016189D01*
X006618Y016347D02*
X006543Y016347D01*
X006543Y016506D02*
X006618Y016506D01*
X006618Y016664D02*
X006543Y016664D01*
X006543Y016823D02*
X006618Y016823D01*
X006618Y016981D02*
X006543Y016981D01*
X006543Y017140D02*
X006618Y017140D01*
X006618Y017298D02*
X006543Y017298D01*
X006543Y017457D02*
X006618Y017457D01*
X006618Y017615D02*
X006543Y017615D01*
X006176Y017615D02*
X004989Y017615D01*
X005089Y017457D02*
X006082Y017457D01*
X006048Y017298D02*
X005125Y017298D01*
X005125Y017140D02*
X006048Y017140D01*
X006048Y016981D02*
X005125Y016981D01*
X005125Y016823D02*
X006048Y016823D01*
X006048Y016664D02*
X005125Y016664D01*
X005125Y016506D02*
X006051Y016506D01*
X006093Y016347D02*
X005078Y016347D01*
X004963Y016189D02*
X006201Y016189D01*
X006960Y016189D02*
X008198Y016189D01*
X008084Y016347D02*
X007069Y016347D01*
X007111Y016506D02*
X008037Y016506D01*
X008037Y016664D02*
X007113Y016664D01*
X007113Y016823D02*
X008037Y016823D01*
X008037Y016981D02*
X007113Y016981D01*
X007113Y017140D02*
X008037Y017140D01*
X008037Y017298D02*
X007113Y017298D01*
X007079Y017457D02*
X008073Y017457D01*
X008172Y017615D02*
X006986Y017615D01*
X009143Y011434D02*
X009491Y011434D01*
X009332Y011275D02*
X009301Y011275D01*
X009297Y010641D02*
X009337Y010641D01*
X015009Y006362D02*
X015495Y006362D01*
X015381Y006520D02*
X015123Y006520D01*
X015152Y006679D02*
X015352Y006679D01*
X015352Y006837D02*
X015152Y006837D01*
X015152Y006996D02*
X015352Y006996D01*
X015352Y007154D02*
X015152Y007154D01*
X015134Y007313D02*
X015370Y007313D01*
X015467Y007471D02*
X015037Y007471D01*
X019004Y004143D02*
X019685Y004143D01*
X019685Y003984D02*
X019162Y003984D01*
X019230Y003826D02*
X019685Y003826D01*
X019685Y003667D02*
X019230Y003667D01*
X019230Y003509D02*
X019685Y003509D01*
X019685Y003350D02*
X019148Y003350D01*
X018989Y003192D02*
X019685Y003192D01*
X019685Y003033D02*
X018955Y003033D01*
X019113Y002875D02*
X019685Y002875D01*
X019685Y002716D02*
X019247Y002716D01*
X019247Y002558D02*
X019685Y002558D01*
X019685Y002399D02*
X019247Y002399D01*
X019247Y002241D02*
X019685Y002241D01*
X019685Y002082D02*
X019089Y002082D01*
X019417Y001924D02*
X019685Y001924D01*
X019685Y001765D02*
X019659Y001765D01*
X004645Y001765D02*
X004605Y001765D01*
X004605Y001607D02*
X004645Y001607D01*
X004645Y001448D02*
X004605Y001448D01*
X004605Y001290D02*
X004645Y001290D01*
X004375Y001290D02*
X003782Y001290D01*
X003713Y001261D02*
X003874Y001328D01*
X003998Y001452D01*
X004065Y001613D01*
X004065Y002388D01*
X003998Y002550D01*
X003874Y002674D01*
X003713Y002741D01*
X003538Y002741D01*
X003376Y002674D01*
X003252Y002550D01*
X003185Y002388D01*
X003185Y001613D01*
X003252Y001452D01*
X003376Y001328D01*
X003538Y001261D01*
X003713Y001261D01*
X003468Y001290D02*
X002834Y001290D01*
X003018Y001448D02*
X003256Y001448D01*
X003188Y001607D02*
X003084Y001607D01*
X003085Y001765D02*
X003185Y001765D01*
X003185Y001924D02*
X003085Y001924D01*
X003085Y002082D02*
X003185Y002082D01*
X003185Y002241D02*
X003085Y002241D01*
X003082Y002399D02*
X003189Y002399D01*
X003259Y002558D02*
X003017Y002558D01*
X002825Y002716D02*
X003478Y002716D01*
X003773Y002716D02*
X004383Y002716D01*
X004605Y002716D02*
X004645Y002716D01*
X004645Y002558D02*
X004605Y002558D01*
X004605Y002399D02*
X004645Y002399D01*
X004645Y002241D02*
X004605Y002241D01*
X004605Y002082D02*
X004645Y002082D01*
X004645Y001924D02*
X004605Y001924D01*
X004145Y001924D02*
X004065Y001924D01*
X004065Y002082D02*
X004145Y002082D01*
X004145Y002241D02*
X004065Y002241D01*
X004061Y002399D02*
X004155Y002399D01*
X004218Y002558D02*
X003991Y002558D01*
X004065Y001765D02*
X004145Y001765D01*
X004154Y001607D02*
X004062Y001607D01*
X003994Y001448D02*
X004215Y001448D01*
X000653Y001924D02*
X000360Y001924D01*
X000360Y001765D02*
X000393Y001765D01*
X000360Y003350D02*
X000455Y003350D01*
D17*
X001790Y005380D03*
X004310Y008050D03*
X002300Y008740D03*
X002300Y009640D03*
X002350Y010520D03*
X002789Y012799D03*
X003290Y013300D03*
X004870Y013575D03*
X005251Y013575D03*
X006131Y013315D03*
X006131Y013875D03*
X008470Y013290D03*
X013010Y012670D03*
X013270Y011880D03*
X013040Y011650D03*
X013440Y011250D03*
X014160Y011520D03*
X014530Y012310D03*
X014110Y012730D03*
X015690Y014300D03*
X016090Y013900D03*
X016560Y014370D03*
X016150Y014780D03*
X019396Y013706D03*
X019396Y017226D03*
X012032Y018680D03*
X009915Y018680D03*
X013216Y008233D03*
X013827Y008237D03*
D18*
X012730Y011050D03*
X011620Y011050D03*
X009828Y014518D03*
X009400Y015320D03*
X004423Y011933D03*
X003373Y011933D03*
X003875Y014863D03*
X003134Y015267D03*
X003180Y016684D03*
X004400Y017904D03*
D19*
X006131Y013875D02*
X006131Y013315D01*
X002350Y010520D02*
X001940Y010520D01*
X001460Y011000D01*
X001180Y011000D01*
X001180Y011006D01*
X001180Y010006D02*
X001180Y010000D01*
X001940Y010000D01*
X002300Y009640D01*
X002040Y009000D02*
X001180Y009000D01*
X001180Y009006D01*
X002040Y009000D02*
X002300Y008740D01*
X004310Y008050D02*
X004310Y007630D01*
X004750Y007190D01*
X004750Y006930D01*
X004752Y006930D01*
X001790Y005380D02*
X001020Y004610D01*
X001020Y004020D01*
X001019Y004012D01*
X013010Y012670D02*
X014160Y011520D01*
X013750Y011310D02*
X013750Y009930D01*
X013752Y009930D01*
X013440Y011250D02*
X013040Y011650D01*
X013270Y011790D02*
X013270Y011880D01*
X013270Y011790D02*
X013750Y011310D01*
X014530Y012310D02*
X014110Y012730D01*
X015690Y014300D02*
X016090Y013900D01*
X016560Y014370D02*
X016150Y014780D01*
X019396Y013706D02*
X019396Y017226D01*
X012032Y018680D02*
X009915Y018680D01*
X013216Y008233D02*
X013827Y008237D01*
D20*
X019010Y001042D03*
X019012Y019007D03*
X001031Y019005D03*
X001030Y001030D03*
M02*
