%
M48
M72
T01C0.0120
T02C0.0160
T03C0.0320
T04C0.0360
T05C0.0400
T06C0.0470
T07C0.1260
%
T01
X4870Y13575
X5251Y13575
X16560Y14370
X16150Y14780
X19396Y17226
X19396Y13706
X13270Y11880
X13827Y8237
X13216Y8233
X13010Y12670
X14160Y11520
X13040Y11650
X13440Y11250
X14110Y12730
X14530Y12310
X2789Y12799
X3290Y13300
X6131Y13875
X6131Y13315
X4310Y8050
X2350Y10520
X2300Y8740
X2300Y9640
X15690Y14300
X16090Y13900
X12032Y18680
X9915Y18680
X8470Y13290
X1790Y5380
T02
X11620Y11050
X12730Y11050
X9828Y14518
X9400Y15320
X4423Y11933
X3373Y11933
X3180Y16684
X4400Y17904
X3875Y14863
X3134Y15267
T03
X4752Y6930
X5752Y6930
X6752Y6930
X7752Y6930
X8752Y6930
X9752Y6930
X10752Y6930
X11752Y6930
X12752Y6930
X13752Y6930
X14752Y6930
X15752Y6930
X16752Y6930
X17752Y6930
X17752Y9930
X16752Y9930
X15752Y9930
X14752Y9930
X13752Y9930
X12752Y9930
X11752Y9930
X10752Y9930
X9752Y9930
X8752Y9930
X7752Y9930
X6752Y9930
X5752Y9930
X4752Y9930
T04
X7580Y12609
X7580Y13609
X1019Y4012
X1019Y3012
T05
X17192Y19270
X5615Y2028
X6615Y2028
X10615Y2028
X9615Y2028
X7615Y2028
X8615Y2028
X12615Y2028
X11615Y2028
X1180Y6006
X1180Y7006
X1180Y8006
X1180Y9006
X1180Y10006
X1180Y11006
X18645Y3674
X5796Y10961
X6816Y10961
X9817Y10961
X8817Y10961
X7817Y10961
X8358Y5838
X9358Y5838
X4943Y5805
X2625Y2001
X3625Y2001
X4625Y2001
X18642Y2490
T06
X8549Y16915
X6581Y16915
X4612Y16915
X15072Y3194
X17040Y3194
T07
X1031Y19005
X19012Y19007
X1030Y1030
X19010Y1042
M30
