G75*
%MOIN*%
%OFA0B0*%
%FSLAX25Y25*%
%IPPOS*%
%LPD*%
%AMOC8*
5,1,8,0,0,1.08239X$1,22.5*
%
%ADD10C,0.01600*%
%ADD11C,0.01120*%
%ADD12OC8,0.08900*%
%ADD13OC8,0.06400*%
%ADD14C,0.06400*%
%ADD15OC8,0.05600*%
D10*
X0001800Y0001800D02*
X0395501Y0001800D01*
X0395501Y0198650D01*
X0001800Y0198650D01*
X0001800Y0001800D01*
D11*
X0171482Y0058479D02*
X0170922Y0059039D01*
X0172778Y0059039D01*
X0174089Y0057728D01*
X0174089Y0055872D01*
X0172778Y0054561D01*
X0170922Y0054561D01*
X0169611Y0055872D01*
X0169611Y0057728D01*
X0170922Y0059039D01*
X0171270Y0058199D01*
X0172430Y0058199D01*
X0173249Y0057380D01*
X0173249Y0056220D01*
X0172430Y0055401D01*
X0171270Y0055401D01*
X0170451Y0056220D01*
X0170451Y0057380D01*
X0171270Y0058199D01*
X0171618Y0057359D01*
X0172082Y0057359D01*
X0172409Y0057032D01*
X0172409Y0056568D01*
X0172082Y0056241D01*
X0171618Y0056241D01*
X0171291Y0056568D01*
X0171291Y0057032D01*
X0171618Y0057359D01*
X0181382Y0058479D02*
X0180822Y0059039D01*
X0182678Y0059039D01*
X0183989Y0057728D01*
X0183989Y0055872D01*
X0182678Y0054561D01*
X0180822Y0054561D01*
X0179511Y0055872D01*
X0179511Y0057728D01*
X0180822Y0059039D01*
X0181170Y0058199D01*
X0182330Y0058199D01*
X0183149Y0057380D01*
X0183149Y0056220D01*
X0182330Y0055401D01*
X0181170Y0055401D01*
X0180351Y0056220D01*
X0180351Y0057380D01*
X0181170Y0058199D01*
X0181518Y0057359D01*
X0181982Y0057359D01*
X0182309Y0057032D01*
X0182309Y0056568D01*
X0181982Y0056241D01*
X0181518Y0056241D01*
X0181191Y0056568D01*
X0181191Y0057032D01*
X0181518Y0057359D01*
D12*
X0214300Y0033050D03*
X0234300Y0033050D03*
X0303050Y0054300D03*
X0388050Y0103050D03*
D13*
X0273050Y0091800D03*
X0293050Y0042548D03*
X0303050Y0042548D03*
X0313050Y0042548D03*
X0323050Y0042548D03*
X0333050Y0042548D03*
X0343050Y0042548D03*
X0353050Y0042548D03*
X0363050Y0042548D03*
X0373050Y0042548D03*
X0383050Y0042548D03*
X0383050Y0032548D03*
X0373050Y0032548D03*
X0363050Y0032548D03*
X0353050Y0032548D03*
X0343050Y0032548D03*
X0333050Y0032548D03*
X0323050Y0032548D03*
X0313050Y0032548D03*
X0303050Y0032548D03*
X0293050Y0032548D03*
D14*
X0149300Y0033550D02*
X0149300Y0027550D01*
X0139300Y0027550D02*
X0139300Y0033550D01*
X0129300Y0033550D02*
X0129300Y0027550D01*
X0119300Y0027550D02*
X0119300Y0033550D01*
X0109300Y0033550D02*
X0109300Y0027550D01*
X0099300Y0027550D02*
X0099300Y0033550D01*
X0270050Y0151800D02*
X0276050Y0151800D01*
X0276050Y0161800D02*
X0270050Y0161800D01*
X0301800Y0168800D02*
X0301800Y0174800D01*
X0311800Y0174800D02*
X0311800Y0168800D01*
X0321800Y0168800D02*
X0321800Y0174800D01*
X0358050Y0174800D02*
X0358050Y0168800D01*
X0368050Y0168800D02*
X0368050Y0174800D01*
X0378050Y0174800D02*
X0378050Y0168800D01*
X0388050Y0168800D02*
X0388050Y0174800D01*
D15*
X0359300Y0110550D03*
X0359300Y0090550D03*
M02*
