G75*
%MOIN*%
%OFA0B0*%
%FSLAX25Y25*%
%IPPOS*%
%LPD*%
%AMOC8*
5,1,8,0,0,1.08239X$1,22.5*
%
%ADD10C,0.01600*%
%ADD11R,0.04331X0.03937*%
%ADD12R,0.03937X0.04331*%
%ADD13R,0.02200X0.05000*%
%ADD14R,0.05000X0.02200*%
%ADD15R,0.07480X0.05118*%
%ADD16R,0.06000X0.04000*%
%ADD17R,0.04000X0.06000*%
%ADD18R,0.01121X0.02756*%
%ADD19R,0.02700X0.01300*%
%ADD20R,0.04724X0.07874*%
%ADD21R,0.01575X0.02362*%
%ADD22R,0.00984X0.00984*%
%ADD23R,0.01181X0.00984*%
%ADD24R,0.02362X0.04724*%
%ADD25R,0.07087X0.06299*%
D10*
X0001800Y0001800D02*
X0395501Y0001800D01*
X0395501Y0198650D01*
X0001800Y0198650D01*
X0001800Y0001800D01*
D11*
X0079704Y0030550D03*
X0086396Y0030550D03*
X0119300Y0042204D03*
X0119300Y0048896D03*
X0171800Y0040146D03*
X0171800Y0033454D03*
X0225954Y0061800D03*
X0232646Y0061800D03*
X0315550Y0058454D03*
X0325550Y0058454D03*
X0325550Y0065146D03*
X0315550Y0065146D03*
X0335550Y0065146D03*
X0345550Y0065146D03*
X0345550Y0058454D03*
X0335550Y0058454D03*
X0355550Y0074704D03*
X0355550Y0081396D03*
X0330550Y0114704D03*
X0330550Y0121396D03*
X0362204Y0123050D03*
X0368896Y0123050D03*
X0382204Y0123050D03*
X0388896Y0123050D03*
X0213050Y0138454D03*
X0213050Y0145146D03*
X0170146Y0139300D03*
X0163454Y0139300D03*
X0106396Y0106800D03*
X0099704Y0106800D03*
D12*
X0099704Y0128050D03*
X0106396Y0128050D03*
X0106396Y0141800D03*
X0099704Y0141800D03*
X0180954Y0108375D03*
X0187646Y0108375D03*
X0151800Y0080146D03*
X0143050Y0080146D03*
X0143050Y0073454D03*
X0151800Y0073454D03*
X0148896Y0050550D03*
X0142204Y0050550D03*
X0106396Y0050550D03*
X0099704Y0050550D03*
X0099704Y0060550D03*
X0106396Y0060550D03*
X0106396Y0073050D03*
X0099704Y0073050D03*
X0099704Y0084300D03*
X0106396Y0084300D03*
X0071396Y0039300D03*
X0064704Y0039300D03*
X0214300Y0070954D03*
X0214300Y0077646D03*
X0330550Y0089704D03*
X0330550Y0096396D03*
X0347204Y0133050D03*
X0353896Y0133050D03*
X0372204Y0153050D03*
X0378896Y0153050D03*
X0225146Y0166800D03*
X0218454Y0166800D03*
X0373050Y0060146D03*
X0373050Y0053454D03*
D13*
X0162824Y0089900D03*
X0159674Y0089900D03*
X0156524Y0089900D03*
X0153375Y0089900D03*
X0150225Y0089900D03*
X0147076Y0089900D03*
X0143926Y0089900D03*
X0140776Y0089900D03*
X0140776Y0123700D03*
X0143926Y0123700D03*
X0147076Y0123700D03*
X0150225Y0123700D03*
X0153375Y0123700D03*
X0156524Y0123700D03*
X0159674Y0123700D03*
X0162824Y0123700D03*
D14*
X0168700Y0117824D03*
X0168700Y0114674D03*
X0168700Y0111524D03*
X0168700Y0108375D03*
X0168700Y0105225D03*
X0168700Y0102076D03*
X0168700Y0098926D03*
X0168700Y0095776D03*
X0134900Y0095776D03*
X0134900Y0098926D03*
X0134900Y0102076D03*
X0134900Y0105225D03*
X0134900Y0108375D03*
X0134900Y0111524D03*
X0134900Y0114674D03*
X0134900Y0117824D03*
D15*
X0136426Y0150225D03*
X0149024Y0150225D03*
X0149024Y0171879D03*
X0136426Y0171879D03*
D16*
X0087341Y0146869D03*
X0087341Y0141869D03*
X0087341Y0136869D03*
X0087341Y0131869D03*
X0087341Y0126869D03*
X0087341Y0121869D03*
X0087341Y0116869D03*
X0087341Y0111869D03*
X0087341Y0106869D03*
X0087341Y0101869D03*
X0087341Y0096869D03*
X0087341Y0091869D03*
X0087341Y0086869D03*
X0087341Y0081869D03*
X0087341Y0076869D03*
X0087341Y0071869D03*
X0087341Y0066869D03*
X0087341Y0061869D03*
X0087341Y0056869D03*
X0087341Y0051869D03*
X0017341Y0051869D03*
X0017341Y0056869D03*
X0017341Y0061869D03*
X0017341Y0066869D03*
X0017341Y0071869D03*
X0017341Y0076869D03*
X0017341Y0081869D03*
X0017341Y0086869D03*
X0017341Y0091869D03*
X0017341Y0096869D03*
X0017341Y0101869D03*
X0017341Y0106869D03*
X0017341Y0111869D03*
X0017341Y0116869D03*
X0017341Y0121869D03*
X0017341Y0126869D03*
X0017341Y0131869D03*
X0017341Y0136869D03*
X0017341Y0141869D03*
X0017341Y0146869D03*
D17*
X0037341Y0151869D03*
X0042341Y0151869D03*
X0047341Y0151869D03*
X0052341Y0151869D03*
X0057341Y0151869D03*
X0062341Y0151869D03*
X0067341Y0151869D03*
D18*
X0220728Y0145035D03*
X0221802Y0145035D03*
X0222886Y0145035D03*
X0223952Y0145033D03*
X0225023Y0145033D03*
X0226081Y0145048D03*
X0228050Y0145048D03*
X0230019Y0145048D03*
X0231067Y0145043D03*
X0232142Y0145043D03*
X0233226Y0145043D03*
X0234291Y0145040D03*
X0235362Y0145040D03*
X0230189Y0148874D03*
X0229117Y0148874D03*
X0228052Y0148876D03*
X0226968Y0148876D03*
X0225893Y0148876D03*
X0228052Y0147245D03*
X0228050Y0138552D03*
X0228050Y0136596D03*
X0228052Y0134721D03*
X0229117Y0134719D03*
X0230189Y0134719D03*
X0226968Y0134721D03*
X0225893Y0134721D03*
X0226081Y0138552D03*
X0225012Y0138551D03*
X0223940Y0138551D03*
X0222875Y0138553D03*
X0221791Y0138553D03*
X0220717Y0138553D03*
X0230019Y0138552D03*
X0231107Y0138552D03*
X0232182Y0138552D03*
X0233266Y0138552D03*
X0234331Y0138550D03*
X0235403Y0138550D03*
D19*
X0232530Y0076879D03*
X0232530Y0074307D03*
X0232548Y0071757D03*
X0226072Y0071757D03*
X0226072Y0074300D03*
X0226071Y0076843D03*
D20*
X0224251Y0049300D03*
X0236849Y0049300D03*
D21*
X0233237Y0109182D03*
X0229300Y0109182D03*
X0225363Y0109182D03*
X0225363Y0119418D03*
X0229300Y0119418D03*
X0233237Y0119418D03*
D22*
X0230973Y0115186D03*
X0230973Y0113414D03*
X0227627Y0113414D03*
X0227627Y0115186D03*
D23*
X0229300Y0115186D03*
X0229300Y0113414D03*
D24*
X0371810Y0108192D03*
X0379290Y0108192D03*
X0379290Y0097908D03*
X0375550Y0097908D03*
X0371810Y0097908D03*
D25*
X0345550Y0095038D03*
X0345550Y0106062D03*
M02*
