G75*
%MOIN*%
%OFA0B0*%
%FSLAX25Y25*%
%IPPOS*%
%LPD*%
%AMOC8*
5,1,8,0,0,1.08239X$1,22.5*
%
%ADD10C,0.01600*%
%ADD11R,0.04731X0.04337*%
%ADD12R,0.04337X0.04731*%
%ADD13R,0.02600X0.05400*%
%ADD14R,0.05400X0.02600*%
%ADD15C,0.01120*%
%ADD16R,0.07880X0.05518*%
%ADD17OC8,0.08900*%
%ADD18R,0.06400X0.04400*%
%ADD19R,0.04400X0.06400*%
%ADD20OC8,0.06400*%
%ADD21R,0.01521X0.03156*%
%ADD22C,0.06400*%
%ADD23R,0.03353X0.01975*%
%ADD24R,0.05124X0.08274*%
%ADD25C,0.05400*%
%ADD26R,0.01975X0.02762*%
%ADD27R,0.09849X0.06306*%
%ADD28R,0.02762X0.05124*%
%ADD29OC8,0.05600*%
%ADD30C,0.02762*%
D10*
X0001800Y0010127D02*
X0395501Y0010127D01*
X0395501Y0206977D01*
X0001800Y0206977D01*
X0001800Y0010127D01*
D11*
X0034300Y0035530D03*
X0034300Y0042223D03*
X0044300Y0042223D03*
X0044300Y0035530D03*
X0141800Y0038473D03*
X0141800Y0031780D03*
X0228454Y0077627D03*
X0235146Y0077627D03*
X0314300Y0060973D03*
X0324300Y0060973D03*
X0334300Y0060973D03*
X0344300Y0060973D03*
X0344300Y0054280D03*
X0334300Y0054280D03*
X0324300Y0054280D03*
X0314300Y0054280D03*
X0356800Y0091780D03*
X0356800Y0098473D03*
X0331800Y0131780D03*
X0331800Y0138473D03*
X0363454Y0140127D03*
X0370146Y0140127D03*
X0383454Y0140127D03*
X0390146Y0140127D03*
X0215550Y0154280D03*
X0215550Y0160973D03*
X0170146Y0147627D03*
X0163454Y0147627D03*
X0106396Y0115127D03*
X0099704Y0115127D03*
D12*
X0099704Y0136377D03*
X0106396Y0136377D03*
X0106396Y0150127D03*
X0099704Y0150127D03*
X0180954Y0116701D03*
X0187646Y0116701D03*
X0216800Y0093473D03*
X0216800Y0086780D03*
X0151800Y0088473D03*
X0143050Y0088473D03*
X0143050Y0081780D03*
X0151800Y0081780D03*
X0106396Y0081377D03*
X0099704Y0081377D03*
X0099704Y0092627D03*
X0106396Y0092627D03*
X0106396Y0068877D03*
X0099704Y0068877D03*
X0099704Y0058877D03*
X0106396Y0058877D03*
X0073896Y0043877D03*
X0067204Y0043877D03*
X0024300Y0042223D03*
X0024300Y0035530D03*
X0220954Y0182627D03*
X0227646Y0182627D03*
X0348454Y0150127D03*
X0355146Y0150127D03*
X0373454Y0170127D03*
X0380146Y0170127D03*
X0346800Y0120973D03*
X0346800Y0114280D03*
X0331800Y0113473D03*
X0331800Y0106780D03*
X0371800Y0055973D03*
X0371800Y0049280D03*
D13*
X0162824Y0098227D03*
X0159674Y0098227D03*
X0156524Y0098227D03*
X0153375Y0098227D03*
X0150225Y0098227D03*
X0147076Y0098227D03*
X0143926Y0098227D03*
X0140776Y0098227D03*
X0140776Y0132027D03*
X0143926Y0132027D03*
X0147076Y0132027D03*
X0150225Y0132027D03*
X0153375Y0132027D03*
X0156524Y0132027D03*
X0159674Y0132027D03*
X0162824Y0132027D03*
D14*
X0168700Y0126150D03*
X0168700Y0123001D03*
X0168700Y0119851D03*
X0168700Y0116701D03*
X0168700Y0113552D03*
X0168700Y0110402D03*
X0168700Y0107253D03*
X0168700Y0104103D03*
X0134900Y0104103D03*
X0134900Y0107253D03*
X0134900Y0110402D03*
X0134900Y0113552D03*
X0134900Y0116701D03*
X0134900Y0119851D03*
X0134900Y0123001D03*
X0134900Y0126150D03*
D15*
X0141482Y0056806D02*
X0140922Y0057366D01*
X0142778Y0057366D01*
X0144089Y0056055D01*
X0144089Y0054199D01*
X0142778Y0052888D01*
X0140922Y0052888D01*
X0139611Y0054199D01*
X0139611Y0056055D01*
X0140922Y0057366D01*
X0141270Y0056526D01*
X0142430Y0056526D01*
X0143249Y0055707D01*
X0143249Y0054547D01*
X0142430Y0053728D01*
X0141270Y0053728D01*
X0140451Y0054547D01*
X0140451Y0055707D01*
X0141270Y0056526D01*
X0141618Y0055686D01*
X0142082Y0055686D01*
X0142409Y0055359D01*
X0142409Y0054895D01*
X0142082Y0054568D01*
X0141618Y0054568D01*
X0141291Y0054895D01*
X0141291Y0055359D01*
X0141618Y0055686D01*
X0151382Y0056806D02*
X0150822Y0057366D01*
X0152678Y0057366D01*
X0153989Y0056055D01*
X0153989Y0054199D01*
X0152678Y0052888D01*
X0150822Y0052888D01*
X0149511Y0054199D01*
X0149511Y0056055D01*
X0150822Y0057366D01*
X0151170Y0056526D01*
X0152330Y0056526D01*
X0153149Y0055707D01*
X0153149Y0054547D01*
X0152330Y0053728D01*
X0151170Y0053728D01*
X0150351Y0054547D01*
X0150351Y0055707D01*
X0151170Y0056526D01*
X0151518Y0055686D01*
X0151982Y0055686D01*
X0152309Y0055359D01*
X0152309Y0054895D01*
X0151982Y0054568D01*
X0151518Y0054568D01*
X0151191Y0054895D01*
X0151191Y0055359D01*
X0151518Y0055686D01*
D16*
X0149024Y0158552D03*
X0136426Y0158552D03*
X0136426Y0180205D03*
X0149024Y0180205D03*
D17*
X0389300Y0120127D03*
X0301800Y0050127D03*
X0236800Y0035127D03*
X0216800Y0035127D03*
D18*
X0087341Y0060196D03*
X0087341Y0065196D03*
X0087341Y0070196D03*
X0087341Y0075196D03*
X0087341Y0080196D03*
X0087341Y0085196D03*
X0087341Y0090196D03*
X0087341Y0095196D03*
X0087341Y0100196D03*
X0087341Y0105196D03*
X0087341Y0110196D03*
X0087341Y0115196D03*
X0087341Y0120196D03*
X0087341Y0125196D03*
X0087341Y0130196D03*
X0087341Y0135196D03*
X0087341Y0140196D03*
X0087341Y0145196D03*
X0087341Y0150196D03*
X0087341Y0155196D03*
X0017341Y0155196D03*
X0017341Y0150196D03*
X0017341Y0145196D03*
X0017341Y0140196D03*
X0017341Y0135196D03*
X0017341Y0130196D03*
X0017341Y0125196D03*
X0017341Y0120196D03*
X0017341Y0115196D03*
X0017341Y0110196D03*
X0017341Y0105196D03*
X0017341Y0100196D03*
X0017341Y0095196D03*
X0017341Y0090196D03*
X0017341Y0085196D03*
X0017341Y0080196D03*
X0017341Y0075196D03*
X0017341Y0070196D03*
X0017341Y0065196D03*
X0017341Y0060196D03*
D19*
X0037341Y0160196D03*
X0042341Y0160196D03*
X0047341Y0160196D03*
X0052341Y0160196D03*
X0057341Y0160196D03*
X0062341Y0160196D03*
X0067341Y0160196D03*
D20*
X0274300Y0108877D03*
X0291800Y0038375D03*
X0301800Y0038375D03*
X0311800Y0038375D03*
X0321800Y0038375D03*
X0331800Y0038375D03*
X0341800Y0038375D03*
X0351800Y0038375D03*
X0361800Y0038375D03*
X0371800Y0038375D03*
X0381800Y0038375D03*
X0381800Y0028375D03*
X0371800Y0028375D03*
X0361800Y0028375D03*
X0351800Y0028375D03*
X0341800Y0028375D03*
X0331800Y0028375D03*
X0321800Y0028375D03*
X0311800Y0028375D03*
X0301800Y0028375D03*
X0291800Y0028375D03*
D21*
X0232689Y0150545D03*
X0231617Y0150545D03*
X0230552Y0150548D03*
X0229468Y0150548D03*
X0228393Y0150548D03*
X0230550Y0152423D03*
X0230550Y0154379D03*
X0232519Y0154379D03*
X0233607Y0154379D03*
X0234682Y0154379D03*
X0235766Y0154379D03*
X0236831Y0154376D03*
X0237903Y0154376D03*
X0228581Y0154379D03*
X0227512Y0154378D03*
X0226440Y0154378D03*
X0225375Y0154380D03*
X0224291Y0154380D03*
X0223217Y0154380D03*
X0223228Y0160861D03*
X0224302Y0160861D03*
X0225386Y0160862D03*
X0226452Y0160859D03*
X0227523Y0160859D03*
X0228581Y0160875D03*
X0230550Y0160875D03*
X0232519Y0160875D03*
X0233567Y0160869D03*
X0234642Y0160869D03*
X0235726Y0160869D03*
X0236791Y0160867D03*
X0237862Y0160867D03*
X0232689Y0164701D03*
X0231617Y0164701D03*
X0230552Y0164703D03*
X0229468Y0164703D03*
X0228393Y0164703D03*
X0230552Y0163072D03*
D22*
X0271300Y0168877D02*
X0277300Y0168877D01*
X0277300Y0178877D02*
X0271300Y0178877D01*
X0303050Y0185877D02*
X0303050Y0191877D01*
X0313050Y0191877D02*
X0313050Y0185877D01*
X0323050Y0185877D02*
X0323050Y0191877D01*
X0359300Y0191877D02*
X0359300Y0185877D01*
X0369300Y0185877D02*
X0369300Y0191877D01*
X0379300Y0191877D02*
X0379300Y0185877D01*
X0389300Y0185877D02*
X0389300Y0191877D01*
X0074300Y0026877D02*
X0074300Y0020877D01*
X0064300Y0020877D02*
X0064300Y0026877D01*
X0054300Y0026877D02*
X0054300Y0020877D01*
X0044300Y0020877D02*
X0044300Y0026877D01*
X0034300Y0026877D02*
X0034300Y0020877D01*
X0024300Y0020877D02*
X0024300Y0026877D01*
D23*
X0228552Y0087568D03*
X0228552Y0090127D03*
X0228552Y0092686D03*
X0235048Y0092686D03*
X0235048Y0090127D03*
X0235048Y0087568D03*
D24*
X0239349Y0065127D03*
X0226751Y0065127D03*
D25*
X0367945Y0202627D03*
D26*
X0235737Y0135245D03*
X0231800Y0135245D03*
X0227863Y0135245D03*
X0227863Y0125009D03*
X0231800Y0125009D03*
X0235737Y0125009D03*
D27*
X0231800Y0130127D03*
D28*
X0373060Y0125268D03*
X0380540Y0125268D03*
X0380540Y0114985D03*
X0376800Y0114985D03*
X0373060Y0114985D03*
D29*
X0360550Y0107627D03*
X0360550Y0127627D03*
D30*
X0366800Y0013946D03*
M02*
