G75*
%MOIN*%
%OFA0B0*%
%FSLAX25Y25*%
%IPPOS*%
%LPD*%
%AMOC8*
5,1,8,0,0,1.08239X$1,22.5*
%
%ADD10C,0.01600*%
%ADD11C,0.00300*%
%ADD12C,0.27559*%
%ADD13C,0.00600*%
%ADD14C,0.00400*%
%ADD15C,0.00800*%
%ADD16C,0.02200*%
%ADD17C,0.00500*%
%ADD18C,0.01200*%
D10*
X0001800Y0010127D02*
X0395501Y0010127D01*
X0395501Y0206977D01*
X0001800Y0206977D01*
X0001800Y0010127D01*
D11*
X0011304Y0002462D02*
X0013730Y0004889D01*
X0012517Y0004889D02*
X0012517Y0002462D01*
X0013730Y0002462D02*
X0011304Y0004889D01*
X0011304Y0003676D02*
X0013730Y0003676D01*
X0014337Y0009713D02*
X0010697Y0009713D01*
X0010697Y0011533D01*
X0011304Y0012139D01*
X0013730Y0012139D01*
X0014337Y0011533D01*
X0014337Y0009713D01*
X0013730Y0013338D02*
X0014337Y0013944D01*
X0014337Y0015158D01*
X0013730Y0015764D01*
X0012517Y0015764D01*
X0011910Y0015158D01*
X0011910Y0013944D01*
X0012517Y0013338D01*
X0013730Y0013338D01*
X0014337Y0020588D02*
X0010697Y0020588D01*
X0014337Y0023015D01*
X0010697Y0023015D01*
X0011304Y0024213D02*
X0013730Y0024213D01*
X0014337Y0024820D01*
X0014337Y0026033D01*
X0013730Y0026640D01*
X0011304Y0026640D01*
X0010697Y0026033D01*
X0010697Y0024820D01*
X0011304Y0024213D01*
X0010697Y0027838D02*
X0010697Y0030265D01*
X0010697Y0029052D02*
X0014337Y0029052D01*
X0014337Y0035089D02*
X0010697Y0035089D01*
X0010697Y0036909D01*
X0011304Y0037515D01*
X0012517Y0037515D01*
X0013124Y0036909D01*
X0013124Y0035089D01*
X0013730Y0038714D02*
X0014337Y0039320D01*
X0014337Y0040534D01*
X0013730Y0041140D01*
X0012517Y0041140D01*
X0011910Y0040534D01*
X0011910Y0039320D01*
X0012517Y0038714D01*
X0013730Y0038714D01*
X0014337Y0042339D02*
X0014337Y0044159D01*
X0013730Y0044766D01*
X0012517Y0044766D01*
X0011910Y0044159D01*
X0011910Y0042339D01*
X0015550Y0042339D01*
X0014337Y0045964D02*
X0014337Y0046571D01*
X0013730Y0046571D01*
X0013730Y0045964D01*
X0014337Y0045964D01*
X0017554Y0049152D02*
X0019980Y0051578D01*
X0019700Y0051310D02*
X0020307Y0051917D01*
X0021520Y0051917D01*
X0022127Y0051310D01*
X0023325Y0050703D02*
X0024538Y0051917D01*
X0024538Y0048277D01*
X0023325Y0048277D02*
X0025752Y0048277D01*
X0026950Y0048277D02*
X0029377Y0048277D01*
X0028164Y0048277D02*
X0028164Y0051917D01*
X0026950Y0050703D01*
X0031697Y0051328D02*
X0031697Y0048901D01*
X0033517Y0048901D01*
X0032910Y0050115D01*
X0032910Y0050722D01*
X0033517Y0051328D01*
X0034730Y0051328D01*
X0035337Y0050722D01*
X0035337Y0049508D01*
X0034730Y0048901D01*
X0035337Y0047703D02*
X0034124Y0046490D01*
X0034124Y0047096D02*
X0034124Y0045276D01*
X0035337Y0045276D02*
X0031697Y0045276D01*
X0031697Y0047096D01*
X0032304Y0047703D01*
X0033517Y0047703D01*
X0034124Y0047096D01*
X0041697Y0047096D02*
X0041697Y0045276D01*
X0045337Y0045276D01*
X0044124Y0045276D02*
X0044124Y0047096D01*
X0043517Y0047703D01*
X0042304Y0047703D01*
X0041697Y0047096D01*
X0041697Y0048901D02*
X0041697Y0051328D01*
X0042304Y0051328D01*
X0044730Y0048901D01*
X0045337Y0048901D01*
X0045337Y0047703D02*
X0044124Y0046490D01*
X0067200Y0048777D02*
X0067200Y0052417D01*
X0069020Y0052417D01*
X0069627Y0051810D01*
X0069627Y0050597D01*
X0069020Y0049990D01*
X0067200Y0049990D01*
X0068413Y0049990D02*
X0069627Y0048777D01*
X0070825Y0048777D02*
X0073252Y0048777D01*
X0074450Y0048777D02*
X0074450Y0049383D01*
X0076877Y0051810D01*
X0076877Y0052417D01*
X0074450Y0052417D01*
X0072038Y0052417D02*
X0072038Y0048777D01*
X0070825Y0051203D02*
X0072038Y0052417D01*
X0110950Y0056277D02*
X0110950Y0059917D01*
X0112770Y0059917D01*
X0113377Y0059310D01*
X0113377Y0058097D01*
X0112770Y0057490D01*
X0110950Y0057490D01*
X0112163Y0057490D02*
X0113377Y0056277D01*
X0114575Y0056277D02*
X0117002Y0056277D01*
X0115788Y0056277D02*
X0115788Y0059917D01*
X0114575Y0058703D01*
X0118200Y0059310D02*
X0118807Y0059917D01*
X0120020Y0059917D01*
X0120627Y0059310D01*
X0120627Y0058703D01*
X0120020Y0058097D01*
X0120627Y0057490D01*
X0120627Y0056883D01*
X0120020Y0056277D01*
X0118807Y0056277D01*
X0118200Y0056883D01*
X0119414Y0058097D02*
X0120020Y0058097D01*
X0120627Y0066277D02*
X0118200Y0066277D01*
X0120627Y0068703D01*
X0120627Y0069310D01*
X0120020Y0069917D01*
X0118807Y0069917D01*
X0118200Y0069310D01*
X0115788Y0069917D02*
X0115788Y0066277D01*
X0114575Y0066277D02*
X0117002Y0066277D01*
X0114575Y0068703D02*
X0115788Y0069917D01*
X0113377Y0069310D02*
X0113377Y0068097D01*
X0112770Y0067490D01*
X0110950Y0067490D01*
X0110950Y0066277D02*
X0110950Y0069917D01*
X0112770Y0069917D01*
X0113377Y0069310D01*
X0112163Y0067490D02*
X0113377Y0066277D01*
X0134447Y0078758D02*
X0135054Y0078151D01*
X0137480Y0078151D01*
X0138087Y0078758D01*
X0138087Y0079971D01*
X0137480Y0080578D01*
X0138087Y0081776D02*
X0138087Y0084203D01*
X0138087Y0082990D02*
X0134447Y0082990D01*
X0135660Y0081776D01*
X0135054Y0080578D02*
X0134447Y0079971D01*
X0134447Y0078758D01*
X0135054Y0085401D02*
X0134447Y0086008D01*
X0134447Y0087222D01*
X0135054Y0087828D01*
X0137480Y0085401D01*
X0138087Y0086008D01*
X0138087Y0087222D01*
X0137480Y0087828D01*
X0135054Y0087828D01*
X0135054Y0085401D02*
X0137480Y0085401D01*
X0120627Y0080027D02*
X0118200Y0080027D01*
X0117002Y0080027D02*
X0114575Y0080027D01*
X0113377Y0080027D02*
X0112163Y0081240D01*
X0112770Y0081240D02*
X0110950Y0081240D01*
X0110950Y0080027D02*
X0110950Y0083667D01*
X0112770Y0083667D01*
X0113377Y0083060D01*
X0113377Y0081847D01*
X0112770Y0081240D01*
X0114575Y0082453D02*
X0115788Y0083667D01*
X0115788Y0080027D01*
X0118200Y0082453D02*
X0119414Y0083667D01*
X0119414Y0080027D01*
X0120020Y0091277D02*
X0118807Y0091277D01*
X0118200Y0091883D01*
X0120627Y0094310D01*
X0120627Y0091883D01*
X0120020Y0091277D01*
X0118200Y0091883D02*
X0118200Y0094310D01*
X0118807Y0094917D01*
X0120020Y0094917D01*
X0120627Y0094310D01*
X0115788Y0094917D02*
X0115788Y0091277D01*
X0114575Y0091277D02*
X0117002Y0091277D01*
X0114575Y0093703D02*
X0115788Y0094917D01*
X0113377Y0094310D02*
X0113377Y0093097D01*
X0112770Y0092490D01*
X0110950Y0092490D01*
X0110950Y0091277D02*
X0110950Y0094917D01*
X0112770Y0094917D01*
X0113377Y0094310D01*
X0112163Y0092490D02*
X0113377Y0091277D01*
X0149447Y0109010D02*
X0149447Y0110223D01*
X0149447Y0109616D02*
X0153087Y0109616D01*
X0153087Y0109010D02*
X0153087Y0110223D01*
X0152480Y0111426D02*
X0150054Y0111426D01*
X0149447Y0112033D01*
X0149447Y0113246D01*
X0150054Y0113853D01*
X0150054Y0115051D02*
X0149447Y0115658D01*
X0149447Y0116872D01*
X0150054Y0117478D01*
X0150660Y0117478D01*
X0153087Y0115051D01*
X0153087Y0117478D01*
X0152480Y0113853D02*
X0153087Y0113246D01*
X0153087Y0112033D01*
X0152480Y0111426D01*
X0179700Y0121664D02*
X0179700Y0125305D01*
X0181520Y0125305D01*
X0182126Y0124698D01*
X0182126Y0123484D01*
X0181520Y0122878D01*
X0179700Y0122878D01*
X0180913Y0122878D02*
X0182126Y0121664D01*
X0183325Y0121664D02*
X0185752Y0124091D01*
X0185752Y0124698D01*
X0185145Y0125305D01*
X0183932Y0125305D01*
X0183325Y0124698D01*
X0183325Y0121664D02*
X0185752Y0121664D01*
X0179895Y0145277D02*
X0178682Y0145277D01*
X0178075Y0145883D01*
X0176877Y0145883D02*
X0176270Y0145277D01*
X0175057Y0145277D01*
X0174450Y0145883D01*
X0174450Y0148310D01*
X0175057Y0148917D01*
X0176270Y0148917D01*
X0176877Y0148310D01*
X0178075Y0148310D02*
X0178075Y0147703D01*
X0178682Y0147097D01*
X0180502Y0147097D01*
X0180502Y0148310D02*
X0180502Y0145883D01*
X0179895Y0145277D01*
X0180502Y0148310D02*
X0179895Y0148917D01*
X0178682Y0148917D01*
X0178075Y0148310D01*
X0206760Y0155277D02*
X0206760Y0157097D01*
X0207367Y0157703D01*
X0208580Y0157703D01*
X0209187Y0157097D01*
X0209187Y0155277D01*
X0209187Y0156490D02*
X0210400Y0157703D01*
X0209793Y0158902D02*
X0209187Y0158902D01*
X0208580Y0159508D01*
X0208580Y0160722D01*
X0209187Y0161329D01*
X0209793Y0161329D01*
X0210400Y0160722D01*
X0210400Y0159508D01*
X0209793Y0158902D01*
X0208580Y0159508D02*
X0207973Y0158902D01*
X0207367Y0158902D01*
X0206760Y0159508D01*
X0206760Y0160722D01*
X0207367Y0161329D01*
X0207973Y0161329D01*
X0208580Y0160722D01*
X0210400Y0155277D02*
X0206760Y0155277D01*
X0219700Y0173840D02*
X0219700Y0177480D01*
X0221520Y0177480D01*
X0222126Y0176873D01*
X0222126Y0175660D01*
X0221520Y0175053D01*
X0219700Y0175053D01*
X0220913Y0175053D02*
X0222126Y0173840D01*
X0223325Y0174446D02*
X0223325Y0175660D01*
X0225145Y0175660D01*
X0225752Y0175053D01*
X0225752Y0174446D01*
X0225145Y0173840D01*
X0223932Y0173840D01*
X0223325Y0174446D01*
X0223325Y0175660D02*
X0224538Y0176873D01*
X0225752Y0177480D01*
X0145243Y0172257D02*
X0145243Y0169830D01*
X0145243Y0168632D02*
X0144029Y0167418D01*
X0144636Y0166205D02*
X0142209Y0166205D01*
X0141602Y0166812D01*
X0141602Y0168025D01*
X0142209Y0168632D01*
X0144636Y0168632D01*
X0145243Y0168025D01*
X0145243Y0166812D01*
X0144636Y0166205D01*
X0142816Y0169830D02*
X0141602Y0171043D01*
X0145243Y0171043D01*
X0120627Y0152417D02*
X0118200Y0152417D01*
X0118200Y0150597D01*
X0119414Y0151203D01*
X0120020Y0151203D01*
X0120627Y0150597D01*
X0120627Y0149383D01*
X0120020Y0148777D01*
X0118807Y0148777D01*
X0118200Y0149383D01*
X0117002Y0148777D02*
X0114575Y0148777D01*
X0113377Y0148777D02*
X0112163Y0149990D01*
X0112770Y0149990D02*
X0110950Y0149990D01*
X0110950Y0148777D02*
X0110950Y0152417D01*
X0112770Y0152417D01*
X0113377Y0151810D01*
X0113377Y0150597D01*
X0112770Y0149990D01*
X0114575Y0151203D02*
X0115788Y0152417D01*
X0115788Y0148777D01*
X0115788Y0138667D02*
X0115788Y0135027D01*
X0114575Y0135027D02*
X0117002Y0135027D01*
X0118200Y0136847D02*
X0120627Y0136847D01*
X0120020Y0135027D02*
X0120020Y0138667D01*
X0118200Y0136847D01*
X0115788Y0138667D02*
X0114575Y0137453D01*
X0113377Y0136847D02*
X0112770Y0136240D01*
X0110950Y0136240D01*
X0110950Y0135027D02*
X0110950Y0138667D01*
X0112770Y0138667D01*
X0113377Y0138060D01*
X0113377Y0136847D01*
X0112163Y0136240D02*
X0113377Y0135027D01*
X0103645Y0123917D02*
X0101825Y0122097D01*
X0104252Y0122097D01*
X0103645Y0120277D02*
X0103645Y0123917D01*
X0100627Y0123310D02*
X0100020Y0123917D01*
X0098807Y0123917D01*
X0098200Y0123310D01*
X0098200Y0120883D01*
X0098807Y0120277D01*
X0100020Y0120277D01*
X0100627Y0120883D01*
X0051673Y0107029D02*
X0049246Y0107029D01*
X0050460Y0107029D02*
X0050460Y0110669D01*
X0049246Y0109455D01*
X0048048Y0110669D02*
X0048048Y0107635D01*
X0047441Y0107029D01*
X0046228Y0107029D01*
X0045621Y0107635D01*
X0045621Y0110669D01*
X0156947Y0088472D02*
X0156947Y0087258D01*
X0157554Y0086651D01*
X0156947Y0088472D02*
X0157554Y0089078D01*
X0158160Y0089078D01*
X0160587Y0086651D01*
X0160587Y0089078D01*
X0160587Y0085453D02*
X0160587Y0083026D01*
X0160587Y0084240D02*
X0156947Y0084240D01*
X0158160Y0083026D01*
X0157554Y0081828D02*
X0156947Y0081221D01*
X0156947Y0080008D01*
X0157554Y0079401D01*
X0159980Y0079401D01*
X0160587Y0080008D01*
X0160587Y0081221D01*
X0159980Y0081828D01*
X0208760Y0088633D02*
X0209367Y0088027D01*
X0211793Y0088027D01*
X0212400Y0088633D01*
X0212400Y0089847D01*
X0211793Y0090453D01*
X0212400Y0091652D02*
X0212400Y0094079D01*
X0212400Y0092865D02*
X0208760Y0092865D01*
X0209973Y0091652D01*
X0209367Y0090453D02*
X0208760Y0089847D01*
X0208760Y0088633D01*
X0230447Y0095360D02*
X0230447Y0096573D01*
X0230447Y0095966D02*
X0234087Y0095966D01*
X0234087Y0095360D02*
X0234087Y0096573D01*
X0233480Y0097776D02*
X0234087Y0098383D01*
X0234087Y0099596D01*
X0233480Y0100203D01*
X0234087Y0101401D02*
X0234087Y0103828D01*
X0234087Y0102615D02*
X0230447Y0102615D01*
X0231660Y0101401D01*
X0231054Y0100203D02*
X0230447Y0099596D01*
X0230447Y0098383D01*
X0231054Y0097776D01*
X0233480Y0097776D01*
X0239556Y0079230D02*
X0238950Y0078623D01*
X0238950Y0076196D01*
X0239556Y0075590D01*
X0240770Y0075590D01*
X0241376Y0076196D01*
X0242575Y0075590D02*
X0245002Y0078016D01*
X0245002Y0078623D01*
X0244395Y0079230D01*
X0243182Y0079230D01*
X0242575Y0078623D01*
X0241376Y0078623D02*
X0240770Y0079230D01*
X0239556Y0079230D01*
X0242575Y0075590D02*
X0245002Y0075590D01*
X0234889Y0058385D02*
X0233676Y0057172D01*
X0234889Y0058385D02*
X0234889Y0054745D01*
X0233676Y0054745D02*
X0236102Y0054745D01*
X0232477Y0054745D02*
X0230050Y0054745D01*
X0230050Y0058385D01*
X0311950Y0065277D02*
X0311950Y0068917D01*
X0313770Y0068917D01*
X0314377Y0068310D01*
X0314377Y0067097D01*
X0313770Y0066490D01*
X0311950Y0066490D01*
X0313163Y0066490D02*
X0314377Y0065277D01*
X0315575Y0065883D02*
X0316182Y0065277D01*
X0317395Y0065277D01*
X0318002Y0065883D01*
X0318002Y0068310D01*
X0317395Y0068917D01*
X0316182Y0068917D01*
X0315575Y0068310D01*
X0315575Y0067703D01*
X0316182Y0067097D01*
X0318002Y0067097D01*
X0320700Y0066490D02*
X0322520Y0066490D01*
X0323127Y0067097D01*
X0323127Y0068310D01*
X0322520Y0068917D01*
X0320700Y0068917D01*
X0320700Y0065277D01*
X0321913Y0066490D02*
X0323127Y0065277D01*
X0324325Y0065883D02*
X0324932Y0065277D01*
X0326145Y0065277D01*
X0326752Y0065883D01*
X0326752Y0066490D01*
X0326145Y0067097D01*
X0325538Y0067097D01*
X0326145Y0067097D02*
X0326752Y0067703D01*
X0326752Y0068310D01*
X0326145Y0068917D01*
X0324932Y0068917D01*
X0324325Y0068310D01*
X0331950Y0068917D02*
X0331950Y0065277D01*
X0331950Y0066490D02*
X0333770Y0066490D01*
X0334377Y0067097D01*
X0334377Y0068310D01*
X0333770Y0068917D01*
X0331950Y0068917D01*
X0335575Y0067097D02*
X0338002Y0067097D01*
X0337395Y0065277D02*
X0337395Y0068917D01*
X0335575Y0067097D01*
X0334377Y0065277D02*
X0333163Y0066490D01*
X0340950Y0066240D02*
X0342770Y0066240D01*
X0343377Y0066847D01*
X0343377Y0068060D01*
X0342770Y0068667D01*
X0340950Y0068667D01*
X0340950Y0065027D01*
X0342163Y0066240D02*
X0343377Y0065027D01*
X0344575Y0065027D02*
X0347002Y0065027D01*
X0345788Y0065027D02*
X0345788Y0068667D01*
X0344575Y0067453D01*
X0348200Y0067453D02*
X0348200Y0068060D01*
X0348807Y0068667D01*
X0350020Y0068667D01*
X0350627Y0068060D01*
X0350627Y0067453D01*
X0350020Y0066847D01*
X0348807Y0066847D01*
X0348200Y0067453D01*
X0348807Y0066847D02*
X0348200Y0066240D01*
X0348200Y0065633D01*
X0348807Y0065027D01*
X0350020Y0065027D01*
X0350627Y0065633D01*
X0350627Y0066240D01*
X0350020Y0066847D01*
X0378010Y0055079D02*
X0378010Y0052652D01*
X0379830Y0052652D01*
X0379223Y0053865D01*
X0379223Y0054472D01*
X0379830Y0055079D01*
X0381043Y0055079D01*
X0381650Y0054472D01*
X0381650Y0053258D01*
X0381043Y0052652D01*
X0381043Y0051453D02*
X0381650Y0050847D01*
X0381650Y0049633D01*
X0381043Y0049027D01*
X0378617Y0049027D01*
X0378010Y0049633D01*
X0378010Y0050847D01*
X0378617Y0051453D01*
X0351900Y0090527D02*
X0348260Y0090527D01*
X0348260Y0092347D01*
X0348867Y0092953D01*
X0350080Y0092953D01*
X0350687Y0092347D01*
X0350687Y0090527D01*
X0350687Y0091740D02*
X0351900Y0092953D01*
X0351900Y0094152D02*
X0349473Y0096579D01*
X0348867Y0096579D01*
X0348260Y0095972D01*
X0348260Y0094758D01*
X0348867Y0094152D01*
X0351900Y0094152D02*
X0351900Y0096579D01*
X0351900Y0097777D02*
X0351900Y0100204D01*
X0351900Y0098990D02*
X0348260Y0098990D01*
X0349473Y0097777D01*
X0326150Y0107383D02*
X0326150Y0108597D01*
X0325543Y0109203D01*
X0326150Y0110402D02*
X0326150Y0112829D01*
X0326150Y0111615D02*
X0322510Y0111615D01*
X0323723Y0110402D01*
X0323117Y0109203D02*
X0322510Y0108597D01*
X0322510Y0107383D01*
X0323117Y0106777D01*
X0325543Y0106777D01*
X0326150Y0107383D01*
X0325543Y0114027D02*
X0326150Y0114634D01*
X0326150Y0115847D01*
X0325543Y0116454D01*
X0324937Y0116454D01*
X0324330Y0115847D01*
X0324330Y0115240D01*
X0324330Y0115847D02*
X0323723Y0116454D01*
X0323117Y0116454D01*
X0322510Y0115847D01*
X0322510Y0114634D01*
X0323117Y0114027D01*
X0337510Y0114883D02*
X0338117Y0114277D01*
X0340543Y0114277D01*
X0341150Y0114883D01*
X0341150Y0116097D01*
X0340543Y0116703D01*
X0340543Y0117902D02*
X0339937Y0117902D01*
X0339330Y0118508D01*
X0339330Y0119722D01*
X0339937Y0120329D01*
X0340543Y0120329D01*
X0341150Y0119722D01*
X0341150Y0118508D01*
X0340543Y0117902D01*
X0339330Y0118508D02*
X0338723Y0117902D01*
X0338117Y0117902D01*
X0337510Y0118508D01*
X0337510Y0119722D01*
X0338117Y0120329D01*
X0338723Y0120329D01*
X0339330Y0119722D01*
X0338117Y0116703D02*
X0337510Y0116097D01*
X0337510Y0114883D01*
X0353760Y0114883D02*
X0354367Y0114277D01*
X0356793Y0114277D01*
X0357400Y0114883D01*
X0357400Y0116097D01*
X0356793Y0116703D01*
X0356793Y0117902D02*
X0357400Y0117902D01*
X0356793Y0117902D02*
X0354367Y0120329D01*
X0353760Y0120329D01*
X0353760Y0117902D01*
X0354367Y0116703D02*
X0353760Y0116097D01*
X0353760Y0114883D01*
X0326587Y0127901D02*
X0322947Y0127901D01*
X0322947Y0129721D01*
X0323554Y0130328D01*
X0324767Y0130328D01*
X0325374Y0129721D01*
X0325374Y0127901D01*
X0325374Y0129115D02*
X0326587Y0130328D01*
X0326587Y0131526D02*
X0324160Y0133953D01*
X0323554Y0133953D01*
X0322947Y0133346D01*
X0322947Y0132133D01*
X0323554Y0131526D01*
X0326587Y0131526D02*
X0326587Y0133953D01*
X0325980Y0135151D02*
X0323554Y0137578D01*
X0325980Y0137578D01*
X0326587Y0136972D01*
X0326587Y0135758D01*
X0325980Y0135151D01*
X0323554Y0135151D01*
X0322947Y0135758D01*
X0322947Y0136972D01*
X0323554Y0137578D01*
X0344575Y0141590D02*
X0344575Y0145230D01*
X0346395Y0145230D01*
X0347001Y0144623D01*
X0347001Y0143410D01*
X0346395Y0142803D01*
X0344575Y0142803D01*
X0345788Y0142803D02*
X0347001Y0141590D01*
X0348200Y0141590D02*
X0350626Y0141590D01*
X0349413Y0141590D02*
X0349413Y0145230D01*
X0348200Y0144016D01*
X0351825Y0144016D02*
X0351825Y0144623D01*
X0352432Y0145230D01*
X0353645Y0145230D01*
X0354252Y0144623D01*
X0354252Y0142196D01*
X0353645Y0141590D01*
X0352432Y0141590D01*
X0351825Y0142196D01*
X0352432Y0143410D02*
X0354252Y0143410D01*
X0352432Y0143410D02*
X0351825Y0144016D01*
X0361950Y0145196D02*
X0362556Y0144590D01*
X0363770Y0144590D01*
X0364376Y0145196D01*
X0365575Y0145196D02*
X0365575Y0146410D01*
X0367395Y0146410D01*
X0368002Y0145803D01*
X0368002Y0145196D01*
X0367395Y0144590D01*
X0366182Y0144590D01*
X0365575Y0145196D01*
X0365575Y0146410D02*
X0366788Y0147623D01*
X0368002Y0148230D01*
X0364376Y0147623D02*
X0363770Y0148230D01*
X0362556Y0148230D01*
X0361950Y0147623D01*
X0361950Y0145196D01*
X0383200Y0146446D02*
X0383806Y0145840D01*
X0385020Y0145840D01*
X0385626Y0146446D01*
X0386825Y0146446D02*
X0387432Y0145840D01*
X0388645Y0145840D01*
X0389252Y0146446D01*
X0389252Y0147053D01*
X0388645Y0147660D01*
X0388038Y0147660D01*
X0388645Y0147660D02*
X0389252Y0148266D01*
X0389252Y0148873D01*
X0388645Y0149480D01*
X0387432Y0149480D01*
X0386825Y0148873D01*
X0385626Y0148873D02*
X0385020Y0149480D01*
X0383806Y0149480D01*
X0383200Y0148873D01*
X0383200Y0146446D01*
X0367395Y0166590D02*
X0368002Y0167196D01*
X0368002Y0167803D01*
X0367395Y0168410D01*
X0365575Y0168410D01*
X0365575Y0167196D01*
X0366182Y0166590D01*
X0367395Y0166590D01*
X0365575Y0168410D02*
X0366788Y0169623D01*
X0368002Y0170230D01*
X0363163Y0170230D02*
X0361950Y0169016D01*
X0360751Y0169623D02*
X0360751Y0168410D01*
X0360145Y0167803D01*
X0358325Y0167803D01*
X0359538Y0167803D02*
X0360751Y0166590D01*
X0361950Y0166590D02*
X0364376Y0166590D01*
X0363163Y0166590D02*
X0363163Y0170230D01*
X0360751Y0169623D02*
X0360145Y0170230D01*
X0358325Y0170230D01*
X0358325Y0166590D01*
X0136837Y0035328D02*
X0136837Y0032901D01*
X0136837Y0031703D02*
X0135624Y0030490D01*
X0135624Y0031096D02*
X0135624Y0029276D01*
X0136837Y0029276D02*
X0133197Y0029276D01*
X0133197Y0031096D01*
X0133804Y0031703D01*
X0135017Y0031703D01*
X0135624Y0031096D01*
X0134410Y0032901D02*
X0133197Y0034115D01*
X0136837Y0034115D01*
X0022127Y0048883D02*
X0021520Y0048277D01*
X0020307Y0048277D01*
X0019700Y0048883D01*
X0019700Y0051310D01*
X0018767Y0051578D02*
X0018767Y0049152D01*
X0019980Y0049152D02*
X0017554Y0051578D01*
X0017554Y0050365D02*
X0019980Y0050365D01*
D12*
X0029300Y0190127D03*
X0075550Y0190127D03*
D13*
X0068050Y0195127D02*
X0068050Y0197627D01*
X0070550Y0197627D01*
X0080550Y0197627D02*
X0083050Y0197627D01*
X0083050Y0195127D01*
X0083050Y0185127D02*
X0083050Y0182627D01*
X0080550Y0182627D01*
X0070550Y0182627D02*
X0068050Y0182627D01*
X0068050Y0185127D01*
X0036800Y0185127D02*
X0036800Y0182627D01*
X0034300Y0182627D01*
X0024300Y0182627D02*
X0021800Y0182627D01*
X0021800Y0185127D01*
X0021800Y0195127D02*
X0021800Y0197627D01*
X0024300Y0197627D01*
X0034300Y0197627D02*
X0036800Y0197627D01*
X0036800Y0195127D01*
X0138001Y0128926D02*
X0164202Y0128926D01*
X0165599Y0127528D01*
X0165599Y0101327D01*
X0138001Y0101327D01*
X0138001Y0128926D01*
X0161186Y0125927D02*
X0161188Y0126002D01*
X0161194Y0126076D01*
X0161204Y0126150D01*
X0161217Y0126223D01*
X0161235Y0126296D01*
X0161256Y0126367D01*
X0161281Y0126438D01*
X0161310Y0126507D01*
X0161343Y0126574D01*
X0161379Y0126639D01*
X0161418Y0126703D01*
X0161460Y0126764D01*
X0161506Y0126823D01*
X0161555Y0126880D01*
X0161607Y0126933D01*
X0161661Y0126984D01*
X0161718Y0127033D01*
X0161778Y0127077D01*
X0161840Y0127119D01*
X0161904Y0127158D01*
X0161970Y0127193D01*
X0162037Y0127224D01*
X0162107Y0127252D01*
X0162177Y0127276D01*
X0162249Y0127297D01*
X0162322Y0127313D01*
X0162395Y0127326D01*
X0162470Y0127335D01*
X0162544Y0127340D01*
X0162619Y0127341D01*
X0162693Y0127338D01*
X0162768Y0127331D01*
X0162841Y0127320D01*
X0162915Y0127306D01*
X0162987Y0127287D01*
X0163058Y0127265D01*
X0163128Y0127239D01*
X0163197Y0127209D01*
X0163263Y0127176D01*
X0163328Y0127139D01*
X0163391Y0127099D01*
X0163452Y0127055D01*
X0163510Y0127009D01*
X0163566Y0126959D01*
X0163619Y0126907D01*
X0163670Y0126852D01*
X0163717Y0126794D01*
X0163761Y0126734D01*
X0163802Y0126671D01*
X0163840Y0126607D01*
X0163874Y0126541D01*
X0163905Y0126472D01*
X0163932Y0126403D01*
X0163955Y0126332D01*
X0163974Y0126260D01*
X0163990Y0126187D01*
X0164002Y0126113D01*
X0164010Y0126039D01*
X0164014Y0125964D01*
X0164014Y0125890D01*
X0164010Y0125815D01*
X0164002Y0125741D01*
X0163990Y0125667D01*
X0163974Y0125594D01*
X0163955Y0125522D01*
X0163932Y0125451D01*
X0163905Y0125382D01*
X0163874Y0125313D01*
X0163840Y0125247D01*
X0163802Y0125183D01*
X0163761Y0125120D01*
X0163717Y0125060D01*
X0163670Y0125002D01*
X0163619Y0124947D01*
X0163566Y0124895D01*
X0163510Y0124845D01*
X0163452Y0124799D01*
X0163391Y0124755D01*
X0163328Y0124715D01*
X0163263Y0124678D01*
X0163197Y0124645D01*
X0163128Y0124615D01*
X0163058Y0124589D01*
X0162987Y0124567D01*
X0162915Y0124548D01*
X0162841Y0124534D01*
X0162768Y0124523D01*
X0162693Y0124516D01*
X0162619Y0124513D01*
X0162544Y0124514D01*
X0162470Y0124519D01*
X0162395Y0124528D01*
X0162322Y0124541D01*
X0162249Y0124557D01*
X0162177Y0124578D01*
X0162107Y0124602D01*
X0162037Y0124630D01*
X0161970Y0124661D01*
X0161904Y0124696D01*
X0161840Y0124735D01*
X0161778Y0124777D01*
X0161718Y0124821D01*
X0161661Y0124870D01*
X0161607Y0124921D01*
X0161555Y0124974D01*
X0161506Y0125031D01*
X0161460Y0125090D01*
X0161418Y0125151D01*
X0161379Y0125215D01*
X0161343Y0125280D01*
X0161310Y0125347D01*
X0161281Y0125416D01*
X0161256Y0125487D01*
X0161235Y0125558D01*
X0161217Y0125631D01*
X0161204Y0125704D01*
X0161194Y0125778D01*
X0161188Y0125852D01*
X0161186Y0125927D01*
X0269300Y0111377D02*
X0269300Y0106377D01*
X0271800Y0103877D01*
X0276800Y0103877D01*
X0279300Y0106377D01*
X0279300Y0111377D01*
X0276800Y0113877D01*
X0271800Y0113877D01*
X0269300Y0111377D01*
X0353550Y0111127D02*
X0353550Y0116427D01*
X0353550Y0118927D02*
X0353550Y0124127D01*
X0358550Y0124627D02*
X0358550Y0110627D01*
X0358550Y0104627D02*
X0358550Y0103127D01*
X0384800Y0115627D02*
X0386800Y0115627D01*
X0384800Y0115627D02*
X0384800Y0117627D01*
X0382879Y0117323D02*
X0382879Y0122934D01*
X0384800Y0122627D02*
X0384800Y0124627D01*
X0386800Y0124627D01*
X0391800Y0124627D02*
X0393800Y0124627D01*
X0393800Y0122627D01*
X0393800Y0117627D02*
X0393800Y0115627D01*
X0391800Y0115627D01*
X0370721Y0117323D02*
X0370721Y0122934D01*
X0358550Y0130627D02*
X0358550Y0132127D01*
X0281800Y0166377D02*
X0279300Y0163877D01*
X0269300Y0163877D01*
X0266800Y0166377D01*
X0266800Y0171377D01*
X0269300Y0173877D01*
X0266800Y0176377D01*
X0266800Y0181377D01*
X0269300Y0183877D01*
X0279300Y0183877D01*
X0281800Y0181377D01*
X0281800Y0176377D01*
X0279300Y0173877D01*
X0281800Y0171377D01*
X0281800Y0166377D01*
X0279300Y0173877D02*
X0269300Y0173877D01*
X0298050Y0183877D02*
X0300550Y0181377D01*
X0305550Y0181377D01*
X0308050Y0183877D01*
X0310550Y0181377D01*
X0315550Y0181377D01*
X0318050Y0183877D01*
X0320550Y0181377D01*
X0325550Y0181377D01*
X0328050Y0183877D01*
X0328050Y0193877D01*
X0325550Y0196377D01*
X0320550Y0196377D01*
X0318050Y0193877D01*
X0318050Y0183877D01*
X0308050Y0183877D02*
X0308050Y0193877D01*
X0310550Y0196377D01*
X0315550Y0196377D01*
X0318050Y0193877D01*
X0308050Y0193877D02*
X0305550Y0196377D01*
X0300550Y0196377D01*
X0298050Y0193877D01*
X0298050Y0183877D01*
X0354300Y0183877D02*
X0356800Y0181377D01*
X0361800Y0181377D01*
X0364300Y0183877D01*
X0364300Y0193877D01*
X0361800Y0196377D01*
X0356800Y0196377D01*
X0354300Y0193877D01*
X0354300Y0183877D01*
X0364300Y0183877D02*
X0366800Y0181377D01*
X0371800Y0181377D01*
X0374300Y0183877D01*
X0374300Y0193877D01*
X0376800Y0196377D01*
X0381800Y0196377D01*
X0384300Y0193877D01*
X0386800Y0196377D01*
X0391800Y0196377D01*
X0394300Y0193877D01*
X0394300Y0183877D01*
X0391800Y0181377D01*
X0386800Y0181377D01*
X0384300Y0183877D01*
X0381800Y0181377D01*
X0376800Y0181377D01*
X0374300Y0183877D01*
X0384300Y0183877D02*
X0384300Y0193877D01*
X0374300Y0193877D02*
X0371800Y0196377D01*
X0366800Y0196377D01*
X0364300Y0193877D01*
X0306300Y0054627D02*
X0304300Y0054627D01*
X0306300Y0054627D02*
X0306300Y0052627D01*
X0299300Y0054627D02*
X0297300Y0054627D01*
X0297300Y0052627D01*
X0297300Y0047627D02*
X0297300Y0045627D01*
X0299300Y0045627D01*
X0299300Y0043375D02*
X0304300Y0043375D01*
X0306800Y0040875D01*
X0306800Y0025875D01*
X0304300Y0023375D01*
X0299300Y0023375D01*
X0296800Y0025875D01*
X0294300Y0023375D01*
X0289300Y0023375D01*
X0286800Y0025875D01*
X0286800Y0040875D01*
X0289300Y0043375D01*
X0294300Y0043375D01*
X0296800Y0040875D01*
X0296800Y0025875D01*
X0306800Y0025875D02*
X0309300Y0023375D01*
X0314300Y0023375D01*
X0316800Y0025875D01*
X0316800Y0040875D01*
X0319300Y0043375D01*
X0324300Y0043375D01*
X0326800Y0040875D01*
X0326800Y0025875D01*
X0324300Y0023375D01*
X0319300Y0023375D01*
X0316800Y0025875D01*
X0326800Y0025875D02*
X0329300Y0023375D01*
X0334300Y0023375D01*
X0336800Y0025875D01*
X0336800Y0040875D01*
X0334300Y0043375D01*
X0329300Y0043375D01*
X0326800Y0040875D01*
X0336800Y0040875D02*
X0339300Y0043375D01*
X0344300Y0043375D01*
X0346800Y0040875D01*
X0346800Y0025875D01*
X0344300Y0023375D01*
X0339300Y0023375D01*
X0336800Y0025875D01*
X0346800Y0025875D02*
X0349300Y0023375D01*
X0354300Y0023375D01*
X0356800Y0025875D01*
X0356800Y0040875D01*
X0354300Y0043375D01*
X0349300Y0043375D01*
X0346800Y0040875D01*
X0356800Y0040875D02*
X0359300Y0043375D01*
X0364300Y0043375D01*
X0366800Y0040875D01*
X0366800Y0025875D01*
X0364300Y0023375D01*
X0359300Y0023375D01*
X0356800Y0025875D01*
X0366800Y0025875D02*
X0369300Y0023375D01*
X0374300Y0023375D01*
X0376800Y0025875D01*
X0376800Y0040875D01*
X0374300Y0043375D01*
X0369300Y0043375D01*
X0366800Y0040875D01*
X0376800Y0040875D02*
X0379300Y0043375D01*
X0384300Y0043375D01*
X0386800Y0040875D01*
X0386800Y0025875D01*
X0384300Y0023375D01*
X0379300Y0023375D01*
X0376800Y0025875D01*
X0316800Y0040875D02*
X0314300Y0043375D01*
X0309300Y0043375D01*
X0306800Y0040875D01*
X0306300Y0045627D02*
X0304300Y0045627D01*
X0306300Y0045627D02*
X0306300Y0047627D01*
X0299300Y0043375D02*
X0296800Y0040875D01*
X0241300Y0039627D02*
X0239300Y0039627D01*
X0241300Y0039627D02*
X0241300Y0037627D01*
X0234300Y0039627D02*
X0232300Y0039627D01*
X0232300Y0037627D01*
X0232300Y0032627D02*
X0232300Y0030627D01*
X0234300Y0030627D01*
X0239300Y0030627D02*
X0241300Y0030627D01*
X0241300Y0032627D01*
X0221300Y0032627D02*
X0221300Y0030627D01*
X0219300Y0030627D01*
X0214300Y0030627D02*
X0212300Y0030627D01*
X0212300Y0032627D01*
X0212300Y0037627D02*
X0212300Y0039627D01*
X0214300Y0039627D01*
X0219300Y0039627D02*
X0221300Y0039627D01*
X0221300Y0037627D01*
X0158043Y0046571D02*
X0155427Y0043954D01*
X0153164Y0046217D01*
X0155710Y0048904D02*
X0158043Y0046571D01*
X0135971Y0055197D02*
X0135974Y0055464D01*
X0135984Y0055732D01*
X0136001Y0055999D01*
X0136023Y0056265D01*
X0136053Y0056531D01*
X0136089Y0056796D01*
X0136131Y0057060D01*
X0136180Y0057323D01*
X0136236Y0057585D01*
X0136298Y0057845D01*
X0136366Y0058104D01*
X0136440Y0058361D01*
X0136521Y0058616D01*
X0136608Y0058869D01*
X0136701Y0059120D01*
X0136801Y0059368D01*
X0136906Y0059614D01*
X0137018Y0059857D01*
X0137135Y0060098D01*
X0137258Y0060335D01*
X0137387Y0060570D01*
X0137522Y0060801D01*
X0137662Y0061028D01*
X0137808Y0061253D01*
X0137959Y0061473D01*
X0138116Y0061690D01*
X0138278Y0061903D01*
X0138445Y0062112D01*
X0138617Y0062317D01*
X0138795Y0062517D01*
X0138977Y0062713D01*
X0139164Y0062904D01*
X0139355Y0063091D01*
X0139551Y0063273D01*
X0139751Y0063451D01*
X0139956Y0063623D01*
X0140165Y0063790D01*
X0140378Y0063952D01*
X0140595Y0064109D01*
X0140815Y0064260D01*
X0141040Y0064406D01*
X0141267Y0064546D01*
X0141498Y0064681D01*
X0141733Y0064810D01*
X0141970Y0064933D01*
X0142211Y0065050D01*
X0142454Y0065162D01*
X0142700Y0065267D01*
X0142948Y0065367D01*
X0143199Y0065460D01*
X0143452Y0065547D01*
X0143707Y0065628D01*
X0143964Y0065702D01*
X0144223Y0065770D01*
X0144483Y0065832D01*
X0144745Y0065888D01*
X0145008Y0065937D01*
X0145272Y0065979D01*
X0145537Y0066015D01*
X0145803Y0066045D01*
X0146069Y0066067D01*
X0146336Y0066084D01*
X0146604Y0066094D01*
X0146871Y0066097D01*
X0147138Y0066094D01*
X0147406Y0066084D01*
X0147673Y0066067D01*
X0147939Y0066045D01*
X0148205Y0066015D01*
X0148470Y0065979D01*
X0148734Y0065937D01*
X0148997Y0065888D01*
X0149259Y0065832D01*
X0149519Y0065770D01*
X0149778Y0065702D01*
X0150035Y0065628D01*
X0150290Y0065547D01*
X0150543Y0065460D01*
X0150794Y0065367D01*
X0151042Y0065267D01*
X0151288Y0065162D01*
X0151531Y0065050D01*
X0151772Y0064933D01*
X0152009Y0064810D01*
X0152244Y0064681D01*
X0152475Y0064546D01*
X0152702Y0064406D01*
X0152927Y0064260D01*
X0153147Y0064109D01*
X0153364Y0063952D01*
X0153577Y0063790D01*
X0153786Y0063623D01*
X0153991Y0063451D01*
X0154191Y0063273D01*
X0154387Y0063091D01*
X0154578Y0062904D01*
X0154765Y0062713D01*
X0154947Y0062517D01*
X0155125Y0062317D01*
X0155297Y0062112D01*
X0155464Y0061903D01*
X0155626Y0061690D01*
X0155783Y0061473D01*
X0155934Y0061253D01*
X0156080Y0061028D01*
X0156220Y0060801D01*
X0156355Y0060570D01*
X0156484Y0060335D01*
X0156607Y0060098D01*
X0156724Y0059857D01*
X0156836Y0059614D01*
X0156941Y0059368D01*
X0157041Y0059120D01*
X0157134Y0058869D01*
X0157221Y0058616D01*
X0157302Y0058361D01*
X0157376Y0058104D01*
X0157444Y0057845D01*
X0157506Y0057585D01*
X0157562Y0057323D01*
X0157611Y0057060D01*
X0157653Y0056796D01*
X0157689Y0056531D01*
X0157719Y0056265D01*
X0157741Y0055999D01*
X0157758Y0055732D01*
X0157768Y0055464D01*
X0157771Y0055197D01*
X0157768Y0054930D01*
X0157758Y0054662D01*
X0157741Y0054395D01*
X0157719Y0054129D01*
X0157689Y0053863D01*
X0157653Y0053598D01*
X0157611Y0053334D01*
X0157562Y0053071D01*
X0157506Y0052809D01*
X0157444Y0052549D01*
X0157376Y0052290D01*
X0157302Y0052033D01*
X0157221Y0051778D01*
X0157134Y0051525D01*
X0157041Y0051274D01*
X0156941Y0051026D01*
X0156836Y0050780D01*
X0156724Y0050537D01*
X0156607Y0050296D01*
X0156484Y0050059D01*
X0156355Y0049824D01*
X0156220Y0049593D01*
X0156080Y0049366D01*
X0155934Y0049141D01*
X0155783Y0048921D01*
X0155626Y0048704D01*
X0155464Y0048491D01*
X0155297Y0048282D01*
X0155125Y0048077D01*
X0154947Y0047877D01*
X0154765Y0047681D01*
X0154578Y0047490D01*
X0154387Y0047303D01*
X0154191Y0047121D01*
X0153991Y0046943D01*
X0153786Y0046771D01*
X0153577Y0046604D01*
X0153364Y0046442D01*
X0153147Y0046285D01*
X0152927Y0046134D01*
X0152702Y0045988D01*
X0152475Y0045848D01*
X0152244Y0045713D01*
X0152009Y0045584D01*
X0151772Y0045461D01*
X0151531Y0045344D01*
X0151288Y0045232D01*
X0151042Y0045127D01*
X0150794Y0045027D01*
X0150543Y0044934D01*
X0150290Y0044847D01*
X0150035Y0044766D01*
X0149778Y0044692D01*
X0149519Y0044624D01*
X0149259Y0044562D01*
X0148997Y0044506D01*
X0148734Y0044457D01*
X0148470Y0044415D01*
X0148205Y0044379D01*
X0147939Y0044349D01*
X0147673Y0044327D01*
X0147406Y0044310D01*
X0147138Y0044300D01*
X0146871Y0044297D01*
X0146604Y0044300D01*
X0146336Y0044310D01*
X0146069Y0044327D01*
X0145803Y0044349D01*
X0145537Y0044379D01*
X0145272Y0044415D01*
X0145008Y0044457D01*
X0144745Y0044506D01*
X0144483Y0044562D01*
X0144223Y0044624D01*
X0143964Y0044692D01*
X0143707Y0044766D01*
X0143452Y0044847D01*
X0143199Y0044934D01*
X0142948Y0045027D01*
X0142700Y0045127D01*
X0142454Y0045232D01*
X0142211Y0045344D01*
X0141970Y0045461D01*
X0141733Y0045584D01*
X0141498Y0045713D01*
X0141267Y0045848D01*
X0141040Y0045988D01*
X0140815Y0046134D01*
X0140595Y0046285D01*
X0140378Y0046442D01*
X0140165Y0046604D01*
X0139956Y0046771D01*
X0139751Y0046943D01*
X0139551Y0047121D01*
X0139355Y0047303D01*
X0139164Y0047490D01*
X0138977Y0047681D01*
X0138795Y0047877D01*
X0138617Y0048077D01*
X0138445Y0048282D01*
X0138278Y0048491D01*
X0138116Y0048704D01*
X0137959Y0048921D01*
X0137808Y0049141D01*
X0137662Y0049366D01*
X0137522Y0049593D01*
X0137387Y0049824D01*
X0137258Y0050059D01*
X0137135Y0050296D01*
X0137018Y0050537D01*
X0136906Y0050780D01*
X0136801Y0051026D01*
X0136701Y0051274D01*
X0136608Y0051525D01*
X0136521Y0051778D01*
X0136440Y0052033D01*
X0136366Y0052290D01*
X0136298Y0052549D01*
X0136236Y0052809D01*
X0136180Y0053071D01*
X0136131Y0053334D01*
X0136089Y0053598D01*
X0136053Y0053863D01*
X0136023Y0054129D01*
X0136001Y0054395D01*
X0135984Y0054662D01*
X0135974Y0054930D01*
X0135971Y0055197D01*
X0141497Y0060430D02*
X0141626Y0060557D01*
X0141759Y0060680D01*
X0141895Y0060801D01*
X0142033Y0060917D01*
X0142175Y0061031D01*
X0142319Y0061141D01*
X0142465Y0061247D01*
X0142614Y0061350D01*
X0142766Y0061450D01*
X0142920Y0061545D01*
X0143076Y0061637D01*
X0143235Y0061725D01*
X0143395Y0061810D01*
X0143558Y0061890D01*
X0143722Y0061966D01*
X0143888Y0062039D01*
X0144056Y0062107D01*
X0144225Y0062171D01*
X0144396Y0062231D01*
X0144569Y0062287D01*
X0144742Y0062339D01*
X0144917Y0062387D01*
X0145093Y0062430D01*
X0145270Y0062469D01*
X0145448Y0062504D01*
X0145627Y0062535D01*
X0145806Y0062561D01*
X0145986Y0062583D01*
X0146166Y0062600D01*
X0146347Y0062613D01*
X0146528Y0062622D01*
X0146709Y0062626D01*
X0146891Y0062626D01*
X0147072Y0062622D01*
X0147253Y0062613D01*
X0147434Y0062600D01*
X0147614Y0062583D01*
X0147794Y0062561D01*
X0147973Y0062535D01*
X0148152Y0062504D01*
X0148330Y0062469D01*
X0148507Y0062430D01*
X0148683Y0062387D01*
X0148858Y0062339D01*
X0149031Y0062287D01*
X0149204Y0062231D01*
X0149375Y0062171D01*
X0149544Y0062107D01*
X0149712Y0062039D01*
X0149878Y0061966D01*
X0150042Y0061890D01*
X0150205Y0061810D01*
X0150365Y0061725D01*
X0150524Y0061637D01*
X0150680Y0061545D01*
X0150834Y0061450D01*
X0150986Y0061350D01*
X0151135Y0061247D01*
X0151281Y0061141D01*
X0151425Y0061031D01*
X0151567Y0060917D01*
X0151705Y0060801D01*
X0151841Y0060680D01*
X0151974Y0060557D01*
X0152103Y0060430D01*
X0138300Y0055127D02*
X0138303Y0055336D01*
X0138310Y0055544D01*
X0138323Y0055752D01*
X0138341Y0055960D01*
X0138364Y0056167D01*
X0138392Y0056374D01*
X0138425Y0056580D01*
X0138463Y0056785D01*
X0138507Y0056989D01*
X0138555Y0057192D01*
X0138608Y0057394D01*
X0138666Y0057594D01*
X0138729Y0057793D01*
X0138797Y0057991D01*
X0138870Y0058186D01*
X0138947Y0058380D01*
X0139029Y0058572D01*
X0139116Y0058761D01*
X0139208Y0058949D01*
X0139304Y0059134D01*
X0139404Y0059317D01*
X0139509Y0059497D01*
X0139619Y0059674D01*
X0139733Y0059849D01*
X0139851Y0060021D01*
X0139973Y0060190D01*
X0140099Y0060356D01*
X0140229Y0060519D01*
X0140364Y0060679D01*
X0140502Y0060835D01*
X0140644Y0060988D01*
X0140790Y0061137D01*
X0140939Y0061283D01*
X0141092Y0061425D01*
X0141248Y0061563D01*
X0141408Y0061698D01*
X0141571Y0061828D01*
X0141737Y0061954D01*
X0141906Y0062076D01*
X0142078Y0062194D01*
X0142253Y0062308D01*
X0142430Y0062418D01*
X0142610Y0062523D01*
X0142793Y0062623D01*
X0142978Y0062719D01*
X0143166Y0062811D01*
X0143355Y0062898D01*
X0143547Y0062980D01*
X0143741Y0063057D01*
X0143936Y0063130D01*
X0144134Y0063198D01*
X0144333Y0063261D01*
X0144533Y0063319D01*
X0144735Y0063372D01*
X0144938Y0063420D01*
X0145142Y0063464D01*
X0145347Y0063502D01*
X0145553Y0063535D01*
X0145760Y0063563D01*
X0145967Y0063586D01*
X0146175Y0063604D01*
X0146383Y0063617D01*
X0146591Y0063624D01*
X0146800Y0063627D01*
X0147009Y0063624D01*
X0147217Y0063617D01*
X0147425Y0063604D01*
X0147633Y0063586D01*
X0147840Y0063563D01*
X0148047Y0063535D01*
X0148253Y0063502D01*
X0148458Y0063464D01*
X0148662Y0063420D01*
X0148865Y0063372D01*
X0149067Y0063319D01*
X0149267Y0063261D01*
X0149466Y0063198D01*
X0149664Y0063130D01*
X0149859Y0063057D01*
X0150053Y0062980D01*
X0150245Y0062898D01*
X0150434Y0062811D01*
X0150622Y0062719D01*
X0150807Y0062623D01*
X0150990Y0062523D01*
X0151170Y0062418D01*
X0151347Y0062308D01*
X0151522Y0062194D01*
X0151694Y0062076D01*
X0151863Y0061954D01*
X0152029Y0061828D01*
X0152192Y0061698D01*
X0152352Y0061563D01*
X0152508Y0061425D01*
X0152661Y0061283D01*
X0152810Y0061137D01*
X0152956Y0060988D01*
X0153098Y0060835D01*
X0153236Y0060679D01*
X0153371Y0060519D01*
X0153501Y0060356D01*
X0153627Y0060190D01*
X0153749Y0060021D01*
X0153867Y0059849D01*
X0153981Y0059674D01*
X0154091Y0059497D01*
X0154196Y0059317D01*
X0154296Y0059134D01*
X0154392Y0058949D01*
X0154484Y0058761D01*
X0154571Y0058572D01*
X0154653Y0058380D01*
X0154730Y0058186D01*
X0154803Y0057991D01*
X0154871Y0057793D01*
X0154934Y0057594D01*
X0154992Y0057394D01*
X0155045Y0057192D01*
X0155093Y0056989D01*
X0155137Y0056785D01*
X0155175Y0056580D01*
X0155208Y0056374D01*
X0155236Y0056167D01*
X0155259Y0055960D01*
X0155277Y0055752D01*
X0155290Y0055544D01*
X0155297Y0055336D01*
X0155300Y0055127D01*
X0155297Y0054918D01*
X0155290Y0054710D01*
X0155277Y0054502D01*
X0155259Y0054294D01*
X0155236Y0054087D01*
X0155208Y0053880D01*
X0155175Y0053674D01*
X0155137Y0053469D01*
X0155093Y0053265D01*
X0155045Y0053062D01*
X0154992Y0052860D01*
X0154934Y0052660D01*
X0154871Y0052461D01*
X0154803Y0052263D01*
X0154730Y0052068D01*
X0154653Y0051874D01*
X0154571Y0051682D01*
X0154484Y0051493D01*
X0154392Y0051305D01*
X0154296Y0051120D01*
X0154196Y0050937D01*
X0154091Y0050757D01*
X0153981Y0050580D01*
X0153867Y0050405D01*
X0153749Y0050233D01*
X0153627Y0050064D01*
X0153501Y0049898D01*
X0153371Y0049735D01*
X0153236Y0049575D01*
X0153098Y0049419D01*
X0152956Y0049266D01*
X0152810Y0049117D01*
X0152661Y0048971D01*
X0152508Y0048829D01*
X0152352Y0048691D01*
X0152192Y0048556D01*
X0152029Y0048426D01*
X0151863Y0048300D01*
X0151694Y0048178D01*
X0151522Y0048060D01*
X0151347Y0047946D01*
X0151170Y0047836D01*
X0150990Y0047731D01*
X0150807Y0047631D01*
X0150622Y0047535D01*
X0150434Y0047443D01*
X0150245Y0047356D01*
X0150053Y0047274D01*
X0149859Y0047197D01*
X0149664Y0047124D01*
X0149466Y0047056D01*
X0149267Y0046993D01*
X0149067Y0046935D01*
X0148865Y0046882D01*
X0148662Y0046834D01*
X0148458Y0046790D01*
X0148253Y0046752D01*
X0148047Y0046719D01*
X0147840Y0046691D01*
X0147633Y0046668D01*
X0147425Y0046650D01*
X0147217Y0046637D01*
X0147009Y0046630D01*
X0146800Y0046627D01*
X0146591Y0046630D01*
X0146383Y0046637D01*
X0146175Y0046650D01*
X0145967Y0046668D01*
X0145760Y0046691D01*
X0145553Y0046719D01*
X0145347Y0046752D01*
X0145142Y0046790D01*
X0144938Y0046834D01*
X0144735Y0046882D01*
X0144533Y0046935D01*
X0144333Y0046993D01*
X0144134Y0047056D01*
X0143936Y0047124D01*
X0143741Y0047197D01*
X0143547Y0047274D01*
X0143355Y0047356D01*
X0143166Y0047443D01*
X0142978Y0047535D01*
X0142793Y0047631D01*
X0142610Y0047731D01*
X0142430Y0047836D01*
X0142253Y0047946D01*
X0142078Y0048060D01*
X0141906Y0048178D01*
X0141737Y0048300D01*
X0141571Y0048426D01*
X0141408Y0048556D01*
X0141248Y0048691D01*
X0141092Y0048829D01*
X0140939Y0048971D01*
X0140790Y0049117D01*
X0140644Y0049266D01*
X0140502Y0049419D01*
X0140364Y0049575D01*
X0140229Y0049735D01*
X0140099Y0049898D01*
X0139973Y0050064D01*
X0139851Y0050233D01*
X0139733Y0050405D01*
X0139619Y0050580D01*
X0139509Y0050757D01*
X0139404Y0050937D01*
X0139304Y0051120D01*
X0139208Y0051305D01*
X0139116Y0051493D01*
X0139029Y0051682D01*
X0138947Y0051874D01*
X0138870Y0052068D01*
X0138797Y0052263D01*
X0138729Y0052461D01*
X0138666Y0052660D01*
X0138608Y0052860D01*
X0138555Y0053062D01*
X0138507Y0053265D01*
X0138463Y0053469D01*
X0138425Y0053674D01*
X0138392Y0053880D01*
X0138364Y0054087D01*
X0138341Y0054294D01*
X0138323Y0054502D01*
X0138310Y0054710D01*
X0138303Y0054918D01*
X0138300Y0055127D01*
X0143264Y0058663D02*
X0143365Y0058760D01*
X0143468Y0058855D01*
X0143574Y0058947D01*
X0143683Y0059036D01*
X0143793Y0059122D01*
X0143907Y0059205D01*
X0144022Y0059284D01*
X0144140Y0059361D01*
X0144260Y0059434D01*
X0144381Y0059503D01*
X0144505Y0059569D01*
X0144631Y0059632D01*
X0144758Y0059691D01*
X0144887Y0059746D01*
X0145017Y0059798D01*
X0145149Y0059846D01*
X0145282Y0059891D01*
X0145416Y0059932D01*
X0145551Y0059969D01*
X0145687Y0060002D01*
X0145825Y0060031D01*
X0145962Y0060056D01*
X0146101Y0060078D01*
X0146240Y0060096D01*
X0146380Y0060109D01*
X0146520Y0060119D01*
X0146660Y0060125D01*
X0146800Y0060127D01*
X0146940Y0060125D01*
X0147080Y0060119D01*
X0147220Y0060109D01*
X0147360Y0060096D01*
X0147499Y0060078D01*
X0147638Y0060056D01*
X0147775Y0060031D01*
X0147913Y0060002D01*
X0148049Y0059969D01*
X0148184Y0059932D01*
X0148318Y0059891D01*
X0148451Y0059846D01*
X0148583Y0059798D01*
X0148713Y0059746D01*
X0148842Y0059691D01*
X0148969Y0059632D01*
X0149095Y0059569D01*
X0149219Y0059503D01*
X0149340Y0059434D01*
X0149460Y0059361D01*
X0149578Y0059284D01*
X0149693Y0059205D01*
X0149807Y0059122D01*
X0149917Y0059036D01*
X0150026Y0058947D01*
X0150132Y0058855D01*
X0150235Y0058760D01*
X0150336Y0058663D01*
X0150336Y0051591D02*
X0150235Y0051494D01*
X0150132Y0051399D01*
X0150026Y0051307D01*
X0149917Y0051218D01*
X0149807Y0051132D01*
X0149693Y0051049D01*
X0149578Y0050970D01*
X0149460Y0050893D01*
X0149340Y0050820D01*
X0149219Y0050751D01*
X0149095Y0050685D01*
X0148969Y0050622D01*
X0148842Y0050563D01*
X0148713Y0050508D01*
X0148583Y0050456D01*
X0148451Y0050408D01*
X0148318Y0050363D01*
X0148184Y0050322D01*
X0148049Y0050285D01*
X0147913Y0050252D01*
X0147775Y0050223D01*
X0147638Y0050198D01*
X0147499Y0050176D01*
X0147360Y0050158D01*
X0147220Y0050145D01*
X0147080Y0050135D01*
X0146940Y0050129D01*
X0146800Y0050127D01*
X0146660Y0050129D01*
X0146520Y0050135D01*
X0146380Y0050145D01*
X0146240Y0050158D01*
X0146101Y0050176D01*
X0145962Y0050198D01*
X0145825Y0050223D01*
X0145687Y0050252D01*
X0145551Y0050285D01*
X0145416Y0050322D01*
X0145282Y0050363D01*
X0145149Y0050408D01*
X0145017Y0050456D01*
X0144887Y0050508D01*
X0144758Y0050563D01*
X0144631Y0050622D01*
X0144505Y0050685D01*
X0144381Y0050751D01*
X0144260Y0050820D01*
X0144140Y0050893D01*
X0144022Y0050970D01*
X0143907Y0051049D01*
X0143793Y0051132D01*
X0143683Y0051218D01*
X0143574Y0051307D01*
X0143468Y0051399D01*
X0143365Y0051494D01*
X0143264Y0051591D01*
X0141497Y0049824D02*
X0141626Y0049697D01*
X0141759Y0049574D01*
X0141895Y0049453D01*
X0142033Y0049337D01*
X0142175Y0049223D01*
X0142319Y0049113D01*
X0142465Y0049007D01*
X0142614Y0048904D01*
X0142766Y0048804D01*
X0142920Y0048709D01*
X0143076Y0048617D01*
X0143235Y0048529D01*
X0143395Y0048444D01*
X0143558Y0048364D01*
X0143722Y0048288D01*
X0143888Y0048215D01*
X0144056Y0048147D01*
X0144225Y0048083D01*
X0144396Y0048023D01*
X0144569Y0047967D01*
X0144742Y0047915D01*
X0144917Y0047867D01*
X0145093Y0047824D01*
X0145270Y0047785D01*
X0145448Y0047750D01*
X0145627Y0047719D01*
X0145806Y0047693D01*
X0145986Y0047671D01*
X0146166Y0047654D01*
X0146347Y0047641D01*
X0146528Y0047632D01*
X0146709Y0047628D01*
X0146891Y0047628D01*
X0147072Y0047632D01*
X0147253Y0047641D01*
X0147434Y0047654D01*
X0147614Y0047671D01*
X0147794Y0047693D01*
X0147973Y0047719D01*
X0148152Y0047750D01*
X0148330Y0047785D01*
X0148507Y0047824D01*
X0148683Y0047867D01*
X0148858Y0047915D01*
X0149031Y0047967D01*
X0149204Y0048023D01*
X0149375Y0048083D01*
X0149544Y0048147D01*
X0149712Y0048215D01*
X0149878Y0048288D01*
X0150042Y0048364D01*
X0150205Y0048444D01*
X0150365Y0048529D01*
X0150524Y0048617D01*
X0150680Y0048709D01*
X0150834Y0048804D01*
X0150986Y0048904D01*
X0151135Y0049007D01*
X0151281Y0049113D01*
X0151425Y0049223D01*
X0151567Y0049337D01*
X0151705Y0049453D01*
X0151841Y0049574D01*
X0151974Y0049697D01*
X0152103Y0049824D01*
X0078077Y0060496D02*
X0075141Y0060496D01*
X0076609Y0060496D02*
X0076609Y0064899D01*
X0075141Y0063431D01*
X0076800Y0031377D02*
X0071800Y0031377D01*
X0069300Y0028877D01*
X0066800Y0031377D01*
X0061800Y0031377D01*
X0059300Y0028877D01*
X0059300Y0018877D01*
X0061800Y0016377D01*
X0066800Y0016377D01*
X0069300Y0018877D01*
X0069300Y0028877D01*
X0076800Y0031377D02*
X0079300Y0028877D01*
X0079300Y0018877D01*
X0076800Y0016377D01*
X0071800Y0016377D01*
X0069300Y0018877D01*
X0059300Y0018877D02*
X0056800Y0016377D01*
X0051800Y0016377D01*
X0049300Y0018877D01*
X0046800Y0016377D01*
X0041800Y0016377D01*
X0039300Y0018877D01*
X0036800Y0016377D01*
X0031800Y0016377D01*
X0029300Y0018877D01*
X0026800Y0016377D01*
X0021800Y0016377D01*
X0019300Y0018877D01*
X0019300Y0028877D01*
X0021800Y0031377D01*
X0026800Y0031377D01*
X0029300Y0028877D01*
X0031800Y0031377D01*
X0036800Y0031377D01*
X0039300Y0028877D01*
X0041800Y0031377D01*
X0046800Y0031377D01*
X0049300Y0028877D01*
X0051800Y0031377D01*
X0056800Y0031377D01*
X0059300Y0028877D01*
X0049300Y0028877D02*
X0049300Y0018877D01*
X0039300Y0018877D02*
X0039300Y0028877D01*
X0029300Y0028877D02*
X0029300Y0018877D01*
D14*
X0077382Y0021690D02*
X0077382Y0025230D01*
X0079742Y0025230D01*
X0081007Y0025230D02*
X0083367Y0025230D01*
X0082187Y0025230D02*
X0082187Y0021690D01*
X0084632Y0021690D02*
X0086402Y0021690D01*
X0086992Y0022280D01*
X0086992Y0024640D01*
X0086402Y0025230D01*
X0084632Y0025230D01*
X0084632Y0021690D01*
X0088257Y0021690D02*
X0089437Y0021690D01*
X0088847Y0021690D02*
X0088847Y0025230D01*
X0088257Y0025230D02*
X0089437Y0025230D01*
X0094299Y0025230D02*
X0096069Y0025230D01*
X0096659Y0024640D01*
X0096659Y0023460D01*
X0096069Y0022870D01*
X0094299Y0022870D01*
X0095479Y0022870D02*
X0096659Y0021690D01*
X0097924Y0021690D02*
X0097924Y0025230D01*
X0100284Y0021690D01*
X0100284Y0025230D01*
X0101549Y0024640D02*
X0102139Y0025230D01*
X0103319Y0025230D01*
X0103909Y0024640D01*
X0103909Y0024050D01*
X0101549Y0021690D01*
X0103909Y0021690D01*
X0105174Y0023460D02*
X0107535Y0023460D01*
X0108800Y0024050D02*
X0108800Y0024640D01*
X0109390Y0025230D01*
X0110570Y0025230D01*
X0111160Y0024640D01*
X0111160Y0024050D01*
X0110570Y0023460D01*
X0109390Y0023460D01*
X0108800Y0024050D01*
X0109390Y0023460D02*
X0108800Y0022870D01*
X0108800Y0022280D01*
X0109390Y0021690D01*
X0110570Y0021690D01*
X0111160Y0022280D01*
X0111160Y0022870D01*
X0110570Y0023460D01*
X0112425Y0024640D02*
X0113015Y0025230D01*
X0114195Y0025230D01*
X0114785Y0024640D01*
X0114785Y0024050D01*
X0114195Y0023460D01*
X0114785Y0022870D01*
X0114785Y0022280D01*
X0114195Y0021690D01*
X0113015Y0021690D01*
X0112425Y0022280D01*
X0113605Y0023460D02*
X0114195Y0023460D01*
X0106945Y0021690D02*
X0106945Y0025230D01*
X0105174Y0023460D01*
X0094299Y0021690D02*
X0094299Y0025230D01*
X0093034Y0021100D02*
X0090674Y0021100D01*
X0078562Y0023460D02*
X0077382Y0023460D01*
X0122286Y0050228D02*
X0122286Y0053768D01*
X0124056Y0053768D01*
X0124646Y0053178D01*
X0124646Y0051998D01*
X0124056Y0051408D01*
X0122286Y0051408D01*
X0125911Y0051998D02*
X0128271Y0051998D01*
X0128271Y0053768D02*
X0128271Y0050228D01*
X0125911Y0050228D02*
X0125911Y0053768D01*
X0129536Y0053768D02*
X0131896Y0053768D01*
X0130716Y0053768D02*
X0130716Y0050228D01*
X0216767Y0048562D02*
X0216767Y0046202D01*
X0235587Y0048632D02*
X0237947Y0048632D01*
X0236767Y0047452D02*
X0236767Y0049812D01*
X0297560Y0057077D02*
X0297560Y0058847D01*
X0298150Y0059437D01*
X0300510Y0059437D01*
X0301100Y0058847D01*
X0301100Y0057077D01*
X0297560Y0057077D01*
X0298150Y0060702D02*
X0297560Y0061292D01*
X0297560Y0062472D01*
X0298150Y0063062D01*
X0300510Y0063062D01*
X0301100Y0062472D01*
X0301100Y0061292D01*
X0300510Y0060702D01*
X0298150Y0060702D01*
X0299920Y0061882D02*
X0301100Y0063062D01*
X0330750Y0049615D02*
X0331930Y0049615D01*
X0331340Y0049615D02*
X0331340Y0046075D01*
X0330750Y0046075D02*
X0331930Y0046075D01*
X0333167Y0046075D02*
X0335527Y0048435D01*
X0335527Y0049025D01*
X0334937Y0049615D01*
X0333757Y0049615D01*
X0333167Y0049025D01*
X0333167Y0046075D02*
X0335527Y0046075D01*
X0336792Y0046665D02*
X0337382Y0046075D01*
X0338562Y0046075D01*
X0339152Y0046665D01*
X0340417Y0045485D02*
X0342777Y0045485D01*
X0344042Y0046075D02*
X0346402Y0046075D01*
X0347667Y0046075D02*
X0350027Y0049615D01*
X0351292Y0049615D02*
X0353652Y0049615D01*
X0352472Y0049615D02*
X0352472Y0046075D01*
X0350027Y0046075D02*
X0347667Y0049615D01*
X0346402Y0049615D02*
X0344042Y0049615D01*
X0344042Y0046075D01*
X0344042Y0047845D02*
X0345222Y0047845D01*
X0339152Y0049025D02*
X0338562Y0049615D01*
X0337382Y0049615D01*
X0336792Y0049025D01*
X0336792Y0046665D01*
X0366060Y0113327D02*
X0366060Y0114507D01*
X0366060Y0113917D02*
X0369600Y0113917D01*
X0369600Y0113327D02*
X0369600Y0114507D01*
X0369010Y0115743D02*
X0369600Y0116333D01*
X0369600Y0117513D01*
X0369010Y0118103D01*
X0369010Y0119369D02*
X0369600Y0119959D01*
X0369600Y0121139D01*
X0369010Y0121729D01*
X0368420Y0121729D01*
X0367830Y0121139D01*
X0367830Y0120549D01*
X0367830Y0121139D02*
X0367240Y0121729D01*
X0366650Y0121729D01*
X0366060Y0121139D01*
X0366060Y0119959D01*
X0366650Y0119369D01*
X0366650Y0118103D02*
X0366060Y0117513D01*
X0366060Y0116333D01*
X0366650Y0115743D01*
X0369010Y0115743D01*
X0234550Y0155461D02*
X0234550Y0159792D01*
X0227550Y0159792D02*
X0227550Y0155461D01*
X0226550Y0155461D02*
X0226550Y0159792D01*
D15*
X0148631Y0163867D02*
X0148631Y0174890D01*
X0136820Y0174890D02*
X0136820Y0163867D01*
X0136820Y0154024D02*
X0148631Y0154024D01*
X0144694Y0154418D02*
X0144692Y0154505D01*
X0144686Y0154592D01*
X0144677Y0154679D01*
X0144663Y0154765D01*
X0144646Y0154850D01*
X0144625Y0154935D01*
X0144600Y0155018D01*
X0144572Y0155101D01*
X0144540Y0155182D01*
X0144504Y0155261D01*
X0144465Y0155339D01*
X0144423Y0155415D01*
X0144377Y0155489D01*
X0144328Y0155561D01*
X0144276Y0155631D01*
X0144221Y0155698D01*
X0144163Y0155763D01*
X0144102Y0155826D01*
X0144038Y0155885D01*
X0143972Y0155942D01*
X0143903Y0155995D01*
X0143832Y0156046D01*
X0143759Y0156093D01*
X0143684Y0156138D01*
X0143607Y0156178D01*
X0143529Y0156216D01*
X0143448Y0156249D01*
X0143367Y0156280D01*
X0143284Y0156306D01*
X0143199Y0156329D01*
X0143114Y0156348D01*
X0143029Y0156363D01*
X0142942Y0156375D01*
X0142856Y0156383D01*
X0142769Y0156387D01*
X0142681Y0156387D01*
X0142594Y0156383D01*
X0142508Y0156375D01*
X0142421Y0156363D01*
X0142336Y0156348D01*
X0142251Y0156329D01*
X0142166Y0156306D01*
X0142083Y0156280D01*
X0142002Y0156249D01*
X0141921Y0156216D01*
X0141843Y0156178D01*
X0141766Y0156138D01*
X0141691Y0156093D01*
X0141618Y0156046D01*
X0141547Y0155995D01*
X0141478Y0155942D01*
X0141412Y0155885D01*
X0141348Y0155826D01*
X0141287Y0155763D01*
X0141229Y0155698D01*
X0141174Y0155631D01*
X0141122Y0155561D01*
X0141073Y0155489D01*
X0141027Y0155415D01*
X0140985Y0155339D01*
X0140946Y0155261D01*
X0140910Y0155182D01*
X0140878Y0155101D01*
X0140850Y0155018D01*
X0140825Y0154935D01*
X0140804Y0154850D01*
X0140787Y0154765D01*
X0140773Y0154679D01*
X0140764Y0154592D01*
X0140758Y0154505D01*
X0140756Y0154418D01*
X0087341Y0158196D02*
X0087341Y0160196D01*
X0070341Y0160196D01*
X0034341Y0160196D02*
X0017341Y0160196D01*
X0017341Y0158196D01*
X0136820Y0184733D02*
X0148631Y0184733D01*
X0226751Y0070245D02*
X0239349Y0070245D01*
X0239349Y0060009D02*
X0226751Y0060009D01*
X0087341Y0057196D02*
X0087341Y0055196D01*
X0017341Y0055196D01*
X0017341Y0057196D01*
D16*
X0216680Y0090127D02*
X0216920Y0090127D01*
D17*
X0226150Y0126190D02*
X0226150Y0134064D01*
X0237450Y0134064D02*
X0237450Y0126190D01*
X0225906Y0126677D02*
X0225908Y0126716D01*
X0225914Y0126755D01*
X0225924Y0126793D01*
X0225937Y0126830D01*
X0225954Y0126865D01*
X0225974Y0126899D01*
X0225998Y0126930D01*
X0226025Y0126959D01*
X0226054Y0126985D01*
X0226086Y0127008D01*
X0226120Y0127028D01*
X0226156Y0127044D01*
X0226193Y0127056D01*
X0226232Y0127065D01*
X0226271Y0127070D01*
X0226310Y0127071D01*
X0226349Y0127068D01*
X0226388Y0127061D01*
X0226425Y0127050D01*
X0226462Y0127036D01*
X0226497Y0127018D01*
X0226530Y0126997D01*
X0226561Y0126972D01*
X0226589Y0126945D01*
X0226614Y0126915D01*
X0226636Y0126882D01*
X0226655Y0126848D01*
X0226670Y0126812D01*
X0226682Y0126774D01*
X0226690Y0126736D01*
X0226694Y0126697D01*
X0226694Y0126657D01*
X0226690Y0126618D01*
X0226682Y0126580D01*
X0226670Y0126542D01*
X0226655Y0126506D01*
X0226636Y0126472D01*
X0226614Y0126439D01*
X0226589Y0126409D01*
X0226561Y0126382D01*
X0226530Y0126357D01*
X0226497Y0126336D01*
X0226462Y0126318D01*
X0226425Y0126304D01*
X0226388Y0126293D01*
X0226349Y0126286D01*
X0226310Y0126283D01*
X0226271Y0126284D01*
X0226232Y0126289D01*
X0226193Y0126298D01*
X0226156Y0126310D01*
X0226120Y0126326D01*
X0226086Y0126346D01*
X0226054Y0126369D01*
X0226025Y0126395D01*
X0225998Y0126424D01*
X0225974Y0126455D01*
X0225954Y0126489D01*
X0225937Y0126524D01*
X0225924Y0126561D01*
X0225914Y0126599D01*
X0225908Y0126638D01*
X0225906Y0126677D01*
D18*
X0351050Y0118927D02*
X0353550Y0118927D01*
X0356050Y0118927D01*
X0356050Y0116427D02*
X0353550Y0116427D01*
X0351050Y0116427D01*
M02*
