%
M48
M72
T01C0.01200
T02C0.01969
T03C0.02362
T04C0.03200
T05C0.04000
T06C0.07874
%
T01
X141072Y103138
X224733Y71150
X341367Y68690
X130245Y105599
X127784Y96249
X137627Y100678
X276406Y22922
X282312Y28827
X144024Y107568
X169123Y82469
X297568Y45068
X203572Y105599
X209969Y105599
X257213Y98709
X203572Y109044
X209969Y109044
X189792Y109044
X282312Y21446
X328572Y60816
X203572Y113965
X318729Y60816
X179457Y122823
X144024Y111012
X164202Y90835
X141564Y115934
X116465Y110028
X121879Y115442
X125816Y100678
X129261Y111012
X209969Y101662
X203572Y102154
X140087Y122823
X373847Y143493
X373847Y136603
X162233Y103138
X219812Y77548
X353178Y111505
X144024Y122331
X173552Y104123
X365973Y136111
X371879Y104123
T02
X60294Y145255
X76042Y145255
X76042Y153129
X68168Y153129
X68168Y145255
X60294Y153129
X52420Y153129
X52420Y145255
X44546Y153129
X44546Y145255
X36672Y145255
X36672Y153129
X28798Y145255
X28798Y153129
X28798Y161003
X20924Y161003
X28798Y168877
X20924Y168877
X13050Y168877
X13050Y161003
X20924Y176751
X13050Y176751
X12676Y184251
X12676Y192125
X36672Y168877
X52420Y168877
X62026Y168877
X68168Y168877
X76042Y168877
X76042Y161003
X83916Y161003
X83916Y168877
X83916Y176751
X91790Y176751
X91790Y168877
X91790Y161003
X130914Y193001
X138788Y193001
X154536Y193001
X146662Y193001
X130914Y145757
X136997Y145757
X154536Y145757
X147627Y145757
X129487Y161505
X130914Y169379
X130914Y185127
X129487Y177253
X130914Y153631
X155963Y161505
X154536Y169379
X154536Y185127
X155963Y177253
X154536Y153631
X150225Y123877
X151800Y77390
X143050Y77390
X175127Y147627
X111170Y115491
X141800Y25747
X242174Y161012
X230540Y146012
X153375Y107627
X159024Y123877
X78670Y110491
X24920Y90491
X78670Y60491
X78670Y95491
X24920Y60491
X24920Y130491
X322420Y175363
X80914Y24379
X239290Y88877
X223040Y91377
X216790Y97627
X224290Y82627
X52420Y192627
X52420Y185127
X52420Y177627
X63670Y75491
X38670Y65491
X216170Y172991
X226170Y171741
X213670Y147991
X150786Y145757
X154536Y149507
X154713Y165255
X154536Y173129
X154536Y188877
X155963Y181003
X155786Y157381
X130914Y149507
X130737Y165255
X130914Y173129
X130914Y188877
X129487Y181003
X129664Y157381
X135038Y193001
X150786Y193001
X142912Y193001
X91918Y184625
X91918Y192499
X62026Y184625
X62026Y192499
X43089Y184625
X43089Y192499
X36672Y199999
X68168Y199999
X52420Y200127
X62026Y199999
X43089Y199999
X13670Y35491
X10048Y141505
X118670Y30491
X178670Y45491
X333670Y85491
X274920Y52991
X259920Y27991
X194920Y91741
X213670Y129241
X384920Y157991
X272420Y66741
X121170Y127991
X328670Y122991
X348670Y132991
X364920Y151741
X376170Y109241
X252420Y126741
X97420Y126741
X117420Y101741
X126170Y64241
X226800Y117627
X221800Y164625
X226800Y138877
X225550Y147627
X94300Y135127
X80550Y135127
X243926Y65127
X243926Y92686
T03
X54300Y111377
T04
X151750Y55127
X141850Y55127
X360550Y107627
X360550Y127627
T05
X216800Y35127
X236800Y35127
X381800Y38375
X381800Y28375
X371800Y38375
X371800Y28375
X361800Y38375
X361800Y28375
X351800Y38375
X351800Y28375
X341800Y38375
X341800Y28375
X331800Y38375
X331800Y28375
X321800Y38375
X321800Y28375
X311800Y38375
X311800Y28375
X301800Y38375
X301800Y28375
X291800Y38375
X291800Y28375
X301800Y50127
X74300Y23877
X64300Y23877
X54300Y23877
X44300Y23877
X34300Y23877
X24300Y23877
X274300Y108877
X274300Y168877
X274300Y178877
X303050Y188877
X313050Y188877
X323050Y188877
X389300Y188877
X379300Y188877
X369300Y188877
X359300Y188877
X389300Y120127
T06
X29300Y190127
X75550Y190127
M30
