%
M48
M72
T01C0.01969
T02C0.03200
T03C0.04000
T04C0.07874
%
T01
X60294Y136928
X76042Y136928
X76042Y144802
X68168Y144802
X68168Y136928
X60294Y144802
X52420Y144802
X52420Y136928
X44546Y144802
X44546Y136928
X36672Y136928
X36672Y144802
X28798Y136928
X28798Y144802
X28798Y152676
X20924Y152676
X28798Y160550
X20924Y160550
X13050Y160550
X13050Y152676
X20924Y168424
X13050Y168424
X12676Y175924
X12676Y183798
X36672Y160550
X52420Y160550
X62026Y160550
X68168Y160550
X76042Y160550
X76042Y152676
X83916Y152676
X83916Y160550
X83916Y168424
X91790Y168424
X91790Y160550
X91790Y152676
X130914Y180924
X138788Y180924
X154536Y180924
X146662Y180924
X130914Y137430
X136997Y137430
X154536Y137430
X147627Y137430
X129487Y153178
X130914Y161052
X130914Y176800
X129487Y168926
X130914Y145304
X155963Y153178
X154536Y161052
X154536Y176800
X155963Y168926
X154536Y145304
X150225Y116800
X151800Y69064
X143050Y69064
X175127Y139300
X111170Y107164
X171800Y27420
X239674Y145186
X228040Y131436
X153375Y96800
X156524Y116800
X78670Y102164
X24920Y82164
X78670Y52164
X78670Y87164
X24920Y52164
X24920Y122164
X321170Y158286
X155914Y31052
X236790Y73050
X221790Y75550
X214290Y83050
X221790Y61800
X52420Y184300
X52420Y176800
X52420Y169300
X63670Y67164
X38670Y57164
X213670Y157164
X223670Y155914
X211170Y132164
X150786Y137430
X154536Y141180
X154713Y156928
X154536Y164802
X155963Y172676
X155786Y149054
X130914Y141180
X130737Y156928
X130914Y164802
X129487Y172676
X129664Y149054
X135038Y180924
X150786Y180924
X142912Y180924
X91918Y176298
X91918Y184172
X62026Y176298
X62026Y184172
X43089Y176298
X43089Y184172
X36672Y191672
X68168Y191672
X52420Y191800
X62026Y191672
X43089Y191672
X13670Y27164
X10048Y133178
X372164Y88680
X242036Y33680
X248286Y38680
X263286Y49930
X254536Y63680
X238286Y66180
X354536Y57430
X334536Y72430
X319536Y107430
X324536Y132430
X344536Y112430
X377400Y103000
X189536Y127430
X289536Y82430
X249536Y107430
X119536Y127430
X99536Y117430
X212036Y118680
X190786Y88680
X119536Y114930
X284536Y58680
X113414Y56180
X112036Y91180
X103286Y78680
X193286Y103680
X174536Y88680
X249536Y48680
X364536Y52430
X348286Y83680
X383286Y114930
X54300Y103050
X132706Y121387
X146977Y128769
X328572Y78080
X334477Y81524
X357115Y70206
X269517Y60363
X279359Y70206
X137135Y89891
X254753Y26406
X129753Y96780
X246387Y26406
X206524Y148946
X283296Y94812
X141072Y98257
X220796Y57410
X303965Y61347
X224300Y101800
X218335Y148798
X201111Y97272
X310855Y64792
X259182Y78080
X254261Y83001
X224300Y123050
X223050Y131800
X201111Y101702
X207509Y101702
X344812Y73650
X181426Y102194
X181426Y89398
X219320Y46091
X329556Y71190
X176505Y111544
X254261Y73158
X247863Y79556
X213906Y100225
X201111Y113020
X129753Y101209
X153867Y62331
X289202Y23454
X225717Y39694
X232607Y39694
X144024Y101209
X164694Y80540
X94300Y126800
X80550Y126800
X116465Y101702
X121387Y106623
X119418Y98749
X124339Y103670
X340383Y154851
X241426Y49300
X241426Y76859
X208493Y94320
X199143Y93335
X148454Y106131
X334477Y85954
X339891Y80540
X172076Y81032
X270501Y97765
X152391Y110068
X170599Y91859
X366465Y117450
X364497Y84969
X353670Y96288
T02
X181750Y56800
X171850Y56800
X359300Y90550
X359300Y110550
T03
X214300Y33050
X234300Y33050
X383050Y42548
X383050Y32548
X373050Y42548
X373050Y32548
X363050Y42548
X363050Y32548
X353050Y42548
X353050Y32548
X343050Y42548
X343050Y32548
X333050Y42548
X333050Y32548
X323050Y42548
X323050Y32548
X313050Y42548
X313050Y32548
X303050Y42548
X303050Y32548
X293050Y42548
X293050Y32548
X303050Y54300
X149300Y30550
X139300Y30550
X129300Y30550
X119300Y30550
X109300Y30550
X99300Y30550
X273050Y91800
X273050Y151800
X273050Y161800
X301800Y171800
X311800Y171800
X321800Y171800
X388050Y171800
X378050Y171800
X368050Y171800
X358050Y171800
X388050Y103050
T04
X75550Y181800
X29300Y181800
M30
