G75*
%MOIN*%
%OFA0B0*%
%FSLAX25Y25*%
%IPPOS*%
%LPD*%
%AMOC8*
5,1,8,0,0,1.08239X$1,22.5*
%
%ADD10C,0.01600*%
%ADD11R,0.04731X0.04337*%
%ADD12R,0.04337X0.04731*%
%ADD13R,0.02600X0.05400*%
%ADD14R,0.05400X0.02600*%
%ADD15C,0.01120*%
%ADD16R,0.07880X0.05518*%
%ADD17R,0.06400X0.04400*%
%ADD18R,0.04400X0.06400*%
%ADD19OC8,0.06400*%
%ADD20R,0.01521X0.03156*%
%ADD21C,0.06400*%
%ADD22R,0.03353X0.01975*%
%ADD23R,0.05124X0.08274*%
%ADD24C,0.05400*%
%ADD25R,0.01975X0.02762*%
%ADD26R,0.09849X0.06306*%
%ADD27R,0.02762X0.05124*%
%ADD28OC8,0.05600*%
%ADD29R,0.07487X0.06699*%
%ADD30C,0.03156*%
D10*
X0001800Y0001800D02*
X0395501Y0001800D01*
X0395501Y0198650D01*
X0001800Y0198650D01*
X0001800Y0001800D01*
D11*
X0079704Y0030550D03*
X0086396Y0030550D03*
X0119300Y0042204D03*
X0119300Y0048896D03*
X0171800Y0040146D03*
X0171800Y0033454D03*
X0225954Y0061800D03*
X0232646Y0061800D03*
X0315550Y0058454D03*
X0315550Y0065146D03*
X0325550Y0065146D03*
X0335550Y0065146D03*
X0335550Y0058454D03*
X0325550Y0058454D03*
X0345550Y0058454D03*
X0345550Y0065146D03*
X0355550Y0074704D03*
X0355550Y0081396D03*
X0330550Y0114704D03*
X0330550Y0121396D03*
X0362204Y0123050D03*
X0368896Y0123050D03*
X0382204Y0123050D03*
X0388896Y0123050D03*
X0213050Y0138454D03*
X0213050Y0145146D03*
X0170146Y0139300D03*
X0163454Y0139300D03*
X0106396Y0106800D03*
X0099704Y0106800D03*
D12*
X0099704Y0128050D03*
X0106396Y0128050D03*
X0106396Y0141800D03*
X0099704Y0141800D03*
X0180954Y0108375D03*
X0187646Y0108375D03*
X0151800Y0080146D03*
X0143050Y0080146D03*
X0143050Y0073454D03*
X0151800Y0073454D03*
X0148896Y0050550D03*
X0142204Y0050550D03*
X0106396Y0050550D03*
X0099704Y0050550D03*
X0099704Y0060550D03*
X0106396Y0060550D03*
X0106396Y0073050D03*
X0099704Y0073050D03*
X0099704Y0084300D03*
X0106396Y0084300D03*
X0071396Y0039300D03*
X0064704Y0039300D03*
X0214300Y0070954D03*
X0214300Y0077646D03*
X0330550Y0089704D03*
X0330550Y0096396D03*
X0347204Y0133050D03*
X0353896Y0133050D03*
X0372204Y0153050D03*
X0378896Y0153050D03*
X0225146Y0166800D03*
X0218454Y0166800D03*
X0373050Y0060146D03*
X0373050Y0053454D03*
D13*
X0162824Y0089900D03*
X0159674Y0089900D03*
X0156524Y0089900D03*
X0153375Y0089900D03*
X0150225Y0089900D03*
X0147076Y0089900D03*
X0143926Y0089900D03*
X0140776Y0089900D03*
X0140776Y0123700D03*
X0143926Y0123700D03*
X0147076Y0123700D03*
X0150225Y0123700D03*
X0153375Y0123700D03*
X0156524Y0123700D03*
X0159674Y0123700D03*
X0162824Y0123700D03*
D14*
X0168700Y0117824D03*
X0168700Y0114674D03*
X0168700Y0111524D03*
X0168700Y0108375D03*
X0168700Y0105225D03*
X0168700Y0102076D03*
X0168700Y0098926D03*
X0168700Y0095776D03*
X0134900Y0095776D03*
X0134900Y0098926D03*
X0134900Y0102076D03*
X0134900Y0105225D03*
X0134900Y0108375D03*
X0134900Y0111524D03*
X0134900Y0114674D03*
X0134900Y0117824D03*
D15*
X0171482Y0058479D02*
X0170922Y0059039D01*
X0172778Y0059039D01*
X0174089Y0057728D01*
X0174089Y0055872D01*
X0172778Y0054561D01*
X0170922Y0054561D01*
X0169611Y0055872D01*
X0169611Y0057728D01*
X0170922Y0059039D01*
X0171270Y0058199D01*
X0172430Y0058199D01*
X0173249Y0057380D01*
X0173249Y0056220D01*
X0172430Y0055401D01*
X0171270Y0055401D01*
X0170451Y0056220D01*
X0170451Y0057380D01*
X0171270Y0058199D01*
X0171618Y0057359D01*
X0172082Y0057359D01*
X0172409Y0057032D01*
X0172409Y0056568D01*
X0172082Y0056241D01*
X0171618Y0056241D01*
X0171291Y0056568D01*
X0171291Y0057032D01*
X0171618Y0057359D01*
X0181382Y0058479D02*
X0180822Y0059039D01*
X0182678Y0059039D01*
X0183989Y0057728D01*
X0183989Y0055872D01*
X0182678Y0054561D01*
X0180822Y0054561D01*
X0179511Y0055872D01*
X0179511Y0057728D01*
X0180822Y0059039D01*
X0181170Y0058199D01*
X0182330Y0058199D01*
X0183149Y0057380D01*
X0183149Y0056220D01*
X0182330Y0055401D01*
X0181170Y0055401D01*
X0180351Y0056220D01*
X0180351Y0057380D01*
X0181170Y0058199D01*
X0181518Y0057359D01*
X0181982Y0057359D01*
X0182309Y0057032D01*
X0182309Y0056568D01*
X0181982Y0056241D01*
X0181518Y0056241D01*
X0181191Y0056568D01*
X0181191Y0057032D01*
X0181518Y0057359D01*
D16*
X0149024Y0150225D03*
X0136426Y0150225D03*
X0136426Y0171879D03*
X0149024Y0171879D03*
D17*
X0087341Y0146869D03*
X0087341Y0141869D03*
X0087341Y0136869D03*
X0087341Y0131869D03*
X0087341Y0126869D03*
X0087341Y0121869D03*
X0087341Y0116869D03*
X0087341Y0111869D03*
X0087341Y0106869D03*
X0087341Y0101869D03*
X0087341Y0096869D03*
X0087341Y0091869D03*
X0087341Y0086869D03*
X0087341Y0081869D03*
X0087341Y0076869D03*
X0087341Y0071869D03*
X0087341Y0066869D03*
X0087341Y0061869D03*
X0087341Y0056869D03*
X0087341Y0051869D03*
X0017341Y0051869D03*
X0017341Y0056869D03*
X0017341Y0061869D03*
X0017341Y0066869D03*
X0017341Y0071869D03*
X0017341Y0076869D03*
X0017341Y0081869D03*
X0017341Y0086869D03*
X0017341Y0091869D03*
X0017341Y0096869D03*
X0017341Y0101869D03*
X0017341Y0106869D03*
X0017341Y0111869D03*
X0017341Y0116869D03*
X0017341Y0121869D03*
X0017341Y0126869D03*
X0017341Y0131869D03*
X0017341Y0136869D03*
X0017341Y0141869D03*
X0017341Y0146869D03*
D18*
X0037341Y0151869D03*
X0042341Y0151869D03*
X0047341Y0151869D03*
X0052341Y0151869D03*
X0057341Y0151869D03*
X0062341Y0151869D03*
X0067341Y0151869D03*
D19*
X0293050Y0042548D03*
X0303050Y0042548D03*
X0313050Y0042548D03*
X0323050Y0042548D03*
X0333050Y0042548D03*
X0343050Y0042548D03*
X0353050Y0042548D03*
X0363050Y0042548D03*
X0373050Y0042548D03*
X0383050Y0042548D03*
X0383050Y0032548D03*
X0373050Y0032548D03*
X0363050Y0032548D03*
X0353050Y0032548D03*
X0343050Y0032548D03*
X0333050Y0032548D03*
X0323050Y0032548D03*
X0313050Y0032548D03*
X0303050Y0032548D03*
X0293050Y0032548D03*
D20*
X0230189Y0134719D03*
X0229117Y0134719D03*
X0228052Y0134721D03*
X0226968Y0134721D03*
X0225893Y0134721D03*
X0228050Y0136596D03*
X0228050Y0138552D03*
X0230019Y0138552D03*
X0231107Y0138552D03*
X0232182Y0138552D03*
X0233266Y0138552D03*
X0234331Y0138550D03*
X0235403Y0138550D03*
X0226081Y0138552D03*
X0225012Y0138551D03*
X0223940Y0138551D03*
X0222875Y0138553D03*
X0221791Y0138553D03*
X0220717Y0138553D03*
X0220728Y0145035D03*
X0221802Y0145035D03*
X0222886Y0145035D03*
X0223952Y0145033D03*
X0225023Y0145033D03*
X0226081Y0145048D03*
X0228050Y0145048D03*
X0230019Y0145048D03*
X0231067Y0145043D03*
X0232142Y0145043D03*
X0233226Y0145043D03*
X0234291Y0145040D03*
X0235362Y0145040D03*
X0228052Y0147245D03*
X0228052Y0148876D03*
X0229117Y0148874D03*
X0230189Y0148874D03*
X0226968Y0148876D03*
X0225893Y0148876D03*
D21*
X0283800Y0151800D02*
X0289800Y0151800D01*
X0289800Y0141800D02*
X0283800Y0141800D01*
X0283800Y0131800D02*
X0289800Y0131800D01*
X0289800Y0121800D02*
X0283800Y0121800D01*
X0283800Y0111800D02*
X0289800Y0111800D01*
X0289800Y0101800D02*
X0283800Y0101800D01*
X0283800Y0091800D02*
X0289800Y0091800D01*
X0289800Y0081800D02*
X0283800Y0081800D01*
X0283800Y0071800D02*
X0289800Y0071800D01*
X0149300Y0033550D02*
X0149300Y0027550D01*
X0139300Y0027550D02*
X0139300Y0033550D01*
X0129300Y0033550D02*
X0129300Y0027550D01*
X0119300Y0027550D02*
X0119300Y0033550D01*
X0109300Y0033550D02*
X0109300Y0027550D01*
X0099300Y0027550D02*
X0099300Y0033550D01*
X0283800Y0161800D02*
X0289800Y0161800D01*
X0286800Y0168800D02*
X0286800Y0174800D01*
X0296800Y0174800D02*
X0296800Y0168800D01*
X0306800Y0168800D02*
X0306800Y0174800D01*
X0316800Y0174800D02*
X0316800Y0168800D01*
X0326800Y0168800D02*
X0326800Y0174800D01*
X0336800Y0174800D02*
X0336800Y0168800D01*
X0358050Y0168800D02*
X0358050Y0174800D01*
X0368050Y0174800D02*
X0368050Y0168800D01*
X0378050Y0168800D02*
X0378050Y0174800D01*
X0388050Y0174800D02*
X0388050Y0168800D01*
D22*
X0232548Y0076859D03*
X0232548Y0074300D03*
X0232548Y0071741D03*
X0226052Y0071741D03*
X0226052Y0074300D03*
X0226052Y0076859D03*
D23*
X0224251Y0049300D03*
X0236849Y0049300D03*
D24*
X0367945Y0194300D03*
D25*
X0233237Y0119418D03*
X0229300Y0119418D03*
X0225363Y0119418D03*
X0225363Y0109182D03*
X0229300Y0109182D03*
X0233237Y0109182D03*
D26*
X0229300Y0114300D03*
D27*
X0371810Y0108192D03*
X0379290Y0108192D03*
X0379290Y0097908D03*
X0375550Y0097908D03*
X0371810Y0097908D03*
D28*
X0359300Y0090550D03*
X0359300Y0110550D03*
D29*
X0345550Y0106062D03*
X0345550Y0095038D03*
D30*
X0370550Y0005550D03*
M02*
