G75*
%MOIN*%
%OFA0B0*%
%FSLAX25Y25*%
%IPPOS*%
%LPD*%
%AMOC8*
5,1,8,0,0,1.08239X$1,22.5*
%
%ADD10C,0.01600*%
%ADD11C,0.00300*%
%ADD12C,0.27559*%
%ADD13C,0.00600*%
%ADD14C,0.00400*%
%ADD15C,0.00800*%
%ADD16C,0.02200*%
%ADD17C,0.00500*%
%ADD18C,0.01200*%
D10*
X0001800Y0001800D02*
X0395501Y0001800D01*
X0395501Y0198650D01*
X0001800Y0198650D01*
X0001800Y0001800D01*
X0111800Y0051800D02*
X0116800Y0056800D01*
X0126800Y0056800D01*
D11*
X0125950Y0057950D02*
X0125950Y0061590D01*
X0127770Y0061590D01*
X0128377Y0060983D01*
X0128377Y0059770D01*
X0127770Y0059163D01*
X0125950Y0059163D01*
X0127163Y0059163D02*
X0128377Y0057950D01*
X0129575Y0057950D02*
X0132002Y0057950D01*
X0130788Y0057950D02*
X0130788Y0061590D01*
X0129575Y0060377D01*
X0133200Y0060983D02*
X0133807Y0061590D01*
X0135020Y0061590D01*
X0135627Y0060983D01*
X0135627Y0060377D01*
X0135020Y0059770D01*
X0135627Y0059163D01*
X0135627Y0058557D01*
X0135020Y0057950D01*
X0133807Y0057950D01*
X0133200Y0058557D01*
X0134414Y0059770D02*
X0135020Y0059770D01*
X0142200Y0059090D02*
X0142200Y0055450D01*
X0142200Y0056663D02*
X0144020Y0056663D01*
X0144627Y0057270D01*
X0144627Y0058483D01*
X0144020Y0059090D01*
X0142200Y0059090D01*
X0143413Y0056663D02*
X0144627Y0055450D01*
X0145825Y0055450D02*
X0148252Y0055450D01*
X0149450Y0055450D02*
X0149450Y0056057D01*
X0151877Y0058483D01*
X0151877Y0059090D01*
X0149450Y0059090D01*
X0147038Y0059090D02*
X0147038Y0055450D01*
X0145825Y0057877D02*
X0147038Y0059090D01*
X0137480Y0069825D02*
X0135054Y0069825D01*
X0134447Y0070431D01*
X0134447Y0071645D01*
X0135054Y0072251D01*
X0135660Y0073450D02*
X0134447Y0074663D01*
X0138087Y0074663D01*
X0138087Y0073450D02*
X0138087Y0075876D01*
X0137480Y0077075D02*
X0135054Y0077075D01*
X0134447Y0077682D01*
X0134447Y0078895D01*
X0135054Y0079502D01*
X0137480Y0077075D01*
X0138087Y0077682D01*
X0138087Y0078895D01*
X0137480Y0079502D01*
X0135054Y0079502D01*
X0137480Y0072251D02*
X0138087Y0071645D01*
X0138087Y0070431D01*
X0137480Y0069825D01*
X0120627Y0071700D02*
X0118200Y0071700D01*
X0117002Y0071700D02*
X0114575Y0071700D01*
X0113377Y0071700D02*
X0112163Y0072913D01*
X0112770Y0072913D02*
X0110950Y0072913D01*
X0110950Y0071700D02*
X0110950Y0075340D01*
X0112770Y0075340D01*
X0113377Y0074733D01*
X0113377Y0073520D01*
X0112770Y0072913D01*
X0114575Y0074127D02*
X0115788Y0075340D01*
X0115788Y0071700D01*
X0118200Y0074127D02*
X0119414Y0075340D01*
X0119414Y0071700D01*
X0120020Y0061590D02*
X0118807Y0061590D01*
X0118200Y0060983D01*
X0120020Y0061590D02*
X0120627Y0060983D01*
X0120627Y0060377D01*
X0118200Y0057950D01*
X0120627Y0057950D01*
X0117002Y0057950D02*
X0114575Y0057950D01*
X0113377Y0057950D02*
X0112163Y0059163D01*
X0112770Y0059163D02*
X0110950Y0059163D01*
X0110950Y0057950D02*
X0110950Y0061590D01*
X0112770Y0061590D01*
X0113377Y0060983D01*
X0113377Y0059770D01*
X0112770Y0059163D01*
X0114575Y0060377D02*
X0115788Y0061590D01*
X0115788Y0057950D01*
X0125447Y0049252D02*
X0126054Y0049252D01*
X0128480Y0046825D01*
X0129087Y0046825D01*
X0129087Y0045626D02*
X0127874Y0044413D01*
X0127874Y0045020D02*
X0127874Y0043200D01*
X0129087Y0043200D02*
X0125447Y0043200D01*
X0125447Y0045020D01*
X0126054Y0045626D01*
X0127267Y0045626D01*
X0127874Y0045020D01*
X0125447Y0046825D02*
X0125447Y0049252D01*
X0163197Y0035788D02*
X0166837Y0035788D01*
X0166837Y0034575D02*
X0166837Y0037002D01*
X0164410Y0034575D02*
X0163197Y0035788D01*
X0163804Y0033376D02*
X0165017Y0033376D01*
X0165624Y0032770D01*
X0165624Y0030950D01*
X0166837Y0030950D02*
X0163197Y0030950D01*
X0163197Y0032770D01*
X0163804Y0033376D01*
X0165624Y0032163D02*
X0166837Y0033376D01*
X0098558Y0016307D02*
X0098558Y0015700D01*
X0097952Y0015700D01*
X0097952Y0016307D01*
X0098558Y0016307D01*
X0096753Y0016307D02*
X0096147Y0015700D01*
X0094326Y0015700D01*
X0094326Y0014487D02*
X0094326Y0018127D01*
X0096147Y0018127D01*
X0096753Y0017520D01*
X0096753Y0016307D01*
X0093128Y0016307D02*
X0092521Y0015700D01*
X0091308Y0015700D01*
X0090701Y0016307D01*
X0090701Y0017520D01*
X0091308Y0018127D01*
X0092521Y0018127D01*
X0093128Y0017520D01*
X0093128Y0016307D01*
X0089503Y0017520D02*
X0089503Y0018733D01*
X0088896Y0019340D01*
X0087076Y0019340D01*
X0087076Y0015700D01*
X0087076Y0016913D02*
X0088896Y0016913D01*
X0089503Y0017520D01*
X0082253Y0019340D02*
X0079826Y0019340D01*
X0081039Y0019340D02*
X0081039Y0015700D01*
X0078628Y0016307D02*
X0078628Y0018733D01*
X0078021Y0019340D01*
X0076807Y0019340D01*
X0076201Y0018733D01*
X0076201Y0016307D01*
X0076807Y0015700D01*
X0078021Y0015700D01*
X0078628Y0016307D01*
X0075002Y0015700D02*
X0075002Y0019340D01*
X0072576Y0019340D02*
X0075002Y0015700D01*
X0072576Y0015700D02*
X0072576Y0019340D01*
X0067752Y0017520D02*
X0067145Y0018127D01*
X0065932Y0018127D01*
X0065325Y0017520D01*
X0065325Y0016307D01*
X0065932Y0015700D01*
X0067145Y0015700D01*
X0067752Y0016307D01*
X0067752Y0017520D01*
X0064127Y0016307D02*
X0064127Y0018733D01*
X0063520Y0019340D01*
X0061700Y0019340D01*
X0061700Y0015700D01*
X0063520Y0015700D01*
X0064127Y0016307D01*
X0056877Y0016307D02*
X0054450Y0018733D01*
X0054450Y0017520D02*
X0056877Y0017520D01*
X0056877Y0018733D02*
X0054450Y0016307D01*
X0055663Y0016307D02*
X0055663Y0018733D01*
X0070054Y0023325D02*
X0072480Y0025752D01*
X0071867Y0025950D02*
X0074293Y0025950D01*
X0074900Y0026557D01*
X0074900Y0027770D01*
X0074293Y0028377D01*
X0074900Y0029575D02*
X0074900Y0032002D01*
X0074900Y0033200D02*
X0074900Y0035627D01*
X0074900Y0034414D02*
X0071260Y0034414D01*
X0072473Y0033200D01*
X0071260Y0030788D02*
X0074900Y0030788D01*
X0072473Y0029575D02*
X0071260Y0030788D01*
X0071867Y0028377D02*
X0071260Y0027770D01*
X0071260Y0026557D01*
X0071867Y0025950D01*
X0071267Y0025752D02*
X0071267Y0023325D01*
X0072480Y0023325D02*
X0070054Y0025752D01*
X0070054Y0024538D02*
X0072480Y0024538D01*
X0060145Y0036700D02*
X0058932Y0036700D01*
X0058325Y0037307D01*
X0058325Y0038520D02*
X0059538Y0039127D01*
X0060145Y0039127D01*
X0060752Y0038520D01*
X0060752Y0037307D01*
X0060145Y0036700D01*
X0058325Y0038520D02*
X0058325Y0040340D01*
X0060752Y0040340D01*
X0057127Y0039733D02*
X0057127Y0038520D01*
X0056520Y0037913D01*
X0054700Y0037913D01*
X0054700Y0036700D02*
X0054700Y0040340D01*
X0056520Y0040340D01*
X0057127Y0039733D01*
X0055913Y0037913D02*
X0057127Y0036700D01*
X0110950Y0082950D02*
X0110950Y0086590D01*
X0112770Y0086590D01*
X0113377Y0085983D01*
X0113377Y0084770D01*
X0112770Y0084163D01*
X0110950Y0084163D01*
X0112163Y0084163D02*
X0113377Y0082950D01*
X0114575Y0082950D02*
X0117002Y0082950D01*
X0115788Y0082950D02*
X0115788Y0086590D01*
X0114575Y0085377D01*
X0118200Y0085983D02*
X0118200Y0083557D01*
X0120627Y0085983D01*
X0120627Y0083557D01*
X0120020Y0082950D01*
X0118807Y0082950D01*
X0118200Y0083557D01*
X0118200Y0085983D02*
X0118807Y0086590D01*
X0120020Y0086590D01*
X0120627Y0085983D01*
X0149447Y0100683D02*
X0149447Y0101896D01*
X0149447Y0101290D02*
X0153087Y0101290D01*
X0153087Y0101896D02*
X0153087Y0100683D01*
X0152480Y0103100D02*
X0150054Y0103100D01*
X0149447Y0103706D01*
X0149447Y0104920D01*
X0150054Y0105526D01*
X0150054Y0106725D02*
X0149447Y0107332D01*
X0149447Y0108545D01*
X0150054Y0109152D01*
X0150660Y0109152D01*
X0153087Y0106725D01*
X0153087Y0109152D01*
X0152480Y0105526D02*
X0153087Y0104920D01*
X0153087Y0103706D01*
X0152480Y0103100D01*
X0179700Y0113338D02*
X0179700Y0116978D01*
X0181520Y0116978D01*
X0182126Y0116371D01*
X0182126Y0115158D01*
X0181520Y0114551D01*
X0179700Y0114551D01*
X0180913Y0114551D02*
X0182126Y0113338D01*
X0183325Y0113338D02*
X0185752Y0115765D01*
X0185752Y0116371D01*
X0185145Y0116978D01*
X0183932Y0116978D01*
X0183325Y0116371D01*
X0183325Y0113338D02*
X0185752Y0113338D01*
X0179895Y0136950D02*
X0178682Y0136950D01*
X0178075Y0137557D01*
X0176877Y0137557D02*
X0176270Y0136950D01*
X0175057Y0136950D01*
X0174450Y0137557D01*
X0174450Y0139983D01*
X0175057Y0140590D01*
X0176270Y0140590D01*
X0176877Y0139983D01*
X0178075Y0139983D02*
X0178075Y0139377D01*
X0178682Y0138770D01*
X0180502Y0138770D01*
X0180502Y0137557D02*
X0180502Y0139983D01*
X0179895Y0140590D01*
X0178682Y0140590D01*
X0178075Y0139983D01*
X0180502Y0137557D02*
X0179895Y0136950D01*
X0204260Y0139450D02*
X0204260Y0141270D01*
X0204867Y0141877D01*
X0206080Y0141877D01*
X0206687Y0141270D01*
X0206687Y0139450D01*
X0207900Y0139450D02*
X0204260Y0139450D01*
X0206687Y0140663D02*
X0207900Y0141877D01*
X0207293Y0143075D02*
X0206687Y0143075D01*
X0206080Y0143682D01*
X0206080Y0144895D01*
X0206687Y0145502D01*
X0207293Y0145502D01*
X0207900Y0144895D01*
X0207900Y0143682D01*
X0207293Y0143075D01*
X0206080Y0143682D02*
X0205473Y0143075D01*
X0204867Y0143075D01*
X0204260Y0143682D01*
X0204260Y0144895D01*
X0204867Y0145502D01*
X0205473Y0145502D01*
X0206080Y0144895D01*
X0217200Y0158013D02*
X0217200Y0161653D01*
X0219020Y0161653D01*
X0219626Y0161046D01*
X0219626Y0159833D01*
X0219020Y0159226D01*
X0217200Y0159226D01*
X0218413Y0159226D02*
X0219626Y0158013D01*
X0220825Y0158620D02*
X0221432Y0158013D01*
X0222645Y0158013D01*
X0223252Y0158620D01*
X0223252Y0159226D01*
X0222645Y0159833D01*
X0220825Y0159833D01*
X0220825Y0158620D01*
X0220825Y0159833D02*
X0222038Y0161046D01*
X0223252Y0161653D01*
X0145243Y0161503D02*
X0145243Y0163930D01*
X0145243Y0162717D02*
X0141602Y0162717D01*
X0142816Y0161503D01*
X0142209Y0160305D02*
X0144636Y0160305D01*
X0145243Y0159698D01*
X0145243Y0158485D01*
X0144636Y0157878D01*
X0142209Y0157878D01*
X0141602Y0158485D01*
X0141602Y0159698D01*
X0142209Y0160305D01*
X0144029Y0159092D02*
X0145243Y0160305D01*
X0120627Y0144090D02*
X0118200Y0144090D01*
X0118200Y0142270D01*
X0119414Y0142877D01*
X0120020Y0142877D01*
X0120627Y0142270D01*
X0120627Y0141057D01*
X0120020Y0140450D01*
X0118807Y0140450D01*
X0118200Y0141057D01*
X0117002Y0140450D02*
X0114575Y0140450D01*
X0113377Y0140450D02*
X0112163Y0141663D01*
X0112770Y0141663D02*
X0110950Y0141663D01*
X0110950Y0140450D02*
X0110950Y0144090D01*
X0112770Y0144090D01*
X0113377Y0143483D01*
X0113377Y0142270D01*
X0112770Y0141663D01*
X0114575Y0142877D02*
X0115788Y0144090D01*
X0115788Y0140450D01*
X0115788Y0129090D02*
X0115788Y0125450D01*
X0114575Y0125450D02*
X0117002Y0125450D01*
X0118200Y0127270D02*
X0120627Y0127270D01*
X0120020Y0125450D02*
X0120020Y0129090D01*
X0118200Y0127270D01*
X0115788Y0129090D02*
X0114575Y0127877D01*
X0113377Y0128483D02*
X0113377Y0127270D01*
X0112770Y0126663D01*
X0110950Y0126663D01*
X0110950Y0125450D02*
X0110950Y0129090D01*
X0112770Y0129090D01*
X0113377Y0128483D01*
X0112163Y0126663D02*
X0113377Y0125450D01*
X0103645Y0115590D02*
X0101825Y0113770D01*
X0104252Y0113770D01*
X0103645Y0111950D02*
X0103645Y0115590D01*
X0100627Y0114983D02*
X0100020Y0115590D01*
X0098807Y0115590D01*
X0098200Y0114983D01*
X0098200Y0112557D01*
X0098807Y0111950D01*
X0100020Y0111950D01*
X0100627Y0112557D01*
X0051673Y0098702D02*
X0049246Y0098702D01*
X0050460Y0098702D02*
X0050460Y0102342D01*
X0049246Y0101129D01*
X0048048Y0102342D02*
X0048048Y0099309D01*
X0047441Y0098702D01*
X0046228Y0098702D01*
X0045621Y0099309D01*
X0045621Y0102342D01*
X0156947Y0080145D02*
X0156947Y0078932D01*
X0157554Y0078325D01*
X0156947Y0080145D02*
X0157554Y0080752D01*
X0158160Y0080752D01*
X0160587Y0078325D01*
X0160587Y0080752D01*
X0160587Y0077126D02*
X0160587Y0074700D01*
X0160587Y0075913D02*
X0156947Y0075913D01*
X0158160Y0074700D01*
X0157554Y0073501D02*
X0156947Y0072895D01*
X0156947Y0071681D01*
X0157554Y0071075D01*
X0159980Y0071075D01*
X0160587Y0071681D01*
X0160587Y0072895D01*
X0159980Y0073501D01*
X0206260Y0074020D02*
X0206260Y0072807D01*
X0206867Y0072200D01*
X0209293Y0072200D01*
X0209900Y0072807D01*
X0209900Y0074020D01*
X0209293Y0074627D01*
X0209900Y0075825D02*
X0209900Y0078252D01*
X0209900Y0077038D02*
X0206260Y0077038D01*
X0207473Y0075825D01*
X0206867Y0074627D02*
X0206260Y0074020D01*
X0227947Y0079533D02*
X0227947Y0080746D01*
X0227947Y0080140D02*
X0231587Y0080140D01*
X0231587Y0080746D02*
X0231587Y0079533D01*
X0230980Y0081950D02*
X0228554Y0081950D01*
X0227947Y0082556D01*
X0227947Y0083770D01*
X0228554Y0084376D01*
X0229160Y0085575D02*
X0227947Y0086788D01*
X0231587Y0086788D01*
X0231587Y0085575D02*
X0231587Y0088002D01*
X0230980Y0084376D02*
X0231587Y0083770D01*
X0231587Y0082556D01*
X0230980Y0081950D01*
X0239556Y0063403D02*
X0238950Y0062796D01*
X0238950Y0060370D01*
X0239556Y0059763D01*
X0240770Y0059763D01*
X0241376Y0060370D01*
X0242575Y0059763D02*
X0245002Y0062190D01*
X0245002Y0062796D01*
X0244395Y0063403D01*
X0243182Y0063403D01*
X0242575Y0062796D01*
X0241376Y0062796D02*
X0240770Y0063403D01*
X0239556Y0063403D01*
X0242575Y0059763D02*
X0245002Y0059763D01*
X0247389Y0046309D02*
X0247389Y0042669D01*
X0246176Y0042669D02*
X0248602Y0042669D01*
X0246176Y0045095D02*
X0247389Y0046309D01*
X0242550Y0046309D02*
X0242550Y0042669D01*
X0244977Y0042669D01*
X0313200Y0069450D02*
X0313200Y0073090D01*
X0315020Y0073090D01*
X0315627Y0072483D01*
X0315627Y0071270D01*
X0315020Y0070663D01*
X0313200Y0070663D01*
X0314413Y0070663D02*
X0315627Y0069450D01*
X0316825Y0070057D02*
X0317432Y0069450D01*
X0318645Y0069450D01*
X0319252Y0070057D01*
X0319252Y0072483D01*
X0318645Y0073090D01*
X0317432Y0073090D01*
X0316825Y0072483D01*
X0316825Y0071877D01*
X0317432Y0071270D01*
X0319252Y0071270D01*
X0321950Y0070663D02*
X0323770Y0070663D01*
X0324377Y0071270D01*
X0324377Y0072483D01*
X0323770Y0073090D01*
X0321950Y0073090D01*
X0321950Y0069450D01*
X0323163Y0070663D02*
X0324377Y0069450D01*
X0325575Y0070057D02*
X0326182Y0069450D01*
X0327395Y0069450D01*
X0328002Y0070057D01*
X0328002Y0070663D01*
X0327395Y0071270D01*
X0326788Y0071270D01*
X0327395Y0071270D02*
X0328002Y0071877D01*
X0328002Y0072483D01*
X0327395Y0073090D01*
X0326182Y0073090D01*
X0325575Y0072483D01*
X0333200Y0073090D02*
X0333200Y0069450D01*
X0333200Y0070663D02*
X0335020Y0070663D01*
X0335627Y0071270D01*
X0335627Y0072483D01*
X0335020Y0073090D01*
X0333200Y0073090D01*
X0334413Y0070663D02*
X0335627Y0069450D01*
X0336825Y0071270D02*
X0339252Y0071270D01*
X0338645Y0069450D02*
X0338645Y0073090D01*
X0336825Y0071270D01*
X0342200Y0070413D02*
X0344020Y0070413D01*
X0344627Y0071020D01*
X0344627Y0072233D01*
X0344020Y0072840D01*
X0342200Y0072840D01*
X0342200Y0069200D01*
X0343413Y0070413D02*
X0344627Y0069200D01*
X0345825Y0069200D02*
X0348252Y0069200D01*
X0347038Y0069200D02*
X0347038Y0072840D01*
X0345825Y0071627D01*
X0349450Y0071627D02*
X0349450Y0072233D01*
X0350057Y0072840D01*
X0351270Y0072840D01*
X0351877Y0072233D01*
X0351877Y0071627D01*
X0351270Y0071020D01*
X0350057Y0071020D01*
X0349450Y0071627D01*
X0350057Y0071020D02*
X0349450Y0070413D01*
X0349450Y0069807D01*
X0350057Y0069200D01*
X0351270Y0069200D01*
X0351877Y0069807D01*
X0351877Y0070413D01*
X0351270Y0071020D01*
X0360760Y0073450D02*
X0360760Y0075270D01*
X0361367Y0075877D01*
X0362580Y0075877D01*
X0363187Y0075270D01*
X0363187Y0073450D01*
X0364400Y0073450D02*
X0360760Y0073450D01*
X0363187Y0074663D02*
X0364400Y0075877D01*
X0364400Y0077075D02*
X0361973Y0079502D01*
X0361367Y0079502D01*
X0360760Y0078895D01*
X0360760Y0077682D01*
X0361367Y0077075D01*
X0364400Y0077075D02*
X0364400Y0079502D01*
X0364400Y0080700D02*
X0364400Y0083127D01*
X0364400Y0081914D02*
X0360760Y0081914D01*
X0361973Y0080700D01*
X0355543Y0097200D02*
X0353117Y0097200D01*
X0352510Y0097807D01*
X0352510Y0099020D01*
X0353117Y0099627D01*
X0352510Y0100825D02*
X0352510Y0103252D01*
X0353117Y0103252D01*
X0355543Y0100825D01*
X0356150Y0100825D01*
X0355543Y0099627D02*
X0356150Y0099020D01*
X0356150Y0097807D01*
X0355543Y0097200D01*
X0339900Y0099057D02*
X0339900Y0100270D01*
X0339293Y0100877D01*
X0339293Y0102075D02*
X0338687Y0102075D01*
X0338080Y0102682D01*
X0338080Y0103895D01*
X0338687Y0104502D01*
X0339293Y0104502D01*
X0339900Y0103895D01*
X0339900Y0102682D01*
X0339293Y0102075D01*
X0338080Y0102682D02*
X0337473Y0102075D01*
X0336867Y0102075D01*
X0336260Y0102682D01*
X0336260Y0103895D01*
X0336867Y0104502D01*
X0337473Y0104502D01*
X0338080Y0103895D01*
X0336867Y0100877D02*
X0336260Y0100270D01*
X0336260Y0099057D01*
X0336867Y0098450D01*
X0339293Y0098450D01*
X0339900Y0099057D01*
X0326150Y0098770D02*
X0326150Y0097557D01*
X0325543Y0096950D01*
X0326150Y0095752D02*
X0326150Y0093325D01*
X0326150Y0094538D02*
X0322510Y0094538D01*
X0323723Y0093325D01*
X0323117Y0092127D02*
X0322510Y0091520D01*
X0322510Y0090307D01*
X0323117Y0089700D01*
X0325543Y0089700D01*
X0326150Y0090307D01*
X0326150Y0091520D01*
X0325543Y0092127D01*
X0323117Y0096950D02*
X0322510Y0097557D01*
X0322510Y0098770D01*
X0323117Y0099377D01*
X0323723Y0099377D01*
X0324330Y0098770D01*
X0324937Y0099377D01*
X0325543Y0099377D01*
X0326150Y0098770D01*
X0324330Y0098770D02*
X0324330Y0098164D01*
X0335447Y0110825D02*
X0335447Y0112645D01*
X0336054Y0113251D01*
X0337267Y0113251D01*
X0337874Y0112645D01*
X0337874Y0110825D01*
X0337874Y0112038D02*
X0339087Y0113251D01*
X0339087Y0114450D02*
X0336660Y0116876D01*
X0336054Y0116876D01*
X0335447Y0116270D01*
X0335447Y0115056D01*
X0336054Y0114450D01*
X0339087Y0114450D02*
X0339087Y0116876D01*
X0338480Y0118075D02*
X0336054Y0120502D01*
X0338480Y0120502D01*
X0339087Y0119895D01*
X0339087Y0118682D01*
X0338480Y0118075D01*
X0336054Y0118075D01*
X0335447Y0118682D01*
X0335447Y0119895D01*
X0336054Y0120502D01*
X0335447Y0110825D02*
X0339087Y0110825D01*
X0360700Y0128120D02*
X0361306Y0127513D01*
X0362520Y0127513D01*
X0363126Y0128120D01*
X0364325Y0128120D02*
X0364932Y0127513D01*
X0366145Y0127513D01*
X0366752Y0128120D01*
X0366752Y0128726D01*
X0366145Y0129333D01*
X0364325Y0129333D01*
X0364325Y0128120D01*
X0364325Y0129333D02*
X0365538Y0130546D01*
X0366752Y0131153D01*
X0363126Y0130546D02*
X0362520Y0131153D01*
X0361306Y0131153D01*
X0360700Y0130546D01*
X0360700Y0128120D01*
X0352395Y0138263D02*
X0353002Y0138870D01*
X0353002Y0141296D01*
X0352395Y0141903D01*
X0351182Y0141903D01*
X0350575Y0141296D01*
X0350575Y0140690D01*
X0351182Y0140083D01*
X0353002Y0140083D01*
X0352395Y0138263D02*
X0351182Y0138263D01*
X0350575Y0138870D01*
X0349376Y0138263D02*
X0346950Y0138263D01*
X0345751Y0138263D02*
X0344538Y0139476D01*
X0345145Y0139476D02*
X0343325Y0139476D01*
X0343325Y0138263D02*
X0343325Y0141903D01*
X0345145Y0141903D01*
X0345751Y0141296D01*
X0345751Y0140083D01*
X0345145Y0139476D01*
X0346950Y0140690D02*
X0348163Y0141903D01*
X0348163Y0138263D01*
X0357075Y0149513D02*
X0357075Y0153153D01*
X0358895Y0153153D01*
X0359501Y0152546D01*
X0359501Y0151333D01*
X0358895Y0150726D01*
X0357075Y0150726D01*
X0358288Y0150726D02*
X0359501Y0149513D01*
X0360700Y0149513D02*
X0363126Y0149513D01*
X0361913Y0149513D02*
X0361913Y0153153D01*
X0360700Y0151940D01*
X0364325Y0151333D02*
X0364325Y0150120D01*
X0364932Y0149513D01*
X0366145Y0149513D01*
X0366752Y0150120D01*
X0366752Y0150726D01*
X0366145Y0151333D01*
X0364325Y0151333D01*
X0365538Y0152546D01*
X0366752Y0153153D01*
X0382556Y0132403D02*
X0381950Y0131796D01*
X0381950Y0129370D01*
X0382556Y0128763D01*
X0383770Y0128763D01*
X0384376Y0129370D01*
X0385575Y0129370D02*
X0386182Y0128763D01*
X0387395Y0128763D01*
X0388002Y0129370D01*
X0388002Y0129976D01*
X0387395Y0130583D01*
X0386788Y0130583D01*
X0387395Y0130583D02*
X0388002Y0131190D01*
X0388002Y0131796D01*
X0387395Y0132403D01*
X0386182Y0132403D01*
X0385575Y0131796D01*
X0384376Y0131796D02*
X0383770Y0132403D01*
X0382556Y0132403D01*
X0382293Y0059252D02*
X0381080Y0059252D01*
X0380473Y0058645D01*
X0380473Y0058038D01*
X0381080Y0056825D01*
X0379260Y0056825D01*
X0379260Y0059252D01*
X0382293Y0059252D02*
X0382900Y0058645D01*
X0382900Y0057432D01*
X0382293Y0056825D01*
X0382293Y0055627D02*
X0382900Y0055020D01*
X0382900Y0053807D01*
X0382293Y0053200D01*
X0379867Y0053200D01*
X0379260Y0053807D01*
X0379260Y0055020D01*
X0379867Y0055627D01*
D12*
X0075550Y0181800D03*
X0029300Y0181800D03*
D13*
X0021800Y0176800D02*
X0021800Y0174300D01*
X0024300Y0174300D01*
X0034300Y0174300D02*
X0036800Y0174300D01*
X0036800Y0176800D01*
X0036800Y0186800D02*
X0036800Y0189300D01*
X0034300Y0189300D01*
X0024300Y0189300D02*
X0021800Y0189300D01*
X0021800Y0186800D01*
X0068050Y0186800D02*
X0068050Y0189300D01*
X0070550Y0189300D01*
X0080550Y0189300D02*
X0083050Y0189300D01*
X0083050Y0186800D01*
X0083050Y0176800D02*
X0083050Y0174300D01*
X0080550Y0174300D01*
X0070550Y0174300D02*
X0068050Y0174300D01*
X0068050Y0176800D01*
X0138001Y0120599D02*
X0164202Y0120599D01*
X0165599Y0119202D01*
X0165599Y0093001D01*
X0138001Y0093001D01*
X0138001Y0120599D01*
X0161186Y0117600D02*
X0161188Y0117675D01*
X0161194Y0117749D01*
X0161204Y0117823D01*
X0161217Y0117896D01*
X0161235Y0117969D01*
X0161256Y0118040D01*
X0161281Y0118111D01*
X0161310Y0118180D01*
X0161343Y0118247D01*
X0161379Y0118312D01*
X0161418Y0118376D01*
X0161460Y0118437D01*
X0161506Y0118496D01*
X0161555Y0118553D01*
X0161607Y0118606D01*
X0161661Y0118657D01*
X0161718Y0118706D01*
X0161778Y0118750D01*
X0161840Y0118792D01*
X0161904Y0118831D01*
X0161970Y0118866D01*
X0162037Y0118897D01*
X0162107Y0118925D01*
X0162177Y0118949D01*
X0162249Y0118970D01*
X0162322Y0118986D01*
X0162395Y0118999D01*
X0162470Y0119008D01*
X0162544Y0119013D01*
X0162619Y0119014D01*
X0162693Y0119011D01*
X0162768Y0119004D01*
X0162841Y0118993D01*
X0162915Y0118979D01*
X0162987Y0118960D01*
X0163058Y0118938D01*
X0163128Y0118912D01*
X0163197Y0118882D01*
X0163263Y0118849D01*
X0163328Y0118812D01*
X0163391Y0118772D01*
X0163452Y0118728D01*
X0163510Y0118682D01*
X0163566Y0118632D01*
X0163619Y0118580D01*
X0163670Y0118525D01*
X0163717Y0118467D01*
X0163761Y0118407D01*
X0163802Y0118344D01*
X0163840Y0118280D01*
X0163874Y0118214D01*
X0163905Y0118145D01*
X0163932Y0118076D01*
X0163955Y0118005D01*
X0163974Y0117933D01*
X0163990Y0117860D01*
X0164002Y0117786D01*
X0164010Y0117712D01*
X0164014Y0117637D01*
X0164014Y0117563D01*
X0164010Y0117488D01*
X0164002Y0117414D01*
X0163990Y0117340D01*
X0163974Y0117267D01*
X0163955Y0117195D01*
X0163932Y0117124D01*
X0163905Y0117055D01*
X0163874Y0116986D01*
X0163840Y0116920D01*
X0163802Y0116856D01*
X0163761Y0116793D01*
X0163717Y0116733D01*
X0163670Y0116675D01*
X0163619Y0116620D01*
X0163566Y0116568D01*
X0163510Y0116518D01*
X0163452Y0116472D01*
X0163391Y0116428D01*
X0163328Y0116388D01*
X0163263Y0116351D01*
X0163197Y0116318D01*
X0163128Y0116288D01*
X0163058Y0116262D01*
X0162987Y0116240D01*
X0162915Y0116221D01*
X0162841Y0116207D01*
X0162768Y0116196D01*
X0162693Y0116189D01*
X0162619Y0116186D01*
X0162544Y0116187D01*
X0162470Y0116192D01*
X0162395Y0116201D01*
X0162322Y0116214D01*
X0162249Y0116230D01*
X0162177Y0116251D01*
X0162107Y0116275D01*
X0162037Y0116303D01*
X0161970Y0116334D01*
X0161904Y0116369D01*
X0161840Y0116408D01*
X0161778Y0116450D01*
X0161718Y0116494D01*
X0161661Y0116543D01*
X0161607Y0116594D01*
X0161555Y0116647D01*
X0161506Y0116704D01*
X0161460Y0116763D01*
X0161418Y0116824D01*
X0161379Y0116888D01*
X0161343Y0116953D01*
X0161310Y0117020D01*
X0161281Y0117089D01*
X0161256Y0117160D01*
X0161235Y0117231D01*
X0161217Y0117304D01*
X0161204Y0117377D01*
X0161194Y0117451D01*
X0161188Y0117525D01*
X0161186Y0117600D01*
X0265550Y0149300D02*
X0268050Y0146800D01*
X0278050Y0146800D01*
X0280550Y0149300D01*
X0280550Y0154300D01*
X0278050Y0156800D01*
X0280550Y0159300D01*
X0280550Y0164300D01*
X0278050Y0166800D01*
X0268050Y0166800D01*
X0265550Y0164300D01*
X0265550Y0159300D01*
X0268050Y0156800D01*
X0278050Y0156800D01*
X0268050Y0156800D02*
X0265550Y0154300D01*
X0265550Y0149300D01*
X0296800Y0166800D02*
X0299300Y0164300D01*
X0304300Y0164300D01*
X0306800Y0166800D01*
X0309300Y0164300D01*
X0314300Y0164300D01*
X0316800Y0166800D01*
X0319300Y0164300D01*
X0324300Y0164300D01*
X0326800Y0166800D01*
X0326800Y0176800D01*
X0324300Y0179300D01*
X0319300Y0179300D01*
X0316800Y0176800D01*
X0316800Y0166800D01*
X0306800Y0166800D02*
X0306800Y0176800D01*
X0309300Y0179300D01*
X0314300Y0179300D01*
X0316800Y0176800D01*
X0306800Y0176800D02*
X0304300Y0179300D01*
X0299300Y0179300D01*
X0296800Y0176800D01*
X0296800Y0166800D01*
X0353050Y0166800D02*
X0353050Y0176800D01*
X0355550Y0179300D01*
X0360550Y0179300D01*
X0363050Y0176800D01*
X0365550Y0179300D01*
X0370550Y0179300D01*
X0373050Y0176800D01*
X0375550Y0179300D01*
X0380550Y0179300D01*
X0383050Y0176800D01*
X0385550Y0179300D01*
X0390550Y0179300D01*
X0393050Y0176800D01*
X0393050Y0166800D01*
X0390550Y0164300D01*
X0385550Y0164300D01*
X0383050Y0166800D01*
X0380550Y0164300D01*
X0375550Y0164300D01*
X0373050Y0166800D01*
X0373050Y0176800D01*
X0363050Y0176800D02*
X0363050Y0166800D01*
X0360550Y0164300D01*
X0355550Y0164300D01*
X0353050Y0166800D01*
X0363050Y0166800D02*
X0365550Y0164300D01*
X0370550Y0164300D01*
X0373050Y0166800D01*
X0383050Y0166800D02*
X0383050Y0176800D01*
X0357300Y0115050D02*
X0357300Y0113550D01*
X0357300Y0107550D02*
X0357300Y0093550D01*
X0352300Y0094050D02*
X0352300Y0099350D01*
X0352300Y0101850D02*
X0352300Y0107050D01*
X0369471Y0105857D02*
X0369471Y0100247D01*
X0381629Y0100247D02*
X0381629Y0105857D01*
X0383550Y0105550D02*
X0383550Y0107550D01*
X0385550Y0107550D01*
X0390550Y0107550D02*
X0392550Y0107550D01*
X0392550Y0105550D01*
X0392550Y0100550D02*
X0392550Y0098550D01*
X0390550Y0098550D01*
X0385550Y0098550D02*
X0383550Y0098550D01*
X0383550Y0100550D01*
X0357300Y0087550D02*
X0357300Y0086050D01*
X0307550Y0058800D02*
X0305550Y0058800D01*
X0307550Y0058800D02*
X0307550Y0056800D01*
X0300550Y0058800D02*
X0298550Y0058800D01*
X0298550Y0056800D01*
X0298550Y0051800D02*
X0298550Y0049800D01*
X0300550Y0049800D01*
X0300550Y0047548D02*
X0305550Y0047548D01*
X0308050Y0045048D01*
X0308050Y0030048D01*
X0305550Y0027548D01*
X0300550Y0027548D01*
X0298050Y0030048D01*
X0295550Y0027548D01*
X0290550Y0027548D01*
X0288050Y0030048D01*
X0288050Y0045048D01*
X0290550Y0047548D01*
X0295550Y0047548D01*
X0298050Y0045048D01*
X0298050Y0030048D01*
X0308050Y0030048D02*
X0310550Y0027548D01*
X0315550Y0027548D01*
X0318050Y0030048D01*
X0318050Y0045048D01*
X0320550Y0047548D01*
X0325550Y0047548D01*
X0328050Y0045048D01*
X0328050Y0030048D01*
X0325550Y0027548D01*
X0320550Y0027548D01*
X0318050Y0030048D01*
X0328050Y0030048D02*
X0330550Y0027548D01*
X0335550Y0027548D01*
X0338050Y0030048D01*
X0338050Y0045048D01*
X0335550Y0047548D01*
X0330550Y0047548D01*
X0328050Y0045048D01*
X0318050Y0045048D02*
X0315550Y0047548D01*
X0310550Y0047548D01*
X0308050Y0045048D01*
X0307550Y0049800D02*
X0305550Y0049800D01*
X0307550Y0049800D02*
X0307550Y0051800D01*
X0300550Y0047548D02*
X0298050Y0045048D01*
X0338050Y0045048D02*
X0340550Y0047548D01*
X0345550Y0047548D01*
X0348050Y0045048D01*
X0348050Y0030048D01*
X0345550Y0027548D01*
X0340550Y0027548D01*
X0338050Y0030048D01*
X0348050Y0030048D02*
X0350550Y0027548D01*
X0355550Y0027548D01*
X0358050Y0030048D01*
X0358050Y0045048D01*
X0355550Y0047548D01*
X0350550Y0047548D01*
X0348050Y0045048D01*
X0358050Y0045048D02*
X0360550Y0047548D01*
X0365550Y0047548D01*
X0368050Y0045048D01*
X0368050Y0030048D01*
X0365550Y0027548D01*
X0360550Y0027548D01*
X0358050Y0030048D01*
X0368050Y0030048D02*
X0370550Y0027548D01*
X0375550Y0027548D01*
X0378050Y0030048D01*
X0378050Y0045048D01*
X0375550Y0047548D01*
X0370550Y0047548D01*
X0368050Y0045048D01*
X0378050Y0045048D02*
X0380550Y0047548D01*
X0385550Y0047548D01*
X0388050Y0045048D01*
X0388050Y0030048D01*
X0385550Y0027548D01*
X0380550Y0027548D01*
X0378050Y0030048D01*
X0278050Y0089300D02*
X0275550Y0086800D01*
X0270550Y0086800D01*
X0268050Y0089300D01*
X0268050Y0094300D01*
X0270550Y0096800D01*
X0275550Y0096800D01*
X0278050Y0094300D01*
X0278050Y0089300D01*
X0188043Y0048244D02*
X0185710Y0050577D01*
X0188043Y0048244D02*
X0185427Y0045628D01*
X0183164Y0047890D01*
X0168300Y0056800D02*
X0168303Y0057009D01*
X0168310Y0057217D01*
X0168323Y0057425D01*
X0168341Y0057633D01*
X0168364Y0057840D01*
X0168392Y0058047D01*
X0168425Y0058253D01*
X0168463Y0058458D01*
X0168507Y0058662D01*
X0168555Y0058865D01*
X0168608Y0059067D01*
X0168666Y0059267D01*
X0168729Y0059466D01*
X0168797Y0059664D01*
X0168870Y0059859D01*
X0168947Y0060053D01*
X0169029Y0060245D01*
X0169116Y0060434D01*
X0169208Y0060622D01*
X0169304Y0060807D01*
X0169404Y0060990D01*
X0169509Y0061170D01*
X0169619Y0061347D01*
X0169733Y0061522D01*
X0169851Y0061694D01*
X0169973Y0061863D01*
X0170099Y0062029D01*
X0170229Y0062192D01*
X0170364Y0062352D01*
X0170502Y0062508D01*
X0170644Y0062661D01*
X0170790Y0062810D01*
X0170939Y0062956D01*
X0171092Y0063098D01*
X0171248Y0063236D01*
X0171408Y0063371D01*
X0171571Y0063501D01*
X0171737Y0063627D01*
X0171906Y0063749D01*
X0172078Y0063867D01*
X0172253Y0063981D01*
X0172430Y0064091D01*
X0172610Y0064196D01*
X0172793Y0064296D01*
X0172978Y0064392D01*
X0173166Y0064484D01*
X0173355Y0064571D01*
X0173547Y0064653D01*
X0173741Y0064730D01*
X0173936Y0064803D01*
X0174134Y0064871D01*
X0174333Y0064934D01*
X0174533Y0064992D01*
X0174735Y0065045D01*
X0174938Y0065093D01*
X0175142Y0065137D01*
X0175347Y0065175D01*
X0175553Y0065208D01*
X0175760Y0065236D01*
X0175967Y0065259D01*
X0176175Y0065277D01*
X0176383Y0065290D01*
X0176591Y0065297D01*
X0176800Y0065300D01*
X0177009Y0065297D01*
X0177217Y0065290D01*
X0177425Y0065277D01*
X0177633Y0065259D01*
X0177840Y0065236D01*
X0178047Y0065208D01*
X0178253Y0065175D01*
X0178458Y0065137D01*
X0178662Y0065093D01*
X0178865Y0065045D01*
X0179067Y0064992D01*
X0179267Y0064934D01*
X0179466Y0064871D01*
X0179664Y0064803D01*
X0179859Y0064730D01*
X0180053Y0064653D01*
X0180245Y0064571D01*
X0180434Y0064484D01*
X0180622Y0064392D01*
X0180807Y0064296D01*
X0180990Y0064196D01*
X0181170Y0064091D01*
X0181347Y0063981D01*
X0181522Y0063867D01*
X0181694Y0063749D01*
X0181863Y0063627D01*
X0182029Y0063501D01*
X0182192Y0063371D01*
X0182352Y0063236D01*
X0182508Y0063098D01*
X0182661Y0062956D01*
X0182810Y0062810D01*
X0182956Y0062661D01*
X0183098Y0062508D01*
X0183236Y0062352D01*
X0183371Y0062192D01*
X0183501Y0062029D01*
X0183627Y0061863D01*
X0183749Y0061694D01*
X0183867Y0061522D01*
X0183981Y0061347D01*
X0184091Y0061170D01*
X0184196Y0060990D01*
X0184296Y0060807D01*
X0184392Y0060622D01*
X0184484Y0060434D01*
X0184571Y0060245D01*
X0184653Y0060053D01*
X0184730Y0059859D01*
X0184803Y0059664D01*
X0184871Y0059466D01*
X0184934Y0059267D01*
X0184992Y0059067D01*
X0185045Y0058865D01*
X0185093Y0058662D01*
X0185137Y0058458D01*
X0185175Y0058253D01*
X0185208Y0058047D01*
X0185236Y0057840D01*
X0185259Y0057633D01*
X0185277Y0057425D01*
X0185290Y0057217D01*
X0185297Y0057009D01*
X0185300Y0056800D01*
X0185297Y0056591D01*
X0185290Y0056383D01*
X0185277Y0056175D01*
X0185259Y0055967D01*
X0185236Y0055760D01*
X0185208Y0055553D01*
X0185175Y0055347D01*
X0185137Y0055142D01*
X0185093Y0054938D01*
X0185045Y0054735D01*
X0184992Y0054533D01*
X0184934Y0054333D01*
X0184871Y0054134D01*
X0184803Y0053936D01*
X0184730Y0053741D01*
X0184653Y0053547D01*
X0184571Y0053355D01*
X0184484Y0053166D01*
X0184392Y0052978D01*
X0184296Y0052793D01*
X0184196Y0052610D01*
X0184091Y0052430D01*
X0183981Y0052253D01*
X0183867Y0052078D01*
X0183749Y0051906D01*
X0183627Y0051737D01*
X0183501Y0051571D01*
X0183371Y0051408D01*
X0183236Y0051248D01*
X0183098Y0051092D01*
X0182956Y0050939D01*
X0182810Y0050790D01*
X0182661Y0050644D01*
X0182508Y0050502D01*
X0182352Y0050364D01*
X0182192Y0050229D01*
X0182029Y0050099D01*
X0181863Y0049973D01*
X0181694Y0049851D01*
X0181522Y0049733D01*
X0181347Y0049619D01*
X0181170Y0049509D01*
X0180990Y0049404D01*
X0180807Y0049304D01*
X0180622Y0049208D01*
X0180434Y0049116D01*
X0180245Y0049029D01*
X0180053Y0048947D01*
X0179859Y0048870D01*
X0179664Y0048797D01*
X0179466Y0048729D01*
X0179267Y0048666D01*
X0179067Y0048608D01*
X0178865Y0048555D01*
X0178662Y0048507D01*
X0178458Y0048463D01*
X0178253Y0048425D01*
X0178047Y0048392D01*
X0177840Y0048364D01*
X0177633Y0048341D01*
X0177425Y0048323D01*
X0177217Y0048310D01*
X0177009Y0048303D01*
X0176800Y0048300D01*
X0176591Y0048303D01*
X0176383Y0048310D01*
X0176175Y0048323D01*
X0175967Y0048341D01*
X0175760Y0048364D01*
X0175553Y0048392D01*
X0175347Y0048425D01*
X0175142Y0048463D01*
X0174938Y0048507D01*
X0174735Y0048555D01*
X0174533Y0048608D01*
X0174333Y0048666D01*
X0174134Y0048729D01*
X0173936Y0048797D01*
X0173741Y0048870D01*
X0173547Y0048947D01*
X0173355Y0049029D01*
X0173166Y0049116D01*
X0172978Y0049208D01*
X0172793Y0049304D01*
X0172610Y0049404D01*
X0172430Y0049509D01*
X0172253Y0049619D01*
X0172078Y0049733D01*
X0171906Y0049851D01*
X0171737Y0049973D01*
X0171571Y0050099D01*
X0171408Y0050229D01*
X0171248Y0050364D01*
X0171092Y0050502D01*
X0170939Y0050644D01*
X0170790Y0050790D01*
X0170644Y0050939D01*
X0170502Y0051092D01*
X0170364Y0051248D01*
X0170229Y0051408D01*
X0170099Y0051571D01*
X0169973Y0051737D01*
X0169851Y0051906D01*
X0169733Y0052078D01*
X0169619Y0052253D01*
X0169509Y0052430D01*
X0169404Y0052610D01*
X0169304Y0052793D01*
X0169208Y0052978D01*
X0169116Y0053166D01*
X0169029Y0053355D01*
X0168947Y0053547D01*
X0168870Y0053741D01*
X0168797Y0053936D01*
X0168729Y0054134D01*
X0168666Y0054333D01*
X0168608Y0054533D01*
X0168555Y0054735D01*
X0168507Y0054938D01*
X0168463Y0055142D01*
X0168425Y0055347D01*
X0168392Y0055553D01*
X0168364Y0055760D01*
X0168341Y0055967D01*
X0168323Y0056175D01*
X0168310Y0056383D01*
X0168303Y0056591D01*
X0168300Y0056800D01*
X0171497Y0062103D02*
X0171626Y0062230D01*
X0171759Y0062353D01*
X0171895Y0062474D01*
X0172033Y0062590D01*
X0172175Y0062704D01*
X0172319Y0062814D01*
X0172465Y0062920D01*
X0172614Y0063023D01*
X0172766Y0063123D01*
X0172920Y0063218D01*
X0173076Y0063310D01*
X0173235Y0063398D01*
X0173395Y0063483D01*
X0173558Y0063563D01*
X0173722Y0063639D01*
X0173888Y0063712D01*
X0174056Y0063780D01*
X0174225Y0063844D01*
X0174396Y0063904D01*
X0174569Y0063960D01*
X0174742Y0064012D01*
X0174917Y0064060D01*
X0175093Y0064103D01*
X0175270Y0064142D01*
X0175448Y0064177D01*
X0175627Y0064208D01*
X0175806Y0064234D01*
X0175986Y0064256D01*
X0176166Y0064273D01*
X0176347Y0064286D01*
X0176528Y0064295D01*
X0176709Y0064299D01*
X0176891Y0064299D01*
X0177072Y0064295D01*
X0177253Y0064286D01*
X0177434Y0064273D01*
X0177614Y0064256D01*
X0177794Y0064234D01*
X0177973Y0064208D01*
X0178152Y0064177D01*
X0178330Y0064142D01*
X0178507Y0064103D01*
X0178683Y0064060D01*
X0178858Y0064012D01*
X0179031Y0063960D01*
X0179204Y0063904D01*
X0179375Y0063844D01*
X0179544Y0063780D01*
X0179712Y0063712D01*
X0179878Y0063639D01*
X0180042Y0063563D01*
X0180205Y0063483D01*
X0180365Y0063398D01*
X0180524Y0063310D01*
X0180680Y0063218D01*
X0180834Y0063123D01*
X0180986Y0063023D01*
X0181135Y0062920D01*
X0181281Y0062814D01*
X0181425Y0062704D01*
X0181567Y0062590D01*
X0181705Y0062474D01*
X0181841Y0062353D01*
X0181974Y0062230D01*
X0182103Y0062103D01*
X0165971Y0056871D02*
X0165974Y0057138D01*
X0165984Y0057406D01*
X0166001Y0057673D01*
X0166023Y0057939D01*
X0166053Y0058205D01*
X0166089Y0058470D01*
X0166131Y0058734D01*
X0166180Y0058997D01*
X0166236Y0059259D01*
X0166298Y0059519D01*
X0166366Y0059778D01*
X0166440Y0060035D01*
X0166521Y0060290D01*
X0166608Y0060543D01*
X0166701Y0060794D01*
X0166801Y0061042D01*
X0166906Y0061288D01*
X0167018Y0061531D01*
X0167135Y0061772D01*
X0167258Y0062009D01*
X0167387Y0062244D01*
X0167522Y0062475D01*
X0167662Y0062702D01*
X0167808Y0062927D01*
X0167959Y0063147D01*
X0168116Y0063364D01*
X0168278Y0063577D01*
X0168445Y0063786D01*
X0168617Y0063991D01*
X0168795Y0064191D01*
X0168977Y0064387D01*
X0169164Y0064578D01*
X0169355Y0064765D01*
X0169551Y0064947D01*
X0169751Y0065125D01*
X0169956Y0065297D01*
X0170165Y0065464D01*
X0170378Y0065626D01*
X0170595Y0065783D01*
X0170815Y0065934D01*
X0171040Y0066080D01*
X0171267Y0066220D01*
X0171498Y0066355D01*
X0171733Y0066484D01*
X0171970Y0066607D01*
X0172211Y0066724D01*
X0172454Y0066836D01*
X0172700Y0066941D01*
X0172948Y0067041D01*
X0173199Y0067134D01*
X0173452Y0067221D01*
X0173707Y0067302D01*
X0173964Y0067376D01*
X0174223Y0067444D01*
X0174483Y0067506D01*
X0174745Y0067562D01*
X0175008Y0067611D01*
X0175272Y0067653D01*
X0175537Y0067689D01*
X0175803Y0067719D01*
X0176069Y0067741D01*
X0176336Y0067758D01*
X0176604Y0067768D01*
X0176871Y0067771D01*
X0177138Y0067768D01*
X0177406Y0067758D01*
X0177673Y0067741D01*
X0177939Y0067719D01*
X0178205Y0067689D01*
X0178470Y0067653D01*
X0178734Y0067611D01*
X0178997Y0067562D01*
X0179259Y0067506D01*
X0179519Y0067444D01*
X0179778Y0067376D01*
X0180035Y0067302D01*
X0180290Y0067221D01*
X0180543Y0067134D01*
X0180794Y0067041D01*
X0181042Y0066941D01*
X0181288Y0066836D01*
X0181531Y0066724D01*
X0181772Y0066607D01*
X0182009Y0066484D01*
X0182244Y0066355D01*
X0182475Y0066220D01*
X0182702Y0066080D01*
X0182927Y0065934D01*
X0183147Y0065783D01*
X0183364Y0065626D01*
X0183577Y0065464D01*
X0183786Y0065297D01*
X0183991Y0065125D01*
X0184191Y0064947D01*
X0184387Y0064765D01*
X0184578Y0064578D01*
X0184765Y0064387D01*
X0184947Y0064191D01*
X0185125Y0063991D01*
X0185297Y0063786D01*
X0185464Y0063577D01*
X0185626Y0063364D01*
X0185783Y0063147D01*
X0185934Y0062927D01*
X0186080Y0062702D01*
X0186220Y0062475D01*
X0186355Y0062244D01*
X0186484Y0062009D01*
X0186607Y0061772D01*
X0186724Y0061531D01*
X0186836Y0061288D01*
X0186941Y0061042D01*
X0187041Y0060794D01*
X0187134Y0060543D01*
X0187221Y0060290D01*
X0187302Y0060035D01*
X0187376Y0059778D01*
X0187444Y0059519D01*
X0187506Y0059259D01*
X0187562Y0058997D01*
X0187611Y0058734D01*
X0187653Y0058470D01*
X0187689Y0058205D01*
X0187719Y0057939D01*
X0187741Y0057673D01*
X0187758Y0057406D01*
X0187768Y0057138D01*
X0187771Y0056871D01*
X0187768Y0056604D01*
X0187758Y0056336D01*
X0187741Y0056069D01*
X0187719Y0055803D01*
X0187689Y0055537D01*
X0187653Y0055272D01*
X0187611Y0055008D01*
X0187562Y0054745D01*
X0187506Y0054483D01*
X0187444Y0054223D01*
X0187376Y0053964D01*
X0187302Y0053707D01*
X0187221Y0053452D01*
X0187134Y0053199D01*
X0187041Y0052948D01*
X0186941Y0052700D01*
X0186836Y0052454D01*
X0186724Y0052211D01*
X0186607Y0051970D01*
X0186484Y0051733D01*
X0186355Y0051498D01*
X0186220Y0051267D01*
X0186080Y0051040D01*
X0185934Y0050815D01*
X0185783Y0050595D01*
X0185626Y0050378D01*
X0185464Y0050165D01*
X0185297Y0049956D01*
X0185125Y0049751D01*
X0184947Y0049551D01*
X0184765Y0049355D01*
X0184578Y0049164D01*
X0184387Y0048977D01*
X0184191Y0048795D01*
X0183991Y0048617D01*
X0183786Y0048445D01*
X0183577Y0048278D01*
X0183364Y0048116D01*
X0183147Y0047959D01*
X0182927Y0047808D01*
X0182702Y0047662D01*
X0182475Y0047522D01*
X0182244Y0047387D01*
X0182009Y0047258D01*
X0181772Y0047135D01*
X0181531Y0047018D01*
X0181288Y0046906D01*
X0181042Y0046801D01*
X0180794Y0046701D01*
X0180543Y0046608D01*
X0180290Y0046521D01*
X0180035Y0046440D01*
X0179778Y0046366D01*
X0179519Y0046298D01*
X0179259Y0046236D01*
X0178997Y0046180D01*
X0178734Y0046131D01*
X0178470Y0046089D01*
X0178205Y0046053D01*
X0177939Y0046023D01*
X0177673Y0046001D01*
X0177406Y0045984D01*
X0177138Y0045974D01*
X0176871Y0045971D01*
X0176604Y0045974D01*
X0176336Y0045984D01*
X0176069Y0046001D01*
X0175803Y0046023D01*
X0175537Y0046053D01*
X0175272Y0046089D01*
X0175008Y0046131D01*
X0174745Y0046180D01*
X0174483Y0046236D01*
X0174223Y0046298D01*
X0173964Y0046366D01*
X0173707Y0046440D01*
X0173452Y0046521D01*
X0173199Y0046608D01*
X0172948Y0046701D01*
X0172700Y0046801D01*
X0172454Y0046906D01*
X0172211Y0047018D01*
X0171970Y0047135D01*
X0171733Y0047258D01*
X0171498Y0047387D01*
X0171267Y0047522D01*
X0171040Y0047662D01*
X0170815Y0047808D01*
X0170595Y0047959D01*
X0170378Y0048116D01*
X0170165Y0048278D01*
X0169956Y0048445D01*
X0169751Y0048617D01*
X0169551Y0048795D01*
X0169355Y0048977D01*
X0169164Y0049164D01*
X0168977Y0049355D01*
X0168795Y0049551D01*
X0168617Y0049751D01*
X0168445Y0049956D01*
X0168278Y0050165D01*
X0168116Y0050378D01*
X0167959Y0050595D01*
X0167808Y0050815D01*
X0167662Y0051040D01*
X0167522Y0051267D01*
X0167387Y0051498D01*
X0167258Y0051733D01*
X0167135Y0051970D01*
X0167018Y0052211D01*
X0166906Y0052454D01*
X0166801Y0052700D01*
X0166701Y0052948D01*
X0166608Y0053199D01*
X0166521Y0053452D01*
X0166440Y0053707D01*
X0166366Y0053964D01*
X0166298Y0054223D01*
X0166236Y0054483D01*
X0166180Y0054745D01*
X0166131Y0055008D01*
X0166089Y0055272D01*
X0166053Y0055537D01*
X0166023Y0055803D01*
X0166001Y0056069D01*
X0165984Y0056336D01*
X0165974Y0056604D01*
X0165971Y0056871D01*
X0173264Y0060336D02*
X0173365Y0060433D01*
X0173468Y0060528D01*
X0173574Y0060620D01*
X0173683Y0060709D01*
X0173793Y0060795D01*
X0173907Y0060878D01*
X0174022Y0060957D01*
X0174140Y0061034D01*
X0174260Y0061107D01*
X0174381Y0061176D01*
X0174505Y0061242D01*
X0174631Y0061305D01*
X0174758Y0061364D01*
X0174887Y0061419D01*
X0175017Y0061471D01*
X0175149Y0061519D01*
X0175282Y0061564D01*
X0175416Y0061605D01*
X0175551Y0061642D01*
X0175687Y0061675D01*
X0175825Y0061704D01*
X0175962Y0061729D01*
X0176101Y0061751D01*
X0176240Y0061769D01*
X0176380Y0061782D01*
X0176520Y0061792D01*
X0176660Y0061798D01*
X0176800Y0061800D01*
X0176940Y0061798D01*
X0177080Y0061792D01*
X0177220Y0061782D01*
X0177360Y0061769D01*
X0177499Y0061751D01*
X0177638Y0061729D01*
X0177775Y0061704D01*
X0177913Y0061675D01*
X0178049Y0061642D01*
X0178184Y0061605D01*
X0178318Y0061564D01*
X0178451Y0061519D01*
X0178583Y0061471D01*
X0178713Y0061419D01*
X0178842Y0061364D01*
X0178969Y0061305D01*
X0179095Y0061242D01*
X0179219Y0061176D01*
X0179340Y0061107D01*
X0179460Y0061034D01*
X0179578Y0060957D01*
X0179693Y0060878D01*
X0179807Y0060795D01*
X0179917Y0060709D01*
X0180026Y0060620D01*
X0180132Y0060528D01*
X0180235Y0060433D01*
X0180336Y0060336D01*
X0180336Y0053264D02*
X0180235Y0053167D01*
X0180132Y0053072D01*
X0180026Y0052980D01*
X0179917Y0052891D01*
X0179807Y0052805D01*
X0179693Y0052722D01*
X0179578Y0052643D01*
X0179460Y0052566D01*
X0179340Y0052493D01*
X0179219Y0052424D01*
X0179095Y0052358D01*
X0178969Y0052295D01*
X0178842Y0052236D01*
X0178713Y0052181D01*
X0178583Y0052129D01*
X0178451Y0052081D01*
X0178318Y0052036D01*
X0178184Y0051995D01*
X0178049Y0051958D01*
X0177913Y0051925D01*
X0177775Y0051896D01*
X0177638Y0051871D01*
X0177499Y0051849D01*
X0177360Y0051831D01*
X0177220Y0051818D01*
X0177080Y0051808D01*
X0176940Y0051802D01*
X0176800Y0051800D01*
X0176660Y0051802D01*
X0176520Y0051808D01*
X0176380Y0051818D01*
X0176240Y0051831D01*
X0176101Y0051849D01*
X0175962Y0051871D01*
X0175825Y0051896D01*
X0175687Y0051925D01*
X0175551Y0051958D01*
X0175416Y0051995D01*
X0175282Y0052036D01*
X0175149Y0052081D01*
X0175017Y0052129D01*
X0174887Y0052181D01*
X0174758Y0052236D01*
X0174631Y0052295D01*
X0174505Y0052358D01*
X0174381Y0052424D01*
X0174260Y0052493D01*
X0174140Y0052566D01*
X0174022Y0052643D01*
X0173907Y0052722D01*
X0173793Y0052805D01*
X0173683Y0052891D01*
X0173574Y0052980D01*
X0173468Y0053072D01*
X0173365Y0053167D01*
X0173264Y0053264D01*
X0171497Y0051497D02*
X0171626Y0051370D01*
X0171759Y0051247D01*
X0171895Y0051126D01*
X0172033Y0051010D01*
X0172175Y0050896D01*
X0172319Y0050786D01*
X0172465Y0050680D01*
X0172614Y0050577D01*
X0172766Y0050477D01*
X0172920Y0050382D01*
X0173076Y0050290D01*
X0173235Y0050202D01*
X0173395Y0050117D01*
X0173558Y0050037D01*
X0173722Y0049961D01*
X0173888Y0049888D01*
X0174056Y0049820D01*
X0174225Y0049756D01*
X0174396Y0049696D01*
X0174569Y0049640D01*
X0174742Y0049588D01*
X0174917Y0049540D01*
X0175093Y0049497D01*
X0175270Y0049458D01*
X0175448Y0049423D01*
X0175627Y0049392D01*
X0175806Y0049366D01*
X0175986Y0049344D01*
X0176166Y0049327D01*
X0176347Y0049314D01*
X0176528Y0049305D01*
X0176709Y0049301D01*
X0176891Y0049301D01*
X0177072Y0049305D01*
X0177253Y0049314D01*
X0177434Y0049327D01*
X0177614Y0049344D01*
X0177794Y0049366D01*
X0177973Y0049392D01*
X0178152Y0049423D01*
X0178330Y0049458D01*
X0178507Y0049497D01*
X0178683Y0049540D01*
X0178858Y0049588D01*
X0179031Y0049640D01*
X0179204Y0049696D01*
X0179375Y0049756D01*
X0179544Y0049820D01*
X0179712Y0049888D01*
X0179878Y0049961D01*
X0180042Y0050037D01*
X0180205Y0050117D01*
X0180365Y0050202D01*
X0180524Y0050290D01*
X0180680Y0050382D01*
X0180834Y0050477D01*
X0180986Y0050577D01*
X0181135Y0050680D01*
X0181281Y0050786D01*
X0181425Y0050896D01*
X0181567Y0051010D01*
X0181705Y0051126D01*
X0181841Y0051247D01*
X0181974Y0051370D01*
X0182103Y0051497D01*
X0209800Y0037550D02*
X0209800Y0035550D01*
X0209800Y0037550D02*
X0211800Y0037550D01*
X0216800Y0037550D02*
X0218800Y0037550D01*
X0218800Y0035550D01*
X0218800Y0030550D02*
X0218800Y0028550D01*
X0216800Y0028550D01*
X0211800Y0028550D02*
X0209800Y0028550D01*
X0209800Y0030550D01*
X0229800Y0030550D02*
X0229800Y0028550D01*
X0231800Y0028550D01*
X0236800Y0028550D02*
X0238800Y0028550D01*
X0238800Y0030550D01*
X0238800Y0035550D02*
X0238800Y0037550D01*
X0236800Y0037550D01*
X0231800Y0037550D02*
X0229800Y0037550D01*
X0229800Y0035550D01*
X0154300Y0035550D02*
X0154300Y0025550D01*
X0151800Y0023050D01*
X0146800Y0023050D01*
X0144300Y0025550D01*
X0141800Y0023050D01*
X0136800Y0023050D01*
X0134300Y0025550D01*
X0134300Y0035550D01*
X0136800Y0038050D01*
X0141800Y0038050D01*
X0144300Y0035550D01*
X0146800Y0038050D01*
X0151800Y0038050D01*
X0154300Y0035550D01*
X0144300Y0035550D02*
X0144300Y0025550D01*
X0134300Y0025550D02*
X0131800Y0023050D01*
X0126800Y0023050D01*
X0124300Y0025550D01*
X0121800Y0023050D01*
X0116800Y0023050D01*
X0114300Y0025550D01*
X0111800Y0023050D01*
X0106800Y0023050D01*
X0104300Y0025550D01*
X0101800Y0023050D01*
X0096800Y0023050D01*
X0094300Y0025550D01*
X0094300Y0035550D01*
X0096800Y0038050D01*
X0101800Y0038050D01*
X0104300Y0035550D01*
X0106800Y0038050D01*
X0111800Y0038050D01*
X0114300Y0035550D01*
X0116800Y0038050D01*
X0121800Y0038050D01*
X0124300Y0035550D01*
X0126800Y0038050D01*
X0131800Y0038050D01*
X0134300Y0035550D01*
X0124300Y0035550D02*
X0124300Y0025550D01*
X0114300Y0025550D02*
X0114300Y0035550D01*
X0104300Y0035550D02*
X0104300Y0025550D01*
X0078077Y0052169D02*
X0075141Y0052169D01*
X0076609Y0052169D02*
X0076609Y0056573D01*
X0075141Y0055105D01*
D14*
X0119882Y0043153D02*
X0119882Y0039613D01*
X0119882Y0041383D02*
X0121062Y0041383D01*
X0119882Y0043153D02*
X0122242Y0043153D01*
X0123507Y0043153D02*
X0125867Y0043153D01*
X0124687Y0043153D02*
X0124687Y0039613D01*
X0127132Y0039613D02*
X0128902Y0039613D01*
X0129492Y0040203D01*
X0129492Y0042563D01*
X0128902Y0043153D01*
X0127132Y0043153D01*
X0127132Y0039613D01*
X0130757Y0039613D02*
X0131937Y0039613D01*
X0131347Y0039613D02*
X0131347Y0043153D01*
X0130757Y0043153D02*
X0131937Y0043153D01*
X0136799Y0043153D02*
X0138569Y0043153D01*
X0139159Y0042563D01*
X0139159Y0041383D01*
X0138569Y0040793D01*
X0136799Y0040793D01*
X0136799Y0039613D02*
X0136799Y0043153D01*
X0137979Y0040793D02*
X0139159Y0039613D01*
X0140424Y0039613D02*
X0140424Y0043153D01*
X0142784Y0039613D01*
X0142784Y0043153D01*
X0144049Y0042563D02*
X0144639Y0043153D01*
X0145819Y0043153D01*
X0146409Y0042563D01*
X0146409Y0041973D01*
X0144049Y0039613D01*
X0146409Y0039613D01*
X0147674Y0041383D02*
X0150035Y0041383D01*
X0151300Y0041973D02*
X0151300Y0042563D01*
X0151890Y0043153D01*
X0153070Y0043153D01*
X0153660Y0042563D01*
X0153660Y0041973D01*
X0153070Y0041383D01*
X0151890Y0041383D01*
X0151300Y0041973D01*
X0151890Y0041383D02*
X0151300Y0040793D01*
X0151300Y0040203D01*
X0151890Y0039613D01*
X0153070Y0039613D01*
X0153660Y0040203D01*
X0153660Y0040793D01*
X0153070Y0041383D01*
X0154925Y0040203D02*
X0155515Y0039613D01*
X0156695Y0039613D01*
X0157285Y0040203D01*
X0157285Y0040793D01*
X0156695Y0041383D01*
X0156105Y0041383D01*
X0156695Y0041383D02*
X0157285Y0041973D01*
X0157285Y0042563D01*
X0156695Y0043153D01*
X0155515Y0043153D01*
X0154925Y0042563D01*
X0149445Y0043153D02*
X0147674Y0041383D01*
X0149445Y0039613D02*
X0149445Y0043153D01*
X0135534Y0039023D02*
X0133174Y0039023D01*
X0152286Y0051902D02*
X0152286Y0055442D01*
X0154056Y0055442D01*
X0154646Y0054852D01*
X0154646Y0053672D01*
X0154056Y0053082D01*
X0152286Y0053082D01*
X0155911Y0053672D02*
X0158271Y0053672D01*
X0158271Y0055442D02*
X0158271Y0051902D01*
X0155911Y0051902D02*
X0155911Y0055442D01*
X0159536Y0055442D02*
X0161896Y0055442D01*
X0160716Y0055442D02*
X0160716Y0051902D01*
X0214267Y0025235D02*
X0214267Y0022875D01*
X0244337Y0032805D02*
X0246697Y0032805D01*
X0245517Y0031625D02*
X0245517Y0033985D01*
X0298810Y0061250D02*
X0298810Y0063020D01*
X0299400Y0063610D01*
X0301760Y0063610D01*
X0302350Y0063020D01*
X0302350Y0061250D01*
X0298810Y0061250D01*
X0299400Y0064875D02*
X0298810Y0065465D01*
X0298810Y0066645D01*
X0299400Y0067235D01*
X0301760Y0067235D01*
X0302350Y0066645D01*
X0302350Y0065465D01*
X0301760Y0064875D01*
X0299400Y0064875D01*
X0301170Y0066055D02*
X0302350Y0067235D01*
X0332000Y0053788D02*
X0333180Y0053788D01*
X0332590Y0053788D02*
X0332590Y0050248D01*
X0332000Y0050248D02*
X0333180Y0050248D01*
X0334417Y0050248D02*
X0336777Y0052608D01*
X0336777Y0053198D01*
X0336187Y0053788D01*
X0335007Y0053788D01*
X0334417Y0053198D01*
X0334417Y0050248D02*
X0336777Y0050248D01*
X0338042Y0050838D02*
X0338042Y0053198D01*
X0338632Y0053788D01*
X0339812Y0053788D01*
X0340402Y0053198D01*
X0340402Y0050838D02*
X0339812Y0050248D01*
X0338632Y0050248D01*
X0338042Y0050838D01*
X0341667Y0049658D02*
X0344027Y0049658D01*
X0345292Y0050248D02*
X0347652Y0050248D01*
X0348917Y0050248D02*
X0351277Y0053788D01*
X0352542Y0053788D02*
X0354902Y0053788D01*
X0353722Y0053788D02*
X0353722Y0050248D01*
X0351277Y0050248D02*
X0348917Y0053788D01*
X0347652Y0053788D02*
X0345292Y0053788D01*
X0345292Y0050248D01*
X0345292Y0052018D02*
X0346472Y0052018D01*
X0364810Y0096250D02*
X0364810Y0097430D01*
X0364810Y0096840D02*
X0368350Y0096840D01*
X0368350Y0096250D02*
X0368350Y0097430D01*
X0367760Y0098667D02*
X0365400Y0098667D01*
X0364810Y0099257D01*
X0364810Y0100437D01*
X0365400Y0101027D01*
X0365400Y0102292D02*
X0364810Y0102882D01*
X0364810Y0104062D01*
X0365400Y0104652D01*
X0365990Y0104652D01*
X0366580Y0104062D01*
X0367170Y0104652D01*
X0367760Y0104652D01*
X0368350Y0104062D01*
X0368350Y0102882D01*
X0367760Y0102292D01*
X0367760Y0101027D02*
X0368350Y0100437D01*
X0368350Y0099257D01*
X0367760Y0098667D01*
X0366580Y0103472D02*
X0366580Y0104062D01*
X0232050Y0139635D02*
X0232050Y0143965D01*
X0225050Y0143965D02*
X0225050Y0139635D01*
X0224050Y0139635D02*
X0224050Y0143965D01*
D15*
X0148631Y0145698D02*
X0136820Y0145698D01*
X0140756Y0146091D02*
X0140758Y0146178D01*
X0140764Y0146265D01*
X0140773Y0146352D01*
X0140787Y0146438D01*
X0140804Y0146523D01*
X0140825Y0146608D01*
X0140850Y0146691D01*
X0140878Y0146774D01*
X0140910Y0146855D01*
X0140946Y0146934D01*
X0140985Y0147012D01*
X0141027Y0147088D01*
X0141073Y0147162D01*
X0141122Y0147234D01*
X0141174Y0147304D01*
X0141229Y0147371D01*
X0141287Y0147436D01*
X0141348Y0147499D01*
X0141412Y0147558D01*
X0141478Y0147615D01*
X0141547Y0147668D01*
X0141618Y0147719D01*
X0141691Y0147766D01*
X0141766Y0147811D01*
X0141843Y0147851D01*
X0141921Y0147889D01*
X0142002Y0147922D01*
X0142083Y0147953D01*
X0142166Y0147979D01*
X0142251Y0148002D01*
X0142336Y0148021D01*
X0142421Y0148036D01*
X0142508Y0148048D01*
X0142594Y0148056D01*
X0142681Y0148060D01*
X0142769Y0148060D01*
X0142856Y0148056D01*
X0142942Y0148048D01*
X0143029Y0148036D01*
X0143114Y0148021D01*
X0143199Y0148002D01*
X0143284Y0147979D01*
X0143367Y0147953D01*
X0143448Y0147922D01*
X0143529Y0147889D01*
X0143607Y0147851D01*
X0143684Y0147811D01*
X0143759Y0147766D01*
X0143832Y0147719D01*
X0143903Y0147668D01*
X0143972Y0147615D01*
X0144038Y0147558D01*
X0144102Y0147499D01*
X0144163Y0147436D01*
X0144221Y0147371D01*
X0144276Y0147304D01*
X0144328Y0147234D01*
X0144377Y0147162D01*
X0144423Y0147088D01*
X0144465Y0147012D01*
X0144504Y0146934D01*
X0144540Y0146855D01*
X0144572Y0146774D01*
X0144600Y0146691D01*
X0144625Y0146608D01*
X0144646Y0146523D01*
X0144663Y0146438D01*
X0144677Y0146352D01*
X0144686Y0146265D01*
X0144692Y0146178D01*
X0144694Y0146091D01*
X0148631Y0155540D02*
X0148631Y0166564D01*
X0136820Y0166564D02*
X0136820Y0155540D01*
X0136820Y0176406D02*
X0148631Y0176406D01*
X0087341Y0151869D02*
X0087341Y0149869D01*
X0087341Y0151869D02*
X0070341Y0151869D01*
X0034341Y0151869D02*
X0017341Y0151869D01*
X0017341Y0149869D01*
X0017341Y0048869D02*
X0017341Y0046869D01*
X0087341Y0046869D01*
X0087341Y0048869D01*
X0224251Y0044182D02*
X0236849Y0044182D01*
X0236849Y0054418D02*
X0224251Y0054418D01*
D16*
X0214420Y0074300D02*
X0214180Y0074300D01*
D17*
X0223650Y0110363D02*
X0223650Y0118237D01*
X0223406Y0110850D02*
X0223408Y0110889D01*
X0223414Y0110928D01*
X0223424Y0110966D01*
X0223437Y0111003D01*
X0223454Y0111038D01*
X0223474Y0111072D01*
X0223498Y0111103D01*
X0223525Y0111132D01*
X0223554Y0111158D01*
X0223586Y0111181D01*
X0223620Y0111201D01*
X0223656Y0111217D01*
X0223693Y0111229D01*
X0223732Y0111238D01*
X0223771Y0111243D01*
X0223810Y0111244D01*
X0223849Y0111241D01*
X0223888Y0111234D01*
X0223925Y0111223D01*
X0223962Y0111209D01*
X0223997Y0111191D01*
X0224030Y0111170D01*
X0224061Y0111145D01*
X0224089Y0111118D01*
X0224114Y0111088D01*
X0224136Y0111055D01*
X0224155Y0111021D01*
X0224170Y0110985D01*
X0224182Y0110947D01*
X0224190Y0110909D01*
X0224194Y0110870D01*
X0224194Y0110830D01*
X0224190Y0110791D01*
X0224182Y0110753D01*
X0224170Y0110715D01*
X0224155Y0110679D01*
X0224136Y0110645D01*
X0224114Y0110612D01*
X0224089Y0110582D01*
X0224061Y0110555D01*
X0224030Y0110530D01*
X0223997Y0110509D01*
X0223962Y0110491D01*
X0223925Y0110477D01*
X0223888Y0110466D01*
X0223849Y0110459D01*
X0223810Y0110456D01*
X0223771Y0110457D01*
X0223732Y0110462D01*
X0223693Y0110471D01*
X0223656Y0110483D01*
X0223620Y0110499D01*
X0223586Y0110519D01*
X0223554Y0110542D01*
X0223525Y0110568D01*
X0223498Y0110597D01*
X0223474Y0110628D01*
X0223454Y0110662D01*
X0223437Y0110697D01*
X0223424Y0110734D01*
X0223414Y0110772D01*
X0223408Y0110811D01*
X0223406Y0110850D01*
X0234950Y0110363D02*
X0234950Y0118237D01*
X0085114Y0191050D02*
X0082112Y0191050D01*
X0085114Y0194053D01*
X0085114Y0194803D01*
X0084364Y0195554D01*
X0082862Y0195554D01*
X0082112Y0194803D01*
X0080510Y0194803D02*
X0079760Y0195554D01*
X0077508Y0195554D01*
X0077508Y0191050D01*
X0079760Y0191050D01*
X0080510Y0191801D01*
X0080510Y0194803D01*
X0075906Y0194053D02*
X0075906Y0191050D01*
X0075906Y0193302D02*
X0072904Y0193302D01*
X0072904Y0194053D02*
X0074405Y0195554D01*
X0075906Y0194053D01*
X0072904Y0194053D02*
X0072904Y0191050D01*
X0071303Y0193302D02*
X0070552Y0192551D01*
X0068300Y0192551D01*
X0068300Y0191050D02*
X0068300Y0195554D01*
X0070552Y0195554D01*
X0071303Y0194803D01*
X0071303Y0193302D01*
X0038864Y0192551D02*
X0038864Y0191801D01*
X0038114Y0191050D01*
X0036612Y0191050D01*
X0035862Y0191801D01*
X0034260Y0191801D02*
X0034260Y0194803D01*
X0033510Y0195554D01*
X0031258Y0195554D01*
X0031258Y0191050D01*
X0033510Y0191050D01*
X0034260Y0191801D01*
X0037363Y0193302D02*
X0038114Y0193302D01*
X0038864Y0192551D01*
X0038114Y0193302D02*
X0038864Y0194053D01*
X0038864Y0194803D01*
X0038114Y0195554D01*
X0036612Y0195554D01*
X0035862Y0194803D01*
X0029656Y0194053D02*
X0029656Y0191050D01*
X0029656Y0193302D02*
X0026654Y0193302D01*
X0026654Y0194053D02*
X0028155Y0195554D01*
X0029656Y0194053D01*
X0026654Y0194053D02*
X0026654Y0191050D01*
X0025053Y0193302D02*
X0024302Y0192551D01*
X0022050Y0192551D01*
X0022050Y0191050D02*
X0022050Y0195554D01*
X0024302Y0195554D01*
X0025053Y0194803D01*
X0025053Y0193302D01*
D18*
X0349800Y0101850D02*
X0352300Y0101850D01*
X0354800Y0101850D01*
X0354800Y0099350D02*
X0352300Y0099350D01*
X0349800Y0099350D01*
M02*
