G75*
%MOIN*%
%OFA0B0*%
%FSLAX24Y24*%
%IPPOS*%
%LPD*%
%AMOC8*
5,1,8,0,0,1.08239X$1,22.5*
%
%ADD10C,0.0000*%
%ADD11OC8,0.0660*%
%ADD12C,0.1000*%
%ADD13OC8,0.0600*%
%ADD14C,0.0080*%
%ADD15C,0.0240*%
D10*
X000147Y000177D02*
X000147Y013680D01*
X007730Y013680D01*
X007730Y000177D01*
X000147Y000177D01*
X002523Y001002D02*
X002525Y001050D01*
X002531Y001098D01*
X002541Y001145D01*
X002554Y001191D01*
X002572Y001236D01*
X002592Y001280D01*
X002617Y001322D01*
X002645Y001361D01*
X002675Y001398D01*
X002709Y001432D01*
X002746Y001464D01*
X002784Y001493D01*
X002825Y001518D01*
X002868Y001540D01*
X002913Y001558D01*
X002959Y001572D01*
X003006Y001583D01*
X003054Y001590D01*
X003102Y001593D01*
X003150Y001592D01*
X003198Y001587D01*
X003246Y001578D01*
X003292Y001566D01*
X003337Y001549D01*
X003381Y001529D01*
X003423Y001506D01*
X003463Y001479D01*
X003501Y001449D01*
X003536Y001416D01*
X003568Y001380D01*
X003598Y001342D01*
X003624Y001301D01*
X003646Y001258D01*
X003666Y001214D01*
X003681Y001169D01*
X003693Y001122D01*
X003701Y001074D01*
X003705Y001026D01*
X003705Y000978D01*
X003701Y000930D01*
X003693Y000882D01*
X003681Y000835D01*
X003666Y000790D01*
X003646Y000746D01*
X003624Y000703D01*
X003598Y000662D01*
X003568Y000624D01*
X003536Y000588D01*
X003501Y000555D01*
X003463Y000525D01*
X003423Y000498D01*
X003381Y000475D01*
X003337Y000455D01*
X003292Y000438D01*
X003246Y000426D01*
X003198Y000417D01*
X003150Y000412D01*
X003102Y000411D01*
X003054Y000414D01*
X003006Y000421D01*
X002959Y000432D01*
X002913Y000446D01*
X002868Y000464D01*
X002825Y000486D01*
X002784Y000511D01*
X002746Y000540D01*
X002709Y000572D01*
X002675Y000606D01*
X002645Y000643D01*
X002617Y000682D01*
X002592Y000724D01*
X002572Y000768D01*
X002554Y000813D01*
X002541Y000859D01*
X002531Y000906D01*
X002525Y000954D01*
X002523Y001002D01*
X006335Y001002D02*
X006337Y001050D01*
X006343Y001098D01*
X006353Y001145D01*
X006366Y001191D01*
X006384Y001236D01*
X006404Y001280D01*
X006429Y001322D01*
X006457Y001361D01*
X006487Y001398D01*
X006521Y001432D01*
X006558Y001464D01*
X006596Y001493D01*
X006637Y001518D01*
X006680Y001540D01*
X006725Y001558D01*
X006771Y001572D01*
X006818Y001583D01*
X006866Y001590D01*
X006914Y001593D01*
X006962Y001592D01*
X007010Y001587D01*
X007058Y001578D01*
X007104Y001566D01*
X007149Y001549D01*
X007193Y001529D01*
X007235Y001506D01*
X007275Y001479D01*
X007313Y001449D01*
X007348Y001416D01*
X007380Y001380D01*
X007410Y001342D01*
X007436Y001301D01*
X007458Y001258D01*
X007478Y001214D01*
X007493Y001169D01*
X007505Y001122D01*
X007513Y001074D01*
X007517Y001026D01*
X007517Y000978D01*
X007513Y000930D01*
X007505Y000882D01*
X007493Y000835D01*
X007478Y000790D01*
X007458Y000746D01*
X007436Y000703D01*
X007410Y000662D01*
X007380Y000624D01*
X007348Y000588D01*
X007313Y000555D01*
X007275Y000525D01*
X007235Y000498D01*
X007193Y000475D01*
X007149Y000455D01*
X007104Y000438D01*
X007058Y000426D01*
X007010Y000417D01*
X006962Y000412D01*
X006914Y000411D01*
X006866Y000414D01*
X006818Y000421D01*
X006771Y000432D01*
X006725Y000446D01*
X006680Y000464D01*
X006637Y000486D01*
X006596Y000511D01*
X006558Y000540D01*
X006521Y000572D01*
X006487Y000606D01*
X006457Y000643D01*
X006429Y000682D01*
X006404Y000724D01*
X006384Y000768D01*
X006366Y000813D01*
X006353Y000859D01*
X006343Y000906D01*
X006337Y000954D01*
X006335Y001002D01*
X006335Y012893D02*
X006337Y012941D01*
X006343Y012989D01*
X006353Y013036D01*
X006366Y013082D01*
X006384Y013127D01*
X006404Y013171D01*
X006429Y013213D01*
X006457Y013252D01*
X006487Y013289D01*
X006521Y013323D01*
X006558Y013355D01*
X006596Y013384D01*
X006637Y013409D01*
X006680Y013431D01*
X006725Y013449D01*
X006771Y013463D01*
X006818Y013474D01*
X006866Y013481D01*
X006914Y013484D01*
X006962Y013483D01*
X007010Y013478D01*
X007058Y013469D01*
X007104Y013457D01*
X007149Y013440D01*
X007193Y013420D01*
X007235Y013397D01*
X007275Y013370D01*
X007313Y013340D01*
X007348Y013307D01*
X007380Y013271D01*
X007410Y013233D01*
X007436Y013192D01*
X007458Y013149D01*
X007478Y013105D01*
X007493Y013060D01*
X007505Y013013D01*
X007513Y012965D01*
X007517Y012917D01*
X007517Y012869D01*
X007513Y012821D01*
X007505Y012773D01*
X007493Y012726D01*
X007478Y012681D01*
X007458Y012637D01*
X007436Y012594D01*
X007410Y012553D01*
X007380Y012515D01*
X007348Y012479D01*
X007313Y012446D01*
X007275Y012416D01*
X007235Y012389D01*
X007193Y012366D01*
X007149Y012346D01*
X007104Y012329D01*
X007058Y012317D01*
X007010Y012308D01*
X006962Y012303D01*
X006914Y012302D01*
X006866Y012305D01*
X006818Y012312D01*
X006771Y012323D01*
X006725Y012337D01*
X006680Y012355D01*
X006637Y012377D01*
X006596Y012402D01*
X006558Y012431D01*
X006521Y012463D01*
X006487Y012497D01*
X006457Y012534D01*
X006429Y012573D01*
X006404Y012615D01*
X006384Y012659D01*
X006366Y012704D01*
X006353Y012750D01*
X006343Y012797D01*
X006337Y012845D01*
X006335Y012893D01*
X002523Y012893D02*
X002525Y012941D01*
X002531Y012989D01*
X002541Y013036D01*
X002554Y013082D01*
X002572Y013127D01*
X002592Y013171D01*
X002617Y013213D01*
X002645Y013252D01*
X002675Y013289D01*
X002709Y013323D01*
X002746Y013355D01*
X002784Y013384D01*
X002825Y013409D01*
X002868Y013431D01*
X002913Y013449D01*
X002959Y013463D01*
X003006Y013474D01*
X003054Y013481D01*
X003102Y013484D01*
X003150Y013483D01*
X003198Y013478D01*
X003246Y013469D01*
X003292Y013457D01*
X003337Y013440D01*
X003381Y013420D01*
X003423Y013397D01*
X003463Y013370D01*
X003501Y013340D01*
X003536Y013307D01*
X003568Y013271D01*
X003598Y013233D01*
X003624Y013192D01*
X003646Y013149D01*
X003666Y013105D01*
X003681Y013060D01*
X003693Y013013D01*
X003701Y012965D01*
X003705Y012917D01*
X003705Y012869D01*
X003701Y012821D01*
X003693Y012773D01*
X003681Y012726D01*
X003666Y012681D01*
X003646Y012637D01*
X003624Y012594D01*
X003598Y012553D01*
X003568Y012515D01*
X003536Y012479D01*
X003501Y012446D01*
X003463Y012416D01*
X003423Y012389D01*
X003381Y012366D01*
X003337Y012346D01*
X003292Y012329D01*
X003246Y012317D01*
X003198Y012308D01*
X003150Y012303D01*
X003102Y012302D01*
X003054Y012305D01*
X003006Y012312D01*
X002959Y012323D01*
X002913Y012337D01*
X002868Y012355D01*
X002825Y012377D01*
X002784Y012402D01*
X002746Y012431D01*
X002709Y012463D01*
X002675Y012497D01*
X002645Y012534D01*
X002617Y012573D01*
X002592Y012615D01*
X002572Y012659D01*
X002554Y012704D01*
X002541Y012750D01*
X002531Y012797D01*
X002525Y012845D01*
X002523Y012893D01*
D11*
X004122Y011552D03*
X005122Y011552D03*
X005139Y003419D03*
X004155Y002435D03*
D12*
X003617Y005037D03*
X003617Y006817D03*
X003617Y008037D03*
X003617Y009817D03*
X006177Y009817D03*
X006177Y008037D03*
X006177Y006817D03*
X006177Y005037D03*
D13*
X001791Y008746D03*
X001791Y009534D03*
X001791Y010321D03*
X001791Y011108D03*
X001004Y011108D03*
X001004Y010321D03*
X001004Y009534D03*
X001004Y008746D03*
D14*
X001097Y008727D01*
X001097Y006627D01*
X004297Y003427D01*
X005097Y003427D01*
X005139Y003419D01*
X004097Y002527D02*
X004155Y002435D01*
X004097Y002527D02*
X000497Y006127D01*
X000497Y009027D01*
X001004Y009534D01*
X001791Y009534D02*
X001797Y009627D01*
X003597Y011427D01*
X003597Y011727D01*
X003897Y012027D01*
X004697Y012027D01*
X005097Y011627D01*
X005122Y011552D01*
X004122Y011552D02*
X004097Y011527D01*
X002997Y010427D01*
X002997Y010027D01*
X001797Y008827D01*
X001791Y008746D01*
X002997Y009027D02*
X002997Y007427D01*
X003597Y006827D01*
X003617Y006817D01*
D15*
X002997Y009027D03*
M02*
