%
M48
M72
T01C0.0360
T02C0.0433
T03C0.0512
T04C0.1260
%
T01
X6694Y14512
X5694Y14512
T02
X2411Y10500
X2411Y11500
X1411Y10500
X1411Y11500
X2419Y8174
X2419Y9174
X1419Y8174
X1419Y9174
X16832Y10539
X17832Y10539
X16832Y11539
X17832Y11539
T03
X7522Y7773
X14522Y7773
X14522Y10773
X11522Y7773
X7522Y10863
T04
X1136Y19005
X19117Y19007
X1135Y1030
X19114Y1042
M30
