G75*
%MOIN*%
%OFA0B0*%
%FSLAX24Y24*%
%IPPOS*%
%LPD*%
%AMOC8*
5,1,8,0,0,1.08239X$1,22.5*
%
%ADD10C,0.0000*%
%ADD11R,0.0551X0.0630*%
%ADD12R,0.0394X0.0433*%
%ADD13R,0.0433X0.0394*%
%ADD14R,0.0787X0.0512*%
%ADD15OC8,0.0850*%
%ADD16R,0.0472X0.0217*%
%ADD17C,0.0520*%
%ADD18R,0.0512X0.0748*%
%ADD19R,0.0112X0.0276*%
%ADD20R,0.0673X0.0157*%
%ADD21R,0.0575X0.0787*%
%ADD22R,0.0984X0.0541*%
%ADD23C,0.0160*%
%ADD24C,0.0560*%
%ADD25C,0.0104*%
%ADD26OC8,0.0660*%
%ADD27OC8,0.0700*%
%ADD28C,0.0885*%
%ADD29C,0.0660*%
%ADD30R,0.1102X0.1102*%
%ADD31C,0.0600*%
%ADD32C,0.0650*%
%ADD33C,0.0317*%
%ADD34C,0.0100*%
%ADD35C,0.0500*%
%ADD36C,0.0080*%
%ADD37C,0.0860*%
%ADD38C,0.1660*%
D10*
X000350Y000350D02*
X000350Y020035D01*
X020035Y020035D01*
X020035Y000350D01*
X000350Y000350D01*
X001267Y008344D02*
X001269Y008373D01*
X001275Y008401D01*
X001284Y008429D01*
X001297Y008455D01*
X001314Y008478D01*
X001333Y008500D01*
X001355Y008519D01*
X001380Y008534D01*
X001406Y008547D01*
X001434Y008555D01*
X001462Y008560D01*
X001491Y008561D01*
X001520Y008558D01*
X001548Y008551D01*
X001575Y008541D01*
X001601Y008527D01*
X001624Y008510D01*
X001645Y008490D01*
X001663Y008467D01*
X001678Y008442D01*
X001689Y008415D01*
X001697Y008387D01*
X001701Y008358D01*
X001701Y008330D01*
X001697Y008301D01*
X001689Y008273D01*
X001678Y008246D01*
X001663Y008221D01*
X001645Y008198D01*
X001624Y008178D01*
X001601Y008161D01*
X001575Y008147D01*
X001548Y008137D01*
X001520Y008130D01*
X001491Y008127D01*
X001462Y008128D01*
X001434Y008133D01*
X001406Y008141D01*
X001380Y008154D01*
X001355Y008169D01*
X001333Y008188D01*
X001314Y008210D01*
X001297Y008233D01*
X001284Y008259D01*
X001275Y008287D01*
X001269Y008315D01*
X001267Y008344D01*
X001267Y009344D02*
X001269Y009373D01*
X001275Y009401D01*
X001284Y009429D01*
X001297Y009455D01*
X001314Y009478D01*
X001333Y009500D01*
X001355Y009519D01*
X001380Y009534D01*
X001406Y009547D01*
X001434Y009555D01*
X001462Y009560D01*
X001491Y009561D01*
X001520Y009558D01*
X001548Y009551D01*
X001575Y009541D01*
X001601Y009527D01*
X001624Y009510D01*
X001645Y009490D01*
X001663Y009467D01*
X001678Y009442D01*
X001689Y009415D01*
X001697Y009387D01*
X001701Y009358D01*
X001701Y009330D01*
X001697Y009301D01*
X001689Y009273D01*
X001678Y009246D01*
X001663Y009221D01*
X001645Y009198D01*
X001624Y009178D01*
X001601Y009161D01*
X001575Y009147D01*
X001548Y009137D01*
X001520Y009130D01*
X001491Y009127D01*
X001462Y009128D01*
X001434Y009133D01*
X001406Y009141D01*
X001380Y009154D01*
X001355Y009169D01*
X001333Y009188D01*
X001314Y009210D01*
X001297Y009233D01*
X001284Y009259D01*
X001275Y009287D01*
X001269Y009315D01*
X001267Y009344D01*
X001259Y010670D02*
X001261Y010699D01*
X001267Y010727D01*
X001276Y010755D01*
X001289Y010781D01*
X001306Y010804D01*
X001325Y010826D01*
X001347Y010845D01*
X001372Y010860D01*
X001398Y010873D01*
X001426Y010881D01*
X001454Y010886D01*
X001483Y010887D01*
X001512Y010884D01*
X001540Y010877D01*
X001567Y010867D01*
X001593Y010853D01*
X001616Y010836D01*
X001637Y010816D01*
X001655Y010793D01*
X001670Y010768D01*
X001681Y010741D01*
X001689Y010713D01*
X001693Y010684D01*
X001693Y010656D01*
X001689Y010627D01*
X001681Y010599D01*
X001670Y010572D01*
X001655Y010547D01*
X001637Y010524D01*
X001616Y010504D01*
X001593Y010487D01*
X001567Y010473D01*
X001540Y010463D01*
X001512Y010456D01*
X001483Y010453D01*
X001454Y010454D01*
X001426Y010459D01*
X001398Y010467D01*
X001372Y010480D01*
X001347Y010495D01*
X001325Y010514D01*
X001306Y010536D01*
X001289Y010559D01*
X001276Y010585D01*
X001267Y010613D01*
X001261Y010641D01*
X001259Y010670D01*
X001259Y011670D02*
X001261Y011699D01*
X001267Y011727D01*
X001276Y011755D01*
X001289Y011781D01*
X001306Y011804D01*
X001325Y011826D01*
X001347Y011845D01*
X001372Y011860D01*
X001398Y011873D01*
X001426Y011881D01*
X001454Y011886D01*
X001483Y011887D01*
X001512Y011884D01*
X001540Y011877D01*
X001567Y011867D01*
X001593Y011853D01*
X001616Y011836D01*
X001637Y011816D01*
X001655Y011793D01*
X001670Y011768D01*
X001681Y011741D01*
X001689Y011713D01*
X001693Y011684D01*
X001693Y011656D01*
X001689Y011627D01*
X001681Y011599D01*
X001670Y011572D01*
X001655Y011547D01*
X001637Y011524D01*
X001616Y011504D01*
X001593Y011487D01*
X001567Y011473D01*
X001540Y011463D01*
X001512Y011456D01*
X001483Y011453D01*
X001454Y011454D01*
X001426Y011459D01*
X001398Y011467D01*
X001372Y011480D01*
X001347Y011495D01*
X001325Y011514D01*
X001306Y011536D01*
X001289Y011559D01*
X001276Y011585D01*
X001267Y011613D01*
X001261Y011641D01*
X001259Y011670D01*
D11*
X010602Y011851D03*
X011705Y011851D03*
D12*
X013332Y011590D03*
X013332Y012259D03*
X014980Y012209D03*
X014980Y011540D03*
X008032Y012093D03*
X008032Y012762D03*
X005179Y012786D03*
X005179Y012117D03*
X006605Y007505D03*
X007274Y007505D03*
X006789Y018089D03*
X006789Y018758D03*
X003814Y018758D03*
X003814Y018089D03*
D13*
X004812Y018089D03*
X004812Y018758D03*
X005812Y018758D03*
X005812Y018089D03*
X007787Y018089D03*
X007787Y018758D03*
X008807Y018758D03*
X008807Y018089D03*
X015613Y010319D03*
X015613Y009650D03*
X013327Y006585D03*
X013327Y005916D03*
X011372Y003824D03*
X010703Y003824D03*
X009905Y002795D03*
X009236Y002795D03*
X008277Y002805D03*
X007608Y002805D03*
X002910Y006453D03*
X002910Y007122D03*
X002049Y007097D03*
X002049Y006428D03*
D14*
X009959Y013051D03*
X009959Y013838D03*
X009959Y014626D03*
X009959Y015413D03*
X009959Y016201D03*
X009959Y016988D03*
X009959Y017775D03*
X009959Y018563D03*
X016259Y018563D03*
X016259Y017775D03*
X016259Y016988D03*
X016259Y016201D03*
X016259Y015413D03*
X016259Y014626D03*
X016259Y013838D03*
X016259Y013051D03*
D15*
X017168Y018666D03*
X005382Y010210D03*
X007280Y009422D03*
X014277Y006729D03*
D16*
X007119Y012096D03*
X007119Y012844D03*
X006095Y012844D03*
X006095Y012470D03*
X006095Y012096D03*
D17*
X006317Y005065D02*
X006317Y004545D01*
X005317Y004545D02*
X005317Y005065D01*
X004317Y005065D02*
X004317Y004545D01*
X003317Y004545D02*
X003317Y005065D01*
X007317Y005065D02*
X007317Y004545D01*
X008317Y004545D02*
X008317Y005065D01*
X009317Y005065D02*
X009317Y004545D01*
X010317Y004545D02*
X010317Y005065D01*
X011317Y005065D02*
X011317Y004545D01*
X012317Y004545D02*
X012317Y005065D01*
X013317Y005065D02*
X013317Y004545D01*
X014317Y004545D02*
X014317Y005065D01*
X015317Y005065D02*
X015317Y004545D01*
X016317Y004545D02*
X016317Y005065D01*
X016317Y002065D02*
X016317Y001545D01*
X015317Y001545D02*
X015317Y002065D01*
X014317Y002065D02*
X014317Y001545D01*
X013317Y001545D02*
X013317Y002065D01*
X012317Y002065D02*
X012317Y001545D01*
X011317Y001545D02*
X011317Y002065D01*
X010317Y002065D02*
X010317Y001545D01*
X009317Y001545D02*
X009317Y002065D01*
X008317Y002065D02*
X008317Y001545D01*
X007317Y001545D02*
X007317Y002065D01*
X006317Y002065D02*
X006317Y001545D01*
X005317Y001545D02*
X005317Y002065D01*
X004317Y002065D02*
X004317Y001545D01*
X003317Y001545D02*
X003317Y002065D01*
D18*
X008549Y006375D03*
X008549Y007635D03*
X010714Y007635D03*
X010714Y006375D03*
D19*
X002401Y005134D03*
X002204Y005134D03*
X002007Y005134D03*
X002007Y004484D03*
X002204Y004484D03*
X002401Y004484D03*
D20*
X002598Y014382D03*
X002598Y014638D03*
X002598Y014894D03*
X002598Y015150D03*
X002598Y015406D03*
D21*
X002649Y016036D03*
X002649Y013752D03*
D22*
X001011Y014525D03*
X001011Y015263D03*
D23*
X001011Y014525D01*
X000941Y014468D01*
X000925Y014468D02*
X001011Y014525D01*
X001185Y015059D02*
X001011Y015263D01*
X001011Y015297D01*
X001800Y015297D01*
X001828Y015297D01*
X001828Y016036D01*
X002649Y016036D01*
X002642Y016036D01*
X002649Y016036D02*
X002649Y016091D01*
X002179Y016042D02*
X001069Y016042D01*
X001069Y016200D02*
X002179Y016200D01*
X002179Y016359D02*
X000538Y016359D01*
X000538Y016517D02*
X002179Y016517D01*
X002179Y016596D02*
X001167Y016596D01*
X001169Y016595D01*
X000539Y016595D01*
X000537Y016200D01*
X001069Y016200D01*
X001069Y015779D01*
X002179Y015779D01*
X002179Y016596D01*
X002179Y015883D02*
X001069Y015883D01*
X001800Y015297D02*
X001800Y014382D01*
X002598Y014382D01*
X002602Y014381D01*
X002602Y013807D01*
X002649Y013759D01*
X002649Y013752D01*
X002179Y013823D02*
X001069Y013823D01*
X001069Y013981D02*
X002179Y013981D01*
X002179Y014002D02*
X001069Y014002D01*
X001069Y013581D01*
X000537Y013581D01*
X000535Y013184D01*
X001165Y013184D01*
X001167Y013185D01*
X002179Y013185D01*
X002179Y014002D01*
X002179Y013664D02*
X001069Y013664D01*
X000537Y013506D02*
X002179Y013506D01*
X002179Y013347D02*
X000536Y013347D01*
X000535Y013189D02*
X002179Y013189D01*
X002484Y011673D02*
X004011Y013200D01*
X004074Y013240D01*
X004074Y014004D01*
X004021Y014070D01*
X004019Y014074D01*
X004019Y014374D01*
X002988Y015405D01*
X002602Y015405D01*
X002598Y015406D01*
X003804Y015589D02*
X003980Y015594D01*
X003980Y015589D01*
X004578Y015366D02*
X004799Y015586D01*
X004804Y015589D01*
X004578Y015366D02*
X004578Y013610D01*
X005130Y013059D01*
X005130Y012854D01*
X005179Y012786D01*
X005185Y012783D01*
X005492Y012476D01*
X006090Y012476D01*
X006095Y012470D01*
X006098Y012838D02*
X006095Y012844D01*
X006098Y012838D02*
X006303Y012838D01*
X006492Y012649D01*
X006492Y012295D01*
X006326Y012130D01*
X006169Y012130D01*
X006095Y012096D01*
X006090Y012098D01*
X006074Y012114D01*
X005185Y012114D01*
X005179Y012117D01*
X005130Y012185D01*
X004074Y013240D01*
X005021Y014070D02*
X005027Y014074D01*
X005027Y014775D01*
X005767Y015515D01*
X005804Y015589D01*
X005799Y015594D01*
X004429Y016964D01*
X004429Y018114D01*
X003815Y018728D01*
X003815Y018752D01*
X003814Y018758D01*
X007787Y018089D02*
X007791Y018082D01*
X007791Y016555D01*
X008271Y016074D01*
X008271Y014421D01*
X007917Y014067D01*
X007916Y014063D01*
X007515Y013460D02*
X006917Y014059D01*
X006916Y014063D01*
X007515Y013460D02*
X007515Y012098D01*
X008027Y012098D01*
X008032Y012093D01*
X007515Y012098D02*
X007122Y012098D01*
X007119Y012096D01*
X007466Y011591D02*
X008158Y011591D01*
X006508Y010536D02*
X005956Y010019D01*
X005902Y009965D01*
X007690Y008189D01*
X007475Y007499D02*
X007279Y007500D01*
X007274Y007505D01*
X007475Y007499D02*
X007529Y007352D01*
X007608Y007274D01*
X007695Y007241D01*
X007697Y007091D01*
X007343Y006967D01*
X007106Y006812D01*
X006818Y006606D01*
X006818Y004575D01*
X006833Y004575D01*
X006833Y003923D01*
X008720Y003923D01*
X008720Y003849D01*
X008843Y004497D01*
X008959Y004805D01*
X009317Y004805D01*
X010200Y004775D02*
X010317Y004805D01*
X010397Y004830D01*
X012153Y006586D01*
X013326Y006586D01*
X013327Y006585D01*
X013405Y006586D01*
X013460Y006586D01*
X013460Y008051D01*
X013098Y008413D01*
X012816Y008534D01*
X011579Y010615D02*
X010722Y010618D01*
X010722Y011232D01*
X010719Y011275D01*
X010720Y011728D01*
X010720Y011815D01*
X010602Y011851D01*
X010649Y011925D01*
X010653Y011929D01*
X010689Y011893D01*
X010653Y011929D02*
X010633Y011948D01*
X010602Y011866D02*
X010602Y011851D01*
X011291Y011767D02*
X011291Y011554D01*
X011084Y011098D01*
X011579Y011374D02*
X011579Y010615D01*
X011579Y011374D02*
X013429Y011374D01*
X013563Y011507D01*
X014862Y011507D01*
X014980Y011540D01*
X016492Y011540D01*
X016492Y009772D01*
X018568Y009772D01*
X018568Y009996D01*
X015147Y012209D02*
X015147Y012500D01*
X017759Y012500D01*
X017763Y012502D01*
X015147Y012500D02*
X015147Y015395D01*
X016259Y015395D01*
X016259Y015413D01*
X017496Y016303D02*
X017496Y016397D01*
X017226Y016677D01*
X017169Y016956D01*
X016381Y017744D01*
X016342Y017744D01*
X016259Y017775D01*
X016263Y017775D01*
X017496Y016303D02*
X018752Y014815D01*
X018753Y014814D01*
X015147Y012209D02*
X014980Y012209D01*
X014901Y012208D01*
X013405Y012208D01*
X013332Y012259D01*
X013263Y012216D01*
X012074Y012216D01*
X011767Y011909D01*
X011705Y011851D01*
X011626Y011822D01*
X011570Y011767D01*
X011291Y011767D01*
X009964Y013051D02*
X009959Y013051D01*
X009901Y012996D01*
X009959Y013051D01*
X009964Y013051D01*
X009959Y013051D01*
X008381Y013114D02*
X008035Y012767D01*
X008032Y012762D01*
X005657Y010208D02*
X005389Y010208D01*
X005382Y010210D01*
X005657Y010208D02*
X005902Y009965D01*
X002484Y008344D02*
X002484Y008342D01*
X002484Y007098D01*
X002051Y007098D01*
X000945Y007098D01*
X000947Y004516D01*
X001596Y004516D01*
X001595Y004511D01*
X002204Y004229D02*
X002254Y004083D01*
X002300Y004083D01*
X002302Y003677D01*
X002214Y003649D01*
X002032Y003506D01*
X001781Y003506D01*
X000947Y003494D01*
X000947Y004516D01*
X002401Y004815D02*
X002484Y004830D01*
X002523Y004830D01*
X002795Y005085D01*
X003626Y007043D02*
X005145Y005523D01*
X005224Y005492D01*
X005507Y005492D01*
X005878Y005122D01*
X005878Y004374D01*
X007067Y003185D01*
X007996Y003185D01*
X008019Y003161D01*
X008019Y002815D01*
X008027Y002807D01*
X008193Y002807D01*
X008277Y002805D01*
X008358Y002830D01*
X008626Y002830D01*
X008657Y002909D01*
X008657Y003232D01*
X010200Y004775D01*
X010279Y004767D02*
X010279Y003830D01*
X010703Y003830D01*
X010703Y003824D01*
X011372Y003824D02*
X011377Y003556D01*
X011377Y003322D01*
X009895Y003322D01*
X009279Y003322D01*
X009895Y003322D02*
X009893Y002931D01*
X009905Y002795D01*
X009909Y002791D01*
X010311Y002389D01*
X010311Y001807D01*
X010317Y001805D01*
X009317Y001805D02*
X009311Y001807D01*
X009240Y001878D01*
X009240Y002791D01*
X009236Y002795D01*
X008279Y002799D02*
X008277Y002805D01*
X008279Y002799D02*
X008279Y001838D01*
X008311Y001807D01*
X008317Y001805D01*
X007842Y002408D02*
X007649Y002736D01*
X007608Y002805D01*
X007602Y002799D01*
X007452Y002799D01*
X010279Y004767D02*
X010311Y004799D01*
X010317Y004805D01*
X006929Y007082D02*
X006161Y007082D01*
X005200Y006122D01*
X005153Y006116D01*
X003626Y007043D02*
X003594Y007122D01*
X002996Y007122D01*
X002910Y007122D01*
X002909Y007122D01*
X002885Y007098D01*
X002484Y007098D01*
X002051Y007098D02*
X002049Y007097D01*
X002476Y011670D02*
X002484Y011673D01*
X001185Y015059D02*
X001011Y015146D01*
X014936Y011565D02*
X014936Y011540D01*
D24*
X007916Y013783D02*
X007916Y014343D01*
X006916Y014343D02*
X006916Y013783D01*
X005021Y013790D02*
X005021Y014350D01*
X004021Y014350D02*
X004021Y013790D01*
D25*
X004998Y007072D02*
X004946Y007020D01*
X004946Y007192D01*
X005067Y007313D01*
X005239Y007313D01*
X005360Y007192D01*
X005360Y007020D01*
X005239Y006899D01*
X005067Y006899D01*
X004946Y007020D01*
X005024Y007052D01*
X005024Y007160D01*
X005099Y007235D01*
X005207Y007235D01*
X005282Y007160D01*
X005282Y007052D01*
X005207Y006977D01*
X005099Y006977D01*
X005024Y007052D01*
X005102Y007085D01*
X005102Y007127D01*
X005132Y007157D01*
X005174Y007157D01*
X005204Y007127D01*
X005204Y007085D01*
X005174Y007055D01*
X005132Y007055D01*
X005102Y007085D01*
X004998Y006082D02*
X004946Y006030D01*
X004946Y006202D01*
X005067Y006323D01*
X005239Y006323D01*
X005360Y006202D01*
X005360Y006030D01*
X005239Y005909D01*
X005067Y005909D01*
X004946Y006030D01*
X005024Y006062D01*
X005024Y006170D01*
X005099Y006245D01*
X005207Y006245D01*
X005282Y006170D01*
X005282Y006062D01*
X005207Y005987D01*
X005099Y005987D01*
X005024Y006062D01*
X005102Y006095D01*
X005102Y006137D01*
X005132Y006167D01*
X005174Y006167D01*
X005204Y006137D01*
X005204Y006095D01*
X005174Y006065D01*
X005132Y006065D01*
X005102Y006095D01*
D26*
X017763Y012502D03*
X018763Y012502D03*
D27*
X018753Y014814D03*
X018753Y016594D03*
X018753Y005571D03*
X018753Y003791D03*
D28*
X017773Y003301D03*
X017773Y006061D03*
X017773Y014324D03*
X017773Y017084D03*
D29*
X018568Y009996D03*
X018568Y009011D03*
X018568Y008027D03*
D30*
X017268Y007397D03*
X017268Y010626D03*
D31*
X008804Y015289D02*
X008804Y015889D01*
X007804Y015889D02*
X007804Y015289D01*
X006804Y015289D02*
X006804Y015889D01*
X005804Y015889D02*
X005804Y015289D01*
X004804Y015289D02*
X004804Y015889D01*
X003804Y015889D02*
X003804Y015289D01*
D32*
X002801Y011670D02*
X002151Y011670D01*
X002151Y010670D02*
X002801Y010670D01*
X002809Y009344D02*
X002160Y009344D01*
X002160Y008344D02*
X002809Y008344D01*
D33*
X001122Y007437D03*
X000720Y007437D03*
X001329Y006778D03*
X002684Y006056D03*
X002795Y005085D03*
X001595Y004511D03*
X001834Y003842D03*
X002988Y003881D03*
X006286Y002741D03*
X007842Y002408D03*
X009279Y003322D03*
X008720Y003849D03*
X006929Y007082D03*
X007818Y007611D03*
X006508Y010536D03*
X007466Y011591D03*
X008158Y011591D03*
X008358Y011060D03*
X008538Y012625D03*
X008381Y013114D03*
X008673Y013445D03*
X009101Y013299D03*
X007845Y013263D03*
X011084Y011098D03*
X012297Y010239D03*
X012941Y010955D03*
X012326Y009468D03*
X012816Y008534D03*
X012573Y007573D03*
X015921Y010932D03*
X016975Y011646D03*
X016926Y014596D03*
X016918Y015799D03*
X008304Y018805D03*
X007214Y018608D03*
X007472Y017573D03*
X006543Y016434D03*
D34*
X002204Y005134D02*
X002204Y004812D01*
X002401Y004815D01*
X002401Y004487D01*
X002401Y004484D01*
X002204Y004484D02*
X002203Y004464D01*
X002204Y004229D01*
D35*
X004726Y006523D02*
X003975Y007273D01*
X003974Y007276D01*
X003944Y007350D01*
X003943Y007352D01*
X003942Y007354D01*
X003886Y007410D01*
X003831Y007466D01*
X003828Y007467D01*
X003826Y007469D01*
X003753Y007499D01*
X003681Y007531D01*
X003678Y007531D01*
X003676Y007532D01*
X003597Y007532D01*
X003518Y007533D01*
X003515Y007532D01*
X003381Y007532D01*
X003314Y007599D01*
X003192Y007649D01*
X002894Y007649D01*
X002894Y007689D01*
X002939Y007689D01*
X003180Y007789D01*
X003364Y007973D01*
X003464Y008214D01*
X003464Y008474D01*
X003364Y008715D01*
X003249Y008831D01*
X003255Y008836D01*
X003318Y008898D01*
X003372Y008968D01*
X003416Y009045D01*
X003450Y009127D01*
X003472Y009212D01*
X003484Y009300D01*
X003484Y009344D01*
X003484Y009388D01*
X003472Y009476D01*
X003450Y009561D01*
X003416Y009643D01*
X003372Y009720D01*
X003318Y009790D01*
X003255Y009852D01*
X003185Y009906D01*
X003108Y009950D01*
X003027Y009984D01*
X002956Y010003D01*
X002956Y010026D01*
X003172Y010115D01*
X003356Y010299D01*
X003456Y010540D01*
X003456Y010801D01*
X003356Y011041D01*
X003227Y011170D01*
X003356Y011299D01*
X003456Y011540D01*
X003456Y011801D01*
X003378Y011988D01*
X004063Y012672D01*
X004653Y012082D01*
X004653Y011835D01*
X004703Y011713D01*
X004796Y011621D01*
X004917Y011570D01*
X005442Y011570D01*
X005563Y011621D01*
X005647Y011704D01*
X005683Y011704D01*
X005793Y011658D01*
X006389Y011658D01*
X006389Y010791D01*
X006388Y010789D01*
X006389Y010718D01*
X006389Y010646D01*
X006390Y010644D01*
X006390Y010641D01*
X006419Y010576D01*
X006446Y010510D01*
X006448Y010509D01*
X006449Y010506D01*
X006500Y010457D01*
X006550Y010406D01*
X006552Y010405D01*
X006554Y010404D01*
X006620Y010377D01*
X006686Y010350D01*
X006688Y010350D01*
X006691Y010349D01*
X006762Y010350D01*
X006833Y010350D01*
X006835Y010351D01*
X009038Y010381D01*
X010460Y009016D01*
X010462Y009013D01*
X010513Y008965D01*
X010564Y008917D01*
X010567Y008916D01*
X012085Y007520D01*
X012085Y007476D01*
X012159Y007297D01*
X012297Y007159D01*
X012476Y007085D01*
X012671Y007085D01*
X012850Y007159D01*
X012987Y007297D01*
X013050Y007448D01*
X013050Y007112D01*
X013045Y007112D01*
X012924Y007062D01*
X012858Y006996D01*
X012072Y006996D01*
X011921Y006934D01*
X011300Y006313D01*
X011300Y006815D01*
X011250Y006936D01*
X011181Y007005D01*
X011250Y007074D01*
X011300Y007195D01*
X011300Y008074D01*
X011250Y008196D01*
X011157Y008289D01*
X011036Y008339D01*
X010393Y008339D01*
X010271Y008289D01*
X010178Y008196D01*
X010128Y008074D01*
X010128Y007195D01*
X010178Y007074D01*
X010247Y007005D01*
X010178Y006936D01*
X010128Y006815D01*
X010128Y005935D01*
X010178Y005814D01*
X010271Y005721D01*
X010393Y005671D01*
X010658Y005671D01*
X010582Y005594D01*
X010435Y005655D01*
X010200Y005655D01*
X009983Y005565D01*
X009824Y005406D01*
X009783Y005463D01*
X009715Y005531D01*
X009637Y005587D01*
X009551Y005631D01*
X009460Y005660D01*
X009365Y005675D01*
X009317Y005675D01*
X009269Y005675D01*
X009174Y005660D01*
X009083Y005631D01*
X008998Y005587D01*
X008920Y005531D01*
X008917Y005527D01*
X008917Y005690D01*
X008992Y005721D01*
X009084Y005814D01*
X009135Y005935D01*
X009135Y006815D01*
X009084Y006936D01*
X009015Y007005D01*
X009084Y007074D01*
X009135Y007195D01*
X009135Y008074D01*
X009084Y008196D01*
X008992Y008289D01*
X008870Y008339D01*
X008227Y008339D01*
X008106Y008289D01*
X008013Y008196D01*
X007965Y008079D01*
X007915Y008099D01*
X007888Y008099D01*
X007873Y008114D01*
X007834Y008159D01*
X007822Y008165D01*
X007812Y008175D01*
X007756Y008198D01*
X007703Y008225D01*
X007689Y008226D01*
X007676Y008232D01*
X007616Y008232D01*
X007556Y008236D01*
X007543Y008232D01*
X006788Y008232D01*
X006652Y008175D01*
X006528Y008051D01*
X006343Y008051D01*
X006221Y008001D01*
X006129Y007908D01*
X006113Y007870D01*
X005513Y007870D01*
X005377Y007813D01*
X005259Y007696D01*
X004909Y007696D01*
X004563Y007350D01*
X004563Y006862D01*
X004814Y006611D01*
X004726Y006523D01*
X004594Y006831D02*
X004418Y006831D01*
X004563Y007329D02*
X003953Y007329D01*
X003219Y007828D02*
X005411Y007828D01*
X006525Y009109D02*
X006967Y008667D01*
X007593Y008667D01*
X008035Y009109D01*
X008035Y009735D01*
X007593Y010177D01*
X006967Y010177D01*
X006525Y009735D01*
X006525Y009109D01*
X006525Y009323D02*
X003484Y009323D01*
X003484Y009344D02*
X002484Y009344D01*
X003484Y009344D01*
X003255Y008825D02*
X006810Y008825D01*
X007750Y008825D02*
X010666Y008825D01*
X010141Y009323D02*
X008035Y009323D01*
X007948Y009822D02*
X009621Y009822D01*
X009101Y010320D02*
X006157Y010320D01*
X006157Y010210D02*
X006157Y010531D01*
X005703Y010985D01*
X005382Y010985D01*
X005382Y010210D01*
X005382Y010210D01*
X006157Y010210D01*
X005382Y010210D01*
X005382Y010210D01*
X005382Y010985D01*
X005061Y010985D01*
X004607Y010531D01*
X004607Y010210D01*
X005382Y010210D01*
X005382Y010210D01*
X005382Y009435D01*
X005703Y009435D01*
X006157Y009889D01*
X006157Y010210D01*
X006090Y009822D02*
X006612Y009822D01*
X005382Y009822D02*
X005382Y009822D01*
X005382Y009435D02*
X005061Y009435D01*
X004607Y009889D01*
X004607Y010210D01*
X005382Y010210D01*
X005382Y010210D01*
X005382Y009435D01*
X004674Y009822D02*
X003286Y009822D01*
X003365Y010320D02*
X004607Y010320D01*
X005382Y010320D02*
X005382Y010320D01*
X005382Y010819D02*
X005382Y010819D01*
X004895Y010819D02*
X003448Y010819D01*
X003363Y011317D02*
X006389Y011317D01*
X006389Y010819D02*
X005869Y010819D01*
X007129Y011095D02*
X007129Y011658D01*
X007421Y011658D01*
X007494Y011688D01*
X007556Y011688D01*
X007648Y011596D01*
X007769Y011546D01*
X008084Y011546D01*
X008084Y011475D01*
X008082Y011474D01*
X007944Y011337D01*
X007870Y011157D01*
X007870Y011105D01*
X007129Y011095D01*
X007129Y011317D02*
X007936Y011317D01*
X008824Y011317D02*
X010052Y011317D01*
X010055Y011313D02*
X010103Y011264D01*
X010161Y011226D01*
X010224Y011199D01*
X010292Y011186D01*
X010595Y011186D01*
X010595Y011001D01*
X010670Y010822D01*
X010807Y010684D01*
X010986Y010610D01*
X011181Y010610D01*
X011360Y010684D01*
X011498Y010822D01*
X011572Y011001D01*
X011572Y011181D01*
X011583Y011206D01*
X012046Y011206D01*
X012167Y011256D01*
X012260Y011349D01*
X012310Y011470D01*
X012310Y011806D01*
X012786Y011806D01*
X012786Y011590D01*
X013332Y011590D01*
X013332Y011590D01*
X012786Y011590D01*
X012786Y011420D01*
X012665Y011370D01*
X012527Y011232D01*
X012453Y011053D01*
X012453Y010858D01*
X012527Y010679D01*
X012538Y010668D01*
X012394Y010728D01*
X012200Y010728D01*
X012021Y010653D01*
X011883Y010516D01*
X011809Y010336D01*
X011809Y010142D01*
X011883Y009963D01*
X012007Y009839D01*
X011912Y009745D01*
X011838Y009565D01*
X011838Y009371D01*
X011912Y009191D01*
X012050Y009054D01*
X012229Y008980D01*
X012302Y008980D01*
X012440Y008848D01*
X012402Y008810D01*
X012328Y008631D01*
X012328Y008436D01*
X012402Y008257D01*
X012540Y008119D01*
X012719Y008045D01*
X012886Y008045D01*
X013050Y007881D01*
X013050Y007698D01*
X012987Y007850D01*
X012850Y007987D01*
X012671Y008062D01*
X012589Y008062D01*
X011020Y009505D01*
X009442Y011019D01*
X009390Y011069D01*
X009389Y011070D01*
X009388Y011071D01*
X009320Y011097D01*
X009253Y011124D01*
X009252Y011124D01*
X009251Y011124D01*
X009178Y011123D01*
X008847Y011118D01*
X008847Y011157D01*
X008824Y011212D01*
X008824Y011882D01*
X008820Y011891D01*
X008882Y011891D01*
X008955Y011891D01*
X008956Y011891D01*
X008957Y011891D01*
X009024Y011919D01*
X009091Y011946D01*
X009092Y011947D01*
X009093Y011947D01*
X009144Y011999D01*
X009196Y012050D01*
X009196Y012051D01*
X009197Y012051D01*
X009224Y012119D01*
X009253Y012186D01*
X009253Y012187D01*
X009253Y012260D01*
X009253Y012333D01*
X009253Y012334D01*
X009253Y012604D01*
X009265Y012615D01*
X009294Y012572D01*
X009343Y012523D01*
X009400Y012485D01*
X009464Y012458D01*
X009531Y012445D01*
X009959Y012445D01*
X009959Y013051D01*
X009727Y013051D01*
X009727Y013051D01*
X009959Y013051D01*
X009959Y013051D01*
X009959Y013252D01*
X009959Y013252D01*
X009959Y013051D01*
X009959Y013051D01*
X009959Y013051D01*
X009959Y012445D01*
X010114Y012445D01*
X010103Y012438D01*
X010055Y012389D01*
X010016Y012332D01*
X009990Y012268D01*
X009977Y012200D01*
X009977Y011851D01*
X010602Y011851D01*
X010602Y012516D01*
X010565Y012516D01*
X010576Y012523D01*
X010625Y012572D01*
X010663Y012629D01*
X010690Y012693D01*
X010703Y012761D01*
X010703Y013051D01*
X010703Y013341D01*
X010690Y013409D01*
X010664Y013471D01*
X010683Y013517D01*
X010683Y014160D01*
X010653Y014232D01*
X010683Y014304D01*
X010683Y014947D01*
X010653Y015019D01*
X010683Y015092D01*
X010683Y015735D01*
X010653Y015807D01*
X010683Y015879D01*
X010683Y016522D01*
X010653Y016594D01*
X010683Y016666D01*
X010683Y017309D01*
X010664Y017355D01*
X010690Y017417D01*
X010703Y017485D01*
X010703Y017775D01*
X009959Y017775D01*
X009959Y018563D01*
X009353Y018563D01*
X009353Y018563D01*
X009959Y018563D01*
X009959Y018563D01*
X009959Y019169D01*
X009531Y019169D01*
X009464Y019155D01*
X009400Y019129D01*
X009343Y019090D01*
X009330Y019077D01*
X009303Y019142D01*
X009210Y019235D01*
X009089Y019285D01*
X008524Y019285D01*
X008473Y019264D01*
X008401Y019294D01*
X008207Y019294D01*
X008127Y019261D01*
X008069Y019285D01*
X007504Y019285D01*
X007383Y019235D01*
X007290Y019142D01*
X007282Y019122D01*
X007265Y019162D01*
X007172Y019255D01*
X007051Y019305D01*
X006526Y019305D01*
X006405Y019255D01*
X006312Y019162D01*
X006305Y019145D01*
X006216Y019235D01*
X006094Y019285D01*
X005530Y019285D01*
X005409Y019235D01*
X005316Y019142D01*
X005312Y019133D01*
X005308Y019142D01*
X005215Y019235D01*
X005094Y019285D01*
X004530Y019285D01*
X004408Y019235D01*
X004315Y019142D01*
X004307Y019122D01*
X004290Y019162D01*
X004198Y019255D01*
X004076Y019305D01*
X003551Y019305D01*
X003430Y019255D01*
X003337Y019162D01*
X003287Y019040D01*
X003287Y018476D01*
X003298Y018450D01*
X003280Y018408D01*
X003267Y018340D01*
X003267Y018089D01*
X003267Y017838D01*
X003280Y017770D01*
X003307Y017707D01*
X003345Y017649D01*
X003394Y017601D01*
X003451Y017562D01*
X003515Y017536D01*
X003582Y017522D01*
X003814Y017522D01*
X004019Y017522D01*
X004019Y016883D01*
X004081Y016732D01*
X004408Y016405D01*
X004374Y016379D01*
X004314Y016319D01*
X004304Y016305D01*
X004294Y016319D01*
X004233Y016379D01*
X004166Y016431D01*
X004092Y016473D01*
X004013Y016506D01*
X003931Y016528D01*
X003847Y016539D01*
X003804Y016539D01*
X003804Y015589D01*
X003804Y015589D01*
X004154Y015589D01*
X004804Y015589D01*
X004804Y015589D01*
X003804Y015589D01*
X003804Y015589D01*
X003804Y016539D01*
X003761Y016539D01*
X003677Y016528D01*
X003595Y016506D01*
X003516Y016473D01*
X003442Y016431D01*
X003374Y016379D01*
X003314Y016319D01*
X003287Y016283D01*
X003287Y016464D01*
X003273Y016532D01*
X003247Y016595D01*
X003208Y016653D01*
X003160Y016701D01*
X003102Y016740D01*
X003039Y016766D01*
X002971Y016779D01*
X002649Y016779D01*
X002546Y016779D01*
X002526Y016828D01*
X002411Y016943D01*
X002260Y017006D01*
X001188Y017006D01*
X001129Y017012D01*
X001108Y017006D01*
X001085Y017006D01*
X001083Y017005D01*
X000700Y017005D01*
X000700Y018125D01*
X000753Y018094D01*
X001048Y018015D01*
X001353Y018015D01*
X001648Y018094D01*
X001913Y018247D01*
X002129Y018463D01*
X002282Y018727D01*
X002361Y019022D01*
X002361Y019328D01*
X002282Y019623D01*
X002246Y019685D01*
X015309Y019685D01*
X015300Y017776D01*
X015515Y017775D01*
X015515Y017485D01*
X015528Y017417D01*
X015554Y017355D01*
X015535Y017309D01*
X015535Y016666D01*
X015565Y016594D01*
X015535Y016522D01*
X015535Y015879D01*
X015565Y015807D01*
X015564Y015805D01*
X015065Y015805D01*
X014915Y015742D01*
X014799Y015627D01*
X014737Y015476D01*
X014737Y012756D01*
X014717Y012756D01*
X014596Y012705D01*
X014509Y012618D01*
X013827Y012618D01*
X013809Y012662D01*
X013716Y012755D01*
X013595Y012805D01*
X013070Y012805D01*
X012949Y012755D01*
X012856Y012662D01*
X012841Y012626D01*
X011993Y012626D01*
X011842Y012564D01*
X011774Y012496D01*
X011363Y012496D01*
X011242Y012446D01*
X011164Y012368D01*
X011150Y012389D01*
X011101Y012438D01*
X011044Y012476D01*
X010980Y012502D01*
X010912Y012516D01*
X010602Y012516D01*
X010602Y011851D01*
X010602Y011851D01*
X010602Y011851D01*
X009977Y011851D01*
X009977Y011501D01*
X009990Y011434D01*
X010016Y011370D01*
X010055Y011313D01*
X009977Y011816D02*
X008824Y011816D01*
X009253Y012186D02*
X009253Y012186D01*
X009253Y012314D02*
X010009Y012314D01*
X009959Y012813D02*
X009959Y012813D01*
X009959Y013051D02*
X009959Y013051D01*
X010703Y013051D01*
X009959Y013051D01*
X010703Y012813D02*
X014737Y012813D01*
X014737Y013311D02*
X010703Y013311D01*
X010683Y013810D02*
X014737Y013810D01*
X014737Y014308D02*
X010683Y014308D01*
X010683Y014807D02*
X014737Y014807D01*
X014737Y015305D02*
X010683Y015305D01*
X010655Y015804D02*
X015062Y015804D01*
X015535Y016302D02*
X010683Y016302D01*
X010683Y016801D02*
X015535Y016801D01*
X015535Y017299D02*
X010683Y017299D01*
X010703Y017775D02*
X009959Y017775D01*
X009959Y017775D01*
X009959Y017775D01*
X009959Y017957D01*
X009959Y018563D01*
X009959Y018563D01*
X009959Y019169D01*
X010388Y019169D01*
X010455Y019155D01*
X010519Y019129D01*
X010576Y019090D01*
X010625Y019042D01*
X010663Y018984D01*
X010690Y018921D01*
X010703Y018853D01*
X010703Y018563D01*
X009959Y018563D01*
X009959Y018563D01*
X009959Y018563D01*
X010703Y018563D01*
X010703Y018272D01*
X010690Y018205D01*
X010675Y018169D01*
X010690Y018133D01*
X010703Y018066D01*
X010703Y017775D01*
X010703Y017798D02*
X015300Y017798D01*
X015302Y018296D02*
X010703Y018296D01*
X009959Y018296D02*
X009959Y018296D01*
X009959Y017798D02*
X009959Y017798D01*
X009959Y018795D02*
X009959Y018795D01*
X010703Y018795D02*
X015305Y018795D01*
X015307Y019293D02*
X008403Y019293D01*
X008205Y019293D02*
X007080Y019293D01*
X006497Y019293D02*
X004105Y019293D01*
X003523Y019293D02*
X002361Y019293D01*
X002300Y018795D02*
X003287Y018795D01*
X003267Y018296D02*
X001962Y018296D01*
X003267Y018089D02*
X003814Y018089D01*
X003814Y017522D01*
X003814Y018089D01*
X003814Y018089D01*
X003267Y018089D01*
X003275Y017798D02*
X000700Y017798D01*
X000700Y017299D02*
X004019Y017299D01*
X004053Y016801D02*
X002538Y016801D01*
X002649Y016779D02*
X002649Y016036D01*
X002649Y016036D01*
X002589Y016036D01*
X002589Y016036D01*
X002649Y016036D01*
X002649Y016036D01*
X002649Y016779D01*
X002649Y016302D02*
X002649Y016302D01*
X003287Y016302D02*
X003302Y016302D01*
X003804Y016302D02*
X003804Y016302D01*
X003804Y015804D02*
X003804Y015804D01*
X001931Y015369D02*
X001931Y015261D01*
X001931Y014579D01*
X001925Y014563D01*
X001911Y014495D01*
X001911Y014412D01*
X001854Y014412D01*
X001854Y014525D01*
X001854Y014830D01*
X001841Y014894D01*
X001854Y014958D01*
X001854Y015263D01*
X001011Y015263D01*
X001011Y015263D01*
X001011Y015146D01*
X001011Y014525D01*
X001011Y014525D01*
X001011Y015263D01*
X001011Y015369D01*
X001011Y015369D01*
X001011Y015263D01*
X001011Y015263D01*
X001011Y015263D01*
X001854Y015263D01*
X001854Y015369D01*
X001931Y015369D01*
X001931Y015305D02*
X001854Y015305D01*
X001011Y015305D02*
X001011Y015305D01*
X001011Y014807D02*
X001011Y014807D01*
X001011Y014525D02*
X001854Y014525D01*
X001011Y014525D01*
X001011Y014525D01*
X001854Y014807D02*
X001931Y014807D01*
X002649Y013953D02*
X002649Y013752D01*
X002649Y013752D01*
X002649Y013009D01*
X002549Y013009D01*
X002526Y012953D01*
X002411Y012838D01*
X002260Y012775D01*
X001249Y012775D01*
X001246Y012774D01*
X001187Y012774D01*
X001128Y012768D01*
X001106Y012774D01*
X000700Y012774D01*
X000700Y007925D01*
X000752Y007925D01*
X000752Y009565D01*
X000808Y009701D01*
X001217Y010111D01*
X001255Y010149D01*
X001155Y010190D01*
X000996Y010349D01*
X000910Y010558D01*
X000910Y010783D01*
X000996Y010991D01*
X001155Y011151D01*
X001203Y011170D01*
X001155Y011190D01*
X000996Y011349D01*
X000910Y011558D01*
X000910Y011783D01*
X000996Y011991D01*
X001155Y012151D01*
X001364Y012237D01*
X001589Y012237D01*
X001732Y012177D01*
X001781Y012225D01*
X002021Y012325D01*
X002556Y012325D01*
X003590Y013358D01*
X003504Y013444D01*
X003411Y013669D01*
X003411Y014402D01*
X003276Y014537D01*
X003285Y014495D01*
X003285Y014382D01*
X003218Y014382D01*
X003218Y014382D01*
X003285Y014382D01*
X003285Y014269D01*
X003277Y014230D01*
X003287Y014180D01*
X003287Y013752D01*
X002649Y013752D01*
X002649Y013009D01*
X002971Y013009D01*
X003039Y013022D01*
X003102Y013048D01*
X003160Y013087D01*
X003208Y013135D01*
X003247Y013193D01*
X003273Y013256D01*
X003287Y013324D01*
X003287Y013752D01*
X002649Y013752D01*
X002649Y013752D01*
X002649Y013752D01*
X002649Y013953D01*
X002649Y013953D01*
X002649Y013810D02*
X002649Y013810D01*
X002649Y013311D02*
X002649Y013311D01*
X003284Y013311D02*
X003542Y013311D01*
X003411Y013810D02*
X003287Y013810D01*
X003285Y014308D02*
X003411Y014308D01*
X003044Y012813D02*
X002350Y012813D01*
X001994Y012314D02*
X000700Y012314D01*
X000700Y011816D02*
X000923Y011816D01*
X001028Y011317D02*
X000700Y011317D01*
X000700Y010819D02*
X000924Y010819D01*
X001025Y010320D02*
X000700Y010320D01*
X000700Y009822D02*
X000928Y009822D01*
X000752Y009323D02*
X000700Y009323D01*
X000700Y008825D02*
X000752Y008825D01*
X000752Y008326D02*
X000700Y008326D01*
X002484Y009344D02*
X002484Y009344D01*
X003464Y008326D02*
X008196Y008326D01*
X008901Y008326D02*
X010362Y008326D01*
X010128Y007828D02*
X009135Y007828D01*
X009135Y007329D02*
X010128Y007329D01*
X010135Y006831D02*
X009128Y006831D01*
X009135Y006332D02*
X010128Y006332D01*
X010170Y005834D02*
X009092Y005834D01*
X009317Y005675D02*
X009317Y004805D01*
X008907Y004805D01*
X008907Y004805D01*
X009317Y004805D01*
X009317Y004805D01*
X009317Y004472D01*
X009317Y004472D01*
X009317Y004805D01*
X009317Y004805D01*
X009317Y004805D01*
X009651Y004805D01*
X009651Y004805D01*
X009317Y004805D01*
X009317Y004805D01*
X009317Y005675D01*
X009317Y005335D02*
X009317Y005335D01*
X009317Y004837D02*
X009317Y004837D01*
X008811Y004204D02*
X008852Y004148D01*
X008920Y004080D01*
X008923Y004078D01*
X008310Y003464D01*
X008306Y003455D01*
X008252Y003509D01*
X008228Y003532D01*
X008077Y003595D01*
X007236Y003595D01*
X006719Y004112D01*
X006817Y004211D01*
X006983Y004045D01*
X007200Y003955D01*
X007435Y003955D01*
X007651Y004045D01*
X007817Y004211D01*
X007983Y004045D01*
X008200Y003955D01*
X008435Y003955D01*
X008651Y004045D01*
X008811Y004204D01*
X008685Y003840D02*
X006992Y003840D01*
X009327Y003322D02*
X009869Y003864D01*
X009869Y003749D01*
X009932Y003598D01*
X010047Y003483D01*
X010198Y003420D01*
X010227Y003420D01*
X010300Y003347D01*
X010421Y003297D01*
X010985Y003297D01*
X011012Y003308D01*
X011054Y003290D01*
X011121Y003277D01*
X011372Y003277D01*
X011372Y003824D01*
X011372Y003824D01*
X011372Y003277D01*
X011623Y003277D01*
X011691Y003290D01*
X011755Y003317D01*
X011812Y003355D01*
X011861Y003404D01*
X011899Y003461D01*
X011925Y003525D01*
X011939Y003593D01*
X011939Y003791D01*
X014976Y003791D01*
X013701Y002516D01*
X013651Y002565D01*
X013435Y002655D01*
X013200Y002655D01*
X012983Y002565D01*
X012817Y002400D01*
X012651Y002565D01*
X012435Y002655D01*
X012200Y002655D01*
X011983Y002565D01*
X011817Y002400D01*
X011651Y002565D01*
X011435Y002655D01*
X011200Y002655D01*
X010983Y002565D01*
X010824Y002406D01*
X010783Y002463D01*
X010715Y002531D01*
X010637Y002587D01*
X010551Y002631D01*
X010471Y002657D01*
X010471Y002795D01*
X009905Y002795D01*
X009905Y002795D01*
X010471Y002795D01*
X010471Y003027D01*
X010458Y003094D01*
X010432Y003158D01*
X010393Y003215D01*
X010345Y003264D01*
X010287Y003302D01*
X010224Y003329D01*
X010156Y003342D01*
X009905Y003342D01*
X009905Y002795D01*
X009905Y002795D01*
X009905Y003342D01*
X009654Y003342D01*
X009586Y003329D01*
X009544Y003311D01*
X009518Y003322D01*
X009327Y003322D01*
X009346Y003341D02*
X009648Y003341D01*
X009905Y003341D02*
X009905Y003341D01*
X010162Y003341D02*
X010315Y003341D01*
X009869Y003840D02*
X009845Y003840D01*
X009905Y002843D02*
X009905Y002843D01*
X010471Y002843D02*
X014028Y002843D01*
X014724Y002492D02*
X014817Y002400D01*
X014983Y002565D01*
X015200Y002655D01*
X015435Y002655D01*
X015651Y002565D01*
X015817Y002400D01*
X015983Y002565D01*
X016200Y002655D01*
X016435Y002655D01*
X016651Y002565D01*
X016817Y002399D01*
X016907Y002183D01*
X016907Y001428D01*
X016817Y001211D01*
X016651Y001045D01*
X016435Y000955D01*
X016200Y000955D01*
X015983Y001045D01*
X015817Y001211D01*
X015651Y001045D01*
X015435Y000955D01*
X015200Y000955D01*
X014983Y001045D01*
X014933Y001095D01*
X014624Y000786D01*
X014538Y000700D01*
X018136Y000700D01*
X018099Y000765D01*
X018019Y001060D01*
X018019Y001365D01*
X018099Y001660D01*
X018251Y001924D01*
X018467Y002140D01*
X018732Y002293D01*
X019027Y002372D01*
X019332Y002372D01*
X019627Y002293D01*
X019685Y002260D01*
X019685Y018128D01*
X019629Y018096D01*
X019334Y018017D01*
X019029Y018017D01*
X018734Y018096D01*
X018469Y018248D01*
X018253Y018464D01*
X018101Y018729D01*
X018022Y019024D01*
X018022Y019329D01*
X018101Y019624D01*
X018136Y019685D01*
X017902Y019685D01*
X017902Y019000D01*
X017923Y018978D01*
X017923Y018756D01*
X017938Y018581D01*
X017923Y018533D01*
X017923Y018353D01*
X017902Y018331D01*
X017902Y018287D01*
X017871Y018287D01*
X017888Y017857D01*
X017927Y017857D01*
X018211Y017739D01*
X018428Y017522D01*
X018531Y017274D01*
X019035Y017274D01*
X019433Y016876D01*
X019433Y016313D01*
X019035Y015914D01*
X018472Y015914D01*
X018073Y016313D01*
X018073Y016372D01*
X017927Y016312D01*
X017620Y016312D01*
X017455Y016380D01*
X017474Y016361D01*
X017523Y016313D01*
X017525Y016308D01*
X017529Y016305D01*
X017554Y016241D01*
X017582Y016178D01*
X017582Y016173D01*
X017584Y016168D01*
X017583Y016100D01*
X017584Y016031D01*
X017582Y016026D01*
X017576Y015480D01*
X017580Y015470D01*
X017575Y015407D01*
X017575Y015344D01*
X017571Y015334D01*
X017570Y015323D01*
X017542Y015267D01*
X017517Y015209D01*
X017509Y015201D01*
X017504Y015191D01*
X017457Y015150D01*
X017412Y015106D01*
X017402Y015102D01*
X017246Y014966D01*
X017285Y014928D01*
X017336Y014979D01*
X017620Y015097D01*
X017927Y015097D01*
X018053Y015044D01*
X018053Y015104D01*
X018463Y015514D01*
X018753Y015514D01*
X018753Y014814D01*
X018753Y014814D01*
X018753Y014114D01*
X018523Y014114D01*
X018428Y013887D01*
X018211Y013669D01*
X017927Y013552D01*
X017620Y013552D01*
X017336Y013669D01*
X017118Y013887D01*
X017073Y013996D01*
X016982Y013922D01*
X016982Y013517D01*
X016952Y013445D01*
X016982Y013372D01*
X016982Y012910D01*
X017238Y012910D01*
X017490Y013162D01*
X018037Y013162D01*
X018263Y012935D01*
X018490Y013162D01*
X019037Y013162D01*
X019423Y012775D01*
X019423Y012228D01*
X019037Y011842D01*
X018625Y011842D01*
X018576Y011793D01*
X018528Y011743D01*
X018524Y011741D01*
X018520Y011737D01*
X018457Y011711D01*
X017944Y011483D01*
X018007Y011457D01*
X018099Y011364D01*
X018150Y011242D01*
X018150Y010532D01*
X018189Y010562D01*
X018266Y010607D01*
X018349Y010641D01*
X018435Y010664D01*
X018523Y010676D01*
X018568Y010676D01*
X018568Y009996D01*
X018568Y009996D01*
X019248Y009996D01*
X019248Y010040D01*
X019236Y010129D01*
X019213Y010215D01*
X019179Y010297D01*
X019134Y010374D01*
X019080Y010445D01*
X019017Y010508D01*
X018946Y010562D01*
X018869Y010607D01*
X018787Y010641D01*
X018701Y010664D01*
X018612Y010676D01*
X018568Y010676D01*
X018568Y009996D01*
X018568Y009996D01*
X019248Y009996D01*
X019248Y009951D01*
X019236Y009863D01*
X019213Y009777D01*
X019179Y009694D01*
X019134Y009617D01*
X019080Y009546D01*
X019023Y009489D01*
X019127Y009385D01*
X019228Y009143D01*
X019228Y008880D01*
X019127Y008638D01*
X019009Y008519D01*
X019127Y008401D01*
X019228Y008158D01*
X019228Y007896D01*
X019127Y007653D01*
X018942Y007468D01*
X018699Y007367D01*
X018436Y007367D01*
X018194Y007468D01*
X018150Y007512D01*
X018150Y006780D01*
X018136Y006747D01*
X018211Y006716D01*
X018428Y006498D01*
X018531Y006251D01*
X019035Y006251D01*
X019433Y005852D01*
X019433Y005289D01*
X019035Y004891D01*
X018595Y004891D01*
X017778Y004073D01*
X017927Y004073D01*
X018053Y004021D01*
X018053Y004081D01*
X018463Y004491D01*
X018753Y004491D01*
X018753Y003791D01*
X018753Y003791D01*
X018753Y004491D01*
X019043Y004491D01*
X019453Y004081D01*
X019453Y003791D01*
X018753Y003791D01*
X018753Y003791D01*
X018753Y003091D01*
X018523Y003091D01*
X018428Y002863D01*
X018211Y002646D01*
X017927Y002528D01*
X017620Y002528D01*
X017336Y002646D01*
X017118Y002863D01*
X017001Y003147D01*
X017001Y003454D01*
X017072Y003626D01*
X015858Y003626D01*
X014724Y002492D01*
X015074Y002843D02*
X017139Y002843D01*
X016840Y002344D02*
X018921Y002344D01*
X019437Y002344D02*
X019685Y002344D01*
X019685Y002843D02*
X018408Y002843D01*
X018753Y003091D02*
X019043Y003091D01*
X019453Y003501D01*
X019453Y003791D01*
X018753Y003791D01*
X018753Y003791D01*
X018753Y003091D01*
X018753Y003341D02*
X018753Y003341D01*
X018753Y003840D02*
X018753Y003840D01*
X019294Y003341D02*
X019685Y003341D01*
X019685Y003840D02*
X019453Y003840D01*
X019685Y004338D02*
X019196Y004338D01*
X018753Y004338D02*
X018753Y004338D01*
X018311Y004338D02*
X018042Y004338D01*
X018541Y004837D02*
X019685Y004837D01*
X019685Y005335D02*
X019433Y005335D01*
X019433Y005834D02*
X019685Y005834D01*
X019685Y006332D02*
X018497Y006332D01*
X018150Y006831D02*
X019685Y006831D01*
X019685Y007329D02*
X018150Y007329D01*
X019199Y007828D02*
X019685Y007828D01*
X019685Y008326D02*
X019158Y008326D01*
X019205Y008825D02*
X019685Y008825D01*
X019685Y009323D02*
X019153Y009323D01*
X018568Y009671D02*
X018568Y009996D01*
X018568Y009996D01*
X018568Y009671D01*
X018568Y009671D01*
X018568Y009822D02*
X018568Y009822D01*
X018568Y010320D02*
X018568Y010320D01*
X019166Y010320D02*
X019685Y010320D01*
X019685Y009822D02*
X019225Y009822D01*
X018112Y009489D02*
X018008Y009385D01*
X017908Y009143D01*
X017908Y008880D01*
X018008Y008638D01*
X018126Y008519D01*
X018008Y008401D01*
X017947Y008253D01*
X017885Y008278D01*
X016948Y008278D01*
X016948Y008439D01*
X016892Y008575D01*
X016788Y008679D01*
X016169Y009299D01*
X016169Y009306D01*
X016176Y009336D01*
X016169Y009379D01*
X016169Y009423D01*
X016159Y009446D01*
X016159Y009912D01*
X016129Y009985D01*
X016159Y010057D01*
X016159Y010502D01*
X016197Y010518D01*
X016335Y010655D01*
X016387Y010782D01*
X016387Y010009D01*
X016437Y009887D01*
X016530Y009795D01*
X016652Y009744D01*
X017885Y009744D01*
X017928Y009762D01*
X017956Y009694D01*
X018001Y009617D01*
X018055Y009546D01*
X018112Y009489D01*
X017982Y009323D02*
X016173Y009323D01*
X016643Y008825D02*
X017931Y008825D01*
X017977Y008326D02*
X016948Y008326D01*
X015066Y009708D02*
X013886Y010888D01*
X013843Y010936D01*
X013834Y010940D01*
X013827Y010947D01*
X013768Y010972D01*
X013632Y011037D01*
X013695Y011063D01*
X013752Y011101D01*
X013801Y011150D01*
X013839Y011207D01*
X013866Y011271D01*
X013879Y011339D01*
X013879Y011590D01*
X013879Y011798D01*
X014434Y011798D01*
X014433Y011791D01*
X014433Y011540D01*
X014980Y011540D01*
X015526Y011540D01*
X015526Y011791D01*
X015513Y011859D01*
X015496Y011901D01*
X015506Y011927D01*
X015506Y012006D01*
X015541Y012090D01*
X016771Y012090D01*
X016699Y012060D01*
X016561Y011922D01*
X016487Y011743D01*
X016487Y011549D01*
X016527Y011453D01*
X016437Y011364D01*
X016387Y011242D01*
X016387Y011082D01*
X016335Y011208D01*
X016197Y011346D01*
X016018Y011420D01*
X015824Y011420D01*
X015644Y011346D01*
X015508Y011210D01*
X015513Y011221D01*
X015526Y011289D01*
X015526Y011540D01*
X014980Y011540D01*
X014980Y011540D01*
X014980Y010973D01*
X015211Y010973D01*
X015279Y010987D01*
X015342Y011013D01*
X015400Y011051D01*
X015448Y011100D01*
X015484Y011154D01*
X015432Y011029D01*
X015432Y011028D01*
X015398Y011003D01*
X015396Y011000D01*
X015394Y010999D01*
X015358Y010938D01*
X015321Y010877D01*
X015320Y010874D01*
X015319Y010872D01*
X015314Y010839D01*
X015209Y010796D01*
X015116Y010703D01*
X015066Y010582D01*
X015066Y010057D01*
X015096Y009985D01*
X015066Y009912D01*
X015066Y009708D01*
X015066Y009822D02*
X014953Y009822D01*
X015066Y010320D02*
X014454Y010320D01*
X014681Y010987D02*
X014617Y011013D01*
X014560Y011051D01*
X014511Y011100D01*
X014473Y011158D01*
X014446Y011221D01*
X014433Y011289D01*
X014433Y011540D01*
X014980Y011540D01*
X014980Y011540D01*
X014980Y010973D01*
X014748Y010973D01*
X014681Y010987D01*
X015264Y010819D02*
X013956Y010819D01*
X013875Y011317D02*
X014433Y011317D01*
X014980Y011317D02*
X014980Y011317D01*
X014980Y011540D02*
X014980Y011540D01*
X015526Y011317D02*
X015615Y011317D01*
X015522Y011816D02*
X016517Y011816D01*
X016418Y011317D02*
X016226Y011317D01*
X016159Y010320D02*
X016387Y010320D01*
X016503Y009822D02*
X016159Y009822D01*
X018150Y010819D02*
X019685Y010819D01*
X019685Y011317D02*
X018119Y011317D01*
X018599Y011816D02*
X019685Y011816D01*
X019685Y012314D02*
X019423Y012314D01*
X019386Y012813D02*
X019685Y012813D01*
X019685Y013311D02*
X016982Y013311D01*
X016982Y013810D02*
X017196Y013810D01*
X018351Y013810D02*
X019685Y013810D01*
X019043Y014114D02*
X019453Y014524D01*
X019453Y014814D01*
X018753Y014814D01*
X018753Y014114D01*
X019043Y014114D01*
X019237Y014308D02*
X019685Y014308D01*
X019685Y014807D02*
X019453Y014807D01*
X019453Y014814D02*
X019453Y015104D01*
X019043Y015514D01*
X018753Y015514D01*
X018753Y014814D01*
X018753Y014814D01*
X018753Y014814D01*
X019453Y014814D01*
X019253Y015305D02*
X019685Y015305D01*
X019685Y015804D02*
X017580Y015804D01*
X017561Y015305D02*
X018254Y015305D01*
X018753Y015305D02*
X018753Y015305D01*
X018753Y014807D02*
X018753Y014807D01*
X018753Y014308D02*
X018753Y014308D01*
X018084Y016302D02*
X017530Y016302D01*
X018521Y017299D02*
X019685Y017299D01*
X019685Y016801D02*
X019433Y016801D01*
X019423Y016302D02*
X019685Y016302D01*
X019685Y017798D02*
X018070Y017798D01*
X017902Y018296D02*
X018422Y018296D01*
X018083Y018795D02*
X017923Y018795D01*
X017902Y019293D02*
X018022Y019293D01*
X010602Y012314D02*
X010602Y012314D01*
X012228Y011317D02*
X012612Y011317D01*
X012470Y010819D02*
X011494Y010819D01*
X011809Y010320D02*
X010170Y010320D01*
X010690Y009822D02*
X011989Y009822D01*
X011858Y009323D02*
X011218Y009323D01*
X011760Y008825D02*
X012417Y008825D01*
X012374Y008326D02*
X012302Y008326D01*
X011750Y007828D02*
X011300Y007828D01*
X011208Y008326D02*
X011067Y008326D01*
X011300Y007329D02*
X012146Y007329D01*
X011818Y006831D02*
X011293Y006831D01*
X011300Y006332D02*
X011319Y006332D01*
X013001Y007329D02*
X013050Y007329D01*
X013050Y007828D02*
X012997Y007828D01*
X010673Y010819D02*
X009651Y010819D01*
X013332Y011590D02*
X013332Y011590D01*
X013879Y011590D01*
X013332Y011590D01*
X004661Y011816D02*
X003450Y011816D01*
X003705Y012314D02*
X004420Y012314D01*
X003814Y017798D02*
X003814Y017798D01*
X003814Y018089D02*
X003814Y018089D01*
X011372Y003341D02*
X011372Y003341D01*
X011791Y003341D02*
X014526Y003341D01*
X015573Y003341D02*
X017001Y003341D01*
X016907Y001846D02*
X018206Y001846D01*
X018019Y001347D02*
X016874Y001347D01*
X018076Y000849D02*
X014687Y000849D01*
D36*
X014311Y000996D02*
X005326Y000996D01*
X004704Y001618D01*
X004703Y002341D01*
X002988Y003881D01*
X002956Y003862D01*
X002381Y003287D01*
X000862Y003287D01*
X000720Y003429D01*
X000720Y007437D01*
X001122Y007437D02*
X001122Y009492D01*
X001531Y009901D01*
X002444Y009901D01*
X002586Y010043D01*
X002586Y010563D01*
X002484Y010665D01*
X002476Y010670D01*
X006381Y013074D02*
X006759Y012696D01*
X006759Y010720D01*
X009185Y010753D01*
X010767Y009235D01*
X012573Y007573D01*
X013663Y008189D02*
X012326Y009468D01*
X012297Y010239D02*
X014883Y007886D01*
X014878Y005366D01*
X014319Y004807D01*
X014317Y004805D01*
X013319Y004807D02*
X013317Y004805D01*
X013319Y004807D02*
X013319Y005878D01*
X013327Y005916D01*
X013366Y005925D01*
X013484Y005925D01*
X014271Y006712D01*
X014271Y006728D01*
X014277Y006729D01*
X013665Y006334D02*
X013594Y006263D01*
X013090Y006263D01*
X012319Y005492D01*
X012319Y004807D01*
X012317Y004805D01*
X011956Y004161D02*
X011319Y004799D01*
X011317Y004805D01*
X011956Y004161D02*
X016476Y004161D01*
X016720Y004405D01*
X016720Y005200D01*
X016578Y005342D01*
X016578Y008366D01*
X015799Y009145D01*
X015799Y009349D01*
X015613Y009650D01*
X015613Y010319D02*
X015701Y010639D01*
X015675Y010747D01*
X015921Y010932D01*
X016975Y011646D02*
X017421Y011655D01*
X018311Y012051D01*
X018759Y012500D01*
X018763Y012502D01*
X016949Y014372D02*
X016303Y013846D01*
X016263Y013846D01*
X016259Y013838D01*
X016949Y014372D02*
X016949Y014581D01*
X016926Y014596D01*
X016303Y014633D02*
X017206Y015422D01*
X017213Y016099D01*
X016295Y016988D01*
X016263Y016988D01*
X016259Y016988D01*
X016259Y016201D02*
X016263Y016200D01*
X016295Y016200D01*
X016918Y015799D01*
X016303Y014633D02*
X016263Y014633D01*
X016259Y014626D01*
X013618Y010633D02*
X012941Y010955D01*
X013618Y010633D02*
X015381Y008870D01*
X015846Y008870D01*
X016311Y008405D01*
X016311Y004807D01*
X016317Y004805D01*
X015704Y003996D02*
X017177Y003996D01*
X018752Y005570D01*
X018753Y005571D01*
X015704Y003996D02*
X013933Y002224D01*
X013933Y001618D01*
X013476Y001161D01*
X006161Y001161D01*
X005933Y001389D01*
X005933Y001988D01*
X003319Y004602D01*
X003319Y004799D01*
X003317Y004805D01*
X003704Y004618D02*
X003704Y005216D01*
X002811Y006110D01*
X002934Y005980D01*
X002909Y005956D01*
X002833Y005953D01*
X002684Y006056D01*
X002811Y006110D02*
X002909Y006208D01*
X002909Y006452D01*
X002910Y006453D01*
X003177Y006775D02*
X001329Y006778D01*
X002043Y006421D02*
X002049Y006428D01*
X002043Y006421D02*
X002043Y005681D01*
X001835Y005653D01*
X001830Y005358D01*
X001830Y004689D01*
X001996Y004523D01*
X002007Y004484D01*
X002019Y004444D01*
X001840Y004309D01*
X001834Y003842D01*
X002007Y004484D02*
X002011Y004484D01*
X002007Y005134D02*
X002011Y005137D01*
X002012Y005412D01*
X002366Y005415D01*
X002678Y005372D01*
X002879Y005404D01*
X003040Y005437D01*
X002983Y005764D01*
X002983Y005929D01*
X002934Y005980D01*
X003177Y006775D02*
X005145Y004807D01*
X005311Y004807D01*
X005317Y004805D01*
X003704Y004618D02*
X005578Y002744D01*
X006286Y002741D01*
X007317Y004805D02*
X007319Y004807D01*
X007349Y005864D01*
X007701Y006308D01*
X007979Y006691D01*
X008547Y007216D01*
X008547Y007633D01*
X008549Y007635D01*
X007818Y007611D02*
X007602Y007862D01*
X006862Y007862D01*
X006602Y007602D01*
X006602Y007539D01*
X006605Y007505D01*
X006602Y007500D01*
X005586Y007500D01*
X005200Y007114D01*
X005153Y007106D01*
X008547Y006374D02*
X008547Y005035D01*
X008319Y004807D01*
X008317Y004805D01*
X008547Y006374D02*
X008549Y006375D01*
X013665Y006334D02*
X013663Y008189D01*
X008454Y011060D02*
X008454Y011808D01*
X008351Y011808D01*
X008351Y011823D01*
X008350Y012263D01*
X008883Y012261D01*
X008883Y012717D01*
X008901Y012752D01*
X008901Y012767D01*
X008909Y012775D01*
X008909Y012783D01*
X008972Y012846D01*
X008972Y012885D01*
X009098Y013011D01*
X009208Y013011D01*
X009381Y013185D01*
X009381Y013295D01*
X009925Y013838D01*
X009956Y013838D01*
X009959Y013838D01*
X009586Y014287D02*
X009425Y014127D01*
X009282Y013881D01*
X009043Y013744D01*
X009025Y013713D01*
X009025Y013413D01*
X009101Y013299D01*
X009025Y013272D02*
X008635Y012648D01*
X008635Y012625D01*
X008538Y012625D01*
X008073Y013263D02*
X007845Y013263D01*
X008073Y013263D02*
X008073Y013377D01*
X009224Y014381D01*
X009224Y015500D01*
X009925Y016200D01*
X009956Y016200D01*
X009959Y016201D01*
X009959Y016988D02*
X009956Y016996D01*
X008827Y016996D01*
X008827Y017209D01*
X008830Y018082D01*
X008807Y018082D01*
X008807Y018089D01*
X008799Y018752D02*
X008807Y018758D01*
X008799Y018752D02*
X008304Y018805D01*
X007787Y018758D02*
X007783Y018752D01*
X007122Y018090D01*
X007137Y018051D01*
X007472Y017573D01*
X007122Y018090D02*
X006791Y018090D01*
X006789Y018089D01*
X006468Y018019D02*
X006468Y016925D01*
X007799Y015594D01*
X007804Y015589D01*
X006804Y015589D02*
X006799Y015594D01*
X006799Y015720D01*
X005468Y017051D01*
X005468Y018019D01*
X004815Y018673D01*
X004815Y018752D01*
X004812Y018758D01*
X004812Y018089D02*
X004815Y018082D01*
X004815Y017476D01*
X006381Y015909D01*
X006381Y013074D01*
X008673Y013445D02*
X008673Y013602D01*
X009389Y014319D01*
X009389Y014878D01*
X009925Y015413D01*
X009956Y015413D01*
X009959Y015413D01*
X009956Y014626D02*
X009959Y014626D01*
X009956Y014626D02*
X009606Y014626D01*
X009606Y014320D01*
X009586Y014287D01*
X009025Y013413D02*
X009025Y013272D01*
X008454Y011060D02*
X008358Y011060D01*
X006543Y016434D02*
X005815Y017232D01*
X005815Y018082D01*
X005812Y018089D01*
X005815Y018673D02*
X006468Y018019D01*
X006791Y018752D02*
X006789Y018758D01*
X006791Y018752D02*
X006948Y018752D01*
X007214Y018608D01*
X005815Y018673D02*
X005815Y018752D01*
X005812Y018758D01*
X015114Y001799D02*
X014311Y000996D01*
X015114Y001799D02*
X015311Y001799D01*
X015317Y001805D01*
D37*
X016259Y018563D02*
X016263Y018570D01*
X017067Y018570D01*
X017161Y018665D01*
X017168Y018666D01*
D38*
X019182Y019177D03*
X001201Y019175D03*
X001200Y001200D03*
X019179Y001212D03*
M02*
