G75*
%MOIN*%
%OFA0B0*%
%FSLAX24Y24*%
%IPPOS*%
%LPD*%
%AMOC8*
5,1,8,0,0,1.08239X$1,22.5*
%
%ADD10C,0.0000*%
%ADD11C,0.0050*%
D10*
X000180Y000180D02*
X000180Y019865D01*
X019865Y019865D01*
X019865Y000180D01*
X000180Y000180D01*
D11*
X001403Y013024D02*
X001725Y013024D01*
X001745Y013026D01*
X001765Y013031D01*
X001784Y013040D01*
X001801Y013052D01*
X001815Y013066D01*
X001827Y013083D01*
X001836Y013102D01*
X001841Y013122D01*
X001843Y013142D01*
X001841Y013162D01*
X001836Y013182D01*
X001827Y013201D01*
X001815Y013218D01*
X001801Y013232D01*
X001784Y013244D01*
X001765Y013253D01*
X001745Y013258D01*
X001725Y013260D01*
X001403Y013260D01*
X001383Y013258D01*
X001363Y013253D01*
X001344Y013244D01*
X001327Y013232D01*
X001313Y013218D01*
X001301Y013201D01*
X001292Y013182D01*
X001287Y013162D01*
X001285Y013142D01*
X001287Y013122D01*
X001292Y013102D01*
X001301Y013083D01*
X001313Y013066D01*
X001327Y013052D01*
X001344Y013040D01*
X001363Y013031D01*
X001383Y013026D01*
X001403Y013024D01*
X002560Y013701D02*
X002647Y013701D01*
X002647Y013700D02*
X002666Y013702D01*
X002684Y013707D01*
X002701Y013715D01*
X002716Y013727D01*
X002729Y013741D01*
X002739Y013757D01*
X002746Y013775D01*
X002750Y013793D01*
X002750Y013813D01*
X002746Y013831D01*
X002739Y013849D01*
X002729Y013865D01*
X002716Y013879D01*
X002701Y013891D01*
X002684Y013899D01*
X002666Y013904D01*
X002647Y013906D01*
X002560Y013906D01*
X002541Y013904D01*
X002523Y013899D01*
X002506Y013891D01*
X002491Y013879D01*
X002478Y013865D01*
X002468Y013849D01*
X002461Y013831D01*
X002457Y013813D01*
X002457Y013793D01*
X002461Y013775D01*
X002468Y013757D01*
X002478Y013741D01*
X002491Y013727D01*
X002506Y013715D01*
X002523Y013707D01*
X002541Y013702D01*
X002560Y013700D01*
X002560Y015606D02*
X002647Y015606D01*
X002647Y015605D02*
X002666Y015607D01*
X002684Y015612D01*
X002701Y015620D01*
X002716Y015632D01*
X002729Y015646D01*
X002739Y015662D01*
X002746Y015680D01*
X002750Y015698D01*
X002750Y015718D01*
X002746Y015736D01*
X002739Y015754D01*
X002729Y015770D01*
X002716Y015784D01*
X002701Y015796D01*
X002684Y015804D01*
X002666Y015809D01*
X002647Y015811D01*
X002560Y015811D01*
X002541Y015809D01*
X002523Y015804D01*
X002506Y015796D01*
X002491Y015784D01*
X002478Y015770D01*
X002468Y015754D01*
X002461Y015736D01*
X002457Y015718D01*
X002457Y015698D01*
X002461Y015680D01*
X002468Y015662D01*
X002478Y015646D01*
X002491Y015632D01*
X002506Y015620D01*
X002523Y015612D01*
X002541Y015607D01*
X002560Y015605D01*
X001725Y016245D02*
X001403Y016245D01*
X001383Y016247D01*
X001363Y016252D01*
X001344Y016261D01*
X001327Y016273D01*
X001313Y016287D01*
X001301Y016304D01*
X001292Y016323D01*
X001287Y016343D01*
X001285Y016363D01*
X001287Y016383D01*
X001292Y016403D01*
X001301Y016422D01*
X001313Y016439D01*
X001327Y016453D01*
X001344Y016465D01*
X001363Y016474D01*
X001383Y016479D01*
X001403Y016481D01*
X001725Y016481D01*
X001745Y016479D01*
X001765Y016474D01*
X001784Y016465D01*
X001801Y016453D01*
X001815Y016439D01*
X001827Y016422D01*
X001836Y016403D01*
X001841Y016383D01*
X001843Y016363D01*
X001841Y016343D01*
X001836Y016323D01*
X001827Y016304D01*
X001815Y016287D01*
X001801Y016273D01*
X001784Y016261D01*
X001765Y016252D01*
X001745Y016247D01*
X001725Y016245D01*
M02*
