%
M48
M72
T01C0.0079
T02C0.0197
T03C0.0320
T04C0.0360
T05C0.0400
T06C0.0433
T07C0.0590
T08C0.0630
T09C0.1260
%
T01
X1850Y4600
T02
X2350Y5850
X12189Y11334
X11358Y10004
X1082Y4602
X5673Y13114
X1161Y7752
X10817Y2850
X1850Y3850
X626Y6100
X9311Y14602
X9311Y8452
X8586Y3498
X8744Y13248
X4933Y5941
X10586Y12535
X10586Y8279
X10586Y6334
X9561Y16254
X9027Y8169
X7279Y5570
X1783Y5059
X1994Y6169
X6846Y7114
X8256Y18610
X4815Y17035
X5956Y11744
X12303Y7570
X6570Y16421
X8460Y10941
X12303Y7098
X7468Y16925
X8248Y18200
X3988Y5452
X6641Y12130
T03
X16317Y4805
X15317Y4805
X14317Y4805
X13317Y4805
X12317Y4805
X11317Y4805
X10317Y4805
X9317Y4805
X8317Y4805
X7317Y4805
X6317Y4805
X5317Y4805
X4317Y4805
X3317Y4805
X3317Y1805
X4317Y1805
X5317Y1805
X6317Y1805
X7317Y1805
X8317Y1805
X9317Y1805
X10317Y1805
X11317Y1805
X12317Y1805
X13317Y1805
X14317Y1805
X15317Y1805
X16317Y1805
X5153Y6930
X5853Y6230
X7351Y7170
X7351Y6170
T04
X6916Y14063
X7916Y14063
X5021Y14070
X4021Y14070
X18157Y12502
X19157Y12502
T05
X7280Y9422
X18753Y15208
X18753Y16988
X18753Y3397
X18753Y5177
X3804Y15589
X4804Y15589
X5804Y15589
X6804Y15589
X7804Y15589
X8804Y15589
X14380Y6269
X5350Y10143
X17371Y1258
X1486Y2777
X17600Y19350
T06
X18568Y8027
X18568Y9011
X18568Y9996
X2476Y10670
X2476Y11670
X1476Y10670
X1476Y11670
X2484Y8344
X2484Y9344
X1484Y8344
X1484Y9344
T07
X17773Y14718
X17773Y17478
X17773Y2907
X17773Y5667
T08
X17268Y10626
X17268Y7397
T09
X1201Y19175
X19182Y19177
X1200Y1200
X19179Y1212
M30
