G75*
%MOIN*%
%OFA0B0*%
%FSLAX25Y25*%
%IPPOS*%
%LPD*%
%AMOC8*
5,1,8,0,0,1.08239X$1,22.5*
%
%ADD10C,0.00000*%
%ADD11R,0.03937X0.04331*%
%ADD12C,0.06000*%
%ADD13OC8,0.06000*%
%ADD14R,0.04331X0.03937*%
%ADD15R,0.02165X0.04724*%
%ADD16OC8,0.47244*%
%ADD17C,0.05600*%
%ADD18R,0.02500X0.06000*%
%ADD19C,0.05200*%
%ADD20R,0.03150X0.03150*%
%ADD21R,0.02600X0.08000*%
%ADD22C,0.01600*%
%ADD23C,0.03169*%
%ADD24C,0.05000*%
%ADD25C,0.17780*%
%ADD26C,0.16598*%
%ADD27C,0.00800*%
D10*
X0003500Y0003500D02*
X0003500Y0239720D01*
X0393264Y0239720D01*
X0393264Y0003500D01*
X0003500Y0003500D01*
X0001728Y0008618D02*
X0001730Y0008787D01*
X0001736Y0008956D01*
X0001747Y0009125D01*
X0001761Y0009293D01*
X0001780Y0009461D01*
X0001803Y0009629D01*
X0001829Y0009796D01*
X0001860Y0009962D01*
X0001895Y0010128D01*
X0001934Y0010292D01*
X0001978Y0010456D01*
X0002025Y0010618D01*
X0002076Y0010779D01*
X0002131Y0010939D01*
X0002190Y0011098D01*
X0002252Y0011255D01*
X0002319Y0011410D01*
X0002390Y0011564D01*
X0002464Y0011716D01*
X0002542Y0011866D01*
X0002623Y0012014D01*
X0002708Y0012160D01*
X0002797Y0012304D01*
X0002889Y0012446D01*
X0002985Y0012585D01*
X0003084Y0012722D01*
X0003186Y0012857D01*
X0003292Y0012989D01*
X0003401Y0013118D01*
X0003513Y0013245D01*
X0003628Y0013369D01*
X0003746Y0013490D01*
X0003867Y0013608D01*
X0003991Y0013723D01*
X0004118Y0013835D01*
X0004247Y0013944D01*
X0004379Y0014050D01*
X0004514Y0014152D01*
X0004651Y0014251D01*
X0004790Y0014347D01*
X0004932Y0014439D01*
X0005076Y0014528D01*
X0005222Y0014613D01*
X0005370Y0014694D01*
X0005520Y0014772D01*
X0005672Y0014846D01*
X0005826Y0014917D01*
X0005981Y0014984D01*
X0006138Y0015046D01*
X0006297Y0015105D01*
X0006457Y0015160D01*
X0006618Y0015211D01*
X0006780Y0015258D01*
X0006944Y0015302D01*
X0007108Y0015341D01*
X0007274Y0015376D01*
X0007440Y0015407D01*
X0007607Y0015433D01*
X0007775Y0015456D01*
X0007943Y0015475D01*
X0008111Y0015489D01*
X0008280Y0015500D01*
X0008449Y0015506D01*
X0008618Y0015508D01*
X0008787Y0015506D01*
X0008956Y0015500D01*
X0009125Y0015489D01*
X0009293Y0015475D01*
X0009461Y0015456D01*
X0009629Y0015433D01*
X0009796Y0015407D01*
X0009962Y0015376D01*
X0010128Y0015341D01*
X0010292Y0015302D01*
X0010456Y0015258D01*
X0010618Y0015211D01*
X0010779Y0015160D01*
X0010939Y0015105D01*
X0011098Y0015046D01*
X0011255Y0014984D01*
X0011410Y0014917D01*
X0011564Y0014846D01*
X0011716Y0014772D01*
X0011866Y0014694D01*
X0012014Y0014613D01*
X0012160Y0014528D01*
X0012304Y0014439D01*
X0012446Y0014347D01*
X0012585Y0014251D01*
X0012722Y0014152D01*
X0012857Y0014050D01*
X0012989Y0013944D01*
X0013118Y0013835D01*
X0013245Y0013723D01*
X0013369Y0013608D01*
X0013490Y0013490D01*
X0013608Y0013369D01*
X0013723Y0013245D01*
X0013835Y0013118D01*
X0013944Y0012989D01*
X0014050Y0012857D01*
X0014152Y0012722D01*
X0014251Y0012585D01*
X0014347Y0012446D01*
X0014439Y0012304D01*
X0014528Y0012160D01*
X0014613Y0012014D01*
X0014694Y0011866D01*
X0014772Y0011716D01*
X0014846Y0011564D01*
X0014917Y0011410D01*
X0014984Y0011255D01*
X0015046Y0011098D01*
X0015105Y0010939D01*
X0015160Y0010779D01*
X0015211Y0010618D01*
X0015258Y0010456D01*
X0015302Y0010292D01*
X0015341Y0010128D01*
X0015376Y0009962D01*
X0015407Y0009796D01*
X0015433Y0009629D01*
X0015456Y0009461D01*
X0015475Y0009293D01*
X0015489Y0009125D01*
X0015500Y0008956D01*
X0015506Y0008787D01*
X0015508Y0008618D01*
X0015506Y0008449D01*
X0015500Y0008280D01*
X0015489Y0008111D01*
X0015475Y0007943D01*
X0015456Y0007775D01*
X0015433Y0007607D01*
X0015407Y0007440D01*
X0015376Y0007274D01*
X0015341Y0007108D01*
X0015302Y0006944D01*
X0015258Y0006780D01*
X0015211Y0006618D01*
X0015160Y0006457D01*
X0015105Y0006297D01*
X0015046Y0006138D01*
X0014984Y0005981D01*
X0014917Y0005826D01*
X0014846Y0005672D01*
X0014772Y0005520D01*
X0014694Y0005370D01*
X0014613Y0005222D01*
X0014528Y0005076D01*
X0014439Y0004932D01*
X0014347Y0004790D01*
X0014251Y0004651D01*
X0014152Y0004514D01*
X0014050Y0004379D01*
X0013944Y0004247D01*
X0013835Y0004118D01*
X0013723Y0003991D01*
X0013608Y0003867D01*
X0013490Y0003746D01*
X0013369Y0003628D01*
X0013245Y0003513D01*
X0013118Y0003401D01*
X0012989Y0003292D01*
X0012857Y0003186D01*
X0012722Y0003084D01*
X0012585Y0002985D01*
X0012446Y0002889D01*
X0012304Y0002797D01*
X0012160Y0002708D01*
X0012014Y0002623D01*
X0011866Y0002542D01*
X0011716Y0002464D01*
X0011564Y0002390D01*
X0011410Y0002319D01*
X0011255Y0002252D01*
X0011098Y0002190D01*
X0010939Y0002131D01*
X0010779Y0002076D01*
X0010618Y0002025D01*
X0010456Y0001978D01*
X0010292Y0001934D01*
X0010128Y0001895D01*
X0009962Y0001860D01*
X0009796Y0001829D01*
X0009629Y0001803D01*
X0009461Y0001780D01*
X0009293Y0001761D01*
X0009125Y0001747D01*
X0008956Y0001736D01*
X0008787Y0001730D01*
X0008618Y0001728D01*
X0008449Y0001730D01*
X0008280Y0001736D01*
X0008111Y0001747D01*
X0007943Y0001761D01*
X0007775Y0001780D01*
X0007607Y0001803D01*
X0007440Y0001829D01*
X0007274Y0001860D01*
X0007108Y0001895D01*
X0006944Y0001934D01*
X0006780Y0001978D01*
X0006618Y0002025D01*
X0006457Y0002076D01*
X0006297Y0002131D01*
X0006138Y0002190D01*
X0005981Y0002252D01*
X0005826Y0002319D01*
X0005672Y0002390D01*
X0005520Y0002464D01*
X0005370Y0002542D01*
X0005222Y0002623D01*
X0005076Y0002708D01*
X0004932Y0002797D01*
X0004790Y0002889D01*
X0004651Y0002985D01*
X0004514Y0003084D01*
X0004379Y0003186D01*
X0004247Y0003292D01*
X0004118Y0003401D01*
X0003991Y0003513D01*
X0003867Y0003628D01*
X0003746Y0003746D01*
X0003628Y0003867D01*
X0003513Y0003991D01*
X0003401Y0004118D01*
X0003292Y0004247D01*
X0003186Y0004379D01*
X0003084Y0004514D01*
X0002985Y0004651D01*
X0002889Y0004790D01*
X0002797Y0004932D01*
X0002708Y0005076D01*
X0002623Y0005222D01*
X0002542Y0005370D01*
X0002464Y0005520D01*
X0002390Y0005672D01*
X0002319Y0005826D01*
X0002252Y0005981D01*
X0002190Y0006138D01*
X0002131Y0006297D01*
X0002076Y0006457D01*
X0002025Y0006618D01*
X0001978Y0006780D01*
X0001934Y0006944D01*
X0001895Y0007108D01*
X0001860Y0007274D01*
X0001829Y0007440D01*
X0001803Y0007607D01*
X0001780Y0007775D01*
X0001761Y0007943D01*
X0001747Y0008111D01*
X0001736Y0008280D01*
X0001730Y0008449D01*
X0001728Y0008618D01*
X0001728Y0234602D02*
X0001730Y0234771D01*
X0001736Y0234940D01*
X0001747Y0235109D01*
X0001761Y0235277D01*
X0001780Y0235445D01*
X0001803Y0235613D01*
X0001829Y0235780D01*
X0001860Y0235946D01*
X0001895Y0236112D01*
X0001934Y0236276D01*
X0001978Y0236440D01*
X0002025Y0236602D01*
X0002076Y0236763D01*
X0002131Y0236923D01*
X0002190Y0237082D01*
X0002252Y0237239D01*
X0002319Y0237394D01*
X0002390Y0237548D01*
X0002464Y0237700D01*
X0002542Y0237850D01*
X0002623Y0237998D01*
X0002708Y0238144D01*
X0002797Y0238288D01*
X0002889Y0238430D01*
X0002985Y0238569D01*
X0003084Y0238706D01*
X0003186Y0238841D01*
X0003292Y0238973D01*
X0003401Y0239102D01*
X0003513Y0239229D01*
X0003628Y0239353D01*
X0003746Y0239474D01*
X0003867Y0239592D01*
X0003991Y0239707D01*
X0004118Y0239819D01*
X0004247Y0239928D01*
X0004379Y0240034D01*
X0004514Y0240136D01*
X0004651Y0240235D01*
X0004790Y0240331D01*
X0004932Y0240423D01*
X0005076Y0240512D01*
X0005222Y0240597D01*
X0005370Y0240678D01*
X0005520Y0240756D01*
X0005672Y0240830D01*
X0005826Y0240901D01*
X0005981Y0240968D01*
X0006138Y0241030D01*
X0006297Y0241089D01*
X0006457Y0241144D01*
X0006618Y0241195D01*
X0006780Y0241242D01*
X0006944Y0241286D01*
X0007108Y0241325D01*
X0007274Y0241360D01*
X0007440Y0241391D01*
X0007607Y0241417D01*
X0007775Y0241440D01*
X0007943Y0241459D01*
X0008111Y0241473D01*
X0008280Y0241484D01*
X0008449Y0241490D01*
X0008618Y0241492D01*
X0008787Y0241490D01*
X0008956Y0241484D01*
X0009125Y0241473D01*
X0009293Y0241459D01*
X0009461Y0241440D01*
X0009629Y0241417D01*
X0009796Y0241391D01*
X0009962Y0241360D01*
X0010128Y0241325D01*
X0010292Y0241286D01*
X0010456Y0241242D01*
X0010618Y0241195D01*
X0010779Y0241144D01*
X0010939Y0241089D01*
X0011098Y0241030D01*
X0011255Y0240968D01*
X0011410Y0240901D01*
X0011564Y0240830D01*
X0011716Y0240756D01*
X0011866Y0240678D01*
X0012014Y0240597D01*
X0012160Y0240512D01*
X0012304Y0240423D01*
X0012446Y0240331D01*
X0012585Y0240235D01*
X0012722Y0240136D01*
X0012857Y0240034D01*
X0012989Y0239928D01*
X0013118Y0239819D01*
X0013245Y0239707D01*
X0013369Y0239592D01*
X0013490Y0239474D01*
X0013608Y0239353D01*
X0013723Y0239229D01*
X0013835Y0239102D01*
X0013944Y0238973D01*
X0014050Y0238841D01*
X0014152Y0238706D01*
X0014251Y0238569D01*
X0014347Y0238430D01*
X0014439Y0238288D01*
X0014528Y0238144D01*
X0014613Y0237998D01*
X0014694Y0237850D01*
X0014772Y0237700D01*
X0014846Y0237548D01*
X0014917Y0237394D01*
X0014984Y0237239D01*
X0015046Y0237082D01*
X0015105Y0236923D01*
X0015160Y0236763D01*
X0015211Y0236602D01*
X0015258Y0236440D01*
X0015302Y0236276D01*
X0015341Y0236112D01*
X0015376Y0235946D01*
X0015407Y0235780D01*
X0015433Y0235613D01*
X0015456Y0235445D01*
X0015475Y0235277D01*
X0015489Y0235109D01*
X0015500Y0234940D01*
X0015506Y0234771D01*
X0015508Y0234602D01*
X0015506Y0234433D01*
X0015500Y0234264D01*
X0015489Y0234095D01*
X0015475Y0233927D01*
X0015456Y0233759D01*
X0015433Y0233591D01*
X0015407Y0233424D01*
X0015376Y0233258D01*
X0015341Y0233092D01*
X0015302Y0232928D01*
X0015258Y0232764D01*
X0015211Y0232602D01*
X0015160Y0232441D01*
X0015105Y0232281D01*
X0015046Y0232122D01*
X0014984Y0231965D01*
X0014917Y0231810D01*
X0014846Y0231656D01*
X0014772Y0231504D01*
X0014694Y0231354D01*
X0014613Y0231206D01*
X0014528Y0231060D01*
X0014439Y0230916D01*
X0014347Y0230774D01*
X0014251Y0230635D01*
X0014152Y0230498D01*
X0014050Y0230363D01*
X0013944Y0230231D01*
X0013835Y0230102D01*
X0013723Y0229975D01*
X0013608Y0229851D01*
X0013490Y0229730D01*
X0013369Y0229612D01*
X0013245Y0229497D01*
X0013118Y0229385D01*
X0012989Y0229276D01*
X0012857Y0229170D01*
X0012722Y0229068D01*
X0012585Y0228969D01*
X0012446Y0228873D01*
X0012304Y0228781D01*
X0012160Y0228692D01*
X0012014Y0228607D01*
X0011866Y0228526D01*
X0011716Y0228448D01*
X0011564Y0228374D01*
X0011410Y0228303D01*
X0011255Y0228236D01*
X0011098Y0228174D01*
X0010939Y0228115D01*
X0010779Y0228060D01*
X0010618Y0228009D01*
X0010456Y0227962D01*
X0010292Y0227918D01*
X0010128Y0227879D01*
X0009962Y0227844D01*
X0009796Y0227813D01*
X0009629Y0227787D01*
X0009461Y0227764D01*
X0009293Y0227745D01*
X0009125Y0227731D01*
X0008956Y0227720D01*
X0008787Y0227714D01*
X0008618Y0227712D01*
X0008449Y0227714D01*
X0008280Y0227720D01*
X0008111Y0227731D01*
X0007943Y0227745D01*
X0007775Y0227764D01*
X0007607Y0227787D01*
X0007440Y0227813D01*
X0007274Y0227844D01*
X0007108Y0227879D01*
X0006944Y0227918D01*
X0006780Y0227962D01*
X0006618Y0228009D01*
X0006457Y0228060D01*
X0006297Y0228115D01*
X0006138Y0228174D01*
X0005981Y0228236D01*
X0005826Y0228303D01*
X0005672Y0228374D01*
X0005520Y0228448D01*
X0005370Y0228526D01*
X0005222Y0228607D01*
X0005076Y0228692D01*
X0004932Y0228781D01*
X0004790Y0228873D01*
X0004651Y0228969D01*
X0004514Y0229068D01*
X0004379Y0229170D01*
X0004247Y0229276D01*
X0004118Y0229385D01*
X0003991Y0229497D01*
X0003867Y0229612D01*
X0003746Y0229730D01*
X0003628Y0229851D01*
X0003513Y0229975D01*
X0003401Y0230102D01*
X0003292Y0230231D01*
X0003186Y0230363D01*
X0003084Y0230498D01*
X0002985Y0230635D01*
X0002889Y0230774D01*
X0002797Y0230916D01*
X0002708Y0231060D01*
X0002623Y0231206D01*
X0002542Y0231354D01*
X0002464Y0231504D01*
X0002390Y0231656D01*
X0002319Y0231810D01*
X0002252Y0231965D01*
X0002190Y0232122D01*
X0002131Y0232281D01*
X0002076Y0232441D01*
X0002025Y0232602D01*
X0001978Y0232764D01*
X0001934Y0232928D01*
X0001895Y0233092D01*
X0001860Y0233258D01*
X0001829Y0233424D01*
X0001803Y0233591D01*
X0001780Y0233759D01*
X0001761Y0233927D01*
X0001747Y0234095D01*
X0001736Y0234264D01*
X0001730Y0234433D01*
X0001728Y0234602D01*
D11*
X0019612Y0184489D03*
X0019612Y0177796D03*
X0019600Y0164369D03*
X0019600Y0157676D03*
X0066889Y0146773D03*
X0073581Y0146773D03*
X0090722Y0146312D03*
X0090722Y0153005D03*
X0150482Y0169887D03*
X0157175Y0169887D03*
X0184079Y0199207D03*
X0184079Y0205900D03*
X0206150Y0097543D03*
X0212843Y0097543D03*
X0038630Y0088688D03*
X0038630Y0081995D03*
D12*
X0214185Y0122018D02*
X0214185Y0128018D01*
X0224185Y0128018D02*
X0224185Y0122018D01*
X0314923Y0118709D02*
X0320923Y0118709D01*
X0320923Y0128709D02*
X0314923Y0128709D01*
X0312741Y0209981D02*
X0312741Y0215981D01*
X0302741Y0215981D02*
X0302741Y0209981D01*
X0292741Y0209981D02*
X0292741Y0215981D01*
X0184305Y0218562D02*
X0184305Y0224562D01*
X0174305Y0224562D02*
X0174305Y0218562D01*
X0164305Y0218562D02*
X0164305Y0224562D01*
X0154305Y0224562D02*
X0154305Y0218562D01*
X0144305Y0218562D02*
X0144305Y0224562D01*
X0134305Y0224562D02*
X0134305Y0218562D01*
D13*
X0211330Y0218087D03*
X0221330Y0218087D03*
X0221330Y0208087D03*
X0211330Y0208087D03*
X0231330Y0208087D03*
X0231330Y0218087D03*
X0175853Y0108728D03*
X0165853Y0108728D03*
X0155853Y0108728D03*
X0145853Y0108728D03*
X0135853Y0108728D03*
X0125853Y0108728D03*
X0115853Y0108728D03*
X0105853Y0108728D03*
X0095853Y0108728D03*
X0085853Y0108728D03*
X0085853Y0098728D03*
X0095853Y0098728D03*
X0105853Y0098728D03*
X0115853Y0098728D03*
X0125853Y0098728D03*
X0135853Y0098728D03*
X0145853Y0098728D03*
X0155853Y0098728D03*
X0165853Y0098728D03*
X0175853Y0098728D03*
X0193856Y0035020D03*
X0203856Y0035020D03*
X0213856Y0035020D03*
X0223856Y0035020D03*
X0233856Y0035020D03*
X0243856Y0035020D03*
X0253856Y0035020D03*
X0263856Y0035020D03*
X0273856Y0035020D03*
X0283856Y0035020D03*
X0283856Y0025020D03*
X0273856Y0025020D03*
X0263856Y0025020D03*
X0253856Y0025020D03*
X0243856Y0025020D03*
X0233856Y0025020D03*
X0223856Y0025020D03*
X0213856Y0025020D03*
X0203856Y0025020D03*
X0193856Y0025020D03*
X0137551Y0025335D03*
X0127551Y0025335D03*
X0117551Y0025335D03*
X0107551Y0025335D03*
X0097551Y0025335D03*
X0087551Y0025335D03*
X0077551Y0025335D03*
X0077551Y0035335D03*
X0087551Y0035335D03*
X0097551Y0035335D03*
X0107551Y0035335D03*
X0117551Y0035335D03*
X0127551Y0035335D03*
X0137551Y0035335D03*
D14*
X0054502Y0069769D03*
X0047809Y0069769D03*
X0183943Y0145933D03*
X0183943Y0152625D03*
X0144133Y0197334D03*
X0144133Y0204027D03*
X0293241Y0128122D03*
X0293241Y0121429D03*
D15*
X0054577Y0090457D03*
X0047097Y0090457D03*
X0047097Y0080220D03*
X0050837Y0080220D03*
X0054577Y0080220D03*
D16*
X0359969Y0091470D03*
X0359438Y0154056D03*
D17*
X0023894Y0100513D02*
X0018294Y0100513D01*
X0018294Y0090513D02*
X0023894Y0090513D01*
D18*
X0065950Y0170805D03*
X0070950Y0170805D03*
X0075950Y0170805D03*
X0080950Y0170805D03*
X0085950Y0170805D03*
X0090950Y0170805D03*
X0095950Y0170805D03*
X0100950Y0170805D03*
X0100950Y0192026D03*
X0095950Y0192026D03*
X0090950Y0192026D03*
X0085950Y0192026D03*
X0080950Y0192026D03*
X0075950Y0192026D03*
X0070950Y0192026D03*
X0065950Y0192026D03*
D19*
X0043258Y0180720D03*
X0043258Y0160720D03*
D20*
X0150876Y0150202D03*
X0156781Y0150202D03*
X0226250Y0097438D03*
X0232156Y0097438D03*
X0293124Y0103446D03*
X0293124Y0109352D03*
D21*
X0234747Y0150672D03*
X0229747Y0150672D03*
X0224747Y0150672D03*
X0219747Y0150672D03*
X0214747Y0150672D03*
X0209747Y0150672D03*
X0204747Y0150672D03*
X0204747Y0174872D03*
X0209747Y0174872D03*
X0214747Y0174872D03*
X0219747Y0174872D03*
X0224747Y0174872D03*
X0229747Y0174872D03*
X0234747Y0174872D03*
D22*
X0216300Y0194300D02*
X0179900Y0157900D01*
X0179900Y0128300D01*
X0175900Y0125100D02*
X0213900Y0125100D01*
X0214185Y0125018D01*
X0233815Y0143264D02*
X0233815Y0149169D01*
X0234747Y0150672D01*
X0241689Y0151138D02*
X0241689Y0214130D01*
X0241880Y0214320D01*
X0243100Y0213100D01*
X0292700Y0213100D01*
X0292741Y0212981D01*
X0241880Y0214320D02*
X0226700Y0229500D01*
X0189100Y0229500D01*
X0189100Y0176700D01*
X0156700Y0144300D01*
X0151100Y0149900D01*
X0150876Y0150202D01*
X0156700Y0144300D02*
X0175900Y0125100D01*
X0127500Y0108728D02*
X0127500Y0108700D01*
X0125853Y0108728D01*
X0103900Y0133900D02*
X0103900Y0165900D01*
X0100950Y0170805D02*
X0100700Y0170700D01*
X0100700Y0144300D01*
X0073100Y0116700D01*
X0061100Y0128700D01*
X0061100Y0175500D01*
X0062700Y0177100D01*
X0072700Y0177100D01*
X0085900Y0190300D01*
X0085900Y0191900D01*
X0085950Y0192026D01*
X0067100Y0146700D02*
X0066889Y0146773D01*
X0067100Y0146700D02*
X0067100Y0127500D01*
X0073100Y0116700D02*
X0047500Y0091100D01*
X0047097Y0090457D01*
X0046700Y0090300D01*
X0045100Y0088700D01*
X0038700Y0088700D01*
X0038630Y0088688D01*
X0037900Y0088700D01*
X0036300Y0090300D01*
X0021100Y0090300D01*
X0021094Y0090513D01*
X0047100Y0082300D02*
X0049100Y0084300D01*
X0052700Y0084300D01*
X0053500Y0083500D01*
X0103900Y0133900D01*
X0085853Y0108728D02*
X0085500Y0108700D01*
X0081100Y0104300D01*
X0081100Y0063100D01*
X0077900Y0059900D01*
X0077900Y0035500D01*
X0077551Y0035335D01*
X0054700Y0069900D02*
X0054502Y0069769D01*
X0054700Y0069900D02*
X0054700Y0079900D01*
X0054577Y0080220D01*
X0054300Y0080700D01*
X0054300Y0082700D01*
X0053500Y0083500D01*
X0050837Y0080220D02*
X0050700Y0079900D01*
X0050700Y0072700D01*
X0047900Y0069900D01*
X0047809Y0069769D01*
X0047097Y0080220D02*
X0047100Y0080300D01*
X0047100Y0082300D01*
X0193000Y0164572D02*
X0193100Y0164700D01*
X0203100Y0174700D01*
X0204700Y0174700D01*
X0204747Y0174872D01*
X0216300Y0194300D02*
X0216300Y0219900D01*
X0219100Y0222700D01*
X0223500Y0222700D01*
X0226300Y0219900D01*
X0226300Y0216300D01*
X0231100Y0211500D01*
X0231100Y0208300D01*
X0231330Y0208087D01*
X0189100Y0229500D02*
X0162300Y0229500D01*
X0154700Y0221900D01*
X0154305Y0221562D01*
X0293124Y0109352D02*
X0293100Y0109100D01*
X0289900Y0105900D01*
X0289900Y0101100D01*
X0291100Y0099900D01*
X0299100Y0099900D01*
X0317900Y0118700D01*
X0317923Y0118709D01*
X0318700Y0118700D01*
X0332700Y0118700D01*
X0359900Y0091500D01*
X0359969Y0091470D01*
D23*
X0245065Y0082485D03*
X0233117Y0082485D03*
X0199821Y0098218D03*
X0185758Y0089364D03*
X0169900Y0119100D03*
X0164300Y0119100D03*
X0179900Y0128300D03*
X0190726Y0128804D03*
X0196916Y0143465D03*
X0219900Y0132300D03*
X0233815Y0143264D03*
X0241689Y0151138D03*
X0219900Y0167500D03*
X0215100Y0164300D03*
X0209500Y0168300D03*
X0193000Y0164572D03*
X0169342Y0170945D03*
X0180989Y0183509D03*
X0169524Y0199170D03*
X0157695Y0184238D03*
X0140953Y0191340D03*
X0118896Y0195220D03*
X0116695Y0205294D03*
X0092484Y0203720D03*
X0084700Y0210300D03*
X0081100Y0202700D03*
X0103900Y0165900D03*
X0078964Y0161850D03*
X0080221Y0135406D03*
X0067100Y0127500D03*
X0069156Y0106409D03*
X0035258Y0129424D03*
X0096649Y0134733D03*
X0112717Y0124267D03*
X0142427Y0125481D03*
X0169342Y0144541D03*
X0142924Y0169649D03*
X0200862Y0207406D03*
X0107141Y0090820D03*
X0130435Y0083719D03*
X0097805Y0065911D03*
X0077711Y0064600D03*
X0159916Y0057133D03*
X0161736Y0030911D03*
X0219500Y0056700D03*
D24*
X0215068Y0058764D02*
X0179934Y0093899D01*
X0182153Y0096119D01*
X0182153Y0101338D01*
X0179763Y0103728D01*
X0182153Y0106119D01*
X0182153Y0111338D01*
X0179691Y0113800D01*
X0216636Y0113800D01*
X0217996Y0114363D01*
X0219037Y0115404D01*
X0220463Y0116830D01*
X0220617Y0116677D01*
X0222932Y0115718D01*
X0225438Y0115718D01*
X0227285Y0116482D01*
X0228200Y0115567D01*
X0228200Y0102313D01*
X0224019Y0102313D01*
X0222806Y0101810D01*
X0222196Y0101200D01*
X0217766Y0101200D01*
X0217609Y0101578D01*
X0216681Y0102506D01*
X0215468Y0103008D01*
X0210218Y0103008D01*
X0209758Y0102818D01*
X0209140Y0103074D01*
X0208463Y0103208D01*
X0206150Y0103208D01*
X0203837Y0103208D01*
X0203161Y0103074D01*
X0202524Y0102810D01*
X0201951Y0102427D01*
X0201463Y0101939D01*
X0201080Y0101366D01*
X0200816Y0100729D01*
X0200682Y0100053D01*
X0200682Y0097543D01*
X0200682Y0095033D01*
X0200816Y0094357D01*
X0201080Y0093720D01*
X0201463Y0093147D01*
X0201951Y0092659D01*
X0202524Y0092276D01*
X0203161Y0092012D01*
X0203837Y0091878D01*
X0206150Y0091878D01*
X0206150Y0097543D01*
X0200682Y0097543D01*
X0206150Y0097543D01*
X0206150Y0097543D01*
X0206150Y0097543D01*
X0206150Y0103208D01*
X0206150Y0097543D01*
X0206150Y0097543D01*
X0206150Y0091878D01*
X0208463Y0091878D01*
X0209140Y0092012D01*
X0209758Y0092268D01*
X0210218Y0092078D01*
X0215468Y0092078D01*
X0216681Y0092580D01*
X0217609Y0093508D01*
X0217730Y0093800D01*
X0222072Y0093800D01*
X0222806Y0093066D01*
X0224019Y0092563D01*
X0228482Y0092563D01*
X0229203Y0092862D01*
X0229925Y0092563D01*
X0233800Y0092563D01*
X0233800Y0076233D01*
X0219152Y0061584D01*
X0218528Y0061584D01*
X0216733Y0060841D01*
X0215359Y0059467D01*
X0215068Y0058764D01*
X0210350Y0063482D02*
X0221050Y0063482D01*
X0226048Y0068481D02*
X0205352Y0068481D01*
X0200353Y0073479D02*
X0231047Y0073479D01*
X0233800Y0078478D02*
X0195355Y0078478D01*
X0190356Y0083476D02*
X0233800Y0083476D01*
X0233800Y0088475D02*
X0185358Y0088475D01*
X0180359Y0093473D02*
X0201245Y0093473D01*
X0206150Y0093473D02*
X0206150Y0093473D01*
X0206150Y0098472D02*
X0206150Y0098472D01*
X0200682Y0098472D02*
X0182153Y0098472D01*
X0180021Y0103470D02*
X0228200Y0103470D01*
X0228200Y0108469D02*
X0182153Y0108469D01*
X0180024Y0113467D02*
X0228200Y0113467D01*
X0241200Y0113467D02*
X0289423Y0113467D01*
X0289679Y0113724D02*
X0288751Y0112796D01*
X0288249Y0111583D01*
X0288249Y0110047D01*
X0287578Y0109376D01*
X0286424Y0108222D01*
X0285800Y0106716D01*
X0285800Y0100284D01*
X0286424Y0098778D01*
X0287624Y0097578D01*
X0288778Y0096424D01*
X0290284Y0095800D01*
X0299916Y0095800D01*
X0301422Y0096424D01*
X0317407Y0112409D01*
X0322177Y0112409D01*
X0324492Y0113368D01*
X0325724Y0114600D01*
X0331002Y0114600D01*
X0338013Y0107588D01*
X0333047Y0102622D01*
X0333047Y0080319D01*
X0348817Y0064548D01*
X0371120Y0064548D01*
X0386891Y0080319D01*
X0386891Y0102622D01*
X0371120Y0118392D01*
X0348817Y0118392D01*
X0343812Y0113387D01*
X0335022Y0122176D01*
X0333516Y0122800D01*
X0325742Y0122800D01*
X0324942Y0123599D01*
X0325218Y0123811D01*
X0325821Y0124414D01*
X0326340Y0125090D01*
X0326766Y0125828D01*
X0327092Y0126615D01*
X0327312Y0127438D01*
X0327423Y0128283D01*
X0327423Y0128709D01*
X0327423Y0129135D01*
X0327312Y0129980D01*
X0327092Y0130803D01*
X0326766Y0131590D01*
X0326340Y0132328D01*
X0325821Y0133004D01*
X0325218Y0133606D01*
X0324542Y0134125D01*
X0323804Y0134551D01*
X0323017Y0134877D01*
X0322194Y0135097D01*
X0321349Y0135209D01*
X0317923Y0135209D01*
X0314497Y0135209D01*
X0313653Y0135097D01*
X0312830Y0134877D01*
X0312042Y0134551D01*
X0311304Y0134125D01*
X0310629Y0133606D01*
X0310026Y0133004D01*
X0309507Y0132328D01*
X0309081Y0131590D01*
X0308755Y0130803D01*
X0308535Y0129980D01*
X0308423Y0129135D01*
X0308423Y0128709D01*
X0317923Y0128709D01*
X0317923Y0128709D01*
X0317923Y0135209D01*
X0317923Y0128709D01*
X0317923Y0128709D01*
X0308423Y0128709D01*
X0308423Y0128283D01*
X0308535Y0127438D01*
X0308755Y0126615D01*
X0309081Y0125828D01*
X0309507Y0125090D01*
X0310026Y0124414D01*
X0310629Y0123811D01*
X0310905Y0123599D01*
X0309583Y0122277D01*
X0308623Y0119962D01*
X0308623Y0117456D01*
X0309278Y0115876D01*
X0299483Y0106081D01*
X0299600Y0106364D01*
X0299600Y0119436D01*
X0299037Y0120796D01*
X0298706Y0121126D01*
X0298706Y0124054D01*
X0298516Y0124514D01*
X0298772Y0125132D01*
X0298906Y0125809D01*
X0298906Y0128122D01*
X0298906Y0130435D01*
X0298772Y0131111D01*
X0298508Y0131748D01*
X0298125Y0132321D01*
X0297637Y0132809D01*
X0297064Y0133192D01*
X0296427Y0133456D01*
X0295751Y0133590D01*
X0293241Y0133590D01*
X0293241Y0128122D01*
X0293241Y0128122D01*
X0298906Y0128122D01*
X0293241Y0128122D01*
X0293241Y0128122D01*
X0293241Y0133590D01*
X0290731Y0133590D01*
X0290055Y0133456D01*
X0289418Y0133192D01*
X0288844Y0132809D01*
X0288357Y0132321D01*
X0287974Y0131748D01*
X0287710Y0131111D01*
X0287576Y0130435D01*
X0287576Y0128122D01*
X0293241Y0128122D01*
X0293241Y0128122D01*
X0287576Y0128122D01*
X0287576Y0125809D01*
X0287710Y0125132D01*
X0287966Y0124514D01*
X0287776Y0124054D01*
X0287776Y0118804D01*
X0288278Y0117591D01*
X0289206Y0116663D01*
X0290419Y0116160D01*
X0292200Y0116160D01*
X0292200Y0114227D01*
X0290892Y0114227D01*
X0289679Y0113724D01*
X0287916Y0118466D02*
X0241200Y0118466D01*
X0241200Y0123464D02*
X0287776Y0123464D01*
X0287576Y0128463D02*
X0241200Y0128463D01*
X0241200Y0133461D02*
X0290082Y0133461D01*
X0293241Y0133461D02*
X0293241Y0133461D01*
X0296400Y0133461D02*
X0310484Y0133461D01*
X0308423Y0128463D02*
X0298906Y0128463D01*
X0298706Y0123464D02*
X0310769Y0123464D01*
X0308623Y0118466D02*
X0299600Y0118466D01*
X0299600Y0113467D02*
X0306869Y0113467D01*
X0301870Y0108469D02*
X0299600Y0108469D01*
X0308468Y0103470D02*
X0333895Y0103470D01*
X0333047Y0098472D02*
X0303470Y0098472D01*
X0313467Y0108469D02*
X0337133Y0108469D01*
X0332134Y0113467D02*
X0324592Y0113467D01*
X0325077Y0123464D02*
X0389764Y0123464D01*
X0389764Y0118466D02*
X0338732Y0118466D01*
X0343731Y0113467D02*
X0343892Y0113467D01*
X0348204Y0126934D02*
X0356938Y0126934D01*
X0356938Y0151555D01*
X0361938Y0151555D01*
X0361938Y0126934D01*
X0370672Y0126934D01*
X0386560Y0142821D01*
X0386560Y0151556D01*
X0361938Y0151556D01*
X0361938Y0156556D01*
X0356938Y0156556D01*
X0356938Y0181178D01*
X0348204Y0181178D01*
X0332316Y0165290D01*
X0332316Y0156556D01*
X0356938Y0156556D01*
X0356938Y0151556D01*
X0332316Y0151556D01*
X0332316Y0142821D01*
X0348204Y0126934D01*
X0346674Y0128463D02*
X0327423Y0128463D01*
X0327423Y0128709D02*
X0317924Y0128709D01*
X0327423Y0128709D01*
X0325363Y0133461D02*
X0341676Y0133461D01*
X0336677Y0138460D02*
X0241200Y0138460D01*
X0241200Y0143458D02*
X0332316Y0143458D01*
X0332316Y0148457D02*
X0245865Y0148457D01*
X0245830Y0148371D02*
X0246573Y0150166D01*
X0246573Y0152109D01*
X0245830Y0153904D01*
X0245789Y0153945D01*
X0245789Y0209000D01*
X0286441Y0209000D01*
X0286441Y0208728D01*
X0287400Y0206412D01*
X0289172Y0204640D01*
X0291488Y0203681D01*
X0293994Y0203681D01*
X0296310Y0204640D01*
X0297741Y0206071D01*
X0299172Y0204640D01*
X0301488Y0203681D01*
X0303994Y0203681D01*
X0306310Y0204640D01*
X0307741Y0206071D01*
X0309172Y0204640D01*
X0311488Y0203681D01*
X0313994Y0203681D01*
X0316310Y0204640D01*
X0318082Y0206412D01*
X0319041Y0208728D01*
X0319041Y0217234D01*
X0318082Y0219550D01*
X0316310Y0221322D01*
X0313994Y0222281D01*
X0311488Y0222281D01*
X0309172Y0221322D01*
X0307741Y0219891D01*
X0306310Y0221322D01*
X0303994Y0222281D01*
X0301488Y0222281D01*
X0299172Y0221322D01*
X0297741Y0219891D01*
X0296310Y0221322D01*
X0293994Y0222281D01*
X0291488Y0222281D01*
X0289172Y0221322D01*
X0287400Y0219550D01*
X0286441Y0217234D01*
X0286441Y0217200D01*
X0244798Y0217200D01*
X0244202Y0217796D01*
X0230176Y0231822D01*
X0229022Y0232976D01*
X0227516Y0233600D01*
X0161484Y0233600D01*
X0159978Y0232976D01*
X0158824Y0231822D01*
X0157189Y0230187D01*
X0155558Y0230862D01*
X0153051Y0230862D01*
X0150736Y0229903D01*
X0149305Y0228472D01*
X0147873Y0229903D01*
X0145558Y0230862D01*
X0143051Y0230862D01*
X0140736Y0229903D01*
X0139414Y0228581D01*
X0139202Y0228857D01*
X0138600Y0229460D01*
X0137924Y0229979D01*
X0137186Y0230405D01*
X0136398Y0230731D01*
X0135575Y0230951D01*
X0134731Y0231062D01*
X0134305Y0231062D01*
X0134305Y0221563D01*
X0134305Y0221563D01*
X0134305Y0231062D01*
X0133879Y0231062D01*
X0133034Y0230951D01*
X0132211Y0230731D01*
X0131424Y0230405D01*
X0130686Y0229979D01*
X0130010Y0229460D01*
X0129407Y0228857D01*
X0128888Y0228181D01*
X0128462Y0227443D01*
X0128136Y0226656D01*
X0127916Y0225833D01*
X0127805Y0224988D01*
X0127805Y0221562D01*
X0127805Y0218136D01*
X0127916Y0217292D01*
X0128136Y0216469D01*
X0128462Y0215681D01*
X0128888Y0214943D01*
X0129407Y0214267D01*
X0130010Y0213665D01*
X0130686Y0213146D01*
X0131424Y0212720D01*
X0132211Y0212394D01*
X0133034Y0212174D01*
X0133879Y0212062D01*
X0134305Y0212062D01*
X0134731Y0212062D01*
X0135575Y0212174D01*
X0136398Y0212394D01*
X0137186Y0212720D01*
X0137924Y0213146D01*
X0138600Y0213665D01*
X0139202Y0214267D01*
X0139414Y0214544D01*
X0140600Y0213358D01*
X0140600Y0209001D01*
X0140099Y0208793D01*
X0139171Y0207865D01*
X0138668Y0206652D01*
X0138668Y0204400D01*
X0102764Y0204400D01*
X0101404Y0203837D01*
X0100363Y0202796D01*
X0095893Y0198326D01*
X0094043Y0198326D01*
X0093449Y0198080D01*
X0092856Y0198326D01*
X0089043Y0198326D01*
X0088450Y0198080D01*
X0087856Y0198326D01*
X0084800Y0198326D01*
X0084800Y0199493D01*
X0085241Y0199933D01*
X0085984Y0201728D01*
X0085984Y0203672D01*
X0085262Y0205416D01*
X0085672Y0205416D01*
X0087467Y0206159D01*
X0088841Y0207533D01*
X0089584Y0209328D01*
X0089584Y0211272D01*
X0088841Y0213067D01*
X0087467Y0214441D01*
X0085672Y0215184D01*
X0083728Y0215184D01*
X0081933Y0214441D01*
X0080559Y0213067D01*
X0079816Y0211272D01*
X0079816Y0210648D01*
X0073163Y0203996D01*
X0072600Y0202636D01*
X0072600Y0198326D01*
X0071107Y0198326D01*
X0071037Y0198396D01*
X0069996Y0199437D01*
X0068636Y0200000D01*
X0057964Y0200000D01*
X0056604Y0199437D01*
X0043788Y0186620D01*
X0042812Y0186620D01*
X0041996Y0187437D01*
X0040636Y0188000D01*
X0024595Y0188000D01*
X0024378Y0188524D01*
X0023450Y0189452D01*
X0022237Y0189954D01*
X0016987Y0189954D01*
X0015774Y0189452D01*
X0014846Y0188524D01*
X0014344Y0187311D01*
X0014344Y0181667D01*
X0014453Y0181404D01*
X0014278Y0180982D01*
X0014144Y0180306D01*
X0014144Y0177796D01*
X0014144Y0175286D01*
X0014278Y0174610D01*
X0014542Y0173973D01*
X0014925Y0173400D01*
X0015413Y0172912D01*
X0015986Y0172529D01*
X0016623Y0172265D01*
X0017299Y0172131D01*
X0019612Y0172131D01*
X0019612Y0177796D01*
X0014144Y0177796D01*
X0019612Y0177796D01*
X0019612Y0177796D01*
X0019612Y0177796D01*
X0019612Y0172131D01*
X0021925Y0172131D01*
X0022602Y0172265D01*
X0023239Y0172529D01*
X0023812Y0172912D01*
X0024299Y0173400D01*
X0024682Y0173973D01*
X0024946Y0174610D01*
X0025081Y0175286D01*
X0025081Y0177796D01*
X0019612Y0177796D01*
X0019612Y0177796D01*
X0025081Y0177796D01*
X0025081Y0180306D01*
X0025022Y0180600D01*
X0037358Y0180600D01*
X0037358Y0179547D01*
X0038257Y0177378D01*
X0039916Y0175719D01*
X0042085Y0174820D01*
X0044432Y0174820D01*
X0046601Y0175719D01*
X0048260Y0177378D01*
X0049158Y0179547D01*
X0049158Y0181526D01*
X0060233Y0192600D01*
X0061400Y0192600D01*
X0061400Y0188369D01*
X0061902Y0187156D01*
X0062200Y0186858D01*
X0062200Y0185033D01*
X0043788Y0166620D01*
X0042085Y0166620D01*
X0039916Y0165722D01*
X0038257Y0164062D01*
X0037358Y0161894D01*
X0037358Y0161600D01*
X0025017Y0161600D01*
X0025069Y0161859D01*
X0025069Y0164369D01*
X0019601Y0164369D01*
X0019601Y0164369D01*
X0025069Y0164369D01*
X0025069Y0166879D01*
X0024934Y0167556D01*
X0024671Y0168192D01*
X0024288Y0168766D01*
X0023800Y0169253D01*
X0023227Y0169636D01*
X0022590Y0169900D01*
X0021914Y0170035D01*
X0019601Y0170035D01*
X0019601Y0164369D01*
X0019600Y0164369D01*
X0014132Y0164369D01*
X0014132Y0161859D01*
X0014266Y0161183D01*
X0014441Y0160762D01*
X0014332Y0160498D01*
X0014332Y0154855D01*
X0014834Y0153642D01*
X0015763Y0152713D01*
X0016976Y0152211D01*
X0022225Y0152211D01*
X0023438Y0152713D01*
X0024367Y0153642D01*
X0024598Y0154200D01*
X0041036Y0154200D01*
X0042396Y0154763D01*
X0042453Y0154820D01*
X0044432Y0154820D01*
X0046601Y0155719D01*
X0048260Y0157378D01*
X0049158Y0159547D01*
X0049158Y0161526D01*
X0057000Y0169367D01*
X0057000Y0127884D01*
X0057624Y0126378D01*
X0067302Y0116700D01*
X0046721Y0096120D01*
X0045358Y0096120D01*
X0044145Y0095617D01*
X0043216Y0094689D01*
X0042714Y0093476D01*
X0042714Y0093405D01*
X0042468Y0093651D01*
X0041255Y0094154D01*
X0037711Y0094154D01*
X0037116Y0094400D01*
X0028633Y0094400D01*
X0027520Y0095513D01*
X0029065Y0097057D01*
X0029994Y0099299D01*
X0029994Y0101726D01*
X0029065Y0103968D01*
X0027349Y0105684D01*
X0025107Y0106613D01*
X0017080Y0106613D01*
X0014838Y0105684D01*
X0013122Y0103968D01*
X0012194Y0101726D01*
X0012194Y0099299D01*
X0013122Y0097057D01*
X0014667Y0095513D01*
X0013122Y0093968D01*
X0012194Y0091726D01*
X0012194Y0089299D01*
X0013122Y0087057D01*
X0014838Y0085341D01*
X0017080Y0084413D01*
X0025107Y0084413D01*
X0027349Y0085341D01*
X0028208Y0086200D01*
X0033362Y0086200D01*
X0033362Y0085866D01*
X0033471Y0085603D01*
X0033296Y0085182D01*
X0033162Y0084505D01*
X0033162Y0081995D01*
X0033162Y0079485D01*
X0033296Y0078809D01*
X0033560Y0078172D01*
X0033943Y0077599D01*
X0034431Y0077111D01*
X0035004Y0076728D01*
X0035641Y0076464D01*
X0036317Y0076330D01*
X0038630Y0076330D01*
X0038630Y0081995D01*
X0038630Y0081995D01*
X0033162Y0081995D01*
X0038630Y0081995D01*
X0038630Y0081995D01*
X0038630Y0076330D01*
X0040943Y0076330D01*
X0041620Y0076464D01*
X0042257Y0076728D01*
X0042768Y0077070D01*
X0043216Y0075989D01*
X0044145Y0075061D01*
X0044333Y0074983D01*
X0043986Y0074839D01*
X0043412Y0074456D01*
X0042925Y0073968D01*
X0042542Y0073395D01*
X0042278Y0072758D01*
X0042144Y0072082D01*
X0042144Y0069769D01*
X0047809Y0069769D01*
X0047809Y0064300D01*
X0050319Y0064300D01*
X0050995Y0064435D01*
X0051417Y0064609D01*
X0051680Y0064500D01*
X0057324Y0064500D01*
X0058536Y0065003D01*
X0059465Y0065931D01*
X0059967Y0067144D01*
X0059967Y0072394D01*
X0059465Y0073607D01*
X0058800Y0074271D01*
X0058800Y0076816D01*
X0058960Y0077202D01*
X0058960Y0083161D01*
X0077000Y0101202D01*
X0077000Y0064798D01*
X0074424Y0062222D01*
X0073800Y0060716D01*
X0073800Y0040493D01*
X0071251Y0037945D01*
X0071251Y0032726D01*
X0073642Y0030335D01*
X0071251Y0027945D01*
X0071251Y0022726D01*
X0074942Y0019035D01*
X0080161Y0019035D01*
X0081247Y0020121D01*
X0083963Y0017404D01*
X0085004Y0016363D01*
X0086364Y0015800D01*
X0189036Y0015800D01*
X0190396Y0016363D01*
X0192753Y0018720D01*
X0196465Y0018720D01*
X0198856Y0021111D01*
X0201246Y0018720D01*
X0206465Y0018720D01*
X0207556Y0019811D01*
X0209804Y0017563D01*
X0211164Y0017000D01*
X0236236Y0017000D01*
X0237596Y0017563D01*
X0238637Y0018604D01*
X0239999Y0019967D01*
X0241246Y0018720D01*
X0246465Y0018720D01*
X0248856Y0021111D01*
X0251246Y0018720D01*
X0256465Y0018720D01*
X0258856Y0021111D01*
X0261246Y0018720D01*
X0266465Y0018720D01*
X0268856Y0021111D01*
X0271246Y0018720D01*
X0276465Y0018720D01*
X0278856Y0021111D01*
X0281246Y0018720D01*
X0286465Y0018720D01*
X0290156Y0022411D01*
X0290156Y0027630D01*
X0287765Y0030020D01*
X0290156Y0032411D01*
X0290156Y0037630D01*
X0286465Y0041320D01*
X0281246Y0041320D01*
X0278856Y0038930D01*
X0276465Y0041320D01*
X0271246Y0041320D01*
X0270079Y0040153D01*
X0254237Y0055996D01*
X0253196Y0057037D01*
X0251836Y0057600D01*
X0225633Y0057600D01*
X0240637Y0072604D01*
X0241200Y0073964D01*
X0241200Y0146254D01*
X0242661Y0146254D01*
X0244456Y0146997D01*
X0245830Y0148371D01*
X0246016Y0153455D02*
X0356938Y0153455D01*
X0356938Y0148457D02*
X0361938Y0148457D01*
X0361938Y0153455D02*
X0389764Y0153455D01*
X0386560Y0156556D02*
X0386560Y0165290D01*
X0370672Y0181178D01*
X0361938Y0181178D01*
X0361938Y0156556D01*
X0386560Y0156556D01*
X0386560Y0158454D02*
X0389764Y0158454D01*
X0389764Y0163452D02*
X0386560Y0163452D01*
X0383399Y0168451D02*
X0389764Y0168451D01*
X0389764Y0173449D02*
X0378401Y0173449D01*
X0373402Y0178448D02*
X0389764Y0178448D01*
X0389764Y0183446D02*
X0245789Y0183446D01*
X0245789Y0178448D02*
X0345474Y0178448D01*
X0340475Y0173449D02*
X0245789Y0173449D01*
X0245789Y0168451D02*
X0335477Y0168451D01*
X0332316Y0163452D02*
X0245789Y0163452D01*
X0245789Y0158454D02*
X0332316Y0158454D01*
X0356938Y0158454D02*
X0361938Y0158454D01*
X0361938Y0163452D02*
X0356938Y0163452D01*
X0356938Y0168451D02*
X0361938Y0168451D01*
X0361938Y0173449D02*
X0356938Y0173449D01*
X0356938Y0178448D02*
X0361938Y0178448D01*
X0389764Y0188445D02*
X0245789Y0188445D01*
X0245789Y0193443D02*
X0389764Y0193443D01*
X0389764Y0198442D02*
X0369270Y0198442D01*
X0369198Y0198400D02*
X0371843Y0199927D01*
X0374002Y0202087D01*
X0375529Y0204732D01*
X0376320Y0207682D01*
X0376320Y0210736D01*
X0375529Y0213686D01*
X0374002Y0216331D01*
X0371843Y0218490D01*
X0369198Y0220017D01*
X0366248Y0220808D01*
X0363193Y0220808D01*
X0360243Y0220017D01*
X0357598Y0218490D01*
X0355439Y0216331D01*
X0353912Y0213686D01*
X0353121Y0210736D01*
X0353121Y0207682D01*
X0353912Y0204732D01*
X0355439Y0202087D01*
X0357598Y0199927D01*
X0360243Y0198400D01*
X0363193Y0197609D01*
X0366248Y0197609D01*
X0369198Y0198400D01*
X0374784Y0203440D02*
X0389764Y0203440D01*
X0389764Y0208439D02*
X0376320Y0208439D01*
X0375596Y0213437D02*
X0389764Y0213437D01*
X0389764Y0218436D02*
X0371897Y0218436D01*
X0357544Y0218436D02*
X0318543Y0218436D01*
X0319041Y0213437D02*
X0353845Y0213437D01*
X0353121Y0208439D02*
X0318921Y0208439D01*
X0286561Y0208439D02*
X0245789Y0208439D01*
X0245789Y0203440D02*
X0354657Y0203440D01*
X0360171Y0198442D02*
X0245789Y0198442D01*
X0243562Y0218436D02*
X0286939Y0218436D01*
X0238564Y0223434D02*
X0389764Y0223434D01*
X0389764Y0228433D02*
X0233565Y0228433D01*
X0227922Y0233432D02*
X0389764Y0233432D01*
X0389764Y0236220D02*
X0389764Y0007000D01*
X0018941Y0007000D01*
X0019008Y0007250D01*
X0019008Y0009986D01*
X0018300Y0012628D01*
X0016932Y0014998D01*
X0014998Y0016932D01*
X0012628Y0018300D01*
X0009986Y0019008D01*
X0007250Y0019008D01*
X0007000Y0018941D01*
X0007000Y0224280D01*
X0007250Y0224213D01*
X0009986Y0224213D01*
X0012628Y0224921D01*
X0014998Y0226288D01*
X0016932Y0228223D01*
X0018300Y0230592D01*
X0019008Y0233235D01*
X0019008Y0235970D01*
X0018941Y0236220D01*
X0389764Y0236220D01*
X0389764Y0148457D02*
X0386560Y0148457D01*
X0386560Y0143458D02*
X0389764Y0143458D01*
X0389764Y0138460D02*
X0382199Y0138460D01*
X0377200Y0133461D02*
X0389764Y0133461D01*
X0389764Y0128463D02*
X0372202Y0128463D01*
X0361938Y0128463D02*
X0356938Y0128463D01*
X0356938Y0133461D02*
X0361938Y0133461D01*
X0361938Y0138460D02*
X0356938Y0138460D01*
X0356938Y0143458D02*
X0361938Y0143458D01*
X0376045Y0113467D02*
X0389764Y0113467D01*
X0389764Y0108469D02*
X0381044Y0108469D01*
X0386042Y0103470D02*
X0389764Y0103470D01*
X0389764Y0098472D02*
X0386891Y0098472D01*
X0386891Y0093473D02*
X0389764Y0093473D01*
X0389764Y0088475D02*
X0386891Y0088475D01*
X0386891Y0083476D02*
X0389764Y0083476D01*
X0389764Y0078478D02*
X0385050Y0078478D01*
X0389764Y0073479D02*
X0380051Y0073479D01*
X0375053Y0068481D02*
X0389764Y0068481D01*
X0389764Y0063482D02*
X0231515Y0063482D01*
X0236513Y0068481D02*
X0344885Y0068481D01*
X0339886Y0073479D02*
X0240999Y0073479D01*
X0241200Y0078478D02*
X0334888Y0078478D01*
X0333047Y0083476D02*
X0241200Y0083476D01*
X0241200Y0088475D02*
X0333047Y0088475D01*
X0333047Y0093473D02*
X0241200Y0093473D01*
X0241200Y0098472D02*
X0286730Y0098472D01*
X0285800Y0103470D02*
X0241200Y0103470D01*
X0241200Y0108469D02*
X0286670Y0108469D01*
X0293241Y0128463D02*
X0293241Y0128463D01*
X0317924Y0128709D02*
X0317924Y0128709D01*
X0317923Y0133461D02*
X0317923Y0133461D01*
X0222399Y0093473D02*
X0217574Y0093473D01*
X0171287Y0068481D02*
X0121600Y0068481D01*
X0121600Y0073479D02*
X0166288Y0073479D01*
X0161290Y0078478D02*
X0121600Y0078478D01*
X0121600Y0079567D02*
X0134461Y0092428D01*
X0138463Y0092428D01*
X0140853Y0094819D01*
X0143244Y0092428D01*
X0147339Y0092428D01*
X0196402Y0043366D01*
X0195836Y0043600D01*
X0121600Y0043600D01*
X0121600Y0079567D01*
X0125509Y0083476D02*
X0156291Y0083476D01*
X0151293Y0088475D02*
X0130507Y0088475D01*
X0121820Y0093852D02*
X0109963Y0081996D01*
X0109400Y0080636D01*
X0109400Y0041635D01*
X0106800Y0041635D01*
X0106800Y0092428D01*
X0108463Y0092428D01*
X0110853Y0094819D01*
X0113244Y0092428D01*
X0118463Y0092428D01*
X0120853Y0094819D01*
X0121820Y0093852D01*
X0121441Y0093473D02*
X0119508Y0093473D01*
X0116442Y0088475D02*
X0106800Y0088475D01*
X0099400Y0088475D02*
X0096800Y0088475D01*
X0096800Y0092428D02*
X0098463Y0092428D01*
X0099400Y0093365D01*
X0099400Y0041835D01*
X0097551Y0041835D01*
X0096800Y0041835D01*
X0096800Y0092428D01*
X0096800Y0083476D02*
X0099400Y0083476D01*
X0106800Y0083476D02*
X0111444Y0083476D01*
X0109400Y0078478D02*
X0106800Y0078478D01*
X0099400Y0078478D02*
X0096800Y0078478D01*
X0096800Y0073479D02*
X0099400Y0073479D01*
X0106800Y0073479D02*
X0109400Y0073479D01*
X0109400Y0068481D02*
X0106800Y0068481D01*
X0099400Y0068481D02*
X0096800Y0068481D01*
X0096800Y0063482D02*
X0099400Y0063482D01*
X0106800Y0063482D02*
X0109400Y0063482D01*
X0109400Y0058484D02*
X0106800Y0058484D01*
X0106800Y0053485D02*
X0109400Y0053485D01*
X0109400Y0048487D02*
X0106800Y0048487D01*
X0099400Y0048487D02*
X0096800Y0048487D01*
X0096800Y0053485D02*
X0099400Y0053485D01*
X0099400Y0058484D02*
X0096800Y0058484D01*
X0096800Y0043488D02*
X0099400Y0043488D01*
X0097551Y0041835D02*
X0097551Y0035335D01*
X0097551Y0041835D01*
X0097551Y0038490D02*
X0097551Y0038490D01*
X0097551Y0035335D02*
X0097551Y0035335D01*
X0106800Y0043488D02*
X0109400Y0043488D01*
X0121600Y0048487D02*
X0191281Y0048487D01*
X0196106Y0043488D02*
X0196279Y0043488D01*
X0203233Y0047000D02*
X0232767Y0047000D01*
X0239705Y0040062D01*
X0238856Y0039212D01*
X0236548Y0041520D01*
X0233856Y0041520D01*
X0233856Y0035020D01*
X0233856Y0035020D01*
X0240356Y0035020D01*
X0243856Y0035020D01*
X0243856Y0035020D01*
X0233856Y0035020D01*
X0233856Y0035020D01*
X0233856Y0041520D01*
X0231163Y0041520D01*
X0228714Y0039071D01*
X0226465Y0041320D01*
X0221246Y0041320D01*
X0218997Y0039071D01*
X0216548Y0041520D01*
X0213856Y0041520D01*
X0213856Y0035020D01*
X0213856Y0035020D01*
X0213856Y0041520D01*
X0211163Y0041520D01*
X0209938Y0040295D01*
X0203233Y0047000D01*
X0206744Y0043488D02*
X0236279Y0043488D01*
X0233856Y0038490D02*
X0233856Y0038490D01*
X0213856Y0038490D02*
X0213856Y0038490D01*
X0188767Y0031199D02*
X0182367Y0024800D01*
X0143851Y0024800D01*
X0143851Y0027945D01*
X0141461Y0030335D01*
X0143851Y0032726D01*
X0143851Y0036200D01*
X0187556Y0036200D01*
X0187556Y0032411D01*
X0188767Y0031199D01*
X0187556Y0033491D02*
X0143851Y0033491D01*
X0143303Y0028493D02*
X0186060Y0028493D01*
X0192528Y0018496D02*
X0208872Y0018496D01*
X0238528Y0018496D02*
X0389764Y0018496D01*
X0389764Y0013497D02*
X0017798Y0013497D01*
X0019008Y0008499D02*
X0389764Y0008499D01*
X0389764Y0023494D02*
X0369702Y0023494D01*
X0369198Y0023203D02*
X0371843Y0024730D01*
X0374002Y0026890D01*
X0375529Y0029535D01*
X0376320Y0032485D01*
X0376320Y0035539D01*
X0375529Y0038489D01*
X0374002Y0041134D01*
X0371843Y0043293D01*
X0369198Y0044821D01*
X0366248Y0045611D01*
X0363193Y0045611D01*
X0360243Y0044821D01*
X0357598Y0043293D01*
X0355439Y0041134D01*
X0353912Y0038489D01*
X0353121Y0035539D01*
X0353121Y0032485D01*
X0353912Y0029535D01*
X0355439Y0026890D01*
X0357598Y0024730D01*
X0360243Y0023203D01*
X0363193Y0022413D01*
X0366248Y0022413D01*
X0369198Y0023203D01*
X0374928Y0028493D02*
X0389764Y0028493D01*
X0389764Y0033491D02*
X0376320Y0033491D01*
X0375529Y0038490D02*
X0389764Y0038490D01*
X0389764Y0043488D02*
X0371505Y0043488D01*
X0357935Y0043488D02*
X0266744Y0043488D01*
X0261746Y0048487D02*
X0389764Y0048487D01*
X0389764Y0053485D02*
X0256747Y0053485D01*
X0226516Y0058484D02*
X0389764Y0058484D01*
X0353912Y0038490D02*
X0289296Y0038490D01*
X0290156Y0033491D02*
X0353121Y0033491D01*
X0354513Y0028493D02*
X0289293Y0028493D01*
X0290156Y0023494D02*
X0359739Y0023494D01*
X0207885Y0129200D02*
X0184784Y0129200D01*
X0184784Y0129272D01*
X0184041Y0131067D01*
X0184000Y0131107D01*
X0184000Y0140464D01*
X0186453Y0140464D01*
X0187129Y0140599D01*
X0187766Y0140862D01*
X0188339Y0141245D01*
X0188827Y0141733D01*
X0189210Y0142306D01*
X0189474Y0142943D01*
X0189608Y0143619D01*
X0189608Y0145932D01*
X0184000Y0145932D01*
X0184000Y0145933D01*
X0189608Y0145933D01*
X0189608Y0148246D01*
X0189474Y0148922D01*
X0189441Y0149000D01*
X0190636Y0149000D01*
X0191996Y0149563D01*
X0205800Y0163367D01*
X0205800Y0157972D01*
X0202791Y0157972D01*
X0201578Y0157469D01*
X0200649Y0156541D01*
X0200147Y0155328D01*
X0200147Y0146015D01*
X0200649Y0144802D01*
X0201400Y0144052D01*
X0201400Y0142364D01*
X0201963Y0141004D01*
X0210113Y0132855D01*
X0208844Y0131586D01*
X0207885Y0129271D01*
X0207885Y0129200D01*
X0209506Y0133461D02*
X0184000Y0133461D01*
X0184000Y0138460D02*
X0204508Y0138460D01*
X0201400Y0143458D02*
X0189576Y0143458D01*
X0189566Y0148457D02*
X0200147Y0148457D01*
X0200147Y0153455D02*
X0195888Y0153455D01*
X0200886Y0158454D02*
X0205800Y0158454D01*
X0195420Y0163452D02*
X0191251Y0163452D01*
X0190421Y0158454D02*
X0186252Y0158454D01*
X0186765Y0157894D02*
X0185692Y0157894D01*
X0199947Y0172149D01*
X0199947Y0170527D01*
X0200082Y0169851D01*
X0200345Y0169214D01*
X0200680Y0168713D01*
X0188668Y0156701D01*
X0187977Y0157392D01*
X0186765Y0157894D01*
X0175800Y0157602D02*
X0175800Y0131107D01*
X0175759Y0131067D01*
X0175751Y0131047D01*
X0162498Y0144300D01*
X0175800Y0157602D01*
X0175800Y0153455D02*
X0171654Y0153455D01*
X0175800Y0148457D02*
X0166655Y0148457D01*
X0163340Y0143458D02*
X0175800Y0143458D01*
X0175800Y0138460D02*
X0168338Y0138460D01*
X0173337Y0133461D02*
X0175800Y0133461D01*
X0163783Y0123984D02*
X0163328Y0123984D01*
X0161533Y0123241D01*
X0160159Y0121867D01*
X0159416Y0120072D01*
X0159416Y0118128D01*
X0159498Y0117930D01*
X0156596Y0115028D01*
X0153244Y0115028D01*
X0150853Y0112638D01*
X0148463Y0115028D01*
X0143244Y0115028D01*
X0140995Y0112779D01*
X0138546Y0115228D01*
X0135853Y0115228D01*
X0133161Y0115228D01*
X0130853Y0112921D01*
X0128546Y0115228D01*
X0125853Y0115228D01*
X0123161Y0115228D01*
X0120712Y0112779D01*
X0119762Y0113729D01*
X0146900Y0140867D01*
X0163783Y0123984D01*
X0162073Y0123464D02*
X0129497Y0123464D01*
X0124498Y0118466D02*
X0159416Y0118466D01*
X0151683Y0113467D02*
X0150024Y0113467D01*
X0141683Y0113467D02*
X0140307Y0113467D01*
X0135853Y0113467D02*
X0135853Y0113467D01*
X0135853Y0115228D02*
X0135853Y0108728D01*
X0129353Y0108728D01*
X0125853Y0108728D01*
X0125853Y0115228D01*
X0125853Y0108728D01*
X0125853Y0108728D01*
X0125853Y0108728D01*
X0135853Y0108728D01*
X0135853Y0108728D01*
X0135853Y0108728D01*
X0135853Y0115228D01*
X0131400Y0113467D02*
X0130307Y0113467D01*
X0125853Y0113467D02*
X0125853Y0113467D01*
X0121400Y0113467D02*
X0120024Y0113467D01*
X0114033Y0118466D02*
X0094264Y0118466D01*
X0093244Y0115028D02*
X0090853Y0112638D01*
X0089645Y0113846D01*
X0106222Y0130424D01*
X0107376Y0131578D01*
X0108000Y0133084D01*
X0108000Y0163093D01*
X0108041Y0163133D01*
X0108784Y0164928D01*
X0108784Y0166872D01*
X0108041Y0168667D01*
X0106667Y0170041D01*
X0105499Y0170524D01*
X0105499Y0171400D01*
X0145013Y0171400D01*
X0145013Y0169887D01*
X0150200Y0169887D01*
X0150200Y0169887D01*
X0145013Y0169887D01*
X0145013Y0167377D01*
X0145148Y0166701D01*
X0145412Y0166064D01*
X0145795Y0165490D01*
X0146282Y0165003D01*
X0146855Y0164620D01*
X0147492Y0164356D01*
X0148169Y0164221D01*
X0150200Y0164221D01*
X0150200Y0159833D01*
X0145804Y0155437D01*
X0144763Y0154396D01*
X0144200Y0153036D01*
X0144200Y0148166D01*
X0143404Y0147837D01*
X0109671Y0114103D01*
X0108546Y0115228D01*
X0105853Y0115228D01*
X0103161Y0115228D01*
X0100712Y0112779D01*
X0098463Y0115028D01*
X0093244Y0115028D01*
X0091683Y0113467D02*
X0090024Y0113467D01*
X0082668Y0118466D02*
X0080664Y0118466D01*
X0076576Y0114378D02*
X0099800Y0137602D01*
X0099800Y0135598D01*
X0058584Y0094382D01*
X0058457Y0094689D01*
X0057672Y0095474D01*
X0075422Y0113224D01*
X0076576Y0114378D01*
X0076576Y0114378D01*
X0075666Y0113467D02*
X0077669Y0113467D01*
X0075422Y0113224D02*
X0075422Y0113224D01*
X0072670Y0108469D02*
X0070667Y0108469D01*
X0067672Y0103470D02*
X0065668Y0103470D01*
X0062673Y0098472D02*
X0060670Y0098472D01*
X0054072Y0103470D02*
X0029271Y0103470D01*
X0029651Y0098472D02*
X0049073Y0098472D01*
X0042714Y0093473D02*
X0042646Y0093473D01*
X0033162Y0083476D02*
X0007000Y0083476D01*
X0007000Y0078478D02*
X0033433Y0078478D01*
X0038630Y0078478D02*
X0038630Y0078478D01*
X0042598Y0073479D02*
X0007000Y0073479D01*
X0007000Y0068481D02*
X0042144Y0068481D01*
X0042144Y0067456D02*
X0042278Y0066779D01*
X0042542Y0066142D01*
X0042925Y0065569D01*
X0043412Y0065082D01*
X0043986Y0064699D01*
X0044623Y0064435D01*
X0045299Y0064300D01*
X0047809Y0064300D01*
X0047809Y0069769D01*
X0047809Y0069769D01*
X0047809Y0069769D01*
X0042144Y0069769D01*
X0042144Y0067456D01*
X0047809Y0068481D02*
X0047809Y0068481D01*
X0059967Y0068481D02*
X0077000Y0068481D01*
X0077000Y0073479D02*
X0059518Y0073479D01*
X0058960Y0078478D02*
X0077000Y0078478D01*
X0077000Y0083476D02*
X0059274Y0083476D01*
X0064273Y0088475D02*
X0077000Y0088475D01*
X0077000Y0093473D02*
X0069271Y0093473D01*
X0074270Y0098472D02*
X0077000Y0098472D01*
X0059070Y0108469D02*
X0007000Y0108469D01*
X0007000Y0113467D02*
X0064069Y0113467D01*
X0065536Y0118466D02*
X0007000Y0118466D01*
X0007000Y0123464D02*
X0060537Y0123464D01*
X0057000Y0128463D02*
X0007000Y0128463D01*
X0007000Y0133461D02*
X0057000Y0133461D01*
X0057000Y0138460D02*
X0007000Y0138460D01*
X0007000Y0143458D02*
X0057000Y0143458D01*
X0057000Y0148457D02*
X0007000Y0148457D01*
X0007000Y0153455D02*
X0015021Y0153455D01*
X0014332Y0158454D02*
X0007000Y0158454D01*
X0007000Y0163452D02*
X0014132Y0163452D01*
X0014132Y0164369D02*
X0019600Y0164369D01*
X0019600Y0164369D01*
X0019600Y0170035D01*
X0017287Y0170035D01*
X0016611Y0169900D01*
X0015974Y0169636D01*
X0015401Y0169253D01*
X0014913Y0168766D01*
X0014530Y0168192D01*
X0014266Y0167556D01*
X0014132Y0166879D01*
X0014132Y0164369D01*
X0014703Y0168451D02*
X0007000Y0168451D01*
X0007000Y0173449D02*
X0014892Y0173449D01*
X0019612Y0173449D02*
X0019612Y0173449D01*
X0014144Y0178448D02*
X0007000Y0178448D01*
X0007000Y0183446D02*
X0014344Y0183446D01*
X0014813Y0188445D02*
X0007000Y0188445D01*
X0007000Y0193443D02*
X0050611Y0193443D01*
X0045612Y0188445D02*
X0024411Y0188445D01*
X0027338Y0197850D02*
X0030438Y0197019D01*
X0033648Y0197019D01*
X0036748Y0197850D01*
X0039528Y0199454D01*
X0041798Y0201724D01*
X0043402Y0204504D01*
X0044233Y0207604D01*
X0044233Y0210813D01*
X0043402Y0213914D01*
X0041798Y0216693D01*
X0039528Y0218963D01*
X0036748Y0220568D01*
X0033648Y0221398D01*
X0030438Y0221398D01*
X0027338Y0220568D01*
X0024559Y0218963D01*
X0022289Y0216693D01*
X0020684Y0213914D01*
X0019854Y0210813D01*
X0019854Y0207604D01*
X0020684Y0204504D01*
X0022289Y0201724D01*
X0024559Y0199454D01*
X0027338Y0197850D01*
X0026312Y0198442D02*
X0007000Y0198442D01*
X0007000Y0203440D02*
X0021298Y0203440D01*
X0019854Y0208439D02*
X0007000Y0208439D01*
X0007000Y0213437D02*
X0020557Y0213437D01*
X0024032Y0218436D02*
X0007000Y0218436D01*
X0007000Y0223434D02*
X0127805Y0223434D01*
X0127805Y0221562D02*
X0134305Y0221562D01*
X0134305Y0212062D01*
X0134305Y0221562D01*
X0134305Y0221562D01*
X0127805Y0221562D01*
X0134305Y0221562D02*
X0134305Y0221562D01*
X0134305Y0223434D02*
X0134305Y0223434D01*
X0134305Y0218436D02*
X0134305Y0218436D01*
X0134305Y0213437D02*
X0134305Y0213437D01*
X0138303Y0213437D02*
X0140520Y0213437D01*
X0139745Y0208439D02*
X0089216Y0208439D01*
X0088470Y0213437D02*
X0130306Y0213437D01*
X0127805Y0218436D02*
X0040055Y0218436D01*
X0043530Y0213437D02*
X0080930Y0213437D01*
X0077606Y0208439D02*
X0044233Y0208439D01*
X0042789Y0203440D02*
X0072933Y0203440D01*
X0072600Y0198442D02*
X0070991Y0198442D01*
X0055609Y0198442D02*
X0037774Y0198442D01*
X0056077Y0188445D02*
X0061400Y0188445D01*
X0060614Y0183446D02*
X0051079Y0183446D01*
X0048703Y0178448D02*
X0055615Y0178448D01*
X0050617Y0173449D02*
X0024333Y0173449D01*
X0025081Y0178448D02*
X0037814Y0178448D01*
X0045618Y0168451D02*
X0024498Y0168451D01*
X0019601Y0168451D02*
X0019600Y0168451D01*
X0025069Y0163452D02*
X0038004Y0163452D01*
X0048706Y0158454D02*
X0057000Y0158454D01*
X0057000Y0163452D02*
X0051085Y0163452D01*
X0056083Y0168451D02*
X0057000Y0168451D01*
X0071327Y0164505D02*
X0072856Y0164505D01*
X0073450Y0164751D01*
X0074043Y0164505D01*
X0077856Y0164505D01*
X0078450Y0164751D01*
X0079043Y0164505D01*
X0082856Y0164505D01*
X0083449Y0164751D01*
X0084043Y0164505D01*
X0087000Y0164505D01*
X0087000Y0158016D01*
X0086884Y0157968D01*
X0085956Y0157040D01*
X0085453Y0155827D01*
X0085453Y0150400D01*
X0078517Y0150400D01*
X0078348Y0150808D01*
X0077419Y0151736D01*
X0077200Y0151827D01*
X0077200Y0157836D01*
X0076637Y0159196D01*
X0071327Y0164505D01*
X0072380Y0163452D02*
X0087000Y0163452D01*
X0087000Y0158454D02*
X0076944Y0158454D01*
X0077200Y0153455D02*
X0085453Y0153455D01*
X0085656Y0143000D02*
X0078456Y0143000D01*
X0078348Y0142739D01*
X0077419Y0141810D01*
X0076206Y0141308D01*
X0071200Y0141308D01*
X0071200Y0130307D01*
X0071241Y0130267D01*
X0071984Y0128472D01*
X0071984Y0126528D01*
X0071241Y0124733D01*
X0071053Y0124545D01*
X0073100Y0122498D01*
X0091449Y0140847D01*
X0088097Y0140847D01*
X0086884Y0141349D01*
X0085956Y0142278D01*
X0085656Y0143000D01*
X0089062Y0138460D02*
X0071200Y0138460D01*
X0071200Y0133461D02*
X0084063Y0133461D01*
X0079065Y0128463D02*
X0071984Y0128463D01*
X0072134Y0123464D02*
X0074066Y0123464D01*
X0085663Y0123464D02*
X0087666Y0123464D01*
X0090661Y0128463D02*
X0092665Y0128463D01*
X0095660Y0133461D02*
X0097663Y0133461D01*
X0104261Y0128463D02*
X0124030Y0128463D01*
X0129029Y0133461D02*
X0108000Y0133461D01*
X0108000Y0138460D02*
X0134027Y0138460D01*
X0139026Y0143458D02*
X0108000Y0143458D01*
X0108000Y0148457D02*
X0144200Y0148457D01*
X0144374Y0153455D02*
X0108000Y0153455D01*
X0108000Y0158454D02*
X0148821Y0158454D01*
X0150200Y0163452D02*
X0108173Y0163452D01*
X0108130Y0168451D02*
X0145013Y0168451D01*
X0152636Y0178800D02*
X0153996Y0178237D01*
X0154100Y0178133D01*
X0178204Y0202237D01*
X0179019Y0202574D01*
X0178810Y0203079D01*
X0178810Y0208722D01*
X0179313Y0209935D01*
X0180241Y0210863D01*
X0180600Y0211012D01*
X0180600Y0213358D01*
X0179305Y0214653D01*
X0177873Y0213222D01*
X0175558Y0212262D01*
X0173051Y0212262D01*
X0171102Y0213070D01*
X0156400Y0198367D01*
X0156400Y0186764D01*
X0155837Y0185404D01*
X0154796Y0184363D01*
X0153436Y0183800D01*
X0093564Y0183800D01*
X0092204Y0184363D01*
X0090842Y0185726D01*
X0089043Y0185726D01*
X0088450Y0185972D01*
X0087856Y0185726D01*
X0087124Y0185726D01*
X0080198Y0178800D01*
X0152636Y0178800D01*
X0153486Y0178448D02*
X0154415Y0178448D01*
X0159414Y0183446D02*
X0084845Y0183446D01*
X0100950Y0192026D02*
X0100950Y0192026D01*
X0105699Y0192026D01*
X0105699Y0195370D01*
X0105565Y0196047D01*
X0105301Y0196684D01*
X0105090Y0197000D01*
X0138468Y0197000D01*
X0138468Y0195021D01*
X0138603Y0194345D01*
X0138866Y0193708D01*
X0139249Y0193135D01*
X0139737Y0192647D01*
X0140310Y0192264D01*
X0140947Y0192000D01*
X0141623Y0191866D01*
X0144133Y0191866D01*
X0144133Y0197000D01*
X0144134Y0197000D01*
X0144134Y0191866D01*
X0146644Y0191866D01*
X0147320Y0192000D01*
X0147957Y0192264D01*
X0148530Y0192647D01*
X0149000Y0193117D01*
X0149000Y0191200D01*
X0105699Y0191200D01*
X0105699Y0192026D01*
X0100950Y0192026D01*
X0105699Y0193443D02*
X0139043Y0193443D01*
X0144133Y0193443D02*
X0144134Y0193443D01*
X0156400Y0193443D02*
X0169411Y0193443D01*
X0164412Y0188445D02*
X0156400Y0188445D01*
X0169879Y0183446D02*
X0185000Y0183446D01*
X0185000Y0178448D02*
X0164880Y0178448D01*
X0161147Y0174715D02*
X0180549Y0194117D01*
X0181454Y0193742D01*
X0185000Y0193742D01*
X0185000Y0178398D01*
X0160800Y0154198D01*
X0160800Y0164836D01*
X0161013Y0164924D01*
X0161941Y0165852D01*
X0162443Y0167065D01*
X0162443Y0172709D01*
X0161941Y0173921D01*
X0161147Y0174715D01*
X0162136Y0173449D02*
X0180051Y0173449D01*
X0175053Y0168451D02*
X0162443Y0168451D01*
X0160800Y0163452D02*
X0170054Y0163452D01*
X0165056Y0158454D02*
X0160800Y0158454D01*
X0149308Y0138460D02*
X0144492Y0138460D01*
X0139494Y0133461D02*
X0154306Y0133461D01*
X0159305Y0128463D02*
X0134495Y0128463D01*
X0119032Y0123464D02*
X0099263Y0123464D01*
X0105853Y0115228D02*
X0105853Y0108728D01*
X0105853Y0108728D01*
X0105853Y0115228D01*
X0105853Y0113467D02*
X0105853Y0113467D01*
X0101400Y0113467D02*
X0100024Y0113467D01*
X0109508Y0093473D02*
X0112199Y0093473D01*
X0139508Y0093473D02*
X0142199Y0093473D01*
X0121600Y0063482D02*
X0176285Y0063482D01*
X0181284Y0058484D02*
X0121600Y0058484D01*
X0121600Y0053485D02*
X0186282Y0053485D01*
X0082872Y0018496D02*
X0011898Y0018496D01*
X0007000Y0023494D02*
X0025881Y0023494D01*
X0024559Y0024258D02*
X0027338Y0022653D01*
X0030438Y0021822D01*
X0033648Y0021822D01*
X0036748Y0022653D01*
X0039528Y0024258D01*
X0041798Y0026527D01*
X0043402Y0029307D01*
X0044233Y0032407D01*
X0044233Y0035617D01*
X0043402Y0038717D01*
X0041798Y0041496D01*
X0039528Y0043766D01*
X0036748Y0045371D01*
X0033648Y0046202D01*
X0030438Y0046202D01*
X0027338Y0045371D01*
X0024559Y0043766D01*
X0022289Y0041496D01*
X0020684Y0038717D01*
X0019854Y0035617D01*
X0019854Y0032407D01*
X0020684Y0029307D01*
X0022289Y0026527D01*
X0024559Y0024258D01*
X0021154Y0028493D02*
X0007000Y0028493D01*
X0007000Y0033491D02*
X0019854Y0033491D01*
X0020623Y0038490D02*
X0007000Y0038490D01*
X0007000Y0043488D02*
X0024281Y0043488D01*
X0039806Y0043488D02*
X0073800Y0043488D01*
X0073800Y0048487D02*
X0007000Y0048487D01*
X0007000Y0053485D02*
X0073800Y0053485D01*
X0073800Y0058484D02*
X0007000Y0058484D01*
X0007000Y0063482D02*
X0075684Y0063482D01*
X0071796Y0038490D02*
X0043463Y0038490D01*
X0044233Y0033491D02*
X0071251Y0033491D01*
X0071799Y0028493D02*
X0042932Y0028493D01*
X0038206Y0023494D02*
X0071251Y0023494D01*
X0012535Y0088475D02*
X0007000Y0088475D01*
X0007000Y0093473D02*
X0012917Y0093473D01*
X0012537Y0098472D02*
X0007000Y0098472D01*
X0007000Y0103470D02*
X0012916Y0103470D01*
X0024180Y0153455D02*
X0057000Y0153455D01*
X0084800Y0198442D02*
X0096009Y0198442D01*
X0101008Y0203440D02*
X0085984Y0203440D01*
X0129082Y0228433D02*
X0017053Y0228433D01*
X0019008Y0233432D02*
X0161078Y0233432D01*
X0158824Y0231822D02*
X0158824Y0231822D01*
X0178089Y0213437D02*
X0180520Y0213437D01*
X0178810Y0208439D02*
X0166472Y0208439D01*
X0161473Y0203440D02*
X0178810Y0203440D01*
X0174409Y0198442D02*
X0156475Y0198442D01*
X0174877Y0188445D02*
X0185000Y0188445D01*
X0185000Y0193443D02*
X0179876Y0193443D01*
X0193200Y0193443D02*
X0209645Y0193443D01*
X0212200Y0195998D02*
X0193200Y0176998D01*
X0193200Y0225400D01*
X0216002Y0225400D01*
X0214464Y0223863D01*
X0213940Y0224387D01*
X0208721Y0224387D01*
X0205030Y0220697D01*
X0205030Y0215478D01*
X0207280Y0213228D01*
X0204830Y0210779D01*
X0204830Y0208087D01*
X0204830Y0205395D01*
X0208638Y0201587D01*
X0211330Y0201587D01*
X0211330Y0208087D01*
X0204830Y0208087D01*
X0211330Y0208087D01*
X0211330Y0208087D01*
X0211331Y0208087D01*
X0211331Y0201587D01*
X0212200Y0201587D01*
X0212200Y0195998D01*
X0212200Y0198442D02*
X0193200Y0198442D01*
X0193200Y0203440D02*
X0206785Y0203440D01*
X0211330Y0203440D02*
X0211331Y0203440D01*
X0204830Y0208439D02*
X0193200Y0208439D01*
X0193200Y0213437D02*
X0207071Y0213437D01*
X0205030Y0218436D02*
X0193200Y0218436D01*
X0193200Y0223434D02*
X0207768Y0223434D01*
X0204647Y0188445D02*
X0193200Y0188445D01*
X0193200Y0183446D02*
X0199648Y0183446D01*
X0194650Y0178448D02*
X0193200Y0178448D01*
X0196249Y0168451D02*
X0200418Y0168451D01*
X0134305Y0228433D02*
X0134305Y0228433D01*
D25*
X0032043Y0209209D03*
X0032043Y0034012D03*
D26*
X0364720Y0034012D03*
X0364720Y0209209D03*
D27*
X0235900Y0206700D02*
X0235900Y0213500D01*
X0231500Y0217900D01*
X0231330Y0218087D01*
X0225900Y0213500D02*
X0221500Y0217900D01*
X0221330Y0218087D01*
X0225900Y0213500D02*
X0225900Y0206700D01*
X0225100Y0205900D01*
X0225100Y0175100D01*
X0224747Y0174872D01*
X0219900Y0174700D02*
X0219747Y0174872D01*
X0219900Y0174700D02*
X0219900Y0167500D01*
X0215100Y0168300D02*
X0225100Y0158300D01*
X0225100Y0151100D01*
X0224747Y0150672D01*
X0224700Y0150300D01*
X0224700Y0124700D01*
X0224185Y0125018D01*
X0224300Y0124700D01*
X0231900Y0117100D01*
X0231900Y0097500D01*
X0232156Y0097438D01*
X0226250Y0097438D02*
X0225900Y0097500D01*
X0213100Y0097500D01*
X0212843Y0097543D01*
X0215900Y0117500D02*
X0175500Y0117500D01*
X0175500Y0109100D01*
X0175853Y0108728D01*
X0170300Y0104300D02*
X0165900Y0108700D01*
X0165853Y0108728D01*
X0165900Y0109100D01*
X0169900Y0113100D01*
X0169900Y0119100D01*
X0164300Y0119100D02*
X0164300Y0117500D01*
X0155900Y0109100D01*
X0155853Y0108728D01*
X0155900Y0108700D01*
X0160300Y0104300D01*
X0160300Y0098300D01*
X0206300Y0052300D01*
X0242700Y0052300D01*
X0259900Y0035100D01*
X0263500Y0035100D01*
X0263856Y0035020D01*
X0269900Y0035100D02*
X0251100Y0053900D01*
X0214700Y0053900D01*
X0170300Y0098300D01*
X0170300Y0104300D01*
X0155900Y0098700D02*
X0155853Y0098728D01*
X0155900Y0098700D02*
X0203900Y0050700D01*
X0234300Y0050700D01*
X0248300Y0036700D01*
X0248300Y0034300D01*
X0251900Y0030700D01*
X0254300Y0030700D01*
X0259900Y0025100D01*
X0263500Y0025100D01*
X0263856Y0025020D01*
X0253856Y0025020D02*
X0253500Y0025100D01*
X0249900Y0025100D01*
X0244300Y0030700D01*
X0211900Y0030700D01*
X0208300Y0034300D01*
X0208300Y0036700D01*
X0145900Y0099100D01*
X0145853Y0098728D01*
X0145500Y0099100D01*
X0141500Y0103100D01*
X0133900Y0103100D01*
X0131500Y0100700D01*
X0131500Y0098300D01*
X0113100Y0079900D01*
X0113100Y0034700D01*
X0107900Y0029500D01*
X0107900Y0025500D01*
X0107551Y0025335D01*
X0097900Y0025500D02*
X0097551Y0025335D01*
X0097900Y0025500D02*
X0097900Y0029500D01*
X0103100Y0034700D01*
X0103100Y0096300D01*
X0105500Y0098700D01*
X0105853Y0098728D01*
X0105900Y0099100D01*
X0110300Y0103500D01*
X0110300Y0109500D01*
X0145500Y0144700D01*
X0147900Y0144700D01*
X0148100Y0144900D01*
X0147900Y0145100D01*
X0147900Y0152300D01*
X0153900Y0158300D01*
X0153900Y0172700D01*
X0154100Y0172900D01*
X0151900Y0175100D01*
X0063900Y0175100D01*
X0063100Y0174300D01*
X0063100Y0167500D01*
X0073500Y0157100D01*
X0073500Y0147100D01*
X0073581Y0146773D01*
X0073900Y0146700D01*
X0090700Y0146700D01*
X0090722Y0146312D01*
X0090722Y0153005D02*
X0090700Y0153100D01*
X0090700Y0170700D01*
X0090950Y0170805D01*
X0094300Y0187500D02*
X0152700Y0187500D01*
X0152700Y0199900D01*
X0174300Y0221500D01*
X0174305Y0221562D01*
X0164305Y0221562D02*
X0164300Y0221500D01*
X0164300Y0218300D01*
X0146700Y0200700D01*
X0103500Y0200700D01*
X0096300Y0193500D01*
X0096300Y0192300D01*
X0095950Y0192026D01*
X0094300Y0187500D02*
X0091100Y0190700D01*
X0091100Y0191900D01*
X0090950Y0192026D01*
X0081100Y0192300D02*
X0080950Y0192026D01*
X0081100Y0192300D02*
X0081100Y0202700D01*
X0076300Y0201900D02*
X0084700Y0210300D01*
X0076300Y0201900D02*
X0076300Y0192300D01*
X0075950Y0192026D01*
X0070950Y0192026D02*
X0070700Y0192300D01*
X0070700Y0193500D01*
X0067900Y0196300D01*
X0058700Y0196300D01*
X0043500Y0181100D01*
X0043258Y0180720D01*
X0043100Y0181100D01*
X0039900Y0184300D01*
X0019900Y0184300D01*
X0019612Y0184489D01*
X0043100Y0160700D02*
X0043258Y0160720D01*
X0043500Y0161100D01*
X0065900Y0183500D01*
X0065900Y0191900D01*
X0065950Y0192026D01*
X0043100Y0160700D02*
X0040300Y0157900D01*
X0019900Y0157900D01*
X0019600Y0157676D01*
X0091500Y0104700D02*
X0095500Y0108700D01*
X0095853Y0108728D01*
X0091500Y0104700D02*
X0091500Y0098300D01*
X0087900Y0094700D01*
X0087900Y0035500D01*
X0087551Y0035335D01*
X0093100Y0034700D02*
X0093100Y0096300D01*
X0095500Y0098700D01*
X0095853Y0098728D01*
X0085853Y0098728D02*
X0085500Y0098700D01*
X0083100Y0096300D01*
X0083100Y0034700D01*
X0077900Y0029500D01*
X0077900Y0025500D01*
X0077551Y0025335D01*
X0078300Y0025500D01*
X0081100Y0025500D01*
X0087100Y0019500D01*
X0188300Y0019500D01*
X0193500Y0024700D01*
X0193856Y0025020D01*
X0192300Y0029500D02*
X0183900Y0021100D01*
X0095500Y0021100D01*
X0091100Y0025500D01*
X0088300Y0025500D01*
X0087551Y0025335D01*
X0087900Y0025500D01*
X0087900Y0029500D01*
X0093100Y0034700D01*
X0117551Y0035335D02*
X0117900Y0035500D01*
X0117900Y0039900D01*
X0195100Y0039900D01*
X0198300Y0036700D01*
X0198300Y0034300D01*
X0201900Y0030700D01*
X0204300Y0030700D01*
X0208300Y0026700D01*
X0208300Y0024300D01*
X0211900Y0020700D01*
X0235500Y0020700D01*
X0239500Y0024700D01*
X0243500Y0024700D01*
X0243856Y0025020D01*
X0269900Y0035100D02*
X0273500Y0035100D01*
X0273856Y0035020D01*
X0237500Y0074700D02*
X0219500Y0056700D01*
X0237500Y0074700D02*
X0237500Y0155100D01*
X0235100Y0157500D01*
X0235100Y0174700D01*
X0234747Y0174872D01*
X0229900Y0175100D02*
X0229747Y0174872D01*
X0229900Y0175100D02*
X0229900Y0200700D01*
X0235900Y0206700D01*
X0214700Y0175100D02*
X0209900Y0175100D01*
X0209747Y0174872D01*
X0209500Y0174700D01*
X0209500Y0172300D01*
X0189900Y0152700D01*
X0184300Y0152700D01*
X0183943Y0152625D01*
X0204747Y0150672D02*
X0205100Y0150300D01*
X0205100Y0143100D01*
X0218700Y0129500D01*
X0218700Y0120300D01*
X0215900Y0117500D01*
X0219900Y0132300D02*
X0219900Y0150300D01*
X0219747Y0150672D01*
X0215100Y0150700D02*
X0214747Y0150672D01*
X0215100Y0150700D02*
X0215100Y0164300D01*
X0215100Y0168300D02*
X0215100Y0174700D01*
X0214747Y0174872D01*
X0214700Y0175100D01*
X0209500Y0168300D02*
X0209500Y0150700D01*
X0209747Y0150672D01*
X0224747Y0150672D02*
X0225100Y0150700D01*
X0229500Y0150700D01*
X0229747Y0150672D01*
X0175500Y0117500D02*
X0148100Y0144900D01*
X0156781Y0150202D02*
X0157100Y0150300D01*
X0157100Y0169500D01*
X0157175Y0169887D01*
X0154100Y0172900D02*
X0180300Y0199100D01*
X0183900Y0199100D01*
X0184079Y0199207D01*
X0184079Y0205900D02*
X0184300Y0206300D01*
X0184300Y0221500D01*
X0184305Y0221562D01*
X0144305Y0221562D02*
X0144300Y0221500D01*
X0144300Y0204300D01*
X0144133Y0204027D01*
X0293241Y0121429D02*
X0293500Y0121100D01*
X0295900Y0118700D01*
X0295900Y0107100D01*
X0293500Y0104700D01*
X0293500Y0103500D01*
X0293124Y0103446D01*
X0203500Y0025100D02*
X0199100Y0029500D01*
X0192300Y0029500D01*
X0203500Y0025100D02*
X0203856Y0025020D01*
X0117900Y0039900D02*
X0117900Y0081100D01*
X0135500Y0098700D01*
X0135853Y0098728D01*
M02*
