%
M48
M72
T01C0.01969
T02C0.03200
T03C0.03600
T04C0.04000
T05C0.12598
T06C0.13780
T07C0.32677
%
T01
X67100Y127500
X179900Y128300
X35258Y129424
X92484Y203720
X118896Y195220
X116695Y205294
X140953Y191340
X142924Y169649
X157695Y184238
X169524Y199170
X169342Y170945
X169342Y144541
X180989Y183509
X193000Y164572
X196916Y143465
X190726Y128804
X199821Y98218
X233117Y82485
X245065Y82485
X97805Y65911
X69156Y106409
X96649Y134733
X112717Y124267
X142427Y125481
X200862Y207406
X77711Y64600
X185758Y89364
X159916Y57133
X161736Y30911
X130435Y83719
X107141Y90820
X78964Y161850
X80221Y135406
X103900Y165900
X233815Y143264
X241689Y151138
X164300Y119100
X169900Y119100
X219900Y167500
X219900Y132300
X219500Y56700
X84700Y210300
X81100Y202700
X209500Y168300
X215100Y164300
T02
X43258Y180720
X43258Y160720
T03
X21094Y100513
X21094Y90513
T04
X134305Y221562
X144305Y221562
X154305Y221562
X164305Y221562
X174305Y221562
X184305Y221562
X193856Y25020
X193856Y35020
X203856Y25020
X203856Y35020
X213856Y25020
X213856Y35020
X223856Y25020
X223856Y35020
X233856Y25020
X233856Y35020
X243856Y25020
X243856Y35020
X253856Y25020
X253856Y35020
X263856Y25020
X263856Y35020
X273856Y25020
X273856Y35020
X283856Y25020
X283856Y35020
X77551Y25335
X77551Y35335
X87551Y25335
X87551Y35335
X97551Y25335
X97551Y35335
X107551Y25335
X107551Y35335
X117551Y25335
X117551Y35335
X127551Y25335
X127551Y35335
X137551Y25335
X137551Y35335
X231330Y218087
X231330Y208087
X221330Y218087
X221330Y208087
X211330Y218087
X211330Y208087
X312741Y212981
X302741Y212981
X292741Y212981
X317923Y118709
X317923Y128709
X224185Y125018
X214185Y125018
X85853Y98728
X85853Y108728
X95853Y98728
X95853Y108728
X105853Y98728
X105853Y108728
X115853Y98728
X115853Y108728
X125853Y98728
X125853Y108728
X135853Y98728
X135853Y108728
X145853Y98728
X145853Y108728
X155853Y98728
X155853Y108728
X165853Y98728
X165853Y108728
X175853Y98728
X175853Y108728
T05
X364720Y209209
X364720Y34012
T06
X8618Y234602
X8618Y8618
X32043Y209209
X32043Y34012
T07
X359969Y91470
X359438Y154056
M30
