G75*
%MOIN*%
%OFA0B0*%
%FSLAX25Y25*%
%IPPOS*%
%LPD*%
%AMOC8*
5,1,8,0,0,1.08239X$1,22.5*
%
%ADD10C,0.00000*%
D10*
X0003500Y0003500D02*
X0003500Y0239720D01*
X0393264Y0239720D01*
X0393264Y0003500D01*
X0003500Y0003500D01*
X0001728Y0008618D02*
X0001730Y0008787D01*
X0001736Y0008956D01*
X0001747Y0009125D01*
X0001761Y0009293D01*
X0001780Y0009461D01*
X0001803Y0009629D01*
X0001829Y0009796D01*
X0001860Y0009962D01*
X0001895Y0010128D01*
X0001934Y0010292D01*
X0001978Y0010456D01*
X0002025Y0010618D01*
X0002076Y0010779D01*
X0002131Y0010939D01*
X0002190Y0011098D01*
X0002252Y0011255D01*
X0002319Y0011410D01*
X0002390Y0011564D01*
X0002464Y0011716D01*
X0002542Y0011866D01*
X0002623Y0012014D01*
X0002708Y0012160D01*
X0002797Y0012304D01*
X0002889Y0012446D01*
X0002985Y0012585D01*
X0003084Y0012722D01*
X0003186Y0012857D01*
X0003292Y0012989D01*
X0003401Y0013118D01*
X0003513Y0013245D01*
X0003628Y0013369D01*
X0003746Y0013490D01*
X0003867Y0013608D01*
X0003991Y0013723D01*
X0004118Y0013835D01*
X0004247Y0013944D01*
X0004379Y0014050D01*
X0004514Y0014152D01*
X0004651Y0014251D01*
X0004790Y0014347D01*
X0004932Y0014439D01*
X0005076Y0014528D01*
X0005222Y0014613D01*
X0005370Y0014694D01*
X0005520Y0014772D01*
X0005672Y0014846D01*
X0005826Y0014917D01*
X0005981Y0014984D01*
X0006138Y0015046D01*
X0006297Y0015105D01*
X0006457Y0015160D01*
X0006618Y0015211D01*
X0006780Y0015258D01*
X0006944Y0015302D01*
X0007108Y0015341D01*
X0007274Y0015376D01*
X0007440Y0015407D01*
X0007607Y0015433D01*
X0007775Y0015456D01*
X0007943Y0015475D01*
X0008111Y0015489D01*
X0008280Y0015500D01*
X0008449Y0015506D01*
X0008618Y0015508D01*
X0008787Y0015506D01*
X0008956Y0015500D01*
X0009125Y0015489D01*
X0009293Y0015475D01*
X0009461Y0015456D01*
X0009629Y0015433D01*
X0009796Y0015407D01*
X0009962Y0015376D01*
X0010128Y0015341D01*
X0010292Y0015302D01*
X0010456Y0015258D01*
X0010618Y0015211D01*
X0010779Y0015160D01*
X0010939Y0015105D01*
X0011098Y0015046D01*
X0011255Y0014984D01*
X0011410Y0014917D01*
X0011564Y0014846D01*
X0011716Y0014772D01*
X0011866Y0014694D01*
X0012014Y0014613D01*
X0012160Y0014528D01*
X0012304Y0014439D01*
X0012446Y0014347D01*
X0012585Y0014251D01*
X0012722Y0014152D01*
X0012857Y0014050D01*
X0012989Y0013944D01*
X0013118Y0013835D01*
X0013245Y0013723D01*
X0013369Y0013608D01*
X0013490Y0013490D01*
X0013608Y0013369D01*
X0013723Y0013245D01*
X0013835Y0013118D01*
X0013944Y0012989D01*
X0014050Y0012857D01*
X0014152Y0012722D01*
X0014251Y0012585D01*
X0014347Y0012446D01*
X0014439Y0012304D01*
X0014528Y0012160D01*
X0014613Y0012014D01*
X0014694Y0011866D01*
X0014772Y0011716D01*
X0014846Y0011564D01*
X0014917Y0011410D01*
X0014984Y0011255D01*
X0015046Y0011098D01*
X0015105Y0010939D01*
X0015160Y0010779D01*
X0015211Y0010618D01*
X0015258Y0010456D01*
X0015302Y0010292D01*
X0015341Y0010128D01*
X0015376Y0009962D01*
X0015407Y0009796D01*
X0015433Y0009629D01*
X0015456Y0009461D01*
X0015475Y0009293D01*
X0015489Y0009125D01*
X0015500Y0008956D01*
X0015506Y0008787D01*
X0015508Y0008618D01*
X0015506Y0008449D01*
X0015500Y0008280D01*
X0015489Y0008111D01*
X0015475Y0007943D01*
X0015456Y0007775D01*
X0015433Y0007607D01*
X0015407Y0007440D01*
X0015376Y0007274D01*
X0015341Y0007108D01*
X0015302Y0006944D01*
X0015258Y0006780D01*
X0015211Y0006618D01*
X0015160Y0006457D01*
X0015105Y0006297D01*
X0015046Y0006138D01*
X0014984Y0005981D01*
X0014917Y0005826D01*
X0014846Y0005672D01*
X0014772Y0005520D01*
X0014694Y0005370D01*
X0014613Y0005222D01*
X0014528Y0005076D01*
X0014439Y0004932D01*
X0014347Y0004790D01*
X0014251Y0004651D01*
X0014152Y0004514D01*
X0014050Y0004379D01*
X0013944Y0004247D01*
X0013835Y0004118D01*
X0013723Y0003991D01*
X0013608Y0003867D01*
X0013490Y0003746D01*
X0013369Y0003628D01*
X0013245Y0003513D01*
X0013118Y0003401D01*
X0012989Y0003292D01*
X0012857Y0003186D01*
X0012722Y0003084D01*
X0012585Y0002985D01*
X0012446Y0002889D01*
X0012304Y0002797D01*
X0012160Y0002708D01*
X0012014Y0002623D01*
X0011866Y0002542D01*
X0011716Y0002464D01*
X0011564Y0002390D01*
X0011410Y0002319D01*
X0011255Y0002252D01*
X0011098Y0002190D01*
X0010939Y0002131D01*
X0010779Y0002076D01*
X0010618Y0002025D01*
X0010456Y0001978D01*
X0010292Y0001934D01*
X0010128Y0001895D01*
X0009962Y0001860D01*
X0009796Y0001829D01*
X0009629Y0001803D01*
X0009461Y0001780D01*
X0009293Y0001761D01*
X0009125Y0001747D01*
X0008956Y0001736D01*
X0008787Y0001730D01*
X0008618Y0001728D01*
X0008449Y0001730D01*
X0008280Y0001736D01*
X0008111Y0001747D01*
X0007943Y0001761D01*
X0007775Y0001780D01*
X0007607Y0001803D01*
X0007440Y0001829D01*
X0007274Y0001860D01*
X0007108Y0001895D01*
X0006944Y0001934D01*
X0006780Y0001978D01*
X0006618Y0002025D01*
X0006457Y0002076D01*
X0006297Y0002131D01*
X0006138Y0002190D01*
X0005981Y0002252D01*
X0005826Y0002319D01*
X0005672Y0002390D01*
X0005520Y0002464D01*
X0005370Y0002542D01*
X0005222Y0002623D01*
X0005076Y0002708D01*
X0004932Y0002797D01*
X0004790Y0002889D01*
X0004651Y0002985D01*
X0004514Y0003084D01*
X0004379Y0003186D01*
X0004247Y0003292D01*
X0004118Y0003401D01*
X0003991Y0003513D01*
X0003867Y0003628D01*
X0003746Y0003746D01*
X0003628Y0003867D01*
X0003513Y0003991D01*
X0003401Y0004118D01*
X0003292Y0004247D01*
X0003186Y0004379D01*
X0003084Y0004514D01*
X0002985Y0004651D01*
X0002889Y0004790D01*
X0002797Y0004932D01*
X0002708Y0005076D01*
X0002623Y0005222D01*
X0002542Y0005370D01*
X0002464Y0005520D01*
X0002390Y0005672D01*
X0002319Y0005826D01*
X0002252Y0005981D01*
X0002190Y0006138D01*
X0002131Y0006297D01*
X0002076Y0006457D01*
X0002025Y0006618D01*
X0001978Y0006780D01*
X0001934Y0006944D01*
X0001895Y0007108D01*
X0001860Y0007274D01*
X0001829Y0007440D01*
X0001803Y0007607D01*
X0001780Y0007775D01*
X0001761Y0007943D01*
X0001747Y0008111D01*
X0001736Y0008280D01*
X0001730Y0008449D01*
X0001728Y0008618D01*
X0001728Y0234602D02*
X0001730Y0234771D01*
X0001736Y0234940D01*
X0001747Y0235109D01*
X0001761Y0235277D01*
X0001780Y0235445D01*
X0001803Y0235613D01*
X0001829Y0235780D01*
X0001860Y0235946D01*
X0001895Y0236112D01*
X0001934Y0236276D01*
X0001978Y0236440D01*
X0002025Y0236602D01*
X0002076Y0236763D01*
X0002131Y0236923D01*
X0002190Y0237082D01*
X0002252Y0237239D01*
X0002319Y0237394D01*
X0002390Y0237548D01*
X0002464Y0237700D01*
X0002542Y0237850D01*
X0002623Y0237998D01*
X0002708Y0238144D01*
X0002797Y0238288D01*
X0002889Y0238430D01*
X0002985Y0238569D01*
X0003084Y0238706D01*
X0003186Y0238841D01*
X0003292Y0238973D01*
X0003401Y0239102D01*
X0003513Y0239229D01*
X0003628Y0239353D01*
X0003746Y0239474D01*
X0003867Y0239592D01*
X0003991Y0239707D01*
X0004118Y0239819D01*
X0004247Y0239928D01*
X0004379Y0240034D01*
X0004514Y0240136D01*
X0004651Y0240235D01*
X0004790Y0240331D01*
X0004932Y0240423D01*
X0005076Y0240512D01*
X0005222Y0240597D01*
X0005370Y0240678D01*
X0005520Y0240756D01*
X0005672Y0240830D01*
X0005826Y0240901D01*
X0005981Y0240968D01*
X0006138Y0241030D01*
X0006297Y0241089D01*
X0006457Y0241144D01*
X0006618Y0241195D01*
X0006780Y0241242D01*
X0006944Y0241286D01*
X0007108Y0241325D01*
X0007274Y0241360D01*
X0007440Y0241391D01*
X0007607Y0241417D01*
X0007775Y0241440D01*
X0007943Y0241459D01*
X0008111Y0241473D01*
X0008280Y0241484D01*
X0008449Y0241490D01*
X0008618Y0241492D01*
X0008787Y0241490D01*
X0008956Y0241484D01*
X0009125Y0241473D01*
X0009293Y0241459D01*
X0009461Y0241440D01*
X0009629Y0241417D01*
X0009796Y0241391D01*
X0009962Y0241360D01*
X0010128Y0241325D01*
X0010292Y0241286D01*
X0010456Y0241242D01*
X0010618Y0241195D01*
X0010779Y0241144D01*
X0010939Y0241089D01*
X0011098Y0241030D01*
X0011255Y0240968D01*
X0011410Y0240901D01*
X0011564Y0240830D01*
X0011716Y0240756D01*
X0011866Y0240678D01*
X0012014Y0240597D01*
X0012160Y0240512D01*
X0012304Y0240423D01*
X0012446Y0240331D01*
X0012585Y0240235D01*
X0012722Y0240136D01*
X0012857Y0240034D01*
X0012989Y0239928D01*
X0013118Y0239819D01*
X0013245Y0239707D01*
X0013369Y0239592D01*
X0013490Y0239474D01*
X0013608Y0239353D01*
X0013723Y0239229D01*
X0013835Y0239102D01*
X0013944Y0238973D01*
X0014050Y0238841D01*
X0014152Y0238706D01*
X0014251Y0238569D01*
X0014347Y0238430D01*
X0014439Y0238288D01*
X0014528Y0238144D01*
X0014613Y0237998D01*
X0014694Y0237850D01*
X0014772Y0237700D01*
X0014846Y0237548D01*
X0014917Y0237394D01*
X0014984Y0237239D01*
X0015046Y0237082D01*
X0015105Y0236923D01*
X0015160Y0236763D01*
X0015211Y0236602D01*
X0015258Y0236440D01*
X0015302Y0236276D01*
X0015341Y0236112D01*
X0015376Y0235946D01*
X0015407Y0235780D01*
X0015433Y0235613D01*
X0015456Y0235445D01*
X0015475Y0235277D01*
X0015489Y0235109D01*
X0015500Y0234940D01*
X0015506Y0234771D01*
X0015508Y0234602D01*
X0015506Y0234433D01*
X0015500Y0234264D01*
X0015489Y0234095D01*
X0015475Y0233927D01*
X0015456Y0233759D01*
X0015433Y0233591D01*
X0015407Y0233424D01*
X0015376Y0233258D01*
X0015341Y0233092D01*
X0015302Y0232928D01*
X0015258Y0232764D01*
X0015211Y0232602D01*
X0015160Y0232441D01*
X0015105Y0232281D01*
X0015046Y0232122D01*
X0014984Y0231965D01*
X0014917Y0231810D01*
X0014846Y0231656D01*
X0014772Y0231504D01*
X0014694Y0231354D01*
X0014613Y0231206D01*
X0014528Y0231060D01*
X0014439Y0230916D01*
X0014347Y0230774D01*
X0014251Y0230635D01*
X0014152Y0230498D01*
X0014050Y0230363D01*
X0013944Y0230231D01*
X0013835Y0230102D01*
X0013723Y0229975D01*
X0013608Y0229851D01*
X0013490Y0229730D01*
X0013369Y0229612D01*
X0013245Y0229497D01*
X0013118Y0229385D01*
X0012989Y0229276D01*
X0012857Y0229170D01*
X0012722Y0229068D01*
X0012585Y0228969D01*
X0012446Y0228873D01*
X0012304Y0228781D01*
X0012160Y0228692D01*
X0012014Y0228607D01*
X0011866Y0228526D01*
X0011716Y0228448D01*
X0011564Y0228374D01*
X0011410Y0228303D01*
X0011255Y0228236D01*
X0011098Y0228174D01*
X0010939Y0228115D01*
X0010779Y0228060D01*
X0010618Y0228009D01*
X0010456Y0227962D01*
X0010292Y0227918D01*
X0010128Y0227879D01*
X0009962Y0227844D01*
X0009796Y0227813D01*
X0009629Y0227787D01*
X0009461Y0227764D01*
X0009293Y0227745D01*
X0009125Y0227731D01*
X0008956Y0227720D01*
X0008787Y0227714D01*
X0008618Y0227712D01*
X0008449Y0227714D01*
X0008280Y0227720D01*
X0008111Y0227731D01*
X0007943Y0227745D01*
X0007775Y0227764D01*
X0007607Y0227787D01*
X0007440Y0227813D01*
X0007274Y0227844D01*
X0007108Y0227879D01*
X0006944Y0227918D01*
X0006780Y0227962D01*
X0006618Y0228009D01*
X0006457Y0228060D01*
X0006297Y0228115D01*
X0006138Y0228174D01*
X0005981Y0228236D01*
X0005826Y0228303D01*
X0005672Y0228374D01*
X0005520Y0228448D01*
X0005370Y0228526D01*
X0005222Y0228607D01*
X0005076Y0228692D01*
X0004932Y0228781D01*
X0004790Y0228873D01*
X0004651Y0228969D01*
X0004514Y0229068D01*
X0004379Y0229170D01*
X0004247Y0229276D01*
X0004118Y0229385D01*
X0003991Y0229497D01*
X0003867Y0229612D01*
X0003746Y0229730D01*
X0003628Y0229851D01*
X0003513Y0229975D01*
X0003401Y0230102D01*
X0003292Y0230231D01*
X0003186Y0230363D01*
X0003084Y0230498D01*
X0002985Y0230635D01*
X0002889Y0230774D01*
X0002797Y0230916D01*
X0002708Y0231060D01*
X0002623Y0231206D01*
X0002542Y0231354D01*
X0002464Y0231504D01*
X0002390Y0231656D01*
X0002319Y0231810D01*
X0002252Y0231965D01*
X0002190Y0232122D01*
X0002131Y0232281D01*
X0002076Y0232441D01*
X0002025Y0232602D01*
X0001978Y0232764D01*
X0001934Y0232928D01*
X0001895Y0233092D01*
X0001860Y0233258D01*
X0001829Y0233424D01*
X0001803Y0233591D01*
X0001780Y0233759D01*
X0001761Y0233927D01*
X0001747Y0234095D01*
X0001736Y0234264D01*
X0001730Y0234433D01*
X0001728Y0234602D01*
M02*
