G75*
%MOIN*%
%OFA0B0*%
%FSLAX24Y24*%
%IPPOS*%
%LPD*%
%AMOC8*
5,1,8,0,0,1.08239X$1,22.5*
%
%ADD10C,0.0000*%
%ADD11R,0.0630X0.0551*%
%ADD12R,0.0394X0.0433*%
%ADD13R,0.0433X0.0394*%
%ADD14R,0.0472X0.0217*%
%ADD15C,0.0520*%
%ADD16R,0.0512X0.0748*%
%ADD17R,0.0673X0.0157*%
%ADD18R,0.0575X0.0787*%
%ADD19R,0.0984X0.0541*%
%ADD20C,0.0160*%
%ADD21C,0.0560*%
%ADD22OC8,0.0660*%
%ADD23OC8,0.0850*%
%ADD24OC8,0.0700*%
%ADD25C,0.0885*%
%ADD26C,0.0660*%
%ADD27R,0.1102X0.1102*%
%ADD28C,0.0600*%
%ADD29C,0.0650*%
%ADD30OC8,0.0520*%
%ADD31R,0.0787X0.0512*%
%ADD32C,0.0317*%
%ADD33C,0.0500*%
%ADD34C,0.0238*%
%ADD35C,0.0080*%
%ADD36C,0.1660*%
%ADD37C,0.0860*%
D10*
X000350Y000350D02*
X000350Y020035D01*
X020035Y020035D01*
X020035Y000350D01*
X000350Y000350D01*
X001267Y008344D02*
X001269Y008373D01*
X001275Y008401D01*
X001284Y008429D01*
X001297Y008455D01*
X001314Y008478D01*
X001333Y008500D01*
X001355Y008519D01*
X001380Y008534D01*
X001406Y008547D01*
X001434Y008555D01*
X001462Y008560D01*
X001491Y008561D01*
X001520Y008558D01*
X001548Y008551D01*
X001575Y008541D01*
X001601Y008527D01*
X001624Y008510D01*
X001645Y008490D01*
X001663Y008467D01*
X001678Y008442D01*
X001689Y008415D01*
X001697Y008387D01*
X001701Y008358D01*
X001701Y008330D01*
X001697Y008301D01*
X001689Y008273D01*
X001678Y008246D01*
X001663Y008221D01*
X001645Y008198D01*
X001624Y008178D01*
X001601Y008161D01*
X001575Y008147D01*
X001548Y008137D01*
X001520Y008130D01*
X001491Y008127D01*
X001462Y008128D01*
X001434Y008133D01*
X001406Y008141D01*
X001380Y008154D01*
X001355Y008169D01*
X001333Y008188D01*
X001314Y008210D01*
X001297Y008233D01*
X001284Y008259D01*
X001275Y008287D01*
X001269Y008315D01*
X001267Y008344D01*
X001267Y009344D02*
X001269Y009373D01*
X001275Y009401D01*
X001284Y009429D01*
X001297Y009455D01*
X001314Y009478D01*
X001333Y009500D01*
X001355Y009519D01*
X001380Y009534D01*
X001406Y009547D01*
X001434Y009555D01*
X001462Y009560D01*
X001491Y009561D01*
X001520Y009558D01*
X001548Y009551D01*
X001575Y009541D01*
X001601Y009527D01*
X001624Y009510D01*
X001645Y009490D01*
X001663Y009467D01*
X001678Y009442D01*
X001689Y009415D01*
X001697Y009387D01*
X001701Y009358D01*
X001701Y009330D01*
X001697Y009301D01*
X001689Y009273D01*
X001678Y009246D01*
X001663Y009221D01*
X001645Y009198D01*
X001624Y009178D01*
X001601Y009161D01*
X001575Y009147D01*
X001548Y009137D01*
X001520Y009130D01*
X001491Y009127D01*
X001462Y009128D01*
X001434Y009133D01*
X001406Y009141D01*
X001380Y009154D01*
X001355Y009169D01*
X001333Y009188D01*
X001314Y009210D01*
X001297Y009233D01*
X001284Y009259D01*
X001275Y009287D01*
X001269Y009315D01*
X001267Y009344D01*
X001259Y010670D02*
X001261Y010699D01*
X001267Y010727D01*
X001276Y010755D01*
X001289Y010781D01*
X001306Y010804D01*
X001325Y010826D01*
X001347Y010845D01*
X001372Y010860D01*
X001398Y010873D01*
X001426Y010881D01*
X001454Y010886D01*
X001483Y010887D01*
X001512Y010884D01*
X001540Y010877D01*
X001567Y010867D01*
X001593Y010853D01*
X001616Y010836D01*
X001637Y010816D01*
X001655Y010793D01*
X001670Y010768D01*
X001681Y010741D01*
X001689Y010713D01*
X001693Y010684D01*
X001693Y010656D01*
X001689Y010627D01*
X001681Y010599D01*
X001670Y010572D01*
X001655Y010547D01*
X001637Y010524D01*
X001616Y010504D01*
X001593Y010487D01*
X001567Y010473D01*
X001540Y010463D01*
X001512Y010456D01*
X001483Y010453D01*
X001454Y010454D01*
X001426Y010459D01*
X001398Y010467D01*
X001372Y010480D01*
X001347Y010495D01*
X001325Y010514D01*
X001306Y010536D01*
X001289Y010559D01*
X001276Y010585D01*
X001267Y010613D01*
X001261Y010641D01*
X001259Y010670D01*
X001259Y011670D02*
X001261Y011699D01*
X001267Y011727D01*
X001276Y011755D01*
X001289Y011781D01*
X001306Y011804D01*
X001325Y011826D01*
X001347Y011845D01*
X001372Y011860D01*
X001398Y011873D01*
X001426Y011881D01*
X001454Y011886D01*
X001483Y011887D01*
X001512Y011884D01*
X001540Y011877D01*
X001567Y011867D01*
X001593Y011853D01*
X001616Y011836D01*
X001637Y011816D01*
X001655Y011793D01*
X001670Y011768D01*
X001681Y011741D01*
X001689Y011713D01*
X001693Y011684D01*
X001693Y011656D01*
X001689Y011627D01*
X001681Y011599D01*
X001670Y011572D01*
X001655Y011547D01*
X001637Y011524D01*
X001616Y011504D01*
X001593Y011487D01*
X001567Y011473D01*
X001540Y011463D01*
X001512Y011456D01*
X001483Y011453D01*
X001454Y011454D01*
X001426Y011459D01*
X001398Y011467D01*
X001372Y011480D01*
X001347Y011495D01*
X001325Y011514D01*
X001306Y011536D01*
X001289Y011559D01*
X001276Y011585D01*
X001267Y011613D01*
X001261Y011641D01*
X001259Y011670D01*
D11*
X010635Y011106D03*
X010635Y010003D03*
D12*
X012755Y010712D03*
X012755Y011381D03*
X013618Y011377D03*
X013618Y010708D03*
X008032Y012093D03*
X008032Y012762D03*
X005179Y012786D03*
X005179Y012117D03*
X003814Y018089D03*
X003814Y018758D03*
X006789Y018758D03*
X006789Y018089D03*
D13*
X007787Y018089D03*
X008807Y018089D03*
X008807Y018758D03*
X007787Y018758D03*
X005812Y018758D03*
X004812Y018758D03*
X004812Y018089D03*
X005812Y018089D03*
X015613Y010319D03*
X015613Y009650D03*
X013327Y006585D03*
X013327Y005916D03*
X011372Y003824D03*
X010703Y003824D03*
X009905Y002795D03*
X009236Y002795D03*
X008277Y002805D03*
X007608Y002805D03*
X003312Y006508D03*
X002169Y006501D03*
X001156Y006643D03*
X001156Y007312D03*
X002169Y007170D03*
X003312Y007177D03*
D14*
X006095Y012096D03*
X006095Y012470D03*
X006095Y012844D03*
X007119Y012844D03*
X007119Y012096D03*
D15*
X007317Y005065D02*
X007317Y004545D01*
X006317Y004545D02*
X006317Y005065D01*
X005317Y005065D02*
X005317Y004545D01*
X004317Y004545D02*
X004317Y005065D01*
X003317Y005065D02*
X003317Y004545D01*
X003317Y002065D02*
X003317Y001545D01*
X004317Y001545D02*
X004317Y002065D01*
X005317Y002065D02*
X005317Y001545D01*
X006317Y001545D02*
X006317Y002065D01*
X007317Y002065D02*
X007317Y001545D01*
X008317Y001545D02*
X008317Y002065D01*
X009317Y002065D02*
X009317Y001545D01*
X010317Y001545D02*
X010317Y002065D01*
X011317Y002065D02*
X011317Y001545D01*
X012317Y001545D02*
X012317Y002065D01*
X013317Y002065D02*
X013317Y001545D01*
X014317Y001545D02*
X014317Y002065D01*
X015317Y002065D02*
X015317Y001545D01*
X016317Y001545D02*
X016317Y002065D01*
X016317Y004545D02*
X016317Y005065D01*
X015317Y005065D02*
X015317Y004545D01*
X014317Y004545D02*
X014317Y005065D01*
X013317Y005065D02*
X013317Y004545D01*
X012317Y004545D02*
X012317Y005065D01*
X011317Y005065D02*
X011317Y004545D01*
X010317Y004545D02*
X010317Y005065D01*
X009317Y005065D02*
X009317Y004545D01*
X008317Y004545D02*
X008317Y005065D01*
D16*
X009049Y006125D03*
X011214Y006125D03*
X011214Y007385D03*
X009049Y007385D03*
D17*
X002598Y014382D03*
X002598Y014638D03*
X002598Y014894D03*
X002598Y015150D03*
X002598Y015406D03*
D18*
X002649Y016036D03*
X002649Y013752D03*
D19*
X001011Y014525D03*
X001011Y015263D03*
D20*
X001069Y015779D02*
X002179Y015779D01*
X002179Y016596D01*
X001167Y016596D01*
X001169Y016595D01*
X000539Y016595D01*
X000537Y016200D01*
X001069Y016200D01*
X002179Y016200D01*
X002179Y016042D02*
X001069Y016042D01*
X001069Y016200D02*
X001069Y015779D01*
X001069Y015883D02*
X002179Y015883D01*
X001850Y016036D02*
X001850Y014378D01*
X002598Y014378D01*
X002598Y014382D01*
X002602Y014381D01*
X002602Y013807D01*
X002649Y013759D01*
X002649Y013752D01*
X002179Y013823D02*
X001069Y013823D01*
X001069Y013981D02*
X002179Y013981D01*
X002179Y014002D02*
X001069Y014002D01*
X001069Y013581D01*
X000537Y013581D01*
X000535Y013184D01*
X001165Y013184D01*
X001167Y013185D01*
X002179Y013185D01*
X002179Y014002D01*
X002179Y013664D02*
X001069Y013664D01*
X000537Y013506D02*
X002179Y013506D01*
X002179Y013347D02*
X000536Y013347D01*
X000535Y013189D02*
X002179Y013189D01*
X004019Y013988D02*
X004021Y014070D01*
X004019Y014074D01*
X004019Y014374D01*
X002988Y015405D01*
X002602Y015405D01*
X002598Y015406D01*
X002649Y016036D02*
X001850Y016036D01*
X002179Y016359D02*
X000538Y016359D01*
X000538Y016517D02*
X002179Y016517D01*
X004429Y016964D02*
X005799Y015594D01*
X005804Y015589D01*
X005767Y015515D01*
X005027Y014775D01*
X005027Y014074D01*
X005021Y014070D01*
X004409Y013598D02*
X002484Y011673D01*
X002476Y011670D01*
X004409Y013598D02*
X005145Y012862D01*
X005179Y012786D01*
X005185Y012791D01*
X005696Y012791D01*
X005696Y012295D01*
X005893Y012098D01*
X006090Y012098D01*
X006095Y012096D01*
X006641Y012130D02*
X007043Y012130D01*
X007119Y012096D01*
X007122Y012098D01*
X008027Y012098D01*
X008032Y012093D01*
X007744Y012476D02*
X008027Y012759D01*
X008032Y012762D01*
X007744Y012476D02*
X006492Y012476D01*
X006492Y013019D01*
X006397Y013114D01*
X005673Y013114D01*
X006090Y012838D02*
X006095Y012844D01*
X006090Y012838D02*
X006043Y012791D01*
X005696Y012791D01*
X006098Y012476D02*
X006095Y012470D01*
X006098Y012476D02*
X006492Y012476D01*
X007933Y013507D02*
X010153Y011287D01*
X010153Y010515D01*
X010594Y010074D01*
X010635Y010003D01*
X010641Y010004D01*
X011358Y010004D01*
X011389Y009925D01*
X012626Y008689D01*
X012626Y006578D01*
X013326Y006578D01*
X013327Y006585D01*
X012626Y006578D02*
X012531Y006578D01*
X011444Y005492D01*
X011137Y005492D01*
X010437Y004791D01*
X010317Y004805D01*
X010319Y004799D01*
X010696Y004421D01*
X010696Y003830D01*
X010703Y003824D01*
X010618Y003799D01*
X009594Y003799D01*
X009126Y003330D01*
X008907Y003252D01*
X008657Y002531D01*
X008177Y002051D01*
X008317Y001805D01*
X008311Y001807D01*
X007610Y002507D01*
X007610Y002799D01*
X007608Y002805D01*
X007555Y002870D01*
X007555Y003492D01*
X006925Y004122D01*
X006893Y004200D01*
X006893Y005090D01*
X006492Y005492D01*
X005996Y005492D01*
X004342Y007145D01*
X003385Y007145D01*
X003312Y007177D01*
X003256Y007334D01*
X003256Y007578D01*
X002492Y008342D01*
X002484Y008344D01*
X001161Y007752D02*
X001161Y007319D01*
X001156Y007312D01*
X002169Y006501D02*
X002240Y006555D01*
X002594Y006555D01*
X003224Y007185D01*
X003312Y007177D01*
X003275Y007256D01*
X003307Y007177D02*
X003312Y007177D01*
X002350Y006501D02*
X002169Y006501D01*
X002173Y006507D01*
X002350Y006501D02*
X002350Y005850D01*
X002600Y005100D02*
X002112Y004612D01*
X002122Y004602D01*
X002112Y004612D02*
X002100Y004600D01*
X008263Y003752D02*
X008263Y003114D01*
X008271Y003106D01*
X008271Y002807D01*
X008277Y002805D01*
X009236Y002795D02*
X009240Y002791D01*
X009240Y001878D01*
X009311Y001807D01*
X009317Y001805D01*
X010311Y001807D02*
X010311Y002389D01*
X009909Y002791D01*
X009905Y002795D01*
X010850Y002795D01*
X010850Y002850D01*
X010817Y002850D01*
X010317Y001805D02*
X010311Y001807D01*
X008263Y003752D02*
X009311Y004799D01*
X009317Y004805D01*
X012189Y011334D02*
X012755Y011381D01*
X012759Y011381D01*
X013618Y011381D01*
X013618Y011377D01*
X013696Y011413D01*
X015696Y011413D01*
X016783Y012500D01*
X018153Y012500D01*
X018157Y012502D01*
X016250Y015206D02*
X016248Y015208D01*
X015610Y015208D01*
X015531Y015193D01*
X015106Y015193D01*
X014917Y015381D01*
X014917Y016326D01*
X015996Y017405D01*
X015996Y017822D01*
X015925Y017822D01*
X015909Y017807D01*
X015909Y017326D01*
X015854Y017271D01*
X015846Y017271D01*
X015846Y017665D01*
X015901Y017720D01*
X015901Y017775D01*
X015893Y017775D01*
X015893Y017720D01*
X015854Y017681D01*
X015901Y017633D01*
X015901Y017326D01*
X015862Y017287D01*
X015854Y017287D01*
X015854Y017665D01*
X015846Y017673D01*
X015846Y017681D01*
X015885Y017720D01*
X015885Y017791D01*
X015909Y017815D01*
X015988Y017736D01*
X015988Y017405D01*
X015917Y017334D01*
X016051Y017200D01*
X016067Y017200D01*
X016250Y017367D01*
X016004Y017311D01*
X016059Y017413D02*
X016250Y017568D01*
X016256Y017570D01*
X016250Y017569D01*
X016059Y017413D01*
X016250Y017568D02*
X016067Y017736D01*
X016250Y017569D01*
X010208Y013130D02*
X010169Y013169D01*
X009950Y013046D01*
X009950Y012844D02*
X010193Y012783D01*
X009950Y012844D01*
X010193Y012791D01*
X009950Y012844D01*
X010208Y012854D02*
X010350Y012712D01*
X010208Y012854D02*
X010208Y013130D01*
X007933Y013507D02*
X007933Y013980D01*
X007916Y014063D01*
X007917Y014067D01*
X008271Y014421D01*
X008271Y016074D01*
X007791Y016555D01*
X007791Y018082D01*
X007787Y018089D01*
X004429Y018114D02*
X004429Y016964D01*
X004429Y018114D02*
X003815Y018728D01*
X003815Y018752D01*
X003814Y018758D01*
X004019Y013988D02*
X004409Y013598D01*
D21*
X004021Y013790D02*
X004021Y014350D01*
X005021Y014350D02*
X005021Y013790D01*
X006916Y013783D02*
X006916Y014343D01*
X007916Y014343D02*
X007916Y013783D01*
D22*
X018157Y012502D03*
X019157Y012502D03*
D23*
X014380Y006269D03*
X007280Y009422D03*
X005350Y010143D03*
X001486Y002777D03*
X017371Y001258D03*
X016850Y019350D03*
D24*
X018753Y016988D03*
X018753Y015208D03*
X018753Y005177D03*
X018753Y003397D03*
D25*
X017773Y002907D03*
X017773Y005667D03*
X017773Y014718D03*
X017773Y017478D03*
D26*
X018568Y009996D03*
X018568Y009011D03*
X018568Y008027D03*
D27*
X017268Y007397D03*
X017268Y010626D03*
D28*
X008804Y015289D02*
X008804Y015889D01*
X007804Y015889D02*
X007804Y015289D01*
X006804Y015289D02*
X006804Y015889D01*
X005804Y015889D02*
X005804Y015289D01*
X004804Y015289D02*
X004804Y015889D01*
X003804Y015889D02*
X003804Y015289D01*
D29*
X002801Y011670D02*
X002151Y011670D01*
X002151Y010670D02*
X002801Y010670D01*
X002809Y009344D02*
X002160Y009344D01*
X002160Y008344D02*
X002809Y008344D01*
D30*
X005153Y006930D03*
X005853Y006230D03*
X007351Y006170D03*
X007351Y007170D03*
D31*
X009950Y012844D03*
X009950Y013631D03*
X009950Y014419D03*
X009950Y015206D03*
X009950Y015994D03*
X009950Y016781D03*
X009950Y017569D03*
X009950Y018356D03*
X016250Y018356D03*
X016250Y017569D03*
X016250Y016781D03*
X016250Y015994D03*
X016250Y015206D03*
X016250Y014419D03*
X016250Y013631D03*
X016250Y012844D03*
D32*
X015236Y014106D03*
X015610Y015208D03*
X015236Y015515D03*
X010586Y013035D03*
X008744Y013248D03*
X006641Y012130D03*
X005956Y011744D03*
X005673Y013114D03*
X009311Y014602D03*
X009311Y015004D03*
X006570Y016421D03*
X007468Y016925D03*
X008248Y018200D03*
X008256Y018610D03*
X004815Y017035D03*
X012189Y011334D03*
X011358Y010004D03*
X009311Y008452D03*
X009027Y008169D03*
X010586Y008279D03*
X012303Y007570D03*
X012303Y007098D03*
X010586Y006334D03*
X007279Y005570D03*
X004933Y005941D03*
X003988Y005452D03*
X002600Y005100D03*
X002122Y004602D03*
X001059Y005350D03*
X001830Y006082D03*
X002350Y005850D03*
X001161Y007752D03*
X006846Y007114D03*
X008586Y003498D03*
X010817Y002850D03*
X008460Y010941D03*
D33*
X007982Y010819D02*
X005770Y010819D01*
X005671Y010918D02*
X005350Y010918D01*
X005350Y010143D01*
X005350Y010143D01*
X006125Y010143D01*
X006125Y009822D01*
X005671Y009368D01*
X005350Y009368D01*
X005350Y010143D01*
X005350Y010143D01*
X006125Y010143D01*
X006125Y010464D01*
X005671Y010918D01*
X005350Y010918D02*
X005029Y010918D01*
X004575Y010464D01*
X004575Y010143D01*
X004575Y009822D01*
X005029Y009368D01*
X005350Y009368D01*
X005350Y010143D01*
X005350Y010143D01*
X004575Y010143D01*
X005350Y010143D01*
X005350Y010143D01*
X005350Y010918D01*
X005350Y010819D02*
X005350Y010819D01*
X004929Y010819D02*
X003448Y010819D01*
X003456Y010801D02*
X003356Y011041D01*
X003227Y011170D01*
X003356Y011299D01*
X003456Y011540D01*
X003456Y011801D01*
X003378Y011988D01*
X004409Y013018D01*
X004653Y012775D01*
X004653Y012504D01*
X004664Y012478D01*
X004646Y012435D01*
X004633Y012368D01*
X004633Y012117D01*
X005179Y012117D01*
X005179Y012117D01*
X004633Y012117D01*
X004633Y011866D01*
X004646Y011798D01*
X004672Y011735D01*
X004711Y011677D01*
X004760Y011628D01*
X004817Y011590D01*
X004881Y011564D01*
X004948Y011550D01*
X005179Y011550D01*
X005179Y012117D01*
X005179Y012117D01*
X005179Y011550D01*
X005411Y011550D01*
X005478Y011564D01*
X005499Y011572D01*
X005542Y011467D01*
X005680Y011330D01*
X005859Y011255D01*
X006053Y011255D01*
X006233Y011330D01*
X006277Y011374D01*
X007976Y011374D01*
X008089Y011261D01*
X008046Y011217D01*
X007972Y011038D01*
X007972Y010843D01*
X008046Y010664D01*
X008184Y010526D01*
X008363Y010452D01*
X008425Y010452D01*
X010247Y008631D01*
X010172Y008556D01*
X010098Y008376D01*
X010098Y008182D01*
X010172Y008002D01*
X010216Y007958D01*
X010216Y006655D01*
X010172Y006611D01*
X010098Y006431D01*
X010098Y006237D01*
X010172Y006058D01*
X010310Y005920D01*
X010489Y005846D01*
X010628Y005846D01*
X010628Y005685D01*
X010664Y005598D01*
X010637Y005571D01*
X010435Y005655D01*
X010200Y005655D01*
X010074Y005603D01*
X010074Y007605D01*
X010018Y007741D01*
X009914Y007845D01*
X009681Y008078D01*
X009681Y008132D01*
X009725Y008176D01*
X009799Y008355D01*
X009799Y008550D01*
X009725Y008729D01*
X009587Y008866D01*
X009408Y008941D01*
X009213Y008941D01*
X009034Y008866D01*
X008897Y008729D01*
X008854Y008626D01*
X008750Y008583D01*
X008613Y008446D01*
X008539Y008266D01*
X008539Y008204D01*
X007859Y007524D01*
X007604Y007780D01*
X007351Y007780D01*
X007216Y007780D01*
X007216Y008667D01*
X007593Y008667D01*
X008035Y009109D01*
X008035Y009735D01*
X007593Y010177D01*
X006967Y010177D01*
X006525Y009735D01*
X006525Y009179D01*
X006476Y009061D01*
X006476Y007435D01*
X006432Y007390D01*
X006392Y007295D01*
X005622Y007295D01*
X005397Y007520D01*
X005058Y007520D01*
X003473Y009105D01*
X003445Y009116D01*
X003450Y009127D01*
X003472Y009212D01*
X003484Y009300D01*
X003484Y009344D01*
X003484Y009388D01*
X003472Y009476D01*
X003450Y009561D01*
X003416Y009643D01*
X003372Y009720D01*
X003318Y009790D01*
X003255Y009852D01*
X003185Y009906D01*
X003108Y009950D01*
X003027Y009984D01*
X002941Y010007D01*
X002878Y010016D01*
X002931Y010016D01*
X003172Y010115D01*
X003356Y010299D01*
X003456Y010540D01*
X003456Y010801D01*
X003365Y010320D02*
X004575Y010320D01*
X004575Y009822D02*
X003286Y009822D01*
X003484Y009344D02*
X002484Y009344D01*
X002484Y009344D01*
X003484Y009344D01*
X003484Y009323D02*
X006525Y009323D01*
X006476Y008825D02*
X003753Y008825D01*
X004252Y008326D02*
X006476Y008326D01*
X006476Y007828D02*
X004750Y007828D01*
X005588Y007329D02*
X006407Y007329D01*
X007351Y007329D02*
X007351Y007329D01*
X007351Y007170D02*
X007351Y007780D01*
X007351Y007170D01*
X007351Y007170D01*
X007216Y007828D02*
X008163Y007828D01*
X008564Y008326D02*
X007216Y008326D01*
X007750Y008825D02*
X008992Y008825D01*
X009629Y008825D02*
X010053Y008825D01*
X009555Y009323D02*
X008035Y009323D01*
X007948Y009822D02*
X009056Y009822D01*
X008558Y010320D02*
X006125Y010320D01*
X006124Y009822D02*
X006612Y009822D01*
X005350Y009822D02*
X005350Y009822D01*
X005350Y010320D02*
X005350Y010320D01*
X005710Y011317D02*
X003363Y011317D01*
X003450Y011816D02*
X004643Y011816D01*
X005179Y011816D02*
X005179Y011816D01*
X004633Y012314D02*
X003705Y012314D01*
X004203Y012813D02*
X004615Y012813D01*
X005563Y013282D02*
X005643Y013203D01*
X005672Y013232D01*
X005793Y013282D01*
X006397Y013282D01*
X006518Y013232D01*
X006607Y013144D01*
X006683Y013219D01*
X006571Y013266D01*
X006399Y013437D01*
X006306Y013662D01*
X006306Y014464D01*
X006399Y014688D01*
X006460Y014750D01*
X006447Y014755D01*
X006304Y014898D01*
X006161Y014755D01*
X005929Y014659D01*
X005679Y014659D01*
X005546Y014714D01*
X005533Y014701D01*
X005538Y014695D01*
X005631Y014471D01*
X005631Y013669D01*
X005538Y013444D01*
X005426Y013333D01*
X005442Y013333D01*
X005563Y013282D01*
X005494Y013311D02*
X006525Y013311D01*
X006306Y013810D02*
X005631Y013810D01*
X005631Y014308D02*
X006306Y014308D01*
X006212Y014807D02*
X006396Y014807D01*
X004804Y015589D02*
X004154Y015589D01*
X003804Y015589D01*
X003804Y015589D01*
X004804Y015589D01*
X004804Y015589D01*
X003804Y015589D02*
X003804Y015589D01*
X003804Y016539D01*
X003847Y016539D01*
X003931Y016528D01*
X004013Y016506D01*
X004092Y016473D01*
X004166Y016431D01*
X004233Y016379D01*
X004294Y016319D01*
X004304Y016305D01*
X004314Y016319D01*
X004374Y016379D01*
X004408Y016405D01*
X004081Y016732D01*
X004019Y016883D01*
X004019Y017522D01*
X003814Y017522D01*
X003814Y018089D01*
X003814Y018089D01*
X003814Y017522D01*
X003582Y017522D01*
X003515Y017536D01*
X003451Y017562D01*
X003394Y017601D01*
X003345Y017649D01*
X003307Y017707D01*
X003280Y017770D01*
X003267Y017838D01*
X003267Y018089D01*
X003814Y018089D01*
X003814Y018089D01*
X003267Y018089D01*
X003267Y018340D01*
X003280Y018408D01*
X003298Y018450D01*
X003287Y018476D01*
X003287Y019040D01*
X003337Y019162D01*
X003430Y019255D01*
X003551Y019305D01*
X004076Y019305D01*
X004198Y019255D01*
X004290Y019162D01*
X004307Y019122D01*
X004315Y019142D01*
X004408Y019235D01*
X004530Y019285D01*
X005094Y019285D01*
X005215Y019235D01*
X005308Y019142D01*
X005312Y019133D01*
X005316Y019142D01*
X005409Y019235D01*
X005530Y019285D01*
X006094Y019285D01*
X006216Y019235D01*
X006305Y019145D01*
X006312Y019162D01*
X006405Y019255D01*
X006526Y019305D01*
X007051Y019305D01*
X007172Y019255D01*
X007265Y019162D01*
X007279Y019129D01*
X007285Y019129D01*
X007290Y019142D01*
X007383Y019235D01*
X007504Y019285D01*
X008069Y019285D01*
X008190Y019235D01*
X008283Y019142D01*
X008297Y019109D01*
X008310Y019142D01*
X008403Y019235D01*
X008524Y019285D01*
X009089Y019285D01*
X009210Y019235D01*
X009303Y019142D01*
X009353Y019021D01*
X009353Y018897D01*
X009391Y018922D01*
X009455Y018948D01*
X009522Y018962D01*
X009950Y018962D01*
X009950Y018356D01*
X009950Y018356D01*
X009351Y018356D01*
X009351Y018356D01*
X009950Y018356D01*
X009950Y018356D01*
X009950Y018356D01*
X009950Y017569D01*
X009950Y017569D01*
X009950Y017750D01*
X009950Y018356D01*
X009950Y018962D01*
X010379Y018962D01*
X010446Y018948D01*
X010510Y018922D01*
X010567Y018884D01*
X010616Y018835D01*
X010654Y018778D01*
X010681Y018714D01*
X010694Y018646D01*
X010694Y018356D01*
X009950Y018356D01*
X009950Y018356D01*
X010694Y018356D01*
X010694Y018066D01*
X010681Y017998D01*
X010666Y017962D01*
X010681Y017926D01*
X010694Y017859D01*
X010694Y017569D01*
X009950Y017569D01*
X009950Y017568D01*
X010694Y017568D01*
X010694Y017278D01*
X010681Y017211D01*
X010655Y017149D01*
X010674Y017103D01*
X010674Y016460D01*
X010644Y016387D01*
X010674Y016315D01*
X010674Y015672D01*
X010644Y015600D01*
X010674Y015528D01*
X010674Y014885D01*
X010644Y014813D01*
X010674Y014740D01*
X010674Y014097D01*
X010644Y014025D01*
X010674Y013953D01*
X010674Y013523D01*
X010683Y013523D01*
X010863Y013449D01*
X011000Y013312D01*
X011075Y013132D01*
X011075Y012938D01*
X011000Y012758D01*
X010863Y012621D01*
X010694Y012551D01*
X010681Y012486D01*
X010654Y012422D01*
X010616Y012365D01*
X010567Y012316D01*
X010510Y012278D01*
X010446Y012252D01*
X010379Y012238D01*
X009950Y012238D01*
X009950Y012844D01*
X009207Y012844D01*
X009207Y012813D01*
X009103Y012917D01*
X009158Y012971D01*
X009207Y013089D01*
X009207Y012844D01*
X009950Y012844D01*
X009950Y012844D01*
X009950Y012844D01*
X009950Y013046D01*
X009950Y013046D01*
X009950Y012844D01*
X009950Y012844D01*
X009950Y012238D01*
X009782Y012238D01*
X010289Y011731D01*
X010635Y011731D01*
X010635Y011106D01*
X010635Y011106D01*
X011300Y011106D01*
X011300Y011416D01*
X011286Y011483D01*
X011260Y011547D01*
X011221Y011604D01*
X011173Y011653D01*
X011115Y011691D01*
X011052Y011718D01*
X010984Y011731D01*
X010635Y011731D01*
X010635Y011106D01*
X010635Y011106D01*
X011300Y011106D01*
X011300Y010796D01*
X011286Y010728D01*
X011260Y010664D01*
X011221Y010607D01*
X011173Y010558D01*
X011151Y010544D01*
X011220Y010475D01*
X011261Y010492D01*
X011455Y010492D01*
X011635Y010418D01*
X011772Y010280D01*
X011846Y010101D01*
X011846Y010048D01*
X012973Y008921D01*
X013036Y008770D01*
X013036Y007108D01*
X013045Y007112D01*
X013609Y007112D01*
X013731Y007062D01*
X013800Y006993D01*
X015240Y008432D01*
X015240Y009161D01*
X015209Y009173D01*
X015116Y009266D01*
X015066Y009387D01*
X015066Y009912D01*
X015096Y009985D01*
X015066Y010057D01*
X015066Y010582D01*
X015116Y010703D01*
X015209Y010796D01*
X015330Y010846D01*
X015693Y010846D01*
X015901Y011054D01*
X015778Y011003D01*
X014156Y011003D01*
X014165Y010959D01*
X014165Y010708D01*
X013618Y010708D01*
X013618Y010708D01*
X013618Y010142D01*
X013849Y010142D01*
X013917Y010155D01*
X013981Y010181D01*
X014038Y010220D01*
X014087Y010268D01*
X014125Y010326D01*
X014151Y010389D01*
X014165Y010457D01*
X014165Y010708D01*
X013618Y010708D01*
X013618Y010708D01*
X013618Y010142D01*
X013387Y010142D01*
X013319Y010155D01*
X013255Y010181D01*
X013198Y010220D01*
X013185Y010233D01*
X013175Y010223D01*
X013118Y010185D01*
X013054Y010158D01*
X012987Y010145D01*
X012755Y010145D01*
X012755Y010712D01*
X012755Y010712D01*
X012209Y010712D01*
X012209Y010846D01*
X012091Y010846D01*
X011912Y010920D01*
X011775Y011058D01*
X011700Y011237D01*
X011700Y011431D01*
X011775Y011611D01*
X011912Y011748D01*
X012091Y011823D01*
X012286Y011823D01*
X012308Y011813D01*
X012372Y011877D01*
X012493Y011927D01*
X013018Y011927D01*
X013139Y011877D01*
X013188Y011828D01*
X013234Y011874D01*
X013355Y011924D01*
X013880Y011924D01*
X014002Y011874D01*
X014052Y011823D01*
X015527Y011823D01*
X015962Y012258D01*
X015790Y012258D01*
X015669Y012308D01*
X015576Y012401D01*
X015526Y012523D01*
X015526Y013166D01*
X015556Y013238D01*
X015526Y013310D01*
X015526Y013554D01*
X015366Y013631D01*
X015333Y013617D01*
X015139Y013617D01*
X014959Y013692D01*
X014822Y013829D01*
X014747Y014009D01*
X014747Y014203D01*
X014822Y014383D01*
X014959Y014520D01*
X015139Y014594D01*
X015333Y014594D01*
X015512Y014520D01*
X015526Y014507D01*
X015526Y014740D01*
X015545Y014786D01*
X015519Y014848D01*
X015506Y014916D01*
X015506Y015099D01*
X015333Y015027D01*
X015139Y015027D01*
X014959Y015101D01*
X014822Y015239D01*
X014747Y015418D01*
X014747Y015613D01*
X014822Y015792D01*
X014959Y015929D01*
X015139Y016004D01*
X015333Y016004D01*
X015366Y015990D01*
X015526Y016068D01*
X015526Y016315D01*
X015556Y016387D01*
X015526Y016460D01*
X015526Y017103D01*
X015545Y017149D01*
X015519Y017211D01*
X015506Y017278D01*
X015506Y017568D01*
X016250Y017568D01*
X016250Y017367D01*
X016250Y017367D01*
X016250Y017568D01*
X016250Y017568D01*
X016250Y017569D01*
X016250Y017594D01*
X016250Y017594D01*
X016250Y017569D01*
X016250Y017569D01*
X016993Y017569D01*
X016993Y017782D01*
X017063Y017782D01*
X017001Y017632D01*
X017001Y017324D01*
X017118Y017040D01*
X017336Y016823D01*
X017620Y016706D01*
X017927Y016706D01*
X018073Y016766D01*
X018073Y016706D01*
X018472Y016308D01*
X018916Y016308D01*
X019240Y015984D01*
X019240Y015712D01*
X019043Y015908D01*
X018753Y015908D01*
X018463Y015908D01*
X018053Y015498D01*
X018053Y015438D01*
X017927Y015491D01*
X017620Y015491D01*
X017336Y015373D01*
X017137Y015174D01*
X017137Y016376D01*
X017081Y016512D01*
X016973Y016620D01*
X016973Y017103D01*
X016954Y017149D01*
X016980Y017211D01*
X016993Y017278D01*
X016993Y017568D01*
X016250Y017568D01*
X016250Y017569D01*
X015506Y017569D01*
X015506Y017859D01*
X015519Y017926D01*
X015545Y017988D01*
X015526Y018034D01*
X015526Y018124D01*
X015509Y018173D01*
X015496Y018207D01*
X015496Y018215D01*
X015481Y018259D01*
X015496Y018466D01*
X015496Y018911D01*
X015611Y019190D01*
X015738Y019317D01*
X015738Y019685D01*
X002246Y019685D01*
X002282Y019623D01*
X002361Y019328D01*
X002361Y019022D01*
X002282Y018727D01*
X002129Y018463D01*
X001913Y018247D01*
X001648Y018094D01*
X001353Y018015D01*
X001048Y018015D01*
X000753Y018094D01*
X000700Y018125D01*
X000700Y017005D01*
X001083Y017005D01*
X001085Y017006D01*
X001108Y017006D01*
X001129Y017012D01*
X001188Y017006D01*
X002260Y017006D01*
X002411Y016943D01*
X002526Y016828D01*
X002546Y016779D01*
X002649Y016779D01*
X002649Y016036D01*
X002649Y016036D01*
X002649Y016779D01*
X002971Y016779D01*
X003039Y016766D01*
X003102Y016740D01*
X003160Y016701D01*
X003208Y016653D01*
X003247Y016595D01*
X003273Y016532D01*
X003287Y016464D01*
X003287Y016283D01*
X003314Y016319D01*
X003374Y016379D01*
X003442Y016431D01*
X003516Y016473D01*
X003595Y016506D01*
X003677Y016528D01*
X003761Y016539D01*
X003804Y016539D01*
X003804Y015589D01*
X003804Y015804D02*
X003804Y015804D01*
X003804Y016302D02*
X003804Y016302D01*
X003302Y016302D02*
X003287Y016302D01*
X002649Y016302D02*
X002649Y016302D01*
X002538Y016801D02*
X004053Y016801D01*
X004019Y017299D02*
X000700Y017299D01*
X000700Y017798D02*
X003275Y017798D01*
X003267Y018296D02*
X001962Y018296D01*
X002300Y018795D02*
X003287Y018795D01*
X003523Y019293D02*
X002361Y019293D01*
X004105Y019293D02*
X006497Y019293D01*
X007080Y019293D02*
X015714Y019293D01*
X015496Y018795D02*
X010643Y018795D01*
X009950Y018795D02*
X009950Y018795D01*
X009950Y018296D02*
X009950Y018296D01*
X009950Y017798D02*
X009950Y017798D01*
X010694Y017798D02*
X015506Y017798D01*
X015483Y018296D02*
X010694Y018296D01*
X010694Y017299D02*
X015506Y017299D01*
X015526Y016801D02*
X010674Y016801D01*
X010674Y016302D02*
X015526Y016302D01*
X014833Y015804D02*
X010674Y015804D01*
X010674Y015305D02*
X014794Y015305D01*
X015537Y014807D02*
X010647Y014807D01*
X010674Y014308D02*
X014791Y014308D01*
X014841Y013810D02*
X010674Y013810D01*
X011001Y013311D02*
X015526Y013311D01*
X015526Y012813D02*
X011023Y012813D01*
X010564Y012314D02*
X015663Y012314D01*
X016973Y012910D02*
X016973Y013166D01*
X016943Y013238D01*
X016973Y013310D01*
X016973Y013953D01*
X016943Y014025D01*
X016973Y014097D01*
X016973Y014584D01*
X016977Y014588D01*
X017001Y014611D01*
X017001Y014564D01*
X017118Y014280D01*
X017336Y014063D01*
X017620Y013946D01*
X017927Y013946D01*
X018211Y014063D01*
X018428Y014280D01*
X018523Y014508D01*
X018753Y014508D01*
X018753Y015208D01*
X018753Y015208D01*
X018753Y015908D01*
X018753Y015208D01*
X018753Y015208D01*
X018753Y014508D01*
X019043Y014508D01*
X019240Y014705D01*
X019240Y013162D01*
X018884Y013162D01*
X018657Y012935D01*
X018430Y013162D01*
X017884Y013162D01*
X017632Y012910D01*
X016973Y012910D01*
X016973Y013311D02*
X019240Y013311D01*
X019240Y013810D02*
X016973Y013810D01*
X016973Y014308D02*
X017107Y014308D01*
X018440Y014308D02*
X019240Y014308D01*
X018753Y014807D02*
X018753Y014807D01*
X018753Y015305D02*
X018753Y015305D01*
X018753Y015804D02*
X018753Y015804D01*
X018359Y015804D02*
X017137Y015804D01*
X017137Y016302D02*
X018922Y016302D01*
X019148Y015804D02*
X019240Y015804D01*
X017390Y016801D02*
X016973Y016801D01*
X016993Y017299D02*
X017011Y017299D01*
X017137Y015305D02*
X017268Y015305D01*
X012310Y011816D02*
X012303Y011816D01*
X012074Y011816D02*
X010204Y011816D01*
X010635Y011317D02*
X010635Y011317D01*
X011300Y011317D02*
X011700Y011317D01*
X011300Y010819D02*
X012209Y010819D01*
X012209Y010712D02*
X012209Y010461D01*
X012222Y010393D01*
X012248Y010329D01*
X012287Y010272D01*
X012335Y010223D01*
X012393Y010185D01*
X012457Y010158D01*
X012524Y010145D01*
X012755Y010145D01*
X012755Y010712D01*
X012209Y010712D01*
X012755Y010712D02*
X012755Y010712D01*
X012755Y010320D02*
X012755Y010320D01*
X012255Y010320D02*
X011732Y010320D01*
X012072Y009822D02*
X015066Y009822D01*
X015066Y010320D02*
X014121Y010320D01*
X013618Y010320D02*
X013618Y010320D01*
X014165Y010819D02*
X015264Y010819D01*
X015093Y009323D02*
X012571Y009323D01*
X013013Y008825D02*
X015240Y008825D01*
X015133Y008326D02*
X013036Y008326D01*
X013036Y007828D02*
X014635Y007828D01*
X014136Y007329D02*
X013036Y007329D01*
X010216Y007329D02*
X010074Y007329D01*
X010074Y006831D02*
X010216Y006831D01*
X010098Y006332D02*
X010074Y006332D01*
X010074Y005834D02*
X010628Y005834D01*
X009317Y005282D02*
X009317Y004805D01*
X008907Y004805D01*
X008907Y004805D01*
X009317Y004805D01*
X009317Y004805D01*
X009317Y004325D01*
X009317Y004325D01*
X009317Y004805D01*
X009317Y004805D01*
X009317Y005282D01*
X009317Y005282D01*
X009317Y004837D02*
X009317Y004837D01*
X009317Y004805D02*
X009317Y004805D01*
X009334Y004805D01*
X009334Y004805D01*
X009317Y004805D01*
X009317Y004805D01*
X009317Y004338D02*
X009317Y004338D01*
X009764Y003389D02*
X010258Y003389D01*
X010300Y003347D01*
X010421Y003297D01*
X010985Y003297D01*
X011012Y003308D01*
X011054Y003290D01*
X011121Y003277D01*
X011372Y003277D01*
X011372Y003824D01*
X011372Y003824D01*
X011939Y003824D01*
X011939Y004055D01*
X011931Y004098D01*
X011983Y004045D01*
X012200Y003955D01*
X012435Y003955D01*
X012651Y004045D01*
X012703Y004096D01*
X012847Y003951D01*
X012951Y003847D01*
X013087Y003791D01*
X013550Y003791D01*
X013606Y003814D01*
X012443Y002652D01*
X012435Y002655D01*
X012200Y002655D01*
X011983Y002565D01*
X011817Y002400D01*
X011651Y002565D01*
X011435Y002655D01*
X011200Y002655D01*
X010983Y002565D01*
X010824Y002406D01*
X010783Y002463D01*
X010715Y002531D01*
X010637Y002587D01*
X010551Y002631D01*
X010471Y002657D01*
X010471Y002795D01*
X009905Y002795D01*
X009905Y002795D01*
X010471Y002795D01*
X010471Y003027D01*
X010458Y003094D01*
X010432Y003158D01*
X010393Y003215D01*
X010345Y003264D01*
X010287Y003302D01*
X010224Y003329D01*
X010156Y003342D01*
X009905Y003342D01*
X009905Y002795D01*
X009905Y002795D01*
X009905Y003342D01*
X009717Y003342D01*
X009764Y003389D01*
X009905Y003341D02*
X009905Y003341D01*
X010162Y003341D02*
X010315Y003341D01*
X010471Y002843D02*
X012634Y002843D01*
X013133Y003341D02*
X011791Y003341D01*
X011812Y003355D02*
X011861Y003404D01*
X011899Y003461D01*
X011925Y003525D01*
X011939Y003593D01*
X011939Y003824D01*
X011372Y003824D01*
X011372Y003824D01*
X011372Y003277D01*
X011623Y003277D01*
X011691Y003290D01*
X011755Y003317D01*
X011812Y003355D01*
X011372Y003341D02*
X011372Y003341D01*
X011939Y003840D02*
X012970Y003840D01*
X014573Y003341D02*
X017117Y003341D01*
X017118Y003345D02*
X017001Y003061D01*
X017001Y002753D01*
X017118Y002469D01*
X017336Y002252D01*
X017620Y002135D01*
X017927Y002135D01*
X018211Y002252D01*
X018428Y002469D01*
X018523Y002697D01*
X018753Y002697D01*
X018753Y003397D01*
X018753Y004097D01*
X018463Y004097D01*
X018053Y003687D01*
X018053Y003627D01*
X017927Y003680D01*
X017620Y003680D01*
X017336Y003562D01*
X017118Y003345D01*
X017809Y003791D02*
X017945Y003847D01*
X018595Y004497D01*
X019035Y004497D01*
X019433Y004895D01*
X019433Y005459D01*
X019035Y005857D01*
X018531Y005857D01*
X018428Y006105D01*
X018211Y006322D01*
X017927Y006440D01*
X017620Y006440D01*
X017336Y006322D01*
X017118Y006105D01*
X017001Y005821D01*
X017001Y005513D01*
X017118Y005229D01*
X017336Y005012D01*
X017620Y004895D01*
X017927Y004895D01*
X017959Y004908D01*
X017583Y004531D01*
X016907Y004531D01*
X016907Y005183D01*
X016817Y005399D01*
X016651Y005565D01*
X016435Y005655D01*
X016200Y005655D01*
X015983Y005565D01*
X015817Y005400D01*
X015651Y005565D01*
X015435Y005655D01*
X015303Y005655D01*
X015303Y005661D01*
X016397Y006756D01*
X016437Y006659D01*
X016530Y006566D01*
X016652Y006516D01*
X017885Y006516D01*
X018007Y006566D01*
X018099Y006659D01*
X018150Y006780D01*
X018150Y007512D01*
X018194Y007468D01*
X018436Y007367D01*
X018699Y007367D01*
X018942Y007468D01*
X019127Y007653D01*
X019228Y007896D01*
X019228Y008158D01*
X019127Y008401D01*
X019009Y008519D01*
X019127Y008638D01*
X019228Y008880D01*
X019228Y009143D01*
X019127Y009385D01*
X019023Y009489D01*
X019080Y009546D01*
X019134Y009617D01*
X019179Y009694D01*
X019213Y009777D01*
X019236Y009863D01*
X019248Y009951D01*
X019248Y009996D01*
X019248Y010040D01*
X019236Y010129D01*
X019213Y010215D01*
X019179Y010297D01*
X019134Y010374D01*
X019080Y010445D01*
X019017Y010508D01*
X018981Y010536D01*
X019685Y011241D01*
X019685Y002260D01*
X019627Y002293D01*
X019332Y002372D01*
X019027Y002372D01*
X018732Y002293D01*
X018467Y002140D01*
X018251Y001924D01*
X018099Y001660D01*
X018085Y001611D01*
X017684Y002013D01*
X017058Y002013D01*
X016907Y001862D01*
X016907Y002183D01*
X016817Y002399D01*
X016651Y002565D01*
X016435Y002655D01*
X016200Y002655D01*
X015983Y002565D01*
X015817Y002400D01*
X015651Y002565D01*
X015435Y002655D01*
X015200Y002655D01*
X014983Y002565D01*
X014817Y002400D01*
X014651Y002565D01*
X014435Y002655D01*
X014200Y002655D01*
X013983Y002565D01*
X013817Y002400D01*
X013724Y002492D01*
X015023Y003791D01*
X017809Y003791D01*
X017926Y003840D02*
X018206Y003840D01*
X018753Y003840D02*
X018753Y003840D01*
X018753Y004097D02*
X018753Y003397D01*
X018753Y003397D01*
X018753Y003397D01*
X018753Y002697D01*
X019043Y002697D01*
X019453Y003107D01*
X019453Y003397D01*
X018753Y003397D01*
X019453Y003397D01*
X019453Y003687D01*
X019043Y004097D01*
X018753Y004097D01*
X018436Y004338D02*
X019685Y004338D01*
X019685Y004837D02*
X019375Y004837D01*
X019433Y005335D02*
X019685Y005335D01*
X019685Y005834D02*
X019059Y005834D01*
X019685Y006332D02*
X018187Y006332D01*
X018150Y006831D02*
X019685Y006831D01*
X019685Y007329D02*
X018150Y007329D01*
X019199Y007828D02*
X019685Y007828D01*
X019685Y008326D02*
X019158Y008326D01*
X019205Y008825D02*
X019685Y008825D01*
X019685Y009323D02*
X019153Y009323D01*
X019225Y009822D02*
X019685Y009822D01*
X019248Y009996D02*
X018568Y009996D01*
X019248Y009996D01*
X019166Y010320D02*
X019685Y010320D01*
X019685Y010819D02*
X019263Y010819D01*
X018568Y009996D02*
X018568Y009996D01*
X017360Y006332D02*
X015973Y006332D01*
X015475Y005834D02*
X017006Y005834D01*
X017075Y005335D02*
X016844Y005335D01*
X016907Y004837D02*
X017888Y004837D01*
X019301Y003840D02*
X019685Y003840D01*
X019685Y003341D02*
X019453Y003341D01*
X018753Y003341D02*
X018753Y003341D01*
X018753Y003397D02*
X018753Y003397D01*
X018753Y002843D02*
X018753Y002843D01*
X019189Y002843D02*
X019685Y002843D01*
X019685Y002344D02*
X019437Y002344D01*
X018921Y002344D02*
X018303Y002344D01*
X018206Y001846D02*
X017851Y001846D01*
X017244Y002344D02*
X016840Y002344D01*
X017001Y002843D02*
X014074Y002843D01*
X009905Y002843D02*
X009905Y002843D01*
X002563Y002843D02*
X002241Y002843D01*
X002241Y003090D02*
X002241Y002549D01*
X002563Y002228D01*
X002563Y004390D01*
X002536Y004325D01*
X002398Y004188D01*
X002219Y004114D01*
X002024Y004114D01*
X001845Y004188D01*
X001708Y004325D01*
X001633Y004505D01*
X001633Y004699D01*
X001708Y004879D01*
X001815Y004986D01*
X001679Y004988D01*
X001387Y004988D01*
X001335Y004936D01*
X001311Y004926D01*
X001311Y003532D01*
X001799Y003532D01*
X002241Y003090D01*
X001990Y003341D02*
X002563Y003341D01*
X002563Y003840D02*
X001311Y003840D01*
X001311Y004338D02*
X001702Y004338D01*
X001690Y004837D02*
X001311Y004837D01*
X002541Y004338D02*
X002563Y004338D01*
X002563Y002344D02*
X002446Y002344D01*
X009914Y007845D02*
X009914Y007845D01*
X009931Y007828D02*
X010216Y007828D01*
X010098Y008326D02*
X009787Y008326D01*
X008033Y011317D02*
X006202Y011317D01*
X003044Y012813D02*
X002350Y012813D01*
X002411Y012838D02*
X002526Y012953D01*
X002549Y013009D01*
X002649Y013009D01*
X002649Y013752D01*
X002649Y013752D01*
X002649Y013009D01*
X002971Y013009D01*
X003039Y013022D01*
X003102Y013048D01*
X003160Y013087D01*
X003208Y013135D01*
X003247Y013193D01*
X003273Y013256D01*
X003287Y013324D01*
X003287Y013752D01*
X002649Y013752D01*
X002649Y013752D01*
X002649Y013953D01*
X002649Y013953D01*
X002649Y013752D01*
X002649Y013752D01*
X003287Y013752D01*
X003287Y014180D01*
X003277Y014230D01*
X003285Y014269D01*
X003285Y014382D01*
X003218Y014382D01*
X003218Y014382D01*
X003285Y014382D01*
X003285Y014495D01*
X003276Y014537D01*
X003411Y014402D01*
X003411Y013669D01*
X003504Y013444D01*
X003590Y013358D01*
X002556Y012325D01*
X002021Y012325D01*
X001781Y012225D01*
X001732Y012177D01*
X001589Y012237D01*
X001364Y012237D01*
X001155Y012151D01*
X000996Y011991D01*
X000910Y011783D01*
X000910Y011558D01*
X000996Y011349D01*
X001155Y011190D01*
X001203Y011170D01*
X001155Y011151D01*
X000996Y010991D01*
X000910Y010783D01*
X000910Y010558D01*
X000996Y010349D01*
X001155Y010190D01*
X001364Y010104D01*
X001589Y010104D01*
X001732Y010163D01*
X001781Y010115D01*
X002021Y010016D01*
X002091Y010016D01*
X002028Y010007D01*
X001942Y009984D01*
X001861Y009950D01*
X001784Y009906D01*
X001722Y009859D01*
X001597Y009910D01*
X001372Y009910D01*
X001164Y009824D01*
X001004Y009665D01*
X000918Y009457D01*
X000918Y009231D01*
X001004Y009023D01*
X001067Y008960D01*
X000700Y008593D01*
X000700Y012774D01*
X001106Y012774D01*
X001128Y012768D01*
X001187Y012774D01*
X001246Y012774D01*
X001249Y012775D01*
X002260Y012775D01*
X002411Y012838D01*
X001994Y012314D02*
X000700Y012314D01*
X000700Y011816D02*
X000923Y011816D01*
X001028Y011317D02*
X000700Y011317D01*
X000700Y010819D02*
X000924Y010819D01*
X001025Y010320D02*
X000700Y010320D01*
X000700Y009822D02*
X001161Y009822D01*
X000918Y009323D02*
X000700Y009323D01*
X000700Y008825D02*
X000931Y008825D01*
X002649Y013311D02*
X002649Y013311D01*
X003284Y013311D02*
X003542Y013311D01*
X003411Y013810D02*
X003287Y013810D01*
X002649Y013810D02*
X002649Y013810D01*
X003285Y014308D02*
X003411Y014308D01*
X003814Y017798D02*
X003814Y017798D01*
X009950Y012844D02*
X010137Y012844D01*
X009950Y012844D01*
X009950Y012844D01*
X009950Y012813D02*
X009950Y012813D01*
X010137Y012844D02*
X010137Y012844D01*
X009950Y012314D02*
X009950Y012314D01*
D34*
X001350Y004850D03*
D35*
X000941Y005208D02*
X001043Y005311D01*
X001059Y005350D01*
X001098Y005358D01*
X001681Y005358D01*
X002350Y005350D01*
X003100Y005992D01*
X003271Y006492D01*
X003312Y006508D01*
X003307Y006507D01*
X002153Y007130D02*
X002169Y007170D01*
X002165Y007169D01*
X002153Y007130D02*
X001830Y006807D01*
X001830Y006082D01*
X001156Y006643D02*
X001153Y006649D01*
X001153Y006728D01*
X000815Y007067D01*
X000815Y008185D01*
X001421Y008791D01*
X003263Y008791D01*
X005114Y006941D01*
X005153Y006930D01*
X005153Y006925D01*
X006602Y006925D01*
X007350Y006177D01*
X007351Y006170D01*
X007736Y006011D02*
X007295Y005570D01*
X007279Y005570D01*
X007319Y005200D02*
X007319Y004807D01*
X007317Y004805D01*
X007319Y005200D02*
X009043Y006925D01*
X009043Y007381D01*
X009049Y007385D01*
X009311Y007925D02*
X009704Y007531D01*
X009704Y004116D01*
X008586Y003498D01*
X008317Y004805D02*
X008319Y004807D01*
X009043Y005531D01*
X009043Y006122D01*
X009049Y006125D01*
X007736Y006011D02*
X007736Y006878D01*
X009027Y008169D01*
X009311Y007925D02*
X009311Y008452D01*
X010586Y008279D02*
X010586Y006334D01*
X012303Y007098D02*
X008460Y010941D01*
X008130Y011744D02*
X012303Y007570D01*
X012752Y006240D02*
X011319Y004807D01*
X011317Y004805D01*
X012317Y004805D02*
X012319Y004799D01*
X012523Y004799D01*
X013161Y004161D01*
X013476Y004161D01*
X013933Y004618D01*
X013933Y005224D01*
X014429Y005720D01*
X014610Y005720D01*
X016429Y007539D01*
X016429Y008507D01*
X019610Y011689D01*
X019610Y016137D01*
X018759Y016988D01*
X018753Y016988D01*
X016767Y016303D02*
X016295Y016775D01*
X016256Y016775D01*
X016250Y016781D01*
X016767Y016303D02*
X016767Y014901D01*
X016287Y014421D01*
X016256Y014421D01*
X016250Y014419D01*
X016208Y013633D02*
X015236Y014106D01*
X016208Y013633D02*
X016248Y013633D01*
X016250Y013631D01*
X017421Y012051D02*
X018704Y012051D01*
X019153Y012500D01*
X019157Y012502D01*
X017421Y012051D02*
X015696Y010326D01*
X015618Y010326D01*
X015613Y010319D01*
X015613Y009650D02*
X015610Y009649D01*
X015610Y008279D01*
X013570Y006240D01*
X012752Y006240D01*
X013327Y005916D02*
X013326Y005909D01*
X013326Y004815D01*
X013319Y004807D01*
X013317Y004805D01*
X014933Y004618D02*
X014933Y005815D01*
X016594Y007476D01*
X016594Y007996D01*
X017610Y009011D01*
X018568Y009011D01*
X014380Y006269D02*
X014374Y006263D01*
X014035Y005925D01*
X013366Y005925D01*
X013327Y005916D01*
X014933Y004618D02*
X012319Y002004D01*
X012319Y001807D01*
X012317Y001805D01*
X012933Y001618D02*
X012933Y002224D01*
X014870Y004161D01*
X017736Y004161D01*
X018752Y005177D01*
X018753Y005177D01*
X015317Y001805D02*
X015311Y001799D01*
X015114Y001799D01*
X014145Y000830D01*
X002917Y000830D01*
X001515Y002232D01*
X001256Y002232D01*
X000941Y002547D01*
X000941Y005208D01*
X002933Y005224D02*
X002933Y002185D01*
X003311Y001807D01*
X003317Y001805D01*
X003271Y000996D02*
X001492Y002775D01*
X001486Y002777D01*
X003319Y003602D02*
X004933Y001988D01*
X004933Y001389D01*
X005161Y001161D01*
X012476Y001161D01*
X012933Y001618D01*
X013311Y000996D02*
X003271Y000996D01*
X004933Y002216D02*
X005311Y001838D01*
X005311Y001807D01*
X005317Y001805D01*
X004933Y002216D02*
X004933Y005941D01*
X003988Y005452D02*
X003161Y005452D01*
X002933Y005224D01*
X003317Y004805D02*
X003319Y004799D01*
X003319Y003602D01*
X006846Y007114D02*
X006846Y008988D01*
X007279Y009421D01*
X007280Y009422D01*
X008130Y011744D02*
X005956Y011744D01*
X008744Y013248D02*
X009909Y014413D01*
X009948Y014413D01*
X009950Y014419D01*
X009311Y014602D02*
X009909Y015200D01*
X009948Y015200D01*
X009950Y015206D01*
X009311Y015389D02*
X009311Y015004D01*
X009311Y015389D02*
X009909Y015988D01*
X009948Y015988D01*
X009950Y015994D01*
X009950Y016781D02*
X009948Y016783D01*
X009909Y016783D01*
X008807Y017885D01*
X008807Y018082D01*
X008807Y018089D01*
X008248Y018200D02*
X008799Y018752D01*
X008807Y018758D01*
X008256Y018610D02*
X008130Y018736D01*
X007822Y018736D01*
X007787Y018758D01*
X007744Y018759D01*
X006791Y018759D01*
X006789Y018758D01*
X007783Y018752D02*
X007787Y018758D01*
X006789Y018089D02*
X006791Y018082D01*
X006791Y017602D01*
X007468Y016925D01*
X006468Y016925D02*
X007799Y015594D01*
X007804Y015589D01*
X006804Y015589D02*
X006799Y015594D01*
X005468Y016925D01*
X005468Y018019D01*
X004815Y018673D01*
X004815Y018752D01*
X004812Y018758D01*
X005812Y018758D02*
X005815Y018752D01*
X005815Y018673D01*
X006468Y018019D01*
X006468Y016925D01*
X006570Y016421D02*
X005815Y017177D01*
X005815Y018082D01*
X005812Y018089D01*
X004815Y018082D02*
X004812Y018089D01*
X004815Y018082D02*
X004815Y017035D01*
X009950Y013631D02*
X009956Y013626D01*
X009996Y013626D01*
X010586Y013035D01*
X015236Y015515D02*
X016208Y015988D01*
X016248Y015988D01*
X016250Y015994D01*
X014317Y001805D02*
X014311Y001799D01*
X014114Y001799D01*
X013311Y000996D01*
D36*
X019179Y001212D03*
X001200Y001200D03*
X001201Y019175D03*
X019182Y019177D03*
D37*
X016850Y019350D02*
X016846Y019350D01*
X016256Y018759D01*
X016256Y018358D01*
X016250Y018356D01*
M02*
