G75*
%MOIN*%
%OFA0B0*%
%FSLAX24Y24*%
%IPPOS*%
%LPD*%
%AMOC8*
5,1,8,0,0,1.08239X$1,22.5*
%
%ADD10C,0.0000*%
%ADD11C,0.0560*%
%ADD12C,0.0600*%
%ADD13OC8,0.0700*%
%ADD14OC8,0.0890*%
%ADD15OC8,0.0740*%
%ADD16C,0.0925*%
%ADD17C,0.0700*%
%ADD18R,0.1142X0.1142*%
%ADD19C,0.0640*%
%ADD20C,0.0690*%
%ADD21C,0.0473*%
%ADD22OC8,0.0560*%
%ADD23R,0.0316X0.0150*%
%ADD24R,0.0316X0.0473*%
%ADD25C,0.1700*%
D10*
X000350Y000350D02*
X000350Y020035D01*
X020035Y020035D01*
X020035Y000350D01*
X000350Y000350D01*
X001267Y008344D02*
X001269Y008373D01*
X001275Y008401D01*
X001284Y008429D01*
X001297Y008455D01*
X001314Y008478D01*
X001333Y008500D01*
X001355Y008519D01*
X001380Y008534D01*
X001406Y008547D01*
X001434Y008555D01*
X001462Y008560D01*
X001491Y008561D01*
X001520Y008558D01*
X001548Y008551D01*
X001575Y008541D01*
X001601Y008527D01*
X001624Y008510D01*
X001645Y008490D01*
X001663Y008467D01*
X001678Y008442D01*
X001689Y008415D01*
X001697Y008387D01*
X001701Y008358D01*
X001701Y008330D01*
X001697Y008301D01*
X001689Y008273D01*
X001678Y008246D01*
X001663Y008221D01*
X001645Y008198D01*
X001624Y008178D01*
X001601Y008161D01*
X001575Y008147D01*
X001548Y008137D01*
X001520Y008130D01*
X001491Y008127D01*
X001462Y008128D01*
X001434Y008133D01*
X001406Y008141D01*
X001380Y008154D01*
X001355Y008169D01*
X001333Y008188D01*
X001314Y008210D01*
X001297Y008233D01*
X001284Y008259D01*
X001275Y008287D01*
X001269Y008315D01*
X001267Y008344D01*
X001267Y009344D02*
X001269Y009373D01*
X001275Y009401D01*
X001284Y009429D01*
X001297Y009455D01*
X001314Y009478D01*
X001333Y009500D01*
X001355Y009519D01*
X001380Y009534D01*
X001406Y009547D01*
X001434Y009555D01*
X001462Y009560D01*
X001491Y009561D01*
X001520Y009558D01*
X001548Y009551D01*
X001575Y009541D01*
X001601Y009527D01*
X001624Y009510D01*
X001645Y009490D01*
X001663Y009467D01*
X001678Y009442D01*
X001689Y009415D01*
X001697Y009387D01*
X001701Y009358D01*
X001701Y009330D01*
X001697Y009301D01*
X001689Y009273D01*
X001678Y009246D01*
X001663Y009221D01*
X001645Y009198D01*
X001624Y009178D01*
X001601Y009161D01*
X001575Y009147D01*
X001548Y009137D01*
X001520Y009130D01*
X001491Y009127D01*
X001462Y009128D01*
X001434Y009133D01*
X001406Y009141D01*
X001380Y009154D01*
X001355Y009169D01*
X001333Y009188D01*
X001314Y009210D01*
X001297Y009233D01*
X001284Y009259D01*
X001275Y009287D01*
X001269Y009315D01*
X001267Y009344D01*
X001259Y010670D02*
X001261Y010699D01*
X001267Y010727D01*
X001276Y010755D01*
X001289Y010781D01*
X001306Y010804D01*
X001325Y010826D01*
X001347Y010845D01*
X001372Y010860D01*
X001398Y010873D01*
X001426Y010881D01*
X001454Y010886D01*
X001483Y010887D01*
X001512Y010884D01*
X001540Y010877D01*
X001567Y010867D01*
X001593Y010853D01*
X001616Y010836D01*
X001637Y010816D01*
X001655Y010793D01*
X001670Y010768D01*
X001681Y010741D01*
X001689Y010713D01*
X001693Y010684D01*
X001693Y010656D01*
X001689Y010627D01*
X001681Y010599D01*
X001670Y010572D01*
X001655Y010547D01*
X001637Y010524D01*
X001616Y010504D01*
X001593Y010487D01*
X001567Y010473D01*
X001540Y010463D01*
X001512Y010456D01*
X001483Y010453D01*
X001454Y010454D01*
X001426Y010459D01*
X001398Y010467D01*
X001372Y010480D01*
X001347Y010495D01*
X001325Y010514D01*
X001306Y010536D01*
X001289Y010559D01*
X001276Y010585D01*
X001267Y010613D01*
X001261Y010641D01*
X001259Y010670D01*
X001259Y011670D02*
X001261Y011699D01*
X001267Y011727D01*
X001276Y011755D01*
X001289Y011781D01*
X001306Y011804D01*
X001325Y011826D01*
X001347Y011845D01*
X001372Y011860D01*
X001398Y011873D01*
X001426Y011881D01*
X001454Y011886D01*
X001483Y011887D01*
X001512Y011884D01*
X001540Y011877D01*
X001567Y011867D01*
X001593Y011853D01*
X001616Y011836D01*
X001637Y011816D01*
X001655Y011793D01*
X001670Y011768D01*
X001681Y011741D01*
X001689Y011713D01*
X001693Y011684D01*
X001693Y011656D01*
X001689Y011627D01*
X001681Y011599D01*
X001670Y011572D01*
X001655Y011547D01*
X001637Y011524D01*
X001616Y011504D01*
X001593Y011487D01*
X001567Y011473D01*
X001540Y011463D01*
X001512Y011456D01*
X001483Y011453D01*
X001454Y011454D01*
X001426Y011459D01*
X001398Y011467D01*
X001372Y011480D01*
X001347Y011495D01*
X001325Y011514D01*
X001306Y011536D01*
X001289Y011559D01*
X001276Y011585D01*
X001267Y011613D01*
X001261Y011641D01*
X001259Y011670D01*
D11*
X003317Y005065D02*
X003317Y004545D01*
X004317Y004545D02*
X004317Y005065D01*
X005317Y005065D02*
X005317Y004545D01*
X006317Y004545D02*
X006317Y005065D01*
X007317Y005065D02*
X007317Y004545D01*
X008317Y004545D02*
X008317Y005065D01*
X009317Y005065D02*
X009317Y004545D01*
X010317Y004545D02*
X010317Y005065D01*
X011317Y005065D02*
X011317Y004545D01*
X012317Y004545D02*
X012317Y005065D01*
X013317Y005065D02*
X013317Y004545D01*
X014317Y004545D02*
X014317Y005065D01*
X015317Y005065D02*
X015317Y004545D01*
X016317Y004545D02*
X016317Y005065D01*
X016317Y002065D02*
X016317Y001545D01*
X015317Y001545D02*
X015317Y002065D01*
X014317Y002065D02*
X014317Y001545D01*
X013317Y001545D02*
X013317Y002065D01*
X012317Y002065D02*
X012317Y001545D01*
X011317Y001545D02*
X011317Y002065D01*
X010317Y002065D02*
X010317Y001545D01*
X009317Y001545D02*
X009317Y002065D01*
X008317Y002065D02*
X008317Y001545D01*
X007317Y001545D02*
X007317Y002065D01*
X006317Y002065D02*
X006317Y001545D01*
X005317Y001545D02*
X005317Y002065D01*
X004317Y002065D02*
X004317Y001545D01*
X003317Y001545D02*
X003317Y002065D01*
D12*
X004021Y013790D02*
X004021Y014350D01*
X005021Y014350D02*
X005021Y013790D01*
X006916Y013783D02*
X006916Y014343D01*
X007916Y014343D02*
X007916Y013783D01*
D13*
X018157Y012502D03*
X019157Y012502D03*
D14*
X014380Y006269D03*
X007280Y009422D03*
X005350Y010143D03*
X001486Y002777D03*
X017371Y001258D03*
X016850Y019350D03*
D15*
X018753Y016988D03*
X018753Y015208D03*
X018753Y005177D03*
X018753Y003397D03*
D16*
X017773Y002907D03*
X017773Y005667D03*
X017773Y014718D03*
X017773Y017478D03*
D17*
X018568Y009996D03*
X018568Y009011D03*
X018568Y008027D03*
D18*
X017268Y007397D03*
X017268Y010626D03*
D19*
X008804Y015289D02*
X008804Y015889D01*
X007804Y015889D02*
X007804Y015289D01*
X006804Y015289D02*
X006804Y015889D01*
X005804Y015889D02*
X005804Y015289D01*
X004804Y015289D02*
X004804Y015889D01*
X003804Y015889D02*
X003804Y015289D01*
D20*
X002801Y011670D02*
X002151Y011670D01*
X002151Y010670D02*
X002801Y010670D01*
X002809Y009344D02*
X002160Y009344D01*
X002160Y008344D02*
X002809Y008344D01*
D21*
X001484Y008344D03*
X001484Y009344D03*
X001476Y010670D03*
X001476Y011670D03*
D22*
X007351Y007170D03*
X007351Y006170D03*
X005853Y006230D03*
X005153Y006930D03*
D23*
X001739Y005047D03*
X001739Y004850D03*
X001739Y004653D03*
X000961Y004653D03*
X000961Y004850D03*
X000961Y005047D03*
D24*
X001350Y004850D03*
D25*
X001200Y001200D03*
X019179Y001212D03*
X019182Y019177D03*
X001201Y019175D03*
M02*
