G75*
%MOIN*%
%OFA0B0*%
%FSLAX25Y25*%
%IPPOS*%
%LPD*%
%AMOC8*
5,1,8,0,0,1.08239X$1,22.5*
%
%ADD10C,0.00300*%
%ADD11C,0.01600*%
D10*
X0053673Y0010925D02*
X0053673Y0013959D01*
X0054280Y0013959D02*
X0053066Y0013959D01*
X0053673Y0010925D02*
X0054280Y0010319D01*
X0054886Y0010319D01*
X0055493Y0010925D01*
X0056691Y0010925D02*
X0056691Y0013959D01*
X0059118Y0013959D02*
X0059118Y0010925D01*
X0058511Y0010319D01*
X0057298Y0010319D01*
X0056691Y0010925D01*
X0060317Y0010319D02*
X0062743Y0010319D01*
X0061530Y0010319D02*
X0061530Y0013959D01*
X0062743Y0012745D01*
X0063942Y0013352D02*
X0066368Y0010925D01*
X0066368Y0010319D01*
X0067567Y0010319D02*
X0069387Y0010319D01*
X0069994Y0010925D01*
X0069994Y0012139D01*
X0069387Y0012745D01*
X0067567Y0012745D01*
X0067567Y0013959D02*
X0067567Y0010319D01*
X0066368Y0013959D02*
X0063942Y0013959D01*
X0063942Y0013352D01*
X0071192Y0013352D02*
X0071192Y0012745D01*
X0071799Y0012139D01*
X0071192Y0011532D01*
X0071192Y0010925D01*
X0071799Y0010319D01*
X0073012Y0010319D01*
X0073619Y0010925D01*
X0072405Y0012139D02*
X0071799Y0012139D01*
X0071192Y0013352D02*
X0071799Y0013959D01*
X0073012Y0013959D01*
X0073619Y0013352D01*
X0074817Y0013959D02*
X0077244Y0010319D01*
X0078447Y0010319D02*
X0079661Y0010319D01*
X0079054Y0010319D02*
X0079054Y0013959D01*
X0079661Y0013959D01*
X0080859Y0012745D02*
X0082679Y0012745D01*
X0083286Y0012139D01*
X0083286Y0010925D01*
X0082679Y0010319D01*
X0080859Y0010319D01*
X0080859Y0009712D02*
X0080859Y0012745D01*
X0080859Y0009712D02*
X0081466Y0009105D01*
X0082072Y0009105D01*
X0084492Y0010319D02*
X0085098Y0010319D01*
X0085098Y0010925D01*
X0084492Y0010925D01*
X0084492Y0010319D01*
X0086297Y0010925D02*
X0086297Y0012139D01*
X0086903Y0012745D01*
X0088117Y0012745D01*
X0088723Y0012139D01*
X0088723Y0010925D01*
X0088117Y0010319D01*
X0086903Y0010319D01*
X0086297Y0010925D01*
X0089922Y0010925D02*
X0089922Y0012139D01*
X0090529Y0012745D01*
X0091742Y0012745D01*
X0092349Y0012139D01*
X0092349Y0010925D01*
X0091742Y0010319D01*
X0090529Y0010319D01*
X0089922Y0010925D01*
X0093547Y0010319D02*
X0095367Y0010319D01*
X0095974Y0010925D01*
X0095974Y0012139D01*
X0095367Y0012745D01*
X0093547Y0012745D01*
X0093547Y0009712D01*
X0094154Y0009105D01*
X0094760Y0009105D01*
X0099599Y0010319D02*
X0097172Y0013959D01*
X0100797Y0013959D02*
X0103224Y0010319D01*
X0104430Y0010319D02*
X0105037Y0010319D01*
X0105037Y0010925D01*
X0104430Y0010925D01*
X0104430Y0010319D01*
X0104430Y0012139D02*
X0105037Y0012139D01*
X0105037Y0012745D01*
X0104430Y0012745D01*
X0104430Y0012139D01*
X0106235Y0012139D02*
X0106235Y0010925D01*
X0106842Y0010319D01*
X0108662Y0010319D01*
X0109865Y0010319D02*
X0110472Y0010925D01*
X0110472Y0013352D01*
X0111078Y0012745D02*
X0109865Y0012745D01*
X0108662Y0012745D02*
X0106842Y0012745D01*
X0106235Y0012139D01*
X0108662Y0012745D02*
X0108662Y0009105D01*
X0112282Y0010319D02*
X0112888Y0010925D01*
X0112888Y0013352D01*
X0112282Y0012745D02*
X0113495Y0012745D01*
X0114694Y0012139D02*
X0114694Y0010319D01*
X0114694Y0012139D02*
X0115300Y0012745D01*
X0116514Y0012745D01*
X0117120Y0012139D01*
X0117120Y0013959D02*
X0117120Y0010319D01*
X0121951Y0010319D02*
X0122558Y0010319D01*
X0122558Y0010925D01*
X0121951Y0010925D01*
X0121951Y0010319D01*
X0121951Y0012139D02*
X0122558Y0012139D01*
X0122558Y0012745D01*
X0121951Y0012745D01*
X0121951Y0012139D01*
X0123756Y0012139D02*
X0123756Y0011532D01*
X0126183Y0011532D01*
X0126183Y0010925D02*
X0126183Y0012139D01*
X0125576Y0012745D01*
X0124363Y0012745D01*
X0123756Y0012139D01*
X0124363Y0010319D02*
X0125576Y0010319D01*
X0126183Y0010925D01*
X0127382Y0010925D02*
X0127988Y0011532D01*
X0129202Y0011532D01*
X0129808Y0012139D01*
X0129202Y0012745D01*
X0127382Y0012745D01*
X0127382Y0010925D02*
X0127988Y0010319D01*
X0129808Y0010319D01*
X0131007Y0010319D02*
X0131007Y0012139D01*
X0131613Y0012745D01*
X0133433Y0012745D01*
X0133433Y0010319D01*
X0134632Y0011532D02*
X0134632Y0012139D01*
X0135238Y0012745D01*
X0136452Y0012745D01*
X0137059Y0012139D01*
X0137059Y0010925D01*
X0136452Y0010319D01*
X0135238Y0010319D01*
X0134632Y0011532D02*
X0137059Y0011532D01*
X0138257Y0012745D02*
X0140077Y0012745D01*
X0140684Y0012139D01*
X0140684Y0010925D01*
X0140077Y0010319D01*
X0138257Y0010319D01*
X0141887Y0010319D02*
X0143100Y0010319D01*
X0142494Y0010319D02*
X0142494Y0012745D01*
X0143100Y0012745D01*
X0142494Y0013959D02*
X0142494Y0014565D01*
X0146726Y0013959D02*
X0146726Y0010319D01*
X0144299Y0010319D01*
D11*
X0198650Y0001800D02*
X0001800Y0001800D01*
X0001800Y0198650D01*
X0198650Y0198650D01*
X0198650Y0001800D01*
M02*
