G75*
%MOIN*%
%OFA0B0*%
%FSLAX25Y25*%
%IPPOS*%
%LPD*%
%AMOC8*
5,1,8,0,0,1.08239X$1,22.5*
%
%ADD10C,0.01600*%
%ADD11R,0.06000X0.06000*%
%ADD12OC8,0.06000*%
%ADD13OC8,0.05200*%
%ADD14C,0.03169*%
%ADD15C,0.16598*%
%ADD16C,0.00800*%
D10*
X0001800Y0001800D02*
X0198650Y0001800D01*
X0198650Y0198650D01*
X0001800Y0198650D01*
X0001800Y0001800D01*
X0004400Y0004400D02*
X0004400Y0196050D01*
X0196050Y0196050D01*
X0196050Y0004400D01*
X0004400Y0004400D01*
X0004400Y0004997D02*
X0196050Y0004997D01*
X0196050Y0006596D02*
X0004400Y0006596D01*
X0004400Y0008194D02*
X0196050Y0008194D01*
X0196050Y0009793D02*
X0004400Y0009793D01*
X0004400Y0011391D02*
X0196050Y0011391D01*
X0196050Y0012990D02*
X0004400Y0012990D01*
X0004400Y0014588D02*
X0196050Y0014588D01*
X0196050Y0016187D02*
X0004400Y0016187D01*
X0004400Y0017785D02*
X0196050Y0017785D01*
X0196050Y0019384D02*
X0004400Y0019384D01*
X0004400Y0020982D02*
X0196050Y0020982D01*
X0196050Y0022581D02*
X0004400Y0022581D01*
X0004400Y0024179D02*
X0196050Y0024179D01*
X0196050Y0025778D02*
X0004400Y0025778D01*
X0004400Y0027376D02*
X0196050Y0027376D01*
X0196050Y0028975D02*
X0004400Y0028975D01*
X0004400Y0030573D02*
X0196050Y0030573D01*
X0196050Y0032172D02*
X0004400Y0032172D01*
X0004400Y0033770D02*
X0196050Y0033770D01*
X0196050Y0035369D02*
X0004400Y0035369D01*
X0004400Y0036967D02*
X0196050Y0036967D01*
X0196050Y0038566D02*
X0004400Y0038566D01*
X0004400Y0040164D02*
X0196050Y0040164D01*
X0196050Y0041763D02*
X0004400Y0041763D01*
X0004400Y0043361D02*
X0196050Y0043361D01*
X0196050Y0044960D02*
X0004400Y0044960D01*
X0004400Y0046558D02*
X0196050Y0046558D01*
X0196050Y0048157D02*
X0004400Y0048157D01*
X0004400Y0049755D02*
X0196050Y0049755D01*
X0196050Y0051354D02*
X0004400Y0051354D01*
X0004400Y0052952D02*
X0014708Y0052952D01*
X0015060Y0052600D02*
X0018540Y0052600D01*
X0021000Y0055060D01*
X0021000Y0058540D01*
X0018540Y0061000D01*
X0015060Y0061000D01*
X0012600Y0058540D01*
X0012600Y0055060D01*
X0015060Y0052600D01*
X0013109Y0054551D02*
X0004400Y0054551D01*
X0004400Y0056149D02*
X0012600Y0056149D01*
X0012600Y0057748D02*
X0004400Y0057748D01*
X0004400Y0059346D02*
X0013407Y0059346D01*
X0015005Y0060945D02*
X0004400Y0060945D01*
X0004400Y0062543D02*
X0014834Y0062543D01*
X0014977Y0062400D02*
X0012400Y0064977D01*
X0012400Y0066800D01*
X0016800Y0066800D01*
X0016800Y0066800D01*
X0016800Y0071200D01*
X0018623Y0071200D01*
X0021200Y0068623D01*
X0021200Y0066800D01*
X0016800Y0066800D01*
X0016800Y0066800D01*
X0016800Y0066800D01*
X0016800Y0071200D01*
X0014977Y0071200D01*
X0012400Y0068623D01*
X0012400Y0066800D01*
X0016800Y0066800D01*
X0021200Y0066800D01*
X0021200Y0064977D01*
X0018623Y0062400D01*
X0016800Y0062400D01*
X0016800Y0066800D01*
X0016800Y0066800D01*
X0016800Y0062400D01*
X0014977Y0062400D01*
X0016800Y0062543D02*
X0016800Y0062543D01*
X0016800Y0064142D02*
X0016800Y0064142D01*
X0016800Y0065740D02*
X0016800Y0065740D01*
X0016800Y0067339D02*
X0016800Y0067339D01*
X0016800Y0068937D02*
X0016800Y0068937D01*
X0016800Y0070536D02*
X0016800Y0070536D01*
X0019287Y0070536D02*
X0196050Y0070536D01*
X0196050Y0072134D02*
X0004400Y0072134D01*
X0004400Y0070536D02*
X0014313Y0070536D01*
X0012715Y0068937D02*
X0004400Y0068937D01*
X0004400Y0067339D02*
X0012400Y0067339D01*
X0012400Y0065740D02*
X0004400Y0065740D01*
X0004400Y0064142D02*
X0013236Y0064142D01*
X0018766Y0062543D02*
X0020100Y0062543D01*
X0020100Y0063540D02*
X0020100Y0060060D01*
X0022560Y0057600D01*
X0026040Y0057600D01*
X0028500Y0060060D01*
X0028500Y0063540D01*
X0026040Y0066000D01*
X0022560Y0066000D01*
X0020100Y0063540D01*
X0020364Y0064142D02*
X0020702Y0064142D01*
X0021200Y0065740D02*
X0022301Y0065740D01*
X0021200Y0067339D02*
X0196050Y0067339D01*
X0196050Y0068937D02*
X0020885Y0068937D01*
X0026299Y0065740D02*
X0196050Y0065740D01*
X0196050Y0064142D02*
X0027898Y0064142D01*
X0028500Y0062543D02*
X0196050Y0062543D01*
X0196050Y0060945D02*
X0028500Y0060945D01*
X0027786Y0059346D02*
X0196050Y0059346D01*
X0196050Y0057748D02*
X0026188Y0057748D01*
X0022412Y0057748D02*
X0021000Y0057748D01*
X0021000Y0056149D02*
X0196050Y0056149D01*
X0196050Y0054551D02*
X0020491Y0054551D01*
X0018892Y0052952D02*
X0196050Y0052952D01*
X0196050Y0073733D02*
X0004400Y0073733D01*
X0004400Y0075332D02*
X0196050Y0075332D01*
X0196050Y0076930D02*
X0004400Y0076930D01*
X0004400Y0078529D02*
X0196050Y0078529D01*
X0196050Y0080127D02*
X0004400Y0080127D01*
X0004400Y0081726D02*
X0196050Y0081726D01*
X0196050Y0083324D02*
X0004400Y0083324D01*
X0004400Y0084923D02*
X0196050Y0084923D01*
X0196050Y0086521D02*
X0004400Y0086521D01*
X0004400Y0088120D02*
X0196050Y0088120D01*
X0196050Y0089718D02*
X0004400Y0089718D01*
X0004400Y0091317D02*
X0196050Y0091317D01*
X0196050Y0092915D02*
X0004400Y0092915D01*
X0004400Y0094514D02*
X0196050Y0094514D01*
X0196050Y0096112D02*
X0004400Y0096112D01*
X0004400Y0097711D02*
X0196050Y0097711D01*
X0196050Y0099309D02*
X0004400Y0099309D01*
X0004400Y0100908D02*
X0196050Y0100908D01*
X0196050Y0102506D02*
X0004400Y0102506D01*
X0004400Y0104105D02*
X0196050Y0104105D01*
X0196050Y0105703D02*
X0004400Y0105703D01*
X0004400Y0107302D02*
X0196050Y0107302D01*
X0196050Y0108900D02*
X0004400Y0108900D01*
X0004400Y0110499D02*
X0196050Y0110499D01*
X0196050Y0112097D02*
X0004400Y0112097D01*
X0004400Y0113696D02*
X0196050Y0113696D01*
X0196050Y0115294D02*
X0004400Y0115294D01*
X0004400Y0116893D02*
X0196050Y0116893D01*
X0196050Y0118491D02*
X0004400Y0118491D01*
X0004400Y0120090D02*
X0196050Y0120090D01*
X0196050Y0121688D02*
X0004400Y0121688D01*
X0004400Y0123287D02*
X0196050Y0123287D01*
X0196050Y0124885D02*
X0004400Y0124885D01*
X0004400Y0126484D02*
X0196050Y0126484D01*
X0196050Y0128082D02*
X0004400Y0128082D01*
X0004400Y0129681D02*
X0196050Y0129681D01*
X0196050Y0131279D02*
X0039383Y0131279D01*
X0039204Y0131101D02*
X0040099Y0131996D01*
X0040584Y0133167D01*
X0040584Y0134433D01*
X0040099Y0135604D01*
X0039204Y0136499D01*
X0038033Y0136984D01*
X0037610Y0136984D01*
X0036584Y0138010D01*
X0036584Y0138433D01*
X0036099Y0139604D01*
X0035204Y0140499D01*
X0034033Y0140984D01*
X0032767Y0140984D01*
X0031596Y0140499D01*
X0030793Y0139696D01*
X0030499Y0140404D01*
X0029800Y0141103D01*
X0029800Y0142497D01*
X0030499Y0143196D01*
X0030984Y0144367D01*
X0030984Y0145633D01*
X0030499Y0146804D01*
X0029604Y0147699D01*
X0028433Y0148184D01*
X0027167Y0148184D01*
X0025996Y0147699D01*
X0025101Y0146804D01*
X0024616Y0145633D01*
X0024616Y0144367D01*
X0025101Y0143196D01*
X0025800Y0142497D01*
X0025800Y0141103D01*
X0025101Y0140404D01*
X0024616Y0139233D01*
X0024616Y0137967D01*
X0025101Y0136796D01*
X0025996Y0135901D01*
X0027167Y0135416D01*
X0028433Y0135416D01*
X0029604Y0135901D01*
X0030407Y0136704D01*
X0030701Y0135996D01*
X0031596Y0135101D01*
X0032767Y0134616D01*
X0033190Y0134616D01*
X0034216Y0133590D01*
X0034216Y0133167D01*
X0034701Y0131996D01*
X0035596Y0131101D01*
X0036767Y0130616D01*
X0038033Y0130616D01*
X0039204Y0131101D01*
X0040465Y0132878D02*
X0196050Y0132878D01*
X0196050Y0134476D02*
X0040566Y0134476D01*
X0039628Y0136075D02*
X0196050Y0136075D01*
X0196050Y0137673D02*
X0036921Y0137673D01*
X0036237Y0139272D02*
X0196050Y0139272D01*
X0196050Y0140870D02*
X0034308Y0140870D01*
X0032492Y0140870D02*
X0030033Y0140870D01*
X0029800Y0142469D02*
X0196050Y0142469D01*
X0196050Y0144068D02*
X0030860Y0144068D01*
X0030971Y0145666D02*
X0196050Y0145666D01*
X0196050Y0147265D02*
X0030039Y0147265D01*
X0025561Y0147265D02*
X0004400Y0147265D01*
X0004400Y0148863D02*
X0196050Y0148863D01*
X0196050Y0150462D02*
X0004400Y0150462D01*
X0004400Y0152060D02*
X0196050Y0152060D01*
X0196050Y0153659D02*
X0004400Y0153659D01*
X0004400Y0155257D02*
X0196050Y0155257D01*
X0196050Y0156856D02*
X0004400Y0156856D01*
X0004400Y0158454D02*
X0196050Y0158454D01*
X0196050Y0160053D02*
X0004400Y0160053D01*
X0004400Y0161651D02*
X0196050Y0161651D01*
X0196050Y0163250D02*
X0004400Y0163250D01*
X0004400Y0164848D02*
X0196050Y0164848D01*
X0196050Y0166447D02*
X0004400Y0166447D01*
X0004400Y0168045D02*
X0196050Y0168045D01*
X0196050Y0169644D02*
X0004400Y0169644D01*
X0004400Y0171242D02*
X0196050Y0171242D01*
X0196050Y0172841D02*
X0099964Y0172841D01*
X0099851Y0172728D02*
X0102663Y0175540D01*
X0102663Y0177328D01*
X0098063Y0177328D01*
X0098063Y0172728D01*
X0099851Y0172728D01*
X0098063Y0172841D02*
X0097663Y0172841D01*
X0097663Y0172728D02*
X0097663Y0177328D01*
X0098063Y0177328D01*
X0098063Y0177728D01*
X0102663Y0177728D01*
X0102663Y0179517D01*
X0099851Y0182328D01*
X0098063Y0182328D01*
X0098063Y0177728D01*
X0097663Y0177728D01*
X0097663Y0177328D01*
X0093063Y0177328D01*
X0093063Y0175540D01*
X0095875Y0172728D01*
X0097663Y0172728D01*
X0097663Y0174439D02*
X0098063Y0174439D01*
X0098063Y0176038D02*
X0097663Y0176038D01*
X0097663Y0177636D02*
X0092463Y0177636D01*
X0093063Y0177728D02*
X0097663Y0177728D01*
X0097663Y0182328D01*
X0095875Y0182328D01*
X0093063Y0179517D01*
X0093063Y0177728D01*
X0093063Y0179235D02*
X0092463Y0179235D01*
X0092463Y0179434D02*
X0089768Y0182128D01*
X0085958Y0182128D01*
X0083263Y0179434D01*
X0083263Y0175623D01*
X0085958Y0172928D01*
X0089768Y0172928D01*
X0092463Y0175623D01*
X0092463Y0179434D01*
X0091063Y0180833D02*
X0094380Y0180833D01*
X0095958Y0182928D02*
X0099768Y0182928D01*
X0102463Y0185623D01*
X0102463Y0189434D01*
X0099768Y0192128D01*
X0095958Y0192128D01*
X0093263Y0189434D01*
X0093263Y0185623D01*
X0095958Y0182928D01*
X0094856Y0184030D02*
X0090870Y0184030D01*
X0089768Y0182928D02*
X0092463Y0185623D01*
X0092463Y0189434D01*
X0089768Y0192128D01*
X0085958Y0192128D01*
X0083263Y0189434D01*
X0083263Y0185623D01*
X0085958Y0182928D01*
X0089768Y0182928D01*
X0092463Y0185629D02*
X0093263Y0185629D01*
X0093263Y0187227D02*
X0092463Y0187227D01*
X0092463Y0188826D02*
X0093263Y0188826D01*
X0094254Y0190424D02*
X0091472Y0190424D01*
X0089874Y0192023D02*
X0095852Y0192023D01*
X0099874Y0192023D02*
X0105852Y0192023D01*
X0105958Y0192128D02*
X0103263Y0189434D01*
X0103263Y0185623D01*
X0105958Y0182928D01*
X0109768Y0182928D01*
X0112463Y0185623D01*
X0112463Y0189434D01*
X0109768Y0192128D01*
X0105958Y0192128D01*
X0104254Y0190424D02*
X0101472Y0190424D01*
X0102463Y0188826D02*
X0103263Y0188826D01*
X0103263Y0187227D02*
X0102463Y0187227D01*
X0102463Y0185629D02*
X0103263Y0185629D01*
X0104856Y0184030D02*
X0100870Y0184030D01*
X0101346Y0180833D02*
X0104663Y0180833D01*
X0105958Y0182128D02*
X0103263Y0179434D01*
X0103263Y0175623D01*
X0105958Y0172928D01*
X0109768Y0172928D01*
X0112463Y0175623D01*
X0112463Y0179434D01*
X0109768Y0182128D01*
X0105958Y0182128D01*
X0103263Y0179235D02*
X0102663Y0179235D01*
X0103263Y0177636D02*
X0098063Y0177636D01*
X0098063Y0179235D02*
X0097663Y0179235D01*
X0097663Y0180833D02*
X0098063Y0180833D01*
X0102663Y0176038D02*
X0103263Y0176038D01*
X0104447Y0174439D02*
X0101562Y0174439D01*
X0095762Y0172841D02*
X0079964Y0172841D01*
X0079851Y0172728D02*
X0082663Y0175540D01*
X0082663Y0177328D01*
X0078063Y0177328D01*
X0078063Y0172728D01*
X0079851Y0172728D01*
X0078063Y0172841D02*
X0077663Y0172841D01*
X0077663Y0172728D02*
X0077663Y0177328D01*
X0078063Y0177328D01*
X0078063Y0177728D01*
X0082663Y0177728D01*
X0082663Y0179517D01*
X0079851Y0182328D01*
X0078063Y0182328D01*
X0078063Y0177728D01*
X0077663Y0177728D01*
X0077663Y0177328D01*
X0073063Y0177328D01*
X0073063Y0175540D01*
X0075875Y0172728D01*
X0077663Y0172728D01*
X0077663Y0174439D02*
X0078063Y0174439D01*
X0078063Y0176038D02*
X0077663Y0176038D01*
X0077663Y0177636D02*
X0068063Y0177636D01*
X0068063Y0177728D02*
X0072663Y0177728D01*
X0072663Y0179517D01*
X0069851Y0182328D01*
X0068063Y0182328D01*
X0068063Y0177728D01*
X0068063Y0177328D01*
X0068063Y0172728D01*
X0069851Y0172728D01*
X0072663Y0175540D01*
X0072663Y0177328D01*
X0068063Y0177328D01*
X0067663Y0177328D01*
X0067663Y0172728D01*
X0065875Y0172728D01*
X0063063Y0175540D01*
X0063063Y0177328D01*
X0067663Y0177328D01*
X0067663Y0177728D01*
X0063063Y0177728D01*
X0063063Y0179517D01*
X0065875Y0182328D01*
X0067663Y0182328D01*
X0067663Y0177728D01*
X0068063Y0177728D01*
X0067663Y0177636D02*
X0062463Y0177636D01*
X0062463Y0176038D02*
X0063063Y0176038D01*
X0062463Y0175623D02*
X0059768Y0172928D01*
X0055958Y0172928D01*
X0053263Y0175623D01*
X0053263Y0179434D01*
X0055958Y0182128D01*
X0059768Y0182128D01*
X0062463Y0179434D01*
X0062463Y0175623D01*
X0061279Y0174439D02*
X0064164Y0174439D01*
X0065762Y0172841D02*
X0004400Y0172841D01*
X0004400Y0174439D02*
X0024447Y0174439D01*
X0023263Y0175623D02*
X0025958Y0172928D01*
X0029768Y0172928D01*
X0032463Y0175623D01*
X0032463Y0179434D01*
X0029768Y0182128D01*
X0025958Y0182128D01*
X0023263Y0179434D01*
X0023263Y0175623D01*
X0023263Y0176038D02*
X0004400Y0176038D01*
X0004400Y0177636D02*
X0023263Y0177636D01*
X0023263Y0179235D02*
X0004400Y0179235D01*
X0004400Y0180833D02*
X0024663Y0180833D01*
X0025958Y0182928D02*
X0029768Y0182928D01*
X0032463Y0185623D01*
X0032463Y0189434D01*
X0029768Y0192128D01*
X0025958Y0192128D01*
X0023263Y0189434D01*
X0023263Y0185623D01*
X0025958Y0182928D01*
X0024856Y0184030D02*
X0004400Y0184030D01*
X0004400Y0182432D02*
X0196050Y0182432D01*
X0196050Y0184030D02*
X0122463Y0184030D01*
X0122463Y0183866D02*
X0122463Y0191191D01*
X0121526Y0192128D01*
X0114200Y0192128D01*
X0113263Y0191191D01*
X0113263Y0183866D01*
X0114200Y0182928D01*
X0121526Y0182928D01*
X0122463Y0183866D01*
X0122463Y0185629D02*
X0196050Y0185629D01*
X0196050Y0187227D02*
X0122463Y0187227D01*
X0122463Y0188826D02*
X0196050Y0188826D01*
X0196050Y0190424D02*
X0122463Y0190424D01*
X0121631Y0192023D02*
X0196050Y0192023D01*
X0196050Y0193621D02*
X0004400Y0193621D01*
X0004400Y0192023D02*
X0025852Y0192023D01*
X0024254Y0190424D02*
X0004400Y0190424D01*
X0004400Y0188826D02*
X0023263Y0188826D01*
X0023263Y0187227D02*
X0004400Y0187227D01*
X0004400Y0185629D02*
X0023263Y0185629D01*
X0029874Y0192023D02*
X0035852Y0192023D01*
X0035958Y0192128D02*
X0033263Y0189434D01*
X0033263Y0185623D01*
X0035958Y0182928D01*
X0039768Y0182928D01*
X0042463Y0185623D01*
X0042463Y0189434D01*
X0039768Y0192128D01*
X0035958Y0192128D01*
X0034254Y0190424D02*
X0031472Y0190424D01*
X0032463Y0188826D02*
X0033263Y0188826D01*
X0033263Y0187227D02*
X0032463Y0187227D01*
X0032463Y0185629D02*
X0033263Y0185629D01*
X0034856Y0184030D02*
X0030870Y0184030D01*
X0031063Y0180833D02*
X0034663Y0180833D01*
X0035958Y0182128D02*
X0033263Y0179434D01*
X0033263Y0175623D01*
X0035958Y0172928D01*
X0039768Y0172928D01*
X0042463Y0175623D01*
X0042463Y0179434D01*
X0039768Y0182128D01*
X0035958Y0182128D01*
X0033263Y0179235D02*
X0032463Y0179235D01*
X0032463Y0177636D02*
X0033263Y0177636D01*
X0033263Y0176038D02*
X0032463Y0176038D01*
X0031279Y0174439D02*
X0034447Y0174439D01*
X0041279Y0174439D02*
X0044447Y0174439D01*
X0043263Y0175623D02*
X0045958Y0172928D01*
X0049768Y0172928D01*
X0052463Y0175623D01*
X0052463Y0179434D01*
X0049768Y0182128D01*
X0045958Y0182128D01*
X0043263Y0179434D01*
X0043263Y0175623D01*
X0043263Y0176038D02*
X0042463Y0176038D01*
X0042463Y0177636D02*
X0043263Y0177636D01*
X0043263Y0179235D02*
X0042463Y0179235D01*
X0041063Y0180833D02*
X0044663Y0180833D01*
X0045958Y0182928D02*
X0049768Y0182928D01*
X0052463Y0185623D01*
X0052463Y0189434D01*
X0049768Y0192128D01*
X0045958Y0192128D01*
X0043263Y0189434D01*
X0043263Y0185623D01*
X0045958Y0182928D01*
X0044856Y0184030D02*
X0040870Y0184030D01*
X0042463Y0185629D02*
X0043263Y0185629D01*
X0043263Y0187227D02*
X0042463Y0187227D01*
X0042463Y0188826D02*
X0043263Y0188826D01*
X0044254Y0190424D02*
X0041472Y0190424D01*
X0039874Y0192023D02*
X0045852Y0192023D01*
X0049874Y0192023D02*
X0055852Y0192023D01*
X0055958Y0192128D02*
X0053263Y0189434D01*
X0053263Y0185623D01*
X0055958Y0182928D01*
X0059768Y0182928D01*
X0062463Y0185623D01*
X0062463Y0189434D01*
X0059768Y0192128D01*
X0055958Y0192128D01*
X0054254Y0190424D02*
X0051472Y0190424D01*
X0052463Y0188826D02*
X0053263Y0188826D01*
X0053263Y0187227D02*
X0052463Y0187227D01*
X0052463Y0185629D02*
X0053263Y0185629D01*
X0054856Y0184030D02*
X0050870Y0184030D01*
X0051063Y0180833D02*
X0054663Y0180833D01*
X0053263Y0179235D02*
X0052463Y0179235D01*
X0052463Y0177636D02*
X0053263Y0177636D01*
X0053263Y0176038D02*
X0052463Y0176038D01*
X0051279Y0174439D02*
X0054447Y0174439D01*
X0061063Y0180833D02*
X0064380Y0180833D01*
X0063063Y0179235D02*
X0062463Y0179235D01*
X0060870Y0184030D02*
X0064856Y0184030D01*
X0065958Y0182928D02*
X0069768Y0182928D01*
X0072463Y0185623D01*
X0072463Y0189434D01*
X0069768Y0192128D01*
X0065958Y0192128D01*
X0063263Y0189434D01*
X0063263Y0185623D01*
X0065958Y0182928D01*
X0067663Y0180833D02*
X0068063Y0180833D01*
X0068063Y0179235D02*
X0067663Y0179235D01*
X0067663Y0176038D02*
X0068063Y0176038D01*
X0068063Y0174439D02*
X0067663Y0174439D01*
X0067663Y0172841D02*
X0068063Y0172841D01*
X0069964Y0172841D02*
X0075762Y0172841D01*
X0074164Y0174439D02*
X0071562Y0174439D01*
X0072663Y0176038D02*
X0073063Y0176038D01*
X0073063Y0177728D02*
X0077663Y0177728D01*
X0077663Y0182328D01*
X0075875Y0182328D01*
X0073063Y0179517D01*
X0073063Y0177728D01*
X0073063Y0179235D02*
X0072663Y0179235D01*
X0071346Y0180833D02*
X0074380Y0180833D01*
X0075958Y0182928D02*
X0079768Y0182928D01*
X0082463Y0185623D01*
X0082463Y0189434D01*
X0079768Y0192128D01*
X0075958Y0192128D01*
X0073263Y0189434D01*
X0073263Y0185623D01*
X0075958Y0182928D01*
X0074856Y0184030D02*
X0070870Y0184030D01*
X0072463Y0185629D02*
X0073263Y0185629D01*
X0073263Y0187227D02*
X0072463Y0187227D01*
X0072463Y0188826D02*
X0073263Y0188826D01*
X0074254Y0190424D02*
X0071472Y0190424D01*
X0069874Y0192023D02*
X0075852Y0192023D01*
X0079874Y0192023D02*
X0085852Y0192023D01*
X0084254Y0190424D02*
X0081472Y0190424D01*
X0082463Y0188826D02*
X0083263Y0188826D01*
X0083263Y0187227D02*
X0082463Y0187227D01*
X0082463Y0185629D02*
X0083263Y0185629D01*
X0084856Y0184030D02*
X0080870Y0184030D01*
X0081346Y0180833D02*
X0084663Y0180833D01*
X0083263Y0179235D02*
X0082663Y0179235D01*
X0083263Y0177636D02*
X0078063Y0177636D01*
X0078063Y0179235D02*
X0077663Y0179235D01*
X0077663Y0180833D02*
X0078063Y0180833D01*
X0082663Y0176038D02*
X0083263Y0176038D01*
X0084447Y0174439D02*
X0081562Y0174439D01*
X0091279Y0174439D02*
X0094164Y0174439D01*
X0093063Y0176038D02*
X0092463Y0176038D01*
X0109874Y0192023D02*
X0114095Y0192023D01*
X0113263Y0190424D02*
X0111472Y0190424D01*
X0112463Y0188826D02*
X0113263Y0188826D01*
X0113263Y0187227D02*
X0112463Y0187227D01*
X0112463Y0185629D02*
X0113263Y0185629D01*
X0113263Y0184030D02*
X0110870Y0184030D01*
X0111063Y0180833D02*
X0114663Y0180833D01*
X0115958Y0182128D02*
X0113263Y0179434D01*
X0113263Y0175623D01*
X0115958Y0172928D01*
X0119768Y0172928D01*
X0122463Y0175623D01*
X0122463Y0179434D01*
X0119768Y0182128D01*
X0115958Y0182128D01*
X0113263Y0179235D02*
X0112463Y0179235D01*
X0112463Y0177636D02*
X0113263Y0177636D01*
X0113263Y0176038D02*
X0112463Y0176038D01*
X0111279Y0174439D02*
X0114447Y0174439D01*
X0121279Y0174439D02*
X0196050Y0174439D01*
X0196050Y0176038D02*
X0122463Y0176038D01*
X0122463Y0177636D02*
X0196050Y0177636D01*
X0196050Y0179235D02*
X0122463Y0179235D01*
X0121063Y0180833D02*
X0196050Y0180833D01*
X0196050Y0195220D02*
X0004400Y0195220D01*
X0004400Y0145666D02*
X0024629Y0145666D01*
X0024740Y0144068D02*
X0004400Y0144068D01*
X0004400Y0142469D02*
X0025800Y0142469D01*
X0025567Y0140870D02*
X0004400Y0140870D01*
X0004400Y0139272D02*
X0024632Y0139272D01*
X0024737Y0137673D02*
X0004400Y0137673D01*
X0004400Y0136075D02*
X0025822Y0136075D01*
X0029778Y0136075D02*
X0030668Y0136075D01*
X0033329Y0134476D02*
X0004400Y0134476D01*
X0004400Y0132878D02*
X0034335Y0132878D01*
X0035417Y0131279D02*
X0004400Y0131279D01*
X0033400Y0137800D02*
X0037400Y0133800D01*
X0062463Y0185629D02*
X0063263Y0185629D01*
X0063263Y0187227D02*
X0062463Y0187227D01*
X0062463Y0188826D02*
X0063263Y0188826D01*
X0064254Y0190424D02*
X0061472Y0190424D01*
X0059874Y0192023D02*
X0065852Y0192023D01*
X0020100Y0060945D02*
X0018595Y0060945D01*
X0020193Y0059346D02*
X0020814Y0059346D01*
D11*
X0117863Y0187528D03*
D12*
X0117863Y0177528D03*
X0107863Y0177528D03*
X0097863Y0177528D03*
X0087863Y0177528D03*
X0077863Y0177528D03*
X0067863Y0177528D03*
X0057863Y0177528D03*
X0047863Y0177528D03*
X0037863Y0177528D03*
X0027863Y0177528D03*
X0027863Y0187528D03*
X0037863Y0187528D03*
X0047863Y0187528D03*
X0057863Y0187528D03*
X0067863Y0187528D03*
X0077863Y0187528D03*
X0087863Y0187528D03*
X0097863Y0187528D03*
X0107863Y0187528D03*
D13*
X0016800Y0066800D03*
X0024300Y0061800D03*
X0016800Y0056800D03*
D14*
X0031800Y0124300D03*
X0037400Y0133800D03*
X0033400Y0137800D03*
X0027800Y0138600D03*
X0027800Y0145000D03*
X0036800Y0161800D03*
X0049300Y0156800D03*
X0056800Y0146800D03*
X0071800Y0131800D03*
D15*
X0010308Y0190048D03*
X0190116Y0190066D03*
X0190116Y0010066D03*
X0010116Y0010066D03*
D16*
X0027800Y0138600D02*
X0027800Y0145000D01*
M02*
