G75*
%MOIN*%
%OFA0B0*%
%FSLAX25Y25*%
%IPPOS*%
%LPD*%
%AMOC8*
5,1,8,0,0,1.08239X$1,22.5*
%
%ADD10C,0.00300*%
%ADD11C,0.01600*%
%ADD12C,0.00787*%
%ADD13C,0.01000*%
%ADD14C,0.00600*%
%ADD15C,0.00500*%
%ADD16C,0.00400*%
D10*
X0069590Y0010842D02*
X0070197Y0010236D01*
X0071410Y0010236D01*
X0072017Y0010842D01*
X0072017Y0013269D01*
X0071410Y0013876D01*
X0070197Y0013876D01*
X0069590Y0013269D01*
X0069590Y0010842D01*
X0073215Y0010236D02*
X0075035Y0010236D01*
X0075642Y0010842D01*
X0075642Y0012056D01*
X0075035Y0012662D01*
X0073215Y0012662D01*
X0073215Y0009022D01*
X0076840Y0010842D02*
X0076840Y0012056D01*
X0077447Y0012662D01*
X0078660Y0012662D01*
X0079267Y0012056D01*
X0079267Y0011449D01*
X0076840Y0011449D01*
X0076840Y0010842D02*
X0077447Y0010236D01*
X0078660Y0010236D01*
X0080465Y0010236D02*
X0080465Y0012662D01*
X0082286Y0012662D01*
X0082892Y0012056D01*
X0082892Y0010236D01*
X0085304Y0010236D02*
X0085304Y0013876D01*
X0084091Y0013876D02*
X0086517Y0013876D01*
X0087716Y0013876D02*
X0089536Y0013876D01*
X0090142Y0013269D01*
X0090142Y0012056D01*
X0089536Y0011449D01*
X0087716Y0011449D01*
X0088929Y0011449D02*
X0090142Y0010236D01*
X0091341Y0011449D02*
X0091341Y0013876D01*
X0093768Y0013876D02*
X0093768Y0011449D01*
X0092554Y0010236D01*
X0091341Y0011449D01*
X0094966Y0010842D02*
X0095573Y0010842D01*
X0095573Y0010236D01*
X0094966Y0010236D01*
X0094966Y0010842D01*
X0096779Y0010842D02*
X0096779Y0012056D01*
X0097385Y0012662D01*
X0098599Y0012662D01*
X0099205Y0012056D01*
X0099205Y0010842D01*
X0098599Y0010236D01*
X0097385Y0010236D01*
X0096779Y0010842D01*
X0100404Y0010236D02*
X0100404Y0012662D01*
X0101617Y0012662D02*
X0102224Y0012662D01*
X0101617Y0012662D02*
X0100404Y0011449D01*
X0103425Y0012056D02*
X0103425Y0010842D01*
X0104031Y0010236D01*
X0105851Y0010236D01*
X0105851Y0009629D02*
X0105851Y0012662D01*
X0104031Y0012662D01*
X0103425Y0012056D01*
X0104638Y0009022D02*
X0105245Y0009022D01*
X0105851Y0009629D01*
X0107050Y0010236D02*
X0107656Y0010236D01*
X0107656Y0010842D01*
X0107050Y0010842D01*
X0107050Y0010236D01*
X0108862Y0010842D02*
X0108862Y0012662D01*
X0108862Y0010842D02*
X0109469Y0010236D01*
X0111289Y0010236D01*
X0111289Y0012662D01*
X0112487Y0011449D02*
X0114308Y0012662D01*
X0112487Y0011449D02*
X0114308Y0010236D01*
X0112487Y0010236D02*
X0112487Y0013876D01*
X0087716Y0013876D02*
X0087716Y0010236D01*
X0015587Y0079431D02*
X0014980Y0078824D01*
X0015587Y0079431D02*
X0015587Y0080644D01*
X0014980Y0081251D01*
X0014374Y0081251D01*
X0013767Y0080644D01*
X0013767Y0079431D01*
X0013160Y0078824D01*
X0012554Y0078824D01*
X0011947Y0079431D01*
X0011947Y0080644D01*
X0012554Y0081251D01*
X0011947Y0082449D02*
X0015587Y0082449D01*
X0013767Y0082449D02*
X0013767Y0084876D01*
X0011947Y0084876D02*
X0015587Y0084876D01*
X0015587Y0087288D02*
X0011947Y0087288D01*
X0011947Y0086075D02*
X0011947Y0088501D01*
X0012554Y0089700D02*
X0011947Y0090306D01*
X0011947Y0091520D01*
X0012554Y0092126D01*
X0013160Y0092126D01*
X0015587Y0089700D01*
X0015587Y0092126D01*
X0015587Y0093325D02*
X0015587Y0095752D01*
X0015587Y0094538D02*
X0011947Y0094538D01*
X0013160Y0093325D01*
X0046950Y0096950D02*
X0046950Y0100590D01*
X0048770Y0100590D01*
X0049377Y0099983D01*
X0049377Y0098770D01*
X0048770Y0098163D01*
X0046950Y0098163D01*
X0050575Y0097557D02*
X0051182Y0096950D01*
X0053002Y0096950D01*
X0053002Y0099377D01*
X0054200Y0100590D02*
X0054807Y0100590D01*
X0054807Y0096950D01*
X0054200Y0096950D02*
X0055414Y0096950D01*
X0056617Y0096950D02*
X0057830Y0096950D01*
X0057224Y0096950D02*
X0057224Y0100590D01*
X0056617Y0100590D01*
X0059034Y0099377D02*
X0059034Y0097557D01*
X0059640Y0096950D01*
X0061461Y0096950D01*
X0061461Y0099377D01*
X0062659Y0099377D02*
X0064479Y0099377D01*
X0065086Y0098770D01*
X0065086Y0097557D01*
X0064479Y0096950D01*
X0062659Y0096950D01*
X0062659Y0095737D02*
X0062659Y0099377D01*
X0069909Y0099377D02*
X0069909Y0096950D01*
X0069909Y0098163D02*
X0071123Y0099377D01*
X0071729Y0099377D01*
X0072930Y0098770D02*
X0072930Y0097557D01*
X0073537Y0096950D01*
X0074750Y0096950D01*
X0075357Y0098163D02*
X0072930Y0098163D01*
X0072930Y0098770D02*
X0073537Y0099377D01*
X0074750Y0099377D01*
X0075357Y0098770D01*
X0075357Y0098163D01*
X0076555Y0098770D02*
X0077162Y0099377D01*
X0078982Y0099377D01*
X0080180Y0099377D02*
X0080787Y0099377D01*
X0080787Y0096950D01*
X0080180Y0096950D02*
X0081394Y0096950D01*
X0082597Y0096950D02*
X0084417Y0096950D01*
X0085024Y0097557D01*
X0084417Y0098163D01*
X0083204Y0098163D01*
X0082597Y0098770D01*
X0083204Y0099377D01*
X0085024Y0099377D01*
X0086222Y0099377D02*
X0087436Y0099377D01*
X0086829Y0099983D02*
X0086829Y0097557D01*
X0087436Y0096950D01*
X0088639Y0097557D02*
X0088639Y0098770D01*
X0089246Y0099377D01*
X0090459Y0099377D01*
X0091066Y0098770D01*
X0091066Y0097557D01*
X0090459Y0096950D01*
X0089246Y0096950D01*
X0088639Y0097557D01*
X0092264Y0098163D02*
X0093478Y0099377D01*
X0094084Y0099377D01*
X0095285Y0098770D02*
X0095892Y0098163D01*
X0097105Y0098163D01*
X0097712Y0097557D01*
X0097105Y0096950D01*
X0095285Y0096950D01*
X0095285Y0098770D02*
X0095892Y0099377D01*
X0097712Y0099377D01*
X0092264Y0099377D02*
X0092264Y0096950D01*
X0102535Y0097557D02*
X0103142Y0098163D01*
X0104962Y0098163D01*
X0104962Y0098770D02*
X0104962Y0096950D01*
X0103142Y0096950D01*
X0102535Y0097557D01*
X0103142Y0099377D02*
X0104355Y0099377D01*
X0104962Y0098770D01*
X0106161Y0098163D02*
X0107374Y0099377D01*
X0107981Y0099377D01*
X0109182Y0098770D02*
X0109182Y0097557D01*
X0109788Y0096950D01*
X0111002Y0096950D01*
X0111608Y0098163D02*
X0109182Y0098163D01*
X0109182Y0098770D02*
X0109788Y0099377D01*
X0111002Y0099377D01*
X0111608Y0098770D01*
X0111608Y0098163D01*
X0116432Y0097557D02*
X0117038Y0096950D01*
X0118252Y0096950D01*
X0118859Y0097557D01*
X0118859Y0098770D01*
X0118252Y0099377D01*
X0117038Y0099377D01*
X0116432Y0098770D01*
X0116432Y0097557D01*
X0120057Y0096950D02*
X0120057Y0099377D01*
X0121877Y0099377D01*
X0122484Y0098770D01*
X0122484Y0096950D01*
X0127307Y0096950D02*
X0127307Y0100590D01*
X0128521Y0099377D01*
X0129734Y0100590D01*
X0129734Y0096950D01*
X0130932Y0097557D02*
X0130932Y0099983D01*
X0131539Y0100590D01*
X0132752Y0100590D01*
X0133359Y0099983D01*
X0134557Y0100590D02*
X0134557Y0097557D01*
X0135164Y0096950D01*
X0136378Y0096950D01*
X0136984Y0097557D01*
X0136984Y0100590D01*
X0133359Y0097557D02*
X0132752Y0096950D01*
X0131539Y0096950D01*
X0130932Y0097557D01*
X0141808Y0096950D02*
X0143628Y0096950D01*
X0144234Y0097557D01*
X0144234Y0098163D01*
X0143628Y0098770D01*
X0141808Y0098770D01*
X0143628Y0098770D02*
X0144234Y0099377D01*
X0144234Y0099983D01*
X0143628Y0100590D01*
X0141808Y0100590D01*
X0141808Y0096950D01*
X0145433Y0097557D02*
X0146040Y0096950D01*
X0147253Y0096950D01*
X0147860Y0097557D01*
X0147860Y0098770D01*
X0147253Y0099377D01*
X0146040Y0099377D01*
X0145433Y0098770D01*
X0145433Y0097557D01*
X0149058Y0097557D02*
X0149665Y0098163D01*
X0151485Y0098163D01*
X0151485Y0098770D02*
X0151485Y0096950D01*
X0149665Y0096950D01*
X0149058Y0097557D01*
X0149665Y0099377D02*
X0150878Y0099377D01*
X0151485Y0098770D01*
X0152683Y0098163D02*
X0153896Y0099377D01*
X0154503Y0099377D01*
X0155704Y0098770D02*
X0156311Y0099377D01*
X0158131Y0099377D01*
X0158131Y0100590D02*
X0158131Y0096950D01*
X0156311Y0096950D01*
X0155704Y0097557D01*
X0155704Y0098770D01*
X0152683Y0099377D02*
X0152683Y0096950D01*
X0190039Y0054811D02*
X0189432Y0054204D01*
X0189432Y0052991D01*
X0190039Y0052384D01*
X0190645Y0052384D01*
X0191252Y0052991D01*
X0191252Y0054811D01*
X0192465Y0054811D02*
X0190039Y0054811D01*
X0192465Y0054811D02*
X0193072Y0054204D01*
X0193072Y0052991D01*
X0192465Y0052384D01*
X0193072Y0051186D02*
X0193072Y0048759D01*
X0190645Y0051186D01*
X0190039Y0051186D01*
X0189432Y0050579D01*
X0189432Y0049366D01*
X0190039Y0048759D01*
X0190039Y0047560D02*
X0189432Y0046954D01*
X0189432Y0045740D01*
X0190039Y0045134D01*
X0190039Y0043935D02*
X0192465Y0041509D01*
X0193072Y0042115D01*
X0193072Y0043329D01*
X0192465Y0043935D01*
X0190039Y0043935D01*
X0189432Y0043329D01*
X0189432Y0042115D01*
X0190039Y0041509D01*
X0192465Y0041509D01*
X0192465Y0040310D02*
X0191859Y0040310D01*
X0191252Y0039703D01*
X0191252Y0037883D01*
X0192465Y0037883D01*
X0193072Y0038490D01*
X0193072Y0039703D01*
X0192465Y0040310D01*
X0190039Y0039097D02*
X0191252Y0037883D01*
X0190039Y0039097D02*
X0189432Y0040310D01*
X0193072Y0036685D02*
X0193072Y0034258D01*
X0193072Y0035472D02*
X0189432Y0035472D01*
X0190645Y0034258D01*
X0190039Y0033060D02*
X0192465Y0030633D01*
X0193072Y0031240D01*
X0193072Y0032453D01*
X0192465Y0033060D01*
X0190039Y0033060D01*
X0189432Y0032453D01*
X0189432Y0031240D01*
X0190039Y0030633D01*
X0192465Y0030633D01*
X0193072Y0029435D02*
X0193072Y0027008D01*
X0190645Y0029435D01*
X0190039Y0029435D01*
X0189432Y0028828D01*
X0189432Y0027615D01*
X0190039Y0027008D01*
X0193072Y0045134D02*
X0190645Y0047560D01*
X0190039Y0047560D01*
X0193072Y0047560D02*
X0193072Y0045134D01*
X0106161Y0096950D02*
X0106161Y0099377D01*
X0080787Y0100590D02*
X0080787Y0101197D01*
X0078375Y0098163D02*
X0077162Y0098163D01*
X0076555Y0098770D01*
X0076555Y0096950D02*
X0078375Y0096950D01*
X0078982Y0097557D01*
X0078375Y0098163D01*
X0050575Y0097557D02*
X0050575Y0099377D01*
X0047480Y0166935D02*
X0046266Y0166935D01*
X0046873Y0166935D02*
X0046873Y0170575D01*
X0046266Y0170575D02*
X0047480Y0170575D01*
X0045068Y0169969D02*
X0044461Y0170575D01*
X0042641Y0170575D01*
X0042641Y0166935D01*
X0044461Y0166935D01*
X0045068Y0167542D01*
X0045068Y0169969D01*
X0041443Y0170575D02*
X0039016Y0170575D01*
X0037818Y0170575D02*
X0035391Y0170575D01*
X0035391Y0166935D01*
X0035391Y0168755D02*
X0036604Y0168755D01*
X0040229Y0166935D02*
X0040229Y0170575D01*
X0131514Y0177659D02*
X0131514Y0179479D01*
X0132121Y0180085D01*
X0134547Y0180085D01*
X0135154Y0179479D01*
X0135154Y0177659D01*
X0131514Y0177659D01*
X0132121Y0181284D02*
X0131514Y0181890D01*
X0131514Y0183104D01*
X0132121Y0183711D01*
X0134547Y0183711D01*
X0135154Y0183104D01*
X0135154Y0181890D01*
X0134547Y0181284D01*
X0132121Y0181284D01*
X0133941Y0182497D02*
X0135154Y0183711D01*
X0136514Y0183104D02*
X0136514Y0181890D01*
X0137121Y0181284D01*
X0137727Y0181284D01*
X0138334Y0181890D01*
X0138334Y0183104D01*
X0138941Y0183711D01*
X0139547Y0183711D01*
X0140154Y0183104D01*
X0140154Y0181890D01*
X0139547Y0181284D01*
X0140154Y0180085D02*
X0136514Y0180085D01*
X0136514Y0177659D02*
X0140154Y0180085D01*
X0141514Y0180075D02*
X0141514Y0181895D01*
X0142121Y0182502D01*
X0143334Y0182502D01*
X0143941Y0181895D01*
X0143941Y0180075D01*
X0145154Y0180075D02*
X0141514Y0180075D01*
X0141514Y0178872D02*
X0141514Y0177659D01*
X0141514Y0178265D02*
X0145154Y0178265D01*
X0145154Y0177659D02*
X0145154Y0178872D01*
X0146514Y0178265D02*
X0147121Y0177659D01*
X0147727Y0177659D01*
X0148334Y0178265D01*
X0148334Y0179479D01*
X0148941Y0180085D01*
X0149547Y0180085D01*
X0150154Y0179479D01*
X0150154Y0178265D01*
X0149547Y0177659D01*
X0151514Y0178265D02*
X0151514Y0179479D01*
X0152121Y0180085D01*
X0152121Y0181284D02*
X0154547Y0181284D01*
X0155154Y0181890D01*
X0155154Y0183104D01*
X0154547Y0183711D01*
X0155154Y0184909D02*
X0155154Y0187336D01*
X0155154Y0184909D02*
X0151514Y0184909D01*
X0152121Y0183711D02*
X0151514Y0183104D01*
X0151514Y0181890D01*
X0152121Y0181284D01*
X0150154Y0181284D02*
X0150154Y0183104D01*
X0149547Y0183711D01*
X0147121Y0183711D01*
X0146514Y0183104D01*
X0146514Y0181284D01*
X0150154Y0181284D01*
X0147121Y0180085D02*
X0146514Y0179479D01*
X0146514Y0178265D01*
X0143941Y0181289D02*
X0145154Y0182502D01*
X0144547Y0183701D02*
X0145154Y0184307D01*
X0145154Y0185521D01*
X0144547Y0186127D01*
X0142121Y0186127D01*
X0141514Y0185521D01*
X0141514Y0184307D01*
X0142121Y0183701D01*
X0144547Y0183701D01*
X0143941Y0184914D02*
X0145154Y0186127D01*
X0146514Y0186122D02*
X0147727Y0187336D01*
X0150154Y0187336D01*
X0148334Y0187336D02*
X0148334Y0184909D01*
X0147727Y0184909D02*
X0150154Y0184909D01*
X0147727Y0184909D02*
X0146514Y0186122D01*
X0153334Y0179479D02*
X0153941Y0180085D01*
X0154547Y0180085D01*
X0155154Y0179479D01*
X0155154Y0178265D01*
X0154547Y0177659D01*
X0153334Y0178265D02*
X0153334Y0179479D01*
X0153334Y0178265D02*
X0152727Y0177659D01*
X0152121Y0177659D01*
X0151514Y0178265D01*
X0161514Y0177659D02*
X0161514Y0179479D01*
X0162121Y0180085D01*
X0163334Y0180085D01*
X0163941Y0179479D01*
X0163941Y0177659D01*
X0165154Y0177659D02*
X0161514Y0177659D01*
X0163941Y0178872D02*
X0165154Y0180085D01*
X0164547Y0181284D02*
X0165154Y0181890D01*
X0165154Y0183104D01*
X0164547Y0183711D01*
X0163941Y0183711D01*
X0163334Y0183104D01*
X0163334Y0181890D01*
X0162727Y0181284D01*
X0162121Y0181284D01*
X0161514Y0181890D01*
X0161514Y0183104D01*
X0162121Y0183711D01*
X0161514Y0184909D02*
X0161514Y0187336D01*
X0161514Y0186122D02*
X0165154Y0186122D01*
X0166514Y0184909D02*
X0170154Y0184909D01*
X0168941Y0184909D02*
X0166514Y0187336D01*
X0168334Y0185516D02*
X0170154Y0187336D01*
X0172727Y0187932D02*
X0173334Y0187326D01*
X0174547Y0187326D01*
X0175154Y0187932D01*
X0175154Y0189146D01*
X0174547Y0189752D01*
X0173334Y0189752D01*
X0172727Y0189146D01*
X0172727Y0187932D01*
X0172727Y0186127D02*
X0172727Y0184307D01*
X0173334Y0183701D01*
X0173941Y0184307D01*
X0173941Y0185521D01*
X0174547Y0186127D01*
X0175154Y0185521D01*
X0175154Y0183701D01*
X0175154Y0182497D02*
X0175154Y0181284D01*
X0175154Y0181890D02*
X0172727Y0181890D01*
X0172727Y0181284D01*
X0171514Y0181890D02*
X0170907Y0181890D01*
X0170154Y0181890D02*
X0170154Y0183104D01*
X0169547Y0183711D01*
X0170154Y0181890D02*
X0169547Y0181284D01*
X0167121Y0181284D01*
X0166514Y0181890D01*
X0166514Y0183104D01*
X0167121Y0183711D01*
X0167121Y0180085D02*
X0166514Y0179479D01*
X0166514Y0178265D01*
X0167121Y0177659D01*
X0167727Y0177659D01*
X0168334Y0178265D01*
X0168334Y0179479D01*
X0168941Y0180085D01*
X0169547Y0180085D01*
X0170154Y0179479D01*
X0170154Y0178265D01*
X0169547Y0177659D01*
X0171514Y0177659D02*
X0172727Y0178872D01*
X0171514Y0180085D01*
X0175154Y0180085D01*
X0175154Y0177659D02*
X0171514Y0177659D01*
X0170154Y0167247D02*
X0170154Y0166034D01*
X0170154Y0166641D02*
X0167727Y0166641D01*
X0167727Y0166034D01*
X0167727Y0164836D02*
X0167727Y0163016D01*
X0168334Y0162409D01*
X0168941Y0163016D01*
X0168941Y0164229D01*
X0169547Y0164836D01*
X0170154Y0164229D01*
X0170154Y0162409D01*
X0169547Y0161211D02*
X0168334Y0161211D01*
X0167727Y0160604D01*
X0167727Y0159390D01*
X0168334Y0158784D01*
X0169547Y0158784D01*
X0170154Y0159390D01*
X0170154Y0160604D01*
X0169547Y0161211D01*
X0171514Y0160604D02*
X0171514Y0159390D01*
X0172121Y0158784D01*
X0174547Y0158784D01*
X0175154Y0159390D01*
X0175154Y0160604D01*
X0174547Y0161211D01*
X0174547Y0162409D02*
X0175154Y0163016D01*
X0175154Y0164229D01*
X0174547Y0164836D01*
X0174547Y0162409D02*
X0172121Y0162409D01*
X0171514Y0163016D01*
X0171514Y0164229D01*
X0172121Y0164836D01*
X0172121Y0161211D02*
X0171514Y0160604D01*
X0171514Y0157585D02*
X0173941Y0157585D01*
X0175154Y0156372D01*
X0173941Y0155159D01*
X0171514Y0155159D01*
X0170154Y0155159D02*
X0166514Y0155159D01*
X0167727Y0156372D01*
X0166514Y0157585D01*
X0170154Y0157585D01*
X0165154Y0156979D02*
X0165154Y0155765D01*
X0164547Y0155159D01*
X0162121Y0155159D01*
X0161514Y0155765D01*
X0161514Y0156979D01*
X0162121Y0157585D01*
X0163334Y0157585D02*
X0163334Y0156372D01*
X0163334Y0157585D02*
X0164547Y0157585D01*
X0165154Y0156979D01*
X0165154Y0158784D02*
X0161514Y0158784D01*
X0165154Y0161211D01*
X0161514Y0161211D01*
X0161514Y0162409D02*
X0161514Y0164229D01*
X0162121Y0164836D01*
X0164547Y0164836D01*
X0165154Y0164229D01*
X0165154Y0162409D01*
X0161514Y0162409D01*
X0165907Y0166641D02*
X0166514Y0166641D01*
X0155154Y0164229D02*
X0154547Y0164836D01*
X0152121Y0164836D01*
X0151514Y0164229D01*
X0151514Y0162409D01*
X0155154Y0162409D01*
X0155154Y0164229D01*
X0155154Y0161211D02*
X0151514Y0161211D01*
X0150154Y0161211D02*
X0146514Y0161211D01*
X0146514Y0162409D02*
X0146514Y0164229D01*
X0147121Y0164836D01*
X0149547Y0164836D01*
X0150154Y0164229D01*
X0150154Y0162409D01*
X0146514Y0162409D01*
X0146514Y0158784D02*
X0150154Y0161211D01*
X0150154Y0158784D02*
X0146514Y0158784D01*
X0147121Y0157585D02*
X0146514Y0156979D01*
X0146514Y0155765D01*
X0147121Y0155159D01*
X0149547Y0155159D01*
X0150154Y0155765D01*
X0150154Y0156979D01*
X0149547Y0157585D01*
X0148334Y0157585D01*
X0148334Y0156372D01*
X0151514Y0155765D02*
X0152121Y0155159D01*
X0154547Y0155159D01*
X0155154Y0155765D01*
X0155154Y0156979D01*
X0154547Y0157585D01*
X0153334Y0157585D01*
X0153334Y0156372D01*
X0152121Y0157585D02*
X0151514Y0156979D01*
X0151514Y0155765D01*
X0151514Y0158784D02*
X0155154Y0161211D01*
X0155154Y0158784D02*
X0151514Y0158784D01*
X0140154Y0158784D02*
X0136514Y0161211D01*
X0135154Y0161211D02*
X0131514Y0158784D01*
X0132121Y0157585D02*
X0133334Y0157585D01*
X0133941Y0156979D01*
X0133941Y0155159D01*
X0135154Y0155159D02*
X0131514Y0155159D01*
X0131514Y0156979D01*
X0132121Y0157585D01*
X0133941Y0156372D02*
X0135154Y0157585D01*
X0135154Y0158784D02*
X0131514Y0161211D01*
X0136514Y0158784D02*
X0140154Y0161211D01*
X0140154Y0156372D02*
X0136514Y0156372D01*
X0136514Y0155159D02*
X0136514Y0157585D01*
X0136514Y0177659D02*
X0140154Y0177659D01*
X0136514Y0183104D02*
X0137121Y0183711D01*
X0137121Y0184909D02*
X0137727Y0184909D01*
X0138334Y0185516D01*
X0138334Y0186729D01*
X0138941Y0187336D01*
X0139547Y0187336D01*
X0140154Y0186729D01*
X0140154Y0185516D01*
X0139547Y0184909D01*
X0137121Y0184909D02*
X0136514Y0185516D01*
X0136514Y0186729D01*
X0137121Y0187336D01*
D11*
X0198650Y0001800D02*
X0001800Y0001800D01*
X0001800Y0198650D01*
X0198650Y0198650D01*
X0198650Y0001800D01*
X0060816Y0169300D02*
X0060818Y0169362D01*
X0060824Y0169425D01*
X0060834Y0169486D01*
X0060848Y0169547D01*
X0060865Y0169607D01*
X0060886Y0169666D01*
X0060912Y0169723D01*
X0060940Y0169778D01*
X0060972Y0169832D01*
X0061008Y0169883D01*
X0061046Y0169933D01*
X0061088Y0169979D01*
X0061132Y0170023D01*
X0061180Y0170064D01*
X0061229Y0170102D01*
X0061281Y0170136D01*
X0061335Y0170167D01*
X0061391Y0170195D01*
X0061449Y0170219D01*
X0061508Y0170240D01*
X0061568Y0170256D01*
X0061629Y0170269D01*
X0061691Y0170278D01*
X0061753Y0170283D01*
X0061816Y0170284D01*
X0061878Y0170281D01*
X0061940Y0170274D01*
X0062002Y0170263D01*
X0062062Y0170248D01*
X0062122Y0170230D01*
X0062180Y0170208D01*
X0062237Y0170182D01*
X0062292Y0170152D01*
X0062345Y0170119D01*
X0062396Y0170083D01*
X0062444Y0170044D01*
X0062490Y0170001D01*
X0062533Y0169956D01*
X0062573Y0169908D01*
X0062610Y0169858D01*
X0062644Y0169805D01*
X0062675Y0169751D01*
X0062701Y0169695D01*
X0062725Y0169637D01*
X0062744Y0169577D01*
X0062760Y0169517D01*
X0062772Y0169455D01*
X0062780Y0169394D01*
X0062784Y0169331D01*
X0062784Y0169269D01*
X0062780Y0169206D01*
X0062772Y0169145D01*
X0062760Y0169083D01*
X0062744Y0169023D01*
X0062725Y0168963D01*
X0062701Y0168905D01*
X0062675Y0168849D01*
X0062644Y0168795D01*
X0062610Y0168742D01*
X0062573Y0168692D01*
X0062533Y0168644D01*
X0062490Y0168599D01*
X0062444Y0168556D01*
X0062396Y0168517D01*
X0062345Y0168481D01*
X0062292Y0168448D01*
X0062237Y0168418D01*
X0062180Y0168392D01*
X0062122Y0168370D01*
X0062062Y0168352D01*
X0062002Y0168337D01*
X0061940Y0168326D01*
X0061878Y0168319D01*
X0061816Y0168316D01*
X0061753Y0168317D01*
X0061691Y0168322D01*
X0061629Y0168331D01*
X0061568Y0168344D01*
X0061508Y0168360D01*
X0061449Y0168381D01*
X0061391Y0168405D01*
X0061335Y0168433D01*
X0061281Y0168464D01*
X0061229Y0168498D01*
X0061180Y0168536D01*
X0061132Y0168577D01*
X0061088Y0168621D01*
X0061046Y0168667D01*
X0061008Y0168717D01*
X0060972Y0168768D01*
X0060940Y0168822D01*
X0060912Y0168877D01*
X0060886Y0168934D01*
X0060865Y0168993D01*
X0060848Y0169053D01*
X0060834Y0169114D01*
X0060824Y0169175D01*
X0060818Y0169238D01*
X0060816Y0169300D01*
X0125816Y0186800D02*
X0125818Y0186862D01*
X0125824Y0186925D01*
X0125834Y0186986D01*
X0125848Y0187047D01*
X0125865Y0187107D01*
X0125886Y0187166D01*
X0125912Y0187223D01*
X0125940Y0187278D01*
X0125972Y0187332D01*
X0126008Y0187383D01*
X0126046Y0187433D01*
X0126088Y0187479D01*
X0126132Y0187523D01*
X0126180Y0187564D01*
X0126229Y0187602D01*
X0126281Y0187636D01*
X0126335Y0187667D01*
X0126391Y0187695D01*
X0126449Y0187719D01*
X0126508Y0187740D01*
X0126568Y0187756D01*
X0126629Y0187769D01*
X0126691Y0187778D01*
X0126753Y0187783D01*
X0126816Y0187784D01*
X0126878Y0187781D01*
X0126940Y0187774D01*
X0127002Y0187763D01*
X0127062Y0187748D01*
X0127122Y0187730D01*
X0127180Y0187708D01*
X0127237Y0187682D01*
X0127292Y0187652D01*
X0127345Y0187619D01*
X0127396Y0187583D01*
X0127444Y0187544D01*
X0127490Y0187501D01*
X0127533Y0187456D01*
X0127573Y0187408D01*
X0127610Y0187358D01*
X0127644Y0187305D01*
X0127675Y0187251D01*
X0127701Y0187195D01*
X0127725Y0187137D01*
X0127744Y0187077D01*
X0127760Y0187017D01*
X0127772Y0186955D01*
X0127780Y0186894D01*
X0127784Y0186831D01*
X0127784Y0186769D01*
X0127780Y0186706D01*
X0127772Y0186645D01*
X0127760Y0186583D01*
X0127744Y0186523D01*
X0127725Y0186463D01*
X0127701Y0186405D01*
X0127675Y0186349D01*
X0127644Y0186295D01*
X0127610Y0186242D01*
X0127573Y0186192D01*
X0127533Y0186144D01*
X0127490Y0186099D01*
X0127444Y0186056D01*
X0127396Y0186017D01*
X0127345Y0185981D01*
X0127292Y0185948D01*
X0127237Y0185918D01*
X0127180Y0185892D01*
X0127122Y0185870D01*
X0127062Y0185852D01*
X0127002Y0185837D01*
X0126940Y0185826D01*
X0126878Y0185819D01*
X0126816Y0185816D01*
X0126753Y0185817D01*
X0126691Y0185822D01*
X0126629Y0185831D01*
X0126568Y0185844D01*
X0126508Y0185860D01*
X0126449Y0185881D01*
X0126391Y0185905D01*
X0126335Y0185933D01*
X0126281Y0185964D01*
X0126229Y0185998D01*
X0126180Y0186036D01*
X0126132Y0186077D01*
X0126088Y0186121D01*
X0126046Y0186167D01*
X0126008Y0186217D01*
X0125972Y0186268D01*
X0125940Y0186322D01*
X0125912Y0186377D01*
X0125886Y0186434D01*
X0125865Y0186493D01*
X0125848Y0186553D01*
X0125834Y0186614D01*
X0125824Y0186675D01*
X0125818Y0186738D01*
X0125816Y0186800D01*
X0129300Y0171800D02*
X0176800Y0171800D01*
X0180816Y0176800D02*
X0180818Y0176862D01*
X0180824Y0176925D01*
X0180834Y0176986D01*
X0180848Y0177047D01*
X0180865Y0177107D01*
X0180886Y0177166D01*
X0180912Y0177223D01*
X0180940Y0177278D01*
X0180972Y0177332D01*
X0181008Y0177383D01*
X0181046Y0177433D01*
X0181088Y0177479D01*
X0181132Y0177523D01*
X0181180Y0177564D01*
X0181229Y0177602D01*
X0181281Y0177636D01*
X0181335Y0177667D01*
X0181391Y0177695D01*
X0181449Y0177719D01*
X0181508Y0177740D01*
X0181568Y0177756D01*
X0181629Y0177769D01*
X0181691Y0177778D01*
X0181753Y0177783D01*
X0181816Y0177784D01*
X0181878Y0177781D01*
X0181940Y0177774D01*
X0182002Y0177763D01*
X0182062Y0177748D01*
X0182122Y0177730D01*
X0182180Y0177708D01*
X0182237Y0177682D01*
X0182292Y0177652D01*
X0182345Y0177619D01*
X0182396Y0177583D01*
X0182444Y0177544D01*
X0182490Y0177501D01*
X0182533Y0177456D01*
X0182573Y0177408D01*
X0182610Y0177358D01*
X0182644Y0177305D01*
X0182675Y0177251D01*
X0182701Y0177195D01*
X0182725Y0177137D01*
X0182744Y0177077D01*
X0182760Y0177017D01*
X0182772Y0176955D01*
X0182780Y0176894D01*
X0182784Y0176831D01*
X0182784Y0176769D01*
X0182780Y0176706D01*
X0182772Y0176645D01*
X0182760Y0176583D01*
X0182744Y0176523D01*
X0182725Y0176463D01*
X0182701Y0176405D01*
X0182675Y0176349D01*
X0182644Y0176295D01*
X0182610Y0176242D01*
X0182573Y0176192D01*
X0182533Y0176144D01*
X0182490Y0176099D01*
X0182444Y0176056D01*
X0182396Y0176017D01*
X0182345Y0175981D01*
X0182292Y0175948D01*
X0182237Y0175918D01*
X0182180Y0175892D01*
X0182122Y0175870D01*
X0182062Y0175852D01*
X0182002Y0175837D01*
X0181940Y0175826D01*
X0181878Y0175819D01*
X0181816Y0175816D01*
X0181753Y0175817D01*
X0181691Y0175822D01*
X0181629Y0175831D01*
X0181568Y0175844D01*
X0181508Y0175860D01*
X0181449Y0175881D01*
X0181391Y0175905D01*
X0181335Y0175933D01*
X0181281Y0175964D01*
X0181229Y0175998D01*
X0181180Y0176036D01*
X0181132Y0176077D01*
X0181088Y0176121D01*
X0181046Y0176167D01*
X0181008Y0176217D01*
X0180972Y0176268D01*
X0180940Y0176322D01*
X0180912Y0176377D01*
X0180886Y0176434D01*
X0180865Y0176493D01*
X0180848Y0176553D01*
X0180834Y0176614D01*
X0180824Y0176675D01*
X0180818Y0176738D01*
X0180816Y0176800D01*
D12*
X0173631Y0091041D02*
X0120087Y0037497D01*
X0140067Y0047930D02*
X0140187Y0047917D01*
X0140305Y0047900D01*
X0140423Y0047881D01*
X0140541Y0047858D01*
X0140658Y0047832D01*
X0150599Y0047930D01*
X0151879Y0048226D02*
X0151881Y0048300D01*
X0151887Y0048374D01*
X0151897Y0048447D01*
X0151911Y0048520D01*
X0151928Y0048592D01*
X0151950Y0048662D01*
X0151975Y0048732D01*
X0152004Y0048800D01*
X0152037Y0048866D01*
X0152073Y0048931D01*
X0152113Y0048993D01*
X0152155Y0049054D01*
X0152201Y0049112D01*
X0152250Y0049167D01*
X0152302Y0049220D01*
X0152357Y0049270D01*
X0152414Y0049316D01*
X0152474Y0049360D01*
X0152536Y0049400D01*
X0152600Y0049437D01*
X0152666Y0049471D01*
X0152734Y0049501D01*
X0152803Y0049527D01*
X0152874Y0049550D01*
X0152945Y0049568D01*
X0153018Y0049583D01*
X0153091Y0049594D01*
X0153165Y0049601D01*
X0153239Y0049604D01*
X0153312Y0049603D01*
X0153386Y0049598D01*
X0153460Y0049589D01*
X0153533Y0049576D01*
X0153605Y0049559D01*
X0153676Y0049539D01*
X0153746Y0049514D01*
X0153814Y0049486D01*
X0153881Y0049455D01*
X0153946Y0049419D01*
X0154009Y0049381D01*
X0154070Y0049339D01*
X0154129Y0049293D01*
X0154185Y0049245D01*
X0154238Y0049194D01*
X0154288Y0049140D01*
X0154336Y0049083D01*
X0154380Y0049024D01*
X0154422Y0048962D01*
X0154460Y0048899D01*
X0154494Y0048833D01*
X0154525Y0048766D01*
X0154552Y0048697D01*
X0154575Y0048627D01*
X0154595Y0048556D01*
X0154611Y0048483D01*
X0154623Y0048410D01*
X0154631Y0048337D01*
X0154635Y0048263D01*
X0154635Y0048189D01*
X0154631Y0048115D01*
X0154623Y0048042D01*
X0154611Y0047969D01*
X0154595Y0047896D01*
X0154575Y0047825D01*
X0154552Y0047755D01*
X0154525Y0047686D01*
X0154494Y0047619D01*
X0154460Y0047553D01*
X0154422Y0047490D01*
X0154380Y0047428D01*
X0154336Y0047369D01*
X0154288Y0047312D01*
X0154238Y0047258D01*
X0154185Y0047207D01*
X0154129Y0047159D01*
X0154070Y0047113D01*
X0154009Y0047071D01*
X0153946Y0047033D01*
X0153881Y0046997D01*
X0153814Y0046966D01*
X0153746Y0046938D01*
X0153676Y0046913D01*
X0153605Y0046893D01*
X0153533Y0046876D01*
X0153460Y0046863D01*
X0153386Y0046854D01*
X0153312Y0046849D01*
X0153239Y0046848D01*
X0153165Y0046851D01*
X0153091Y0046858D01*
X0153018Y0046869D01*
X0152945Y0046884D01*
X0152874Y0046902D01*
X0152803Y0046925D01*
X0152734Y0046951D01*
X0152666Y0046981D01*
X0152600Y0047015D01*
X0152536Y0047052D01*
X0152474Y0047092D01*
X0152414Y0047136D01*
X0152357Y0047182D01*
X0152302Y0047232D01*
X0152250Y0047285D01*
X0152201Y0047340D01*
X0152155Y0047398D01*
X0152113Y0047459D01*
X0152073Y0047521D01*
X0152037Y0047586D01*
X0152004Y0047652D01*
X0151975Y0047720D01*
X0151950Y0047790D01*
X0151928Y0047860D01*
X0151911Y0047932D01*
X0151897Y0048005D01*
X0151887Y0048078D01*
X0151881Y0048152D01*
X0151879Y0048226D01*
X0150698Y0048226D02*
X0150700Y0048327D01*
X0150706Y0048428D01*
X0150716Y0048529D01*
X0150730Y0048629D01*
X0150748Y0048728D01*
X0150770Y0048827D01*
X0150795Y0048925D01*
X0150825Y0049022D01*
X0150858Y0049117D01*
X0150895Y0049211D01*
X0150936Y0049304D01*
X0150980Y0049395D01*
X0151028Y0049484D01*
X0151080Y0049571D01*
X0151135Y0049656D01*
X0151193Y0049738D01*
X0151254Y0049819D01*
X0151319Y0049897D01*
X0151386Y0049972D01*
X0151456Y0050044D01*
X0151530Y0050114D01*
X0151606Y0050181D01*
X0151684Y0050245D01*
X0151765Y0050305D01*
X0151848Y0050362D01*
X0151934Y0050416D01*
X0152022Y0050467D01*
X0152111Y0050514D01*
X0152202Y0050558D01*
X0152295Y0050597D01*
X0152390Y0050634D01*
X0152485Y0050666D01*
X0152582Y0050695D01*
X0152681Y0050719D01*
X0152779Y0050740D01*
X0152879Y0050757D01*
X0152979Y0050770D01*
X0153080Y0050779D01*
X0153181Y0050784D01*
X0153282Y0050785D01*
X0153383Y0050782D01*
X0153484Y0050775D01*
X0153585Y0050764D01*
X0153685Y0050749D01*
X0153784Y0050730D01*
X0153883Y0050707D01*
X0153980Y0050681D01*
X0154077Y0050650D01*
X0154172Y0050616D01*
X0154265Y0050578D01*
X0154358Y0050536D01*
X0154448Y0050491D01*
X0154537Y0050442D01*
X0154623Y0050390D01*
X0154707Y0050334D01*
X0154790Y0050275D01*
X0154869Y0050213D01*
X0154947Y0050148D01*
X0155021Y0050080D01*
X0155093Y0050008D01*
X0155162Y0049935D01*
X0155228Y0049858D01*
X0155291Y0049779D01*
X0155351Y0049697D01*
X0155407Y0049613D01*
X0155460Y0049527D01*
X0155510Y0049439D01*
X0155556Y0049349D01*
X0155599Y0049258D01*
X0155638Y0049164D01*
X0155673Y0049069D01*
X0155704Y0048973D01*
X0155732Y0048876D01*
X0155756Y0048778D01*
X0155776Y0048679D01*
X0155792Y0048579D01*
X0155804Y0048478D01*
X0155812Y0048378D01*
X0155816Y0048277D01*
X0155816Y0048175D01*
X0155812Y0048074D01*
X0155804Y0047974D01*
X0155792Y0047873D01*
X0155776Y0047773D01*
X0155756Y0047674D01*
X0155732Y0047576D01*
X0155704Y0047479D01*
X0155673Y0047383D01*
X0155638Y0047288D01*
X0155599Y0047194D01*
X0155556Y0047103D01*
X0155510Y0047013D01*
X0155460Y0046925D01*
X0155407Y0046839D01*
X0155351Y0046755D01*
X0155291Y0046673D01*
X0155228Y0046594D01*
X0155162Y0046517D01*
X0155093Y0046444D01*
X0155021Y0046372D01*
X0154947Y0046304D01*
X0154869Y0046239D01*
X0154790Y0046177D01*
X0154707Y0046118D01*
X0154623Y0046062D01*
X0154536Y0046010D01*
X0154448Y0045961D01*
X0154358Y0045916D01*
X0154265Y0045874D01*
X0154172Y0045836D01*
X0154077Y0045802D01*
X0153980Y0045771D01*
X0153883Y0045745D01*
X0153784Y0045722D01*
X0153685Y0045703D01*
X0153585Y0045688D01*
X0153484Y0045677D01*
X0153383Y0045670D01*
X0153282Y0045667D01*
X0153181Y0045668D01*
X0153080Y0045673D01*
X0152979Y0045682D01*
X0152879Y0045695D01*
X0152779Y0045712D01*
X0152681Y0045733D01*
X0152582Y0045757D01*
X0152485Y0045786D01*
X0152390Y0045818D01*
X0152295Y0045855D01*
X0152202Y0045894D01*
X0152111Y0045938D01*
X0152022Y0045985D01*
X0151934Y0046036D01*
X0151848Y0046090D01*
X0151765Y0046147D01*
X0151684Y0046207D01*
X0151606Y0046271D01*
X0151530Y0046338D01*
X0151456Y0046408D01*
X0151386Y0046480D01*
X0151319Y0046555D01*
X0151254Y0046633D01*
X0151193Y0046714D01*
X0151135Y0046796D01*
X0151080Y0046881D01*
X0151028Y0046968D01*
X0150980Y0047057D01*
X0150936Y0047148D01*
X0150895Y0047241D01*
X0150858Y0047335D01*
X0150825Y0047430D01*
X0150795Y0047527D01*
X0150770Y0047625D01*
X0150748Y0047724D01*
X0150730Y0047823D01*
X0150716Y0047923D01*
X0150706Y0048024D01*
X0150700Y0048125D01*
X0150698Y0048226D01*
X0154536Y0050489D02*
X0157292Y0077655D01*
X0157883Y0077753D02*
X0153158Y0077753D01*
X0145087Y0077753D01*
X0136623Y0077753D01*
X0135048Y0077753D01*
X0135022Y0077755D01*
X0134997Y0077760D01*
X0134973Y0077768D01*
X0134950Y0077779D01*
X0134928Y0077794D01*
X0134909Y0077811D01*
X0134892Y0077830D01*
X0134877Y0077852D01*
X0134866Y0077875D01*
X0134858Y0077899D01*
X0134853Y0077924D01*
X0134851Y0077950D01*
X0134851Y0078245D01*
X0134851Y0078442D01*
X0134853Y0078475D01*
X0134858Y0078508D01*
X0134868Y0078539D01*
X0134880Y0078570D01*
X0134896Y0078599D01*
X0134915Y0078626D01*
X0134937Y0078651D01*
X0134962Y0078673D01*
X0134989Y0078692D01*
X0135018Y0078708D01*
X0135049Y0078720D01*
X0135080Y0078730D01*
X0135113Y0078735D01*
X0135146Y0078737D01*
X0135245Y0078737D01*
X0135343Y0078737D01*
X0158769Y0078737D01*
X0158769Y0078639D01*
X0158767Y0078581D01*
X0158761Y0078523D01*
X0158752Y0078466D01*
X0158739Y0078410D01*
X0158722Y0078354D01*
X0158702Y0078300D01*
X0158678Y0078247D01*
X0158650Y0078196D01*
X0158620Y0078147D01*
X0158586Y0078100D01*
X0158549Y0078055D01*
X0158509Y0078013D01*
X0158467Y0077973D01*
X0158422Y0077936D01*
X0158375Y0077902D01*
X0158326Y0077872D01*
X0158275Y0077844D01*
X0158222Y0077820D01*
X0158168Y0077800D01*
X0158112Y0077783D01*
X0158056Y0077770D01*
X0157999Y0077761D01*
X0157941Y0077755D01*
X0157883Y0077753D01*
X0157686Y0075982D02*
X0157630Y0075972D01*
X0157574Y0075966D01*
X0157517Y0075962D01*
X0157461Y0075962D01*
X0157404Y0075966D01*
X0157348Y0075972D01*
X0157292Y0075982D01*
X0157686Y0075982D02*
X0157744Y0075992D01*
X0157803Y0075998D01*
X0157863Y0076000D01*
X0157922Y0075998D01*
X0157981Y0075993D01*
X0158039Y0075983D01*
X0158097Y0075970D01*
X0158154Y0075953D01*
X0158209Y0075932D01*
X0158263Y0075908D01*
X0158316Y0075880D01*
X0158366Y0075848D01*
X0158414Y0075814D01*
X0158460Y0075777D01*
X0158503Y0075736D01*
X0158544Y0075693D01*
X0158582Y0075647D01*
X0158616Y0075599D01*
X0158647Y0075549D01*
X0158675Y0075496D01*
X0158700Y0075443D01*
X0158721Y0075387D01*
X0158738Y0075330D01*
X0158752Y0075273D01*
X0158761Y0075214D01*
X0158767Y0075155D01*
X0158769Y0075096D01*
X0158769Y0074505D01*
X0158768Y0074505D02*
X0158766Y0074443D01*
X0158760Y0074382D01*
X0158751Y0074321D01*
X0158737Y0074260D01*
X0158720Y0074201D01*
X0158699Y0074143D01*
X0158674Y0074086D01*
X0158646Y0074031D01*
X0158615Y0073978D01*
X0158580Y0073927D01*
X0158542Y0073878D01*
X0158501Y0073831D01*
X0158458Y0073788D01*
X0158411Y0073747D01*
X0158362Y0073709D01*
X0158311Y0073674D01*
X0158258Y0073643D01*
X0158203Y0073615D01*
X0158146Y0073590D01*
X0158088Y0073569D01*
X0158029Y0073552D01*
X0157968Y0073538D01*
X0157907Y0073529D01*
X0157846Y0073523D01*
X0157784Y0073521D01*
X0157095Y0073521D01*
X0156998Y0079624D02*
X0156929Y0079671D01*
X0156859Y0079715D01*
X0156788Y0079757D01*
X0156714Y0079795D01*
X0156639Y0079831D01*
X0156563Y0079863D01*
X0156486Y0079893D01*
X0156407Y0079919D01*
X0156996Y0079623D02*
X0157031Y0079596D01*
X0157063Y0079565D01*
X0157093Y0079533D01*
X0157120Y0079497D01*
X0157144Y0079460D01*
X0157165Y0079421D01*
X0157182Y0079380D01*
X0157196Y0079338D01*
X0157207Y0079295D01*
X0157214Y0079252D01*
X0157217Y0079208D01*
X0157216Y0079163D01*
X0157212Y0079119D01*
X0157204Y0079076D01*
X0157193Y0079033D01*
X0156898Y0079033D02*
X0136524Y0079033D01*
X0136425Y0079033D02*
X0136415Y0079089D01*
X0136409Y0079145D01*
X0136406Y0079201D01*
X0136407Y0079258D01*
X0136411Y0079314D01*
X0136419Y0079370D01*
X0136431Y0079426D01*
X0136446Y0079480D01*
X0136465Y0079534D01*
X0136487Y0079586D01*
X0136512Y0079637D01*
X0136541Y0079685D01*
X0136572Y0079732D01*
X0136607Y0079777D01*
X0136644Y0079820D01*
X0136684Y0079860D01*
X0136727Y0079897D01*
X0136771Y0079932D01*
X0136818Y0079964D01*
X0136867Y0079992D01*
X0136918Y0080018D01*
X0138591Y0080214D02*
X0138690Y0079230D01*
X0138591Y0080805D02*
X0138596Y0080835D01*
X0138605Y0080864D01*
X0138617Y0080891D01*
X0138632Y0080918D01*
X0138650Y0080942D01*
X0138671Y0080963D01*
X0138695Y0080982D01*
X0138721Y0080998D01*
X0138748Y0081010D01*
X0138777Y0081020D01*
X0138807Y0081025D01*
X0138837Y0081027D01*
X0138867Y0081025D01*
X0138897Y0081020D01*
X0138926Y0081010D01*
X0138953Y0080998D01*
X0138979Y0080982D01*
X0139003Y0080963D01*
X0139024Y0080942D01*
X0139042Y0080918D01*
X0139057Y0080891D01*
X0139069Y0080864D01*
X0139078Y0080835D01*
X0139083Y0080805D01*
X0138592Y0080804D02*
X0138584Y0080706D01*
X0138579Y0080608D01*
X0138577Y0080509D01*
X0138579Y0080410D01*
X0138584Y0080312D01*
X0138592Y0080214D01*
X0136426Y0077655D02*
X0139280Y0048718D01*
X0139288Y0048661D01*
X0139299Y0048604D01*
X0139314Y0048549D01*
X0139332Y0048495D01*
X0139354Y0048442D01*
X0139380Y0048390D01*
X0139408Y0048340D01*
X0139440Y0048293D01*
X0139475Y0048247D01*
X0139513Y0048204D01*
X0139554Y0048163D01*
X0139597Y0048125D01*
X0139643Y0048090D01*
X0139690Y0048058D01*
X0139740Y0048030D01*
X0139792Y0048004D01*
X0139845Y0047982D01*
X0139899Y0047964D01*
X0139954Y0047949D01*
X0140011Y0047938D01*
X0140068Y0047930D01*
X0140363Y0047635D02*
X0140363Y0046356D01*
X0140365Y0046310D01*
X0140370Y0046264D01*
X0140379Y0046218D01*
X0140392Y0046173D01*
X0140408Y0046130D01*
X0140427Y0046088D01*
X0140450Y0046047D01*
X0140476Y0046009D01*
X0140505Y0045972D01*
X0140536Y0045938D01*
X0140570Y0045907D01*
X0140607Y0045878D01*
X0140645Y0045852D01*
X0140686Y0045829D01*
X0140728Y0045810D01*
X0140771Y0045794D01*
X0140816Y0045781D01*
X0140862Y0045772D01*
X0140908Y0045767D01*
X0140954Y0045765D01*
X0141150Y0045765D01*
X0141193Y0045767D01*
X0141235Y0045772D01*
X0141277Y0045782D01*
X0141318Y0045795D01*
X0141358Y0045811D01*
X0141396Y0045831D01*
X0141432Y0045854D01*
X0141466Y0045880D01*
X0141498Y0045909D01*
X0141527Y0045941D01*
X0141553Y0045975D01*
X0141576Y0046011D01*
X0141596Y0046049D01*
X0141612Y0046089D01*
X0141625Y0046130D01*
X0141635Y0046172D01*
X0141640Y0046214D01*
X0141642Y0046257D01*
X0141643Y0046257D02*
X0141643Y0047635D01*
X0139281Y0080608D02*
X0140262Y0080714D01*
X0141245Y0080797D01*
X0142230Y0080856D01*
X0143215Y0080891D01*
X0144202Y0080903D01*
X0144694Y0080903D01*
X0144694Y0081198D02*
X0144694Y0080411D01*
X0149221Y0080411D01*
X0149221Y0081198D01*
X0144694Y0081198D01*
X0149320Y0080903D02*
X0151190Y0080804D01*
X0156702Y0078737D02*
X0156704Y0078799D01*
X0156710Y0078862D01*
X0156720Y0078923D01*
X0156734Y0078984D01*
X0156751Y0079044D01*
X0156772Y0079103D01*
X0156798Y0079160D01*
X0156826Y0079215D01*
X0156858Y0079269D01*
X0156894Y0079320D01*
X0156932Y0079370D01*
X0156974Y0079416D01*
X0157018Y0079460D01*
X0157066Y0079501D01*
X0157115Y0079539D01*
X0157167Y0079573D01*
X0157221Y0079604D01*
X0157277Y0079632D01*
X0157335Y0079656D01*
X0157394Y0079677D01*
X0157454Y0079693D01*
X0157515Y0079706D01*
X0157577Y0079715D01*
X0157639Y0079720D01*
X0157702Y0079721D01*
X0157764Y0079718D01*
X0157826Y0079711D01*
X0157888Y0079700D01*
X0157948Y0079685D01*
X0158008Y0079667D01*
X0158066Y0079645D01*
X0158123Y0079619D01*
X0158178Y0079589D01*
X0158231Y0079556D01*
X0158282Y0079520D01*
X0158330Y0079481D01*
X0158376Y0079438D01*
X0158419Y0079393D01*
X0158459Y0079345D01*
X0158496Y0079295D01*
X0158530Y0079242D01*
X0158561Y0079188D01*
X0158587Y0079132D01*
X0158611Y0079074D01*
X0158630Y0079014D01*
X0158646Y0078954D01*
X0158658Y0078892D01*
X0158666Y0078831D01*
X0158670Y0078768D01*
X0158670Y0078706D01*
X0158666Y0078643D01*
X0158658Y0078582D01*
X0158646Y0078520D01*
X0158630Y0078460D01*
X0158611Y0078400D01*
X0158587Y0078342D01*
X0158561Y0078286D01*
X0158530Y0078232D01*
X0158496Y0078179D01*
X0158459Y0078129D01*
X0158419Y0078081D01*
X0158376Y0078036D01*
X0158330Y0077993D01*
X0158282Y0077954D01*
X0158231Y0077918D01*
X0158178Y0077885D01*
X0158123Y0077855D01*
X0158066Y0077829D01*
X0158008Y0077807D01*
X0157948Y0077789D01*
X0157888Y0077774D01*
X0157826Y0077763D01*
X0157764Y0077756D01*
X0157702Y0077753D01*
X0157639Y0077754D01*
X0157577Y0077759D01*
X0157515Y0077768D01*
X0157454Y0077781D01*
X0157394Y0077797D01*
X0157335Y0077818D01*
X0157277Y0077842D01*
X0157221Y0077870D01*
X0157167Y0077901D01*
X0157115Y0077935D01*
X0157066Y0077973D01*
X0157018Y0078014D01*
X0156974Y0078058D01*
X0156932Y0078104D01*
X0156894Y0078154D01*
X0156858Y0078205D01*
X0156826Y0078259D01*
X0156798Y0078314D01*
X0156772Y0078371D01*
X0156751Y0078430D01*
X0156734Y0078490D01*
X0156720Y0078551D01*
X0156710Y0078612D01*
X0156704Y0078675D01*
X0156702Y0078737D01*
X0150796Y0070174D02*
X0150796Y0069486D01*
X0150794Y0069447D01*
X0150788Y0069409D01*
X0150779Y0069372D01*
X0150766Y0069335D01*
X0150749Y0069300D01*
X0150730Y0069267D01*
X0150707Y0069236D01*
X0150681Y0069207D01*
X0150652Y0069181D01*
X0150621Y0069158D01*
X0150588Y0069139D01*
X0150553Y0069122D01*
X0150516Y0069109D01*
X0150479Y0069100D01*
X0150441Y0069094D01*
X0150402Y0069092D01*
X0145776Y0069092D01*
X0145776Y0069091D02*
X0145730Y0069093D01*
X0145684Y0069098D01*
X0145638Y0069107D01*
X0145593Y0069120D01*
X0145550Y0069136D01*
X0145508Y0069155D01*
X0145467Y0069178D01*
X0145429Y0069204D01*
X0145392Y0069233D01*
X0145358Y0069264D01*
X0145327Y0069298D01*
X0145298Y0069335D01*
X0145272Y0069373D01*
X0145249Y0069414D01*
X0145230Y0069456D01*
X0145214Y0069499D01*
X0145201Y0069544D01*
X0145192Y0069590D01*
X0145187Y0069636D01*
X0145185Y0069682D01*
X0145186Y0069682D02*
X0145186Y0069978D01*
X0145186Y0070273D01*
X0139280Y0080607D02*
X0138983Y0080568D01*
X0138687Y0080522D01*
X0138392Y0080470D01*
X0138099Y0080410D01*
X0135343Y0078737D02*
X0135245Y0078737D01*
X0139083Y0079328D02*
X0139098Y0079491D01*
X0139109Y0079655D01*
X0139116Y0079820D01*
X0139120Y0079984D01*
X0139120Y0080148D01*
X0139116Y0080312D01*
X0139109Y0080477D01*
X0139098Y0080641D01*
X0139083Y0080804D01*
X0138100Y0080410D02*
X0137964Y0080380D01*
X0137830Y0080346D01*
X0137697Y0080309D01*
X0137564Y0080268D01*
X0137433Y0080224D01*
X0137302Y0080177D01*
X0137173Y0080127D01*
X0137045Y0080073D01*
X0136919Y0080017D01*
X0120284Y0090844D02*
X0173434Y0037694D01*
X0154437Y0080411D02*
X0153900Y0080507D01*
X0153361Y0080591D01*
X0152820Y0080663D01*
X0152278Y0080723D01*
X0151734Y0080770D01*
X0151189Y0080805D01*
X0154438Y0080411D02*
X0154836Y0080330D01*
X0155232Y0080241D01*
X0155626Y0080142D01*
X0156017Y0080035D01*
X0156407Y0079919D01*
D13*
X0111872Y0039995D02*
X0111872Y0037395D01*
X0108872Y0036895D01*
X0107872Y0034195D02*
X0109572Y0031795D01*
X0107672Y0029895D01*
X0105272Y0031595D01*
X0104272Y0030995D01*
X0102372Y0035495D01*
X0107873Y0034190D02*
X0107969Y0034356D01*
X0108062Y0034523D01*
X0108150Y0034693D01*
X0108234Y0034865D01*
X0108314Y0035038D01*
X0108390Y0035214D01*
X0108462Y0035391D01*
X0108529Y0035570D01*
X0108593Y0035751D01*
X0108652Y0035933D01*
X0108706Y0036116D01*
X0108757Y0036301D01*
X0108803Y0036486D01*
X0108844Y0036673D01*
X0108881Y0036861D01*
X0108872Y0040595D02*
X0111872Y0039995D01*
X0107772Y0043095D02*
X0109572Y0045695D01*
X0107672Y0047495D01*
X0105072Y0045695D01*
X0102572Y0046695D02*
X0102072Y0049895D01*
X0099372Y0049895D01*
X0098872Y0046695D01*
X0096372Y0045695D02*
X0093772Y0047495D01*
X0091872Y0045695D01*
X0093672Y0043095D01*
X0092572Y0040595D02*
X0089572Y0039995D01*
X0089572Y0037395D01*
X0092572Y0036895D01*
X0093572Y0034195D02*
X0091972Y0031795D01*
X0093772Y0029895D01*
X0096172Y0031595D01*
X0097172Y0030995D01*
X0099172Y0035495D01*
X0093606Y0034227D02*
X0093503Y0034403D01*
X0093404Y0034582D01*
X0093310Y0034763D01*
X0093220Y0034946D01*
X0093135Y0035132D01*
X0093054Y0035319D01*
X0092978Y0035509D01*
X0092907Y0035700D01*
X0092840Y0035893D01*
X0092779Y0036088D01*
X0092721Y0036284D01*
X0092669Y0036481D01*
X0092622Y0036679D01*
X0092579Y0036879D01*
X0096406Y0045731D02*
X0096578Y0045831D01*
X0096753Y0045928D01*
X0096929Y0046020D01*
X0097108Y0046108D01*
X0097289Y0046192D01*
X0097472Y0046271D01*
X0097656Y0046346D01*
X0097843Y0046417D01*
X0098031Y0046483D01*
X0098220Y0046544D01*
X0098411Y0046601D01*
X0098604Y0046654D01*
X0098797Y0046701D01*
X0099172Y0035595D02*
X0099065Y0035650D01*
X0098959Y0035707D01*
X0098856Y0035769D01*
X0098754Y0035833D01*
X0098655Y0035901D01*
X0098558Y0035972D01*
X0098463Y0036046D01*
X0098371Y0036123D01*
X0098281Y0036204D01*
X0098194Y0036287D01*
X0098110Y0036373D01*
X0098029Y0036461D01*
X0097951Y0036553D01*
X0097875Y0036647D01*
X0097803Y0036743D01*
X0097734Y0036841D01*
X0097668Y0036942D01*
X0097606Y0037045D01*
X0097547Y0037150D01*
X0097491Y0037256D01*
X0097439Y0037365D01*
X0097391Y0037475D01*
X0097346Y0037587D01*
X0097305Y0037700D01*
X0097268Y0037814D01*
X0097234Y0037930D01*
X0097205Y0038046D01*
X0097179Y0038164D01*
X0097157Y0038282D01*
X0097138Y0038401D01*
X0097124Y0038520D01*
X0097114Y0038640D01*
X0097107Y0038760D01*
X0097105Y0038881D01*
X0097107Y0039001D01*
X0097112Y0039121D01*
X0097121Y0039241D01*
X0097135Y0039361D01*
X0097152Y0039480D01*
X0097173Y0039598D01*
X0097198Y0039716D01*
X0097227Y0039833D01*
X0097260Y0039948D01*
X0097296Y0040063D01*
X0097336Y0040176D01*
X0097380Y0040288D01*
X0097428Y0040399D01*
X0097479Y0040508D01*
X0097533Y0040615D01*
X0097592Y0040720D01*
X0097653Y0040824D01*
X0097718Y0040925D01*
X0097786Y0041024D01*
X0097858Y0041121D01*
X0097932Y0041215D01*
X0098010Y0041307D01*
X0098090Y0041396D01*
X0098174Y0041483D01*
X0098260Y0041567D01*
X0098349Y0041648D01*
X0098441Y0041726D01*
X0098535Y0041801D01*
X0098631Y0041872D01*
X0098730Y0041941D01*
X0098831Y0042006D01*
X0098934Y0042068D01*
X0099039Y0042127D01*
X0099146Y0042182D01*
X0099255Y0042234D01*
X0099365Y0042281D01*
X0099477Y0042326D01*
X0099590Y0042366D01*
X0099705Y0042403D01*
X0099821Y0042436D01*
X0099937Y0042466D01*
X0100055Y0042491D01*
X0100173Y0042513D01*
X0100292Y0042530D01*
X0100412Y0042544D01*
X0100532Y0042554D01*
X0100652Y0042560D01*
X0100772Y0042562D01*
X0100892Y0042560D01*
X0101012Y0042554D01*
X0101132Y0042544D01*
X0101252Y0042530D01*
X0101371Y0042513D01*
X0101489Y0042491D01*
X0101607Y0042466D01*
X0101723Y0042436D01*
X0101839Y0042403D01*
X0101954Y0042366D01*
X0102067Y0042326D01*
X0102179Y0042281D01*
X0102289Y0042234D01*
X0102398Y0042182D01*
X0102505Y0042127D01*
X0102610Y0042068D01*
X0102713Y0042006D01*
X0102814Y0041941D01*
X0102913Y0041872D01*
X0103009Y0041801D01*
X0103103Y0041726D01*
X0103195Y0041648D01*
X0103284Y0041567D01*
X0103370Y0041483D01*
X0103454Y0041396D01*
X0103534Y0041307D01*
X0103612Y0041215D01*
X0103686Y0041121D01*
X0103758Y0041024D01*
X0103826Y0040925D01*
X0103891Y0040824D01*
X0103952Y0040720D01*
X0104011Y0040615D01*
X0104065Y0040508D01*
X0104116Y0040399D01*
X0104164Y0040288D01*
X0104208Y0040176D01*
X0104248Y0040063D01*
X0104284Y0039948D01*
X0104317Y0039833D01*
X0104346Y0039716D01*
X0104371Y0039598D01*
X0104392Y0039480D01*
X0104409Y0039361D01*
X0104423Y0039241D01*
X0104432Y0039121D01*
X0104437Y0039001D01*
X0104439Y0038881D01*
X0104437Y0038760D01*
X0104430Y0038640D01*
X0104420Y0038520D01*
X0104406Y0038401D01*
X0104387Y0038282D01*
X0104365Y0038164D01*
X0104339Y0038046D01*
X0104310Y0037930D01*
X0104276Y0037814D01*
X0104239Y0037700D01*
X0104198Y0037587D01*
X0104153Y0037475D01*
X0104105Y0037365D01*
X0104053Y0037256D01*
X0103997Y0037150D01*
X0103938Y0037045D01*
X0103876Y0036942D01*
X0103810Y0036841D01*
X0103741Y0036743D01*
X0103669Y0036647D01*
X0103593Y0036553D01*
X0103515Y0036461D01*
X0103434Y0036373D01*
X0103350Y0036287D01*
X0103263Y0036204D01*
X0103173Y0036123D01*
X0103081Y0036046D01*
X0102986Y0035972D01*
X0102889Y0035901D01*
X0102790Y0035833D01*
X0102688Y0035769D01*
X0102585Y0035707D01*
X0102479Y0035650D01*
X0102372Y0035595D01*
X0108862Y0040595D02*
X0108812Y0040783D01*
X0108757Y0040970D01*
X0108698Y0041156D01*
X0108634Y0041340D01*
X0108566Y0041523D01*
X0108493Y0041704D01*
X0108416Y0041883D01*
X0108335Y0042060D01*
X0108249Y0042236D01*
X0108160Y0042409D01*
X0108066Y0042580D01*
X0107968Y0042748D01*
X0107866Y0042915D01*
X0107761Y0043078D01*
X0105109Y0045712D02*
X0104944Y0045810D01*
X0104776Y0045904D01*
X0104606Y0045994D01*
X0104434Y0046081D01*
X0104261Y0046163D01*
X0104085Y0046242D01*
X0103908Y0046316D01*
X0103729Y0046386D01*
X0103548Y0046452D01*
X0103366Y0046514D01*
X0103183Y0046572D01*
X0102998Y0046626D01*
X0102812Y0046675D01*
X0102625Y0046720D01*
X0093681Y0043041D02*
X0093581Y0042879D01*
X0093484Y0042714D01*
X0093391Y0042547D01*
X0093303Y0042378D01*
X0093218Y0042208D01*
X0093137Y0042035D01*
X0093060Y0041860D01*
X0092987Y0041684D01*
X0092918Y0041506D01*
X0092853Y0041326D01*
X0092792Y0041146D01*
X0092736Y0040963D01*
X0092683Y0040780D01*
X0092635Y0040595D01*
D14*
X0026833Y0058702D02*
X0026755Y0058460D01*
X0026671Y0058219D01*
X0026582Y0057981D01*
X0026486Y0057745D01*
X0026385Y0057512D01*
X0026279Y0057281D01*
X0026166Y0057052D01*
X0026049Y0056827D01*
X0025925Y0056604D01*
X0025797Y0056384D01*
X0025663Y0056168D01*
X0025524Y0055955D01*
X0025380Y0055745D01*
X0025231Y0055539D01*
X0025076Y0055336D01*
X0024917Y0055138D01*
X0024754Y0054943D01*
X0024585Y0054752D01*
X0024412Y0054566D01*
X0024234Y0054383D01*
X0024053Y0054205D01*
X0023866Y0054032D01*
X0023676Y0053863D01*
X0023482Y0053698D01*
X0023284Y0053539D01*
X0023081Y0053384D01*
X0022876Y0053234D01*
X0022666Y0053090D01*
X0022454Y0052950D01*
X0022238Y0052816D01*
X0022018Y0052686D01*
X0021796Y0052563D01*
X0021571Y0052444D01*
X0021343Y0052331D01*
X0021112Y0052224D01*
X0020878Y0052122D01*
X0020643Y0052026D01*
X0020405Y0051936D01*
X0020165Y0051852D01*
X0019923Y0051773D01*
X0019679Y0051700D01*
X0019433Y0051634D01*
X0019186Y0051573D01*
X0018938Y0051518D01*
X0018688Y0051469D01*
X0018437Y0051426D01*
X0018185Y0051390D01*
X0017933Y0051359D01*
X0017679Y0051335D01*
X0017425Y0051317D01*
X0017171Y0051305D01*
X0016917Y0051299D01*
X0016662Y0051299D01*
X0016408Y0051305D01*
X0016154Y0051318D01*
X0015900Y0051337D01*
X0015647Y0051362D01*
X0015394Y0051393D01*
X0015142Y0051430D01*
X0014891Y0051473D01*
X0014642Y0051522D01*
X0014393Y0051578D01*
X0014146Y0051639D01*
X0013901Y0051706D01*
X0013657Y0051779D01*
X0013415Y0051858D01*
X0013175Y0051943D01*
X0012938Y0052034D01*
X0012702Y0052131D01*
X0012469Y0052233D01*
X0012239Y0052341D01*
X0012011Y0052454D01*
X0011786Y0052573D01*
X0011564Y0052697D01*
X0011344Y0052827D01*
X0011129Y0052961D01*
X0010916Y0053101D01*
X0010707Y0053247D01*
X0010502Y0053397D01*
X0010300Y0053552D01*
X0010300Y0070048D01*
X0015800Y0070674D02*
X0015800Y0072253D01*
X0015800Y0062926D02*
X0015800Y0060674D01*
X0010300Y0070048D02*
X0010502Y0070203D01*
X0010707Y0070353D01*
X0010916Y0070499D01*
X0011129Y0070639D01*
X0011344Y0070773D01*
X0011564Y0070903D01*
X0011786Y0071027D01*
X0012011Y0071146D01*
X0012239Y0071259D01*
X0012469Y0071367D01*
X0012702Y0071469D01*
X0012938Y0071566D01*
X0013175Y0071657D01*
X0013415Y0071742D01*
X0013657Y0071821D01*
X0013901Y0071894D01*
X0014146Y0071961D01*
X0014393Y0072022D01*
X0014642Y0072078D01*
X0014891Y0072127D01*
X0015142Y0072170D01*
X0015394Y0072207D01*
X0015647Y0072238D01*
X0015900Y0072263D01*
X0016154Y0072282D01*
X0016408Y0072295D01*
X0016662Y0072301D01*
X0016917Y0072301D01*
X0017171Y0072295D01*
X0017425Y0072283D01*
X0017679Y0072265D01*
X0017933Y0072241D01*
X0018185Y0072210D01*
X0018437Y0072174D01*
X0018688Y0072131D01*
X0018938Y0072082D01*
X0019186Y0072027D01*
X0019433Y0071966D01*
X0019679Y0071900D01*
X0019923Y0071827D01*
X0020165Y0071748D01*
X0020405Y0071664D01*
X0020643Y0071574D01*
X0020878Y0071478D01*
X0021112Y0071376D01*
X0021343Y0071269D01*
X0021571Y0071156D01*
X0021796Y0071037D01*
X0022018Y0070914D01*
X0022238Y0070784D01*
X0022454Y0070650D01*
X0022666Y0070510D01*
X0022876Y0070366D01*
X0023081Y0070216D01*
X0023284Y0070061D01*
X0023482Y0069902D01*
X0023676Y0069737D01*
X0023866Y0069568D01*
X0024053Y0069395D01*
X0024234Y0069217D01*
X0024412Y0069034D01*
X0024585Y0068848D01*
X0024754Y0068657D01*
X0024917Y0068462D01*
X0025076Y0068264D01*
X0025231Y0068061D01*
X0025380Y0067855D01*
X0025524Y0067645D01*
X0025663Y0067432D01*
X0025797Y0067216D01*
X0025925Y0066996D01*
X0026049Y0066773D01*
X0026166Y0066548D01*
X0026279Y0066319D01*
X0026385Y0066088D01*
X0026486Y0065855D01*
X0026582Y0065619D01*
X0026671Y0065381D01*
X0026755Y0065140D01*
X0026833Y0064898D01*
X0015800Y0052926D02*
X0015800Y0051347D01*
X0025363Y0172528D02*
X0022863Y0175028D01*
X0022863Y0190028D01*
X0025363Y0192528D01*
X0030363Y0192528D01*
X0032863Y0190028D01*
X0032863Y0175028D01*
X0030363Y0172528D01*
X0025363Y0172528D01*
X0032863Y0175028D02*
X0035363Y0172528D01*
X0040363Y0172528D01*
X0042863Y0175028D01*
X0042863Y0190028D01*
X0045363Y0192528D01*
X0050363Y0192528D01*
X0052863Y0190028D01*
X0052863Y0175028D01*
X0050363Y0172528D01*
X0045363Y0172528D01*
X0042863Y0175028D01*
X0052863Y0175028D02*
X0055363Y0172528D01*
X0060363Y0172528D01*
X0062863Y0175028D01*
X0062863Y0190028D01*
X0060363Y0192528D01*
X0055363Y0192528D01*
X0052863Y0190028D01*
X0062863Y0190028D02*
X0065363Y0192528D01*
X0070363Y0192528D01*
X0072863Y0190028D01*
X0072863Y0175028D01*
X0070363Y0172528D01*
X0065363Y0172528D01*
X0062863Y0175028D01*
X0072863Y0175028D02*
X0075363Y0172528D01*
X0080363Y0172528D01*
X0082863Y0175028D01*
X0082863Y0190028D01*
X0080363Y0192528D01*
X0075363Y0192528D01*
X0072863Y0190028D01*
X0082863Y0190028D02*
X0085363Y0192528D01*
X0090363Y0192528D01*
X0092863Y0190028D01*
X0092863Y0175028D01*
X0090363Y0172528D01*
X0085363Y0172528D01*
X0082863Y0175028D01*
X0092863Y0175028D02*
X0095363Y0172528D01*
X0100363Y0172528D01*
X0102863Y0175028D01*
X0102863Y0190028D01*
X0100363Y0192528D01*
X0095363Y0192528D01*
X0092863Y0190028D01*
X0102863Y0190028D02*
X0105363Y0192528D01*
X0110363Y0192528D01*
X0112863Y0190028D01*
X0112863Y0175028D01*
X0110363Y0172528D01*
X0105363Y0172528D01*
X0102863Y0175028D01*
X0112863Y0175028D02*
X0115363Y0172528D01*
X0120363Y0172528D01*
X0122863Y0175028D01*
X0122863Y0190028D01*
X0120363Y0192528D01*
X0115363Y0192528D01*
X0112863Y0190028D01*
X0042863Y0190028D02*
X0040363Y0192528D01*
X0035363Y0192528D01*
X0032863Y0190028D01*
D15*
X0097420Y0164782D02*
X0098921Y0164782D01*
X0098171Y0164782D02*
X0098171Y0160278D01*
X0098921Y0160278D02*
X0097420Y0160278D01*
X0100489Y0160278D02*
X0103492Y0163281D01*
X0103492Y0164032D01*
X0102741Y0164782D01*
X0101240Y0164782D01*
X0100489Y0164032D01*
X0100489Y0160278D02*
X0103492Y0160278D01*
X0105093Y0161029D02*
X0105844Y0160278D01*
X0107345Y0160278D01*
X0108096Y0161029D01*
X0109697Y0159528D02*
X0112700Y0159528D01*
X0114301Y0160278D02*
X0117304Y0160278D01*
X0118905Y0160278D02*
X0121908Y0164782D01*
X0123509Y0164782D02*
X0126512Y0164782D01*
X0125010Y0164782D02*
X0125010Y0160278D01*
X0121908Y0160278D02*
X0118905Y0164782D01*
X0117304Y0164782D02*
X0114301Y0164782D01*
X0114301Y0160278D01*
X0114301Y0162530D02*
X0115802Y0162530D01*
X0108096Y0164032D02*
X0107345Y0164782D01*
X0105844Y0164782D01*
X0105093Y0164032D01*
X0105093Y0161029D01*
X0020737Y0112450D02*
X0012863Y0112450D01*
X0012956Y0112300D02*
X0012958Y0112339D01*
X0012964Y0112378D01*
X0012974Y0112416D01*
X0012987Y0112453D01*
X0013004Y0112488D01*
X0013024Y0112522D01*
X0013048Y0112553D01*
X0013075Y0112582D01*
X0013104Y0112608D01*
X0013136Y0112631D01*
X0013170Y0112651D01*
X0013206Y0112667D01*
X0013243Y0112679D01*
X0013282Y0112688D01*
X0013321Y0112693D01*
X0013360Y0112694D01*
X0013399Y0112691D01*
X0013438Y0112684D01*
X0013475Y0112673D01*
X0013512Y0112659D01*
X0013547Y0112641D01*
X0013580Y0112620D01*
X0013611Y0112595D01*
X0013639Y0112568D01*
X0013664Y0112538D01*
X0013686Y0112505D01*
X0013705Y0112471D01*
X0013720Y0112435D01*
X0013732Y0112397D01*
X0013740Y0112359D01*
X0013744Y0112320D01*
X0013744Y0112280D01*
X0013740Y0112241D01*
X0013732Y0112203D01*
X0013720Y0112165D01*
X0013705Y0112129D01*
X0013686Y0112095D01*
X0013664Y0112062D01*
X0013639Y0112032D01*
X0013611Y0112005D01*
X0013580Y0111980D01*
X0013547Y0111959D01*
X0013512Y0111941D01*
X0013475Y0111927D01*
X0013438Y0111916D01*
X0013399Y0111909D01*
X0013360Y0111906D01*
X0013321Y0111907D01*
X0013282Y0111912D01*
X0013243Y0111921D01*
X0013206Y0111933D01*
X0013170Y0111949D01*
X0013136Y0111969D01*
X0013104Y0111992D01*
X0013075Y0112018D01*
X0013048Y0112047D01*
X0013024Y0112078D01*
X0013004Y0112112D01*
X0012987Y0112147D01*
X0012974Y0112184D01*
X0012964Y0112222D01*
X0012958Y0112261D01*
X0012956Y0112300D01*
X0012863Y0101150D02*
X0020737Y0101150D01*
D16*
X0027758Y0127467D02*
X0027758Y0130536D01*
X0027758Y0132070D02*
X0029292Y0133605D01*
X0027758Y0135140D01*
X0032362Y0135140D01*
X0032362Y0136674D02*
X0027758Y0136674D01*
X0027758Y0138976D01*
X0028525Y0139744D01*
X0030060Y0139744D01*
X0030827Y0138976D01*
X0030827Y0136674D01*
X0029292Y0141278D02*
X0027758Y0142813D01*
X0032362Y0142813D01*
X0032362Y0141278D02*
X0032362Y0144348D01*
X0032362Y0145882D02*
X0032362Y0148952D01*
X0032362Y0150486D02*
X0029292Y0153555D01*
X0028525Y0153555D01*
X0027758Y0152788D01*
X0027758Y0151254D01*
X0028525Y0150486D01*
X0027758Y0147417D02*
X0032362Y0147417D01*
X0032362Y0150486D02*
X0032362Y0153555D01*
X0027758Y0147417D02*
X0029292Y0145882D01*
X0018965Y0145800D02*
X0014635Y0145800D01*
X0014635Y0144800D02*
X0018965Y0144800D01*
X0018965Y0137800D02*
X0014635Y0137800D01*
X0027758Y0132070D02*
X0032362Y0132070D01*
X0032362Y0129001D02*
X0027758Y0129001D01*
M02*
