G75*
%MOIN*%
%OFA0B0*%
%FSLAX25Y25*%
%IPPOS*%
%LPD*%
%AMOC8*
5,1,8,0,0,1.08239X$1,22.5*
%
%ADD10C,0.01600*%
%ADD11R,0.06000X0.06000*%
%ADD12OC8,0.06000*%
%ADD13R,0.02756X0.01121*%
%ADD14R,0.02362X0.01575*%
%ADD15R,0.05906X0.09449*%
%ADD16OC8,0.05200*%
%ADD17C,0.03169*%
%ADD18C,0.16598*%
%ADD19C,0.00800*%
D10*
X0001800Y0001800D02*
X0198650Y0001800D01*
X0198650Y0198650D01*
X0001800Y0198650D01*
X0001800Y0001800D01*
X0004400Y0004400D02*
X0004400Y0196050D01*
X0196050Y0196050D01*
X0196050Y0004400D01*
X0004400Y0004400D01*
X0004400Y0004997D02*
X0196050Y0004997D01*
X0196050Y0006596D02*
X0004400Y0006596D01*
X0004400Y0008194D02*
X0196050Y0008194D01*
X0196050Y0009793D02*
X0004400Y0009793D01*
X0004400Y0011391D02*
X0196050Y0011391D01*
X0196050Y0012990D02*
X0004400Y0012990D01*
X0004400Y0014588D02*
X0196050Y0014588D01*
X0196050Y0016187D02*
X0004400Y0016187D01*
X0004400Y0017785D02*
X0196050Y0017785D01*
X0196050Y0019384D02*
X0004400Y0019384D01*
X0004400Y0020982D02*
X0196050Y0020982D01*
X0196050Y0022581D02*
X0004400Y0022581D01*
X0004400Y0024179D02*
X0196050Y0024179D01*
X0196050Y0025778D02*
X0004400Y0025778D01*
X0004400Y0027376D02*
X0196050Y0027376D01*
X0196050Y0028975D02*
X0004400Y0028975D01*
X0004400Y0030573D02*
X0196050Y0030573D01*
X0196050Y0032172D02*
X0004400Y0032172D01*
X0004400Y0033770D02*
X0196050Y0033770D01*
X0196050Y0035369D02*
X0004400Y0035369D01*
X0004400Y0036967D02*
X0196050Y0036967D01*
X0196050Y0038566D02*
X0004400Y0038566D01*
X0004400Y0040164D02*
X0196050Y0040164D01*
X0196050Y0041763D02*
X0004400Y0041763D01*
X0004400Y0043361D02*
X0196050Y0043361D01*
X0196050Y0044960D02*
X0004400Y0044960D01*
X0004400Y0046558D02*
X0196050Y0046558D01*
X0196050Y0048157D02*
X0004400Y0048157D01*
X0004400Y0049755D02*
X0196050Y0049755D01*
X0196050Y0051354D02*
X0004400Y0051354D01*
X0004400Y0052952D02*
X0014708Y0052952D01*
X0015060Y0052600D02*
X0018540Y0052600D01*
X0021000Y0055060D01*
X0021000Y0058540D01*
X0019467Y0060073D01*
X0020100Y0060706D01*
X0020100Y0060060D01*
X0022560Y0057600D01*
X0026040Y0057600D01*
X0028500Y0060060D01*
X0028500Y0063540D01*
X0027034Y0065006D01*
X0123028Y0161000D01*
X0123028Y0161000D01*
X0124200Y0162172D01*
X0124200Y0180228D01*
X0123028Y0181400D01*
X0121500Y0182928D01*
X0121526Y0182928D01*
X0122463Y0183866D01*
X0122463Y0191191D01*
X0121526Y0192128D01*
X0114200Y0192128D01*
X0113263Y0191191D01*
X0113263Y0183866D01*
X0113329Y0183800D01*
X0110640Y0183800D01*
X0112463Y0185623D01*
X0112463Y0189434D01*
X0109768Y0192128D01*
X0105958Y0192128D01*
X0104129Y0190300D01*
X0099028Y0195400D01*
X0046572Y0195400D01*
X0045400Y0194228D01*
X0041534Y0190363D01*
X0039768Y0192128D01*
X0035958Y0192128D01*
X0033263Y0189434D01*
X0033263Y0185623D01*
X0035958Y0182928D01*
X0039768Y0182928D01*
X0042463Y0185623D01*
X0042463Y0185800D01*
X0042628Y0185800D01*
X0043263Y0186435D01*
X0043263Y0185623D01*
X0045958Y0182928D01*
X0049768Y0182928D01*
X0052463Y0185623D01*
X0052463Y0189434D01*
X0050497Y0191400D01*
X0055229Y0191400D01*
X0053263Y0189434D01*
X0053263Y0185623D01*
X0055029Y0183857D01*
X0055000Y0183828D01*
X0051534Y0180363D01*
X0049768Y0182128D01*
X0045958Y0182128D01*
X0043263Y0179434D01*
X0043263Y0175623D01*
X0043886Y0175000D01*
X0041840Y0175000D01*
X0042463Y0175623D01*
X0042463Y0179434D01*
X0039768Y0182128D01*
X0035958Y0182128D01*
X0033263Y0179434D01*
X0033263Y0175623D01*
X0035829Y0173057D01*
X0016172Y0153400D01*
X0014802Y0153400D01*
X0014614Y0153525D01*
X0014454Y0153492D01*
X0014029Y0153668D01*
X0013075Y0153668D01*
X0012192Y0153303D01*
X0011517Y0152628D01*
X0011152Y0151746D01*
X0011152Y0150933D01*
X0010576Y0150357D01*
X0010576Y0147135D01*
X0010573Y0147133D01*
X0010573Y0146117D01*
X0007680Y0146117D01*
X0006743Y0145180D01*
X0006743Y0141958D01*
X0006741Y0141956D01*
X0006741Y0139509D01*
X0006741Y0138438D01*
X0007678Y0137501D01*
X0010574Y0137501D01*
X0010574Y0136744D01*
X0010572Y0136742D01*
X0010572Y0134295D01*
X0010572Y0133224D01*
X0011509Y0132287D01*
X0015590Y0132287D01*
X0016528Y0133224D01*
X0016528Y0135359D01*
X0016530Y0135361D01*
X0016530Y0137807D01*
X0016530Y0137807D01*
X0016530Y0140411D01*
X0016607Y0140545D01*
X0016730Y0141002D01*
X0016730Y0141800D01*
X0016730Y0142598D01*
X0016607Y0143055D01*
X0016530Y0143189D01*
X0016530Y0144992D01*
X0016529Y0144992D01*
X0016529Y0145750D01*
X0016531Y0145752D01*
X0016531Y0148198D01*
X0016531Y0149400D01*
X0017057Y0149400D01*
X0017057Y0147124D01*
X0017055Y0147122D01*
X0017055Y0144675D01*
X0017055Y0143604D01*
X0017070Y0143589D01*
X0017070Y0141221D01*
X0016993Y0141087D01*
X0016870Y0140629D01*
X0016870Y0139832D01*
X0017065Y0139832D01*
X0017065Y0139831D01*
X0016870Y0139831D01*
X0016870Y0139034D01*
X0016993Y0138576D01*
X0017065Y0138452D01*
X0017065Y0136785D01*
X0017063Y0136782D01*
X0017063Y0134336D01*
X0017063Y0133264D01*
X0018000Y0132327D01*
X0020699Y0132327D01*
X0009800Y0121428D01*
X0009800Y0113086D01*
X0008901Y0112187D01*
X0008901Y0109287D01*
X0009278Y0108910D01*
X0009060Y0108693D01*
X0008823Y0108282D01*
X0008701Y0107824D01*
X0008701Y0106800D01*
X0008701Y0105776D01*
X0008823Y0105318D01*
X0009060Y0104907D01*
X0009278Y0104690D01*
X0008901Y0104313D01*
X0008901Y0101413D01*
X0009838Y0100476D01*
X0013019Y0100476D01*
X0013152Y0100398D01*
X0013610Y0100276D01*
X0016124Y0100276D01*
X0016124Y0106124D01*
X0017476Y0106124D01*
X0017476Y0100276D01*
X0019990Y0100276D01*
X0020448Y0100398D01*
X0020581Y0100476D01*
X0022600Y0100476D01*
X0022600Y0069994D01*
X0021200Y0068594D01*
X0021200Y0068623D01*
X0018623Y0071200D01*
X0016800Y0071200D01*
X0016800Y0066800D01*
X0016800Y0066800D01*
X0016800Y0066800D01*
X0012400Y0066800D01*
X0012400Y0068623D01*
X0014977Y0071200D01*
X0016800Y0071200D01*
X0016800Y0066800D01*
X0012400Y0066800D01*
X0012400Y0064977D01*
X0014977Y0062400D01*
X0015006Y0062400D01*
X0014965Y0062359D01*
X0014600Y0061477D01*
X0014600Y0060540D01*
X0012600Y0058540D01*
X0012600Y0055060D01*
X0015060Y0052600D01*
X0013109Y0054551D02*
X0004400Y0054551D01*
X0004400Y0056149D02*
X0012600Y0056149D01*
X0012600Y0057748D02*
X0004400Y0057748D01*
X0004400Y0059346D02*
X0013407Y0059346D01*
X0014600Y0060945D02*
X0004400Y0060945D01*
X0004400Y0062543D02*
X0014834Y0062543D01*
X0013236Y0064142D02*
X0004400Y0064142D01*
X0004400Y0065740D02*
X0012400Y0065740D01*
X0012400Y0067339D02*
X0004400Y0067339D01*
X0004400Y0068937D02*
X0012715Y0068937D01*
X0014313Y0070536D02*
X0004400Y0070536D01*
X0004400Y0072134D02*
X0022600Y0072134D01*
X0022600Y0070536D02*
X0019287Y0070536D01*
X0020885Y0068937D02*
X0021543Y0068937D01*
X0025000Y0069000D02*
X0025000Y0104200D01*
X0022600Y0106600D01*
X0021918Y0106800D01*
X0022200Y0107000D01*
X0023400Y0108200D01*
X0023800Y0108200D01*
X0043400Y0127800D01*
X0037400Y0133800D01*
X0039628Y0136075D02*
X0048281Y0136075D01*
X0049879Y0137673D02*
X0040102Y0137673D01*
X0039204Y0136499D02*
X0040099Y0135604D01*
X0040584Y0134433D01*
X0040584Y0134010D01*
X0043400Y0131194D01*
X0081641Y0169435D01*
X0082523Y0169800D01*
X0103606Y0169800D01*
X0106734Y0172928D01*
X0105958Y0172928D01*
X0103263Y0175623D01*
X0103263Y0179434D01*
X0105100Y0181271D01*
X0101606Y0184766D01*
X0099768Y0182928D01*
X0095958Y0182928D01*
X0093263Y0185623D01*
X0093263Y0189434D01*
X0095229Y0191400D01*
X0090497Y0191400D01*
X0092463Y0189434D01*
X0092463Y0185623D01*
X0089768Y0182928D01*
X0085958Y0182928D01*
X0083263Y0185623D01*
X0083263Y0189434D01*
X0085229Y0191400D01*
X0080497Y0191400D01*
X0082463Y0189434D01*
X0082463Y0185623D01*
X0079768Y0182928D01*
X0076157Y0182928D01*
X0075400Y0182172D01*
X0075400Y0181854D01*
X0075875Y0182328D01*
X0077663Y0182328D01*
X0077663Y0177728D01*
X0078063Y0177728D01*
X0082663Y0177728D01*
X0082663Y0179517D01*
X0079851Y0182328D01*
X0078063Y0182328D01*
X0078063Y0177728D01*
X0078063Y0177328D01*
X0078063Y0172728D01*
X0079851Y0172728D01*
X0082663Y0175540D01*
X0082663Y0177328D01*
X0078063Y0177328D01*
X0077663Y0177328D01*
X0077663Y0172728D01*
X0075875Y0172728D01*
X0075400Y0173203D01*
X0075400Y0172972D01*
X0074228Y0171800D01*
X0039009Y0136580D01*
X0039204Y0136499D01*
X0040566Y0134476D02*
X0046682Y0134476D01*
X0045084Y0132878D02*
X0041716Y0132878D01*
X0043315Y0131279D02*
X0043485Y0131279D01*
X0043400Y0127800D02*
X0083000Y0167400D01*
X0104600Y0167400D01*
X0114600Y0177400D01*
X0117800Y0177400D01*
X0117863Y0177528D01*
X0114740Y0174146D02*
X0115958Y0172928D01*
X0119768Y0172928D01*
X0120200Y0173360D01*
X0120200Y0163828D01*
X0027400Y0071028D01*
X0027400Y0104677D01*
X0027035Y0105559D01*
X0025794Y0106800D01*
X0045435Y0126441D01*
X0083994Y0165000D01*
X0105077Y0165000D01*
X0105959Y0165365D01*
X0106635Y0166041D01*
X0114740Y0174146D01*
X0113435Y0172841D02*
X0120200Y0172841D01*
X0120200Y0171242D02*
X0111836Y0171242D01*
X0110238Y0169644D02*
X0120200Y0169644D01*
X0120200Y0168045D02*
X0108639Y0168045D01*
X0107041Y0166447D02*
X0120200Y0166447D01*
X0120200Y0164848D02*
X0083842Y0164848D01*
X0082244Y0163250D02*
X0119621Y0163250D01*
X0118023Y0161651D02*
X0080645Y0161651D01*
X0079047Y0160053D02*
X0116424Y0160053D01*
X0114826Y0158454D02*
X0077448Y0158454D01*
X0075850Y0156856D02*
X0113227Y0156856D01*
X0111629Y0155257D02*
X0074251Y0155257D01*
X0072653Y0153659D02*
X0110030Y0153659D01*
X0108432Y0152060D02*
X0071054Y0152060D01*
X0069456Y0150462D02*
X0106833Y0150462D01*
X0105235Y0148863D02*
X0067857Y0148863D01*
X0066259Y0147265D02*
X0103636Y0147265D01*
X0102038Y0145666D02*
X0064660Y0145666D01*
X0063062Y0144068D02*
X0100439Y0144068D01*
X0098841Y0142469D02*
X0061463Y0142469D01*
X0059865Y0140870D02*
X0097242Y0140870D01*
X0095644Y0139272D02*
X0058266Y0139272D01*
X0056668Y0137673D02*
X0094045Y0137673D01*
X0092447Y0136075D02*
X0055069Y0136075D01*
X0053471Y0134476D02*
X0090848Y0134476D01*
X0089250Y0132878D02*
X0051872Y0132878D01*
X0050274Y0131279D02*
X0087651Y0131279D01*
X0086052Y0129681D02*
X0048675Y0129681D01*
X0047077Y0128082D02*
X0084454Y0128082D01*
X0082855Y0126484D02*
X0045478Y0126484D01*
X0043879Y0124885D02*
X0081257Y0124885D01*
X0079658Y0123287D02*
X0042281Y0123287D01*
X0040682Y0121688D02*
X0078060Y0121688D01*
X0076461Y0120090D02*
X0039084Y0120090D01*
X0037485Y0118491D02*
X0074863Y0118491D01*
X0073264Y0116893D02*
X0035887Y0116893D01*
X0034288Y0115294D02*
X0071666Y0115294D01*
X0070067Y0113696D02*
X0032690Y0113696D01*
X0031091Y0112097D02*
X0068469Y0112097D01*
X0066870Y0110499D02*
X0029493Y0110499D01*
X0027894Y0108900D02*
X0065272Y0108900D01*
X0063673Y0107302D02*
X0026296Y0107302D01*
X0026891Y0105703D02*
X0062075Y0105703D01*
X0060476Y0104105D02*
X0027400Y0104105D01*
X0027400Y0102506D02*
X0058878Y0102506D01*
X0057279Y0100908D02*
X0027400Y0100908D01*
X0027400Y0099309D02*
X0055681Y0099309D01*
X0054082Y0097711D02*
X0027400Y0097711D01*
X0027400Y0096112D02*
X0052484Y0096112D01*
X0050885Y0094514D02*
X0027400Y0094514D01*
X0027400Y0092915D02*
X0049287Y0092915D01*
X0047688Y0091317D02*
X0027400Y0091317D01*
X0027400Y0089718D02*
X0046090Y0089718D01*
X0044491Y0088120D02*
X0027400Y0088120D01*
X0027400Y0086521D02*
X0042893Y0086521D01*
X0041294Y0084923D02*
X0027400Y0084923D01*
X0027400Y0083324D02*
X0039696Y0083324D01*
X0038097Y0081726D02*
X0027400Y0081726D01*
X0027400Y0080127D02*
X0036499Y0080127D01*
X0034900Y0078529D02*
X0027400Y0078529D01*
X0027400Y0076930D02*
X0033302Y0076930D01*
X0031703Y0075332D02*
X0027400Y0075332D01*
X0027400Y0073733D02*
X0030105Y0073733D01*
X0028506Y0072134D02*
X0027400Y0072134D01*
X0025000Y0069000D02*
X0017000Y0061000D01*
X0017000Y0057000D01*
X0016800Y0056800D01*
X0020193Y0059346D02*
X0020814Y0059346D01*
X0021000Y0057748D02*
X0022412Y0057748D01*
X0021000Y0056149D02*
X0196050Y0056149D01*
X0196050Y0054551D02*
X0020491Y0054551D01*
X0018892Y0052952D02*
X0196050Y0052952D01*
X0196050Y0057748D02*
X0026188Y0057748D01*
X0027786Y0059346D02*
X0196050Y0059346D01*
X0196050Y0060945D02*
X0028500Y0060945D01*
X0028500Y0062543D02*
X0196050Y0062543D01*
X0196050Y0064142D02*
X0027898Y0064142D01*
X0027769Y0065740D02*
X0196050Y0065740D01*
X0196050Y0067339D02*
X0029367Y0067339D01*
X0030966Y0068937D02*
X0196050Y0068937D01*
X0196050Y0070536D02*
X0032564Y0070536D01*
X0034163Y0072134D02*
X0196050Y0072134D01*
X0196050Y0073733D02*
X0035761Y0073733D01*
X0037360Y0075332D02*
X0196050Y0075332D01*
X0196050Y0076930D02*
X0038958Y0076930D01*
X0040557Y0078529D02*
X0196050Y0078529D01*
X0196050Y0080127D02*
X0042155Y0080127D01*
X0043754Y0081726D02*
X0196050Y0081726D01*
X0196050Y0083324D02*
X0045352Y0083324D01*
X0046951Y0084923D02*
X0196050Y0084923D01*
X0196050Y0086521D02*
X0048550Y0086521D01*
X0050148Y0088120D02*
X0196050Y0088120D01*
X0196050Y0089718D02*
X0051747Y0089718D01*
X0053345Y0091317D02*
X0196050Y0091317D01*
X0196050Y0092915D02*
X0054944Y0092915D01*
X0056542Y0094514D02*
X0196050Y0094514D01*
X0196050Y0096112D02*
X0058141Y0096112D01*
X0059739Y0097711D02*
X0196050Y0097711D01*
X0196050Y0099309D02*
X0061338Y0099309D01*
X0062936Y0100908D02*
X0196050Y0100908D01*
X0196050Y0102506D02*
X0064535Y0102506D01*
X0066133Y0104105D02*
X0196050Y0104105D01*
X0196050Y0105703D02*
X0067732Y0105703D01*
X0069330Y0107302D02*
X0196050Y0107302D01*
X0196050Y0108900D02*
X0070929Y0108900D01*
X0072527Y0110499D02*
X0196050Y0110499D01*
X0196050Y0112097D02*
X0074126Y0112097D01*
X0075724Y0113696D02*
X0196050Y0113696D01*
X0196050Y0115294D02*
X0077323Y0115294D01*
X0078921Y0116893D02*
X0196050Y0116893D01*
X0196050Y0118491D02*
X0080520Y0118491D01*
X0082118Y0120090D02*
X0196050Y0120090D01*
X0196050Y0121688D02*
X0083717Y0121688D01*
X0085315Y0123287D02*
X0196050Y0123287D01*
X0196050Y0124885D02*
X0086914Y0124885D01*
X0088512Y0126484D02*
X0196050Y0126484D01*
X0196050Y0128082D02*
X0090111Y0128082D01*
X0091709Y0129681D02*
X0196050Y0129681D01*
X0196050Y0131279D02*
X0093308Y0131279D01*
X0094906Y0132878D02*
X0196050Y0132878D01*
X0196050Y0134476D02*
X0096505Y0134476D01*
X0098103Y0136075D02*
X0196050Y0136075D01*
X0196050Y0137673D02*
X0099702Y0137673D01*
X0101300Y0139272D02*
X0196050Y0139272D01*
X0196050Y0140870D02*
X0102899Y0140870D01*
X0104497Y0142469D02*
X0196050Y0142469D01*
X0196050Y0144068D02*
X0106096Y0144068D01*
X0107694Y0145666D02*
X0196050Y0145666D01*
X0196050Y0147265D02*
X0109293Y0147265D01*
X0110891Y0148863D02*
X0196050Y0148863D01*
X0196050Y0150462D02*
X0112490Y0150462D01*
X0114088Y0152060D02*
X0196050Y0152060D01*
X0196050Y0153659D02*
X0115687Y0153659D01*
X0117285Y0155257D02*
X0196050Y0155257D01*
X0196050Y0156856D02*
X0118884Y0156856D01*
X0120483Y0158454D02*
X0196050Y0158454D01*
X0196050Y0160053D02*
X0122081Y0160053D01*
X0123680Y0161651D02*
X0196050Y0161651D01*
X0196050Y0163250D02*
X0124200Y0163250D01*
X0124200Y0164848D02*
X0196050Y0164848D01*
X0196050Y0166447D02*
X0124200Y0166447D01*
X0124200Y0168045D02*
X0196050Y0168045D01*
X0196050Y0169644D02*
X0124200Y0169644D01*
X0124200Y0171242D02*
X0196050Y0171242D01*
X0196050Y0172841D02*
X0124200Y0172841D01*
X0124200Y0174439D02*
X0196050Y0174439D01*
X0196050Y0176038D02*
X0124200Y0176038D01*
X0124200Y0177636D02*
X0196050Y0177636D01*
X0196050Y0179235D02*
X0124200Y0179235D01*
X0123595Y0180833D02*
X0196050Y0180833D01*
X0196050Y0182432D02*
X0121997Y0182432D01*
X0122463Y0184030D02*
X0196050Y0184030D01*
X0196050Y0185629D02*
X0122463Y0185629D01*
X0122463Y0187227D02*
X0196050Y0187227D01*
X0196050Y0188826D02*
X0122463Y0188826D01*
X0122463Y0190424D02*
X0196050Y0190424D01*
X0196050Y0192023D02*
X0121631Y0192023D01*
X0114095Y0192023D02*
X0109874Y0192023D01*
X0111472Y0190424D02*
X0113263Y0190424D01*
X0113263Y0188826D02*
X0112463Y0188826D01*
X0112463Y0187227D02*
X0113263Y0187227D01*
X0113263Y0185629D02*
X0112463Y0185629D01*
X0113263Y0184030D02*
X0110870Y0184030D01*
X0104663Y0180833D02*
X0101346Y0180833D01*
X0102663Y0179517D02*
X0099851Y0182328D01*
X0098063Y0182328D01*
X0098063Y0177728D01*
X0102663Y0177728D01*
X0102663Y0179517D01*
X0102663Y0179235D02*
X0103263Y0179235D01*
X0103263Y0177636D02*
X0098063Y0177636D01*
X0098063Y0177728D02*
X0098063Y0177328D01*
X0098063Y0172728D01*
X0099851Y0172728D01*
X0102663Y0175540D01*
X0102663Y0177328D01*
X0098063Y0177328D01*
X0097663Y0177328D01*
X0097663Y0172728D01*
X0095875Y0172728D01*
X0093063Y0175540D01*
X0093063Y0177328D01*
X0097663Y0177328D01*
X0097663Y0177728D01*
X0093063Y0177728D01*
X0093063Y0179517D01*
X0095875Y0182328D01*
X0097663Y0182328D01*
X0097663Y0177728D01*
X0098063Y0177728D01*
X0097663Y0177636D02*
X0092463Y0177636D01*
X0092463Y0176038D02*
X0093063Y0176038D01*
X0092463Y0175623D02*
X0089768Y0172928D01*
X0085958Y0172928D01*
X0083263Y0175623D01*
X0083263Y0179434D01*
X0085958Y0182128D01*
X0089768Y0182128D01*
X0092463Y0179434D01*
X0092463Y0175623D01*
X0091279Y0174439D02*
X0094164Y0174439D01*
X0095762Y0172841D02*
X0079964Y0172841D01*
X0078063Y0172841D02*
X0077663Y0172841D01*
X0077663Y0174439D02*
X0078063Y0174439D01*
X0078063Y0176038D02*
X0077663Y0176038D01*
X0078063Y0177636D02*
X0083263Y0177636D01*
X0083263Y0176038D02*
X0082663Y0176038D01*
X0081562Y0174439D02*
X0084447Y0174439D01*
X0083263Y0179235D02*
X0082663Y0179235D01*
X0081346Y0180833D02*
X0084663Y0180833D01*
X0084856Y0184030D02*
X0080870Y0184030D01*
X0082463Y0185629D02*
X0083263Y0185629D01*
X0083263Y0187227D02*
X0082463Y0187227D01*
X0082463Y0188826D02*
X0083263Y0188826D01*
X0084254Y0190424D02*
X0081472Y0190424D01*
X0075660Y0182432D02*
X0103940Y0182432D01*
X0102341Y0184030D02*
X0100870Y0184030D01*
X0098063Y0180833D02*
X0097663Y0180833D01*
X0097663Y0179235D02*
X0098063Y0179235D01*
X0094380Y0180833D02*
X0091063Y0180833D01*
X0092463Y0179235D02*
X0093063Y0179235D01*
X0094856Y0184030D02*
X0090870Y0184030D01*
X0092463Y0185629D02*
X0093263Y0185629D01*
X0093263Y0187227D02*
X0092463Y0187227D01*
X0092463Y0188826D02*
X0093263Y0188826D01*
X0094254Y0190424D02*
X0091472Y0190424D01*
X0099209Y0195220D02*
X0196050Y0195220D01*
X0196050Y0193621D02*
X0100807Y0193621D01*
X0102406Y0192023D02*
X0105852Y0192023D01*
X0104254Y0190424D02*
X0104004Y0190424D01*
X0103263Y0176038D02*
X0102663Y0176038D01*
X0101562Y0174439D02*
X0104447Y0174439D01*
X0106647Y0172841D02*
X0099964Y0172841D01*
X0098063Y0172841D02*
X0097663Y0172841D01*
X0097663Y0174439D02*
X0098063Y0174439D01*
X0098063Y0176038D02*
X0097663Y0176038D01*
X0105048Y0171242D02*
X0073671Y0171242D01*
X0075269Y0172841D02*
X0075762Y0172841D01*
X0072072Y0169644D02*
X0082145Y0169644D01*
X0080251Y0168045D02*
X0070474Y0168045D01*
X0068875Y0166447D02*
X0078653Y0166447D01*
X0077054Y0164848D02*
X0067277Y0164848D01*
X0065678Y0163250D02*
X0075456Y0163250D01*
X0073857Y0161651D02*
X0064080Y0161651D01*
X0062481Y0160053D02*
X0072259Y0160053D01*
X0070660Y0158454D02*
X0060883Y0158454D01*
X0059284Y0156856D02*
X0069061Y0156856D01*
X0067463Y0155257D02*
X0057686Y0155257D01*
X0056087Y0153659D02*
X0065864Y0153659D01*
X0064266Y0152060D02*
X0054488Y0152060D01*
X0052890Y0150462D02*
X0062667Y0150462D01*
X0061069Y0148863D02*
X0051291Y0148863D01*
X0049693Y0147265D02*
X0059470Y0147265D01*
X0057872Y0145666D02*
X0048094Y0145666D01*
X0046496Y0144068D02*
X0056273Y0144068D01*
X0054675Y0142469D02*
X0044897Y0142469D01*
X0043299Y0140870D02*
X0053076Y0140870D01*
X0051478Y0139272D02*
X0041700Y0139272D01*
X0039241Y0142469D02*
X0032125Y0142469D01*
X0031435Y0143159D02*
X0033610Y0140984D01*
X0034033Y0140984D01*
X0035204Y0140499D01*
X0036099Y0139604D01*
X0036180Y0139409D01*
X0069500Y0172728D01*
X0068063Y0172728D01*
X0068063Y0177328D01*
X0067663Y0177328D01*
X0067663Y0172728D01*
X0065875Y0172728D01*
X0063916Y0174687D01*
X0032628Y0143400D01*
X0031194Y0143400D01*
X0031435Y0143159D01*
X0031435Y0143159D01*
X0033296Y0144068D02*
X0040839Y0144068D01*
X0042438Y0145666D02*
X0034894Y0145666D01*
X0036493Y0147265D02*
X0044036Y0147265D01*
X0045635Y0148863D02*
X0038091Y0148863D01*
X0039690Y0150462D02*
X0047233Y0150462D01*
X0048832Y0152060D02*
X0041288Y0152060D01*
X0042887Y0153659D02*
X0050430Y0153659D01*
X0052029Y0155257D02*
X0044486Y0155257D01*
X0046084Y0156856D02*
X0053627Y0156856D01*
X0055226Y0158454D02*
X0047683Y0158454D01*
X0049281Y0160053D02*
X0056824Y0160053D01*
X0058423Y0161651D02*
X0050880Y0161651D01*
X0052478Y0163250D02*
X0060021Y0163250D01*
X0061620Y0164848D02*
X0054077Y0164848D01*
X0055675Y0166447D02*
X0063218Y0166447D01*
X0064817Y0168045D02*
X0057274Y0168045D01*
X0058872Y0169644D02*
X0066415Y0169644D01*
X0068014Y0171242D02*
X0060471Y0171242D01*
X0062069Y0172841D02*
X0065762Y0172841D01*
X0067663Y0172841D02*
X0068063Y0172841D01*
X0068063Y0174439D02*
X0067663Y0174439D01*
X0067663Y0176038D02*
X0068063Y0176038D01*
X0064164Y0174439D02*
X0063668Y0174439D01*
X0056500Y0172928D02*
X0030972Y0147400D01*
X0029903Y0147400D01*
X0029604Y0147699D01*
X0028433Y0148184D01*
X0027444Y0148184D01*
X0023800Y0151828D01*
X0022628Y0153000D01*
X0021711Y0153000D01*
X0021570Y0153141D01*
X0039428Y0171000D01*
X0050228Y0171000D01*
X0054057Y0174829D01*
X0055958Y0172928D01*
X0056500Y0172928D01*
X0056412Y0172841D02*
X0052069Y0172841D01*
X0053668Y0174439D02*
X0054447Y0174439D01*
X0054814Y0171242D02*
X0050471Y0171242D01*
X0053215Y0169644D02*
X0038072Y0169644D01*
X0036474Y0168045D02*
X0051617Y0168045D01*
X0050018Y0166447D02*
X0034875Y0166447D01*
X0033277Y0164848D02*
X0048420Y0164848D01*
X0046821Y0163250D02*
X0031678Y0163250D01*
X0030080Y0161651D02*
X0045223Y0161651D01*
X0043624Y0160053D02*
X0028481Y0160053D01*
X0026883Y0158454D02*
X0042026Y0158454D01*
X0040427Y0156856D02*
X0025284Y0156856D01*
X0023685Y0155257D02*
X0038829Y0155257D01*
X0037230Y0153659D02*
X0022087Y0153659D01*
X0023568Y0152060D02*
X0035632Y0152060D01*
X0034033Y0150462D02*
X0025167Y0150462D01*
X0026765Y0148863D02*
X0032435Y0148863D01*
X0029400Y0141800D02*
X0033400Y0137800D01*
X0030407Y0136704D02*
X0030701Y0135996D01*
X0031596Y0135101D01*
X0031791Y0135020D01*
X0021372Y0124600D01*
X0021372Y0124600D01*
X0020200Y0123428D01*
X0020200Y0113268D01*
X0019990Y0113324D01*
X0017476Y0113324D01*
X0017476Y0107476D01*
X0016124Y0107476D01*
X0016124Y0106124D01*
X0014663Y0106124D01*
X0014663Y0106800D01*
X0014663Y0107476D01*
X0016124Y0107476D01*
X0016124Y0113324D01*
X0013800Y0113324D01*
X0013800Y0119772D01*
X0028628Y0134600D01*
X0029800Y0135772D01*
X0029800Y0136097D01*
X0030407Y0136704D01*
X0030668Y0136075D02*
X0029800Y0136075D01*
X0028505Y0134476D02*
X0031248Y0134476D01*
X0029650Y0132878D02*
X0026906Y0132878D01*
X0028051Y0131279D02*
X0025308Y0131279D01*
X0026452Y0129681D02*
X0023709Y0129681D01*
X0024854Y0128082D02*
X0022111Y0128082D01*
X0023255Y0126484D02*
X0020512Y0126484D01*
X0021657Y0124885D02*
X0018914Y0124885D01*
X0020200Y0123287D02*
X0017315Y0123287D01*
X0015717Y0121688D02*
X0020200Y0121688D01*
X0020200Y0120090D02*
X0014118Y0120090D01*
X0013800Y0118491D02*
X0020200Y0118491D01*
X0020200Y0116893D02*
X0013800Y0116893D01*
X0013800Y0115294D02*
X0020200Y0115294D01*
X0020200Y0113696D02*
X0013800Y0113696D01*
X0016124Y0112097D02*
X0017476Y0112097D01*
X0017476Y0110499D02*
X0016124Y0110499D01*
X0016124Y0108900D02*
X0017476Y0108900D01*
X0016124Y0107302D02*
X0014663Y0107302D01*
X0014663Y0106800D02*
X0011682Y0106800D01*
X0011682Y0106800D01*
X0014663Y0106800D01*
X0016124Y0105703D02*
X0017476Y0105703D01*
X0017476Y0104105D02*
X0016124Y0104105D01*
X0016124Y0102506D02*
X0017476Y0102506D01*
X0017476Y0100908D02*
X0016124Y0100908D01*
X0022600Y0099309D02*
X0004400Y0099309D01*
X0004400Y0097711D02*
X0022600Y0097711D01*
X0022600Y0096112D02*
X0004400Y0096112D01*
X0004400Y0094514D02*
X0022600Y0094514D01*
X0022600Y0092915D02*
X0004400Y0092915D01*
X0004400Y0091317D02*
X0022600Y0091317D01*
X0022600Y0089718D02*
X0004400Y0089718D01*
X0004400Y0088120D02*
X0022600Y0088120D01*
X0022600Y0086521D02*
X0004400Y0086521D01*
X0004400Y0084923D02*
X0022600Y0084923D01*
X0022600Y0083324D02*
X0004400Y0083324D01*
X0004400Y0081726D02*
X0022600Y0081726D01*
X0022600Y0080127D02*
X0004400Y0080127D01*
X0004400Y0078529D02*
X0022600Y0078529D01*
X0022600Y0076930D02*
X0004400Y0076930D01*
X0004400Y0075332D02*
X0022600Y0075332D01*
X0022600Y0073733D02*
X0004400Y0073733D01*
X0016800Y0070536D02*
X0016800Y0070536D01*
X0016800Y0068937D02*
X0016800Y0068937D01*
X0016800Y0067339D02*
X0016800Y0067339D01*
X0009406Y0100908D02*
X0004400Y0100908D01*
X0004400Y0102506D02*
X0008901Y0102506D01*
X0008901Y0104105D02*
X0004400Y0104105D01*
X0004400Y0105703D02*
X0008720Y0105703D01*
X0008701Y0106800D02*
X0011682Y0106800D01*
X0011682Y0106800D01*
X0008701Y0106800D01*
X0008701Y0107302D02*
X0004400Y0107302D01*
X0004400Y0108900D02*
X0009268Y0108900D01*
X0008901Y0110499D02*
X0004400Y0110499D01*
X0004400Y0112097D02*
X0008901Y0112097D01*
X0009800Y0113696D02*
X0004400Y0113696D01*
X0004400Y0115294D02*
X0009800Y0115294D01*
X0009800Y0116893D02*
X0004400Y0116893D01*
X0004400Y0118491D02*
X0009800Y0118491D01*
X0009800Y0120090D02*
X0004400Y0120090D01*
X0004400Y0121688D02*
X0010060Y0121688D01*
X0011658Y0123287D02*
X0004400Y0123287D01*
X0004400Y0124885D02*
X0013257Y0124885D01*
X0014855Y0126484D02*
X0004400Y0126484D01*
X0004400Y0128082D02*
X0016454Y0128082D01*
X0018052Y0129681D02*
X0004400Y0129681D01*
X0004400Y0131279D02*
X0019651Y0131279D01*
X0020048Y0131957D02*
X0020048Y0132200D01*
X0011400Y0132200D01*
X0006600Y0137000D01*
X0006600Y0141400D01*
X0006800Y0141800D01*
X0013552Y0141800D01*
X0013552Y0143769D02*
X0013552Y0151269D01*
X0011282Y0152060D02*
X0004400Y0152060D01*
X0004400Y0150462D02*
X0010680Y0150462D01*
X0010576Y0148863D02*
X0004400Y0148863D01*
X0004400Y0147265D02*
X0010576Y0147265D01*
X0007229Y0145666D02*
X0004400Y0145666D01*
X0004400Y0144068D02*
X0006743Y0144068D01*
X0006743Y0142469D02*
X0004400Y0142469D01*
X0004400Y0140870D02*
X0006741Y0140870D01*
X0006741Y0139509D02*
X0006741Y0139509D01*
X0006741Y0139272D02*
X0004400Y0139272D01*
X0004400Y0137673D02*
X0007506Y0137673D01*
X0010572Y0136075D02*
X0004400Y0136075D01*
X0004400Y0134476D02*
X0010572Y0134476D01*
X0010572Y0134295D02*
X0010572Y0134295D01*
X0010918Y0132878D02*
X0004400Y0132878D01*
X0015785Y0141800D02*
X0015785Y0141800D01*
X0015785Y0141800D01*
X0016730Y0141800D01*
X0015785Y0141800D01*
X0016730Y0142469D02*
X0017070Y0142469D01*
X0017055Y0144068D02*
X0016530Y0144068D01*
X0017055Y0144675D02*
X0017055Y0144675D01*
X0017055Y0145666D02*
X0016529Y0145666D01*
X0016531Y0147265D02*
X0017057Y0147265D01*
X0016531Y0148198D02*
X0016531Y0148198D01*
X0016531Y0148863D02*
X0017057Y0148863D01*
X0020048Y0151000D02*
X0020048Y0151269D01*
X0020048Y0151000D02*
X0020048Y0143769D01*
X0020048Y0141800D02*
X0029400Y0141800D01*
X0034308Y0140870D02*
X0037642Y0140870D01*
X0034620Y0132191D02*
X0034701Y0131996D01*
X0035596Y0131101D01*
X0036767Y0130616D01*
X0037190Y0130616D01*
X0040006Y0127800D01*
X0024546Y0112340D01*
X0024200Y0112686D01*
X0024200Y0121772D01*
X0034620Y0132191D01*
X0035417Y0131279D02*
X0033708Y0131279D01*
X0032109Y0129681D02*
X0038125Y0129681D01*
X0039723Y0128082D02*
X0030511Y0128082D01*
X0028912Y0126484D02*
X0038690Y0126484D01*
X0037091Y0124885D02*
X0027314Y0124885D01*
X0025715Y0123287D02*
X0035493Y0123287D01*
X0033894Y0121688D02*
X0024200Y0121688D01*
X0024200Y0120090D02*
X0032296Y0120090D01*
X0030697Y0118491D02*
X0024200Y0118491D01*
X0024200Y0116893D02*
X0029099Y0116893D01*
X0027500Y0115294D02*
X0024200Y0115294D01*
X0024200Y0113696D02*
X0025902Y0113696D01*
X0020048Y0132200D02*
X0020048Y0139831D01*
X0016870Y0139272D02*
X0016530Y0139272D01*
X0016530Y0137673D02*
X0017065Y0137673D01*
X0017063Y0136075D02*
X0016530Y0136075D01*
X0016528Y0134476D02*
X0017063Y0134476D01*
X0017063Y0134336D02*
X0017063Y0134336D01*
X0017449Y0132878D02*
X0016182Y0132878D01*
X0016695Y0140870D02*
X0016935Y0140870D01*
X0016430Y0153659D02*
X0014053Y0153659D01*
X0013051Y0153659D02*
X0004400Y0153659D01*
X0004400Y0155257D02*
X0018029Y0155257D01*
X0019627Y0156856D02*
X0004400Y0156856D01*
X0004400Y0158454D02*
X0021226Y0158454D01*
X0022824Y0160053D02*
X0004400Y0160053D01*
X0004400Y0161651D02*
X0024423Y0161651D01*
X0026021Y0163250D02*
X0004400Y0163250D01*
X0004400Y0164848D02*
X0027620Y0164848D01*
X0029218Y0166447D02*
X0004400Y0166447D01*
X0004400Y0168045D02*
X0030817Y0168045D01*
X0032415Y0169644D02*
X0004400Y0169644D01*
X0004400Y0171242D02*
X0034014Y0171242D01*
X0035612Y0172841D02*
X0004400Y0172841D01*
X0004400Y0174439D02*
X0024447Y0174439D01*
X0023263Y0175623D02*
X0025958Y0172928D01*
X0029768Y0172928D01*
X0032463Y0175623D01*
X0032463Y0179434D01*
X0029768Y0182128D01*
X0025958Y0182128D01*
X0023263Y0179434D01*
X0023263Y0175623D01*
X0023263Y0176038D02*
X0004400Y0176038D01*
X0004400Y0177636D02*
X0023263Y0177636D01*
X0023263Y0179235D02*
X0004400Y0179235D01*
X0004400Y0180833D02*
X0024663Y0180833D01*
X0025958Y0182928D02*
X0029768Y0182928D01*
X0032463Y0185623D01*
X0032463Y0189434D01*
X0029768Y0192128D01*
X0025958Y0192128D01*
X0023263Y0189434D01*
X0023263Y0185623D01*
X0025958Y0182928D01*
X0024856Y0184030D02*
X0004400Y0184030D01*
X0004400Y0182432D02*
X0053603Y0182432D01*
X0054856Y0184030D02*
X0050870Y0184030D01*
X0052463Y0185629D02*
X0053263Y0185629D01*
X0053263Y0187227D02*
X0052463Y0187227D01*
X0052463Y0188826D02*
X0053263Y0188826D01*
X0054254Y0190424D02*
X0051472Y0190424D01*
X0046391Y0195220D02*
X0004400Y0195220D01*
X0004400Y0193621D02*
X0044793Y0193621D01*
X0043194Y0192023D02*
X0039874Y0192023D01*
X0041472Y0190424D02*
X0041596Y0190424D01*
X0042463Y0185629D02*
X0043263Y0185629D01*
X0044856Y0184030D02*
X0040870Y0184030D01*
X0041063Y0180833D02*
X0044663Y0180833D01*
X0043263Y0179235D02*
X0042463Y0179235D01*
X0042463Y0177636D02*
X0043263Y0177636D01*
X0043263Y0176038D02*
X0042463Y0176038D01*
X0034447Y0174439D02*
X0031279Y0174439D01*
X0032463Y0176038D02*
X0033263Y0176038D01*
X0033263Y0177636D02*
X0032463Y0177636D01*
X0032463Y0179235D02*
X0033263Y0179235D01*
X0034663Y0180833D02*
X0031063Y0180833D01*
X0030870Y0184030D02*
X0034856Y0184030D01*
X0033263Y0185629D02*
X0032463Y0185629D01*
X0032463Y0187227D02*
X0033263Y0187227D01*
X0033263Y0188826D02*
X0032463Y0188826D01*
X0031472Y0190424D02*
X0034254Y0190424D01*
X0035852Y0192023D02*
X0029874Y0192023D01*
X0025852Y0192023D02*
X0004400Y0192023D01*
X0004400Y0190424D02*
X0024254Y0190424D01*
X0023263Y0188826D02*
X0004400Y0188826D01*
X0004400Y0187227D02*
X0023263Y0187227D01*
X0023263Y0185629D02*
X0004400Y0185629D01*
X0051063Y0180833D02*
X0052005Y0180833D01*
X0077663Y0180833D02*
X0078063Y0180833D01*
X0078063Y0179235D02*
X0077663Y0179235D01*
D11*
X0117863Y0187528D03*
D12*
X0117863Y0177528D03*
X0107863Y0177528D03*
X0097863Y0177528D03*
X0087863Y0177528D03*
X0077863Y0177528D03*
X0067863Y0177528D03*
X0057863Y0177528D03*
X0047863Y0177528D03*
X0037863Y0177528D03*
X0027863Y0177528D03*
X0027863Y0187528D03*
X0037863Y0187528D03*
X0047863Y0187528D03*
X0057863Y0187528D03*
X0067863Y0187528D03*
X0077863Y0187528D03*
X0087863Y0187528D03*
X0097863Y0187528D03*
X0107863Y0187528D03*
D13*
X0023876Y0143957D03*
X0023876Y0142882D03*
X0023876Y0141798D03*
X0023874Y0140733D03*
X0023874Y0139661D03*
X0022245Y0141798D03*
X0020048Y0141800D03*
X0020048Y0139831D03*
X0020043Y0138783D03*
X0020043Y0137708D03*
X0020043Y0136624D03*
X0020040Y0135559D03*
X0020040Y0134488D03*
X0013550Y0134447D03*
X0013550Y0135519D03*
X0013552Y0136584D03*
X0013552Y0137668D03*
X0013552Y0138743D03*
X0013552Y0139831D03*
X0013552Y0141800D03*
X0011596Y0141800D03*
X0009721Y0141798D03*
X0009719Y0140733D03*
X0009719Y0139661D03*
X0009721Y0142882D03*
X0009721Y0143957D03*
X0013552Y0143769D03*
X0013551Y0144838D03*
X0013551Y0145910D03*
X0013553Y0146975D03*
X0013553Y0148059D03*
X0013553Y0149133D03*
X0020035Y0149122D03*
X0020035Y0148048D03*
X0020035Y0146964D03*
X0020033Y0145898D03*
X0020033Y0144827D03*
X0020048Y0143769D03*
D14*
X0021918Y0110737D03*
X0021918Y0106800D03*
X0021918Y0102863D03*
X0011682Y0102863D03*
X0011682Y0106800D03*
X0011682Y0110737D03*
D15*
X0016800Y0106800D03*
D16*
X0016800Y0066800D03*
X0024300Y0061800D03*
X0016800Y0056800D03*
D17*
X0031800Y0124300D03*
X0037400Y0133800D03*
X0033400Y0137800D03*
X0027800Y0138600D03*
X0027800Y0145000D03*
X0036800Y0161800D03*
X0049300Y0156800D03*
X0056800Y0146800D03*
X0071800Y0131800D03*
D18*
X0010308Y0190048D03*
X0190116Y0190066D03*
X0190116Y0010066D03*
X0010116Y0010066D03*
D19*
X0024300Y0061800D02*
X0024600Y0061800D01*
X0024600Y0065400D01*
X0122200Y0163000D01*
X0122200Y0179400D01*
X0119800Y0181800D01*
X0107400Y0181800D01*
X0103400Y0185800D01*
X0103400Y0188200D01*
X0098200Y0193400D01*
X0047400Y0193400D01*
X0041800Y0187800D01*
X0038200Y0187800D01*
X0037863Y0187528D01*
X0038600Y0173000D02*
X0049400Y0173000D01*
X0053400Y0177000D01*
X0053400Y0179400D01*
X0057000Y0183000D01*
X0059400Y0183000D01*
X0063400Y0187000D01*
X0063400Y0189400D01*
X0065800Y0191800D01*
X0073800Y0191800D01*
X0077800Y0187800D01*
X0077863Y0187528D01*
X0077800Y0187400D01*
X0073400Y0183000D01*
X0073400Y0173800D01*
X0022200Y0122600D01*
X0022200Y0111000D01*
X0021918Y0110737D01*
X0011800Y0111000D02*
X0011800Y0120600D01*
X0027800Y0136600D01*
X0027800Y0138600D01*
X0027800Y0145000D02*
X0027800Y0145400D01*
X0031800Y0145400D01*
X0062200Y0175800D01*
X0062200Y0178200D01*
X0067800Y0183800D01*
X0067800Y0187400D01*
X0067863Y0187528D01*
X0038600Y0173000D02*
X0017000Y0151400D01*
X0014200Y0151400D01*
X0013552Y0151269D01*
X0020048Y0151000D02*
X0021800Y0151000D01*
X0027800Y0145000D01*
X0011800Y0111000D02*
X0011682Y0110737D01*
M02*
