%
M48
M72
T01C0.01969
T02C0.03200
T03C0.04000
T04C0.12598
%
T01
X33400Y137800
X37400Y133800
X36800Y161800
X49300Y156800
X56800Y146800
X31800Y124300
X71800Y131800
X27800Y138600
X27800Y145000
T02
X16800Y66800
X24300Y61800
X16800Y56800
T03
X117863Y187528
X117863Y177528
X107863Y187528
X107863Y177528
X97863Y187528
X97863Y177528
X87863Y187528
X87863Y177528
X77863Y187528
X77863Y177528
X67863Y187528
X67863Y177528
X57863Y187528
X57863Y177528
X47863Y187528
X47863Y177528
X37863Y187528
X37863Y177528
X27863Y187528
X27863Y177528
T04
X10308Y190048
X190116Y190066
X190116Y10066
X10116Y10066
M30
