%
M48
M72
T01C0.01969
T02C0.03200
T03C0.03937
T04C0.04000
T05C0.04700
T06C0.05118
T07C0.05906
T08C0.11811
%
T01
X274930Y272063
X311347Y235646
X154851Y120980
X273454Y185941
X262627Y175114
X48552Y57988
X216859Y321276
X246387Y321276
X285265Y55528
X257213Y135252
X256800Y73126
X231800Y73126
X236800Y58126
X176800Y68126
X204300Y120626
X114300Y155626
X219300Y185626
X216800Y255626
X224300Y203126
X241800Y88126
X296800Y128126
X141800Y70626
X116800Y75626
X171800Y108126
X149300Y63126
X204300Y105626
X221800Y118126
X289300Y173126
X274300Y195626
X281800Y188126
X301800Y228126
X294300Y233126
X264103Y262220
X246387Y130331
X257706Y171177
X297076Y238106
X238513Y29937
X322174Y173638
X307410Y188402
X183887Y91453
X280343Y243028
X236052Y153953
X239989Y157890
X285265Y212516
X124339Y88992
X186839Y120980
X239005Y173146
X318729Y190370
X303473Y32398
X273454Y76689
X266072Y67339
X273454Y158382
X172568Y80134
X279359Y130331
X273454Y124425
X283788Y161335
X267056Y62909
X263611Y189386
X270501Y189386
X201603Y73736
X210461Y92929
X270501Y127378
X290678Y162811
X273454Y164287
X257706Y158874
X269024Y164287
X265087Y132791
X260658Y141157
X294123Y210547
X253276Y171177
X198650Y85547
X268040Y153953
X270009Y173146
X283296Y146571
X281328Y180035
X42646Y89484
X288217Y191354
X205540Y211531
X233099Y157398
X295599Y167732
X249831Y167732
X253276Y133283
X187824Y133283
X167646Y130823
X261150Y130331
X158296Y80134
X134674Y56512
X205540Y180035
X269024Y158382
X315776Y184465
X287725Y155429
X194713Y97850
X180442Y83579
X102194Y52083
X244300Y195626
X246800Y233126
X241800Y233126
X239300Y228126
X239300Y223126
X239300Y218126
X239300Y213126
X239300Y208126
X251800Y233126
X256800Y233126
X261800Y233126
X266800Y233126
X266800Y228126
X266800Y223126
X266800Y218126
X266800Y213126
X266800Y208126
X266800Y203126
X239300Y198126
X261800Y195626
X256918Y195606
X239300Y203126
X266800Y198126
X176997Y44701
X160265Y26984
T02
X382784Y70676
X382784Y80576
T03
X181800Y251787
X371800Y241787
X181800Y261787
X181800Y271787
X181800Y281787
X181800Y291787
X181800Y241787
X181800Y231787
X181800Y221787
X181800Y205787
X181800Y195787
X181800Y185787
X181800Y175787
X181800Y165787
X181800Y155787
X181800Y145787
X181800Y135787
X371800Y251787
X371800Y261787
X371800Y271787
X371800Y281787
X371800Y291787
X371800Y221787
X371800Y211787
X371800Y201787
X371800Y191787
X371800Y181787
X371800Y171787
X181800Y125787
X181800Y115787
X371800Y161787
X371800Y151787
T04
X341800Y323126
X162863Y46354
X162863Y36354
X152863Y46354
X152863Y36354
X142863Y46354
X142863Y36354
X132863Y46354
X132863Y36354
X122863Y46354
X122863Y36354
X112863Y46354
X112863Y36354
X102863Y46354
X102863Y36354
X92863Y46354
X92863Y36354
X82863Y46354
X82863Y36354
X72863Y46354
X72863Y36354
X9300Y60626
X46800Y45626
X46800Y35626
X36800Y45626
X36800Y35626
X26800Y45626
X26800Y35626
T05
X31249Y313126
X11564Y313126
X72706Y313126
X53020Y313126
T06
X152942Y325626
X152942Y295626
X92942Y295626
X102942Y325626
T07
X51209Y274898
X98454Y274898
X51209Y80449
X70894Y80449
T08
X388946Y49346
X388946Y303559
X7115Y175606
X388946Y175606
M30
