G75*
%MOIN*%
%OFA0B0*%
%FSLAX25Y25*%
%IPPOS*%
%LPD*%
%AMOC8*
5,1,8,0,0,1.08239X$1,22.5*
%
%ADD10C,0.01600*%
%ADD11C,0.00000*%
%ADD12C,0.12211*%
%ADD13OC8,0.08900*%
%ADD14C,0.07450*%
%ADD15R,0.06400X0.06400*%
%ADD16OC8,0.06400*%
%ADD17R,0.01975X0.07132*%
%ADD18R,0.08274X0.06148*%
%ADD19R,0.05813X0.10243*%
%ADD20C,0.00500*%
%ADD21C,0.01120*%
%ADD22R,0.09258X0.09258*%
%ADD23C,0.08077*%
%ADD24OC8,0.07000*%
D10*
X0001800Y0018126D02*
X0395501Y0018126D01*
X0395501Y0333087D01*
X0001800Y0333087D01*
X0001800Y0018126D01*
D11*
X0001209Y0175606D02*
X0001211Y0175759D01*
X0001217Y0175913D01*
X0001227Y0176066D01*
X0001241Y0176218D01*
X0001259Y0176371D01*
X0001281Y0176522D01*
X0001306Y0176673D01*
X0001336Y0176824D01*
X0001370Y0176974D01*
X0001407Y0177122D01*
X0001448Y0177270D01*
X0001493Y0177416D01*
X0001542Y0177562D01*
X0001595Y0177706D01*
X0001651Y0177848D01*
X0001711Y0177989D01*
X0001775Y0178129D01*
X0001842Y0178267D01*
X0001913Y0178403D01*
X0001988Y0178537D01*
X0002065Y0178669D01*
X0002147Y0178799D01*
X0002231Y0178927D01*
X0002319Y0179053D01*
X0002410Y0179176D01*
X0002504Y0179297D01*
X0002602Y0179415D01*
X0002702Y0179531D01*
X0002806Y0179644D01*
X0002912Y0179755D01*
X0003021Y0179863D01*
X0003133Y0179968D01*
X0003247Y0180069D01*
X0003365Y0180168D01*
X0003484Y0180264D01*
X0003606Y0180357D01*
X0003731Y0180446D01*
X0003858Y0180533D01*
X0003987Y0180615D01*
X0004118Y0180695D01*
X0004251Y0180771D01*
X0004386Y0180844D01*
X0004523Y0180913D01*
X0004662Y0180978D01*
X0004802Y0181040D01*
X0004944Y0181098D01*
X0005087Y0181153D01*
X0005232Y0181204D01*
X0005378Y0181251D01*
X0005525Y0181294D01*
X0005673Y0181333D01*
X0005822Y0181369D01*
X0005972Y0181400D01*
X0006123Y0181428D01*
X0006274Y0181452D01*
X0006427Y0181472D01*
X0006579Y0181488D01*
X0006732Y0181500D01*
X0006885Y0181508D01*
X0007038Y0181512D01*
X0007192Y0181512D01*
X0007345Y0181508D01*
X0007498Y0181500D01*
X0007651Y0181488D01*
X0007803Y0181472D01*
X0007956Y0181452D01*
X0008107Y0181428D01*
X0008258Y0181400D01*
X0008408Y0181369D01*
X0008557Y0181333D01*
X0008705Y0181294D01*
X0008852Y0181251D01*
X0008998Y0181204D01*
X0009143Y0181153D01*
X0009286Y0181098D01*
X0009428Y0181040D01*
X0009568Y0180978D01*
X0009707Y0180913D01*
X0009844Y0180844D01*
X0009979Y0180771D01*
X0010112Y0180695D01*
X0010243Y0180615D01*
X0010372Y0180533D01*
X0010499Y0180446D01*
X0010624Y0180357D01*
X0010746Y0180264D01*
X0010865Y0180168D01*
X0010983Y0180069D01*
X0011097Y0179968D01*
X0011209Y0179863D01*
X0011318Y0179755D01*
X0011424Y0179644D01*
X0011528Y0179531D01*
X0011628Y0179415D01*
X0011726Y0179297D01*
X0011820Y0179176D01*
X0011911Y0179053D01*
X0011999Y0178927D01*
X0012083Y0178799D01*
X0012165Y0178669D01*
X0012242Y0178537D01*
X0012317Y0178403D01*
X0012388Y0178267D01*
X0012455Y0178129D01*
X0012519Y0177989D01*
X0012579Y0177848D01*
X0012635Y0177706D01*
X0012688Y0177562D01*
X0012737Y0177416D01*
X0012782Y0177270D01*
X0012823Y0177122D01*
X0012860Y0176974D01*
X0012894Y0176824D01*
X0012924Y0176673D01*
X0012949Y0176522D01*
X0012971Y0176371D01*
X0012989Y0176218D01*
X0013003Y0176066D01*
X0013013Y0175913D01*
X0013019Y0175759D01*
X0013021Y0175606D01*
X0013019Y0175453D01*
X0013013Y0175299D01*
X0013003Y0175146D01*
X0012989Y0174994D01*
X0012971Y0174841D01*
X0012949Y0174690D01*
X0012924Y0174539D01*
X0012894Y0174388D01*
X0012860Y0174238D01*
X0012823Y0174090D01*
X0012782Y0173942D01*
X0012737Y0173796D01*
X0012688Y0173650D01*
X0012635Y0173506D01*
X0012579Y0173364D01*
X0012519Y0173223D01*
X0012455Y0173083D01*
X0012388Y0172945D01*
X0012317Y0172809D01*
X0012242Y0172675D01*
X0012165Y0172543D01*
X0012083Y0172413D01*
X0011999Y0172285D01*
X0011911Y0172159D01*
X0011820Y0172036D01*
X0011726Y0171915D01*
X0011628Y0171797D01*
X0011528Y0171681D01*
X0011424Y0171568D01*
X0011318Y0171457D01*
X0011209Y0171349D01*
X0011097Y0171244D01*
X0010983Y0171143D01*
X0010865Y0171044D01*
X0010746Y0170948D01*
X0010624Y0170855D01*
X0010499Y0170766D01*
X0010372Y0170679D01*
X0010243Y0170597D01*
X0010112Y0170517D01*
X0009979Y0170441D01*
X0009844Y0170368D01*
X0009707Y0170299D01*
X0009568Y0170234D01*
X0009428Y0170172D01*
X0009286Y0170114D01*
X0009143Y0170059D01*
X0008998Y0170008D01*
X0008852Y0169961D01*
X0008705Y0169918D01*
X0008557Y0169879D01*
X0008408Y0169843D01*
X0008258Y0169812D01*
X0008107Y0169784D01*
X0007956Y0169760D01*
X0007803Y0169740D01*
X0007651Y0169724D01*
X0007498Y0169712D01*
X0007345Y0169704D01*
X0007192Y0169700D01*
X0007038Y0169700D01*
X0006885Y0169704D01*
X0006732Y0169712D01*
X0006579Y0169724D01*
X0006427Y0169740D01*
X0006274Y0169760D01*
X0006123Y0169784D01*
X0005972Y0169812D01*
X0005822Y0169843D01*
X0005673Y0169879D01*
X0005525Y0169918D01*
X0005378Y0169961D01*
X0005232Y0170008D01*
X0005087Y0170059D01*
X0004944Y0170114D01*
X0004802Y0170172D01*
X0004662Y0170234D01*
X0004523Y0170299D01*
X0004386Y0170368D01*
X0004251Y0170441D01*
X0004118Y0170517D01*
X0003987Y0170597D01*
X0003858Y0170679D01*
X0003731Y0170766D01*
X0003606Y0170855D01*
X0003484Y0170948D01*
X0003365Y0171044D01*
X0003247Y0171143D01*
X0003133Y0171244D01*
X0003021Y0171349D01*
X0002912Y0171457D01*
X0002806Y0171568D01*
X0002702Y0171681D01*
X0002602Y0171797D01*
X0002504Y0171915D01*
X0002410Y0172036D01*
X0002319Y0172159D01*
X0002231Y0172285D01*
X0002147Y0172413D01*
X0002065Y0172543D01*
X0001988Y0172675D01*
X0001913Y0172809D01*
X0001842Y0172945D01*
X0001775Y0173083D01*
X0001711Y0173223D01*
X0001651Y0173364D01*
X0001595Y0173506D01*
X0001542Y0173650D01*
X0001493Y0173796D01*
X0001448Y0173942D01*
X0001407Y0174090D01*
X0001370Y0174238D01*
X0001336Y0174388D01*
X0001306Y0174539D01*
X0001281Y0174690D01*
X0001259Y0174841D01*
X0001241Y0174994D01*
X0001227Y0175146D01*
X0001217Y0175299D01*
X0001211Y0175453D01*
X0001209Y0175606D01*
X0383040Y0175606D02*
X0383042Y0175759D01*
X0383048Y0175913D01*
X0383058Y0176066D01*
X0383072Y0176218D01*
X0383090Y0176371D01*
X0383112Y0176522D01*
X0383137Y0176673D01*
X0383167Y0176824D01*
X0383201Y0176974D01*
X0383238Y0177122D01*
X0383279Y0177270D01*
X0383324Y0177416D01*
X0383373Y0177562D01*
X0383426Y0177706D01*
X0383482Y0177848D01*
X0383542Y0177989D01*
X0383606Y0178129D01*
X0383673Y0178267D01*
X0383744Y0178403D01*
X0383819Y0178537D01*
X0383896Y0178669D01*
X0383978Y0178799D01*
X0384062Y0178927D01*
X0384150Y0179053D01*
X0384241Y0179176D01*
X0384335Y0179297D01*
X0384433Y0179415D01*
X0384533Y0179531D01*
X0384637Y0179644D01*
X0384743Y0179755D01*
X0384852Y0179863D01*
X0384964Y0179968D01*
X0385078Y0180069D01*
X0385196Y0180168D01*
X0385315Y0180264D01*
X0385437Y0180357D01*
X0385562Y0180446D01*
X0385689Y0180533D01*
X0385818Y0180615D01*
X0385949Y0180695D01*
X0386082Y0180771D01*
X0386217Y0180844D01*
X0386354Y0180913D01*
X0386493Y0180978D01*
X0386633Y0181040D01*
X0386775Y0181098D01*
X0386918Y0181153D01*
X0387063Y0181204D01*
X0387209Y0181251D01*
X0387356Y0181294D01*
X0387504Y0181333D01*
X0387653Y0181369D01*
X0387803Y0181400D01*
X0387954Y0181428D01*
X0388105Y0181452D01*
X0388258Y0181472D01*
X0388410Y0181488D01*
X0388563Y0181500D01*
X0388716Y0181508D01*
X0388869Y0181512D01*
X0389023Y0181512D01*
X0389176Y0181508D01*
X0389329Y0181500D01*
X0389482Y0181488D01*
X0389634Y0181472D01*
X0389787Y0181452D01*
X0389938Y0181428D01*
X0390089Y0181400D01*
X0390239Y0181369D01*
X0390388Y0181333D01*
X0390536Y0181294D01*
X0390683Y0181251D01*
X0390829Y0181204D01*
X0390974Y0181153D01*
X0391117Y0181098D01*
X0391259Y0181040D01*
X0391399Y0180978D01*
X0391538Y0180913D01*
X0391675Y0180844D01*
X0391810Y0180771D01*
X0391943Y0180695D01*
X0392074Y0180615D01*
X0392203Y0180533D01*
X0392330Y0180446D01*
X0392455Y0180357D01*
X0392577Y0180264D01*
X0392696Y0180168D01*
X0392814Y0180069D01*
X0392928Y0179968D01*
X0393040Y0179863D01*
X0393149Y0179755D01*
X0393255Y0179644D01*
X0393359Y0179531D01*
X0393459Y0179415D01*
X0393557Y0179297D01*
X0393651Y0179176D01*
X0393742Y0179053D01*
X0393830Y0178927D01*
X0393914Y0178799D01*
X0393996Y0178669D01*
X0394073Y0178537D01*
X0394148Y0178403D01*
X0394219Y0178267D01*
X0394286Y0178129D01*
X0394350Y0177989D01*
X0394410Y0177848D01*
X0394466Y0177706D01*
X0394519Y0177562D01*
X0394568Y0177416D01*
X0394613Y0177270D01*
X0394654Y0177122D01*
X0394691Y0176974D01*
X0394725Y0176824D01*
X0394755Y0176673D01*
X0394780Y0176522D01*
X0394802Y0176371D01*
X0394820Y0176218D01*
X0394834Y0176066D01*
X0394844Y0175913D01*
X0394850Y0175759D01*
X0394852Y0175606D01*
X0394850Y0175453D01*
X0394844Y0175299D01*
X0394834Y0175146D01*
X0394820Y0174994D01*
X0394802Y0174841D01*
X0394780Y0174690D01*
X0394755Y0174539D01*
X0394725Y0174388D01*
X0394691Y0174238D01*
X0394654Y0174090D01*
X0394613Y0173942D01*
X0394568Y0173796D01*
X0394519Y0173650D01*
X0394466Y0173506D01*
X0394410Y0173364D01*
X0394350Y0173223D01*
X0394286Y0173083D01*
X0394219Y0172945D01*
X0394148Y0172809D01*
X0394073Y0172675D01*
X0393996Y0172543D01*
X0393914Y0172413D01*
X0393830Y0172285D01*
X0393742Y0172159D01*
X0393651Y0172036D01*
X0393557Y0171915D01*
X0393459Y0171797D01*
X0393359Y0171681D01*
X0393255Y0171568D01*
X0393149Y0171457D01*
X0393040Y0171349D01*
X0392928Y0171244D01*
X0392814Y0171143D01*
X0392696Y0171044D01*
X0392577Y0170948D01*
X0392455Y0170855D01*
X0392330Y0170766D01*
X0392203Y0170679D01*
X0392074Y0170597D01*
X0391943Y0170517D01*
X0391810Y0170441D01*
X0391675Y0170368D01*
X0391538Y0170299D01*
X0391399Y0170234D01*
X0391259Y0170172D01*
X0391117Y0170114D01*
X0390974Y0170059D01*
X0390829Y0170008D01*
X0390683Y0169961D01*
X0390536Y0169918D01*
X0390388Y0169879D01*
X0390239Y0169843D01*
X0390089Y0169812D01*
X0389938Y0169784D01*
X0389787Y0169760D01*
X0389634Y0169740D01*
X0389482Y0169724D01*
X0389329Y0169712D01*
X0389176Y0169704D01*
X0389023Y0169700D01*
X0388869Y0169700D01*
X0388716Y0169704D01*
X0388563Y0169712D01*
X0388410Y0169724D01*
X0388258Y0169740D01*
X0388105Y0169760D01*
X0387954Y0169784D01*
X0387803Y0169812D01*
X0387653Y0169843D01*
X0387504Y0169879D01*
X0387356Y0169918D01*
X0387209Y0169961D01*
X0387063Y0170008D01*
X0386918Y0170059D01*
X0386775Y0170114D01*
X0386633Y0170172D01*
X0386493Y0170234D01*
X0386354Y0170299D01*
X0386217Y0170368D01*
X0386082Y0170441D01*
X0385949Y0170517D01*
X0385818Y0170597D01*
X0385689Y0170679D01*
X0385562Y0170766D01*
X0385437Y0170855D01*
X0385315Y0170948D01*
X0385196Y0171044D01*
X0385078Y0171143D01*
X0384964Y0171244D01*
X0384852Y0171349D01*
X0384743Y0171457D01*
X0384637Y0171568D01*
X0384533Y0171681D01*
X0384433Y0171797D01*
X0384335Y0171915D01*
X0384241Y0172036D01*
X0384150Y0172159D01*
X0384062Y0172285D01*
X0383978Y0172413D01*
X0383896Y0172543D01*
X0383819Y0172675D01*
X0383744Y0172809D01*
X0383673Y0172945D01*
X0383606Y0173083D01*
X0383542Y0173223D01*
X0383482Y0173364D01*
X0383426Y0173506D01*
X0383373Y0173650D01*
X0383324Y0173796D01*
X0383279Y0173942D01*
X0383238Y0174090D01*
X0383201Y0174238D01*
X0383167Y0174388D01*
X0383137Y0174539D01*
X0383112Y0174690D01*
X0383090Y0174841D01*
X0383072Y0174994D01*
X0383058Y0175146D01*
X0383048Y0175299D01*
X0383042Y0175453D01*
X0383040Y0175606D01*
X0383040Y0049346D02*
X0383042Y0049499D01*
X0383048Y0049653D01*
X0383058Y0049806D01*
X0383072Y0049958D01*
X0383090Y0050111D01*
X0383112Y0050262D01*
X0383137Y0050413D01*
X0383167Y0050564D01*
X0383201Y0050714D01*
X0383238Y0050862D01*
X0383279Y0051010D01*
X0383324Y0051156D01*
X0383373Y0051302D01*
X0383426Y0051446D01*
X0383482Y0051588D01*
X0383542Y0051729D01*
X0383606Y0051869D01*
X0383673Y0052007D01*
X0383744Y0052143D01*
X0383819Y0052277D01*
X0383896Y0052409D01*
X0383978Y0052539D01*
X0384062Y0052667D01*
X0384150Y0052793D01*
X0384241Y0052916D01*
X0384335Y0053037D01*
X0384433Y0053155D01*
X0384533Y0053271D01*
X0384637Y0053384D01*
X0384743Y0053495D01*
X0384852Y0053603D01*
X0384964Y0053708D01*
X0385078Y0053809D01*
X0385196Y0053908D01*
X0385315Y0054004D01*
X0385437Y0054097D01*
X0385562Y0054186D01*
X0385689Y0054273D01*
X0385818Y0054355D01*
X0385949Y0054435D01*
X0386082Y0054511D01*
X0386217Y0054584D01*
X0386354Y0054653D01*
X0386493Y0054718D01*
X0386633Y0054780D01*
X0386775Y0054838D01*
X0386918Y0054893D01*
X0387063Y0054944D01*
X0387209Y0054991D01*
X0387356Y0055034D01*
X0387504Y0055073D01*
X0387653Y0055109D01*
X0387803Y0055140D01*
X0387954Y0055168D01*
X0388105Y0055192D01*
X0388258Y0055212D01*
X0388410Y0055228D01*
X0388563Y0055240D01*
X0388716Y0055248D01*
X0388869Y0055252D01*
X0389023Y0055252D01*
X0389176Y0055248D01*
X0389329Y0055240D01*
X0389482Y0055228D01*
X0389634Y0055212D01*
X0389787Y0055192D01*
X0389938Y0055168D01*
X0390089Y0055140D01*
X0390239Y0055109D01*
X0390388Y0055073D01*
X0390536Y0055034D01*
X0390683Y0054991D01*
X0390829Y0054944D01*
X0390974Y0054893D01*
X0391117Y0054838D01*
X0391259Y0054780D01*
X0391399Y0054718D01*
X0391538Y0054653D01*
X0391675Y0054584D01*
X0391810Y0054511D01*
X0391943Y0054435D01*
X0392074Y0054355D01*
X0392203Y0054273D01*
X0392330Y0054186D01*
X0392455Y0054097D01*
X0392577Y0054004D01*
X0392696Y0053908D01*
X0392814Y0053809D01*
X0392928Y0053708D01*
X0393040Y0053603D01*
X0393149Y0053495D01*
X0393255Y0053384D01*
X0393359Y0053271D01*
X0393459Y0053155D01*
X0393557Y0053037D01*
X0393651Y0052916D01*
X0393742Y0052793D01*
X0393830Y0052667D01*
X0393914Y0052539D01*
X0393996Y0052409D01*
X0394073Y0052277D01*
X0394148Y0052143D01*
X0394219Y0052007D01*
X0394286Y0051869D01*
X0394350Y0051729D01*
X0394410Y0051588D01*
X0394466Y0051446D01*
X0394519Y0051302D01*
X0394568Y0051156D01*
X0394613Y0051010D01*
X0394654Y0050862D01*
X0394691Y0050714D01*
X0394725Y0050564D01*
X0394755Y0050413D01*
X0394780Y0050262D01*
X0394802Y0050111D01*
X0394820Y0049958D01*
X0394834Y0049806D01*
X0394844Y0049653D01*
X0394850Y0049499D01*
X0394852Y0049346D01*
X0394850Y0049193D01*
X0394844Y0049039D01*
X0394834Y0048886D01*
X0394820Y0048734D01*
X0394802Y0048581D01*
X0394780Y0048430D01*
X0394755Y0048279D01*
X0394725Y0048128D01*
X0394691Y0047978D01*
X0394654Y0047830D01*
X0394613Y0047682D01*
X0394568Y0047536D01*
X0394519Y0047390D01*
X0394466Y0047246D01*
X0394410Y0047104D01*
X0394350Y0046963D01*
X0394286Y0046823D01*
X0394219Y0046685D01*
X0394148Y0046549D01*
X0394073Y0046415D01*
X0393996Y0046283D01*
X0393914Y0046153D01*
X0393830Y0046025D01*
X0393742Y0045899D01*
X0393651Y0045776D01*
X0393557Y0045655D01*
X0393459Y0045537D01*
X0393359Y0045421D01*
X0393255Y0045308D01*
X0393149Y0045197D01*
X0393040Y0045089D01*
X0392928Y0044984D01*
X0392814Y0044883D01*
X0392696Y0044784D01*
X0392577Y0044688D01*
X0392455Y0044595D01*
X0392330Y0044506D01*
X0392203Y0044419D01*
X0392074Y0044337D01*
X0391943Y0044257D01*
X0391810Y0044181D01*
X0391675Y0044108D01*
X0391538Y0044039D01*
X0391399Y0043974D01*
X0391259Y0043912D01*
X0391117Y0043854D01*
X0390974Y0043799D01*
X0390829Y0043748D01*
X0390683Y0043701D01*
X0390536Y0043658D01*
X0390388Y0043619D01*
X0390239Y0043583D01*
X0390089Y0043552D01*
X0389938Y0043524D01*
X0389787Y0043500D01*
X0389634Y0043480D01*
X0389482Y0043464D01*
X0389329Y0043452D01*
X0389176Y0043444D01*
X0389023Y0043440D01*
X0388869Y0043440D01*
X0388716Y0043444D01*
X0388563Y0043452D01*
X0388410Y0043464D01*
X0388258Y0043480D01*
X0388105Y0043500D01*
X0387954Y0043524D01*
X0387803Y0043552D01*
X0387653Y0043583D01*
X0387504Y0043619D01*
X0387356Y0043658D01*
X0387209Y0043701D01*
X0387063Y0043748D01*
X0386918Y0043799D01*
X0386775Y0043854D01*
X0386633Y0043912D01*
X0386493Y0043974D01*
X0386354Y0044039D01*
X0386217Y0044108D01*
X0386082Y0044181D01*
X0385949Y0044257D01*
X0385818Y0044337D01*
X0385689Y0044419D01*
X0385562Y0044506D01*
X0385437Y0044595D01*
X0385315Y0044688D01*
X0385196Y0044784D01*
X0385078Y0044883D01*
X0384964Y0044984D01*
X0384852Y0045089D01*
X0384743Y0045197D01*
X0384637Y0045308D01*
X0384533Y0045421D01*
X0384433Y0045537D01*
X0384335Y0045655D01*
X0384241Y0045776D01*
X0384150Y0045899D01*
X0384062Y0046025D01*
X0383978Y0046153D01*
X0383896Y0046283D01*
X0383819Y0046415D01*
X0383744Y0046549D01*
X0383673Y0046685D01*
X0383606Y0046823D01*
X0383542Y0046963D01*
X0383482Y0047104D01*
X0383426Y0047246D01*
X0383373Y0047390D01*
X0383324Y0047536D01*
X0383279Y0047682D01*
X0383238Y0047830D01*
X0383201Y0047978D01*
X0383167Y0048128D01*
X0383137Y0048279D01*
X0383112Y0048430D01*
X0383090Y0048581D01*
X0383072Y0048734D01*
X0383058Y0048886D01*
X0383048Y0049039D01*
X0383042Y0049193D01*
X0383040Y0049346D01*
X0383040Y0303559D02*
X0383042Y0303712D01*
X0383048Y0303866D01*
X0383058Y0304019D01*
X0383072Y0304171D01*
X0383090Y0304324D01*
X0383112Y0304475D01*
X0383137Y0304626D01*
X0383167Y0304777D01*
X0383201Y0304927D01*
X0383238Y0305075D01*
X0383279Y0305223D01*
X0383324Y0305369D01*
X0383373Y0305515D01*
X0383426Y0305659D01*
X0383482Y0305801D01*
X0383542Y0305942D01*
X0383606Y0306082D01*
X0383673Y0306220D01*
X0383744Y0306356D01*
X0383819Y0306490D01*
X0383896Y0306622D01*
X0383978Y0306752D01*
X0384062Y0306880D01*
X0384150Y0307006D01*
X0384241Y0307129D01*
X0384335Y0307250D01*
X0384433Y0307368D01*
X0384533Y0307484D01*
X0384637Y0307597D01*
X0384743Y0307708D01*
X0384852Y0307816D01*
X0384964Y0307921D01*
X0385078Y0308022D01*
X0385196Y0308121D01*
X0385315Y0308217D01*
X0385437Y0308310D01*
X0385562Y0308399D01*
X0385689Y0308486D01*
X0385818Y0308568D01*
X0385949Y0308648D01*
X0386082Y0308724D01*
X0386217Y0308797D01*
X0386354Y0308866D01*
X0386493Y0308931D01*
X0386633Y0308993D01*
X0386775Y0309051D01*
X0386918Y0309106D01*
X0387063Y0309157D01*
X0387209Y0309204D01*
X0387356Y0309247D01*
X0387504Y0309286D01*
X0387653Y0309322D01*
X0387803Y0309353D01*
X0387954Y0309381D01*
X0388105Y0309405D01*
X0388258Y0309425D01*
X0388410Y0309441D01*
X0388563Y0309453D01*
X0388716Y0309461D01*
X0388869Y0309465D01*
X0389023Y0309465D01*
X0389176Y0309461D01*
X0389329Y0309453D01*
X0389482Y0309441D01*
X0389634Y0309425D01*
X0389787Y0309405D01*
X0389938Y0309381D01*
X0390089Y0309353D01*
X0390239Y0309322D01*
X0390388Y0309286D01*
X0390536Y0309247D01*
X0390683Y0309204D01*
X0390829Y0309157D01*
X0390974Y0309106D01*
X0391117Y0309051D01*
X0391259Y0308993D01*
X0391399Y0308931D01*
X0391538Y0308866D01*
X0391675Y0308797D01*
X0391810Y0308724D01*
X0391943Y0308648D01*
X0392074Y0308568D01*
X0392203Y0308486D01*
X0392330Y0308399D01*
X0392455Y0308310D01*
X0392577Y0308217D01*
X0392696Y0308121D01*
X0392814Y0308022D01*
X0392928Y0307921D01*
X0393040Y0307816D01*
X0393149Y0307708D01*
X0393255Y0307597D01*
X0393359Y0307484D01*
X0393459Y0307368D01*
X0393557Y0307250D01*
X0393651Y0307129D01*
X0393742Y0307006D01*
X0393830Y0306880D01*
X0393914Y0306752D01*
X0393996Y0306622D01*
X0394073Y0306490D01*
X0394148Y0306356D01*
X0394219Y0306220D01*
X0394286Y0306082D01*
X0394350Y0305942D01*
X0394410Y0305801D01*
X0394466Y0305659D01*
X0394519Y0305515D01*
X0394568Y0305369D01*
X0394613Y0305223D01*
X0394654Y0305075D01*
X0394691Y0304927D01*
X0394725Y0304777D01*
X0394755Y0304626D01*
X0394780Y0304475D01*
X0394802Y0304324D01*
X0394820Y0304171D01*
X0394834Y0304019D01*
X0394844Y0303866D01*
X0394850Y0303712D01*
X0394852Y0303559D01*
X0394850Y0303406D01*
X0394844Y0303252D01*
X0394834Y0303099D01*
X0394820Y0302947D01*
X0394802Y0302794D01*
X0394780Y0302643D01*
X0394755Y0302492D01*
X0394725Y0302341D01*
X0394691Y0302191D01*
X0394654Y0302043D01*
X0394613Y0301895D01*
X0394568Y0301749D01*
X0394519Y0301603D01*
X0394466Y0301459D01*
X0394410Y0301317D01*
X0394350Y0301176D01*
X0394286Y0301036D01*
X0394219Y0300898D01*
X0394148Y0300762D01*
X0394073Y0300628D01*
X0393996Y0300496D01*
X0393914Y0300366D01*
X0393830Y0300238D01*
X0393742Y0300112D01*
X0393651Y0299989D01*
X0393557Y0299868D01*
X0393459Y0299750D01*
X0393359Y0299634D01*
X0393255Y0299521D01*
X0393149Y0299410D01*
X0393040Y0299302D01*
X0392928Y0299197D01*
X0392814Y0299096D01*
X0392696Y0298997D01*
X0392577Y0298901D01*
X0392455Y0298808D01*
X0392330Y0298719D01*
X0392203Y0298632D01*
X0392074Y0298550D01*
X0391943Y0298470D01*
X0391810Y0298394D01*
X0391675Y0298321D01*
X0391538Y0298252D01*
X0391399Y0298187D01*
X0391259Y0298125D01*
X0391117Y0298067D01*
X0390974Y0298012D01*
X0390829Y0297961D01*
X0390683Y0297914D01*
X0390536Y0297871D01*
X0390388Y0297832D01*
X0390239Y0297796D01*
X0390089Y0297765D01*
X0389938Y0297737D01*
X0389787Y0297713D01*
X0389634Y0297693D01*
X0389482Y0297677D01*
X0389329Y0297665D01*
X0389176Y0297657D01*
X0389023Y0297653D01*
X0388869Y0297653D01*
X0388716Y0297657D01*
X0388563Y0297665D01*
X0388410Y0297677D01*
X0388258Y0297693D01*
X0388105Y0297713D01*
X0387954Y0297737D01*
X0387803Y0297765D01*
X0387653Y0297796D01*
X0387504Y0297832D01*
X0387356Y0297871D01*
X0387209Y0297914D01*
X0387063Y0297961D01*
X0386918Y0298012D01*
X0386775Y0298067D01*
X0386633Y0298125D01*
X0386493Y0298187D01*
X0386354Y0298252D01*
X0386217Y0298321D01*
X0386082Y0298394D01*
X0385949Y0298470D01*
X0385818Y0298550D01*
X0385689Y0298632D01*
X0385562Y0298719D01*
X0385437Y0298808D01*
X0385315Y0298901D01*
X0385196Y0298997D01*
X0385078Y0299096D01*
X0384964Y0299197D01*
X0384852Y0299302D01*
X0384743Y0299410D01*
X0384637Y0299521D01*
X0384533Y0299634D01*
X0384433Y0299750D01*
X0384335Y0299868D01*
X0384241Y0299989D01*
X0384150Y0300112D01*
X0384062Y0300238D01*
X0383978Y0300366D01*
X0383896Y0300496D01*
X0383819Y0300628D01*
X0383744Y0300762D01*
X0383673Y0300898D01*
X0383606Y0301036D01*
X0383542Y0301176D01*
X0383482Y0301317D01*
X0383426Y0301459D01*
X0383373Y0301603D01*
X0383324Y0301749D01*
X0383279Y0301895D01*
X0383238Y0302043D01*
X0383201Y0302191D01*
X0383167Y0302341D01*
X0383137Y0302492D01*
X0383112Y0302643D01*
X0383090Y0302794D01*
X0383072Y0302947D01*
X0383058Y0303099D01*
X0383048Y0303252D01*
X0383042Y0303406D01*
X0383040Y0303559D01*
D12*
X0388946Y0303559D03*
X0388946Y0175606D03*
X0388946Y0049346D03*
X0007115Y0175606D03*
D13*
X0009300Y0060626D03*
X0341800Y0323126D03*
D14*
X0072706Y0316651D02*
X0072706Y0309601D01*
X0053020Y0309601D02*
X0053020Y0316651D01*
X0031249Y0316651D02*
X0031249Y0309601D01*
X0011564Y0309601D02*
X0011564Y0316651D01*
D15*
X0162863Y0046354D03*
X0046800Y0045626D03*
D16*
X0036800Y0045626D03*
X0036800Y0035626D03*
X0046800Y0035626D03*
X0026800Y0035626D03*
X0026800Y0045626D03*
X0072863Y0046354D03*
X0082863Y0046354D03*
X0082863Y0036354D03*
X0072863Y0036354D03*
X0092863Y0036354D03*
X0102863Y0036354D03*
X0112863Y0036354D03*
X0122863Y0036354D03*
X0132863Y0036354D03*
X0142863Y0036354D03*
X0152863Y0036354D03*
X0162863Y0036354D03*
X0152863Y0046354D03*
X0142863Y0046354D03*
X0132863Y0046354D03*
X0122863Y0046354D03*
X0112863Y0046354D03*
X0102863Y0046354D03*
X0092863Y0046354D03*
D17*
X0303473Y0038638D03*
X0306032Y0038638D03*
X0308591Y0038638D03*
X0311150Y0038638D03*
X0313709Y0038638D03*
D18*
X0320009Y0039150D03*
X0297174Y0039150D03*
D19*
X0304900Y0022772D03*
X0312282Y0022772D03*
D20*
X0316465Y0022457D02*
X0316465Y0035528D01*
X0326603Y0035528D01*
X0326603Y0025331D01*
X0326611Y0025331D01*
X0326611Y0017024D01*
X0320757Y0017024D01*
X0320757Y0022457D01*
X0316465Y0022457D01*
X0300786Y0022457D02*
X0300786Y0035528D01*
X0290648Y0035528D01*
X0290648Y0025331D01*
X0290655Y0025367D01*
X0290655Y0017060D01*
X0296495Y0017024D01*
X0296495Y0022457D01*
X0300786Y0022457D01*
D21*
X0384463Y0071044D02*
X0385023Y0071604D01*
X0385023Y0069748D01*
X0383712Y0068437D01*
X0381856Y0068437D01*
X0380545Y0069748D01*
X0380545Y0071604D01*
X0381856Y0072915D01*
X0383712Y0072915D01*
X0385023Y0071604D01*
X0384183Y0071256D01*
X0384183Y0070096D01*
X0383364Y0069277D01*
X0382204Y0069277D01*
X0381385Y0070096D01*
X0381385Y0071256D01*
X0382204Y0072075D01*
X0383364Y0072075D01*
X0384183Y0071256D01*
X0383343Y0070908D01*
X0383343Y0070444D01*
X0383016Y0070117D01*
X0382552Y0070117D01*
X0382225Y0070444D01*
X0382225Y0070908D01*
X0382552Y0071235D01*
X0383016Y0071235D01*
X0383343Y0070908D01*
X0384463Y0080944D02*
X0385023Y0081504D01*
X0385023Y0079648D01*
X0383712Y0078337D01*
X0381856Y0078337D01*
X0380545Y0079648D01*
X0380545Y0081504D01*
X0381856Y0082815D01*
X0383712Y0082815D01*
X0385023Y0081504D01*
X0384183Y0081156D01*
X0384183Y0079996D01*
X0383364Y0079177D01*
X0382204Y0079177D01*
X0381385Y0079996D01*
X0381385Y0081156D01*
X0382204Y0081975D01*
X0383364Y0081975D01*
X0384183Y0081156D01*
X0383343Y0080808D01*
X0383343Y0080344D01*
X0383016Y0080017D01*
X0382552Y0080017D01*
X0382225Y0080344D01*
X0382225Y0080808D01*
X0382552Y0081135D01*
X0383016Y0081135D01*
X0383343Y0080808D01*
D22*
X0098454Y0274898D03*
X0051209Y0274898D03*
X0051209Y0080449D03*
X0070894Y0080449D03*
D23*
X0092942Y0295626D03*
X0102942Y0325626D03*
X0152942Y0325626D03*
X0152942Y0295626D03*
D24*
X0181800Y0291787D03*
X0181800Y0281787D03*
X0181800Y0271787D03*
X0181800Y0261787D03*
X0181800Y0251787D03*
X0181800Y0241787D03*
X0181800Y0231787D03*
X0181800Y0221787D03*
X0181800Y0205787D03*
X0181800Y0195787D03*
X0181800Y0185787D03*
X0181800Y0175787D03*
X0181800Y0165787D03*
X0181800Y0155787D03*
X0181800Y0145787D03*
X0181800Y0135787D03*
X0181800Y0125787D03*
X0181800Y0115787D03*
X0371800Y0151787D03*
X0371800Y0161787D03*
X0371800Y0171787D03*
X0371800Y0181787D03*
X0371800Y0191787D03*
X0371800Y0201787D03*
X0371800Y0211787D03*
X0371800Y0221787D03*
X0371800Y0241787D03*
X0371800Y0251787D03*
X0371800Y0261787D03*
X0371800Y0271787D03*
X0371800Y0281787D03*
X0371800Y0291787D03*
M02*
