G75*
%MOIN*%
%OFA0B0*%
%FSLAX25Y25*%
%IPPOS*%
%LPD*%
%AMOC8*
5,1,8,0,0,1.08239X$1,22.5*
%
%ADD10C,0.00300*%
%ADD11C,0.01600*%
%ADD12C,0.00000*%
D10*
X0059429Y0005251D02*
X0059429Y0008285D01*
X0058823Y0008285D02*
X0060036Y0008285D01*
X0062448Y0008285D02*
X0062448Y0005251D01*
X0063054Y0004644D01*
X0064268Y0004644D01*
X0064874Y0005251D01*
X0064874Y0008285D01*
X0067286Y0008285D02*
X0068500Y0007071D01*
X0069698Y0007678D02*
X0069698Y0008285D01*
X0072125Y0008285D01*
X0073323Y0008285D02*
X0073323Y0004644D01*
X0075143Y0004644D01*
X0075750Y0005251D01*
X0075750Y0006464D01*
X0075143Y0007071D01*
X0073323Y0007071D01*
X0072125Y0005251D02*
X0072125Y0004644D01*
X0072125Y0005251D02*
X0069698Y0007678D01*
X0067286Y0008285D02*
X0067286Y0004644D01*
X0066073Y0004644D02*
X0068500Y0004644D01*
X0061249Y0005251D02*
X0060643Y0004644D01*
X0060036Y0004644D01*
X0059429Y0005251D01*
X0076948Y0005251D02*
X0077555Y0004644D01*
X0078768Y0004644D01*
X0079375Y0005251D01*
X0078162Y0006464D02*
X0077555Y0006464D01*
X0076948Y0005858D01*
X0076948Y0005251D01*
X0077555Y0006464D02*
X0076948Y0007071D01*
X0076948Y0007678D01*
X0077555Y0008285D01*
X0078768Y0008285D01*
X0079375Y0007678D01*
X0080573Y0008285D02*
X0083000Y0004644D01*
X0084204Y0004644D02*
X0085417Y0004644D01*
X0084810Y0004644D02*
X0084810Y0008285D01*
X0085417Y0008285D01*
X0086615Y0007071D02*
X0088435Y0007071D01*
X0089042Y0006464D01*
X0089042Y0005251D01*
X0088435Y0004644D01*
X0086615Y0004644D01*
X0086615Y0004038D02*
X0086615Y0007071D01*
X0086615Y0004038D02*
X0087222Y0003431D01*
X0087829Y0003431D01*
X0090248Y0004644D02*
X0090855Y0004644D01*
X0090855Y0005251D01*
X0090248Y0005251D01*
X0090248Y0004644D01*
X0092053Y0005251D02*
X0092053Y0006464D01*
X0092660Y0007071D01*
X0093873Y0007071D01*
X0094480Y0006464D01*
X0094480Y0005251D01*
X0093873Y0004644D01*
X0092660Y0004644D01*
X0092053Y0005251D01*
X0095678Y0005251D02*
X0095678Y0006464D01*
X0096285Y0007071D01*
X0097498Y0007071D01*
X0098105Y0006464D01*
X0098105Y0005251D01*
X0097498Y0004644D01*
X0096285Y0004644D01*
X0095678Y0005251D01*
X0099303Y0004644D02*
X0101123Y0004644D01*
X0101730Y0005251D01*
X0101730Y0006464D01*
X0101123Y0007071D01*
X0099303Y0007071D01*
X0099303Y0004038D01*
X0099910Y0003431D01*
X0100517Y0003431D01*
X0105355Y0004644D02*
X0102928Y0008285D01*
X0106554Y0008285D02*
X0108980Y0004644D01*
X0110186Y0004644D02*
X0110793Y0004644D01*
X0110793Y0005251D01*
X0110186Y0005251D01*
X0110186Y0004644D01*
X0110186Y0006464D02*
X0110793Y0006464D01*
X0110793Y0007071D01*
X0110186Y0007071D01*
X0110186Y0006464D01*
X0111991Y0006464D02*
X0111991Y0005251D01*
X0112598Y0004644D01*
X0114418Y0004644D01*
X0115621Y0004644D02*
X0116228Y0005251D01*
X0116228Y0007678D01*
X0116835Y0007071D02*
X0115621Y0007071D01*
X0114418Y0007071D02*
X0112598Y0007071D01*
X0111991Y0006464D01*
X0114418Y0007071D02*
X0114418Y0003431D01*
X0118038Y0004644D02*
X0118645Y0005251D01*
X0118645Y0007678D01*
X0119251Y0007071D02*
X0118038Y0007071D01*
X0120450Y0006464D02*
X0120450Y0004644D01*
X0120450Y0006464D02*
X0121057Y0007071D01*
X0122270Y0007071D01*
X0122877Y0006464D01*
X0122877Y0004644D02*
X0122877Y0008285D01*
X0127708Y0007071D02*
X0127708Y0006464D01*
X0128314Y0006464D01*
X0128314Y0007071D01*
X0127708Y0007071D01*
X0127708Y0005251D02*
X0127708Y0004644D01*
X0128314Y0004644D01*
X0128314Y0005251D01*
X0127708Y0005251D01*
X0129513Y0005858D02*
X0129513Y0006464D01*
X0130119Y0007071D01*
X0131333Y0007071D01*
X0131939Y0006464D01*
X0131939Y0005251D01*
X0131333Y0004644D01*
X0130119Y0004644D01*
X0129513Y0005858D02*
X0131939Y0005858D01*
X0133138Y0005251D02*
X0133745Y0005858D01*
X0134958Y0005858D01*
X0135565Y0006464D01*
X0134958Y0007071D01*
X0133138Y0007071D01*
X0133138Y0005251D02*
X0133745Y0004644D01*
X0135565Y0004644D01*
X0136763Y0004644D02*
X0136763Y0006464D01*
X0137370Y0007071D01*
X0139190Y0007071D01*
X0139190Y0004644D01*
X0140388Y0005858D02*
X0142815Y0005858D01*
X0142815Y0006464D02*
X0142815Y0005251D01*
X0142208Y0004644D01*
X0140995Y0004644D01*
X0140388Y0005858D02*
X0140388Y0006464D01*
X0140995Y0007071D01*
X0142208Y0007071D01*
X0142815Y0006464D01*
X0144013Y0007071D02*
X0145833Y0007071D01*
X0146440Y0006464D01*
X0146440Y0005251D01*
X0145833Y0004644D01*
X0144013Y0004644D01*
X0147643Y0004644D02*
X0148857Y0004644D01*
X0148250Y0004644D02*
X0148250Y0007071D01*
X0148857Y0007071D01*
X0148250Y0008285D02*
X0148250Y0008891D01*
X0152482Y0008285D02*
X0152482Y0004644D01*
X0150055Y0004644D01*
D11*
X0199700Y0001800D02*
X0002849Y0001800D01*
X0002849Y0198650D01*
X0199700Y0198650D01*
X0199700Y0001800D01*
D12*
X0121668Y0101682D02*
X0121670Y0101830D01*
X0121676Y0101978D01*
X0121686Y0102126D01*
X0121700Y0102273D01*
X0121718Y0102420D01*
X0121739Y0102566D01*
X0121765Y0102712D01*
X0121795Y0102857D01*
X0121828Y0103001D01*
X0121866Y0103144D01*
X0121907Y0103286D01*
X0121952Y0103427D01*
X0122000Y0103567D01*
X0122053Y0103706D01*
X0122109Y0103843D01*
X0122169Y0103978D01*
X0122232Y0104112D01*
X0122299Y0104244D01*
X0122370Y0104374D01*
X0122444Y0104502D01*
X0122521Y0104628D01*
X0122602Y0104752D01*
X0122686Y0104874D01*
X0122773Y0104993D01*
X0122864Y0105110D01*
X0122958Y0105225D01*
X0123054Y0105337D01*
X0123154Y0105447D01*
X0123256Y0105553D01*
X0123362Y0105657D01*
X0123470Y0105758D01*
X0123581Y0105856D01*
X0123694Y0105952D01*
X0123810Y0106044D01*
X0123928Y0106133D01*
X0124049Y0106218D01*
X0124172Y0106301D01*
X0124297Y0106380D01*
X0124424Y0106456D01*
X0124553Y0106528D01*
X0124684Y0106597D01*
X0124817Y0106662D01*
X0124952Y0106723D01*
X0125088Y0106781D01*
X0125225Y0106836D01*
X0125364Y0106886D01*
X0125505Y0106933D01*
X0125646Y0106976D01*
X0125789Y0107016D01*
X0125933Y0107051D01*
X0126077Y0107083D01*
X0126223Y0107110D01*
X0126369Y0107134D01*
X0126516Y0107154D01*
X0126663Y0107170D01*
X0126810Y0107182D01*
X0126958Y0107190D01*
X0127106Y0107194D01*
X0127254Y0107194D01*
X0127402Y0107190D01*
X0127550Y0107182D01*
X0127697Y0107170D01*
X0127844Y0107154D01*
X0127991Y0107134D01*
X0128137Y0107110D01*
X0128283Y0107083D01*
X0128427Y0107051D01*
X0128571Y0107016D01*
X0128714Y0106976D01*
X0128855Y0106933D01*
X0128996Y0106886D01*
X0129135Y0106836D01*
X0129272Y0106781D01*
X0129408Y0106723D01*
X0129543Y0106662D01*
X0129676Y0106597D01*
X0129807Y0106528D01*
X0129936Y0106456D01*
X0130063Y0106380D01*
X0130188Y0106301D01*
X0130311Y0106218D01*
X0130432Y0106133D01*
X0130550Y0106044D01*
X0130666Y0105952D01*
X0130779Y0105856D01*
X0130890Y0105758D01*
X0130998Y0105657D01*
X0131104Y0105553D01*
X0131206Y0105447D01*
X0131306Y0105337D01*
X0131402Y0105225D01*
X0131496Y0105110D01*
X0131587Y0104993D01*
X0131674Y0104874D01*
X0131758Y0104752D01*
X0131839Y0104628D01*
X0131916Y0104502D01*
X0131990Y0104374D01*
X0132061Y0104244D01*
X0132128Y0104112D01*
X0132191Y0103978D01*
X0132251Y0103843D01*
X0132307Y0103706D01*
X0132360Y0103567D01*
X0132408Y0103427D01*
X0132453Y0103286D01*
X0132494Y0103144D01*
X0132532Y0103001D01*
X0132565Y0102857D01*
X0132595Y0102712D01*
X0132621Y0102566D01*
X0132642Y0102420D01*
X0132660Y0102273D01*
X0132674Y0102126D01*
X0132684Y0101978D01*
X0132690Y0101830D01*
X0132692Y0101682D01*
X0132690Y0101534D01*
X0132684Y0101386D01*
X0132674Y0101238D01*
X0132660Y0101091D01*
X0132642Y0100944D01*
X0132621Y0100798D01*
X0132595Y0100652D01*
X0132565Y0100507D01*
X0132532Y0100363D01*
X0132494Y0100220D01*
X0132453Y0100078D01*
X0132408Y0099937D01*
X0132360Y0099797D01*
X0132307Y0099658D01*
X0132251Y0099521D01*
X0132191Y0099386D01*
X0132128Y0099252D01*
X0132061Y0099120D01*
X0131990Y0098990D01*
X0131916Y0098862D01*
X0131839Y0098736D01*
X0131758Y0098612D01*
X0131674Y0098490D01*
X0131587Y0098371D01*
X0131496Y0098254D01*
X0131402Y0098139D01*
X0131306Y0098027D01*
X0131206Y0097917D01*
X0131104Y0097811D01*
X0130998Y0097707D01*
X0130890Y0097606D01*
X0130779Y0097508D01*
X0130666Y0097412D01*
X0130550Y0097320D01*
X0130432Y0097231D01*
X0130311Y0097146D01*
X0130188Y0097063D01*
X0130063Y0096984D01*
X0129936Y0096908D01*
X0129807Y0096836D01*
X0129676Y0096767D01*
X0129543Y0096702D01*
X0129408Y0096641D01*
X0129272Y0096583D01*
X0129135Y0096528D01*
X0128996Y0096478D01*
X0128855Y0096431D01*
X0128714Y0096388D01*
X0128571Y0096348D01*
X0128427Y0096313D01*
X0128283Y0096281D01*
X0128137Y0096254D01*
X0127991Y0096230D01*
X0127844Y0096210D01*
X0127697Y0096194D01*
X0127550Y0096182D01*
X0127402Y0096174D01*
X0127254Y0096170D01*
X0127106Y0096170D01*
X0126958Y0096174D01*
X0126810Y0096182D01*
X0126663Y0096194D01*
X0126516Y0096210D01*
X0126369Y0096230D01*
X0126223Y0096254D01*
X0126077Y0096281D01*
X0125933Y0096313D01*
X0125789Y0096348D01*
X0125646Y0096388D01*
X0125505Y0096431D01*
X0125364Y0096478D01*
X0125225Y0096528D01*
X0125088Y0096583D01*
X0124952Y0096641D01*
X0124817Y0096702D01*
X0124684Y0096767D01*
X0124553Y0096836D01*
X0124424Y0096908D01*
X0124297Y0096984D01*
X0124172Y0097063D01*
X0124049Y0097146D01*
X0123928Y0097231D01*
X0123810Y0097320D01*
X0123694Y0097412D01*
X0123581Y0097508D01*
X0123470Y0097606D01*
X0123362Y0097707D01*
X0123256Y0097811D01*
X0123154Y0097917D01*
X0123054Y0098027D01*
X0122958Y0098139D01*
X0122864Y0098254D01*
X0122773Y0098371D01*
X0122686Y0098490D01*
X0122602Y0098612D01*
X0122521Y0098736D01*
X0122444Y0098862D01*
X0122370Y0098990D01*
X0122299Y0099120D01*
X0122232Y0099252D01*
X0122169Y0099386D01*
X0122109Y0099521D01*
X0122053Y0099658D01*
X0122000Y0099797D01*
X0121952Y0099937D01*
X0121907Y0100078D01*
X0121866Y0100220D01*
X0121828Y0100363D01*
X0121795Y0100507D01*
X0121765Y0100652D01*
X0121739Y0100798D01*
X0121718Y0100944D01*
X0121700Y0101091D01*
X0121686Y0101238D01*
X0121676Y0101386D01*
X0121670Y0101534D01*
X0121668Y0101682D01*
M02*
