%
M48
M72
T01C0.03600
T02C0.04000
T03C0.11024
T04C0.12598
%
T01
X17849Y106800
X17849Y116800
T02
X194109Y128454
X194109Y78060
X118912Y187528
X118912Y177528
X108912Y187528
X108912Y177528
X98912Y187528
X98912Y177528
X88912Y187528
X88912Y177528
X78912Y187528
X78912Y177528
X68912Y187528
X68912Y177528
X58912Y187528
X58912Y177528
X48912Y187528
X48912Y177528
X38912Y187528
X38912Y177528
X28912Y187528
X28912Y177528
T03
X127180Y101682
T04
X191166Y10066
X11166Y10066
X191166Y190066
X11166Y190066
M30
