G75*
%MOIN*%
%OFA0B0*%
%FSLAX24Y24*%
%IPPOS*%
%LPD*%
%AMOC8*
5,1,8,0,0,1.08239X$1,22.5*
%
%ADD10C,0.0000*%
%ADD11R,0.0630X0.0551*%
%ADD12R,0.0394X0.0433*%
%ADD13R,0.0433X0.0394*%
%ADD14R,0.0472X0.0217*%
%ADD15R,0.0512X0.0748*%
%ADD16R,0.0673X0.0157*%
%ADD17R,0.0575X0.0787*%
%ADD18R,0.0984X0.0541*%
%ADD19C,0.0160*%
%ADD20C,0.0560*%
%ADD21OC8,0.0660*%
%ADD22OC8,0.0850*%
%ADD23OC8,0.0700*%
%ADD24C,0.0885*%
%ADD25C,0.0660*%
%ADD26R,0.1102X0.1102*%
%ADD27C,0.0600*%
%ADD28C,0.0650*%
%ADD29OC8,0.0520*%
%ADD30R,0.0236X0.0157*%
%ADD31R,0.0591X0.0945*%
%ADD32R,0.0787X0.0512*%
%ADD33C,0.0197*%
%ADD34C,0.0317*%
%ADD35C,0.0500*%
%ADD36C,0.0157*%
%ADD37C,0.0080*%
%ADD38C,0.1660*%
%ADD39C,0.0860*%
D10*
X000350Y000350D02*
X000350Y020035D01*
X020035Y020035D01*
X020035Y000350D01*
X000350Y000350D01*
X001267Y008344D02*
X001269Y008373D01*
X001275Y008401D01*
X001284Y008429D01*
X001297Y008455D01*
X001314Y008478D01*
X001333Y008500D01*
X001355Y008519D01*
X001380Y008534D01*
X001406Y008547D01*
X001434Y008555D01*
X001462Y008560D01*
X001491Y008561D01*
X001520Y008558D01*
X001548Y008551D01*
X001575Y008541D01*
X001601Y008527D01*
X001624Y008510D01*
X001645Y008490D01*
X001663Y008467D01*
X001678Y008442D01*
X001689Y008415D01*
X001697Y008387D01*
X001701Y008358D01*
X001701Y008330D01*
X001697Y008301D01*
X001689Y008273D01*
X001678Y008246D01*
X001663Y008221D01*
X001645Y008198D01*
X001624Y008178D01*
X001601Y008161D01*
X001575Y008147D01*
X001548Y008137D01*
X001520Y008130D01*
X001491Y008127D01*
X001462Y008128D01*
X001434Y008133D01*
X001406Y008141D01*
X001380Y008154D01*
X001355Y008169D01*
X001333Y008188D01*
X001314Y008210D01*
X001297Y008233D01*
X001284Y008259D01*
X001275Y008287D01*
X001269Y008315D01*
X001267Y008344D01*
X001267Y009344D02*
X001269Y009373D01*
X001275Y009401D01*
X001284Y009429D01*
X001297Y009455D01*
X001314Y009478D01*
X001333Y009500D01*
X001355Y009519D01*
X001380Y009534D01*
X001406Y009547D01*
X001434Y009555D01*
X001462Y009560D01*
X001491Y009561D01*
X001520Y009558D01*
X001548Y009551D01*
X001575Y009541D01*
X001601Y009527D01*
X001624Y009510D01*
X001645Y009490D01*
X001663Y009467D01*
X001678Y009442D01*
X001689Y009415D01*
X001697Y009387D01*
X001701Y009358D01*
X001701Y009330D01*
X001697Y009301D01*
X001689Y009273D01*
X001678Y009246D01*
X001663Y009221D01*
X001645Y009198D01*
X001624Y009178D01*
X001601Y009161D01*
X001575Y009147D01*
X001548Y009137D01*
X001520Y009130D01*
X001491Y009127D01*
X001462Y009128D01*
X001434Y009133D01*
X001406Y009141D01*
X001380Y009154D01*
X001355Y009169D01*
X001333Y009188D01*
X001314Y009210D01*
X001297Y009233D01*
X001284Y009259D01*
X001275Y009287D01*
X001269Y009315D01*
X001267Y009344D01*
X001259Y010670D02*
X001261Y010699D01*
X001267Y010727D01*
X001276Y010755D01*
X001289Y010781D01*
X001306Y010804D01*
X001325Y010826D01*
X001347Y010845D01*
X001372Y010860D01*
X001398Y010873D01*
X001426Y010881D01*
X001454Y010886D01*
X001483Y010887D01*
X001512Y010884D01*
X001540Y010877D01*
X001567Y010867D01*
X001593Y010853D01*
X001616Y010836D01*
X001637Y010816D01*
X001655Y010793D01*
X001670Y010768D01*
X001681Y010741D01*
X001689Y010713D01*
X001693Y010684D01*
X001693Y010656D01*
X001689Y010627D01*
X001681Y010599D01*
X001670Y010572D01*
X001655Y010547D01*
X001637Y010524D01*
X001616Y010504D01*
X001593Y010487D01*
X001567Y010473D01*
X001540Y010463D01*
X001512Y010456D01*
X001483Y010453D01*
X001454Y010454D01*
X001426Y010459D01*
X001398Y010467D01*
X001372Y010480D01*
X001347Y010495D01*
X001325Y010514D01*
X001306Y010536D01*
X001289Y010559D01*
X001276Y010585D01*
X001267Y010613D01*
X001261Y010641D01*
X001259Y010670D01*
X001259Y011670D02*
X001261Y011699D01*
X001267Y011727D01*
X001276Y011755D01*
X001289Y011781D01*
X001306Y011804D01*
X001325Y011826D01*
X001347Y011845D01*
X001372Y011860D01*
X001398Y011873D01*
X001426Y011881D01*
X001454Y011886D01*
X001483Y011887D01*
X001512Y011884D01*
X001540Y011877D01*
X001567Y011867D01*
X001593Y011853D01*
X001616Y011836D01*
X001637Y011816D01*
X001655Y011793D01*
X001670Y011768D01*
X001681Y011741D01*
X001689Y011713D01*
X001693Y011684D01*
X001693Y011656D01*
X001689Y011627D01*
X001681Y011599D01*
X001670Y011572D01*
X001655Y011547D01*
X001637Y011524D01*
X001616Y011504D01*
X001593Y011487D01*
X001567Y011473D01*
X001540Y011463D01*
X001512Y011456D01*
X001483Y011453D01*
X001454Y011454D01*
X001426Y011459D01*
X001398Y011467D01*
X001372Y011480D01*
X001347Y011495D01*
X001325Y011514D01*
X001306Y011536D01*
X001289Y011559D01*
X001276Y011585D01*
X001267Y011613D01*
X001261Y011641D01*
X001259Y011670D01*
D11*
X010635Y011106D03*
X010635Y010003D03*
D12*
X012755Y010712D03*
X012755Y011381D03*
X013618Y011377D03*
X013618Y010708D03*
X008032Y012093D03*
X008032Y012762D03*
X005179Y012786D03*
X005179Y012117D03*
X001741Y007228D03*
X001072Y007228D03*
X003515Y003350D03*
X004185Y003350D03*
X006789Y018089D03*
X006789Y018758D03*
D13*
X007787Y018758D03*
X008807Y018758D03*
X008807Y018089D03*
X007787Y018089D03*
X005812Y018089D03*
X004812Y018089D03*
X004812Y018758D03*
X005812Y018758D03*
X003258Y017886D03*
X002589Y017886D03*
X015613Y010319D03*
X015613Y009650D03*
X013327Y006585D03*
X013327Y005916D03*
X011372Y003824D03*
X010703Y003824D03*
X009905Y002795D03*
X009236Y002795D03*
X008277Y002805D03*
X007608Y002805D03*
X003812Y006508D03*
X002669Y006501D03*
X002669Y007170D03*
X003812Y007177D03*
D14*
X006095Y012096D03*
X006095Y012470D03*
X006095Y012844D03*
X007119Y012844D03*
X007119Y012096D03*
D15*
X009049Y007385D03*
X011214Y007385D03*
X011214Y006125D03*
X009049Y006125D03*
D16*
X002598Y014382D03*
X002598Y014638D03*
X002598Y014894D03*
X002598Y015150D03*
X002598Y015406D03*
D17*
X002649Y016036D03*
X002649Y013752D03*
D18*
X001011Y014525D03*
X001011Y015263D03*
D19*
X001069Y015779D02*
X002179Y015779D01*
X002179Y016596D01*
X001167Y016596D01*
X001169Y016595D01*
X000539Y016595D01*
X000537Y016200D01*
X001069Y016200D01*
X002179Y016200D01*
X002179Y016042D02*
X001069Y016042D01*
X001069Y016200D02*
X001069Y015779D01*
X001069Y015883D02*
X002179Y015883D01*
X002179Y016359D02*
X000538Y016359D01*
X000538Y016517D02*
X002179Y016517D01*
X002598Y014382D02*
X002850Y014382D01*
X002179Y014002D02*
X001069Y014002D01*
X001069Y013581D01*
X000537Y013581D01*
X000535Y013184D01*
X001165Y013184D01*
X001167Y013185D01*
X002179Y013185D01*
X002179Y014002D01*
X002179Y013981D02*
X001069Y013981D01*
X001069Y013823D02*
X002179Y013823D01*
X002179Y013664D02*
X001069Y013664D01*
X000537Y013506D02*
X002179Y013506D01*
X002179Y013347D02*
X000536Y013347D01*
X000535Y013189D02*
X002179Y013189D01*
D20*
X004021Y013790D02*
X004021Y014350D01*
X005021Y014350D02*
X005021Y013790D01*
X006916Y013783D02*
X006916Y014343D01*
X007916Y014343D02*
X007916Y013783D01*
X008350Y005130D02*
X008350Y004570D01*
X009350Y004570D02*
X009350Y005130D01*
X010350Y005130D02*
X010350Y004570D01*
X011350Y004570D02*
X011350Y005130D01*
X012350Y005130D02*
X012350Y004570D01*
X013350Y004570D02*
X013350Y005130D01*
X014350Y005130D02*
X014350Y004570D01*
X015350Y004570D02*
X015350Y005130D01*
X016350Y005130D02*
X016350Y004570D01*
X016350Y002130D02*
X016350Y001570D01*
X015350Y001570D02*
X015350Y002130D01*
X014350Y002130D02*
X014350Y001570D01*
X013350Y001570D02*
X013350Y002130D01*
X012350Y002130D02*
X012350Y001570D01*
X011350Y001570D02*
X011350Y002130D01*
X010350Y002130D02*
X010350Y001570D01*
X009350Y001570D02*
X009350Y002130D01*
X008350Y002130D02*
X008350Y001570D01*
X007350Y001570D02*
X007350Y002130D01*
X006350Y002130D02*
X006350Y001570D01*
X005350Y001570D02*
X005350Y002130D01*
X004350Y002130D02*
X004350Y001570D01*
X003350Y001570D02*
X003350Y002130D01*
X003350Y004570D02*
X003350Y005130D01*
X004350Y005130D02*
X004350Y004570D01*
X005350Y004570D02*
X005350Y005130D01*
X006350Y005130D02*
X006350Y004570D01*
X007350Y004570D02*
X007350Y005130D01*
D21*
X018157Y012502D03*
X019157Y012502D03*
D22*
X014380Y006269D03*
X007280Y009422D03*
X005350Y010143D03*
X001413Y002712D03*
X017371Y001258D03*
X017600Y019350D03*
D23*
X018753Y016988D03*
X018753Y015208D03*
X018753Y005177D03*
X018753Y003397D03*
D24*
X017773Y002907D03*
X017773Y005667D03*
X017773Y014718D03*
X017773Y017478D03*
D25*
X018568Y009996D03*
X018568Y009011D03*
X018568Y008027D03*
D26*
X017268Y007397D03*
X017268Y010626D03*
D27*
X008804Y015289D02*
X008804Y015889D01*
X007804Y015889D02*
X007804Y015289D01*
X006804Y015289D02*
X006804Y015889D01*
X005804Y015889D02*
X005804Y015289D01*
X004804Y015289D02*
X004804Y015889D01*
X003804Y015889D02*
X003804Y015289D01*
D28*
X002801Y011670D02*
X002151Y011670D01*
X002151Y010670D02*
X002801Y010670D01*
X002809Y009344D02*
X002160Y009344D01*
X002160Y008344D02*
X002809Y008344D01*
D29*
X005153Y006930D03*
X005853Y006230D03*
X007351Y006170D03*
X007351Y007170D03*
D30*
X002112Y005244D03*
X002112Y004850D03*
X002112Y004456D03*
X001088Y004456D03*
X001088Y004850D03*
X001088Y005244D03*
D31*
X001600Y004850D03*
D32*
X010200Y013594D03*
X010200Y014381D03*
X010200Y015169D03*
X010200Y015956D03*
X010200Y016744D03*
X010200Y017531D03*
X010200Y018319D03*
X010200Y019106D03*
X016500Y019106D03*
X016500Y018319D03*
X016500Y017531D03*
X016500Y016744D03*
X016500Y015956D03*
X016500Y015169D03*
X016500Y014381D03*
X016500Y013594D03*
D33*
X017082Y013539D02*
X017230Y013391D01*
X013342Y009504D01*
X013342Y006649D01*
X013327Y006585D01*
X010685Y004484D02*
X010389Y004779D01*
X010350Y004850D01*
X010389Y004878D01*
X010389Y010193D01*
X010635Y010003D01*
X010586Y010094D01*
X010094Y010586D01*
X010635Y010003D02*
X010685Y009996D01*
X013342Y009996D01*
X013342Y009504D01*
X013342Y009996D02*
X013342Y010488D01*
X013539Y010685D01*
X013618Y010708D01*
X013441Y010685D01*
X012850Y010685D01*
X012755Y010712D01*
X010030Y012310D02*
X010030Y013150D01*
X010190Y013310D01*
X010430Y013310D01*
X010550Y013430D01*
X010550Y013910D01*
X010390Y013910D01*
X010200Y013796D01*
X010200Y013594D02*
X010230Y013590D01*
X010200Y013594D01*
X008322Y014523D02*
X007929Y014130D01*
X007916Y014063D01*
X007929Y014031D01*
X009594Y012366D01*
X010030Y012310D02*
X007750Y010030D01*
X005310Y010030D01*
X005230Y010110D01*
X005230Y010230D01*
X005350Y010350D01*
X005350Y011030D01*
X005370Y010193D02*
X006551Y011374D01*
X006551Y011670D01*
X008310Y011670D01*
X008430Y011790D01*
X008430Y012390D01*
X008070Y012750D01*
X008032Y012762D01*
X008032Y012093D02*
X008027Y012063D01*
X007141Y012063D01*
X007119Y012096D01*
X007043Y012161D01*
X006649Y012555D01*
X006649Y013933D01*
X006846Y014130D01*
X006916Y014063D01*
X008322Y014523D02*
X008322Y016492D01*
X007830Y016984D01*
X007830Y018067D01*
X007787Y018089D01*
X010200Y018319D02*
X010291Y018362D01*
X016492Y018362D01*
X016500Y018319D01*
X016590Y018362D01*
X016500Y015956D02*
X016590Y015901D01*
X016885Y015606D01*
X016984Y015606D01*
X017082Y015507D01*
X017082Y013539D01*
X017230Y013391D02*
X018067Y012555D01*
X018157Y012502D01*
X009600Y007100D02*
X009600Y006100D01*
X010685Y004484D02*
X010685Y003893D01*
X010703Y003824D01*
X010586Y003893D01*
X010350Y003893D01*
X010350Y003850D01*
X009200Y003834D01*
X008761Y003204D02*
X007240Y003204D01*
X007191Y003155D01*
X007043Y003303D01*
X004189Y003303D01*
X004185Y003350D01*
X004189Y003401D01*
X003795Y003795D01*
X003401Y003795D01*
X002269Y004927D01*
X002220Y004878D01*
X002122Y004878D01*
X002112Y004850D01*
X002269Y004927D02*
X002614Y005271D01*
X002614Y006452D01*
X002669Y006501D01*
X002712Y006452D01*
X003401Y007141D01*
X003696Y007141D01*
X003812Y007177D01*
X003795Y007141D01*
X003696Y007141D01*
X002515Y008322D01*
X002484Y008344D01*
X002350Y007600D02*
X001850Y007228D01*
X001741Y007228D01*
X001670Y006630D01*
X001670Y006310D01*
X001710Y006270D01*
X001710Y005190D01*
X001630Y005110D01*
X001600Y004850D01*
X001531Y004878D01*
X001137Y004878D01*
X001088Y004850D01*
X001590Y004870D02*
X001600Y004850D01*
X004287Y004878D02*
X004350Y004850D01*
X004287Y004878D02*
X005567Y006157D01*
X005763Y006157D01*
X005853Y006230D01*
X007191Y003155D02*
X007535Y002811D01*
X007608Y002805D01*
X007633Y002712D01*
X008421Y001925D01*
X008350Y001850D01*
X008870Y002270D02*
X008870Y001390D01*
X009150Y001110D01*
X009630Y001110D01*
X010350Y001830D01*
X010350Y001850D01*
X010310Y001910D01*
X010310Y002390D01*
X009910Y002790D01*
X009905Y002795D01*
X009307Y002712D02*
X009236Y002795D01*
X009307Y002712D02*
X009307Y001925D01*
X009350Y001850D01*
X008870Y002270D02*
X008550Y002590D01*
X008510Y002590D01*
X008310Y002790D01*
X008277Y002805D01*
X005350Y010143D02*
X005370Y010193D01*
X006551Y011670D02*
X006551Y012259D01*
X006354Y012456D01*
X006157Y012456D01*
X006095Y012470D01*
X005763Y012161D02*
X005665Y012259D01*
X005665Y012850D01*
X005271Y012850D01*
X005179Y012786D01*
X004673Y013350D01*
X005665Y012850D02*
X006059Y012850D01*
X006095Y012844D01*
X006059Y012161D02*
X005763Y012161D01*
X006059Y012161D02*
X006095Y012096D01*
X002850Y013350D02*
X001850Y013350D01*
X001850Y015850D01*
X002649Y015850D01*
X002804Y015850D01*
X003804Y015589D01*
X003303Y015114D02*
X003303Y014819D01*
X003992Y014130D01*
X004021Y014070D01*
X002649Y013752D02*
X002614Y013834D01*
X002614Y014326D01*
X003303Y015114D02*
X003007Y015409D01*
X002649Y015850D02*
X002649Y016036D01*
X003270Y017870D02*
X004710Y016430D01*
X004779Y016393D01*
X005074Y016393D01*
X005862Y015606D01*
X005804Y015589D01*
X004790Y017030D02*
X003550Y018270D01*
X002950Y018270D01*
X002590Y017910D01*
X002589Y017886D01*
X003258Y017886D02*
X003270Y017870D01*
D34*
X004790Y017030D03*
X005862Y017082D03*
X007830Y016492D03*
X008519Y016787D03*
X008322Y018756D03*
X006354Y019149D03*
X008716Y013834D03*
X009405Y013736D03*
X010783Y013169D03*
X009594Y012366D03*
X009072Y012395D03*
X009700Y010767D03*
X010094Y010586D03*
X009996Y008716D03*
X009700Y007929D03*
X009600Y007100D03*
X009600Y006100D03*
X008030Y005550D03*
X008799Y004135D03*
X009200Y003834D03*
X008761Y003204D03*
X010350Y003350D03*
X011850Y003350D03*
X017279Y003795D03*
X006354Y003992D03*
X002122Y004090D03*
X001600Y004600D03*
X001039Y004090D03*
X001600Y005100D03*
X001334Y006157D03*
X002122Y006649D03*
X003303Y006551D03*
X002350Y007600D03*
X005350Y011030D03*
X004673Y013350D03*
D35*
X004204Y013206D02*
X004259Y013073D01*
X004396Y012936D01*
X004512Y012888D01*
X004653Y012731D01*
X004653Y012504D01*
X004664Y012478D01*
X004646Y012435D01*
X004633Y012368D01*
X004633Y012117D01*
X005179Y012117D01*
X005179Y012117D01*
X004633Y012117D01*
X004633Y011866D01*
X004646Y011798D01*
X004672Y011735D01*
X004711Y011677D01*
X004760Y011628D01*
X004817Y011590D01*
X004881Y011564D01*
X004948Y011550D01*
X005179Y011550D01*
X005179Y012117D01*
X005179Y012117D01*
X005179Y011550D01*
X005411Y011550D01*
X005478Y011564D01*
X005542Y011590D01*
X005599Y011628D01*
X005648Y011677D01*
X005670Y011710D01*
X005672Y011708D01*
X005793Y011658D01*
X006397Y011658D01*
X006518Y011708D01*
X006607Y011797D01*
X006696Y011708D01*
X006817Y011658D01*
X006980Y011658D01*
X007016Y011651D01*
X007056Y011634D01*
X007099Y011634D01*
X007141Y011626D01*
X007183Y011634D01*
X007610Y011634D01*
X007648Y011596D01*
X007769Y011546D01*
X008294Y011546D01*
X008415Y011596D01*
X008508Y011689D01*
X008559Y011810D01*
X008559Y012375D01*
X008548Y012401D01*
X008551Y012409D01*
X008584Y012373D01*
X008584Y012298D01*
X008658Y012119D01*
X008796Y011981D01*
X008975Y011907D01*
X009170Y011907D01*
X009306Y011963D01*
X009317Y011952D01*
X009497Y011877D01*
X009691Y011877D01*
X009871Y011952D01*
X010008Y012089D01*
X010083Y012269D01*
X010083Y012463D01*
X010008Y012642D01*
X009871Y012780D01*
X009726Y012840D01*
X009318Y013247D01*
X009468Y013247D01*
X009470Y013236D01*
X009497Y013172D01*
X009535Y013115D01*
X009584Y013066D01*
X009641Y013028D01*
X009705Y013002D01*
X009772Y012988D01*
X010200Y012988D01*
X010200Y013594D01*
X009875Y013594D01*
X009875Y013594D01*
X010200Y013594D01*
X010200Y013594D01*
X010200Y013594D01*
X010200Y013796D01*
X010200Y013796D01*
X010200Y013594D01*
X010200Y013594D01*
X010200Y012988D01*
X010329Y012988D01*
X010369Y012892D01*
X010506Y012755D01*
X010686Y012680D01*
X010880Y012680D01*
X011060Y012755D01*
X011197Y012892D01*
X011271Y013072D01*
X011271Y013266D01*
X011197Y013446D01*
X011153Y013490D01*
X011153Y015483D01*
X011097Y015619D01*
X010993Y015723D01*
X010924Y015791D01*
X010924Y016278D01*
X010894Y016350D01*
X010924Y016422D01*
X010924Y017065D01*
X010894Y017137D01*
X010924Y017210D01*
X010924Y017853D01*
X010905Y017899D01*
X010931Y017961D01*
X010944Y018028D01*
X010944Y018318D01*
X010200Y018318D01*
X010200Y018319D01*
X010200Y019106D01*
X010200Y019106D01*
X009457Y019106D01*
X009457Y019396D01*
X009470Y019464D01*
X009497Y019528D01*
X009535Y019585D01*
X009584Y019634D01*
X009641Y019672D01*
X009672Y019685D01*
X002246Y019685D01*
X002282Y019623D01*
X002361Y019328D01*
X002361Y019022D01*
X002282Y018727D01*
X002279Y018722D01*
X002540Y018984D01*
X002676Y019040D01*
X002966Y019040D01*
X003388Y019463D01*
X003524Y019519D01*
X005148Y019519D01*
X005284Y019463D01*
X005388Y019359D01*
X005482Y019265D01*
X005530Y019285D01*
X005882Y019285D01*
X005940Y019426D01*
X006077Y019563D01*
X006257Y019638D01*
X006451Y019638D01*
X006631Y019563D01*
X006675Y019519D01*
X008494Y019519D01*
X008630Y019463D01*
X008735Y019359D01*
X008808Y019285D01*
X009089Y019285D01*
X009210Y019235D01*
X009303Y019142D01*
X009353Y019021D01*
X009353Y018496D01*
X009329Y018437D01*
X009457Y018437D01*
X009457Y018609D01*
X009470Y018676D01*
X009485Y018712D01*
X009470Y018748D01*
X009457Y018816D01*
X009457Y019106D01*
X010200Y019106D01*
X010200Y019685D01*
X010200Y019685D01*
X010200Y019106D01*
X010200Y019106D01*
X010200Y019106D01*
X010200Y018500D01*
X010200Y018319D01*
X010200Y018319D01*
X010944Y018319D01*
X010944Y018609D01*
X010931Y018676D01*
X010916Y018712D01*
X010931Y018748D01*
X010944Y018816D01*
X010944Y019106D01*
X010944Y019396D01*
X010931Y019464D01*
X010904Y019528D01*
X010866Y019585D01*
X010817Y019634D01*
X010760Y019672D01*
X010728Y019685D01*
X015738Y019685D01*
X015738Y019231D01*
X015733Y019216D01*
X015738Y019119D01*
X015738Y017780D01*
X015776Y017780D01*
X015776Y017210D01*
X015806Y017137D01*
X015776Y017065D01*
X015776Y016422D01*
X015806Y016350D01*
X015776Y016278D01*
X015776Y015635D01*
X015806Y015563D01*
X015776Y015490D01*
X015776Y014847D01*
X015806Y014775D01*
X015776Y014703D01*
X015776Y014060D01*
X015806Y013988D01*
X015776Y013916D01*
X015776Y013273D01*
X015826Y013151D01*
X015919Y013058D01*
X016040Y013008D01*
X016241Y013008D01*
X014145Y010912D01*
X014145Y010990D01*
X014134Y011017D01*
X014151Y011059D01*
X014165Y011126D01*
X014165Y011377D01*
X013618Y011377D01*
X013618Y011377D01*
X014165Y011377D01*
X014165Y011628D01*
X014151Y011696D01*
X014125Y011760D01*
X014087Y011817D01*
X014038Y011866D01*
X013981Y011904D01*
X013917Y011930D01*
X013849Y011944D01*
X013618Y011944D01*
X013618Y011377D01*
X013618Y011377D01*
X013618Y011944D01*
X013387Y011944D01*
X013319Y011930D01*
X013255Y011904D01*
X013198Y011866D01*
X013188Y011856D01*
X013175Y011869D01*
X013118Y011908D01*
X013054Y011934D01*
X012987Y011947D01*
X012755Y011947D01*
X012524Y011947D01*
X012457Y011934D01*
X012393Y011908D01*
X012335Y011869D01*
X012287Y011820D01*
X012248Y011763D01*
X012222Y011699D01*
X012209Y011632D01*
X012209Y011381D01*
X012755Y011381D01*
X012755Y011381D01*
X012755Y011947D01*
X012755Y011381D01*
X012755Y011381D01*
X012209Y011381D01*
X012209Y011130D01*
X012222Y011062D01*
X012240Y011020D01*
X012229Y010994D01*
X012229Y010429D01*
X012231Y010424D01*
X011247Y010424D01*
X011229Y010466D01*
X011151Y010544D01*
X011173Y010558D01*
X011221Y010607D01*
X011260Y010664D01*
X011286Y010728D01*
X011300Y010796D01*
X011300Y011106D01*
X011300Y011416D01*
X011286Y011483D01*
X011260Y011547D01*
X011221Y011604D01*
X011173Y011653D01*
X011115Y011691D01*
X011052Y011718D01*
X010984Y011731D01*
X010635Y011731D01*
X010635Y011106D01*
X010635Y011106D01*
X011300Y011106D01*
X010635Y011106D01*
X010635Y011106D01*
X010635Y011731D01*
X010285Y011731D01*
X010218Y011718D01*
X010154Y011691D01*
X010096Y011653D01*
X010048Y011604D01*
X010009Y011547D01*
X009983Y011483D01*
X009970Y011416D01*
X009970Y011184D01*
X009798Y011256D01*
X009603Y011256D01*
X009424Y011181D01*
X009286Y011044D01*
X009212Y010864D01*
X009212Y010670D01*
X009286Y010491D01*
X009330Y010447D01*
X009330Y008249D01*
X009286Y008205D01*
X009238Y008089D01*
X008727Y008089D01*
X008606Y008039D01*
X008513Y007946D01*
X008463Y007824D01*
X008463Y006945D01*
X008470Y006927D01*
X008102Y006558D01*
X008102Y009085D01*
X008046Y009221D01*
X008035Y009232D01*
X008035Y009735D01*
X007593Y010177D01*
X006967Y010177D01*
X006525Y009735D01*
X006525Y009109D01*
X006967Y008667D01*
X007362Y008667D01*
X007362Y007780D01*
X007351Y007780D01*
X007098Y007780D01*
X006741Y007423D01*
X006741Y007376D01*
X005444Y008673D01*
X005444Y009183D01*
X005388Y009319D01*
X005339Y009368D01*
X005350Y009368D01*
X005671Y009368D01*
X006125Y009822D01*
X006125Y010143D01*
X005350Y010143D01*
X005350Y010143D01*
X005350Y009368D01*
X005350Y010143D01*
X005350Y010143D01*
X006125Y010143D01*
X006125Y010464D01*
X005671Y010918D01*
X005350Y010918D01*
X005350Y010143D01*
X005350Y010143D01*
X004575Y010143D01*
X004575Y010133D01*
X003371Y011336D01*
X003456Y011540D01*
X003456Y011801D01*
X003356Y012041D01*
X003172Y012225D01*
X002931Y012325D01*
X002021Y012325D01*
X001781Y012225D01*
X001732Y012177D01*
X001589Y012237D01*
X001364Y012237D01*
X001155Y012151D01*
X000996Y011991D01*
X000910Y011783D01*
X000910Y011558D01*
X000996Y011349D01*
X001039Y011306D01*
X000725Y010993D01*
X000700Y010932D01*
X000700Y012774D01*
X001106Y012774D01*
X001128Y012768D01*
X001187Y012774D01*
X001246Y012774D01*
X001249Y012775D01*
X002260Y012775D01*
X002411Y012838D01*
X002526Y012953D01*
X002549Y013009D01*
X002649Y013009D01*
X002649Y013752D01*
X002649Y013752D01*
X002649Y013009D01*
X002971Y013009D01*
X003039Y013022D01*
X003102Y013048D01*
X003160Y013087D01*
X003208Y013135D01*
X003247Y013193D01*
X003273Y013256D01*
X003287Y013324D01*
X003287Y013752D01*
X002649Y013752D01*
X002649Y013752D01*
X003287Y013752D01*
X003287Y014180D01*
X003277Y014230D01*
X003278Y014237D01*
X003411Y014105D01*
X003411Y013669D01*
X003504Y013444D01*
X003675Y013273D01*
X003899Y013180D01*
X004142Y013180D01*
X004204Y013206D01*
X004580Y012813D02*
X002350Y012813D01*
X001994Y012314D02*
X000700Y012314D01*
X000700Y011816D02*
X000923Y011816D01*
X001028Y011317D02*
X000700Y011317D01*
X002958Y012314D02*
X004633Y012314D01*
X004643Y011816D02*
X003450Y011816D01*
X003391Y011317D02*
X009970Y011317D01*
X010635Y011317D02*
X010635Y011317D01*
X011300Y011317D02*
X012209Y011317D01*
X012229Y010819D02*
X011300Y010819D01*
X012283Y011816D02*
X008559Y011816D01*
X008559Y012314D02*
X008584Y012314D01*
X009792Y012813D02*
X010449Y012813D01*
X010083Y012314D02*
X015547Y012314D01*
X016045Y012813D02*
X011117Y012813D01*
X011253Y013311D02*
X015776Y013311D01*
X015776Y013810D02*
X011153Y013810D01*
X010413Y013594D02*
X010413Y013594D01*
X010200Y013594D01*
X010200Y013594D01*
X010413Y013594D01*
X010200Y013311D02*
X010200Y013311D01*
X011153Y014308D02*
X015776Y014308D01*
X015793Y014807D02*
X011153Y014807D01*
X011153Y015305D02*
X015776Y015305D01*
X015776Y015804D02*
X010924Y015804D01*
X010914Y016302D02*
X015786Y016302D01*
X015776Y016801D02*
X010924Y016801D01*
X010924Y017299D02*
X015776Y017299D01*
X015738Y017798D02*
X010924Y017798D01*
X010944Y018296D02*
X015738Y018296D01*
X015738Y018795D02*
X010940Y018795D01*
X010944Y019106D02*
X010200Y019106D01*
X010944Y019106D01*
X010944Y019293D02*
X015738Y019293D01*
X017909Y018595D02*
X017909Y018251D01*
X017927Y018251D01*
X018211Y018133D01*
X018428Y017916D01*
X018531Y017668D01*
X019035Y017668D01*
X019433Y017270D01*
X019433Y016706D01*
X019035Y016308D01*
X018472Y016308D01*
X018073Y016706D01*
X018073Y016766D01*
X017927Y016706D01*
X017620Y016706D01*
X017336Y016823D01*
X017223Y016936D01*
X017223Y016422D01*
X017193Y016350D01*
X017223Y016278D01*
X017223Y015970D01*
X017227Y015969D01*
X017325Y015871D01*
X017445Y015750D01*
X017511Y015593D01*
X017511Y015445D01*
X017620Y015491D01*
X017927Y015491D01*
X018053Y015438D01*
X018053Y015498D01*
X018463Y015908D01*
X018753Y015908D01*
X018753Y015208D01*
X018753Y015208D01*
X018753Y014508D01*
X018523Y014508D01*
X018428Y014280D01*
X018211Y014063D01*
X017927Y013946D01*
X017620Y013946D01*
X017511Y013991D01*
X017511Y013716D01*
X017593Y013634D01*
X017593Y013634D01*
X018066Y013162D01*
X018430Y013162D01*
X018657Y012935D01*
X018884Y013162D01*
X019430Y013162D01*
X019685Y012907D01*
X019685Y018128D01*
X019629Y018096D01*
X019334Y018017D01*
X019029Y018017D01*
X018734Y018096D01*
X018469Y018248D01*
X018253Y018464D01*
X018101Y018729D01*
X018092Y018760D01*
X018055Y018737D01*
X017913Y018595D01*
X017909Y018595D01*
X017909Y018296D02*
X018422Y018296D01*
X018477Y017798D02*
X019685Y017798D01*
X019685Y017299D02*
X019404Y017299D01*
X019433Y016801D02*
X019685Y016801D01*
X019685Y016302D02*
X017213Y016302D01*
X017392Y015804D02*
X018359Y015804D01*
X018753Y015804D02*
X018753Y015804D01*
X018753Y015908D02*
X018753Y015208D01*
X018753Y015208D01*
X018753Y014508D01*
X019043Y014508D01*
X019453Y014918D01*
X019453Y015208D01*
X018753Y015208D01*
X018753Y015208D01*
X019453Y015208D01*
X019453Y015498D01*
X019043Y015908D01*
X018753Y015908D01*
X019148Y015804D02*
X019685Y015804D01*
X019685Y015305D02*
X019453Y015305D01*
X018753Y015305D02*
X018753Y015305D01*
X018753Y014807D02*
X018753Y014807D01*
X019342Y014807D02*
X019685Y014807D01*
X019685Y014308D02*
X018440Y014308D01*
X017511Y013810D02*
X019685Y013810D01*
X019685Y013311D02*
X017916Y013311D01*
X019430Y011842D02*
X019685Y012096D01*
X019685Y002260D01*
X019627Y002293D01*
X019332Y002372D01*
X019027Y002372D01*
X018732Y002293D01*
X018467Y002140D01*
X018251Y001924D01*
X018159Y001765D01*
X017790Y002135D01*
X017927Y002135D01*
X018211Y002252D01*
X018428Y002469D01*
X018523Y002697D01*
X018753Y002697D01*
X018753Y003397D01*
X018753Y004097D01*
X018463Y004097D01*
X018053Y003687D01*
X018053Y003627D01*
X017927Y003680D01*
X017760Y003680D01*
X017768Y003698D01*
X017768Y003760D01*
X018505Y004497D01*
X019035Y004497D01*
X019433Y004895D01*
X019433Y005459D01*
X019035Y005857D01*
X018531Y005857D01*
X018428Y006105D01*
X018211Y006322D01*
X017927Y006440D01*
X017620Y006440D01*
X017336Y006322D01*
X017118Y006105D01*
X017001Y005821D01*
X017001Y005513D01*
X017118Y005229D01*
X017336Y005012D01*
X017620Y004895D01*
X017856Y004895D01*
X017244Y004283D01*
X017182Y004283D01*
X017002Y004209D01*
X016865Y004072D01*
X016791Y003892D01*
X016791Y003698D01*
X016865Y003518D01*
X017002Y003381D01*
X017114Y003334D01*
X017001Y003061D01*
X017001Y002923D01*
X016997Y002927D01*
X016861Y002984D01*
X015040Y002984D01*
X014904Y002927D01*
X014800Y002823D01*
X014645Y002668D01*
X014471Y002740D01*
X014229Y002740D01*
X014004Y002647D01*
X013850Y002493D01*
X013696Y002647D01*
X013630Y002674D01*
X015008Y004051D01*
X015229Y003960D01*
X015471Y003960D01*
X015696Y004053D01*
X015850Y004207D01*
X016004Y004053D01*
X016229Y003960D01*
X016471Y003960D01*
X016696Y004053D01*
X016867Y004224D01*
X016960Y004449D01*
X016960Y005251D01*
X016867Y005476D01*
X016696Y005647D01*
X016471Y005740D01*
X016229Y005740D01*
X016004Y005647D01*
X015850Y005493D01*
X015696Y005647D01*
X015471Y005740D01*
X015287Y005740D01*
X015287Y005807D01*
X016387Y006907D01*
X016387Y006780D01*
X016437Y006659D01*
X016530Y006566D01*
X016652Y006516D01*
X017885Y006516D01*
X018007Y006566D01*
X018099Y006659D01*
X018150Y006780D01*
X018150Y007512D01*
X018194Y007468D01*
X018436Y007367D01*
X018699Y007367D01*
X018942Y007468D01*
X019127Y007653D01*
X019228Y007896D01*
X019228Y008158D01*
X019127Y008401D01*
X019009Y008519D01*
X019127Y008638D01*
X019228Y008880D01*
X019228Y009143D01*
X019127Y009385D01*
X019023Y009489D01*
X019080Y009546D01*
X019134Y009617D01*
X019179Y009694D01*
X019213Y009777D01*
X019236Y009863D01*
X019248Y009951D01*
X019248Y009996D01*
X019248Y010040D01*
X019236Y010129D01*
X019213Y010215D01*
X019179Y010297D01*
X019134Y010374D01*
X019080Y010445D01*
X019017Y010508D01*
X018946Y010562D01*
X018869Y010607D01*
X018787Y010641D01*
X018701Y010664D01*
X018612Y010676D01*
X018568Y010676D01*
X018568Y009996D01*
X018568Y009996D01*
X019248Y009996D01*
X018568Y009996D01*
X018568Y009996D01*
X018568Y010676D01*
X018523Y010676D01*
X018435Y010664D01*
X018349Y010641D01*
X018266Y010607D01*
X018189Y010562D01*
X018150Y010532D01*
X018150Y011242D01*
X018099Y011364D01*
X018007Y011457D01*
X017885Y011507D01*
X017345Y011507D01*
X017432Y011594D01*
X018731Y011594D01*
X018867Y011651D01*
X019058Y011842D01*
X019430Y011842D01*
X019685Y011816D02*
X019032Y011816D01*
X019685Y011317D02*
X018119Y011317D01*
X018150Y010819D02*
X019685Y010819D01*
X019685Y010320D02*
X019166Y010320D01*
X018568Y010320D02*
X018568Y010320D01*
X019225Y009822D02*
X019685Y009822D01*
X019685Y009323D02*
X019153Y009323D01*
X019205Y008825D02*
X019685Y008825D01*
X019685Y008326D02*
X019158Y008326D01*
X019199Y007828D02*
X019685Y007828D01*
X019685Y007329D02*
X018150Y007329D01*
X018150Y006831D02*
X019685Y006831D01*
X019685Y006332D02*
X018187Y006332D01*
X017360Y006332D02*
X015812Y006332D01*
X016310Y006831D02*
X016387Y006831D01*
X017006Y005834D02*
X015313Y005834D01*
X016925Y005335D02*
X017075Y005335D01*
X016960Y004837D02*
X017797Y004837D01*
X017299Y004338D02*
X016914Y004338D01*
X016791Y003840D02*
X014796Y003840D01*
X014297Y003341D02*
X017099Y003341D01*
X017847Y003840D02*
X018206Y003840D01*
X018753Y003840D02*
X018753Y003840D01*
X018753Y004097D02*
X018753Y003397D01*
X018753Y003397D01*
X018753Y003397D01*
X018753Y002697D01*
X019043Y002697D01*
X019453Y003107D01*
X019453Y003397D01*
X018753Y003397D01*
X019453Y003397D01*
X019453Y003687D01*
X019043Y004097D01*
X018753Y004097D01*
X018346Y004338D02*
X019685Y004338D01*
X019685Y004837D02*
X019375Y004837D01*
X019433Y005335D02*
X019685Y005335D01*
X019685Y005834D02*
X019059Y005834D01*
X019301Y003840D02*
X019685Y003840D01*
X019685Y003341D02*
X019453Y003341D01*
X018753Y003341D02*
X018753Y003341D01*
X018753Y003397D02*
X018753Y003397D01*
X018753Y002843D02*
X018753Y002843D01*
X019189Y002843D02*
X019685Y002843D01*
X019685Y002344D02*
X019437Y002344D01*
X018921Y002344D02*
X018303Y002344D01*
X018206Y001846D02*
X018079Y001846D01*
X014819Y002843D02*
X013799Y002843D01*
X013251Y003341D02*
X011791Y003341D01*
X011812Y003355D02*
X011861Y003404D01*
X011899Y003461D01*
X011925Y003525D01*
X011939Y003593D01*
X011939Y003824D01*
X011939Y004055D01*
X011925Y004123D01*
X011919Y004138D01*
X012004Y004053D01*
X012229Y003960D01*
X012471Y003960D01*
X012696Y004053D01*
X012850Y004207D01*
X013004Y004053D01*
X013229Y003960D01*
X013471Y003960D01*
X013696Y004053D01*
X013850Y004207D01*
X013984Y004074D01*
X012598Y002688D01*
X012471Y002740D01*
X012229Y002740D01*
X012004Y002647D01*
X011850Y002493D01*
X011696Y002647D01*
X011471Y002740D01*
X011229Y002740D01*
X011126Y002697D01*
X010526Y003297D01*
X010985Y003297D01*
X011012Y003308D01*
X011054Y003290D01*
X011121Y003277D01*
X011372Y003277D01*
X011372Y003824D01*
X011372Y003824D01*
X011939Y003824D01*
X011372Y003824D01*
X011372Y003824D01*
X011372Y003277D01*
X011623Y003277D01*
X011691Y003290D01*
X011755Y003317D01*
X011812Y003355D01*
X011372Y003341D02*
X011372Y003341D01*
X011939Y003840D02*
X013749Y003840D01*
X012752Y002843D02*
X010981Y002843D01*
X010350Y001850D02*
X010350Y001015D01*
X010350Y001850D01*
X010350Y001850D01*
X010350Y001846D02*
X010350Y001846D01*
X010350Y001347D02*
X010350Y001347D01*
X010350Y001015D02*
X010350Y001015D01*
X001600Y004052D02*
X001600Y004052D01*
X001600Y004850D01*
X001600Y004850D01*
X001600Y005672D01*
X001930Y005672D01*
X001997Y005659D01*
X002013Y005652D01*
X002185Y005652D01*
X002185Y006104D01*
X002173Y006117D01*
X002155Y006161D01*
X002024Y006161D01*
X001845Y006235D01*
X001820Y006260D01*
X001823Y006254D01*
X001823Y006060D01*
X001748Y005880D01*
X001611Y005743D01*
X001441Y005672D01*
X001600Y005672D01*
X001600Y004850D01*
X001600Y004850D01*
X001600Y004052D01*
X001600Y004338D02*
X001600Y004338D01*
X001600Y004837D02*
X001600Y004837D01*
X001600Y005335D02*
X001600Y005335D01*
X001701Y005834D02*
X002185Y005834D01*
X002123Y007228D02*
X001741Y007228D01*
X002123Y007228D01*
X002123Y007228D01*
X001741Y007228D02*
X001741Y007228D01*
X005444Y008825D02*
X006810Y008825D01*
X006525Y009323D02*
X005385Y009323D01*
X005350Y009822D02*
X005350Y009822D01*
X005350Y010143D02*
X005350Y010143D01*
X005350Y010918D01*
X005029Y010918D01*
X004575Y010464D01*
X004575Y010143D01*
X005350Y010143D01*
X005350Y010320D02*
X005350Y010320D01*
X006125Y010320D02*
X009330Y010320D01*
X009330Y009822D02*
X007948Y009822D01*
X008035Y009323D02*
X009330Y009323D01*
X009330Y008825D02*
X008102Y008825D01*
X008102Y008326D02*
X009330Y008326D01*
X008464Y007828D02*
X008102Y007828D01*
X007362Y007828D02*
X006289Y007828D01*
X005791Y008326D02*
X007362Y008326D01*
X007351Y007780D02*
X007351Y007170D01*
X007351Y007780D01*
X007351Y007329D02*
X007351Y007329D01*
X007351Y007170D02*
X007351Y007170D01*
X008102Y007329D02*
X008463Y007329D01*
X008374Y006831D02*
X008102Y006831D01*
X006612Y009822D02*
X006124Y009822D01*
X004575Y010320D02*
X004388Y010320D01*
X003889Y010819D02*
X004929Y010819D01*
X005350Y010819D02*
X005350Y010819D01*
X005770Y010819D02*
X009212Y010819D01*
X012755Y011816D02*
X012755Y011816D01*
X013618Y011816D02*
X013618Y011816D01*
X014088Y011816D02*
X015048Y011816D01*
X014550Y011317D02*
X014165Y011317D01*
X005179Y011816D02*
X005179Y011816D01*
X003637Y013311D02*
X003284Y013311D01*
X002649Y013311D02*
X002649Y013311D01*
X003287Y013810D02*
X003411Y013810D01*
X002649Y015818D02*
X002649Y015818D01*
X002649Y016036D01*
X002649Y016779D01*
X002546Y016779D01*
X002526Y016828D01*
X002411Y016943D01*
X002260Y017006D01*
X001188Y017006D01*
X001129Y017012D01*
X001108Y017006D01*
X001085Y017006D01*
X001083Y017005D01*
X000700Y017005D01*
X000700Y018125D01*
X000753Y018094D01*
X001048Y018015D01*
X001353Y018015D01*
X001648Y018094D01*
X001860Y018216D01*
X001860Y017556D01*
X001916Y017420D01*
X002276Y017060D01*
X002380Y016956D01*
X002516Y016900D01*
X002962Y016900D01*
X003436Y016426D01*
X003374Y016379D01*
X003314Y016319D01*
X003287Y016283D01*
X003287Y016464D01*
X003273Y016532D01*
X003247Y016595D01*
X003208Y016653D01*
X003160Y016701D01*
X003102Y016740D01*
X003039Y016766D01*
X002971Y016779D01*
X002649Y016779D01*
X002649Y016036D01*
X002649Y016036D01*
X002649Y016036D01*
X002649Y015818D01*
X002649Y016302D02*
X002649Y016302D01*
X003287Y016302D02*
X003302Y016302D01*
X003061Y016801D02*
X002538Y016801D01*
X002038Y017299D02*
X000700Y017299D01*
X000700Y017798D02*
X001860Y017798D01*
X002300Y018795D02*
X002351Y018795D01*
X002361Y019293D02*
X003219Y019293D01*
X005454Y019293D02*
X005885Y019293D01*
X008800Y019293D02*
X009457Y019293D01*
X009461Y018795D02*
X009353Y018795D01*
X010200Y018795D02*
X010200Y018795D01*
X010200Y019106D02*
X010200Y019106D01*
X010200Y019293D02*
X010200Y019293D01*
X017223Y016801D02*
X017390Y016801D01*
D36*
X003007Y015409D02*
X002614Y015409D01*
X002598Y015406D01*
X002598Y014382D02*
X002614Y014326D01*
D37*
X004287Y015114D02*
X004582Y014819D01*
X007043Y014819D01*
X007437Y014425D01*
X007437Y013637D01*
X007679Y013145D01*
X008350Y013100D01*
X008600Y012895D01*
X009072Y012395D01*
X010783Y013169D02*
X010783Y015409D01*
X010291Y015901D01*
X010200Y015956D01*
X010200Y015169D02*
X010193Y015114D01*
X009996Y015114D01*
X008716Y013834D01*
X009405Y013736D02*
X009996Y014326D01*
X010193Y014326D01*
X010200Y014381D01*
X007804Y015589D02*
X007732Y015606D01*
X006452Y016885D01*
X006452Y018165D01*
X005862Y018756D01*
X005812Y018758D01*
X006354Y019149D02*
X008421Y019149D01*
X008716Y018854D01*
X008807Y018758D01*
X008322Y018756D02*
X007830Y018756D01*
X007787Y018758D01*
X007732Y018756D01*
X006846Y018756D01*
X006789Y018758D01*
X005812Y018089D02*
X005763Y018165D01*
X005173Y018756D01*
X005173Y019051D01*
X005074Y019149D01*
X003598Y019149D01*
X003106Y018657D01*
X003070Y018670D01*
X002750Y018670D01*
X002230Y018150D01*
X002230Y017630D01*
X002590Y017270D01*
X003070Y017270D01*
X003106Y017279D01*
X004287Y016098D01*
X004287Y015114D01*
X005862Y016393D02*
X005960Y016393D01*
X006748Y015606D01*
X006804Y015589D01*
X005862Y016393D02*
X004385Y017870D01*
X004385Y018362D01*
X004779Y018756D01*
X004812Y018758D01*
X004812Y018089D02*
X004878Y018067D01*
X005862Y017082D01*
X006846Y017476D02*
X007830Y016492D01*
X008519Y016787D02*
X010193Y016787D01*
X010200Y016744D01*
X010193Y017476D02*
X010200Y017531D01*
X010193Y017476D02*
X009602Y018067D01*
X008815Y018067D01*
X008807Y018089D01*
X006846Y018067D02*
X006846Y017476D01*
X006846Y018067D02*
X006789Y018089D01*
X015704Y010389D02*
X017279Y011964D01*
X018657Y011964D01*
X019149Y012456D01*
X019157Y012502D01*
X015704Y010389D02*
X015613Y010319D01*
X015613Y009650D02*
X015606Y009602D01*
X015606Y008322D01*
X013736Y006452D01*
X013736Y006354D01*
X013637Y006256D01*
X012752Y006256D01*
X011374Y004878D01*
X011350Y004850D01*
X009996Y005370D02*
X009799Y005173D01*
X009850Y004850D01*
X009850Y004135D01*
X008799Y004135D01*
X008830Y003510D02*
X007950Y004390D01*
X007950Y005310D01*
X008030Y005390D01*
X008030Y005550D01*
X007732Y005960D02*
X007535Y005763D01*
X007240Y005763D01*
X006354Y004878D01*
X006350Y004850D01*
X005370Y004878D02*
X005370Y005173D01*
X006256Y006059D01*
X006256Y006452D01*
X006059Y006649D01*
X005468Y006649D01*
X005271Y006452D01*
X005074Y006452D01*
X004189Y007338D01*
X004189Y008913D01*
X002515Y010586D01*
X002476Y010670D01*
X003007Y011177D02*
X005074Y009110D01*
X005074Y008519D01*
X007338Y006256D01*
X007351Y006170D01*
X007732Y005960D02*
X007732Y009011D01*
X007338Y009405D01*
X007280Y009422D01*
X005074Y008519D02*
X005074Y006944D01*
X005153Y006930D01*
X003812Y006508D02*
X003795Y006551D01*
X003303Y006551D01*
X002669Y007170D02*
X002614Y007141D01*
X002122Y006649D01*
X001334Y006157D02*
X000842Y005665D01*
X000842Y004681D01*
X001039Y004484D01*
X001088Y004456D01*
X001039Y004090D02*
X003303Y001826D01*
X003350Y001850D01*
X003598Y002614D02*
X004287Y001925D01*
X004350Y001850D01*
X003598Y002614D02*
X003598Y003303D01*
X003515Y003350D01*
X004189Y003992D02*
X006354Y003992D01*
X007350Y004850D02*
X007437Y004878D01*
X007437Y005370D01*
X009011Y006944D01*
X009011Y007338D01*
X009049Y007385D01*
X009700Y007929D02*
X009700Y010767D01*
X009996Y008716D02*
X009996Y005370D01*
X009011Y005468D02*
X009011Y006059D01*
X009049Y006125D01*
X009011Y005468D02*
X008421Y004878D01*
X008350Y004850D01*
X008830Y003510D02*
X009790Y003510D01*
X011350Y001950D01*
X011350Y001850D01*
X012350Y001850D02*
X012358Y001925D01*
X014917Y004484D01*
X014917Y005960D01*
X016590Y007633D01*
X016590Y008027D01*
X017574Y009011D01*
X018568Y009011D01*
X014380Y006269D02*
X014326Y006256D01*
X014031Y005960D01*
X013342Y005960D01*
X013327Y005916D01*
X013342Y005862D01*
X013342Y004878D01*
X013350Y004850D01*
X017279Y003795D02*
X018657Y005173D01*
X018753Y005177D01*
X016787Y002614D02*
X015114Y002614D01*
X014350Y001850D01*
X014130Y001137D02*
X013441Y001826D01*
X013350Y001850D01*
X014130Y001137D02*
X017181Y001137D01*
X017279Y001236D01*
X017371Y001258D01*
X017968Y001433D02*
X017968Y001039D01*
X017574Y000645D01*
X003500Y000645D01*
X001433Y002712D01*
X001413Y002712D01*
X002122Y004090D02*
X002122Y004385D01*
X002112Y004456D01*
X003350Y004850D02*
X003401Y004779D01*
X004189Y003992D01*
X005350Y004850D02*
X005370Y004878D01*
X001130Y007310D02*
X001072Y007228D01*
X001039Y007310D02*
X001130Y007310D01*
X001039Y007310D02*
X001039Y010783D01*
X001433Y011177D01*
X003007Y011177D01*
X016787Y002614D02*
X017968Y001433D01*
D38*
X019179Y001212D03*
X001200Y001200D03*
X001201Y019175D03*
X019182Y019177D03*
D39*
X017600Y019350D02*
X017574Y019346D01*
X017378Y019149D01*
X016590Y019149D01*
X016500Y019106D01*
M02*
