%
M48
M72
T01C0.01969
T02C0.03200
T03C0.04000
T04C0.12598
%
T01
X66800Y90476
X71800Y90476
X76800Y90476
X81800Y90476
X86800Y90476
X89300Y85476
X89300Y80476
X61800Y90476
X56800Y90476
X51800Y90476
X51800Y85476
X51800Y80476
X51800Y75476
X51800Y70476
X51800Y65476
X56800Y62976
X61800Y62976
X66800Y62976
X71800Y62976
X76800Y62976
X81800Y62976
X86800Y62976
X89300Y67976
X106800Y145476
X66800Y170476
X133800Y74276
X129800Y73476
X136600Y69876
X129400Y63476
X43000Y171876
X87000Y163876
X127000Y107476
X77400Y30676
X101000Y99876
X115000Y119876
X87800Y173876
X77000Y161876
X116200Y107476
X66200Y160676
X113000Y110276
X123000Y73476
X107000Y112276
X68600Y150676
X119400Y63476
X57000Y158676
X77000Y157476
T02
X166750Y18961
X156850Y18961
T03
X117863Y191205
X117863Y181205
X107863Y191205
X107863Y181205
X97863Y191205
X97863Y181205
X87863Y191205
X87863Y181205
X77863Y191205
X77863Y181205
X67863Y191205
X67863Y181205
X57863Y191205
X57863Y181205
X47863Y191205
X47863Y181205
X37863Y191205
X37863Y181205
X27863Y191205
X27863Y181205
X16800Y180476
T04
X10308Y193724
X190116Y193742
X190116Y13742
X10116Y13742
M30
