G75*
%MOIN*%
%OFA0B0*%
%FSLAX24Y24*%
%IPPOS*%
%LPD*%
%AMOC8*
5,1,8,0,0,1.08239X$1,22.5*
%
%ADD10C,0.0000*%
%ADD11C,0.0040*%
%ADD12C,0.0030*%
%ADD13C,0.0050*%
%ADD14C,0.0060*%
%ADD15C,0.0079*%
%ADD16C,0.0070*%
%ADD17C,0.0100*%
%ADD18C,0.0006*%
%ADD19C,0.0010*%
%ADD20C,0.0080*%
%ADD21C,0.0300*%
%ADD22R,0.0300X0.0200*%
%ADD23R,0.0300X0.0100*%
D10*
X000350Y000350D02*
X000350Y020035D01*
X020035Y020035D01*
X020035Y000350D01*
X000350Y000350D01*
X001267Y008344D02*
X001269Y008373D01*
X001275Y008401D01*
X001284Y008429D01*
X001297Y008455D01*
X001314Y008478D01*
X001333Y008500D01*
X001355Y008519D01*
X001380Y008534D01*
X001406Y008547D01*
X001434Y008555D01*
X001462Y008560D01*
X001491Y008561D01*
X001520Y008558D01*
X001548Y008551D01*
X001575Y008541D01*
X001601Y008527D01*
X001624Y008510D01*
X001645Y008490D01*
X001663Y008467D01*
X001678Y008442D01*
X001689Y008415D01*
X001697Y008387D01*
X001701Y008358D01*
X001701Y008330D01*
X001697Y008301D01*
X001689Y008273D01*
X001678Y008246D01*
X001663Y008221D01*
X001645Y008198D01*
X001624Y008178D01*
X001601Y008161D01*
X001575Y008147D01*
X001548Y008137D01*
X001520Y008130D01*
X001491Y008127D01*
X001462Y008128D01*
X001434Y008133D01*
X001406Y008141D01*
X001380Y008154D01*
X001355Y008169D01*
X001333Y008188D01*
X001314Y008210D01*
X001297Y008233D01*
X001284Y008259D01*
X001275Y008287D01*
X001269Y008315D01*
X001267Y008344D01*
X001267Y009344D02*
X001269Y009373D01*
X001275Y009401D01*
X001284Y009429D01*
X001297Y009455D01*
X001314Y009478D01*
X001333Y009500D01*
X001355Y009519D01*
X001380Y009534D01*
X001406Y009547D01*
X001434Y009555D01*
X001462Y009560D01*
X001491Y009561D01*
X001520Y009558D01*
X001548Y009551D01*
X001575Y009541D01*
X001601Y009527D01*
X001624Y009510D01*
X001645Y009490D01*
X001663Y009467D01*
X001678Y009442D01*
X001689Y009415D01*
X001697Y009387D01*
X001701Y009358D01*
X001701Y009330D01*
X001697Y009301D01*
X001689Y009273D01*
X001678Y009246D01*
X001663Y009221D01*
X001645Y009198D01*
X001624Y009178D01*
X001601Y009161D01*
X001575Y009147D01*
X001548Y009137D01*
X001520Y009130D01*
X001491Y009127D01*
X001462Y009128D01*
X001434Y009133D01*
X001406Y009141D01*
X001380Y009154D01*
X001355Y009169D01*
X001333Y009188D01*
X001314Y009210D01*
X001297Y009233D01*
X001284Y009259D01*
X001275Y009287D01*
X001269Y009315D01*
X001267Y009344D01*
X001259Y010670D02*
X001261Y010699D01*
X001267Y010727D01*
X001276Y010755D01*
X001289Y010781D01*
X001306Y010804D01*
X001325Y010826D01*
X001347Y010845D01*
X001372Y010860D01*
X001398Y010873D01*
X001426Y010881D01*
X001454Y010886D01*
X001483Y010887D01*
X001512Y010884D01*
X001540Y010877D01*
X001567Y010867D01*
X001593Y010853D01*
X001616Y010836D01*
X001637Y010816D01*
X001655Y010793D01*
X001670Y010768D01*
X001681Y010741D01*
X001689Y010713D01*
X001693Y010684D01*
X001693Y010656D01*
X001689Y010627D01*
X001681Y010599D01*
X001670Y010572D01*
X001655Y010547D01*
X001637Y010524D01*
X001616Y010504D01*
X001593Y010487D01*
X001567Y010473D01*
X001540Y010463D01*
X001512Y010456D01*
X001483Y010453D01*
X001454Y010454D01*
X001426Y010459D01*
X001398Y010467D01*
X001372Y010480D01*
X001347Y010495D01*
X001325Y010514D01*
X001306Y010536D01*
X001289Y010559D01*
X001276Y010585D01*
X001267Y010613D01*
X001261Y010641D01*
X001259Y010670D01*
X001259Y011670D02*
X001261Y011699D01*
X001267Y011727D01*
X001276Y011755D01*
X001289Y011781D01*
X001306Y011804D01*
X001325Y011826D01*
X001347Y011845D01*
X001372Y011860D01*
X001398Y011873D01*
X001426Y011881D01*
X001454Y011886D01*
X001483Y011887D01*
X001512Y011884D01*
X001540Y011877D01*
X001567Y011867D01*
X001593Y011853D01*
X001616Y011836D01*
X001637Y011816D01*
X001655Y011793D01*
X001670Y011768D01*
X001681Y011741D01*
X001689Y011713D01*
X001693Y011684D01*
X001693Y011656D01*
X001689Y011627D01*
X001681Y011599D01*
X001670Y011572D01*
X001655Y011547D01*
X001637Y011524D01*
X001616Y011504D01*
X001593Y011487D01*
X001567Y011473D01*
X001540Y011463D01*
X001512Y011456D01*
X001483Y011453D01*
X001454Y011454D01*
X001426Y011459D01*
X001398Y011467D01*
X001372Y011480D01*
X001347Y011495D01*
X001325Y011514D01*
X001306Y011536D01*
X001289Y011559D01*
X001276Y011585D01*
X001267Y011613D01*
X001261Y011641D01*
X001259Y011670D01*
D11*
X001039Y011778D02*
X001039Y011471D01*
X000885Y011548D02*
X000809Y011471D01*
X000655Y011471D01*
X000579Y011548D01*
X000579Y011702D01*
X000655Y011778D01*
X000809Y011778D02*
X000885Y011625D01*
X000885Y011548D01*
X000809Y011778D02*
X001039Y011778D01*
X001033Y010853D02*
X000572Y010853D01*
X000572Y010623D01*
X000649Y010546D01*
X000726Y010546D01*
X000803Y010623D01*
X000803Y010853D01*
X001033Y010853D02*
X001033Y010623D01*
X000956Y010546D01*
X000879Y010546D01*
X000803Y010623D01*
X000952Y010090D02*
X000645Y010090D01*
X000568Y010013D01*
X000568Y009860D01*
X000645Y009783D01*
X000798Y009783D01*
X000798Y009937D01*
X000952Y010090D02*
X001029Y010013D01*
X001029Y009860D01*
X000952Y009783D01*
X001029Y009630D02*
X000568Y009323D01*
X001029Y009323D01*
X001029Y009169D02*
X000568Y009169D01*
X000568Y008939D01*
X000645Y008862D01*
X000952Y008862D01*
X001029Y008939D01*
X001029Y009169D01*
X000948Y008711D02*
X001025Y008634D01*
X001025Y008480D01*
X000948Y008404D01*
X000872Y008404D01*
X000795Y008480D01*
X000718Y008404D01*
X000641Y008404D01*
X000565Y008480D01*
X000565Y008634D01*
X000641Y008711D01*
X000795Y008557D02*
X000795Y008480D01*
X000641Y008250D02*
X000641Y008173D01*
X000565Y008173D01*
X000565Y008250D01*
X000641Y008250D01*
X000641Y008020D02*
X000565Y007943D01*
X000565Y007790D01*
X000641Y007713D01*
X000718Y007713D01*
X000795Y007790D01*
X000795Y007867D01*
X000795Y007790D02*
X000872Y007713D01*
X000948Y007713D01*
X001025Y007790D01*
X001025Y007943D01*
X000948Y008020D01*
X001029Y009630D02*
X000568Y009630D01*
X004920Y010713D02*
X005100Y010713D01*
X005160Y010773D01*
X005160Y010833D01*
X005100Y010893D01*
X004920Y010893D01*
X004920Y010713D02*
X004920Y011074D01*
X005100Y011074D01*
X005160Y011013D01*
X005160Y010953D01*
X005100Y010893D01*
X005288Y010833D02*
X005468Y010833D01*
X005528Y010893D01*
X005528Y011013D01*
X005468Y011074D01*
X005288Y011074D01*
X005288Y010713D01*
X005408Y010833D02*
X005528Y010713D01*
X005656Y010713D02*
X005836Y010713D01*
X005897Y010773D01*
X005897Y010833D01*
X005836Y010893D01*
X005656Y010893D01*
X005656Y010713D02*
X005656Y011074D01*
X005836Y011074D01*
X005897Y011013D01*
X005897Y010953D01*
X005836Y010893D01*
X006025Y010953D02*
X006145Y011074D01*
X006145Y010713D01*
X006025Y010713D02*
X006265Y010713D01*
X006838Y010371D02*
X007018Y010371D01*
X007078Y010311D01*
X007078Y010251D01*
X007018Y010191D01*
X006838Y010191D01*
X006838Y010011D02*
X007018Y010011D01*
X007078Y010071D01*
X007078Y010131D01*
X007018Y010191D01*
X007206Y010131D02*
X007387Y010131D01*
X007447Y010191D01*
X007447Y010311D01*
X007387Y010371D01*
X007206Y010371D01*
X007206Y010011D01*
X007326Y010131D02*
X007447Y010011D01*
X007575Y010011D02*
X007575Y010371D01*
X007755Y010371D01*
X007815Y010311D01*
X007815Y010251D01*
X007755Y010191D01*
X007575Y010191D01*
X007755Y010191D02*
X007815Y010131D01*
X007815Y010071D01*
X007755Y010011D01*
X007575Y010011D01*
X007943Y010011D02*
X008183Y010251D01*
X008183Y010311D01*
X008123Y010371D01*
X008003Y010371D01*
X007943Y010311D01*
X007943Y010011D02*
X008183Y010011D01*
X006838Y010011D02*
X006838Y010371D01*
X006721Y008821D02*
X006721Y008744D01*
X006721Y008591D02*
X006721Y008284D01*
X006644Y008284D02*
X006798Y008284D01*
X006951Y008284D02*
X006951Y008591D01*
X007105Y008591D02*
X007181Y008591D01*
X007105Y008591D02*
X006951Y008437D01*
X006721Y008591D02*
X006644Y008591D01*
X006491Y008744D02*
X006491Y008284D01*
X006337Y008437D01*
X006184Y008284D01*
X006184Y008744D01*
X006726Y008115D02*
X006573Y007961D01*
X006573Y007808D01*
X006726Y007654D01*
X006880Y007731D02*
X006880Y007808D01*
X007033Y007961D01*
X007033Y008038D01*
X006956Y008115D01*
X006880Y008038D01*
X006880Y007961D01*
X007186Y007654D01*
X007033Y007654D02*
X007186Y007808D01*
X007033Y007654D02*
X006956Y007654D01*
X006880Y007731D01*
X007800Y007654D02*
X007800Y008115D01*
X007800Y007961D02*
X008031Y007961D01*
X008107Y007885D01*
X008107Y007731D01*
X008031Y007654D01*
X007800Y007654D01*
X008261Y007731D02*
X008261Y007885D01*
X008337Y007961D01*
X008491Y007961D01*
X008568Y007885D01*
X008568Y007731D01*
X008491Y007654D01*
X008337Y007654D01*
X008261Y007731D01*
X008721Y007654D02*
X008875Y007654D01*
X008798Y007654D02*
X008798Y007961D01*
X008721Y007961D01*
X008798Y008115D02*
X008798Y008192D01*
X008793Y008284D02*
X008869Y008361D01*
X008793Y008437D01*
X008639Y008437D01*
X008562Y008514D01*
X008639Y008591D01*
X008869Y008591D01*
X009023Y008514D02*
X009100Y008591D01*
X009330Y008591D01*
X009253Y008437D02*
X009100Y008437D01*
X009023Y008514D01*
X009023Y008284D02*
X009253Y008284D01*
X009330Y008361D01*
X009253Y008437D01*
X008793Y008284D02*
X008562Y008284D01*
X008409Y008437D02*
X008102Y008437D01*
X008102Y008361D02*
X008102Y008514D01*
X008179Y008591D01*
X008332Y008591D01*
X008409Y008514D01*
X008409Y008437D01*
X008332Y008284D02*
X008179Y008284D01*
X008102Y008361D01*
X007949Y008284D02*
X007795Y008284D01*
X007872Y008284D02*
X007872Y008744D01*
X007795Y008744D01*
X007565Y008591D02*
X007642Y008514D01*
X007642Y008437D01*
X007335Y008437D01*
X007335Y008361D02*
X007335Y008514D01*
X007412Y008591D01*
X007565Y008591D01*
X007565Y008284D02*
X007412Y008284D01*
X007335Y008361D01*
X009028Y008115D02*
X009105Y008115D01*
X009105Y007654D01*
X009028Y007654D02*
X009182Y007654D01*
X009335Y007731D02*
X009335Y007885D01*
X009412Y007961D01*
X009565Y007961D01*
X009642Y007885D01*
X009642Y007808D01*
X009335Y007808D01*
X009335Y007731D02*
X009412Y007654D01*
X009565Y007654D01*
X009795Y007654D02*
X009795Y007961D01*
X009795Y007808D02*
X009949Y007961D01*
X010026Y007961D01*
X010179Y008115D02*
X010333Y007961D01*
X010333Y007808D01*
X010179Y007654D01*
X010946Y007731D02*
X011023Y007654D01*
X011253Y007654D01*
X011407Y007731D02*
X011407Y007885D01*
X011483Y007961D01*
X011637Y007961D01*
X011714Y007885D01*
X011714Y007731D01*
X011637Y007654D01*
X011483Y007654D01*
X011407Y007731D01*
X011023Y007961D02*
X010946Y007885D01*
X010946Y007731D01*
X011023Y007961D02*
X011253Y007961D01*
X011018Y008284D02*
X011171Y008437D01*
X011171Y008744D01*
X010864Y008744D02*
X010864Y008437D01*
X011018Y008284D01*
X010711Y008284D02*
X010558Y008437D01*
X010634Y008437D02*
X010404Y008437D01*
X010404Y008284D02*
X010404Y008744D01*
X010634Y008744D01*
X010711Y008668D01*
X010711Y008514D01*
X010634Y008437D01*
X010251Y008744D02*
X009944Y008744D01*
X010097Y008744D02*
X010097Y008284D01*
X011867Y007961D02*
X011867Y007654D01*
X012174Y007654D02*
X012174Y007885D01*
X012097Y007961D01*
X011867Y007961D01*
X012328Y007961D02*
X012481Y007961D01*
X012404Y008038D02*
X012404Y007731D01*
X012481Y007654D01*
X012634Y007654D02*
X012634Y007961D01*
X012634Y007808D02*
X012788Y007961D01*
X012865Y007961D01*
X013018Y007885D02*
X013095Y007961D01*
X013248Y007961D01*
X013325Y007885D01*
X013325Y007731D01*
X013248Y007654D01*
X013095Y007654D01*
X013018Y007731D01*
X013018Y007885D01*
X013479Y008115D02*
X013555Y008115D01*
X013555Y007654D01*
X013479Y007654D02*
X013632Y007654D01*
X013785Y007654D02*
X013939Y007654D01*
X013862Y007654D02*
X013862Y008115D01*
X013785Y008115D01*
X014092Y007885D02*
X014169Y007961D01*
X014323Y007961D01*
X014399Y007885D01*
X014399Y007808D01*
X014092Y007808D01*
X014092Y007731D02*
X014092Y007885D01*
X014092Y007731D02*
X014169Y007654D01*
X014323Y007654D01*
X014553Y007654D02*
X014553Y007961D01*
X014553Y007808D02*
X014706Y007961D01*
X014783Y007961D01*
X016648Y008844D02*
X016648Y009305D01*
X016878Y009305D01*
X016955Y009228D01*
X016955Y009075D01*
X016878Y008998D01*
X016648Y008998D01*
X016801Y008998D02*
X016955Y008844D01*
X017108Y008844D02*
X017415Y008844D01*
X017262Y008844D02*
X017262Y009305D01*
X017108Y009151D01*
X017569Y009151D02*
X017722Y009305D01*
X017722Y008844D01*
X017569Y008844D02*
X017876Y008844D01*
X002990Y006180D02*
X002990Y005873D01*
X002683Y006180D01*
X002606Y006180D01*
X002529Y006103D01*
X002529Y005950D01*
X002606Y005873D01*
X002606Y005719D02*
X002759Y005719D01*
X002836Y005643D01*
X002836Y005412D01*
X002990Y005412D02*
X002529Y005412D01*
X002529Y005643D01*
X002606Y005719D01*
X001988Y005844D02*
X001988Y005411D01*
X001888Y005411D02*
X001888Y005844D01*
X001188Y005844D02*
X001188Y005411D01*
X002529Y005259D02*
X002990Y005259D01*
X002990Y004952D02*
X002529Y004952D01*
X002683Y005106D01*
X002529Y005259D01*
X002529Y004799D02*
X002529Y004492D01*
X002529Y004645D02*
X002990Y004645D01*
X016689Y017285D02*
X016807Y017403D01*
X017043Y017403D01*
X017043Y017529D02*
X016689Y017529D01*
X017043Y017765D01*
X016689Y017765D01*
X016689Y017892D02*
X016689Y018128D01*
X016689Y018010D02*
X017043Y018010D01*
X016866Y017403D02*
X016866Y017167D01*
X016807Y017167D02*
X016689Y017285D01*
X016807Y017167D02*
X017043Y017167D01*
X004418Y019303D02*
X004418Y019610D01*
X004341Y019686D01*
X004187Y019686D01*
X004111Y019610D01*
X004111Y019456D01*
X004264Y019456D01*
X004111Y019303D02*
X004187Y019226D01*
X004341Y019226D01*
X004418Y019303D01*
X003957Y019226D02*
X003650Y019686D01*
X003650Y019226D01*
X003497Y019226D02*
X003267Y019226D01*
X003190Y019303D01*
X003190Y019610D01*
X003267Y019686D01*
X003497Y019686D01*
X003497Y019226D01*
X003957Y019226D02*
X003957Y019686D01*
D12*
X010759Y019701D02*
X010759Y019454D01*
X010821Y019393D01*
X010944Y019393D01*
X011006Y019454D01*
X011006Y019701D01*
X010944Y019763D01*
X010821Y019763D01*
X010759Y019701D01*
X011127Y019640D02*
X011313Y019640D01*
X011374Y019578D01*
X011374Y019454D01*
X011313Y019393D01*
X011127Y019393D01*
X011127Y019269D02*
X011127Y019640D01*
X011496Y019578D02*
X011557Y019640D01*
X011681Y019640D01*
X011743Y019578D01*
X011743Y019516D01*
X011496Y019516D01*
X011496Y019454D02*
X011496Y019578D01*
X011496Y019454D02*
X011557Y019393D01*
X011681Y019393D01*
X011864Y019393D02*
X011864Y019640D01*
X012049Y019640D01*
X012111Y019578D01*
X012111Y019393D01*
X012356Y019393D02*
X012356Y019763D01*
X012479Y019763D02*
X012232Y019763D01*
X012601Y019763D02*
X012601Y019393D01*
X012601Y019516D02*
X012786Y019516D01*
X012848Y019578D01*
X012848Y019701D01*
X012786Y019763D01*
X012601Y019763D01*
X012724Y019516D02*
X012848Y019393D01*
X012969Y019516D02*
X013092Y019393D01*
X013216Y019516D01*
X013216Y019763D01*
X012969Y019763D02*
X012969Y019516D01*
X013337Y019454D02*
X013399Y019454D01*
X013399Y019393D01*
X013337Y019393D01*
X013337Y019454D01*
X013522Y019454D02*
X013583Y019393D01*
X013707Y019393D01*
X013768Y019454D01*
X013768Y019578D01*
X013707Y019640D01*
X013583Y019640D01*
X013522Y019578D01*
X013522Y019454D01*
X013890Y019393D02*
X013890Y019640D01*
X014013Y019640D02*
X013890Y019516D01*
X014013Y019640D02*
X014075Y019640D01*
X014197Y019578D02*
X014258Y019640D01*
X014444Y019640D01*
X014444Y019331D01*
X014382Y019269D01*
X014320Y019269D01*
X014258Y019393D02*
X014444Y019393D01*
X014565Y019393D02*
X014627Y019393D01*
X014627Y019454D01*
X014565Y019454D01*
X014565Y019393D01*
X014749Y019454D02*
X014749Y019640D01*
X014749Y019454D02*
X014811Y019393D01*
X014996Y019393D01*
X014996Y019640D01*
X015118Y019763D02*
X015118Y019393D01*
X015118Y019516D02*
X015303Y019640D01*
X015118Y019516D02*
X015303Y019393D01*
X014258Y019393D02*
X014197Y019454D01*
X014197Y019578D01*
X005588Y003837D02*
X005649Y003775D01*
X005649Y003713D01*
X005588Y003652D01*
X005649Y003590D01*
X005649Y003528D01*
X005588Y003466D01*
X005464Y003466D01*
X005403Y003528D01*
X005281Y003466D02*
X005034Y003466D01*
X005281Y003713D01*
X005281Y003775D01*
X005219Y003837D01*
X005096Y003837D01*
X005034Y003775D01*
X004913Y003775D02*
X004851Y003837D01*
X004728Y003837D01*
X004666Y003775D01*
X004545Y003775D02*
X004298Y003528D01*
X004359Y003466D01*
X004483Y003466D01*
X004545Y003528D01*
X004545Y003775D01*
X004483Y003837D01*
X004359Y003837D01*
X004298Y003775D01*
X004298Y003528D01*
X004176Y003652D02*
X003929Y003652D01*
X004114Y003837D01*
X004114Y003466D01*
X003808Y003466D02*
X003561Y003466D01*
X003684Y003466D02*
X003684Y003837D01*
X003561Y003713D01*
X003440Y003775D02*
X003193Y003528D01*
X003254Y003466D01*
X003378Y003466D01*
X003440Y003528D01*
X003440Y003775D01*
X003378Y003837D01*
X003254Y003837D01*
X003193Y003775D01*
X003193Y003528D01*
X003071Y003466D02*
X002824Y003466D01*
X003071Y003713D01*
X003071Y003775D01*
X003010Y003837D01*
X002886Y003837D01*
X002824Y003775D01*
X004666Y003466D02*
X004913Y003713D01*
X004913Y003775D01*
X005403Y003775D02*
X005464Y003837D01*
X005588Y003837D01*
X005588Y003652D02*
X005526Y003652D01*
X004913Y003466D02*
X004666Y003466D01*
D13*
X006370Y006428D02*
X006670Y006428D01*
X006830Y006428D02*
X007055Y006428D01*
X007130Y006503D01*
X007130Y006803D01*
X007055Y006878D01*
X006830Y006878D01*
X006830Y006428D01*
X007291Y006428D02*
X007291Y006878D01*
X007516Y006878D01*
X007591Y006803D01*
X007591Y006653D01*
X007516Y006578D01*
X007291Y006578D01*
X007441Y006578D02*
X007591Y006428D01*
X006370Y006428D02*
X006370Y006878D01*
X003459Y007835D02*
X003459Y008135D01*
X003459Y007985D02*
X003009Y007985D01*
X003159Y007835D01*
X003084Y008769D02*
X003009Y008844D01*
X003009Y008994D01*
X003084Y009069D01*
X003159Y009069D01*
X003459Y008769D01*
X003459Y009069D01*
X003451Y010161D02*
X003451Y010461D01*
X003451Y010311D02*
X003001Y010311D01*
X003151Y010161D01*
X003076Y011095D02*
X003001Y011170D01*
X003001Y011321D01*
X003076Y011396D01*
X003151Y011396D01*
X003451Y011095D01*
X003451Y011396D01*
X006013Y013398D02*
X006088Y013473D01*
X006088Y013548D01*
X006013Y013623D01*
X005637Y013623D01*
X005637Y013548D02*
X005637Y013698D01*
X005637Y013859D02*
X005637Y014084D01*
X005712Y014159D01*
X005863Y014159D01*
X005938Y014084D01*
X005938Y013859D01*
X006088Y013859D02*
X005637Y013859D01*
X005712Y014319D02*
X005637Y014394D01*
X005637Y014544D01*
X005712Y014619D01*
X005788Y014619D01*
X006088Y014319D01*
X006088Y014619D01*
X008508Y014532D02*
X008658Y014382D01*
X008583Y014222D02*
X008733Y014222D01*
X008808Y014147D01*
X008808Y013922D01*
X008958Y013922D02*
X008508Y013922D01*
X008508Y014147D01*
X008583Y014222D01*
X008958Y014382D02*
X008958Y014682D01*
X008958Y014532D02*
X008508Y014532D01*
X008508Y013762D02*
X008508Y013612D01*
X008508Y013687D02*
X008883Y013687D01*
X008958Y013612D01*
X008958Y013536D01*
X008883Y013461D01*
X016918Y013169D02*
X016918Y012944D01*
X017369Y012944D01*
X017369Y013169D01*
X017294Y013245D01*
X016993Y013245D01*
X016918Y013169D01*
X016918Y012784D02*
X016918Y012484D01*
X017369Y012484D01*
X017369Y012784D01*
X017143Y012634D02*
X017143Y012484D01*
X017369Y012324D02*
X017369Y012024D01*
X016918Y012024D01*
X017527Y013272D02*
X017527Y013582D01*
X017387Y013432D02*
X017677Y013432D01*
X017699Y015764D02*
X017775Y015839D01*
X017775Y015989D01*
X017699Y016064D01*
X017624Y016064D01*
X017549Y015989D01*
X017549Y015839D01*
X017474Y015764D01*
X017399Y015764D01*
X017324Y015839D01*
X017324Y015989D01*
X017399Y016064D01*
X017474Y016224D02*
X017324Y016374D01*
X017775Y016374D01*
X017775Y016224D02*
X017775Y016524D01*
X007589Y019188D02*
X007289Y019188D01*
X007129Y019188D02*
X006829Y019188D01*
X006979Y019188D02*
X006979Y019638D01*
X006669Y019638D02*
X006443Y019638D01*
X006368Y019563D01*
X006368Y019263D01*
X006443Y019188D01*
X006669Y019188D01*
X006669Y019638D01*
X006208Y019638D02*
X006058Y019638D01*
X006133Y019638D02*
X006133Y019188D01*
X006208Y019188D02*
X006058Y019188D01*
X007439Y019413D02*
X007589Y019413D01*
X007589Y019638D02*
X007589Y019188D01*
X012034Y009001D02*
X012340Y009001D01*
X012441Y008899D01*
X012441Y008695D01*
X012340Y008594D01*
X012034Y008594D01*
X012238Y008594D02*
X012441Y008390D01*
X012642Y008492D02*
X012642Y008695D01*
X012744Y008797D01*
X012947Y008797D01*
X013049Y008695D01*
X013049Y008594D01*
X012642Y008594D01*
X012642Y008492D02*
X012744Y008390D01*
X012947Y008390D01*
X013453Y008390D02*
X013657Y008797D01*
X013250Y008797D02*
X013453Y008390D01*
X014465Y008390D02*
X014872Y008797D01*
X014872Y008899D01*
X014770Y009001D01*
X014567Y009001D01*
X014465Y008899D01*
X014465Y008390D02*
X014872Y008390D01*
X014910Y007135D02*
X015210Y007135D01*
X015286Y007060D01*
X015286Y006910D01*
X015210Y006835D01*
X014910Y006835D01*
X014835Y006910D01*
X014835Y007060D01*
X014910Y007135D01*
X015135Y006985D02*
X015286Y007135D01*
X015210Y006675D02*
X014910Y006675D01*
X014835Y006600D01*
X014835Y006374D01*
X015286Y006374D01*
X015286Y006600D01*
X015210Y006675D01*
X012034Y008390D02*
X012034Y009001D01*
X017362Y004596D02*
X017362Y004445D01*
X017437Y004370D01*
X017437Y004210D02*
X017362Y004135D01*
X017362Y003985D01*
X017437Y003910D01*
X017512Y003910D01*
X017587Y003985D01*
X017587Y004135D01*
X017662Y004210D01*
X017737Y004210D01*
X017812Y004135D01*
X017812Y003985D01*
X017737Y003910D01*
X017812Y004370D02*
X017512Y004671D01*
X017437Y004671D01*
X017362Y004596D01*
X017812Y004671D02*
X017812Y004370D01*
D14*
X018289Y004595D02*
X018289Y004995D01*
X018189Y004995D01*
X018189Y005345D01*
X018289Y005345D01*
X018292Y005635D01*
X018463Y005637D01*
X018263Y005737D02*
X019663Y005737D01*
X019663Y005287D01*
X019663Y002837D01*
X018263Y002837D01*
X018287Y002935D02*
X018463Y002937D01*
X018287Y002935D02*
X018289Y003245D01*
X018189Y003245D01*
X018189Y003545D01*
X018289Y003545D01*
X018289Y003995D01*
X018366Y003996D01*
X018366Y004596D01*
X018289Y004595D01*
X019163Y004537D02*
X019563Y004537D01*
X019563Y005637D01*
X019063Y005637D01*
X019663Y005287D02*
X019763Y005287D01*
X019763Y004787D01*
X019913Y004787D01*
X019913Y003787D01*
X019763Y003787D01*
X019763Y004787D01*
X019563Y004537D02*
X019563Y004037D01*
X019163Y004037D01*
X019163Y004537D01*
X019563Y004037D02*
X019563Y002937D01*
X019063Y002937D01*
X019663Y003287D02*
X019763Y003287D01*
X019763Y003787D01*
X017117Y003555D02*
X017117Y004205D01*
X002517Y004205D01*
X002517Y002405D01*
X017117Y002405D01*
X017117Y003055D01*
X017087Y003057D01*
X017057Y003062D01*
X017028Y003071D01*
X017001Y003084D01*
X016975Y003099D01*
X016951Y003118D01*
X016930Y003139D01*
X016911Y003163D01*
X016896Y003189D01*
X016883Y003216D01*
X016874Y003245D01*
X016869Y003275D01*
X016867Y003305D01*
X016869Y003335D01*
X016874Y003365D01*
X016883Y003394D01*
X016896Y003421D01*
X016911Y003447D01*
X016930Y003471D01*
X016951Y003492D01*
X016975Y003511D01*
X017001Y003526D01*
X017028Y003539D01*
X017057Y003548D01*
X017087Y003553D01*
X017117Y003555D01*
X014727Y006279D02*
X014527Y006279D01*
X014727Y006279D02*
X014727Y006479D01*
X014027Y006279D02*
X013827Y006279D01*
X013827Y006479D01*
X013827Y006979D02*
X013827Y007179D01*
X014027Y007179D01*
X014527Y007179D02*
X014727Y007179D01*
X014727Y006979D01*
X007730Y008972D02*
X007730Y009172D01*
X007730Y008972D02*
X007530Y008972D01*
X007030Y008972D02*
X006830Y008972D01*
X006830Y009172D01*
X006830Y009672D02*
X006830Y009872D01*
X007030Y009872D01*
X007530Y009872D02*
X007730Y009872D01*
X007730Y009672D01*
X005800Y009693D02*
X005600Y009693D01*
X005800Y009693D02*
X005800Y009893D01*
X005800Y010393D02*
X005800Y010593D01*
X005600Y010593D01*
X005100Y010593D02*
X004900Y010593D01*
X004900Y010393D01*
X004726Y010080D02*
X001186Y010080D01*
X001186Y012261D01*
X004726Y012261D01*
X004726Y010080D01*
X004734Y009934D02*
X001194Y009934D01*
X001194Y007753D01*
X004734Y007753D01*
X004734Y009934D01*
X004900Y009893D02*
X004900Y009693D01*
X005100Y009693D01*
X003666Y009480D02*
X003666Y008210D01*
X005775Y007502D02*
X006009Y007735D01*
X006270Y007474D01*
X006044Y007247D01*
X004303Y006611D02*
X004305Y006669D01*
X004311Y006727D01*
X004321Y006784D01*
X004335Y006840D01*
X004352Y006896D01*
X004373Y006950D01*
X004398Y007002D01*
X004427Y007053D01*
X004459Y007101D01*
X004494Y007147D01*
X004532Y007191D01*
X004573Y007232D01*
X004617Y007270D01*
X004663Y007305D01*
X004711Y007337D01*
X004762Y007366D01*
X004814Y007391D01*
X004868Y007412D01*
X004924Y007429D01*
X004980Y007443D01*
X005037Y007453D01*
X005095Y007459D01*
X005153Y007461D01*
X005211Y007459D01*
X005269Y007453D01*
X005326Y007443D01*
X005382Y007429D01*
X005438Y007412D01*
X005492Y007391D01*
X005544Y007366D01*
X005595Y007337D01*
X005643Y007305D01*
X005689Y007270D01*
X005733Y007232D01*
X005774Y007191D01*
X005812Y007147D01*
X005847Y007101D01*
X005879Y007053D01*
X005908Y007002D01*
X005933Y006950D01*
X005954Y006896D01*
X005971Y006840D01*
X005985Y006784D01*
X005995Y006727D01*
X006001Y006669D01*
X006003Y006611D01*
X006001Y006553D01*
X005995Y006495D01*
X005985Y006438D01*
X005971Y006382D01*
X005954Y006326D01*
X005933Y006272D01*
X005908Y006220D01*
X005879Y006169D01*
X005847Y006121D01*
X005812Y006075D01*
X005774Y006031D01*
X005733Y005990D01*
X005689Y005952D01*
X005643Y005917D01*
X005595Y005885D01*
X005544Y005856D01*
X005492Y005831D01*
X005438Y005810D01*
X005382Y005793D01*
X005326Y005779D01*
X005269Y005769D01*
X005211Y005763D01*
X005153Y005761D01*
X005095Y005763D01*
X005037Y005769D01*
X004980Y005779D01*
X004924Y005793D01*
X004868Y005810D01*
X004814Y005831D01*
X004762Y005856D01*
X004711Y005885D01*
X004663Y005917D01*
X004617Y005952D01*
X004573Y005990D01*
X004532Y006031D01*
X004494Y006075D01*
X004459Y006121D01*
X004427Y006169D01*
X004398Y006220D01*
X004373Y006272D01*
X004352Y006326D01*
X004335Y006382D01*
X004321Y006438D01*
X004311Y006495D01*
X004305Y006553D01*
X004303Y006611D01*
X004056Y006618D02*
X004058Y006684D01*
X004064Y006749D01*
X004074Y006814D01*
X004088Y006879D01*
X004105Y006942D01*
X004127Y007005D01*
X004152Y007065D01*
X004181Y007125D01*
X004213Y007182D01*
X004249Y007237D01*
X004288Y007290D01*
X004330Y007341D01*
X004375Y007389D01*
X004423Y007434D01*
X004474Y007476D01*
X004527Y007515D01*
X004582Y007551D01*
X004639Y007583D01*
X004699Y007612D01*
X004759Y007637D01*
X004822Y007659D01*
X004885Y007676D01*
X004950Y007690D01*
X005015Y007700D01*
X005080Y007706D01*
X005146Y007708D01*
X005212Y007706D01*
X005277Y007700D01*
X005342Y007690D01*
X005407Y007676D01*
X005470Y007659D01*
X005533Y007637D01*
X005593Y007612D01*
X005653Y007583D01*
X005710Y007551D01*
X005765Y007515D01*
X005818Y007476D01*
X005869Y007434D01*
X005917Y007389D01*
X005962Y007341D01*
X006004Y007290D01*
X006043Y007237D01*
X006079Y007182D01*
X006111Y007125D01*
X006140Y007065D01*
X006165Y007005D01*
X006187Y006942D01*
X006204Y006879D01*
X006218Y006814D01*
X006228Y006749D01*
X006234Y006684D01*
X006236Y006618D01*
X006234Y006552D01*
X006228Y006487D01*
X006218Y006422D01*
X006204Y006357D01*
X006187Y006294D01*
X006165Y006231D01*
X006140Y006171D01*
X006111Y006111D01*
X006079Y006054D01*
X006043Y005999D01*
X006004Y005946D01*
X005962Y005895D01*
X005917Y005847D01*
X005869Y005802D01*
X005818Y005760D01*
X005765Y005721D01*
X005710Y005685D01*
X005653Y005653D01*
X005593Y005624D01*
X005533Y005599D01*
X005470Y005577D01*
X005407Y005560D01*
X005342Y005546D01*
X005277Y005536D01*
X005212Y005530D01*
X005146Y005528D01*
X005080Y005530D01*
X005015Y005536D01*
X004950Y005546D01*
X004885Y005560D01*
X004822Y005577D01*
X004759Y005599D01*
X004699Y005624D01*
X004639Y005653D01*
X004582Y005685D01*
X004527Y005721D01*
X004474Y005760D01*
X004423Y005802D01*
X004375Y005847D01*
X004330Y005895D01*
X004288Y005946D01*
X004249Y005999D01*
X004213Y006054D01*
X004181Y006111D01*
X004152Y006171D01*
X004127Y006231D01*
X004105Y006294D01*
X004088Y006357D01*
X004074Y006422D01*
X004064Y006487D01*
X004058Y006552D01*
X004056Y006618D01*
X004623Y007141D02*
X004586Y007102D01*
X004553Y007060D01*
X004522Y007016D01*
X004495Y006970D01*
X004471Y006923D01*
X004450Y006873D01*
X004433Y006822D01*
X004420Y006770D01*
X004411Y006718D01*
X004405Y006665D01*
X004403Y006611D01*
X004405Y006557D01*
X004411Y006504D01*
X004420Y006452D01*
X004433Y006400D01*
X004450Y006349D01*
X004471Y006299D01*
X004495Y006252D01*
X004522Y006206D01*
X004553Y006162D01*
X004586Y006120D01*
X004623Y006081D01*
X004799Y006257D02*
X004770Y006290D01*
X004743Y006324D01*
X004720Y006361D01*
X004700Y006400D01*
X004683Y006440D01*
X004670Y006482D01*
X004661Y006524D01*
X004655Y006567D01*
X004653Y006611D01*
X004655Y006655D01*
X004661Y006698D01*
X004670Y006740D01*
X004683Y006782D01*
X004700Y006822D01*
X004720Y006861D01*
X004743Y006898D01*
X004770Y006932D01*
X004799Y006965D01*
X005507Y006965D02*
X005536Y006932D01*
X005563Y006898D01*
X005586Y006861D01*
X005606Y006822D01*
X005623Y006782D01*
X005636Y006740D01*
X005645Y006698D01*
X005651Y006655D01*
X005653Y006611D01*
X005651Y006567D01*
X005645Y006524D01*
X005636Y006482D01*
X005623Y006440D01*
X005606Y006400D01*
X005586Y006361D01*
X005563Y006324D01*
X005536Y006290D01*
X005507Y006257D01*
X005683Y006081D02*
X005720Y006120D01*
X005753Y006162D01*
X005784Y006206D01*
X005811Y006252D01*
X005835Y006299D01*
X005856Y006349D01*
X005873Y006400D01*
X005886Y006452D01*
X005895Y006504D01*
X005901Y006557D01*
X005903Y006611D01*
X005901Y006665D01*
X005895Y006718D01*
X005886Y006770D01*
X005873Y006822D01*
X005856Y006873D01*
X005835Y006923D01*
X005811Y006970D01*
X005784Y007016D01*
X005753Y007060D01*
X005720Y007102D01*
X005683Y007141D01*
X003657Y010536D02*
X003657Y011806D01*
X003621Y013420D02*
X004421Y013420D01*
X004521Y013670D01*
X004621Y013420D01*
X005421Y013420D01*
X005521Y013670D01*
X005521Y014470D01*
X005421Y014720D01*
X004621Y014720D01*
X004521Y014470D01*
X004421Y014720D01*
X003621Y014720D01*
X003521Y014470D01*
X003521Y013670D01*
X003621Y013420D01*
X006416Y013663D02*
X006516Y013413D01*
X007316Y013413D01*
X007416Y013663D01*
X007516Y013413D01*
X008316Y013413D01*
X008416Y013663D01*
X008416Y014463D01*
X008316Y014713D01*
X007516Y014713D01*
X007416Y014463D01*
X007316Y014713D01*
X006516Y014713D01*
X006416Y014463D01*
X006416Y013663D01*
X006304Y016339D02*
X005304Y016339D01*
X005304Y017339D01*
X006304Y017339D01*
X007304Y017339D01*
X008304Y017339D01*
X009304Y017339D01*
X009304Y016339D01*
X008304Y016339D01*
X008304Y017339D01*
X007304Y017339D02*
X007304Y016339D01*
X008304Y016339D01*
X007304Y016339D02*
X006304Y016339D01*
X006304Y017339D01*
X005304Y017339D02*
X004304Y017339D01*
X003304Y017339D01*
X003304Y016339D01*
X004304Y016339D01*
X005304Y016339D01*
X004304Y016339D02*
X004304Y017339D01*
X016718Y018216D02*
X016718Y018416D01*
X016718Y018216D02*
X016918Y018216D01*
X017418Y018216D02*
X017618Y018216D01*
X017618Y018416D01*
X017618Y018916D02*
X017618Y019116D01*
X017418Y019116D01*
X016918Y019116D02*
X016718Y019116D01*
X016718Y018916D01*
X018263Y017548D02*
X019663Y017548D01*
X019663Y017098D01*
X019663Y014648D01*
X018263Y014648D01*
X018287Y014746D02*
X018463Y014748D01*
X018287Y014746D02*
X018289Y015056D01*
X018189Y015056D01*
X018189Y015356D01*
X018289Y015356D01*
X018289Y015806D01*
X018366Y015807D01*
X018366Y016407D01*
X018289Y016406D01*
X018289Y016806D01*
X018189Y016806D01*
X018189Y017156D01*
X018289Y017156D01*
X018292Y017446D01*
X018463Y017448D01*
X019063Y017448D02*
X019563Y017448D01*
X019563Y016348D01*
X019163Y016348D01*
X019163Y015848D01*
X019563Y015848D01*
X019563Y016348D01*
X019763Y016598D02*
X019763Y017098D01*
X019663Y017098D01*
X019763Y016598D02*
X019913Y016598D01*
X019913Y015598D01*
X019763Y015598D01*
X019763Y016598D01*
X019563Y015848D02*
X019563Y014748D01*
X019063Y014748D01*
X019663Y015098D02*
X019763Y015098D01*
X019763Y015598D01*
D15*
X015901Y013158D02*
X010586Y018473D01*
X012466Y017469D02*
X012470Y017420D01*
X012470Y017370D01*
X012466Y017321D01*
X012427Y017312D02*
X012417Y017410D01*
X012417Y017470D02*
X012420Y017478D01*
X012425Y017486D01*
X012433Y017490D01*
X012442Y017492D01*
X012451Y017490D01*
X012459Y017486D01*
X012464Y017478D01*
X012467Y017470D01*
X012250Y017390D02*
X012235Y017381D01*
X012223Y017370D01*
X012212Y017357D01*
X012205Y017342D01*
X012200Y017325D01*
X012199Y017308D01*
X012201Y017292D01*
X012210Y017292D02*
X014248Y017292D01*
X014277Y017292D02*
X014279Y017305D01*
X014278Y017318D01*
X014274Y017331D01*
X014267Y017342D01*
X014257Y017351D01*
X014228Y017262D02*
X014230Y017281D01*
X014235Y017300D01*
X014245Y017316D01*
X014257Y017331D01*
X014272Y017343D01*
X014288Y017353D01*
X014307Y017358D01*
X014326Y017360D01*
X014345Y017358D01*
X014364Y017353D01*
X014380Y017343D01*
X014395Y017331D01*
X014407Y017316D01*
X014417Y017300D01*
X014422Y017281D01*
X014424Y017262D01*
X014422Y017243D01*
X014417Y017224D01*
X014407Y017208D01*
X014395Y017193D01*
X014380Y017181D01*
X014364Y017171D01*
X014345Y017166D01*
X014326Y017164D01*
X014307Y017166D01*
X014288Y017171D01*
X014272Y017181D01*
X014257Y017193D01*
X014245Y017208D01*
X014235Y017224D01*
X014230Y017243D01*
X014228Y017262D01*
X014258Y017350D02*
X014239Y017362D01*
X014219Y017372D01*
X014199Y017380D01*
X014346Y017163D02*
X014363Y017165D01*
X014380Y017170D01*
X014395Y017178D01*
X014409Y017189D01*
X014420Y017203D01*
X014428Y017218D01*
X014433Y017235D01*
X014435Y017252D01*
X014435Y017262D01*
X012092Y017262D01*
X012082Y017262D01*
X012072Y017262D01*
X012082Y017262D02*
X012092Y017262D01*
X012072Y017263D02*
X012063Y017262D01*
X012054Y017257D01*
X012048Y017251D01*
X012043Y017242D01*
X012042Y017233D01*
X012043Y017233D02*
X012043Y017213D01*
X012043Y017184D01*
X012045Y017176D01*
X012049Y017170D01*
X012055Y017166D01*
X012063Y017164D01*
X012220Y017164D01*
X013067Y017164D01*
X013874Y017164D01*
X014346Y017164D01*
X014287Y017154D02*
X014011Y014437D01*
X013745Y014211D02*
X013747Y014234D01*
X013753Y014257D01*
X013763Y014278D01*
X013776Y014298D01*
X013792Y014315D01*
X013811Y014329D01*
X013832Y014339D01*
X013854Y014346D01*
X013877Y014349D01*
X013901Y014348D01*
X013923Y014343D01*
X013945Y014334D01*
X013965Y014322D01*
X013983Y014306D01*
X013997Y014288D01*
X014009Y014268D01*
X014017Y014246D01*
X014021Y014223D01*
X014021Y014199D01*
X014017Y014176D01*
X014009Y014154D01*
X013997Y014134D01*
X013983Y014116D01*
X013965Y014100D01*
X013945Y014088D01*
X013923Y014079D01*
X013901Y014074D01*
X013877Y014073D01*
X013854Y014076D01*
X013832Y014083D01*
X013811Y014093D01*
X013792Y014107D01*
X013776Y014124D01*
X013763Y014144D01*
X013753Y014165D01*
X013747Y014188D01*
X013745Y014211D01*
X013618Y014182D02*
X012624Y014172D01*
X012594Y014152D02*
X012594Y014024D01*
X012595Y014011D01*
X012600Y013998D01*
X012607Y013987D01*
X012616Y013978D01*
X012627Y013971D01*
X012640Y013966D01*
X012653Y013965D01*
X012673Y013965D01*
X012686Y013967D01*
X012698Y013972D01*
X012708Y013979D01*
X012715Y013990D01*
X012720Y014001D01*
X012722Y014014D01*
X012722Y014152D01*
X012564Y014181D02*
X012547Y014185D01*
X012532Y014191D01*
X012517Y014201D01*
X012505Y014213D01*
X012495Y014228D01*
X012489Y014243D01*
X012485Y014260D01*
X012486Y014260D02*
X012200Y017154D01*
X012416Y017409D02*
X012415Y017439D01*
X012416Y017469D01*
X012978Y017479D02*
X013027Y017479D01*
X013027Y017508D02*
X013027Y017430D01*
X013480Y017430D01*
X013480Y017508D01*
X013027Y017508D01*
X013490Y017479D02*
X013677Y017469D01*
X014287Y016987D02*
X014300Y016985D01*
X014314Y016985D01*
X014327Y016987D01*
X014326Y016986D02*
X014344Y016988D01*
X014361Y016986D01*
X014378Y016981D01*
X014394Y016973D01*
X014408Y016962D01*
X014419Y016948D01*
X014427Y016932D01*
X014432Y016916D01*
X014434Y016898D01*
X014435Y016898D02*
X014435Y016839D01*
X014434Y016839D02*
X014433Y016822D01*
X014428Y016805D01*
X014421Y016790D01*
X014411Y016776D01*
X014399Y016764D01*
X014385Y016754D01*
X014370Y016747D01*
X014353Y016742D01*
X014336Y016741D01*
X014267Y016741D01*
X013637Y016406D02*
X013637Y016337D01*
X013636Y016327D01*
X013632Y016318D01*
X013626Y016309D01*
X013618Y016303D01*
X013608Y016299D01*
X013598Y016298D01*
X013135Y016298D01*
X013122Y016299D01*
X013109Y016304D01*
X013098Y016311D01*
X013089Y016320D01*
X013082Y016331D01*
X013077Y016344D01*
X013076Y016357D01*
X013076Y016386D01*
X013076Y016416D01*
X012486Y017449D02*
X012427Y017440D01*
X012368Y017429D01*
X012368Y017430D02*
X012328Y017419D01*
X012288Y017406D01*
X012250Y017390D01*
X014001Y017430D02*
X014067Y017416D01*
X014133Y017400D01*
X014198Y017381D01*
X015921Y018493D02*
X010567Y013138D01*
X012565Y014182D02*
X012595Y014178D01*
X012624Y014172D01*
X013627Y014211D02*
X013629Y014242D01*
X013635Y014273D01*
X013644Y014303D01*
X013657Y014332D01*
X013674Y014359D01*
X013694Y014383D01*
X013716Y014405D01*
X013742Y014424D01*
X013769Y014440D01*
X013798Y014452D01*
X013828Y014461D01*
X013859Y014466D01*
X013891Y014467D01*
X013922Y014464D01*
X013953Y014457D01*
X013983Y014447D01*
X014011Y014433D01*
X014037Y014415D01*
X014061Y014395D01*
X014082Y014371D01*
X014101Y014346D01*
X014116Y014318D01*
X014127Y014289D01*
X014135Y014258D01*
X014139Y014227D01*
X014139Y014195D01*
X014135Y014164D01*
X014127Y014133D01*
X014116Y014104D01*
X014101Y014076D01*
X014082Y014051D01*
X014061Y014027D01*
X014037Y014007D01*
X014011Y013989D01*
X013983Y013975D01*
X013953Y013965D01*
X013922Y013958D01*
X013891Y013955D01*
X013859Y013956D01*
X013828Y013961D01*
X013798Y013970D01*
X013769Y013982D01*
X013742Y013998D01*
X013716Y014017D01*
X013694Y014039D01*
X013674Y014063D01*
X013657Y014090D01*
X013644Y014119D01*
X013635Y014149D01*
X013629Y014180D01*
X013627Y014211D01*
X014001Y017429D02*
X013921Y017443D01*
X013840Y017455D01*
X013758Y017463D01*
X013676Y017469D01*
X012978Y017479D02*
X012855Y017477D01*
X012731Y017472D01*
X012609Y017462D01*
X012486Y017449D01*
D16*
X016304Y004076D02*
X016304Y003656D01*
X016304Y003866D02*
X015674Y003866D01*
X015884Y003656D01*
X015779Y003432D02*
X015674Y003327D01*
X015674Y003117D01*
X015779Y003012D01*
X016199Y003012D01*
X016304Y003117D01*
X016304Y003327D01*
X016199Y003432D01*
X016304Y002792D02*
X016304Y002582D01*
X016304Y002687D02*
X015674Y002687D01*
X015674Y002582D02*
X015674Y002792D01*
D17*
X011437Y009159D02*
X011197Y009329D01*
X011097Y009269D01*
X010907Y009719D01*
X010587Y009719D02*
X010387Y009269D01*
X010287Y009329D01*
X010047Y009159D01*
X009867Y009349D01*
X010027Y009589D01*
X009927Y009859D02*
X009627Y009909D01*
X009627Y010169D01*
X009927Y010229D01*
X010037Y010479D02*
X009857Y010739D01*
X010047Y010919D01*
X010307Y010739D01*
X010557Y010839D02*
X010607Y011159D01*
X010877Y011159D01*
X010927Y010839D01*
X011177Y010739D02*
X011437Y010919D01*
X011627Y010739D01*
X011447Y010479D01*
X011557Y010229D02*
X011857Y010169D01*
X011857Y009909D01*
X011557Y009859D01*
X011457Y009589D02*
X011627Y009349D01*
X011437Y009159D01*
X011458Y009589D02*
X011481Y009630D01*
X011502Y009673D01*
X011520Y009718D01*
X011535Y009763D01*
X011548Y009809D01*
X011558Y009856D01*
X011556Y010230D02*
X011541Y010282D01*
X011522Y010333D01*
X011500Y010383D01*
X011475Y010431D01*
X011446Y010478D01*
X010907Y009729D02*
X010940Y009747D01*
X010970Y009768D01*
X010999Y009792D01*
X011025Y009819D01*
X011047Y009848D01*
X011067Y009880D01*
X011084Y009913D01*
X011097Y009948D01*
X011106Y009984D01*
X011112Y010021D01*
X011114Y010058D01*
X011112Y010095D01*
X011107Y010132D01*
X011097Y010168D01*
X011085Y010203D01*
X011068Y010237D01*
X011049Y010268D01*
X011026Y010298D01*
X011000Y010325D01*
X010972Y010349D01*
X010941Y010370D01*
X010909Y010388D01*
X010875Y010403D01*
X010839Y010414D01*
X010803Y010422D01*
X010766Y010426D01*
X010728Y010426D01*
X010691Y010422D01*
X010655Y010414D01*
X010619Y010403D01*
X010585Y010388D01*
X010553Y010370D01*
X010522Y010349D01*
X010494Y010325D01*
X010468Y010298D01*
X010445Y010268D01*
X010426Y010237D01*
X010409Y010203D01*
X010397Y010168D01*
X010387Y010132D01*
X010382Y010095D01*
X010380Y010058D01*
X010382Y010021D01*
X010388Y009984D01*
X010397Y009948D01*
X010410Y009913D01*
X010427Y009880D01*
X010447Y009848D01*
X010469Y009819D01*
X010495Y009792D01*
X010524Y009768D01*
X010554Y009747D01*
X010587Y009729D01*
X010031Y009592D02*
X010003Y009642D01*
X009979Y009694D01*
X009958Y009747D01*
X009941Y009802D01*
X009928Y009858D01*
X010311Y010743D02*
X010356Y010768D01*
X010403Y010791D01*
X010451Y010810D01*
X010500Y010827D01*
X010550Y010840D01*
X010038Y010475D02*
X010011Y010428D01*
X009987Y010381D01*
X009966Y010332D01*
X009948Y010281D01*
X009934Y010230D01*
X010932Y010842D02*
X010984Y010828D01*
X011035Y010811D01*
X011085Y010791D01*
X011134Y010768D01*
X011181Y010741D01*
D18*
X018743Y011497D02*
X018740Y011551D01*
X018740Y011550D02*
X018796Y011556D01*
X018852Y011565D01*
X018906Y011578D01*
X018960Y011595D01*
X019013Y011615D01*
X019063Y011639D01*
X019113Y011667D01*
X019160Y011697D01*
X019205Y011731D01*
X019247Y011769D01*
X019287Y011808D01*
X019323Y011851D01*
X019357Y011896D01*
X019401Y011866D01*
X019402Y011865D01*
X019368Y011821D01*
X019332Y011778D01*
X019293Y011738D01*
X019252Y011701D01*
X019208Y011666D01*
X019162Y011634D01*
X019115Y011605D01*
X019065Y011580D01*
X019014Y011557D01*
X018962Y011538D01*
X018908Y011522D01*
X018854Y011510D01*
X018799Y011502D01*
X018743Y011497D01*
X018743Y011502D01*
X018798Y011507D01*
X018853Y011515D01*
X018907Y011527D01*
X018960Y011543D01*
X019012Y011562D01*
X019063Y011584D01*
X019112Y011610D01*
X019160Y011638D01*
X019205Y011670D01*
X019249Y011704D01*
X019290Y011742D01*
X019328Y011781D01*
X019364Y011824D01*
X019397Y011868D01*
X019393Y011871D01*
X019360Y011827D01*
X019325Y011785D01*
X019286Y011745D01*
X019245Y011708D01*
X019202Y011674D01*
X019157Y011642D01*
X019110Y011614D01*
X019061Y011589D01*
X019010Y011566D01*
X018959Y011548D01*
X018906Y011532D01*
X018852Y011520D01*
X018797Y011512D01*
X018743Y011506D01*
X018742Y011511D01*
X018797Y011516D01*
X018851Y011525D01*
X018904Y011537D01*
X018957Y011552D01*
X019009Y011571D01*
X019059Y011593D01*
X019107Y011618D01*
X019154Y011647D01*
X019199Y011678D01*
X019242Y011712D01*
X019283Y011749D01*
X019321Y011788D01*
X019356Y011830D01*
X019389Y011874D01*
X019385Y011877D01*
X019353Y011833D01*
X019317Y011792D01*
X019279Y011752D01*
X019239Y011716D01*
X019196Y011682D01*
X019152Y011651D01*
X019105Y011623D01*
X019057Y011598D01*
X019007Y011576D01*
X018955Y011557D01*
X018903Y011542D01*
X018850Y011530D01*
X018796Y011521D01*
X018742Y011516D01*
X018742Y011521D01*
X018796Y011526D01*
X018849Y011535D01*
X018902Y011547D01*
X018954Y011562D01*
X019005Y011580D01*
X019054Y011602D01*
X019102Y011627D01*
X019149Y011655D01*
X019193Y011686D01*
X019236Y011720D01*
X019276Y011756D01*
X019314Y011795D01*
X019349Y011836D01*
X019381Y011880D01*
X019377Y011882D01*
X019345Y011839D01*
X019310Y011798D01*
X019272Y011760D01*
X019232Y011723D01*
X019190Y011690D01*
X019146Y011659D01*
X019100Y011631D01*
X019052Y011607D01*
X019003Y011585D01*
X018952Y011567D01*
X018901Y011552D01*
X018848Y011540D01*
X018795Y011531D01*
X018741Y011526D01*
X018741Y011531D01*
X018794Y011536D01*
X018847Y011545D01*
X018899Y011556D01*
X018951Y011571D01*
X019001Y011590D01*
X019050Y011611D01*
X019098Y011636D01*
X019143Y011663D01*
X019187Y011694D01*
X019229Y011727D01*
X019269Y011763D01*
X019306Y011802D01*
X019341Y011842D01*
X019373Y011885D01*
X019369Y011888D01*
X019337Y011845D01*
X019302Y011805D01*
X019265Y011767D01*
X019226Y011731D01*
X019184Y011698D01*
X019141Y011668D01*
X019095Y011640D01*
X019048Y011616D01*
X018999Y011594D01*
X018949Y011576D01*
X018898Y011561D01*
X018846Y011550D01*
X018794Y011541D01*
X018741Y011536D01*
X018741Y011541D01*
X018797Y011547D01*
X018853Y011556D01*
X018909Y011569D01*
X018963Y011586D01*
X019016Y011607D01*
X019068Y011631D01*
X019117Y011659D01*
X019165Y011690D01*
X019210Y011725D01*
X019253Y011762D01*
X019293Y011802D01*
X019330Y011845D01*
X019365Y011891D01*
X019360Y011894D01*
X019327Y011849D01*
X019290Y011806D01*
X019250Y011766D01*
X019207Y011728D01*
X019162Y011694D01*
X019115Y011663D01*
X019065Y011636D01*
X019014Y011611D01*
X018961Y011591D01*
X018907Y011574D01*
X018852Y011561D01*
X018797Y011552D01*
X018740Y011546D01*
X018718Y013540D02*
X018719Y013486D01*
X018718Y013487D02*
X018659Y013485D01*
X018600Y013479D01*
X018541Y013469D01*
X018483Y013456D01*
X018426Y013439D01*
X018370Y013419D01*
X018316Y013395D01*
X018263Y013368D01*
X018211Y013338D01*
X018162Y013305D01*
X018115Y013269D01*
X018070Y013230D01*
X018028Y013188D01*
X017988Y013144D01*
X017951Y013098D01*
X017908Y013129D01*
X017908Y013130D01*
X017947Y013179D01*
X017989Y013225D01*
X018033Y013269D01*
X018081Y013311D01*
X018130Y013349D01*
X018183Y013384D01*
X018237Y013416D01*
X018293Y013444D01*
X018350Y013469D01*
X018409Y013490D01*
X018470Y013508D01*
X018531Y013522D01*
X018593Y013532D01*
X018655Y013538D01*
X018718Y013541D01*
X018718Y013536D01*
X018655Y013533D01*
X018593Y013527D01*
X018532Y013517D01*
X018471Y013503D01*
X018411Y013486D01*
X018352Y013464D01*
X018295Y013440D01*
X018239Y013411D01*
X018185Y013380D01*
X018133Y013345D01*
X018084Y013307D01*
X018037Y013266D01*
X017992Y013222D01*
X017950Y013176D01*
X017912Y013127D01*
X017916Y013124D01*
X017954Y013172D01*
X017996Y013219D01*
X018040Y013262D01*
X018087Y013303D01*
X018136Y013341D01*
X018188Y013375D01*
X018241Y013407D01*
X018297Y013435D01*
X018354Y013460D01*
X018412Y013481D01*
X018472Y013498D01*
X018533Y013512D01*
X018594Y013522D01*
X018656Y013528D01*
X018718Y013531D01*
X018718Y013526D01*
X018656Y013524D01*
X018595Y013517D01*
X018534Y013507D01*
X018473Y013494D01*
X018414Y013476D01*
X018356Y013455D01*
X018299Y013431D01*
X018244Y013403D01*
X018191Y013371D01*
X018139Y013337D01*
X018090Y013299D01*
X018043Y013258D01*
X017999Y013215D01*
X017958Y013169D01*
X017920Y013121D01*
X017924Y013118D01*
X017962Y013166D01*
X018003Y013212D01*
X018047Y013255D01*
X018093Y013295D01*
X018142Y013333D01*
X018193Y013367D01*
X018246Y013398D01*
X018301Y013426D01*
X018358Y013450D01*
X018415Y013471D01*
X018475Y013489D01*
X018535Y013502D01*
X018595Y013512D01*
X018656Y013519D01*
X018718Y013521D01*
X018718Y013516D01*
X018657Y013514D01*
X018596Y013507D01*
X018535Y013497D01*
X018476Y013484D01*
X018417Y013467D01*
X018359Y013446D01*
X018303Y013421D01*
X018249Y013394D01*
X018196Y013363D01*
X018145Y013329D01*
X018097Y013291D01*
X018050Y013251D01*
X018007Y013208D01*
X017966Y013163D01*
X017928Y013115D01*
X017932Y013112D01*
X017970Y013160D01*
X018010Y013205D01*
X018054Y013248D01*
X018100Y013287D01*
X018148Y013325D01*
X018199Y013359D01*
X018251Y013389D01*
X018305Y013417D01*
X018361Y013441D01*
X018419Y013462D01*
X018477Y013479D01*
X018536Y013493D01*
X018597Y013502D01*
X018657Y013509D01*
X018718Y013511D01*
X018718Y013506D01*
X018657Y013504D01*
X018597Y013497D01*
X018537Y013488D01*
X018478Y013474D01*
X018420Y013457D01*
X018363Y013436D01*
X018308Y013412D01*
X018253Y013385D01*
X018201Y013354D01*
X018151Y013320D01*
X018103Y013284D01*
X018057Y013244D01*
X018014Y013201D01*
X017973Y013156D01*
X017936Y013109D01*
X017940Y013106D01*
X017977Y013153D01*
X018017Y013198D01*
X018060Y013240D01*
X018106Y013280D01*
X018154Y013316D01*
X018204Y013350D01*
X018256Y013381D01*
X018310Y013408D01*
X018365Y013432D01*
X018422Y013452D01*
X018480Y013469D01*
X018538Y013483D01*
X018598Y013492D01*
X018658Y013499D01*
X018718Y013501D01*
X018718Y013496D01*
X018658Y013494D01*
X018598Y013488D01*
X018539Y013478D01*
X018481Y013464D01*
X018423Y013448D01*
X018367Y013427D01*
X018312Y013403D01*
X018258Y013376D01*
X018207Y013346D01*
X018157Y013312D01*
X018109Y013276D01*
X018064Y013237D01*
X018021Y013194D01*
X017981Y013150D01*
X017944Y013103D01*
X017948Y013100D01*
X017985Y013147D01*
X018025Y013191D01*
X018067Y013233D01*
X018112Y013272D01*
X018160Y013308D01*
X018209Y013342D01*
X018261Y013372D01*
X018314Y013399D01*
X018369Y013423D01*
X018425Y013443D01*
X018482Y013460D01*
X018540Y013473D01*
X018599Y013483D01*
X018659Y013489D01*
X018718Y013491D01*
X019417Y013116D02*
X019371Y013088D01*
X019371Y013089D02*
X019340Y013136D01*
X019306Y013181D01*
X019269Y013223D01*
X019229Y013263D01*
X019187Y013301D01*
X019142Y013335D01*
X019095Y013366D01*
X019046Y013394D01*
X018995Y013418D01*
X018942Y013440D01*
X018889Y013457D01*
X018834Y013471D01*
X018778Y013481D01*
X018722Y013487D01*
X018726Y013541D01*
X018782Y013535D01*
X018837Y013525D01*
X018892Y013512D01*
X018946Y013496D01*
X018998Y013476D01*
X019049Y013453D01*
X019099Y013426D01*
X019147Y013397D01*
X019192Y013365D01*
X019236Y013330D01*
X019278Y013292D01*
X019317Y013251D01*
X019353Y013209D01*
X019387Y013164D01*
X019417Y013117D01*
X019413Y013114D01*
X019383Y013161D01*
X019349Y013206D01*
X019313Y013248D01*
X019274Y013288D01*
X019233Y013326D01*
X019189Y013361D01*
X019144Y013393D01*
X019096Y013422D01*
X019047Y013448D01*
X018996Y013471D01*
X018944Y013491D01*
X018891Y013507D01*
X018836Y013520D01*
X018781Y013530D01*
X018726Y013536D01*
X018726Y013531D01*
X018781Y013525D01*
X018835Y013516D01*
X018889Y013503D01*
X018942Y013486D01*
X018994Y013467D01*
X019045Y013444D01*
X019094Y013418D01*
X019141Y013389D01*
X019186Y013357D01*
X019230Y013322D01*
X019271Y013285D01*
X019309Y013245D01*
X019345Y013202D01*
X019378Y013158D01*
X019409Y013112D01*
X019405Y013109D01*
X019374Y013155D01*
X019341Y013199D01*
X019306Y013241D01*
X019267Y013281D01*
X019226Y013318D01*
X019183Y013353D01*
X019138Y013384D01*
X019091Y013413D01*
X019043Y013439D01*
X018992Y013462D01*
X018941Y013481D01*
X018888Y013498D01*
X018834Y013511D01*
X018780Y013520D01*
X018725Y013526D01*
X018725Y013521D01*
X018783Y013515D01*
X018841Y013504D01*
X018898Y013490D01*
X018954Y013472D01*
X019008Y013450D01*
X019061Y013424D01*
X019112Y013395D01*
X019161Y013363D01*
X019208Y013327D01*
X019252Y013288D01*
X019294Y013247D01*
X019332Y013202D01*
X019368Y013155D01*
X019400Y013106D01*
X019396Y013104D01*
X019364Y013153D01*
X019329Y013199D01*
X019290Y013243D01*
X019249Y013285D01*
X019205Y013323D01*
X019159Y013358D01*
X019110Y013391D01*
X019059Y013420D01*
X019006Y013445D01*
X018952Y013467D01*
X018897Y013485D01*
X018840Y013499D01*
X018783Y013510D01*
X018724Y013516D01*
X018724Y013511D01*
X018782Y013505D01*
X018839Y013494D01*
X018895Y013480D01*
X018951Y013462D01*
X019004Y013440D01*
X019057Y013415D01*
X019107Y013386D01*
X019156Y013354D01*
X019202Y013319D01*
X019246Y013281D01*
X019287Y013240D01*
X019325Y013196D01*
X019360Y013150D01*
X019392Y013101D01*
X019387Y013099D01*
X019356Y013147D01*
X019321Y013193D01*
X019283Y013236D01*
X019242Y013277D01*
X019199Y013315D01*
X019153Y013350D01*
X019105Y013382D01*
X019054Y013411D01*
X019002Y013436D01*
X018949Y013457D01*
X018894Y013475D01*
X018838Y013489D01*
X018781Y013500D01*
X018724Y013506D01*
X018723Y013501D01*
X018780Y013495D01*
X018837Y013485D01*
X018893Y013471D01*
X018947Y013453D01*
X019000Y013431D01*
X019052Y013406D01*
X019102Y013378D01*
X019150Y013346D01*
X019195Y013311D01*
X019239Y013274D01*
X019279Y013233D01*
X019317Y013190D01*
X019352Y013144D01*
X019383Y013096D01*
X019379Y013093D01*
X019348Y013141D01*
X019313Y013187D01*
X019276Y013230D01*
X019235Y013270D01*
X019192Y013308D01*
X019147Y013342D01*
X019099Y013374D01*
X019050Y013402D01*
X018998Y013427D01*
X018945Y013448D01*
X018891Y013466D01*
X018836Y013480D01*
X018780Y013490D01*
X018723Y013496D01*
X018723Y013491D01*
X018779Y013485D01*
X018835Y013475D01*
X018890Y013461D01*
X018944Y013443D01*
X018996Y013422D01*
X019047Y013397D01*
X019097Y013369D01*
X019144Y013338D01*
X019189Y013304D01*
X019232Y013266D01*
X019272Y013226D01*
X019309Y013183D01*
X019343Y013138D01*
X019375Y013091D01*
X017916Y011864D02*
X017957Y011899D01*
X017957Y011898D02*
X017996Y011854D01*
X018038Y011813D01*
X018082Y011774D01*
X018128Y011738D01*
X018177Y011705D01*
X018227Y011674D01*
X018279Y011647D01*
X018333Y011623D01*
X018388Y011603D01*
X018444Y011585D01*
X018501Y011571D01*
X018559Y011561D01*
X018617Y011554D01*
X018676Y011550D01*
X018735Y011550D01*
X018736Y011497D01*
X018737Y011497D01*
X018675Y011496D01*
X018613Y011500D01*
X018551Y011507D01*
X018490Y011518D01*
X018430Y011533D01*
X018370Y011552D01*
X018312Y011573D01*
X018256Y011599D01*
X018201Y011627D01*
X018147Y011659D01*
X018096Y011694D01*
X018047Y011733D01*
X018001Y011774D01*
X017957Y011817D01*
X017915Y011864D01*
X017919Y011867D01*
X017960Y011821D01*
X018004Y011777D01*
X018050Y011736D01*
X018099Y011698D01*
X018150Y011664D01*
X018203Y011632D01*
X018258Y011603D01*
X018314Y011578D01*
X018372Y011556D01*
X018431Y011538D01*
X018491Y011523D01*
X018552Y011512D01*
X018613Y011505D01*
X018675Y011501D01*
X018737Y011502D01*
X018736Y011507D01*
X018675Y011506D01*
X018614Y011510D01*
X018553Y011517D01*
X018492Y011528D01*
X018432Y011543D01*
X018374Y011561D01*
X018316Y011583D01*
X018260Y011608D01*
X018206Y011636D01*
X018153Y011668D01*
X018102Y011702D01*
X018054Y011740D01*
X018007Y011781D01*
X017964Y011824D01*
X017923Y011870D01*
X017927Y011873D01*
X017968Y011828D01*
X018011Y011784D01*
X018057Y011744D01*
X018105Y011707D01*
X018156Y011672D01*
X018208Y011640D01*
X018262Y011612D01*
X018318Y011587D01*
X018375Y011566D01*
X018434Y011548D01*
X018493Y011533D01*
X018553Y011522D01*
X018614Y011515D01*
X018675Y011511D01*
X018736Y011512D01*
X018736Y011517D01*
X018675Y011516D01*
X018614Y011520D01*
X018554Y011527D01*
X018494Y011538D01*
X018435Y011552D01*
X018377Y011570D01*
X018320Y011592D01*
X018264Y011617D01*
X018210Y011645D01*
X018158Y011676D01*
X018108Y011711D01*
X018060Y011748D01*
X018014Y011788D01*
X017971Y011831D01*
X017931Y011876D01*
X017934Y011880D01*
X017975Y011834D01*
X018018Y011792D01*
X018063Y011752D01*
X018111Y011715D01*
X018161Y011680D01*
X018213Y011649D01*
X018267Y011621D01*
X018322Y011597D01*
X018378Y011575D01*
X018436Y011557D01*
X018495Y011543D01*
X018555Y011532D01*
X018615Y011525D01*
X018675Y011521D01*
X018736Y011522D01*
X018736Y011527D01*
X018675Y011526D01*
X018615Y011530D01*
X018555Y011537D01*
X018496Y011548D01*
X018438Y011562D01*
X018380Y011580D01*
X018324Y011601D01*
X018269Y011626D01*
X018215Y011654D01*
X018164Y011685D01*
X018114Y011719D01*
X018066Y011756D01*
X018021Y011795D01*
X017978Y011838D01*
X017938Y011883D01*
X017942Y011886D01*
X017982Y011841D01*
X018025Y011799D01*
X018070Y011759D01*
X018117Y011723D01*
X018166Y011689D01*
X018218Y011658D01*
X018271Y011630D01*
X018326Y011606D01*
X018382Y011585D01*
X018439Y011567D01*
X018497Y011553D01*
X018556Y011542D01*
X018616Y011535D01*
X018676Y011531D01*
X018735Y011531D01*
X018735Y011536D01*
X018676Y011536D01*
X018616Y011540D01*
X018557Y011547D01*
X018498Y011558D01*
X018440Y011572D01*
X018383Y011589D01*
X018328Y011610D01*
X018273Y011635D01*
X018220Y011662D01*
X018169Y011693D01*
X018120Y011727D01*
X018073Y011763D01*
X018028Y011803D01*
X017986Y011845D01*
X017946Y011889D01*
X017950Y011892D01*
X017989Y011848D01*
X018031Y011806D01*
X018076Y011767D01*
X018123Y011731D01*
X018172Y011697D01*
X018223Y011667D01*
X018275Y011639D01*
X018329Y011615D01*
X018385Y011594D01*
X018442Y011577D01*
X018499Y011563D01*
X018558Y011552D01*
X018617Y011545D01*
X018676Y011541D01*
X018735Y011541D01*
X018735Y011546D01*
X018676Y011546D01*
X018617Y011550D01*
X018558Y011557D01*
X018500Y011567D01*
X018443Y011581D01*
X018387Y011599D01*
X018331Y011620D01*
X018277Y011644D01*
X018225Y011671D01*
X018174Y011701D01*
X018126Y011735D01*
X018079Y011771D01*
X018035Y011810D01*
X017993Y011852D01*
X017954Y011896D01*
D19*
X017677Y011828D02*
X017754Y011874D01*
X017754Y011873D02*
X017789Y011819D01*
X017826Y011767D01*
X017867Y011718D01*
X017911Y011671D01*
X017958Y011627D01*
X018007Y011586D01*
X018059Y011548D01*
X018113Y011513D01*
X018169Y011482D01*
X018226Y011454D01*
X018286Y011430D01*
X018347Y011409D01*
X018408Y011392D01*
X018471Y011379D01*
X018535Y011370D01*
X018599Y011364D01*
X018663Y011363D01*
X018664Y011274D01*
X018664Y011273D01*
X018598Y011274D01*
X018533Y011279D01*
X018467Y011288D01*
X018403Y011301D01*
X018339Y011317D01*
X018276Y011337D01*
X018215Y011361D01*
X018155Y011388D01*
X018096Y011419D01*
X018040Y011452D01*
X017985Y011490D01*
X017933Y011530D01*
X017883Y011573D01*
X017836Y011619D01*
X017792Y011668D01*
X017750Y011719D01*
X017712Y011772D01*
X017676Y011828D01*
X017684Y011832D01*
X017719Y011777D01*
X017757Y011724D01*
X017799Y011673D01*
X017843Y011625D01*
X017890Y011580D01*
X017939Y011537D01*
X017991Y011497D01*
X018045Y011460D01*
X018101Y011426D01*
X018159Y011396D01*
X018218Y011369D01*
X018279Y011346D01*
X018341Y011326D01*
X018405Y011310D01*
X018469Y011297D01*
X018534Y011288D01*
X018599Y011283D01*
X018664Y011282D01*
X018664Y011291D01*
X018599Y011292D01*
X018534Y011297D01*
X018470Y011306D01*
X018407Y011318D01*
X018344Y011335D01*
X018282Y011354D01*
X018222Y011378D01*
X018163Y011404D01*
X018105Y011434D01*
X018050Y011468D01*
X017996Y011504D01*
X017945Y011544D01*
X017896Y011586D01*
X017849Y011631D01*
X017806Y011679D01*
X017765Y011730D01*
X017727Y011782D01*
X017692Y011837D01*
X017700Y011841D01*
X017734Y011787D01*
X017772Y011735D01*
X017812Y011685D01*
X017856Y011638D01*
X017902Y011593D01*
X017950Y011551D01*
X018001Y011511D01*
X018054Y011475D01*
X018110Y011442D01*
X018166Y011412D01*
X018225Y011386D01*
X018285Y011363D01*
X018346Y011343D01*
X018409Y011327D01*
X018472Y011315D01*
X018535Y011306D01*
X018599Y011301D01*
X018664Y011300D01*
X018664Y011309D01*
X018600Y011310D01*
X018536Y011315D01*
X018473Y011324D01*
X018411Y011336D01*
X018349Y011352D01*
X018288Y011371D01*
X018229Y011394D01*
X018170Y011420D01*
X018114Y011450D01*
X018059Y011483D01*
X018007Y011519D01*
X017956Y011558D01*
X017908Y011599D01*
X017862Y011644D01*
X017819Y011691D01*
X017779Y011740D01*
X017742Y011792D01*
X017707Y011846D01*
X017715Y011851D01*
X017749Y011797D01*
X017786Y011746D01*
X017826Y011697D01*
X017869Y011650D01*
X017914Y011606D01*
X017962Y011565D01*
X018012Y011526D01*
X018064Y011490D01*
X018118Y011458D01*
X018174Y011428D01*
X018232Y011402D01*
X018291Y011380D01*
X018351Y011361D01*
X018412Y011345D01*
X018475Y011333D01*
X018537Y011324D01*
X018600Y011319D01*
X018663Y011318D01*
X018663Y011327D01*
X018601Y011328D01*
X018538Y011333D01*
X018476Y011342D01*
X018414Y011354D01*
X018354Y011369D01*
X018294Y011388D01*
X018235Y011411D01*
X018178Y011437D01*
X018123Y011466D01*
X018069Y011498D01*
X018017Y011533D01*
X017967Y011572D01*
X017920Y011613D01*
X017875Y011656D01*
X017833Y011703D01*
X017793Y011751D01*
X017757Y011802D01*
X017723Y011855D01*
X017731Y011860D01*
X017764Y011807D01*
X017800Y011757D01*
X017840Y011709D01*
X017882Y011663D01*
X017926Y011619D01*
X017973Y011579D01*
X018022Y011541D01*
X018074Y011506D01*
X018127Y011474D01*
X018182Y011445D01*
X018239Y011419D01*
X018297Y011397D01*
X018356Y011378D01*
X018416Y011362D01*
X018477Y011350D01*
X018539Y011342D01*
X018601Y011337D01*
X018663Y011336D01*
X018663Y011345D01*
X018601Y011346D01*
X018540Y011351D01*
X018479Y011359D01*
X018418Y011371D01*
X018359Y011386D01*
X018300Y011405D01*
X018242Y011427D01*
X018186Y011453D01*
X018132Y011481D01*
X018079Y011513D01*
X018028Y011548D01*
X017979Y011585D01*
X017932Y011626D01*
X017888Y011669D01*
X017847Y011714D01*
X017808Y011762D01*
X017772Y011812D01*
X017738Y011864D01*
X017746Y011869D01*
X017779Y011817D01*
X017815Y011768D01*
X017853Y011720D01*
X017895Y011675D01*
X017938Y011632D01*
X017985Y011592D01*
X018033Y011555D01*
X018084Y011521D01*
X018136Y011489D01*
X018190Y011461D01*
X018246Y011436D01*
X018303Y011414D01*
X018361Y011395D01*
X018420Y011380D01*
X018480Y011368D01*
X018541Y011360D01*
X018602Y011355D01*
X018663Y011354D01*
X018675Y011274D02*
X018673Y011364D01*
X018673Y011363D02*
X018735Y011367D01*
X018796Y011374D01*
X018857Y011384D01*
X018917Y011398D01*
X018977Y011416D01*
X019035Y011436D01*
X019092Y011460D01*
X019147Y011488D01*
X019201Y011518D01*
X019253Y011551D01*
X019303Y011588D01*
X019351Y011627D01*
X019396Y011669D01*
X019439Y011713D01*
X019480Y011760D01*
X019549Y011704D01*
X019550Y011703D01*
X019506Y011652D01*
X019459Y011604D01*
X019410Y011559D01*
X019358Y011517D01*
X019304Y011477D01*
X019248Y011441D01*
X019189Y011408D01*
X019129Y011378D01*
X019067Y011352D01*
X019004Y011330D01*
X018940Y011311D01*
X018875Y011296D01*
X018809Y011285D01*
X018742Y011277D01*
X018675Y011273D01*
X018675Y011282D01*
X018741Y011286D01*
X018807Y011294D01*
X018873Y011305D01*
X018938Y011320D01*
X019001Y011338D01*
X019064Y011361D01*
X019125Y011387D01*
X019185Y011416D01*
X019243Y011449D01*
X019299Y011485D01*
X019353Y011524D01*
X019404Y011566D01*
X019453Y011611D01*
X019499Y011658D01*
X019543Y011709D01*
X019536Y011714D01*
X019493Y011665D01*
X019447Y011617D01*
X019398Y011573D01*
X019347Y011531D01*
X019294Y011492D01*
X019238Y011456D01*
X019181Y011424D01*
X019122Y011395D01*
X019061Y011369D01*
X018999Y011347D01*
X018935Y011329D01*
X018871Y011314D01*
X018806Y011302D01*
X018741Y011295D01*
X018675Y011291D01*
X018675Y011300D01*
X018740Y011304D01*
X018805Y011311D01*
X018869Y011322D01*
X018933Y011337D01*
X018996Y011356D01*
X019058Y011378D01*
X019118Y011403D01*
X019177Y011432D01*
X019234Y011464D01*
X019289Y011499D01*
X019342Y011538D01*
X019392Y011579D01*
X019441Y011624D01*
X019486Y011671D01*
X019529Y011720D01*
X019522Y011726D01*
X019479Y011677D01*
X019434Y011630D01*
X019386Y011586D01*
X019336Y011545D01*
X019284Y011507D01*
X019229Y011472D01*
X019172Y011440D01*
X019114Y011411D01*
X019054Y011386D01*
X018993Y011364D01*
X018931Y011346D01*
X018868Y011331D01*
X018804Y011320D01*
X018739Y011313D01*
X018674Y011309D01*
X018674Y011318D01*
X018738Y011322D01*
X018802Y011329D01*
X018866Y011340D01*
X018929Y011355D01*
X018990Y011373D01*
X019051Y011394D01*
X019110Y011419D01*
X019168Y011448D01*
X019224Y011479D01*
X019279Y011514D01*
X019331Y011552D01*
X019380Y011593D01*
X019428Y011636D01*
X019473Y011683D01*
X019515Y011731D01*
X019508Y011737D01*
X019466Y011689D01*
X019422Y011643D01*
X019375Y011600D01*
X019325Y011559D01*
X019273Y011522D01*
X019220Y011487D01*
X019164Y011456D01*
X019107Y011428D01*
X019048Y011403D01*
X018988Y011381D01*
X018926Y011363D01*
X018864Y011349D01*
X018801Y011338D01*
X018738Y011331D01*
X018674Y011327D01*
X018674Y011336D01*
X018737Y011340D01*
X018800Y011347D01*
X018862Y011358D01*
X018924Y011372D01*
X018985Y011390D01*
X019045Y011411D01*
X019103Y011436D01*
X019160Y011464D01*
X019215Y011495D01*
X019268Y011529D01*
X019320Y011566D01*
X019369Y011606D01*
X019415Y011649D01*
X019459Y011695D01*
X019501Y011743D01*
X019494Y011748D01*
X019453Y011701D01*
X019409Y011656D01*
X019363Y011613D01*
X019314Y011573D01*
X019263Y011537D01*
X019210Y011503D01*
X019156Y011472D01*
X019099Y011444D01*
X019041Y011420D01*
X018982Y011398D01*
X018922Y011381D01*
X018861Y011367D01*
X018799Y011356D01*
X018736Y011349D01*
X018674Y011345D01*
X018673Y011354D01*
X018736Y011358D01*
X018797Y011365D01*
X018859Y011375D01*
X018920Y011389D01*
X018979Y011407D01*
X019038Y011428D01*
X019096Y011452D01*
X019151Y011480D01*
X019206Y011510D01*
X019258Y011544D01*
X019309Y011581D01*
X019357Y011620D01*
X019403Y011662D01*
X019446Y011707D01*
X019487Y011754D01*
X018692Y013759D02*
X018692Y013669D01*
X018692Y013670D02*
X018628Y013668D01*
X018564Y013663D01*
X018500Y013654D01*
X018438Y013641D01*
X018376Y013624D01*
X018315Y013603D01*
X018255Y013579D01*
X018197Y013552D01*
X018141Y013521D01*
X018086Y013487D01*
X018034Y013449D01*
X017984Y013409D01*
X017937Y013366D01*
X017892Y013320D01*
X017850Y013271D01*
X017811Y013220D01*
X017775Y013167D01*
X017743Y013111D01*
X017664Y013154D01*
X017697Y013211D01*
X017734Y013266D01*
X017773Y013319D01*
X017816Y013369D01*
X017861Y013417D01*
X017909Y013463D01*
X017959Y013505D01*
X018012Y013545D01*
X018067Y013581D01*
X018124Y013615D01*
X018182Y013645D01*
X018243Y013672D01*
X018304Y013695D01*
X018367Y013715D01*
X018431Y013731D01*
X018496Y013744D01*
X018561Y013753D01*
X018627Y013758D01*
X018693Y013760D01*
X018693Y013751D01*
X018627Y013749D01*
X018562Y013744D01*
X018497Y013735D01*
X018433Y013723D01*
X018370Y013706D01*
X018307Y013687D01*
X018246Y013664D01*
X018186Y013637D01*
X018128Y013607D01*
X018072Y013574D01*
X018017Y013537D01*
X017965Y013498D01*
X017915Y013456D01*
X017867Y013411D01*
X017822Y013363D01*
X017780Y013313D01*
X017741Y013261D01*
X017705Y013206D01*
X017672Y013150D01*
X017679Y013146D01*
X017712Y013202D01*
X017748Y013256D01*
X017787Y013308D01*
X017829Y013357D01*
X017874Y013404D01*
X017921Y013449D01*
X017971Y013491D01*
X018022Y013530D01*
X018076Y013566D01*
X018132Y013599D01*
X018190Y013629D01*
X018249Y013655D01*
X018310Y013678D01*
X018372Y013698D01*
X018435Y013714D01*
X018499Y013726D01*
X018563Y013735D01*
X018628Y013740D01*
X018693Y013742D01*
X018693Y013733D01*
X018628Y013731D01*
X018564Y013726D01*
X018500Y013717D01*
X018437Y013705D01*
X018375Y013689D01*
X018313Y013670D01*
X018253Y013647D01*
X018194Y013621D01*
X018137Y013591D01*
X018081Y013558D01*
X018028Y013523D01*
X017976Y013484D01*
X017927Y013442D01*
X017880Y013398D01*
X017836Y013351D01*
X017794Y013302D01*
X017756Y013251D01*
X017720Y013197D01*
X017687Y013141D01*
X017695Y013137D01*
X017728Y013192D01*
X017763Y013245D01*
X017801Y013296D01*
X017843Y013345D01*
X017886Y013392D01*
X017933Y013436D01*
X017982Y013477D01*
X018033Y013515D01*
X018086Y013551D01*
X018141Y013583D01*
X018198Y013613D01*
X018256Y013639D01*
X018316Y013661D01*
X018377Y013680D01*
X018439Y013696D01*
X018502Y013709D01*
X018565Y013717D01*
X018629Y013722D01*
X018693Y013724D01*
X018693Y013715D01*
X018629Y013713D01*
X018566Y013708D01*
X018503Y013700D01*
X018441Y013688D01*
X018379Y013672D01*
X018319Y013653D01*
X018260Y013630D01*
X018202Y013604D01*
X018145Y013575D01*
X018091Y013543D01*
X018038Y013508D01*
X017987Y013470D01*
X017939Y013429D01*
X017893Y013385D01*
X017849Y013339D01*
X017808Y013291D01*
X017770Y013240D01*
X017735Y013187D01*
X017703Y013133D01*
X017711Y013128D01*
X017745Y013186D01*
X017782Y013241D01*
X017822Y013293D01*
X017865Y013344D01*
X017912Y013391D01*
X017961Y013436D01*
X018012Y013478D01*
X018066Y013517D01*
X018122Y013552D01*
X018181Y013584D01*
X018241Y013612D01*
X018302Y013637D01*
X018365Y013658D01*
X018429Y013676D01*
X018494Y013689D01*
X018560Y013699D01*
X018626Y013704D01*
X018692Y013706D01*
X018692Y013697D01*
X018627Y013695D01*
X018561Y013690D01*
X018496Y013680D01*
X018431Y013667D01*
X018368Y013650D01*
X018305Y013629D01*
X018244Y013604D01*
X018185Y013576D01*
X018127Y013544D01*
X018071Y013509D01*
X018018Y013471D01*
X017967Y013429D01*
X017918Y013385D01*
X017872Y013338D01*
X017829Y013288D01*
X017789Y013235D01*
X017752Y013181D01*
X017719Y013124D01*
X017727Y013120D01*
X017760Y013176D01*
X017796Y013230D01*
X017836Y013282D01*
X017879Y013332D01*
X017924Y013378D01*
X017972Y013423D01*
X018023Y013464D01*
X018076Y013502D01*
X018132Y013536D01*
X018189Y013568D01*
X018248Y013596D01*
X018308Y013620D01*
X018370Y013641D01*
X018433Y013658D01*
X018497Y013671D01*
X018562Y013681D01*
X018627Y013686D01*
X018692Y013688D01*
X018692Y013679D01*
X018627Y013677D01*
X018563Y013672D01*
X018499Y013662D01*
X018435Y013649D01*
X018373Y013632D01*
X018312Y013612D01*
X018251Y013588D01*
X018193Y013560D01*
X018136Y013529D01*
X018081Y013494D01*
X018029Y013456D01*
X017978Y013416D01*
X017931Y013372D01*
X017885Y013326D01*
X017843Y013277D01*
X017804Y013225D01*
X017768Y013171D01*
X017735Y013116D01*
X019554Y013294D02*
X019481Y013241D01*
X019482Y013242D02*
X019444Y013290D01*
X019403Y013336D01*
X019360Y013379D01*
X019314Y013420D01*
X019267Y013459D01*
X019216Y013494D01*
X019164Y013527D01*
X019111Y013556D01*
X019055Y013582D01*
X018998Y013605D01*
X018940Y013625D01*
X018881Y013641D01*
X018821Y013654D01*
X018761Y013664D01*
X018699Y013670D01*
X018705Y013759D01*
X018771Y013753D01*
X018837Y013743D01*
X018902Y013729D01*
X018967Y013711D01*
X019030Y013690D01*
X019091Y013665D01*
X019152Y013636D01*
X019210Y013604D01*
X019266Y013569D01*
X019321Y013530D01*
X019373Y013489D01*
X019422Y013444D01*
X019469Y013397D01*
X019513Y013347D01*
X019554Y013295D01*
X019547Y013289D01*
X019506Y013341D01*
X019463Y013391D01*
X019416Y013438D01*
X019367Y013482D01*
X019315Y013523D01*
X019261Y013561D01*
X019205Y013596D01*
X019147Y013628D01*
X019088Y013656D01*
X019026Y013681D01*
X018964Y013703D01*
X018900Y013720D01*
X018836Y013734D01*
X018770Y013744D01*
X018705Y013750D01*
X018704Y013741D01*
X018769Y013735D01*
X018834Y013725D01*
X018898Y013711D01*
X018961Y013694D01*
X019023Y013673D01*
X019084Y013648D01*
X019143Y013620D01*
X019201Y013589D01*
X019256Y013554D01*
X019310Y013516D01*
X019361Y013475D01*
X019410Y013431D01*
X019456Y013385D01*
X019499Y013336D01*
X019540Y013284D01*
X019533Y013279D01*
X019493Y013330D01*
X019449Y013379D01*
X019404Y013425D01*
X019355Y013468D01*
X019305Y013509D01*
X019251Y013546D01*
X019196Y013581D01*
X019139Y013612D01*
X019081Y013640D01*
X019020Y013664D01*
X018959Y013685D01*
X018896Y013703D01*
X018832Y013716D01*
X018768Y013726D01*
X018703Y013732D01*
X018703Y013723D01*
X018767Y013717D01*
X018831Y013707D01*
X018894Y013694D01*
X018956Y013677D01*
X019017Y013656D01*
X019077Y013632D01*
X019135Y013604D01*
X019192Y013573D01*
X019246Y013539D01*
X019299Y013502D01*
X019349Y013461D01*
X019397Y013418D01*
X019443Y013373D01*
X019486Y013324D01*
X019525Y013273D01*
X019518Y013268D01*
X019479Y013318D01*
X019436Y013366D01*
X019391Y013412D01*
X019344Y013455D01*
X019294Y013494D01*
X019241Y013531D01*
X019187Y013565D01*
X019131Y013596D01*
X019073Y013623D01*
X019014Y013648D01*
X018953Y013668D01*
X018892Y013685D01*
X018829Y013699D01*
X018766Y013708D01*
X018702Y013715D01*
X018702Y013706D01*
X018765Y013699D01*
X018828Y013690D01*
X018890Y013676D01*
X018951Y013659D01*
X019011Y013639D01*
X019070Y013615D01*
X019127Y013588D01*
X019183Y013558D01*
X019236Y013524D01*
X019288Y013487D01*
X019338Y013448D01*
X019385Y013405D01*
X019430Y013360D01*
X019472Y013313D01*
X019511Y013263D01*
X019504Y013257D01*
X019465Y013307D01*
X019423Y013354D01*
X019379Y013399D01*
X019332Y013441D01*
X019283Y013480D01*
X019231Y013516D01*
X019178Y013550D01*
X019123Y013580D01*
X019066Y013607D01*
X019008Y013631D01*
X018948Y013651D01*
X018888Y013668D01*
X018826Y013681D01*
X018764Y013690D01*
X018701Y013697D01*
X018701Y013688D01*
X018763Y013682D01*
X018824Y013672D01*
X018885Y013659D01*
X018946Y013642D01*
X019005Y013622D01*
X019062Y013599D01*
X019119Y013572D01*
X019174Y013542D01*
X019226Y013509D01*
X019277Y013473D01*
X019326Y013434D01*
X019373Y013392D01*
X019417Y013348D01*
X019458Y013301D01*
X019496Y013252D01*
X019489Y013247D01*
X019451Y013295D01*
X019410Y013342D01*
X019366Y013386D01*
X019320Y013427D01*
X019272Y013466D01*
X019221Y013502D01*
X019169Y013534D01*
X019115Y013564D01*
X019059Y013591D01*
X019001Y013614D01*
X018943Y013634D01*
X018883Y013650D01*
X018823Y013663D01*
X018762Y013673D01*
X018700Y013679D01*
D20*
X018324Y010842D02*
X019926Y010842D01*
X019926Y007181D01*
X018324Y007181D01*
X019965Y007319D02*
X020359Y007319D01*
X020359Y007909D01*
X019965Y007909D01*
X020398Y007870D02*
X025831Y007870D01*
X025831Y010153D01*
X026225Y010153D01*
X025831Y010153D02*
X020398Y010153D01*
X020359Y010114D02*
X019965Y010114D01*
X020359Y010114D02*
X020359Y010744D01*
X019965Y010744D01*
X016324Y010842D02*
X016324Y007181D01*
X025871Y007870D02*
X026639Y007870D01*
X027032Y007870D02*
X027800Y007870D01*
X027800Y008368D01*
X027800Y008762D02*
X027800Y009261D01*
X027800Y009654D02*
X027800Y010153D01*
X028194Y010153D01*
X028587Y010153D02*
X028981Y010153D01*
X029375Y010153D02*
X029768Y010153D01*
X030162Y010153D01*
X029768Y010153D02*
X029768Y009654D01*
X029768Y009261D02*
X029768Y008762D01*
X029768Y008368D02*
X029768Y007870D01*
X029001Y007870D01*
X028607Y007870D02*
X027839Y007870D01*
X029808Y007870D02*
X030576Y007870D01*
X030969Y007870D02*
X031737Y007870D01*
X031737Y008368D01*
X031737Y008762D02*
X031737Y009261D01*
X031737Y009654D02*
X031737Y010153D01*
X031343Y010153D01*
X030950Y010153D02*
X030556Y010153D01*
X027800Y010153D02*
X027406Y010153D01*
X027013Y010153D02*
X026619Y010153D01*
D21*
X008804Y017589D02*
X008804Y019839D01*
X007804Y019839D02*
X007804Y017589D01*
X006804Y017589D02*
X006804Y019839D01*
X005804Y019839D02*
X005804Y017589D01*
X004804Y017589D02*
X004804Y019839D01*
X003804Y019839D02*
X003804Y017589D01*
D22*
X003804Y017439D03*
X004804Y017439D03*
X005804Y017439D03*
X006804Y017439D03*
X007804Y017439D03*
X008804Y017439D03*
D23*
X008804Y016289D03*
X007804Y016289D03*
X006804Y016289D03*
X005804Y016289D03*
X004804Y016289D03*
X003804Y016289D03*
M02*
