%
M48
M72
T01C0.01969
T02C0.04000
T03C0.12598
%
T01
X156600Y105800
X171400Y105800
X101800Y151800
X86800Y116800
X81800Y141800
X171800Y116800
X191800Y116800
X191800Y106800
X194300Y91800
X91800Y129300
X91800Y81800
X91800Y74300
X154300Y81800
X66800Y126800
X94600Y139400
T02
X117863Y187528
X117863Y177528
X107863Y187528
X107863Y177528
X97863Y187528
X97863Y177528
X87863Y187528
X87863Y177528
X77863Y187528
X77863Y177528
X67863Y187528
X67863Y177528
X57863Y187528
X57863Y177528
X47863Y187528
X47863Y177528
X37863Y187528
X37863Y177528
X27863Y187528
X27863Y177528
X191800Y74300
T03
X10308Y190048
X190116Y190066
X190116Y10066
X10116Y10066
M30
