G75*
%MOIN*%
%OFA0B0*%
%FSLAX25Y25*%
%IPPOS*%
%LPD*%
%AMOC8*
5,1,8,0,0,1.08239X$1,22.5*
%
%ADD10C,0.00300*%
%ADD11C,0.01600*%
D10*
X0053673Y0005925D02*
X0053673Y0008959D01*
X0054280Y0008959D02*
X0053066Y0008959D01*
X0053673Y0005925D02*
X0054280Y0005319D01*
X0054886Y0005319D01*
X0055493Y0005925D01*
X0056691Y0005925D02*
X0056691Y0008959D01*
X0059118Y0008959D02*
X0059118Y0005925D01*
X0058511Y0005319D01*
X0057298Y0005319D01*
X0056691Y0005925D01*
X0060317Y0005319D02*
X0062743Y0005319D01*
X0061530Y0005319D02*
X0061530Y0008959D01*
X0062743Y0007745D01*
X0063942Y0008352D02*
X0066368Y0005925D01*
X0066368Y0005319D01*
X0067567Y0005319D02*
X0069387Y0005319D01*
X0069994Y0005925D01*
X0069994Y0007139D01*
X0069387Y0007745D01*
X0067567Y0007745D01*
X0067567Y0008959D02*
X0067567Y0005319D01*
X0071192Y0005925D02*
X0071799Y0005319D01*
X0073012Y0005319D01*
X0073619Y0005925D01*
X0072405Y0007139D02*
X0071799Y0007139D01*
X0071192Y0006532D01*
X0071192Y0005925D01*
X0071799Y0007139D02*
X0071192Y0007745D01*
X0071192Y0008352D01*
X0071799Y0008959D01*
X0073012Y0008959D01*
X0073619Y0008352D01*
X0074817Y0008959D02*
X0077244Y0005319D01*
X0078447Y0005319D02*
X0079661Y0005319D01*
X0079054Y0005319D02*
X0079054Y0008959D01*
X0079661Y0008959D01*
X0080859Y0007745D02*
X0082679Y0007745D01*
X0083286Y0007139D01*
X0083286Y0005925D01*
X0082679Y0005319D01*
X0080859Y0005319D01*
X0080859Y0004712D02*
X0080859Y0007745D01*
X0080859Y0004712D02*
X0081466Y0004105D01*
X0082072Y0004105D01*
X0084492Y0005319D02*
X0085098Y0005319D01*
X0085098Y0005925D01*
X0084492Y0005925D01*
X0084492Y0005319D01*
X0086297Y0005925D02*
X0086297Y0007139D01*
X0086903Y0007745D01*
X0088117Y0007745D01*
X0088723Y0007139D01*
X0088723Y0005925D01*
X0088117Y0005319D01*
X0086903Y0005319D01*
X0086297Y0005925D01*
X0089922Y0005925D02*
X0089922Y0007139D01*
X0090529Y0007745D01*
X0091742Y0007745D01*
X0092349Y0007139D01*
X0092349Y0005925D01*
X0091742Y0005319D01*
X0090529Y0005319D01*
X0089922Y0005925D01*
X0093547Y0005319D02*
X0095367Y0005319D01*
X0095974Y0005925D01*
X0095974Y0007139D01*
X0095367Y0007745D01*
X0093547Y0007745D01*
X0093547Y0004712D01*
X0094154Y0004105D01*
X0094760Y0004105D01*
X0099599Y0005319D02*
X0097172Y0008959D01*
X0100797Y0008959D02*
X0103224Y0005319D01*
X0104430Y0005319D02*
X0105037Y0005319D01*
X0105037Y0005925D01*
X0104430Y0005925D01*
X0104430Y0005319D01*
X0104430Y0007139D02*
X0105037Y0007139D01*
X0105037Y0007745D01*
X0104430Y0007745D01*
X0104430Y0007139D01*
X0106235Y0007139D02*
X0106235Y0005925D01*
X0106842Y0005319D01*
X0108662Y0005319D01*
X0109865Y0005319D02*
X0110472Y0005925D01*
X0110472Y0008352D01*
X0111078Y0007745D02*
X0109865Y0007745D01*
X0108662Y0007745D02*
X0106842Y0007745D01*
X0106235Y0007139D01*
X0108662Y0007745D02*
X0108662Y0004105D01*
X0112282Y0005319D02*
X0112888Y0005925D01*
X0112888Y0008352D01*
X0112282Y0007745D02*
X0113495Y0007745D01*
X0114694Y0007139D02*
X0114694Y0005319D01*
X0114694Y0007139D02*
X0115300Y0007745D01*
X0116514Y0007745D01*
X0117120Y0007139D01*
X0117120Y0008959D02*
X0117120Y0005319D01*
X0121951Y0005319D02*
X0122558Y0005319D01*
X0122558Y0005925D01*
X0121951Y0005925D01*
X0121951Y0005319D01*
X0121951Y0007139D02*
X0122558Y0007139D01*
X0122558Y0007745D01*
X0121951Y0007745D01*
X0121951Y0007139D01*
X0123756Y0007139D02*
X0123756Y0006532D01*
X0126183Y0006532D01*
X0126183Y0007139D02*
X0125576Y0007745D01*
X0124363Y0007745D01*
X0123756Y0007139D01*
X0124363Y0005319D02*
X0125576Y0005319D01*
X0126183Y0005925D01*
X0126183Y0007139D01*
X0127382Y0007745D02*
X0129202Y0007745D01*
X0129808Y0007139D01*
X0129202Y0006532D01*
X0127988Y0006532D01*
X0127382Y0005925D01*
X0127988Y0005319D01*
X0129808Y0005319D01*
X0131007Y0005319D02*
X0131007Y0007139D01*
X0131613Y0007745D01*
X0133433Y0007745D01*
X0133433Y0005319D01*
X0134632Y0006532D02*
X0137059Y0006532D01*
X0137059Y0007139D02*
X0136452Y0007745D01*
X0135238Y0007745D01*
X0134632Y0007139D01*
X0134632Y0006532D01*
X0135238Y0005319D02*
X0136452Y0005319D01*
X0137059Y0005925D01*
X0137059Y0007139D01*
X0138257Y0007745D02*
X0140077Y0007745D01*
X0140684Y0007139D01*
X0140684Y0005925D01*
X0140077Y0005319D01*
X0138257Y0005319D01*
X0141887Y0005319D02*
X0143100Y0005319D01*
X0142494Y0005319D02*
X0142494Y0007745D01*
X0143100Y0007745D01*
X0142494Y0008959D02*
X0142494Y0009565D01*
X0146726Y0008959D02*
X0146726Y0005319D01*
X0144299Y0005319D01*
X0066368Y0008959D02*
X0063942Y0008959D01*
X0063942Y0008352D01*
D11*
X0001800Y0001800D02*
X0198650Y0001800D01*
X0198650Y0198650D01*
X0001800Y0198650D01*
X0001800Y0001800D01*
M02*
