%
M48
M72
T01C0.0120
T02C0.0320
T03C0.0400
T04C0.1181
%
T01
X2997Y9027
T02
X5122Y11552
X4122Y11552
X4155Y2435
X5139Y3419
T03
X6177Y5037
X6177Y6817
X3617Y5037
X3617Y6817
X6177Y8037
X6177Y9817
X3617Y8037
X3617Y9817
X1791Y11108
X1004Y11108
X1791Y10321
X1004Y10321
X1791Y9534
X1004Y9534
X1791Y8746
X1004Y8746
T04
X6926Y12893
X3114Y12893
X3114Y1002
X6926Y1002
M30
