G75*
G70*
%OFA0B0*%
%FSLAX24Y24*%
%IPPOS*%
%LPD*%
%AMOC8*
5,1,8,0,0,1.08239X$1,22.5*
%
%ADD10C,0.0000*%
%ADD11C,0.0040*%
%ADD12C,0.0050*%
%ADD13C,0.0030*%
%ADD14C,0.0060*%
%ADD15C,0.0080*%
%ADD16C,0.0070*%
D10*
X000219Y000180D02*
X000219Y018176D01*
X019377Y018176D01*
X019382Y018176D02*
X019382Y000180D01*
X019377Y000180D02*
X000219Y000180D01*
D11*
X000768Y003575D02*
X000614Y003728D01*
X000614Y003882D01*
X000768Y004035D01*
X000921Y003959D02*
X000921Y003882D01*
X001228Y003575D01*
X001228Y003728D02*
X001075Y003575D01*
X000998Y003575D01*
X000921Y003652D01*
X000921Y003728D01*
X001075Y003882D01*
X001075Y003959D01*
X000998Y004035D01*
X000921Y003959D01*
X000921Y004200D02*
X000921Y004660D01*
X001075Y004507D02*
X001151Y004507D01*
X001151Y004200D01*
X001075Y004200D02*
X001228Y004200D01*
X001382Y004200D02*
X001382Y004507D01*
X001535Y004507D02*
X001612Y004507D01*
X001535Y004507D02*
X001382Y004353D01*
X001765Y004353D02*
X002072Y004353D01*
X002072Y004430D01*
X001996Y004507D01*
X001842Y004507D01*
X001765Y004430D01*
X001765Y004277D01*
X001842Y004200D01*
X001996Y004200D01*
X001842Y004035D02*
X001842Y003575D01*
X002072Y003575D01*
X002149Y003652D01*
X002149Y003805D01*
X002072Y003882D01*
X001842Y003882D01*
X002302Y003805D02*
X002302Y003652D01*
X002379Y003575D01*
X002533Y003575D01*
X002609Y003652D01*
X002609Y003805D01*
X002533Y003882D01*
X002379Y003882D01*
X002302Y003805D01*
X002302Y004200D02*
X002302Y004660D01*
X002226Y004660D01*
X002533Y004430D02*
X002609Y004507D01*
X002763Y004507D01*
X002840Y004430D01*
X002840Y004353D01*
X002533Y004353D01*
X002533Y004277D02*
X002533Y004430D01*
X002533Y004277D02*
X002609Y004200D01*
X002763Y004200D01*
X002840Y004112D02*
X002840Y004035D01*
X002840Y003882D02*
X002840Y003575D01*
X002916Y003575D02*
X002763Y003575D01*
X003070Y003575D02*
X003223Y003575D01*
X003147Y003575D02*
X003147Y004035D01*
X003070Y004035D01*
X002993Y004200D02*
X003223Y004200D01*
X003300Y004277D01*
X003223Y004353D01*
X003070Y004353D01*
X002993Y004430D01*
X003070Y004507D01*
X003300Y004507D01*
X003453Y004430D02*
X003530Y004353D01*
X003684Y004353D01*
X003760Y004277D01*
X003684Y004200D01*
X003453Y004200D01*
X003453Y003882D02*
X003607Y003882D01*
X003684Y003805D01*
X003684Y003728D01*
X003377Y003728D01*
X003377Y003652D02*
X003377Y003805D01*
X003453Y003882D01*
X003377Y003652D02*
X003453Y003575D01*
X003607Y003575D01*
X003837Y003575D02*
X003837Y003882D01*
X003837Y003728D02*
X003991Y003882D01*
X004067Y003882D01*
X004221Y004035D02*
X004374Y003882D01*
X004374Y003728D01*
X004221Y003575D01*
X004528Y004200D02*
X004528Y004660D01*
X004681Y004660D02*
X004374Y004660D01*
X004835Y004660D02*
X005065Y004660D01*
X005142Y004584D01*
X005142Y004430D01*
X005065Y004353D01*
X004835Y004353D01*
X004835Y004200D02*
X004835Y004660D01*
X004988Y004353D02*
X005142Y004200D01*
X005295Y004353D02*
X005448Y004200D01*
X005602Y004353D01*
X005602Y004660D01*
X005295Y004660D02*
X005295Y004353D01*
X005295Y003882D02*
X005065Y003882D01*
X004988Y003805D01*
X004988Y003652D01*
X005065Y003575D01*
X005295Y003575D01*
X005448Y003652D02*
X005448Y003805D01*
X005525Y003882D01*
X005679Y003882D01*
X005755Y003805D01*
X005755Y003652D01*
X005679Y003575D01*
X005525Y003575D01*
X005448Y003652D01*
X005909Y003575D02*
X005909Y003882D01*
X006139Y003882D01*
X006216Y003805D01*
X006216Y003575D01*
X006446Y003652D02*
X006523Y003575D01*
X006446Y003652D02*
X006446Y003959D01*
X006369Y003882D02*
X006523Y003882D01*
X006676Y003882D02*
X006676Y003575D01*
X006676Y003728D02*
X006830Y003882D01*
X006906Y003882D01*
X007060Y003805D02*
X007060Y003652D01*
X007137Y003575D01*
X007290Y003575D01*
X007367Y003652D01*
X007367Y003805D01*
X007290Y003882D01*
X007137Y003882D01*
X007060Y003805D01*
X007520Y003575D02*
X007674Y003575D01*
X007597Y003575D02*
X007597Y004035D01*
X007520Y004035D01*
X007827Y004035D02*
X007904Y004035D01*
X007904Y003575D01*
X007827Y003575D02*
X007981Y003575D01*
X008134Y003652D02*
X008134Y003805D01*
X008211Y003882D01*
X008364Y003882D01*
X008441Y003805D01*
X008441Y003728D01*
X008134Y003728D01*
X008134Y003652D02*
X008211Y003575D01*
X008364Y003575D01*
X008595Y003575D02*
X008595Y003882D01*
X008748Y003882D02*
X008595Y003728D01*
X008748Y003882D02*
X008825Y003882D01*
X007873Y002953D02*
X007566Y002953D01*
X007719Y002800D02*
X007719Y003107D01*
X006921Y002981D02*
X006614Y002981D01*
X003760Y004507D02*
X003530Y004507D01*
X003453Y004430D01*
X002840Y003882D02*
X002763Y003882D01*
X002379Y004200D02*
X002226Y004200D01*
X001151Y004660D02*
X001151Y004737D01*
X000614Y004660D02*
X000614Y004200D01*
X000768Y004353D01*
X000921Y004200D01*
X004224Y012000D02*
X004164Y012060D01*
X004224Y012000D02*
X004345Y012000D01*
X004405Y012060D01*
X004405Y012120D01*
X004345Y012180D01*
X004224Y012180D01*
X004164Y012240D01*
X004164Y012300D01*
X004224Y012360D01*
X004345Y012360D01*
X004405Y012300D01*
X004533Y012300D02*
X004533Y012060D01*
X004593Y012000D01*
X004713Y012000D01*
X004773Y012060D01*
X004901Y012000D02*
X005141Y012000D01*
X005289Y012060D02*
X005349Y012000D01*
X005470Y012000D01*
X005530Y012060D01*
X005530Y012120D01*
X005470Y012180D01*
X005349Y012180D01*
X005289Y012240D01*
X005289Y012300D01*
X005349Y012360D01*
X005470Y012360D01*
X005530Y012300D01*
X005658Y012360D02*
X005658Y012000D01*
X005838Y012000D01*
X005898Y012060D01*
X005898Y012300D01*
X005838Y012360D01*
X005658Y012360D01*
X006026Y012240D02*
X006026Y012000D01*
X006026Y012180D02*
X006266Y012180D01*
X006266Y012240D02*
X006266Y012000D01*
X006266Y012240D02*
X006146Y012360D01*
X006026Y012240D01*
X006914Y012240D02*
X006914Y012000D01*
X006914Y012180D02*
X007155Y012180D01*
X007155Y012240D02*
X007155Y012000D01*
X007283Y012000D02*
X007403Y012000D01*
X007343Y012000D02*
X007343Y012360D01*
X007283Y012360D02*
X007403Y012360D01*
X007528Y012300D02*
X007588Y012360D01*
X007708Y012360D01*
X007768Y012300D01*
X007768Y012240D01*
X007708Y012180D01*
X007768Y012120D01*
X007768Y012060D01*
X007708Y012000D01*
X007588Y012000D01*
X007528Y012060D01*
X007648Y012180D02*
X007708Y012180D01*
X007914Y012180D02*
X008155Y012180D01*
X008155Y012240D02*
X008155Y012000D01*
X008283Y012000D02*
X008403Y012000D01*
X008343Y012000D02*
X008343Y012360D01*
X008283Y012360D02*
X008403Y012360D01*
X008528Y012300D02*
X008588Y012360D01*
X008708Y012360D01*
X008768Y012300D01*
X008768Y012240D01*
X008528Y012000D01*
X008768Y012000D01*
X008914Y012000D02*
X008914Y012240D01*
X009034Y012360D01*
X009155Y012240D01*
X009155Y012000D01*
X009283Y012000D02*
X009403Y012000D01*
X009343Y012000D02*
X009343Y012360D01*
X009283Y012360D02*
X009403Y012360D01*
X009528Y012240D02*
X009648Y012360D01*
X009648Y012000D01*
X009528Y012000D02*
X009768Y012000D01*
X009155Y012180D02*
X008914Y012180D01*
X008155Y012240D02*
X008034Y012360D01*
X007914Y012240D01*
X007914Y012000D01*
X007155Y012240D02*
X007034Y012360D01*
X006914Y012240D01*
X004901Y012360D02*
X004901Y012000D01*
X004773Y012300D02*
X004713Y012360D01*
X004593Y012360D01*
X004533Y012300D01*
X015768Y000984D02*
X015768Y000677D01*
X015921Y000830D02*
X015614Y000830D01*
X014046Y000880D02*
X013739Y000880D01*
D12*
X012416Y000655D02*
X012416Y001105D01*
X012116Y001105D02*
X012116Y000655D01*
X011956Y000655D02*
X011806Y000805D01*
X011881Y000805D02*
X011656Y000805D01*
X011656Y000655D02*
X011656Y001105D01*
X011881Y001105D01*
X011956Y001030D01*
X011956Y000880D01*
X011881Y000805D01*
X012116Y001105D02*
X012416Y000655D01*
X011495Y000655D02*
X011495Y000955D01*
X011345Y001105D01*
X011195Y000955D01*
X011195Y000655D01*
X011035Y000655D02*
X010735Y000655D01*
X010735Y001105D01*
X011035Y001105D01*
X010885Y000880D02*
X010735Y000880D01*
X010575Y000655D02*
X010274Y000655D01*
X010274Y001105D01*
X010081Y001105D02*
X009781Y001105D01*
X009781Y000655D01*
X010081Y000655D01*
X009931Y000880D02*
X009781Y000880D01*
X009620Y000730D02*
X009620Y001030D01*
X009545Y001105D01*
X009320Y001105D01*
X009320Y000655D01*
X009545Y000655D01*
X009620Y000730D01*
X009160Y000730D02*
X009160Y001030D01*
X009085Y001105D01*
X008935Y001105D01*
X008860Y001030D01*
X008860Y000730D01*
X008935Y000655D01*
X009085Y000655D01*
X009160Y000730D01*
X008700Y000655D02*
X008700Y001105D01*
X008549Y000955D01*
X008399Y001105D01*
X008399Y000655D01*
X008146Y000655D02*
X007846Y000655D01*
X007996Y000655D02*
X007996Y001105D01*
X007846Y000955D01*
X007685Y001030D02*
X007610Y001105D01*
X007385Y001105D01*
X007385Y000655D01*
X007610Y000655D01*
X007685Y000730D01*
X007685Y001030D01*
X007225Y001105D02*
X006925Y001105D01*
X006925Y000655D01*
X007225Y000655D01*
X007075Y000880D02*
X006925Y000880D01*
X006765Y000655D02*
X006464Y000655D01*
X006464Y001105D01*
X005810Y001030D02*
X005810Y000880D01*
X005735Y000805D01*
X005510Y000805D01*
X005510Y000655D02*
X005510Y001105D01*
X005735Y001105D01*
X005810Y001030D01*
X005660Y000805D02*
X005810Y000655D01*
X005350Y000730D02*
X005350Y001030D01*
X005275Y001105D01*
X005050Y001105D01*
X005050Y000655D01*
X005275Y000655D01*
X005350Y000730D01*
X004890Y000655D02*
X004589Y000655D01*
X004589Y001105D01*
X004356Y001105D02*
X004056Y001105D01*
X004206Y001105D02*
X004206Y000655D01*
X003896Y000655D02*
X003596Y000655D01*
X003596Y001105D01*
X003896Y001105D01*
X003746Y000880D02*
X003596Y000880D01*
X003435Y000805D02*
X003435Y000730D01*
X003360Y000655D01*
X003210Y000655D01*
X003135Y000730D01*
X003210Y000880D02*
X003360Y000880D01*
X003435Y000805D01*
X003435Y001030D02*
X003360Y001105D01*
X003210Y001105D01*
X003135Y001030D01*
X003135Y000955D01*
X003210Y000880D01*
X002975Y000655D02*
X002675Y000655D01*
X002675Y001105D01*
X002975Y001105D01*
X002825Y000880D02*
X002675Y000880D01*
X002515Y000880D02*
X002515Y001030D01*
X002440Y001105D01*
X002214Y001105D01*
X002214Y000655D01*
X002214Y000805D02*
X002440Y000805D01*
X002515Y000880D01*
X002364Y000805D02*
X002515Y000655D01*
X002546Y002830D02*
X002139Y002830D01*
X002546Y003237D01*
X002546Y003339D01*
X002444Y003441D01*
X002240Y003441D01*
X002139Y003339D01*
X001634Y003339D02*
X001227Y002932D01*
X001329Y002830D01*
X001532Y002830D01*
X001634Y002932D01*
X001634Y003339D01*
X001532Y003441D01*
X001329Y003441D01*
X001227Y003339D01*
X001227Y002932D01*
X001026Y003034D02*
X001026Y003441D01*
X000619Y003441D02*
X000619Y003034D01*
X000823Y002830D01*
X001026Y003034D01*
X001835Y002932D02*
X001937Y002932D01*
X001937Y002830D01*
X001835Y002830D01*
X001835Y002932D01*
X002869Y003034D02*
X003175Y003034D01*
X003276Y003135D01*
X003276Y003339D01*
X003175Y003441D01*
X002869Y003441D01*
X002869Y002830D01*
X003073Y003034D02*
X003276Y002830D01*
X003477Y002932D02*
X003477Y003135D01*
X003579Y003237D01*
X003782Y003237D01*
X003884Y003135D01*
X003884Y003034D01*
X003477Y003034D01*
X003477Y002932D02*
X003579Y002830D01*
X003782Y002830D01*
X004288Y002830D02*
X004085Y003237D01*
X004492Y003237D02*
X004288Y002830D01*
X005300Y002932D02*
X005707Y003339D01*
X005707Y002932D01*
X005606Y002830D01*
X005402Y002830D01*
X005300Y002932D01*
X005300Y003339D01*
X005402Y003441D01*
X005606Y003441D01*
X005707Y003339D01*
X007563Y005630D02*
X007788Y005630D01*
X007863Y005705D01*
X007863Y006005D01*
X007788Y006080D01*
X007563Y006080D01*
X007563Y005630D01*
X008023Y005630D02*
X008324Y005930D01*
X008324Y006005D01*
X008249Y006080D01*
X008099Y006080D01*
X008023Y006005D01*
X008023Y005630D02*
X008324Y005630D01*
X008563Y005630D02*
X008788Y005630D01*
X008863Y005705D01*
X008863Y006005D01*
X008788Y006080D01*
X008563Y006080D01*
X008563Y005630D01*
X009023Y005705D02*
X009099Y005630D01*
X009249Y005630D01*
X009324Y005705D01*
X009324Y005780D01*
X009249Y005855D01*
X009174Y005855D01*
X009249Y005855D02*
X009324Y005930D01*
X009324Y006005D01*
X009249Y006080D01*
X009099Y006080D01*
X009023Y006005D01*
X009563Y006080D02*
X009563Y005630D01*
X009788Y005630D01*
X009863Y005705D01*
X009863Y006005D01*
X009788Y006080D01*
X009563Y006080D01*
X010023Y005855D02*
X010324Y005855D01*
X010249Y005630D02*
X010249Y006080D01*
X010023Y005855D01*
X012960Y003130D02*
X013110Y003280D01*
X013110Y002830D01*
X012960Y002830D02*
X013260Y002830D01*
X011495Y000880D02*
X011195Y000880D01*
X016144Y002830D02*
X016445Y003130D01*
X016445Y003205D01*
X016370Y003280D01*
X016219Y003280D01*
X016144Y003205D01*
X016144Y002830D02*
X016445Y002830D01*
X017169Y004255D02*
X017319Y004255D01*
X017244Y004255D02*
X017244Y004705D01*
X017169Y004705D02*
X017319Y004705D01*
X017476Y004630D02*
X017476Y004330D01*
X017551Y004255D01*
X017701Y004255D01*
X017777Y004330D01*
X017777Y004630D01*
X017701Y004705D01*
X017551Y004705D01*
X017476Y004630D01*
X017937Y004705D02*
X017937Y004255D01*
X017937Y004405D02*
X018162Y004405D01*
X018237Y004480D01*
X018237Y004630D01*
X018162Y004705D01*
X017937Y004705D01*
X017855Y011880D02*
X017930Y011955D01*
X017930Y012255D01*
X017855Y012330D01*
X017705Y012330D01*
X017630Y012255D01*
X017630Y012180D01*
X017705Y012105D01*
X017930Y012105D01*
X017855Y011880D02*
X017705Y011880D01*
X017630Y011955D01*
X017470Y011955D02*
X017470Y012255D01*
X017395Y012330D01*
X017169Y012330D01*
X017169Y011880D01*
X017395Y011880D01*
X017470Y011955D01*
X014122Y012860D02*
X014033Y012860D01*
X014078Y012860D02*
X014078Y013125D01*
X014033Y013125D01*
X013920Y012993D02*
X013920Y012860D01*
X013788Y012860D01*
X013743Y012904D01*
X013788Y012949D01*
X013920Y012949D01*
X013920Y012993D02*
X013876Y013037D01*
X013788Y013037D01*
X013638Y013037D02*
X013550Y013037D01*
X013594Y013081D02*
X013594Y012904D01*
X013638Y012860D01*
X013437Y012904D02*
X013393Y012949D01*
X013304Y012949D01*
X013260Y012993D01*
X013304Y013037D01*
X013437Y013037D01*
X013437Y012904D02*
X013393Y012860D01*
X013260Y012860D01*
X013147Y012860D02*
X013014Y012860D01*
X012970Y012904D01*
X012970Y013037D01*
X012861Y013037D02*
X012817Y013037D01*
X012728Y012949D01*
X012728Y013037D02*
X012728Y012860D01*
X012615Y012904D02*
X012571Y012860D01*
X012482Y012860D01*
X012438Y012904D01*
X012438Y013081D01*
X012482Y013125D01*
X012571Y013125D01*
X012615Y013081D01*
X013147Y013037D02*
X013147Y012816D01*
X013103Y012772D01*
X013058Y012772D01*
X012467Y014424D02*
X012467Y014512D01*
X012467Y014468D02*
X012202Y014468D01*
X012202Y014424D02*
X012202Y014512D01*
X012246Y014617D02*
X012423Y014617D01*
X012467Y014662D01*
X012467Y014750D01*
X012423Y014794D01*
X012246Y014794D02*
X012202Y014750D01*
X012202Y014662D01*
X012246Y014617D01*
X006438Y016693D02*
X006363Y016618D01*
X006438Y016693D02*
X006438Y016844D01*
X006363Y016919D01*
X006288Y016919D01*
X006213Y016844D01*
X006213Y016769D01*
X006213Y016844D02*
X006138Y016919D01*
X006063Y016919D01*
X005988Y016844D01*
X005988Y016693D01*
X006063Y016618D01*
X005988Y017079D02*
X006288Y017079D01*
X006438Y017229D01*
X006288Y017379D01*
X005988Y017379D01*
X006063Y017539D02*
X005988Y017614D01*
X005988Y017764D01*
X006063Y017839D01*
X006138Y017839D01*
X006213Y017764D01*
X006288Y017839D01*
X006363Y017839D01*
X006438Y017764D01*
X006438Y017614D01*
X006363Y017539D01*
X006213Y017689D02*
X006213Y017764D01*
X004534Y016605D02*
X004534Y016305D01*
X004384Y016155D01*
X004234Y016305D01*
X004234Y016605D01*
X004074Y016605D02*
X003774Y016605D01*
X003774Y016380D01*
X003924Y016455D01*
X003999Y016455D01*
X004074Y016380D01*
X004074Y016230D01*
X003999Y016155D01*
X003849Y016155D01*
X003774Y016230D01*
X003340Y016280D02*
X003340Y016580D01*
X003265Y016655D01*
X003040Y016655D01*
X003040Y016205D01*
X003265Y016205D01*
X003340Y016280D01*
X002880Y016205D02*
X002880Y016655D01*
X002580Y016655D02*
X002880Y016205D01*
X002580Y016205D02*
X002580Y016655D01*
X002420Y016580D02*
X002345Y016655D01*
X002194Y016655D01*
X002119Y016580D01*
X002119Y016280D01*
X002194Y016205D01*
X002345Y016205D01*
X002420Y016280D01*
X002420Y016430D01*
X002269Y016430D01*
X001469Y012130D02*
X001394Y012130D01*
X001319Y012055D01*
X001319Y011830D01*
X001469Y011830D01*
X001544Y011905D01*
X001544Y012055D01*
X001469Y012130D01*
X001169Y011980D02*
X001319Y011830D01*
X001169Y011980D02*
X001094Y012130D01*
X002219Y009361D02*
X002219Y009211D01*
X002219Y009286D02*
X002669Y009286D01*
X002669Y009211D02*
X002669Y009361D01*
X002594Y009051D02*
X002294Y009051D01*
X002219Y008976D01*
X002219Y008751D01*
X002669Y008751D01*
X002669Y008976D01*
X002594Y009051D01*
X002219Y008591D02*
X002219Y008290D01*
X002219Y008441D02*
X002669Y008441D01*
X002444Y007980D02*
X002444Y007830D01*
X002219Y007830D02*
X002219Y008130D01*
X002219Y007830D02*
X002669Y007830D01*
X001556Y005306D02*
X001556Y005006D01*
X001556Y005156D02*
X001106Y005156D01*
X001256Y005006D01*
D13*
X017690Y012974D02*
X017690Y013167D01*
X017787Y013264D01*
X017884Y013167D01*
X017884Y012974D01*
X017985Y012974D02*
X017985Y013264D01*
X018178Y012974D01*
X018178Y013264D01*
X018279Y013264D02*
X018473Y013264D01*
X018376Y013264D02*
X018376Y012974D01*
X018576Y012860D02*
X018946Y012860D01*
X018946Y012983D02*
X018946Y012736D01*
X018885Y012615D02*
X018946Y012553D01*
X018946Y012430D01*
X018885Y012368D01*
X018638Y012615D01*
X018885Y012615D01*
X018700Y012736D02*
X018576Y012860D01*
X018638Y012615D02*
X018576Y012553D01*
X018576Y012430D01*
X018638Y012368D01*
X018885Y012368D01*
X018638Y012247D02*
X018885Y012000D01*
X018946Y012000D01*
X018885Y011878D02*
X018946Y011817D01*
X018946Y011693D01*
X018885Y011631D01*
X018638Y011878D01*
X018885Y011878D01*
X018885Y011631D02*
X018638Y011631D01*
X018576Y011693D01*
X018576Y011817D01*
X018638Y011878D01*
X018576Y012000D02*
X018576Y012247D01*
X018638Y012247D01*
X018638Y011510D02*
X018700Y011510D01*
X018761Y011448D01*
X018823Y011510D01*
X018885Y011510D01*
X018946Y011448D01*
X018946Y011325D01*
X018885Y011263D01*
X018946Y011142D02*
X018946Y010895D01*
X018946Y011018D02*
X018576Y011018D01*
X018700Y010895D01*
X018638Y010773D02*
X018885Y010527D01*
X018946Y010588D01*
X018946Y010712D01*
X018885Y010773D01*
X018638Y010773D01*
X018576Y010712D01*
X018576Y010588D01*
X018638Y010527D01*
X018885Y010527D01*
X018946Y010405D02*
X018946Y010158D01*
X018700Y010405D01*
X018638Y010405D01*
X018576Y010343D01*
X018576Y010220D01*
X018638Y010158D01*
X018638Y010037D02*
X018576Y009975D01*
X018576Y009790D01*
X018946Y009790D01*
X018946Y009975D01*
X018885Y010037D01*
X018638Y010037D01*
X018576Y009668D02*
X018946Y009668D01*
X018761Y009668D02*
X018761Y009422D01*
X018638Y009300D02*
X018576Y009238D01*
X018576Y009053D01*
X018946Y009053D01*
X018946Y009238D01*
X018885Y009300D01*
X018638Y009300D01*
X018576Y009422D02*
X018946Y009422D01*
X018638Y011263D02*
X018576Y011325D01*
X018576Y011448D01*
X018638Y011510D01*
X018761Y011448D02*
X018761Y011387D01*
X017884Y013119D02*
X017690Y013119D01*
D14*
X017758Y013674D02*
X017958Y013674D01*
X017758Y013674D02*
X017758Y013874D01*
X017758Y014374D02*
X017758Y014574D01*
X017958Y014574D01*
X018458Y014574D02*
X018658Y014574D01*
X018658Y014374D01*
X018658Y013874D02*
X018658Y013674D01*
X018458Y013674D01*
X016462Y013878D02*
X015762Y013878D01*
X015995Y014112D01*
X015762Y014345D01*
X016462Y014345D01*
X016462Y014578D02*
X015995Y015045D01*
X015878Y015045D01*
X015762Y014928D01*
X015762Y014695D01*
X015878Y014578D01*
X016462Y014578D02*
X016462Y015045D01*
X016462Y015278D02*
X015995Y015745D01*
X015878Y015745D01*
X015762Y015628D01*
X015762Y015394D01*
X015878Y015278D01*
X016462Y015278D02*
X016462Y015745D01*
X016462Y015977D02*
X016462Y016328D01*
X016345Y016444D01*
X016229Y016444D01*
X016112Y016328D01*
X016112Y015977D01*
X016462Y015977D02*
X015762Y015977D01*
X015762Y016328D01*
X015878Y016444D01*
X015995Y016444D01*
X016112Y016328D01*
X015762Y013645D02*
X015762Y013178D01*
X016462Y013178D01*
X016462Y012945D02*
X016229Y012712D01*
X016229Y012829D02*
X016229Y012478D01*
X016462Y012478D02*
X015762Y012478D01*
X015762Y012829D01*
X015878Y012945D01*
X016112Y012945D01*
X016229Y012829D01*
X016112Y013178D02*
X016112Y013412D01*
X017144Y011630D02*
X017144Y011430D01*
X017144Y011630D02*
X017344Y011630D01*
X017844Y011630D02*
X018044Y011630D01*
X018044Y011430D01*
X018044Y010930D02*
X018044Y010730D01*
X017844Y010730D01*
X017344Y010730D02*
X017144Y010730D01*
X017144Y010930D01*
X018394Y009330D02*
X018394Y007530D01*
X003794Y007530D01*
X003794Y008180D01*
X003824Y008182D01*
X003854Y008187D01*
X003883Y008196D01*
X003910Y008209D01*
X003936Y008224D01*
X003960Y008243D01*
X003981Y008264D01*
X004000Y008288D01*
X004015Y008314D01*
X004028Y008341D01*
X004037Y008370D01*
X004042Y008400D01*
X004044Y008430D01*
X004042Y008460D01*
X004037Y008490D01*
X004028Y008519D01*
X004015Y008546D01*
X004000Y008572D01*
X003981Y008596D01*
X003960Y008617D01*
X003936Y008636D01*
X003910Y008651D01*
X003883Y008664D01*
X003854Y008673D01*
X003824Y008678D01*
X003794Y008680D01*
X003794Y009330D01*
X018394Y009330D01*
X018044Y004005D02*
X017844Y004005D01*
X018044Y004005D02*
X018044Y003805D01*
X018044Y003305D02*
X018044Y003105D01*
X017844Y003105D01*
X017344Y003105D02*
X017144Y003105D01*
X017144Y003305D01*
X017144Y003805D02*
X017144Y004005D01*
X017344Y004005D01*
X016685Y004025D02*
X012755Y004025D01*
X012755Y003945D01*
X016685Y003945D01*
X016685Y001255D01*
X016685Y000405D01*
X012755Y000405D01*
X012755Y001255D01*
X012755Y003945D01*
X013535Y003425D02*
X013537Y003453D01*
X013543Y003480D01*
X013552Y003506D01*
X013565Y003531D01*
X013582Y003554D01*
X013601Y003574D01*
X013623Y003591D01*
X013647Y003605D01*
X013673Y003615D01*
X013700Y003622D01*
X013728Y003625D01*
X013756Y003624D01*
X013783Y003619D01*
X013810Y003610D01*
X013835Y003598D01*
X013858Y003583D01*
X013879Y003564D01*
X013897Y003543D01*
X013912Y003519D01*
X013923Y003493D01*
X013931Y003467D01*
X013935Y003439D01*
X013935Y003411D01*
X013931Y003383D01*
X013923Y003357D01*
X013912Y003331D01*
X013897Y003307D01*
X013879Y003286D01*
X013858Y003267D01*
X013835Y003252D01*
X013810Y003240D01*
X013783Y003231D01*
X013756Y003226D01*
X013728Y003225D01*
X013700Y003228D01*
X013673Y003235D01*
X013647Y003245D01*
X013623Y003259D01*
X013601Y003276D01*
X013582Y003296D01*
X013565Y003319D01*
X013552Y003344D01*
X013543Y003370D01*
X013537Y003397D01*
X013535Y003425D01*
X015505Y003425D02*
X015507Y003453D01*
X015513Y003480D01*
X015522Y003506D01*
X015535Y003531D01*
X015552Y003554D01*
X015571Y003574D01*
X015593Y003591D01*
X015617Y003605D01*
X015643Y003615D01*
X015670Y003622D01*
X015698Y003625D01*
X015726Y003624D01*
X015753Y003619D01*
X015780Y003610D01*
X015805Y003598D01*
X015828Y003583D01*
X015849Y003564D01*
X015867Y003543D01*
X015882Y003519D01*
X015893Y003493D01*
X015901Y003467D01*
X015905Y003439D01*
X015905Y003411D01*
X015901Y003383D01*
X015893Y003357D01*
X015882Y003331D01*
X015867Y003307D01*
X015849Y003286D01*
X015828Y003267D01*
X015805Y003252D01*
X015780Y003240D01*
X015753Y003231D01*
X015726Y003226D01*
X015698Y003225D01*
X015670Y003228D01*
X015643Y003235D01*
X015617Y003245D01*
X015593Y003259D01*
X015571Y003276D01*
X015552Y003296D01*
X015535Y003319D01*
X015522Y003344D01*
X015513Y003370D01*
X015507Y003397D01*
X015505Y003425D01*
X016685Y003945D02*
X016685Y004025D01*
X016685Y001255D02*
X016055Y001255D01*
X015355Y001255D02*
X014085Y001255D01*
X013385Y001255D02*
X012755Y001255D01*
X010438Y004355D02*
X010238Y004355D01*
X010438Y004355D02*
X010438Y004555D01*
X010438Y005055D02*
X010438Y005255D01*
X010238Y005255D01*
X009738Y005255D02*
X009538Y005255D01*
X009538Y005055D01*
X009438Y005055D02*
X009438Y005255D01*
X009238Y005255D01*
X008738Y005255D02*
X008538Y005255D01*
X008538Y005055D01*
X008438Y005055D02*
X008438Y005255D01*
X008238Y005255D01*
X007738Y005255D02*
X007538Y005255D01*
X007538Y005055D01*
X007538Y004555D02*
X007538Y004355D01*
X007738Y004355D01*
X008238Y004355D02*
X008438Y004355D01*
X008438Y004555D01*
X008538Y004555D02*
X008538Y004355D01*
X008738Y004355D01*
X009238Y004355D02*
X009438Y004355D01*
X009438Y004555D01*
X009538Y004555D02*
X009538Y004355D01*
X009738Y004355D01*
X006851Y004238D02*
X006851Y005338D01*
X006849Y005355D01*
X006845Y005372D01*
X006838Y005388D01*
X006828Y005402D01*
X006815Y005415D01*
X006801Y005425D01*
X006785Y005432D01*
X006768Y005436D01*
X006751Y005438D01*
X006151Y005438D01*
X006134Y005436D01*
X006117Y005432D01*
X006101Y005425D01*
X006087Y005415D01*
X006074Y005402D01*
X006064Y005388D01*
X006057Y005372D01*
X006053Y005355D01*
X006051Y005338D01*
X006051Y004238D01*
X006053Y004221D01*
X006057Y004204D01*
X006064Y004188D01*
X006074Y004174D01*
X006087Y004161D01*
X006101Y004151D01*
X006117Y004144D01*
X006134Y004140D01*
X006151Y004138D01*
X006751Y004138D01*
X006768Y004140D01*
X006785Y004144D01*
X006801Y004151D01*
X006815Y004161D01*
X006828Y004174D01*
X006838Y004188D01*
X006845Y004204D01*
X006849Y004221D01*
X006851Y004238D01*
X001919Y005805D02*
X001919Y006305D01*
X001469Y006555D01*
X001919Y006805D01*
X001919Y007305D01*
X001469Y007555D01*
X001919Y007805D01*
X001919Y008305D01*
X001469Y008555D01*
X001919Y008805D01*
X001919Y009305D01*
X001469Y009555D01*
X001919Y009805D01*
X001919Y010305D01*
X001469Y010555D01*
X001919Y010805D01*
X001919Y011305D01*
X001469Y011555D01*
X000969Y011555D01*
X000519Y011305D01*
X000519Y010805D01*
X000969Y010555D01*
X000519Y010305D01*
X000519Y009805D01*
X000969Y009555D01*
X000519Y009305D01*
X000519Y008805D01*
X000969Y008555D01*
X000519Y008305D01*
X000519Y007805D01*
X000969Y007555D01*
X000519Y007305D01*
X000519Y006805D01*
X000969Y006555D01*
X000519Y006305D01*
X000519Y005805D01*
X000969Y005555D01*
X001469Y005555D01*
X001919Y005805D01*
X004394Y010855D02*
X004594Y010855D01*
X004394Y010855D02*
X004394Y011055D01*
X004394Y011555D02*
X004394Y011755D01*
X004594Y011755D01*
X005094Y011755D02*
X005294Y011755D01*
X005294Y011555D01*
X005519Y011555D02*
X005519Y011755D01*
X005719Y011755D01*
X006219Y011755D02*
X006419Y011755D01*
X006419Y011555D01*
X006419Y011055D02*
X006419Y010855D01*
X006219Y010855D01*
X005719Y010855D02*
X005519Y010855D01*
X005519Y011055D01*
X005294Y011055D02*
X005294Y010855D01*
X005094Y010855D01*
X006894Y010855D02*
X007094Y010855D01*
X006894Y010855D02*
X006894Y011055D01*
X006894Y011555D02*
X006894Y011755D01*
X007094Y011755D01*
X007594Y011755D02*
X007794Y011755D01*
X007794Y011555D01*
X007894Y011555D02*
X007894Y011755D01*
X008094Y011755D01*
X008594Y011755D02*
X008794Y011755D01*
X008794Y011555D01*
X008894Y011555D02*
X008894Y011755D01*
X009094Y011755D01*
X009594Y011755D02*
X009794Y011755D01*
X009794Y011555D01*
X009794Y011055D02*
X009794Y010855D01*
X009594Y010855D01*
X009094Y010855D02*
X008894Y010855D01*
X008894Y011055D01*
X008794Y011055D02*
X008794Y010855D01*
X008594Y010855D01*
X008094Y010855D02*
X007894Y010855D01*
X007894Y011055D01*
X007794Y011055D02*
X007794Y010855D01*
X007594Y010855D01*
X005919Y016855D02*
X005719Y016855D01*
X005919Y016855D02*
X005919Y017055D01*
X005919Y017555D02*
X005919Y017755D01*
X005719Y017755D01*
X005219Y017755D02*
X005019Y017755D01*
X005019Y017555D01*
X004669Y017555D02*
X004669Y017755D01*
X004469Y017755D01*
X003969Y017755D02*
X003769Y017755D01*
X003769Y017555D01*
X003419Y017555D02*
X003419Y017755D01*
X003219Y017755D01*
X002719Y017755D02*
X002519Y017755D01*
X002519Y017555D01*
X002519Y017055D02*
X002519Y016855D01*
X002719Y016855D01*
X003219Y016855D02*
X003419Y016855D01*
X003419Y017055D01*
X003769Y017055D02*
X003769Y016855D01*
X003969Y016855D01*
X004469Y016855D02*
X004669Y016855D01*
X004669Y017055D01*
X005019Y017055D02*
X005019Y016855D01*
X005219Y016855D01*
D15*
X010445Y017560D02*
X010445Y011260D01*
X012275Y012363D02*
X012275Y013623D01*
X014244Y013623D01*
X014244Y012363D01*
X012275Y012363D01*
X011626Y014016D02*
X011626Y015394D01*
X013004Y015394D01*
X013004Y014016D01*
X011626Y014016D01*
X016744Y011260D02*
X016744Y017560D01*
D16*
X016914Y008656D02*
X016914Y008025D01*
X016704Y008025D02*
X017124Y008025D01*
X016704Y008445D02*
X016914Y008656D01*
X016479Y008550D02*
X016374Y008656D01*
X016164Y008656D01*
X016059Y008550D01*
X016059Y008130D01*
X016164Y008025D01*
X016374Y008025D01*
X016479Y008130D01*
X015840Y008025D02*
X015629Y008025D01*
X015734Y008025D02*
X015734Y008656D01*
X015629Y008656D02*
X015840Y008656D01*
M02*
