G75*
G70*
%OFA0B0*%
%FSLAX24Y24*%
%IPPOS*%
%LPD*%
%AMOC8*
5,1,8,0,0,1.08239X$1,22.5*
%
%ADD10C,0.0000*%
%ADD11C,0.0050*%
D10*
X000219Y000180D02*
X000219Y018176D01*
X019377Y018176D01*
X019382Y018176D02*
X019382Y000180D01*
X019377Y000180D02*
X000219Y000180D01*
D11*
X000885Y012524D02*
X001404Y012524D01*
X001424Y012526D01*
X001444Y012531D01*
X001463Y012540D01*
X001480Y012552D01*
X001494Y012566D01*
X001506Y012583D01*
X001515Y012602D01*
X001520Y012622D01*
X001522Y012642D01*
X001520Y012662D01*
X001515Y012682D01*
X001506Y012701D01*
X001494Y012718D01*
X001480Y012732D01*
X001463Y012744D01*
X001444Y012753D01*
X001424Y012758D01*
X001404Y012760D01*
X000885Y012760D01*
X000865Y012758D01*
X000845Y012753D01*
X000826Y012744D01*
X000809Y012732D01*
X000795Y012718D01*
X000783Y012701D01*
X000774Y012682D01*
X000769Y012662D01*
X000767Y012642D01*
X000769Y012622D01*
X000774Y012602D01*
X000783Y012583D01*
X000795Y012566D01*
X000809Y012552D01*
X000826Y012540D01*
X000845Y012531D01*
X000865Y012526D01*
X000885Y012524D01*
X000986Y013212D02*
X000239Y013212D01*
X000239Y013449D02*
X000986Y013449D01*
X001006Y013447D01*
X001026Y013442D01*
X001045Y013433D01*
X001062Y013421D01*
X001076Y013407D01*
X001088Y013390D01*
X001097Y013371D01*
X001102Y013351D01*
X001104Y013331D01*
X001102Y013311D01*
X001097Y013291D01*
X001088Y013272D01*
X001076Y013255D01*
X001062Y013241D01*
X001045Y013229D01*
X001026Y013220D01*
X001006Y013215D01*
X000986Y013213D01*
X000986Y015083D02*
X000239Y015083D01*
X000239Y015319D02*
X000986Y015319D01*
X001006Y015317D01*
X001026Y015312D01*
X001045Y015303D01*
X001062Y015291D01*
X001076Y015277D01*
X001088Y015260D01*
X001097Y015241D01*
X001102Y015221D01*
X001104Y015201D01*
X001102Y015181D01*
X001097Y015161D01*
X001088Y015142D01*
X001076Y015125D01*
X001062Y015111D01*
X001045Y015099D01*
X001026Y015090D01*
X001006Y015085D01*
X000986Y015083D01*
X000885Y015745D02*
X001404Y015745D01*
X001424Y015747D01*
X001444Y015752D01*
X001463Y015761D01*
X001480Y015773D01*
X001494Y015787D01*
X001506Y015804D01*
X001515Y015823D01*
X001520Y015843D01*
X001522Y015863D01*
X001520Y015883D01*
X001515Y015903D01*
X001506Y015922D01*
X001494Y015939D01*
X001480Y015953D01*
X001463Y015965D01*
X001444Y015974D01*
X001424Y015979D01*
X001404Y015981D01*
X000885Y015981D01*
X000865Y015979D01*
X000845Y015974D01*
X000826Y015965D01*
X000809Y015953D01*
X000795Y015939D01*
X000783Y015922D01*
X000774Y015903D01*
X000769Y015883D01*
X000767Y015863D01*
X000769Y015843D01*
X000774Y015823D01*
X000783Y015804D01*
X000795Y015787D01*
X000809Y015773D01*
X000826Y015761D01*
X000845Y015752D01*
X000865Y015747D01*
X000885Y015745D01*
X003141Y015311D02*
X003228Y015311D01*
X003247Y015309D01*
X003265Y015304D01*
X003282Y015296D01*
X003297Y015284D01*
X003310Y015270D01*
X003320Y015254D01*
X003327Y015236D01*
X003331Y015218D01*
X003331Y015198D01*
X003327Y015180D01*
X003320Y015162D01*
X003310Y015146D01*
X003297Y015132D01*
X003282Y015120D01*
X003265Y015112D01*
X003247Y015107D01*
X003228Y015105D01*
X003228Y015106D02*
X003141Y015106D01*
X003141Y015105D02*
X003122Y015107D01*
X003104Y015112D01*
X003087Y015120D01*
X003072Y015132D01*
X003059Y015146D01*
X003049Y015162D01*
X003042Y015180D01*
X003038Y015198D01*
X003038Y015218D01*
X003042Y015236D01*
X003049Y015254D01*
X003059Y015270D01*
X003072Y015284D01*
X003087Y015296D01*
X003104Y015304D01*
X003122Y015309D01*
X003141Y015311D01*
X003141Y013406D02*
X003228Y013406D01*
X003247Y013404D01*
X003265Y013399D01*
X003282Y013391D01*
X003297Y013379D01*
X003310Y013365D01*
X003320Y013349D01*
X003327Y013331D01*
X003331Y013313D01*
X003331Y013293D01*
X003327Y013275D01*
X003320Y013257D01*
X003310Y013241D01*
X003297Y013227D01*
X003282Y013215D01*
X003265Y013207D01*
X003247Y013202D01*
X003228Y013200D01*
X003228Y013201D02*
X003141Y013201D01*
X003141Y013200D02*
X003122Y013202D01*
X003104Y013207D01*
X003087Y013215D01*
X003072Y013227D01*
X003059Y013241D01*
X003049Y013257D01*
X003042Y013275D01*
X003038Y013293D01*
X003038Y013313D01*
X003042Y013331D01*
X003049Y013349D01*
X003059Y013365D01*
X003072Y013379D01*
X003087Y013391D01*
X003104Y013399D01*
X003122Y013404D01*
X003141Y013406D01*
M02*
